<?xml version="1.0" encoding="UTF-8"?>
<!-- Created with Inkscape (http://www.inkscape.org/) -->
<svg width="822" height="1122" version="1.1" viewBox="0 0 822 1122" xml:space="preserve" xmlns="http://www.w3.org/2000/svg"><path d="m89 1e3c-4.5-1.3-6.7-2.9-8.9-6.5l-2.2-3.5 0.053-461c0.029-254 0.072-465 0.096-469 0.042-7.1 0.16-7.4 4-12l3.9-4.2 320-0.26c237-0.19 321 0.035 323 0.87 1.5 0.62 4.1 2.7 5.7 4.5l3 3.4-2e-3 469c-2e-3 460-0.037 469-1.9 472-1.1 1.7-3.4 4-5.2 5.1-3.5 2.1-634 3.6-641 1.5zm44-8.3c0-4.6-0.35-5.9-1.8-6.4-5.7-1.9-13-6-18-9.5l-5.4-4-11 11c-15 15-16 14 16 14h21zm219 0.45 0.3-5.2-4.3-0.017c-2.4-0.01-51-0.012-108-0.01l-104 0.012-0.32 3.1c-0.18 1.7-0.085 4.1 0.21 5.3l0.53 2.1 215-0.15zm36 1.1c6-20 35-20 40 1 0.47 1.9 1.3 2.8 2.9 2.8 3.9 0.12 13 0.13 21 0.03l7.7-0.096 0.69-10h-19l-33-16-30 15h-22l-0.31 4.4c-0.51 7-1 6.8 16 6.6l15-0.2zm290-0.96-1e-5 -5.2-42-0.27c-23-0.15-71-0.15-108-6e-4l-66 0.27v4.9c0 6.2-13 5.5 110 5.5h105zm50 4.1c1.6-0.92 0.38-2.5-10-13l-12-12-2.5 2.3c-4.5 4.1-12 8.6-18 10l-5.3 1.7v5.2c0 4.7 0.24 5.3 2.2 5.6 5.8 0.83 43 0.18 45-0.77zm-304-1.7c-5-16-25-18-33-3.7-3.1 6-3.2 5.9 16 5.9h18zm309-3c1.7-4.3 0.77-47-0.97-47-0.99-0.021-3.4-0.28-5.5-0.57-3.5-0.51-3.7-0.38-4.9 3.3-2 6-5.9 13-9.6 18l-3.4 4.1 11 11c12 12 12 12 13 11zm-648-1.5c1-0.96 6.2-6 11-11l9.6-9.3-3.9-5.2c-4.2-5.6-8.4-14-9.4-18-0.6-2.5-1-2.7-6.1-2.7h-5.5l-0.029 10c-0.016 5.6-0.092 15-0.17 22-0.18 15 0.55 18 4 14zm307-15c8.3-4.1 15-7.5 16-7.5s7.3 3.4 16 7.5l15 7.5h245l8.3-4.2c11-5.4 19-14 25-25l3.8-7.7 0.51-804h-23l-1.2 6.7c-11 65-111 63-121-2.2l-0.68-4.5h-480l-0.016 74c-0.0088 41-0.015 221-0.014 400l0.0023 327 2.1 5.6c4.9 13 14 23 27 30l7.9 4h245zm-272-414c-5.7-2-9.5-5.3-12-10l-2.1-4.3-0.013-160c-0.011-135 0.2-160 1.4-163 1.7-4 7.1-9.3 11-11 4.7-1.8 577-1.5 581 0.32 3.9 1.7 9.2 7.1 11 11 2.3 6.2 1.4 321-0.97 326-2.2 4.6-7.6 8.9-13 10-5.6 1.6-571 1.2-576-0.4zm518-1.8 57-0.28 4.1-2.4c2.4-1.4 5.1-4.1 6.5-6.5l2.4-4.1v-79l0.49-158c-8e-3 -106 8.6-94-72-94-73-0.56-65 0.048-143-6e-3l-172 4.2e-4c-79 0-143 6e-3 -143 6e-3 -57 6e-3 -60 0.16-65 4.7-6.1 5.1-5.9 1.9-5.9 88v160c0 86-0.23 82 5.3 87 5.7 5.3-7.4 5.6 238 5.1 162-0.3 185 0.27 286-0.16zm-547 375c0.0089-3.4 0.022-192 0.03-419l0.014-412-11-0.58 0.2 417c0.11 230 0.22 418 0.25 419 0.037 1.4 0.97 1.8 5 1.8h5zm643-413 0.027-419h-11v838h11zm-84-328c31-6 52-43 42-74-19-61-110-49-113 14-2.1 39 31 67 71 60zm-24-5.3c-35-7.9-52-49-33-78 28-43 94-24 94 28 0 34-30 58-62 51zm32-7.3c38-19 35-74-5.4-88-15-5-24-4.2-40 3.8-8.2 4-20 19-21 27-0.31 1.7-0.84 3.6-1.2 4.2-2.1 3.5-0.76 20 2.2 27 0.73 1.6 2.1 4.6 2.9 6.6 9.2 20 41 30 63 19zm-27-8.3c-6.4-1.8-27-35-24-39 2.7-2.7 6.3-0.65 10 5.8 7 11 11 5.7 7.3-11-0.48-2.2-1.2-6.7-1.5-10-1.2-11 5.2-14 6.9-3.1 3.1 20 5.1 23 5.1 6.4-0.05-14 0.65-18 3.4-18 3.1 0 3.5 1.7 4 16 0.62 16 2.1 17 3.6 2 1.3-14 2.2-16 5.9-12 1.4 1.4 1.5 3.5 1 15-0.79 17-0.068 17 7.6 0.13 2.5-5.6 5.4-6.4 6.4-1.9 0.62 2.8 0.07 4.6-5 16-2.4 5.4-4.5 13-4.3 18 0.37 13-12 20-27 16zm-536-78c2-5.8 6.1-13 9.9-17l2.6-2.8-11-11c-14-13-14-13-14-0.13-0.0087 5.4-0.065 15-0.12 21-0.16 17-0.75 15 5.7 15l5.6-0.3zm640-18c-0.38-28 0.58-27-13-13l-12 12 2.6 2.8c3.3 3.6 8 12 9.6 17 1.8 5.7 1.6 5.5 7.6 5.5h5.5zm-310-11 15-7.5h20l0.35-5.1c0.44-6.5 1.9-5.9-15-5.9h-15l-1.5 3.8c-3.9 9.9-9.1 14-18 15-11 0.89-20-5.7-23-17-0.38-1.3-2.8-1.5-16-1.5l-15 0.05v10l23 1 14 7.2c17 8.7 13 8.8 31-0.2zm-310 2.5c2.9-2.2 8.3-5.2 12-6.7l6.8-2.7v-5.3c0-6.8 0.7-6.6-25-6.2-26 0.43-26 0.015-12 13 5.8 5.6 11 11 11 11 0.63 1.4 2.1 0.75 7.4-3.3zm614-19c-0.65-0.65-9.4-1-24-1h-23v11l5 1.7c5.5 1.9 12 5.7 17 9.6l3 2.5 11-11c7.7-7.7 11-11 10-12zm-314 13c5.1-2.6 11-9.3 11-13 0-0.3-7.9-0.54-18-0.54-19 0-19 0.02-16 4.8 4.3 8.3 15 12 23 8.6zm-72-3.4 9.6-0.02-0.24-10h-215l-0.1 3.5c-0.22 7.7-5.5 7 55 7.3 30 0.14 74 0.16 98 0.029s48-0.24 53-0.25zm291 3.3e-4 45-0.021v-11l-106 0.037c-122 0.043-109-0.62-109 5.9l0.35 5c57 0.7 113 0.09 170 0.042zm-494 63c-0.3-0.48-0.058-2.2 0.53-3.9 1.1-3.2 1-3.2 11-3.4 5.5-0.14 6.7 0.65 7.5 4.9 0.62 3.3 0.68 3.3 5.9 3.3h5.3l-2.3-3.7c-3.5-5.6-12-24-13-27-0.32-2.1-3.1-3-4.9-3-5.5 7e-3 -5.1 2.6-6 4.1-1.5 2.3-1.2 5.4-1.9 6.1-1.8 1.9-7.4 14-9.4 20l-1 3.2h4.4c2.4 0 4.2-0.39 3.9-0.87zm5.3-13c0-0.22 0.92-2.5 2-5.1 2.2-5.1 2.4-5.1 5.4 2.1l1.4 3.4h-4.4c-2.4 0-4.4-0.18-4.4-0.41zm34 13c0.82 4.9e-4 1-2.2 0.66-7.8-0.27-4.3-0.2-7.8 0.15-7.8 0.35 3.8e-4 1.6 1.9 2.8 4.2 2.8 5.3 6.2 10 7.1 11 0.36 4e-3 2.3-2.8 4.2-6.3 2-3.5 4-6.6 4.5-6.9 0.59-0.36 0.96 2.3 0.96 7.1v7.7l7.4-0.7-0.28-13c-0.23-10-0.59-13-1.8-14-0.84-0.64-2.5-1.2-3.2-0.97-2.7-0.27-4.6-1.8-5.1 3-3e-3 1.1-0.73 3.4-1.6 5-0.88 1.6-2.4 4.4-3.3 6.2l-1.7 3.3-3.6-6.7c-2-3.7-3.6-7.3-3.6-7.9 0-1.3-2.6-2.2-7.4-2.5-2.1-0.15-2.9 0.19-2.7 1.2 0.16 0.75 0.35 6.9 0.42 14 0.13 12 0.7 14 3.5 13 0.72-0.26 1.8-0.48 2.5-0.48zm40-1.9c0-4.3 0.94-5 7.3-5 5.5 0 6.3 0.25 7.4 2.4 0.7 1.3 0.97 2.8 0.6 3.4-0.45 0.72 0.99 1.1 4.4 1.1 3.9 0 4.9-0.28 4.1-1.2-2.2-2.7-12-23-12-24 0.3-1.3-2.9-2.6-6.7-2.8-1.6-0.077-2.2 0.62-2.6 3.3-0.31 1.9-1.4 4.6-2.4 6.1-1 1.5-2.2 3.9-2.5 5.3s-1.2 3.2-2 3.9c-0.72 0.72-1.6 2.4-1.8 3.7s-0.85 3.2-1.2 4.1c-0.62 1.5-0.15 1.7 3.3 1.7 3.3 0 4-0.33 4-1.9zm5-12c1.4-5 2.6-5.4 4.3-1.3 0.85 2 1.5 3.8 1.5 4s-1.5 0.37-3.4 0.37c-3.3 0-3.4-0.046-2.5-3.1zm48 10 2.2e-4 -3-18 0.83 0.18-10c0.19-11-0.19-12-4.8-12-3 0.65-2.7-0.24-2.5 8 0.16 5 0.29 12 0.3 15l0.012 5.4 25-0.076zm125 417c-52-0.55-66-59-61-51 10 16 38 24 51 26 15 2.4 39 1.5 53-1.9 17-4.3 31-12 38-21 0 0-2.4 22-10 29-17 15-59 19-71 18zm-0.8-27c-23-2-43-9.9-54-21-5.2-5.5-17-22 3.6-42 8.2-7.6 11-9 5.1-2.3-10 11-12 22-6.6 32 7.5 14 25 21 57 24 28 2.5 54-3.7 67-16 11-11 11-26-0.44-39-5.9-6.5-4.5-6 3.2 1.2 5.8 5.5 11 15 12 21 0.4 2.9 0.035 6.4-1.1 10-3.2 11-17 21-35 27-15 4.7-35 6.8-51 5.5zm4.3-13c-26-2.3-50-13-54-23-4.1-9.8 0.68-20 19-40 9.2-9.9 15-20 17-31 1.2-5.7 1.5-6.3 3.5-6 12 1.7 13-16 1.6-22-1.4-0.8-1.6-1.7-1.1-4.2 0.61-2.7 1-3.1 2.8-2.6 5.3 1.6 24 1.7 31 0.13 4.1-0.86 7.7-1.6 8-1.6s0.91 3.3 1.3 7.4 0.95 8.1 1.3 9-0.74 0.25-2.4-1.5c-7-7.3-18-1.7-18 9.1 0 5 4.4 9.3 9.5 9.3 4.9-5e-3 9.9-3.1 11-6.6 0.58-2.3 0.9-1.5 1.9 4.5 2.7 16 9 27 25 43 12 12 14 17 14 24-0.12 12-9 21-24 26-12 3.8-36 6.8-48 5.7zm17-101c-6.3-4.5-1.2-15 6.5-13 2.8 0.55 4.9 3.3 4.9 6.5 0 6.1-6.8 10-11 6.9zm-31-2.3c-3.5-0.73-5.4-3.2-5.4-7.2 0-3.9 2.6-7.7 5.3-7.7 2.2 0 5.8 8.3 5 12-0.69 3.1-1.9 3.9-4.9 3.2zm48-17c-0.038-2.3 0.1-4.2 0.31-4.2 0.84 0 1.2 4.7 0.51 6.4-0.53 1.3-0.76 0.67-0.81-2.3zm-41-11c-6.3-2.1-10-5.2-10-8.3 0.026-4.6 1.4-5.4 3.7-2.2 3.4 4.5 11 6.2 25 5.7 13-0.36 16-1.4 19-6.3 0.58-1 1.2-2.1 1.4-2.4 0.16-0.25 0.71 0.19 1.2 0.98 1.5 2.3 1.1 6.4-0.78 8-4.7 4.2-31 7-39 4.3zm6.2-8.2c-1-0.43 3-0.84 9.4-0.94 6.1-0.098 13-0.62 15-1.2 4.1-1.2 5-0.67 1.9 1-2.6 1.4-23 2.3-26 1.1zm-4.3-5.1c-4.6-0.96-10-3.6-11-5.3-1.2-1.8-0.83-5.2 0.77-6.5 1.3-1.1 1.6-0.92 2.1 0.9 0.32 1.2 2.4 3.1 4.6 4.3 3.6 1.9 5.6 2.1 16 2.2 14 0.012 21-1.7 23-6.1 1.2-2.6 1.3-2.6 2.6-0.77 2.9 3.9 1.1 6.9-6 9.9-4.5 1.9-25 2.8-32 1.4zm5.1-7.8-3-0.75 3-0.03c1.6-0.016 5.2 0.31 7.9 0.73l4.9 0.76-4.9 0.015c-2.7 8e-3 -7.9 0.94-7.9-0.73zm21-1.5c2.9-0.78 5.5-1.2 5.8-0.98 0.59 0.58-6.6 2.5-9.1 2.5-1.1-0.032 0.42-0.7 3.3-1.5zm-28-0.097c0-0.76 1.6-0.25 1.9 0.077 0.33 0.32-0.25 0.56-1.3 0.51-1.1-0.047-0.59 0.25-0.59-0.59zm3.1-3.2c-6-1.1-12-3.6-12-5.4-0.87-2.3 0.45-6.4 2-6.4 0.77 0 1.7 0.9 2 2 0.35 1.1 1.8 2.5 3.3 3.1 7.2 3 28 2.6 34-0.59 1.6-0.82 3.2-2.5 3.5-3.7 0.62-2.2 0.67-2.2 2.1-0.34 0.8 1 1.5 2.6 1.5 3.5 0 1.9-3.4 5-7.4 6.8-3.5 1.5-23 2.3-29 1.1zm-1.5-9.2-3.9-1.3 0.35-9.7c0.19-5.4 0.51-10 0.72-10s2.7-0.17 5.6 0.36c2.9 0.53 10 0.73 16 0.44l11-0.52v5.2c0 2.8 0.27 7.1 0.61 9.6 0.59 4.3 0.54 4.4-2.7 5.6-5 1.8-23 2.3-28 0.76zm-2.5-25c-6.3-1.9-6.8-2.9-6.2-13 0.47-7.8 0.2-10-2.1-18-3.1-11-3.3-16-0.84-18 2.7-2.5 15-3.9 30-3.4 11 0.3 15 0.73 18 2.3 3.4 1.7 4 2.4 4.2 5.6 0.17 2-0.83 7.6-2.2 12-2.1 7.2-2.5 10-2.3 19l0.26 10-3.9 1.9c-3.3 1.6-6.3 2-18 2.2-7.6 0.13-15-0.23-17-0.79z"/>
<text transform="translate(-15 -15)" x="144.12617" y="663.52429" fill="#000000" font-size="36px" style="inline-size:584.851;line-height:0.9;white-space:pre" xml:space="preserve"><tspan x="144.12617" y="663.52429"><tspan font-size="29px">At the beginning of any phase, cause </tspan></tspan><tspan x="144.12617" y="701.92429"><tspan font-size="29px">all players to discard half of the spice </tspan></tspan><tspan x="144.12617" y="740.32432"><tspan font-size="29px">behind their shields, rounded up, to </tspan></tspan><tspan x="144.12617" y="778.72434"><tspan font-size="29px">the Spice Bank.</tspan>
</tspan></text><text transform="translate(-11 -8.2)" fill="#000000" font-size="43px" style="shape-inside:url(#rect2);white-space:pre" xml:space="preserve"><tspan x="135.96875" y="190">Special</tspan></text></svg>
