<?xml version="1.0" encoding="UTF-8" standalone="no"?>
<!-- Created with Inkscape (http://www.inkscape.org/) -->

<svg
   width="822"
   height="1122"
   version="1.1"
   viewBox="0 0 822 1122"
   id="svg1"
   sodipodi:docname="Artillery Strike (Full Res).svg"
   xml:space="preserve"
   inkscape:version="1.4 (86a8ad7, 2024-10-11)"
   xmlns:inkscape="http://www.inkscape.org/namespaces/inkscape"
   xmlns:sodipodi="http://sodipodi.sourceforge.net/DTD/sodipodi-0.dtd"
   xmlns="http://www.w3.org/2000/svg"
   xmlns:svg="http://www.w3.org/2000/svg"><defs
     id="defs1"><rect
       x="144.12618"
       y="639.72987"
       width="222.30783"
       height="108.77447"
       id="rect7" /><rect
       x="135.96809"
       y="197.15373"
       width="431.01885"
       height="121.69144"
       id="rect2" /></defs><sodipodi:namedview
     id="namedview1"
     pagecolor="#ffffff"
     bordercolor="#000000"
     borderopacity="0.25"
     inkscape:showpageshadow="2"
     inkscape:pageopacity="0.0"
     inkscape:pagecheckerboard="0"
     inkscape:deskcolor="#d1d1d1"
     inkscape:zoom="1.040107"
     inkscape:cx="393.70951"
     inkscape:cy="477.35476"
     inkscape:window-width="1586"
     inkscape:window-height="1211"
     inkscape:window-x="1460"
     inkscape:window-y="467"
     inkscape:window-maximized="0"
     inkscape:current-layer="layer1" /><g
     inkscape:groupmode="layer"
     id="layer1"
     inkscape:label="Layer 1"><path
       d="m 88.942,1035 c -4.535,-1.3333 -6.7164,-2.9271 -8.9482,-6.5382 l -2.1853,-3.5359 0.0528,-461.23 c 0.02904,-253.67 0.07221,-464.51 0.09593,-468.52 0.04186,-7.0758 0.15785,-7.4117 3.9713,-11.5 l 3.9282,-4.2113 319.82,-0.26014 c 236.55,-0.1924 320.54,0.03497 322.58,0.87323 1.515,0.62335 4.097,2.6622 5.7376,4.5308 l 2.983,3.3975 -0.002,468.63 c -0.002,460.06001 -0.0373,468.69001 -1.9186,471.73001 -1.054,1.7019 -3.4099,3.9943 -5.2354,5.0943 -3.4506,2.0793 -633.89,3.582 -640.88,1.5276 z M 133,1026.691 c 0,-4.6136 -0.35349,-5.9011 -1.75,-6.3742 -5.7298,-1.9409 -13.387,-5.9624 -18.036,-9.473 l -5.3503,-4.0395 -11.41,11.258 c -15.305,15.1 -16.061,14.411 15.797,14.411 h 20.75 z m 218.8,0.4546 0.30226,-5.1732 -4.3023,-0.017 c -2.3662,-0.01 -50.877,-0.012 -107.8,-0.01 l -103.5,0.012 -0.32368,3.1436 c -0.17802,1.7289 -0.085,4.0938 0.20661,5.2552 l 0.53028,2.1116 214.59,-0.154 z m 35.738,1.0577 c 6.049,-20.487 34.859,-19.75 39.839,1.0191 0.46733,1.949 1.3092,2.7694 2.8903,2.8166 3.8922,0.1161 12.974,0.129 20.884,0.03 l 7.6535,-0.096 0.34652,-5.0006 0.34651,-5.0006 h -19.308 l -32.607,-15.805 -30.085,15.303 h -22 l -0.31309,4.3644 c -0.50571,7.0496 -1.0278,6.8323 15.891,6.6144 l 15.265,-0.1965 z m 290.46,-0.9593 -1e-5,-5.2284 -41.75,-0.2716 c -22.962,-0.1494 -71.338,-0.1497 -107.5,-6e-4 l -65.75,0.2709 v 4.9095 c 0,6.2211 -13.302,5.5486 109.75,5.5486 h 105.25 z m 50.301,4.1397 c 1.5835,-0.9211 0.38012,-2.4507 -9.9848,-12.692 l -11.785,-11.644 -2.5152,2.2913 c -4.4639,4.0664 -12.239,8.6014 -17.695,10.321 l -5.3201,1.677 v 5.2479 c 0,4.6808 0.24309,5.2823 2.25,5.5673 5.816,0.8261 43.412,0.1842 45.051,-0.7691 z m -303.86,-1.6613 c -4.9534,-16.058 -25.396,-18.339 -32.977,-3.6805 -3.0826,5.9611 -3.1658,5.9305 16.103,5.9305 h 17.567 z m 308.83,-3.0172 c 1.6521,-4.3053 0.77075,-46.734 -0.97154,-46.771 -0.99041,-0.0208 -3.4432,-0.27642 -5.4507,-0.5681 -3.5035,-0.50905 -3.6996,-0.3771 -4.8865,3.2878 -1.9534,6.0314 -5.9067,13.457 -9.5658,17.967 l -3.366,4.149 11.234,11.433 c 12.024,12.236 12.266,12.432 13.006,10.502 z m -648.43,-1.4828 c 1.0123,-0.9625 6.1699,-5.9549 11.461,-11.094 l 9.6208,-9.3441 -3.8511,-5.1558 c -4.1875,-5.6062 -8.4089,-13.59 -9.4296,-17.834 -0.6017,-2.5019 -1.0068,-2.6786 -6.1431,-2.6786 h -5.4989 l -0.02886,10.179 c -0.01587,5.5982 -0.09197,15.354 -0.1691,21.679 -0.18249,14.964 0.55398,17.563 4.0385,14.25 z m 307.03,-14.75 c 8.3115,-4.125 15.326,-7.5 15.589,-7.5 0.263,0 7.2859,3.375 15.608,7.5 l 15.131,7.5 h 244.57 l 8.2942,-4.1514 c 10.863,-5.437 19.39,-13.938 24.644,-24.57 l 3.7932,-7.6749 0.50736,-803.6 h -22.601 l -1.1524,6.7275 c -11.16,65.15 -110.97,63.342 -120.8,-2.1893 l -0.68055,-4.5382 h -479.77 l -0.01595,73.75 c -0.0088,40.562 -0.01491,220.75 -0.01364,400.43 l 0.0023,326.68 2.0801,5.5595 c 4.8821,13.049 13.933,22.863 27.313,29.618 l 7.8658,3.9708 h 244.53 z M 91.0514,969.72182 c 0.0089,-3.4375 0.02247,-191.88 0.0302,-418.75 l 0.01407,-412.5 -10.56,-0.58491 0.20451,417.29 c 0.11248,229.51 0.22498,418.08 0.25,419.04 0.0371,1.4273 0.96758,1.75 5.0455,1.75 h 5 z m 642.95,-412.75 0.027,-419 h -10.992 v 838 h 10.938 z m -84.202,-328.14 c 31.243,-5.9522 51.894,-42.666 41.824,-74.356 -19.388,-61.013 -109.88,-49.431 -113.28,14.5 -2.0984,39.406 31.422,67.483 71.459,59.856 z m -24.401,-5.2872 c -34.848,-7.9317 -51.756,-48.526 -32.546,-78.14 27.953,-43.094 94.184,-23.705 94.184,27.572 0,33.538 -29.637,57.852 -61.638,50.568 z m 31.919,-7.3448 c 38.189,-18.923 34.786,-74.324 -5.403,-87.974 -14.846,-5.0421 -23.93,-4.1974 -40.383,3.7555 -8.2194,3.9729 -19.508,18.554 -21.023,27.155 -0.30731,1.7443 -0.83911,3.6252 -1.1818,4.1796 -2.1499,3.4786 -0.75772,20.412 2.2329,27.16 0.73126,1.65 2.0517,4.6089 2.9344,6.5753 9.1897,20.473 40.742,30.09 62.824,19.148 z M 93.9704,129.44798 c 2.0296,-5.7779 6.1356,-12.711 9.9423,-16.788 l 2.6294,-2.8161 -11.299,-11.022 c -13.793,-13.455 -14.196,-13.459 -14.217,-0.12697 -0.0087,5.3798 -0.06481,14.956 -0.1247,21.281 -0.15787,16.673 -0.74763,15.148 5.7216,14.8 l 5.5811,-0.2999 z m 639.89,-17.891 c -0.38434,-28.439 0.58399,-27.471 -13.448,-13.439 l -11.554,11.554 2.6194,2.8264 c 3.329,3.5921 7.9614,11.802 9.5788,16.977 1.7683,5.6577 1.5501,5.5 7.6131,5.5 h 5.5075 z m -309.88,-11.081 15.106,-7.5 h 19.766 l 0.34652,-5.0838 c 0.44061,-6.4644 1.8651,-5.9162 -15.371,-5.9162 h -14.884 l -1.4755,3.75 c -3.8954,9.9005 -9.1431,14.314 -17.882,15.038 -10.78,0.894 -19.673,-5.6502 -22.88,-16.838 -0.3773,-1.3163 -2.76,-1.5424 -15.802,-1.5 l -15.358,0.04998 v 10 l 23,1 14,7.1976 c 16.997,8.7383 13.39,8.761 31.434,-0.19762 z m -309.7011,2.499 c 2.8987,-2.2005 8.3078,-5.1966 12.02,-6.658 l 6.75,-2.6571 v -5.323 c 0,-6.7778 0.69758,-6.6032 -24.722,-6.1877 -26.384,0.43135 -25.99,0.01546 -12.404,13.096 5.8442,5.6268 10.776,10.568 10.959,10.981 0.62619,1.4089 2.1272,0.74918 7.3964,-3.2509 z m 613.71,-19.466 c -0.64917,-0.65021 -9.4456,-1.0331 -23.733,-1.0331 h -22.702 v 10.638 l 5.0131,1.6971 c 5.531,1.8724 12.371,5.7196 16.987,9.5543 l 3,2.4923 11.233,-11.158 c 7.7226,-7.6708 10.911,-11.481 10.202,-12.191 z m -313.64,12.846 c 5.0961,-2.5806 10.7,-9.3052 10.7,-12.84 0,-0.29691 -7.875,-0.53984 -17.5,-0.53984 -18.515,0 -18.582,0.02006 -16.095,4.7997 4.3365,8.3346 15.28,12.436 22.895,8.5798 z m -72.181,-3.3592 9.6186,-0.02021 -0.1186,-5.25 -0.11861,-5.25 h -215 l -0.1,3.4656 c -0.22166,7.6819 -5.4698,6.9872 54.964,7.2758 29.775,0.14221 73.711,0.15515 97.636,0.02876 23.925,-0.12639 47.828,-0.23889 53.119,-0.25 z m 291.1333,3.3e-4 44.75,-0.02052 v -10.916 l -106.25,0.03715 c -121.59,0.04251 -109.35,-0.6152 -108.9,5.8549 l 0.34578,5.0017 c 56.686,0.70302 113.37,0.09012 170.06,0.0423 z m 0.5063,503.2773 c -0.15396,-0.15326 -114.59938,-0.27757 -254.32315,-0.27623 l -254.04322,0.002 -4.75328,-2.39855 c -3.16026,-1.5947 -5.73009,-4.0121 -7.66796,-7.21314 l -2.91469,-4.81459 -0.58191,-85.59281 c -0.32005,-47.07605 -0.85689,-117.43356 -1.19299,-156.35002 -0.43467,-50.33163 -0.26696,-72.03256 0.581,-75.17523 1.40086,-5.19181 6.30275,-11.15124 10.4777,-12.73815 2.54861,-0.96874 230.77687,-2.16182 533.80503,-2.78991 l 46.2676,-0.0959 4.12059,3.2858 c 8.44747,6.7361 8.11632,3.84871 7.41509,64.65349 -0.3427,29.71676 -0.91495,101.69496 -1.27166,159.95157 -0.63054,102.97611 -0.70768,106.02779 -2.77459,109.75813 -2.55505,4.61131 -9.69261,9.47949 -14.20407,9.6879 -6.24837,0.28863 -58.66126,0.38223 -58.93949,0.10525 z m 64.24904,-4.69807 c 1.99439,-0.30347 4.04033,-2.66454 5.04441,-3.77178 2.08702,-2.30145 5.31512,-13.61869 4.4938,-15.75465 -0.55752,-1.44994 -47.20906,-1.83164 -237.89571,-1.94645 -67.50934,-0.0407 -88.71862,-0.53274 -86.09578,-1.99757 3.20888,-1.79213 55.23628,-2.5713 170.52279,-2.55379 65.30363,0.01 118.73387,-0.36852 118.73387,-0.84099 0,-0.47246 -0.73112,-2.60528 -1.62471,-4.7396 -1.64687,-3.93352 -1.21458,-11.02944 0.67194,-11.02944 0.52402,0 0.95277,-0.72219 0.95277,-1.60487 0,-2.63286 2.57974,-1.8041 4.02033,1.29156 1.60714,3.45354 1.76323,9.55525 0.26803,10.47746 -0.58965,0.36368 -1.07209,2.0772 -1.07209,3.80782 0,3.06264 0.14302,3.14659 5.36044,3.14659 5.83551,0 6.11055,-0.41695 3.84482,-5.82859 -1.71233,-4.08985 -0.94028,-9.49654 1.94028,-13.58776 l 1.77204,-2.51681 0.63483,2.4073 c 0.34915,1.32401 1.12238,2.4073 1.71828,2.4073 1.045,0 0.6805,5.52614 -0.89978,13.64135 l -0.67712,3.47721 h 8.62615 c 7.28719,0 8.71313,-0.29063 9.1865,-1.87234 0.80431,-2.68753 0.58003,-23.79249 -0.25369,-23.87253 -0.38402,-0.0369 -10.46763,-0.11131 -22.40802,-0.16545 -11.94039,-0.0541 -21.7098,-0.25866 -21.7098,-0.45451 0,-0.19584 1.92017,-1.56577 4.26705,-3.04428 4.12668,-2.59976 4.86924,-2.68819 22.57261,-2.68819 h 18.30556 l -0.32676,-5.08208 -0.32676,-5.08207 -16.03538,-0.31077 c -8.81946,-0.17092 -16.13727,-0.41245 -16.26179,-0.53673 -0.12453,-0.12427 -0.77756,-4.2431 -1.45118,-9.15295 -1.38772,-10.11471 -2.20077,-8.61343 8.81595,-16.27849 l 6.15819,-4.28466 4.25358,2.44288 4.25359,2.44288 5.40154,-5.30933 c 3.92318,-3.85621 5.40154,-6.12561 5.40154,-8.29181 0,-1.64036 -0.30489,-2.98247 -0.67752,-2.98247 -1.16414,0 -7.89919,4.41613 -7.89919,5.17945 0,0.3989 -0.9864,1.34005 -2.192,2.09143 -1.87006,1.16549 -2.66353,1.03107 -5.40243,-0.91523 -2.76847,-1.96732 -3.48239,-2.08314 -5.1861,-0.84131 -1.08663,0.79204 -4.32421,3.08799 -7.19462,5.10211 -2.87042,2.01412 -6.82303,5.04022 -8.78358,6.72465 l -3.56463,3.06261 -3.93999,-2.36554 c -2.167,-1.30105 -5.14609,-3.15656 -6.62022,-4.12336 -1.47412,-0.9668 -7.37385,-4.37277 -13.11052,-7.56884 -5.73666,-3.19606 -10.43997,-6.05175 -10.45178,-6.34597 -0.0118,-0.29423 2.4162,-1.90131 5.39559,-3.5713 l 5.41706,-3.03634 2.57132,2.76886 c 1.41423,1.52288 3.41159,2.76887 4.43859,2.76887 1.02699,0 6.95991,-1.97171 13.18428,-4.38158 11.67394,-4.51977 16.56465,-8.05574 22.00751,-15.91137 2.29752,-3.316 2.53944,-4.54491 1.97065,-10.01075 -0.94029,-9.03598 -2.04182,-9.537 -20.00647,-9.09951 l -14.43334,0.35149 -1.72099,-6.18351 c -1.93043,-6.93601 -3.81323,-8.26028 -11.74416,-8.26028 -5.70911,0 -7.52953,1.37989 -10.23324,7.75685 -2.1175,4.99432 -2.23823,5.08207 -6.99249,5.08207 -3.98298,0 -5.14946,-0.47471 -6.60174,-2.68666 -0.97018,-1.47767 -3.49065,-3.50438 -5.60106,-4.5038 l -3.83711,-1.81712 9.5185,-4.49997 c 8.32281,-3.93469 10.28488,-5.42675 15.61934,-11.87775 3.35547,-4.05778 8.53324,-9.12173 11.50616,-11.25322 l 5.40532,-3.87545 5.72545,1.6078 c 13.53126,3.7998 11.956,3.96384 22.70645,-2.36472 8.9724,-5.28186 10.31932,-6.52298 15.58443,-14.36022 3.46958,-5.16454 7.85437,-10.1106 11.01766,-12.42795 l 5.25444,-3.84928 -0.29676,-53.3458 c -0.26128,-46.96779 -0.49959,-53.54814 -1.99322,-55.03813 -1.82463,-1.82018 -4.93125,-0.44597 -28.72053,12.70452 -4.93636,2.72877 -9.16287,4.96141 -9.39224,4.96141 -0.79142,0 -20.24062,12.16892 -25.05216,15.67457 -2.65342,1.93326 -6.99539,5.0952 -9.64881,7.02653 -7.17884,5.22522 -15.74646,13.46885 -19.98018,19.22461 -5.79064,7.8724 -7.83894,15.20887 -9.5987,34.38014 -1.75834,19.15577 -3.06752,23.26649 -10.23039,32.12249 -15.00754,18.55496 -40.14984,32.29131 -84.31391,46.06442 -8.23677,2.56874 -9.42935,2.68158 -16.61738,1.57241 -4.25908,-0.65721 -8.46743,-1.41443 -9.35191,-1.6827 -0.88447,-0.26827 3.69871,-2.10855 10.18485,-4.08951 21.47697,-6.55936 35.42976,-11.9485 52.53236,-20.29016 17.11072,-8.3456 26.49232,-14.70986 37.07618,-25.15161 9.94779,-9.81421 11.87601,-14.34258 14.19615,-33.33926 4.0881,-33.47234 16.26214,-46.46513 76.30627,-81.43819 1.76895,-1.03033 8.16128,-4.36035 14.20518,-7.40004 6.04391,-3.03969 10.98892,-5.93348 10.98892,-6.43065 0,-2.99033 -7.50261,-3.22777 -81.69784,-2.58543 l -75.80135,0.65624 -12.10996,4.19208 c -43.17389,14.94542 -72.57305,28.73817 -95.19686,44.66208 -5.36678,3.77744 -18.73984,16.58917 -20.24428,19.39453 -1.19485,2.22806 -1.05687,2.37334 2.24907,2.36822 1.93711,-0.003 15.10057,-2.93283 29.25215,-6.51072 41.25267,-10.42977 58.43861,-12.57633 65.21476,-8.14545 2.49985,1.63464 2.8629,2.5833 2.8629,7.48094 0,3.81914 -0.79326,7.08899 -2.48596,10.24726 -3.55564,6.63416 -14.61071,17.26764 -25.29989,24.33504 -5.06067,3.34599 -10.40733,6.89668 -11.88145,7.89043 -6.17416,4.16219 -39.4247,21.41319 -41.27296,21.41319 -0.29304,0 -3.42083,1.96398 -7.39514,3.23572 -18.49721,5.91892 -28.69041,11.77202 -47.28387,17.91718 -18.15591,5.92382 -24.00183,7.05651 -31.97897,6.19612 -4.02651,-0.43428 -7.10877,-1.00133 -6.84946,-1.2601 0.2593,-0.25878 6.68957,-2.15473 14.2895,-4.21322 7.59992,-2.05849 14.30048,-3.90966 14.89013,-4.1137 0.58965,-0.20405 1.31331,-0.35094 1.60813,-0.32642 0.29482,0.0245 1.63036,-0.86336 3.21627,-1.40601 6.91717,-2.36684 12.85458,-4.68145 13.50457,-4.92752 14.80611,-5.26625 54.06421,-23.84885 75.7518,-35.85668 28.8484,-15.97258 41.53849,-27.52779 41.53849,-37.82369 0,-6.84912 -12.81864,-5.98979 -49.83211,3.34063 -38.35604,9.66885 -41.29332,10.17354 -45.65429,7.84436 -2.64983,-1.41526 -2.69269,-5.89072 -0.0971,-10.1383 3.93005,-6.43133 17.35128,-18.37376 30.74969,-27.36157 8.79186,-5.89769 39.75623,-21.66336 49.2885,-25.09551 2.94825,-1.06153 5.84289,-2.26779 6.43254,-2.68057 0.58965,-0.41279 6.13771,-2.56749 12.32902,-4.78823 6.19132,-2.22074 11.59465,-4.32776 12.00741,-4.68227 0.41276,-0.35452 -88.35622,-0.61236 -197.26439,-0.57299 -160.69283,0.0581 -198.52004,0.3348 -200.69509,1.46811 -5.02706,2.61937 -8.62527,6.92698 -10.19635,12.20661 -1.23826,4.16121 -1.45796,9.81177 -1.04166,26.79097 0.53789,21.93876 1.50717,109.18766 1.56,140.42595 l 0.0292,17.26697 3.75231,0.70251 c 2.06377,0.38638 3.75231,1.05266 3.75231,1.48063 0,0.42797 -1.68854,1.68563 -3.75231,2.79478 l -3.75231,2.01664 v 28.80411 28.8041 l 2.94825,-0.62081 c 1.62153,-0.34144 4.96696,-0.86285 7.43429,-1.15868 2.46733,-0.29583 9.22149,-2.98797 15.00925,-5.98254 l 10.5232,-5.44468 3.5639,1.91502 c 1.96015,1.05326 4.85479,3.0463 6.43254,4.42896 3.07169,2.6919 4.43729,2.70744 13.49963,0.15365 4.13268,-1.16461 5.36608,-1.19962 5.71302,-0.16219 1.23406,3.69007 4.34902,5.87027 9.1604,6.41148 4.55653,0.51254 6.4166,1.66071 4.2249,2.60791 -0.45387,0.19615 -1.83221,1.75949 -3.06296,3.47408 l -2.23774,3.11745 -35.26423,0.0924 c -19.39532,0.0508 -35.86728,0.48187 -36.60434,0.95786 -0.91588,0.59146 -1.34011,4.05602 -1.34011,10.9442 v 10.07877 l 114.71353,-0.32216 c 63.09245,-0.17719 114.71353,0.0736 114.71353,0.55719 0,0.48364 -2.29159,0.93037 -5.09242,0.99274 -2.80083,0.0624 -6.78096,0.28605 -8.84473,0.49707 -3.36557,0.34415 -136.95737,1.37043 -193.23365,1.48432 l -22.23543,0.045 0.44477,15.24622 c 0.24462,8.38542 0.99203,16.6906 1.66091,18.45595 1.6686,4.40384 7.21478,8.90774 12.17336,9.88563 2.26867,0.44741 131.08238,0.81158 286.2527,0.80927 259.71725,-0.004 274.19038,-0.0651 277.52847,-0.57308 z M 412.41656,535.65562 c 1.21157,0 -2.65803,-1.69371 -4.18522,-1.69371 -1.74166,0 -3.64932,-1.09215 -5.11768,-2.92991 l -2.34099,-2.92991 2.51975,-4.96237 c 2.93038,-5.77106 -2.17927,-4.05976 49.25359,-16.4958 18.27912,-4.41974 37.09429,-9.04021 41.81148,-10.26771 4.71719,-1.22751 9.78281,-2.44307 11.25693,-2.70126 1.47413,-0.25819 10.15805,-2.43317 19.29761,-4.83328 13.06995,-3.43225 19.36378,-4.5065 29.48245,-5.03216 12.82943,-0.66648 12.86507,-0.67575 12.86507,-3.34311 0,-2.45174 -0.44698,-2.70274 -5.36045,-3.01015 -6.68235,-0.41807 -10.56791,-3.51279 -9.64955,-7.68554 0.55307,-2.513 0.13447,-2.93481 -4.5977,-4.63302 -2.86339,-1.02757 -5.97722,-1.57303 -6.91962,-1.21213 -1.96589,0.75285 -10.18606,-0.87895 -61.92003,-12.29184 -25.20237,-5.55982 -32.07432,-7.08527 -77.19042,-17.13487 -13.2671,-2.95524 -26.77542,-5.92978 -30.01849,-6.61009 -3.24307,-0.6803 -8.40071,-1.85354 -11.46142,-2.60719 -3.06071,-0.75366 -7.74072,-1.6959 -10.40002,-2.09387 -4.4608,-0.66758 -5.05192,-1.13745 -7.63628,-6.0699 -1.54066,-2.94047 -2.60756,-5.53957 -2.37088,-5.77576 0.23668,-0.2362 1.83526,0.0254 3.55241,0.58131 1.71715,0.55591 5.29308,1.2754 7.9465,1.59886 2.65342,0.32346 8.20148,1.30678 12.32902,2.18514 11.51239,2.44991 66.22284,12.63674 75.04624,13.97326 2.35859,0.35726 7.36497,1.37594 11.12527,2.26372 3.76031,0.88779 8.59429,1.77469 10.74218,1.97089 2.14789,0.19621 7.75519,1.15133 12.46068,2.1225 4.70549,0.97117 10.48519,2.01378 12.84379,2.31691 2.35859,0.30314 5.97689,0.97237 8.04066,1.48719 2.06378,0.51482 14.5305,2.90239 27.70384,5.30572 13.17333,2.40333 24.99312,5.01743 26.26618,5.80911 3.30386,2.05458 11.14512,3.07222 11.66559,1.51397 0.42439,-1.27057 6.19436,-2.04341 6.19436,-0.82969 0,0.36725 -0.71844,3.03117 -1.59653,5.91984 -3.27912,10.78735 -0.52672,20.40789 4.99491,17.45881 1.79342,-0.95785 1.80163,-1.2358 0.13935,-4.71457 -1.51823,-3.17727 -1.5796,-4.41435 -0.43677,-8.80415 0.73131,-2.80909 1.59765,-6.45879 1.92519,-8.11044 0.32754,-1.65165 1.72404,-3.74092 3.10333,-4.64283 1.37929,-0.90191 2.82203,-2.68005 3.2061,-3.95142 0.38406,-1.27137 1.94045,-3.6356 3.45865,-5.25384 2.64241,-2.81653 3.20284,-2.94225 13.11595,-2.94225 12.31331,0 16.86302,1.67208 17.84203,6.55721 l 0.63002,3.14373 10.76065,-0.30335 10.76064,-0.30335 1.99506,-5.97982 c 1.8615,-5.57951 2.22997,-5.98864 5.50404,-6.11147 3.28378,-0.1232 3.59135,0.17569 4.79241,4.6572 0.972,3.62684 0.98359,5.26799 0.0477,6.76347 -0.98985,1.58178 -0.82985,2.53 0.80422,4.76621 2.62547,3.59292 8.89594,4.05439 9.76994,0.719 0.61309,-2.33969 0.53701,-2.32583 15.05186,-2.7416 l 9.91682,-0.28406 v 4.4998 c 0,6.70384 -6.34218,12.50595 -19.44281,17.78715 -9.06802,3.65555 -10.10957,3.86526 -11.31932,2.27903 -0.73279,-0.96084 -1.34769,-2.83026 -1.36644,-4.15428 -0.0475,-3.35518 -5.09758,-3.24729 -8.35161,0.17844 -3.49836,3.68294 -12.4156,8.05737 -17.97509,8.81783 -4.41269,0.6036 -4.79798,0.90237 -4.79798,3.7206 0,2.65946 0.40582,3.06431 3.07168,3.06431 1.68943,0 4.22224,0.85816 5.62847,1.90703 1.40623,1.04886 4.36593,2.84346 6.57712,3.98798 2.21118,1.14453 4.02051,2.33257 4.02073,2.64009 2.1e-4,0.30753 -24.72484,0.42465 -54.94457,0.26028 -51.36643,-0.27939 -55.32899,-0.16822 -60.84145,1.70696 -3.24307,1.1032 -5.77573,2.3603 -5.62813,2.79356 0.14759,0.43326 11.3309,0.74552 24.85178,0.69392 27.81389,-0.10615 25.21917,-1.04728 26.32479,9.5482 0.33772,3.23648 0.89485,7.44925 1.23807,9.36172 l 0.62404,3.4772 h -32.65102 -32.65101 l -1.24391,-8.77805 c -1.35399,-9.55485 -2.04113,-10.92532 -4.92429,-9.82119 -1.93951,0.74274 -1.92053,3.7844 0.0944,15.12204 l 0.61797,3.4772 h -34.36537 c -34.14227,0 -34.37605,0.0152 -36.00964,2.34275 -0.90435,1.28851 -1.495,2.49172 -1.31256,2.67378 0.18244,0.18207 54.44585,0.33615 120.58536,0.34239 82.38674,0.008 120.25366,0.36109 120.25366,1.12199 0,1.57287 -5.16228,6.15349 -7.89218,7.00294 -1.26097,0.39237 -2.56145,1.12848 -2.88995,1.63581 -0.32851,0.50734 -55.11374,1.20462 -121.74497,1.54952 -109.69132,0.56779 -124.55077,-1.06663 -122.55622,-1.06663 z m 174.66391,-61.34121 c -0.007,-0.44133 -0.6736,-3.27943 -1.48134,-6.30688 -1.40925,-5.28196 -1.34344,-5.81536 1.62822,-13.19668 1.70325,-4.23074 2.82382,-8.13307 2.49015,-8.67187 -1.39885,-2.25878 -3.82123,-0.65907 -6.2122,4.10246 -5.26495,10.48498 -5.58168,13.74156 -2.28931,23.53802 0.47507,1.41358 5.88624,1.90718 5.86448,0.53495 z m 47.18464,-8.82675 c 1.1793,-1.17691 2.14418,-3.56545 2.14418,-5.30788 0,-6.57424 -8.36886,-9.96105 -12.8233,-5.18948 -6.42053,6.87762 4.02126,17.14168 10.67912,10.49736 z m -393.51467,56.2784 c 1.14547,-2.13598 3.17588,-3.02798 11.18167,-4.91233 5.38013,-1.26633 17.68469,-4.24109 27.34346,-6.61057 11.74111,-2.8803 17.79486,-3.93118 18.26577,-3.17078 0.41207,0.66538 5.8039,1.26376 12.99313,1.44199 l 12.28877,0.30465 0.31815,6.03923 0.31815,6.03923 -18.22083,0.0167 -18.22084,0.0167 -0.32283,-4.73474 c -0.41859,-6.13922 -2.37216,-6.12789 -2.79051,0.0162 l -0.32349,4.75093 -17.83857,0.10569 c -17.2034,0.10193 -19.64149,0.3429 -18.18412,1.79731 0.37111,0.37036 29.1567,0.65293 63.96798,0.62793 34.81127,-0.025 63.29323,0.31688 63.29323,0.75974 0,3.1388 -141.37711,11.13949 -134.06912,-2.48788 z m -37.73316,-1.78645 c 5.74908,-1.302 11.03404,-2.66759 11.74436,-3.03464 2.85769,-1.47668 -0.91263,-2.91687 -15.22865,-5.81704 -8.25508,-1.67233 -15.21026,-3.23707 -15.45595,-3.47721 -1.68028,-1.64228 2.74204,-1.19378 16.61214,1.68478 8.73497,1.81282 16.63141,2.94428 17.54764,2.51435 2.3809,-1.11722 10.77862,-1.16964 10.77862,-0.0673 0,0.50891 0.96488,0.61967 2.14418,0.24614 1.52164,-0.48197 2.14418,-0.19227 2.14418,0.99781 0,0.92233 -0.60305,1.72814 -1.34011,1.79069 -0.73707,0.0626 -2.26268,0.18292 -3.39026,0.26748 -3.24833,0.24361 -3.04205,2.1331 0.44938,4.11615 3.3634,1.91034 4.13629,3.8092 1.86879,4.59133 -4.37056,-1.33938 -60.96886,5.16644 -27.87432,-3.81254 z m 179.30465,2.48073 c 10e-4,-0.73556 0.58456,-1.33739 1.29626,-1.33739 0.71171,0 3.96818,-2.86061 7.2366,-6.35691 5.87997,-6.28993 6.08946,-6.40178 19.87975,-10.61437 7.66544,-2.34159 15.0173,-4.56705 16.33746,-4.94547 1.32017,-0.37841 5.85671,-3.50643 10.0812,-6.95115 6.18751,-5.04539 9.79839,-7.00831 18.57172,-10.09581 5.98995,-2.10798 11.51903,-3.83269 12.28684,-3.83269 0.76781,0 4.95461,2.21346 9.30399,4.9188 l 7.90797,4.9188 7.97396,-3.31282 c 4.38567,-1.82205 11.10198,-4.7577 14.92513,-6.52367 5.59085,-2.58249 8.39165,-3.21084 14.31188,-3.21084 4.93787,0 8.14773,-0.55015 9.75177,-1.67138 1.31509,-0.91925 4.49885,-1.84278 7.07501,-2.05227 4.18086,-0.33999 4.83835,-0.0743 6.12175,2.4738 2.32381,4.61376 2.37506,4.79087 1.17147,4.04852 -0.63216,-0.3899 -7.3283,0.7681 -14.88031,2.57333 -7.55201,1.80524 -16.62557,3.96547 -20.16347,4.80052 -3.53789,0.83504 -21.14695,5.16695 -39.13125,9.62645 -17.98429,4.4595 -37.96532,9.2952 -44.40229,10.74599 -6.43697,1.4508 -15.01413,3.62174 -19.06036,4.82431 -6.90711,2.05284 -7.5351,2.50528 -10.27425,7.40198 l -2.91747,5.21548 -6.7028,0.34709 c -4.83385,0.25031 -6.70218,-0.0258 -6.70056,-0.9903 z M 326.212,515.54302 c -0.35427,-2.98513 -0.38892,-5.83958 -0.077,-6.34323 0.3119,-0.50365 6.81035,-0.91573 14.44099,-0.91573 h 13.87388 v 6.35786 6.35785 l -13.79687,-0.0146 -13.79687,-0.0146 z m 32.20056,4.77753 c -0.24872,-0.44134 -0.52727,-3.33009 -0.61901,-6.41946 -0.16467,-5.54513 -0.1263,-5.61703 2.99792,-5.61703 1.7406,0 5.60898,1.51635 8.59641,3.36966 4.46749,2.7715 5.43168,3.91103 5.43168,6.41946 v 3.0498 h -7.9774 c -4.38757,0 -8.18089,-0.36109 -8.4296,-0.80243 z m 293.40501,-0.0286 -15.14627,-0.29605 -1.03601,-10.40305 c -0.5698,-5.72167 -0.8415,-10.76414 -0.60377,-11.20548 0.23772,-0.44133 3.08877,-0.80243 6.33567,-0.80243 5.17202,0 7.05699,0.6775 15.21399,5.46824 5.12081,3.00753 9.38861,5.53519 9.48401,5.61703 0.62992,0.54036 2.09238,11.47955 1.56079,11.67471 -0.36418,0.1337 -15.80841,-8.38503 -15.80841,-0.053 z m -78.11338,-6.39088 c -0.37302,-3.38359 -1.07435,-8.20495 -1.55852,-10.71414 -0.48417,-2.50918 -0.57551,-4.74776 -0.20299,-4.97462 0.37252,-0.22685 13.28972,-0.43994 28.70489,-0.47355 l 28.02757,-0.0611 0.62152,4.50075 c 0.34184,2.47542 0.93823,7.50988 1.32533,11.1877 l 0.70381,6.68693 h -28.47169 -28.4717 z m -363.78341,-8.54191 c 0,-2.13259 -3.3789,-0.94048 -3.12693,-1.69487 0.23235,-0.69561 0.86468,-1.30634 1.40519,-1.35716 0.54052,-0.0508 1.70641,-0.37597 2.59089,-0.72256 1.89582,-0.7429 32.2061,-10.49573 33.7708,-10.86632 0.58965,-0.13965 3.6743,-1.05369 6.85477,-2.0312 5.37925,-1.65329 14.07152,-1.52458 14.03815,0.20788 -0.0116,0.59998 -41.44962,14.35144 -46.62306,15.47213 -1.17929,0.25547 -2.86783,0.67997 -3.75231,0.94334 -0.88447,0.26338 -5.1575,2.01523 -5.1575,0.0488 z m 91.99672,-0.25785 c 0,-1.08565 11.99263,-3.23673 18.04531,-3.23673 3.7051,0 4.46856,-0.35401 4.46856,-2.07203 0,-1.55563 -0.86837,-2.15559 -3.48429,-2.4073 -2.65324,-0.2553 -3.56489,-0.90099 -3.82223,-2.70717 -0.25811,-1.81161 -1.27111,-2.52364 -4.28836,-3.01422 -2.17273,-0.35327 -8.29237,-1.55633 -13.59921,-2.67348 -5.30685,-1.11714 -13.02589,-2.71002 -17.15343,-3.53973 -4.12754,-0.82971 -17.63586,-3.74597 -30.01849,-6.48058 -45.04392,-9.9476 -41.94941,-9.08464 -43.31683,-12.07971 -1.15685,-2.53385 -1.07385,-2.68129 1.20349,-2.13774 1.34532,0.32111 9.2002,1.83965 17.45529,3.37454 8.25508,1.53489 18.62755,3.48159 23.04991,4.32601 4.42237,0.84443 9.97043,1.80838 12.32903,2.14213 2.35859,0.33375 7.51651,1.30914 11.46203,2.16755 3.94552,0.85841 8.7719,1.76495 10.7253,2.01453 9.06406,1.15813 28.05357,5.22691 30.6368,6.56438 1.86405,0.96512 3.2404,1.12183 3.91756,0.44605 0.57415,-0.57299 2.5787,-1.04179 4.45456,-1.04179 2.5878,0 4.05208,-0.8389 6.06937,-3.47721 2.22752,-2.91326 3.33487,-3.46348 6.8278,-3.39259 7.74791,0.15726 8.73889,0.43313 9.30412,2.59016 0.41809,1.59554 1.54066,2.18064 4.41339,2.30031 2.11898,0.0883 4.41648,0.20863 5.10556,0.26747 0.68908,0.0589 2.05505,-1.33739 3.03548,-3.10274 2.52606,-4.54837 4.71054,-4.11658 5.36045,1.05955 0.55823,4.44602 3.26126,6.27792 5.68874,3.85539 1.6828,-1.67939 12.54726,-1.5341 12.49821,0.16714 -0.0763,2.64604 -4.8855,7.12763 -9.97748,9.29776 -5.18006,2.20768 -5.19288,2.20783 -5.7535,0.0684 -0.75455,-2.87953 -3.09173,-2.70086 -6.93985,0.53054 -1.75189,1.47112 -4.54395,2.67477 -6.20457,2.67477 -1.66062,0 -3.2789,0.67512 -3.59619,1.50027 -0.69742,1.81376 0.12312,2.77122 2.40231,2.80316 0.93362,0.0131 2.81484,0.8817 4.1805,1.93026 2.40151,1.84388 1.54814,1.91062 -25.99816,2.03319 -15.66465,0.0697 -28.48118,-0.26802 -28.48118,-0.75051 z m 28.21332,-11.52853 c 0.34173,-2.20669 0.96086,-5.15991 1.37583,-6.5627 0.56878,-1.92274 0.38461,-2.43021 -0.74819,-2.06168 -1.93323,0.62893 -4.74757,8.55492 -3.85859,10.86687 1.1441,2.97542 2.5769,1.98096 3.23095,-2.24249 z m 27.49257,-1.82095 c 0.71054,-0.8544 1.12483,-2.41915 0.92065,-3.47721 -0.50733,-2.62903 -5.53862,-2.61979 -6.04632,0.0111 -0.86202,4.467 2.43769,6.69834 5.12567,3.46611 z M 301.5219,475.25047 c -1.37609,-0.53973 2.82165,-2.02228 13.40111,-4.73299 8.47267,-2.17091 19.98803,-5.14779 25.5897,-6.6153 14.15385,-3.70799 39.81168,-9.39053 63.01629,-13.95648 18.01997,-3.54576 20.06861,-3.75062 25.46212,-2.54606 3.22598,0.72048 5.86542,1.6185 5.86542,1.99561 0,0.3771 -5.66867,1.55848 -12.59704,2.62527 -27.5289,4.23877 -82.48801,15.5982 -103.72462,21.43871 -10.00112,2.75052 -13.60086,3.12952 -17.01298,1.79124 z M 122.07456,447.61402 c -1.30341,-0.35546 -2.41221,-0.81693 -2.41221,-1.2487 0,-0.78543 12.8285,-6.19734 20.90574,-8.81943 2.3586,-0.76567 4.7708,-1.71847 5.36045,-2.11734 1.21856,-0.82431 17.11672,-5.11592 23.58596,-6.36689 2.35859,-0.45609 9.08897,-1.84535 14.95638,-3.08726 5.86742,-1.24191 12.8628,-2.50822 15.5453,-2.81404 2.68249,-0.30581 5.60092,-0.76471 6.48539,-1.01978 1.37745,-0.39723 13.79158,-1.93015 34.8429,-4.30246 2.94824,-0.33224 7.04898,-0.82186 9.11275,-1.08803 4.11371,-0.53056 15.8166,-1.73459 36.45103,-3.75019 10.89748,-1.06447 14.30242,-1.04687 18.22552,0.0943 l 4.8244,1.40334 -4.28836,0.84881 c -2.3586,0.46685 -7.98347,1.05134 -12.49971,1.29889 -4.51625,0.24755 -8.62843,0.70734 -9.13819,1.02175 -0.50976,0.31441 -4.77492,0.85809 -9.47812,1.20818 -4.7032,0.35009 -9.9986,0.85221 -11.76754,1.11583 -1.76895,0.26361 -6.35213,0.75726 -10.18485,1.09699 -6.81652,0.60421 -32.22257,3.32322 -39.6673,4.24528 -33.92421,4.20166 -61.15373,11.16374 -79.03092,20.20674 -5.46861,2.76624 -6.33671,3.57172 -11.16763,2.25427 z M 623.1346,208.2442 c 2.00276,-6.72341 3.08275,-13.4198 4.77007,-20.32829 1.1793,-4.60164 2.14465,-8.89143 2.14522,-9.53286 7.1e-4,-0.78968 -3.51424,-1.04584 -10.886,-0.79336 l -10.88705,0.37288 3.46524,-4.11757 c 1.90588,-2.26467 5.2221,-6.28413 7.36937,-8.93216 2.14726,-2.64803 5.60721,-6.76159 7.68878,-9.14126 6.86466,-7.84773 12.77955,-14.87083 16.07855,-19.091 1.78827,-2.2876 3.2514,-3.48416 3.2514,-2.65901 0,0.82515 -1.43937,7.99288 -3.19861,15.92829 -1.75924,7.93542 -3.20656,14.77228 -3.21627,15.19303 -0.01,0.42075 4.81148,0.90221 10.71376,1.06991 l 10.7314,0.3049 -5.63898,6.5611 c -3.10144,3.6086 -7.08631,8.35761 -8.85525,10.55335 -1.76895,2.19575 -4.11927,5.02077 -5.22294,6.27783 -3.5491,4.04237 -13.99703,16.87014 -16.55781,20.3294 l -2.48314,3.35437 z M 270.82692,154.33343 v -4.02009 l -8.64572,0.39182 -8.64572,0.39183 0.33702,-11.78269 0.33703,-11.78268 -4.26783,-0.56902 c -2.34731,-0.31296 -4.28828,-0.47956 -4.31327,-0.37022 -0.025,0.10934 0.20699,6.93923 0.51552,15.17754 l 0.56096,14.97874 10.92261,-0.27238 c 6.4647,-0.16121 11.19427,0.16629 11.58822,0.80243 1.18938,1.92055 1.61118,1.14949 1.61118,-2.94528 z m 26.9679,-0.1568 0.37037,-3.64195 -8.94147,0.23527 -8.94146,0.23527 0.36475,-11.84086 c 0.20061,-6.51248 0.0632,-11.84027 -0.3053,-11.83955 -0.36853,7.3e-4 -2.17769,-0.29959 -4.02034,-0.66737 l -3.35028,-0.66869 v 15.4352 15.43521 l 11.13421,-0.41873 c 7.67837,-0.28876 11.372,-0.0348 11.90033,0.81836 1.04802,1.69227 1.35795,1.15835 1.78919,-3.08216 z m 29.85365,-0.43336 8.3e-4,-3.41407 -10.18568,0.37076 -10.18568,0.37075 v -3.4416 -3.4416 l 6.43254,0.46434 6.43253,0.46434 v -3.41562 -3.41562 l -6.43253,0.51327 -6.43254,0.51328 v -3.42436 -3.42436 l 9.64935,0.37393 9.64934,0.37393 -5.4e-4,-3.41407 c -3e-4,-1.87773 -0.48298,-3.71162 -1.07263,-4.0753 -0.58965,-0.36368 -1.07209,-0.18504 -1.07209,0.39698 0,0.65174 -4.74189,0.95664 -12.34471,0.79376 l -12.3447,-0.26447 0.2837,14.77528 0.2837,14.77529 2.68023,0.0931 c 1.47412,0.0512 6.86148,0.17508 11.97192,0.27528 5.11043,0.1002 9.64029,0.53019 10.06636,0.95553 1.41619,1.41378 2.6206,-0.32169 2.6206,-3.77874 z m -185.96919,1.52347 c -0.35279,-1.10928 -0.0666,-3.27585 0.63589,-4.8146 1.19758,-2.62306 1.73856,-2.79771 8.66562,-2.79771 7.36447,0 7.39234,0.0112 8.63796,3.4772 0.68731,1.91247 1.14465,3.83831 1.01632,4.27964 -0.12833,0.44134 0.36972,0.83085 1.10678,0.86559 0.73706,0.0347 3.14926,0.20129 5.36045,0.37012 4.03946,0.30843 4.80509,-0.20807 3.10048,-2.09163 -2.20175,-2.4329 -14.18014,-29.97711 -13.75009,-31.61825 0.34673,-1.32322 -0.3966,-1.98837 -2.74618,-2.45733 -6.49634,-1.29663 -8.31402,-0.85288 -8.31402,2.02967 0,1.46997 -2.89464,9.45431 -6.43253,17.74297 -3.5379,8.28866 -6.43254,15.5115 -6.43254,16.05075 0,0.53925 2.20349,0.98046 4.89665,0.98046 4.30927,0 4.8197,-0.24194 4.25521,-2.01688 z m 5.05513,-14.29925 c 0.27458,-0.73557 1.14677,-3.14286 1.93821,-5.34955 1.73789,-4.84563 2.7494,-5.06922 3.68575,-0.81471 0.38704,1.75861 1.14903,3.47213 1.69332,3.80783 0.54428,0.33571 0.9896,1.30415 0.9896,2.15209 0,1.0921 -1.2841,1.54173 -4.40305,1.54173 -3.07398,0 -4.25237,-0.4037 -3.90383,-1.33739 z m 34.2469,9.92839 -0.46759,-6.45118 3.0771,0.002 c 2.46436,0.002 3.66418,0.92933 6.02535,4.6593 1.62153,2.56157 2.94824,5.34249 2.94824,6.17981 0,1.12509 1.32907,1.48125 5.09243,1.36468 2.80083,-0.0867 5.22425,-0.2205 5.38537,-0.29721 0.16112,-0.0767 -1.64898,-2.59122 -4.02245,-5.58778 -4.21579,-5.32254 -4.66138,-7.39062 -1.59239,-7.39062 2.67427,0 5.09456,-4.97669 4.34903,-8.94263 -1.17807,-6.26691 -3.12021,-7.11585 -17.18173,-7.51038 -12.33036,-0.34597 -12.55658,-0.31007 -11.96259,1.8982 0.333,1.23796 0.61204,8.05459 0.62009,15.14806 l 0.0146,12.89723 4.09104,0.24089 4.09105,0.2409 z m -0.20988,-15.14295 v -3.34222 l 5.93422,0.49111 c 6.40041,0.52969 8.66201,1.86618 7.6429,4.51654 -0.48679,1.26598 -2.22895,1.67678 -7.11094,1.67678 h -6.46618 z m 40.20334,9.27897 v -11.82126 l 5.09243,0.0672 c 4.98139,0.0658 5.09241,-0.004 5.09245,-3.20973 l 4e-5,-3.27696 -12.59708,0.11622 c -6.97624,0.0644 -13.20661,-0.36171 -13.9631,-0.9549 -2.00319,-1.57073 -2.31952,-0.71752 -1.63161,4.40083 0.43475,3.23466 0.95288,4.25595 1.75373,3.45673 0.62518,-0.62391 2.72874,-1.13438 4.67458,-1.13438 h 3.53789 l 0.0878,6.15199 c 0.0483,3.38359 0.0152,8.89618 -0.0736,12.25021 l -0.16144,6.09822 4.09397,-0.16147 4.09397,-0.16148 z m 17.42145,11.57737 c 2.34793,-0.62794 2.4122,-1.02356 2.4122,-14.84708 v -14.20195 l -3.81739,-0.44475 c -2.09957,-0.24461 -3.90872,-0.17693 -4.02034,0.15042 -0.11161,0.32735 -0.0562,7.21525 0.1231,15.30644 0.34119,15.39477 0.33056,15.36662 5.30243,14.03692 z m 188.11985,-2.15449 c 3.66944,-1.85324 5.12421,-4.53395 5.12421,-9.44243 0,-4.20096 -2.3002,-8.52139 -5.15674,-9.68585 -0.99651,-0.40622 -5.11394,-1.11808 -9.14985,-1.58192 -8.44191,-0.9702 -10.01972,-1.96885 -8.26888,-5.23367 1.77799,-3.31546 10.22863,-3.15319 15.3189,0.29413 l 3.76355,2.54882 1.79246,-3.75119 c 0.98585,-2.06316 1.65117,-3.82789 1.47849,-3.92164 -5.73178,-3.11175 -12.7689,-4.98027 -16.9655,-4.50476 -2.04499,0.23171 -4.48862,0.47511 -5.43029,0.54089 -4.65777,0.32537 -9.07011,7.84033 -7.98684,13.60294 0.94495,5.0268 3.81116,6.88206 12.77601,8.26976 9.24197,1.4306 11.10532,2.6086 9.33826,5.90366 -2.49731,4.65679 -14.09753,3.29756 -18.38028,-2.15368 -1.61921,-2.06099 -1.72639,-1.98353 -3.13047,2.26222 -1.65655,5.0092 -1.28305,5.57937 4.80708,7.3383 8.56934,2.47497 14.49165,2.33168 20.06989,-0.48558 z m -88.14908,-3.60258 c -0.7869,-6.12135 -0.64697,-6.4079 3.12846,-6.40642 2.19586,8.7e-4 3.37517,1.07719 5.6931,5.19589 1.60795,2.85715 2.61303,5.50468 2.23352,5.88342 -0.37951,0.37874 1.81541,0.68862 4.87759,0.68862 h 5.56761 l -3.78079,-5.60275 c -4.06201,-6.01949 -4.48659,-7.23617 -2.5251,-7.23617 2.59464,0 5.17684,-3.58666 5.17684,-7.19058 0,-7.9827 -3.87528,-9.96724 -18.6099,-9.53022 l -9.49714,0.28168 -0.15166,14.63814 -0.15166,14.63814 4.36417,8.8e-4 4.36418,8.8e-4 z m 0.002,-14.96679 c 0,-3.20266 0.0139,-3.20973 6.30749,-3.20973 5.41954,0 6.38695,0.30322 6.87188,2.15383 0.74354,2.83751 -2.03009,4.26563 -8.28449,4.26563 -4.72403,0 -4.89488,-0.11203 -4.89488,-3.20973 z m 38.82537,14.52436 c -0.46586,-5.6062 -0.2799,-6.09715 5.45848,-14.41061 l 5.94078,-8.60669 -3.66246,-0.68568 c -4.38492,-0.82094 -6.89488,-0.0329 -6.89488,2.16477 0,0.88692 -0.90624,3.09975 -2.01387,4.9174 l -2.01387,3.30481 -2.30512,-3.72219 c -1.26782,-2.0472 -2.17073,-4.34157 -2.00646,-5.09861 0.25823,-1.19014 -4.07743,-1.62906 -10.09533,-1.02201 -0.40985,0.0413 1.93846,3.96311 5.21848,8.71503 5.76275,8.34876 5.94743,8.83539 5.48139,14.44378 l -0.48229,5.80394 h 3.92872 3.92872 z m 72.84513,-5.96104 c -0.40749,-13.21694 -0.0783,-13.80362 6.69788,-11.93643 l 3.84977,1.06081 v -4.85936 c 0,-4.13501 -0.2329,-4.66646 -1.56247,-3.56525 -1.08348,0.89738 -5.35654,1.18352 -13.93856,0.93343 l -12.37609,-0.36066 0.001,3.98922 c 9.6e-4,3.83441 0.10235,3.94333 2.60257,2.80647 1.43064,-0.65052 3.84104,-0.87221 5.35644,-0.49264 l 2.75527,0.69012 -0.40591,10.57823 c -0.22325,5.81803 -0.73236,11.10536 -1.13135,11.74963 -0.48262,0.77931 0.82086,1.17185 3.89421,1.17273 l 4.61965,10e-4 z m 20.36925,5.34747 c -0.35405,-6.25884 -0.29428,-6.42141 2.3607,-6.42141 2.01554,0 3.57377,1.23267 5.99171,4.73988 1.79728,2.60694 3.26777,5.50454 3.26777,6.43912 0,1.34573 1.08961,1.66074 5.23765,1.51422 l 5.23765,-0.18501 -4.18767,-5.98663 c -3.65858,-5.23026 -3.96996,-6.12181 -2.46456,-7.05654 4.20927,-2.61361 4.83902,-3.44069 5.44166,-7.1468 0.53318,-3.2789 0.18194,-4.38625 -2.11992,-6.68343 -2.63088,-2.62553 -3.30884,-2.75338 -14.6007,-2.75338 h -11.84171 v 13.28637 c 0,7.30751 -0.29284,14.04794 -0.65075,14.97875 -0.53197,1.38348 0.20182,1.69269 4.02034,1.69432 l 4.67108,0.002 z m -0.1728,-14.9807 c 0,-3.20325 0.0127,-3.20973 6.31784,-3.20973 6.51584,0 8.30785,1.24411 6.93493,4.8146 -0.45193,1.17532 -2.30807,1.60486 -6.93493,1.60486 -6.30509,0 -6.31784,-0.006 -6.31784,-3.20973 z m 32.70825,6.15157 0.01,-15.2458 -3.22579,0.18513 c -1.77419,0.10182 -3.46701,0.22259 -3.76184,0.26838 -0.29482,0.0458 -0.53604,6.82351 -0.53604,15.06162 v 14.97838 l 3.75231,-9.5e-4 3.75231,-9.5e-4 z m 13.39158,9.48544 c 0,-7.77145 2.07719,-9.55579 5.48855,-4.71477 1.36485,1.93686 3.10048,4.15777 3.85695,4.93536 0.75647,0.7776 1.3754,2.33313 1.3754,3.45674 0,1.81727 0.5625,1.96945 5.09242,1.37772 2.80083,-0.36587 5.23612,-0.78092 5.41175,-0.92233 0.17563,-0.14141 -2.68743,-3.98712 -6.36234,-8.54602 -5.67463,-7.03963 -6.43714,-8.46976 -5.05922,-9.48883 0.89234,-0.65996 3.88247,-3.19214 6.64473,-5.62707 3.91965,-3.45518 4.64736,-4.57072 3.31458,-5.08112 -2.51459,-0.96298 -10.11401,0.48648 -10.11401,1.92907 0,0.68286 -2.22204,3.09518 -4.93787,5.36072 l -4.93787,4.11915 0.38149,-5.49812 0.38149,-5.49812 -4.28836,6.7e-4 -4.28835,6.6e-4 v 14.81383 14.81383 l 4.02033,0.15721 4.02033,0.15721 z m 52.53237,1.26757 c 0,-3.49504 -0.28589,-4.20831 -1.28651,-3.20973 -0.79551,0.7939 -4.70846,1.2839 -10.25277,1.2839 h -8.96626 l 0.33594,-3.34267 c 0.30918,-3.07642 0.67751,-3.36435 4.62431,-3.61497 2.35859,-0.14978 5.13262,0.16771 6.16451,0.70553 1.53858,0.8019 1.90509,0.4898 2.03697,-1.73458 0.0884,-1.49183 0.20906,-3.31254 0.26802,-4.04602 0.074,-0.92021 -1.22212,-1.21055 -4.18115,-0.93664 -8.46253,0.78336 -8.5627,0.76382 -8.91907,-1.74019 -0.24539,-1.72426 0.36189,-2.6526 2.14418,-3.27775 2.78343,-0.9763 14.12008,-0.75643 15.84476,0.30731 0.7168,0.44211 1.08475,-1.14977 1.03034,-4.45752 -0.0466,-2.82987 -0.32797,-4.54339 -0.62538,-3.80783 -0.37815,0.93524 -3.53617,1.33739 -10.50224,1.33739 -5.47883,0 -11.4553,0.29816 -13.28106,0.66257 -2.80515,0.55989 -3.15809,0.96368 -2.27751,2.6057 0.57313,1.06873 0.92114,7.49731 0.77335,14.28573 l -0.2687,12.34258 12.86507,0.33407 c 7.07579,0.18374 13.2269,0.43817 13.66913,0.56541 0.44224,0.12724 0.80407,-1.79079 0.80407,-4.26229 z"
       id="path1"
       sodipodi:nodetypes="cscssscscscscscccscccscccccccssccccssscccccccssccccsscsscccccsscssccccscccsssscccccccssscsscccssccsccccscccsscscccccsccssscccccccccccccccscccsscsccccscccsccccscssscccccsscscsscccssccccscsccccsccsscccccssccccccccssscccccscccccccsscssssscsssssccsssssssssssssssscssscssssssscccsssscccssssssssscssssscsssssscsssssscssscsssscsssssssssssssssssssscssssssssssssssssssssssssssssssssssscssscccssscssssssscssscssssscssssssssscssssssssssssssssssssssssssssssssssssssssscccssssssscssssssssssssssssscccssscssscsssssssssssssssssssssscccccsscssssssssssssssssssscsssssssscssssssssssssscscssscccccsssssscssccssssssscsssscsscccsssssssssssssssssssssssssssssssssssssssssssssssssssssssssssssssssssssssssssssssscsssssssssssssscsssssscscsssscsscccccssscsssscccssscccscsccccccccccccccccsssscccsssscscssscsssssssssssssssscccsscsssssscccccccssscccccscccssscssccccsscsscssssssscscsssssssssssssscsssscccccsssssssscssscsscsscccscscssscssscsscccssssscssssscssscssssssccsssccccsssssssssssscccccccccsssscssssssssssssssscsss"
       inkscape:label="path1"
       style="display:inline" /><text
       xml:space="preserve"
       style="font-size:29.3333px;line-height:1.1;text-align:start;writing-mode:lr-tb;direction:ltr;text-anchor:start;white-space:pre;inline-size:584.851;display:inline;fill:#000000"
       x="144.12617"
       y="663.52429"
       id="text3"
       transform="translate(-25.443985,-19.180478)"
       inkscape:label="text3"><tspan
         x="144.12617"
         y="663.52429"
         id="tspan2">Play as part of your Battle Plan. Kills </tspan><tspan
         x="144.12617"
         y="695.79091"
         id="tspan12">both leaders. Both players may use </tspan><tspan
         x="144.12617"
         y="728.05751"
         id="tspan13">Shields to protect their leader against </tspan><tspan
         x="144.12617"
         y="760.32411"
         id="tspan14">the Artillery Strike. Surviving </tspan><tspan
         x="144.12617"
         y="792.59071"
         id="tspan15">(shielded) leaders do not count </tspan><tspan
         x="144.12617"
         y="824.85732"
         id="tspan16">towards the battle total; the side that </tspan><tspan
         x="144.12617"
         y="857.12392"
         id="tspan17">dialed higher wins the battle. No spice </tspan><tspan
         x="144.12617"
         y="889.39052"
         id="tspan18">is collected for any leader killed in this </tspan><tspan
         x="144.12617"
         y="921.65712"
         id="tspan19">battle. Discard after use. </tspan></text><text
       xml:space="preserve"
       id="text2"
       style="font-size:42.6667px;text-align:start;writing-mode:lr-tb;direction:ltr;white-space:pre;shape-inside:url(#rect2);display:inline;fill:#000000"
       transform="translate(-10.877447,-8.1580862)"><tspan
         x="135.96875"
         y="236.08042"
         id="tspan20">Weapon - Special</tspan></text></g></svg>
