<?xml version="1.0" encoding="UTF-8"?>
<!-- Created with Inkscape (http://www.inkscape.org/) -->
<svg width="822" height="1122" version="1.1" viewBox="0 0 822 1122" xml:space="preserve" xmlns="http://www.w3.org/2000/svg"><path d="m89 1e3c-4.5-1.3-6.7-2.9-8.9-6.5l-2.2-3.5 0.053-461c0.029-254 0.072-465 0.096-469 0.042-7.1 0.16-7.4 4-12l3.9-4.2 320-0.26c237-0.19 321 0.035 323 0.87 1.5 0.62 4.1 2.7 5.7 4.5l3 3.4-2e-3 469c-2e-3 460-0.037 469-1.9 472-1.1 1.7-3.4 4-5.2 5.1-3.5 2.1-634 3.6-641 1.5zm44-8.3c0-4.6-0.35-5.9-1.8-6.4-5.7-1.9-13-6-18-9.5l-5.4-4-11 11c-15 15-16 14 16 14h21zm219 0.45 0.3-5.2-4.3-0.017c-2.4-0.01-51-0.012-108-0.01l-104 0.012-0.32 3.1c-0.18 1.7-0.085 4.1 0.21 5.3l0.53 2.1 215-0.15zm36 1.1c6-20 35-20 40 1 0.47 1.9 1.3 2.8 2.9 2.8 3.9 0.12 13 0.13 21 0.03l7.7-0.096 0.69-10h-19l-33-16-30 15h-22l-0.31 4.4c-0.51 7-1 6.8 16 6.6l15-0.2zm290-0.96-1e-5 -5.2-42-0.27c-23-0.15-71-0.15-108-6e-4l-66 0.27v4.9c0 6.2-13 5.5 110 5.5h105zm50 4.1c1.6-0.92 0.38-2.5-10-13l-12-12-2.5 2.3c-4.5 4.1-12 8.6-18 10l-5.3 1.7v5.2c0 4.7 0.24 5.3 2.2 5.6 5.8 0.83 43 0.18 45-0.77zm-304-1.7c-5-16-25-18-33-3.7-3.1 6-3.2 5.9 16 5.9h18zm309-3c1.7-4.3 0.77-47-0.97-47-0.99-0.021-3.4-0.28-5.5-0.57-3.5-0.51-3.7-0.38-4.9 3.3-2 6-5.9 13-9.6 18l-3.4 4.1 11 11c12 12 12 12 13 11zm-648-1.5c1-0.96 6.2-6 11-11l9.6-9.3-3.9-5.2c-4.2-5.6-8.4-14-9.4-18-0.6-2.5-1-2.7-6.1-2.7h-5.5l-0.029 10c-0.016 5.6-0.092 15-0.17 22-0.18 15 0.55 18 4 14zm307-15c8.3-4.1 15-7.5 16-7.5s7.3 3.4 16 7.5l15 7.5h245l8.3-4.2c11-5.4 19-14 25-25l3.8-7.7 0.51-804h-23l-1.2 6.7c-11 65-111 63-121-2.2l-0.68-4.5h-480l-0.016 74c-0.0088 41-0.015 221-0.014 400l0.0023 327 2.1 5.6c4.9 13 14 23 27 30l7.9 4h245zm-301-41c0.0089-3.4 0.022-192 0.03-419l0.014-412-11-0.58 0.2 417c0.11 230 0.22 418 0.25 419 0.037 1.4 0.97 1.8 5 1.8h5zm643-413 0.027-419h-11v838h11zm-84-328c31-6 52-43 42-74-19-61-110-49-113 14-2.1 39 31 67 71 60zm-24-5.3c-35-7.9-52-49-33-78 28-43 94-24 94 28 0 34-30 58-62 51zm32-7.3c38-19 35-74-5.4-88-15-5-24-4.2-40 3.8-8.2 4-20 19-21 27-0.31 1.7-0.84 3.6-1.2 4.2-2.1 3.5-0.76 20 2.2 27 0.73 1.6 2.1 4.6 2.9 6.6 9.2 20 41 30 63 19zm-563-87c2-5.8 6.1-13 9.9-17l2.6-2.8-11-11c-14-13-14-13-14-0.13-0.0087 5.4-0.065 15-0.12 21-0.16 17-0.75 15 5.7 15l5.6-0.3zm640-18c-0.38-28 0.58-27-13-13l-12 12 2.6 2.8c3.3 3.6 8 12 9.6 17 1.8 5.7 1.6 5.5 7.6 5.5h5.5zm-310-11 15-7.5h20l0.35-5.1c0.44-6.5 1.9-5.9-15-5.9h-15l-1.5 3.8c-3.9 9.9-9.1 14-18 15-11 0.89-20-5.7-23-17-0.38-1.3-2.8-1.5-16-1.5l-15 0.05v10l23 1 14 7.2c17 8.7 13 8.8 31-0.2zm-310 2.5c2.9-2.2 8.3-5.2 12-6.7l6.8-2.7v-5.3c0-6.8 0.7-6.6-25-6.2-26 0.43-26 0.015-12 13 5.8 5.6 11 11 11 11 0.63 1.4 2.1 0.75 7.4-3.3zm614-19c-0.65-0.65-9.4-1-24-1h-23v11l5 1.7c5.5 1.9 12 5.7 17 9.6l3 2.5 11-11c7.7-7.7 11-11 10-12zm-314 13c5.1-2.6 11-9.3 11-13 0-0.3-7.9-0.54-18-0.54-19 0-19 0.02-16 4.8 4.3 8.3 15 12 23 8.6zm-72-3.4 9.6-0.02-0.24-10h-215l-0.1 3.5c-0.22 7.7-5.5 7 55 7.3 30 0.14 74 0.16 98 0.029s48-0.24 53-0.25zm291 3.3e-4 45-0.021v-11l-106 0.037c-122 0.043-109-0.62-109 5.9l0.35 5c57 0.7 113 0.09 170 0.042zm0.51 503c-0.15-0.15-115-0.28-254-0.28l-254 2e-3 -4.8-2.4c-3.2-1.6-5.7-4-7.7-7.2l-2.9-4.8-0.58-86c-0.32-47-0.86-117-1.2-156-0.43-50-0.27-72 0.58-75 1.4-5.2 6.3-11 10-13 2.5-0.97 231-2.2 534-2.8l46-0.096 4.1 3.3c8.4 6.7 8.1 3.8 7.4 65-0.34 30-0.91 102-1.3 160-0.63 103-0.71 106-2.8 110-2.6 4.6-9.7 9.5-14 9.7-6.2 0.29-59 0.38-59 0.11zm64-4.7c2-0.3 4-2.7 5-3.8 2.1-2.3 5.3-14 4.5-16-0.56-1.4-47-1.8-238-1.9-68-0.041-89-0.53-86-2 3.2-1.8 55-2.6 171-2.6 65 0.01 119-0.37 119-0.84 0-0.47-0.73-2.6-1.6-4.7-1.6-3.9-1.2-11 0.67-11 0.52 0 0.95-0.72 0.95-1.6 0-2.6 2.6-1.8 4 1.3 1.6 3.5 1.8 9.6 0.27 10-0.59 0.36-1.1 2.1-1.1 3.8 0 3.1 0.14 3.1 5.4 3.1 5.8 0 6.1-0.42 3.8-5.8-1.7-4.1-0.94-9.5 1.9-14l1.8-2.5 0.63 2.4c0.35 1.3 1.1 2.4 1.7 2.4 1 0 0.68 5.5-0.9 14l-0.68 3.5h8.6c7.3 0 8.7-0.29 9.2-1.9 0.8-2.7 0.58-24-0.25-24-0.38-0.037-10-0.11-22-0.17-12-0.054-22-0.26-22-0.45 0-0.2 1.9-1.6 4.3-3 4.1-2.6 4.9-2.7 23-2.7h18l-0.65-10-16-0.31c-8.8-0.17-16-0.41-16-0.54-0.12-0.12-0.78-4.2-1.5-9.2-1.4-10-2.2-8.6 8.8-16l6.2-4.3 8.5 4.9 5.4-5.3c3.9-3.9 5.4-6.1 5.4-8.3 0-1.6-0.3-3-0.68-3-1.2 0-7.9 4.4-7.9 5.2 0 0.4-0.99 1.3-2.2 2.1-1.9 1.2-2.7 1-5.4-0.92-2.8-2-3.5-2.1-5.2-0.84-1.1 0.79-4.3 3.1-7.2 5.1-2.9 2-6.8 5-8.8 6.7l-3.6 3.1-3.9-2.4c-2.2-1.3-5.1-3.2-6.6-4.1-1.5-0.97-7.4-4.4-13-7.6-5.7-3.2-10-6.1-10-6.3-0.012-0.29 2.4-1.9 5.4-3.6l5.4-3 2.6 2.8c1.4 1.5 3.4 2.8 4.4 2.8 1 0 7-2 13-4.4 12-4.5 17-8.1 22-16 2.3-3.3 2.5-4.5 2-10-0.94-9-2-9.5-20-9.1l-14 0.35-1.7-6.2c-1.9-6.9-3.8-8.3-12-8.3-5.7 0-7.5 1.4-10 7.8-2.1 5-2.2 5.1-7 5.1-4 0-5.1-0.47-6.6-2.7-0.97-1.5-3.5-3.5-5.6-4.5l-3.8-1.8 9.5-4.5c8.3-3.9 10-5.4 16-12 3.4-4.1 8.5-9.1 12-11l5.4-3.9 5.7 1.6c14 3.8 12 4 23-2.4 9-5.3 10-6.5 16-14 3.5-5.2 7.9-10 11-12l5.3-3.8-0.3-53c-0.26-47-0.5-54-2-55-1.8-1.8-4.9-0.45-29 13-4.9 2.7-9.2 5-9.4 5-0.79 0-20 12-25 16-2.7 1.9-7 5.1-9.6 7-7.2 5.2-16 13-20 19-5.8 7.9-7.8 15-9.6 34-1.8 19-3.1 23-10 32-15 19-40 32-84 46-8.2 2.6-9.4 2.7-17 1.6-4.3-0.66-8.5-1.4-9.4-1.7-0.88-0.27 3.7-2.1 10-4.1 21-6.6 35-12 53-20 17-8.3 26-15 37-25 9.9-9.8 12-14 14-33 4.1-33 16-46 76-81 1.8-1 8.2-4.4 14-7.4 6-3 11-5.9 11-6.4 0-3-7.5-3.2-82-2.6l-76 0.66-12 4.2c-43 15-73 29-95 45-5.4 3.8-19 17-20 19-1.2 2.2-1.1 2.4 2.2 2.4 1.9-3e-3 15-2.9 29-6.5 41-10 58-13 65-8.1 2.5 1.6 2.9 2.6 2.9 7.5 0 3.8-0.79 7.1-2.5 10-3.6 6.6-15 17-25 24-5.1 3.3-10 6.9-12 7.9-6.2 4.2-39 21-41 21-0.29 0-3.4 2-7.4 3.2-18 5.9-29 12-47 18-18 5.9-24 7.1-32 6.2-4-0.43-7.1-1-6.8-1.3 0.26-0.26 6.7-2.2 14-4.2 7.6-2.1 14-3.9 15-4.1 0.59-0.2 1.3-0.35 1.6-0.33 0.29 0.024 1.6-0.86 3.2-1.4 6.9-2.4 13-4.7 14-4.9 15-5.3 54-24 76-36 29-16 42-28 42-38 0-6.8-13-6-50 3.3-38 9.7-41 10-46 7.8-2.6-1.4-2.7-5.9-0.097-10 3.9-6.4 17-18 31-27 8.8-5.9 40-22 49-25 2.9-1.1 5.8-2.3 6.4-2.7 0.59-0.41 6.1-2.6 12-4.8 6.2-2.2 12-4.3 12-4.7 0.41-0.35-88-0.61-197-0.57-161 0.058-199 0.33-201 1.5-5 2.6-8.6 6.9-10 12-1.2 4.2-1.5 9.8-1 27 0.54 22 1.5 109 1.6 140l0.029 17 3.8 0.7c2.1 0.39 3.8 1.1 3.8 1.5s-1.7 1.7-3.8 2.8l-3.8 2v58l2.9-0.62c1.6-0.34 5-0.86 7.4-1.2s9.2-3 15-6l11-5.4 3.6 1.9c2 1.1 4.9 3 6.4 4.4 3.1 2.7 4.4 2.7 13 0.15 4.1-1.2 5.4-1.2 5.7-0.16 1.2 3.7 4.3 5.9 9.2 6.4 4.6 0.51 6.4 1.7 4.2 2.6-0.45 0.2-1.8 1.8-3.1 3.5l-2.2 3.1-35 0.092c-19 0.051-36 0.48-37 0.96-0.92 0.59-1.3 4.1-1.3 11v10l115-0.32c63-0.18 115 0.074 115 0.56 0 0.48-2.3 0.93-5.1 0.99-2.8 0.062-6.8 0.29-8.8 0.5-3.4 0.34-137 1.4-193 1.5l-22 0.045 0.44 15c0.24 8.4 0.99 17 1.7 18 1.7 4.4 7.2 8.9 12 9.9 2.3 0.45 131 0.81 286 0.81 260-4e-3 274-0.065 278-0.57zm-286-56c1.2 0-2.7-1.7-4.2-1.7-1.7 0-3.6-1.1-5.1-2.9l-2.3-2.9 2.5-5c2.9-5.8-2.2-4.1 49-16 18-4.4 37-9 42-10 4.7-1.2 9.8-2.4 11-2.7 1.5-0.26 10-2.4 19-4.8 13-3.4 19-4.5 29-5 13-0.67 13-0.68 13-3.3 0-2.5-0.45-2.7-5.4-3-6.7-0.42-11-3.5-9.6-7.7 0.55-2.5 0.13-2.9-4.6-4.6-2.9-1-6-1.6-6.9-1.2-2 0.75-10-0.88-62-12-25-5.6-32-7.1-77-17-13-3-27-5.9-30-6.6-3.2-0.68-8.4-1.9-11-2.6-3.1-0.75-7.7-1.7-10-2.1-4.5-0.67-5.1-1.1-7.6-6.1-1.5-2.9-2.6-5.5-2.4-5.8 0.24-0.24 1.8 0.025 3.6 0.58s5.3 1.3 7.9 1.6 8.2 1.3 12 2.2c12 2.4 66 13 75 14 2.4 0.36 7.4 1.4 11 2.3 3.8 0.89 8.6 1.8 11 2 2.1 0.2 7.8 1.2 12 2.1s10 2 13 2.3c2.4 0.3 6 0.97 8 1.5 2.1 0.51 15 2.9 28 5.3 13 2.4 25 5 26 5.8 3.3 2.1 11 3.1 12 1.5 0.42-1.3 6.2-2 6.2-0.83 0 0.37-0.72 3-1.6 5.9-3.3 11-0.53 20 5 17 1.8-0.96 1.8-1.2 0.14-4.7-1.5-3.2-1.6-4.4-0.44-8.8 0.73-2.8 1.6-6.5 1.9-8.1s1.7-3.7 3.1-4.6 2.8-2.7 3.2-4c0.38-1.3 1.9-3.6 3.5-5.3 2.6-2.8 3.2-2.9 13-2.9 12 0 17 1.7 18 6.6l0.63 3.1 22-0.61 2-6c1.9-5.6 2.2-6 5.5-6.1 3.3-0.12 3.6 0.18 4.8 4.7 0.97 3.6 0.98 5.3 0.048 6.8-0.99 1.6-0.83 2.5 0.8 4.8 2.6 3.6 8.9 4.1 9.8 0.72 0.61-2.3 0.54-2.3 15-2.7l9.9-0.28v4.5c0 6.7-6.3 13-19 18-9.1 3.7-10 3.9-11 2.3-0.73-0.96-1.3-2.8-1.4-4.2-0.048-3.4-5.1-3.2-8.4 0.18-3.5 3.7-12 8.1-18 8.8-4.4 0.6-4.8 0.9-4.8 3.7 0 2.7 0.41 3.1 3.1 3.1 1.7 0 4.2 0.86 5.6 1.9 1.4 1 4.4 2.8 6.6 4 2.2 1.1 4 2.3 4 2.6 2.1e-4 0.31-25 0.42-55 0.26-51-0.28-55-0.17-61 1.7-3.2 1.1-5.8 2.4-5.6 2.8 0.15 0.43 11 0.75 25 0.69 28-0.11 25-1 26 9.5 0.34 3.2 0.89 7.4 1.2 9.4l0.62 3.5h-65l-1.2-8.8c-1.4-9.6-2-11-4.9-9.8-1.9 0.74-1.9 3.8 0.094 15l0.62 3.5h-34c-34 0-34 0.015-36 2.3-0.9 1.3-1.5 2.5-1.3 2.7 0.18 0.18 54 0.34 121 0.34 82 8e-3 120 0.36 120 1.1 0 1.6-5.2 6.2-7.9 7-1.3 0.39-2.6 1.1-2.9 1.6-0.33 0.51-55 1.2-122 1.5-110 0.57-125-1.1-123-1.1zm175-61c-7e-3 -0.44-0.67-3.3-1.5-6.3-1.4-5.3-1.3-5.8 1.6-13 1.7-4.2 2.8-8.1 2.5-8.7-1.4-2.3-3.8-0.66-6.2 4.1-5.3 10-5.6 14-2.3 24 0.48 1.4 5.9 1.9 5.9 0.53zm47-8.8c1.2-1.2 2.1-3.6 2.1-5.3 0-6.6-8.4-10-13-5.2-6.4 6.9 4 17 11 10zm-394 56c1.1-2.1 3.2-3 11-4.9 5.4-1.3 18-4.2 27-6.6 12-2.9 18-3.9 18-3.2 0.41 0.67 5.8 1.3 13 1.4l12 0.3 0.64 12-36 0.033-0.32-4.7c-0.42-6.1-2.4-6.1-2.8 0.016l-0.32 4.8-18 0.11c-17 0.1-20 0.34-18 1.8 0.37 0.37 29 0.65 64 0.63 35-0.025 63 0.32 63 0.76 0 3.1-141 11-134-2.5zm-38-1.8c5.7-1.3 11-2.7 12-3 2.9-1.5-0.91-2.9-15-5.8-8.3-1.7-15-3.2-15-3.5-1.7-1.6 2.7-1.2 17 1.7 8.7 1.8 17 2.9 18 2.5 2.4-1.1 11-1.2 11-0.067 0 0.51 0.96 0.62 2.1 0.25 1.5-0.48 2.1-0.19 2.1 1 0 0.92-0.6 1.7-1.3 1.8-0.74 0.063-2.3 0.18-3.4 0.27-3.2 0.24-3 2.1 0.45 4.1 3.4 1.9 4.1 3.8 1.9 4.6-4.4-1.3-61 5.2-28-3.8zm179 2.5c1e-3 -0.74 0.58-1.3 1.3-1.3 0.71 0 4-2.9 7.2-6.4 5.9-6.3 6.1-6.4 20-11 7.7-2.3 15-4.6 16-4.9 1.3-0.38 5.9-3.5 10-7 6.2-5 9.8-7 19-10 6-2.1 12-3.8 12-3.8s5 2.2 9.3 4.9l7.9 4.9 8-3.3c4.4-1.8 11-4.8 15-6.5 5.6-2.6 8.4-3.2 14-3.2 4.9 0 8.1-0.55 9.8-1.7 1.3-0.92 4.5-1.8 7.1-2.1 4.2-0.34 4.8-0.074 6.1 2.5 2.3 4.6 2.4 4.8 1.2 4-0.63-0.39-7.3 0.77-15 2.6-7.6 1.8-17 4-20 4.8-3.5 0.84-21 5.2-39 9.6-18 4.5-38 9.3-44 11-6.4 1.5-15 3.6-19 4.8-6.9 2.1-7.5 2.5-10 7.4l-2.9 5.2-6.7 0.35c-4.8 0.25-6.7-0.026-6.7-0.99zm-56-6.9c-0.35-3-0.39-5.8-0.077-6.3 0.31-0.5 6.8-0.92 14-0.92h14v13l-28-0.029zm32 4.8c-0.25-0.44-0.53-3.3-0.62-6.4-0.16-5.5-0.13-5.6 3-5.6 1.7 0 5.6 1.5 8.6 3.4 4.5 2.8 5.4 3.9 5.4 6.4v3h-8c-4.4 0-8.2-0.36-8.4-0.8zm293-0.029-15-0.3-1-10c-0.57-5.7-0.84-11-0.6-11 0.24-0.44 3.1-0.8 6.3-0.8 5.2 0 7.1 0.68 15 5.5 5.1 3 9.4 5.5 9.5 5.6 0.63 0.54 2.1 11 1.6 12-0.36 0.13-16-8.4-16-0.053zm-78-6.4c-0.37-3.4-1.1-8.2-1.6-11-0.48-2.5-0.58-4.7-0.2-5 0.37-0.23 13-0.44 29-0.47l28-0.061 0.62 4.5c0.34 2.5 0.94 7.5 1.3 11l0.7 6.7h-57zm-364-8.5c0-2.1-3.4-0.94-3.1-1.7 0.23-0.7 0.86-1.3 1.4-1.4 0.54-0.051 1.7-0.38 2.6-0.72 1.9-0.74 32-10 34-11 0.59-0.14 3.7-1.1 6.9-2 5.4-1.7 14-1.5 14 0.21-0.012 0.6-41 14-47 15-1.2 0.26-2.9 0.68-3.8 0.94-0.88 0.26-5.2 2-5.2 0.049zm92-0.26c0-1.1 12-3.2 18-3.2 3.7 0 4.5-0.35 4.5-2.1 0-1.6-0.87-2.2-3.5-2.4-2.7-0.26-3.6-0.9-3.8-2.7-0.26-1.8-1.3-2.5-4.3-3-2.2-0.35-8.3-1.6-14-2.7-5.3-1.1-13-2.7-17-3.5s-18-3.7-30-6.5c-45-9.9-42-9.1-43-12-1.2-2.5-1.1-2.7 1.2-2.1 1.3 0.32 9.2 1.8 17 3.4 8.3 1.5 19 3.5 23 4.3 4.4 0.84 10 1.8 12 2.1 2.4 0.33 7.5 1.3 11 2.2s8.8 1.8 11 2c9.1 1.2 28 5.2 31 6.6 1.9 0.97 3.2 1.1 3.9 0.45 0.57-0.57 2.6-1 4.5-1 2.6 0 4.1-0.84 6.1-3.5 2.2-2.9 3.3-3.5 6.8-3.4 7.7 0.16 8.7 0.43 9.3 2.6 0.42 1.6 1.5 2.2 4.4 2.3 2.1 0.088 4.4 0.21 5.1 0.27 0.69 0.059 2.1-1.3 3-3.1 2.5-4.5 4.7-4.1 5.4 1.1 0.56 4.4 3.3 6.3 5.7 3.9 1.7-1.7 13-1.5 12 0.17-0.076 2.6-4.9 7.1-10 9.3-5.2 2.2-5.2 2.2-5.8 0.068-0.75-2.9-3.1-2.7-6.9 0.53-1.8 1.5-4.5 2.7-6.2 2.7s-3.3 0.68-3.6 1.5c-0.7 1.8 0.12 2.8 2.4 2.8 0.93 0.013 2.8 0.88 4.2 1.9 2.4 1.8 1.5 1.9-26 2-16 0.07-28-0.27-28-0.75zm28-12c0.34-2.2 0.96-5.2 1.4-6.6 0.57-1.9 0.38-2.4-0.75-2.1-1.9 0.63-4.7 8.6-3.9 11 1.1 3 2.6 2 3.2-2.2zm27-1.8c0.71-0.85 1.1-2.4 0.92-3.5-0.51-2.6-5.5-2.6-6 0.011-0.86 4.5 2.4 6.7 5.1 3.5zm-56-17c-1.4-0.54 2.8-2 13-4.7 8.5-2.2 20-5.1 26-6.6 14-3.7 40-9.4 63-14 18-3.5 20-3.8 25-2.5 3.2 0.72 5.9 1.6 5.9 2 0 0.38-5.7 1.6-13 2.6-28 4.2-82 16-104 21-10 2.8-14 3.1-17 1.8zm-179-28c-1.3-0.36-2.4-0.82-2.4-1.2 0-0.79 13-6.2 21-8.8 2.4-0.77 4.8-1.7 5.4-2.1 1.2-0.82 17-5.1 24-6.4 2.4-0.46 9.1-1.8 15-3.1 5.9-1.2 13-2.5 16-2.8 2.7-0.31 5.6-0.76 6.5-1 1.4-0.4 14-1.9 35-4.3 2.9-0.33 7-0.82 9.1-1.1 4.1-0.53 16-1.7 36-3.8 11-1.1 14-1 18 0.094l4.8 1.4-4.3 0.85c-2.4 0.47-8 1.1-12 1.3-4.5 0.25-8.6 0.71-9.1 1s-4.8 0.86-9.5 1.2-10 0.85-12 1.1c-1.8 0.26-6.4 0.76-10 1.1-6.8 0.6-32 3.3-40 4.2-34 4.2-61 11-79 20-5.5 2.8-6.3 3.6-11 2.3zm501-239c2-6.7 3.1-13 4.8-20 1.2-4.6 2.1-8.9 2.1-9.5 7.1e-4 -0.79-3.5-1-11-0.79l-11 0.37 3.5-4.1c1.9-2.3 5.2-6.3 7.4-8.9 2.1-2.6 5.6-6.8 7.7-9.1 6.9-7.8 13-15 16-19 1.8-2.3 3.3-3.5 3.3-2.7s-1.4 8-3.2 16c-1.8 7.9-3.2 15-3.2 15-0.01 0.42 4.8 0.9 11 1.1l11 0.3-5.6 6.6c-3.1 3.6-7.1 8.4-8.9 11-1.8 2.2-4.1 5-5.2 6.3-3.5 4-14 17-17 20l-2.5 3.4zm-352-54v-4l-17 0.78 0.67-24-4.3-0.57c-2.3-0.31-4.3-0.48-4.3-0.37-0.025 0.11 0.21 6.9 0.52 15l0.56 15 11-0.27c6.5-0.16 11 0.17 12 0.8 1.2 1.9 1.6 1.1 1.6-2.9zm27-0.16 0.37-3.6-18 0.47 0.36-12c0.2-6.5 0.063-12-0.31-12-0.37 7.3e-4 -2.2-0.3-4-0.67l-3.4-0.67v31l11-0.42c7.7-0.29 11-0.035 12 0.82 1 1.7 1.4 1.2 1.8-3.1zm30-0.43 8.3e-4 -3.4-20 0.74v-6.9l13 0.93v-6.8l-13 1v-6.8l19 0.75-5.4e-4 -3.4c-3e-4 -1.9-0.48-3.7-1.1-4.1s-1.1-0.19-1.1 0.4c0 0.65-4.7 0.96-12 0.79l-12-0.26 0.57 30 2.7 0.093c1.5 0.051 6.9 0.18 12 0.28 5.1 0.1 9.6 0.53 10 0.96 1.4 1.4 2.6-0.32 2.6-3.8zm-186 1.5c-0.35-1.1-0.067-3.3 0.64-4.8 1.2-2.6 1.7-2.8 8.7-2.8 7.4 0 7.4 0.011 8.6 3.5 0.69 1.9 1.1 3.8 1 4.3-0.13 0.44 0.37 0.83 1.1 0.87 0.74 0.035 3.1 0.2 5.4 0.37 4 0.31 4.8-0.21 3.1-2.1-2.2-2.4-14-30-14-32 0.35-1.3-0.4-2-2.7-2.5-6.5-1.3-8.3-0.85-8.3 2 0 1.5-2.9 9.5-6.4 18-3.5 8.3-6.4 16-6.4 16s2.2 0.98 4.9 0.98c4.3 0 4.8-0.24 4.3-2zm5.1-14c0.27-0.74 1.1-3.1 1.9-5.3 1.7-4.8 2.7-5.1 3.7-0.81 0.39 1.8 1.1 3.5 1.7 3.8 0.54 0.34 0.99 1.3 0.99 2.2 0 1.1-1.3 1.5-4.4 1.5-3.1 0-4.3-0.4-3.9-1.3zm34 9.9-0.47-6.5 3.1 2e-3c2.5 2e-3 3.7 0.93 6 4.7 1.6 2.6 2.9 5.3 2.9 6.2 0 1.1 1.3 1.5 5.1 1.4 2.8-0.087 5.2-0.22 5.4-0.3 0.16-0.077-1.6-2.6-4-5.6-4.2-5.3-4.7-7.4-1.6-7.4 2.7 0 5.1-5 4.3-8.9-1.2-6.3-3.1-7.1-17-7.5-12-0.35-13-0.31-12 1.9 0.33 1.2 0.61 8.1 0.62 15l0.015 13 8.2 0.48zm-0.21-15v-3.3l5.9 0.49c6.4 0.53 8.7 1.9 7.6 4.5-0.49 1.3-2.2 1.7-7.1 1.7h-6.5zm40 9.3v-12l5.1 0.067c5 0.066 5.1-4e-3 5.1-3.2l4e-5 -3.3-13 0.12c-7 0.064-13-0.36-14-0.95-2-1.6-2.3-0.72-1.6 4.4 0.43 3.2 0.95 4.3 1.8 3.5 0.63-0.62 2.7-1.1 4.7-1.1h3.5l0.088 6.2c0.048 3.4 0.015 8.9-0.074 12l-0.16 6.1 8.2-0.32zm17 12c2.3-0.63 2.4-1 2.4-15v-14l-3.8-0.44c-2.1-0.24-3.9-0.18-4 0.15-0.11 0.33-0.056 7.2 0.12 15 0.34 15 0.33 15 5.3 14zm188-2.2c3.7-1.9 5.1-4.5 5.1-9.4 0-4.2-2.3-8.5-5.2-9.7-1-0.41-5.1-1.1-9.1-1.6-8.4-0.97-10-2-8.3-5.2 1.8-3.3 10-3.2 15 0.29l3.8 2.5 1.8-3.8c0.99-2.1 1.7-3.8 1.5-3.9-5.7-3.1-13-5-17-4.5-2 0.23-4.5 0.48-5.4 0.54-4.7 0.33-9.1 7.8-8 14 0.94 5 3.8 6.9 13 8.3 9.2 1.4 11 2.6 9.3 5.9-2.5 4.7-14 3.3-18-2.2-1.6-2.1-1.7-2-3.1 2.3-1.7 5-1.3 5.6 4.8 7.3 8.6 2.5 14 2.3 20-0.49zm-88-3.6c-0.79-6.1-0.65-6.4 3.1-6.4 2.2 8.7e-4 3.4 1.1 5.7 5.2 1.6 2.9 2.6 5.5 2.2 5.9s1.8 0.69 4.9 0.69h5.6l-3.8-5.6c-4.1-6-4.5-7.2-2.5-7.2 2.6 0 5.2-3.6 5.2-7.2 0-8-3.9-10-19-9.5l-9.5 0.28-0.3 29 8.7 0.0018zm2e-3 -15c0-3.2 0.014-3.2 6.3-3.2 5.4 0 6.4 0.3 6.9 2.2 0.74 2.8-2 4.3-8.3 4.3-4.7 0-4.9-0.11-4.9-3.2zm39 15c-0.47-5.6-0.28-6.1 5.5-14l5.9-8.6-3.7-0.69c-4.4-0.82-6.9-0.033-6.9 2.2 0 0.89-0.91 3.1-2 4.9l-2 3.3-2.3-3.7c-1.3-2-2.2-4.3-2-5.1 0.26-1.2-4.1-1.6-10-1-0.41 0.041 1.9 4 5.2 8.7 5.8 8.3 5.9 8.8 5.5 14l-0.48 5.8h7.9zm73-6c-0.41-13-0.078-14 6.7-12l3.8 1.1v-4.9c0-4.1-0.23-4.7-1.6-3.6-1.1 0.9-5.4 1.2-14 0.93l-12-0.36 1e-3 4c9.6e-4 3.8 0.1 3.9 2.6 2.8 1.4-0.65 3.8-0.87 5.4-0.49l2.8 0.69-0.41 11c-0.22 5.8-0.73 11-1.1 12-0.48 0.78 0.82 1.2 3.9 1.2l4.6 1e-3zm20 5.3c-0.35-6.3-0.29-6.4 2.4-6.4 2 0 3.6 1.2 6 4.7 1.8 2.6 3.3 5.5 3.3 6.4 0 1.3 1.1 1.7 5.2 1.5l5.2-0.19-4.2-6c-3.7-5.2-4-6.1-2.5-7.1 4.2-2.6 4.8-3.4 5.4-7.1 0.53-3.3 0.18-4.4-2.1-6.7-2.6-2.6-3.3-2.8-15-2.8h-12v13c0 7.3-0.29 14-0.65 15-0.53 1.4 0.2 1.7 4 1.7l4.7 2e-3zm-0.17-15c0-3.2 0.013-3.2 6.3-3.2 6.5 0 8.3 1.2 6.9 4.8-0.45 1.2-2.3 1.6-6.9 1.6-6.3 0-6.3-6e-3 -6.3-3.2zm33 6.2 0.01-15-3.2 0.19c-1.8 0.1-3.5 0.22-3.8 0.27-0.29 0.046-0.54 6.8-0.54 15v15l7.5-0.0019zm13 9.5c0-7.8 2.1-9.6 5.5-4.7 1.4 1.9 3.1 4.2 3.9 4.9 0.76 0.78 1.4 2.3 1.4 3.5 0 1.8 0.56 2 5.1 1.4 2.8-0.37 5.2-0.78 5.4-0.92s-2.7-4-6.4-8.5c-5.7-7-6.4-8.5-5.1-9.5 0.89-0.66 3.9-3.2 6.6-5.6 3.9-3.5 4.6-4.6 3.3-5.1-2.5-0.96-10 0.49-10 1.9 0 0.68-2.2 3.1-4.9 5.4l-4.9 4.1 0.76-11-8.6 0.0013v30l8 0.31zm53 1.3c0-3.5-0.29-4.2-1.3-3.2-0.8 0.79-4.7 1.3-10 1.3h-9l0.34-3.3c0.31-3.1 0.68-3.4 4.6-3.6 2.4-0.15 5.1 0.17 6.2 0.71 1.5 0.8 1.9 0.49 2-1.7 0.088-1.5 0.21-3.3 0.27-4 0.074-0.92-1.2-1.2-4.2-0.94-8.5 0.78-8.6 0.76-8.9-1.7-0.25-1.7 0.36-2.7 2.1-3.3 2.8-0.98 14-0.76 16 0.31 0.72 0.44 1.1-1.1 1-4.5-0.047-2.8-0.33-4.5-0.63-3.8-0.38 0.94-3.5 1.3-11 1.3-5.5 0-11 0.3-13 0.66-2.8 0.56-3.2 0.96-2.3 2.6 0.57 1.1 0.92 7.5 0.77 14l-0.27 12 13 0.33c7.1 0.18 13 0.44 14 0.57 0.44 0.13 0.8-1.8 0.8-4.3z"/><text transform="translate(-25 -19)" x="144.12617" y="663.52429" fill="#000000" font-size="29px" style="inline-size:584.851;line-height:1.1;white-space:pre" xml:space="preserve"><tspan x="144.12617" y="663.52429">Play as part of your Battle Plan. Kills </tspan><tspan x="144.12617" y="695.79091">both leaders. Both players may use </tspan><tspan x="144.12617" y="728.05751">Shields to protect their leader against </tspan><tspan x="144.12617" y="760.32411">the Artillery Strike. Surviving </tspan><tspan x="144.12617" y="792.59071">(shielded) leaders do not count </tspan><tspan x="144.12617" y="824.85732">towards the battle total; the side that </tspan><tspan x="144.12617" y="857.12392">dialed higher wins the battle. No spice </tspan><tspan x="144.12617" y="889.39052">is collected for any leader killed in this </tspan><tspan x="144.12617" y="921.65712">battle. Discard after use. </tspan></text><text transform="translate(-11 -8.2)" fill="#000000" font-size="43px" style="shape-inside:url(#rect2);white-space:pre" xml:space="preserve"><tspan x="135.96875" y="200">Weapon - Special</tspan></text></svg>
