<?xml version="1.0" encoding="UTF-8"?>
<svg width="822" height="1122" version="1.1" viewBox="0 0 822 1122" xmlns="http://www.w3.org/2000/svg">
 <path d="m86 1e3c-1.8-0.89-4.3-3-5.5-4.7l-2.2-3.1-0.29-466c-0.2-325 0.029-468 0.76-470 1.4-4.2 4.9-7 8.1-9.8h642l7.8 7.8-0.035 469c-0.028 366-0.3 470-1.2 472-0.67 1.2-2.6 3.2-4.2 4.5l-3 2.3-320 
 0.23c-293 0.21-320 0.091-323-1.4zm48-7c0-5.4-0.054-5.5-3.8-7-5.6-2.2-11-5.3-16-9.1-6-4.3-4.6-4.9-17 7.3-15 15-15 14 15 14l22-0.018zm218 0.53c0.19-2.8 0.16-5.3-0.07-5.5-0.23-0.23-49-0.42-108-0.42h-107v11h215zm35 
 1.7c4-21 33-21 41 0.11l1.2 3.2 31-0.042v-11h-21l-30-15-30 15-11 0.5c-13 0.55-13 0.71-11 8.2l0.52 2.8h31zm38 0.78c-4.7e-4 -14-25-18-33-4.4-3.4 6.5-3.3 6.5 16 6.5 17 0 17-0.048 17-2.1zm254-2.9 0.13-5.5h-216v4.8c0 
 2.7 0.3 5.1 0.67 5.5 0.37 0.37 49 0.66 108 0.66l107-0.01zm50 4.6c2.1-1.3 0.41-3.5-11-14-12-11-9.7-11-17-5.4-3.2 2.4-8.7 5.5-12 6.9l-6.5 2.6-0.6 11 23-0.015c13-0.01 23-0.4 24-0.87zm5.4-29 0.23-23-11 9.7e-4 -1.3 
 4.2c-1.7 5.8-4.2 11-8.6 16l-3.7 4.8 11 11c14 14 13 15 13-13zm-640 14c5.8-5.6 11-10 11-11s-0.83-2.7-3-5.5c-4.4-5.8-10-17-10-19 0-1.3-1.1-1.6-6-1.6h-6l0.014 21c0.02 30-0.86 29 14 16zm297-5.8 16-8 30 16h245l7.7-3.9c12-6 
 22-17 27-30 1.9-4.4 1.9-12 2.2-406l0.25-401h-23l-1.1 5.8c-12 65-108 67-120 2.6-0.6-3.2-1.2-6.4-1.4-7.1-0.27-1-49-1.2-240-1.2h-240l0.51 803 4.2 8.5c4.8 9.6 11 17 20 23 12 7.8 2.5 7.3 137 7.3l120 
 0.054zm-274-414c-3.6-1.6-8.1-5.9-10-10-2-3.7-3.1-316-1.1-324 1.4-5.1 6.4-11 11-13 3.8-1.7 20-1.8 290-1.8 314-0.052 290-0.51 296 5.7 6.2 5.8 5.7-6.6 5.7 169l-0.017 161-2.2 3.9c-1.2 2.1-4 5.1-6.2 6.7l-4 2.8-289 
 0.21c-238 0.18-289-0.02-292-1.1zm580-3.1c11-5.5 10-1.4 9.9-92-0.46-124 0.22-19 0.22-158 0-83 0.062-82-4.8-87-5.5-5.9-3.2-5.7-65-5.7h-461c-79 0-70-12-70 94l4e-5 156c-0.29 89-0.54 86 9.2 92 3.2 2 577 2.4 580 
 0.44zm-402-5.4c0-0.31 2.6-4.6 5.9-9.6 15-24 18-28 16-30-2.1-3.4 7-16 13-18 9.7-3.2 37-46 36-47 3.1-19-14-44-20-62 0-2.4-2.1-0.52-8.9 8-4 5-10 11-14 14l-6.3 5c-20 11-55-44-45-56 4.9-2.2 5-1.1-1-14-5.3-11-5.4-13-1.4-13 
 2.7 0 2.9-0.89 1.5-5.8-1.1-3.7-0.89-3.8 2.4-1.7 2.6 1.7 5.6-0.8 5.6-4.7 0-1.9 2.4-4.2 3.3-3.2 0.36 0.36 0.66 1.5 0.66 2.5 0 6.9 5.9 3.9 4.5 20l-0.69 8.3 3-0.6c3.6-0.71 3.6-0.66 8.8 13 5.3 14 12 23 12 16 6.4-16 13-39 
 30-45 3.8-1.3 7.2-2.5 7.4-2.6 0.22-0.19-1.7-3.5-4.2-7.4-5.9-8.8-6.3-7.8 4.8-13 8.7-4.3 12-6.7 8.2-6.7-1.8 0-7.4-6.1-7.9-8.5-0.21-1.2-1.3-2.1-2.6-2.3-3.1-0.44-4-3.2-3.9-12 0.032-5-0.41-8.2-1.3-9.3-3.8-4.6 1.5-20 
 7.4-22 3.9-1 8.5-6.8 10-7 0.85-0.07 19-0.021 24 0.068 1.9 0.029-0.5 2 1.4 2 0.72 5e-3 3.5 1.1 6.2 2.4l4.9 2.4-5.8 1.9c2.8 2.4 5.2 6.3 8.9 7.3 2.5 0 1.9 2.9-0.81 3.6-3.7 0.93-7.3-3.2-8.2-2.3-0.7 0.7 6.9 4.7 2.1 4.7-1.8 0-1.9 1.3-0.38 
 6 1.8 9 1.9 18 2.4 27 3.1 0.58 12-0.88 12 3.3-0.77 4.1-0.82 8.4-1 13 4.3 1.3 12 2.9 14 1.9-0.96-0.25-1.8-0.7-1.8-1 0-1.8 34-66 37-68 0.56-0.58 9.4 4.3 9.4 5.1 0 0.41-6.4 13-14 27-7.9 14-15 28-16 30-0.73 1.8-2.4 4.1-3.7 5.1-5.6 4.4 8.3 2.6 9.2-0.018 
 1.2-3.9 7.9-0.59 6.4 2.2-1.1 2-0.79 2.2 8.1 5.3 5.1 2.2 7.5 7.9 10 12 53 21 18 10 48 26 15 7.5 20 12 32 27 8.8 12 11 14 13 14 3.5 0.015 7.7 8.6 5.4 11-1.2 1.2-0.94 1.9 1.5 5 2.9 3.7 12 21 14 27 3.6 9.6-11 26-12 26-0.39 
 0-2.1-4.2-3.9-9.2-5.6-16-10-21-11-10-0.45 7-1.7 5.8-3-2.8-0.92-6.5-0.8-8.5 0.79-14 2.3-8.3 1.2-10-3.9-7.8-8.9 4.6-34-26-36-29-3.8-6.3-26-19-43-24l-14-4.2-7.8 6.1c5.8 16-13 54-4.1 63 1.8 1.1 3 13 1.8 17-2.9 8 4.4 15 13 20l8.1 
 28c-4.9 8.3-8.8 8.4-6.5 19 8.1 34 7.4 35-12 36l-17 0.15c-13-16-20-43-28-47-8.8-3-8.6-3-12 3.3-14 18-35 30-53 44l-20-0.028c-11-0.016-20-0.28-20-0.59zm-29-223c-0.034-0.14-2.4-8.6-5.3-19-5.1-18-5.4-24-0.74-19 0.99 0.99 11 37 10 
 38-0.52 0.52-4.1 0.75-4.3 0.27zm23-4c-2-5.8-2.5-15-2.4-25 5.5 15 3.6 29 2.4 25zm-16-6c-3.7-4.9-4.6-9.7-1.8-10 4.9-1.3-3.1-7.3 2.5-7.3 2.3 0 5.6 11 4.6 16-1.3 5.6-2.4 6.1-5.4 2.2zm9-5.6c-1.5-0.3-1.7-0.96-1.2-3.7 0.52-2.8 
 0.29-3.4-1.4-4-3.5-1.1-2.8-6.2 0.93-6.7 2.8-0.41 3-0.21 3.6 3.6 1 6.8 0.26 11-1.9 11zm132-2.9c0-3.1 29-56 30-55 1.1 1.1-26 54-29 55-0.78 0.3-1.4 0.25-1.4-0.12zm23-8.1c2.6-4.8 10-19 17-31 9.9-18 14-25 14-22 0 1-4.9 10-15 28-5.5 
 9.6-11 20-13 23-2.6 5.8-6.1 11-7.8 11-0.45 0 1.3-4 3.9-8.8zm8.7 5.1c-2.1-1.6-4.8-1.9-3.9-4.7 0.65-1.7 7.4 0.8 8.9 3.3 1.9 3.1-1.1 4-5 1.4zm2.6-6.2-2.4-1.9 6.2-11c8.4-15 7.4-14 10-13 3.6 1.6 3.5 1.8-3.3 14-8.3 15-8 14-11 
 12zm-185-6.4c-2.2-6.8-2.7-7.2-6.5-5.9-4.6 2.4-4.3-2.4-5-5.7 3.9-0.49 8-2.4 12-1.7 1.6 1.6 5 17 3.8 18-2 1.3-2.5 0.85-4.2-4.5zm2.9-13c1.1-3.6 13-2.6 17-3 5.5 18 4.4 18-12 20-1.6-5.5-3.3-11-4.9-16zm-6.8-7.4c2.9-0.74 3.9-0.087 
 3.1 2.1-1.4 3.8-8.7-0.65-3.1-2.1zm5.6-1.6c-0.78-3-0.63-3.3 1.7-3.9 6.6-2.2 7.8 0.26 9.7 5.5 0.53 1.4-9.8 4.4-11-1.7zm178-20c-2-1.1-1.2-9.1 3.5-5.5 3.8 2.9 0.58 7.9-3.5 5.5zm4.7-6.9c-0.74-1.2 1.1-2.4 2.5-1.6 1.8 1.1-1 3.9-2.5 
 1.6zm15-0.79c-1.7-0.62-1.6-2.3 0.19-2.3 1.7 0 3 1.6 1.8 2.3-0.68 0.39-2 0.015-2-0.014zm-372 277c0.0032-230-0.33-419-0.74-419-0.41-0.072-2.9-0.2-5.5-0.28l-4.8-0.15v839h11zm642 404c2e-3 -8.4 0.012-197 0.023-419l0.021-404h-10l-4e-3 
 336c-2e-3 185 2e-3 373 0.01 419l0.014 84h10zm-84-732c45-11 60-66 27-98-37-36-99-10-99 42 0.15 37 35 65 71 56zm-27-6c-28-7.5-44-39-35-66 19-54 100-41 100 16-0.05 34-32 59-65 50zm34-6.8c13-6.5 23-18 26-31 1.3-5.7 
 1.6-19 0.52-21-0.5-0.99-1-2.8-1.2-4-0.42-3.6-1.8-7.7-2.5-7.7-0.38 0-1.2-1.5-1.9-3.2-9.2-25-52-31-74-11-40 37 5.2 102 54 78zm-22-7.3c-9-1.3-14-6.5-22-23-2.5-5-5.4-10-6.4-12-4.9-8.5 4-8 9.4 0.56 6.2 9.8 10 9.8 8.8 0.16-2.8-24-3-27-1.3-29 2.1-2.1 
 4.4-1.1 5.1 2.4 0.29 1.5 1.3 7 2.2 12 2.3 13 3.4 12 3.4-3 0.016-15 0.43-17 3.5-17 3.8 0 3.6-0.97 4.3 24 0.26 9 1.8 5.8 2.9-6.3 1.2-13 1.5-13 4.2-13 3 0 3.4 1.7 3.1 16-0.31 16 0.3 16 5.4 4.8 3.6-8.1 5.5-10 7.7-8.9 1.8 1.1 0.2 8.6-3.6 
 17-2.8 6.1-3.9 10-4.6 17-1.5 15-8.7 21-22 19zm-418-63 2e-3 -3.8-19 0.64v-2.6c0-2.6 0.097-2.6 6.2-2.4l6.2 0.26 0.4-7-6.4 0.41c-6.4 0.41-6.4 0.41-6.4-2.3v-2.7l19 0.69-2e-3 -6h-26v27l13 0.31c7.2 0.17 13 0.41 13 0.53 0.14 0.12 0.25-1.5 0.25-3.5zm150 0 
 2e-3 -3.8-19 0.64v-2.7c0-2.6 0.087-2.7 6-2.3l6 0.34v-7l-6 0.34c-5.9 0.33-6 0.31-6-2.3v-2.7l18 0.7-5.1e-4 -3.9c-3.8e-4 -3-0.29-3.6-1.3-2.9-0.71 0.57-6.3 0.9-13 0.77-11-0.21-14 0.37-12 2 1.5 0.94 1.3 24-0.18 24-0.77 0-0.86 0.34-0.23 0.97 0.53 0.53 6.6 1.1 
 13 1.3 6.9 0.17 13 0.41 13 0.53s0.75-1.5 0.75-3.5zm-222 0.3c2.7-1.3 5.2-2.2 5.7-1.9 1.4 0.85 0.93-0.7-1.2-4.2l-2-3.3-2.4 2.4c-10 10-30-3.3-20-14 5-5.3 18-5.2 21 0.24 0.57 1.5 1 1.3 3.1-1.3 2.7-3.4 3-4.5 1.1-4.5-0.72 0-3.3-0.96-5.7-2.1-15-7-32 2.6-30 17 1.9 
 12 17 19 30 12zm20-3.6-0.44-6 14 0.6 0.2 4.8c0.11 2.6-0.2 4.8-0.68 4.8s-0.87 0.45-0.87 1 2.1 1 4.8 1l4.8 7.7e-4 -0.42-28-3.8-0.11c-4.6-0.14-5.7 0.39-4.3 2.1 0.58 0.69 0.93 2.8 0.78 4.7l-0.27 3.4-14 0.59 0.55-11-3.4-0.085c-5.2-0.13-6 0.37-4.9 3.2 1.1 2.9 1.1 
 12 0.043 19-0.94 5.7-0.88 5.8 4.4 5.8h4.1zm64 4.5c-1.4-3.6 1.1-5.4 7.4-5.4 6.2 0 7.9 1.4 6.4 5.4-0.54 1.4 0.19 1.6 5 1.6 4.9 0 7.4-1.1 4.8-2.2-1.6-0.65-12-22-12-23 0.45-1.2-0.46-1.5-4.5-1.5-4 0-5 0.3-4.5 1.5 0.31 0.8-2 6.5-5.1 13s-5.9 12-6 12 1.8 0.75 4.4 
 0.75c3.9 0 4.6-0.28 4.1-1.6zm3.4-10c0-0.9 3-6.5 3.5-6.5s3.5 5.6 3.5 6.5c0 0.3-1.6 0.55-3.5 0.55s-3.5-0.25-3.5-0.55zm31 11c0.32-0.51 0.17-1.2-0.32-1.5-0.49-0.31-0.92-2.3-0.95-4.5l-0.054-3.9 8-0.36c12-0.52 17-7.4 10-14-2.1-2.1-27-2.9-26-0.85 1.2 1.5 1.3 22 
 0.026 23-1.7 1.7-0.53 2.4 3.7 2.4 2.4 0 4.7-0.42 5-0.93zm0.23-16c-1.2-0.29-1.7-1.2-1.5-2.6 0.5-3.5 14-3.7 14-0.21 0 2.4-7.2 4.1-12 2.8zm45 16c0.34-0.55 0.14-1-0.44-1-0.63 0-1.1-2.4-1.1-6v-6h18l-0.79 14h9.1v-33h-9.1l0.83 13-18-0.58 0.02-12h-8v33h4.2c2.3 0 
 4.5-0.45 4.8-1zm72 0c0-0.55-0.45-1-1-1s-1-2-1-4.5c0-4.4 0.059-4.5 3.2-4.5 3.6 0.042 9.2 6.5 8.1 9.4-0.48 1.2 0.42 1.5 5 1.5 3.1 0 5.6-0.45 5.6-1s-0.37-1-0.83-1c-0.88 0-7.6-9-7-9.3 0.2-0.12 1.6-0.84 3.1-1.6 5.4-2.7 
 4.3-12-1.5-14-1.2-0.26-7-0.67-13-0.92l-10-0.44v28h4.8c2.6 0 4.8-0.45 4.8-1zm1.7-16c-3.3-0.32-3.8-0.69-3.5-2.6 0.41-2.9 12-3.9 13-1.2 1.1 2.9-2.8 4.4-10 3.7zm45 15c6.1-3.7 8.4-13 4.8-19-5.3-9-22-9-28 0.062-7.8 12 9.6 27 23 19zm-12-4c-8.5-3.4-6-16 
 3.2-16 4.8 0 7.1 1.3 8.3 5 2.5 7.3-4.4 14-11 11zm-322-9.6c2.6-8.7 8.1-16 14-23-4.9-3.5-19-22-24-21-1.1 1.1-2.4 43-1.3 45 0.65 1.7 12 0.81 12-0.95zm640 1.6c1.4-0.082 1.8-45 0.44-47-8.8 4.2-16 15-23 22 4.6 5.7 8.9 12 11 19 2.4 7.4 1.8 7.1 12 6.5zm-310-34 
 15-7.6 22 0.034v-11h-32l-1.2 4.4c-5.4 20-33 18-40-2.6-0.47-1.6-2.1-1.8-16-1.8h-16v11l22-0.49 15 7.6c8.1 4.2 15 7.7 15 7.8 0.13 0.08 7.1-3.3 16-7.4zm-310 3.2c6.3-4.8 14-7.8 21-11l0.018-10h-22c-30 0-29-0.61-15 14 14 13 11 12 16 8.1zm606-9c14-13 
 14-13-14-13l-23-0.015 0.012 10c6.5 2.2 13 5.1 19 9 7.3 5.3 5.3 6 18-7zm-303 0.9c4.5-2.3 9-8.6 9-13 0-0.54-7.1-0.93-17-0.93-19 0-19 0.16-15 7 5.5 8.1 15 11 23 6.5zm-106-2.5 42 0.1v-11h-215c0.42 3.2-0.92 7.4 0.68 10 59 0.15 115 0.39 173 
 0.6zm369-11h-216c0.2 3.4-0.51 7.1 0.67 10 0.37 0.37 49 0.56 108 0.42l107-0.25c0.2-3.5 0.4-7 0.6-10z"/>
 <text x="111.90932" y="185.81865" fill="#000000" font-family="Sans" font-size="43px" stroke="#000000" stroke-linejoin="round" xml:space="preserve"><tspan x="111.90932" y="190" font-size="43px">Special - Leader</tspan></text>
 <text x="124.18142" y="634.72394" fill="#000000" font-family="Sans" font-size="36px" stroke="#000000" stroke-linejoin="round" xml:space="preserve"><tspan x="124.18142" y="635">Play as a leader with zero strength on </tspan>
 <tspan x="124.18142" y="671.39056">your Battle Plan and discard after the </tspan><tspan x="124.18142" y="708.05719">battle.</tspan><tspan x="124.18142" y="744.72382"/><tspan x="124.18142" y="781.39044">You may also play a weapon and a </tspan>
 <tspan x="124.18142" y="818.05707">defense. The cheap hero may be </tspan><tspan x="124.18142" y="854.72369">played in place of a leader or when </tspan><tspan x="124.18142" y="891.39032">you have no leaders available. </tspan></text>
</svg>
