<?xml version="1.0" encoding="UTF-8"?>
<!-- Created with Inkscape (http://www.inkscape.org/) -->
<svg width="822" height="1122" version="1.1" viewBox="0 0 822 1122" xmlns="http://www.w3.org/2000/svg">
 <path d="m86.218 1033.3c-1.805-0.8896-4.28-3.0169-5.5-4.7272l-2.2182-3.1097-0.29156-466.5c-0.20297-324.76 0.02866-467.61 0.76236-470.16 0.57965-2.0115 2.639-5.049 4.5764-6.75l3.5224-3.0927h642.17l7.7647 7.7647-0.0354 469.37c-0.0276 366.28-0.30218 469.84-1.25 471.53-0.66801 1.1913-2.5536 3.2163-4.1901 4.5l-2.9755 2.334-319.52 0.2272c-292.61 0.2082-319.8 0.091-322.81-1.3903zm47.782-6.9548c0-5.4056-0.0537-5.5055-3.75-6.9748-5.6087-2.2296-11.205-5.3254-16.384-9.0629-5.9808-4.3165-4.5526-4.9332-17.015 7.348-14.895 14.678-15.396 14.216 15.399 14.192l21.75-0.018zm218.15 0.5341c0.19058-2.7961 0.15901-5.2711-0.0702-5.5-0.22916-0.2289-48.717-0.4162-107.75-0.4162h-107.33v11h214.81zm35.258 1.7019c4.0235-21.447 32.859-21.367 40.644 0.1131l1.1711 3.2312 30.773-0.0424v-10.92h-21.025l-30.289-15.17-30.186 14.67-11.42 0.5c-12.627 0.5528-12.849 0.7135-11.436 8.25l0.51557 2.75h30.619zm37.588 0.7798c-4.7e-4 -14.5-25.493-17.948-32.501-4.3959-3.3548 6.4874-3.3295 6.498 15.501 6.498 16.609 0 17-0.048 17-2.1021zm253.86-2.9071 0.12658-5.4908h-215.99v4.8333c0 2.6584 0.30004 5.1334 0.66676 5.5001 0.36671 0.3667 48.908 0.6626 107.87 0.6575l107.2-0.01zm49.989 4.6211c2.0867-1.3223 0.41405-3.543-10.817-14.362-11.883-11.447-9.698-10.744-16.775-5.3998-3.1686 2.3926-8.6862 5.5131-12.261 6.9345l-6.5 2.5843-0.2999 5.5655-0.29991 5.5655 22.8-0.015c12.54-0.01 23.409-0.4012 24.153-0.8728zm5.4131-28.929 0.23367-23.184-11.183 9.7e-4 -1.2697 4.25c-1.7294 5.7889-4.2478 10.55-8.5879 16.236l-3.6541 4.7872 11.314 11.347c13.761 13.8 12.863 14.717 13.147-13.436zm-639.71 13.567c5.807-5.6375 10.972-10.396 11.478-10.575s-0.82728-2.6539-2.9629-5.5c-4.3859-5.845-10.068-16.596-10.068-19.048 0-1.321-1.1262-1.6263-6-1.6263h-6l0.01365 21.25c0.01958 30.477-0.85594 29.475 13.539 15.5zm297.46-5.7561 15.989-8.006 15.25 7.756 15.25 7.7561h245l7.7289-3.8587c12.014-5.9981 21.759-16.56 27.348-29.641 1.8849-4.4114 1.9277-12.397 2.1754-405.75l0.25261-401.25h-22.652l-1.0825 5.75c-12.166 64.625-108.41 66.673-120.44 2.5626-0.59983-3.1969-1.2428-6.3751-1.4289-7.0626-0.26949-0.99559-49.193-1.25-240.37-1.25h-240.04l0.50981 802.65 4.1902 8.4561c4.7753 9.6369 11.27 16.973 19.929 22.513 12.166 7.7825 2.5411 7.2664 136.64 7.3266l119.76 0.0538zm117.85-31.375c-7.996-3.9855-4.8208-16.619 4.1769-16.619 3.9546 0 3.961-7e-3 3.961-4 0-2.8889 0.41667-4 1.5-4 1.254 0 1.5 2.0674 1.5 12.607 0 10.573-0.23278 12.518-1.4427 12.053-0.79349-0.30449-2.7681-0.1735-4.388 0.29108-1.8998 0.54486-3.7837 0.42679-5.3073-0.33264zm7.9357-8.3688 0.29771-6.25h-3.4253c-5.6617 0-8.5966 8.387-4.0884 11.683 4.442 3.248 6.8902 1.4046 7.216-5.4334zm-397.8-2.6298v-11.62h5.977c7.5684 0 10.559 3.0074 7.5523 7.5958-1.6302 2.4879-1.6142 2.6564 0.385 4.0567 5.5922 3.9169 0.99811 10.509-7.7655 11.143l-6.1487 0.44476zm11.655 7.2514c3.2162-2.6692 0.02016-6.8716-5.2261-6.8716-3.3085 0-3.4286 0.13426-3.4286 3.8333 0 5.4094 4.0743 6.8397 8.6547 3.0383zm-3.3562-9.795c5.1354-1.9525 3.4193-7.0766-2.37-7.0766-2.75 0-2.9286 0.2439-2.9286 4 0 4.2872 0.8366 4.773 5.2985 3.0766zm12.883 12.705c-3.2973-3.2973 0.43857-8.7814 5.9821-8.7814 3.2985 0 4.4593-1.5446 2.7284-3.6303-0.86299-1.0398-2.5209-1.4244-5.0861-1.1798-2.6095 0.24886-3.8058-0.0383-3.8058-0.91348 0-8.1512 12.449 0.42457 12.615 8.6901l0.13417 6.6824-5.6932 0.15691c-3.2529 0.0897-6.1996-0.34947-6.8745-1.0244zm8.2368-1.3884c2.6882-1.0316 2.0118-5.393-0.83642-5.393-3.6458 0-5.5818 1.0198-5.5818 2.9403 0 2.955 2.5598 3.9333 6.4182 2.4527zm11.782 1.407c-0.66-0.66-1.2-3.81-1.2-7 0-4.4889-0.33908-5.8-1.5-5.8-0.825 0-1.5-0.675-1.5-1.5s0.675-1.5 1.5-1.5c0.93333 0 1.5-0.94444 1.5-2.5s0.56667-2.5 1.5-2.5c0.92189 0 1.5 0.93672 1.5 2.4304 0 1.7297 0.62611 2.5226 2.1717 2.75 3.5236 0.51847 3.4515 2.8196-0.0883 2.8196-2.846 0-3.0833 0.26438-3.0833 3.4349 0 5.0878 1.6139 8.5651 3.9752 8.5651 1.1136 0 2.0248 0.45 2.0248 1 0 1.4066-5.3507 1.2493-6.8-0.2zm13 0c-0.66-0.66-1.2-3.81-1.2-7 0-4.4889-0.33908-5.8-1.5-5.8-0.825 0-1.5-0.675-1.5-1.5s0.675-1.5 1.5-1.5c0.93333 0 1.5-0.94444 1.5-2.5s0.56667-2.5 1.5-2.5c0.92189 0 1.5 0.93672 1.5 2.4304 0 1.7591 0.62149 2.5187 2.25 2.75 2.9794 0.42314 2.4851 2.2354-0.71891 2.636-4.4977 0.56228-3.063 12.184 1.5041 12.184 1.0806 0 1.9648 0.45 1.9648 1 0 1.4066-5.3507 1.2493-6.8-0.2zm10.144-11.342c-0.0202-10.933 0.18083-12.503 1.5665-12.236 0.87435 0.16838 1.5447 0.86249 1.4897 1.5425-0.055 0.67996-0.1675 6.1863-0.25 12.236-0.11392 8.3539-0.4667 11-1.4666 11-1.0175 0-1.3218-2.8488-1.3397-12.542zm9.6331 10.018c-5.7629-6.1343-0.32177-16.855 7.5516-14.879 7.0896 1.7794 6.6869 8.787-0.52838 9.1937-7.6668 0.4322-7.7802 0.52057-4.6643 3.6364 2.2141 2.2142 3.4785 2.6972 6.2216 2.3769 2.3633-0.2759 3.4427 5e-3 3.4427 0.89728 0 2.5808-9.3419 1.6286-12.023-1.2255zm9.3213-8.1068c0.34732-0.34732 0.18148-1.4723-0.36852-2.5-1.7404-3.252-7.9296-1.8226-7.9296 1.8315 0 1.34 7.0581 1.9086 8.2982 0.66852zm16.702-0.86852v-11.5h5.845c11.953 0 12.839 11.526 1.0399 13.519-3.827 0.64658-3.8849 0.72209-3.8849 5.0685 0 3.2552-0.39332 4.4121-1.5 4.4121-1.2464 0-1.5-1.9444-1.5-11.5zm10.8-1.7c3.2789-3.2789 0.24502-7.8-5.2343-7.8-2.3742 0-2.5657 0.33592-2.5657 4.5 0 4.7465 4.4646 6.6354 7.8 3.3zm8.2 1.7c0-6.325-0.0238-11.838-0.0528-12.25-0.0291-0.4125 0.64595-0.8955 1.5-1.0733 1.3386-0.27872 1.5528 1.4115 1.5528 12.25-2e-5 10.51-0.24622 12.573-1.5 12.573-1.2464 0-1.5-1.9444-1.5-11.5zm9.1814 10.281c-3.2973-3.2973 0.43857-8.7814 5.9821-8.7814 3.2985 0 4.4593-1.5446 2.7284-3.6303-0.86299-1.0398-2.5209-1.4244-5.0861-1.1798-2.6095 0.24886-3.8058-0.0383-3.8058-0.91348 0-7.9541 11.767 0.0808 12.161 8.304l0.33932 7.0804-5.5686 0.15096c-3.1501 0.0854-6.0817-0.36213-6.75-1.0304zm8.2368-1.3884c2.6882-1.0316 2.0118-5.393-0.83642-5.393-3.6458 0-5.5818 1.0198-5.5818 2.9403 0 2.955 2.5598 3.9333 6.4182 2.4527zm9.557 1.857c-0.0136-0.4125-0.13397-4.1442-0.2674-8.2927l-0.24259-7.5427 5.9654-0.16534c7.9447-0.22021 8.5694 0.46302 8.5694 9.3732 0 6.1475-0.2713 7.3776-1.6272 7.3776-1.3563 0-1.5449-0.85714-1.1325-5.1487 0.79299-8.2528-1.0412-11.001-6.2403-9.3513-1.7466 0.55436-2 1.513-2 7.5674 0 5.666-2.8493 11.49-3.0248 6.1826zm18.566-0.5c0.2786-0.7283 2.2479-1.25 4.7186-1.25 5.5269 0 5.6314-2.1455 0.24045-4.9374-4.2472-2.1996-5.6432-5.4802-3.4543-8.1176 1.3688-1.6494 10.463-2.0774 9.4543-0.44496-0.33992 0.55-2.1665 1-4.059 1-4.7738 0-4.611 2.8727 0.31172 5.5 3.9943 2.1318 5.3295 5.4911 3.2016 8.055-1.5521 1.8701-11.123 2.0493-10.413 0.19496zm25.088-6c-2.9063-7.9852-3.2291-10.117-1.4416-9.5208 0.65312 0.2177 2.0538 2.9946 3.1125 6.1708 2.1576 6.4727 2.7254 6.3461 5.1574-1.15 2.2521-6.9416 3.8389-6.6213 6.6503 1.3423l2.3273 6.5923 2.097-6.2805c1.1533-3.4542 2.6305-6.4583 3.2825-6.6756 1.8365-0.61217 1.4165 2.0004-1.3145 8.1756-1.375 3.1091-2.5 6.3151-2.5 7.1244 0 3.8337-3.0198 0.91394-5.1246-4.9549-2.7106-7.5582-2.9633-7.5403-5.361 0.37859-2.3771 7.8512-3.6725 7.625-6.8853-1.2022zm27.704 4.674c-6.7827-6.7827 2.4988-19.277 9.9602-13.408 2.5031 1.9689 4.0523 8.1964 1.9567 7.8655-3.1257-0.49353-11.25 0.31414-11.25 1.1184 0 2.4456 4.1172 5 8.059 5 2.4514 0 3.8142 0.39607 3.441 1-1.3443 2.1752-9.468 1.1229-12.167-1.576zm9.4865-9.674c-0.4218-2.97-5.6083-3.7594-7.5202-1.1447-2.0885 2.8562-1.5698 3.3947 3.2702 3.3947 4.1668 0 4.5414-0.19831 4.25-2.25zm8.1804 6.875c0-2.9562-0.28125-6.7812-0.625-8.5-0.49487-2.4744-0.28667-3.125 1-3.125 0.89375 0 1.625 0.54 1.625 1.2 0 0.93333 0.26667 0.93333 1.2 0 1.5693-1.5693 7.0978-1.5934 6.5762-0.0287-0.21474 0.64423-1.4444 1.249-2.7326 1.3439-3.4348 0.25308-5.0436 3.1801-5.0436 9.176 0 2.9199-0.45 5.3089-1 5.3089s-1-2.4188-1-5.375zm14.174 3.0606c-5.9225-6.3042 0.55155-17.641 8.3754-14.667 3.7465 1.4244 6.2125 9.444 2.7281 8.872-3.9654-0.651-10.278 0.30247-10.278 1.5524 0 2.1778 4.0316 4.5567 7.7225 4.5567 1.8026 0 3.2775 0.45 3.2775 1 0 2.1698-9.5496 1.1083-11.826-1.3144zm9.8257-8.9856c0-1.9475-2.1314-3.7-4.5-3.7s-4.5 1.7525-4.5 3.7c0 0.87407 1.4744 1.3 4.5 1.3s4.5-0.42593 4.5-1.3zm15 2.8c0-6.8889 0.28431-8.5 1.5-8.5 0.825 0 1.5 0.54 1.5 1.2 0 0.93333 0.26667 0.93333 1.2 0 1.8419-1.8419 6.8799-1.5717 6.1502 0.3298-0.35527 0.92581-1.2883 1.3072-2.3632 0.96606-3.1683-1.0056-4.987 2.1217-4.987 8.5756 0 4.6032-0.33534 5.9286-1.5 5.9286-1.2157 0-1.5-1.6111-1.5-8.5zm15.825 7.4619c-7.5013-4.3768-1.6662-18.466 6.7708-16.348 7.0726 1.7751 6.0452 8.978-1.323 9.2761-6.9416 0.28084-6.8052 0.16395-4.1424 3.5492 1.8163 2.3091 2.7694 2.6856 6.014 2.3762 2.6524-0.25295 3.8556 0.0306 3.8556 0.90873 0 1.5407-8.6275 1.7247-11.175 0.23831zm8.175-10.927c0-3.4576-5.2283-4.6394-7.2347-1.6352-1.6759 2.5094-0.69597 3.6001 3.2347 3.6001 3.3095 0 4-0.3392 4-1.9648zm10.296 8.7148c-0.5717-1.7875-1.9906-5.6125-3.1532-8.5-1.8003-4.4715-1.8859-5.25-0.57728-5.25 0.84596 0 2.2008 1.6852 3.0147 3.75 0.81304 2.0625 2.0479 5.0404 2.744 6.6177l1.2658 2.8677 1.9549-6.2328c1.7385-5.5428 3.6509-8.1399 5.0002-6.7906 0.81359 0.81359-6.8436 16.788-8.0472 16.788-0.63937 0-1.6303-1.4625-2.202-3.25zm16.158 0.79545c-4.7774-4.7774-2.0329-13.513 4.7451-15.104 2.0821-0.48853 3.283-0.0501 5.25 1.9169 2.3094 2.3094 3.6261 7.8111 1.8003 7.5228-3.1257-0.49353-11.25 0.31414-11.25 1.1184 0 2.4456 4.1172 5 8.059 5 2.4514 0 3.8142 0.39607 3.441 1-1.307 2.1148-9.4607 1.1302-12.045-1.4546zm9.5454-8.4637c0-4.2437-5.98-5.8561-7.9648-2.1475-1.5608 2.9163-1.3919 3.0657 3.4648 3.0657 2.475 0 4.5-0.4132 4.5-0.91821zm8.25 10.245c-4.4418-1.7538 0.46417-9.3269 6.0421-9.3269 5.1847 0 3.307-4.4205-2.0421-4.8075-5.8697-0.42468-5.3637-2.1925 0.62756-2.1925 6.1729 0 6.8678 0.91405 7.2831 9.5804l0.33932 7.0804-5.5 0.0798c-3.025 0.0439-6.0625-0.14228-6.75-0.41374zm8.5664-4.5769c0.27037-2.3497-0.0467-2.75-2.1786-2.75-3.0457 0-5.764 2.5076-4.9677 4.5828 1.0942 2.8515 6.7749 1.3946 7.1463-1.8328zm8.6408-7.2583c-0.0347-10.196 0.21828-12.505 1.3447-12.275 2.0504 0.41883 2.1541 24.159 0.10725 24.559-1.1503 0.2246-1.4171-2.0323-1.452-12.283zm9.7171 10.194c-4.9597-5.2794-1.5502-15.086 5.2451-15.086 4.2926 0 6.5775 1.9789 6.8681 5.9484 0.2283 3.1183 0.1993 3.1325-6.7875 3.3266-3.2457 0.0902-4.5 0.53668-4.5 1.602 0 2.3149 4.6219 4.8055 7.9981 4.31 2.0489-0.30072 3.0019-0.0194 3.0019 0.88622 0 2.4752-9.3024 1.6983-11.826-0.98764zm9.1238-8.317c0.34732-0.34732 0.18148-1.4723-0.36852-2.5-1.7404-3.252-7.9296-1.8226-7.9296 1.8315 0 1.34 7.0581 1.9086 8.2982 0.66852zm27.871 8.4704c0.18217-1.2864 1.0062-2.339 1.8312-2.339 2.1687 0 1.87 3.9014-0.33121 4.3253-1.4201 0.27348-1.7568-0.17249-1.5-1.9863zm-58.169-33.375c0-0.3716 1.125-1.5606 2.5-2.6421 3.0542-2.4024 3.151-5.1546 0.40388-11.488-3.9954-9.2119-4.0224-9.3329-2.0862-9.3329 1.25 0 2.3161 1.6119 3.6377 5.5 2.3127 6.8039 3.0109 6.8614 4.6708 0.38473 1.1564-4.5121 3.0863-7.0056 4.4029-5.689 0.43839 0.43839-5.4204 15.984-7.8407 20.804-1.1133 2.2173-5.6884 4.1986-5.6884 2.4635zm-345.78-8.0202c-1.8728-1.3117-2.2225-2.492-2.2225-7.5 0-4.6163-0.33492-5.9433-1.5-5.9433-0.825 0-1.5-0.45-1.5-1s0.675-1 1.5-1c0.93333 0 1.5-0.94444 1.5-2.5s0.56667-2.5 1.5-2.5 1.5 0.94444 1.5 2.5c0 2 0.5 2.5 2.5 2.5 1.375 0 2.5 0.45 2.5 1s-1.1475 1-2.5499 1c-3.6983 0-3.4118 11.292 0.2999 11.82 2.6503 0.37641 3.0669 3.1804 0.47251 3.1804-0.97763 0-2.7776-0.70052-4-1.5567zm30.527 0.51778c-4.5764-2.7732-0.22256-9.9611 6.0337-9.9611 2.407 0 3.2188-0.83012 2.5404-2.5978-0.35074-0.914-2.0967-1.4022-5.0144-1.4022-5.5036 0-5.5242-2.3415-0.0247-2.8078 6.3834-0.54129 7.5122 0.7857 7.8858 9.2711 0.30571 6.943 0.18623 7.4718-1.6707 7.3946-1.1-0.0457-3.35 0.19742-5 0.54027-1.65 0.34286-3.7875 0.14617-4.75-0.43708zm9.0701-4.7156c0.19634-1.3827-0.31169-2.4969-1.3138-2.8815-2.5094-0.96296-6.5064 1.2945-6.5064 3.6749 0 3.2017 7.3588 2.4551 7.8201-0.7934zm10.93 4.6948c-1.3558-0.80549-1.75-2.3873-1.75-7.0214 0-4.3946-0.398-6.1344-1.5-6.5573-0.825-0.31659-1.5-0.97746-1.5-1.4686 0-0.49115 0.675-0.89301 1.5-0.89301 0.93333 0 1.5-0.94444 1.5-2.5s0.56667-2.5 1.5-2.5 1.5 0.94444 1.5 2.5c0 2 0.5 2.5 2.5 2.5 3.3907 0 3.1859 1.7882-0.25 2.1836-5.0979 0.58658-4.1896 11.816 0.95578 11.816 2.5003 0 1.8088 2.4162-0.78411 2.74-1.0569 0.13201-2.7092-0.22785-3.6717-0.79969zm29.173-1.8634c-5.9954-5.9954-2.2858-15.077 6.1587-15.077 8.1547 0 9.4763 9.0935 1.4182 9.7582-7.7794 0.6417-6.8466 3.9093 1.2675 4.4403 4.3926 0.28743 4.5258 0.3834 2.8489 2.0515-2.8201 2.8053-8.2607 2.2595-11.693-1.1731zm8.8507-9.2555c-1.0925-3.2774-6.7738-3.5734-6.7738-0.35282 0 1.0903 1.0322 1.5314 3.5833 1.5314 2.3064 0 3.4433-0.41999 3.1905-1.1786zm7.9762 11.136c-4.1085-2.4818-0.99835-8.358 5.0656-9.5708 3.5068-0.70137 3.9298-1.5234 1.7253-3.3529-0.9085-0.75398-2.6414-0.9512-4.5925-0.52266-2.6948 0.59187-3.0843 0.42924-2.7823-1.1616 0.26335-1.3872 1.4022-1.9262 4.5543-2.1554 7.0203-0.51048 8.071 0.64775 8.4503 9.3152l0.32926 7.524-3-0.0673c-1.65-0.037-4.125 0.18374-5.5 0.49061-1.375 0.30686-3.2875 0.0822-4.25-0.49918zm8.0696-4.7077c0.25858-1.8207-0.15945-2.25-2.191-2.25-2.8488 0-4.0796 1.3822-3.2216 3.618 0.9041 2.356 5.0319 1.3128 5.4126-1.368zm10.444 3.5c-5.5061-5.9421-1.6022-15.75 6.269-15.75 3.579 0 3.6196-0.0462 3.2954-3.75-0.28414-3.2466-0.0262-3.7929 1.9218-4.0696 2.2319-0.31698 2.25-0.21742 2.25 12.367v12.686l-2.5239-0.48246c-1.3881-0.26536-2.7647-0.0928-3.059 0.38342-1.0533 1.7043-6.0827 0.85053-8.1534-1.3841zm9.534-7.1291c-0.25401-4.3682-0.61427-5.166-2.4512-5.4278-4.4352-0.63209-6.867 6.2865-3.4208 9.7327 3.5977 3.5977 6.2198 1.6754 5.872-4.3049zm11.531 6.9853c-5.8462-5.0286-2.1152-15.606 5.5048-15.606 8.6073 0 10.154 9.0583 1.6667 9.7583-7.808 0.6439-6.8559 4.2417 1.1224 4.2417 3.0751 0 4.3776 0.41447 4.3776 1.393 0 3.4267-8.7641 3.5741-12.672 0.21312zm8.6715-10.138c0-3.2206-5.6813-2.9246-6.7738 0.35282-0.25286 0.75857 0.8841 1.1786 3.1905 1.1786 2.5512 0 3.5833-0.44111 3.5833-1.5314zm29.446 11.251c-1.0469-2.7282 7e-3 -16.044 1.304-16.473 0.93457-0.30903 1.25 1.7378 1.25 8.111 0 7.81-1.2258 11.823-2.554 8.3622zm72.054 0.15117c-7.6659-4.2915-5.0901-16.871 3.4546-16.871 3.702 0 7.0454 3.0846 7.0454 6.5 0 2.3889-0.26667 2.5-6 2.5-4.3594 0-6 0.36778-6 1.345 0 2.5048 3.8794 4.9836 7.5816 4.8444 2.4067-0.0905 3.4361 0.26346 3.1652 1.0883-0.53032 1.6149-6.7133 2.0116-9.2468 0.5933zm7.5-11.171c0-3.6982-6.1955-5.0717-7.9648-1.7657-1.5608 2.9163-1.3919 3.0657 3.4648 3.0657 3.0256 0 4.5-0.42593 4.5-1.3zm8.25 10.073c-5.4209-5.7861-1.1386-16.445 6.2598-15.582 3.3169 0.38723 3.4022 0.3048 3.6927-3.5696 0.72788-9.706 2.6847-4.6103 2.9893 7.7846 0.29462 11.986 0.22067 12.531-1.6919 12.475-1.1-0.0322-3.575 0.24552-5.5 0.61717-2.9093 0.56168-3.8798 0.2704-5.75-1.7258zm10.262-2.0227c1.2344-3.4376-1.0275-11.25-3.3531-11.58-4.885-0.69456-8.5911 7.9979-4.9586 11.63 1.5822 1.5822 7.7388 1.5452 8.3116-0.05zm16.216 2.5014c-3.454-3.8166-0.87163-7.8669 5.6952-8.9325 5.6466-0.91632 4.4564-3.7295-1.7458-4.1262-6.0276-0.38562-5.8445-2.5593 0.25312-3.0051 6.4763-0.47346 8.0701 1.4928 8.0701 9.9563 0 6.4263-0.13417 6.8326-2.25 6.8133-1.2375-0.0113-3.6101 0.25484-5.2725 0.59131-2.245 0.45442-3.4669 0.12077-4.75-1.2971zm9.0889-4.5014c0.36294-3.1543-2.8935-3.8766-6.2878-1.3946-2.9165 2.1326-1.2668 4.8422 2.7145 4.4585 2.7154-0.26169 3.3095-0.77103 3.5733-3.0639zm11.434 4.716c-1.9038-1.3364-2.25-2.494-2.25-7.5228 0-4.6163-0.33492-5.9433-1.5-5.9433-0.825 0-1.5-0.45-1.5-1s0.675-1 1.5-1c0.93333 0 1.5-0.94444 1.5-2.5s0.56667-2.5 1.5-2.5 1.5 0.94444 1.5 2.5c0 2 0.5 2.5 2.5 2.5 1.375 0 2.5 0.45 2.5 1s-1.1475 1-2.5499 1c-3.7456 0-3.4042 11.294 0.35753 11.827 1.2692 0.17991 2.1319 0.85491 1.9171 1.5-0.60508 1.8174-2.9972 1.8781-5.4748 0.13895zm12.827-1.0549c-3.4803-2.9285-4.0162-6.6938-1.6137-11.34 3.382-6.5401 13.537-4.7184 13.537 2.4285 0 2.3889-0.26667 2.5-6 2.5-4.3594 0-6 0.36778-6 1.345 0 2.5337 3.5675 4.655 7.8287 4.655 4.1854 0 5.5469 1.2582 2.5895 2.393-3.3549 1.2874-7.3708 0.51775-10.341-1.9819zm8.9233-9.7111c0-3.515-4.2178-4.7178-7.1713-2.045-2.8338 2.5645-2.2105 3.345 2.6713 3.345 3.0256 0 4.5-0.42593 4.5-1.3zm40.438 10.232c-2.8538-3.1534-0.316-7.1147 5.3694-8.381 6.0118-1.339 5.3746-3.9414-1.0665-4.3554-7.1327-0.45855-5.6889-3.1952 1.6858-3.1952 4.9837 0 6.5732 2.4834 6.5732 10.27 0 6.2046-1.0569 9.0653-2.4916 6.7439-0.42333-0.68497-1.244-0.69031-2.5034-0.0163-2.9146 1.5599-5.5233 1.1925-7.5669-1.0656zm9.3783-4.1817c0.33011-2.869-0.42775-3.2292-4.4972-2.1378-4.7473 1.2732-3.8799 5.6702 1.0247 5.1942 2.6076-0.25311 3.2112-0.78436 3.4726-3.0564zm23.434 4.716c-1.9038-1.3364-2.25-2.494-2.25-7.5228 0-4.6163-0.33492-5.9433-1.5-5.9433-0.825 0-1.5-0.45-1.5-1s0.675-1 1.5-1c0.93333 0 1.5-0.94444 1.5-2.5s0.56667-2.5 1.5-2.5 1.5 0.94444 1.5 2.5c0 2 0.5 2.5 2.5 2.5 1.375 0 2.5 0.45 2.5 1s-1.1475 1-2.5499 1c-3.7456 0-3.4042 11.294 0.35753 11.827 1.2692 0.17991 2.1319 0.85491 1.9171 1.5-0.60508 1.8174-2.9972 1.8781-5.4748 0.13895zm11.673-1.3891c-3.267-3.267-3.7151-6.6446-1.4601-11.005 3.382-6.5401 13.537-4.7184 13.537 2.4285 0 2.3889-0.26667 2.5-6 2.5-4.3594 0-6 0.36778-6 1.345 0 2.5337 3.5675 4.655 7.8287 4.655 4.1854 0 5.5469 1.2582 2.5895 2.393-3.7075 1.4227-7.6197 0.55934-10.495-2.3161zm9.0769-9.3769c0-3.515-4.2178-4.7178-7.1713-2.045-2.8338 2.5645-2.2105 3.345 2.6713 3.345 3.0256 0 4.5-0.42593 4.5-1.3zm31 11.606-2.5-0.39476 8e-3 -12.205c7e-3 -10.077 0.26494-12.205 1.4804-12.205 1.1148 0 1.3973 1.0377 1.1636 4.2743l-0.30862 4.2743 4.1205-0.6589c9.5518-1.5274 13.078 11.799 4.3517 16.447-2.167 1.1541-3.5002 1.2293-8.3157 0.46891zm8-3.3056c4.8853-4.8853 0.42092-13.88-5.541-11.163-2.0758 0.9458-2.459 1.8139-2.459 5.5704 0 6.9246 3.9246 9.6683 8 5.5929zm11.943 1.4392c-3.4331-3.6543-3.1978-9.963 0.48987-13.135 5.7508-4.9466 13.567-1.1937 13.567 6.514 0 8.019-8.8346 12.18-14.057 6.621zm9.5005-1.6617c3.529-5.0383 0.33723-12.692-4.7594-11.413-4.162 1.0446-5.3118 8.1036-1.936 11.886 2.131 2.3874 4.8254 2.1973 6.6954-0.47251zm11.113 2c-0.93154-1.33-1.5567-4.3419-1.5567-7.5 0-4.0244-0.35615-5.2775-1.5-5.2775-0.825 0-1.5-0.45-1.5-1s0.675-1 1.5-1c0.93333 0 1.5-0.94444 1.5-2.5s0.56667-2.5 1.5-2.5 1.5 0.94444 1.5 2.5c0 2 0.5 2.5 2.5 2.5 1.375 0 2.5 0.45 2.5 1s-1.1475 1-2.5499 1c-3.6983 0-3.4118 11.292 0.2999 11.82 3.0801 0.43744 2.9134 3.1804-0.1933 3.1804-1.3912 0-3.1136-0.95701-4-2.2225zm-486.56-10.277v-12.25c0-3.2689 2.5974 0.17037 3 3.9722 0.41252 3.8961 0.76243 4.5548 2 3.7653 2.6858-1.7134 6.7996-1.1117 8.4433 1.235 2.3403 3.3413 2.1852 14.777-0.20051 14.777-1.4703 0-1.6985-0.73851-1.3974-4.5233 0.62021-7.7981-0.30018-9.6442-4.629-9.285l-3.7163 0.30836-0.29569 6.75c-0.56178 12.824-3.2043 8.907-3.2043-4.75zm58.068-1-0.0911-12.5h5.0228v25h-4.8406zm83.758 4.4855c-0.32569-8.0033 1.7309-11.938 4.1737-7.9857 0.53603 0.86732 0.94539 0.89787 1.4342 0.10701 1.2461-2.0162 5.566-1.323 5.566 0.89324 0 1.459-0.66667 2-2.4648 2-3.3855 0-4.8859 3.1755-4.0703 8.6144 0.62694 4.1808 0.54158 4.3856-1.8275 4.3856-2.413 0-2.4946-0.23265-2.8113-8.0145zm30-0.0841c-0.31834-7.9046 0.32787-10.147 2.3431-8.1321 0.66 0.66 1.9537 0.63314 3.8424-0.0798 2.0918-0.78957 3.5446-0.75707 5.475 0.12247 1.8198 0.82913 3.2048 0.88836 4.5048 0.19263 5.9333-3.1754 9.0086-0.0803 9.0086 9.0668 0 9.8902-2.7721 10.045-3.2043 0.17857l-0.29569-6.75h-7l-0.29569 6.75c-0.21898 4.9988-0.66114 6.75-1.7043 6.75s-1.4853-1.7512-1.7043-6.75l-0.29569-6.75h-7l-0.29569 6.75c-0.45298 10.341-2.9475 9.3447-3.3782-1.3486zm29.769 0.0853c0.0953-8.001 0.81597-10.557 2.2996-8.1566 0.63093 1.0208 1.3256 1.0265 3.5161 0.0284 2.1282-0.96968 3.4214-0.98277 5.8676-0.0594 2.0744 0.78301 3.4739 0.84829 4.1295 0.19263 4.4207-4.4207 9.5917 0.82533 9.5917 9.7308 0 9.359-2.7917 8.9473-3.2043-0.47251l-0.29569-6.75h-7l-0.29569 6.75c-0.21898 4.9988-0.66114 6.75-1.7043 6.75s-1.4853-1.7512-1.7043-6.75l-0.29569-6.75h-7l-0.29569 6.75c-0.48009 10.959-3.7409 9.818-3.6089-1.2633zm68.614-0.15624c0.41983-11.809 2.7904-12.16 2.7904-0.41376 0 7.0631-0.27283 8.5833-1.5404 8.5833-1.2852 0-1.4923-1.3534-1.25-8.1695zm57.422-4.0814c0.18831-17.561 2.6235-17.56 2.7679 9.7e-4 0.0844 10.267-0.14202 12.25-1.3992 12.249-1.2588-8.1e-4 -1.4789-1.9706-1.3686-12.25zm53.125 5.6943c0.48802-6.0797 0.37054-6.5974-1.6152-7.1166-2.6901-0.70346-2.7565-1.9326-0.14146-2.6165 1.3103-0.34264 2-1.364 2-2.9616 0-1.3412 0.86652-3.2228 1.9256-4.1813 1.9843-1.7957 5.3919-1.8425 4.9068-0.0673-0.15029 0.55-0.85241 0.86701-1.5602 0.70446-1.421-0.32633-3.6193 4.4248-2.7203 5.8795 0.3114 0.50384 1.4396 0.91608 2.5072 0.91608 2.6966 0 2.443 1.7896-0.30902 2.1804-2.0796 0.29535-2.25 0.83083-2.25 7.0713 0 5.5832-0.28296 6.7515-1.6348 6.75-1.4003-2e-3 -1.5593-0.94245-1.1085-6.5584zm41.743-1.3634c0-7.9917 0.85656-10.739 2.5127-8.0593 0.71995 1.1649 1.1568 1.2099 2.1456 0.22104 1.7583-1.7583 5.8416-1.5777 5.8416 0.25836 0 0.99604-0.99609 1.5-2.9648 1.5-3.8094 0-5.0502 2.3178-4.7576 8.8877 0.17741 3.9842-0.10394 5.1114-1.2749 5.1079-1.2098-4e-3 -1.5026-1.546-1.5026-7.9157zm74.5-4.6632c0-13.01 1.8844-17.48 3-7.1169 0.41203 3.8275 0.76392 4.4763 2 3.6878 2.6858-1.7134 6.7996-1.1117 8.4433 1.235 2.3403 3.3413 2.1852 14.777-0.20051 14.777-1.4703 0-1.6985-0.73851-1.3974-4.5233 0.62021-7.7981-0.30018-9.6442-4.629-9.285l-3.7163 0.30836-0.29569 6.75c-0.59066 13.484-3.2043 8.7255-3.2043-5.8333zm-332.81-9.1667c0.18536-0.9625 0.99969-1.75 1.8096-1.75s1.6243 0.7875 1.8096 1.75c0.23646 1.2278-0.30348 1.75-1.8096 1.75s-2.0461-0.52215-1.8096-1.75zm106 0c0.18536-0.9625 0.99969-1.75 1.8096-1.75s1.6243 0.7875 1.8096 1.75c0.23646 1.2278-0.30348 1.75-1.8096 1.75s-2.0461-0.52215-1.8096-1.75zm-57.19-12.25c-2.3647-2.3647-2.5382-4.3189-0.55941-6.2977 0.79233-0.79232 1.2031-2.3487 0.91289-3.4586-0.29025-1.1099-0.0652-2.3038 0.50007-2.6532 0.66354-0.41009 0.44751-1.6463-0.6096-3.4882-2.6858-4.6797 0.17796-8.1024 6.7791-8.1024 2.7373 0 4.977-0.45 4.977-1s0.9-1 2-1c2.4976 0 2.6293 1.6022 0.18425 2.2416-1.4198 0.37128-1.728 1.2266-1.4133 3.9222 0.47946 4.107-1.2406 5.9023-6.469 6.7522-5.0766 0.82517-4.2526 2.49 1.5338 3.099 8.3914 0.88317 10.234 4.0691 5.2412 9.062-3.6416 3.6416-9.9155 4.0845-13.077 0.92308zm11.479-1.6214c3.1204-3.1204 1.5064-4.8786-4.4785-4.8786-4.4727 0-5.5359 0.32854-5.8189 1.798-0.82885 4.3038 6.7938 6.5842 10.297 3.0806zm-1.4133-15.5c1.756-3.2811-1.9629-6.7015-5.5228-5.0794-4.2773 1.9488-2.7292 7.2013 2.1224 7.2013 1.2847 0 2.7562-0.91823 3.4004-2.1218zm16.935 16.926c0-0.73165 1.0125-1.7745 2.25-2.3174 3.3326-1.4621 3.2835-5.399-0.1698-13.618-1.6732-3.9822-2.8451-7.4374-2.6043-7.6782 1.3548-1.3548 3.6033 1.3848 5.1415 6.2645 1.983 6.2907 2.4455 6.1755 4.84-1.2052 1.3253-4.0848 4.5426-7.5188 4.5426-4.8485 0 0.48837-9.0076 22.956-9.2958 23.187-1.4433 1.1543-4.7042 1.3042-4.7042 0.21628zm-156-1.2575c0-0.24912 0.51616-1.5858 1.147-2.9704 0.86519-1.8989 0.86216-2.8607-0.0123-3.9144-0.89327-1.0763-0.82231-1.6766 0.30917-2.6157 3.459-2.8707 4.7591 2.1084 1.8405 7.0491-1.4836 2.5116-3.2844 3.8556-3.2844 2.4513zm56.4-5.9832c-5.4758-2.3692-6.2336-9.8837-1.4766-14.641 5.5956-5.5956 13.35-2.1201 13.35 5.9835 0 7.025-5.8265 11.273-11.873 8.6573zm7.5652-3.4981c3.715-6.9416-1.9302-15.1-6.9648-10.066-2.2607 2.2607-2.6224 7.0304-0.75945 10.014 1.6294 2.609 6.3388 2.6408 7.7243 0.0522zm114.04 3.965c-3.8551-0.89143-6.497-6.9947-4.9962-11.542 3.1796-9.6342 15.996-7.5517 15.996 2.5991 0 6.444-4.829 10.37-11 8.9431zm6.1713-3.6857c3.3621-3.0426 1.1401-12.345-2.9488-12.345-2.5671 0-5.2225 3.3672-5.2225 6.6224 0 6.7818 3.9466 9.5458 8.1713 5.7226zm66.919 3.5556c-8.5152-3.3717-5.8568-17.301 3.3019-17.301 5.0795 0 7.8801 2.9872 7.8801 8.405 0 6.4984-5.728 11.055-11.182 8.8956zm6.7093-3.1006c3.2699-3.2699 0.27498-12.8-4.0225-12.8-1.943 0-4.7775 4.2548-4.7775 7.1713 0 5.4418 5.481 8.9477 8.8 5.6287zm-354.8-9.2304c0-12.368 0.036-12.57 2.25-12.57 3.5252 2e-5 3.5145 24.316-0.0109 24.82-2.217 0.3164-2.2391 0.19539-2.2391-12.25zm11.635 10.358c-2.1087-1.6587-2.6285-2.9068-2.6031-6.25 0.0829-10.89 13.555-13.466 15.58-2.9781l0.61787 3.1993-12.73 0.6014 2.3626 2.3626c1.8695 1.8695 3.0696 2.2478 5.75 1.8129 2.8733-0.46627 3.3874-0.25569 3.3874 1.3874 0 2.8532-8.6867 2.758-12.365-0.13545zm8.3651-10.126c0-0.99099-0.1882-1.8018-0.41821-1.8018-0.23002 0-1.072-0.25088-1.8711-0.55751-1.4301-0.54878-4.7107 1.9096-4.7107 3.53 0 0.45628 1.575 0.78495 3.5 0.73038 2.6683-0.0756 3.5-0.52737 3.5-1.901zm8.25 11.504c-4.0955-1.549-0.0294-8.8852 5.25-9.4724 5.1415-0.57184 3.7905-3.2832-1.8142-3.6411-6.5442-0.41789-5.654-2.5982 1.224-2.9977 7.2509-0.42114 8.0902 0.54224 8.0902 9.2859v7.236l-5.75 0.031c-3.1625 0.0171-6.3125-0.18172-7-0.44174zm8.5696-5.0561c0.20853-1.4683-0.19733-2.25-1.1682-2.25-2.8521 0-4.6513 1.2276-4.6513 3.1734 0 2.9903 5.3851 2.1358 5.8196-0.92341zm9.7576 3.8352c-2.6895-2.9719-2.9674-8.1141-0.63963-11.835 1.9343-3.092 3.6559-3.776 8.3125-3.3023 1.4087 0.1433 1.75-0.61431 1.75-3.8848 0-3.667 0.24355-4.0629 2.5-4.0629h2.5v24.705l-6.3801 0.10872c-5.0149 0.0855-6.7359-0.28438-8.0427-1.7284zm9.9229-6.5852c0-5.3547-2.6347-7.2929-6.055-4.4543-3.4343 2.8502-0.87686 10.255 3.3723 9.7642 2.5113-0.29012 2.6827-0.62946 2.6827-5.3099zm10.418 6.6348c-5.5324-4.4799-1.5575-16.135 5.5028-16.135 3.6377 0 7.5791 3.678 7.5791 7.0726 0 2.8817-0.08586 2.9274-5.5 2.9274-5.7746 0-6.5965 0.76065-3.8209 3.5362 1.2207 1.2207 2.7376 1.5371 5.5565 1.159 3.2341-0.43379 3.825-0.24428 3.5616 1.1424-0.49911 2.6272-9.7382 2.8404-12.879 0.2972zm8.8331-9.8885c0.20366-0.61097-0.58582-1.6226-1.7544-2.248-2.3343-1.2493-4.9968 0.10739-4.9968 2.5462 0 1.6071 6.2075 1.333 6.7512-0.2982zm8.2351 5.5037c-8e-3 -3.4375-0.2682-7.1983-0.57931-8.3573-0.52866-1.9695-0.16395-2.113 5.5763-2.1944 6.8032-0.0965 8.6722 2.7393 2.5045 3.8001-2.9025 0.49924-2.9963 0.69211-3.2855 6.7577-0.44956 9.4283-4.1953 9.4228-4.2159-6e-3zm32.195 5.0314c-3.2973-3.2973 0.43857-8.7814 5.9821-8.7814 1.4952 0 3.0088-0.46971 3.3636-1.0438 1.189-1.9238-1.7133-3.9562-5.6495-3.9562-2.1327 0-3.8776-0.45-3.8776-1 0-1.4478 10.725-1.254 11.63 0.21014 0.41135 0.66557 0.84059 4.4113 0.95387 8.3239l0.20597 7.1138-5.7135 0.15747c-3.2691 0.0901-6.2189-0.34795-6.8948-1.0239zm8.2368-1.3884c2.6882-1.0316 2.0118-5.393-0.83642-5.393-3.6458 0-5.5818 1.0198-5.5818 2.9403 0 2.955 2.5598 3.9333 6.4182 2.4527zm9.5818-8.3112c0-6.005-0.27314-11.63-0.60699-12.5-0.42806-1.1155-0.0209-1.5818 1.3812-1.5818 1.8755 0 1.9911 0.70857 2.0393 12.5 0.0417 10.206-0.21176 12.5-1.3812 12.5-1.1556 0-1.4323-2.1091-1.4323-10.918zm8 0c0-6.005-0.27314-11.63-0.60699-12.5-0.41923-1.0925-0.0326-1.5817 1.25-1.5814 1.7103 3.9e-4 1.857 0.98812 1.857 12.5 0 9.3332-0.31666 12.5-1.25 12.5-0.92367-8e-5 -1.25-2.8505-1.25-10.918zm29.723 3.1682c-3.1428-8.8807-3.1979-9.25-1.3814-9.25 0.77131 0 2.114 2.5507 3.1583 6 2.2504 7.4326 2.5491 7.4292 4.8829-0.0563 2.3747-7.6163 4.0682-7.484 7.1223 0.55627 2.4445 6.4353 2.5567 6.3961 4.9542-1.7332 0.73603-2.4957 1.9502-4.4031 2.9251-4.5951 1.4833-0.29213 1.4343 0.25816-0.44545 5-1.1617 2.9306-2.5988 6.7908-3.1934 8.5783-1.5998 4.8088-3.0346 3.9994-5.7415-3.2388-2.7272-7.2925-2.9114-7.2679-5.5346 0.73878-2.4768 7.5601-3.4673 7.2665-6.7466-2zm26.1-0.75233c-0.28742-7.5547-0.12843-8.5021 1.4265-8.5 1.5292 2e-3 1.75 1.0746 1.75 8.5023 0 12.327-2.7075 12.325-3.1765-2e-3zm8 0.14596-0.32347-8.3564 6.7265-0.12176c8.1166-0.14693 8.7735 0.62192 8.7735 10.269 0 9.5217-2.7802 9.4524-3.2043-0.0799-0.53891-12.112-8.7957-12.427-8.7957-0.33531 0 10.985-2.744 9.7972-3.1765-1.3754zm85.211 6.4213c-1.7053-3.1864-1.3385-15.065 0.46527-15.065 1.1765 0 1.5 1.3753 1.5 6.3776 0 7.5185 1.4807 9.5568 5.8098 7.9976 2.5979-0.93568 2.6809-1.199 2.4183-7.672-0.23747-5.8524-0.0471-6.7026 1.5-6.6992 1.5464 3e-3 1.7835 1.0631 1.8624 8.3254l0.0904 8.3215-6.3057 0.17374c-5.3153 0.14645-6.4682-0.12992-7.3404-1.7597zm18.965-4.9831c0-3.805-0.27314-7.63-0.60699-8.5-0.39831-1.038-0.0545-1.5818 1-1.5818 0.88385 0 1.607 0.54 1.607 1.2 0 0.93333 0.26667 0.93333 1.2 0 1.6338-1.6338 7.1103-1.5918 6.5083 0.05-0.25208 0.6875-0.98281 1.1314-1.6238 0.9865-3.516-0.79492-5.0845 1.7651-5.0845 8.2987 0 5.0798-0.32135 6.4648-1.5 6.4648-1.1888 0-1.5-1.4354-1.5-6.9182zm23.035 4.984c-0.56935-1.0638-1.0352-4.2138-1.0352-7 0-3.8362-0.36407-5.0657-1.5-5.0657-0.825 0-1.5-0.675-1.5-1.5s0.675-1.5 1.5-1.5c0.93333 0 1.5-0.94444 1.5-2.5s0.56667-2.5 1.5-2.5 1.5 0.94444 1.5 2.5c0 2.0215 0.49444 2.5 2.5833 2.5 3.1886 0 2.7581 2.2112-0.58417 3.0002-1.8321 0.4325-2.3429 1.2129-2.309 3.5276 0.10076 6.8707 0.29592 7.4306 2.8098 8.0616 3.4431 0.86416 3.1449 2.4106-0.46482 2.4106-1.9078 0-3.3339-0.68962-4-1.9343zm37.965-6.5657c0-6.8889 0.28431-8.5 1.5-8.5 0.825 0 1.5 0.54 1.5 1.2 0 0.93333 0.26667 0.93333 1.2 0 1.7386-1.7386 6.8836-1.5814 6.204 0.18949-0.29326 0.76422-1.337 1.1793-2.3195 0.92235-3.2434-0.84816-5.0845 2.3237-5.0845 8.7596 0 4.6032-0.33534 5.9286-1.5 5.9286-1.2157 0-1.5-1.6111-1.5-8.5zm14.974 5.9727c-2.8513-3.035-3.1322-8.0566-0.66166-11.827 3.6156-5.5181 11.888-4.1416 12.496 2.0792 0.32974 3.373-0.40081 3.727-9.3092 4.5112l-3 0.26406 2.8235 2.8689c2.3508 2.3887 3.3971 2.7758 6.25 2.3129 2.5705-0.41713 3.4265-0.197 3.4265 0.88108 0 2.7141-9.2385 1.8766-12.026-1.0902zm9.0242-9.6875c2e-3 -2.3381-2.9875-3.7418-5.7485-2.6992-4.1954 1.5842-2.9183 5.0082 1.7485 4.6882 3.0029-0.2059 3.9989-0.70114 4-1.989zm10.037 10.281c-0.56935-1.0638-1.0352-4.2138-1.0352-7 0-3.8362-0.36407-5.0657-1.5-5.0657-0.825 0-1.5-0.675-1.5-1.5s0.6437-1.5 1.4304-1.5 1.5742-0.97725 1.75-2.1717c0.47108-3.2015 2.8196-3.5444 2.8196-0.41166 0 2.0889 0.47849 2.5833 2.5 2.5833 1.5556 0 2.5 0.56667 2.5 1.5 0 0.94152-0.95025 1.5-2.5523 1.5-3.6242 0-3.3643 9.8785 0.30226 11.487 3.1315 1.3738 2.8075 2.5129-0.71482 2.5129-1.9078 0-3.3339-0.68962-4-1.9343zm12.164 0.73298c-1.878-1.878-1.6125-15.799 0.30128-15.799 1.1765 0 1.5 1.3753 1.5 6.3776 0 7.1866 1.3761 9.2468 5.487 8.2151 2.3838-0.59829 2.513-0.9897 2.513-7.6117 0-5.5386 0.30991-6.981 1.5-6.981 1.2122 0 1.4999 1.5832 1.4996 8.25l-4.1e-4 8.25-5.8009 0.24872c-3.4951 0.14986-6.2773-0.22775-6.9996-0.95zm18.801-4.0904c0-3.0021-0.28125-6.8646-0.625-8.5833-0.49487-2.4744-0.28667-3.125 1-3.125 0.89375 0 1.625 0.54 1.625 1.2 0 0.93333 0.26667 0.93333 1.2 0 1.6309-1.6309 7.0994-1.5891 6.5404 0.05-0.23446 0.6875-1.3281 1.1209-2.4302 0.96308-3.1301-0.44816-4.7533 2.4619-4.7831 8.5747-0.0172 3.5269-0.48204 5.6972-1.277 5.9622-0.89822 0.2994-1.25-1.1195-1.25-5.0417zm12.951 5.0417c-0.0272-0.1375-0.16355-3.8844-0.303-8.3264l-0.25354-8.0764 5.9617-0.1643c7.9772-0.21986 8.6443 0.50863 8.6443 9.4396 0 6.1698-0.26837 7.3776-1.6393 7.3776-1.3814 0-1.5453-0.7937-1.0418-5.0448 0.86584-7.3107-0.46842-10.164-4.5683-9.7686l-3.2506 0.31341-0.29381 7.25c-0.23845 5.884-2.5102 10.768-3.2556 7zm27.484-2.2094c-1.9909-3.0385-1.139-7.9339 1.7303-9.9436 1.9013-1.3318 1.9197-1.5381 0.34974-3.9342-3.2615-4.9777 2.7545-9.6821 7.9926-6.25 2.8798 1.8869 3.2132 4.7238 0.83478 7.1023-1.5439 1.5439-1.458 1.8183 1.25 3.9896l2.9079 2.3317 0.31642-2.4182c0.17403-1.33 0.96153-2.4182 1.75-2.4182 1.6175 0 1.8776 2.7494 0.47064 4.9743-0.65937 1.0427-0.21574 2.4138 1.5153 4.6833 3.6313 4.7608 1.2627 6.8055-2.5003 2.1584l-1.7686-2.1841-2.7766 2.1841c-3.9681 3.1213-9.9358 2.9852-12.072-0.27529zm11.141-1.8523 2.6875-2.3117-8.5348-6.7597-1.8643 2.3023c-4.8695 6.0136 1.7921 11.861 7.7116 6.7691zm-2.0759-13.772c0-1.8889-0.52778-2.4167-2.4167-2.4167-3.0178 0-3.691 1.7494-1.5119 3.9286s3.9286 1.5059 3.9286-1.5119zm22.5 16.747c0-0.91756 1.3221-1.3093 4.2191-1.25 5.5635 0.11381 6.5042-2.6665 1.5964-4.718-7.9446-3.3208-7.5086-9.6957 0.66309-9.6957 5.4484 0 6.0654 1.7515 0.77144 2.1896-4.9017 0.40569-4.8096 2.2934 0.25 5.1255 7.0616 3.9526 5.2436 9.6849-3.0714 9.6849-3.0287 0-4.4286-0.4224-4.4286-1.3363zm16.181 0.11767c-3.2973-3.2973 0.43857-8.7814 5.9821-8.7814 1.4952 0 3.0088-0.46971 3.3636-1.0438 1.189-1.9238-1.7133-3.9562-5.6495-3.9562-2.1327 0-3.8776-0.45-3.8776-1 0-1.5037 10.98-1.2641 11.455 0.25 0.21595 0.6875 0.5861 4.4338 0.82258 8.325l0.42995 7.075-5.6726 0.15634c-3.2364 0.0892-6.18-0.35101-6.854-1.025zm8.2368-1.3884c0.86999-0.33384 1.5818-1.6838 1.5818-3 0-2.8665-6.5856-3.6364-7.6384-0.89301-1.3663 3.5604 1.7326 5.5523 6.0566 3.893zm10.852-5.5858c-1.7765-4.4992-3.0334-8.3771-2.7931-8.6174 1.2753-1.2753 3.2354 1.1803 4.9356 6.183 2.3952 7.0476 2.8086 7.0178 5.17-0.37279 1.3209-4.134 2.4302-6 3.5669-6 1.8806 0-4.7542 16.931-6.6494 16.968-0.55 0.0108-2.4535-3.6616-4.23-8.1609zm18.365 6.1202c-5.5095-4.3338-1.9698-15.927 4.8628-15.927 3.0403 0 7.5023 4.0668 7.5023 6.8379 0 2.1667-2.5177 3.1276-8.25 3.1484-2.6345 0.01-3.75 0.453-3.75 1.4906 0 2.3149 4.6219 4.8055 7.9981 4.31 2.0489-0.30072 3.0019-0.0194 3.0019 0.88622 0 2.2234-8.2812 1.68-11.365-0.74577zm8.8651-9.9008c0-2.6437-3.8723-4.1546-6.2964-2.4567-3.7881 2.6533-2.8298 4.59 2.0464 4.1356 2.5853-0.24095 4.25-0.89854 4.25-1.6788zm-372.5-10.027c0-1.5062 0.52215-2.0461 1.75-1.8096 0.9625 0.18536 1.75 0.99969 1.75 1.8096s-0.7875 1.6243-1.75 1.8096c-1.2278 0.23646-1.75-0.30348-1.75-1.8096zm57.536-13.96c-1.7141-1.894-1.5441-7.0404 0.23258-7.0402 0.83415 7e-5 0.63783-6.1947-0.32173-10.152-0.97918-4.0384 2.5805-7.1506 7.6281-6.6693 2.5154 0.23988 4.056-0.0787 4.3727-0.90411 0.59622-1.5537 4.5518-1.7109 4.5518-0.18086 0 0.60149-0.87933 1.3236-1.9541 1.6046-1.5642 0.40906-1.8375 1.094-1.3696 3.4335 0.78494 3.9247-1.9032 6.8682-6.2723 6.8682-6.4044 0-5.8005 2.9592 0.73237 3.5884 6.8381 0.65865 7.8636 1.2377 7.8636 4.44 0 6.3104-11.048 9.8911-15.464 5.0119zm11.892-1.6117c3.1494-3.1494 0.0547-5.7579-6.2126-5.2364-3.7655 0.31334-5.0699 2.1401-3.8319 5.3662 0.76254 1.9871 8.0214 1.8933 10.045-0.12984zm-3.0247-13.735c3.2164-2.3519 1.7253-6.194-2.4038-6.194-2.9512 0-3.5541 0.38324-3.845 2.444-0.30633 2.1702 1.8883 5.056 3.845 5.056 0.33976 0 1.4215-0.58771 2.4038-1.306zm-152.4 4.806c0-6.325-3e-3 -11.831-7e-3 -12.235-0.0282-2.8448 12.47-0.61211 14.33 2.5599 3.7019 6.3147-0.29581 13.63-7.4488 13.63-3.8138 0-3.8737 0.0584-3.8737 3.7727 0 2.6869-0.43173 3.7727-1.5 3.7727-1.2464 0-1.5-1.9444-1.5-11.5zm9.1136 1.4392c6.4789-3.4674 2.7876-14.63-4.1136-12.439-2.7944 0.88692-3.013 12.089-0.25 12.811 0.9625 0.25153 1.8921 0.50953 2.0657 0.57333s1.2077-0.36136 2.2979-0.9448zm36.886 9.2454c0-0.525 1.125-1.6917 2.5-2.5926 3.2921-2.1571 3.1829-4.7777-0.56611-13.588-1.6864-3.9629-2.8308-7.4406-2.5431-7.7282 1.3598-1.3598 3.2797 0.97115 5.0217 6.0969 2.4042 7.0741 2.8691 7.032 4.9487-0.44777 1.4372-5.1692 4.9033-8.6059 3.8326-3.8-0.40408 1.8136-6.0765 16.684-7.5814 19.875-1.1338 2.404-5.6122 4.1472-5.6122 2.1846zm311.25-2.934c16.912-0.15369 44.588-0.15369 61.5 0 16.912 0.1537 3.075 0.27945-30.75 0.27945s-47.662-0.12575-30.75-0.27945zm-461.92-3.9462c-8.5428-1.664-10.815-14.035-3.7218-20.262 3.8201-3.3541 11.395-4.4456 11.395-1.6419 0 0.92378-1.1494 1.4-3.3789 1.4-4.7573 0-7.2828 1.6448-8.5854 5.5916-2.2688 6.8745 1.8692 12.608 9.0991 12.608 3.9278 0 5.1585 1.2897 2.2834 2.393-1.6608 0.63731-3.4811 0.61455-7.0913-0.0887zm13.923-0.31397c-5.3285-2.1928-0.93794-9.9904 5.6252-9.9904 2.8958 0 3.7446-2.0689 1.5275-3.723-1.1741-0.876-3.1726-1.2208-5.2187-0.90047-2.3085 0.36145-3.1962 0.15527-2.9218-0.67865 0.65865-2.0018 9.1807-2.0741 10.825-0.0918 2.4247 2.9224 1.9446 15.359-0.58759 15.221-1.1-0.06-3.125 0.16061-4.5 0.49024s-3.5125 0.18266-4.75-0.3266zm8.5701-4.7448c0.19634-1.3827-0.31169-2.4969-1.3138-2.8815-2.5094-0.96296-6.5064 1.2945-6.5064 3.6749 0 3.2017 7.3588 2.4551 7.8201-0.7934zm38.68 5.0468-3-0.38754-0.0842-12.494c-0.073-10.823 0.12495-12.454 1.4797-12.193 1.18 0.22725 1.4903 1.3211 1.264 4.4557l-0.29997 4.1545 4.11-0.55127c8.5-1.1401 12.458 8.4496 6.1075 14.8-1.6077 1.6077-3.7452 2.8511-4.75 2.763-1.0048-0.088-3.1769-0.33443-4.8269-0.54758zm8.25-4.0845c3.6894-4.6934-0.34211-12.436-5.5303-10.621-2.3954 0.83793-2.7571 1.5413-3.0334 5.8993-0.44949 7.0909 4.5392 9.8416 8.5636 4.7221zm11.646 2.8916c-7.0835-4.3194-4.1414-16.1 4.0208-16.1 3.9006 0 6.5836 2.5791 6.5836 6.3287 0 2.5982-0.16409 2.6713-6 2.6713-6.4024 0-7.2012 0.79879-4 4 1.3333 1.3333 3.3333 2 6 2 4.0412 0 5.3302 1.2756 2.4182 2.393-2.8097 1.0782-5.8474 0.64272-9.0226-1.2935zm7.4239-11.35c-0.24685-1.7381-0.9743-2.25-3.1976-2.25-1.8753 0-3.3985 0.78391-4.372 2.25-1.4779 2.2259-1.4437 2.25 3.1976 2.25 4.2933 0 4.6644-0.19098 4.372-2.25zm45.93 12.208c-4.4179-2.6687-1.519-8.6341 4.685-9.6409 6.2076-1.0074 4.5198-5.7663-1.8194-5.1297-1.7136 0.17208-3.3407-0.13712-3.6157-0.68712-0.69502-1.39 7.4682-1.855 9.8825-0.56286 3.4231 1.832 3.5274 15.958 0.11746 15.92-1.375-0.0152-3.625 0.23896-5 0.56487s-3.2875 0.11687-4.25-0.46454zm7.75-2.723c1.9591-1.4394 1.0958-4.7211-1.3325-5.065-2.7643-0.39151-6.2605 2.4245-5.4931 4.4243 0.56586 1.4746 5.1099 1.9012 6.8256 0.64073zm29.884 2.3309c-7.8422-3.4133-5.5295-16.591 2.9046-16.55 4.0704 0.0194 5.3241 0.83676 6.6556 4.339 1.5043 3.9566 0.68794 4.6457-5.5036 4.6457-4.0488 0-5.441 0.36551-5.441 1.4286 0 2.6003 3.049 4.5714 7.0714 4.5714 3.9811 0 5.2394 1.283 2.3468 2.393-2.3639 0.90712-4.571 0.67982-8.0339-0.82739zm6.9138-10.197c0.34732-0.34732 0.18148-1.4723-0.36852-2.5-1.7404-3.252-7.9296-1.8226-7.9296 1.8315 0 1.34 7.0581 1.9086 8.2982 0.66852zm11.023 10.478c-7.785-3.8908-3.5517-17.676 5.1174-16.664l3.5614 0.41578v-4.2992c0-3.1548 0.39927-4.2992 1.5-4.2992 1.2533 0 1.5 2.0543 1.5 12.489 0 12.298-0.0344 12.488-2.25 12.445-1.2375-0.0243-3.375 0.1913-4.75 0.47908-1.375 0.28779-3.4805 0.0332-4.6788-0.56569zm8.4791-8.1089c0.32685-6.2722-0.65639-7.4928-5.1311-6.3697-6.6752 1.6754-5.0714 13.098 1.7456 12.433 3.0148-0.2942 3.092-0.43253 3.3854-6.0632zm19.45 7.7282c-1.9038-1.3364-2.25-2.494-2.25-7.5228 0-4.6163-0.33492-5.9433-1.5-5.9433-0.825 0-1.5-0.45-1.5-1s0.675-1 1.5-1c0.91545 0 1.5-0.93256 1.5-2.393 0-1.3162 0.675-2.652 1.5-2.9686 1.1257-0.43198 1.5 0.16509 1.5 2.393 0 2.4999 0.39476 2.9686 2.5 2.9686 1.375 0 2.5 0.45 2.5 1s-1.1475 1-2.5499 1c-3.7456 0-3.4042 11.294 0.35753 11.827 1.2692 0.17991 2.1319 0.85491 1.9171 1.5-0.60508 1.8174-2.9972 1.8781-5.4748 0.13895zm11.205-0.9206c-5.3726-5.3726-1.7304-15.545 5.5657-15.545 4.4568 0 6.6588 1.4978 7.9489 5.4066 2.9899 9.0596-7.0567 16.597-13.515 10.139zm7.6591-0.60625c5.005-2.6786 3.8109-12.939-1.5059-12.939-5.0592 0-7.4975 8.1103-3.6077 12 2.3187 2.3187 2.4804 2.3484 5.1136 0.9392zm33.742 1.5444c-7.2093-3.9165-4.481-16.508 3.5682-16.468 3.6334 0.0181 4.8779 0.72772 6.4224 3.6622 2.0263 3.8498 0.51731 5.3224-5.4537 5.3224-4.0073 0-5.393 0.36707-5.393 1.4286 0 2.6003 3.049 4.5714 7.0714 4.5714 3.9811 0 5.2394 1.283 2.3468 2.393-2.5363 0.97328-5.7188 0.63527-8.5622-0.90941zm7.4421-10.115c0.34732-0.34732 0.18148-1.4723-0.36852-2.5-1.7404-3.252-7.9296-1.8226-7.9296 1.8315 0 1.34 7.0581 1.9086 8.2982 0.66852zm10.763 9.693c-1.5822-1.5822-2.0615-3.3401-2.0615-7.5615 0-4.2222-0.34848-5.5-1.5-5.5-2.2399 0-1.8102-1.6856 0.58966-2.3132 1.5346-0.4013 1.9251-1.0649 1.4702-2.4982-0.39385-1.2409-0.0846-2.157 0.84921-2.5153 1.0318-0.39593 1.5612 0.23819 1.7798 2.1316 0.22094 1.9139 0.96334 2.7878 2.5611 3.0147 3.0879 0.43855 2.8483 2.1804-0.2999 2.1804-3.7456 0-3.4042 11.294 0.35753 11.827 1.2692 0.17991 2.1319 0.85491 1.9171 1.5-0.67162 2.0173-3.5137 1.884-5.6633-0.26562zm34.247 0.92892c-3.5832-1.4433-5.6482-5.5014-4.9664-9.7598 1.5025-9.3844 14.658-9.8405 14.658-0.50812 0 2.1169-0.42298 2.2775-6 2.2775-4.3594 0-6 0.36778-6 1.345 0 2.5812 3.5736 4.6544 8.0787 4.6868 4.1048 0.0295 4.2823 0.1369 2.4801 1.5-2.1592 1.6332-4.9496 1.7883-8.2506 0.4586zm6.6917-11.29c0-3.4795-4.724-4.8331-7.4286-2.1286-2.5673 2.5673-1.8316 3.4286 2.9286 3.4286 3.0256 0 4.5-0.42593 4.5-1.3zm66.923 10.223c-1.431-1.431-1.9228-3.3297-1.9228-7.4228 0-4.2222-0.34848-5.5-1.5-5.5-0.825 0-1.5-0.45-1.5-1s0.675-1 1.5-1c0.91545 0 1.5-0.93256 1.5-2.393 0-3.4998 2.7962-4.2032 3.1889-0.80215 0.22094 1.9139 0.96334 2.7878 2.5611 3.0147 3.0879 0.43855 2.8483 2.1804-0.2999 2.1804-3.7456 0-3.4042 11.294 0.35753 11.827 1.2692 0.17991 2.1448 0.81559 1.9458 1.4126-0.62185 1.8656-3.8221 1.6916-5.8306-0.31689zm38.827 1.0212c-4.4267-2.6395-1.5158-8.621 4.685-9.6272 6.2076-1.0074 4.5198-5.7663-1.8194-5.1297-1.7136 0.17208-3.3407-0.13712-3.6157-0.68712-0.69502-1.39 7.4682-1.855 9.8825-0.56286 3.4254 1.8332 3.5304 15.99 0.11746 15.834-1.375-0.0626-3.625 0.18543-5 0.55122s-3.2875 0.19552-4.25-0.37838zm7.52-2.4942c2.2571-0.86612 0.94686-5.4499-1.5578-5.4499-2.6677 0-5.7293 2.7919-5.0377 4.594 0.54572 1.4221 3.964 1.8658 6.5955 0.85594zm31.05 1.149c-5.948-5.1162-2.131-15.599 5.6799-15.599 7.946 0 11.186 10.141 4.9233 15.411-3.8354 3.2273-7.0043 3.2834-10.603 0.18781zm8.6799-1.5989c3.9588-3.9588 1.5916-12-3.5325-12-4.9148 0-6.6829 8.7876-2.4567 12.21 2.805 2.2713 3.5336 2.2458 5.9892-0.20982zm12.061 2.0615c-1.5822-1.5822-2.0615-3.3401-2.0615-7.5615 0-4.2222-0.34848-5.5-1.5-5.5-0.825 0-1.5-0.45-1.5-1s0.675-1 1.5-1c0.91545 0 1.5-0.93256 1.5-2.393 0-3.4998 2.7962-4.2032 3.1889-0.80215 0.22094 1.9139 0.96334 2.7878 2.5611 3.0147 3.0879 0.43855 2.8483 2.1804-0.2999 2.1804-3.7456 0-3.4042 11.294 0.35753 11.827 1.2692 0.17991 2.1319 0.85491 1.9171 1.5-0.67162 2.0173-3.5137 1.884-5.6633-0.26562zm34.439 1.0167c-8.6323-3.6347-6.587-17.078 2.5983-17.078 4.1893 0 6.9017 2.642 6.9017 6.7225 0 2.1169-0.42298 2.2775-6 2.2775-4.3594 0-6 0.36778-6 1.345 0 2.4155 3.566 4.655 7.4121 4.655 2.5559 0 3.6236 0.39909 3.3442 1.25-0.49324 1.5025-5.4694 2.0017-8.2563 0.82818zm6.5-11.378c0-3.6982-6.1955-5.0717-7.9648-1.7657-1.5608 2.9163-1.3919 3.0657 3.4648 3.0657 3.0256 0 4.5-0.42593 4.5-1.3zm-505.01 5.05c-8e-3 -3.4375-0.285-7.2625-0.61664-8.5-0.65439-2.4418 2.0535-3.3686 2.922-1 0.36666 1 0.72333 1 1.7833 0 1.6862-1.5907 7.1529-1.6221 8.725-0.05 1.9847 1.9847 1.6036 15.8-0.43592 15.8-1.3688 0-1.533-0.75094-1.0056-4.5984 1.1215-8.1824-1.4564-12.025-6.3207-9.4218-1.7278 0.92467-2.0378 2.0741-2.0378 7.5554 0 5.0798-0.32135 6.4648-1.5 6.4648-1.1719 0-1.503-1.3672-1.5136-6.25zm95.014-5.25c0-6.325-0.0238-11.838-0.0528-12.25-0.0291-0.4125 0.58321-0.88341 1.3606-1.0465 1.156-0.24249 1.4245 1.9882 1.4743 12.25 0.04954 10.206-0.20423 12.546-1.3606 12.546-1.1463 0-1.4215-2.2267-1.4215-11.5zm173-1.0833c0-13.138 1.9164-17.507 3-6.8391 0.30627 3.0152 0.81347 4.4381 1.309 3.6724 1.3965-2.1578 7.3886-1.5198 9.1343 0.97251 2.3403 3.3413 2.1852 14.777-0.20051 14.777-1.4703 0-1.6985-0.73851-1.3974-4.5233 0.66921-8.4142-1.9648-12.089-6.8076-9.4969-1.7278 0.92467-2.0378 2.0741-2.0378 7.5554 0 5.0798-0.32135 6.4648-1.5 6.4648-1.2539 0-1.5-2.0648-1.5-12.583zm38.34 4.0745c-0.12686-6.717 0.13431-8.4912 1.25-8.4912 0.7757 0 1.4104 0.46583 1.4104 1.0352 0 0.71358 0.60093 0.71358 1.9343 0 1.0638-0.56935 2.9013-1.0352 4.0833-1.0352 2.9257 0 1.9885 2.4122-1.0959 2.8207-3.566 0.47231-4.9217 2.9156-4.9217 8.8704 0 9.5675-2.4755 6.59-2.6604-3.2zm22.269 0.46675c-1.5716-4.4231-2.6063-8.2932-2.2994-8.6001 1.1907-1.1907 2.6805 0.93271 4.3334 6.1763 2.1478 6.8137 2.44 6.7967 4.878-0.28407 2.6025-7.5588 4.2526-7.3827 7.0264 0.75l2.2169 6.5 1.191-3c0.65507-1.65 1.4375-4.2274 1.7388-5.7276 0.58132-2.8947 2.8073-5.4086 3.6047-4.071 0.73694 1.2362-5.464 16.299-6.7098 16.299-0.60702 0-2.2697-3.0192-3.6948-6.7092l-2.5911-6.7092-2.2327 6.7092c-2.878 8.6485-3.9852 8.4507-7.4614-1.3328zm26.392 0.54208c0-4.125-0.0238-7.8375-0.0528-8.25s0.64595-0.8955 1.5-1.0733c1.3082-0.27238 1.5528 1.0275 1.5528 8.25 0 6.9541-0.28331 8.5733-1.5 8.5733-1.2 0-1.5-1.5-1.5-7.5zm21-4v-12.25c0-3.4461 2.5985 0.23514 3 4.25 0.30557 3.0557 0.81459 4.5139 1.309 3.75 1.3965-2.1578 7.3886-1.5198 9.1343 0.97251 2.3403 3.3413 2.1852 14.777-0.20051 14.777-1.4703 0-1.6985-0.73851-1.3974-4.5233 0.66921-8.4142-1.9648-12.089-6.8076-9.4969-1.7278 0.92467-2.0378 2.0741-2.0378 7.5554 0 5.0798-0.32135 6.4648-1.5 6.4648-1.2464 0-1.5-1.9444-1.5-11.5zm45.441 2.9999c-0.0441-6.367 0.26962-8.4999 1.25-8.4999 0.71984 0 1.3088 0.41091 1.3088 0.91314 0 0.50458 1.3262 0.41256 2.9641-0.20568 6.32-2.3855 8.4939-0.27666 8.828 8.5635 0.24508 6.4856 0.0391 7.729-1.2804 7.729-1.277 0-1.5382-1.1391-1.3905-6.0627 0.2137-7.1218-1.3849-9.5899-5.5366-8.5479-2.4707 0.62012-2.5846 0.95634-2.5846 7.6296 0 5.9819-0.25045 6.9809-1.75 6.9809-1.5248-5e-5 -1.7576-1.0939-1.8088-8.5zm53.559-2.9999v-12.25c0-3.2689 2.5974 0.17037 3 3.9722 0.41252 3.8961 0.76243 4.5548 2 3.7653 2.6858-1.7134 6.7996-1.1117 8.4433 1.235 2.3403 3.3413 2.1852 14.777-0.20051 14.777-1.4703 0-1.6985-0.73851-1.3974-4.5233 0.66921-8.4142-1.9648-12.089-6.8076-9.4969-1.7278 0.92467-2.0378 2.0741-2.0378 7.5554 0 5.0798-0.32135 6.4648-1.5 6.4648-1.2464 0-1.5-1.9444-1.5-11.5zm37.199 3c-0.0497-6.738 0.23404-8.5 1.369-8.5 0.78746 0 1.4318 0.54 1.4318 1.2 0 0.93333 0.26667 0.93333 1.2 0 1.6296-1.6296 7.0944-1.5879 6.555 0.05-0.22642 0.6875-1.5014 1.4056-2.8333 1.5958-4.0543 0.57895-4.9217 2.0376-4.9217 8.2766 0 4.3078-0.36561 5.8776-1.369 5.8776-1.0464 0-1.3838-2.0032-1.4318-8.5zm-157.03-13.159c0.19498-1.0124 1.0234-1.8408 1.8408-1.8408 2.1435 0 1.8339 2.9057-0.35451 3.3271-1.3364 0.25736-1.7437-0.14991-1.4863-1.4863zm46.827-30.282c0-0.51754 0.45643-1.2231 1.0143-1.5678 6.7743-4.1867 6.8976-22.115 0.20459-29.747-2.4463-2.7898-0.48192-3.3382 2.3801-0.66448 7.507 7.0131 7.8436 22.63 0.65033 30.171-2.6852 2.8148-4.2493 3.4806-4.2493 1.809zm-208.64-7.0506c-7.7897-3.1435-6.5739-15.704 1.6958-17.52 9.4884-2.084 13.451 12.672 4.539 16.901-1.8668 0.88584-3.5511 1.5821-3.743 1.5472-0.19188-0.0349-1.3132-0.45255-2.4919-0.92819zm6.7206-3.6019c2.1647-2.6083 1.6533-8.3963-0.92643-10.485-5.406-4.3775-10.857 3.7702-6.5944 9.8562 1.8166 2.5936 5.626 2.9122 7.5209 0.62906zm-236.08-2.9066c0-5.1111-0.32051-6.5-1.5-6.5-2.361 0-1.762-1.6773 1.4044-3.9319 4.756-3.3866 5.0956-2.8912 5.0956 7.4319 0 9.4667-9e-3 9.5-2.5 9.5-2.4103 0-2.5-0.23333-2.5-6.5zm18.348 3.9091c-4.6156-7.0443-0.15896-15.115 8.0367-14.554 2.8152 0.19265 2.8721 0.0997 2.3452-3.8288-0.50099-3.7352-0.36619-4.0262 1.8648-4.0262h2.4048v24.781l-6.4849 0.0973c-5.9108 0.0887-6.6337-0.12992-8.1667-2.4694zm10.456-6.2265 0.3046-5.3174-3.2866 0.31743c-4.0627 0.3924-5.8828 4.1952-3.9931 8.3428 2.3364 5.1278 6.607 3.0811 6.975-3.3428zm10.941 7.4222c-7.3464-5.5762-1.575-18.044 7.4365-16.065 7.3465 1.6136 6.7808 9.46-0.68204 9.46-3.025 0-5.5 0.43963-5.5 0.97695 0 1.9993 4.974 4.2782 8.0117 3.6707 2.5108-0.50215 2.9883-0.28206 2.9883 1.3773 0 2.4034-9.2738 2.8421-12.254 0.57972zm8.1949-10.245c0.24226-0.22384-0.26774-1.1152-1.1333-1.9808-1.8683-1.8683-5.8071-0.35162-5.8071 2.2361 0 1.415 5.3456 1.2184 6.9405-0.25527zm10.06 5.1406c0-5.1111-0.32051-6.5-1.5-6.5-0.83333 0-1.5-0.88889-1.5-2s0.66667-2 1.5-2c0.825 0 1.5-0.8632 1.5-1.9182 0-4.5263 3.8537-7.8426 7.4913-6.4468 2.2489 0.86298 1.8275 2.2932-0.99132 3.365-3.1072 1.1813-3.489 5-0.5 5 1.3333 0 2 0.66667 2 2s-0.66667 2-2 2c-1.7949 0-2 0.66667-2 6.5s-0.20513 6.5-2 6.5-2-0.66667-2-6.5zm13.507 4.0975c-7.4196-7.4196 2.6598-19.974 10.859-13.525 5.134 4.0384 3.7285 7.9274-2.8651 7.9274-5.7746 0-6.5965 0.76065-3.8209 3.5362 1.2207 1.2207 2.7376 1.5371 5.5565 1.159 3.2341-0.43379 3.825-0.24428 3.5616 1.1424-0.57288 3.0155-10.209 2.8415-13.291-0.24009zm9.2624-9.0331c0.40033-0.40034-0.12108-1.3486-1.1587-2.1074-2.1359-1.5618-5.6103-0.34683-5.6103 1.9619 0 1.4167 5.3821 1.5323 6.769 0.14544zm6.7044 3.1156-0.0266-8.3184 7.3201-0.1493c8.4977-0.17332 8.3716-0.31319 8.5859 9.5267 0.13726 6.3021-5e-3 6.7827-2.1028 7.0806-2.1357 0.30331-2.25-0.0113-2.25-6.191 0-6.9912-0.74032-8.1616-4.5568-7.2037-2.2765 0.57136-2.4432 1.0553-2.4432 7.0941 0 6.0546-0.14803 6.4809-2.25 6.4802-2.1508-7.6e-4 -2.2512-0.3675-2.2766-8.3192zm19.527 6.5436c0-1.4694 0.69132-1.7105 4-1.395 5.2983 0.50528 5.4355-1.9624 0.25-4.4962-7.9193-3.8696-4.513-10.333 5-9.4879 3.4951 0.31061 1.9174 3.1555-1.75 3.1555-4.6156 0-4.43 1.4849 0.5 4 4.6053 2.3494 5.6835 7.0286 2.0657 8.9648-3.3816 1.8098-10.066 1.3175-10.066-0.74125zm18.289-0.47357c-3.0001-3.2778-3.5634-6.1582-1.9564-10.004 2.9025-6.9467 12.073-7.3765 14.309-0.67057 1.5222 4.5668 1.1441 4.9249-5.2006 4.9249-2.9925 0-5.441 0.43963-5.441 0.97695 0 1.9993 4.974 4.2782 8.0117 3.6707 2.5108-0.50215 2.9883-0.28206 2.9883 1.3773 0 3.0817-9.8332 2.869-12.711-0.275zm8.7108-9.95c0-0.99-0.1882-1.8-0.41821-1.8-0.23002 0-1.072-0.25088-1.8711-0.55751-1.3843-0.53121-4.7107 1.8901-4.7107 3.4289 0 0.40071 1.575 0.72857 3.5 0.72857 2.7037 0 3.5-0.40952 3.5-1.8zm18.455 9.7454c-5.3214-5.3213-1.7586-14.545 5.618-14.545 2.1601 0 3.9274 0.45 3.9274 1s-1.3179 1-2.9286 1c-3.7336 0-6.0714 2.3378-6.0714 6.0714 0 4.0516 3.3842 7.2459 7.099 6.7007 1.9577-0.28733 2.901 6e-3 2.901 0.90102 0 2.4745-7.7746 1.6431-10.545-1.1277zm13.481 0.33391c-0.82309-1.538-0.84325-2.7863-0.0723-4.4783 0.98957-2.1719 2.375-2.8296 7.6369-3.6258 4.4855-0.67873 2.3391-4.2535-2.75-4.58-6.4797-0.41578-6.0339-2.1952 0.54997-2.1952 6.9298 0 7.7001 0.94541 7.6996 9.45l-4.1e-4 7.05-5.9613 0.25586c-5.2042 0.22336-6.1062-0.015-7.1025-1.8765zm8.4828-0.48635c0.86999-0.33384 1.5818-1.6838 1.5818-3 0-2.7699-4.8473-3.4868-6.8948-1.0198-2.5231 3.0401 0.97301 5.6852 5.313 4.0198zm9.5818-5.893c0-6.8889 0.28431-8.5 1.5-8.5 0.825 0 1.5 0.54 1.5 1.2 0 0.93333 0.26667 0.93333 1.2 0 1.7664-1.7664 5.8-1.511 5.8 0.36739 0 1.0832-0.58521 1.3816-1.8946 0.96605-3.2967-1.0463-5.1054 1.9784-5.1054 8.538 0 4.6032-0.33534 5.9286-1.5 5.9286-1.2157 0-1.5-1.6111-1.5-8.5zm14.614 6.6254c-5.26-5.8123-1.6446-15.125 5.8718-15.125h4.5147v-4c0-2.8889 0.41667-4 1.5-4 1.2525 0 1.5 2.041 1.5 12.369v12.369l-5.8438 0.1321c-4.5595 0.10307-6.2171-0.28047-7.5427-1.7453zm8.8047-0.7324c2.4387-0.9358 2.2589-11.983-0.20551-12.627-2.8668-0.74968-6.1626 0.97218-7.2289 3.7767-2.2473 5.911 1.98 10.944 7.4344 8.8505zm38.532 2.357c-0.0272-0.1375-0.16355-3.8844-0.303-8.3264l-0.25354-8.0764 5.9617-0.1643c7.9772-0.21986 8.6443 0.50863 8.6443 9.4396 0 6.1698-0.26837 7.3776-1.6393 7.3776-1.374 0-1.5458-0.78949-1.0616-4.8776 0.9632-8.1328-1.0935-11.275-6.2991-9.6224-1.7466 0.55436-2 1.513-2 7.5674 0 5.6212-2.2738 10.604-3.0494 6.6826zm28.049-11.13v-11.62h5.9286c8.2016 0 11.81 4.1189 7.4378 8.4908-1.5116 1.5116-1.4742 1.7454 0.5 3.1281 5.7764 4.046 1.1952 10.532-7.9038 11.19l-5.9625 0.43129zm12.393 6.1298c1.7826-2.8444-0.44181-5.2014-5.2449-5.5575l-4.1482-0.3075v8.23l4.1482-0.3075c2.6135-0.19374 4.5539-0.95494 5.2449-2.0575zm-1.4234-10.291c2.2618-2.2618 0.10433-4.8929-4.3209-5.2693l-3.6487-0.31036v4.1854c0 4.5297 4.1144 5.2495 7.9697 1.3943zm9.2117 14.322c-3.0729-3.0729 0.67117-8.7814 5.7596-8.7814 1.6175 0 3.2313-0.46971 3.5861-1.0438 1.189-1.9238-1.7133-3.9562-5.6495-3.9562-2.1327 0-3.8776-0.45-3.8776-1s2.4592-1 5.4648-1c6.6784 0 7.5352 1.166 7.5352 10.255v6.3867l-5.8186 0.16036c-3.3532 0.0924-6.3192-0.3402-7-1.021zm8.2368-1.3884c0.86999-0.33384 1.5818-1.6838 1.5818-3 0-2.833-4.8665-3.4637-6.9894-0.90574-2.5949 3.1267 0.88601 5.6408 5.4076 3.9057zm11.617 0.67273c-0.56935-1.0638-1.0352-4.2138-1.0352-7 0-3.8362-0.36407-5.0657-1.5-5.0657-0.825 0-1.5-0.675-1.5-1.5s0.6437-1.5 1.4304-1.5 1.5742-0.97725 1.75-2.1717c0.47108-3.2015 2.8196-3.5444 2.8196-0.41166 0 2.0889 0.47849 2.5833 2.5 2.5833 1.5556 0 2.5 0.56667 2.5 1.5 0 0.94152-0.95025 1.5-2.5523 1.5-3.6242 0-3.3643 9.8785 0.30226 11.487 3.1315 1.3738 2.8075 2.5129-0.71482 2.5129-1.9078 0-3.3339-0.68962-4-1.9343zm13 0c-0.56935-1.0638-1.0352-4.2138-1.0352-7 0-3.8362-0.36407-5.0657-1.5-5.0657-0.825 0-1.5-0.675-1.5-1.5s0.675-1.5 1.5-1.5c0.93333 0 1.5-0.94444 1.5-2.5s0.56667-2.5 1.5-2.5 1.5 0.94444 1.5 2.5c0 2 0.5 2.5 2.5 2.5 1.5556 0 2.5 0.56667 2.5 1.5s-0.94444 1.5-2.5 1.5c-2.3626 0-2.5 0.30127-2.5 5.481 0 5.0124 0.21374 5.5346 2.5 6.1084 3.4431 0.86416 3.1449 2.4106-0.46482 2.4106-1.9078 0-3.3339-0.68962-4-1.9343zm10.951-8.3157c-8e-3 -5.6375-0.285-11.262-0.61664-12.5-0.46768-1.7452-0.18416-2.2499 1.2637-2.2496 1.7226 3.9e-4 1.8666 0.96494 1.8666 12.5 0 9.3332-0.31666 12.5-1.25 12.5-0.9178-8e-5 -1.2536-2.7241-1.2636-10.25zm10.468 7.7954c-6.7185-6.7185 1.3046-19.209 9.0702-14.121 5.9006 3.8662 4.4985 7.7434-3.0259 8.3674-3.7312 0.30943-5.4988 0.89097-5.4988 1.8091 0 2.2089 4.7021 4.6699 7.9981 4.1862 2.0489-0.30072 3.0019-0.0194 3.0019 0.88622 0 2.5248-8.7473 1.6704-11.545-1.1277zm9.0454-9.5188c0-2.6437-3.8723-4.1546-6.2964-2.4567-3.7881 2.6533-2.8298 4.59 2.0464 4.1356 2.5853-0.24095 4.25-0.89854 4.25-1.6788zm16.5 0.47333v-11.5h5.8089c12.202 0 13.935 11.332 1.9775 12.928l-4.2863 0.57206-0.30479 4.75c-0.69657 10.856-3.1952 5.5772-3.1952-6.75zm11.609-3.0256c2.2251-3.396-0.27761-6.4744-5.2637-6.4744-3.2978 0-3.345 0.06352-3.345 4.5 0 5.5807 5.4298 6.826 8.6088 1.9744zm7.3912 2.0256c0-10.444 0.24667-12.5 1.5-12.5s1.5 2.0556 1.5 12.5-0.24667 12.5-1.5 12.5-1.5-2.0556-1.5-12.5zm8.1814 11.281c-3.2973-3.2973 0.43857-8.7814 5.9821-8.7814 1.4952 0 3.0088-0.46971 3.3636-1.0438 1.189-1.9238-1.7133-3.9562-5.6495-3.9562-2.1327 0-3.8776-0.45-3.8776-1s2.4592-1 5.4648-1c6.6574 0 7.326 0.92047 7.3184 10.074l-5e-3 6.574-5.7075 0.1573c-3.2644 0.09-6.2132-0.34839-6.8889-1.024zm8.2368-1.3884c2.6882-1.0316 2.0118-5.393-0.83642-5.393-3.6458 0-5.5818 1.0198-5.5818 2.9403 0 2.955 2.5598 3.9333 6.4182 2.4527zm9.5818-4.3112c0-3.805-0.23526-7.5313-0.5228-8.2806-0.40642-1.0591 1.0465-1.4097 6.5274-1.5749 6.8058-0.20514 7.0854-0.11979 8.0673 2.4627 1.5699 4.129 0.78172 13.724-1.1576 14.093-1.332 0.25318-1.5141-0.56241-1.1381-5.0969 0.66954-8.0738-1.7746-11.158-7.1944-9.0781-1.2307 0.47226-1.5818 2.137-1.5818 7.5 0 5.4604-0.31174 6.893-1.5 6.893-1.1888 0-1.5-1.4354-1.5-6.9182zm-415.95-28.756c-7.5782-5.308-8.0623-23.367-0.83271-31.062 3.8531-4.1014 4.8987-2.4935 1.5074 2.3179-4.8505 6.8815-4.8406 19.208 0.0204 25.257 3.4508 4.294 3.084 6.1345-0.69505 3.4875zm480.8-9.8258c-0.0825-6.325-0.195-12.05-0.25-12.722-0.12459-1.5225 10.87-2.132 13.46-0.74606 7.4938 4.0105 2.1177 18.254-6.2576 16.578-2.8094-0.56188-2.945-0.43253-2.7765 2.6494 0.2833 5.1836 0.0869 5.7402-2.0256 5.7402-1.8754 0-2.0094-0.71667-2.15-11.5zm10.15-1.5c2.3969-2.3969 2.5935-6.2636 0.42857-8.4286-4.3625-4.3625-8.0694 0.98267-5.4533 7.8635 1.1736 3.0868 2.3687 3.2212 5.0248 0.5651zm-272 10.975c0-0.56361 1.125-1.4525 2.5-1.9752 3.4052-1.2947 3.2757-5.5549-0.4333-14.249-1.5836-3.7119-2.4714-7.001-1.9729-7.309 1.6011-0.98952 2.7144 0.46231 4.4629 5.8197 2.4948 7.6441 2.5762 7.6564 4.8704 0.73494 1.1557-3.4867 2.6574-6.5249 3.3371-6.7514 1.8598-0.61992 1.5203 1.1934-1.6026 8.5596-1.5611 3.6824-3.1712 8.0452-3.5779 9.6952-1.1988 4.8635-7.5837 9.4732-7.5837 5.4752zm106.85-9.9752c-0.0825-6.05-0.195-11.53-0.25-12.177-0.19317-2.273 11.089-2.1339 13.388 0.165 5.2571 5.2571 1.3748 15.466-5.8816 15.466-4.0833 0-4.1068 0.0215-4.1068 3.7727 0 2.6869-0.43173 3.7727-1.5 3.7727-1.2333 0-1.5267-1.9556-1.65-11zm9.9275 0.4433c5.0525-3.5389 1.5495-13.495-4.2372-12.043-2.3612 0.59262-2.5403 1.0534-2.5403 6.5352 0 7.1057 2.0812 8.797 6.7775 5.5076zm36.223 9.6717c0-0.48674 1.125-1.6221 2.5-2.523 3.2497-2.1293 3.1536-4.0807-0.64693-13.135-3.0042-7.157-3.2421-10.239-0.5864-7.5975 0.67833 0.67465 2.1914 3.7819 3.3624 6.905l2.129 5.6783 1.8074-5.9716c2.0725-6.8475 3.0019-8.3042 4.4039-6.9022 0.62585 0.62585 0.15191 2.7345-1.3373 5.95-1.2687 2.7393-3.1145 7.4556-4.1017 10.481-2.2582 6.9193-7.5303 11.901-7.5303 7.115zm-352.17-7.6445c-2.9599-1.6074-5.2604-7.11-4.2092-10.068 2.3624-6.6472 10.38-8.7588 14.306-3.7678 3.6671 4.662 2.8449 6.0791-3.9873 6.8721-7.2883 0.8459-6.3022 4.493 1.2148 4.493 2.6199 0 3.845 0.44386 3.845 1.393 0 2.8458-6.7192 3.494-11.169 1.0775zm7.169-11.002c0-3.2206-5.6813-2.9246-6.7738 0.35282-0.25286 0.75857 0.8841 1.1786 3.1905 1.1786 2.5512 0 3.5833-0.44111 3.5833-1.5314zm8.9561 10.669c-3.6003-2.956-1.1953-7.2402 4.8165-8.5799 2.3251-0.51813 4.2274-1.2505 4.2274-1.6276 0-1.8406-3.2838-3.146-6.5716-2.6125-2.9757 0.48288-3.5022 0.30035-3.2322-1.1205 0.46203-2.4313 9.9047-2.9537 12.184-0.67407 3.1706 3.1706 2.2661 15.525-1.1305 15.439-1.5125-0.0382-3.8948 0.21441-5.2939 0.5613-1.7704 0.43893-3.2907 0.0175-5-1.3858zm8.1952-2.1378c0.54327 0 0.84396-1.0125 0.66821-2.25-0.33643-2.3688-3.029-2.6208-5.5819-0.5223-1.6471 1.3539 0.43477 4.112 2.5043 3.3178 0.78187-0.30003 1.8661-0.54551 2.4093-0.54551zm11.139 2.5247c-6.6659-4.772-2.6515-16.525 5.6443-16.525 2.9188 0 3.0657-0.1951 3.0657-4.0696 0-12.333 4.486-4.0404 4.7809 8.8378l0.28092 12.268-2.7809-0.0481c-1.5295-0.0264-4.1309 0.21437-5.7809 0.53516-1.9425 0.37767-3.779 0.0256-5.2101-0.99888zm9.318-5.8603c-0.31933-1.1904-0.58674-3.4019-0.59425-4.9144-0.0112-2.2525-0.45955-2.75-2.4785-2.75-4.5473 0-6.2994 7.6509-2.3806 10.396 2.932 2.0536 6.2862 0.37363 5.4533-2.7314zm10.19 4.2874c-5.6778-5.6778-2.0722-14.952 5.8129-14.952 8.6566 0 10.337 8.4878 1.8892 9.5433-3.025 0.37795-5.5 1.0302-5.5 1.4495 0 1.6323 2.7305 2.8835 6.9582 3.1885 4.2128 0.30387 4.3368 0.40042 2.659 2.0688-2.868 2.8517-8.2618 2.2592-11.819-1.2983zm9.1868-8.7017c-0.0706-3.4587-6.1585-4.3543-6.7978-1-0.26729 1.4024 0.37622 1.75 3.2398 1.75 1.9653 0 3.5664-0.3375 3.558-0.75zm30.765 10.711c-4.1045-2.4872-1.3213-8.6862 4.3037-9.5857 2.1948-0.35097 4.2744-1.0973 4.6212-1.6585 1.1135-1.8017-2.9529-3.8944-6.4909-3.3405-2.3085 0.36145-3.1962 0.15527-2.9218-0.67865 0.65582-1.9933 9.1797-2.0751 10.816-0.1039 2.5288 3.047 2.165 15.384-0.45032 15.272-1.1702-0.0502-3.4776 0.18924-5.1276 0.53209-1.65 0.34286-3.7875 0.14617-4.75-0.43708zm9.0701-4.7156c0.19634-1.3827-0.31169-2.4969-1.3138-2.8815-2.5094-0.96296-6.5064 1.2945-6.5064 3.6749 0 3.2017 7.3588 2.4551 7.8201-0.7934zm26.815 3.6819c-3.6673-2.8847-3.7611-9.8921-0.18031-13.473 4.4708-4.4708 11.762-2.7417 13.423 3.1832 2.4771 8.8346-6.3618 15.702-13.243 10.29zm8.1426-1.4841c4.0924-2.8664 2.0885-12.443-2.6037-12.443-4.8187 0-6.9846 8.1892-3.1738 12 2.4075 2.4075 2.9173 2.4466 5.7775 0.4433zm38.973 2.9025c-3.3805-0.95128-1.7021-2.3458 2.8233-2.3458 5.7203 0 5.8198-2.4055 0.22134-5.3537-4.5002-2.3698-5.3233-4.1906-3.2943-7.2872 1.7873-2.7278 9.4996-3.5356 9.4996-0.99504 0 0.92986-1.1937 1.3278-3.75 1.25-5.0089-0.15235-4.9931 2.2241 0.0325 4.884 8.1108 4.2928 3.5536 12.405-5.5325 9.8478zm40.705-1.8004c-5.4832-5.4832-1.7233-15.545 5.8089-15.545 4.2184 0 6.5123 1.6653 7.5761 5.5 2.5875 9.3274-6.9472 16.483-13.385 10.045zm8.3229-1.1022c4.197-2.9397 2.2722-12.443-2.5202-12.443-4.8941 0-7.1066 8.1507-3.2573 12 2.4075 2.4075 2.9173 2.4466 5.7775 0.4433zm12.814 2.2674c-2.3304-1.7288-3.0449-15.7-0.84128-16.451 0.9068-0.30925 1.25 1.1915 1.25 5.4659 0 12.515 8.2937 13.888 8.7952 1.4562 0.42041-10.423 2.6087-9.2239 2.9951 1.6409 0.28208 7.9302 0.22535 8.161-2 8.1378-1.2597-0.0131-3.6403 0.24394-5.2903 0.57118-1.8714 0.37115-3.7181 0.0623-4.9087-0.82098zm27.47-0.64919c-1.5822-1.5822-2.0615-3.3401-2.0615-7.5615 0-4.2222-0.34848-5.5-1.5-5.5-2.2112 0-1.824-1.682 0.5287-2.2973 1.1158-0.29178 1.9625-0.90676 1.8816-1.3666-0.32222-1.8312 0.13798-3.3361 1.0202-3.3361 0.51175 0 1.0742 1.0125 1.25 2.25 0.20536 1.446 1.1236 2.3642 2.5696 2.5696 3.0612 0.43476 2.861 2.1804-0.25 2.1804-2.2894 0-2.5 0.37212-2.5 4.4182 0 5.7528 0.76964 7.5818 3.1903 7.5818 1.1364 0 1.7995 0.53126 1.5602 1.25-0.69486 2.0869-3.5067 1.9937-5.689-0.18852zm12.119 0.10978c-1.4851-1.1426-2.5118-3.2201-2.8547-5.7766-1.1604-8.6513 9.4603-14.296 14.601-7.7598 6.3864 8.119-3.6921 19.733-11.747 13.536zm7.8419-1.1834c5.0403-2.6975 2.6869-13.44-2.8038-12.798-5.1189 0.59823-6.7487 8.1377-2.646 12.24 1.8345 1.8345 2.8668 1.9402 5.4498 0.55778zm48.064 1.0988c-3.5702-3.5702-1.2009-7.725 4.9679-8.7114 2.8642-0.458 3.9455-1.1143 3.9455-2.3947 0-2.1055-3.8711-3.302-7.6304-2.3585-1.9905 0.49959-2.5189 0.32178-2.1723-0.73095 0.57084-1.7335 7.9909-2.396 10.685-0.95399 3.4254 1.8332 3.5304 15.99 0.11746 15.834-1.375-0.0626-3.6985 0.22723-5.1633 0.64411-2.0393 0.58037-3.1523 0.26904-4.75-1.3287zm8.7298-4.3367c0.37202-3.2332-3.466-3.9575-6.245-1.1786-2.8661 2.8661-1.6319 4.6692 2.8926 4.226 2.4788-0.24281 3.094-0.80208 3.3524-3.0474zm85.203 4.9656c-7.985-4.0402-4.9521-16.716 3.9996-16.716 8.6937 0 10.009 8.4777 1.4807 9.5433-3.025 0.37795-5.5 0.99533-5.5 1.372 0 1.7948 2.8017 3.0848 6.7 3.0848 2.9944 0 4.3 0.42002 4.3 1.3834 0 2.5728-6.8788 3.4074-10.98 1.3322zm6.9803-11.247c0-3.2206-5.6813-2.9246-6.7738 0.35282-0.25286 0.75857 0.8841 1.1786 3.1905 1.1786 2.5512 0 3.5833-0.44111 3.5833-1.5314zm8.7507 11.861c-5.3688-1.4613-1.2434-10.33 4.8051-10.33 3.0118 0 3.2862-2.598 0.37207-3.5229-1.1397-0.36172-3.2011-0.37433-4.5809-0.028-2.0428 0.51272-2.4455 0.29736-2.1685-1.1597 0.57092-3.0023 10.145-3.093 12.23-0.11595 3.0364 4.335 2.2042 14.893-1.1589 14.703-1.5125-0.0853-3.875 0.0888-5.25 0.38706-1.375 0.29821-3.2872 0.32795-4.2493 0.0661zm5.8994-3.0951c2.4834-1.5865 2.0129-4.7577-0.65005-4.3816-3.0286 0.42771-4.2655 2.1221-2.8204 3.8634 1.2137 1.4624 1.8448 1.5567 3.4704 0.51823zm32.985 1.6927c-6.2649-4.928-2.0209-15.927 6.1454-15.927 8.7639 0 11.906 12.525 4.1482 16.537-3.9139 2.024-7.1924 1.8298-10.294-0.60957zm9.3651-4.2576c2.7678-4.9264-2.5929-10.934-6.3786-7.1483-2.23 2.23-2.0318 6.0681 0.44112 8.541 2.4889 2.4889 3.9492 2.1463 5.9375-1.3927zm37.359 3.7799c-2.8692-2.8692-2.6541-6.5006 0.58033-9.798 1.5155-1.545 1.6317-2.3286 0.70811-4.7754-1.3906-3.6842 0.012-6.2513 3.6542-6.688 5.5696-0.66769 9.0504 4.615 5.1653 7.8393-1.3595 1.1282-1.283 1.539 0.67431 3.6224 2.702 2.8761 3.859 2.981 3.859 0.34991 0-1.3227 0.66667-2 1.9686-2 1.971 0 1.9267 1.9238-0.1056 4.5805-0.48722 0.63692 0.21211 2.4842 1.7036 4.5 2.2714 3.0699 2.3495 3.4569 0.76422 3.7848-0.97611 0.20188-2.3708-0.54596-3.1186-1.6722-1.35-2.0332-1.3601-2.0324-4.922 0.38479-4.5727 3.1031-7.7372 3.066-10.931-0.12816zm10.709-2.3038 2.2898-1.8542-3.429-3.1165c-4.8575-4.4149-7.929-3.708-7.929 1.8248 0 5 4.7454 6.6462 9.0682 3.1458zm-2.2518-13.887c-0.35496-3.0754-3.4567-4.3594-4.4264-1.8325-0.92815 2.4187 0.31818 4.5739 2.645 4.5739 1.6972 0 2.0374-0.5235 1.7814-2.7414zm-550.82 6.2414c0-6.325-0.1125-11.838-0.25-12.25s0.7625-0.8938 2-1.0696c1.3437-0.19083 2.2677 0.21199 2.2939 1 0.70564 21.19 0.50757 23.82-1.7939 23.82-2.2029-2.1e-4 -2.25-0.24101-2.25-11.5zm83.518 3.3272c0.0182-8.119 1.4214-11.161 3.5557-7.7074 0.67114 1.0859 1.0955 1.1107 2.0844 0.12188 1.9531-1.9531 6.0559-1.5925 5.6535 0.49688-0.18414 0.95618-1.2296 1.9046-2.3233 2.1076-3.5703 0.66269-4.4885 2.2535-4.4885 7.7763 0 4.9101-0.1956 5.3776-2.25 5.3775-2.1513-6e-5 -2.2492-0.35863-2.2317-8.1728zm40.111-4.0781c0.1014-9.6079 0.43037-12.309 1.5257-12.529 1.1354-0.22776 1.3984 2.0621 1.4072 12.25 9e-3 10.609-0.2248 12.53-1.5257 12.529-1.3054-7.8e-4 -1.5171-1.8435-1.4072-12.25zm8.9509 1e-3c0.11535-17.622 2.5888-17.622 2.784 2e-4 0.11396 10.283-0.10514 12.25-1.3642 12.25-1.2561-1.7e-4 -1.487-1.9924-1.4198-12.25zm30.146 4.919c-3.002-8.0726-3.3218-10.034-1.5387-9.44 0.65312 0.2177 2.0406 2.9552 3.0833 6.0833 2.3587 7.0761 2.7933 7.0709 5.2494-0.0625 2.6038-7.5624 4.2568-7.3855 7.0059 0.75l2.1964 6.5 2.0211-6.5c1.7197-5.5306 3.9701-8.4676 4.3719-5.7059 1.2815 8.807-7.3714 17.044-10.137 9.6491-2.5294-6.7634-3.003-6.6931-5.4362 0.80682-2.2785 7.0229-3.5784 6.626-6.8163-2.0809zm174.77-5.1943c0-10.057 0.26926-12.471 1.3665-12.25 2.1177 0.42646 2.2489 24.776 0.13353 24.776-1.2535-2.7e-4 -1.5-2.0588-1.5-12.526zm52.5 6.0566c0-5.339-0.26194-6.3681-1.5-5.893-2.759 1.0587-1.5351-2.0897 1.6879-4.342 4.3891-3.0672 4.8121-2.3848 4.8121 7.7626 0 8.8704-0.01974 8.941-2.5 8.941-2.409 0-2.5-0.23543-2.5-6.4686zm19.763-1.2487c-2.7285-7.6823-2.5483-10.182 0.64559-8.9563 0.84839 0.32556 2.059 2.643 2.6902 5.1498 1.521 6.0404 2.3526 6.308 3.8565 1.2411 2.5927-8.7351 5.0694-8.8944 7.6141-0.48976l1.8855 6.2275 1.8596-6.2275c1.6108-5.3944 5.686-9.3485 5.686-5.5171 0 11.535-8.8213 19.705-11.636 10.776-1.9445-6.1687-2.5094-6.0696-4.3468 0.76321-2.0719 7.7044-4.8149 6.7183-8.255-2.9674zm103.06-0.29717c-0.32028-7.8702 1.7221-11.952 4.0751-8.1453 0.41692 0.67459 1.1822 0.71864 2.1252 0.12233 2.2866-1.446 6.6645-1.1288 8.4022 0.6089 2.5895 2.5895 2.2328 15.429-0.42857 15.429-1.7544 0-2-0.66667-2-5.4286 0-6.0236-1.7091-8.7218-4.9824-7.8658-1.7576 0.45963-2.0176 1.3501-2.0176 6.911 0 11.122-4.7154 9.6354-5.1738-1.6312zm-525.83-43.94c0-0.525 1.136-2.0905 2.5244-3.4789 2.8652-2.8652 2.7204-4.4852-1.1929-13.345-2.711-6.1378-2.8478-7.2215-0.91183-7.2215 0.82962 0 2.1275 2.182 3.1229 5.25 2.4715 7.6178 3.1424 7.7345 5.1521 0.896 0.99296-3.3788 2.3679-6.1438 3.0554-6.1446 1.8229-2e-3 1.5755 1.3432-1.6333 8.8839-1.5858 3.7266-3.1965 8.2014-3.5792 9.9439-0.84289 3.8377-6.5375 8.3813-6.5375 5.2162zm21.357-7.037c-5.3832-2.1724-7.0581-9.9638-3.107-14.454 7.1452-8.1196 18.328 0.62623 13.28 10.387-1.0879 2.1038-6.8029 5.704-7.9296 4.9954-0.0554-0.0349-1.0651-0.45255-2.2438-0.92819zm7.0863-4.2309c2.2366-3.1932 1.9214-6.5037-0.8866-9.3117-3.3267-3.3267-6.7072-2.1296-7.9664 2.8211-1.7566 6.9063 5.0609 11.905 8.853 6.4906zm10.755 3.0212c-1.4701-1.4701-1.6503-15.799-0.19872-15.799 0.55 0 1 1.7438 1 3.875 0 9.0426 2.0728 12.189 7 10.625 1.7466-0.55436 2-1.513 2-7.5674 0-5.4956 0.31091-6.9326 1.5-6.9326 1.2122 0 1.4999 1.5832 1.4996 8.25l-4.1e-4 8.25-5.8009 0.24872c-3.4951 0.14986-6.2773-0.22775-6.9996-0.95zm16.951-7.2987c-0.0188-6.734 0.27485-8.5 1.4132-8.5 0.7903 0 1.4369 0.54 1.4369 1.2 0 0.93333 0.26667 0.93333 1.2 0 1.6301-1.6301 7.0961-1.5883 6.5501 0.05-0.22909 0.6875-1.6462 1.2713-3.1491 1.2974-3.636 0.0631-4.5674 1.8306-4.5857 8.7026-0.0114 4.2803-0.37653 5.75-1.4285 5.75-1.1049 0-1.4184-1.8542-1.4369-8.5zm21.85-2.8798v-11.62h5.845c8.1203 0 12.275 5.659 6.7702 9.2218-0.73254 0.47412-0.34315 1.2656 1.1348 2.3067 5.8832 4.1441 1.4162 10.615-7.7875 11.281l-5.9625 0.43129zm11.75 7.1021c3.4908-2.7011 0.09058-6.7223-5.6843-6.7223-2.901 0-3.0657 0.21122-3.0657 3.9304 0 4.8936 4.2721 6.2567 8.75 2.7919zm-0.78034-11.263c2.2618-2.2618 0.10433-4.8929-4.3209-5.2693l-3.6487-0.31036v4.1854c0 4.5297 4.1144 5.2495 7.9697 1.3943zm10.212 14.322c-3.0729-3.0729 0.67117-8.7814 5.7596-8.7814 1.6175 0 3.2313-0.46971 3.5861-1.0438 1.189-1.9238-1.7133-3.9562-5.6495-3.9562-2.1327 0-3.8776-0.45-3.8776-1s2.4592-1 5.4648-1c6.6784 0 7.5352 1.166 7.5352 10.255v6.3867l-5.8186 0.16036c-3.3532 0.0924-6.3192-0.3402-7-1.021zm8.2368-1.3884c0.86999-0.33384 1.5818-1.6838 1.5818-3 0-2.833-4.8665-3.4637-6.9894-0.90574-2.5949 3.1267 0.88601 5.6408 5.4076 3.9057zm11.617 0.67273c-0.56935-1.0638-1.0352-4.2138-1.0352-7 0-3.8362-0.36407-5.0657-1.5-5.0657-0.825 0-1.5-0.675-1.5-1.5s0.6437-1.5 1.4304-1.5 1.5742-0.97725 1.75-2.1717c0.47108-3.2015 2.8196-3.5444 2.8196-0.41166 0 2.0889 0.47849 2.5833 2.5 2.5833 1.5556 0 2.5 0.56667 2.5 1.5s-0.94444 1.5-2.5 1.5c-2.3626 0-2.5 0.30127-2.5 5.481 0 5.0124 0.21374 5.5346 2.5 6.1084 3.4431 0.86416 3.1449 2.4106-0.46482 2.4106-1.9078 0-3.3339-0.68962-4-1.9343zm13.165 0.73426c-0.66-0.66-1.2-3.81-1.2-7 0-4.4889-0.33908-5.8-1.5-5.8-0.825 0-1.5-0.675-1.5-1.5s0.675-1.5 1.5-1.5c0.93333 0 1.5-0.94444 1.5-2.5s0.56667-2.5 1.5-2.5c0.92189 0 1.5 0.93672 1.5 2.4304 0 1.7297 0.62611 2.5226 2.1717 2.75 3.2015 0.47108 3.5444 2.8196 0.41166 2.8196-3.9245 0-4.0008 10.606-0.0833 11.589 1.375 0.3451 2.5 1.0287 2.5 1.519 0 1.325-5.4121 1.0795-6.8-0.30841zm10.786-9.05c-8e-3 -5.6375-0.285-11.262-0.61664-12.5-0.46768-1.7452-0.18416-2.2499 1.2637-2.2496 1.7226 3.9e-4 1.8666 0.96494 1.8666 12.5 0 9.3332-0.31666 12.5-1.25 12.5-0.9178-8e-5 -1.2536-2.7241-1.2636-10.25zm9.188 7.9356c-6.4176-6.8312 1.7284-19.255 9.3504-14.261 5.9006 3.8662 4.4985 7.7434-3.0259 8.3674-3.7312 0.30943-5.4988 0.89097-5.4988 1.8091 0 2.2089 4.7021 4.6699 7.9981 4.1862 2.0489-0.30072 3.0019-0.0194 3.0019 0.88622 0 2.4752-9.3024 1.6983-11.826-0.98764zm9.3528-8.7294c0.95533-1.5458-1.4511-3.9562-3.9495-3.9562-2.4368 0-4.5776 1.7304-4.5776 3.7 0 1.5859 7.5648 1.8132 8.5271 0.2562zm16.473-0.4562v-11.5h5.5657c12.664 0 13.776 12.28 1.2033 13.282-3.1452 0.25066-3.2806 0.43958-3.5738 4.9894-0.69828 10.834-3.1952 5.5425-3.1952-6.7711zm11.171-2.155c3.4399-3.1131 0.65919-7.345-4.8262-7.345-3.2978 0-3.345 0.06352-3.345 4.5 0 5.0432 4.1469 6.487 8.1713 2.845zm7.8287 1.155c0-10.444 0.24667-12.5 1.5-12.5s1.5 2.0556 1.5 12.5-0.24667 12.5-1.5 12.5-1.5-2.0556-1.5-12.5zm9.1814 11.281c-3.2973-3.2973 0.43857-8.7814 5.9821-8.7814 1.4952 0 3.0088-0.46971 3.3636-1.0438 1.189-1.9238-1.7133-3.9562-5.6495-3.9562-2.1327 0-3.8776-0.45-3.8776-1s2.4861-1 5.5248-1c6.5621 0 7.3026 1.0903 7.2128 10.62l-0.0568 6.0308-5.659 0.15596c-3.2256 0.0889-6.167-0.35203-6.8404-1.0254zm8.2368-1.3884c0.86999-0.33384 1.5818-1.6838 1.5818-3 0-2.833-4.8665-3.4637-6.9894-0.90574-2.5949 3.1267 0.88601 5.6408 5.4076 3.9057zm9.5818-4.3112c0-3.805-0.23545-7.5318-0.52322-8.2817-0.62824-1.6372 11.056-2.3307 13.523-0.80268 2.2301 1.3815 2.1543 15.339-0.0857 15.777-1.3327 0.26008-1.5143-0.55205-1.1381-5.0888 0.66954-8.0738-1.7746-11.158-7.1944-9.0781-1.2307 0.47226-1.5818 2.137-1.5818 7.5 0 5.4604-0.31174 6.893-1.5 6.893-1.1888 0-1.5-1.4354-1.5-6.9182zm19.364 5.4249c-0.34636-0.90262-0.15025-2.1206 0.43581-2.7067 1.5236-1.5236 4.4104-0.13109 4.0124 1.9355-0.4433 2.3019-3.6477 2.8574-4.4482 0.7712zm236.14-32.221c-4.1238-1.0331-6.1833-6.043-3.6322-8.8358 1.3676-1.4973 2.1694-7.309 1.0995-7.9702-4.4935-2.7771 1.5082-10.151 7.4741-9.183 2.4126 0.39151 3.5617 0.1377 3.9492-0.8723 0.63733-1.6609 4.6094-1.946 4.6094-0.33085 0 0.60149-0.87933 1.3236-1.9541 1.6046-1.5642 0.40906-1.8375 1.094-1.3696 3.4335 0.78494 3.9247-1.9032 6.8682-6.2723 6.8682-6.7442 0-5.7069 2.9987 1.2966 3.7481 5.625 0.60187 7.2994 1.68 7.2994 4.7001 0 4.3351-7.0644 8.1994-12.5 6.8377zm8.9286-3.8572c0.86429-0.86428 1.5714-1.7321 1.5714-1.9286 0-3.3147-10.154-4.8343-11.866-1.7758-2.4965 4.461 6.3529 7.6456 10.294 3.7044zm-3.3628-13.464c3.9232-2.0996 1.3563-7.4461-3.2607-6.7916-2.9735 0.42153-3.7586 4.6563-1.2089 6.5207 2.1471 1.57 2.0527 1.5643 4.4696 0.27085zm-439.07 15.22c0-0.525 1.125-1.6917 2.5-2.5926 3.2608-2.1365 3.1771-4.6749-0.44328-13.454-2.6031-6.3126-2.7426-7.1375-1.2071-7.1375 1.2112 0 2.3015 1.6631 3.6057 5.5 1.0282 3.025 2.1642 5.5 2.5245 5.5s1.4351-2.475 2.3887-5.5c1.1244-3.5672 2.2805-5.5 3.2896-5.5 0.85574 0 1.3272 0.5625 1.0476 1.25-0.27954 0.6875-1.9104 4.85-3.6241 9.25-4.4249 11.361-5.3688 12.96-7.8651 13.32-1.2191 0.17575-2.2166-0.10999-2.2166-0.63499zm271.5-2.1846c-0.40748-0.65931 11.176-1 34-1s34.407 0.34069 34 1c-0.39205 0.63435-12.824 1-34 1s-33.608-0.36565-34-1zm-287.75-5.0389c-4.6238-2.8019-0.20988-9.9611 6.1413-9.9611 2.7955 0 3.4265-1.5393 1.4438-3.522-1.1945-1.1945-2.668-1.5234-5.0751-1.1328-2.3791 0.38607-3.2745 0.19276-2.9987-0.6474 0.51762-1.5767 7.1181-2.1003 9.617-0.7629 3.0262 1.6196 3.5894 16.046 0.62159 15.923-1.1-0.0457-3.35 0.19742-5 0.54027-1.65 0.34286-3.7875 0.14617-4.75-0.43708zm9.0701-4.7156c0.19634-1.3827-0.31169-2.4969-1.3138-2.8815-2.5094-0.96296-6.5064 1.2945-6.5064 3.6749 0 3.2017 7.3588 2.4551 7.8201-0.7934zm33.267 3.8411c-3.5702-3.5702-1.2009-7.725 4.9679-8.7114 2.3121-0.36971 3.9455-1.1844 3.9455-1.9679 0-2.0915-3.8-3.6102-7.1772-2.8685-2.3319 0.51217-2.9536 0.34959-2.6132-0.68343 0.68535-2.0798 9.1695-2.3334 11.169-0.33389 2.8244 2.8244 2.3046 15.495-0.62873 15.326-1.2375-0.0715-3.4485 0.19755-4.9133 0.59786-2.0183 0.55156-3.1687 0.22246-4.75-1.3588zm8.7298-4.3367c0.37202-3.2332-3.466-3.9575-6.245-1.1786-2.8661 2.8661-1.6319 4.6692 2.8926 4.226 2.4788-0.24281 3.094-0.80208 3.3524-3.0474zm8.9336 5.5958c-3.3579-0.94492-1.7156-2.3458 2.75-2.3458 5.0755 0 6.6609-3.2067 2.25-4.5509-5.4535-1.6619-7.7436-7.3118-3.8157-9.4139 2.9632-1.5858 8.0657-1.3076 8.0657 0.43982 0 1.0642-0.76599 1.3351-2.75 0.97287-6.4349-1.175-6.5495 2.3384-0.18215 5.5867 7.7449 3.9512 2.4364 11.775-6.3178 9.3112zm22.914-0.82498c-3.9543-3.9543 0.0042-9.5208 6.7706-9.5208 1.5866 0 2.5657-0.559 2.5657-1.4648 0-2.2045-3.717-3.7562-7.1772-2.9963-2.3319 0.51217-2.9536 0.34959-2.6132-0.68343 0.70293-2.1332 9.1463-2.3364 10.868-0.26155 2.5288 3.047 2.165 15.384-0.45032 15.272-1.1702-0.0502-3.5165 0.22591-5.2139 0.61359-2.2528 0.5145-3.5356 0.25555-4.75-0.95883zm9.1527-4.7708c0.25764-2.2391-0.0797-2.75-1.8157-2.75-3.2832 0-6.0007 1.8547-6.0007 4.0956 0 3.5551 7.3991 2.2814 7.8164-1.3456zm28.203 4.9656c-7.985-4.0402-4.9521-16.716 3.9996-16.716 4.2663 0 6.9807 2.4122 6.9807 6.2037 0 2.6259-2.6591 3.7963-8.625 3.7963-1.3062 0-2.375 0.36-2.375 0.8 0 1.9063 2.7088 3.2 6.7 3.2 3.0088 0 4.3 0.4183 4.3 1.393 0 2.7288-6.6242 3.5266-10.98 1.3225zm6.9803-11.247c0-3.2206-5.6813-2.9246-6.7738 0.35282-0.25286 0.75857 0.8841 1.1786 3.1905 1.1786 2.5512 0 3.5833-0.44111 3.5833-1.5314zm8.7384 10.795c-3.333-3.683-1.0651-7.6481 5.0772-8.8765 1.7514-0.35029 3.1844-1.2471 3.1844-1.9928 0-1.6918-4.1343-2.8036-7.0198-1.8878-1.7433 0.55331-2.0958 0.32783-1.8128-1.1597 0.58136-3.056 10.128-3.191 12.241-0.17315 2.7079 3.866 2.2213 14.824-0.6589 14.838-1.2375 6e-3 -3.8302 0.27252-5.7616 0.59215-2.693 0.44568-3.9168 0.13338-5.25-1.3397zm6.8346-2.0287c2.4304-1.6642 2.4414-4.2347 0.0181-4.2347-3.0535 0-4.9909 2.2001-3.3673 3.8238 1.3592 1.3592 1.8723 1.4222 3.3492 0.4109zm11.882 1.3108c-5.7295-5.7295-1.5448-15.545 6.6272-15.545 2.7462 0 2.9182-0.23984 2.9182-4.0696 0-3.573 0.2571-4.0306 2.1073-3.75 2.0021 0.30359 2.1149 0.93516 2.2597 12.648l0.15238 12.328-2.8037-0.41149c-1.542-0.22633-3.0354-0.0365-3.3187 0.42177-1.0416 1.6853-5.5577 0.76341-7.9424-1.6213zm8.4149-1.4756c2.4642-1.3188 1.4927-10.382-1.1675-10.891-4.3847-0.83883-6.9303 8.4239-2.952 10.741 2.1818 1.2708 2.0352 1.2654 4.1195 0.14996zm13.631 2.7754c-7.8326-4.2841-5.0621-16.871 3.7046-16.83 3.8556 0.0179 5.0797 0.69371 6.6458 3.669 2.2615 4.2965 1.5359 5.1727-4.8849 5.8992-7.2562 0.82094-6.2877 4.4166 1.1896 4.4166 2.6199 0 3.845 0.44386 3.845 1.393 0 2.6197-6.6772 3.5432-10.5 1.4523zm6.3131-11.595c-0.49241-2.5836-4.4504-2.7963-5.7806-0.31068-1.019 1.904-0.82839 2.0607 2.5057 2.0607 2.8971 0 3.5428-0.34502 3.275-1.75zm69.753 11.422c-1.4229-1.0404-2.034-2.9898-2.3629-7.5377-0.31351-4.3342-0.84863-6.1344-1.8235-6.1344-2.1038 0-1.644-1.6977 0.62019-2.2898 1.1966-0.31292 2-1.364 2-2.6166 0-1.1515 0.59823-2.0936 1.3294-2.0936 0.7355 0 1.2939 1.0052 1.25 2.25-0.0566 1.6025 0.56808 2.342 2.1706 2.5696 3.0612 0.43476 2.861 2.1804-0.25 2.1804-2.2894 0-2.5 0.37212-2.5 4.4182 0 5.9935 0.77306 7.5818 3.6903 7.5818 1.534 0 2.3197 0.47569 2.0647 1.25-0.59846 1.8172-3.9667 2.0469-6.1887 0.42212zm56.572-1.2089c-3.8627-3.2502-4.3154-8.6975-1.0661-12.828 3.9725-5.0502 12.927-2.3728 12.927 3.8651 0 2.3889-0.26667 2.5-6 2.5-4.3594 0-6 0.36778-6 1.345 0 2.4155 3.566 4.655 7.4121 4.655 4.867 0 4.3571 2.3783-0.60073 2.8021-2.6471 0.22628-4.3218-0.36075-6.6727-2.3389zm8.8614-9.7632c0-3.4795-4.724-4.8331-7.4286-2.1286-2.5673 2.5673-1.8316 3.4286 2.9286 3.4286 3.0256 0 4.5-0.42593 4.5-1.3zm22.635 10.227c-3.6673-2.8847-3.7611-9.8921-0.18031-13.473 5.459-5.459 13.545-1.7437 13.545 6.2235 0 7.7621-7.5246 11.844-13.365 7.2493zm8.1426-1.4841c4.2339-2.9655 2.0547-12.443-2.861-12.443-4.5268 0-6.7541 8.3119-3.2614 12.171 2.0224 2.2347 3.2429 2.289 6.1225 0.27204zm17.473 2.8944c-2.7453-1.1078-0.99683-2.3377 3.3233-2.3377 5.7203 0 5.8198-2.4055 0.22134-5.3537-4.5002-2.3698-5.3233-4.1906-3.2943-7.2872 1.845-2.8158 9.4996-3.5282 9.4996-0.8841 0 1.0642-0.76599 1.3351-2.75 0.97287-6.4349-1.175-6.5495 2.3384-0.18215 5.5867 7.9764 4.0693 1.6398 12.716-6.8178 9.3031zm19-0.87167c-1.9038-1.3364-2.25-2.494-2.25-7.5228 0-4.6163-0.33492-5.9433-1.5-5.9433-0.825 0-1.5-0.45-1.5-1s0.675-1 1.5-1c0.91545 0 1.5-0.93256 1.5-2.393 0-1.3162 0.675-2.652 1.5-2.9686 1.1257-0.43198 1.5 0.16509 1.5 2.393 0 2.4999 0.39476 2.9686 2.5 2.9686 1.375 0 2.5 0.45 2.5 1s-1.1475 1-2.5499 1c-3.7456 0-3.4042 11.294 0.35753 11.827 1.2692 0.17991 2.1319 0.85491 1.9171 1.5-0.60508 1.8174-2.9972 1.8781-5.4748 0.13895zm27.75 0.85096c-5.9436-2.2648-7.9106-9.6183-3.9274-14.682 3.9725-5.0502 12.927-2.3728 12.927 3.8651 0 2.3889-0.26667 2.5-6 2.5-4.3594 0-6 0.36778-6 1.345 0 2.4155 3.566 4.655 7.4121 4.655 2.5559 0 3.6236 0.39909 3.3442 1.25-0.44007 1.3406-5.2882 2.0075-7.7563 1.067zm6-11.617c0-3.6982-6.1955-5.0717-7.9648-1.7657-1.5608 2.9163-1.3919 3.0657 3.4648 3.0657 3.0256 0 4.5-0.42593 4.5-1.3zm49.061 10.361c-1.5822-1.5822-2.0615-3.3401-2.0615-7.5615 0-4.2222-0.34848-5.5-1.5-5.5-0.825 0-1.5-0.45-1.5-1s0.675-1 1.5-1c0.93333 0 1.5-0.94444 1.5-2.5 0-3.1534 2.7375-3.3686 3.1804-0.25 0.20536 1.446 1.1236 2.3642 2.5696 2.5696 3.0879 0.43855 2.8483 2.1804-0.2999 2.1804-3.7456 0-3.4042 11.294 0.35753 11.827 1.2692 0.17991 2.1319 0.85491 1.9171 1.5-0.67162 2.0173-3.5137 1.884-5.6633-0.26562zm39.393-0.51603c-5.3726-5.3726-1.7304-15.545 5.5657-15.545 4.3352 0 6.5913 1.4469 7.8397 5.0281 3.2512 9.3265-6.7498 17.173-13.405 10.517zm9.3674-2.0462c2.1709-2.7598 1.5849-8.9915-0.99962-10.63-5.6424-3.5775-10.756 6.1977-5.8223 11.131 2.6534 2.6534 4.4443 2.522 6.8219-0.50076zm-545.82-7.9992v-11.5h5.2775c8.0479 0 11.395 3.4774 9.1013 9.4552-0.80288 2.0923-5.5674 4.5448-8.8292 4.5448-2.3552 0-2.5497 0.34329-2.5497 4.5 0 3.3333-0.38889 4.5-1.5 4.5-1.2464 0-1.5-1.9444-1.5-11.5zm9.4983-0.49936c4.8171-1.8315 3.2099-7.4132-2.2483-7.8081l-4.25-0.3075v4.5575c0 4.9921 1.1174 5.604 6.4983 3.5581zm9.3105-0.0987c-0.29834-11.688 0.06042-13.719 2.1912-12.402 1.7177 1.0616 1.2956 24.5-0.4412 24.5-1.1585 0-1.5018-2.3731-1.75-12.098zm117.82-0.15286c0.12012-11.674 0.22582-12.264 2.25-12.569 2.0696-0.31137 2.124 2e-3 2.124 12.25 0 12.369-0.036 12.57-2.25 12.569-2.2177-9.1e-4 -2.2482-0.17683-2.124-12.25zm83.374 4.2195c0-7.9812 1.7745-11.57 3.9669-8.0222 0.60736 0.98274 1.1776 0.98025 2.7666-0.0121 2.4044-1.5016 5.4518-0.58097 4.6857 1.4156-0.30089 0.7841-1.8683 1.6899-3.4831 2.0129-2.8582 0.57164-2.9361 0.74692-2.9361 6.6122 0 5.76-0.10996 6.025-2.5 6.025-2.4592 0-2.5-0.13124-2.5-8.0314zm23.75 0.26162c-3.1846-9.0438-3.2312-9.3521-1.3014-8.6116 0.79674 0.30574 2.2067 2.8791 3.1332 5.7186 2.4153 7.4024 2.4806 7.4242 4.5459 1.5216 1.0313-2.9474 2.0824-5.9138 2.3358-6.592 0.90354-2.418 3.196-0.11283 4.9916 5.0193 2.3602 6.7456 3.1352 7.5122 3.8717 3.8295 1.0747-5.3734 3.6416-10.547 4.7052-9.4836 1.2125 1.2125-4.7266 16.368-6.4143 16.368-0.62461 0-2.2216-3.0278-3.5488-6.7285l-2.4131-6.7285-2.1626 6.4785c-2.9621 8.8738-4.3914 8.7278-7.7434-0.79127zm26.25-0.73024c0-6.8889 0.28431-8.5 1.5-8.5s1.5 1.6111 1.5 8.5-0.28431 8.5-1.5 8.5-1.5-1.6111-1.5-8.5zm21-4.0833c0-13.01 1.8844-17.48 3-7.1169 0.41203 3.8275 0.76392 4.4763 2 3.6878 2.4244-1.5466 6.5615-1.1296 8.345 0.8412 2.273 2.5116 2.4023 15.171 0.15499 15.171-1.1786 0-1.5-1.385-1.5-6.4648 0-11.61-8.2846-11.839-8.7957-0.24353-0.5926 13.444-3.2043 8.656-3.2043-5.875zm27 11.569c0-0.55777 2.1058-3.5953 4.6796-6.75l4.6796-5.7359-4.7438-0.30741c-6.7465-0.43719-5.4724-2.6212 1.7174-2.9438 7.0866-0.31798 7.37 1.0846 1.6672 8.2513-5.026 6.3161-4.9894 6.7801 0.5 6.3435 3.1369-0.24949 4.5 0.0229 4.5 0.8993 0 0.88067-1.9468 1.2572-6.5 1.2572-3.727 0-6.5-0.43264-6.5-1.0141zm36.15-7.4859c-0.0188-6.734 0.27485-8.5 1.4132-8.5 0.7903 0 1.4369 0.44035 1.4369 0.97856 0 0.60211 0.93722 0.55154 2.4362-0.13146 2.6742-1.2184 6.0567-0.45368 5.0681 1.1458-0.34232 0.55388-1.6308 1.0071-2.8634 1.0071-3.5316 0-4.641 1.9602-4.641 8.2 0 4.3306-0.35803 5.8-1.4132 5.8-1.1049 0-1.4184-1.8542-1.4369-8.5zm69.385 0.54518c0.0358-8.0654 0.84077-10.673 2.4775-8.0246 0.71995 1.1649 1.1568 1.2099 2.1456 0.22104 1.7187-1.7187 5.8416-1.581 5.8416 0.195 0 0.88988-1.2369 1.5559-3.25 1.75l-3.25 0.31336-0.29569 6.75c-0.47677 10.884-3.718 9.8195-3.6691-1.2048zm31.891-0.54643c-0.056-6.4235 0.24919-8.4988 1.25-8.4988 0.72828 0 1.3241 0.41091 1.3241 0.91314 0 0.50458 1.3262 0.41256 2.9641-0.20568 6.32-2.3855 8.4939-0.27666 8.828 8.5635 0.24841 6.5736 0.0503 7.729-1.3255 7.729-1.2628 0-1.5807-0.93223-1.4493-4.25 0.29269-7.3927 0.0319-8.6534-2.0172-9.75-4.0547-2.17-6 0.27298-6 7.5352 0 5.4908-0.26367 6.4646-1.75 6.4636-1.5235-1e-3 -1.7596-1.1014-1.8241-8.5zm51.574-2.9988v-12.25c0-3.2689 2.5974 0.17037 3 3.9722 0.41252 3.8961 0.76243 4.5548 2 3.7653 2.6858-1.7134 6.7996-1.1117 8.4433 1.235 2.3403 3.3413 2.1852 14.777-0.20051 14.777-1.4703 0-1.6985-0.73851-1.3974-4.5233 0.6721-8.4505-1.3022-11.394-6.354-9.4734-2.3038 0.87589-2.4913 1.4384-2.4913 7.472 0 5.1331-0.31993 6.5248-1.5 6.5248-1.2464 0-1.5-1.9444-1.5-11.5zm48.426 2.9988c-0.0691-7.9222 1.3255-11.45 2.8658-7.2488 0.36666 1 0.72333 1 1.7833 0 1.6098-1.5187 5.3658-1.6196 7.9907-0.21482 2.5721 1.3766 2.962 15.965 0.4267 15.965-1.2037 0-1.4556-1.2021-1.25-5.9636 0.31846-7.3736-1.5806-10.115-5.7055-8.2352-2.3384 1.0654-2.5369 1.6662-2.5369 7.6773 0 5.5447-0.2621 6.5212-1.75 6.5202-1.5235-1e-3 -1.7596-1.1014-1.8241-8.5zm-285.24-13.249c0.18536-0.9625 0.99969-1.75 1.8096-1.75s1.6243 0.7875 1.8096 1.75c0.23646 1.2278-0.30348 1.75-1.8096 1.75s-2.0461-0.52215-1.8096-1.75zm-271.69-30.648c-3.6068-1.5929-8.0759-5.9491-10.343-10.081-2.0276-3.6961-3.1162-316.25-1.1272-323.63 1.3605-5.0524 6.3987-10.753 11.47-12.977 3.782-1.6588 19.606-1.757 290.36-1.8018 313.82-0.0519 289.95-0.51022 296.48 5.6929 6.153 5.8445 5.7322-6.621 5.7138 169.3l-0.0169 161.06-2.1945 3.9046c-1.207 2.1475-3.9891 5.1482-6.1825 6.6683l-3.988 2.7637-288.59 0.2136c-237.75 0.17598-289.11-0.01978-291.59-1.1113zm580.4-3.0512c10.657-5.511 10.219-1.4161 9.8836-92.32-0.45776-124.19 0.2152-18.808 0.2152-157.7 0-82.832 0.0617-81.718-4.8136-86.871-5.5496-5.8662-3.2168-5.6614-64.505-5.6614h-460.83c-78.844 0-69.963-11.945-69.611 93.63l4e-5 156.24c-0.29407 88.807-0.54138 86.319 9.1675 92.239 3.2312 1.9704 576.69 2.4086 580.49 0.44203zm-401.9-5.3905c0-0.30876 2.6364-4.6337 5.8587-9.611 15.345-23.703 17.535-27.69 16.297-29.672-2.1488-3.4408 7.0302-15.649 13.345-17.748 6.323-2.1022 15.17-11.046 14.699-14.86-0.34671-2.8066 4.7331-11.284 8.57-14.302 1.3949-1.0972 2.355-2.1253 2.1336-2.2845-0.22146-0.15922-1.5277-0.82852-2.9027-1.4873-2.2494-1.0778-2.0489-1.1485 2-0.70607 4.4864 0.49028 4.4902 0.48801 1.265-0.74867-3.9098-1.4992-4.2066-3.3711-0.46068-2.9051 1.4826 0.18445 3.4844 0.40945 4.4484 0.5 1.1495 0.10797 2.7912-1.6421 4.7702-5.0854 2.2352-3.8888 2.6393-5.25 1.5586-5.25-0.98659 0-1.6602-1.5379-2.0806-4.75-0.34193-2.6125-1.0445-5.7837-1.5613-7.047-0.51677-1.2634-0.93958-5.2188-0.93958-8.7898 0-4.624-0.6049-7.6785-2.1016-10.612-1.1559-2.2658-2.7168-7.9197-3.4687-12.564-1.2312-7.6054-1.7677-8.8795-5.3984-12.818-2.2172-2.4054-4.0313-4.8335-4.0313-5.3958 0-2.3719-2.0761-0.52008-8.9487 7.982-4.0032 4.9524-10.112 11.259-13.576 14.015l-6.2973 5.0109c-20.131 11.041-55.35-44.226-45.178-55.531 4.912-2.215 4.9958-1.0939-1.0382-13.886-5.264-11.16-5.4257-12.614-1.4027-12.614 2.6736 0 2.9069-0.88873 1.5108-5.7566-1.0617-3.7018-0.88796-3.8256 2.3713-1.69 2.5808 1.691 5.5589-0.80197 5.5589-4.6534 0-1.9121 2.3688-4.1978 3.342-3.2246 0.36189 0.3619 0.65799 1.498 0.65799 2.5246s1.1718 4.179 2.604 7.0052c2.4143 4.7644 2.5535 5.7446 1.9108 13.46l-0.69313 8.3209 2.997-0.59939c3.5735-0.7147 3.6126-0.65564 8.7571 13.199 5.3191 14.325 11.795 22.692 12.257 15.835 0.15915-2.3631 1.0885-4.3171 2.7347-5.75 1.8416-1.6029 2.6536-3.5498 3.1055-7.445 0.50738-4.3737 1.2708-5.9334 4.4697-9.1324 3.4041-3.4041 3.8617-4.4302 3.8906-8.7254 0.0425-6.3088 5.0143-10.92 15.467-14.345 3.85-1.2616 7.1821-2.4524 7.4047-2.6462 0.22258-0.1938-1.6899-3.5024-4.25-7.3524-5.8766-8.8376-6.2647-7.7728 4.8453-13.292 8.6528-4.2982 11.616-6.7322 8.1962-6.7322-1.8135 0-7.4298-6.0727-7.8612-8.5-0.21023-1.1829-1.2925-2.1334-2.6491-2.3266-3.0822-0.4389-3.9692-3.25-3.9103-12.393 0.0325-5.0446-0.41407-8.2425-1.3002-9.3102-3.7865-4.5625 1.4765-20.011 7.3528-21.583 1.5193-0.40632 4.1774-2.1222 5.9069-3.8131 1.7295-1.6909 3.6216-3.114 4.2047-3.1626 0.84577-0.0703 18.654-0.0207 24.369 0.0679 0.71996 0.0112 1.0309 0.4703 0.69098 1.0203s-0.029 1.0041 0.69098 1.0091c0.71996 5e-3 3.5056 1.0728 6.1902 2.3729l4.8812 2.3638-5.7624 1.9327 3.65 3.6607c2.0075 2.0134 4.37 3.6607 5.25 3.6607 2.5199 0 1.8656 2.8952-0.80581 3.5657-1.4851 0.37274-3.4105-0.0545-5.0312-1.1164-1.444-0.94612-2.8749-1.4707-3.1798-1.1658-0.30495 0.30494 0.3841 1.0567 1.5312 1.6706 2.4245 1.2976 2.7607 3.0458 0.58565 3.0458-1.793 0-1.877 1.3417-0.37589 6.0066 0.61826 1.9214 1.4058 8.8934 1.75 15.493l0.62589 12 4 0.26654c6.8546 0.45677 8.6637 1.1299 8.1082 3.0168-0.27795 0.94418-0.61928 4.1678-0.75851 7.1637l-0.25313 5.447 4.9517 1.2837c2.7234 0.70605 6.3017 1.2402 7.9517 1.187 1.6589-0.0535 2.2177-0.30114 1.25-0.55404-0.9625-0.25152-1.75-0.69929-1.75-0.99504 0-1.7665 34.474-66.064 36.575-68.214 0.56491-0.57845 9.4254 4.2557 9.4254 5.1423 0 0.41095-6.4401 12.562-14.311 27.002-7.8712 14.44-14.907 27.732-15.635 29.538-0.72819 1.8062-2.3881 4.1209-3.6886 5.1439-3.2301 2.5408-3.1214 2.6192 3.0953 2.2319 4.3209-0.26918 5.5893-0.73945 6.0688-2.25 0.70284-2.2145 1.4504-2.332 4.8835-0.76776 2.0455 0.93201 2.3225 1.4852 1.5068 3.0094-1.0583 1.9774-0.7908 2.1528 8.081 5.3002 2.6044 0.92397 4.353 2.6759 6.8336 6.8469l3.3336 5.6052 12.666 4.9937c9.9392 3.9185 14.174 6.2143 19.666 10.663 3.85 3.1181 11.05 7.6972 16 10.176 14.978 7.4999 19.833 11.701 31.522 27.278 8.7885 11.712 10.901 13.965 13.1 13.975 3.4679 0.0154 7.6924 8.5654 5.3888 10.907-1.1659 1.1849-0.93968 1.9377 1.5029 5 2.9303 3.6738 11.627 20.604 14.027 27.306 1.0392 2.9023 1.0698 4.2607 0.14197 6.297-0.65066 1.428-1.183 3.4753-1.183 4.5494s-0.36714 1.953-0.81586 1.953-1.8641 1.9125-3.1453 4.25c-2.4588 4.486-5.9128 8.75-7.0878 8.75-0.38517 0-2.1474-4.1625-3.9162-9.25-5.6081-16.131-10.192-20.567-10.84-10.491-0.45077 7.0117-1.746 5.7631-2.9543-2.848-0.91587-6.5268-0.80497-8.5213 0.79236-14.25 2.3041-8.2635 1.245-10.391-3.8593-7.751-4.4294 2.2906-4.1809 2.4066-15.405-7.1929-5.648-4.8306-12.17-10.296-14.493-12.146-2.323-1.8498-6.0198-6.335-8.2152-9.9672-3.8177-6.3162-4.2862-6.7094-10.752-9.0249-4.3903-1.5723-8.3466-3.8943-11.285-6.6234-4.0405-3.7529-6.053-4.6488-18.819-8.3776l-14.295-4.1752-7.7624 6.1479-0.10085 17.963c-0.0555 9.8794-0.30126 18.531-0.54621 19.225-1.622 4.5963-4.386 25.215-3.4571 25.789 1.7797 1.0999 3.0454 13.037 1.7615 16.612-1.8328 5.1039 2.1769 13.761 8.1129 17.517l4.5816 2.8985 8.1291 27.763-2.4161 4.0912c-1.3288 2.2501-3.0454 4.0912-3.8146 4.0912-1.7001 0-1.812 4.5745-0.26894 11 8.0707 33.608 7.4382 35.475-12.082 35.653l-16.787 0.15277-3.4376-4.1528c-1.8907-2.284-4.4936-7.0778-5.7842-10.653s-4.1445-8.9321-6.342-11.905c-2.1975-2.9726-5.2104-8.5677-6.6953-12.434-2.3614-6.148-3.126-7.1744-6.1008-8.1899-8.769-2.9932-8.5793-3.0457-11.802 3.2645-2.2347 4.3756-4.2244 6.6066-8.2617 9.2637-2.9249 1.925-9.8584 7.6192-15.408 12.654-5.5493 5.0345-12.754 10.842-16.01 12.905s-7.4968 4.9818-9.424 6.4856l-3.5041 2.7342-19.746-0.0282c-10.86-0.01558-19.746-0.28092-19.746-0.58968zm-5-223.72c0-0.85746 0.45-1.2809 1-0.94098s1 1.0415 1 1.559-0.45 0.94098-1 0.94098-1-0.70156-1-1.559zm-24.063 0.30902c-0.0345-0.1375-2.4227-8.575-5.3072-18.75-5.1437-18.145-5.3675-24.063-0.73501-19.439 0.99056 0.98878 10.862 37.349 10.294 37.917-0.51906 0.51907-4.1319 0.75054-4.2517 0.27241zm22.577-4c-1.1939-3.5289-2.5061-13.829-2.4439-19.184l0.0705-6.0663 1.4984 4c0.82411 2.2 1.6904 8.1625 1.9252 13.25 0.3913 8.4809 0.0339 11.204-1.0501 8zm-15.891-5.9989c-3.7463-4.9116-4.5539-9.6951-1.7603-10.426 2.4037-0.62858 2.6582-1.4039 1.0038-3.0582-1.4202-1.4202-0.41308-4.2672 1.5096-4.2672 2.3347 0 5.6201 11.08 4.6115 15.552-1.2659 5.6129-2.4048 6.0798-5.3646 2.1994zm9.0322-5.5717c-1.5107-0.29675-1.7311-0.96468-1.2192-3.6936 0.52048-2.7744 0.28544-3.4391-1.4059-3.9759-3.4752-1.103-2.7697-6.1744 0.93462-6.718 2.7985-0.41073 2.9998-0.20601 3.5757 3.6365 1.0247 6.8376 0.26439 11.173-1.8852 10.751zm132.34-2.9089c0-3.131 28.871-55.799 29.98-54.691 1.1336 1.1336-26.401 53.984-28.556 54.811-0.7829 0.30043-1.4235 0.24616-1.4235-0.12059zm22.757-8.0513c2.6087-4.8295 10.143-18.775 16.743-30.99 9.9442-18.404 14.5-25.221 14.5-21.696 0 1.0393-4.946 10.267-14.744 27.507-5.4573 9.6028-11.149 20.158-12.647 23.457-2.6467 5.825-6.1103 10.503-7.7767 10.503-0.45032 0 1.3156-3.9514 3.9243-8.7809zm8.7094 5.1159c-2.1814-1.4539-4.0894-2.7346-4.2398-2.8461-0.15044-0.11149 5e-3 -0.92923 0.346-1.8172 0.64884-1.6909 7.3651 0.8001 8.9138 3.306 1.9304 3.1234-1.1289 3.9506-5.02 1.3573zm2.6182-6.2219-2.4155-1.8714 6.1868-11.371c8.4004-15.439 7.3673-14.182 10.485-12.762 3.5572 1.6208 3.5095 1.8225-3.2885 13.891-8.2985 14.732-8.0053 14.408-10.968 12.113zm-184.63-6.3631c-2.2098-6.8113-2.6669-7.2212-6.5438-5.8697-3.7798 1.3177-3.4949 1.4842-4.3579-2.5467l-0.67792-3.1664 5.6404-1.1709c3.1022-0.64402 5.9375-0.87384 6.3006-0.51071 1.6367 1.6367 4.9627 17.031 3.8348 17.749-2.0448 1.3022-2.4641 0.85416-4.1962-4.4847zm5.6192-3.8758c-1.2065-4.0558-2.4226-8.1618-2.7025-9.1242-0.40226-1.3834 0.10303-1.75 2.4118-1.75 1.6064 0 5.6168-0.2818 8.912-0.62621l5.9913-0.62622 2.0466 8.1493c2.4216 9.6426 2.4386 9.6198-7.955 10.685l-6.5105 0.66702zm-11.434-14.364c-0.38503-1.0034 0.24826-1.6956 1.9396-2.1201 2.9343-0.73646 3.8996-0.0872 3.073 2.0668-0.75657 1.9716-4.2622 2.0089-5.0126 0.0533zm7.5613-3.7602c-0.7802-2.9705-0.63217-3.3043 1.7214-3.8817 5.6283-1.3807 7.8301-0.98031 8.4624 1.5388 0.33228 1.3239 0.8792 3.1239 1.2154 4 0.51417 1.3399-0.27481 1.5929-4.9671 1.5929-5.4518 0-5.5978-0.0738-6.432-3.25zm177.63-19.781c-1.3973-0.81552-1.482-1.4494-0.53076-3.9696 1.2832-3.3995 1.4825-3.474 4.0648-1.5184 3.8021 2.8793 0.57705 7.8874-3.534 5.488zm4.7055-6.8996c-0.73955-1.1966 1.1416-2.3822 2.4736-1.559 1.1184 0.69118 0.38417 2.4899-1.0163 2.4899-0.48508 0-1.1409-0.41891-1.4573-0.9309zm14.707-0.78738c-1.7176-0.61611-1.5782-2.2817 0.19098-2.2817 1.6564 0 2.9673 1.649 1.8253 2.296-0.42147 0.23878-1.3288 0.23237-2.0163-0.0142zm-329.03-65.532 0.27903-13.25 6.3127-0.23274c14.035-0.51744 16.777 17.898 2.8978 19.462-4.5772 0.51591-4.7105 0.62638-4.7105 3.9009 0 2.9383-0.32397 3.37-2.529 3.37h-2.529zm12.366-0.24271c3.0033-4.5836 0.51717-9.4622-4.8372-9.492-2.6962-0.015-2.75 0.10219-2.75 5.9847 0 6.9877 4.073 8.8706 7.5872 3.5073zm-29.844 5.4089c-1.4034-0.81731-1.5402-1.4273-0.68026-3.0342 0.83624-1.5625 1.3819-1.7576 2.4461-0.87435 0.75338 0.62525 2.6345 0.99181 4.1803 0.81457 3.8945-0.44656 4.3365-4.0023 0.80575-6.482-9.3293-6.5522-10.754-9.8693-6.1135-14.229 3.2521-3.0552 10.958-2.7319 11.417 0.47886 0.26476 1.8532-0.18828 2.0797-4 2-6.1915-0.12949-6.7068 3.3959-0.92735 6.3444 7.2437 3.6955 9.1216 9.1638 4.6742 13.611-2.6398 2.6398-8.4618 3.316-11.802 1.3708zm41.968-0.92839c-4.806-3.7804-4.353-13.027 0.8037-16.406 5.8432-3.8286 14.485 0.0817 14.485 6.5544v2.8636h-7c-7.2749 0-7.9021 0.38404-5.6522 3.461 1.0659 1.4577 2.2022 1.7286 5.433 1.2953 2.9451-0.39502 4.233-0.16265 4.615 0.83266 1.3568 3.5357-8.5751 4.6311-12.684 1.3989zm10.103-11.738c-0.51265-2.7062-6.3763-2.9385-7.7839-0.3084-1.038 1.9395-0.83534 2.0584 3.5069 2.0584 3.8487 0 4.5538-0.28853 4.277-1.75zm10.679 11.498c-8.2375-7.0856-0.71632-20.029 10.066-17.323 4.5357 1.1384 2.7293 4.1402-2.2542 3.7459-4.6732-0.36973-6.3057 1.3493-6.3057 6.6402 0 4.0499 2.1602 5.5642 7.0096 4.9137 3.3727-0.45237 3.9904-0.2569 3.9904 1.2626 0 3.7028-8.4855 4.2186-12.506 0.76027zm18.207 1.6195c-0.38568-0.38568-0.70124-4.0012-0.70124-8.0346 0-4.2222-0.42424-7.3333-1-7.3333-0.55 0-1-0.92851-1-2.0634 0-1.7255 0.53216-2.012 3.25-1.75l3.25 0.31336v9.4863c0 9.2812-1.1238 12.057-3.7988 9.3816zm10.954-1.1966c-4.2544-4.7011-0.27974-11.171 6.8626-11.171 4.3892 0 2.2764-2.467-2.407-2.8105-5.7023-0.4182-5.5281-3.53 0.22415-4.0044 7.2969-0.60186 8.8136 1.593 10.065 14.565 0.49703 5.1535-1.7972 7.6514-3.9011 4.2473-0.41425-0.67028-1.2409-0.67028-2.4933 0-2.8955 1.5496-6.5251 1.1906-8.3501-0.82604zm9.345-5.7064c0-2.903-2.9358-3.3862-5.4286-0.89339-2.0227 2.0227-1.9845 3.098 0.15275 4.2941 2.4684 1.3814 5.2758-0.42818 5.2758-3.4007zm11.709 6.9107c-0.73978-0.73978-1.0223-26.376-0.29064-26.376 0.23002 0 1.1038-0.26306 1.9416-0.58458 1.3038-0.5003 1.5695 1.1939 1.843 11.75 0.17581 6.784 0.53958 12.999 0.80839 13.811 0.51598 1.5586-2.9997 2.702-4.3024 1.3993zm45.291-12.835c0-12.874 0.09847-13.54 2-13.54 1.8783 0 2 0.66667 2 10.952v10.952l6.25 0.29771c10.75 0.51206 9.1439 4.1958-2 4.5882l-8.25 0.29044zm21.923 10.536c-6.224-6.224-2.0441-17.077 6.5769-17.077 4.4735 0 9.5 4.4567 9.5 8.4231 0 2.5238-0.14428 2.5769-7 2.5769-5.279 0-7 0.33868-7 1.3776 0 2.3613 2.7452 3.7976 6.6201 3.4638 3.9173-0.33749 5.8584 1.6078 3.2518 3.259-3.1154 1.9735-8.9379 0.98749-11.949-2.0234zm11.077-9.8769c0-1.4976-2.394-3.2-4.5-3.2s-4.5 1.7024-4.5 3.2c0 0.44 2.025 0.8 4.5 0.8s4.5-0.36 4.5-0.8zm8.655 10.971c-4.2251-4.6687-0.50374-11.171 6.3932-11.171 4.7631 0 3.0792-2.4426-1.9375-2.8105-5.7023-0.4182-5.5281-3.53 0.22415-4.0044 7.3155-0.60339 9.0115 1.8734 9.9736 14.565 0.39005 5.1451-1.7682 7.5511-3.8101 4.2473-0.41425-0.67028-1.2409-0.67028-2.4933 0-2.8955 1.5496-6.5251 1.1906-8.3501-0.82604zm9.345-5.7064c0-2.7178-0.63941-2.9326-4.4349-1.4896-2.9493 1.1213-3.3554 3.4831-0.84092 4.8903 2.4684 1.3814 5.2758-0.42818 5.2758-3.4007zm11.418 5.0442c-5.9668-5.9668-0.92114-18.254 7.111-17.316 3.4233 0.39965 3.4709 0.35305 3.4709-3.394 0-2.0896 0.4132-3.7992 0.91821-3.7992 0.50502 0 1.63-0.27314 2.5-0.60699 1.396-0.53571 1.5818 1.0394 1.5818 13.413v14.02l-6.5819 0.0505c-5.6657 0.0435-6.9185-0.28608-9-2.3676zm10.582-7.509c0-5.9048-0.0444-6-2.8-6-4.762 0-7.475 7.325-4 10.8 3.6737 3.6737 6.8 1.467 6.8-4.8zm11.672 7.9567c-4.9194-3.8696-4.4262-12.922 0.8939-16.408 5.9439-3.8946 14.434-0.12667 14.434 6.4058v3.0454h-7c-7.2749 0-7.9021 0.38404-5.6522 3.461 1.0659 1.4577 2.2022 1.7286 5.433 1.2953 2.9451-0.39502 4.233-0.16265 4.615 0.83266 1.3656 3.5586-8.5794 4.6277-12.724 1.3678zm10.143-11.707c-0.51265-2.7062-6.3763-2.9385-7.7839-0.3084-1.038 1.9395-0.83534 2.0584 3.5069 2.0584 3.8487 0 4.5538-0.28853 4.277-1.75zm9.8515 13.083c-3.4641-3.4641 0.19009-21.357 3.757-18.397 0.95737 0.79455 1.6026 0.82982 2.0463 0.11188 1.1217-1.8149 6.8472-1.3175 6.137 0.53323-0.33385 0.86998-0.60699 1.77-0.60699 2 0 0.23001-1.035 0.41821-2.3 0.41821-3.7285 0-4.7 1.9018-4.7 9.2 0 6.6582-1.5768 8.8899-4.3333 6.1333zm-130.67-10.333c0-1.7333 0.66667-2 5-2s5 0.26667 5 2-0.66667 2-5 2-5-0.26667-5-2zm-51.636-12.493c-0.34636-0.90262-0.15025-2.1206 0.43581-2.7067 1.5236-1.5236 4.4104-0.13109 4.0124 1.9355-0.4433 2.3019-3.6477 2.8574-4.4482 0.7712zm-106.38 359.49c0.003156-230.45-0.33014-419.06-0.74066-419.13-0.41052-0.0717-2.8839-0.19671-5.4964-0.27779l-4.75-0.14743v838.56h10.981zm642.02 403.75c2e-3 -8.3875 0.012-197.05 0.0234-419.25l0.0206-404h-10.067l-4e-3 335.5c-2e-3 184.52 2e-3 373.19 0.01 419.25l0.01403 83.75h10zm-84.056-732.3c44.571-10.505 60.019-65.686 27.467-98.109-36.566-36.419-98.931-10.102-98.716 41.658 0.15419 37.214 35.168 64.955 71.249 56.451zm-26.842-6.0334c-27.931-7.5111-44.472-38.689-35.052-66.069 18.746-54.485 100.02-41.405 99.936 16.083-0.0502 34.117-32.094 58.803-64.884 49.986zm34.398-6.8302c13.121-6.4542 22.815-18.116 25.759-30.987 1.2958-5.6658 1.6197-18.717 0.51877-20.904-0.49936-0.99217-1.0244-2.7922-1.1668-4-0.41913-3.555-1.7753-7.696-2.5205-7.696-0.37989 0-1.2261-1.4625-1.8805-3.25-9.1866-25.093-52.495-31.467-74.425-10.954-39.524 36.97 5.1573 101.68 53.716 77.791zm-21.502-7.3324c-8.9814-1.3159-13.997-6.4507-22.228-22.755-2.499-4.95-5.3817-10.447-6.4062-12.216-4.9119-8.4802 3.9574-7.9553 9.3818 0.5552 6.2197 9.7584 9.9629 9.8264 8.8322 0.1605-2.8282-24.177-2.9617-27.046-1.3338-28.674 2.1495-2.1495 4.4465-1.0884 5.1015 2.3566 0.29465 1.5497 1.3031 6.9801 2.241 12.068 2.3181 12.574 3.4092 11.619 3.4255-3 0.0165-14.792 0.43073-16.75 3.544-16.75 3.7551 0 3.5805-0.96644 4.2914 23.75 0.25842 8.9849 1.7616 5.7761 2.943-6.2823 1.2457-12.714 1.4811-13.468 4.208-13.468 3.0495 0 3.3938 1.7368 3.1144 15.712-0.31378 15.7 0.30469 16.256 5.3896 4.8439 3.6144-8.1116 5.4954-10.292 7.7016-8.9288 1.804 1.115 0.20107 8.6363-3.5863 16.827-2.8094 6.0759-3.8908 10.011-4.5792 16.665-1.5394 14.879-8.6941 21.091-22.04 19.135zm-418-63.005 2e-3 -3.75-19.004 0.63724v-2.6394c0-2.5983 0.0973-2.6354 6.25-2.383l6.25 0.25636 0.19769-3.4797 0.19768-3.4797-6.4477 0.41055c-6.4468 0.4105-6.4477 0.41017-6.4477-2.3025v-2.713l19.002 0.69306-2e-3 -6h-26.5v27.445l13 0.30891c7.15 0.16991 13.112 0.40718 13.25 0.52729 0.1375 0.1201 0.25101-1.4691 0.25224-3.5316zm150 0 2e-3 -3.75-19.004 0.63724v-2.6574c0-2.619 0.0867-2.6526 6.0018-2.3186l6.0018 0.33882v-7l-6.0018 0.33882c-5.9314 0.33485-6.0018 0.30729-6.0018-2.3495v-2.6883l18.001 0.699-5.1e-4 -3.8724c-3.8e-4 -2.9652-0.29334-3.6379-1.2505-2.8712-0.71418 0.57203-6.3017 0.90415-13.035 0.77479-10.871-0.20886-14.31 0.3653-11.731 1.9588 1.5244 0.94215 1.3481 23.51-0.18369 23.51-0.773 0-0.85578 0.34422-0.23265 0.96735 0.53205 0.53205 6.5846 1.1098 13.45 1.2838 6.8655 0.17404 12.82 0.41373 13.233 0.53265s0.75101-1.4713 0.75224-3.5338zm-222.5 0.29819c2.6636-1.3485 5.2149-2.2219 5.6695-1.941 1.3833 0.85492 0.93247-0.69972-1.2065-4.1607l-2.033-3.2895-2.3552 2.3552c-10.406 10.406-29.667-3.274-19.639-13.948 4.9869-5.3084 18.442-5.1528 20.55 0.23763 0.56747 1.451 1.0167 1.2614 3.0823-1.3014 2.7373-3.3962 3.011-4.5 1.1158-4.5-0.72169 0-3.2936-0.95733-5.7154-2.1274-14.566-7.0375-31.631 2.5794-29.523 16.637 1.857 12.384 17.219 18.537 30.055 12.038zm19.686-3.5967-0.43751-6.0485 13.6 0.59702 0.19688 4.75c0.10828 2.6125-0.19595 4.75-0.67608 4.75-0.48012 0-0.87295 0.45-0.87295 1s2.1375 1.0004 4.75 1.0008l4.75 7.7e-4 -0.41972-27.502-3.7901-0.11247c-4.6065-0.13669-5.7195 0.39017-4.3389 2.0538 0.57663 0.69479 0.92588 2.7922 0.77613 4.661l-0.27228 3.3977-13.608 0.59487 0.5533-10.595-3.45-0.0846c-5.2317-0.12832-5.9828 0.36821-4.8929 3.2348 1.1168 2.9375 1.1376 11.943 0.0429 18.593-0.93532 5.6817-0.87797 5.7571 4.3805 5.7571h4.1471zm64.42 4.4761c-1.3732-3.5785 1.1333-5.4276 7.3572-5.4276 6.2036 0 7.948 1.4499 6.4479 5.3591-0.53759 1.4009 0.19022 1.6409 4.9773 1.6409 4.8618 0 7.3577-1.1328 4.774-2.1667-1.6137-0.64575-12.349-21.916-11.793-23.365 0.44976-1.1721-0.46031-1.4682-4.5122-1.4682-4.0447 0-4.9615 0.29727-4.514 1.4636 0.30891 0.80498-2.0038 6.5425-5.1393 12.75-3.1355 6.2075-5.8526 11.624-6.038 12.036s1.7736 0.75 4.3533 0.75c3.8544 0 4.5828-0.28026 4.0869-1.5724zm3.3894-9.9772c0-0.89784 3.0128-6.4503 3.5-6.4503s3.5 5.5525 3.5 6.4503c0 0.30231-1.575 0.54966-3.5 0.54966s-3.5-0.24735-3.5-0.54966zm31.457 10.619c0.31644-0.512 0.17113-1.1807-0.3229-1.486-0.49403-0.30533-0.92253-2.3151-0.95221-4.4661l-0.054-3.911 8.0326-0.36478c11.521-0.52321 16.663-7.4368 10.284-13.828-2.0947-2.0986-27.453-2.9327-25.721-0.84606 1.242 1.4965 1.2651 22.178 0.0261 23.416-1.6689 1.6683-0.5262 2.4164 3.691 2.4164 2.4425 0 4.6999-0.41891 5.0163-0.9309zm0.23424-15.789c-1.1879-0.29484-1.7026-1.1919-1.5-2.6143 0.49934-3.5053 13.808-3.7033 13.808-0.20538 0 2.4354-7.2059 4.0861-12.308 2.8197zm44.808 15.72c0.33992-0.55 0.14148-1-0.44098-1-0.62769 0-1.059-2.4438-1.059-6v-6h18.226l-0.39553 7-0.39554 7h9.0654v-33h-9.0948l0.83296 13.081-17.738-0.58134 0.02-12.5h-8.02v33h4.191c2.305 0 4.4691-0.45 4.809-1zm71.5 0c0-0.55-0.45-1-1-1s-1-2.025-1-4.5c0-4.418 0.0592-4.4993 3.25-4.462 3.6391 0.0425 9.2309 6.5453 8.1193 9.4421-0.47913 1.2486 0.41783 1.52 5.0237 1.52 3.0838 0 5.607-0.45 5.607-1s-0.37372-1-0.83048-1c-0.88447 0-7.6272-8.968-7.0254-9.344 0.19571-0.12226 1.5865-0.84228 3.0907-1.6 5.3657-2.7031 4.3049-12.266-1.4975-13.5-1.2305-0.26171-6.9624-0.67348-12.737-0.91504l-10.5-0.43921v27.798h4.75c2.6125 0 4.75-0.45 4.75-1zm1.6888-15.758c-3.2599-0.31609-3.7662-0.68572-3.5-2.5555 0.41269-2.8992 12.393-3.9381 13.457-1.1668 1.1317 2.9491-2.7944 4.4169-9.9569 3.7224zm45.013 14.799c6.0628-3.6967 8.3614-12.74 4.7795-18.803-5.3424-9.0439-21.883-9.007-27.581 0.0615-7.8023 12.418 9.6481 26.762 22.801 18.742zm-12.344-4.0321c-8.5019-3.4309-6.0166-16.008 3.1633-16.008 4.815 0 7.0537 1.3393 8.3225 4.9789 2.5393 7.2843-4.3568 13.906-11.486 11.03zm-322.36-9.5752c0-2.3408 6.9695-15.038 10.552-19.222l3.3923-3.9632-11.562-11.234c-8.7642-8.5154-11.843-10.954-12.722-10.076-1.1231 1.1211-2.3563 42.801-1.3445 45.445 0.65217 1.7038 11.685 0.80764 11.685-0.94915zm639.75 1.6391c1.4242-0.0824 1.8446-44.588 0.44201-46.796-0.52848-0.83182-4.4136 2.4231-12.135 10.166l-11.358 11.39 2.964 3.8336c4.0082 5.1844 6.8159 10.209 8.335 14.915 2.3739 7.3548 1.8475 7.064 11.752 6.4909zm-309.52-33.659 15.265-7.5865 21.5 0.03364v-10.861h-31.585l-1.1755 4.3949c-5.3958 20.174-33.418 18.305-39.656-2.6449-0.46721-1.5692-2.1258-1.75-16.052-1.75h-15.531v10.908l21.938-0.49033 14.781 7.6458c8.1294 4.2052 14.886 7.7111 15.015 7.791 0.129 0.0798 7.104-3.2687 15.5-7.4413zm-310.09 3.1938c2.1799-1.8659 7.7598-5.1284 12.4-7.25l8.4362-3.8574 0.01842-10.5h-22.066c-29.973 0-29.307-0.60543-14.893 13.537 13.566 13.311 11.305 12.178 16.105 8.07zm605.83-9.0315c13.504-13.319 14.386-12.541-14.229-12.561l-22.75-0.015313 0.012 10.5 6.2893 2.3676c3.4591 1.3022 8.9687 4.2999 12.244 6.6616 7.293 5.2594 5.2812 6.0183 18.433-6.9534zm-302.98 0.89871c4.4621-2.2927 9-8.6154 9-12.54 0-0.5432-7.1225-0.9349-17-0.9349-19.079 0-19.413 0.1589-14.75 7.0102 5.5192 8.1094 14.553 10.676 22.75 6.4644zm-105.64-2.5289 41.638 0.10147v-11.047h-215v4.8333c0 2.6583 0.15011 5.5077 0.67563 5.509 59.444 0.14664 115.03 0.39454 172.69 0.6034zm368.44-5.6957 0.30226-5.25h-216.1v4.8333c0 2.6583 0.30202 5.1354 0.67115 5.5045s48.857 0.55663 107.75 0.41667l107.08-0.25448z"/>
</svg>
