<?xml version="1.0" encoding="UTF-8"?>
<!-- Created with Inkscape (http://www.inkscape.org/) -->
<svg width="822" height="1122" version="1.1" viewBox="0 0 822 1122" xml:space="preserve" xmlns="http://www.w3.org/2000/svg"><path d="m89 1e3c-4.5-1.3-6.7-2.9-8.9-6.5l-2.2-3.5 0.053-461c0.029-254 0.072-465 0.096-469 0.042-7.1 0.16-7.4 4-12l3.9-4.2 320-0.26c237-0.19 321 0.035 323 0.87 1.5 0.62 4.1 2.7 5.7 4.5l3 3.4-2e-3 469c-2e-3 460-0.037 469-1.9 472-1.1 1.7-3.4 4-5.2 5.1-3.5 2.1-634 3.6-641 1.5zm44-8.3c0-4.6-0.35-5.9-1.8-6.4-5.7-1.9-13-6-18-9.5l-5.4-4-11 11c-15 15-16 14 16 14h21zm219 0.45 0.3-5.2-4.3-0.017c-2.4-0.01-51-0.012-108-0.01l-104 0.012-0.32 3.1c-0.18 1.7-0.085 4.1 0.21 5.3l0.53 2.1 215-0.15zm36 1.1c6-20 35-20 40 1 0.47 1.9 1.3 2.8 2.9 2.8 3.9 0.12 13 0.13 21 0.03l7.7-0.096 0.69-10h-19l-33-16-30 15h-22l-0.31 4.4c-0.51 7-1 6.8 16 6.6l15-0.2zm290-0.96-1e-5 -5.2-42-0.27c-23-0.15-71-0.15-108-6e-4l-66 0.27v4.9c0 6.2-13 5.5 110 5.5h105zm50 4.1c1.6-0.92 0.38-2.5-10-13l-12-12-2.5 2.3c-4.5 4.1-12 8.6-18 10l-5.3 1.7v5.2c0 4.7 0.24 5.3 2.2 5.6 5.8 0.83 43 0.18 45-0.77zm-304-1.7c-5-16-25-18-33-3.7-3.1 6-3.2 5.9 16 5.9h18zm309-3c1.7-4.3 0.77-47-0.97-47-0.99-0.021-3.4-0.28-5.5-0.57-3.5-0.51-3.7-0.38-4.9 3.3-2 6-5.9 13-9.6 18l-3.4 4.1 11 11c12 12 12 12 13 11zm-648-1.5c1-0.96 6.2-6 11-11l9.6-9.3-3.9-5.2c-4.2-5.6-8.4-14-9.4-18-0.6-2.5-1-2.7-6.1-2.7h-5.5l-0.029 10c-0.016 5.6-0.092 15-0.17 22-0.18 15 0.55 18 4 14zm307-15c8.3-4.1 15-7.5 16-7.5s7.3 3.4 16 7.5l15 7.5h245l8.3-4.2c11-5.4 19-14 25-25l3.8-7.7 0.51-804h-23l-1.2 6.7c-11 65-111 63-121-2.2l-0.68-4.5h-480l-0.016 74c-0.0088 41-0.015 221-0.014 400l0.0023 327 2.1 5.6c4.9 13 14 23 27 30l7.9 4h245zm-301-41c0.0089-3.4 0.022-192 0.03-419l0.014-412-11-0.58 0.2 417c0.11 230 0.22 418 0.25 419 0.037 1.4 0.97 1.8 5 1.8h5zm643-413 0.027-419h-11v838h11zm-84-328c31-6 52-43 42-74-19-61-110-49-113 14-2.1 39 31 67 71 60zm-24-5.3c-35-7.9-52-49-33-78 28-43 94-24 94 28 0 34-30 58-62 51zm32-7.3c38-19 35-74-5.4-88-15-5-24-4.2-40 3.8-8.2 4-20 19-21 27-0.31 1.7-0.84 3.6-1.2 4.2-2.1 3.5-0.76 20 2.2 27 0.73 1.6 2.1 4.6 2.9 6.6 9.2 20 41 30 63 19zm-563-87c2-5.8 6.1-13 9.9-17l2.6-2.8-11-11c-14-13-14-13-14-0.13-0.0087 5.4-0.065 15-0.12 21-0.16 17-0.75 15 5.7 15l5.6-0.3zm640-18c-0.38-28 0.58-27-13-13l-12 12 2.6 2.8c3.3 3.6 8 12 9.6 17 1.8 5.7 1.6 5.5 7.6 5.5h5.5zm-310-11 15-7.5h20l0.35-5.1c0.44-6.5 1.9-5.9-15-5.9h-15l-1.5 3.8c-3.9 9.9-9.1 14-18 15-11 0.89-20-5.7-23-17-0.38-1.3-2.8-1.5-16-1.5l-15 0.05v10l23 1 14 7.2c17 8.7 13 8.8 31-0.2zm-310 2.5c2.9-2.2 8.3-5.2 12-6.7l6.8-2.7v-5.3c0-6.8 0.7-6.6-25-6.2-26 0.43-26 0.015-12 13 5.8 5.6 11 11 11 11 0.63 1.4 2.1 0.75 7.4-3.3zm614-19c-0.65-0.65-9.4-1-24-1h-23v11l5 1.7c5.5 1.9 12 5.7 17 9.6l3 2.5 11-11c7.7-7.7 11-11 10-12zm-314 13c5.1-2.6 11-9.3 11-13 0-0.3-7.9-0.54-18-0.54-19 0-19 0.02-16 4.8 4.3 8.3 15 12 23 8.6zm-72-3.4 9.6-0.02-0.24-10h-215l-0.1 3.5c-0.22 7.7-5.5 7 55 7.3 30 0.14 74 0.16 98 0.029s48-0.24 53-0.25zm291 3.3e-4 45-0.021v-11l-106 0.037c-122 0.043-109-0.62-109 5.9l0.35 5c57 0.7 113 0.09 170 0.042zm-12 114c2-6.7 3.1-13 4.8-20 1.2-4.6 2.1-8.9 2.1-9.5 7.1e-4 -0.79-3.5-1-11-0.79l-11 0.37 3.5-4.1c1.9-2.3 5.2-6.3 7.4-8.9 2.1-2.6 5.6-6.8 7.7-9.1 6.9-7.8 13-15 16-19 1.8-2.3 3.3-3.5 3.3-2.7s-1.4 8-3.2 16c-1.8 7.9-3.2 15-3.2 15-0.01 0.42 4.8 0.9 11 1.1l11 0.3-5.6 6.6c-3.1 3.6-7.1 8.4-8.9 11-1.8 2.2-4.1 5-5.2 6.3-3.5 4-14 17-17 20l-2.5 3.4zm-500 395c-6-2.7-12-9.7-13-16-0.34-1.4-0.89-39-1.2-84-0.33-45-0.78-92-0.99-105-0.21-13-0.44-48-0.52-78-0.13-52-0.05-54 1.8-58 2.7-6.1 7.6-9.7 15-11 3.2-0.49 92-1.2 198-1.5 106-0.33 220-0.94 255-1.4 35-0.42 76-0.76 92-0.76h29l4.7 2.8c3.6 2.1 5.3 4.1 7.3 8.1l2.6 5.3 0.068 162c0.074 176 0.45 165-5.7 171-6.9 6.5 11 6-225 6.4-118 0.19-246 0.62-285 0.97-63 0.56-71 0.46-74-0.97zm98-2.4c1.5-1.5 27-1.8 29-0.29 0.67 0.67 2.2 1.2 3.3 1.2 1.9 0 2.4-1.2 4.4-10 2.2-9.7 7.7-23 11-25 0.84-0.7 3.9-1.1 7.6-0.87l6.2 0.3-2 2.5c-1.1 1.4-3.9 6.4-6.2 11-2.3 4.7-4.7 9.4-5.2 10-1.9 3.6-1.1 3.9 8.2 3.6l9.2-0.29 2.3-9.1c1.3-5 3.3-11 4.5-14l2.2-4.8 27-0.089c15-0.049 36-0.16 45-0.25 20-0.19 19-0.6 24 8.3 3.6 7.3 5.2 12 6.6 20 0.99 6 1.3 6.6 3.7 6.9 4.6 0.54 5.5-1.9 3.7-10-2.8-13 0.35-25 9.2-35 13-15 37-26 69-32l8.6-1.7-0.27-93 40-0.095c22-0.052 42-0.24 45-0.41 2.4-0.17 4.3-0.13 4.3 0.11s-1.5 1.7-3.2 3.3c-2.9 2.7-3.8 2.9-9.6 2.6-3.5-0.17-6.6 0.1-6.9 0.61-0.31 0.51 0.59 2.6 2 4.7 3.2 4.8 3.2 5.7-0.2 10-1.5 2-3.4 4.8-4.2 6.2-8 14-9.8 18-12 23-1.3 3.3-2.8 6.8-3.3 7.7s-2.3 6.5-4 13c-2.8 9.8-3.2 14-1.3 12 1.6-0.96 25-3.9 36-4.7 6.9-0.43 21-0.5 30-0.16 30 1.1 56 0.57 65-1.3 12-2.4 23-5.4 29-8.3 3-1.4 5.8-2.5 6.2-2.5s1.5-0.8 2.4-1.8c1.6-1.9 2.5-17 1.2-21-0.6-1.6-6.3-1.7-74-1.7h-73l3.1-4.8 72-0.23c39-0.13 72-0.4 72-0.61 0.21-0.21 0.44-45 0.52-101l0.14-100-2.5-4.5c-1.7-3-4-5.3-7.1-6.9l-4.5-2.4-57 0.59c-32 0.32-60 0.56-64 0.53l-6.3-0.06v3c0 1.8-1.1 4.4-2.8 6.4-2.4 2.9-2.8 4.2-2.8 9.7l0.019 6.4h-29l-1.4-4.3c-1.1-3.5-2.1-4.7-5.7-6.3l-4.3-2 0.56-12-59 0.32c-33 0.18-113 0.34-177 0.35-116 0.03-118 0.062-117 2 0.57 1.1 2.8 3.9 5 6.3l4 4.3-4.8 0.65c-21 2.8-38 15-46 32-1.4 2.9-2.5 6.4-2.5 7.6-5e-3 1.3-0.35 2.3-0.77 2.3-1.2-0.015-11-5.9-12-7.1-0.35-0.57-1.1-1-1.7-1-0.66 0-0.82 4-0.47 11 0.3 6.3 0.61 30 0.69 53 0.076 23 0.32 41 0.54 42 0.22 0.37 1.7 0.042 3.2-0.74 3.6-1.8 55-2.8 60-1.2 4.4 1.5 8.5 5.6 9.7 9.8 1.6 5.6 1.3 6.1-2.5 6.1-2.7 0-3.8 0.53-4.5 2.3-1.7 4.1-5.3 21-5.2 25l0.092 3.3h-51l-0.69-4.8c-0.9-6.3-3.3-16-5.3-21-1.3-3.5-1.9-4.1-2.8-3-0.87 0.98-1.1 12-0.74 43 0.24 23 0.76 41 1.1 41 0.7 0 4.2-10 5.9-17l0.85-3.5 54 0.1 1.1 5c0.63 2.7 2.3 7.8 3.7 11l2.6 6.3-19 0.056c-10 0.031-26 0.14-34 0.25l-16 0.2v6.1l36 0.19c21 0.11 36 0.58 37 1.1 0.17 0.52 2.8 5.2 5.9 10 14 23 21 42 23 63 1.6 12 1.9 13 3.8 13 1.2 0 2.6-0.42 3.1-0.93zm54-43c0-1.7 13-13 22-19l8.1-5.3 21 0.27 0.018 24h-27l2.6-3.5c3.6-4.7 3.3-5.6-1.6-5.6-3.7 0-4.8 0.58-8.6 4.6-4.1 4.3-4.8 4.7-10 5.1-3.3 0.25-6 0.032-6-0.49zm58-0.87c0-0.42-0.18-5.9-0.26-12l-0.15-11 18 0.093 7.5 4.9c7.5 4.9 22 17 22 19 0.037 0.42-11 0.76-24 0.76s-24-0.34-24-0.76zm76-3.4c-0.24 0.24 2.2-2.3 0 0zm-105-27c-0.39-0.39-0.7-4.7-0.7-9.7v-9l22 4e-3v19l-10 0.29c-5.6 0.16-10-0.032-11-0.42zm28-0.37c-0.61 0-0.095-18 0.016-18 0.042-0.28 3.9-0.36 8.6-0.18l8.6 0.33v18l-8.6 0.33c-4.7 0.18-8.4-0.18-8.7-0.18zm340-26c-5.2-4.1-2.6-11 4.1-11 4 0 6.3 2.3 6.3 6.5 0 5.7-5.7 8.3-10 4.6zm-370-2.7c-0.38-2-1.8-5.5-3.1-7.6l-2.5-3.9 28 4e-3v15l-21-0.0016zm29-3.8-0.11-7.6 12-0.31c6.7-0.17 12-0.14 12 0.074-1e-3 0.21-0.99 2-2.2 4-1.2 2-2.5 5.2-2.8 7.2l-0.58 3.6-18 0.58zm258 0.49c-2.4-2.4-2.6-4.1-0.83-6.4 3.8-4.9 12-0.014 8.7 5.5-0.55 1-1.4 1.9-1.9 1.9-0.49 0-1.6 0.26-2.4 0.59-0.83 0.32-2.5-0.36-3.6-1.5zm-299-16c0-2.1 4.7-7.5 8-9.2 1.7-0.88 7.1-1.5 14-1.8l12-0.36 0.33 6c0.18 3.3 0.1 6.1-0.17 6.3-0.28 0.16-8.1 0.37-17 0.46-14 0.14-17-0.065-17-1.3zm42 0.46c-0.23-0.23-0.42-2.9-0.42-5.8 0-6.2-1.1-5.7 13-5.6 5.4 0.032 9.3 0.59 11 1.7 3.6 1.9 8.9 9.1 7 9.4-2.6 0.44-30 0.78-31 0.37zm-212-7.2c0.34-3.6 0.62-8.4 0.63-11l7e-3 -4.1 5.1 0.24c2.8 0.13 5.3 0.38 5.4 0.56 0.16 0.18 0.054 4.7-0.23 10l-0.52 9.8-11 0.68zm15-2.8c0.13-4.9 0.24-9.6 0.26-10 0.021-1.2 1.7-1.5 9.1-1.5h9.1l0.1 4.1c0.055 2.2 0.28 6.9 0.49 10l0.39 6.3h-20zm23 4.5c0-2.4-0.28-7.1-0.63-10l-0.63-6.1 12 0.14 0.18 6.1c0.097 3.3 0.43 8 0.74 10l0.56 4.3h-12zm142-54c-10-5.1-19-9.2-20-9s-1.8 0.54-2.8 0.82c-1.2 0.34-3.1-0.85-5.6-3.6-5.7-6.1-7.9-7-10-4.4-1.5 1.6-2.4 1.9-3.8 1.1-2.9-1.6-7.3-7.3-6.7-8.8 0.56-1.5-3.5-21-5.7-27-0.72-2-4-6.6-7.3-10-3.3-3.6-7.1-8.1-8.4-10-2.2-3.3-11-9.8-12-8.9-0.2 0.21 1.6 4.5 4.1 9.5 3.4 7 6.1 11 11 16 5.5 5.4 7.3 7.9 9.2 13 1.3 3.6 3.4 8.4 4.8 11 1.3 2.4 2.1 4.3 1.7 4.3s-6.5-2.8-14-6.3c-9.7-4.8-13-7.1-15-9.8-2.4-3.5-3.4-4.1-11-6.3-8.9-2.7-11-11-7.2-25 1.7-5.7 3-7.9 7.5-12 5.6-5.5 13-9.9 22-13 2.9-0.96 5.3-2.1 5.3-2.6 0-0.45 1.7-1.1 3.8-1.5 2.1-0.39 9.2-2.3 16-4.3 9-2.7 15-3.8 24-4.4 16-1.1 17-0.62 22 9.7 12 25 11 23 11 35 0.011 5.9 0.45 14 0.97 17 0.71 5 0.58 8.4-0.52 14-0.81 3.9-1.5 8.8-1.5 11l-8.2e-4 3.8 9.3 4.5c5.1 2.4 10 4.4 11 4.3 1.7-0.15 2 0.41 1.9 3.6-0.061 2.1-1.1 6.5-2.4 9.9-1.9 5-2.7 6.2-4.4 6-13 7-7.9 3.1-29-7.2zm23-1.3c2.3-5.6 1.9-7.1-2.3-8.6-2.1-0.75-7.9-3.3-13-5.7s-11-5.2-13-6.2c-2.2-0.99-4.3-2-4.7-2.2-0.77-0.41-6.4 7.7-5.7 8.3 0.22 0.2 6.3 3.2 13 6.6 7.2 3.4 15 7.3 18 8.7 2.8 1.4 5.2 2.5 5.3 2.5 0.17 0.034 0.96-1.5 1.8-3.5zm-56-22c-0.8-2.7-1.8-9-2.2-14-0.66-8.5-1.2-10-7-23-3.5-7.3-7.6-15-9.2-16s-4.2-4.5-5.8-6.4-3.1-2.9-3.3-2.3c-0.33 1 8.3 22 11 27 2.5 4.5 8.9 22 11 30 1.8 7.9 4.8 13 6.6 11 0.55-0.55 0.34-2.9-0.54-5.8zm17-2.6c0.81-3.5 0.86-6.6 0.18-10-0.54-2.9-1.2-9.2-1.5-14-0.65-10-3.7-22-7-26-1.3-1.7-2.6-4-2.9-5.1-0.8-2.5-12-15-13-15-0.45 0.44 4.5 15 7.3 21 4.7 11 6.3 15 8 24 1.1 5.5 2.3 12 2.7 15 0.88 6.6 3.4 16 4.4 16 0.42 0 1.3-2.3 1.9-5.1zm19-15c-0.65-28-5.9-46-15-54-2.2-1.8-4.4-3-4.7-2.7s0.87 4.4 2.7 9c5.2 13 6.9 20 9.6 39 1.4 10 2.9 19 3.2 20 0.77 2.2 3.4 5.4 4.4 5.4 0.37 0 0.49-7.6 0.28-17zm-63-0.44c-1.7-3.7-3-4.8-12-9.6-5.6-3-10-5-11-4.5s0.21 2.7 1.1 4.9c1.5 3.5 2.9 4.6 12 9.1 5.6 2.8 10 4.9 11 4.7s-0.14-2.3-1.2-4.6zm249 39 0.24-5.4 17-0.16c15-0.14 87-0.44 89-0.37 1.5 0.045-0.8 2.9-5.7 6.9l-4.9 4.1-96 0.23zm-5.5-15-4.8-2.4v-27l3.3-1.3c4.5-1.8 116-2.6 121-0.94l3.4 1.1 0.32 10c0.52 17 0.47 17-5 20-4.6 2-6.9 2.1-59 2.5l-54 0.41zm-293-40c-1.1-0.73-4.7-3.1-8.1-5.2-11-6.8-20-13-21-14-1.5-1.4-2.8-10-1.9-13 0.57-1.5 0.91-1.5 3.4 0.35 1.5 1.1 3.7 2.9 4.9 4 3.6 3.4 18 12 24 14 2.4 0.93 2.5 1.5 2.5 8.1 0 3.9-0.23 7.1-0.5 7s-1.4-0.65-2.5-1.4zm305 0.99c0-0.35 21-31 24-35 1.7-2.3 2.1-2.3 24-2.5l22-0.23 2.9 4.1c4 5.6 8.6 12 13 19 2.2 3.3 4.3 6.2 4.6 6.5s1.6 2 2.9 3.8l2.3 3.3-34 0.11c-19 0.059-40 0.26-48 0.45-7.6 0.19-14 0.19-14 1e-3zm-307-24c-4.1-2.3-7.7-4.5-7.9-5-0.18-0.51-0.76-0.92-1.3-0.92-1.1 0-7.6-4.6-12-8.9-3.5-3.1-3.5-3.2-1.9-6 0.92-1.6 3.4-4.4 5.5-6.3l3.9-3.4 5.6 4.9c8.3 7.3 19 14 22 15 2.8 0.56 2.8 0.7 1.3 2.4-0.91 1-2.9 4.2-4.5 7l-2.8 5.2zm-39-3.4c-0.83-0.84-1.8-1.5-2.2-1.5-2 0-15-8.8-17-11-4.1-5.8-2.4-17 4.2-27 8.7-13 29-24 43-22 4.6 0.39 5.6 1 11 6.6 3.4 3.4 7.6 7 9.3 8 3.1 1.9 4.4 4.1 1.7 3.1-3.6-1.4-17 3.6-27 9.9-5.6 3.5-13 11-16 17-2.7 4.9-3.5 7.4-3.7 12-0.26 6.6-0.72 7.3-3.2 4.8zm-1.6-28c1.9-3.5 0.82-7.4-2.3-8.5-3.3-1.2-5.6-0.048-6.9 3.3-0.65 1.8-0.29 2.8 1.6 4.8 3 3 6.1 3.2 7.6 0.4zm21-16c2.6-2.4 2.8-4.3 0.62-6.5-3.1-3.1-12-1.4-12 2.3 0 2.8 2.9 5 8.1 6.1 0.31 0.065 1.6-0.81 2.8-2zm36 31c-5-1.9-18-11-21-15-3.3-3.8-3.2-3.9 5.2-7.1 7.3-2.8 8.3-2.6 13 2.1 4.9 5.1 15 14 18 15 1.8 0.66 1.5 0.99-2 2.7-2.2 1.1-4.4 2.4-5 3-1.3 1.3-3.3 1.2-7.8-0.52zm316-11v-7.1h44l0.35 4.8c0.19 2.7 0.2 5.8 0.027 7.1l-0.32 2.3h-44zm-301-3.1c-7.8-6-13-11-11-11 1.1 0 19 15 19 16 0 1.2-2 0.042-8.1-4.7zm302-11c-0.39-0.39-0.71-2.7-0.71-5 0-4.1 0.2-4.4 4.7-6.6 4.2-2.1 6.5-2.3 22-2.7 19-0.4 18-1.2 18 7.3 0.35 7.6 1.8 7.1-22 7.4-12 0.16-22-0.028-22-0.42zm-42 302c1.4-1.7 3.3-1.6 5.5 0.29 0.86 0.72 2.4 1.1 3.4 0.96 1.7-0.33 1.8-2.4 2.1-30 0.15-16 0.067-30-0.18-31-0.5-1.3-6.1 1.2-13 6-2.3 1.5-4.5 2.8-4.8 2.8-1.1 0-16 12-21 16-10 9.8-17 21-19 29l-0.57 3.6 12-0.23c9.4-0.19 12 0.044 12 1.3 0.81 2.1 22 2.2 24 0.066zm220-1.8c7-4.2 8.4-7.7 8.8-24l0.33-13-4.9 0.65c-2.7 0.35-8 1.1-12 1.6-26 3.6-62-3.1-115-22-16-5.5-36-11-41-11-4.4 0-4.5 0.66-4.2 19 0.31 18 5.2 46 8.8 50 0.83 1 17 1.2 78 1l77-0.28zm-131-15c-1.6-0.44-3.9-4.4-3.9-6.8 0-2.2 4.5-5.7 7.2-5.7 2.8 0 5.3 2.3 6.3 5.8 0.5 1.7 0.012 2.9-1.9 4.8-2.4 2.4-4.2 2.9-7.8 1.9zm124-0.34c-2.8-1.1-3.5-2.4-3.6-6.3-0.11-3.8 2.3-5.9 6.8-5.9 6.3 0 8.8 7.2 3.9 11-2.9 2.3-3.8 2.4-7.1 1.1zm-103-17c-2.7-2.1-2.3-7.1 0.71-8.7 5.3-2.8 10 4.4 5.8 8.4-2.2 2-4.1 2.1-6.5 0.27zm-166 32c0.55-0.41 1.1-3.9 1.2-7.8 0.16-5.7 0.84-8.3 3.4-13 6.3-12 19-24 39-36 5.9-3.4 11-6.2 12-6.2s1.5-0.68 2.2-1.5c1.7-2 0.76-2-9.8 0.88-17 4.6-30 11-40 21-7.8 7.5-13 16-16 26-2.1 7.6-2.1 16-0.059 17 1.8 1.1 6.1 1.2 7.5 0.2zm-99-5c3.6-3.3 1-10-3.7-10-1.3 0-3.1 1-4 2.3-4.3 6.1 2.3 13 7.7 8.2zm22-13c1.1-1.1 2-2.9 2-4.1 0-2.6-3.4-6.1-6-6.1-2.1 0-6.1 4.4-6.1 6.7 0 2.1 3.7 5.4 6 5.4 1.1 0 2.9-0.91 4-2zm-15-2.6c2.9 0 2-4.4-0.084-6.7-2.2-2.4-4.6-2.4-6.8 0.1-4.2 4.7 0.65 6.6 6.9 6.6zm365-38c5.5-1.4 11-3.1 11-3.7 1.4-1.2 1.9-18 0.54-18-0.43-0.27-5.3 0.61-11 1.9-14 3.4-16 3.5-39 4.2-23 0.61-41-0.5-63-3.8-13-1.9-38-2.7-41-1.4-2.9 1.1-1.7 2.4 2.2 2.4 4.8 0.014 26 5.7 39 10 33 12 73 15 101 8.3zm-575-9.3c2.8-3.2 5.1-6.1 5.1-6.5 3e-3 -0.36-3.3-0.56-7.3-0.45l-7.3 0.19 0.13 3.5c0.16 4.1 1.9 9.1 3.3 9.1 0.51 0 3.2-2.6 6.1-5.8zm28 0.41c2.3-3 4.2-5.9 4.2-6.5 0-0.72-3-1-8.8-0.92-6.6 0.14-8.8 0.52-8.8 1.5 0 1.9 6.8 11 8.2 11 0.63 0.012 3-2.4 5.3-5.4zm29 5e-3c0.93-3 1.7-5.9 1.7-6.6 0-0.8-2.6-1.2-8.1-1.2-4.5 0-8 0.4-7.8 0.9 0.66 1.8 10 12 11 12 0.59 0.036 1.8-2.4 2.8-5.4zm371-87c6.7-9.4 6.5-9.7-4.9-9.7-5.8 0-9.6 0.41-9.6 1 0 0.95 9 15 9.6 15 0.15 0 2.3-2.9 4.9-6.5zm-45-0.1c1-2.8 2.1-5.8 2.5-6.7 0.87-2.1-0.84-2.7-6.2-2.1-2.6 0.27-4.3 0.96-4.3 1.8 0 2.5 4.3 13 5.3 12 0.52-0.17 1.8-2.6 2.8-5.4zm21-0.54c2.1-3.3 3.7-6.5 3.5-7.1-0.4-1.2-15-1.6-17-0.45-1.2 0.74 6.9 14 8.5 14 0.55-0.019 2.7-2.8 4.9-6.1zm-357-290c3.3-1.6 6.1-3 6.3-3.1 0.66-0.45-5-7.4-6-7.4-0.53 0-0.96 0.67-0.96 1.5 0 0.82-1.2 2.1-2.8 2.9-11 5.4-22 0.35-22-9.5 0-4.9 4.5-11 9.2-12 4.8-1.1 12 0.4 15 3.3 1.7 1.4 3.2 2.4 3.4 2.2 0.16-0.21 1.3-1.8 2.5-3.6l2.2-3.2-6.6-3.1c-11-5-23-4.2-29 2-6.7 7-7.7 16-2.9 24 6.3 9.9 19 12 32 6.2zm80-0.66 2e-3 -4.3-21 0.64v-6.5l14 1v-7.4l-14 0.81 0.33-2.8c0.33-2.8 0.41-2.8 8.6-3.2 5.1-0.24 8.5 0.027 8.9 0.69 1.4 2.3 2.6 0.86 2.6-3.2v-4.3h-30l0.95 2.7c0.52 1.5 0.8 8.6 0.62 16l-0.33 13 13-0.41c8.7-0.27 13-0.036 14 0.73 2 2 2.7 1.2 2.7-3.2zm-59 1.5c-0.43-0.98-0.98-3.9-1.2-6.6l-0.42-4.8h17l-0.83 13h4.9c4.5 0 4.8-0.16 4.3-2.3-1-4.5-1.4-25-0.49-26 0.73-1.4 0.32-1.8-2.2-2.3-1.7-0.35-4.2-0.63-5.6-0.63-2.1 0-2.4 0.38-2 2.3 0.3 1.3 0.86 4 1.2 6.1l0.69 3.9-16-0.6-0.32-3.4c-0.18-1.9 0.23-4 0.9-4.8 1.7-2 0.96-2.5-5.5-3.4-6.1-0.83-6.1-0.84-4.6 1.9 0.54 1 1 8.1 1.1 16l0.11 14h5.1c4.4 0 5-0.21 4.3-1.8zm144 0.69c6.8-2.6 9.6-9.5 5.9-15-1.6-2.3-8.4-4.4-14-4.4-2.1 0-4.7-0.62-5.8-1.4-1.8-1.3-1.8-1.4 0.46-2.7 3.2-1.7 13-0.85 15 1.4 1.5 1.4 2.1 1.5 3 0.42 1.9-2.2 2.5-6.5 1-6.7-0.73-0.067-3.8-0.85-6.9-1.7-9.1-2.7-18 0.11-20 6-2 7.5 2.1 12 12 13 9.9 0.86 13 3 6.9 5.4-3.7 1.5-8.9 0.81-14-1.9l-3.8-2-0.6 3.2c-0.95 5.1-0.87 5.2 4.2 6.4 6.3 1.5 14 1.6 17 0.31zm-72-1.7c-4.8 0-1.3-15-0.54-15 0.48 0.3 2.3 3.4 4.1 6.9 1.8 3.5 3.8 7.2 4.5 8.1 1.5 2.2 1.8 1.9 7-7.6 2.1-3.8 4.2-7.1 4.8-7.5 0.67-0.41 0.86 2.4 0.57 8.1l-0.45 8.7h4.9c4.6 0 4.8-0.15 3.9-2-1.4-2.6-1.4-25-0.019-26 2.3-1.4-0.47-2.5-6.2-2.5-5.4 0-6 0.21-5.5 1.8 0.56 1.8-5.9 15-7.3 15-1.3-7e-3 -7.5-13-6.9-15 0.64-1.7-1.1-2.2-8.2-2.8-4.3-0.33-4.4-0.31-3.8 2.6 0.32 1.6 0.59 8.6 0.59 16v13h4.4c3.7 0 5.6-1.8 4.1-1.8zm44-13-0.21-15-8.6-0.6v31l9.1 6e-3zm56 2.7-0.34-12 11 0.94v-3.8c0-3.8-1.3-5.9-2.5-4-0.93 1.5-25 1.4-27-0.19-0.94-0.95-1.2 0-1.2 4.3 0 4.3 0.27 5.2 1.2 4.3 0.66-0.67 3.2-1.2 5.5-1.2h4.3v11c0 7.2-0.42 11-1.2 12-0.94 0.95 0.011 1.2 4.3 1.2l5.5 1e-3zm23 6.2-0.44-6.1 3.4 2e-3c2.9 2e-3 3.8 0.63 6.3 4.6 1.6 2.5 2.6 5.3 2.3 6.1-0.47 1.2 0.53 1.5 5.4 1.5 5.9 0 8.3-1.1 5.8-2.7-2.6-1.6-8.3-9.8-7.1-10 0.65-0.22 2.3-1.3 3.8-2.4 3.7-3 3.7-10-0.085-13-2.4-1.9-4-2.1-15-2.1h-13v30h9.2zm-0.2-15v-3.1h7.1c6.8 0 7.1 0.089 7.1 2.5 0 2.8-1.1 3.2-8.8 3.5-5.3 0.2-5.3 0.19-5.3-2.9zm45 19c-0.43-0.98-0.98-3.8-1.2-6.2-0.38-3.8 0.072-5.2 3.4-10 2.1-3.1 5.1-7.2 6.7-9l2.8-3.2-6.2-0.35c-5.9-0.33-8.2 0.31-6 1.7 0.87 0.54-0.73 3.8-3.8 7.6-0.82 1-5.2-5.7-4.7-7.2 0.42-1.4-0.49-1.7-5.7-2-6.8-0.38-8.1 0.36-5.2 3 1.1 0.96 4.1 4.7 6.6 8.3 3.9 5.6 4.6 7.3 4.6 11 0 2.6-0.46 5.1-1 5.4-2.1 1.3 0.33 2.5 5.2 2.5 4.5 0 5-0.21 4.3-1.8z"/><text transform="translate(-25,-19)" x="144.12617" y="663.52429" fill="#000000" font-size="29px" style="inline-size:584.851;line-height:1.1;white-space:pre" xml:space="preserve"><tspan x="144.12617" y="663.52429">Play as part of your Battle Plan. Counts </tspan><tspan x="144.12617" y="695.4243">as a poison defense, unless played with </tspan><tspan x="144.12617" y="727.32433">another defense. In that case, it counts </tspan><tspan x="144.12617" y="759.22435">as a poison weapon. You may keep this </tspan><tspan x="144.12617" y="791.12438">card if you win this battle.</tspan></text><text transform="translate(112 194)" fill="#000000" font-size="33px" style="shape-inside:url(#rect2);white-space:pre" xml:space="preserve"><tspan x="0" y="0">Defense - Weapon - Special</tspan></text></svg>
