<?xml version="1.0" encoding="UTF-8" standalone="no"?>
<!-- Created with Inkscape (http://www.inkscape.org/) -->

<svg
   width="822"
   height="1122"
   version="1.1"
   viewBox="0 0 822 1122"
   xml:space="preserve"
   id="svg10"
   sodipodi:docname="Chemistry (Full Res).svg"
   inkscape:version="1.4 (86a8ad7, 2024-10-11)"
   xmlns:inkscape="http://www.inkscape.org/namespaces/inkscape"
   xmlns:sodipodi="http://sodipodi.sourceforge.net/DTD/sodipodi-0.dtd"
   xmlns="http://www.w3.org/2000/svg"
   xmlns:svg="http://www.w3.org/2000/svg"><defs
     id="defs10" /><sodipodi:namedview
     id="namedview10"
     pagecolor="#ffffff"
     bordercolor="#000000"
     borderopacity="0.25"
     inkscape:showpageshadow="2"
     inkscape:pageopacity="0.0"
     inkscape:pagecheckerboard="0"
     inkscape:deskcolor="#d1d1d1"
     inkscape:zoom="0.73546668"
     inkscape:cx="270.5765"
     inkscape:cy="422.18092"
     inkscape:window-width="2560"
     inkscape:window-height="1369"
     inkscape:window-x="1072"
     inkscape:window-y="317"
     inkscape:window-maximized="1"
     inkscape:current-layer="svg10" /><path
     d="m 89,1000 c -4.5,-1.3 -6.7,-2.9 -8.9,-6.5 L 77.9,990 77.953,529 c 0.029,-254 0.072,-465 0.096,-469 0.042,-7.1 0.16,-7.4 4,-12 l 3.9,-4.2 320,-0.26 c 237,-0.19 321,0.035 323,0.87 1.5,0.62 4.1,2.7 5.7,4.5 l 3,3.4 -0.002,469 c -0.002,460 -0.037,469 -1.9,472 -1.1,1.7 -3.4,4 -5.2,5.1 -3.5,2.1 -634,3.6 -641,1.5 z m 44,-8.3 c 0,-4.6 -0.35,-5.9 -1.8,-6.4 -5.7,-1.9 -13,-6 -18,-9.5 l -5.4,-4 -11,11 c -15,15 -16,14 16,14 h 21 z m 219,0.45 0.3,-5.2 -4.3,-0.017 c -2.4,-0.01 -51,-0.012 -108,-0.01 l -104,0.012 -0.32,3.1 c -0.18,1.7 -0.085,4.1 0.21,5.3 l 0.53,2.1 215,-0.15 z m 36,1.1 c 6,-20 35,-20 40,1 0.47,1.9 1.3,2.8 2.9,2.8 3.9,0.12 13,0.13 21,0.03 l 7.7,-0.096 0.69,-10 h -19 l -33,-16 -30,15 h -22 l -0.31,4.4 c -0.51,7 -1,6.8 16,6.6 l 15,-0.2 z m 290,-0.96 -10e-6,-5.2 -42,-0.27 c -23,-0.15 -71,-0.15 -108,-6e-4 l -66,0.27 v 4.9 c 0,6.2 -13,5.5 110,5.5 h 105 z m 50,4.1 c 1.6,-0.92 0.38,-2.5 -10,-13 l -12,-12 -2.5,2.3 c -4.5,4.1 -12,8.6 -18,10 l -5.3,1.7 v 5.2 c 0,4.7 0.24,5.3 2.2,5.6 5.8,0.83 43,0.18 45,-0.77 z m -304,-1.7 c -5,-16 -25,-18 -33,-3.7 -3.1,6 -3.2,5.9 16,5.9 h 18 z m 309,-3 c 1.7,-4.3 0.77,-47 -0.97,-47 -0.99,-0.021 -3.4,-0.28 -5.5,-0.57 -3.5,-0.51 -3.7,-0.38 -4.9,3.3 -2,6 -5.9,13 -9.6,18 l -3.4,4.1 11,11 c 12,12 12,12 13,11 z m -648,-1.5 c 1,-0.96 6.2,-6 11,-11 l 9.6,-9.3 -3.9,-5.2 c -4.2,-5.6 -8.4,-14 -9.4,-18 -0.6,-2.5 -1,-2.7 -6.1,-2.7 h -5.5 l -0.029,10 c -0.016,5.6 -0.092,15 -0.17,22 -0.18,15 0.55,18 4,14 z m 307,-15 c 8.3,-4.1 15,-7.5 16,-7.5 1,0 7.3,3.4 16,7.5 l 15,7.5 h 245 l 8.3,-4.2 c 11,-5.4 19,-14 25,-25 l 3.8,-7.7 0.51,-804 h -23 l -1.2,6.7 c -11,65 -111,63 -121,-2.2 l -0.68,-4.5 h -480 l -0.016,74 c -0.0088,41 -0.015,221 -0.014,400 l 0.0023,327 2.1,5.6 c 4.9,13 14,23 27,30 l 7.9,4 h 245 z m -301,-41 c 0.0089,-3.4 0.022,-192 0.03,-419 l 0.014,-412 -11,-0.58 0.2,417 c 0.11,230 0.22,418 0.25,419 0.037,1.4 0.97,1.8 5,1.8 h 5 z m 643,-413 0.027,-419 h -11 v 838 h 11 z m -84,-328 c 31,-6 52,-43 42,-74 -19,-61 -110,-49 -113,14 -2.1,39 31,67 71,60 z m -24,-5.3 c -35,-7.9 -52,-49 -33,-78 28,-43 94,-24 94,28 0,34 -30,58 -62,51 z m 32,-7.3 c 38,-19 35,-74 -5.4,-88 -15,-5 -24,-4.2 -40,3.8 -8.2,4 -20,19 -21,27 -0.31,1.7 -0.84,3.6 -1.2,4.2 -2.1,3.5 -0.76,20 2.2,27 0.73,1.6 2.1,4.6 2.9,6.6 9.2,20 41,30 63,19 z m -563,-87 c 2,-5.8 6.1,-13 9.9,-17 l 2.6,-2.8 -11,-11 c -14,-13 -14,-13 -14,-0.13 -0.0087,5.4 -0.065,15 -0.12,21 -0.16,17 -0.75,15 5.7,15 l 5.6,-0.3 z m 640,-18 c -0.38,-28 0.58,-27 -13,-13 l -12,12 2.6,2.8 c 3.3,3.6 8,12 9.6,17 1.8,5.7 1.6,5.5 7.6,5.5 h 5.5 z m -310,-11 15,-7.5 h 20 l 0.35,-5.1 c 0.44,-6.5 1.9,-5.9 -15,-5.9 h -15 l -1.5,3.8 c -3.9,9.9 -9.1,14 -18,15 -11,0.89 -20,-5.7 -23,-17 -0.38,-1.3 -2.8,-1.5 -16,-1.5 l -15,0.05 v 10 l 23,1 14,7.2 c 17,8.7 13,8.8 31,-0.2 z m -310,2.5 c 2.9,-2.2 8.3,-5.2 12,-6.7 l 6.8,-2.7 v -5.3 c 0,-6.8 0.7,-6.6 -25,-6.2 -26,0.43 -26,0.015 -12,13 5.8,5.6 11,11 11,11 0.63,1.4 2.1,0.75 7.4,-3.3 z m 614,-19 c -0.65,-0.65 -9.4,-1 -24,-1 h -23 v 11 l 5,1.7 c 5.5,1.9 12,5.7 17,9.6 l 3,2.5 11,-11 c 7.7,-7.7 11,-11 10,-12 z m -314,13 c 5.1,-2.6 11,-9.3 11,-13 0,-0.3 -7.9,-0.54 -18,-0.54 -19,0 -19,0.02 -16,4.8 4.3,8.3 15,12 23,8.6 z m -72,-3.4 9.6,-0.02 -0.24,-10 h -215 l -0.1,3.5 c -0.22,7.7 -5.5,7 55,7.3 30,0.14 74,0.16 98,0.029 24,-0.131 48,-0.24 53,-0.25 z m 291,3.3e-4 45,-0.021 v -11 l -106,0.037 c -122,0.043 -109,-0.62 -109,5.9 l 0.35,5 c 57,0.7 113,0.09 170,0.042 z m -12.49,114.111 c 2,-6.7 3.1,-13 4.8,-20 1.2,-4.6 2.1,-8.9 2.1,-9.5 7.1e-4,-0.79 -3.5,-1 -11,-0.79 l -11,0.37 3.5,-4.1 c 1.9,-2.3 5.2,-6.3 7.4,-8.9 2.1,-2.6 5.6,-6.8 7.7,-9.1 6.9,-7.8 13,-15 16,-19 1.8,-2.3 3.3,-3.5 3.3,-2.7 0,0.8 -1.4,8 -3.2,16 -1.8,7.9 -3.2,15 -3.2,15 -0.01,0.42 4.8,0.9 11,1.1 l 11,0.3 -5.6,6.6 c -3.1,3.6 -7.1,8.4 -8.9,11 -1.8,2.2 -4.1,5 -5.2,6.3 -3.5,4 -14,17 -17,20 l -2.5,3.4 z M 121.81558,566.49647 c -5.998,-2.72992 -11.93601,-9.68649 -13.39994,-15.69847 -0.33975,-1.39524 -0.89091,-39.06676 -1.2248,-83.71448 -0.33389,-44.64773 -0.77891,-91.90836 -0.98894,-105.02363 -0.21003,-13.11526 -0.4446,-48.13406 -0.52125,-77.81954 -0.13303,-51.51469 -0.0497,-54.17782 1.82951,-58.45652 2.69322,-6.13216 7.63753,-9.7089 14.94815,-10.81358 3.24433,-0.49023 92.26597,-1.15891 197.82588,-1.48595 105.5599,-0.32704 220.48948,-0.93569 255.39905,-1.35255 34.90958,-0.41686 76.39304,-0.75793 92.18546,-0.75793 h 28.71351 l 4.71083,2.78914 c 3.55045,2.10211 5.3458,4.10169 7.28864,8.11777 l 2.57781,5.32863 0.0676,161.50174 c 0.0738,176.3476 0.44556,165.20423 -5.70525,171.01924 -6.87645,6.50104 10.8169,5.9997 -224.93504,6.37351 -117.81187,0.1868 -245.93938,0.62193 -284.72779,0.96695 -62.9578,0.56001 -70.90196,0.45548 -74.04343,-0.97433 z m 98.27359,-2.42708 c 1.5271,-1.49133 27.40625,-1.75181 28.8572,-0.29044 0.66903,0.67383 2.16799,1.22515 3.33101,1.22515 1.85468,0 2.39254,-1.2413 4.37581,-10.09865 2.17322,-9.70563 7.71991,-22.89407 10.66338,-25.35446 0.83541,-0.69831 3.94747,-1.05429 7.63969,-0.87389 l 6.23006,0.3044 -1.96801,2.5368 c -1.08241,1.39524 -3.87997,6.41811 -6.21681,11.16193 -2.33683,4.74382 -4.66854,9.41803 -5.18157,10.38713 -1.88905,3.56834 -1.12768,3.90133 8.23924,3.60337 l 9.17203,-0.29176 2.32251,-9.13249 c 1.27738,-5.02287 3.29169,-11.30146 4.47625,-13.95242 l 2.15374,-4.81992 27.407,-0.0886 c 15.07384,-0.0487 35.53474,-0.16345 45.46867,-0.25489 20.40227,-0.1878 19.22028,-0.60376 23.65483,8.32448 3.63751,7.32353 5.21415,12.23063 6.56449,20.43124 0.98842,6.00265 1.3203,6.62311 3.69104,6.90067 4.60192,0.53878 5.46931,-1.86064 3.69788,-10.22926 -2.78385,-13.15155 0.3488,-25.03167 9.15619,-34.72345 13.24249,-14.57225 36.98307,-25.59986 68.66649,-31.89586 l 8.56368,-1.70174 -0.13403,-46.36759 -0.13403,-46.36758 40.43369,-0.0946 c 22.23852,-0.052 42.36051,-0.23705 44.71552,-0.41114 2.35501,-0.17408 4.28184,-0.12507 4.28184,0.10892 0,0.23399 -1.45696,1.73658 -3.23769,3.33907 -2.94858,2.65346 -3.80218,2.88565 -9.55943,2.60027 -3.47696,-0.17235 -6.57551,0.10018 -6.88566,0.60563 -0.31016,0.50544 0.5913,2.63126 2.00324,4.72403 3.2266,4.78244 3.2077,5.73858 -0.20344,10.29095 -1.52383,2.03365 -3.4184,4.83911 -4.21016,6.23435 -7.95499,14.01836 -9.78837,17.55186 -11.84612,22.83122 -1.30519,3.34858 -2.77978,6.82144 -3.27687,7.71747 -0.49709,0.89603 -2.30764,6.52242 -4.02345,12.5031 -2.81809,9.8228 -3.19677,13.5501 -1.25732,12.37551 1.59026,-0.9631 24.81455,-3.92739 36.45195,-4.65263 6.9265,-0.43165 20.52763,-0.50277 30.22474,-0.15804 30.22674,1.07456 55.98034,0.56802 65.48694,-1.28804 12.10353,-2.36307 22.57284,-5.35994 28.88781,-8.2692 2.98464,-1.37499 5.79627,-2.49999 6.24809,-2.49999 0.45182,0 1.52152,-0.79909 2.37712,-1.77576 1.62818,-1.85858 2.52506,-17.4096 1.20404,-20.87683 -0.59803,-1.56962 -6.3105,-1.70071 -74.11028,-1.70071 h -73.4623 l 1.54692,-2.37785 1.54693,-2.37785 71.7592,-0.23134 c 39.46756,-0.12724 71.92697,-0.4003 72.13201,-0.60681 0.20505,-0.20652 0.43717,-45.49392 0.51584,-100.63868 l 0.14303,-100.2632 -2.51873,-4.49499 c -1.6891,-3.01442 -4.01204,-5.29922 -7.05244,-6.93662 l -4.53371,-2.44162 -57.427,0.58841 c -31.58486,0.32363 -60.26058,0.5616 -63.72383,0.52882 l -6.29682,-0.0596 v 3.0321 c 0,1.8266 -1.10153,4.35175 -2.7706,6.35132 -2.38791,2.86075 -2.76797,4.20304 -2.75125,9.71771 l 0.0194,6.39847 h -14.2805 -14.2805 l -1.35497,-4.31256 c -1.11445,-3.54705 -2.12021,-4.67281 -5.66599,-6.34201 l -4.31102,-2.02944 0.28105,-5.96446 0.28106,-5.96447 -59.44199,0.32295 c -32.69309,0.17762 -112.56216,0.3368 -177.48681,0.35373 -116.16534,0.0303 -118.02831,0.0619 -117.00763,1.98273 0.57046,1.07356 2.82796,3.90862 5.01666,6.30012 l 3.97946,4.34818 -4.84832,0.64764 c -20.78434,2.77638 -38.19272,14.91503 -46.18436,32.20386 -1.35858,2.93911 -2.47458,6.37125 -2.47999,7.62696 -0.005,1.25572 -0.34987,2.27884 -0.76546,2.2736 -1.22266,-0.0154 -11.13111,-5.9415 -11.82506,-7.07239 -0.3496,-0.56972 -1.09345,-1.03585 -1.653,-1.03585 -0.65717,0 -0.82243,4.04169 -0.46677,11.41561 0.30282,6.27858 0.61303,29.9089 0.68935,52.51181 0.0763,22.60291 0.31716,41.40164 0.5352,41.77496 0.21805,0.37332 1.66401,0.0419 3.21326,-0.73653 3.57465,-1.79607 55.20093,-2.83927 60.05245,-1.21347 4.41648,1.48002 8.49364,5.63563 9.65293,9.83869 1.55147,5.6249 1.33602,6.14601 -2.54108,6.14601 -2.73158,0 -3.76212,0.52527 -4.47925,2.28312 -1.66223,4.07444 -5.31737,21.47134 -5.22323,24.86066 l 0.0916,3.29785 H 145.56815 120.0222 l -0.6874,-4.81993 c -0.9018,-6.32326 -3.27696,-15.90664 -5.29559,-21.36673 -1.28098,-3.46486 -1.85897,-4.09547 -2.79019,-3.04416 -0.86905,0.98111 -1.06119,12.08072 -0.73877,42.67587 0.23968,22.74243 0.75695,41.34988 1.1495,41.34988 0.70296,0 4.23999,-10.34069 5.89072,-17.22183 l 0.84516,-3.52309 27.08704,0.0505 27.08703,0.0505 1.14497,4.99463 c 0.62973,2.74705 2.30351,7.84853 3.71949,11.33664 l 2.5745,6.342 -18.77335,0.0556 c -10.32534,0.0306 -25.8006,0.14475 -34.38946,0.25368 l -15.61612,0.19805 v 3.04417 3.04416 l 36.24981,0.19361 c 21.18169,0.11313 36.37921,0.58461 36.56112,1.13426 0.17123,0.51735 2.83207,5.22478 5.91299,10.46096 13.53341,23.00066 20.52786,41.93103 23.234,62.88244 1.56484,12.11531 1.85242,13.1021 3.81835,13.1021 1.16933,0 2.55676,-0.42062 3.08317,-0.93471 z m 53.85041,-42.5915 c 0,-1.71004 13.45809,-13.43894 21.66107,-18.87789 l 8.05993,-5.3441 10.57009,0.13462 10.57008,0.13463 0.009,11.92297 0.009,11.92297 h -13.46884 -13.46884 l 2.63831,-3.48382 c 3.59009,-4.74062 3.33861,-5.64867 -1.56436,-5.64867 -3.67567,0 -4.75625,0.5819 -8.61732,4.64045 -4.09771,4.3073 -4.84478,4.67276 -10.40596,5.0905 -3.33392,0.25044 -5.99131,0.0324 -5.99131,-0.49166 z m 58.31498,-0.86784 c 0,-0.42369 -0.18481,-5.89806 -0.26459,-12.17665 l -0.14506,-11.41561 9.08014,0.0466 9.08013,0.0466 7.45214,4.91355 c 7.45832,4.91763 22.07354,17.15269 22.2011,18.58555 0.0373,0.41857 -10.58646,0.76104 -23.60829,0.76104 -13.02183,0 -23.79557,-0.33734 -23.79557,-0.76104 z m 76.11744,-3.3985 c -0.23968,0.24139 2.24753,-2.26444 0,0 z m -104.51048,-26.9253 c -0.38758,-0.39036 -0.70469,-4.74327 -0.70469,-9.67312 v -8.96337 l 10.83054,0.002 10.83053,0.002 v 9.38446 9.38447 l -10.12585,0.28695 c -5.56921,0.15782 -10.44295,-0.0324 -10.83053,-0.4228 z m 28.41521,-0.37151 c -0.61185,0 -0.095,-17.52896 0.0161,-18.26498 0.0421,-0.27905 3.93129,-0.35965 8.64261,-0.17912 l 8.56603,0.32823 v 8.98338 8.98338 l -8.56603,0.32824 c -4.71132,0.18053 -8.37503,-0.17913 -8.65868,-0.17913 z M 672.61068,463.5157 c -5.1621,-4.08965 -2.57857,-11.14564 4.08094,-11.14564 4.03932,0 6.28945,2.34118 6.28945,6.54392 0,5.72404 -5.73922,8.27074 -10.37039,4.60172 z m -369.91577,-2.65283 c -0.37739,-2.02612 -1.79364,-5.4508 -3.14723,-7.61041 l -2.46107,-3.92656 13.86564,0.002 13.86565,0.002 v 7.60889 7.60889 l -10.71841,-8.3e-4 -10.71841,-8.2e-4 z m 28.78001,-3.83026 -0.11323,-7.5873 12.09425,-0.31339 c 6.65184,-0.17236 12.0934,-0.13896 12.09235,0.0742 -0.001,0.21317 -0.99229,2.00156 -2.20276,3.9742 -1.21047,1.97263 -2.46391,5.2229 -2.78543,7.22282 l -0.58458,3.63621 -9.19368,0.29028 -9.19368,0.29028 z m 257.88736,0.48952 c -2.40309,-2.42034 -2.61854,-4.07721 -0.83352,-6.41003 3.78742,-4.94976 11.64807,-0.0137 8.72838,5.4809 -0.54517,1.02596 -1.39156,1.86539 -1.88086,1.86539 -0.48931,0 -1.57173,0.26362 -2.40538,0.58582 -0.83366,0.3222 -2.45754,-0.36274 -3.60862,-1.52208 z M 290.05945,441.84364 c 0,-2.06788 4.7166,-7.51933 7.97327,-9.2155 1.68969,-0.88005 7.06787,-1.53876 14.41054,-1.76497 l 11.71475,-0.36091 0.32994,5.95941 c 0.18147,3.27767 0.10326,6.09101 -0.1738,6.25185 -0.27706,0.16085 -8.09771,0.36719 -17.37922,0.45854 -14.26507,0.1404 -16.87548,-0.0651 -16.87548,-1.32842 z m 41.7257,0.46377 c -0.23021,-0.23254 -0.41856,-2.85813 -0.41856,-5.83464 0,-6.17454 -1.07517,-5.70045 12.74307,-5.61904 5.44898,0.0321 9.25038,0.59056 11.30538,1.66087 3.62645,1.88876 8.93493,9.08091 6.95249,9.41951 -2.60322,0.44462 -30.17855,0.78123 -30.58238,0.3733 z m -211.6183,-7.1876 c 0.34085,-3.62763 0.62295,-8.44501 0.62689,-10.70529 l 0.007,-4.1096 5.13923,0.23778 c 2.82658,0.13078 5.26938,0.38192 5.42844,0.55808 0.15905,0.17616 0.0535,4.73361 -0.23459,10.12767 l -0.52377,9.80737 -5.53155,0.33984 -5.53154,0.33983 z m 15.46986,-2.79049 c 0.12606,-4.88334 0.24087,-9.56374 0.25513,-10.40089 0.0211,-1.23826 1.71644,-1.52208 9.09194,-1.52208 h 9.06602 l 0.10027,4.05889 c 0.0551,2.23238 0.27667,6.91278 0.49228,10.40089 l 0.39201,6.342 h -9.81343 -9.81342 z m 23.44886,4.46142 c 0,-2.42957 -0.28277,-7.14217 -0.62837,-10.47245 l -0.62837,-6.05506 5.9177,0.0716 5.9177,0.0716 0.176,6.08833 c 0.0968,3.34858 0.42816,8.02898 0.73635,10.40089 l 0.56034,4.31256 h -6.02567 -6.02568 z m 142.29751,-53.57281 c -10.3839,-5.14373 -19.33319,-9.21313 -19.88731,-9.04311 -0.55412,0.17002 -1.81682,0.53923 -2.80601,0.82046 -1.19571,0.33995 -3.0868,-0.85265 -5.64217,-3.55818 -5.7423,-6.07972 -7.91262,-6.99983 -10.3347,-4.38138 -1.51221,1.63482 -2.39686,1.89501 -3.82523,1.12508 -2.93917,-1.58428 -7.2726,-7.28226 -6.69375,-8.80153 0.55647,-1.46056 -3.53138,-20.62501 -5.7357,-26.88975 -0.71506,-2.03225 -4.00505,-6.61733 -7.31107,-10.18907 -3.30603,-3.57175 -7.10671,-8.11932 -8.44596,-10.10572 -2.20925,-3.27681 -10.73176,-9.76786 -11.62966,-8.85758 -0.20414,0.20696 1.64855,4.48591 4.11709,9.50878 3.44594,7.01164 6.07476,10.68744 11.31988,15.82824 5.52777,5.41783 7.27747,7.93547 9.1677,13.19137 1.28485,3.57259 3.42507,8.43627 4.75606,10.80818 1.33098,2.37192 2.09635,4.31257 1.70081,4.31257 -0.39554,0 -6.47994,-2.83806 -13.52088,-6.3068 -9.74613,-4.80145 -13.36216,-7.13058 -15.14976,-9.75813 -2.40813,-3.53965 -3.37589,-4.10935 -10.71016,-6.30479 -8.90384,-2.66527 -11.39853,-11.26705 -7.23938,-24.9616 1.74629,-5.74987 3.04354,-7.87091 7.48023,-12.23031 5.56547,-5.46854 13.28537,-9.92615 22.39495,-12.93124 2.90913,-0.95968 5.28933,-2.11397 5.28933,-2.56511 0,-0.45113 1.68764,-1.13911 3.75032,-1.52885 2.06267,-0.38974 9.20327,-2.3299 15.86798,-4.31148 9.0316,-2.6853 15.06839,-3.80179 23.70383,-4.38398 16.23619,-1.09462 17.33329,-0.61561 22.15718,9.67424 11.72249,25.00528 11.08811,23.01507 11.11029,34.85598 0.0111,5.94979 0.44651,13.78586 0.96748,17.41349 0.71199,4.95773 0.58207,8.35964 -0.52318,13.69873 -0.80872,3.90668 -1.47078,8.83295 -1.47123,10.94728 l -8.2e-4,3.84423 9.33691,4.45379 c 5.13531,2.44959 10.23573,4.37268 11.33428,4.27354 1.68123,-0.15173 1.97987,0.41412 1.88684,3.57511 -0.0608,2.06545 -1.14514,6.54173 -2.40966,9.9473 -1.86964,5.03523 -2.69593,6.16091 -4.42319,6.02584 -13.15486,6.9999 -7.85323,3.13336 -28.58134,-7.1956 z m 23.48623,-1.33838 c 2.31004,-5.56839 1.90317,-7.0762 -2.31827,-8.59126 -2.07795,-0.74576 -7.85843,-3.31309 -12.84551,-5.70516 -4.98708,-2.39207 -10.88091,-5.16008 -13.09739,-6.15112 -2.21648,-0.99105 -4.34424,-1.96954 -4.72835,-2.17444 -0.76688,-0.40906 -6.39067,7.69447 -5.74587,8.27944 0.21962,0.19924 6.29313,3.16352 13.49669,6.58731 7.20357,3.42378 15.36425,7.33332 18.13485,8.68786 2.7706,1.35455 5.17393,2.4906 5.34074,2.52456 0.1668,0.034 0.9602,-1.52178 1.76311,-3.45719 z m -56.39379,-22.26701 c -0.79928,-2.67487 -1.77637,-9.02365 -2.17131,-14.10841 -0.66408,-8.54988 -1.19315,-10.24965 -7.03646,-22.6063 -3.47511,-7.34871 -7.60276,-14.712 -9.17254,-16.36286 -1.56978,-1.65086 -4.18435,-4.53545 -5.81016,-6.4102 -1.62581,-1.87475 -3.1255,-2.89654 -3.33264,-2.27065 -0.33465,1.01114 8.27053,22.37557 10.8399,26.91268 2.54283,4.49023 8.9429,22.35563 10.61364,29.62726 1.82646,7.94942 4.77069,12.85376 6.6065,11.00477 0.55009,-0.55404 0.3355,-2.86664 -0.53693,-5.78629 z m 17.35861,-2.60628 c 0.80583,-3.51612 0.85936,-6.64077 0.17593,-10.27034 -0.54026,-2.86919 -1.23307,-9.15676 -1.53959,-13.97239 -0.65127,-10.23196 -3.71272,-21.6846 -6.95174,-26.00593 -1.25495,-1.67429 -2.5782,-3.95741 -2.94056,-5.07361 -0.79792,-2.45787 -12.30298,-15.43049 -13.04654,-14.71072 -0.45163,0.43719 4.53986,14.64938 7.30488,20.79905 4.74022,10.54275 6.25535,15.01236 7.99063,23.57233 1.10532,5.45241 2.31299,12.19659 2.68373,14.98707 0.87831,6.61102 3.43007,15.72817 4.40208,15.72817 0.41964,0 1.28416,-2.27413 1.92118,-5.05363 z m 18.584,-14.98711 c -0.64724,-27.89707 -5.89674,-46.24742 -15.43959,-53.9713 -2.24956,-1.82076 -4.36574,-3.03287 -4.70263,-2.69356 -0.33689,0.33931 0.86806,4.38062 2.67768,8.98068 5.24166,13.32435 6.85353,19.91917 9.58753,39.22659 1.41284,9.97735 2.8682,18.98708 3.23415,20.02164 0.77095,2.17951 3.38505,5.43253 4.36553,5.43253 0.36941,0 0.49421,-7.64846 0.27733,-16.99658 z m -62.68832,-0.4387 c -1.65202,-3.71639 -3.0282,-4.81582 -11.99297,-9.58116 -5.56974,-2.96068 -10.38059,-4.96945 -10.69078,-4.46395 -0.31019,0.5055 0.20565,2.70833 1.14631,4.89518 1.51705,3.52684 2.85718,4.55237 11.86077,9.07644 5.58276,2.80519 10.46375,4.91388 10.84665,4.68598 0.3829,-0.2279 -0.14359,-2.30352 -1.16998,-4.61249 z m 249.08075,38.52598 0.24341,-5.36236 17.12735,-0.15994 c 14.81709,-0.13837 87.21297,-0.43904 89.46492,-0.37156 1.51562,0.0454 -0.80429,2.85698 -5.72718,6.94096 l -4.9215,4.08283 -48.2152,0.11622 -48.21521,0.11622 z m -5.54966,-14.71637 -4.78559,-2.35443 v -13.57989 -13.5799 l 3.27435,-1.29401 c 4.48636,-1.77299 116.01054,-2.64259 121.11942,-0.94441 l 3.43025,1.14021 0.31556,10.34337 c 0.52144,17.09176 0.47253,17.28292 -5.04449,19.70918 -4.56588,2.00797 -6.91265,2.10729 -59.13923,2.50263 l -54.38469,0.41168 z M 191.82904,325.10301 c -1.10824,-0.73436 -4.73521,-3.06874 -8.05993,-5.18751 -10.70678,-6.8232 -20.09128,-13.12504 -21.44152,-14.39832 -1.50693,-1.42103 -2.81279,-10.49168 -1.8676,-12.97248 0.56948,-1.49468 0.90774,-1.45949 3.40701,0.35442 1.52611,1.10762 3.71711,2.9114 4.86887,4.0084 3.58319,3.41283 18.03258,12.2665 23.59692,14.4587 2.35234,0.92675 2.51872,1.4607 2.51872,8.08287 0,3.89981 -0.22668,7.06774 -0.50374,7.03984 -0.27706,-0.0279 -1.41049,-0.65156 -2.51873,-1.38592 z m 304.76613,0.98874 c 0,-0.34631 20.76039,-30.50891 23.97529,-34.8335 1.6838,-2.26501 2.12734,-2.31223 23.82535,-2.5368 l 22.10961,-0.22883 2.87211,4.05889 c 3.95962,5.59577 8.59278,12.34371 13.32332,19.40472 2.19732,3.27981 4.25933,6.19161 4.58225,6.47066 0.32292,0.27905 1.61624,1.99139 2.87404,3.8052 l 2.28692,3.29785 -34.07144,0.10714 c -18.73929,0.0589 -40.30529,0.26296 -47.92444,0.45339 -7.61915,0.19044 -13.85301,0.19101 -13.85301,0.001 z M 189.26836,302.04416 c -4.13283,-2.2521 -7.66536,-4.51017 -7.85006,-5.01793 -0.18471,-0.50776 -0.75535,-0.9232 -1.26809,-0.9232 -1.12261,0 -7.56713,-4.63333 -12.44813,-8.94966 -3.49945,-3.0946 -3.52095,-3.16336 -1.86682,-5.96931 0.92038,-1.56126 3.4066,-4.37693 5.52494,-6.25705 l 3.85152,-3.4184 5.61782,4.94048 c 8.26766,7.27083 18.60339,14.33626 21.9615,15.0127 2.76538,0.55705 2.84322,0.70278 1.29541,2.42537 -0.90572,1.00798 -2.91959,4.17698 -4.4753,7.04222 l -2.82855,5.20951 z m -38.60254,-3.40433 c -0.83118,-0.83714 -1.80438,-1.52208 -2.16268,-1.52208 -1.95244,0 -14.96259,-8.81784 -16.75888,-11.35861 -4.12786,-5.83864 -2.38516,-17.07405 4.18547,-26.98425 8.65763,-13.05794 28.72072,-23.51418 42.80192,-22.30699 4.57629,0.39233 5.6064,0.99551 11.25217,6.58869 3.41809,3.38626 7.61177,6.98802 9.31929,8.00391 3.11023,1.85045 4.35185,4.13815 1.68692,3.10818 -3.56471,-1.37772 -17.28587,3.61934 -27.29583,9.94078 -5.61273,3.54452 -12.7155,11.1568 -16.15539,17.31427 -2.71392,4.85799 -3.47142,7.42526 -3.66767,12.43033 -0.25903,6.60599 -0.71787,7.29107 -3.20532,4.78577 z m -1.6285,-27.95501 c 1.88383,-3.54521 0.8213,-7.40165 -2.34668,-8.5173 -3.32834,-1.17213 -5.64383,-0.0476 -6.89039,3.34635 -0.65407,1.7808 -0.29278,2.84505 1.61976,4.77131 3.00288,3.02443 6.13525,3.18877 7.61731,0.39964 z M 169.978,254.45994 c 2.6086,-2.44772 2.78655,-4.30335 0.62176,-6.48368 -3.07508,-3.09714 -11.51419,-1.38006 -11.51419,2.34276 0,2.83272 2.89542,5.00458 8.12183,6.09218 0.3111,0.0647 1.55788,-0.81333 2.7706,-1.95126 z m 36.27486,30.99352 c -5.01545,-1.85706 -17.77992,-10.66015 -21.33996,-14.71721 -3.30279,-3.7639 -3.20895,-3.89225 5.19082,-7.09962 7.31041,-2.79141 8.3011,-2.62879 12.85513,2.11016 4.92258,5.12247 15.37571,13.52394 18.08744,14.53737 1.77141,0.66202 1.53145,0.99149 -1.98507,2.7256 -2.20002,1.0849 -4.44421,2.4199 -4.98708,2.96666 -1.28584,1.29507 -3.26947,1.16244 -7.82128,-0.52296 z m 315.5296,-10.6596 v -7.10305 h 22.06757 22.06757 l 0.34911,4.81993 c 0.19201,2.65095 0.20427,5.84733 0.0272,7.10304 l -0.32195,2.28312 h -22.09474 -22.09473 z m -301.23992,-3.11839 c -7.75793,-5.98463 -13.00993,-11.08771 -11.41129,-11.08771 1.13451,0 19.47122,14.83882 19.47122,15.75692 0,1.17336 -1.95219,0.0424 -8.05993,-4.66921 z m 301.952,-10.70875 c -0.39164,-0.39446 -0.71208,-2.65517 -0.71208,-5.0238 0,-4.12584 0.19828,-4.40328 4.72378,-6.60976 4.23694,-2.06578 6.52132,-2.34044 22.16481,-2.66494 19.47797,-0.40403 17.52418,-1.20238 17.92352,7.32386 0.35436,7.5662 1.82004,7.07171 -21.92605,7.39744 -11.80404,0.16192 -21.78233,-0.0283 -22.17398,-0.4228 z M 480.396,562.56356 c 1.36666,-1.65855 3.26304,-1.55953 5.47051,0.28565 0.86046,0.71924 2.37965,1.14977 3.37598,0.95673 1.68654,-0.32678 1.82998,-2.37926 2.07923,-29.75203 0.14724,-16.17057 0.0666,-29.92891 -0.17922,-30.57409 -0.49554,-1.30061 -6.11802,1.20241 -13.41774,5.97333 -2.344,1.53198 -4.52428,2.78542 -4.84506,2.78542 -1.06069,0 -16.10533,11.88384 -20.74053,16.38305 -10.12882,9.83164 -17.34136,21.16888 -18.62972,29.28368 l -0.5667,3.5694 11.58004,-0.23476 c 9.41272,-0.19082 11.68644,0.0445 12.14852,1.25732 0.80667,2.11721 21.98594,2.17639 23.72469,0.0663 z m 219.83323,-1.83745 c 7.04248,-4.16978 8.37379,-7.73569 8.77754,-23.5103 l 0.33465,-13.07481 -4.86836,0.64506 c -2.67759,0.35478 -8.04195,1.07797 -11.92079,1.60709 -26.22921,3.57794 -61.66083,-3.09831 -115.35776,-21.73645 -15.79709,-5.48315 -35.55586,-10.6831 -40.59361,-10.6831 -4.39698,0 -4.54826,0.66144 -4.23995,18.53818 0.30628,17.75868 5.22363,45.7779 8.81595,50.23352 0.83135,1.03114 16.55982,1.23649 77.72006,1.01472 l 76.67779,-0.27804 z M 569.02305,546.06687 c -1.6359,-0.44037 -3.91846,-4.40673 -3.91846,-6.80903 0,-2.1535 4.49275,-5.7101 7.21309,-5.7101 2.78422,0 5.25974,2.27469 6.33144,5.81776 0.50352,1.66464 0.0124,2.94412 -1.85002,4.81992 -2.41687,2.43421 -4.15784,2.85545 -7.77605,1.88145 z m 124.3879,-0.33568 c -2.78891,-1.13334 -3.49259,-2.35599 -3.60279,-6.25989 -0.10789,-3.82179 2.30857,-5.92356 6.81046,-5.92356 6.32865,0 8.81889,7.15779 3.85768,11.08829 -2.88588,2.28632 -3.78947,2.42638 -7.06535,1.09516 z M 590.04,529.09104 c -2.69647,-2.06159 -2.2862,-7.09506 0.70994,-8.71005 5.28052,-2.84633 10.21269,4.38417 5.75942,8.44324 -2.20374,2.00867 -4.08939,2.08644 -6.46936,0.26681 z m -166.48795,32.09231 c 0.55412,-0.41002 1.09952,-3.92001 1.212,-7.79998 0.16421,-5.66451 0.83789,-8.31131 3.41916,-13.4333 6.26162,-12.42491 19.44011,-24.38493 39.40982,-35.76601 5.93657,-3.38335 11.20817,-6.15155 11.71466,-6.15155 0.50649,0 1.48529,-0.68494 2.17511,-1.52208 1.68359,-2.04316 0.76239,-1.95994 -9.79063,0.8845 -17.17299,4.62877 -29.87213,11.29752 -40.04124,21.02699 -7.82344,7.48522 -12.85615,15.7909 -15.56797,25.69244 -2.08755,7.62216 -2.11526,15.56008 -0.0589,16.86988 1.77158,1.1284 6.11681,1.24333 7.52799,0.19911 z m -99.06536,-4.96165 c 3.56975,-3.25376 1.01746,-10.4973 -3.69876,-10.4973 -1.3426,0 -3.09709,0.99595 -3.97283,2.25522 -4.27685,6.14987 2.26092,13.17381 7.67159,8.24208 z m 21.99227,-12.52675 c 1.10824,-1.11619 2.01498,-2.94269 2.01498,-4.05888 0,-2.58216 -3.43907,-6.08833 -5.97182,-6.08833 -2.08003,0 -6.11807,4.4436 -6.11807,6.73253 0,2.07003 3.74646,5.44413 6.04495,5.44413 1.10824,0 2.92172,-0.91325 4.02996,-2.02945 z m -14.68059,-2.60928 c 2.89385,0 2.00986,-4.3665 -0.0842,-6.69699 -2.1511,-2.39399 -4.62189,-2.35743 -6.83095,0.10107 -4.18589,4.65855 0.65376,6.59592 6.91513,6.59592 z m 364.69229,-37.52825 c 5.53017,-1.40802 10.64668,-3.05473 11.37002,-3.65936 1.4443,-1.20726 1.92347,-17.60267 0.53962,-18.46407 -0.42655,-0.26551 -5.25501,0.60795 -10.72992,1.94102 -13.82564,3.36638 -15.53559,3.54939 -39.18917,4.19419 -22.53683,0.61437 -40.83102,-0.49629 -62.5432,-3.79706 -12.52858,-1.90465 -37.77058,-2.7348 -41.32968,-1.35924 -2.86125,1.10584 -1.67715,2.42799 2.18445,2.43914 4.83146,0.014 26.10371,5.7468 38.68883,10.4266 32.67451,12.15006 72.866,15.44419 101.00905,8.27878 z m -574.79437,-9.33011 c 2.82592,-3.20906 5.14063,-6.12595 5.1438,-6.48199 0.003,-0.35604 -3.28118,-0.56005 -7.29855,-0.45337 l -7.30432,0.19397 0.13401,3.49753 c 0.15756,4.11218 1.94143,9.0785 3.26094,9.0785 0.50935,0 3.2382,-2.62559 6.06412,-5.83464 z m 28.19934,0.41362 c 2.28387,-2.98155 4.15248,-5.91692 4.15248,-6.52304 0,-0.72271 -3.03425,-1.03971 -8.81555,-0.92099 -6.59923,0.13552 -8.81554,0.52228 -8.81554,1.53837 0,1.88935 6.80032,11.27602 8.18928,11.30388 0.62526,0.0125 3.00546,-2.41666 5.28933,-5.39822 z m 28.65203,0.005 c 0.93238,-2.97906 1.69523,-5.94712 1.69523,-6.59569 0,-0.79855 -2.62894,-1.17921 -8.14389,-1.17921 -4.47914,0 -7.99276,0.40305 -7.80806,0.89566 0.6606,1.76182 10.43194,12.16629 11.48612,12.23036 0.59146,0.0359 1.83823,-2.37206 2.7706,-5.35112 z m 370.85237,-87.35865 c 6.6834,-9.43315 6.54145,-9.7117 -4.94902,-9.7117 -5.78469,0 -9.57117,0.40625 -9.57117,1.02688 0,0.94891 9.02968,15.20866 9.63055,15.20866 0.14712,0 2.34746,-2.93573 4.88964,-6.52384 z m -44.77237,-0.10122 c 0.99693,-2.77433 2.11705,-5.7844 2.48916,-6.68906 0.87063,-2.11662 -0.83582,-2.70164 -6.23981,-2.13919 -2.62582,0.2733 -4.28184,0.95818 -4.28184,1.77086 0,2.52331 4.33896,12.73311 5.27743,12.41804 0.51835,-0.17402 1.75813,-2.58631 2.75506,-5.36065 z m 20.51025,-0.54303 c 2.12256,-3.32228 3.69425,-6.53891 3.49264,-7.14809 -0.39529,-1.19438 -15.01,-1.58806 -16.83281,-0.45342 -1.19336,0.74283 6.85506,13.73407 8.47348,13.67732 0.55412,-0.0194 2.74413,-2.75354 4.86669,-6.07581 z M 167.72451,116.90507 c 3.27509,-1.57216 6.13127,-2.97955 6.34707,-3.12753 0.65869,-0.45168 -4.96219,-7.42734 -5.98484,-7.42734 -0.52592,0 -0.95622,0.67321 -0.95622,1.49602 0,0.82282 -1.24677,2.12861 -2.7706,2.90176 -10.5523,5.35397 -22.41668,0.35131 -22.41668,-9.45208 0,-4.90328 4.54246,-10.687616 9.20257,-11.718493 4.84887,-1.072633 11.64174,0.403015 15.01498,3.261775 1.6884,1.430888 3.19748,2.43064 3.35353,2.221671 0.15604,-0.208969 1.27593,-1.82826 2.48866,-3.598416 l 2.20496,-3.218471 -6.56387,-3.123535 c -10.60255,-5.045412 -23.07189,-4.182518 -28.94405,2.002953 -6.68065,7.037101 -7.74291,15.782306 -2.85916,23.538426 6.26003,9.94189 18.98718,12.43404 31.88365,6.24326 z m 80.00744,-0.66134 0.002,-4.31256 -10.58079,0.31896 -10.58078,0.31897 v -3.2458 -3.24579 l 7.05244,0.50822 7.05244,0.50822 v -3.70289 -3.702886 l -7.13076,0.405816 -7.13076,0.40581 0.33019,-2.833878 c 0.32704,-2.806879 0.40853,-2.837518 8.55046,-3.215409 5.06985,-0.235306 8.47119,0.0274 8.87501,0.685476 1.41508,2.306086 2.55081,0.861029 2.55081,-3.245563 v -4.312564 h -14.97216 -14.97216 l 0.94834,2.739933 c 0.52159,1.506963 0.79853,8.598574 0.61541,15.759135 l -0.33294,13.01921 12.9254,-0.40714 c 8.70882,-0.27432 13.29373,-0.0361 14.0545,0.73008 2.02512,2.03966 2.74106,1.21094 2.74322,-3.17535 z m -59.01128,1.52208 c -0.43463,-0.97667 -0.98027,-3.94473 -1.21252,-6.59568 l -0.42228,-4.81993 h 8.27454 8.27453 l -0.41698,6.59569 -0.41699,6.59568 h 4.85252 c 4.51285,0 4.81656,-0.15982 4.33867,-2.28312 -1.00314,-4.45705 -1.37548,-24.54174 -0.486,-26.215678 0.73364,-1.38066 0.31659,-1.81905 -2.2158,-2.329163 -1.71575,-0.345613 -4.24546,-0.628387 -5.62156,-0.628387 -2.08426,0 -2.41115,0.381208 -1.95784,2.283123 0.2993,1.255717 0.85604,4.015653 1.2372,6.133194 l 0.69301,3.850071 -7.92854,-0.29855 -7.92854,-0.298546 -0.32061,-3.364129 c -0.17634,-1.850271 0.22829,-4.030272 0.89918,-4.844447 1.6812,-2.040252 0.96038,-2.479558 -5.52229,-3.365589 -6.10808,-0.834832 -6.10053,-0.837911 -4.64895,1.893846 0.54229,1.020555 1.03334,8.068215 1.09122,15.661465 l 0.10523,13.80591 h 5.06152 c 4.44988,0 4.96603,-0.21458 4.27128,-1.77576 z m 144.32846,0.69345 c 6.81462,-2.60052 9.56654,-9.51358 5.89102,-14.79877 -1.63333,-2.34864 -8.3658,-4.413337 -14.39081,-4.413337 -2.14226,0 -4.74343,-0.624828 -5.78038,-1.388508 -1.81442,-1.336255 -1.79727,-1.435997 0.45567,-2.650388 3.15462,-1.700415 12.5706,-0.848486 14.98938,1.356193 1.51207,1.378218 2.09854,1.461418 2.95709,0.419504 1.85288,-2.248601 2.52538,-6.517194 1.04815,-6.652929 -0.72954,-0.06703 -3.81998,-0.85095 -6.86764,-1.742036 -9.1314,-2.669872 -18.44435,0.105585 -19.97971,5.954371 -1.95684,7.45442 2.08386,11.66822 12.0174,12.53221 9.91393,0.86228 12.65596,2.98452 6.93818,5.3699 -3.65527,1.52493 -8.88993,0.81132 -14.0958,-1.92161 l -3.82366,-2.00731 -0.60152,3.22939 c -0.94529,5.07497 -0.86735,5.19432 4.18395,6.40669 6.31862,1.51654 13.54761,1.64648 17.05868,0.30663 z m -71.75053,-1.70817 c -4.79064,0 -1.30941,-15.48878 -0.54195,-15.01106 0.47755,0.29726 2.33734,3.39681 4.13288,6.88788 1.79555,3.49108 3.81919,7.15648 4.497,8.14533 1.49557,2.18189 1.79288,1.85782 6.99403,-7.62352 2.06381,-3.76219 4.20965,-7.12497 4.76854,-7.47286 0.6659,-0.41451 0.8614,2.3805 0.56719,8.10873 l -0.44896,8.74126 h 4.92776 c 4.55973,0 4.84987,-0.14658 3.88482,-1.96273 -1.35938,-2.55825 -1.3759,-25.107705 -0.019,-25.952325 2.26677,-1.410992 -0.4658,-2.526573 -6.18874,-2.526573 -5.35132,0 -5.9872,0.210019 -5.48273,1.81085 0.55991,1.776774 -5.9059,15.443268 -7.30282,15.435658 -1.29238,-0.007 -7.45597,-13.178524 -6.87744,-14.696963 0.63542,-1.667773 -1.07179,-2.245834 -8.25,-2.793437 -4.3349,-0.330696 -4.36035,-0.313053 -3.77809,2.61912 0.32241,1.623632 0.5862,8.602785 0.5862,15.50923 v 12.55717 h 4.43939 c 3.6887,0 5.59539,-1.77576 4.09193,-1.77576 z m 44.1523,-13.19065 -0.20967,-14.967857 -4.32404,-0.299749 -4.32403,-0.29975 v 15.264816 15.26481 l 4.53371,0.003 4.53371,0.003 z m 56.28993,2.65819 -0.33926,-12.310986 5.62859,0.470116 5.62859,0.470117 v -3.828802 c 0,-3.82868 -1.31593,-5.908693 -2.50857,-3.965126 -0.93326,1.520893 -24.97994,1.351803 -26.50718,-0.186392 -0.94032,-0.947073 -1.20899,0 -1.20899,4.261828 0,4.261829 0.26867,5.208902 1.20899,4.261829 0.66495,-0.669716 3.15849,-1.217666 5.54121,-1.217666 h 4.33221 v 10.958992 c 0,7.17069 -0.41792,11.3799 -1.20899,12.17665 -0.94033,0.94707 0.0112,1.21797 4.28184,1.21904 l 5.49083,0.001 z m 23.20289,6.2199 -0.43725,-6.08833 3.39544,0.002 c 2.92888,0.002 3.79015,0.63107 6.26806,4.58139 1.57994,2.51876 2.61425,5.25769 2.29847,6.08651 -0.46787,1.22801 0.5279,1.50694 5.37972,1.50694 5.90101,0 8.33449,-1.14168 5.81495,-2.72811 -2.60158,-1.63809 -8.25954,-9.80232 -7.06996,-10.2017 0.64996,-0.2182 2.33791,-1.31271 3.75102,-2.43224 3.7268,-2.95253 3.68051,-9.993037 -0.0853,-12.976487 -2.36695,-1.875206 -4.03177,-2.103091 -15.36424,-2.103091 h -12.70965 v 15.220818 15.22081 h 4.598 4.598 z m -0.19507,-15.169605 v -3.095377 h 7.05244 c 6.79884,0 7.05244,0.08876 7.05244,2.468423 0,2.798644 -1.08262,3.231281 -8.81555,3.522879 -5.2681,0.19865 -5.28933,0.18703 -5.28933,-2.895925 z m 44.76979,19.482165 c -0.4306,-0.97667 -0.98121,-3.75536 -1.22357,-6.17487 -0.3825,-3.81858 0.0722,-5.15402 3.44572,-10.11965 2.13751,-3.146296 5.14426,-7.175849 6.68168,-8.954561 l 2.79531,-3.234021 -6.16806,-0.345063 c -5.9187,-0.331113 -8.18235,0.30804 -5.96944,1.685502 0.86654,0.5394 -0.72829,3.758606 -3.7501,7.569629 -0.81641,1.029646 -5.19408,-5.655867 -4.7309,-7.22497 0.41798,-1.415981 -0.48589,-1.738634 -5.68523,-2.029442 -6.84614,-0.382917 -8.13704,0.363143 -5.15696,2.98041 1.0943,0.961077 4.0758,4.692678 6.62555,8.292447 3.94383,5.567959 4.6359,7.263199 4.6359,11.355729 0,2.64588 -0.46077,5.0975 -1.02393,5.44805 -2.13977,1.33194 0.32893,2.52657 5.22114,2.52657 4.4702,0 4.99103,-0.21494 4.30289,-1.77576 z"
     id="path1"
     sodipodi:nodetypes="cccccccccccsccccccccsscccccccccccccccccccccccccccccccssccccccccscccccsccccccccscccccscsccccccsccccccccccccccccccccccccccsccccccccccccccsccccccsccccccccccccccccccsccccccsccccccccccccccsccccccscccccscccsscccccccscscccccccccccccccccccsccccccccccssssscsssscsscssssscssssscsssscsscsssssssscccssssssssssssssssssssscccssscsscsscssscccsscccsssscsscsssssssssssscccsssssscccsscsscccssssscccscccccccssssccsscccssssssscscccccsccssscccssssssscsccccccccccssssccccssssssssscsssssssssscccsssccccsssccscccssscccsscccscsssssssssssssssssssssssssssssscssssccssssssssssssssssssssssssssssssssssssssssssssssccsssccccccccsscsssccsssssssssscsscsssscssccsssssscsssscssssssssssssssssssssscsssssssssccccssccccsssssssssssssssssssscssssscssssssscssssssssssssssssssssssssssssssssssssssssssssssssssssscscssssssssssssssssssssssssssssssssssssssssscssssccccccccccccsssscccsscscccsscccccssssssscccssssscssssssssssssssscsssssssssscsssssssssscssscccccccccccccsssssscssccccccssssssssccccccscsssssssscsssssssssss"
     inkscape:label="path1"
     style="display:inline" /><text
     transform="translate(-25,-19)"
     x="144.12617"
     y="663.52429"
     fill="#000000"
     font-size="29px"
     style="line-height:1.1;white-space:pre;inline-size:584.851"
     xml:space="preserve"
     id="text9"><tspan
       x="144.12617"
       y="663.52429"
       id="tspan1">Play as part of your Battle Plan. Counts </tspan><tspan
       x="144.12617"
       y="695.4243"
       id="tspan2">as a poison defense, unless played with </tspan><tspan
       x="144.12617"
       y="727.32433"
       id="tspan3">another defense. In that case, it counts </tspan><tspan
       x="144.12617"
       y="759.22435"
       id="tspan4">as a poison weapon. You may keep this </tspan><tspan
       x="144.12617"
       y="791.12438"
       id="tspan5">card if you win this battle.</tspan></text><text
     transform="translate(112.05112,193.71261)"
     fill="#000000"
     font-size="43px"
     style="font-size:33.3333px;white-space:pre;shape-inside:url(#rect2);display:inline"
     xml:space="preserve"
     id="text10"><tspan
       x="0"
       y="0"
       id="tspan6">Defense - Weapon - Special</tspan></text></svg>
