<?xml version="1.0" encoding="UTF-8"?>
<!-- Created with Inkscape (http://www.inkscape.org/) -->
<svg width="822" height="1122" version="1.1" viewBox="0 0 822 1122" xmlns="http://www.w3.org/2000/svg">
 <path d="m88.154 78-3.1133 2.6191c-1.712 1.4405-3.7709 3.894-4.5762 5.4512-1.2793 2.4739-1.4648 61.806-1.4648 470.15v467.32l2.5195 3.707c4.563 6.7151-7.2096 6.2107 157.48 6.7578 82.775 0.2709 226.55 0.4101 319.5 0.2812 187.88-0.2435 173.11 0.3227 177.52-6.8203 1.9612-3.1732 1.9766-6.8128 1.9766-472.45v-469.25l-7.7656-7.7656h-321.04zm268.85 2.9492 31.42 0.55078 0.66016 3.2363c3.8863 19.032 34.089 19.617 39.133 0.75781l1.2012-4.4941h31.576l-0.2539 11h-21.295l-15.244 7.5c-8.3841 4.125-15.346 7.4325-15.471 7.3496-0.12483-0.0829-6.7516-3.4304-14.727-7.4395l-14.5-7.2891-22.5-0.12109v-5.5254zm-244.31 0.050781h22.309l-0.01 5.25-8e-3 5.25-8.4375 3.8574c-4.6399 2.1216-10.219 5.3841-12.398 7.25-4.507 3.8578-4.1322 3.7634-6.2363 1.5586-0.87481-0.91667-5.9732-5.9215-11.328-11.123-12.72-12.39-13.219-12.043 16.11-12.043zm25.309 0h215v11h-46.916c-36.598 0-47.028-0.27493-47.422-1.25-0.40351-1-0.52079-1-0.58399 0-0.06222 0.98523-12.787 1.25-60.078 1.25h-60v-5.5zm326 0h108.11c98.169 0 108.05 0.14566 107.5 1.582-0.33385 0.86998-0.60742 3.345-0.60742 5.5v3.918h-215v-5.5zm219 0h22.801c28.334 0 27.612-0.68388 13.719 13.023-6.1192 6.0373-11.326 10.956-11.572 10.932s-2.8561-1.8072-5.8008-3.9629c-2.9447-2.1559-8.4522-5.1747-12.238-6.707l-6.8828-2.7852-0.0137-5.25zm-273.92 0.0098c8.5048 0.032849 16.922 0.35614 16.922 0.92575 0 4.5462-4.7688 10.529-10.5 13.174-9.1127 4.2058-28.141-6.4101-23.871-13.318 0.35112-0.56813 8.9452-0.81699 17.449-0.78125zm-325.58 6.1015c0.66091-0.65079 4.8996 2.687 12.5 9.8418l11.5 10.824-3.2676 4.3613c-3.8862 5.1873-10.232 17.18-10.232 19.336 0 1.1365-1.1252 1.5254-4.418 1.5254-2.43 0-5.1535 0.28189-6.0527 0.62695-1.9243 0.73842-1.9529-44.621-0.029297-46.516zm649.63 0.28516c2.0914 0.70354 1.873 7.5339 1.873 23.105v23.385l-5.123-0.11719c-4.8962-0.11153-5.1893-0.27538-6.5918-3.6934-3.8624-9.413-5.535-12.648-8.9258-17.268l-3.6641-4.9922 11.037-11.039c5.2485-5.2485 8.4275-8.6333 10.35-9.3145 0.40044-0.14191 0.74615-0.16666 1.0449-0.06641zm-501.63 2.6035c-0.275 0-0.5 0.225-0.5 0.5s0.225 0.5 0.5 0.5 0.5-0.225 0.5-0.5-0.225-0.5-0.5-0.5zm3 0c-0.275 0-0.5 0.225-0.5 0.5s0.225 0.5 0.5 0.5 0.5-0.225 0.5-0.5-0.225-0.5-0.5-0.5zm59 0c-0.275 0-0.5 0.225-0.5 0.5s0.225 0.5 0.5 0.5 0.5-0.225 0.5-0.5-0.225-0.5-0.5-0.5zm203.83 0.33398c-0.36666 0.36667-0.06731 0.66602 0.66602 0.66602s1.0327-0.29935 0.66602-0.66602c-0.36667-0.36667-0.96537-0.36667-1.332 0zm-232.58 0.003907c-0.6875 0.27741-0.125 0.50391 1.25 0.50391s1.9375-0.22649 1.25-0.50391c-0.6875-0.27741-1.8125-0.27741-2.5 0zm373.85 22.592c24.179 0.40444 48.105 15.051 55.424 43.666 7.9623 31.132-11.691 63.457-43.078 70.855-42.957 10.125-81.686-30.531-69.287-72.734 8.3296-28.353 32.762-42.192 56.941-41.787zm-506.06 1.9258c2.9666 0.0306 6.2152 0.55765 9.5644 1.6523 6.7031 2.1909 6.3339 1.7387 4.4414 5.3984-1.659 3.2081-2.961 3.8545-4.0879 2.0312-1.7776-2.8762-11.411-4.1041-15.408-1.9648-4.3736 2.3407-1.5111 4.5138 7.1582 5.4375 14.818 1.5789 19.486 13.041 7.7773 19.096-4.9148 2.5415-17.459 1.488-24.756-2.0781-0.14727-0.072 0.59353-2.0544 1.6465-4.4062 1.7641-3.9402 1.9989-4.1171 2.9961-2.2539 2.7623 5.1614 19.125 5.788 19.125 0.73242 0-2.1239-2.7242-3.1723-10.293-3.9609-8.0131-0.83494-11.49-3.2418-12.332-8.5391-1.0918-6.8663 5.2681-11.236 14.168-11.145zm95.455 5.6445 4e-3 3 2e-3 3-9.002-0.32031-9.0021-0.32227v2.5059c0 2.8329 2.9746 3.686 8.75 2.5098 3.193-0.65031 3.25-0.5984 3.252 2.9824l2e-3 3.6445-6.0781-0.3418-6.0762-0.34375 0.32422 2.7734 0.32617 2.7734 8.2383-0.11524c4.5311-0.0627 8.6936-0.39441 9.25-0.73828 0.61869-0.38237 1.0117 0.95116 1.0117 3.4336 0 2.2325-0.1125 3.9599-0.25 3.8398-0.1375-0.12011-6.1-0.35622-13.25-0.52539l-13-0.30859 0.33789-11.525c0.2971-10.151 0.13421-12.454-1.0606-15.045-0.15255-0.33078 5.6856-0.66238 12.973-0.73828zm-37.088 0.16602c6.0582 0.32223 5.6197-0.71311 5.2559 12.379-0.23293 8.3819 0.0311 12.488 0.87109 13.5 1.0283 1.239 0.48606 1.4549-3.6641 1.4551h-4.873l0.16016-13.723c0.15534-13.238 0.2348-13.719 2.25-13.611zm-9.2168 0.084c0.38163-0.1375 0.54608 2.45 0.36523 5.75-0.62733 11.447-0.55473 18.693 0.19141 19.154 2.1177 1.3082 0.19064 2.3457-4.3574 2.3457-4.4796 0-5.0156-0.21499-4.3652-1.75 0.40781-0.9625 0.76708-3.5416 0.79688-5.7324l0.0527-3.9844-6.9375 0.11328-6.9394 0.11524-0.30469 4.6191c-0.18247 2.7657 0.11851 4.6191 0.75 4.6191 0.58013 0 1.0547 0.45 1.0547 1s-2.2813 1-5.0684 1c-4.359 0-4.9937-0.24463-4.543-1.75 0.83958-2.8039 1.0243-22.771 0.22266-24.068-0.52218-0.85072 0.7088-1.1817 4.3887-1.1817 3.8524 0 4.9216 0.30911 4.3223 1.25-0.43793 0.6875-0.87805 2.9573-0.97852 5.043l-0.18359 3.791 7.1699-0.29101 7.1699-0.29297v-3.5c0-1.925-0.39321-4.0625-0.87305-4.75-0.65535-0.93894 0.1534-1.25 3.25-1.25 2.2673 0 4.4348-0.1125 4.8164-0.25zm59.807 0.24609-1 21.137 17.504-0.63281-2e-3 3.75c-1e-3 2.0625-0.33945 3.6534-0.75195 3.5352s-5.925-0.35706-12.25-0.5293l-11.5-0.3125 0.33398-12.018c0.23286-8.3589-0.0314-12.459-0.87109-13.471-1.0282-1.2389-0.48596-1.455 3.6641-1.457zm396.04 0.00389c-58.619 0-71.187 80.681-15.535 99.725 32.098 10.983 66.934-14.375 66.988-48.764 0.0462-29.347-21.776-50.961-51.453-50.961zm-377.04 0.00195h9.7812c15.211-2e-3 19.719 2.9824 19.719 13.059 0 5.5166-1.8879 9.7318-5.3672 11.986-1.3711 0.88847-6.0635 1.5195-13.133 1.7676l-11 0.38672v-13.6zm376.01 2.8828c11.819-0.3142 23.882 3.7245 33.568 12.84 24.873 23.406 19.017 62.717-11.607 77.92-37.168 18.451-78.503-16.314-66.891-56.26 6.2096-21.36 25.231-33.976 44.93-34.5zm-368.51 2.1152v7.834c0 4.3083 0.28604 8.12 0.63672 8.4707 0.35069 0.35068 2.9199 0.41044 5.709 0.13281 13.217-1.3157 11.856-16.438-1.4805-16.438zm-186 10.5 4.252 0.18164c2.3379 0.10016 4.8008 0.2127 5.4746 0.25 0.96486 0.0535 1.2154 89.081 1.1777 419.07l-0.04687 419h-10.855v-419.25zm648.8 0.16016c2.3267 0.13334 4.5398 0.36661 4.6152 0.58398 0.0487 0.14036-0.0266 188.69-0.16602 419.01l-0.2539 418.75h-4.9961c-4.4988 0-5.002-0.22411-5.0508-2.25-0.71564-29.701-0.1808-835.82 0.55469-836.07 0.52919-0.18272 2.9702-0.14839 5.2969-0.0176zm-121.57 9.3105-0.53125 3.2637c-3.4064 20.882 6.9964 45.977 23.787 57.379 14.597 9.9125 37.054-20.612 36.297-49.336l-0.2832-10.777-29.635-0.26562zm29.27 8.0293c1.9815 0 2.5 0.50352 2.5 2.4316 0 1.5802 0.72459 2.664 2.0664 3.0898 3.5059 1.1127 8.7601 6.4087 9.4434 9.5195 0.5016 2.2838 1.2015 2.959 3.0703 2.959 1.7539 0 2.4199 0.55084 2.4199 2 0 1.4667-0.66667 2-2.5 2-1.404 0-2.5 0.57898-2.5 1.3203 0 2.1467-6.7608 9.4035-9.3711 10.059-1.4666 0.3681-2.6537 1.5856-3.0371 3.1133-0.80346 3.2013-3.1904 3.2469-3.9863 0.0742-0.3359-1.3383-1.5116-2.7187-2.6133-3.0684-3.1918-1.013-7.6252-5.1972-8.9844-8.4785-0.91013-2.197-1.9181-3.0195-3.6992-3.0195-1.9679 0-2.3844-0.44146-2.125-2.25 0.2328-1.6228 0.92114-2.1882 2.4688-2.0293 1.5058 0.15461 2.3181-0.46839 2.7246-2.0879 0.88073-3.5091 4.1745-7.192 8.0957-9.0527 2.6228-1.2432 3.5273-2.3028 3.5273-4.1269 0-1.95 0.51275-2.4531 2.5-2.4531zm-3.5293 10.141c-0.70251 0.21253-1.7804 1.0954-3.2832 2.6641-2.934 3.0625-3.5965 5.7584-1.1875 4.834 1.0837-0.41585 1.5 0.1091 1.5 1.8926 0 1.5277-0.57175 2.4688-1.5 2.4688-2.3259 0-1.7854 1.8689 1.4883 5.1426 2.9596 2.9596 5.0117 3.0823 5.0117 0.29883 0-2.1734 3.1127-1.7304 3.7031 0.52734 0.47483 1.8157 0.73129 1.8578 3.2852 0.53711 3.7958-1.9629 5.5496-6.5059 2.5117-6.5059-0.83333 0-1.5-0.88889-1.5-2 0-1.1 0.64887-2 1.4414-2 2.7835 0 2.6608-2.0521-0.29883-5.0117-3.2737-3.2737-5.1426-3.8142-5.1426-1.4883 0 0.93333-0.94444 1.5-2.5 1.5s-2.5-0.56667-2.5-1.5c0-1.114-0.32678-1.5719-1.0293-1.3594zm64.162 11.795 11.184 0.2832 11.184 0.28125-0.0254 401.13-0.0254 401.13-4.2656 8.6074c-5.6209 11.343-14.153 20.031-24.883 25.334l-7.6953 3.8027-243.57 0.5312-16.02-8.0214-16.02-8.0215-31.977 16.012-120.76-0.023-120.76-0.024-5.834-2.3984c-12.839-5.2789-23.025-14.736-29.201-27.109l-3.9648-7.9452-0.25586-401.75-0.25391-401.75h479.97l0.55859 2.75c14.129 69.594 112.01 71.174 121.93 1.9688zm-263.71 17.457c-0.86998 0.33385-1.995 0.60742-2.5 0.60742-1.2679 0-1.1619 22.676 0.11719 25.066 0.56935 1.0638 1.8932 1.9336 2.9414 1.9336 2.2226 0 3.5145-1.5784 2.0391-2.4902-0.6002-0.37147-1.0156-5.7549-1.0156-13.176 0-11.031-0.19143-12.475-1.582-11.941zm-317.42 0.375v27.51l6.1523-0.55664c18.638-1.69 18.974-25.353 0.37696-26.537zm53.623 0.23242c-3.3274 0-4.8029 1.0838-7.2949 5.3574-2.4493 4.2004-2.6789 5.0256-1.5078 5.416 0.76188 0.25396 1.1797 2.9612 1.1797 7.6426 0 3.9875 0.29935 7.5513 0.66602 7.918 2.9273 2.9273 4.334 0.54725 4.334-7.334 0-7.4276 0.14924-8 2.0742-8 1.4449 0 1.9635-0.53042 1.7129-1.75-0.21444-1.0437-1.082-1.6234-2.1504-1.4375-1.3644 0.23737-1.7144-0.23941-1.4648-2 0.2375-1.6761 1.0842-2.3995 3.0781-2.6289 4.098-0.47153 3.564-3.1836-0.62695-3.1836zm186 0.16602c-2.1446-0.41302-3.6913 1.4806-2.8984 3.5469 0.29411 0.76645 1.4888 1.2564 2.6562 1.0898 2.7038-0.38578 2.899-4.125 0.24219-4.6367zm66.506 4e-3c-0.47868 0.0514-0.94332 0.24996-1.3242 0.63086-0.58606 0.58606-0.78386 1.8025-0.4375 2.7051 0.80057 2.0862 4.0059 1.5324 4.4492-0.76953 0.29849-1.5499-1.2515-2.7207-2.6875-2.5664zm-127.19 4e-3 -3.4336 0.32598-0.2832 11.941c-0.15587 6.568-0.0573 12.53 0.21875 13.25 1.4614 3.8083 4.5644 1.2988 4.5644-3.6914 0-4.8712 0.0763-5 2.9531-5 6.166 0 10.047-3.6878 10.047-9.5469 0-4.922-6.0339-8.0444-14.066-7.2793zm113.65 1.826c-1.6626 0-3.582 1.4711-3.582 2.7461 0 0.84302-0.7875 2.1464-1.75 2.8945-1.6667 1.2955-1.6667 1.4233 0 2.7188 1.325 1.0299 1.75 2.8352 1.75 7.4297 0 4.1833 0.48897 6.5554 1.5723 7.6387 2.3636 2.3637 8.4277 2.1039 8.4277-0.36132 0-1.366-0.80725-2.0265-2.75-2.25-4.1458-0.47703-4.9143-11.816-0.80078-11.816 1.8832 0 2.5508-0.5229 2.5508-2 0-1.4667-0.66667-2-2.5-2-2 0-2.5-0.5-2.5-2.5 0-1.375-0.18796-2.5-0.41797-2.5zm-112.58 1.75 3.2012 0.64062c4.9278 0.98555 6.6533 5.5469 2.8652 7.5742-4.417 2.3639-6.0664 1.3881-6.0664-3.5898zm-172.61 0.25c6.5556 0 10.094 11.013 5.1113 15.908-1.1 1.0806-3.2375 2.2674-4.75 2.6367l-2.75 0.67188v-9.6074c0-9.4643 0.0355-9.6094 2.3887-9.6094zm192.15 2.1875c-1.2808 0.06628-2.5352 4.931-2.5352 11.42 0 8.7263 0.14195 9.3926 2 9.3926 1.7802 0 2-0.66734 2-6.0664 0-7.57 1.1724-9.9336 4.9277-9.9336 3.2345 0 4.9966-2.7079 2.4082-3.7012-0.89684-0.34415-2.8932-0.15053-4.4356 0.43164-1.7314 0.65353-2.9251 0.69529-3.1211 0.10742-0.38729-1.1618-0.81723-1.6725-1.2441-1.6504zm79.871 0.24609c-7.8932-1.1442-15.215 10.91-8.4824 17.643 4.2363 4.2363 14.432 3.9015 12.773-0.41992-0.4441-1.1573-1.4848-1.403-4.1367-0.97266-4.6312 0.75154-6.5606-0.91982-6.5606-5.6836 0-4.7141 1.9378-6.434 6.4297-5.7051 3.6564 0.59336 5.913-1.7668 3.3535-3.5078-1.1116-0.75614-2.2493-1.1901-3.377-1.3535zm-41.797 0.19922c-0.81721-0.0416-1.8524 0.24592-3.166 0.75-1.727 0.66272-0.776 3.6172 1.1641 3.6172 1.0734 0 1.3926 1.8165 1.3926 7.918 0 9.55-0.499 11.082-3.6074 11.082-1.7263 0-2.3926 0.55718-2.3926 2 0 2.5978 4.8549 2.7509 7.9277 0.25 2.0085-1.6347 2.1317-2.5077 1.8613-13.25-0.23025-9.1488-0.72811-12.242-3.1797-12.367zm-147.25 0.0215c-1.3186-0.0926-2.7787 0.32475-4.3281 1.3047-0.92287 0.58368-1.924 0.54594-2.7051-0.10156-2.4998-2.0748-3.3281 0.33696-3.3281 9.7012 0 8.7743 0.14123 9.4414 2 9.4414 1.8061 0 2-0.66606 2-6.877 0-12.623 7.1662-13.63 8-1.123 0.76904 11.536 5 12.132 5 0.70508 0-7.9185-2.6828-12.773-6.6387-13.051zm-22.729 0.34569c-8.5067 0-12.897 10.891-6.834 16.953 3.1347 3.1348 8.8962 4.1584 12.072 2.1465 2.6066-1.6512 0.66538-3.5953-3.252-3.2578-3.875 0.33385-6.6191-1.1035-6.6191-3.4648 0-1.0389 1.721-1.377 7-1.377 6.8557 0 7-0.0524 7-2.5762 0-3.9013-5.0286-8.4238-9.3672-8.4238zm188.38 0c-8.9358 0-13.403 10.761-7.0879 17.076 3.1126 3.1126 8.3206 3.9338 12.105 1.9082 3.2951-1.7635 1.3222-3.8413-3.0859-3.25-4.0881 0.54832-6.9434-0.83237-6.9434-3.3574 0-1.0389 1.721-1.377 7-1.377 6.8557 0 7-0.0524 7-2.5762 0-3.7061-5.0333-8.4238-8.9883-8.4238zm-148.57 0.0156c-7.4678-0.0374-8.8084 6.6307-2.1914 10.9 5.3601 3.4587 4.8446 7.2101-0.70117 5.1016-2.9754-1.1312-5.022 1.4368-2.4453 3.0684 4.0829 2.5853 11.909-0.30836 11.881-4.3926-0.0209-2.9941-0.91032-4.1474-4.918-6.3789-4.9228-2.741-5.257-4.6724-0.71875-4.1426 2.5292 0.29526 3.7626-0.0159 4.1582-1.0469 0.72747-1.8958-1.2192-3.0902-5.0644-3.1094zm226.18 0.0508c-8.4047-0.57855-14.663 11.805-6.8301 17.988 2.5404 2.0056 10.999 2.491 12.758 0.73242 1.7866-1.7866-0.96912-3.5402-4.7637-3.0312-3.2308 0.43333-4.3677 0.16278-5.4336-1.2949-2.2499-3.0761-1.6226-3.4609 5.6523-3.4609 8.9017 0 10.226-5.6231 2.3164-9.8359-1.2535-0.6676-2.4986-1.015-3.6992-1.0976zm-206.16 0.0762c-2.4414-0.2071-5.0967 0.52388-7.3476 2.418-5.1897 4.3668-4.8527 13.037 0.63867 16.418 1.6606 1.0224 10.728 0.87504 11.795-0.19141 1.7866-1.7866-0.96912-3.5402-4.7637-3.0312-3.2308 0.43333-4.3677 0.16278-5.4336-1.2949-2.2499-3.0786-1.6226-3.461 5.6523-3.461h7v-3.0449c0-4.516-3.472-7.4673-7.541-7.8125zm94.713 0.0215c-0.97101-0.12977-1.9693-0.12233-2.9492 0.0234-1.3066 0.19879-2.5791 0.65545-3.707 1.3945-5.2242 3.423-5.3513 13.318-0.21679 16.914 8.2686 5.7915 18.015-4.1304 13.592-13.838-1.1434-2.5094-3.8057-4.1048-6.7187-4.4941zm82.975 0.0234c-2.613-0.26025-3.1465 0.0363-3.1465 1.75 0 1.1348 0.45 2.0625 1 2.0625 0.58405 0 1 3.3573 1 8.0703 0 7.7013 0.0983 8.055 2.1602 7.75 2.0411-0.30189 2.1599-0.84522 2.1465-9.8203l-0.0137-9.5zm-272.02 0.14258c-8.6598-0.76451-15.322 10.807-7.6973 17.365 4.1924 3.6062 14.484 2.858 13.023-0.94726-0.44992-1.1725-1.5635-1.4096-4.6758-0.99219-3.2308 0.43333-4.3677 0.16278-5.4336-1.2949-2.2499-3.0769-1.6226-3.4609 5.6523-3.4609 8.7054 0 10.44-5.6522 2.9277-9.5371-1.2828-0.66338-2.5598-1.0236-3.7969-1.1328zm188.12 3.582c0.87845 0.0935 1.7598 0.50203 2.5449 1.2871 1.5525 1.5525 1.5525 8.0491 0 9.6016-3.1403 3.1403-7.8008 0.27205-7.8008-4.8008 0-3.8046 2.6205-6.3684 5.2559-6.0879zm-189.26 0.08789c1.9062 0 3.3036 0.69869 4 2 1.005 1.8778 0.76049 2-4 2s-5.005-0.12223-4-2c0.69644-1.3013 2.0938-2 4-2zm94 0c1.9062 0 3.3036 0.69869 4 2 1.005 1.8778 0.76049 2-4 2s-5.005-0.12223-4-2c0.69644-1.3013 2.0938-2 4-2zm207 0c1.9062 0 3.3036 0.69869 4 2 1.005 1.8778 0.76049 2-4 2s-5.005-0.12223-4-2c0.69644-1.3013 2.0938-2 4-2zm-265.91 0.1543c2.2148-0.0984 4.9062 0.97459 4.9062 2.3652 0 1.0925-1.2028 1.4805-4.584 1.4805-4.6531 0-5.5179-1.2722-2.2617-3.3262 0.51488-0.32478 1.2012-0.48673 1.9394-0.51953zm188 0c2.2148-0.0984 4.9062 0.97459 4.9062 2.3652 0 1.0925-1.2028 1.4805-4.584 1.4805-4.6531 0-5.5179-1.2722-2.2617-3.3262 0.51488-0.32478 1.2012-0.48673 1.9394-0.51953zm-100.59 2.8457c-3.8333 0-4.5 0.2963-4.5 2s0.66667 2 4.5 2 4.5-0.2963 4.5-2-0.66667-2-4.5-2zm137.43 38.658c-144.76 0.0174-289.52 0.59641-291.67 1.7188-3.9084 2.0414-7.8965 6.4936-9.7129 10.842-1.382 3.3084-1.552 21.15-1.543 162l0.01 158.28 2.4141 5.1856c1.6719 3.591 3.7231 6.0511 6.668 8l4.252 2.8144 211.57 0.5c116.37 0.275 246.71 0.275 289.66 0l78.086-0.5 3.9883-2.7637c2.193-1.5201 4.967-4.5069 6.1641-6.6367l2.1755-3.8711v-160.55c0-111-0.32883-161.42-1.0644-163.37-1.329-3.5174-5.5306-8.0202-9.3379-10.008-2.1489-1.1218-146.91-1.6658-291.67-1.6484zm272.45 2.0254c32.906 1.1188 27.621 12.94 27.621 93.465l-0.2268 159.62c-0.30782 89.852 0.30603 83.141-8.1094 88.598l-4.0642 2.6347h-57.217c-38.782 0-55.009-0.29875-56.883-1.002-0.49923 0.1341-1.0831 0.19875-1.7578 0.16211-0.41354-0.0224-0.82684-0.0458-1.2402-0.0684 9e-3 9e-3 0.1543 0.15603 0.15625 0.1582 0.37158 0.4125-76.688 0.74619-171.24 0.74219l-148.29-6e-3c-0.30107 0.14873-0.69434 0.23804-1.1856 0.22265-2.3098-0.0723-4.6201-0.14923-6.9297-0.22265h-15.514l0.29297-0.2793c-3.9989-0.0222-7.9973-0.0408-11.996-0.0918-0.38418-5e-3 -0.76818-0.0117-1.1524-0.0176-26.204 1.1002-102.08 0.4371-105.19-1.4609-10.054-6.1311-9.5963-1.5257-9.248-93.092l0.0352-155.41c-0.35166-105.5-9.2565-93.578 69.93-93.609l143.65-0.02127h316.35c9.8549 0 18.336-0.18714 25.635-0.31055 6.3864-0.10797 11.868-0.15406 16.568-6e-3zm-279.38 20.012v8.1524c0 4.484 0.3375 8.1649 0.75 8.1797 5.8266 0.20863 19.778 1.3967 23.25 1.9805 9.8736 1.6601 9.4966 1.8803 11.371-6.6504 0.92353-4.203 1.5555-7.7444 1.4043-7.8711-1.0155-0.85086-15.19-2.6455-25.025-3.168zm-17.145 1.3047-4.1777 0.625c-6.3115 0.94564-27.055 6.3515-28 7.2969-0.84727 0.84726 1.2721 9.2494 3.2793 13 1.333 2.4908 0.90434 2.4646 7.7969 0.46093 3.0591-0.88929 9.4287-2.411 14.154-3.3809 9.6536-1.9812 9.0044-0.93986 7.6406-12.252zm72.686 8.3828c-2.4198 0.0755-3.0965 2.2585-4.4746 6.625-2.569 8.1398-2.7975 7.7005 5.9336 11.346 3.575 1.4926 9.2 4.2222 12.5 6.0644 3.3 1.8423 6.225 3.3948 6.5 3.4512s2.4162-2.9279 4.7578-6.6328c5.0717-8.0243 5.7583-7.034-10.279-14.834-8.3537-4.0629-12.518-6.095-14.938-6.0195zm-122 6.8398c-0.88696-0.92562-26.578 15.406-28.094 17.859-0.31201 0.50484 1.5113 3.6177 4.0508 6.918 5.498 7.1451 4.0329 6.9582 11.844 1.498 3.5413-2.4756 9.3652-6.2118 12.943-8.3027l6.5059-3.8008-3.4922-6.9473c-1.9204-3.821-3.6114-7.0718-3.7578-7.2246zm62.484 9.0254c-1.7888 0.22665-3.6942 0.78-5.6973 1.6894-4.8588 2.2061-5.8724 3.7677-6.8574 10.562-0.39866 2.75-1.1612 5.5464-1.6934 6.2148-1.3873 1.7426 0.0367 8.7822 2.3789 11.76 2.2547 2.8664 1.3338 7.9542-1.9453 10.738-3.2214 2.7351-12.709 7.4917-16.238 8.1426-5.3123 0.97959-10.27 5.6983-13.84 13.172-4.5646 9.5559-10.42 17.873-18.814 26.729-7.4851 7.8955-12.045 14.289-16.578 23.244-1.392 2.75-5.1186 8.15-8.2832 12-6.4686 7.8696-8.459 11.846-8.459 16.908 0 3.485 1.3388 5.4711 2.4629 3.6524 0.33061-0.53496 1.261-0.71998 2.0684-0.41016 0.91533 0.35125 1.4688-0.041 1.4688-1.043 0-0.88385 0.50304-1.6074 1.1172-1.6074 0.62106 0 0.88601-0.87972 0.59765-1.9824-0.32748-0.66839-0.0174-0.94029 0.1836-1.377 8e-3 -0.0217 0.0252-0.0406 0.0371-0.0605 0.077-0.0733 0.18235-0.0928 0.28125-0.1211 0.0908-0.0736 0.10242-0.0935 0.15625-0.14257 0.10701-0.16245 0.19966-0.33331 0.28906-0.50586 7e-3 -0.0142 0.0144-0.0287 0.0215-0.043 0.0106-0.0463 0.0208-0.0924 0.0312-0.13867 0.0214-0.15678 0.0415-0.31388 0.0625-0.47071 0.18179-0.93871 0.0133-0.0325 0.28321-1.4961 0.0259-0.12949 0.0573-0.25742 0.13086-0.36914 0.0594-0.0814 0.13131-0.15166 0.22461-0.19336 0.0837-0.0785 0.10907-0.0761 0.16796-0.11719 0.0783-0.0555 0.1585-0.10678 0.2461-0.14648 0.088-0.0398 0.17954-0.0724 0.27344-0.0957 0.10418-0.0272 0.21002-0.0499 0.31836-0.0469 0.12779 0.0131 0.24935 0.0527 0.35546 0.12695 0.0579 0.0431 0.0773 0.0543 0.12891 0.10742 0.0983 0.10129 0.16936 0.22554 0.22266 0.35547 0.0118 0.0378 0.0249 0.075 0.0351 0.11328 0.0586 0.21873 0.0698 0.44688 0.0801 0.67188 8e-3 0.31949 5e-3 0.63951-4e-3 0.95898-8e-3 0.28713-0.0157 0.57267-0.0332 0.85938-3e-3 0.0673-6e-3 0.13395-0.01 0.20117-7e-3 0.0932-0.014 0.18634-0.0234 0.2793-3.7e-4 5e-3 -2e-3 0.0104-2e-3 0.0156-0.015 0.2099-0.0308 0.41978-0.0547 0.62891-0.0182 0.16029-0.0389 0.32062-0.0605 0.48047-2.2e-4 3e-3 2.2e-4 7e-3 0 0.01-0.02 0.29917-0.0304 0.59876-0.0391 0.89844-6e-3 0.21405-0.01 0.42833-0.0117 0.64258 6e-3 0.52502 0.35857 0.95703 0.79687 0.95703 0.81349 0 5.1973-12.576 5.1973-14.91 0-0.6972 9.5625-11.159 21.25-23.248 11.688-12.089 21.853-23.124 22.59-24.521 1.6841-3.194 1.6048-3.3006 8.623 11.59 6.655 14.12 7.1547 17.626 4.0039 28.09-2.8781 9.5583-2.6501 44.243 0.40429 61.611 2.5382 14.433 2.5973 16.661 0.59961 22.523-1.4455 4.2423-1.391 5.0666 0.99805 14.928 1.9673 8.1204 2.5283 13.042 2.5293 22.168 1e-3 13.306 1.5508 18.913 5.873 21.262 8.2426 4.4787 11.406-0.63905 7.1191-11.516-4.4386-11.261-4.6172-31.289-0.44531-49.977 2.6087-11.686 3.651-20.264 4.3086-35.5 0.75028-17.382 2.995-21.513 4.3476-8 0.71579 7.1507 5.6358 27.663 8.0606 33.605 1.1491 2.8161 1.1234 3.9159-0.17383 7.5234-1.2955 3.6028-1.3369 5.2982-0.27344 11.5 0.99065 5.777 0.99792 8.7782 0.0195 14.586-1.2223 7.2742-1.2115 7.3461 1.877 13.549 1.7077 3.4296 3.4005 7.5863 3.7637 9.2363 0.99679 4.529 3.3072 7.5044 5.7988 7.4688 6.7324-0.0961 7.7356-7.427 2.1914-16.002-5.4582-8.442-5.4139-7.7196-1.498-25.467 4.2688-19.346 4.8408-67.934 1.0312-87.5-2.9306-15.052-1.3291-33.503 3.7734-43.488l1.5274-2.9883 3.0996 3.957c5.5767 7.1165 12.995 14.687 18.719 19.102 5.9826 4.614 11.883 12.685 11.883 16.256 0 1.1894 0.45 2.1621 1 2.1621s1 0.675 1 1.5c0 1.984 0.9558 1.8961 2.7148-0.25 0.78893-0.9625 1.1491-1.1875 0.80078-0.5-0.98678 1.9481 0.41158 3.556 1.9688 2.2637 0.71811-0.596 1.9148-0.95562 2.6602-0.79883 4.7601 1.0013 1.8625-6.1768-5.9141-14.648-4.337-4.7247-10.018-12.297-12.623-16.828-2.6049-4.5307-6.2077-10.087-8.0059-12.348-1.7982-2.2602-5.211-8.9444-7.5859-14.854-4.9896-12.415-7.7182-16.125-12.84-17.461-2.022-0.52747-5.8245-1.4964-8.4512-2.1543-6.0967-1.527-5.9717-1.1616-3.5781-10.488 5.2228-20.351-1.5976-34.772-14.119-33.186zm103.07 8.3027c-1.2965 0.1858-2.4524 2.0424-5.2461 5.8242l-4.6484 6.293 6.1484 5.5625 11.402 11.158c4.9092 5.1959 4.3369 5.3649 10.123 0.46875 0.40464-0.59086 1.058-1.1699 1.9766-1.6484l5.1738-4.3047-4.2637-5.0801c-4.3508-5.1827-4.9896-5.7988-14.574-14.074-3.359-2.9002-4.7953-4.385-6.0918-4.1992zm-207.88 12.26-6.3965 7.498c-3.5188 4.124-8.315 10.232-10.658 13.572l-4.2617 6.0723 6.7988 4.4043c3.7386 2.4223 7.0675 4.1204 7.3984 3.7734 0.33096-0.34696 3.1275-4.0059 6.2148-8.1309s7.1677-9.3 9.0664-11.5c3.9181-4.5399 4.0474-4.1631-4.0898-11.846zm242.76 25.189c-1.32 0-12.979 8.2898-12.979 9.2285 0 0.52898 0.92491 2.261 2.0547 3.8476s4.1198 7.281 6.6445 12.654c2.3386 4.9771 4.1138 8.6279 4.543 9.3965 0.40092-0.26282 0.89457-0.49361 1.4863-0.67187 4.4175-1.3307 8.9-2.4306 13.348-3.6582 0.28075-0.15193 0.44524-0.30638 0.74805-0.45313 1.1288-0.54704-14.431-30.344-15.846-30.344zm-272.12 17.02-3.334 7.2402c-3.1958 6.9421-9.0606 24.601-8.3633 25.182 0.18443 0.1537 3.0359 0.97334 6.3359 1.8203 9.4659 2.4295 9.1703 2.5614 11.463-5.1367 1.126-3.781 3.4033-10.163 5.0606-14.182 3.4085-8.2657 3.5269-7.9775-4.9414-11.982zm293.24 32.154c-0.64047 0.16803-1.2816 0.33291-1.9219 0.50195-4.5274 1.108-9.0933 2.3108-13.75 2.7012 0.0103 0.11761-0.0301 0.22721 0.0176 0.35157 0.97779 2.5481 3.5429 19.537 3.5469 23.494l2e-3 2.1699c3.3771 0.0183 6.7538 0.0367 10.131 0.0488 2.3456 7e-3 4.6914 5e-3 7.0371 0.01l-1.0645-9.2014c-1.4074-12.171-2.4654-17.695-3.998-20.076zm-304.87 17.947c-3.6971-0.0567-3.6356 1.2411-4.0449 6.9004-0.65655 7.5881 0.0165 7.0842-0.19141 17.012-0.0994 4.7473 0.3375 8.9736 0.75 9.3887 0.4125 0.41503 2.325 0.49503 4.25 0.17773 1.925-0.31731 5.3599-0.58189 7.6328-0.58789l4.1328-0.0117 0.0352-15.891 0.0332-15.891-7.4902-0.70117c-2.2246-0.20846-3.8751-0.3776-5.1074-0.39649zm60.449 27.58c-1e-3 7.3e-4 -3e-3 -1e-3 -4e-3 2e-3 5.4e-4 1e-3 3e-3 3e-3 4e-3 4e-3 -4e-5 -2e-3 3e-5 -4e-3 0-6e-3zm232.56 2.0254-1.2598 8.8867c-0.69214 4.8875-2.0485 11.739-3.0137 15.227l-1.3145 4.7539c1.3866 0.33565 2.7696 0.68419 4.1484 1.0391 3.8616 1.0331 7.7116 2.1063 11.557 3.1992 0.75273-1.2103 1.3592-3.1992 2.3203-7.0273 2.4892-9.9144 4.3097-23.69 3.2207-24.363-0.40251-0.24876-4.0901-0.73697-8.1953-1.084zm-279.22 18.098c-0.9002 0.0399-2.2493 0.3046-4.1621 0.80078-2.9137 0.7558-5.9874 1.3826-6.8301 1.3906-4.2816 0.0428-4.4066 1.3555-1.1777 12.303 1.71 5.7978 4.2111 13.033 5.5586 16.08l2.4512 5.541 7.3184-3.3906c3.6537-1.692 6.1849-3.742 7.3047-5.3106-0.30946-0.76722-0.60982-1.5372-0.89453-2.3144-0.44596-1.2146-0.87568-2.4353-1.2852-3.6621v-2e-3c-1.3489-3.4396-3.3364-9.3415-6.8086-20.885-0.1221-0.40591-0.57441-0.59071-1.4746-0.55078zm268.57 27.941c-1.0559 0.62316-1.9856 2.0664-3.7344 5.5449-1.7116 3.4047-5.0994 9.2695-7.5273 13.035-2.0899 3.2412-3.0789 5.0665-3.416 6.3164 1.7081 1.55 3.4087 3.1089 5.0781 4.7031 1.0315 1.0292 2.0676 2.0536 3.1035 3.0781 2.0816 1.4264 4.102 2.674 4.2852 2.4746 2.8496-3.1021 16.619-27.461 16.619-29.4 0-0.29319-1.8182-1.261-4.041-2.1504-0.83855-0.33552-1.4741-0.67828-2.0898-1.0117-2.4969-0.80934-4.9956-1.6157-7.5215-2.3281-0.27077-0.0764-0.52243-0.1645-0.75586-0.26172zm-250.16 12.73c-1.4371-0.0913-4.3725 4.8515-7.4277 6.0039-3.8445 2.2-6.995 4.3807-7 4.8457-0.0132 1.2757 10.299 15.977 15.189 21.656 3.9844 4.6267 4.9199 5.7852 7.8808 3.3008 1.2594-1.369 2.5168-2.7388 3.7422-4.1387 1.0574-1.1728 2.1397-2.326 3.3594-3.334 0.68334-0.58098 1.3689-1.1599 2.0703-1.7188l-4.4688-5.2852c-6.7299-7.9591-12.66-17.114-12.459-19.234-0.095-1.4761-0.40769-2.0653-0.88672-2.0957zm223.51 25.994-4.8106 4.8711c-2.9218 2.9586-7.9539 7.3509-11.184 9.7598-3.2296 2.4089-5.89 4.8428-5.9121 5.4102-5.6e-4 0.0143-0.0582 0.0476-0.0605 0.0625 0.0772 0.0857 0.15321 0.17213 0.23047 0.25781 3.2925 3.7428 6.8569 7.2218 10.42 10.701 3.4995-0.44602 8.7269-4.9 19.379-15.16l2.8496-2.7441c-8e-3 -0.01-0.017-0.0194-0.0254-0.0293-3.3401-3.9396-6.6236-7.9261-9.8867-11.93-0.33287-0.39999-0.66679-0.79932-1-1.1992zm-208.71 6.793c-0.17713 0.19277-0.38146 0.35817-0.55665 0.55274-0.39796 0.45457-0.8036 0.9021-1.207 1.3516 5e-3 -4e-3 0.0104-8e-3 0.0156-0.0117 0.58886-0.62496 1.1737-1.2537 1.748-1.8926zm14.764 5.5547c-0.76883 2e-3 -3.2627 2.2119-5.9707 5.4141l-5.2461 6.2031 3.3594 2.8867c2.7626 2.3737 13.494 9.7044 22.467 15.35 2.7461 1.7276 2.5653 1.8814 6.6426-5.6738 4.5786-8.4842 4.7584-7.2574-1.5859-10.838-2.6726-1.5083-7.2792-4.6477-10.803-7.2422-0.34161-0.18999-0.68515-0.37601-1.0215-0.57617-2.222-1.3436-4.3905-2.7798-6.4473-4.3672-0.47089-0.37822-0.93399-0.76568-1.3945-1.1562zm17.041 9.9004c0.15628 0.1009 0.2648 0.15813 0.41992 0.25781-0.0921-0.0667-0.1837-0.13386-0.27539-0.20117-0.0483-0.0187-0.0963-0.0379-0.14453-0.0566zm140.93 5.5117c-9.3686 4.3714-20.702 8.9757-27.334 10.58 0.35111 0.93006 0.69828 1.8609 1.043 2.793 1.4859 4.3179 2.9597 8.6349 4.5938 12.898 3.0785 0.94519 8.8489-1.4839 21.939-7.6894l8.7168-4.1309-3.582-6.4023c-1.0425-1.8641-1.1186-2.2819-1.7012-3.4941-0.0932-0.12645-0.18295-0.25524-0.27735-0.38086-1.086-1.4328-2.24-2.8055-3.3984-4.1738zm-117.21 8.2188c-1.2483-0.48356-1.9927-0.0112-2.6484 1.6797-0.50157 1.2934-1.8589 4.7359-3.0176 7.6504l-2.1074 5.2988 3.7559 1.5781c2.0651 0.86738 8.7039 2.8487 14.754 4.4043 15.914 4.092 15.045 4.3407 16.385-4.6641 1.3385-8.9995 1.3503-8.9722-4.1074-9.7285-3.8625-0.53526-18.677-4.539-23.014-6.2188zm71.26 7.1016c-3.3815 0.56603-6.7687 1.1183-10.191 1.3418-2.7792 0.13921-5.5596 0.19103-8.3398 0.15234-3e-3 -3e-5 -5e-3 4e-5 -8e-3 0-1.6889 0.0898-3.377 0.19699-5.0684 0.22852-1.0814 8e-3 -2.1636 9e-3 -3.2461-8e-3 -0.80526 0.7453-1.1361 2.7259-1.3476 8.2754l-0.32208 8.4396h16.555l6.5098-0.68359c4.3463-0.45692 6.7179-0.75638 8.4004-1.1875-0.0787-0.20842-0.15071-0.42797-0.21289-0.66602-0.52296-2.0022-0.27324-0.97771-0.74218-3.0742-0.69249-3.4717-1.098-6.9899-1.5762-10.496-0.12718-0.77573-0.26538-1.5495-0.41015-2.3223zm-95.59 58.43c-2.697 0-5.4336 1.9911-5.4336 3.9531 0 2.9475-1.0848 5.0469-2.6074 5.0469-1.9691 0-1.7366 1.7861 0.2832 2.1758 1.4004 0.27017 1.6362 1.4337 1.4316 7.0742-0.19898 5.4862 0.0393 6.75 1.2774 6.75 1.1847 0 1.5903-1.5003 1.8203-6.75 0.26867-6.1332 0.50052-6.78 2.5449-7.0703 3.0612-0.43476 2.861-2.1797-0.25-2.1797-1.9657 0-2.5-0.50755-2.5-2.377 0-2.6636 2.3591-5.138 3.957-4.1504 0.57409 0.35481 1.043-0.05661 1.043-0.91407s-0.70525-1.5586-1.5664-1.5586zm157.07 0c-1.5544 0-2.3646 23.803-0.86133 25.307 1.7592 1.7592 2.3613-1.5184 2.3613-12.865 0-10.392-0.24705-12.441-1.5-12.441zm54.182 0.26172c-0.95029 0.66817-1.1042 4.1689-0.87109 12.988 0.24881 9.4143 0.59668 11.75 1.75 11.75 1.8118 0 2.1474-23.445 0.35156-24.555-0.50876-0.31443-0.9137-0.40631-1.2305-0.18359zm-400.43 0.23828c-0.6875 0-1.25 0.3375-1.25 0.75v12.25c0 8.9606 0.29683 11.5 1.3438 11.5 1.0568 0 1.3236-2.615 1.25-12.25-0.0694-9.0834-0.41687-12.25-1.3438-12.25zm-21.25 1.5v11.5c0 9.5556 0.25362 11.5 1.5 11.5 1.1111 0 1.5-1.1667 1.5-4.5 0-4.1567 0.19368-4.5 2.5488-4.5 3.8219 0 8.3442-2.7254 9.0254-5.4394 1.4494-5.775-1.7073-8.5197-9.8242-8.5449zm302 0v23h5.5449c8.5434 0 13.415-6.0105 8.4863-10.471-1.484-1.343-1.7298-2.2261-1-3.5898 3.0788-5.7528 0.0154-8.9394-8.5957-8.9394zm100 0v11.5c0 9.5556 0.25362 11.5 1.5 11.5 1.1044 0 1.5-1.1528 1.5-4.3691v-4.3672l4.2402-0.56836c11.882-1.5937 10.147-13.695-1.9629-13.695zm-236.67 2c-0.73117 0-1.3301 0.8785-1.3301 1.9512s-0.7875 2.4132-1.75 2.9805c-1.1957 0.70471-1.3974 1.2758-0.63477 1.8008 0.61387 0.42257 1.3325 3.423 1.5957 6.668 0.34539 4.2579 1.0071 6.2855 2.377 7.2871 2.0817 1.5222 5.9121 1.4007 5.9121-0.1875 0-0.55-1.0115-1.1427-2.248-1.3184-4.1802-0.59372-4.6328-11.415-0.50195-12.002 1.2375-0.17575 2.25-0.7062 2.25-1.1797s-1.0125-1.0039-2.25-1.1797c-1.6025-0.22759-2.2265-0.96779-2.1699-2.5703 0.0439-1.2448-0.5145-2.25-1.25-2.25zm177.17 0c-0.93333 0-1.5 0.94444-1.5 2.5s-0.56667 2.5-1.5 2.5c-0.825 0-1.5 0.40143-1.5 0.89258 0 0.49116 0.675 1.1522 1.5 1.4688 1.102 0.42288 1.5 2.1621 1.5 6.5566 0 4.6341 0.39425 6.216 1.75 7.0215 0.9625 0.57184 2.6141 0.93279 3.6719 0.80078 2.593-0.32388 3.2835-2.7402 0.7832-2.7402-5.1454 0-6.053-11.23-0.95508-11.816 3.4359-0.39535 3.6407-2.1836 0.25-2.1836-2 0-2.5-0.5-2.5-2.5 0-1.5556-0.56667-2.5-1.5-2.5zm12.869 0c-0.77651 0-1.3691 1.0317-1.3691 2.3828 0 1.605-0.73481 2.6041-2.25 3.0586-2.095 0.62841-2.1205 0.72667-0.36328 1.4277 1.5083 0.60179 1.9311 1.9274 2.1074 6.6016 0.16609 4.4035 0.68616 6.1888 2.1055 7.2266 2.1929 1.6035 5.5615 1.3587 6.1562-0.44727 0.25755-0.78205-0.54999-1.25-2.1543-1.25-4.476 0-5.2822-11.191-0.85156-11.82 1.2375-0.17575 2.25-0.7062 2.25-1.1797s-1.0125-1.0039-2.25-1.1797c-1.6179-0.22978-2.217-0.9524-2.1309-2.5703 0.069-1.2965-0.46073-2.25-1.25-2.25zm-349.07 1c5.8837 0 8.2576 6.0777 3.1348 8.0254-5.2979 2.0142-6.4356 1.3908-6.4356-3.5254 0-4.4242 0.0563-4.5 3.3008-4.5zm402 0c5.6587 0 7.7401 4.4571 3.4766 7.4434-4.4524 3.1186-6.7773 2.1088-6.7773-2.9434 0-4.4242 0.0563-4.5 3.3008-4.5zm-100.05 0.19336c4.4868 0.32463 6.6889 3.9621 3.5879 5.9277-3.9349 2.4942-7.8379 0.82822-7.8379-3.3457 0-2.7826 0.1592-2.878 4.25-2.582zm139.93 2.3027c-1.0388-0.40879-1.8096 3.0603-1.7578 9.002 0.1001 11.474 3.2886 12.952 3.7793 1.752l0.29492-6.75h7l0.29492 6.75c0.22356 5.1035 0.65043 6.75 1.75 6.75 2.4871 0 2.0493-14.612-0.47851-15.965-2.625-1.4048-6.3824-1.3038-7.9922 0.21484-1.06 1-1.4165 1-1.7832 0-0.38509-1.0502-0.76116-1.6176-1.1074-1.7539zm-297.36 0.0645c-0.94244 0.15479-1.8262 4.1486-1.8262 9.498 0 6.392 0.2926 7.9414 1.5 7.9414 1.1609 0 1.5-1.3119 1.5-5.8008 0-6.2398 1.1091-8.1992 4.6406-8.1992 1.2325 0 2.521-0.45393 2.8633-1.0078 0.97714-1.581-2.3804-2.3702-5.002-1.1758-1.725 0.78594-2.4711 0.77168-2.7441-0.0449-0.2969-0.89069-0.61749-1.2637-0.93164-1.2109zm-37.549 0.084c-1.3887 0.12641-2.3056 0.63774-2.2891 1.6641 6e-3 0.37985 0.0117 6.1296 0.0117 12.775 0 12.066 2.0557 17.284 2.8066 7.125 0.29524-3.9942 0.40631-4.1172 3.2383-3.5508 4.8892 0.97785 10.113-4.2598 9.3828-9.4082-0.0975-0.6875-0.23403-1.925-0.30273-2.75-0.26147-3.1377-8.6816-6.2347-12.848-5.8555zm-18.842 0.31055c-1.9379 0.0932-4.187 0.79634-5.4356 2.0449-3.1253 3.1253-2.0484 5.3716 4.0957 8.5488 4.5252 2.3401 3.7679 4.4512-1.5957 4.4512-4.259 0-5.9784 1.2369-3.25 2.3379 4.3909 1.7718 10.75-0.78525 10.75-4.3223 0-1.9687-3.8349-5.5104-7.082-6.541-1.0546-0.33983-1.918-1.2238-1.918-1.9747 0-1.7164 3.3624-2.8372 6-2 1.4193 0.45047 2 0.18067 2-0.93164 0-1.1886-1.6266-1.7064-3.5644-1.6133zm-18.576 0.04486c-6.9108 0-7.8779 2.7608-1.1192 3.1953 6.4411 0.41409 7.0782 3.0164 1.0664 4.3555-5.7537 1.2815-8.2237 5.2268-5.2969 8.4609 1.4952 1.6522 2.6424 2.0076 4.9668 1.5371 1.6624-0.33647 4.0359-0.6031 5.2734-0.5918 2.1189 0.0193 2.25-0.38387 2.25-6.9121 0-7.6861-1.677-10.045-7.1406-10.045zm305.66 0c-7.497 0-10.979 10.627-5.1309 15.658 2.2007 1.8929 3.7609 2.3781 6.9004 2.1445 5.5514-0.41309 6.2291-2.8027 0.79492-2.8027-2.7744 0-4.7374-0.65345-6.1211-2.0371-2.8927-2.8927-1.6509-3.9629 4.5957-3.9629 5.2301 0 5.4414-0.10412 5.4414-2.6719 0-3.7053-2.6862-6.3281-6.4805-6.3281zm-244.46 0.0156c-7.5887 0.0327-7.6413 2.5694-0.0664 3.1953 5.3817 0.44471 4.9966 2.9891-0.72461 4.7891-5.4558 1.7165-7.2434 6.0643-3.6035 8.7637 1.178 0.87356 2.911 1.1185 4.8359 0.68555 1.65-0.37109 3.9-0.6375 5-0.5918 1.8505 0.0768 1.9774-0.45615 1.6875-7.1367-0.35641-8.2126-1.4716-9.7294-7.1289-9.7051zm150.68 8e-3c-1.2406-0.0549-2.7009 0.33958-3.5801 1.2188-0.98886 0.98886-1.4246 0.94418-2.1445-0.22071-0.49719-0.80444-1.2236-1.1455-1.6133-0.75586-0.77497 0.775-0.56414 15.659 0.24023 16.961 1.2478 2.0053 2.3594-0.84839 2.3594-6.0861 0-6.2103 1.1138-8.1406 4.6992-8.1406 1.3778 0 2.3008-0.60145 2.3008-1.5 0-0.91805-1.0211-1.4217-2.2617-1.4766zm-96.834 8e-3c-5.7638 0.10975-10.988 7.0391-7.5137 13.758 0.86211 1.6671 2.1388 3.2598 2.8379 3.541 8.8892 3.5765 17.03-8.1614 10.316-14.875-1.7391-1.7391-3.7194-2.4604-5.6406-2.4238zm57.301 0c-7.2848-0.0703-11.217 10.135-6.0312 15.654 4.2212 4.4933 11.993 2.226 13.645-3.9805 1.743-6.5507-1.5592-11.615-7.6133-11.674zm-216.82 0.0469c-2.5008 0.20016-4.4943 0.9337-3.8184 2.0274 0.3043 0.49237 2.5516 0.89453 4.9941 0.89453 4.0368 0 4.894 0.55965 4.207 2.75-0.12934 0.4125-2.2669 1.425-4.75 2.25-5.2035 1.7288-6.8905 6.1392-3.3516 8.7637 1.178 0.87356 2.911 1.1185 4.8359 0.68555 1.65-0.37109 3.9-0.6375 5-0.5918 2.6764 0.11111 2.4546-13.527-0.25391-15.607-1.3536-1.0394-4.3625-1.3719-6.8633-1.1719zm294 0c-2.5008 0.20016-4.4943 0.9337-3.8184 2.0274 0.3043 0.49237 2.5516 0.89453 4.9941 0.89453 4.0368 0 4.894 0.55965 4.207 2.75-0.12936 0.4125-2.2668 1.425-4.75 2.25-5.2035 1.7288-6.8905 6.1392-3.3516 8.7637 1.178 0.87356 2.911 1.1185 4.8359 0.68555 1.65-0.37109 3.9-0.6375 5-0.5918 2.6764 0.11111 2.4546-13.527-0.25391-15.607-1.3536-1.0394-4.3625-1.3719-6.8633-1.1719zm107 0c-2.5008 0.20016-4.4943 0.9337-3.8184 2.0274 0.3043 0.49237 2.5516 0.89453 4.9941 0.89453 6.0066 0 6.5296 3.3875 0.69141 4.4785-6.2051 1.1596-8.8919 6.821-4.5 9.4824 0.9625 0.58325 3.1 0.78036 4.75 0.4375 1.65-0.34285 3.9-0.58672 5-0.54102 2.6764 0.11111 2.4546-13.527-0.25391-15.607-1.3536-1.0394-4.3625-1.3719-6.8633-1.1719zm-195.92 0.32227c-0.98445 0.0314-3.0795 2.8697-4.0977 6.0996-0.95355 3.025-2.02 5.5-2.3691 5.5s-1.4156-2.475-2.3691-5.5c-1.3032-4.1343-2.2052-5.5-3.6367-5.5-1.7716 0-1.6986 0.48437 1.0508 6.9453 3.8847 9.0967 3.4442 15.054-1.1172 15.054-0.51071 0-0.92773 0.45-0.92773 1 0 1.4265 3.5654 1.2389 4.752-0.25 0.87673-1.1001 9.248-21.336 9.248-22.355 0-0.70252-0.20505-1.0046-0.5332-0.99414zm37.062 0.50586c-0.56513-0.20402-1.1751 2.0351-1.5293 6.8281-0.84738 11.465-9 10.174-9-1.4258 0-4.0846-0.35503-5.309-1.5-5.309-2.5708 0-2.0774 12.423 0.59961 15.1 1.6143 1.6143 2.8266 1.9518 5.25 1.4668 1.7331-0.34686 4.1817-0.61857 5.4414-0.60547 2.2269 0.0231 2.2823-0.20469 2-8.2188-0.17557-4.9843-0.69659-7.6319-1.2617-7.8359zm-227.66 0.09337c-1.9918 0-1.9733 0.0855 2.0371 9.332 2.7471 6.3338 2.6499 9.0878-0.4043 11.49-1.375 1.0816-2.5 2.2389-2.5 2.5723 0 4.4658 5.5588-0.81963 7.8926-7.5039 1.0353-2.9651 2.8394-7.7873 4.0098-10.717 1.8867-4.7226 1.9404-5.2893 0.4668-5-1.0252 0.20129-2.2126 2.2418-3.0996 5.3262-2.0725 7.2062-2.7172 7.2775-4.7598 0.53125-1.3602-4.4926-2.2893-6.0312-3.6426-6.0312zm201.65 1.125c1.2243-0.16979 2.5622 0.30647 3.8262 1.7031 2.2366 2.4714 2.1381 8.4252-0.17382 10.518-2.5063 2.2682-4.7647 2.0737-6.6152-0.56836-3.369-4.8099-0.7101-11.143 2.9629-11.652zm-56.057 0.16406c4.0142 0.66292 6.0879 7.0518 2.9805 11.488-1.8216 2.6006-4.6541 2.8694-6.8711 0.65235-3.8097-3.8097-2.6004-10.883 2.0605-12.053 0.64322-0.16143 1.2566-0.18175 1.8301-0.0879zm190.58 0.0215c1.6318 0.18363 2.957 1.3261 2.957 3.3125 0 0.97138-1.3619 1.377-4.6211 1.377-4.5684 0-4.605-0.0261-3.1309-2.25 1.2253-1.8485 3.1631-2.6231 4.7949-2.4394zm-263.69 0.25c4.6492 0.86527 6.9574 8.7101 2.4277 11.883-4.6738 3.2736-6.7773 1.5942-6.7773-5.4102 0-5.1566 0.24808-5.8649 2.2285-6.3828 0.74663-0.19525 1.4569-0.21681 2.1211-0.0898zm187.93 3.5684c0.6127-0.0411 1.4129 0.0466 2.4375 0.21289 5.9254 0.96155 7.8859 3.9109 4.7109 7.0859-3.2676 3.2676-8.1507 2.0427-8.6797-2.1777-0.46679-3.7244-0.30686-4.9979 1.5312-5.1211zm-228.2 2.8105c1.193 0.26461 1.9158 1.2334 1.7344 2.8106-0.26382 2.2928-0.85877 2.8028-3.5742 3.0644-3.9813 0.38368-5.6294-2.3264-2.7129-4.459 1.6971-1.241 3.3597-1.6806 4.5527-1.416zm358.02 0.06054c1.5858 0 3.2326 4.3279 2.084 5.4766-1.1818 1.1818-7.0045 0.44885-7.541-0.94922-0.63165-1.6461 2.8413-4.5273 5.457-4.5273zm-107.79 0.16797c0.69696-0.13316 1.3779-0.11482 1.957 0.10742 0.77193 0.29622 1.3282 1.5923 1.2363 2.8809-0.23703 3.3226-7.5117 4.1775-7.5117 0.88281 0-1.7086 2.2275-3.4716 4.3184-3.8711zm-189.12 0.0273c1.1093-0.0337 1.9097 0.31275 1.8574 1.0547-0.029 0.4125-0.0527 1.65-0.0527 2.75 0 1.607-0.66624 2-3.3926 2-4.332 0-5.4476-2.4031-2.125-4.5801 1.1848-0.77634 2.6036-1.1909 3.7129-1.2246zm-103.48 0.0391c1.0726 0.28561 1.7275 1.2304 1.7305 2.7734 5e-3 2.1393-0.50271 2.535-3.5938 2.7949-4.583 0.38543-5.9105-2.065-2.373-4.3828 1.6735-1.0965 3.1638-1.4712 4.2363-1.1855zm433.03 3.4219c-1.3412-0.37482-2.748 0.63617-2.748 2.4512 0 1.2072 0.70366 1.8926 1.9414 1.8926 2.5212 0 3.541-1.7146 2.0723-3.4844-0.37778-0.45519-0.81857-0.73415-1.2656-0.85937zm-142.45 38.764c-1.8978 0.64145-4.266 3.1476-4.793 5.5469-0.36649 1.6686-1.3066 3.0332-2.0879 3.0332-0.78129 0-1.4199 0.675-1.4199 1.5s0.675 1.5 1.5 1.5c1.1905 0 1.5 1.4444 1.5 7s0.30952 7 1.5 7c1.189 0 1.5-1.436 1.5-6.9297 0-6.3483 0.18255-6.9573 2.1719-7.25 3.2451-0.4775 3.5324-2.8203 0.3457-2.8203-3.5809 0-3.369-5.3088 0.23242-5.8203 2.3777-0.33768 2.9516-1.6276 1.2051-2.707-0.44229-0.27336-1.0217-0.26992-1.6543-0.0527zm-110.91 0.58009c-1.9664 0-2.4578 0.38892-2 1.582 0.33385 0.86998 0.60742 6.495 0.60742 12.5 0 10.252 0.12212 10.918 2 10.918 1.8933 0 2-0.66667 2-12.5v-12.5zm57.107 0c-2.2581 0-2.5 0.39532-2.5 4.0801 0 4.0118-0.0498 4.0675-2.998 3.4199-6.8399-1.5023-11.684 8.8207-6.959 14.828 1.8436 2.3438 2.6736 2.5856 8.5 2.4863l6.457-0.10937v-24.705zm-272.5 2v11.5c0 9.5556 0.25362 11.5 1.5 11.5 1.1333 0 1.5-1.2222 1.5-5v-5h3.3652c4.5431 0 8.6348-3.3184 8.6348-7.002 0-4.4754-2.3046-5.998-9.0723-5.998zm55.5 1c-0.93333 0-1.5 0.94444-1.5 2.5s-0.56667 2.5-1.5 2.5c-1.9117 0-1.9619 2.608-0.0684 3.3359 1.0025 0.38469 1.3976 2.0422 1.3125 5.5254-0.0687 2.8107 0.44871 5.666 1.1894 6.5586 1.435 1.7283 7.0664 2.1905 7.0664 0.58008 0-0.55-0.88419-1-1.9648-1-2.5648 0-4.0351-2.8852-4.0351-7.9336 0-3.6701 0.24326-4.0664 2.5-4.0664 1.5556 0 2.5-0.56667 2.5-1.5 0-0.83333-0.88889-1.5-2-1.5-1.4667 0-2-0.66667-2-2.5 0-1.5556-0.56667-2.5-1.5-2.5zm48.268 0.24805c-0.646 0.0943-1.3524 0.97932-1.5879 2.5801-0.17575 1.1944-0.96325 2.1719-1.75 2.1719s-1.4297 0.675-1.4297 1.5 0.675 1.5 1.5 1.5c1.1359 0 1.5 1.2302 1.5 5.0664 0 2.7862 0.46581 5.9362 1.0352 7 0.66611 1.2446 2.0922 1.9336 4 1.9336 3.6097 0 3.9079-1.546 0.46484-2.4102-2.2863-0.57382-2.5-1.097-2.5-6.1094 0-5.1797 0.13742-5.4805 2.5-5.4805 1.5556 0 2.5-0.56667 2.5-1.5s-0.94444-1.5-2.5-1.5c-2.0215 0-2.5-0.49509-2.5-2.584 0-1.5664-0.58642-2.2623-1.2324-2.168zm-97.467 0.75195c5.4495 0 8.1146 5.6373 3.7656 7.9648-4.7345 2.5338-7.0664 1.3907-7.0664-3.4648 0-4.4242 0.0563-4.5 3.3008-4.5zm280.17 3c-7.0578 0-11.103 10.456-6.0137 15.545 3.2035 3.2035 12.545 3.6721 12.545 0.62891 0-1.4448-0.60292-1.7392-2.8848-1.4043-3.398 0.49872-7.1152-1.2275-7.1152-3.3047 0-1.1089 1.3365-1.4648 5.5-1.4648 5.2262 0 5.5-0.12619 5.5-2.5449 0-3.3107-4.1864-7.4551-7.5312-7.4551zm162.03 0c-6.8326 0-10.373 11.594-4.8633 15.928 3.0839 2.4258 11.365 2.9696 11.365 0.7461 0-0.86661-0.95382-1.204-2.75-0.97266-3.3812 0.43542-7.6171-1.6537-8.0644-3.9766-0.26741-1.3886 0.41234-1.7273 3.4902-1.7383 5.8044-0.02073 8.3242-0.97357 8.3242-3.1484 0-2.7711-4.4616-6.8379-7.502-6.8379zm-94.578 0.0566c-1.3351-0.0231-2.7735 0.32831-4.2363 1.1074-6.4087 3.4133-6.6557 13.683-0.39257 16.316 6.3177 2.6564 11.709-1.2949 11.709-8.582 0-5.3371-3.0747-8.7724-7.0801-8.8418zm-281.24 0.11914c-6.5662-0.11523-11.141 9.513-5.707 15.297 2.7872 2.9668 12.025 3.804 12.025 1.0898 0-1.0781-0.85532-1.298-3.4258-0.88086-2.8529 0.46297-3.8992 0.0762-6.25-2.3125l-2.8242-2.8691 5.709-0.50781c8.3267-0.7418 10.273-5.9924 3.3848-9.1309-0.99597-0.4538-1.9741-0.66909-2.9121-0.68555zm-31.076 0.0449c-2.1827-0.21859-4.5833 0.60478-6.6816 2.7031-4.757 4.757-3.9992 12.271 1.4766 14.641 6.0465 2.6162 11.873-1.6332 11.873-8.6582 0-5.0648-3.0302-8.3212-6.668-8.6856zm119.94 0.041c-1.4181 0.0206-2.9536 0.41273-4.5274 1.2266-6.2686 3.2416-5.3703 15.719 1.2031 16.707 6.4352 0.96693 10.775-2.8079 10.775-9.375 0-5.3308-3.1969-8.6205-7.4512-8.5586zm211.81 0.0762c-0.75037-6e-3 -1.4383 0.1703-2.1055 0.52734-1.061 0.56782-2.9009 0.77771-4.0898 0.4668-2.0921-0.54284-2.1621-0.28829-2.1621 8.0508 0 6.9926 0.28272 8.6172 1.5 8.6172 1.1901 0 1.5-1.4418 1.5-6.9805 0-6.6107 0.13277-7.0138 2.498-7.6074 4.701-1.1799 5.502-0.0801 5.502 7.5566 0 5.5834 0.30889 7.0312 1.5 7.0312 1.1765 0 1.5-1.3747 1.5-6.377 0-12.028 7.3077-12.846 7.793-0.87305 0.43095 10.634 3.207 10.467 3.207-0.19336 0-8.9815-1.5922-10.911-7.8047-9.457-2.3392 0.54753-4.6722 0.47382-6.3555-0.20117-0.91968-0.36881-1.732-0.55499-2.4824-0.56055zm-143.31 0.0156c-6.864 0.76349-10.235 9.4094-4.7109 15.441 2.6624 2.9075 11.921 2.8972 12.473 8e-3 0.27045-1.4232-0.25711-1.6031-3.2637-1.1152-2.6422 0.42877-4.1074 0.11156-5.5645-1.207-3.0904-2.8061-2.3984-3.4806 3.5234-3.4806 7.4629 0 8.0282-7.8474 0.68164-9.4609-1.1074-0.24323-2.1581-0.29462-3.1387-0.18554zm182.72 0.18554c-2.4194-0.69322-5.4388-0.0144-7.8379 2.3848-3.8459 3.8459-4.0166 9.0732-0.41406 12.676 2.7194 2.7194 11.401 3.2188 12.229 0.70312 0.27521-0.83644-0.60614-1.0359-2.9219-0.66015-2.4566 0.39865-4.0295-0.0228-6.0664-1.625-3.7265-2.9312-3.4578-4.015 1-4.0312 6.1456-0.0224 8.25-0.94197 8.25-3.6035 0-3.0865-1.8188-5.1505-4.2383-5.8438zm-320.47 0.0371c-2.1912 0.3002-4.8889 1.5438-6.5371 3.3848-3.8029 4.2476-3.3476 9.2434 1.1641 12.785 1.8425 1.4464 9.7283 1.2374 9.2891-0.24609-0.16283-0.55-1.3896-0.85684-2.7266-0.68164-2.8215 0.37734-7.4766-3.709-7.4766-6.5507 0-3.54 2.8905-6.2676 6.6406-6.2676 2.3781 0 3.3899-0.4071 3.1074-1.25-0.20478-0.61099-0.74933-0.98343-1.4961-1.1465-0.56007-0.1223-1.2345-0.13156-1.9648-0.0273zm389.08 0.0508c-0.8814-0.21108-1.9476-0.15929-3.2226 0.11719-1.4566 0.31585-3.6609 0.51315-4.8984 0.43945-2.1232-0.12637-3.9855-0.14593-10.5-0.11523l-2.75 0.0117v8.4609c0 6.8531 0.28487 8.459 1.5 8.459 1.1765 0 1.5-1.3747 1.5-6.377 0-12.028 7.3077-12.846 7.793-0.87305 0.40122 9.9004 3.207 10.664 3.207 0.87305 0-12.028 7.3077-12.846 7.793-0.87305 0.43095 10.634 3.207 10.467 3.207-0.19336 0-6.3077-0.98469-9.2964-3.6289-9.9297zm-281.37 0.17976c-1.375 0.16867-3.7793 0.2963-5.3438 0.2832-2.1624-0.0181-2.7019 0.3478-2.25 1.5254 0.32691 0.85191 0.59375 4.6618 0.59375 8.4668 0 5.4828 0.31121 6.918 1.5 6.918 1.1786 0 1.5-1.385 1.5-6.4648 0-6.5996 1.5368-9.0486 5.209-8.2988 0.70978 0.14492 1.291-0.41133 1.291-1.2363 0-1.0151-0.80814-1.4009-2.5-1.1934zm-77.75 0.0527c-11.132-0.89951-11.908 7.7538-1.0215 11.383 3.2115 1.0705-0.36413 4.0031-4.2461 3.4824-3.0063-0.39982-3.9824-0.18954-3.9824 0.87113 0 2.0577 8.3806 1.8811 10.482-0.2207 2.6216-2.6216 1.44-5.613-3.2324-8.1856-5.5064-3.0317-5.6103-5.1894-0.25-5.1894 3.8611 0 5.809-1.8531 2.25-2.1406zm122 0c-5.343 0.23243-4.285 3.1406 1.1426 3.1406 2.8463 0 4.583 0.49382 4.9316 1.4023 0.73925 1.9264-0.16231 2.5977-3.4902 2.5977-4.8688 0-7.8858 4.1646-5.8184 8.0293 0.84749 1.5835 2.0876 1.8793 7.5 1.7871l6.4844-0.11129v-6.6621c0-9.5374-1.1255-10.602-10.75-10.184zm-223.88 0.14066c-1.2867 0-1.4949 0.65064-1 3.125 0.34375 1.7188 0.625 5.5819 0.625 8.584 0 7.7159 2.3956 6.6455 2.8066-1.2539 0.34547-6.6385 1.3807-8.4551 4.8164-8.4551 1.3077 0 2.377-0.45 2.377-1 0-1.4066-5.3515-1.25-6.8008 0.19922-0.93333 0.93333-1.1992 0.93333-1.1992 0 0-0.66-0.73125-1.1992-1.625-1.1992zm116.36 0c-1.1735 0-1.7394 0.49728-1.4219 1.25 6.503 15.419 6.9476 18.477 2.9375 20.236-1.2375 0.54292-2.25 1.5554-2.25 2.25 0 1.518 0.16364 1.533 3.4356 0.28906 1.4108-0.53639 2.5644-1.4986 2.5644-2.1367 0-0.63808 1.8-5.6454 4-11.129 4.594-11.451 4.4279-10.76 2.5801-10.76-0.82962 0-2.1277 2.182-3.123 5.25-2.4231 7.4687-2.8999 7.5434-4.9473 0.78125-1.4193-4.6875-2.2611-6.0312-3.7754-6.0312zm38.766 0c-1.8037 0-2.1702 11.878-0.46484 15.064 0.8717 1.6288 2.0243 1.9057 7.3203 1.7598l6.2871-0.17188-0.0723-8.3242c-0.0622-7.2737-0.29352-8.3252-1.8418-8.3262-1.5469-1e-3 -1.7374 0.84956-1.5 6.7012 0.26617 6.5599 0.21024 6.7243-2.5762 7.7266-3.9804 1.4327-5.6523-1.1136-5.6523-8.6211 0-4.4968-0.33882-5.8086-1.5-5.8086zm158.13 0c-1.1813 0-1.4621 7.2314-0.65039 16.75 0.28066 3.2913 2.0262-1.4215 2.0371-5.5 0.0183-6.8617 0.95141-8.6382 4.6211-8.7988 1.5144-0.0663 2.927-0.64634 3.1406-1.2871 0.51963-1.5588-5.0137-1.5326-6.5781 0.0352-0.93333 0.93333-1.1992 0.93333-1.1992 0 0-0.66-0.61707-1.1992-1.3711-1.1992zm156.31 0c-1.5748 0-1.3697 0.96987 1.7344 8.1328 3.6799 8.4916 3.6357 12.042-0.16797 13.502-0.82976 0.31841-1.5078 1.1925-1.5078 1.9414 0 0.86778 0.63471 1.1339 1.75 0.73633 2.9948-1.0676 4.0978-2.3412 4.8027-5.5508 0.37453-1.7052 1.9786-6.1503 3.5645-9.877 3.2579-7.6559 3.4642-8.8848 1.4941-8.8848-0.76544 0-1.6831 1.4586-2.0449 3.25-1.0339 5.1193-3.2294 9.5232-3.8633 7.75-3.5842-10.027-4.0927-11-5.7617-11zm-62.908 0.14062c-3.1268 0.14932-5.911 0.73336-5.5703 1.6211 0.29585 0.77095 0.53711 4.5153 0.53711 8.3203 0 5.4828 0.31121 6.918 1.5 6.918 1.1883 0 1.5-1.4321 1.5-6.8926 0-7.1866 0.57322-8.1074 5.0469-8.1074 2.8358 0 4.0669 3.3364 3.498 9.4844-0.41056 4.4371-0.22062 5.5156 0.97266 5.5156 2.0208 0 2.1466-14.204 0.14062-15.869-1.03-0.85482-4.4982-1.1395-7.625-0.99024zm-123.85 0.0547-5.8184 0.082-0.11524 8.3613c-0.15673 11.445 4.4196 13.394 4.957 2.1113 0.27677-5.8102 0.4728-6.2754 2.7969-6.6016 2.3202-0.32559 3.9479-1.6904 3.9844-3.3418 8e-3 -0.38142-2.6038-0.65673-5.8047-0.61133zm-263.4 0.80468c4.2372 0 6.7579 7.2636 4.1875 12.066-2.4124 4.5076-8.9648 0.93017-8.9648-4.8945 0-2.9165 2.8344-7.1719 4.7773-7.1719zm121.45 0c4.0889 0 6.3113 9.303 2.9492 12.346-4.2255 3.8232-8.1719 1.0592-8.1719-5.7226 0-3.2552 2.6556-6.623 5.2227-6.623zm249.43 0.66797c0.53005 0.0636 1.0649 0.22995 1.5938 0.50195 2.7438 1.4112 2.0546 3.5192-1.375 4.2051-6.0186 1.2037-7.1282 0.58789-4.625-2.5684 1.2634-1.593 2.8161-2.3294 4.4062-2.1387zm-56.875 2e-3c3.5852 0.72598 5.854 6.4068 3.1836 11.396-0.66182 1.2322-2.0918 1.9335-3.9648 1.9335-5.1816 0-7.2583-9.3047-2.7773-12.443 0.6614-0.46327 1.3165-0.74744 1.9512-0.87891 0.5553-0.11503 1.0952-0.0955 1.6074-8e-3zm-282.05 0.10352c1.9052-0.21342 3.9351 0.745 4.4648 3.0586 0.20661 0.90231-1.0659 1.466-3.9453 1.748-2.9571 0.28964-4.245 0.0364-4.2344-0.83203 0.0292-2.3762 1.8096-3.7612 3.7148-3.9746zm377.24 0.10937c0.72542 0.12822 1.4541 0.45529 2.1309 1.0039 1.3165 1.0673 2.1531 2.1833 1.8574 2.4805-1.7278 1.7366-9.1535 1.8602-8.8144 0.14648 0.51571-2.6068 2.6499-4.0155 4.8262-3.6309zm-163.25 0.60352c1.4544-0.25036 3.0786 0.566 3.6641 2.0918 0.35323 0.92048-0.11907 1.4219-1.3398 1.4219-1.0378 0-2.5988 0.27357-3.4688 0.60742-1.9861 0.76215-2.1448-1.8953-0.20898-3.502 0.4018-0.33347 0.86872-0.53569 1.3535-0.61914zm-54.977 2e-3c0.63437-0.0776 1.2453-0.0429 1.6777 0.12305 2.2186 0.85134 1.9597 3.3887-0.3457 3.3887-1.055 0-2.63 0.27357-3.5 0.60742-2.3229 0.89138-2.0132-2.3059 0.3457-3.5684 0.53008-0.28369 1.1879-0.47317 1.8223-0.55078zm36.227 0.51162c2.6606 0 5.1059 7.4379 3.3691 10.248-0.72795 1.1778-4.8185 0.88072-6.1465-0.44727-2.9804-2.9804-1.0475-9.8008 2.7773-9.8008zm-18.285 6c1.9658 0 2.3856 0.44258 2.1289 2.25-0.34969 2.4622-5.0664 3.78-6.3125 1.7637-1.0286-1.6643 1.4201-4.0137 4.1836-4.0137zm90.059 25c-0.93333-6e-5 -1.25 3.1656-1.25 12.498 0 10.67 0.22952 12.499 1.5644 12.5 1.289 1e-3 1.4885-1.0282 1.1387-5.8633-0.37286-5.1549-0.15957-6.0517 1.752-7.3906 4.8829-3.4201 8.2238 0.48883 7.3144 8.5566-0.44368 3.9364-0.25815 4.6992 1.1426 4.6992 1.4438 0 1.633-1.0549 1.3809-7.7285-0.33405-8.8402-2.5082-10.95-8.8281-8.5644l-2.9648 1.1191v-4.9121c0-3.2638-0.41962-4.914-1.25-4.9141zm50.75 0c-1.2529 0-1.5 2.0482-1.5 12.434v12.434l2.75 0.41601c5.8167 0.88115 7.2256 0.64046 9.9434-1.6973 6.5952-5.6729 2.3736-16.492-5.918-15.166l-3.7754 0.60352v-4.5117c0-3.3438-0.38831-4.5117-1.5-4.5117zm-267.75 0.17969c-1.2375 0.17575-2.2054 0.88281-2.1504 1.5703s0.1675 6.2 0.25 12.25c0.14023 10.283 0.28069 11 2.1504 11 1.8939 0 2-0.66743 2-12.57 0-12.463-0.019-12.567-2.25-12.25zm332.03 0.0351c-1.1216-0.23097-1.3964 2.1103-1.4356 12.25-0.0418 10.851 0.16783 12.535 1.5547 12.535 2.222 8.2e-4 2.1051-24.327-0.11914-24.785zm-397.83 0.78521c-2.2047 0-3.3334 1.5603-2.5703 3.5488 0.66409 1.7306 2.7805 1.8914 4.3418 0.33008 1.5363-1.5363 0.46586-3.8789-1.7715-3.8789zm56.238 0.10352c-0.52069 0.0918-1.0202 0.3288-1.4277 0.73632-0.56461 0.56461-0.74401 1.7616-0.39844 2.6621 0.90893 2.3686 5.1367 1.5554 5.1367-0.98828 0-1.6546-1.7485-2.6854-3.3106-2.4102zm246.58 0.14648c-1.1086 0.26526-1.973 1.7655-1.4355 3.166 0.34476 0.89843 1.2416 1.3029 2.1328 0.96093 1.7786-0.68249 2.037-2.9504 0.44922-3.9316-0.38062-0.23523-0.77609-0.28373-1.1465-0.19531zm-67.607 0.10156c-0.99382-0.28578-2.1582 0.66645-2.1582 2.207 0 1.52 2.5346 2.0044 3.375 0.64453 0.27117-0.43875 0.12214-1.3972-0.33008-2.1289-0.24389-0.39463-0.55544-0.6274-0.88672-0.72266zm-190.16 2.3594c-1.2943 0.33846-2 1.3639-2 2.9062 0 1.4519-0.58624 2.3828-1.5 2.3828-1.8081 0-2.0143 2.6626-0.25195 3.25 0.74185 0.24729 1.299 2.3846 1.377 5.2754 0.10144 3.7616 0.64852 5.2789 2.4219 6.7148 2.4802 2.0084 6.0482 2.0188 6.707 0.0156 0.22529-0.68411-0.75217-1.6848-2.1719-2.2246-3.4725-1.3177-3.978-10.031-0.58203-10.031 1.1111 0 2-0.66667 2-1.5s-0.88889-1.5-2-1.5c-1.5412 0-2-0.66654-2-2.9062 0-2.4141-0.33879-2.8172-2-2.3828zm226.5 0.28906c-0.93333 0-1.5 0.94444-1.5 2.5s-0.56667 2.5-1.5 2.5c-0.825 0-1.5 0.40143-1.5 0.89258 0 0.49116 0.675 1.1522 1.5 1.4688 1.0799 0.41439 1.5 2.1043 1.5 6.0352 0 3.7061 0.52221 5.9832 1.625 7.0859 0.89355 0.89355 2.5459 1.4871 3.6719 1.3203 2.7502-0.40738 3.453-2.8027 0.82226-2.8027-4.9502 0-5.7778-11.252-0.86914-11.816 3.4359-0.39535 3.6407-2.1836 0.25-2.1836-2 0-2.5-0.5-2.5-2.5 0-1.5556-0.56667-2.5-1.5-2.5zm102 0c-0.93333 0-1.5 0.94444-1.5 2.5s-0.56667 2.5-1.5 2.5c-0.825 0-1.5 0.40143-1.5 0.89258 0 0.49116 0.675 1.1522 1.5 1.4688 1.0799 0.41439 1.5 2.1043 1.5 6.0352 0 3.7061 0.52221 5.9832 1.625 7.0859 0.89355 0.89355 2.546 1.4871 3.6719 1.3203 2.7502-0.40738 3.453-2.8027 0.82226-2.8027-4.9502 0-5.7778-11.252-0.86914-11.816 3.4359-0.39535 3.6407-2.1836 0.25-2.1836-2 0-2.5-0.5-2.5-2.5 0-1.5556-0.56667-2.5-1.5-2.5zm13 0c-0.93333 0-1.5 0.94444-1.5 2.5s-0.56667 2.5-1.5 2.5c-0.825 0-1.5 0.40143-1.5 0.89258 0 0.49116 0.675 1.1522 1.5 1.4688 1.102 0.42288 1.5 2.1621 1.5 6.5566 0 4.6341 0.39425 6.216 1.75 7.0215 0.9625 0.57184 2.6149 0.93279 3.6719 0.80078 2.6539-0.33149 3.2669-2.7402 0.69726-2.7402-4.9502 0-5.7778-11.252-0.86914-11.816 3.4359-0.39535 3.6407-2.1836 0.25-2.1836-2 0-2.5-0.5-2.5-2.5 0-1.5556-0.56667-2.5-1.5-2.5zm-387.27 2.4746c-1.1338 0.0181-2.2366 3.9248-2.248 11.705-8e-3 5.6758-0.42831 10.975-0.9336 11.773-0.50529 0.79877-0.68061 1.8355-0.39062 2.3047 2.9574 4.7852 6.1971-2.8526 6.0039-14.152-0.13299-7.778-1.2979-11.649-2.4316-11.631zm-33.965 0.97461c-1.5899-0.17683-2.6853 3.5436-2.4414 9.5371 0.31365 7.7076 0.41737 8.0137 2.7305 8.0137 2.2755 0 2.3954-0.30084 2.209-5.5586-0.20688-5.8356 1.0577-7.8671 4.3984-7.0703 2.2105 0.52724 3.2556-3.2723 1.125-4.0898-0.85516-0.32816-2.4538-0.0352-3.5547 0.65234-1.5482 0.96687-2.1709 0.977-2.7442 0.0508-0.60864-0.98483-1.1927-1.4762-1.7226-1.5352zm249.6 0.14648c-1.14 0.0261-2.4256 0.47376-3.832 1.3633-0.90866 0.57467-1.9063 0.56168-2.623-0.0332-1.623-1.347-4.6466 0.0138-3.9668 1.7852 0.30661 0.79901 0.55664 4.3411 0.55664 7.8711 0 5.9887 0.15057 6.4179 2.25 6.4199 2.0936 2e-3 2.25-0.43275 2.25-6.25v-6.252h3c2.9816 0 3.001 0.0384 3.2969 6.25 0.48469 10.175 5.0131 9.5502 4.7676-0.6582-0.16526-6.8707-2.2792-10.575-5.6992-10.496zm-181.52 0.24024c-2.0564 0.17462-4.5744 1.2365-6.4258 3.0879-4.5908 4.5908-3.8721 10.942 1.5762 13.922 3.7038 2.0258 9.5 1.1389 9.5-1.4531 0-0.92359-1.1713-1.3926-3.4766-1.3926-6.099 0-8.5785-7.2948-3.418-10.057 1.0835-0.57989 2.8524-0.77417 3.9316-0.43164 1.5177 0.4817 1.9629 0.15568 1.9629-1.4434 0-1.6942-1.594-2.407-3.6504-2.2324zm90.688 8e-3c-0.96151-0.74442-3.8931 2.5267-5.0234 6.6074-1.7895 6.4607-2.0675 6.4111-3.9902-0.70117-1.8093-6.6927-5.19-6.8009-7.0312-0.22461-1.7399 6.2143-2.5917 6.3142-4.0879 0.47656-1.0737-4.203-1.658-5.002-3.5938-5.002-2.8972 0-2.885 0.33608 0.32422 8.9941 3.3573 9.0575 5.8946 9.448 8.166 1.2559 0.80061-2.8875 1.7406-5.25 2.0898-5.25 0.3492 0 1.3068 2.3625 2.127 5.25 2.6353 9.2783 8.3737 4.5556 11.186-9.2051 0.25723-1.2588 0.15449-1.953-0.16601-2.2012zm69.236 0.14844c-2.4782-0.16662-5.1477 0.72973-7.3496 2.9316-4.1131 4.1131-3.6753 10.213 0.99023 13.795 5.1721 3.971 14.086-1.2107 14.086-8.1875 0-5.035-3.5962-8.2614-7.7266-8.5391zm-178.19 0.00762c-8.4445 0-12.154 9.0808-6.1582 15.076 3.1601 3.1601 9.5176 4.084 11.877 1.7246 2.1036-2.1036 1.3131-2.8008-3.1777-2.8008-7.9868 0-8.9593-3.698-1.1016-4.1894 8.0929-0.5061 6.7278-9.8106-1.4394-9.8106zm120.3 0c-8.9382 0-11.82 12.504-3.8828 16.846 3.8228 2.0909 10.5 1.1665 10.5-1.4531 0-0.94915-1.2258-1.3926-3.8457-1.3926-5.8479 0-9.1957-3.925-3.5586-4.1719 2.1478-0.0941 4.6684-0.21929 5.6016-0.27929 6.2371-0.40063 1.6246-9.5488-4.8145-9.5488zm167.12 0c-1.2157 0-1.5 1.6111-1.5 8.5s0.28431 8.5 1.5 8.5 1.5-1.6111 1.5-8.5-0.28431-8.5-1.5-8.5zm-150.3 0.0527c-2.2775 0.0762-4.4334 0.5216-5.0703 1.2891-1.6028 1.9313-0.25366 2.7719 3.3613 2.0938 2.2072-0.41407 3.5298-0.11493 4.4648 1.0117 1.561 1.881 1.7582 1.702-3.957 3.5762-5.1886 1.7015-6.8751 6.1188-3.3359 8.7363 1.0686 0.79029 2.8807 1.1025 4.3359 0.74804 1.375-0.33491 3.85-0.57877 5.5-0.54297l3 0.0645-0.50195-7.5527c-0.34468-5.1948-0.96888-7.8462-2-8.498-1.121-0.70862-3.5194-1.002-5.7969-0.92579zm-167.13 4e-3c-3.8785 0.21587-7.6697 2.8408-8.5879 7.0215-0.83471 3.8004 0.95475 8.3385 3.8379 9.7324 9.3017 4.497 18.418-7.162 11.225-14.355-1.7899-1.7899-4.1475-2.528-6.4746-2.3984zm265.55 0.0273c-1.5652-0.23533-3.2595 0.0324-4.5918 0.875-0.92287 0.58368-1.9249 0.54594-2.7051-0.10156-2.2776-1.8903-2.8305-0.11419-2.502 8.0449 0.43064 10.693 2.9259 11.688 3.3789 1.3477l0.29492-6.75 3.7168-0.30859c4.3289-0.35918 5.2491 1.4871 4.6289 9.2852-0.30102 3.7848-0.0738 4.5234 1.3965 4.5234 2.3857 0 2.5415-11.436 0.20117-14.777-0.81649-1.1657-2.2531-1.9033-3.8184-2.1387zm-170.94 0.0176c-6.2853 1.1668-10.58 10.155-4.3613 15.504 3.9082 3.3576 12.672 3.2138 12.672-0.21293 0-0.97471-1.292-1.3926-4.3008-1.3926-3.9912 0-6.6992-1.293-6.6992-3.1992 0-0.44 1.4625-0.80645 3.25-0.81445 7.8318-0.0329 10.879-4.6809 5.5273-8.4297-1.0947-0.76673-2.2063-1.2308-3.2969-1.4434-0.95428-0.18597-1.8931-0.18006-2.791-0.0117zm154.43 0.0391c-1.0762 0.30481-1.5165 3.2949-1.2891 8.8672 0.24871 6.0944 0.66418 7.9922 1.75 7.9922 1.453 0 2.209-14.881 0.82617-16.264-0.49885-0.49885-0.92837-0.6973-1.2871-0.59571zm-176.09 0.0293c-0.31328-0.10929-0.72765-0.0846-1.2734 0.01-2.1256 0.30188-2.25 0.77679-2.25 8.5664 0 7.883 0.0989 8.246 2.25 8.25 2.1586 4e-3 2.25-0.34481 2.25-8.5664 0-6.2362-0.0367-7.9319-0.97656-8.2598zm354.02 8e-3c-8.522-0.84034-11.801 13.519-3.8359 16.799 3.0939 1.2741 9.0422 0.82153 9.5508-0.72656 0.27813-0.84665-0.76668-1.25-3.2383-1.25-4.6581-0.02285-7.5176-1.5352-7.5176-4.0354 0-1.7102 0.69843-1.9648 5.3926-1.9648 8.4174 0 8.099-7.989-0.35156-8.8223zm-54.463 0.0273c-5.7846 0.43418-5.9217 2.7949-0.1621 2.7949 2.5208 0 4.584 0.18796 4.584 0.41797 0 0.23002 0.27357 1.13 0.60742 2 0.46019 1.1992-0.0401 1.582-2.0664 1.582-6.8516 0-11.64 7.0229-6.791 9.9609 0.9625 0.58325 3.1 0.78036 4.75 0.4375 1.65-0.34285 3.9255-0.58608 5.0566-0.53906 1.8944 0.0787 2.0528-0.46949 2-6.9668-0.0676-8.3188-1.5891-10.167-7.9785-9.6875zm-41.371 8e-3c-1.7716-0.11688-3.9371 0.10716-5.1602 0.76172-3.4305 1.819-1.476 9.0254 2.4531 9.0254 1.5932 0 4.6809 3.4871 3.8359 4.332-0.36787 0.36787-2.3675 0.66797-4.4434 0.66797-3.8008 0-5.9805 1.3957-3.6484 2.3359 8.4646 3.4126 14.805-5.2292 6.8242-9.3008-5.912-3.016-5.8534-6.6033 0.0957-5.8359 1.2847 0.1653 2.5609-0.14922 2.8359-0.69922 0.35588-0.71177-1.0213-1.1702-2.793-1.2871zm-365.65 0.041c-2.075-0.0391-4.5946 0.19146-7.625 0.6582-0.39628 0.061-0.35445 24.146 0.041 24.625 1.683 1.994 4.0313-0.32669 4.0313-4.0375v-4.375l3.4258 0.55664c4.9671 0.80604 8.5742-2.9573 8.5742-8.9473 0-5.8248-2.2222-8.3632-8.4473-8.4805zm220.14 0.0488-6.1934 0.25977-0.0937 11.969c-0.0518 6.5827 0.0869 12.306 0.30859 12.719 1.5107 2.8103 4.2852 0.49513 4.2852-3.5762 0-4.2284 0.0682-4.3183 2.9688-3.8926 6.9466 1.0196 11.65-9.181 6.9746-15.125-1.8726-2.3806-2.6092-2.5908-8.25-2.3535zm240.44 1.6969c2.1174 0 5.1006 2.8175 4.3203 4.0801-0.90793 1.4691-8.4492 1.1291-8.4492-0.38086 0-1.8313 2.0855-3.6992 4.1289-3.6992zm-72.766 0.23047c0.73824-0.14227 1.5943-0.0605 2.5664 0.24805 4.5457 1.4428 4.6727 10.058 0.18359 12.461-4.3822 2.3453-6.1133 0.79037-6.1133-5.4883 0-4.3554 1.1486-6.7939 3.3633-7.2207zm-353.53 0.76953c4.3179 0 6.1244 8.8809 2.2305 10.965-2.5016 1.3388-2.635 1.322-4.4941-0.53711-2.9408-2.9408-1.3155-10.428 2.2637-10.428zm150.08 0c2.059 0 4.4309 2.323 3.4121 3.3418-1.8501 1.8501-7.4021 0.67215-6.3242-1.3418 0.5887-1.1 1.8988-2 2.9121-2zm56.924 0c4.3179 0 6.1244 8.8809 2.2305 10.965-2.5016 1.3388-2.635 1.322-4.4941-0.53711-2.9408-2.9408-1.3155-10.428 2.2637-10.428zm-177.86 0.20898c1.5569 0.0811 3.2506 0.97456 3.7969 2.6133 0.25286 0.75857-0.88308 1.1777-3.1895 1.1777-2.5512 0-3.584-0.44098-3.584-1.5312 0-1.6103 1.4197-2.3409 2.9766-2.2598zm67.047 0c1.5569-0.0811 2.9766 0.64949 2.9766 2.2598 0 1.0903-1.0328 1.5312-3.584 1.5312-2.3064 0-3.4423-0.41916-3.1895-1.1777 0.54624-1.6387 2.24-2.5322 3.7969-2.6133zm-130.12 0.0918c3.7063 0.63673 5.1707 7.5304 1.3496 10.449-0.90002 0.6875-1.8879 1.2153-2.1953 1.1719-3.9098-0.55233-4.6481-10.284-0.87109-11.482 0.61211-0.19427 1.1873-0.22963 1.7168-0.13867zm221.83 0.0605c3.5606 0.72236 5.3033 7.6711 1.7363 10.279-1.0218 0.74717-2.1086 1.3247-2.416 1.2813-3.8505-0.54395-4.6555-10.28-0.94726-11.457 0.57265-0.18175 1.1183-0.20671 1.627-0.10351zm186.69 5.8359c0.7276-0.11342 1.4469-0.0747 2.0742 0.16601 1.0021 0.38453 1.5108 1.5001 1.3144 2.8828-0.46129 3.2485-7.8203 3.9947-7.8203 0.79297 0-1.7852 2.2488-3.5015 4.4316-3.8418zm-205.87 0.80278c2.8239 0 3.4861 3.3846 0.85938 4.3926-2.4473 0.93911-3.4316 0.73426-4.0371-0.84375-0.82613-2.1529 0.42255-3.5488 3.1777-3.5488zm271.84 2.3672c-1.1143 0.06436-2.3984 1.3156-2.3984 2.7402 0 1.2263 0.70435 1.8926 2 1.8926 1.9067 0 2.8372-2.8288 1.4023-4.2637-0.27982-0.27983-0.63248-0.3906-1.0039-0.36914zm-106.82 38.68c-2.3615 0.1521-5.5742 3.2955-5.5742 6.4531 0 1.8333-0.53333 2.5-2 2.5-1.1111 0-2 0.66667-2 1.5s0.88889 1.5 2 1.5c1.8095 0 2 0.66667 2 7 0 5.5556 0.30952 7 1.5 7s1.5-1.4444 1.5-7c0-6.3333 0.19048-7 2-7 1.1111 0 2-0.66667 2-1.5s-0.88889-1.5-2-1.5c-3.1543 0-2.7094-4.7802 0.56055-6.0234 1.4081-0.53536 2.282-1.4236 1.9414-1.9746-0.44769-0.72438-1.1406-1.0058-1.9277-0.95507zm-234.9 0.95312c-1.055 0-1.7365 22.026-0.76562 24.75 0.70716 1.9843 2.0898-0.82705 2.0898-4.25 0-5.6391 0.9038-5.649 5.1328-0.0312 1.8517 2.458 4.1547 4.483 5.1172 4.5 2.5274 0.0447 2.1648-0.92439-2.2324-5.9688l-3.9219-4.5 3.7012-3.2129c3.1529-2.7356 3.3973-3.218 1.6406-3.25-1.1346-0.0206-3.3567 1.3129-4.9375 2.9629-4.0707 4.2489-4.5 3.8673-4.5-4 0-5.1441-0.35067-7-1.3242-7zm96.07 0c-0.99146 0-1.6283 19.744-0.80078 24.834 0.57248 3.5214 2.476-1.819 2.2109-6.2031-0.3987-6.5933 0.77838-8.6309 4.9902-8.6309 3.7105 0 4.9895 3.0517 4.1719 9.9551-0.50349 4.2512-0.33841 5.0449 1.043 5.0449 1.3729 0 1.6387-1.2147 1.6387-7.4766 0-9.006-2.2558-11.676-8.1328-9.627-1.7415 0.60708-3.3227 1.1035-3.5156 1.1035-0.19293 0-0.35156-2.025-0.35156-4.5 0-2.9419-0.43376-4.5-1.2539-4.5zm109 0c-1.3731 1.6e-4 -1.75 0.85564-1.75 3.9746 0 3.8714-0.0762 3.9594-2.959 3.3828-6.9441-1.3888-12.07 10.014-6.9648 15.494 1.7526 1.8812 2.9364 2.1791 7.5977 1.9121l5.5215-0.3164 0.15235-12.225c0.13747-11.033-0.01812-12.223-1.5977-12.223zm-89.676 1c-2.0004 0-2.8022 1.938-1.3867 3.3535 1.0718 1.0718 2.7798 0.15493 3.1367-1.6856 0.21801-1.1241-0.35203-1.668-1.75-1.668zm106 0c-2.0004 0-2.8022 1.938-1.3867 3.3535 1.0718 1.0718 2.7798 0.15493 3.1367-1.6856 0.21801-1.1241-0.35203-1.668-1.75-1.668zm156.56 0c-1.8577 0-2.9788 1.6301-2.0996 3.0527 0.90454 1.4636 2.9015 0.62371 3.291-1.3848 0.18707-0.96457-0.31526-1.668-1.1914-1.668zm-35.883 0.18945c-1.2278-0.23646-1.75 0.3044-1.75 1.8106s0.52215 2.047 1.75 1.8106c0.9625-0.18536 1.75-1.0006 1.75-1.8106s-0.7875-1.6252-1.75-1.8106zm-483.1 0.81055c-1.8018 0-1.8072 0.10557-0.13086 2.6641 4.5105 6.8838 5.5868 9.5119 5.9316 14.482 0.20425 2.9442 0.41309 5.5042 0.46289 5.6875 0.48956 1.8007 2.6104-1.3103 2.6777-3.9277 0.15303-5.9475 0.33493-6.477 4.3906-12.752 3.2068-4.9615 3.6431-6.1534 2.25-6.1504-1.0658 2e-3 -2.86 2.1014-4.6816 5.4785l-2.9551 5.4766-3.0352-5.4805c-2.0015-3.6131-3.6733-5.4785-4.9102-5.4785zm224.85 1c-0.93333 0-1.5 0.94444-1.5 2.5s-0.56667 2.5-1.5 2.5c-0.825 0-1.5 0.675-1.5 1.5s0.675 1.5 1.5 1.5c1.1609 0 1.5 1.3119 1.5 5.8008 0 3.19 0.53922 6.34 1.1992 7 1.3879 1.3879 6.8008 1.6336 6.8008 0.3086 0-0.49041-1.0682-1.1608-2.373-1.4883-4.1967-1.0533-4.7761-10.642-0.70117-11.604 3.3992-0.80189 3.8826-3.0176 0.6582-3.0176-2.0889 0-2.584-0.47849-2.584-2.5 0-1.5556-0.56667-2.5-1.5-2.5zm-198.26 4.1172c-1.7746 0.0874-3.528 1.0221-5.3125 2.8066-4.7101 4.7101-3.4138 12.742 2.4336 15.076 8.2913 3.3099 15.209-9.6747 8.3145-15.605-1.8657-1.6048-3.661-2.3647-5.4356-2.2773zm137.71 0.0879c-6.7385-0.45913-11.725 10.15-5.4941 15.51 3.1894 2.7434 11.545 3.3304 11.545 0.81055 0-1.0638-0.76656-1.3358-2.75-0.97461-3.2214 0.58672-7.6015-1.4197-8.0371-3.6816-0.23848-1.2383 0.91974-1.707 5.3477-2.1641 7.6537-0.78993 8.8002-4.9619 2.3574-8.5781-1.0066-0.56496-2.0061-0.85628-2.9688-0.92187zm17.254 0.0195c-5.717 1.1182-9.5431 9.5908-4.2558 15.219 2.812 2.9932 12.053 3.8512 12.053 1.1191 0-1.0781-0.85532-1.298-3.4258-0.88086-2.8529 0.46297-3.8992 0.0762-6.25-2.3125l-2.8242-2.8691 3-0.26367c8.5311-0.7509 9.5-1.1818 9.5-4.2246 0-1.8611-0.79537-3.4554-2.2227-4.4551-1.0119-0.70878-2.0318-1.1375-3.0293-1.332-0.87285-0.17022-1.7282-0.15974-2.5449 0zm20.68 0.0234c-0.67817 5e-3 -1.3679 0.11662-2.0586 0.34765-1.278 0.42752-3.2242 0.67572-4.3242 0.55078-1.92-0.21808-1.9882 0.27344-1.6934 12.312 0.30197 12.334 3.1934 20.062 3.1934 8.5411 0-3.993 6e-3 -4 3.9609-4 4.5436 0 7.5576-2.528 8.584-7.2012 1.1944-5.4383-2.9149-10.587-7.6621-10.551zm65.914 0.041c-5.7057 0.26571-7.8765 6.6087-1.9258 9.6445 6.3107 3.2195 5.754 7.0422-0.83398 5.7246-2.8414-0.56828-4.6794 0.36753-3.3438 1.7031 1.1174 1.1174 8.8588 0.68812 10.107-0.56055 2.2825-2.2825 1.371-5.728-2.0508-7.7559-6.7549-3.9971-7.177-6.0448-1.25-6.0448 4.1581 0 5.4067-1.5551 1.9453-2.4238-0.94602-0.23743-1.8342-0.32507-2.6484-0.28711zm-193.07 0.0195c-0.71702-0.0207-1.4426 0.1536-2.25 0.52149-1.2501 0.56955-3.2177 0.78846-4.373 0.48633-2.0142-0.52672-2.1016-0.19552-2.1016 8.0664 0 6.9926 0.28272 8.6172 1.5 8.6172 1.1901 0 1.5-1.4418 1.5-6.9805 0-6.6107 0.13277-7.0138 2.498-7.6074 4.701-1.1799 5.502-0.0801 5.502 7.5566 0 5.5834 0.30889 7.0312 1.5 7.0312 1.1765 0 1.5-1.3747 1.5-6.377 0-12.028 7.3077-12.846 7.793-0.87305 0.43188 10.657 3.207 10.461 3.207-0.22656 0-9.1471-2.17-11.613-8.4121-9.5527-2.6412 0.87167-4.0192 0.86796-5.666-0.0117-0.77283-0.4136-1.4802-0.62964-2.1973-0.65039zm28.818 0.082c-3.0279-0.1852-6.543 0.51879-6.543 1.6544 0 0.52508 1.7443 0.95508 3.877 0.95508 3.9362 0 6.8394 2.0332 5.6504 3.957-0.35481 0.57409-1.8681 1.043-3.3633 1.043-5.5436 0-9.2798 5.4839-5.9824 8.7812 0.67372 0.67372 3.616 1.1145 6.8477 1.0254l5.666-0.15625-0.19726-6.5762c-0.27947-9.2422-0.20847-9.0141-3.2383-10.166-0.75271-0.28618-1.7075-0.45216-2.7168-0.51758zm311.7 0.01c-1.09-0.20425-2.2951-0.17361-3.6016 0.1543-7.9358 1.9918-8.8468 14.4-1.2812 17.453 1.1786 0.47564 2.1887 0.89479 2.2441 0.92969s1.5305-0.43723 3.2793-1.0469c8.9441-3.1179 6.9897-16.06-0.64063-17.49zm84.943 0.0508c-0.86-0.27801-1.8685-0.26151-3.0312 0.0371-1.4587 0.37569-4.0023 0.65224-5.6523 0.61524l-3-0.0684 0.32422 8.4824c0.42998 11.274 3.1758 12.574 3.1758 1.502 0-12.091 8.256-11.778 8.7949 0.33399 0.43729 9.8225 3.2051 9.5228 3.2051-0.35359 0-6.2534-1.2364-9.7148-3.8164-10.549zm-171.59 8e-3c-0.8873-0.12435-2.1419 0.16833-3.6055 0.89844-1.643 0.79328-2.9863 1.0739-2.9863 0.5661 0-0.50785-0.73125-0.92383-1.625-0.92383-1.2867 0-1.4949 0.65064-1 3.125 0.34375 1.7188 0.625 5.5819 0.625 8.584 0 7.7159 2.3956 6.6455 2.8066-1.2539 0.34547-6.6385 1.3807-8.4551 4.8164-8.4551 1.3077 0 2.377-0.42387 2.377-0.94141 0-0.93523-0.5209-1.4752-1.4082-1.5996zm-19.857 0.13477c-2.0859-0.28465-4.27-0.32672-5.2617 0.0547-2.7812 1.0673-1.4691 2.3516 2.4043 2.3516 3.9362 0 6.8394 2.0332 5.6504 3.957-0.35481 0.57409-1.8681 1.043-3.3633 1.043-5.5436 0-9.2798 5.4839-5.9824 8.7812 0.67594 0.67594 3.6254 1.1135 6.8945 1.0234l5.7129-0.15625-0.21094-7.3418c-0.11691-4.0379-0.64585-7.7748-1.1738-8.3027-0.59745-0.59745-2.584-1.1255-4.6699-1.4102zm224.37 4e-3c-0.92828-0.0281-1.8036 0.0961-2.5371 0.375-1.2954 0.49251-3.3791 0.62813-4.6309 0.30078-1.8632-0.48724-2.1548-0.27809-1.6074 1.1484 0.36777 0.95838 0.66797 4.8551 0.66797 8.6602 0 5.4828 0.31121 6.918 1.5 6.918 1.1883 0 1.5-1.4321 1.5-6.8926 0-5.363 0.35133-7.0277 1.582-7.5 5.403-2.0733 7.7549 1.1671 6.8359 9.4199-0.45484 4.0508-0.27442 4.9723 1.0137 4.9723 1.2918 0 1.5684-1.3924 1.5684-7.9023v-7.9024l-3.0371-1.0586c-0.946-0.32978-1.9272-0.51094-2.8555-0.53906zm-237.44 0.20703c-1.2106-0.0331-2.9783 0.21468-5.4043 0.74023-5.0836 1.1013-6.5814 8.7394-2.6348 13.43 2.6091 3.1008 11.413 4.3712 10.57 1.5254-0.16286-0.55-1.3896-0.85684-2.7266-0.68164-2.8215 0.33574-7.4766-3.7095-7.4766-6.5512 0-3.54 2.8905-6.2676 6.6406-6.2676 2.382 0 3.3875-0.40571 3.0996-1.25-0.20377-0.59752-0.85776-0.91218-2.0684-0.94531zm186.58 0.19296c-1.555-2e-3 -1.7132 0.94528-1.4258 8.5 0.46901 12.327 3.1758 12.325 3.1758 2e-3 0-7.4277-0.22077-8.5-1.75-8.502zm-441.77 0.00195c-1.8869 0-1.4153 13.163 0.55664 15.539 0.86597 1.0434 2.905 1.3924 7.0898 1.2129l5.877-0.25195v-8.25c3.4e-4 -6.6668-0.28785-8.25-1.5-8.25-1.1801 0-1.5 1.3923-1.5 6.5254 0 6.0335-0.18843 6.5948-2.4922 7.4707-4.7676 1.8126-6.5078-0.89425-6.5078-10.121 0-2.8049-0.42032-3.875-1.5234-3.875zm74.352 0c-1.947 0-1.9222 0.1132 2.0762 9.332 2.8496 6.5702 2.7312 10.205-0.39649 12.254-1.3703 0.89784-2.2546 2.0129-1.9668 2.4785 1.1681 1.89 5.0166-0.95236 6.332-4.6777 0.75469-2.1374 2.6672-7.1172 4.25-11.066 3.3125-8.2649 3.3215-8.3203 1.5352-8.3203-0.7721 0-2.117 2.56-3.168 6.0312-2.0421 6.7446-2.4362 6.6844-5.0488-0.78125-1.2862-3.6755-2.3687-5.25-3.6133-5.25zm140.67 0c-1.2157 0-1.5 1.6111-1.5 8.5s0.28431 8.5 1.5 8.5 1.5-1.6111 1.5-8.5-0.28431-8.5-1.5-8.5zm106 0c-1.2157 0-1.5 1.6111-1.5 8.5s0.28431 8.5 1.5 8.5 1.5-1.6111 1.5-8.5-0.28431-8.5-1.5-8.5zm27.455 0c-1.5945 0-1.398 0.93626 1.7207 8.1328 3.6799 8.4916 3.6357 12.042-0.16797 13.502-0.82976 0.31841-1.5078 1.1925-1.5078 1.9414 0 0.86778 0.63471 1.1339 1.75 0.73633 2.9948-1.0676 4.0978-2.3412 4.8027-5.5508 0.37453-1.7052 1.9786-6.1503 3.5645-9.877 3.2579-7.6559 3.4642-8.8848 1.4941-8.8848-0.76544 0-1.6831 1.4586-2.0449 3.25-0.36102 1.7875-1.222 4.5769-1.9141 6.1992l-1.2598 2.9492-2.3184-6.1992c-1.6634-4.4478-2.8265-6.1992-4.1191-6.1992zm38.045 0c-1.7728-4e-3 -1.5895 13.571 0.21289 15.752 0.66332 0.80257 3.144 1.1616 6.9102 1l5.877-0.25195v-8.25c3.4e-4 -6.6668-0.28785-8.25-1.5-8.25-1.1882 0-1.5 1.4314-1.5 6.8906 0 12.046-8.0925 11.282-8.3633-0.78906-0.10527-4.6928-0.48271-6.0986-1.6367-6.1016zm26.342 0c-1.7956 0-1.7592 0.23798 1.4082 9.207 2.8082 7.9518 4.568 9.6471 5.6289 5.4199 0.32765-1.3055 1.4268-4.3279 2.4414-6.7168l1.8438-4.3438 2.4082 6.7168c2.6753 7.4595 4.0636 8.307 5.6738 3.4668 0.59468-1.7875 2.0187-5.6125 3.1641-8.5 1.6713-4.2134 1.8021-5.25 0.66601-5.25-0.8247 0-2.1268 2.1914-3.1191 5.25-2.4359 7.5081-2.9589 7.592-5.0703 0.82031-2.5002-8.0188-4.423-8.0385-6.9688-0.0703-1.0544 3.3-2.1842 6-2.5098 6s-1.409-2.7-2.4082-6c-1.0444-3.4493-2.3869-6-3.1582-6zm64.441 0c-1.6031 0-1.8934 0.46121-1.4141 2.25 0.33164 1.2375 0.60919 5.1006 0.61719 8.584 0.0217 10.08 2.4754 7.6246 2.6641-2.666 0.13885-7.5723 0.0023-8.168-1.8672-8.168zm-491.89 1c4.2404 0 7.1334 8.8601 4.0898 12.527-3.134 3.7763-8.9785 0.03341-8.9785-5.75 0-2.6394 2.9846-6.7773 4.8887-6.7773zm138.33 0.36523c1.022 0.23985 1.9594 1.1046 2.748 2.5781 0.86883 1.6234 0.80268 2.0566-0.31054 2.0566-0.7756 0-2.8164 0.28125-4.5352 0.625-3.7171 0.74342-4.287-1.2638-1.1621-4.0918 1.1305-1.0231 2.2378-1.4078 3.2598-1.168zm17.742 0.14063c0.6844-8e-3 1.3851 0.14621 2.0352 0.49414 2.9621 1.5853 2.4274 3.6645-1.125 4.375-4.5542 0.91085-4.875 0.82268-4.875-1.3398 0-2.0304 1.9117-3.5058 3.9648-3.5293zm232.09 0.0293c3.8658 0.82318 6.5656 7.5969 2.8125 12.119-1.7126 2.0635-5.5795 1.6-7.3144-0.87696-2.1452-3.0627-1.9492-7.3848 0.44336-9.7773 1.3516-1.3516 2.77-1.7392 4.0586-1.4648zm-73.029 0.0176c0.73698 0.0125 1.4434 0.16468 2.0371 0.48243 2.2564 1.2076 2.7872 9.7128 0.73437 11.766-4.414 4.414-10.685-2.7255-8.1641-9.2949 0.67978-1.7715 3.1816-2.9907 5.3926-2.9531zm-140.34 0.63868c6.0106-0.58207 8.3433 10.048 2.6816 12.221-5.1638 1.9816-6.6459 0.29317-6.1797-7.0391 0.29698-4.6711 0.44166-4.8857 3.498-5.1816zm-96.105 6.8086c2.8482 0 3.5241 4.361 0.83594 5.3926-3.8584 1.4806-6.418 0.50192-6.418-2.4531 0-1.9205 1.9362-2.9394 5.582-2.9394zm205 0c3.3278 0 3.468 4.4848 0.16797 5.3691-4.3556 1.1672-5.75 0.57779-5.75-2.4297 0-1.9205 1.9362-2.9394 5.582-2.9394zm-296.17 23.957c-0.2498 0.07785-0.41211 0.47575-0.41211 1.293v12.25c0 9.5556 0.25362 11.5 1.5 11.5 1.1786 0 1.5-1.385 1.5-6.4648 0-5.4813 0.30935-6.63 2.0371-7.5547 4.8428-2.5918 7.4778 1.0819 6.8086 9.4961-0.28016 3.5226-0.0273 4.5229 1.1465 4.5234 1.8981 8.8e-4 1.8791-13.242-0.0195-15.533-1.3758-1.6577-5.7164-1.9179-7.9727-0.47852-1.2376 0.78951-1.5875 0.13045-2-3.7656-0.30191-2.8514-1.8385-5.4992-2.5879-5.2656zm52.088 0.04297c-1.2529 0-1.5 2.0482-1.5 12.434v12.434l2.75 0.41601c6.1517 0.9319 7.4691 0.65001 10.326-2.207 6.1097-6.1097 2.3855-15.726-5.7363-14.811l-4.3398 0.48829v-4.377c0-3.2241-0.39513-4.377-1.5-4.377zm63.352 0.5c-0.74343 0-1.307 0.5625-1.252 1.25s0.1675 6.2 0.25 12.25c0.11038 8.0942 0.48203 11 1.4082 11 0.95158 0 1.2202-2.9886 1.1016-12.25-0.12236-9.5474-0.45434-12.25-1.5078-12.25zm-94.729 0.97266c-1.136 0.23946-2.2568 1.5012-1.6914 2.416 0.9922 1.6054 3.5684 1.3668 3.5684-0.33008 0-0.79254-0.35811-1.6624-0.79688-1.9336-0.31979-0.19766-0.7014-0.23216-1.0801-0.15234zm-31.623 2.5273c-0.93333 0-1.5 0.94444-1.5 2.5s-0.56667 2.5-1.5 2.5c-0.825 0-1.5 0.45-1.5 1s0.675 1 1.5 1c1.157 0 1.5 1.2974 1.5 5.6719 0 3.9275 0.52158 6.246 1.6953 7.543 1.8052 1.9947 5.3917 2.0607 6.0332 0.11133 0.21228-0.64509-0.65073-1.3201-1.9199-1.5-3.7617-0.53321-4.105-11.826-0.35937-11.826 1.4024 0 2.5508-0.45 2.5508-1s-1.125-1-2.5-1c-2 0-2.5-0.5-2.5-2.5 0-1.5556-0.56667-2.5-1.5-2.5zm102 0c-0.93333 0-1.5 0.94444-1.5 2.5s-0.56667 2.5-1.5 2.5c-0.825 0-1.5 0.45-1.5 1s0.675 1 1.5 1c1.1651 0 1.5 1.3271 1.5 5.9434 0 5.0288 0.34622 6.187 2.25 7.5234 2.4775 1.7392 4.8695 1.6768 5.4746-0.14063 0.21477-0.64509-0.64682-1.3201-1.916-1.5-3.7617-0.53321-4.105-11.826-0.35937-11.826 1.4024 0 2.5508-0.45 2.5508-1s-1.125-1-2.5-1c-2 0-2.5-0.5-2.5-2.5 0-1.5556-0.56667-2.5-1.5-2.5zm13 0c-0.93333 0-1.5 0.94444-1.5 2.5s-0.56667 2.5-1.5 2.5c-0.825 0-1.5 0.45-1.5 1s0.675 1 1.5 1c1.1576 0 1.5038 1.3124 1.5156 5.75 0.0162 6.0687 0.54657 7.5865 2.9844 8.5332 2.1504 0.83508 4.2713 0.40463 4.7246-0.95703 0.21477-0.64509-0.64682-1.3201-1.916-1.5-3.7617-0.53321-4.105-11.826-0.35937-11.826 1.4024 0 2.5508-0.45 2.5508-1s-1.125-1-2.5-1c-2 0-2.5-0.5-2.5-2.5 0-1.5556-0.56667-2.5-1.5-2.5zm26.408 3.9941c-2.156-0.0598-4.3462 0.7468-5.8359 2.6406-3.6973 4.7004-2.5458 11.452 2.4277 14.236 2.554 1.4298 8.718 1.0161 9.2559-0.62109 0.27955-0.85096-0.78773-1.25-3.3438-1.25-3.8461 0-7.4121-2.2388-7.4121-4.6543 0-0.97723 1.6406-1.3457 6-1.3457 5.7333 0 6-0.11111 6-2.5 0-3.8987-3.4984-6.4062-7.0918-6.5059zm-54.441 0.0703c-2.4705-0.0757-4.8334 0.50312-5.2578 1.791-0.34041 1.033 0.28138 1.1958 2.6133 0.68359 3.3751-0.7413 7.1777 0.77645 7.1777 2.8652 0 0.75839-1.5647 1.5875-3.625 1.9219-6.5217 1.0583-9.0918 5.1189-5.6484 8.9238 1.3164 1.4546 2.4458 1.7444 4.75 1.2168 1.6626-0.38071 4.0119-0.64911 5.2207-0.59571 2.7486 0.12141 3.2487-10.698 0.67773-14.674-0.85834-1.3272-3.4378-2.0571-5.9082-2.1328zm-42.822 0.13282c-7.3369-0.65441-8.7886 5.7694-2.1445 9.4883 5.2471 2.937 5.1596 4.7297-0.25 5.1211-4.1227 0.29829-5.5494 1.5026-3 2.5312 3.4685 1.3996 9.0896-0.17646 10.109-2.834 0.96618-2.5178-1.0469-5.346-4.9727-6.9863-4.4839-1.8735-4.3979-5.0176 0.13672-5.0176 4.1588 0 4.2603-1.9335 0.12109-2.3027zm-13.098 0.42382c-1.1276 0.43267-1.4082 2.332-1.25 8.4629 0.29737 11.527 2.7031 11.035 2.7031-0.55273 0-6.9976-0.25173-8.3712-1.4531-7.9102zm109.95 1.3789c2.0678 0 4.5 2.396 4.5 4.4336 0 0.31116-2.025 0.56641-4.5 0.56641s-4.5-0.25525-4.5-0.56641c0-2.0376 2.4322-4.4336 4.5-4.4336zm-72.369 0.37305c4.9392-0.3388 8.2701 7.226 3.8691 11.627-4.2838 4.2838-8 1.8853-8-5.1641 0-3.6874 0.43671-4.9997 1.9336-5.8008 0.75343-0.40323 1.4917-0.61371 2.1973-0.66211zm20.951 6.5664c1.193 0.26461 1.9158 1.2334 1.7344 2.8106-0.26382 2.2928-0.85877 2.8028-3.5742 3.0644-3.9813 0.38368-5.6294-2.3264-2.7129-4.459 1.6971-1.241 3.3597-1.6806 4.5527-1.416zm65.666 3.7168c-1.3412-0.37567-2.748 0.63616-2.748 2.4512 0 1.2072 0.70366 1.8926 1.9414 1.8926 2.5212 0 3.541-1.7146 2.0723-3.4844-0.37778-0.45519-0.81857-0.73415-1.2656-0.85937zm-195.75 131.34h6c5.0473 0 5.9993 0.27787 6 1.75 0.0013 2.9201 5.4561 13.432 9.8203 18.928 2.2618 2.8479 3.7021 5.3229 3.2012 5.5-0.5009 0.1772-5.6617 4.9348-11.469 10.572-14.485 14.062-13.553 15.082-13.553-14.832zm642.41 0h10.623l-0.26953 23.668c-0.16755 14.791-0.64262 23.729-1.2676 23.832-1.735 0.287-22.726-21.904-21.826-23.074 4.4296-5.7627 9.2165-14.056 10.803-18.723zm-314.73 26.83 15.145 7.5859 15.145 7.584h21.131l-0.30274 5.25-0.30273 5.25h-30.834l-0.87891-3c-6.0032-20.467-34.602-21.177-40-0.9941l-1.2012 4.4941h-30.496l-0.63672-3.4004c-1.3054-6.9583-1.1733-7.0456 11.557-7.5996l11.49-0.5 15.094-7.334zm298.47 1.0703 10.174 9.7344c12.31 11.777 13.48 13.241 11.557 14.459-0.76061 0.4817-11.62 0.8806-24.133 0.8906l-22.75 0.0156-0.14062-2.25c-0.3764-5.9821-0.29448-7.3421 0.51367-8.5 0.47985-0.6875 1.4961-1.25 2.2598-1.25 2.5547 0 10.808-4.3168 16.693-8.7305zm-597.92 0.7324c1.3459 0.2126 2.6852 1.5056 5.2285 3.4258 2.9571 2.2326 8.4502 5.3551 12.207 6.9375l6.8301 2.8769 0.30078 5.5625 0.29883 5.5645-21.799-0.062c-30.876-0.09-30.329 0.4165-15.451-14.244 7.8793-7.7645 10.142-10.415 12.385-10.061zm300.82 8.7422c6.805 0.7424 13.1 4.9435 14.504 12.125l0.58789 3h-17.076c-18.914 0-18.932-0.01-15.576-6.498 3.4404-6.653 10.756-9.3694 17.561-8.627zm-273.06 4.625h107.33c59.033 0 107.52 0.1871 107.75 0.416 0.22917 0.2289 0.26376 2.6715 0.0742 5.4278l-0.34179 5.0097-8.1582 0.3223c-4.4871 0.1783-52.821 0.2356-107.41 0.07l-99.25-0.2556v-5.4941zm326 0h215.72l-0.2832 5.25-0.28125 5.25-215.16 0.5098v-5.5059zm155.33 9.334c-0.36666 0.3667-0.0673 0.666 0.66602 0.666 0.73337 0 1.0327-0.2993 0.66602-0.666-0.36667-0.3666-0.96537-0.3666-1.332 0z"/>
</svg>
