<?xml version="1.0" encoding="UTF-8"?>
<!-- Created with Inkscape (http://www.inkscape.org/) -->
<svg width="822" height="1122" version="1.1" viewBox="0 0 822 1122" xmlns="http://www.w3.org/2000/svg">
 <path d="m88 78-3.1 2.6c-1.7 1.4-3.8 3.9-4.6 5.5-1.3 2.5-1.5 62-1.5 470v467l2.5 3.7c4.6 6.7-7.2 6.2 157 6.8 83 0.27 227 0.41 320 0.28 188-0.24 173 0.32 178-6.8 2-3.2 2-6.8 2-472v-469l-7.8-7.8h-321zm269 2.9 31 0.55 0.66 3.2c3.9 19 34 20 39 0.76l1.2-4.5h32l-0.25 11h-21l-15 7.5c-8.4 4.1-15 7.4-15 7.3-0.12-0.083-6.8-3.4-15-7.4l-14-7.3-22-0.12v-5.5zm-244 0.051h22l-0.01 5.2-8e-3 5.2-8.4 3.9c-4.6 2.1-10 5.4-12 7.2-4.5 3.9-4.1 3.8-6.2 1.6-0.87-0.92-6-5.9-11-11-13-12-13-12 16-12zm25 0h215v11h-47c-37 0-47-0.27-47-1.2-0.4-1-0.52-1-0.58 0-0.062 0.99-13 1.2-60 1.2h-60v-5.5zm326 0h108c98 0 108 0.15 108 1.6-0.33 0.87-0.61 3.3-0.61 5.5v3.9h-215v-5.5zm219 0h23c28 0 28-0.68 14 13-6.1 6-11 11-12 11s-2.9-1.8-5.8-4c-2.9-2.2-8.5-5.2-12-6.7l-6.9-2.8-0.014-5.2zm-274 0.0098c8.5 0.033 17 0.36 17 0.93 0 4.5-4.8 11-10 13-9.1 4.2-28-6.4-24-13 0.35-0.57 8.9-0.82 17-0.78zm-326 6.1c0.66-0.65 4.9 2.7 12 9.8l12 11-3.3 4.4c-3.9 5.2-10 17-10 19 0 1.1-1.1 1.5-4.4 1.5-2.4 0-5.2 0.28-6.1 0.63-1.9 0.74-2-45-0.029-47zm650 0.29c2.1 0.7 1.9 7.5 1.9 23v23l-5.1-0.12c-4.9-0.11-5.2-0.28-6.6-3.7-3.9-9.4-5.5-13-8.9-17l-3.7-5 11-11c5.2-5.2 8.4-8.6 10-9.3 0.4-0.14 0.75-0.17 1-0.066zm-502 2.6c-0.28 0-0.5 0.22-0.5 0.5s0.22 0.5 0.5 0.5 0.5-0.22 0.5-0.5-0.22-0.5-0.5-0.5zm3 0c-0.28 0-0.5 0.22-0.5 0.5s0.22 0.5 0.5 0.5 0.5-0.22 0.5-0.5-0.22-0.5-0.5-0.5zm59 0c-0.28 0-0.5 0.22-0.5 0.5s0.22 0.5 0.5 0.5 0.5-0.22 0.5-0.5-0.22-0.5-0.5-0.5zm204 0.33c-0.37 0.37-0.067 0.67 0.67 0.67 0.73 0 1-0.3 0.67-0.67-0.37-0.37-0.97-0.37-1.3 0zm-233 0.0039c-0.69 0.28-0.12 0.5 1.2 0.5s1.9-0.23 1.2-0.5c-0.69-0.28-1.8-0.28-2.5 0zm374 23c24 0.4 48 15 55 44 8 31-12 63-43 71-43 10-82-31-69-73 8.3-28 33-42 57-42zm-506 1.9c3 0.031 6.2 0.56 9.6 1.7 6.7 2.2 6.3 1.7 4.4 5.4-1.7 3.2-3 3.9-4.1 2-1.8-2.9-11-4.1-15-2-4.4 2.3-1.5 4.5 7.2 5.4 15 1.6 19 13 7.8 19-4.9 2.5-17 1.5-25-2.1-0.15-0.072 0.59-2.1 1.6-4.4 1.8-3.9 2-4.1 3-2.3 2.8 5.2 19 5.8 19 0.73 0-2.1-2.7-3.2-10-4-8-0.83-11-3.2-12-8.5-1.1-6.9 5.3-11 14-11zm95 5.6 4e-3 3 2e-3 3-18-0.64v2.5c0 2.8 3 3.7 8.8 2.5 3.2-0.65 3.2-0.6 3.3 3l2e-3 3.6-12-0.69 0.32 2.8 0.33 2.8 8.2-0.12c4.5-0.063 8.7-0.39 9.2-0.74 0.62-0.38 1 0.95 1 3.4 0 2.2-0.11 4-0.25 3.8-0.14-0.12-6.1-0.36-13-0.53l-13-0.31 0.34-12c0.3-10 0.13-12-1.1-15-0.15-0.33 5.7-0.66 13-0.74zm-37 0.17c6.1 0.32 5.6-0.71 5.3 12-0.23 8.4 0.031 12 0.87 14 1 1.2 0.49 1.5-3.7 1.5h-4.9l0.16-14c0.16-13 0.23-14 2.2-14zm-9.2 0.084c0.38-0.14 0.55 2.4 0.37 5.8-0.63 11-0.55 19 0.19 19 2.1 1.3 0.19 2.3-4.4 2.3-4.5 0-5-0.21-4.4-1.8 0.41-0.96 0.77-3.5 0.8-5.7l0.053-4-14 0.23-0.3 4.6c-0.18 2.8 0.12 4.6 0.75 4.6 0.58 0 1.1 0.45 1.1 1s-2.3 1-5.1 1c-4.4 0-5-0.24-4.5-1.8 0.84-2.8 1-23 0.22-24-0.52-0.85 0.71-1.2 4.4-1.2 3.9 0 4.9 0.31 4.3 1.2-0.44 0.69-0.88 3-0.98 5l-0.18 3.8 14-0.58v-3.5c0-1.9-0.39-4.1-0.87-4.8-0.66-0.94 0.15-1.2 3.2-1.2 2.3 0 4.4-0.11 4.8-0.25zm60 0.25-1 21 18-0.63-2e-3 3.8c-1e-3 2.1-0.34 3.7-0.75 3.5s-5.9-0.36-12-0.53l-12-0.31 0.33-12c0.23-8.4-0.031-12-0.87-13-1-1.2-0.49-1.5 3.7-1.5zm396 4e-3c-59 0-71 81-16 100 32 11 67-14 67-49 0.046-29-22-51-51-51zm-377 2e-3h9.8c15-2e-3 20 3 20 13 0 5.5-1.9 9.7-5.4 12-1.4 0.89-6.1 1.5-13 1.8l-11 0.39v-14zm376 2.9c12-0.31 24 3.7 34 13 25 23 19 63-12 78-37 18-79-16-67-56 6.2-21 25-34 45-34zm-369 2.1v7.8c0 4.3 0.29 8.1 0.64 8.5 0.35 0.35 2.9 0.41 5.7 0.13 13-1.3 12-16-1.5-16zm-186 10 4.3 0.18c2.3 0.1 4.8 0.21 5.5 0.25 0.96 0.054 1.2 89 1.2 419l-0.047 419h-11v-419zm649 0.16c2.3 0.13 4.5 0.37 4.6 0.58 0.049 0.14-0.027 189-0.17 419l-0.25 419h-5c-4.5 0-5-0.22-5.1-2.2-0.72-30-0.18-836 0.55-836 0.53-0.18 3-0.15 5.3-0.018zm-122 9.3-0.53 3.3c-3.4 21 7 46 24 57 15 9.9 37-21 36-49l-0.28-11-30-0.27zm29 8c2 0 2.5 0.5 2.5 2.4 0 1.6 0.72 2.7 2.1 3.1 3.5 1.1 8.8 6.4 9.4 9.5 0.5 2.3 1.2 3 3.1 3 1.8 0 2.4 0.55 2.4 2 0 1.5-0.67 2-2.5 2-1.4 0-2.5 0.58-2.5 1.3 0 2.1-6.8 9.4-9.4 10-1.5 0.37-2.7 1.6-3 3.1-0.8 3.2-3.2 3.2-4 0.074-0.34-1.3-1.5-2.7-2.6-3.1-3.2-1-7.6-5.2-9-8.5-0.91-2.2-1.9-3-3.7-3-2 0-2.4-0.44-2.1-2.2 0.23-1.6 0.92-2.2 2.5-2 1.5 0.15 2.3-0.47 2.7-2.1 0.88-3.5 4.2-7.2 8.1-9.1 2.6-1.2 3.5-2.3 3.5-4.1 0-2 0.51-2.5 2.5-2.5zm-3.5 10c-0.7 0.21-1.8 1.1-3.3 2.7-2.9 3.1-3.6 5.8-1.2 4.8 1.1-0.42 1.5 0.11 1.5 1.9 0 1.5-0.57 2.5-1.5 2.5-2.3 0-1.8 1.9 1.5 5.1 3 3 5 3.1 5 0.3 0-2.2 3.1-1.7 3.7 0.53 0.47 1.8 0.73 1.9 3.3 0.54 3.8-2 5.5-6.5 2.5-6.5-0.83 0-1.5-0.89-1.5-2 0-1.1 0.65-2 1.4-2 2.8 0 2.7-2.1-0.3-5-3.3-3.3-5.1-3.8-5.1-1.5 0 0.93-0.94 1.5-2.5 1.5s-2.5-0.57-2.5-1.5c0-1.1-0.33-1.6-1-1.4zm64 12 22 0.56-0.051 802-4.3 8.6c-5.6 11-14 20-25 25l-7.7 3.8-244 0.53-32-16-32 16-242-0.047-5.8-2.4c-13-5.3-23-15-29-27l-4-7.9-0.26-402-0.25-402h480l0.56 2.8c14 70 112 71 122 2zm-289 71c-145 0.017-290 0.6-292 1.7-3.9 2-7.9 6.5-9.7 11-1.4 3.3-1.6 21-1.5 162l0.01 158 2.4 5.2c1.7 3.6 3.7 6.1 6.7 8l4.3 2.8 212 0.5c116 0.28 247 0.28 290 0l78-0.5 4-2.8c2.2-1.5 5-4.5 6.2-6.6l2.2-3.9v-161c0-111-0.33-161-1.1-163-1.3-3.5-5.5-8-9.3-10-2.1-1.1-147-1.7-292-1.6zm272 2c33 1.1 28 13 28 93l-0.23 160c-0.31 90 0.31 83-8.1 89l-4.1 2.6h-57c-39 0-55-0.3-57-1-0.5 0.13-1.1 0.2-1.8 0.16-0.41-0.022-0.83-0.046-1.2-0.068 9e-3 9e-3 0.15 0.16 0.16 0.16 0.37 0.41-77 0.75-171 0.74l-148-6e-3c-0.3 0.15-0.69 0.24-1.2 0.22-2.3-0.072-4.6-0.15-6.9-0.22h-16l0.29-0.28c-4-0.022-8-0.041-12-0.092-0.38-5e-3 -0.77-0.012-1.2-0.018-26 1.1-102 0.44-105-1.5-10-6.1-9.6-1.5-9.2-93l0.035-155c-0.35-106-9.3-94 70-94l144-0.021h316c9.9 0 18-0.19 26-0.31 6.4-0.11 12-0.15 17-6e-3zm-279 20v8.2c0 4.5 0.34 8.2 0.75 8.2 5.8 0.21 20 1.4 23 2 9.9 1.7 9.5 1.9 11-6.7 0.92-4.2 1.6-7.7 1.4-7.9-1-0.85-15-2.6-25-3.2zm-17 1.3-4.2 0.62c-6.3 0.95-27 6.4-28 7.3-0.85 0.85 1.3 9.2 3.3 13 1.3 2.5 0.9 2.5 7.8 0.46 3.1-0.89 9.4-2.4 14-3.4 9.7-2 9-0.94 7.6-12zm73 8.4c-2.4 0.076-3.1 2.3-4.5 6.6-2.6 8.1-2.8 7.7 5.9 11 3.6 1.5 9.2 4.2 12 6.1 3.3 1.8 6.2 3.4 6.5 3.5s2.4-2.9 4.8-6.6c5.1-8 5.8-7-10-15-8.4-4.1-13-6.1-15-6zm-122 6.8c-0.89-0.93-27 15-28 18-0.31 0.5 1.5 3.6 4.1 6.9 5.5 7.1 4 7 12 1.5 3.5-2.5 9.4-6.2 13-8.3l6.5-3.8-3.5-6.9c-1.9-3.8-3.6-7.1-3.8-7.2zm50 21c-0.4 2.8-1.2 5.5-1.7 6.2-1.4 1.7 0.037 8.8 2.4 12 2.3 2.9 1.3 8-1.9 11-3.2 2.7-13 7.5-16 8.1-5.3 0.98-10 5.7-14 13-4.6 9.6-10 18-19 27-7.5 7.9-12 14-17 23-1.4 2.8-5.1 8.2-8.3 12-6.5 7.9-8.5 12-8.5 17 0 3.5 1.3 5.5 2.5 3.7 0.33-0.53 1.3-0.72 2.1-0.41 0.92 0.35 1.5-0.041 1.5-1 0-0.88 0.5-1.6 1.1-1.6 0.62 0 0.89-0.88 0.6-2-0.33-0.67-0.017-0.94 0.18-1.4 8e-3 -0.022 0.025-0.041 0.037-0.06 0.077-0.073 0.18-0.093 0.28-0.12 0.091-0.074 0.1-0.094 0.16-0.14 0.11-0.16 0.2-0.33 0.29-0.51 7e-3 -0.014 0.014-0.029 0.022-0.043 0.011-0.046 0.021-0.092 0.031-0.14 0.021-0.16 0.042-0.31 0.062-0.47 0.18-0.94 0.013-0.032 0.28-1.5 0.026-0.13 0.057-0.26 0.13-0.37 0.059-0.081 0.13-0.15 0.22-0.19 0.084-0.078 0.11-0.076 0.17-0.12 0.078-0.056 0.16-0.11 0.25-0.15 0.088-0.04 0.18-0.072 0.27-0.096 0.1-0.027 0.21-0.05 0.32-0.047 0.13 0.013 0.25 0.053 0.36 0.13 0.058 0.043 0.077 0.054 0.13 0.11 0.098 0.1 0.17 0.23 0.22 0.36 0.012 0.038 0.025 0.075 0.035 0.11 0.059 0.22 0.07 0.45 0.08 0.67 8e-3 0.32 5e-3 0.64-4e-3 0.96-8e-3 0.29-0.016 0.57-0.033 0.86-3e-3 0.067-6e-3 0.13-0.01 0.2-7e-3 0.093-0.014 0.19-0.023 0.28-3.7e-4 5e-3 -2e-3 0.01-2e-3 0.016-0.015 0.21-0.031 0.42-0.055 0.63-0.018 0.16-0.039 0.32-0.06 0.48-2.2e-4 3e-3 2.2e-4 7e-3 0 0.01-0.02 0.3-0.03 0.6-0.039 0.9-6e-3 0.21-0.01 0.43-0.012 0.64 6e-3 0.53 0.36 0.96 0.8 0.96 0.81 0 5.2-13 5.2-15 0-0.7 9.6-11 21-23 12-12 22-23 23-25 1.7-3.2 1.6-3.3 8.6 12 6.7 14 7.2 18 4 28-2.9 9.6-2.7 44 0.4 62 2.5 14 2.6 17 0.6 23-1.4 4.2-1.4 5.1 1 15 2 8.1 2.5 13 2.5 22 1e-3 13 1.6 19 5.9 21 8.2 4.5 11-0.64 7.1-12-4.4-11-4.6-31-0.45-50 2.6-12 3.7-20 4.3-36 0.75-17 3-22 4.3-8 0.72 7.2 5.6 28 8.1 34 1.1 2.8 1.1 3.9-0.17 7.5-1.3 3.6-1.3 5.3-0.27 12 0.99 5.8 1 8.8 0.02 15-1.2 7.3-1.2 7.3 1.9 14 1.7 3.4 3.4 7.6 3.8 9.2 1 4.5 3.3 7.5 5.8 7.5 6.7-0.096 7.7-7.4 2.2-16-5.5-8.4-5.4-7.7-1.5-25 4.3-19 4.8-68 1-88-2.9-15-1.3-34 3.8-43l1.5-3 3.1 4c5.6 7.1 13 15 19 19 6 4.6 12 13 12 16 0 1.2 0.45 2.2 1 2.2s1 0.68 1 1.5c0 2 0.96 1.9 2.7-0.25 0.79-0.96 1.1-1.2 0.8-0.5-0.99 1.9 0.41 3.6 2 2.3 0.72-0.6 1.9-0.96 2.7-0.8 4.8 1 1.9-6.2-5.9-15-4.3-4.7-10-12-13-17-2.6-4.5-6.2-10-8-12-1.8-2.3-5.2-8.9-7.6-15-5-12-7.7-16-13-17-2-0.53-5.8-1.5-8.5-2.2-6.1-1.5-6-1.2-3.6-10 10-40-24-40-27-21zm116-3.9c-1.3 0.19-2.5 2-5.2 5.8l-4.6 6.3 6.1 5.6 11 11c4.9 5.2 4.3 5.4 10 0.47 0.4-0.59 1.1-1.2 2-1.6l5.2-4.3-4.3-5.1c-4.4-5.2-5-5.8-15-14-3.4-2.9-4.8-4.4-6.1-4.2zm-208 12-6.4 7.5c-3.5 4.1-8.3 10-11 14l-4.3 6.1 6.8 4.4c3.7 2.4 7.1 4.1 7.4 3.8 0.33-0.35 3.1-4 6.2-8.1s7.2-9.3 9.1-12c3.9-4.5 4-4.2-4.1-12zm243 25c-1.3 0-13 8.3-13 9.2 0 0.53 0.92 2.3 2.1 3.8s4.1 7.3 6.6 13c2.3 5 4.1 8.6 4.5 9.4 0.4-0.26 0.89-0.49 1.5-0.67 4.4-1.3 8.9-2.4 13-3.7 0.28-0.15 0.45-0.31 0.75-0.45 1.1-0.55-14-30-16-30zm-272 17-3.3 7.2c-3.2 6.9-9.1 25-8.4 25 0.18 0.15 3 0.97 6.3 1.8 9.5 2.4 9.2 2.6 11-5.1 1.1-3.8 3.4-10 5.1-14 3.4-8.3 3.5-8-4.9-12zm293 32c-0.64 0.17-1.3 0.33-1.9 0.5-4.5 1.1-9.1 2.3-14 2.7 0.01 0.12-0.03 0.23 0.018 0.35 0.98 2.5 3.5 20 3.5 23l2e-3 2.2c3.4 0.018 6.8 0.037 10 0.049 2.3 7e-3 4.7 5e-3 7 0.01l-1.1-9.2c-1.4-12-2.5-18-4-20zm-305 18c-3.7-0.057-3.6 1.2-4 6.9-0.66 7.6 0.016 7.1-0.19 17-0.099 4.7 0.34 9 0.75 9.4 0.41 0.42 2.3 0.5 4.2 0.18 1.9-0.32 5.4-0.58 7.6-0.59l4.1-0.012 0.035-16 0.033-16-7.5-0.7c-2.2-0.21-3.9-0.38-5.1-0.4zm60 28c-1e-3 7.3e-4 -3e-3 -1e-3 -4e-3 2e-3 5.4e-4 1e-3 3e-3 3e-3 4e-3 4e-3 -4e-5 -2e-3 3e-5 -4e-3 0-6e-3zm233 2-1.3 8.9c-0.69 4.9-2 12-3 15l-1.3 4.8c1.4 0.34 2.8 0.68 4.1 1 3.9 1 7.7 2.1 12 3.2 0.75-1.2 1.4-3.2 2.3-7 2.5-9.9 4.3-24 3.2-24-0.4-0.25-4.1-0.74-8.2-1.1zm-279 18c-0.9 0.04-2.2 0.3-4.2 0.8-2.9 0.76-6 1.4-6.8 1.4-4.3 0.043-4.4 1.4-1.2 12 1.7 5.8 4.2 13 5.6 16l2.5 5.5 7.3-3.4c3.7-1.7 6.2-3.7 7.3-5.3-0.31-0.77-0.61-1.5-0.89-2.3-0.45-1.2-0.88-2.4-1.3-3.7v-2e-3c-1.3-3.4-3.3-9.3-6.8-21-0.12-0.41-0.57-0.59-1.5-0.55zm269 28c-1.1 0.62-2 2.1-3.7 5.5-1.7 3.4-5.1 9.3-7.5 13-2.1 3.2-3.1 5.1-3.4 6.3 1.7 1.6 3.4 3.1 5.1 4.7 1 1 2.1 2.1 3.1 3.1 2.1 1.4 4.1 2.7 4.3 2.5 2.8-3.1 17-27 17-29 0-0.29-1.8-1.3-4-2.2-0.84-0.34-1.5-0.68-2.1-1-2.5-0.81-5-1.6-7.5-2.3-0.27-0.076-0.52-0.16-0.76-0.26zm-250 13c-1.4-0.091-4.4 4.9-7.4 6-3.8 2.2-7 4.4-7 4.8-0.013 1.3 10 16 15 22 4 4.6 4.9 5.8 7.9 3.3 1.3-1.4 2.5-2.7 3.7-4.1 1.1-1.2 2.1-2.3 3.4-3.3 0.68-0.58 1.4-1.2 2.1-1.7l-4.5-5.3c-6.7-8-13-17-12-19-0.095-1.5-0.41-2.1-0.89-2.1zm224 26-4.8 4.9c-2.9 3-8 7.4-11 9.8-3.2 2.4-5.9 4.8-5.9 5.4-5.6e-4 0.014-0.058 0.048-0.06 0.062 0.077 0.086 0.15 0.17 0.23 0.26 3.3 3.7 6.9 7.2 10 11 3.5-0.45 8.7-4.9 19-15l2.8-2.7c-8e-3 -0.01-0.017-0.019-0.025-0.029-3.3-3.9-6.6-7.9-9.9-12-0.33-0.4-0.67-0.8-1-1.2zm-209 6.8c-0.18 0.19-0.38 0.36-0.56 0.55-0.4 0.45-0.8 0.9-1.2 1.4 5e-3 -4e-3 0.01-8e-3 0.016-0.012 0.59-0.62 1.2-1.3 1.7-1.9zm15 5.6c-0.77 2e-3 -3.3 2.2-6 5.4l-5.2 6.2 3.4 2.9c2.8 2.4 13 9.7 22 15 2.7 1.7 2.6 1.9 6.6-5.7 4.6-8.5 4.8-7.3-1.6-11-2.7-1.5-7.3-4.6-11-7.2-0.34-0.19-0.69-0.38-1-0.58-2.2-1.3-4.4-2.8-6.4-4.4-0.47-0.38-0.93-0.77-1.4-1.2zm17 9.9c0.16 0.1 0.26 0.16 0.42 0.26-0.092-0.067-0.18-0.13-0.28-0.2-0.048-0.019-0.096-0.038-0.14-0.057zm141 5.5c-9.4 4.4-21 9-27 11 0.35 0.93 0.7 1.9 1 2.8 1.5 4.3 3 8.6 4.6 13 3.1 0.95 8.8-1.5 22-7.7l8.7-4.1-3.6-6.4c-1-1.9-1.1-2.3-1.7-3.5-0.093-0.13-0.18-0.26-0.28-0.38-1.1-1.4-2.2-2.8-3.4-4.2zm-117 8.2c-1.2-0.48-2-0.011-2.6 1.7-0.5 1.3-1.9 4.7-3 7.7l-2.1 5.3 3.8 1.6c2.1 0.87 8.7 2.8 15 4.4 16 4.1 15 4.3 16-4.7 1.3-9 1.4-9-4.1-9.7-3.9-0.54-19-4.5-23-6.2zm71 7.1c-3.4 0.57-6.8 1.1-10 1.3-2.8 0.14-5.6 0.19-8.3 0.15-3e-3 -3e-5 -5e-3 4e-5 -8e-3 0-1.7 0.09-3.4 0.2-5.1 0.23-1.1 8e-3 -2.2 9e-3 -3.2-8e-3 -0.81 0.75-1.1 2.7-1.3 8.3l-0.32 8.4h17l6.5-0.68c4.3-0.46 6.7-0.76 8.4-1.2-0.079-0.21-0.15-0.43-0.21-0.67-0.52-2-0.27-0.98-0.74-3.1-0.69-3.5-1.1-7-1.6-10-0.13-0.78-0.27-1.5-0.41-2.3zm-345 413h6c5 0 6 0.28 6 1.8 0.0013 2.9 5.5 13 9.8 19 2.3 2.8 3.7 5.3 3.2 5.5-0.5 0.18-5.7 4.9-11 11-14 14-14 15-14-15zm642 0h11l-0.27 24c-0.17 15-0.64 24-1.3 24-1.7 0.29-23-22-22-23 4.4-5.8 9.2-14 11-19zm-315 27 30 15h21l-0.61 10h-31l-0.88-3c-6-20-35-21-40-0.99l-1.2 4.5h-30l-0.64-3.4c-1.3-7-1.2-7 12-7.6l11-0.5 15-7.3zm298 1.1 10 9.7c12 12 13 13 12 14-0.76 0.48-12 0.88-24 0.89l-23 0.016-0.14-2.2c-0.38-6-0.29-7.3 0.51-8.5 0.48-0.69 1.5-1.2 2.3-1.2 2.6 0 11-4.3 17-8.7zm-598 0.73c1.3 0.21 2.7 1.5 5.2 3.4 3 2.2 8.5 5.4 12 6.9l6.8 2.9 0.3 5.6 0.3 5.6-22-0.062c-31-0.09-30 0.42-15-14 7.9-7.8 10-10 12-10zm301 8.7c6.8 0.74 13 4.9 15 12l0.59 3h-17c-19 0-19-0.01-16-6.5 3.4-6.7 11-9.4 18-8.6zm-273 4.6h107c59 0 108 0.19 108 0.42 0.23 0.23 0.26 2.7 0.074 5.4l-0.34 5-8.2 0.32c-4.5 0.18-53 0.24-107 0.07l-99-0.26v-5.5zm326 0h216l-0.28 5.2-0.28 5.2-215 0.51v-5.5zm155 9.3c-0.37 0.37-0.067 0.67 0.67 0.67 0.73 0 1-0.3 0.67-0.67-0.37-0.37-0.97-0.37-1.3 0z"/>
 <g fill="#000000" font-family="Sans" stroke="#000000" stroke-linejoin="round">
  <text x="126.44301" y="204.92487" font-size="43px" xml:space="preserve"><tspan x="120" y="225">Defense - Projectile</tspan></text>
  <text x="124.98964" y="651.10883" font-size="36px" xml:space="preserve"><tspan x="124.98964" y="651.10883">Play as part of your Battle Plan.</tspan><tspan x="124.98964" y="691.10883"/><tspan x="124.98964" y="731.10883">Protects your leader from enemy</tspan><tspan x="124.98964" y="771.10883">projectile weapon in this battle.</tspan><tspan x="124.98964" y="811.10883"/><tspan x="124.98964" y="851.10883">You may keep this card if you win in</tspan><tspan x="124.98964" y="891.10883">this battle.</tspan></text>
 </g>
</svg>
