<?xml version="1.0" encoding="UTF-8"?>
<!-- Created with Inkscape (http://www.inkscape.org/) -->
<svg width="822" height="1122" version="1.1" viewBox="0 0 822 1122" xmlns="http://www.w3.org/2000/svg">
 <path d="m407.82 78.238-319.69 0.26172-3.1504 3c-1.7334 1.65-3.5879 3.8038-4.1211 4.7871-2.1066 3.8852-1.2735 937.31 0.83984 941 1.0226 1.7824 3.7937 4.2048 6.2129 5.4316l4.3652 2.2129 636.37-0.4277 3.582-2.4551c1.97-1.3498 4.2944-3.6613 5.166-5.1367 1.4402-2.438 1.584-45.414 1.582-471.28l-2e-3 -468.59-2.9824-3.3965c-1.6405-1.8684-4.2232-3.9094-5.7383-4.5332-2.0385-0.83931-85.861-1.0661-322.44-0.87305zm23.082 2.7617h14.885c17.236 0 15.812-0.54843 15.371 5.916l-0.34766 5.084h-19.766l-15.107 7.5c-18.019 8.946-14.411 8.9255-31.434 0.1875l-14-7.1875-23-1v-10l15.377-2e-3c12.822-0.0015 15.448 0.2477 15.803 1.5 3.1488 11.106 12.103 17.683 22.861 16.791 8.7392-0.72472 13.985-5.1386 17.881-15.039zm-306 0.0098c10.539 0.094237 10.104 1.2888 10.104 6.5097 0 3.3124-0.43428 5.4805-1.0977 5.4805-2.2574 0-17.711 8.1676-19.938 10.537-2.3036 2.452-4.4958 3.1708-5.1309 1.6816-0.18333-0.4299-5.1242-5.3638-10.979-10.965-13.637-13.047-14.017-12.648 12.422-13.08 6.3741-0.10421 11.106-0.19558 14.619-0.16406zm555.1 0.078091v10.885l-65.75 0.26367c-36.162 0.14524-84.494 0.14507-107.4 2e-3l-41.654-0.25981-0.34571-5.002c-0.44749-6.4729-12.654-5.8173 108.9-5.8555zm-541.5 0.41211h215l0.11914 5.25 0.11719 5.25-9.6172 0.01953c-5.2902 0.01111-29.194 0.12361-53.119 0.25-23.925 0.12639-67.86 0.11483-97.635-0.02734-60.434-0.28864-55.186 0.40458-54.965-7.2773zm545 0h22.701c14.288 0 23.085 0.38299 23.734 1.0332 0.70912 0.71026-2.4806 4.5207-10.203 12.191l-11.232 11.156-3-2.4922c-4.6159-3.8347-11.455-7.6803-16.986-9.5527l-5.0137-1.6973v-5.3203zm-274 0.5c9.625 0 17.5 0.24215 17.5 0.53906 0 3.5344-5.6051 10.259-10.701 12.84-7.6147 3.8559-18.558-0.24546-22.895-8.5801-2.4868-4.7796-2.4189-4.7988 16.096-4.7988zm-325.48 5.6035c0.95563-0.98558 8.9666 5.6666 18.43 15.303l5.9531 6.0606-2.582 2.7676c-3.7631 4.0316-7.8759 10.986-9.8965 16.738l-1.7656 5.0273-5.5801 0.30078c-4.0145 0.21573-5.6203-0.065-5.7207-1-0.54402-5.0683 0.46933-44.483 1.1621-45.197zm649.72 0.0293c2.0514 0.66271 1.8603 7.4098 2.0703 22.949l0.3164 23.418h-5.5078c-6.0643 0-5.8489 0.15601-7.6055-5.5-1.4764-4.7539-5.2562-11.626-9.1172-16.572l-2.7891-3.5723 11.41-11.379c5.2007-5.186 8.316-8.5638 10.199-9.2637 0.39233-0.1458 0.73038-0.17474 1.0234-0.08008zm-302.25 6.3672c-0.275 0-0.5 0.225-0.5 0.5s0.225 0.5 0.5 0.5 0.5-0.225 0.5-0.5-0.225-0.5-0.5-0.5zm207.53 18.99c13.232 0.12785 26.73 4.8072 38.164 14.998 32.975 29.39 20.861 85.244-21.461 98.957-38.121 12.352-77.588-18.488-75.434-58.945 1.7864-33.545 29.62-55.291 58.73-55.01zm-504.73 1.248c3.5374 0.36291 13.404 2.67 14.541 3.4004 0.19109 0.12271-0.48391 1.7174-1.5 3.543-1.0161 1.8256-1.9075 3.4525-1.9805 3.6172-0.073 0.16468-1.8224-0.84782-3.8887-2.25-4.2284-2.8695-10.879-3.4381-13.949-1.1934-3.2541 2.3794-1.2058 4.4235 5.1582 5.1445 17.98 2.0372 23.017 15.677 7.5059 20.324-6.4092 1.9202-15.907 0.44751-22.002-3.4121-0.16972-0.10747 0.4172-1.9328 1.3047-4.0547l1.6133-3.8574 1.6953 2.2188c3.5912 4.7023 16.844 5.2479 18.564 0.76367 0.87083-2.2693-1.777-3.4575-9.9805-4.4766-18.636-2.3149-15.776-21.685 2.918-19.768zm180.7 5.2617v7l-9.002-0.32031-9.002-0.32227v2.6914c0 2.6708 0.0455 2.6885 6 2.2578l6-0.43359v6.2539l-12-0.86718v6.4336l9.5-0.34766 9.502-0.3457-2e-3 3.25c-4.2e-4 1.7875-0.3375 3.158-0.75 3.0449-0.4125-0.11304-6.825-0.45054-14.25-0.75-7.4477-0.30037-12.94-0.90719-12.25-1.3535 1.5468-1.0011 1.7516-20.886 0.24414-23.703-0.95829-1.7906-0.36294-1.8939 12.502-2.1836zm5.4961 0.41016 10.5 0.15429c17.11 0.25012 25.324 8.8639 13.982 14.662-3.0192 1.5434-2.806 2.5616 1.668 8.0215l3.4844 4.252h-5.627c-3.4642 0-5.391-0.38161-5.0137-0.99219 1.3171-2.1311-5.4069-10.008-8.543-10.008-3.2356 0-4.4969 7.0559-1.752 9.8008 0.93333 0.93333 0.1 1.1982-3.75 1.1973h-4.9492v-13.545zm-167 0.0879 4.8574 2e-3c3.6857 5.4e-4 4.7303 0.32861 4.334 1.3613-0.44184 1.1514 11.843 14.639 13.334 14.639 0.81246-4e-5 0.49765-13.429-0.3457-14.75-0.59397-0.93008 0.30553-1.2495 3.5117-1.25l4.3086-2e-3v27h-4.7188c-3.5072 8.4e-4 -4.587-0.33921-4.209-1.3242 0.37376-0.97401-12.593-14.669-13.896-14.676-0.43238-2e-3 0.21204 13.267 0.70703 14.557 0.42935 1.1188-0.39668 1.4442-3.6641 1.4434h-4.2188v-13.5zm105 0 8.5 0.0254c14.782 0.0427 19 1.9512 19 8.5957 0 5.2653-3.6478 7.3809-12.727 7.3809h-7.459l0.34375 5.502 0.3418 5.5-8-4e-3v-13.5zm-20.197 0.00194c16.032 0 21.577 19.612 7.3692 26.062-12.758 5.7926-26.186-3.8094-22.637-16.186 1.855-6.4681 7.1252-9.877 15.268-9.877zm-33.139 0.043c4.7757 0.35712 9.3312 2.4043 11.82 6.4316 4.3218 6.9928 1.4154 16.08-6.2559 19.562-12.342 5.6028-23.854-2.0062-22.736-15.027 0.64042-7.4613 9.2124-11.562 17.172-10.967zm430.58 0.68359c-10.841 0.42633-21.923 4.463-31.773 13.08-31.265 27.35-17.537 79.446 23.391 88.762 25.059 5.7038 52.078-9.8256 59.629-34.273 11.62-37.62-18.724-68.847-51.246-67.568zm2.9805 3.6699c7.9778 0.3361 16.421 2.6186 25.096 6.877 31.184 15.307 28.483 67.152-4.3672 83.809-47.526 24.098-92.572-37.606-55.686-76.277 9.6539-10.121 21.661-14.968 34.957-14.408zm-435.49 0.60349c-6.6993 0-10.714 9.7303-6.0586 14.686 5.0635 5.3899 14.826 1.3797 14.826-6.0898 0-3.8818-4.8085-8.5957-8.7676-8.5957zm35.229 0.2832c-7.1074-0.49826-12.317 8.8611-6.4356 14.742 1.3079 1.3079 3.3251 1.9746 5.9746 1.9746 9.512 0 12.173-11.738 3.5957-15.861-1.066-0.51242-2.1194-0.78429-3.1348-0.85547zm33.789 0.91992c-6.1378-0.29237-6.25-0.25194-6.25 2.2969s0.11224 2.5892 6.25 2.2969c5.4841-0.26124 6.25-0.54197 6.25-2.2969s-0.76591-2.0356-6.25-2.2969zm62.5 2e-3c-6.6729-0.29267-6.75-0.26689-6.75 2.2949s0.0771 2.5872 6.75 2.2949c5.9848-0.26217 6.75-0.52165 6.75-2.2949s-0.76523-2.0328-6.75-2.2949zm-252.25 10.711 5.2676 0.29101 5.2676 0.29297-2e-3 327c-2.4e-4 179.85-0.0064 368.29-0.01563 418.75l-0.017526 91.75h-5c-4.0768 0-5.0093-0.32313-5.0488-1.75-0.02665-0.9625-0.13914-189.53-0.25-419.04zm642.5 0.08394h10.996l-0.0742 838h-10.922v-419zm-104.66 8.9961c-13.453 0.27141-11.498 2.2011-11.467 13.287 0.0529 18.959 9.9361 38.361 24.617 48.33 5.9855 4.0645 4.842 4.0266 10.551 0.36328 17.73-11.378 26.004-29.7 25.164-55.727l-0.20117-6.25h-29.432c-8.5504 0-14.748-0.0936-19.232-4e-3zm19.387 10.785c2.36 0.35114 4.838 5.5158 10.158 15.902 2.4936 4.8682-0.25246 12.316-5.4512 14.783-11.967 5.6786-20.857-5.4363-14.156-17.699 4.8485-8.8736 7.0892-13.337 9.4492-12.986zm-542.72 20.219h240c229.94 0 240 0.0742 240 1.7891 0 66.058 110.02 70.538 121.25 4.9375l1.1523-6.7266h22.602l-0.2539 401.8-0.25391 401.8-3.793 7.6758c-5.2545 10.632-13.782 19.131-24.645 24.568l-8.2949 4.1523h-244.57l-15.131-7.5c-8.3223-4.125-15.308-7.5-15.523-7.5s-7.3318 3.375-15.814 7.5l-15.424 7.502-243.8-0.022-8.3555-4.0762c-11.411-5.5686-19.554-13.735-25.08-25.152l-4.0801-8.4297-0.01172-327.91c-0.0064-180.35-0.0028-360.87 0.0078-401.16zm74.938 16.793c-3.1904 0.21068-7.9375 3.6732-7.9375 6.8418 0 0.75083-0.675 1.3652-1.5 1.3652s-1.5 0.68899-1.5 1.5312c0 0.84227 0.675 1.7908 1.5 2.1074 1.1462 0.43983 1.5 2.3197 1.5 7.9688 0 11.504 3.7721 11.184 4.207-0.35742 0.25391-6.7377 0.52155-7.7125 2.043-7.457 1.1917 0.20009 1.75-0.35822 1.75-1.75 0-1.3772-0.65237-2.043-2-2.043-1.1 0-2-0.41702-2-0.92773 0-1.5731 3.1021-4.1276 4.1934-3.4531 1.1605 0.71724 2.9434-1.5897 2.1816-2.8223-0.48435-0.78372-1.374-1.0741-2.4375-1.0039zm125.61 0.2207c-3.482 0.18643-3.5469 3.0463-3.5469 14.055v12.932h2.5762c2.4069 0 2.5561-0.27648 2.2734-4.1914l-0.30273-4.1894 4.957-1.2656c11.515-2.9376 10.653-14.929-1.2109-16.838-2.0441-0.3288-3.5855-0.56409-4.7461-0.50195zm40.055 0.42969c-0.43844 0.13895-0.90302 0.43037-1.3613 0.88867-1.2624 1.2624-1.3281 1.8585-0.33203 3.0586 1.5588 1.8783 4.0918 0.98689 4.0918-1.4394 0-1.9675-1.0831-2.9247-2.3984-2.5078zm-214.85 0.32617-3.75 0.44922v25.781h5.0488c9.4126 0 13.951-4.5123 13.951-13.873 0-8.474-6.1364-13.447-15.25-12.357zm0.25 4.2305h3.3457c6.7125 0 9.6808 10.15 4.5625 15.598-1.3508 1.4379-3.3913 2.4023-5.082 2.4023h-2.8262v-9zm179.07 0c3.5572 0 5.5292 3.0113 3.9297 6-2.2454 4.1955-7.6198 2.6968-7.1719-2 0.34765-3.6453 0.63602-4 3.2422-4zm67.9 2.2168c-2.2426-0.11878-4.5694 0.77827-6.5762 3.1113-3.2358 3.7619-3.3481 11.028-0.2207 14.357 3.2697 3.4804 10.904 3.3027 13.754-0.32032 5.7369-7.2932-0.22912-16.792-6.957-17.148zm-19.875 0.0547c-6.6521 0.37758-8.4903 7.4666-1.3789 11.23 4.9104 2.5989 5.0614 5.0611 0.29492 4.8242-3.3856-0.16827-5.4218 1.2004-4.3555 2.9258 0.28788 0.46575 2.8332 0.71142 5.6582 0.54688 8.5259-0.49659 9.8292-7.4529 2.0879-11.145-4.511-2.1512-4.6152-4.9278-0.16796-4.4805 4.377 0.44025 5.2363-2.6913 0.99414-3.623-1.1348-0.24923-2.1825-0.33324-3.1328-0.2793zm41.766 0.125c-0.72384 0.0813-1.4889 0.27122-2.291 0.57618-1.2954 0.49251-3.3039 0.6488-4.4629 0.3457-2.0352-0.5323-2.1074-0.2231-2.1074 9.0644 0 8.95 0.13865 9.6172 2 9.6172 1.8101 0 2-0.66671 2-7.0215 0-6.4967 0.18494-7.105 2.4707-8.1465 4.1122-1.8736 5.5293 0.25171 5.5293 8.291 0 6.6694 0.0757 6.877 2.5 6.877 2.4084 0 2.5-0.23667 2.5-6.4531 0-8.9032-3.0718-13.72-8.1387-13.15zm-240.36 0.11133c-1.0404-0.16777-2.0731-0.15314-3.0176 0.084-6.9134 1.7352-9.9362 12.052-4.9824 17.006 2.9779 2.9777 12.994 3.288 12.994 0.40234 0-1.0826-0.91744-1.428-3.2969-1.2402-3.8674 0.30515-7.2031-1.2205-7.2031-3.295 0-1.1369 1.462-1.4648 6.5312-1.4648 7.4239 0 8.5192-1.049 6.4102-6.1406-1.1196-2.7029-4.3142-4.8482-7.4356-5.3516zm169.65 0.0488c-7.8522 0.38308-12.613 10.982-6.127 17.469 2.7103 2.7103 9.8208 2.6985 12.74-0.0215 5.117-4.7672 3.2827-14.842-3.084-16.943-1.2242-0.40401-2.4076-0.55864-3.5293-0.50391zm-95.557 0.0312c-2.7726 0.40852-5.687 1.9248-6.2539 4.1836-0.65508 2.6101 0.22565 3.6912 6.7656 8.3008 3.1476 2.2185 1.6075 4.2845-2.6055 3.4941-3.1112-0.58366-5.435 1.1665-3.7656 2.8359 0.32877 0.32878 2.7626 0.59766 5.4082 0.59766 8.6794 0 10.473-7.114 2.7832-11.037-5.1278-2.616-5.3894-5.4614-0.42773-4.6562 2.9263 0.47487 3.5 0.26824 3.5-1.2539 0-2.1752-2.6317-2.8734-5.4043-2.4648zm18.648 0.0117c-7.8961 0-12.393 11.343-6.7383 16.998 3.2317 3.2317 12.72 3.2488 13.334 0.0234 0.31417-1.6511-0.0782-1.7996-3.2266-1.209-3.9728 0.74629-7.6133-0.66326-7.6133-2.9472 0-1.1348 1.4515-1.4648 6.4414-1.4648 7.121 0 8.0148-0.64286 7.0449-5.0586-0.81842-3.7262-4.6293-6.3418-9.2422-6.3418zm-60.074 0.0352c-2.8584 0.12962-5.6084 1.4466-7.0898 4.2148-1.9086 3.5663-1.3181 10.268 1.1348 12.879 2.6846 2.8576 13.285 3.0743 13.285 0.27148 0-1.092-0.92221-1.4252-3.3906-1.2266-3.3805 0.27242-8.1094-1.9424-8.1094-3.7968 0-0.54289 3.1101-0.97656 7-0.97656h7v-3.3262c0-5.1718-5.0661-8.2551-9.8301-8.0391zm24.705 0.24804c-1.3058 0.043-4.0625 0.12991-6.125 0.19531l-3.75 0.11915v9.4023c0 12.74 3.6945 14.721 4.207 2.2559 0.52556-12.781 7.0604-12.781 7.5859 0 0.28553 6.9438 0.36806 7.1445 2.8828 7.1445h2.5879l-0.48633-7.5762c-0.53672-8.3632-2.5232-11.685-6.9023-11.541zm127.62 0.11723c-2.8333 0-3.5 0.38095-3.5 2 0 1.1 0.45 2 1 2 0.57778 0 1 3.1667 1 7.5 0 7.3333 0.0556 7.5 2.5 7.5 2.491 0 2.5-0.0333 2.5-9.5v-9.5zm34.078 2.9727c0.82984 0.13032 1.6605 0.60888 2.3984 1.498 1.658 1.9978 1.715 7.9903 0.0957 9.9414-3.0419 3.663-7.4727 0.75171-7.4727-4.9121 0-4.177 2.489-6.9183 4.9785-6.5273zm-185.45 0.02734c2.1174 0 5.1006 2.8175 4.3203 4.0801-0.90793 1.4691-8.4492 1.1291-8.4492-0.38086 0-1.8313 2.0855-3.6992 4.1289-3.6992zm136.37 0c4.0459 0 6.1483 8.2071 2.9277 11.428-0.86428 0.86429-2.1813 1.5723-2.9277 1.5723-2.3926 0-4.5-3.0441-4.5-6.5s2.1074-6.5 4.5-6.5zm-169.78 0.18945c1.7892 0.26789 3.2832 1.5525 3.2832 3.5098 0 0.87407-1.4744 1.3008-4.5 1.3008-4.7602 0-5.495-0.86045-2.9277-3.4277 0.67614-0.67614 1.4776-1.0998 2.3008-1.2988 0.6174-0.1493 1.2473-0.17321 1.8438-0.084zm93.881 0.18164c1.8176 0.2608 3.4023 1.4269 3.4023 3.1426 0 1.0728-1.1549 1.3936-4.5 1.248-4.8588-0.21146-5.3595-0.7577-2.9277-3.1894 0.60448-0.60448 1.3699-0.97694 2.1797-1.1465 0.60733-0.12716 1.2398-0.14155 1.8457-0.0547zm28.031 2.6289c-4.6978 0-6.21 1.0428-5.2266 3.6055 1.0056 2.6205 9.017 1.4675 9.418-1.3555 0.29086-2.048-0.0858-2.25-4.1914-2.25zm-38.705 39.066c-126.66 0.0223-115.79 0.81931-120.14 4.7402-7.4734 6.7436-6.9157-7.0484-6.875 169.94l0.0371 159.52 2.1113 4.3613c2.2815 4.7129 6.1113 7.9508 11.824 9.998 2.9329 1.051 57.685 1.2561 290.19 1.0859l286.58-0.20898 4.8438-3c3.188-1.9745 5.6438-4.512 7.1816-7.4238l2.3359-4.4238-0.25781-161.08-0.25977-161.08-2.3203-3.252c-1.2758-1.7888-3.9406-4.4888-5.9219-6l-3.6016-2.748c-155.24-0.0563-310.49-0.43051-465.73-0.43359zm-95.938 1.6211c4.7614-0.15931 10.313-0.10333 16.781 4e-3 7.3923 0.1212 15.984 0.30859 25.965 0.30859 0 0 64.117-9e-5 142.77-9e-5h172.09c46.427 0 142.79 6e-3 142.79 6e-3 80.083 8e-3 71.03-11.69 71.398 92.244 0.41909 52.707 0.17759 105.41-0.0234 158.12 0.30207 90.566 0.42316 89.712-13.279 93.516-6.258 1.7374-218.99 1.0841-343.89 1.0605-244.55-0.0461-231.56 0.23431-237.28-5.1094-5.5423-5.1772-5.3106-1.3628-5.3106-87.287v-160.16c0-79.846-5.3438-91.582 27.986-92.697zm459.67 69.312c-3.0443 0-3.0444 2e-3 1.5195 2.8965 9.5746 6.072 18.988 24.37 19.211 37.346 0.12499 7.2819 0.64737 8.1785 2.4551 4.2109 5.7711-12.666-10.808-44.453-23.186-44.453zm-11.244 5.3203c-2.542 0.41912-4.4102 1.7701-4.4102 3.8574 0 0.58835 0.75574 0.73092 1.75 0.33008 3.5585-1.4346 9.0266-1.6976 11.191-0.53906 3.6406 1.9484 3.5736 0.31631-0.0781-1.9102-2.6949-1.643-5.9112-2.1574-8.4531-1.7383zm2.6777 7.625-17.033 8.5274-17.031 8.5273 5.252 7.3203c3.2677 4.5542 6.3306 10.412 8.1016 15.5 1.5659 4.4983 3.1334 8.154 3.4844 8.123s8.2887-4.2243 17.639-9.3203l17-9.2656 0.3125-4.8711c0.5921-9.224-5.2488-19.021-13.52-22.68zm19.412 8.0547c-0.275 0-0.5 0.225-0.5 0.5s0.225 0.5 0.5 0.5 0.5-0.225 0.5-0.5-0.225-0.5-0.5-0.5zm0.91992 2.248c-0.24235 0.24236 0.2058 2.2718 0.9961 4.5117 3.8096 10.798 2.4088 17.821-4.2539 21.326-1.8361 0.96605-3.6361 2.0775-4 2.4688-0.36392 0.39126 1.5304 0.47579 4.2109 0.1875 5.7763-0.62123 6.3226-1.3264 7.1387-9.2109 0.57835-5.5876-2.6365-20.738-4.0918-19.283zm-67.801 4.752c-2.8191 0-2.6829 0.22593 4.082 6.75 9.9948 9.6389 15.477 20.811 16.107 32.826 0.48626 9.2644 1.7677 10.546 3.9609 3.9609 4.4073-13.233-12.402-43.537-24.15-43.537zm-5.584 7.9961c-1.0576 0.11793-0.63728 1.7368 2.168 4.7559 9.5481 10.276 14.682 20.789 15.084 30.885 0.11707 2.941 0.60616 5.3505 1.0859 5.3555 5.5461 0.0538-3.6892-29.094-11.643-36.746-3.1035-2.9859-5.6377-4.3679-6.6953-4.25zm-10.822 1.0039c-4.6542 0-73.294 33.028-191.86 92.32l-55.143 27.576 3.6426 3.9551c8.1078 8.7986 19.75 31.777 22.262 43.939l1.2559 6.0781 9.0644-4.8379c4.9849-2.6605 46.862-24.514 93.062-48.562 133.98-69.74 139.33-72.56 140.55-74.027 7.3156-8.8148-11.186-46.441-22.836-46.441zm1.2559 26.061c4.6566-0.17595 5.7591 2.7949 7.9492 7.4102 4.6558 9.8113 5.1589 9.4243-49.418 38.023-23.925 12.537-53.656 28.13-66.068 34.65-28.98 15.224-35.018 15.392-38.871 1.082-2.6832-9.9648-6.4341-7.5105 72.027-47.113 48.989-24.727 66.62-33.759 74.381-34.053zm-1.625 5.4355c-6.6089 0.70975-23.59 9.1759-69.674 32.035-76.074 37.735-74.384 36.579-67.613 46.246 3.7389 5.338-3.0036 8.4579 112.44-52.025 31.006-16.245 30.295-15.751 29.588-20.592-0.54415-3.7245-0.77491-6.0899-4.7402-5.6641zm-171.08 81.053c9.7712 0.10337 15.485 12.046 7.334 19.855-3.1121 2.9816-9.0608 4.2293-12.711 2.666-8.8095-3.7729-8.1432-18.732 0.97071-21.795 1.5329-0.51512 3.0104-0.74133 4.4062-0.72656zm-1.3184 4.6016c-1.2233 0.2286-2.4232 0.82558-3.4473 1.8496-2.4453 2.4453-2.6228 7.6557-0.3457 10.172 3.8251 4.2267 11.346 0.38947 11.346-5.7891 0-4.296-3.883-6.9184-7.5527-6.2324zm-80.109 9.2051c-0.91048-0.22558-1.7484-0.16004-2.4922 0.22461l-2.8438 1.4707 5.5234 7.2246c7.0075 9.1668 14.974 25.102 17.23 34.467 1.9298 8.0104 1.8671 7.9544 6.0312 5.5644l2.9512-1.6934-3.252-9.6523c-6.8035-20.202-16.775-36.026-23.148-37.605zm-11.504 2.3203-26.072 26.072 8.3691 16.127c7.7946 15.021 8.5407 16.099 10.869 15.686 1.375-0.24437 9.25-1.2099 17.5-2.1445 8.25-0.93466 15.366-2.0243 15.814-2.4219 1.9917-1.7674-10.953-29.434-21.012-44.906zm60.379 0.39844c6.1109-0.6715 12.79 3.3071 12.783 10.576-5e-3 4.6965-3.0979 10.058-6.5625 11.375-10.747 4.0861-19.458-4.8512-15.039-15.428 1.6902-4.0452 5.1518-6.1205 8.8184-6.5234zm1.1055 4.4746c-1.3457 0.14301-2.6689 0.71187-3.7676 1.8106-4.0555 4.0555-3.3497 9.6698 1.4394 11.441 4.3902 1.624 8.2153-0.73717 9.4942-5.8633 1.1015-4.4156-3.1288-7.8177-7.166-7.3887zm-86.713 33.611c-0.29138 0.12745-0.6194 0.43636-1.082 0.82031-2.0257 1.6812-1.9459 7.8966 0.13086 10.191 0.97767 1.0803 3.0311 1.8281 5.0156 1.8281h3.3594l-3.1328-6.25c-2.87-5.7255-3.4169-6.9722-4.291-6.5898zm94.594 100.08c-2.027 0.3632-4.2623 2.5802-4.7559 5.2109-0.36579 1.9499-1.2648 3.5449-1.9961 3.5449-2.3112 0-2.7428 2.1099-0.54883 2.6836 1.8775 0.49098 2.1016 1.2813 2.1016 7.4336 0 5.4519 0.31194 6.8828 1.5 6.8828 1.189 0 1.5-1.436 1.5-6.9297 0-6.4258 0.16384-6.9537 2.25-7.25 2.7738-0.39394 2.5897-2.2026-0.26953-2.6484-3.0407-0.4742-2.3897-5.5435 0.76953-5.9922 2.3074-0.32771 2.9639-1.6196 1.334-2.627-0.55701-0.34425-1.2091-0.42966-1.8848-0.30859zm-189.7 0.75586c-1.2533 0-1.5 2.0556-1.5 12.5s0.24667 12.5 1.5 12.5 1.5-2.0556 1.5-12.5-0.24667-12.5-1.5-12.5zm347.39 0c-1.5104 0-1.9351 0.44808-1.5 1.582 0.33385 0.86998 0.60742 6.495 0.60742 12.5 0 9.0384 0.25826 10.918 1.5 10.918 1.2533 0 1.5-2.0556 1.5-12.5 0-12.045-0.0771-12.5-2.1074-12.5zm54.607 0c-1.2533 0-1.5 2.0556-1.5 12.5s0.24667 12.5 1.5 12.5 1.5-2.0556 1.5-12.5-0.24667-12.5-1.5-12.5zm-422.37 2-0.0137 11.564c-0.0125 10.35 0.16457 11.527 1.6856 11.229 1.2961-0.25416 1.6992-1.3944 1.6992-4.8047v-4.4707l4.4102-0.59766c12.019-1.6281 10.406-12.92-1.8457-12.92zm301.97 0-0.0195 11.617-0.0176 11.619 5.9336-0.42969c6.5856-0.47637 10.008-2.657 10.008-6.3789 0-3.3409-1.0242-5.4277-2.6641-5.4277-1.2342 0-1.2179-0.33056 0.10742-2.2227 3.7584-5.3658 0.85629-8.7773-7.4668-8.7773zm100 0-0.0195 11.568c-0.0167 10.412 0.15412 11.534 1.7031 11.23 1.321-0.259 1.7207-1.3782 1.7207-4.8106v-4.4707l4.4102-0.59766c12.031-1.6298 10.403-12.92-1.8633-12.92zm-236.6 1c-0.93333 0-1.5 0.94444-1.5 2.5s-0.56667 2.5-1.5 2.5c-0.825 0-1.5 0.675-1.5 1.5s0.675 1.5 1.5 1.5c1.1359 0 1.5 1.2302 1.5 5.0664 0 2.7862 0.46581 5.9362 1.0352 7 0.66611 1.2446 2.0922 1.9336 4 1.9336 3.6097 0 3.9079-1.546 0.46484-2.4102-2.2863-0.57382-2.5-1.097-2.5-6.1094 0-5.1797 0.13742-5.4805 2.5-5.4805 1.5556 0 2.5-0.56667 2.5-1.5s-0.94444-1.5-2.5-1.5c-2 0-2.5-0.5-2.5-2.5 0-1.5556-0.56667-2.5-1.5-2.5zm190.27 0.24805c-0.646 0.0943-1.3524 0.97932-1.5879 2.5801-0.17575 1.1944-0.96325 2.1719-1.75 2.1719s-1.4297 0.675-1.4297 1.5 0.675 1.5 1.5 1.5c1.1359 0 1.5 1.2302 1.5 5.0664 0 2.7862 0.46581 5.9362 1.0352 7 0.66611 1.2446 2.0922 1.9336 4 1.9336 3.5223 0 3.8463-1.1398 0.71484-2.5137-3.6665-1.6086-3.9269-11.486-0.30273-11.486 1.602 0 2.5527-0.55848 2.5527-1.5 0-0.93333-0.94444-1.5-2.5-1.5-2.0215 0-2.5-0.49509-2.5-2.584 0-1.5664-0.58642-2.2623-1.2324-2.168zm-12.984 2e-3c-0.64425 0.0374-1.3601 0.82328-1.6445 2.332-0.19881 1.0544-0.98631 2.277-1.75 2.7168-1.8407 1.0597-1.7732 2.7011 0.11133 2.7011 1.1359 0 1.5 1.2302 1.5 5.0664 0 2.7862 0.46581 5.9362 1.0352 7 0.66611 1.2446 2.0922 1.9336 4 1.9336 3.5223 0 3.8463-1.1398 0.71484-2.5137-3.6665-1.6086-3.9269-11.486-0.30273-11.486 1.602 0 2.5527-0.55848 2.5527-1.5 0-0.93333-0.94444-1.5-2.5-1.5-2.0215 0-2.5-0.49509-2.5-2.584 0-1.4922-0.57255-2.2034-1.2168-2.166zm-336.36 0.74995c5.5549 0 8.3202 4.1076 5 7.4277-3.6871 3.6871-8.4277 2.0405-8.4277-2.9277 0-4.4583 0.0309-4.5 3.4277-4.5zm401.92 0c5.3476 0 8.257 4.2528 5.082 7.4277-3.6871 3.6871-8.4277 2.0405-8.4277-2.9277 0-4.4365 0.0479-4.5 3.3457-4.5zm-99.697 0.18945c4.4023 0.37447 6.5914 3.015 4.334 5.2266-4.0955 4.0124-7.9824 2.969-7.9824-2.1426 0-3.2949 0.10594-3.3853 3.6484-3.084zm-235.81 1.7774c-1.1062 0.18218-1.8398 1.1085-1.8398 3.0332 0 0.55 1.7443 1 3.877 1 3.9362 0 6.8394 2.0332 5.6504 3.957-0.35481 0.57409-1.8681 1.043-3.3633 1.043-5.5436 0-9.2798 5.4839-5.9824 8.7812 0.67009 0.67009 3.6018 1.1147 6.7734 1.0273l5.5898-0.15429-0.38281-7.0762c-0.326-6.004-7.0037-12.158-10.322-11.611zm309.02 1.1699c-1.5552 0.0757-3.1518 1.0034-4.9356 2.7871-3.8203 3.8203-4.0156 9.0743-0.46875 12.621 2.7365 2.7365 11.547 3.6566 11.541 1.2051-2e-3 -0.78844-1.5229-1.2693-4.1191-1.3027-2.8372-0.0365-4.5444-0.63987-5.4961-1.9414-2.1147-2.8921-1.7024-3.5047 2.3691-3.5195 8.4936-0.0309 10.582-2.7446 5.7949-7.5312-1.6181-1.6181-3.1304-2.3941-4.6855-2.3184zm-133.6 0.25781c-0.7501 0.0959-1.5209 0.3012-2.3027 0.625-7.3645 3.0505-7.7497 14.051-0.5957 17.01 5.0674 2.0959 10.333-1.3455 11.314-7.3945 1.0165-6.2638-3.1653-10.912-8.416-10.24zm-57.67 0.0117c-8.3973 1.6085-10.682 13.915-3.1856 17.158 3.6976 1.5999 6.2645 1.0376 9.4863-2.0762 5.7075-5.5162 1.1173-16.503-6.3008-15.082zm-70.672 0.53516c-1.8776 0.13999-4.5839 0.23408-6.0137 0.20898l-2.5996-0.0469 0.0996 12.447c0.074 9.238 0.42192 12.449 1.3496 12.449 0.79173 2.4e-4 1.25-1.4665 1.25-4v-4h4.4277c5.4909 0 8.5723-3.2433 8.5723-9.0234 0-5.2744-2.7214-8.3606-7.0859-8.0352zm104.59 0c-0.40925-0.10023-0.79956 0.0222-1.1602 0.38281-0.31446 0.31446 0.86472 4.0232 2.6211 8.2422 3.4293 8.2377 3.4397 11.853 0.0352 12.934-1.0987 0.34872-1.998 1.2804-1.998 2.0684 0 4.452 5.4911-0.8866 7.7852-7.5684 1.0386-3.025 2.8681-7.8967 4.0664-10.826 1.9673-4.8095 2.0132-5.2935 0.45899-4.9941-1.0972 0.2113-2.2813 2.2106-3.2656 5.5156-2.1437 7.1979-2.6359 7.2796-4.6855 0.77735-1.2362-3.9218-2.6297-6.2306-3.8574-6.5312zm-67.209 0.0547c-1.4981-0.0115-3.2768 0.38621-4.0938 1.2031-0.93333 0.93333-1.1992 0.93333-1.1992 0 0-0.66-0.72357-1.1992-1.6074-1.1992-1.0545 0-1.3983 0.54404-1 1.582 0.33385 0.86998 0.60742 4.695 0.60742 8.5 0 5.4828 0.31121 6.918 1.5 6.918 1.1786 0 1.5-1.385 1.5-6.4648 0-6.5336 1.568-9.0938 5.084-8.2988 0.64103 0.14492 1.3729-0.29883 1.625-0.98633 0.30099-0.82088-0.91791-1.2424-2.416-1.2539zm131 2e-3c-1.5011-0.0115-3.2763 0.3857-4.0918 1.2012-0.93333 0.93333-1.1992 0.93333-1.1992 0 0-0.66-0.59778-1.1992-1.3281-1.1992-1.214 0-1.3506 3.3654-0.6875 16.834 0.17685 3.5924 2.5364-1.9632 2.5957-6.1113 0.0879-6.1517 1.6445-8.9516 4.7305-8.5098 1.1022 0.1578 2.1952-0.27539 2.4297-0.96289 0.2795-0.81957-0.94811-1.2405-2.4492-1.252zm-254.83 0.00191c-3.0056 0-5.4648 0.45-5.4648 1s1.6875 1.0072 3.75 1.0156c2.0625 8e-3 4.3788 0.41237 5.1465 0.89844 2.3138 1.4651 0.47578 4.0859-2.8652 4.0859-5.0831 0-8.1214 4.0938-5.9922 8.0723 0.87635 1.6375 1.9667 1.8995 6.998 1.6836l5.9629-0.25586v-6.3164c6e-4 -9.0142-0.8655-10.184-7.5352-10.184zm12.531 0c-1.6578 0-1.4989 0.79534 1.5801 7.9004 4.09 9.438 4.1573 10.378 0.92383 12.922-1.375 1.0816-2.5 2.4639-2.5 3.0723 0 3.2926 5.6656-1.0967 6.5371-5.0644 0.38272-1.7425 1.9943-6.2187 3.5801-9.9453 3.2089-7.5407 3.4557-8.8848 1.6328-8.8828-0.6875 7.6e-4 -2.0617 2.7658-3.0547 6.1445-2.0097 6.8385-2.6809 6.7213-5.1523-0.89648-1.2389-3.8186-2.2061-5.25-3.5469-5.25zm91.469 0c-3.0056 0-5.4648 0.45-5.4648 1s1.7443 1 3.877 1c3.9362 0 6.8394 2.0332 5.6504 3.957-0.35481 0.57409-1.9684 1.043-3.5859 1.043-5.0884 0-8.8327 5.7083-5.7598 8.7812 0.68079 0.68079 3.6468 1.1139 7 1.0215l5.8184-0.16015v-6.3867c0-9.0892-0.85672-10.256-7.5352-10.256zm125.04 0c-1.9138 0-2.1788 13.921-0.30078 15.799 0.72225 0.72225 3.5049 1.0991 7 0.94922l5.8008-0.24805v-8.25c3.4e-4 -6.6668-0.28785-8.25-1.5-8.25-1.1901 0-1.5 1.4418-1.5 6.9805 0 6.622-0.1299 7.013-2.5137 7.6113-4.1109 1.0318-5.4863-1.0283-5.4863-8.2148 0-5.0023-0.32347-6.377-1.5-6.377zm171.96 0c-3.0056 0-5.4648 0.45-5.4648 1s1.6875 1.0072 3.75 1.0156c2.0625 8e-3 4.3788 0.41237 5.1465 0.89844 2.3138 1.4651 0.47578 4.0859-2.8652 4.0859-5.0831 0-8.1214 4.0938-5.9922 8.0723 0.87635 1.6375 1.9667 1.8995 6.998 1.6836l5.9629-0.25586v-6.3164c6e-4 -9.0142-0.8655-10.184-7.5352-10.184zm-339.94 0.01c-2.3232 0.11326-4.8192 0.63739-5.5156 1.4766-1.983 2.3893-0.38376 5.8515 3.7051 8.0156 5.2241 2.765 5.0147 4.998-0.46875 4.998-2.7351 0-4.2508 0.44582-4.25 1.25 3e-3 2.4751 8.7594 1.55 10.502-1.1094 2.029-3.0966 1.2053-4.9173-3.2949-7.2871-5.3706-2.8303-5.5027-5.3538-0.2793-5.3538 2.2403 0 4.0742-0.45 4.0742-1 0-0.80521-2.1495-1.1035-4.4727-0.99023zm232.83 0.0156c-2.7694-0.04883-5.3574 0.26419-5.3574 0.9744 0 0.55 1.6875 1.0072 3.75 1.0156 2.0625 8e-3 4.3788 0.41237 5.1465 0.89844 2.3138 1.4651 0.47578 4.0859-2.8652 4.0859-5.0831 0-8.1214 4.0938-5.9922 8.0723 0.87635 1.6375 1.9667 1.8995 6.998 1.6836l5.9629-0.25586v-7.0508c2.5e-4 -4.1505-0.49274-7.5435-1.1992-8.25-0.72245-0.72246-3.674-1.1269-6.4434-1.1738zm125.87 0.14063-6.7266 0.12109 0.32422 8.3574c0.41415 10.697 3.1758 12.485 3.1758 2.0545 0-6.6817 1.0439-8.6992 4.5-8.6992s4.5 2.0175 4.5 8.6992c0 4.9333 0.3254 6.3008 1.5 6.3008 1.181 0 1.5-1.3969 1.5-6.5664 0-9.6468-0.65685-10.414-8.7734-10.268zm-72.006 1.5312c1.8729-0.66679 5.0884 1.8776 4.5215 3.5781-0.57541 1.7262-8.7422 2.0985-8.7422 0.39844 0-1.5643 1.5504-3.0258 4.2207-3.9766zm-133.2 0.19726c0.81021-0.16449 1.6041-0.0658 2.2774 0.37891 3.3253 2.1969 4.4567 6.2911 2.6387 9.5449-3.0128 5.392-9.9356 2.8935-9.9356-3.5859 0-2.9834 2.5889-5.8444 5.0195-6.3379zm-57.375 0.13672c1.5569-0.14722 3.2055 0.21723 4.1562 1.168 1.5543 1.5543 1.5543 9.0472 0 10.602-4.7702 4.7702-11.216-3.4201-7.7656-9.8672 0.58662-1.0961 2.0525-1.7551 3.6094-1.9023zm-72.768 0.0703c5.096-0.26449 8.1486 5.5614 4.5664 10.676-1.849 2.6399-6.91 3.0536-7.8359 0.64063-1.2711-3.3123-0.65138-10.187 0.97461-10.811 0.79805-0.30624 1.5669-0.46807 2.2949-0.50586zm190.92 3.8982c5.5298 0 9.0778 5.6809 4.6172 7.3926-5.269 2.0219-8.418 0.75304-8.418-3.3926 0-3.9649 0.0341-4 3.8008-4zm-231.22 2.8438c1.778 0.20787 3.4238 1.1156 3.4238 2.5488 0 1.3162-0.71204 2.6662-1.582 3-4.324 1.6593-7.4229-0.33216-6.0566-3.8926 0.52637-1.3717 2.4368-1.8641 4.2148-1.6562zm-42.275 0.0742c1.482 0.19205 2.6992 1.0581 2.6992 2.4746 0 1.3162-0.71204 2.6662-1.582 3-4.5216 1.7351-8.0031-0.77956-5.4082-3.9062 1.0614-1.279 2.809-1.7604 4.291-1.5684zm104 0c1.482 0.19205 2.6992 1.0581 2.6992 2.4746 0 1.3162-0.71204 2.6662-1.582 3-4.5216 1.7351-8.0031-0.77761-5.4082-3.9043 1.0614-1.279 2.809-1.7624 4.291-1.5703zm297 0c1.482 0.19205 2.6992 1.0581 2.6992 2.4746 0 1.3162-0.71204 2.6662-1.582 3-4.5216 1.7351-8.0031-0.77956-5.4082-3.9062 1.0614-1.279 2.809-1.7604 4.291-1.5684zm-106.98 2e-3c1.4678 0.21709 2.6797 1.0877 2.6797 2.4727 0 1.3162-0.71204 2.6662-1.582 3-4.34 1.6654-7.8356-0.97943-5.3125-4.0195 1.0237-1.2335 2.7471-1.6702 4.2148-1.4531zm139.59 3.4043c-1.3686 0.11815-2.816 1.7577-2.2441 3.248 0.30115 0.78479 1.1892 1.4277 1.9726 1.4277 1.8831 0 2.918-2.8438 1.5371-4.2246-0.36096-0.36096-0.80943-0.49055-1.2656-0.45117zm-252.29 39.676c-2.3777 0-2.3827 0.0243-2.4766 12.5l-0.0937 12.5h4.9531v-25zm110.94 0c-2.6612 0-5.5566 3.2916-5.5566 6.3164 0 1.0301-0.89893 2.1066-2 2.3945-1.1 0.28766-2 0.9204-2 1.4062s0.9 0.88281 2 0.88281c1.8095 0 2 0.66667 2 7 0 5.5556 0.30952 7 1.5 7s1.5-1.4444 1.5-7c0-6.2624 0.20496-7 1.9414-7 1.0675 0 2.2187-0.45 2.5586-1 0.35201-0.56956-0.51031-1-2.0039-1-3.6197 0-3.3851-6.3035 0.25391-6.8203 3.0307-0.43043 2.8755-2.1797-0.19336-2.1797zm-54.865 0.1875c-1.882 0.26784-2.145 0.84259-1.8633 4.0625 0.32417 3.7038 0.2841 3.75-3.2949 3.75-8.0074 0-12.034 11.1-5.8047 16 1.9056 1.499 3.4879 1.9591 5.25 1.5234 1.3872-0.34296 3.8715-0.59344 5.5215-0.55664l3 0.0664-0.30859-12.578c-0.30113-12.296-0.35732-12.573-2.5-12.268zm-267.8 1.998-4.3887 0.31445-0.23438 11.25c-0.22373 10.743-0.14286 11.25 1.8106 11.25 1.8577 0 1.9839-0.41333 1.3711-4.5-0.64973-4.3327-0.57869-4.5 1.875-4.5 3.9525 0 7.4142-1.6664 9.2363-4.4473 3.6102-5.5099-1.0112-9.9873-9.6699-9.3672zm50.559 1.4316c-0.74814 0.18819-1.4473 1.2403-1.4473 2.9902 0 1.4604-0.58455 2.3926-1.5 2.3926-0.825 0-1.5 0.45-1.5 1s0.675 1 1.5 1c1.1651 0 1.5 1.3271 1.5 5.9434 0 5.0288 0.34622 6.187 2.25 7.5234 2.4775 1.7392 4.8695 1.6768 5.4746-0.14063 0.21477-0.64509-0.64682-1.3201-1.916-1.5-3.7617-0.53321-4.105-11.826-0.35937-11.826 3.1482 0 3.3887-1.7411 0.30078-2.1797-1.5978-0.22692-2.3396-1.1017-2.5606-3.0156-0.19631-1.7005-0.99404-2.3757-1.7422-2.1875zm48.053 0.38281c-0.825 0-1.5 0.8785-1.5 1.9512s-0.7875 2.4227-1.75 3c-1.6667 0.9997-1.6667 1.098 0 2.0977 1.304 0.78215 1.7542 2.3751 1.7656 6.25 0.0163 5.5322 0.58372 7.0521 2.9844 7.9844 2.1909 0.85082 4.2737 0.39741 4.75-1.0332 0.23857-0.71652-0.4209-1.25-1.5449-1.25-5.1454 0-6.053-11.23-0.95508-11.816 3.4359-0.39535 3.6407-2.1836 0.25-2.1836-2 0-2.5-0.5-2.5-2.5 0-1.5556-0.56667-2.5-1.5-2.5zm-97.691 0.17383c4.9916-0.70755 9.2371 4.8826 5.8457 7.6973-2.4289 2.0158-7.5572 2.5442-8.209 0.84571-1.335-3.479-0.0275-8.2041 2.3633-8.543zm181.76 3.125c-0.74411-0.28751-1.5457 2.2822-1.7754 7.9512l-0.29297 7.25-3.2578 0.31445c-3.8204 0.36818-4.1058-0.15996-4.4727-8.2324-0.41697-9.1758-2.7732-8.6763-2.7539 0.58399 0.0159 7.6128 0.45927 9.1201 2.9844 10.139 0.825 0.33282 2.625 0.37649 4 0.0957 1.375-0.28078 3.5125-0.4911 4.75-0.4668 2.1601 0.0424 2.25-0.29569 2.25-8.4453 0-5.7577-0.68753-8.9019-1.4316-9.1894zm315.91 0.15234c-0.95765-0.19203-3.0049 2.7797-4.0625 6.5488-2.0747 7.3942-2.52 7.4301-4.9121 0.39258-1.7026-5.009-3.7382-7.4942-5.0586-6.1738-0.25596 0.25596 0.88829 3.7471 2.543 7.7598 3.6864 8.9395 3.7801 11.469 0.50781 13.613-1.375 0.90093-2.5 2.0668-2.5 2.5918 0 1.9473 4.4762 0.22892 5.6875-2.1836 1.7251-3.4358 8.3125-20.247 8.3125-21.215 0-0.85497-0.19836-1.27-0.51758-1.334zm-411.09 0.4336c-1.9863 0.31856-4.339 1.4495-5.8047 3.1914-4.3861 5.2126-2.7685 11.958 3.4102 14.217 2.1145 0.77294 3.5917 0.80049 5.418 0.0996 2.6679-1.0237 1.7581-2.3926-1.5898-2.3926-4.238 0-6.8281-2.517-6.8281-6.6328 0-3.8987 3.6013-6.9461 6.9512-5.8828 1.4704 0.46667 2.0488 0.20878 2.0488-0.91602 0-1.5068-1.6191-2.0022-3.6055-1.6836zm355.87 0.0449c-2.2782 0.30126-4.5056 1.6343-5.8027 4.1426-2.7128 5.2459-0.99061 10.964 3.8945 12.936 2.595 1.0472 5.9203 1.206 8.0606 0.38477 2.912-1.1173 1.6232-2.3926-2.418-2.3926-2.6667 0-4.6667-0.66667-6-2-3.2012-3.2012-2.4024-4 4-4 5.8359 0 6-0.0737 6-2.6719 0-4.5409-3.9373-6.9005-7.7344-6.3984zm-95.105 0.0137c-4.1462 0.5088-8.1602 4.0321-8.1602 8.9434 0 3.1397 2.0131 6.8054 4.3633 7.9434 8.522 4.1264 16.522-6.6221 10.564-14.195-1.7435-2.2165-4.2798-2.9967-6.7676-2.6914zm-216.29 0.0117c-0.98018-6e-3 -0.29198 3.2195 2.0293 9.0938 3.3441 8.4626 3.3501 11.213 0.0332 12.988-1.0628 0.56876-1.9316 1.4674-1.9316 1.998 0 4.1228 5.5961-0.82091 7.0527-6.2305 0.60794-2.2577 2.1938-6.5672 3.5254-9.5781 2.6779-6.0552 3.0584-8.6054 1.1895-7.9824-0.67791 0.22597-2.0354 3.046-3.0156 6.2656-2.3 7.5546-2.2505 7.5386-4.2676 1.3047-0.94584-2.9231-2.331-5.9636-3.0781-6.7559-0.69884-0.74108-1.2104-1.1016-1.5371-1.1035zm-63.635 2e-3c-3.4768 0.12052-7.1414 2.5812-7.8926 7.2734-0.68179 4.2584 1.3836 8.3164 4.9668 9.7598 2.6408 1.0637 5.9574 1.2281 8.1094 0.40235 2.9574-1.1352 1.5956-2.3926-2.5898-2.3926-4.2612 0-7.8281-2.1206-7.8281-4.6543 0-0.97723 1.6406-1.3457 6-1.3457 5.577 0 6-0.16041 6-2.2773 0-4.6662-3.2889-6.8862-6.7656-6.7656zm-52.818 2e-3c-0.95082-0.11184-1.416 2.7181-1.416 8.5409 0 6.8889 0.28431 8.5 1.5 8.5 1.1632 0 1.5-1.3191 1.5-5.877 0-6.27 0.86681-7.7056 5-8.2774 1.375-0.1902 2.5-0.7957 2.5-1.3457 0-1.4572-4.3802-1.8441-5.9668-0.52734-0.9335 0.77477-1.5578 0.79781-2.0039 0.0762-0.42534-0.68822-0.79634-1.0528-1.1133-1.0898zm286.44 0.0273c-1.1985-0.16531-2.6501 0.20673-3.6562 1.2129-0.93333 0.93328-1.1992 0.91939-1.1992-0.0684 0-0.74459-0.93038-1.1386-2.25-0.95117-1.2375 0.17575-2.1375 0.65781-2 1.0703s0.25 4.125 0.25 8.25c0 7.3605 0.0479 7.5 2.5352 7.5 2.4626 0 2.5147-0.14226 1.8711-4.9941-0.75507-5.692 0.46454-8.0059 4.2168-8.0059 1.7109 0 2.377-0.5608 2.377-2 0-1.1449-0.94607-1.8484-2.1445-2.0137zm-266.75 0.01363c-7.8484 0-11.824 9.4316-6.3027 14.953 3.92 3.92 7.4422 3.9582 11.277 0.12305 5.7062-5.7062 2.6146-15.076-4.9746-15.076zm154.46 0c-1.1384 0-1.4309 1.766-1.4121 8.5 0.0185 6.6458 0.33062 8.5 1.4356 8.5 1.0402 0 1.4141-1.4011 1.4141-5.3086 0-5.9548 1.3558-8.3988 4.9219-8.8711 1.3319-0.17641 2.6076-0.88281 2.834-1.5703 0.53942-1.6379-4.927-1.6802-6.5566-0.0508-0.93333 0.93333-1.1992 0.93333-1.1992 0 0-0.66-0.6472-1.1992-1.4375-1.1992zm92.457 0c-8.9517 0-11.985 12.675-4 16.715 4.1015 2.0752 10.98 1.2408 10.98-1.332 0-0.94307-1.2495-1.3828-3.9277-1.3828-7.3129 0-8.6475-3.3163-1.7559-4.3633 8.6426-1.313 7.5224-9.6367-1.2969-9.6367zm123.36 0c-8.1386 0-10.323 12.775-2.8809 16.846 2.2463 1.2286 5.5483 1.4562 7.918 0.54688 2.8203-1.0822 1.6754-2.3926-2.0898-2.3926-8.3702 0-9.8386-5.7684-1.5781-6.1992 8.7883-0.45837 7.4905-8.8008-1.3691-8.8008zm13.119 0c-1.2157 0-1.5 1.6111-1.5 8.5s0.28431 8.5 1.5 8.5c1.18 0 1.5-1.3913 1.5-6.5215 0-5.8931 0.22823-6.6263 2.373-7.6035 4.6111-2.101 6.627 0.22929 6.627 7.6602 0 5.0798 0.32135 6.4648 1.5 6.4648 2.1987 0 2.1369-13.219-0.0723-15.428-1.8023-1.8023-5.672-2.0475-8.4941-0.53711-1.3333 0.71358-1.9336 0.71358-1.9336 0 3e-5 -0.56935-0.675-1.0352-1.5-1.0352zm-82.883 0.01c-1.2554-0.10249-2.6382 0.21662-3.1465 1.0391-0.44549 0.7208-1.0758 0.69373-2.0156-0.0859-2.4116-2.0015-2.9623-0.33863-2.6289 7.9394 0.4082 10.135 3.1738 12.137 3.1738 2.2969 0-6.2683 1.107-8.1995 4.6992-8.1995 1.3778 0 2.3008-0.60145 2.3008-1.5 0-0.86393-1.1274-1.3878-2.3828-1.4902zm-178.98 0.0215c-8.768 0.0888-12.255 13.766-4.3242 16.961 6.6216 2.6679 12.186-1.2099 12.186-8.4941 0-5.5207-2.7833-8.5182-7.8613-8.4668zm212.34 0.0332c-0.93593 6e-3 -1.8816 0.21562-2.9766 0.62891-1.902 0.71792-3 0.76848-3 0.13672 0-0.54802-0.53837-0.81664-1.1953-0.59766-0.78986 0.26329-1.2133 3.1696-1.25 8.582-0.0485 7.1493 0.1667 8.1852 1.6953 8.1856 1.4862 3.9e-4 1.75-0.97436 1.75-6.4648 0-5.4414 0.31662-6.6342 2-7.5352 4.0547-2.17 6 0.27296 6 7.5352 0 5.0798 0.32135 6.4648 1.5 6.4648s1.5-1.385 1.5-6.4648c0-5.3604 0.32947-6.6408 1.9277-7.4961 4.3429-2.3242 6.5709 1.2284 5.918 9.4375-0.30102 3.7848-0.0738 4.5234 1.3965 4.5234 2.3857 0 2.5415-11.436 0.20117-14.777-1.6058-2.2926-5.7377-2.9569-8.2988-1.334-0.78491 0.49736-2.5723 0.3989-4.25-0.23437-1.0568-0.39887-1.982-0.59612-2.918-0.58985zm95 0c-0.93593 6e-3 -1.8816 0.21562-2.9766 0.62891-1.902 0.71792-3 0.76848-3 0.13672 0-0.54802-0.52043-0.82327-1.1562-0.61133-0.73864 0.24621-1.19 3.3448-1.25 8.582-0.0823 7.1752 0.12437 8.1963 1.6562 8.1973 1.4863 1e-3 1.75-0.97212 1.75-6.4629 0-7.2622 1.9453-9.7052 6-7.5352 1.6834 0.90092 2 2.0938 2 7.5352 0 5.0798 0.32135 6.4648 1.5 6.4648s1.5-1.385 1.5-6.4648c0-7.3148 1.9422-9.7077 6.082-7.4922 1.8378 0.98355 2.0429 1.869 1.75 7.5391-0.28815 5.5776-0.10167 6.4219 1.418 6.4199 2.3788-3e-3 2.5285-11.445 0.19336-14.779-1.6058-2.2926-5.7377-2.9569-8.2988-1.334-0.78491 0.49736-2.5723 0.3989-4.25-0.23437-1.0568-0.39887-1.982-0.59612-2.918-0.58985zm-239.89 4e-3c-1.4323 0.17954-2.8304 0.71774-4.0098 1.6816-4.6867 3.8304-3.3464 12.995 2.2285 15.24 3.5685 1.4374 7.427 1.1307 9.3086-0.74023 1.6779-1.6683 1.5546-1.7645-2.6582-2.0684-2.4304-0.17532-4.9912-0.79352-5.6894-1.373-1.4941-1.24-1.7328-4.2134-0.26562-3.3066 2.6177 1.6178 9.9961-0.68162 9.9961-3.1152 0-4.1614-4.6131-6.857-8.9102-6.3184zm21.803 0.0879c-3.3868-0.39259-8.4035 0.49866-8.6914 2.0156-0.23637 1.2455 0.20294 1.5346 1.7246 1.1367 2.9838-0.78029 7.0742 0.49855 7.0742 2.2109 0 0.82999-0.90867 1.4805-2.0664 1.4805-6.3037 0-10.768 7.188-6.1836 9.957 0.9625 0.58138 2.875 0.80686 4.25 0.5 1.375-0.30687 3.85-0.52723 5.5-0.49023l3 0.0664-0.32617-7.457c-0.20493-4.678-0.83057-7.8767-1.6738-8.5765-0.53099-0.44068-1.4785-0.71289-2.6074-0.84375zm-130.54 0.0527c-1.9478-0.0906-4.1224 0.18173-4.9766 0.89063-2.6699 2.2158-1.2403 6.1488 3.1211 8.5879 4.9624 2.7752 5.1528 4.718 0.5 5.1016-5.3389 0.44013-6.9456 1.2425-4.5 2.248 8.3808 3.4461 14.94-5.0383 7-9.0547-5.488-2.7761-5.7168-3.0174-4.3906-4.6152 0.66883-0.80591 2.453-1.3225 4.0039-1.1602 1.5387 0.16104 2.8274-0.15703 2.8633-0.70703 0.0488-0.74639-1.6732-1.2004-3.6211-1.291zm-80.789 1.7907c4.8946 0 7.2391 8.1945 3.4336 12-2.5394 2.5394-4.2133 2.5274-6.5449-0.0488-3.7422-4.1354-1.7073-11.951 3.1113-11.951zm369.94 0.11133c2.5547-0.30223 5.498 1.5992 5.498 4.3223 0 0.31116-2.025 0.56641-4.5 0.56641-4.615 0-5.7708-1.3308-3.3008-3.8008 0.64163-0.64163 1.4512-0.98715 2.3027-1.0879zm-335.79 0.0781c1.7892 0.2679 3.2832 1.5525 3.2832 3.5098 0 0.87407-1.4744 1.3008-4.5 1.3008-4.7602 0-5.495-0.86045-2.9277-3.4277 0.67614-0.67614 1.4776-1.0998 2.3008-1.2988 0.6174-0.1493 1.2473-0.17321 1.8438-0.084zm88.123 4e-3c4.9185 0.57086 6.5482 8.276 2.5879 12.236-2.1053 2.1053-4.0205 1.9776-6.4277-0.42969-4.0482-4.0482-1.3296-12.407 3.8398-11.807zm191.35 0c5.1459-0.60275 7.8509 7.7702 3.8144 11.807-2.4072 2.4072-4.3224 2.535-6.4277 0.42969-4.0863-4.0863-2.4724-11.641 2.6133-12.236zm96.787 0.0488c1.6934 0.23527 3.0273 1.4798 3.0273 3.457 0 0.87407-1.4744 1.3008-4.5 1.3008-4.8817 0-5.5056-0.78118-2.6719-3.3457 0.73836-0.6682 1.5564-1.0926 2.3672-1.3008 0.60806-0.15614 1.2129-0.18976 1.7774-0.11133zm-219.17 0.95312c1.6107 0.23695 3.1502 1.3253 3.1856 3.0547 8e-3 0.4125-1.5933 0.75-3.5586 0.75-2.8636 0-3.5056-0.3476-3.2383-1.75 0.31966-1.6771 2.0006-2.2916 3.6113-2.0547zm56.225 0.0137c1.5569-0.0811 2.9766 0.64949 2.9766 2.2598 0 1.0903-1.0328 1.5312-3.584 1.5312-2.3064 0-3.4423-0.41916-3.1895-1.1777 0.54624-1.6387 2.24-2.5322 3.7969-2.6133zm-18.658 0.0195c1.2821 0.49496 2.2577 2.3984 2.4375 5.5215l0.30274 5.25h-3.0742c-4.1829 0-6.1512-3.9137-3.9453-7.8438 1.4087-2.5098 2.9972-3.4227 4.2793-2.9277zm-17.801 5.7714c1.2408 0 0.2046 4.8741-1.1465 5.3926-0.86998 0.33385-1.6575 0.5727-1.75 0.5293s-0.73047-0.30658-1.418-0.58399c-2.8874-1.1651 0.48524-5.3379 4.3144-5.3379zm45.131 25c-1.0312 0-1.6297 19.948-0.74219 24.75 0.71274 3.8565 2.5774-1.0931 2.2285-5.916-0.4888-6.7576 0.8125-8.834 5.5352-8.834 3.0654 0 4.1787 3.0712 3.5352 9.75-0.42295 4.3897-0.23947 5.25 1.1211 5.25 1.3559 0 1.627-1.2294 1.627-7.377 0-8.8835-0.982-10.111-7.5078-9.375l-4.4922 0.50586v-4.377c0-2.9341-0.42963-4.377-1.3047-4.377zm50.805 0c-1.2533 0-1.5 2.0556-1.5 12.5v12.5h5.0664c6.609 0 8.6103-1.1894 10.041-5.9648 2.1971-7.3333-2.5054-12.843-9.3574-10.963-2.6986 0.74035-2.75 0.67277-2.75-3.6582 0-3.2565-0.39324-4.4141-1.5-4.4141zm64.42 0c-1.3514 1.7e-4 -1.5889 1.8124-1.6523 12.555-0.0636 10.778 0.14314 12.512 1.4609 12.25 2.3353-0.46359 2.5231-24.805 0.1914-24.805zm-368.18 0.1875c-1.9436-0.37431-3.258 2.0114-2.375 4.3125 0.65106 1.6966 1.5336 1.8527 3.4863 0.61523 1.8155-1.1505 1.0584-4.5099-1.1113-4.9277zm273.34 0.8125c-2.0004 0-2.8022 1.938-1.3867 3.3535 1.0718 1.0718 2.7798 0.15493 3.1367-1.6856 0.21801-1.1241-0.35203-1.668-1.75-1.668zm-68.324 0.18945c-1.2278-0.23646-1.75 0.3044-1.75 1.8106s0.52215 2.047 1.75 1.8106c0.9625-0.18536 1.75-1.0006 1.75-1.8106s-0.7875-1.6252-1.75-1.8106zm36.75 1.8106c-0.93333 0-1.5 0.94444-1.5 2.5s-0.56667 2.5-1.5 2.5c-0.825 0-1.5 0.675-1.5 1.5s0.675 1.5 1.5 1.5c1.1609 0 1.5 1.3119 1.5 5.8008 0 3.19 0.53922 6.34 1.1992 7 1.3879 1.3879 6.8008 1.6336 6.8008 0.3086 0-0.49038-1.0716-1.1616-2.3809-1.4902-4.3696-1.0967-5.3077-11.275-1.0879-11.803 3.204-0.40055 3.6981-2.2136 0.71875-2.6367-1.6285-0.23129-2.25-0.99088-2.25-2.75 0-1.4937-0.57811-2.4297-1.5-2.4297zm102 0c-0.93333 0-1.5 0.94444-1.5 2.5s-0.56667 2.5-1.5 2.5c-0.825 0-1.5 0.675-1.5 1.5s0.675 1.5 1.5 1.5c1.1609 0 1.5 1.3119 1.5 5.8008 0 3.19 0.53922 6.34 1.1992 7 1.3879 1.3879 6.8008 1.6336 6.8008 0.3086 0-0.49038-1.0716-1.1616-2.3809-1.4902-4.3696-1.0967-5.3077-11.275-1.0879-11.803 3.204-0.40055 3.6981-2.2136 0.71875-2.6367-1.6285-0.23129-2.25-0.99088-2.25-2.75 0-1.4937-0.57811-2.4297-1.5-2.4297zm13 0c-0.93333 0-1.5 0.94444-1.5 2.5s-0.56667 2.5-1.5 2.5c-0.825 0-1.5 0.675-1.5 1.5s0.675 1.5 1.5 1.5c1.1609 0 1.5 1.3119 1.5 5.8008 0 3.19 0.53922 6.34 1.1992 7 1.4493 1.4493 6.8008 1.6059 6.8008 0.19922 0-0.55-0.64202-1-1.4277-1-4.8774 0-6.8184-11.586-2.041-12.184 3.204-0.40055 3.6981-2.2136 0.71875-2.6367-1.6285-0.23129-2.25-0.99088-2.25-2.75 0-1.4937-0.57811-2.4297-1.5-2.4297zm-251.03 4c-7.0578 0-11.103 10.456-6.0137 15.545 3.3114 3.3114 12.545 3.6653 12.545 0.48047 0-1.6425-0.48365-1.879-2.877-1.4004-3.3202 0.66404-7.123-1.0226-7.123-3.1602 0-1.1089 1.3365-1.4648 5.5-1.4648 5.2262 0 5.5-0.12619 5.5-2.5449 0-3.3107-4.1864-7.4551-7.5312-7.4551zm276.52 0.18555c-6.5195-0.52043-11.45 9.4958-5.9102 15.393 2.5929 2.76 11.926 3.6392 11.926 1.123 0-0.89228-1.0801-1.1743-3.4434-0.89844-2.7665 0.32298-3.9942-0.15683-6.25-2.4492l-2.8066-2.8535 6.2656-0.59961c8.2346-0.7876 9.7296-5.0568 3.084-8.8047-0.97028-0.5472-1.9339-0.83581-2.8652-0.91015zm-370.83 0.0723c-6.0547 0.38421-8.1573 6.9007-1.9062 10.24 5.1006 2.7249 4.9797 4.8286-0.24805 4.3301-3.3087-0.31551-4-0.0749-4 1.3945 0 2.1343 8.7747 2.6042 10.801 0.57812 2.6792-2.6792 1.4152-6.6499-2.8008-8.8008-4.8936-2.4966-5.1222-4-0.60742-4 4.4602 0 5.643-2.6128 1.5859-3.5039-1.0134-0.22257-1.9593-0.29316-2.8242-0.23828zm20.488 0.0781c-1.0599-0.19046-2.2307-0.15655-3.5 0.16015-8.6367 2.155-10.519 13.693-2.7832 17.059 3.8956 1.6951 3.1142 1.6911 7.0918 0.0293 8.544-3.5699 6.6108-15.915-0.80859-17.248zm-47.385 0.041c-4.394 0.39418-8.2578 4.1618-8.2578 9.123 0 3.838 3.1489 8.2227 6.2695 8.7285 10.689 1.7327 16.04-12.438 6.4356-17.041-1.4589-0.69925-2.9826-0.94194-4.4473-0.81055zm179.29 0.041c-0.79874-0.1052-1.6358-0.0961-2.4961 0.0449-0.98322 0.16115-1.9979 0.4932-3.0195 1.0215-7.0334 3.6371-6.167 15.382 1.2402 16.812 1.2265 0.23689 2.2766 0.4915 2.332 0.5664 0.73694 0.99584 6.8228-2.7814 7.9297-4.9219 3.3191-6.4184-0.39515-12.787-5.9863-13.523zm-197.94 0.0234c-0.75668-0.11304-1.4207-0.0547-1.8789 0.22851-0.57462 0.35514-2.6601 0.58034-4.6348 0.50196l-3.5898-0.14057 0.30664 12.484 0.30859 12.484h2.4414c2.1833 0 2.4434-0.42496 2.4434-4 0-3.7529 0.18006-4 2.918-4 7.2595 0 11.099-6.4774 7.9434-13.402-0.88373-1.9396-3.9878-3.8171-6.2578-4.1562zm115.93 0.16406c-1.2871-0.13756-2.5883 1.5654-3.5508 5.1445-1.8684 6.9476-2.6466 7.1126-4.0469 0.85547-1.1611-5.1881-1.4637-5.6054-4.0801-5.6054h-2.8262l1.8476 4.75c1.0166 2.6125 2.3964 6.4375 3.0645 8.5 1.8708 5.7759 4.5371 5.0782 6.6894-1.75 2.1498-6.8201 2.7378-6.8522 4.5684-0.25 1.5449 5.5718 4.9588 7.8532 6.0644 4.0527 0.28841-0.99136 1.6926-4.8402 3.1211-8.5527l2.5976-6.75h-2.332c-1.9997 0-2.5188 0.78311-3.6504 5.5-0.72569 3.025-1.6257 5.5-2 5.5s-1.2743-2.475-2-5.5c-0.90655-3.7789-2.1797-5.757-3.4668-5.8945zm248.95 0.23633c-1.4471-0.13826-3.3155-0.0832-5.7305 0.0566-3.5418 0.20506-1.6225 2.1016 2.127 2.1016 3.9362 0 6.8394 2.0332 5.6504 3.957-0.35481 0.57409-1.8681 1.043-3.3633 1.043-5.5436 0-9.2798 5.4839-5.9824 8.7812 0.67594 0.67594 3.6254 1.1135 6.8945 1.0234l5.7129-0.15625-0.21094-7.3418c-0.19941-6.8878-0.7564-9.0501-5.0976-9.4648zm-186.49 0.14648c-1.9207 0.0594-4.9046 0.0896-6.6309 0.0684l-3.1387-0.0371 0.0625 12.49c0.06206 12.39 0.08147 12.49 2.3887 12.49 2.0721 0 2.3262-0.46778 2.3262-4.2773v-4.2754l3.7695 0.35937c4.7871 0.45652 7.2784-2.0586 7.9512-8.0273 0.6489-5.757-1.7895-8.9436-6.7285-8.791zm60.258 0.01c-1.555-2e-3 -1.7132 0.94528-1.4258 8.5 0.46901 12.327 3.1758 12.329 3.1758 2e-3 0-7.4277-0.22077-8.5-1.75-8.502zm-205.86 0.00178c-1.9664 0-2.4578 0.38892-2 1.582 0.33385 0.86998 0.60742 4.695 0.60742 8.5 0 6.2515 0.19273 6.918 2 6.918 1.8431 0 2-0.66667 2-8.5 0-8.493-3e-3 -8.5-2.6074-8.5zm274.11 0c-1.2157 0-1.5 1.6111-1.5 8.5s0.28431 8.5 1.5 8.5 1.5-1.6111 1.5-8.5-0.28431-8.5-1.5-8.5zm13.322 0c-6.6993 0-9.5618 5.5462-4.3223 8.375 6.4322 3.4727 6.6741 3.7098 5.3926 5.2539-0.77823 0.93771-2.5428 1.3823-4.7363 1.1934-2.1275-0.18329-3.6588 0.18327-3.9102 0.9375-0.61489 1.8447 9.1632 1.6574 10.709-0.20508 2.1524-2.5934 0.77773-5.871-3.4551-8.2402-4.9574-2.7748-5.1458-4.7102-0.5-5.1367 5.471-0.50223 6.1037-2.1777 0.82227-2.1777zm-107.7 0.0137c-4.0832-0.0755-4.3345 0.0722-3.7637 2.2031 0.33644 1.2559 0.617 5.0957 0.625 8.5332 0.0122 5.5788 0.22846 6.25 2.0137 6.25 1.7943 0 2-0.66619 2-6.4805 0-6.0388 0.16687-6.5224 2.4434-7.0938 3.8107-0.95643 4.5566 0.21036 4.5566 7.1328 0 6.2037 0.0921 6.4414 2.5 6.4414 2.4219 0 2.5-0.21246 2.5-6.8086 0-7.8644-1.2473-10.16-5.5-10.123-1.65 0.0145-4.9686-0.0102-7.375-0.0547zm-130.66 0.1543-6.9609 0.0645 0.32422 8.3828c0.3184 8.2525 0.36393 8.3848 2.8926 8.3848 2.5347 0 2.5605-0.0771 1.959-5.832-0.64344-6.1561 0.21453-8.168 3.4883-8.168 2.5804 0 4.0306 3.4962 3.6602 8.8242-0.29228 4.2036-0.0972 4.7088 1.9258 4.9961 2.1605 0.30684 2.25 0.022 2.25-7.1289 0-9.1056-0.50064-9.6053-9.5391-9.5234zm74.449 0.0273c-6.878 0.39947-7.7688 2.5802-1.2246 2.998 5.7294 0.36585 6.7262 2.8342 1.5703 3.8887-5.6822 1.1621-8.2393 5.5361-5.082 8.6934 0.65277 0.65277 3.7623 1.1374 7 1.0918l5.8262-0.08202v-7.2695c0-8.7811-0.83325-9.7418-8.0898-9.3203zm95.309 0.0215-6.7188 0.20117 0.32422 8.291c0.43382 11.12 3.1758 12.251 3.1758 1.3106 0-12.091 8.256-11.778 8.7949 0.33399 0.42413 9.5323 3.2051 9.6015 3.2051 0.0801 0-9.6847-0.66575-10.458-8.7812-10.217zm163.93 1.666c1.7785-0.12416 3.5668 0.84025 4.0449 2.9844 0.21083 0.94547-1.0326 1.5037-4.0293 1.8086-3.6656 0.37299-4.283 0.18046-4-1.248 0.4374-2.208 2.2058-3.4208 3.9844-3.5449zm-72.564 0.31641c5.1071-0.49837 8.0038 6.9764 4.3906 11.33-1.5418 1.8578-6.8661 1.9241-7.5684 0.0937-1.7546-4.5723 0.0675-11.12 3.1777-11.424zm-203.88 0.3418c1.5051-0.24282 3.293 0.429 3.293 1.5664 0 0.49115 0.1125 1.176 0.25 1.5215s-1.2125 0.74219-3 0.88281c-3.4579 0.27202-4.3527-1.3516-1.877-3.4062 0.3623-0.30069 0.83229-0.48352 1.334-0.56445zm-119.37 0.0977c2.6474 0.70136 4.6828 5.5807 2.6855 9.3125-1.2206 2.2808-3.9928 2.6849-5.8281 0.84961-1.7296-1.7296-1.4742-7.3813 0.41797-9.2734 0.89186-0.89186 1.8421-1.1224 2.7246-0.88867zm44.59 0.0762c2.7825 0.23961 4.8268 4.5263 2.9121 8.7285-2.2089 4.8478-7.8438 2.422-7.8438-3.377 0-1.1362 0.91083-2.9772 2.0234-4.0898 0.97229-0.97229 1.9807-1.3416 2.9082-1.2617zm131.09 0c3.3399-0.71169 6.8583 6.3185 3.9277 9.8496-1.4506 1.7479-4.1237 1.8587-5.7461 0.23633-1.7296-1.7296-1.4742-7.3813 0.41797-9.2734 0.45048-0.45048 0.92326-0.71083 1.4004-0.8125zm-197.72 0.28508c4.2742 0 6.6494 6.6514 3.5 9.8008-3.3053 3.3053-5.8008 1.4551-5.8008-4.3008 0-5.0725 0.17957-5.5 2.3008-5.5zm177.95 0.14648c0.58219-0.0686 1.3016 0.0257 2.1875 0.24805 2.7561 0.69174 3.7975 4.4938 2.1445 7.8281-2.4361 4.9138-6.582 3.5921-6.582-2.0977 0-4.0985 0.50343-5.7727 2.25-5.9785zm-16.6 5.8535c0.97088 0 1.3784 0.7817 1.1699 2.25-0.43448 3.0593-5.8203 3.9142-5.8203 0.92383 0-1.9458 1.7983-3.1738 4.6504-3.1738zm205.93 0c3.0156 0 3.3505 3.431 0.48438 4.9648-3.6328 1.9442-6.0664 1.1313-6.0664-2.0254 0-1.9205 1.9362-2.9394 5.582-2.9394zm65.047 3c-1.9446 0-2.9674 1.6749-2.2168 3.6309 0.81433 2.1221 3.0202 1.178 3.4082-1.459 0.20769-1.4115-0.20964-2.1719-1.1914-2.1719zm-299.13 40c-1.2533 0-1.5 2.0556-1.5 12.5s0.24667 12.5 1.5 12.5c1.0833 0 1.5-1.1111 1.5-4 0-5.0189 0.85964-5.0235 4.5586-0.0234 1.9533 2.6402 3.7294 3.9843 5.2852 4 2.2014 0.0222 2.0853-0.2846-1.9199-5.0684l-4.2637-5.0918 3.1699-2.4805c1.7434-1.3646 3.1699-2.8981 3.1699-3.4082 0-1.9352-2.5515-0.79413-6.207 2.7754l-3.793 3.7031v-7.7031c0-6.1804-0.29649-7.7031-1.5-7.7031zm96 0c-1.2533 0-1.5 2.0556-1.5 12.5s0.24667 12.5 1.5 12.5c1.18 0 1.5-1.3913 1.5-6.5215 0-12.098 8.257-12.215 8.7949-0.125 0.43513 9.7796 3.2051 9.5368 3.2051-0.28125 0-9.0059-5.8564-13.817-10.801-8.873-0.93333 0.93333-1.1992 0.0444-1.1992-4 0-3.9556-0.35897-5.1992-1.5-5.1992zm110 0c-1.0833 0-1.5 1.1111-1.5 4 0 3.9696-0.0295 4-3.8262 4-8.5644 0-12.372 13.099-4.8926 16.83 1.22 0.60856 3.3438 0.86982 4.7188 0.58203 1.375-0.28778 3.5125-0.50282 4.75-0.47852 2.2156 0.0435 2.25-0.14755 2.25-12.445 0-10.434-0.24674-12.488-1.5-12.488zm29.123 0c-2.8802 0-4.1698 1.4561-5.0879 5.75-0.38816 1.8153-1.3218 3.25-2.1152 3.25-0.78129 0-1.4199 0.45-1.4199 1s0.675 1 1.5 1c1.1905 0 1.5 1.4444 1.5 7s0.30952 7 1.5 7 1.5-1.4444 1.5-7c0-6.8 0.0714-7 2.5-7 3.111 0 3.3112-1.7449 0.25-2.1797-1.6481-0.23407-2.25-0.98907-2.25-2.8203 0-1.6334 0.7799-2.8414 2.25-3.4863 2.9343-1.2873 2.8727-2.5137-0.12695-2.5137zm-13.016 1c-1.5084 0-2.8442 2.4292-1.8711 3.4023 1.3169 1.3169 3.2637 0.48024 3.2637-1.4023 0-1.1-0.62643-2-1.3926-2zm120.95 0c-1.7666 0-2.8956 1.6456-2.0586 3 1.0875 1.7596 3.5 1.0703 3.5-1 0-1.1-0.64887-2-1.4414-2zm-226.4 0.35156c-0.99382-0.28578-2.1582 0.66645-2.1582 2.207 0 1.52 2.5346 2.0044 3.375 0.64453 0.27117-0.43875 0.12214-1.3972-0.33008-2.1289-0.24389-0.39463-0.55544-0.6274-0.88672-0.72266zm261.84 0.1875c-0.7791 0.083-1.6096 0.70658-1.8203 1.8008-0.25736 1.3364 0.14993 1.7437 1.4863 1.4863 1.0124-0.19498 1.8398-1.0224 1.8398-1.8398 0-1.0718-0.72676-1.5303-1.5059-1.4473zm-518.51 0.46094c-2.1344 0-1.8776 0.99998 1.6894 6.5547 2.3478 3.6562 3.2927 6.4446 3.6211 10.695 0.55217 7.1474 3.2031 8.3373 3.2031 1.4375 0-3.26 0.9767-5.9326 4-10.945 4.4404-7.3624 4.5702-7.7422 2.666-7.7422-0.73321 0-2.737 2.7254-4.4551 6.0566l-3.125 6.0566-3.0566-6.0566c-1.6816-3.3313-3.7259-6.0566-4.543-6.0566zm224.98 2.0254c-0.51694-0.0408-1.0843 0.63187-1.3047 2.0508-0.1841 1.1855-1.1966 2.3808-2.25 2.6562-2.2653 0.59239-2.5728 2.2676-0.41602 2.2676 1.1078 0 1.5 1.1601 1.5 4.4356 0 5.6278 1.3823 9.2875 3.6934 9.7812 2.5234 0.53916 5.3937-0.26646 4.7363-1.3301-0.30128-0.48747-1.3722-0.88672-2.3809-0.88672-2.2799 0-3.0488-1.9109-3.0488-7.582 0-4.0461 0.21056-4.418 2.5-4.418 3.111 0 3.3112-1.7449 0.25-2.1797-1.5582-0.2213-2.2596-1.01-2.2793-2.5625-0.0182-1.4377-0.48305-2.1916-1-2.2324zm29.93 2.9629c-0.24079 0.07984-0.40039 0.76173-0.40039 2.2617v8.25c0 5.8726 0.31404 7.5 1.4453 7.5 1.1587 0 1.4062-1.6336 1.25-8.25-0.11371-4.8164-1.5726-10.001-2.2949-9.7617zm147.08 0.46289c-0.95765-0.19203-3.0049 2.7797-4.0625 6.5488-2.0747 7.3942-2.52 7.4301-4.9121 0.39258-1.7026-5.009-3.7382-7.4942-5.0586-6.1738-0.25596 0.25596 0.88829 3.7471 2.543 7.7598 3.6864 8.9395 3.7801 11.469 0.50781 13.613-1.375 0.90093-2.5 2.0668-2.5 2.5918 0 1.9473 4.4762 0.22892 5.6875-2.1836 1.7251-3.4358 8.3125-20.247 8.3125-21.215 0-0.85497-0.19836-1.27-0.51758-1.334zm131.75 0.23438c-1.2467 0.0386-2.6848 0.48479-4.3008 1.3496-1.3333 0.71358-1.9336 0.71358-1.9336 0 0-0.56935-0.675-1.0352-1.5-1.0352-1.2157 0-1.5 1.6111-1.5 8.5s0.28431 8.5 1.5 8.5c1.18 0 1.5-1.3913 1.5-6.5215 0-12.098 8.257-12.215 8.7949-0.125 0.43513 9.7796 3.2051 9.5368 3.2051-0.28125 0-6.9464-2.0257-10.502-5.7656-10.387zm-351.22 0.13086c-2.1491-0.0533-4.3614 0.81224-5.9394 2.8184-3.7052 4.7105-1.9822 12.247 3.2852 14.373 2.6238 1.0588 4.9703 1.1869 7.0606 0.38477 2.8203-1.0822 1.6754-2.3926-2.0898-2.3926-3.7655 0-7.3281-2.2626-7.3281-4.6543 0-0.97723 1.6406-1.3457 6-1.3457 5.577 0 6-0.16041 6-2.2773 0-4.1751-3.4064-6.8174-6.9883-6.9062zm294.57 0.0176c-0.78412-0.18074-2.6462 2.8774-4.0918 7.207l-2.1426 6.416-2.4121-6.7285c-3.0161-8.41-4.0811-8.4173-7.1758-0.0449l-2.4707 6.6856-2.2246-6.6856c-1.2234-3.6768-2.5611-6.6836-2.9746-6.6836-1.8727 0-1.7637 1.6267 0.52929 7.8379 1.3526 3.6638 2.6671 7.2628 2.9219 7.9961 0.9273 2.669 2.878 0.40197 5.0703-5.8945 1.7865-5.1309 2.3912-6.0331 2.9766-4.4394 3.1536 8.5848 4.342 11 5.4121 11 1.1685 0 6.8404-12.513 6.9512-15.334 0.0335-0.85282-0.10776-1.2718-0.36915-1.332zm-183.11 0.10157c-1.958 0.22352-4.2982 1.1693-5.8301 2.7012-4.6834 4.6834-2.9222 12.359 3.3633 14.656 2.1145 0.77294 3.5917 0.80049 5.418 0.0996 2.6679-1.024 1.7581-2.3926-1.5898-2.3926-4.238 0-6.8281-2.517-6.8281-6.6328 0-3.8987 3.6013-6.9461 6.9512-5.8828 1.4704 0.46667 2.0488 0.20878 2.0488-0.91602 0-1.357-1.5752-1.8563-3.5332-1.6328zm-25.398 0.0195c-2.0966 0.12539-4.4551 0.81375-5.5039 1.9726-2.4047 2.6572-1.2915 5.3383 3.1992 7.7031 5.0988 2.6851 4.8904 4.7848-0.51367 5.1758-2.3375 0.16912-4.25 0.73162-4.25 1.25 0 0.51837 2.2342 0.94336 4.9648 0.94336 8.3036 0 9.5674-6.1046 1.9727-9.5293-5.208-2.3485-5.018-5.022 0.3457-4.8574 2.5281 0.0776 3.7168-0.32213 3.7168-1.25 0-1.0962-1.835-1.5336-3.9316-1.4082zm52.348 4e-3c-0.95082-0.11193-1.416 2.7181-1.416 8.5409 0 6.8889 0.28431 8.5 1.5 8.5 1.1632 0 1.5-1.3191 1.5-5.877 0-6.27 0.86681-7.7056 5-8.2774 1.375-0.1902 2.5-0.7957 2.5-1.3457 0-1.4572-4.3802-1.8441-5.9668-0.52734-0.9335 0.77477-1.5578 0.79781-2.0039 0.0762-0.42534-0.68822-0.79634-1.0528-1.1133-1.0898zm-294.42 0.04092c-7.8109 0-11.628 10.483-5.6797 15.6 3.5989 3.0956 6.7681 3.0379 10.604-0.18945 6.2626-5.2696 3.0222-15.41-4.9238-15.41zm14.5 0c-2.7486 0-2.0908 14.466 0.75 16.492 1.422 1.0144 3.17 1.3711 4.75 0.9707 1.375-0.34849 3.6782-0.61851 5.1172-0.59961l2.6152 0.0352-0.27344-8.1992c-0.20264-6.0563-0.62594-8.1992-1.6172-8.1992-1.001 0-1.2737 1.4921-1.0723 5.873 0.29442 6.4038-0.78463 8.6269-4.1914 8.6269-3.5362 0-4.5781-1.9784-4.5781-8.6992 0-4.9333-0.3254-6.3008-1.5-6.3008zm26.25 0c-0.90192-7e-5 -1.25 2.3661-1.25 8.4961 0 7.4229 0.22099 8.496 1.75 8.5 1.4842 4e-3 1.75-0.9642 1.75-6.373 0-7.5153 1.4987-9.6275 5.5293-7.791 2.2596 1.0295 2.4707 1.6816 2.4707 7.6465 0 5.228 0.3082 6.5215 1.5527 6.5215 1.2562 0 1.5106-1.1546 1.334-6.0488-0.24764-6.8625 1.3858-9.6354 5-8.4883 2.528 0.80237 3.4448 3.9058 2.959 10.014-0.30102 3.7848-0.0738 4.5234 1.3965 4.5234 2.3857 0 2.5415-11.436 0.20117-14.777-1.6058-2.2926-5.7377-2.9569-8.2988-1.334-0.78491 0.49736-2.5723 0.3989-4.25-0.23437-2.1135-0.79774-3.7047-0.78784-5.8945 0.0391-1.65 0.6228-3 0.72292-3 0.2207 0-0.50223-0.5625-0.914-1.25-0.91406zm58.273 0c-0.4727 0-1.8719 3.0375-3.1074 6.75l-2.2461 6.75-2.1699-6.5c-1.4682-4.3981-2.7549-6.6142-3.9785-6.8516-2.108-0.40898-1.954 0.35317 1.877 9.3516 3.236 7.601 3.2561 10.025 0.10156 12.092-1.375 0.90093-2.5 2.0367-2.5 2.5234 0 1.2886 2.3673 1.0824 4.1953-0.36523 0.86814-0.6875 2.379-3.725 3.3555-6.75 0.97644-3.025 2.8023-7.7192 4.0586-10.432 2.18-4.7072 2.2981-6.5684 0.41406-6.5684zm38.432 0c-9.057 0-11.575 13.595-3.1465 16.99 2.6718 1.0762 4.4943 1.1687 7.4414 0.37891 3.6224-0.97077 2.5893-2.3691-1.75-2.3691-2.6667 0-4.6667-0.66667-6-2-3.2012-3.2012-2.4024-4 4-4 5.8359 0 6-0.0737 6-2.6719 0-3.7328-2.685-6.3281-6.5449-6.3281zm263 0c-2.5442 0-2.0076 13.448 0.64258 16.098 1.5649 1.5649 2.7717 1.9255 4.75 1.416 1.4587-0.37567 3.8305-0.66929 5.2695-0.65039l2.6152 0.0352-0.27344-8.1992c-0.20264-6.0563-0.62594-8.1992-1.6172-8.1992-1.0227 0-1.2617 1.596-1.0059 6.709 0.32978 6.591 0.2878 6.7228-2.4043 7.3984-4.5797 1.1494-5.8961-0.53354-6.2266-7.9609-0.22301-5.0122-0.65314-6.6465-1.75-6.6465zm63.295 0c-0.90197-2.3e-4 -1.25 2.3653-1.25 8.498 0 7.4272 0.2207 8.499 1.75 8.5 1.4975 1e-3 1.75-0.99145 1.75-6.8887 0-6.6712 0.087-6.9151 2.7285-7.5781 4.353-1.0925 6.432 2.2568 5.6309 9.0742-0.53918 4.5875-0.38895 5.3945 1.0039 5.3945 2.0411 0 2.4236-13.815 0.4375-15.801-1.4738-1.4738-6.2553-1.5619-8.8672-0.16406-1.3333 0.71358-1.9336 0.71358-1.9336 0 0-0.56935-0.5625-1.035-1.25-1.0352zm27.75 0c-1.2157 0-1.5 1.6111-1.5 8.5s0.28431 8.5 1.5 8.5 1.5-1.6111 1.5-8.5-0.28431-8.5-1.5-8.5zm-35.895 0.16211c-1.6434-0.31653-1.8095 0.0637-1.25 2.8613 0.35489 1.7745 0.64453 5.6453 0.64453 8.6016 0 3.6754 0.40208 5.375 1.2695 5.375 2.3357 0 1.6896-16.385-0.66406-16.838zm-282.35 0.0234-5.7734 0.16015 0.0117 12.324c0.01 11.066 0.18851 12.323 1.7598 12.326 1.3769 2e-3 1.75-0.85344 1.75-4.0156 0-3.7462 0.16281-3.9771 2.4062-3.4141 5.0968 1.2792 9.5154-3.0252 9.5625-9.3164 0.0468-6.2595-2.3726-8.2669-9.7168-8.0644zm213.35 0.0195c-7.4769 0.5644-10.816 10.631-5.1445 15.51 6.7652 5.8192 15.899-1.151 13.385-10.215-1.128-4.0662-3.5868-5.6462-8.2402-5.2949zm-51.438 2e-3c-0.91469 0.17616-1.6175 0.87667-1.5625 1.5566 0.055 0.67996 0.1675 4.3863 0.25 8.2363 0.24153 11.271 3.0317 9.8235 3-1.5566-0.0207-7.433-0.24281-8.5146-1.6875-8.2363zm-261.38 0.01c-2.2727 0.12703-4.1921 0.5882-3.9746 1.2832 0.1721 0.55 1.2971 0.86988 2.5 0.71094 3.8234-0.5052 6.6875 0.69788 6.6875 2.8086 0 1.541-0.6759 1.9805-3.0449 1.9805-5.9003 0-9.4543 5.5008-5.8691 9.0859 1.5977 1.5977 2.7107 1.9104 4.75 1.3301 1.4648-0.41688 3.7891-0.70714 5.1641-0.64454 3.4129 0.15542 3.3082-14.001-0.11719-15.834-1.1964-0.64028-3.823-0.84774-6.0957-0.7207zm205.97 0.01c-2.2663 0.195-4.2712 0.77953-4.5508 1.6289-0.34087 1.0355 0.2853 1.1952 2.6504 0.67578 4.1276-0.91063 7.1406 0.16397 7.1406 2.5367 0 1.4871-0.70153 1.9316-3.0449 1.9316-5.9003 0-9.4543 5.5008-5.8691 9.0859 1.5977 1.5977 2.7107 1.9104 4.75 1.3301 1.4648-0.41688 3.7891-0.70714 5.1641-0.64454 3.4129 0.15542 3.3082-14.001-0.11719-15.834-1.3285-0.71102-3.8568-0.90593-6.123-0.71094zm-280.29 1.773c5.1242 0 7.492 8.0412 3.5332 12-2.4556 2.4556-3.1833 2.4803-5.9883 0.20898-4.2262-3.4222-2.4598-12.209 2.4551-12.209zm386.91 0c5.3838 0 7.916 9.2777 3.3965 12.443-2.8602 2.0033-3.3698 1.9642-5.7773-0.44336-3.6845-3.6845-2.0345-12 2.3809-12zm-71.039 0.0156c2.2165 0.13478 2.7061 1.9803 2.459 6.7227-0.29341 5.6306-0.37194 5.7683-3.3867 6.0625-6.4844 0.63277-8.2378-10.802-1.9004-12.393 1.1596-0.29103 2.0893-0.4375 2.8281-0.39258zm-158.66 0.17579c1.77 0.3924 3.3184 1.6587 3.3184 3.5078 0 0.87407-1.4744 1.3008-4.5 1.3008-4.8567 0-5.0256-0.15007-3.4648-3.0664 0.88465-1.653 2.8764-2.1346 4.6465-1.7422zm18.881 0.0195c3.6009 0.69195 5.9946 6.0119 3.4023 10.855-0.70487 1.3171-2.0969 1.9336-4.3613 1.9336-4.0664 0-6.3399-9.1983-2.9043-11.75 1.3287-0.98685 2.663-1.2697 3.8633-1.0391zm-37.59 0.0312c1.6934 0.23527 3.0273 1.4798 3.0273 3.457 0 0.87407-1.4744 1.3008-4.5 1.3008-4.8817 0-5.5056-0.78118-2.6719-3.3457 0.73837-0.6682 1.5564-1.0926 2.3672-1.3008 0.60806-0.15614 1.2129-0.18976 1.7774-0.11133zm144.9 6.6641c1.2604 0.23786 2.1274 1.2272 1.9414 2.8438-0.25835 2.2453-0.87279 2.8041-3.3516 3.0469-4.5245 0.4432-5.7587-1.3585-2.8926-4.2246 1.3895-1.3895 3.0424-1.9039 4.3027-1.666zm-206.24 0.09385c2.1319 0 2.4481 0.40026 2.1777 2.75-0.37134 3.2273-6.0523 4.6835-7.1465 1.832-0.79631-2.0751 1.923-4.582 4.9688-4.582zm-37.389 24.998c-1.5887-2e-3 -1.7221 1.1363-1.4453 12.348l0.30469 12.35 5.2539 0.17188c6.7951 0.22204 9.9032-2.5908 9.8164-8.8809-0.0875-6.3396-3.8606-9.5124-9.4199-7.918-2.7161 0.77899-2.7598 0.7224-2.7598-3.6387 0-3.5519-0.34695-4.4306-1.75-4.4316zm-51.727 0.00195c-1.2266 0-1.4653 2.1237-1.416 12.557 0.0518 10.958 0.26283 12.519 1.6602 12.25 1.2927-0.24894 1.5536-1.4798 1.3535-6.3828-0.28147-6.8966 0.98458-8.7717 5.5684-8.2461 2.761 0.31658 2.8149 0.44999 3.1035 7.5723 0.42913 10.589 3.207 10.479 3.207-0.12695 0-9.3728-1.8064-11.187-9.25-9.2871-2.6979 0.68863-2.75 0.61697-2.75-3.8164 0-3.3182-0.39251-4.5195-1.4766-4.5195zm114.98 0c-1.2533 0-1.5 2.0556-1.5 12.5s0.24667 12.5 1.5 12.5 1.5-2.0556 1.5-12.5-0.24667-12.5-1.5-12.5zm-94.75 1.1894c-1.7237-0.33196-2.4363 1.7902-1.0625 3.1641 1.0482 1.0482 2.8125 0.15503 2.8125-1.4238 0-0.77163-0.7875-1.5549-1.75-1.7402zm-31.25 1.8106c-0.93333 0-1.5 0.94444-1.5 2.5s-0.56667 2.5-1.5 2.5c-0.825 0-1.5 0.675-1.5 1.5s0.675 1.5 1.5 1.5c1.1609 0 1.5 1.3119 1.5 5.8008 0 3.19 0.53922 6.34 1.1992 7 1.4493 1.4493 6.8008 1.6059 6.8008 0.19922 0-0.55-0.64202-1-1.4277-1-4.8774 0-6.8184-11.586-2.041-12.184 3.204-0.40055 3.6981-2.2136 0.71875-2.6367-1.6285-0.23129-2.25-0.99088-2.25-2.75 0-1.4937-0.57811-2.4297-1.5-2.4297zm102 0c-0.93333 0-1.5 0.94444-1.5 2.5s-0.56667 2.5-1.5 2.5c-0.825 0-1.5 0.675-1.5 1.5s0.675 1.5 1.5 1.5c1.1609 0 1.5 1.3119 1.5 5.8008 0 3.19 0.53922 6.34 1.1992 7 1.4493 1.4493 6.8008 1.6059 6.8008 0.19922 0-0.55-0.88419-1-1.9648-1-2.5675 0-4.0352-2.8852-4.0352-7.9336 0-3.6701 0.24326-4.0664 2.5-4.0664 1.5556 0 2.5-0.56667 2.5-1.5 0-0.83333-0.88889-1.5-2-1.5-1.4667 0-2-0.66667-2-2.5 0-1.5556-0.56667-2.5-1.5-2.5zm12.861 0c-0.78542 0-1.3613 1.0576-1.3613 2.5 0 1.5556-0.56667 2.5-1.5 2.5-0.825 0-1.5 0.675-1.5 1.5s0.39506 1.5 0.87695 1.5 1.0781 2.4478 1.3262 5.4394c0.2481 2.9917 1.0337 6.1417 1.7461 7 1.4484 1.7452 5.5991 2.1003 6.5508 0.56055 0.33992-0.55-0.21777-1-1.2402-1-3.0192 0-4.2598-2.0952-4.2598-7.1992 0-4.4533 0.18056-4.8008 2.5-4.8008 1.5556 0 2.5-0.56667 2.5-1.5 0-0.95115-0.95801-1.5-2.6172-1.5-2.2518 0-2.55-0.34853-2.1387-2.5 0.32047-1.6764 0.0301-2.5-0.88281-2.5zm25.066 4.0352c-5.4689 1.0342-9.7109 9.8409-4.4844 15.404 2.8158 2.9973 12.057 3.8579 12.057 1.123 0-1.0781-0.85532-1.298-3.4258-0.88086-2.8529 0.46297-3.8992 0.0762-6.25-2.3125l-2.8242-2.8691 3-0.26367c10.029-0.88277 12.328-3.4079 7.5-8.2363-1.7902-1.7902-3.7493-2.3096-5.5723-1.9648zm-93.678 0.8457c-9.8548-0.9341-12.803 6.1102-4.082 9.7539 4.8579 2.0298 4.2164 4.8413-1.125 4.9316-2.1563 0.0364-4.0974 0.59895-4.3144 1.25-0.26501 0.79505 1.0868 1.1836 4.1172 1.1836 8.3962 0 10.256-5.7106 3.1543-9.6856-5.0596-2.8321-5.1517-4.7193-0.25-5.125 3.4632-0.28662 5.3592-2.0376 2.5-2.3086zm37 0.0137c-3.5529 0.21513-1.6104 2.0014 2.5 2.2988 5.6558 0.40921 7.1639 4.8066 1.6484 4.8066-5.5105 0-9.0386 5.4594-5.6914 8.8066 0.70413 0.70413 3.4114 1.1156 6.5 0.98633l5.293-0.22269v-7.1621c0-8.8633-1.2856-10.056-10.25-9.5137zm-52.25 0.10544c-1.2157 0-1.5 1.6111-1.5 8.5s0.28431 8.5 1.5 8.5 1.5-1.6111 1.5-8.5-0.28431-8.5-1.5-8.5zm110.24 1.5801c1.7545 0.17551 3.2636 1.2859 3.2578 3.2051-4e-3 1.2851-0.97173 1.7689-3.8652 1.9316-4.5188 0.25412-5.4045-0.33237-4.1211-2.7305 0.97523-1.8222 2.974-2.5818 4.7285-2.4062zm-73.426 0.59765c5.087-0.58329 7.621 5.3454 4.6543 10.889-1.2182 2.2762-6.7408 2.6828-7.5566 0.55664-1.6566-4.317 0.069-11.12 2.9024-11.445zm20.4 6.6172c1.7557 0.0963 3.1924 0.94348 2.7207 2.4551-0.3862 1.2375-1.203 2.5802-1.8164 2.9844-3.1862 2.099-7.1657-0.33643-5.5332-3.3867 0.79937-1.4936 2.8732-2.149 4.6289-2.0527zm65.918 3.2051c-1.9446 0-2.9674 1.6749-2.2168 3.6309 0.81433 2.1221 3.0202 1.178 3.4082-1.459 0.20769-1.4115-0.20964-2.1719-1.1914-2.1719zm451.33 131.01c1.0458 0.082 2.3385 0.29973 3.9648 0.625l3.1758 0.63476-0.16992 22.598c-0.0937 12.429-0.39077 23.168-0.65821 23.865-0.74675 1.946-1.0237 1.7213-12.971-10.531l-11.201-11.486 3.332-4.1074c3.6141-4.4553 7.5841-11.909 9.5098-17.857 0.97284-3.0049 1.8801-3.9861 5.0176-3.7402zm-645.96 0.13281h5.498c5.136 0 5.542 0.17787 6.1445 2.6797 1.0044 4.1706 5.8563 13.368 9.7246 18.436l3.5098 4.5977-9.5977 9.3222c-5.2789 5.127-10.427 10.11-11.439 11.072-3.5049 3.3325-4.5645-0.423-4.1641-14.75 0.1691-6.05 0.31181-15.58 0.31641-21.178zm326.59 27.053 16.303 7.9024 16.305 7.9023h19.307l-0.3457 5-0.34766 5-7.6523 0.096c-7.9106 0.099-16.993 0.087-20.885-0.029-1.5811-0.047-2.4233-0.8674-2.8906-2.8164-4.9867-20.797-33.779-21.541-39.836-1.0293l-1.1934 4.041-15.287 0.1602c-16.893 0.1765-16.374 0.3907-15.875-6.5586l0.3125-4.3653h22l15.043-7.6503zm-299.72 0.6367 5.3496 4.0391c4.6497 3.5106 12.307 7.5317 18.037 9.4727 1.3965 0.4731 1.75 1.7613 1.75 6.375v5.7812h-20.75c-31.858 0-31.102 0.69-15.797-14.41zm598.68 0.2266 11.74 11.674c10.192 10.135 11.505 11.809 9.9746 12.69-1.6307 0.9388-32.937 1.5004-43.012 0.7715l-4.25-0.3086v-10.471l5.6523-1.92c5.8659-1.9939 13.014-6.1645 17.371-10.135zm-297.61 9.332c6.6774 0.7453 13.027 5.3306 15.504 13.359l0.69336 2.25h-17.566c-19.269 0-19.186 0.031-16.104-5.9297 3.7902-7.3294 10.795-10.425 17.473-9.6797zm119.81 5.3809c36.162-0.1491 84.538-0.1494 107.5 0l41.75 0.2715v10.457h-96.25c-52.938 0-101.31-0.1276-107.5-0.2832l-11.25-0.2832v-9.8926zm-288.75 0.2012c56.925 0 105.44-3e-4 107.8 0.01l4.3027 0.018-0.30274 5.1445-0.30273 5.1387-214.59 0.2129-0.5293-2.1113c-0.2915-1.1614-0.38505-3.527-0.20703-5.2559l0.32422-3.1445z"/>
</svg>
