<?xml version="1.0" encoding="UTF-8"?>
<!-- Created with Inkscape (http://www.inkscape.org/) -->
<svg width="822" height="1122" version="1.1" viewBox="0 0 822 1122" xmlns="http://www.w3.org/2000/svg">
 <path d="m408 78-320 0.26-3.2 3c-1.7 1.6-3.6 3.8-4.1 4.8-2.1 3.9-1.3 937 0.84 941 1 1.8 3.8 4.2 6.2 5.4l4.4 2.2 636-0.43 3.6-2.5c2-1.3 4.3-3.7 5.2-5.1 1.4-2.4 1.6-45 1.6-471l-2e-3 -469-3-3.4c-1.6-1.9-4.2-3.9-5.7-4.5-2-0.84-86-1.1-322-0.87zm23 2.8h15c17 0 16-0.55 15 5.9l-0.35 5.1h-20l-15 7.5c-18 8.9-14 8.9-31 0.19l-14-7.2-23-1v-10l15-2e-3c13-0.0015 15 0.25 16 1.5 3.1 11 12 18 23 17 8.7-0.72 14-5.1 18-15zm-306 0.0098c11 0.094 10 1.3 10 6.5 0 3.3-0.43 5.5-1.1 5.5-2.3 0-18 8.2-20 11-2.3 2.5-4.5 3.2-5.1 1.7-0.18-0.43-5.1-5.4-11-11-14-13-14-13 12-13 6.4-0.1 11-0.2 15-0.16zm555 0.078v11c-72 0.44-143 0.45-215 0.0059l-0.35-5c-0.45-6.5-13-5.8 109-5.9zm-542 0.41h215l0.24 10c-53 0.25-107 0.46-160 0.24-60-0.29-55 0.4-55-7.3zm545 0h23c14 0 23 0.38 24 1 0.71 0.71-2.5 4.5-10 12l-11 11-3-2.5c-4.6-3.8-11-7.7-17-9.6l-5-1.7v-5.3zm-274 0.5c9.6 0 18 0.24 18 0.54 0 3.5-5.6 10-11 13-7.6 3.9-19-0.25-23-8.6-2.5-4.8-2.4-4.8 16-4.8zm-325 5.6c0.96-0.99 9 5.7 18 15l6 6.1-2.6 2.8c-3.8 4-7.9 11-9.9 17l-1.8 5-5.6 0.3c-4 0.22-5.6-0.065-5.7-1-0.54-5.1 0.47-44 1.2-45zm650 0.029c2.1 0.66 1.9 7.4 2.1 23l0.32 23h-5.5c-6.1 0-5.8 0.16-7.6-5.5-1.5-4.8-5.3-12-9.1-17l-2.8-3.6 11-11c5.2-5.2 8.3-8.6 10-9.3 0.39-0.15 0.73-0.17 1-0.08zm-302 6.4c-0.28 0-0.5 0.22-0.5 0.5s0.22 0.5 0.5 0.5 0.5-0.22 0.5-0.5-0.22-0.5-0.5-0.5zm208 19c13 0.13 27 4.8 38 15 33 29 21 85-21 99-38 12-78-18-75-59 1.8-34 30-55 59-55zm-505 1.2c3.5 0.36 13 2.7 15 3.4 0.19 0.12-0.48 1.7-1.5 3.5-1 1.8-1.9 3.5-2 3.6-0.073 0.16-1.8-0.85-3.9-2.2-4.2-2.9-11-3.4-14-1.2-3.3 2.4-1.2 4.4 5.2 5.1 18 2 23 16 7.5 20-6.4 1.9-16 0.45-22-3.4-0.17-0.11 0.42-1.9 1.3-4.1l1.6-3.9 1.7 2.2c3.6 4.7 17 5.2 19 0.76 0.87-2.3-1.8-3.5-10-4.5-19-2.3-16-22 2.9-20zm181 5.3v7l-18-0.64v2.7c0 2.7 0.046 2.7 6 2.3l6-0.43v6.3l-12-0.87v6.4l19-0.69-2e-3 3.2c-4.2e-4 1.8-0.34 3.2-0.75 3-0.41-0.11-6.8-0.45-14-0.75-7.4-0.3-13-0.91-12-1.4 1.5-1 1.8-21 0.24-24-0.96-1.8-0.36-1.9 13-2.2zm5.5 0.41 10 0.15c17 0.25 25 8.9 14 15-3 1.5-2.8 2.6 1.7 8l3.5 4.3h-5.6c-3.5 0-5.4-0.38-5-0.99 1.3-2.1-5.4-10-8.5-10-3.2 0-4.5 7.1-1.8 9.8 0.93 0.93 0.1 1.2-3.8 1.2h-4.9v-14zm-167 0.088 4.9 2e-3c3.7 5.4e-4 4.7 0.33 4.3 1.4-0.44 1.2 12 15 13 15 0.81-4e-5 0.5-13-0.35-15-0.59-0.93 0.31-1.2 3.5-1.2l4.3-2e-3v27h-4.7c-3.5 8.4e-4 -4.6-0.34-4.2-1.3 0.37-0.97-13-15-14-15-0.43-2e-3 0.21 13 0.71 15 0.43 1.1-0.4 1.4-3.7 1.4h-4.2v-14zm105 0 8.5 0.025c15 0.043 19 2 19 8.6 0 5.3-3.6 7.4-13 7.4h-7.5l0.68 11-8-4e-3v-14zm-20 2e-3c16 0 22 20 7.4 26-13 5.8-26-3.8-23-16 1.9-6.5 7.1-9.9 15-9.9zm-33 0.043c4.8 0.36 9.3 2.4 12 6.4 4.3 7 1.4 16-6.3 20-12 5.6-24-2-23-15 0.64-7.5 9.2-12 17-11zm431 0.68c-11 0.43-22 4.5-32 13-31 27-18 79 23 89 25 5.7 52-9.8 60-34 12-38-19-69-51-68zm3 3.7c8 0.34 16 2.6 25 6.9 31 15 28 67-4.4 84-48 24-93-38-56-76 9.7-10 22-15 35-14zm-435 0.6c-6.7 0-11 9.7-6.1 15 5.1 5.4 15 1.4 15-6.1 0-3.9-4.8-8.6-8.8-8.6zm35 0.28c-7.1-0.5-12 8.9-6.4 15 1.3 1.3 3.3 2 6 2 9.5 0 12-12 3.6-16-1.1-0.51-2.1-0.78-3.1-0.86zm34 0.92c-6.1-0.29-6.2-0.25-6.2 2.3s0.11 2.6 6.2 2.3c5.5-0.26 6.2-0.54 6.2-2.3s-0.77-2-6.2-2.3zm62 2e-3c-6.7-0.29-6.8-0.27-6.8 2.3s0.077 2.6 6.8 2.3c6-0.26 6.8-0.52 6.8-2.3s-0.77-2-6.8-2.3zm-252 11 11 0.58-2e-3 327c-2.4e-4 180-0.0064 368-0.016 419l-0.018 92h-5c-4.1 0-5-0.32-5-1.8-0.027-0.96-0.14-190-0.25-419zm642 0.084h11l-0.074 838h-11v-419zm-105 9c-13 0.27-11 2.2-11 13 0.053 19 9.9 38 25 48 6 4.1 4.8 4 11 0.36 18-11 26-30 25-56l-0.2-6.2h-29c-8.6 0-15-0.094-19-4e-3zm19 11c2.4 0.35 4.8 5.5 10 16 2.5 4.9-0.25 12-5.5 15-12 5.7-21-5.4-14-18 4.8-8.9 7.1-13 9.4-13zm-543 20h240c230 0 240 0.074 240 1.8 0 66 110 71 121 4.9l1.2-6.7h23l-0.5 804-3.8 7.7c-5.3 11-14 19-25 25l-8.3 4.2h-245l-15-7.5c-8.3-4.1-15-7.5-16-7.5s-7.3 3.4-16 7.5l-15 7.5-244-0.022-8.4-4.1c-11-5.6-20-14-25-25l-4.1-8.4-0.012-328c-0.0064-180-0.0028-361 0.0078-401zm138 70c-127 0.022-116 0.82-120 4.7-7.5 6.7-6.9-7-6.9 170l0.037 160 2.1 4.4c2.3 4.7 6.1 8 12 10 2.9 1.1 58 1.3 290 1.1l287-0.21 4.8-3c3.2-2 5.6-4.5 7.2-7.4l2.3-4.4-0.52-322-2.3-3.3c-1.3-1.8-3.9-4.5-5.9-6l-3.6-2.7c-155-0.056-310-0.43-466-0.43zm-96 1.6c4.8-0.16 10-0.1 17 4e-3 7.4 0.12 16 0.31 26 0.31 0 0 64-9e-5 143-9e-5h172c46 0 143 6e-3 143 6e-3 80 8e-3 71-12 71 92 0.42 53 0.18 105-0.023 158 0.3 91 0.42 90-13 94-6.3 1.7-219 1.1-344 1.1-245-0.046-232 0.23-237-5.1-5.5-5.2-5.3-1.4-5.3-87v-160c0-80-5.3-92 28-93zm460 69c-3 0-3 2e-3 1.5 2.9 9.6 6.1 19 24 19 37 0.12 7.3 0.65 8.2 2.5 4.2 5.8-13-11-44-23-44zm-11 5.3c-2.5 0.42-4.4 1.8-4.4 3.9 0 0.59 0.76 0.73 1.8 0.33 3.6-1.4 9-1.7 11-0.54 3.6 1.9 3.6 0.32-0.078-1.9-2.7-1.6-5.9-2.2-8.5-1.7zm2.7 7.6-34 17 5.3 7.3c8.2 11 10 24 12 24 12-5.9 23-12 35-19 2-14-5.3-24-17-29zm19 8.6c0 0.65 1 0.65 1 0s-1-0.65-1 0zm1.4 1.7c-0.24 0.24 0.21 2.3 1 4.5 3.8 11 2.4 18-4.3 21-1.8 0.97-3.6 2.1-4 2.5-0.36 0.39 1.5 0.48 4.2 0.19 5.8-0.62 6.3-1.3 7.1-9.2 0.58-5.6-2.6-21-4.1-19zm-68 4.8c-2.8 0-2.7 0.23 4.1 6.8 10 9.6 15 21 16 33 0.49 9.3 1.8 11 4 4 4.4-13-12-44-24-44zm-5.6 8c-1.1 0.12-0.64 1.7 2.2 4.8 9.5 10 15 21 15 31 0.12 2.9 0.61 5.4 1.1 5.4 5.5 0.054-3.7-29-12-37-3.1-3-5.6-4.4-6.7-4.2zm-11 1c-7.1 0-138 66-247 120 11 11 22 29 27 54 61-33 240-124 243-127 7.3-8.8-11-46-23-46zm1.3 26c4.7-0.18 5.8 2.8 7.9 7.4 4.7 9.8 5.2 9.4-49 38-24 13-54 28-66 35-29 15-35 15-39 1.1-2.7-10-6.4-7.5 72-47 49-25 67-34 74-34zm-1.6 5.4c-6.6 0.71-24 9.2-70 32-76 38-74 37-68 46 3.7 5.3-3 8.5 112-52 31-16 30-16 30-21-0.54-3.7-0.77-6.1-4.7-5.7zm-171 81c9.8 0.1 15 12 7.3 20-3.1 3-9.1 4.2-13 2.7-8.8-3.8-8.1-19 0.97-22 1.5-0.52 3-0.74 4.4-0.73zm-1.3 4.6c-1.2 0.23-2.4 0.83-3.4 1.8-2.4 2.4-2.6 7.7-0.35 10 3.8 4.2 11 0.39 11-5.8 0-4.3-3.9-6.9-7.6-6.2zm-80 9.2c-0.91-0.23-1.7-0.16-2.5 0.22l-2.8 1.5c9.9 12 18 26 23 42 1.9 8 1.9 8 6 5.6l3-1.7-3.3-9.7c-6.8-20-17-36-23-38zm-12 2.3-26 26c3.9 5.7 13 32 19 32 4.2-0.74 32-3.6 33-4.6-3.5-19-16-37-26-53zm60 0.4c6.1-0.67 13 3.3 13 11-5e-3 4.7-3.1 10-6.6 11-11 4.1-19-4.9-15-15 1.7-4 5.2-6.1 8.8-6.5zm1.1 4.5c-1.3 0.14-2.7 0.71-3.8 1.8-4.1 4.1-3.3 9.7 1.4 11 4.4 1.6 8.2-0.74 9.5-5.9 1.1-4.4-3.1-7.8-7.2-7.4zm-87 34c-0.29 0.13-0.62 0.44-1.1 0.82-2 1.7-1.9 7.9 0.13 10 0.98 1.1 3 1.8 5 1.8h3.4l-3.1-6.2c-2.9-5.7-3.4-7-4.3-6.6zm492 456c1 0.082 2.3 0.3 4 0.62l3.2 0.63-0.17 23c-0.094 12-0.39 23-0.66 24-0.75 1.9-1 1.7-13-11l-11-11 3.3-4.1c3.6-4.5 7.6-12 9.5-18 0.97-3 1.9-4 5-3.7zm-646 0.13h5.5c5.1 0 5.5 0.18 6.1 2.7 1 4.2 5.9 13 9.7 18l3.5 4.6-9.6 9.3c-5.3 5.1-10 10-11 11-3.5 3.3-4.6-0.42-4.2-15 0.17-6 0.31-16 0.32-21zm327 27 33 16h19l-0.7 10-7.7 0.096c-7.9 0.099-17 0.087-21-0.029-1.6-0.047-2.4-0.87-2.9-2.8-5-21-34-22-40-1l-1.2 4-15 0.16c-17 0.18-16 0.39-16-6.6l0.31-4.4h22l15-7.7zm-300 0.64 5.3 4c4.6 3.5 12 7.5 18 9.5 1.4 0.47 1.8 1.8 1.8 6.4v5.8h-21c-32 0-31 0.69-16-14zm599 0.23 12 12c10 10 12 12 10 13-1.6 0.94-33 1.5-43 0.77l-4.2-0.31v-10l5.7-1.9c5.9-2 13-6.2 17-10zm-298 9.3c6.7 0.75 13 5.3 16 13l0.69 2.2h-18c-19 0-19 0.031-16-5.9 3.8-7.3 11-10 17-9.7zm120 5.4c36-0.15 85-0.15 108 0l42 0.27v10h-96c-53 0-101-0.13-108-0.28l-11-0.28v-9.9zm-289 0.2c57 0 105-3e-4 108 0.01l4.3 0.018-0.6 10-215 0.21-0.53-2.1c-0.29-1.2-0.39-3.5-0.21-5.3l0.32-3.1z"/>
 <text x="108.44301" y="211.28497" fill="#000000" font-family="Sans" font-size="43px" stroke="#000000" stroke-linejoin="round" xml:space="preserve"><tspan x="108.44301" y="225" font-size="43px">Defense - Poison</tspan></text>
 <text x="109.54922" y="641.48187" fill="#000000" font-family="Sans" font-size="36px" stroke="#000000" stroke-linejoin="round" xml:space="preserve"><tspan x="109.54922" y="641.48187">Play as part of your Battle Plan.</tspan><tspan x="109.54922" y="678.1485"/><tspan x="109.54922" y="714.81512">Protects your leader from enemy </tspan><tspan x="109.54922" y="751.48175">poison weapon in this battle.</tspan><tspan x="109.54922" y="788.14838"/><tspan x="109.54922" y="824.815">You may keep this card if you win in </tspan><tspan x="109.54922" y="861.48163">this battle. </tspan></text>
</svg>
