<?xml version="1.0" encoding="UTF-8" standalone="no"?>
<!-- Created with Inkscape (http://www.inkscape.org/) -->

<svg
   width="822"
   height="1122"
   version="1.1"
   viewBox="0 0 822 1122"
   xml:space="preserve"
   id="svg10"
   sodipodi:docname="Distrans (Full Res).svg"
   inkscape:version="1.4 (86a8ad7, 2024-10-11)"
   xmlns:inkscape="http://www.inkscape.org/namespaces/inkscape"
   xmlns:sodipodi="http://sodipodi.sourceforge.net/DTD/sodipodi-0.dtd"
   xmlns="http://www.w3.org/2000/svg"
   xmlns:svg="http://www.w3.org/2000/svg"><defs
     id="defs10" /><sodipodi:namedview
     id="namedview10"
     pagecolor="#ffffff"
     bordercolor="#000000"
     borderopacity="0.25"
     inkscape:showpageshadow="2"
     inkscape:pageopacity="0.0"
     inkscape:pagecheckerboard="0"
     inkscape:deskcolor="#d1d1d1"
     inkscape:zoom="1"
     inkscape:cx="414"
     inkscape:cy="378"
     inkscape:window-width="1742"
     inkscape:window-height="1360"
     inkscape:window-x="1882"
     inkscape:window-y="325"
     inkscape:window-maximized="0"
     inkscape:current-layer="svg10" /><path
     d="m 89,1000 c -4.5,-1.3 -6.7,-2.9 -8.9,-6.5 L 77.9,990 77.953,529 c 0.029,-254 0.072,-465 0.096,-469 0.042,-7.1 0.16,-7.4 4,-12 l 3.9,-4.2 320,-0.26 c 237,-0.19 321,0.035 323,0.87 1.5,0.62 4.1,2.7 5.7,4.5 l 3,3.4 -0.002,469 c -0.002,460 -0.037,469 -1.9,472 -1.1,1.7 -3.4,4 -5.2,5.1 -3.5,2.1 -634,3.6 -641,1.5 z m 44,-8.3 c 0,-4.6 -0.35,-5.9 -1.8,-6.4 -5.7,-1.9 -13,-6 -18,-9.5 l -5.4,-4 -11,11 c -15,15 -16,14 16,14 h 21 z m 219,0.45 0.3,-5.2 -4.3,-0.017 c -2.4,-0.01 -51,-0.012 -108,-0.01 l -104,0.012 -0.32,3.1 c -0.18,1.7 -0.085,4.1 0.21,5.3 l 0.53,2.1 215,-0.15 z m 36,1.1 c 6,-20 35,-20 40,1 0.47,1.9 1.3,2.8 2.9,2.8 3.9,0.12 13,0.13 21,0.03 l 7.7,-0.096 0.69,-10 h -19 l -33,-16 -30,15 h -22 l -0.31,4.4 c -0.51,7 -1,6.8 16,6.6 l 15,-0.2 z m 290,-0.96 -10e-6,-5.2 -42,-0.27 c -23,-0.15 -71,-0.15 -108,-6e-4 l -66,0.27 v 4.9 c 0,6.2 -13,5.5 110,5.5 h 105 z m 50,4.1 c 1.6,-0.92 0.38,-2.5 -10,-13 l -12,-12 -2.5,2.3 c -4.5,4.1 -12,8.6 -18,10 l -5.3,1.7 v 5.2 c 0,4.7 0.24,5.3 2.2,5.6 5.8,0.83 43,0.18 45,-0.77 z m -304,-1.7 c -5,-16 -25,-18 -33,-3.7 -3.1,6 -3.2,5.9 16,5.9 h 18 z m 309,-3 c 1.7,-4.3 0.77,-47 -0.97,-47 -0.99,-0.021 -3.4,-0.28 -5.5,-0.57 -3.5,-0.51 -3.7,-0.38 -4.9,3.3 -2,6 -5.9,13 -9.6,18 l -3.4,4.1 11,11 c 12,12 12,12 13,11 z m -648,-1.5 c 1,-0.96 6.2,-6 11,-11 l 9.6,-9.3 -3.9,-5.2 c -4.2,-5.6 -8.4,-14 -9.4,-18 -0.6,-2.5 -1,-2.7 -6.1,-2.7 h -5.5 l -0.029,10 c -0.016,5.6 -0.092,15 -0.17,22 -0.18,15 0.55,18 4,14 z m 307,-15 c 8.3,-4.1 15,-7.5 16,-7.5 1,0 7.3,3.4 16,7.5 l 15,7.5 h 245 l 8.3,-4.2 c 11,-5.4 19,-14 25,-25 l 3.8,-7.7 0.51,-804 h -23 l -1.2,6.7 c -11,65 -111,63 -121,-2.2 l -0.68,-4.5 h -480 l -0.016,74 c -0.0088,41 -0.015,221 -0.014,400 l 0.0023,327 2.1,5.6 c 4.9,13 14,23 27,30 l 7.9,4 h 245 z m -301,-41 c 0.0089,-3.4 0.022,-192 0.03,-419 l 0.014,-412 -11,-0.58 0.2,417 c 0.11,230 0.22,418 0.25,419 0.037,1.4 0.97,1.8 5,1.8 h 5 z m 643,-413 0.027,-419 h -11 v 838 h 11 z m -84,-328 c 31,-6 52,-43 42,-74 -19,-61 -110,-49 -113,14 -2.1,39 31,67 71,60 z m -57,-83.3 c 28,-43 94,-24 94,28 0,34 -30.8498,54.43084 -57.92096,49.64032 C 599.52799,184.64147 571.37318,150.5744 593,109.89 Z m 65,70.7 c 38,-19 35,-74 -5.4,-88 -15,-5 -24,-4.2 -40,3.8 -8.2,4 -20,19 -21,27 -0.31,1.7 -0.84,3.6 -1.2,4.2 -2.1,3.5 -0.76,20 2.2,27 0.73,1.6 2.1,4.6 2.9,6.6 9.2,20 41,30 63,19 z m -563,-87 c 2,-5.8 6.1,-13 9.9,-17 l 2.6,-2.8 -11,-11 c -14,-13 -14,-13 -14,-0.13 -0.0087,5.4 -0.065,15 -0.12,21 -0.16,17 -0.75,15 5.7,15 l 5.6,-0.3 z m 640,-18 c -0.38,-28 0.58,-27 -13,-13 l -12,12 2.6,2.8 c 3.3,3.6 8,12 9.6,17 1.8,5.7 1.6,5.5 7.6,5.5 h 5.5 z m -310,-11 15,-7.5 h 20 l 0.35,-5.1 c 0.44,-6.5 1.9,-5.9 -15,-5.9 h -15 l -1.5,3.8 c -3.9,9.9 -9.1,14 -18,15 -11,0.89 -20,-5.7 -23,-17 -0.38,-1.3 -2.8,-1.5 -16,-1.5 l -15,0.05 v 10 l 23,1 14,7.2 c 17,8.7 13,8.8 31,-0.2 z m -310,2.5 c 2.9,-2.2 8.3,-5.2 12,-6.7 l 6.8,-2.7 v -5.3 c 0,-6.8 0.7,-6.6 -25,-6.2 -26,0.43 -26,0.015 -12,13 5.8,5.6 11,11 11,11 0.63,1.4 2.1,0.75 7.4,-3.3 z m 614,-19 c -0.65,-0.65 -9.4,-1 -24,-1 h -23 v 11 l 5,1.7 c 5.5,1.9 12,5.7 17,9.6 l 3,2.5 11,-11 c 7.7,-7.7 11,-11 10,-12 z m -314,13 c 5.1,-2.6 11,-9.3 11,-13 0,-0.3 -7.9,-0.54 -18,-0.54 -19,0 -19,0.02 -16,4.8 4.3,8.3 15,12 23,8.6 z m -62.4,-3.42 -0.24,-10 h -215 l -0.1,3.5 c -0.22,7.7 -5.5,7 55,7.3 30,0.14 74,0.16 98,0.029 24,-0.131 48,-0.24 53,-0.25 z m 281.4,0.02033 45,-0.021 v -11 l -106,0.037 c -122,0.043 -109,-0.62 -109,5.9 l 0.35,5 c 57,0.7 113,0.09 170,0.042 z m -0.21592,508.68834 c -0.17444,-0.17439 -116.2245,-0.40341 -257.88904,-0.50892 -237.54693,-0.17694 -257.80899,-0.32281 -260.62181,-1.87636 -3.81826,-2.10887 -6.86313,-5.42671 -9.19621,-10.02064 -1.70803,-3.3632 -1.8238,-12.38599 -2.06992,-161.32756 -0.22351,-135.26344 -0.0511,-158.43101 1.20864,-162.43392 1.64118,-5.21485 6.46105,-10.74413 11.06411,-12.69256 2.43472,-1.0306 59.81365,-1.19389 288.21845,-0.8202 156.84819,0.25661 286.67516,0.69631 288.50437,0.9771 3.87609,0.59499 9.79241,5.45453 12.14572,9.97623 1.49573,2.87394 1.62085,17.55983 1.39602,163.85759 -0.13584,88.38539 -0.62481,161.69565 -1.0866,162.91169 -1.28938,3.39531 -6.0107,8.59311 -9.54805,10.51164 -2.78096,1.5083 -6.88538,1.72866 -32.49576,1.74466 -16.12202,0.0101 -29.45548,-0.12436 -29.62992,-0.29875 z m 62.18448,-4.70028 c 1.78298,-1.0801 4.36728,-4.05728 5.74287,-6.61595 l 2.50108,-4.65213 0.35699,-158.81492 c 0.3394,-150.98936 0.26712,-159.01451 -1.46689,-162.86534 -1.00314,-2.22772 -3.48568,-5.19052 -5.51677,-6.58399 l -3.69288,-2.53357 -59.54842,-0.18008 c -32.75163,-0.099 -162.28714,-0.32806 -287.85669,-0.50892 l -228.30826,-0.32884 -3.75571,2.5446 c -2.06564,1.39953 -4.6725,4.42459 -5.79302,6.72237 -2.25532,4.62481 -2.06908,-18.31582 -1.94091,239.08585 0.0248,49.80204 0.42026,80.83423 1.06106,83.26252 1.26765,4.8037 4.35343,8.46791 9.24646,10.97971 3.65444,1.87598 9.49252,1.92575 212.77971,1.81371 114.9622,-0.0634 209.19324,0.0545 209.40231,0.26181 0.20907,0.20735 34.84274,0.377 76.96371,0.377 73.85165,0 76.69921,-0.07 79.82536,-1.96383 z M 413.88187,522.84995 C -1,-1 -1,-1 413.88187,522.84995 Z m 8.41841,-7.19236 c -5.6888,0 -5.76702,-1.43589 -4.31417,-20.37398 1.40032,-18.25318 1.2436,-19.12661 -2.3652,-13.18162 -2.12568,3.50178 -3.90546,11.81054 -3.95504,18.46392 -0.078,10.46756 -0.79265,12.09705 -5.30526,12.09705 -6.37369,0 -18.14622,-5.88023 -22.65194,-11.31437 -2.85372,-3.44173 -1.65564,-5.56589 8.45452,-14.9897 6.47867,-6.03886 11.7794,-12.33219 11.7794,-13.98519 0,-4.51216 -1.21592,-3.88817 -13.99405,7.18154 -6.46754,5.60285 -13.26679,10.18699 -15.10943,10.18699 -3.32435,0 -10.70387,-7.11331 -8.78858,-8.47153 0.54927,-0.38952 8.7272,-5.73679 18.17318,-11.88282 9.44598,-6.14604 17.17451,-12.10285 17.17451,-13.23736 0,-2.82531 -0.35751,-2.74459 -13.37801,3.02037 -9.55203,4.22926 -13.55981,4.68664 -23.85888,2.72284 -22.33762,-4.25927 -22.53266,-4.97615 -3.8933,-14.30975 17.23834,-8.63203 44.19355,-30.85436 53.79253,-44.34749 l 5.1487,-7.23744 -14.63036,-8.19748 c -8.0467,-4.50861 -15.07976,-8.60149 -15.62902,-9.0953 -2.14343,-1.92699 6.12948,-9.14972 14.79016,-12.91269 11.15512,-4.84676 6.6561,-7.26094 -6.6428,-3.56454 -17.09509,4.75155 -24.47908,3.43921 -35.95099,-6.38949 -5.84951,-5.01163 -10.63547,-9.97526 -10.63547,-11.03029 0,-1.05502 8.0802,-4.61923 17.956,-7.92047 9.87581,-3.30123 18.60645,-7.05565 19.40142,-8.34315 0.79498,-1.28751 -0.70166,-1.74519 -3.32586,-1.01708 -13.34811,3.70356 -24.63033,4.19303 -35.20657,1.52742 -9.73548,-2.45371 -12.76953,-4.76024 -17.98962,-13.67596 -3.4535,-5.89845 -6.27909,-11.90829 -6.27909,-13.35519 0,-1.4469 7.15604,-3.4366 15.90232,-4.42156 16.05678,-1.80822 44.78038,-7.82257 46.74346,-9.78748 0.58481,-0.58536 -7.02568,-1.06429 -16.9122,-1.06429 -10.81762,0 -23.50215,-1.88033 -31.85453,-4.72204 l -13.87905,-4.72204 v -10.98357 c 0,-6.04096 -2.78221,-17.83702 -6.18268,-26.21345 -13.23518,-24.82331 9.75825,-11.02447 25.25377,-6.15791 27.06147,8.53093 30.49958,9.02456 57.64904,8.27693 l 28.8713,-0.79504 -5.93646,11.86956 c -9.42022,18.83512 -9.77171,29.51181 -1.57346,47.797 7.5822,16.91117 26.6916,36.6159 33.11644,34.14815 1.98373,-0.76194 7.62389,-6.86285 12.53369,-13.55758 10.39211,-14.1701 26.80697,-29.57434 35.96539,-33.75109 5.13705,-2.34278 6.89732,-2.19346 8.88327,0.75358 3.65671,5.42634 0.10926,37.53213 -5.57735,50.4772 -7.83638,17.83884 -6.76662,22.09769 6.85888,27.30617 10.12379,3.86992 14.36252,4.11789 30.5326,1.78618 22.01828,-3.17502 32.93276,-10.1705 43.18301,-27.67756 l 6.70933,-11.4593 9.24972,15.65084 c 13.20132,22.33708 23.49141,33.51719 49.03781,53.27917 l 22.48417,17.39312 -10.78115,1.64708 c -13.53887,2.06839 -24.04371,5.93772 -33.13171,12.20369 -6.57056,4.53026 -7.5331,4.59017 -13.27232,0.82618 -12.54363,-8.22658 -24.5357,-20.3249 -30.86982,-31.14336 -3.578,-6.11108 -7.04629,-11.11107 -7.70732,-11.11107 -2.17983,0 2.10947,11.13201 13.59198,35.27529 6.2295,13.09821 10.70399,24.43788 9.94332,25.19925 -0.76066,0.76138 -6.94758,1.91951 -13.7487,2.57362 -11.21495,1.07862 -13.27025,0.39432 -22.08628,-7.35348 -5.34634,-4.69853 -12.49663,-14.2813 -15.88954,-21.29505 -5.81176,-12.01392 -6.08928,-12.23618 -4.79324,-3.83866 0.75663,4.90249 3.12522,14.48495 5.26353,21.29437 l 3.88783,12.38075 -12.04937,-1.70023 c -16.14667,-2.27838 -23.61249,-8.22333 -29.85856,-23.776 -7.10995,-17.70373 -8.35441,-18.20866 -8.12969,-3.29857 0.10614,7.0427 -0.53009,13.52867 -1.41386,14.41326 -0.88376,0.88459 -8.53583,-1.85735 -17.00459,-6.09318 -8.46875,-4.23584 -15.82835,-6.93771 -16.35465,-6.00416 -6.90125,12.2415 -11.99291,52.1453 -9.55921,74.91636 1.0105,9.4548 0.96733,17.19054 -0.0959,17.19054 -4.63172,0 -22.26211,-19.90145 -23.74072,-26.79889 -0.89397,-4.17021 -2.15961,-10.20765 -2.81253,-13.41653 -0.66114,-3.24926 -2.37279,-5.10088 -3.86308,-4.17898 -1.47176,0.91046 -2.11097,4.10893 -1.42046,7.10772 0.69051,2.99879 0.49704,12.32856 -0.42993,20.73283 -1.55138,14.06536 -2.09406,14.45499 -7.49925,14.45499 z M 220.96297,117.56548 c 7.57042,-2.88096 10.75822,-10.16575 6.33098,-14.46765 -1.80067,-1.74969 -7.28134,-4.365429 -12.17926,-5.81274 l -8.9053,-2.63147 9.97429,0.50818 c 5.4957,0.28 10.39786,-0.76371 10.91763,-2.32446 0.99714,-2.994219 -6.98012,-5.934939 -16.25753,-5.993142 -5.51253,-0.03458 -13.53969,5.984272 -13.53969,10.152212 0,4.79866 8.44025,10.18699 15.95685,10.18699 5.89327,0 7.21749,0.74345 5.09977,2.86315 -2.05164,2.05355 -5.01812,2.11028 -10.49106,0.20062 -6.10148,-2.12897 -7.91616,-1.91761 -9.05569,1.05474 -2.45699,6.40877 11.44029,10.33882 22.14901,6.26357 z m -45.43032,-5.85525 c 5.45813,-7.79985 4.95952,-18.8077 -1.12791,-24.900807 -3.95791,-3.961607 -8.48124,-5.093494 -20.35497,-5.093494 h -15.26623 v 17.827231 17.82723 h 16.39414 c 14.05689,0 16.95882,-0.80695 20.35497,-5.66016 z M 148.96102,99.54316 c 0,-9.933822 0.22011,-10.18699 8.85683,-10.18699 7.32319,0 9.13303,1.101494 10.45189,6.36117 2.53514,10.11023 -0.33998,14.01281 -10.32356,14.01281 -8.78644,0 -8.98516,-0.2253 -8.98516,-10.18699 z m 45.7987,2.54675 c 0,-13.582655 -0.56542,-15.280487 -5.08875,-15.280487 -4.52332,0 -5.08874,1.697832 -5.08874,15.280487 0,13.58265 0.56542,15.28048 5.08874,15.28048 4.52333,0 5.08875,-1.69783 5.08875,-15.28048 z m 55.97618,3.82012 c 0,-10.4877 0.53309,-11.46036 6.28108,-11.46036 4.53784,0 5.8746,-1.06023 4.81652,-3.820126 -1.07256,-2.797662 -5.47771,-3.820121 -16.45856,-3.820121 -11.63177,0 -14.99402,0.856622 -14.99402,3.820121 0,2.267386 2.33438,3.820126 5.74318,3.820126 5.24538,0 5.66424,0.99332 4.83254,11.46036 -0.81326,10.2349 -0.3391,11.46036 4.43431,11.46036 4.63851,0 5.34495,-1.51472 5.34495,-11.46036 z m 23.63658,6.36687 c -0.91646,-3.50781 -0.0781,-5.0935 2.69305,-5.0935 2.21309,0 5.24933,2.29207 6.74721,5.0935 1.49787,2.80142 4.97306,5.09349 7.72263,5.09349 6.01755,0 6.44702,-3.26714 1.02189,-7.7738 -3.60686,-2.99622 -3.60686,-3.51149 0,-5.53188 4.72668,-2.64765 5.19992,-9.91936 0.92409,-14.19919 -1.67929,-1.680853 -8.44739,-3.056097 -15.04024,-3.056097 h -11.98699 l -0.86209,15.285127 c -0.80228,14.22469 -0.48144,15.2848 4.62455,15.28048 4.2331,-0.004 5.1826,-1.16835 4.1559,-5.09813 z m -0.73723,-15.28049 c 0,-1.40071 3.50247,-2.54674 7.78327,-2.54674 4.54095,0 7.12821,1.06091 6.21077,2.54674 -0.86488,1.40071 -4.36735,2.54675 -7.78327,2.54675 -3.41593,0 -6.21077,-1.14604 -6.21077,-2.54675 z m 38.16558,16.3847 c 0,-2.84947 1.99918,-3.75904 6.99702,-3.18344 3.93536,0.45324 6.71869,2.19881 6.36093,3.98929 -0.37755,1.88952 2.0355,3.18343 5.93687,3.18343 3.61513,0 6.13063,-0.85953 5.59,-1.91006 -0.54063,-1.05053 -3.7847,-7.89974 -7.20905,-15.22046 -4.77317,-10.204281 -7.56205,-13.32441 -11.95094,-13.370425 -3.76742,-0.0395 -5.73531,1.463831 -5.75548,4.396786 -0.0169,2.451249 -2.81289,9.327459 -6.21341,15.280479 l -6.18276,10.82368 h 6.21341 c 3.94388,0 6.21341,-1.45714 6.21341,-3.98928 z m 5.08874,-11.4415 c 0,-1.48338 1.14497,-1.98876 2.54437,-1.12308 1.39941,0.86569 2.54437,2.07936 2.54437,2.69705 0,0.61769 -1.14496,1.12307 -2.54437,1.12307 -1.3994,0 -2.54437,-1.21367 -2.54437,-2.69704 z m 33.07684,7.29095 v -8.13983 l 8.39034,8.13983 c 13.16717,12.77404 17.05338,11.14679 17.05338,-7.14065 0,-13.846833 -0.50356,-15.280487 -5.36712,-15.280487 -4.67264,0 -5.22753,1.196703 -4.28841,9.248477 l 1.0787,9.24847 -8.46769,-9.24847 c -4.65723,-5.086662 -10.68249,-9.248477 -13.38948,-9.248477 -4.32739,0 -4.91297,1.845422 -4.84877,15.280487 0.0637,13.34267 0.69226,15.28048 4.95603,15.28048 3.79593,0 4.88302,-1.81214 4.88302,-8.13983 z m 58.38557,4.4825 c 4.69706,-5.6649 -0.8156,-13.22379 -11.89841,-16.31497 l -9.59377,-2.67586 9.40492,0.42478 c 10.61197,0.479297 15.21085,-2.34124 9.60418,-5.890316 -8.90501,-5.636963 -27.9144,-0.454781 -27.9144,7.609796 0,3.48149 7.26329,8.31433 15.918,10.59151 7.68534,2.02212 7.52083,2.10568 -2.38952,1.21375 -7.23301,-0.65098 -11.05949,0.12839 -11.94283,2.43247 -1.65391,4.31404 2.12246,5.81326 15.27731,6.06511 6.23985,0.11946 11.73275,-1.28324 13.53452,-3.45627 z m 221.06051,45.05115 c 6.24771,-4.38015 5.35902,-8.73936 -1.78165,-8.73936 -2.50209,0 -6.75289,-2.00556 -9.44621,-4.45681 -4.08029,-3.71355 -4.62985,-6.58038 -3.29531,-17.19054 0.88089,-7.00356 1.33829,-13.30675 1.01644,-14.00711 -0.32185,-0.70036 1.62704,-3.55189 4.33088,-6.33675 3.46945,-3.57342 4.4627,-3.88084 3.37539,-1.04472 -0.84736,2.21027 0.22889,5.48865 2.39168,7.28528 5.81827,4.83324 4.7972,10.67497 -2.94607,16.855 -6.46396,5.15899 -6.61874,5.74971 -2.56873,9.8035 4.05,4.05378 4.69444,3.89816 10.69498,-2.58257 3.51191,-3.79295 6.38529,-7.87496 6.38529,-9.07114 0,-5.13252 4.69407,-1.57613 6.37338,4.82869 1.83084,6.98276 1.84415,6.98654 4.4812,1.27337 3.76359,-8.15378 14.58914,-7.91273 14.58914,0.32486 0,3.33026 -1.70485,7.47124 -3.78854,9.20217 -2.0837,1.73094 -3.20999,4.08415 -2.50287,5.22936 0.70712,1.14521 0.20114,2.75311 -1.12439,3.5731 -1.32554,0.81999 -3.12924,0.32616 -4.00822,-1.0974 -2.3004,-3.7256 -6.38658,-3.18646 -6.38658,0.84265 0,1.88702 2.57617,4.67455 5.72483,6.19451 4.77418,2.30464 2.99011,2.79218 -10.74362,2.93592 -15.66264,0.16393 -16.18968,-0.0231 -10.77102,-3.82201 z m 29.36939,-24.18001 c -1.95807,-1.9599 -3.11069,-0.80621 -4.03624,4.04001 -1.1829,6.1937 -0.94467,6.43215 2.74074,2.7433 2.88362,-2.88632 3.25358,-4.82341 1.2955,-6.78331 z m -33.93456,-15.43215 c 0,-4.43371 -4.52664,-2.1147 -5.864,3.00413 -1.12312,4.29883 -0.71976,4.69991 2.24762,2.23491 1.98901,-1.65227 3.61638,-4.00984 3.61638,-5.23904 z"
     id="path1"
     sodipodi:nodetypes="cccccccccccsccccccccsscccccccccccccccccccccccccccccccssccccccccscccccsccccccccscccccscsccccccsccccccccccccccccccccccccccscccccccccccccsccccccsccccccccccccccccccsccccccsccccccccccccccsccccccscccccscccssccccccscsccccccccccssssssssssssssssscssscsscsssssssssccssssssssssssssssscsssssssssssssssscsccscsssssssssscsscsssssssssssscsssssssssssssssssscsssssssssssscccssssssssssssssssssssssssssssscscssssssssssssssscsssssssscsssscssssssscssssssss"
     inkscape:label="path1"
     style="display:inline" /><text
     transform="translate(-23.585787,-55.769552)"
     x="144.12617"
     y="663.52429"
     fill="#000000"
     font-size="29px"
     style="font-size:30.6667px;line-height:1.1;white-space:pre;inline-size:584.851;display:inline"
     xml:space="preserve"
     id="text9"><tspan
       x="144.12617"
       y="663.52429"
       id="tspan2">Give another player a Treachery Card </tspan><tspan
       x="144.12617"
       y="697.25769"
       id="tspan3">from your hand (if that player's hand </tspan><tspan
       x="144.12617"
       y="730.99109"
       id="tspan4">is not full). Play at any time (other </tspan><tspan
       x="144.12617"
       y="764.72448"
       id="tspan5">than during a bid). Discard after use.</tspan></text><text
     transform="translate(117.05112,192.71261)"
     fill="#000000"
     font-size="43px"
     style="font-size:40px;white-space:pre;shape-inside:url(#rect2);display:inline"
     xml:space="preserve"
     id="text10"><tspan
       x="0"
       y="0"
       id="tspan6">Special</tspan></text></svg>
