<?xml version="1.0" encoding="UTF-8"?>
<!-- Created with Inkscape (http://www.inkscape.org/) -->
<svg width="822" height="1122" version="1.1" viewBox="0 0 822 1122" xml:space="preserve" xmlns="http://www.w3.org/2000/svg"><path d="m89 1e3c-4.5-1.3-6.7-2.9-8.9-6.5l-2.2-3.5 0.053-461c0.029-254 0.072-465 0.096-469 0.042-7.1 0.16-7.4 4-12l3.9-4.2 320-0.26c237-0.19 321 0.035 323 0.87 1.5 0.62 4.1 2.7 5.7 4.5l3 3.4-2e-3 469c-2e-3 460-0.037 469-1.9 472-1.1 1.7-3.4 4-5.2 5.1-3.5 2.1-634 3.6-641 1.5zm44-8.3c0-4.6-0.35-5.9-1.8-6.4-5.7-1.9-13-6-18-9.5l-5.4-4-11 11c-15 15-16 14 16 14h21zm219 0.45 0.3-5.2-4.3-0.017c-2.4-0.01-51-0.012-108-0.01l-104 0.012-0.32 3.1c-0.18 1.7-0.085 4.1 0.21 5.3l0.53 2.1 215-0.15zm36 1.1c6-20 35-20 40 1 0.47 1.9 1.3 2.8 2.9 2.8 3.9 0.12 13 0.13 21 0.03l7.7-0.096 0.69-10h-19l-33-16-30 15h-22l-0.31 4.4c-0.51 7-1 6.8 16 6.6l15-0.2zm290-0.96-1e-5 -5.2-42-0.27c-23-0.15-71-0.15-108-6e-4l-66 0.27v4.9c0 6.2-13 5.5 110 5.5h105zm50 4.1c1.6-0.92 0.38-2.5-10-13l-12-12-2.5 2.3c-4.5 4.1-12 8.6-18 10l-5.3 1.7v5.2c0 4.7 0.24 5.3 2.2 5.6 5.8 0.83 43 0.18 45-0.77zm-304-1.7c-5-16-25-18-33-3.7-3.1 6-3.2 5.9 16 5.9h18zm309-3c1.7-4.3 0.77-47-0.97-47-0.99-0.021-3.4-0.28-5.5-0.57-3.5-0.51-3.7-0.38-4.9 3.3-2 6-5.9 13-9.6 18l-3.4 4.1 11 11c12 12 12 12 13 11zm-648-1.5c1-0.96 6.2-6 11-11l9.6-9.3-3.9-5.2c-4.2-5.6-8.4-14-9.4-18-0.6-2.5-1-2.7-6.1-2.7h-5.5l-0.029 10c-0.016 5.6-0.092 15-0.17 22-0.18 15 0.55 18 4 14zm307-15c8.3-4.1 15-7.5 16-7.5s7.3 3.4 16 7.5l15 7.5h245l8.3-4.2c11-5.4 19-14 25-25l3.8-7.7 0.51-804h-23l-1.2 6.7c-11 65-111 63-121-2.2l-0.68-4.5h-480l-0.016 74c-0.0088 41-0.015 221-0.014 400l0.0023 327 2.1 5.6c4.9 13 14 23 27 30l7.9 4h245zm-301-41c0.0089-3.4 0.022-192 0.03-419l0.014-412-11-0.58 0.2 417c0.11 230 0.22 418 0.25 419 0.037 1.4 0.97 1.8 5 1.8h5zm643-413 0.027-419h-11v838h11zm-84-328c31-6 52-43 42-74-19-61-110-49-113 14-2.1 39 31 67 71 60zm-57-83c28-43 94-24 94 28 0 34-31 54-58 50-30-2.9-58-37-36-78zm65 71c38-19 35-74-5.4-88-15-5-24-4.2-40 3.8-8.2 4-20 19-21 27-0.31 1.7-0.84 3.6-1.2 4.2-2.1 3.5-0.76 20 2.2 27 0.73 1.6 2.1 4.6 2.9 6.6 9.2 20 41 30 63 19zm-563-87c2-5.8 6.1-13 9.9-17l2.6-2.8-11-11c-14-13-14-13-14-0.13-0.0087 5.4-0.065 15-0.12 21-0.16 17-0.75 15 5.7 15l5.6-0.3zm640-18c-0.38-28 0.58-27-13-13l-12 12 2.6 2.8c3.3 3.6 8 12 9.6 17 1.8 5.7 1.6 5.5 7.6 5.5h5.5zm-310-11 15-7.5h20l0.35-5.1c0.44-6.5 1.9-5.9-15-5.9h-15l-1.5 3.8c-3.9 9.9-9.1 14-18 15-11 0.89-20-5.7-23-17-0.38-1.3-2.8-1.5-16-1.5l-15 0.05v10l23 1 14 7.2c17 8.7 13 8.8 31-0.2zm-310 2.5c2.9-2.2 8.3-5.2 12-6.7l6.8-2.7v-5.3c0-6.8 0.7-6.6-25-6.2-26 0.43-26 0.015-12 13 5.8 5.6 11 11 11 11 0.63 1.4 2.1 0.75 7.4-3.3zm614-19c-0.65-0.65-9.4-1-24-1h-23v11l5 1.7c5.5 1.9 12 5.7 17 9.6l3 2.5 11-11c7.7-7.7 11-11 10-12zm-314 13c5.1-2.6 11-9.3 11-13 0-0.3-7.9-0.54-18-0.54-19 0-19 0.02-16 4.8 4.3 8.3 15 12 23 8.6zm-62-3.4-0.24-10h-215l-0.1 3.5c-0.22 7.7-5.5 7 55 7.3 30 0.14 74 0.16 98 0.029s48-0.24 53-0.25zm281 0.02 45-0.021v-11l-106 0.037c-122 0.043-109-0.62-109 5.9l0.35 5c57 0.7 113 0.09 170 0.042zm-0.22 509c-0.17-0.17-116-0.4-258-0.51-238-0.18-258-0.32-261-1.9-3.8-2.1-6.9-5.4-9.2-10-1.7-3.4-1.8-12-2.1-161-0.22-135-0.051-158 1.2-162 1.6-5.2 6.5-11 11-13 2.4-1 60-1.2 288-0.82 157 0.26 287 0.7 289 0.98 3.9 0.59 9.8 5.5 12 10 1.5 2.9 1.6 18 1.4 164-0.14 88-0.62 162-1.1 163-1.3 3.4-6 8.6-9.5 11-2.8 1.5-6.9 1.7-32 1.7-16 0.01-29-0.12-30-0.3zm62-4.7c1.8-1.1 4.4-4.1 5.7-6.6l2.5-4.7 0.36-159c0.34-151 0.27-159-1.5-163-1-2.2-3.5-5.2-5.5-6.6l-3.7-2.5-60-0.18c-33-0.099-162-0.33-288-0.51l-228-0.33-3.8 2.5c-2.1 1.4-4.7 4.4-5.8 6.7-2.3 4.6-2.1-18-1.9 239 0.025 50 0.42 81 1.1 83 1.3 4.8 4.4 8.5 9.2 11 3.7 1.9 9.5 1.9 213 1.8 115-0.063 209 0.054 209 0.26 0.21 0.21 35 0.38 77 0.38 74 0 77-0.07 80-2zm-282-39c-415-524-415-524 0 0zm8.4-7.2c-5.7 0-5.8-1.4-4.3-20 1.4-18 1.2-19-2.4-13-2.1 3.5-3.9 12-4 18-0.078 10-0.79 12-5.3 12-6.4 0-18-5.9-23-11-2.9-3.4-1.7-5.6 8.5-15 6.5-6 12-12 12-14 0-4.5-1.2-3.9-14 7.2-6.5 5.6-13 10-15 10-3.3 0-11-7.1-8.8-8.5 0.55-0.39 8.7-5.7 18-12 9.4-6.1 17-12 17-13 0-2.8-0.36-2.7-13 3-9.6 4.2-14 4.7-24 2.7-22-4.3-23-5-3.9-14 17-8.6 44-31 54-44l5.1-7.2-15-8.2c-8-4.5-15-8.6-16-9.1-2.1-1.9 6.1-9.1 15-13 11-4.8 6.7-7.3-6.6-3.6-17 4.8-24 3.4-36-6.4-5.8-5-11-10-11-11 0-1.1 8.1-4.6 18-7.9 9.9-3.3 19-7.1 19-8.3 0.79-1.3-0.7-1.7-3.3-1-13 3.7-25 4.2-35 1.5-9.7-2.5-13-4.8-18-14-3.5-5.9-6.3-12-6.3-13s7.2-3.4 16-4.4c16-1.8 45-7.8 47-9.8 0.58-0.59-7-1.1-17-1.1-11 0-24-1.9-32-4.7l-14-4.7v-11c0-6-2.8-18-6.2-26-13-25 9.8-11 25-6.2 27 8.5 30 9 58 8.3l29-0.8-5.9 12c-9.4 19-9.8 30-1.6 48 7.6 17 27 37 33 34 2-0.76 7.6-6.9 13-14 10-14 27-30 36-34 5.1-2.3 6.9-2.2 8.9 0.75 3.7 5.4 0.11 38-5.6 50-7.8 18-6.8 22 6.9 27 10 3.9 14 4.1 31 1.8 22-3.2 33-10 43-28l6.7-11 9.2 16c13 22 23 34 49 53l22 17-11 1.6c-14 2.1-24 5.9-33 12-6.6 4.5-7.5 4.6-13 0.83-13-8.2-25-20-31-31-3.6-6.1-7-11-7.7-11-2.2 0 2.1 11 14 35 6.2 13 11 24 9.9 25-0.76 0.76-6.9 1.9-14 2.6-11 1.1-13 0.39-22-7.4-5.3-4.7-12-14-16-21-5.8-12-6.1-12-4.8-3.8 0.76 4.9 3.1 14 5.3 21l3.9 12-12-1.7c-16-2.3-24-8.2-30-24-7.1-18-8.4-18-8.1-3.3 0.11 7-0.53 14-1.4 14-0.88 0.88-8.5-1.9-17-6.1-8.5-4.2-16-6.9-16-6-6.9 12-12 52-9.6 75 1 9.5 0.97 17-0.096 17-4.6 0-22-20-24-27-0.89-4.2-2.2-10-2.8-13-0.66-3.2-2.4-5.1-3.9-4.2-1.5 0.91-2.1 4.1-1.4 7.1s0.5 12-0.43 21c-1.6 14-2.1 14-7.5 14zm-201-398c7.6-2.9 11-10 6.3-14-1.8-1.7-7.3-4.4-12-5.8l-8.9-2.6 10 0.51c5.5 0.28 10-0.76 11-2.3 1-3-7-5.9-16-6-5.5-0.035-14 6-14 10 0 4.8 8.4 10 16 10 5.9 0 7.2 0.74 5.1 2.9-2.1 2.1-5 2.1-10 0.2-6.1-2.1-7.9-1.9-9.1 1.1-2.5 6.4 11 10 22 6.3zm-45-5.9c5.5-7.8 5-19-1.1-25-4-4-8.5-5.1-20-5.1h-15v36h16c14 0 17-0.81 20-5.7zm-27-12c0-9.9 0.22-10 8.9-10 7.3 0 9.1 1.1 10 6.4 2.5 10-0.34 14-10 14-8.8 0-9-0.23-9-10zm46 2.5c0-14-0.57-15-5.1-15-4.5 0-5.1 1.7-5.1 15 0 14 0.57 15 5.1 15 4.5 0 5.1-1.7 5.1-15zm56 3.8c0-10 0.53-11 6.3-11 4.5 0 5.9-1.1 4.8-3.8-1.1-2.8-5.5-3.8-16-3.8-12 0-15 0.86-15 3.8 0 2.3 2.3 3.8 5.7 3.8 5.2 0 5.7 0.99 4.8 11-0.81 10-0.34 11 4.4 11 4.6 0 5.3-1.5 5.3-11zm24 6.4c-0.92-3.5-0.078-5.1 2.7-5.1 2.2 0 5.2 2.3 6.7 5.1 1.5 2.8 5 5.1 7.7 5.1 6 0 6.4-3.3 1-7.8-3.6-3-3.6-3.5 0-5.5 4.7-2.6 5.2-9.9 0.92-14-1.7-1.7-8.4-3.1-15-3.1h-12l-0.86 15c-0.8 14-0.48 15 4.6 15 4.2-4e-3 5.2-1.2 4.2-5.1zm-0.74-15c0-1.4 3.5-2.5 7.8-2.5 4.5 0 7.1 1.1 6.2 2.5-0.86 1.4-4.4 2.5-7.8 2.5-3.4 0-6.2-1.1-6.2-2.5zm38 16c0-2.8 2-3.8 7-3.2 3.9 0.45 6.7 2.2 6.4 4-0.38 1.9 2 3.2 5.9 3.2 3.6 0 6.1-0.86 5.6-1.9s-3.8-7.9-7.2-15c-4.8-10-7.6-13-12-13-3.8-0.04-5.7 1.5-5.8 4.4-0.017 2.5-2.8 9.3-6.2 15l-6.2 11h6.2c3.9 0 6.2-1.5 6.2-4zm5.1-11c0-1.5 1.1-2 2.5-1.1 1.4 0.87 2.5 2.1 2.5 2.7s-1.1 1.1-2.5 1.1c-1.4 0-2.5-1.2-2.5-2.7zm33 7.3v-8.1l8.4 8.1c13 13 17 11 17-7.1 0-14-0.5-15-5.4-15-4.7 0-5.2 1.2-4.3 9.2l1.1 9.2-8.5-9.2c-4.7-5.1-11-9.2-13-9.2-4.3 0-4.9 1.8-4.8 15 0.064 13 0.69 15 5 15 3.8 0 4.9-1.8 4.9-8.1zm58 4.5c4.7-5.7-0.82-13-12-16l-9.6-2.7 9.4 0.42c11 0.48 15-2.3 9.6-5.9-8.9-5.6-28-0.45-28 7.6 0 3.5 7.3 8.3 16 11 7.7 2 7.5 2.1-2.4 1.2-7.2-0.65-11 0.13-12 2.4-1.7 4.3 2.1 5.8 15 6.1 6.2 0.12 12-1.3 14-3.5zm221 45c6.2-4.4 5.4-8.7-1.8-8.7-2.5 0-6.8-2-9.4-4.5-4.1-3.7-4.6-6.6-3.3-17 0.88-7 1.3-13 1-14s1.6-3.6 4.3-6.3c3.5-3.6 4.5-3.9 3.4-1-0.85 2.2 0.23 5.5 2.4 7.3 5.8 4.8 4.8 11-2.9 17-6.5 5.2-6.6 5.7-2.6 9.8 4 4.1 4.7 3.9 11-2.6 3.5-3.8 6.4-7.9 6.4-9.1 0-5.1 4.7-1.6 6.4 4.8 1.8 7 1.8 7 4.5 1.3 3.8-8.2 15-7.9 15 0.32 0 3.3-1.7 7.5-3.8 9.2-2.1 1.7-3.2 4.1-2.5 5.2s0.2 2.8-1.1 3.6c-1.3 0.82-3.1 0.33-4-1.1-2.3-3.7-6.4-3.2-6.4 0.84 0 1.9 2.6 4.7 5.7 6.2 4.8 2.3 3 2.8-11 2.9-16 0.16-16-0.023-11-3.8zm29-24c-2-2-3.1-0.81-4 4-1.2 6.2-0.94 6.4 2.7 2.7 2.9-2.9 3.3-4.8 1.3-6.8zm-34-15c0-4.4-4.5-2.1-5.9 3-1.1 4.3-0.72 4.7 2.2 2.2 2-1.7 3.6-4 3.6-5.2z"/><text transform="translate(-24 -56)" x="144.12617" y="663.52429" fill="#000000" font-size="31px" style="inline-size:584.851;line-height:1.1;white-space:pre" xml:space="preserve"><tspan x="144.12617" y="663.52429">Give another player a Treachery Card </tspan><tspan x="144.12617" y="697.25769">from your hand (if that player's hand </tspan><tspan x="144.12617" y="730.99109">is not full). Play at any time (other </tspan><tspan x="144.12617" y="764.72448">than during a bid). Discard after use.</tspan></text><text transform="translate(117 193)" fill="#000000" font-size="40px" style="shape-inside:url(#rect2);white-space:pre" xml:space="preserve"><tspan x="0" y="0">Special</tspan></text></svg>
