<?xml version="1.0" encoding="UTF-8"?>
<!-- Created with Inkscape (http://www.inkscape.org/) -->
<svg width="822" height="1122" version="1.1" viewBox="0 0 822 1122" xmlns="http://www.w3.org/2000/svg">
 <path d="m407 79-319 0.025-3.4 2.2c-1.8 1.2-4.1 3.8-5.1 5.7-1.7 3.3-1.7 27-1.5 472l0.25 468 3.5 3.6c1.9 2 4.8 4 6.5 4.4 3.3 0.93 633 1.3 638 0.35 1.6-0.31 4.6-2.2 6.8-4.3l3.9-3.7-4e-3 -469c-4e-3 -469-5e-3 -469-2-473-4.1-6.7 23-6.2-328-6.2zm275 3 20 0.0059c11 0.0031 22 0.48 24 1.1l3.9 1.1-11 11c-6.3 6.3-12 11-12 11-0.28-0.038-2.9-2-5.8-4.2-4.5-3.6-11-6.9-18-9.1-1.4-0.45-1.8-1.7-1.8-6.1zm-571 0.014c24 0.018 23-0.15 23 6.4v5.1l-5.2 1.9c-2.9 1-8.4 3.9-12 6.5-3.8 2.5-7.2 4.7-7.5 4.8-0.58 0.24-23-21-23-22 0-1.8 8.3-2.7 25-2.7zm325 0.17c2.5-0.04 5.7 0.01 10 0.084l14 0.23 0.34 10h-21l-15 7.5c-18 8.9-13 8.9-32-0.053l-15-7.4-22-0.014v-4.5c0-2.5 4.3e-4 -4.8 0-5.2-4.2e-4 -0.41 7-0.78 16-0.82l16-0.072 1 3.8c5.1 19 33 20 39 0.74 1.1-3.7 1.5-4.6 8.9-4.7zm-299 0.32h214l0.61 10-10 0.021c-5.7 0.012-29 0.12-53 0.25-23 0.13-67 0.11-97-0.029l-55-0.26 0.3-5.2zm326 0h215l-0.28 4.9c-0.15 2.7-0.4 5.1-0.55 5.2-0.5 0.5-91 0.84-153 0.58l-62-0.26 0.3-5.2zm-73 0.5h17c13 0 17 0.3 17 1.2-0.042 3.2-4.8 9.2-8.9 11-9.7 5.1-21 0.59-25-10zm342 5.6c2 0.79 1.8 7.8 1.9 24l0.016 23h-11l-1.7-5.2c-1.9-5.8-7.5-16-9.9-18s-2.2-2.3 9.5-14c5.1-5.2 8.2-8.6 10-9.2 0.39-0.13 0.73-0.14 1-0.031zm-649 0.47c0.32-0.12 0.69-0.1 1.1 0.035 2 0.66 5.4 4.1 11 9.6l11 11-4.5 6.4c-4 5.6-7.1 11-9.1 17-0.49 1.4-1.8 1.8-6.1 1.8h-5.5v-22c0-16-0.15-23 2.1-24zm557 25c14 0.76 28 6.7 39 19 29 31 16 80-24 95-36 13-76-16-76-56 0.18-36 31-60 61-58zm-492 0.11c0.59-0.18 0.6 0.69 0.69 4.3 0.085 3.6-0.18 3.8-2.6 2.9-0.74-0.28-5.4-0.38-10-0.22l-8.9 0.29-0.64 6.6 16-0.46 0.14 3.4 0.15 3.4-16-0.72 0.67 14-4.8-2e-3c-3.3-2e-3 -4.6-0.35-4.1-1.1 1.2-2 1.4-28 0.24-30-0.59-0.71-0.91-1.3-0.71-1.4 0.2-0.044 6.7-0.16 14-0.25s15-0.53 15-0.98c0.35-0.23 0.61-0.4 0.81-0.46zm168 1.4c5.2 0.12 5.4 0.24 5.6 3 0.28 3.1 11 25 13 28 1.5 1.6 1.2 1.8-4.6 1.8-5.1 0-6-0.25-5.5-1.6 2.4-6.3-15-10-18-3.8-0.9 2-0.91 3-0.037 4 0.96 1.2 0.23 1.4-4.4 1.4h-5.5l6.9-14c3.8-7.8 6.8-15 6.6-16-0.26-1.9 0.16-2.1 5.1-2zm17 4.9h27v3.5l2e-3 3.5-10-0.69v9.4c0 6 0.44 9.8 1.2 11h2e-3c0.93 0.93 0.032 1.2-4.1 1.2-4 0-5.1-0.31-4.5-1.2 0.43-0.69 0.85-5.5 0.95-11l0.17-9.3-11 0.67v-3.5zm-152 0.5 5.2 2e-3c4.6 6.2e-4 5.2 0.25 5.2 2 0 2 5.8 14 6.5 14 1.9-1.9 7.3-13 6.9-14-0.46-1.2 0.48-1.5 4.8-1.5l5.4-2e-3v27h-4.9c-4.1 9.5e-4 -4.7-0.23-3.7-1.4 0.71-0.85 1.1-3.9 0.87-7.8l-0.3-6.3-4.5 7.7c-5.5 9.4-4.9 9.4-9.9 0.01l-4.1-7.8 0.54 16-8-6e-3v-14zm48 0v27h-4.9c-3.8 8.8e-4 -4.7-0.26-3.8-1.2 0.79-0.79 1.2-5 1.2-12s-0.41-12-1.2-12c-0.93-0.93-0.1-1.2 3.8-1.2zm9.2 0h4.8l-0.68 22 17-0.71v3.2c-7e-5 1.8-0.34 3.2-0.75 3-0.41-0.11-6.4-0.45-13-0.75-6.9-0.3-12-0.91-11-1.4 1.6-1 1.7-21 0.21-24-0.96-1.8-0.67-1.9 3.8-1.9zm161 0 5.4 2e-3c4.5 6e-4 5.3 0.25 4.7 1.6-0.37 0.95 0.87 4.3 3 8.1l3.6 6.5 3.8-6.6c2.1-3.6 3.6-7.3 3.3-8.1-0.46-1.2 0.48-1.5 5-1.5 3.1 0 5.6 0.45 5.6 1s-0.45 1-1 1c-1.5 0-1.3 22 0.2 24 0.93 0.93 0.019 1.2-4.1 1.2-4.5 0-5.1-0.23-4.2-1.4 0.72-0.86 1.1-4.1 0.87-8.2l-0.3-6.8-3.9 7c-5.9 11-5.4 10-9.8 3-2.1-3.6-3.8-7-3.8-7.5 0-0.51-0.39-0.93-0.87-0.93-1.1 0-0.88 12 0.21 14 0.58 0.93-0.34 1.2-3.5 1.2h-4.3v-14zm-144 2e-3h6.1c5.2 0 6 0.24 5.5 1.6-0.59 1.5 2.8 7.4 4.2 7.4s4.2-5.8 3.5-7.4c-0.51-1.3 0.28-1.6 5-1.6 6.8 0 6.8-0.47 0.08 7.7-5.5 6.7-5.5 6.8-5.2 13l0.28 6.3-8.2-4e-3 0.46-5.5c0.5-6.1 0.18-6.8-7.3-16zm186 0c4.5 0 6.4 1 4.3 2.4-0.95 0.58-0.77 22 0.19 24 0.48 0.78-0.92 1.1-4.6 1.1-4.1 0-5-0.27-4.1-1.2 1.5-1.5 1.6-21 0.16-24-0.96-1.8-0.67-1.9 4-1.9zm27 8e-3c4.3 0.068 8.8 1.4 13 4.6 0.2 0.16-0.53 1.4-1.6 2.8-1.7 2.2-2.2 2.3-3.2 1.1-5.9-7.1-21-1.6-18 7 1.7 6.9 15 9 19 3.1 0.5-0.72 1.4-0.24 2.7 1.4 2.3 3 2.5 4 0.67 4-0.74 0-2.8 0.74-4.6 1.6-7.5 3.7-16 2.4-21-3.2-9.7-11 1.2-23 14-22zm29 0.027c2.6 0.028 5.5 0.53 8.5 1.6 5.2 1.8 5.1 1.7 3.5 4.7-1.6 3.2-1.7 3.2-3.8 1.2-2.2-2-11-3.1-13-1.7-2.9 1.9-0.38 3.8 5.8 4.5 14 1.4 18 11 7.8 16-11 4.9-24 0.19-19-6.9 0.13-0.19 1.3 0.37 2.5 1.2 3.1 2.2 14 2.2 14 0.059 0.88-2.3-0.03-2.7-7.3-3.6-7.5-0.9-11-2.8-12-6.1-1.1-6.7 4.2-11 12-11zm-117 0.045c2 0.22 4 0.76 5.8 1.7 11 5.4 10 19-0.33 24-14 6.6-29-7.2-21-20 2.8-4.4 9.4-6.8 15-6.1zm-219 0.12c4.7-0.27 5.1-0.12 4.7 1.7-0.52 2 8.5 21 11 24 1.3 1.3 0.75 1.5-4.2 1.5-4.9 0-5.6-0.23-5.1-1.8 0.99-3.2-0.82-4.3-6.9-4.4-6.1-0.072-7.9 1.1-7.2 4.4 0.36 1.5-0.33 1.8-4.6 1.8-4 0-4.8-0.27-4-1.3 2.6-3.1 11-21 11-23-0.24-1.8 0.38-2 4.9-2.3zm473 0.57c-4.6 0.21-9.2 1.1-14 2.6-51 17-45 91 8.3 100 25 4.2 53-15 58-40 7.1-34-21-64-52-62zm-318 3.4c-0.16 0.18-1.2 2.5-2.4 5.1l-2.1 4.8h4.4c2.4 0 4.4-0.17 4.4-0.37 0-0.86-4.2-9.8-4.5-9.5zm318 0.38c21-0.64 42 11 48 35 6.1 24-3.9 46-26 56-41 20-84-25-63-66 8.7-17 25-25 41-25zm-258 0.89c-6.1 0.98-9 8.9-4.2 14 1.7 1.8 3.4 2.5 6.1 2.5 11 0 12-15 0.84-17-0.98-0.17-1.9-0.17-2.8-0.033zm-216 4.6c-0.78 0-3 4.6-3 6.2 0 0.9 4.8 0.4 5.8-0.61 0.48-0.48-2.1-5.5-2.8-5.5zm-80 7h11l-0.049 419-0.047 419h-11v-419zm642 0h5.9c5.6 0 5.8 0.1 5.3 2.2-0.33 1.2-0.61 190-0.62 419l-0.014 417h-10l-0.066-9.8c-0.036-5.4-0.15-194-0.25-419zm-85 2c-2.6 0-3.4 4-3.4 17 0 18-1.6 15-5.4-7.3-0.84-5-3.3-7-5.2-4.3-1.5 2-1.4 6.2 0.56 24 1.4 13-0.71 16-5.8 8.3-5.8-8.3-7.2-9.8-9.7-9.8-3.8 0-4 2.7-0.63 8.9 1.7 3.1 4.7 8.7 6.7 13 2 3.8 5.2 8.9 7.1 11 11 15 33 12 35-11 0.54-4.8 2-11 3.3-14 5.4-12 5.9-14 5.6-17-0.24-2.1-0.87-2.9-2.3-2.9-2 0-2.6 0.93-7.7 12-3.6 7.6-6.3-8-3.2-18 0.26-0.89-0.41-2.7-1.5-4-3.5-4.3-5.3-0.93-6.4 13-0.76 8.9-2.5 16-2.7 11-0.89-25-1.5-29-4.6-29zm-543 38h480l0.58 2.8c3.4 16 7.6 24 17 34 35 35 95 17 104-31l1.2-6.2h22l-0.24 802-2.2 5.3c-5.3 13-15 24-27 29l-6.7 3.3-245 0.6-32-16-31 15-243-0.047-5.5-2.3c-12-5.1-23-15-29-27l-3.7-7.8-0.26-401zm314 70c-284 0-288 0.029-292 2-4.8 2.5-8.7 7-10 12-1.5 5.4-1.4 316 0.064 322 1.4 5.1 8.3 12 14 13 2.6 0.69 97 0.98 290 0.88l286-0.15 3.9-2.1c2.2-1.1 5.3-3.8 7-5.8l3.1-3.8 0.52-324-2.5-4.3c-1.5-2.5-4.3-5.4-6.8-6.9l-4.3-2.5zm228 1.9c28 0.055 57 0.49 59 1.3 13 3.9 13 1.6 13 93l-0.016 158c-0.025 89 0.43 84-8.1 90l-4.3 2.8-57 0.29c-168-7.6-339 2.8-517-0.75-4.3-1-9.1-4.6-11-8.4-1.6-2.9-1.7-9.1-1.7-83v-241l2.3-3.7c1.5-2.3 4.2-4.6 7.4-6.2l5.2-2.6h371c86 0 114-0.11 142-0.053zm-289 11c-2.1 0.35-4.5 5.7-9.3 17-0.18 0.44 0.86 0.79 2.3 0.79 1.6 0 2.4-0.42 2-1-1.2-1.9 1.7-4 5.6-4 3.3 0 4 0.37 4.5 2.5 0.45 1.8 1.3 2.5 3 2.5 3 0 3.1 0.52-1.8-9.5-2.4-4.8-3.9-7.7-5.4-8.5-0.3-0.15-0.61-0.2-0.91-0.15zm70 2.2c-1.2 7e-3 -2.5 3.4-2.5 8.4 0 7.3 0.051 7.5 2.5 7.5 2.2 0 2.4-0.34 1.9-2.4-0.99-3.9 0.44-5 3.2-2.5 1.3 1.2 2.4 2.8 2.4 3.6 0 0.82 1.2 1.3 3.2 1.3h3.2l-2.5-2.8c-5.5-6.1-5.5-6.1-1.8-9.3 3.2-2.7 3.3-2.9 1.1-3-1.3-0.022-3.7 1.3-5.5 3l-3.2 3-0.31-3c-0.29-2.7-0.95-3.9-1.7-3.9zm-14 0.78c-1.4 0.066-2.8 2.1-4.4 6.2-3.3 8.4-4.5 9.1-7.9 4.8-1.1-1.4-1-2 0.82-3.8 3.7-3.7 0.85-6.4-7.1-6.8l-6.4-0.29v7.5c0 7.1 0.12 7.5 2.2 7.5 1.9-7.2e-4 2.1-0.39 1.6-3-0.51-2.6-0.3-3 1.5-3 2.2 0 5.5 3.7 4.6 5.2-0.28 0.46 2.2 0.84 5.5 0.84 5.4 0 6.1-0.22 6.1-2 0-1.6 0.67-2 3.5-2s3.5 0.38 3.5 2c0 1.6 0.67 2 3 2 3.2 0 3.8-1.1 1.7-2.8-0.69-0.57-2.4-3.6-3.7-6.6-1.7-3.9-3.1-5.8-4.6-5.7zm-44 0.15 0.33 7.5c0.29 6.6 0.56 7.5 2.2 7.5 1.6 0 1.8-0.51 1.3-3-0.49-2.4-0.27-3 1.2-3 2.2 0 5.5 2.8 5.5 4.7 0 0.78 1.1 1.3 2.6 1.3 2.7 0 2.6-0.79-0.39-4.3-1.4-1.6-1.3-1.9 0.65-3.3 5.1-3.6 1.4-7.4-7.1-7.4zm74 4e-3 -0.66 15 7.2-2e-3c5.8-2e-3 7.2-0.31 7.2-1.5 0-1.1-1.2-1.5-5-1.5s-5-0.37-5-1.5c0-1 1.1-1.5 3.5-1.5s3.5-0.45 3.5-1.5-1.1-1.5-3.5-1.5-3.5-0.45-3.5-1.5c0-1.1 1.2-1.5 5-1.5s5-0.37 5-1.5c0-1.2-1.4-1.5-6.9-1.5zm17-9e-5v15h7c8.9 0 10-2.7 1.8-3.2-6-0.35-8.2-2.8-2.4-2.8 4.7 0 5-2.7 0.41-3.2-5.8-0.58-4.6-2.8 1.6-2.8 4.3 0 5.6-0.35 5.6-1.5 0-1.2-1.4-1.5-7-1.5zm31 0c-1.6 0-1.9 0.76-1.9 4.8l-0.023 4.8-4.5-4.8c-6.6-6.9-7.9-6.5-7.9 2.8 0 6.5 0.24 7.5 1.8 7.5 1.4-6.7e-4 1.8-0.89 1.8-4.7v-4.7l4.8 4.7c6.8 6.7 7.7 6.4 7.9-2.8 0.14-6.8-0.039-7.5-1.8-7.5zm-177 0.62c-1.4 0.62-24 30-25 32-1.9 6.9-13 30-16 33l-3.3 3.2-11-2.2c-14-2.8-14-2.8-22 1.7-4.2 2.2-13 5.5-21 7.7-17 4.7-16 0.59-9.6 37 5.6 33 5.7 33 10 33 2.6 0 13 9.7 13 12 0 1.2 3.8 0.97 4.6-0.28 1.7-2.7 9.7-4.9 18-4.9h8.5l-0.5 3.2c-0.28 1.8-1.7 11-3.2 20l-2.7 16 2.2 7.7c3.2 11 2.8 35-0.58 35-3.2 0.46-4 14-0.8 14 1.8-2e-3 2-0.53 1.6-4-0.39-4.1 0.67-5.1 2.8-2.5 0.85 1 1.2 6.3 1.1 18-0.086 11 0.29 17 1.2 20 1.2 3.4 2.7 5.7-0.98 16-5.1 15 4 22 4 22 6.7 7.1 25 3.8 25-4.5 0-4.1 0.46-4.8 7.9-12 5.6-5.5 8.7-9.6 11-14 1.4-3.2 2.9-5.8 3.2-5.8 2 0 18 13 20 17 1.7 2.4 3.4 4.6 4 5 1.2 0.76 23-10 23-12 0.35-1 1.1-1 3.6-0.13 3.5 1.3 4.3 0.042 1.2-1.6-5.2-2.8 15-11 25-11l5.5 0.3 3.2-6c2.2-4.2 4.1-6.4 6.2-7.2 1.6-0.67 3.3-1.7 3.6-2.3 0.36-0.57 1.1-0.79 1.6-0.48 0.51 0.31 0.71-0.016 0.46-0.73-0.86-2.4 2.1-4.7 12-8.8 5.2-2.3 9.8-4.4 10-4.7 0.87-0.54-16-5.1-19-5.2-0.88-0.025-0.15 1.3 1.9 3.4 3.2 3.3 3.2 3.4 1.3 4.5-3.4 1.8-4.4 1.3-11-5-6.1-6-6.3-6.2-16-8.5-13-3.1-13-3.6 0.1 9.2 12 12 15 15 11 14-5.7-1.7-6.3-1.7-5.3-0.72 0.55 0.56 1.8 1.2 2.8 1.4 1.9 0.36 2.5 2.1 0.96 2.6-0.49 0.16-6.8-5.5-14-13l-13-13-4.3 1.4c-3.8 1.3-4.8 1.2-7.9-0.066-2.1-0.89-3.7-1.1-3.9-0.52-0.18 0.54-2.5-1.1-5.3-3.5s-4.6-4.8-4.2-5.2c0.39-0.39 2.1 0.61 3.8 2.2 2.5 2.4 2.9 2.5 2 0.74-2.5-4.9 0.24-16 4.4-18 8.2-3.1 17 1.2 20 9.5 0.47 1.5 9.5 3.4 11 2.3 0.25-0.24-3.1-4-7.4-8.4s-7.7-8.1-7.4-8.3c4.1-3.6 4.8-3.3 16 7.7 12 12 9.3 10 25 12l4.8 0.57-30-30 6.3-2.6 33 33 21 2.2 5.9-5.8c5.1-5 6.4-7.2 10-17l4.3-11 43-35 5.7-11c3.2-5.9 6.8-12 8.1-14 1.6-2.4 2.3-4.9 2.3-8.3 0-5.5 0.89-5-15-9.6l-10-3-27 4.4-9.2 12c-7.9 10-9.3 13-9.9 17-0.89 6.7-21 23-31 24-4.5 0.7-11 3.8-33 16-29 17-31 17-30 15 3e-3 -0.67 3.1-9.3 6.9-19 5.7-15 6.7-18 5.8-20-0.76-1.7-0.68-2.9 0.32-4.8s1.1-3.7 0.36-7.4l-0.99-4.8 46-79 0.086-19-21-24-11-3.3c-10-3.1-11-3.2-23-2.8l-12 0.5-3-4.5c-5.3-7.9-6.7-9-11-9-3.5-0.013-5.3-0.96-13-7-4.8-3.8-9.3-6.7-10-6.4zm44 0.88 1.1 2.8c0.59 1.5 1.1 3 1.1 3.2 0 0.24-1.1 0.44-2.5 0.44-2.8 0-3-0.51-1-4zm19 1.5c2.9 0 4 0.42 4 1.5s-1.1 1.5-4 1.5-4-0.42-4-1.5 1.1-1.5 4-1.5zm19 0.19c2.1 0.17 3.8 0.76 3.8 1.3s-1.7 1.1-3.8 1.3c-2.9 0.24-3.8-0.049-3.8-1.3s0.83-1.6 3.8-1.3zm17 2.4c0.74-0.46 2.1 1.5 2.1 3 0 0.23-0.68 0.42-1.5 0.42-1.6 0-2.1-2.5-0.61-3.4zm-98 1.1c2 0.15 4.9 1.6 4.9 2.8 0 0.26-1.8 0.48-4 0.48-4.2 0-5-0.93-2.5-3 0.35-0.29 0.93-0.38 1.6-0.33zm-1.1 6.4c4.9-0.6 10 0.037 13 2.3 1.7 1.3 4 2.6 5.1 2.9 1.1 0.27-4.7 0.55-13 0.62s-15-0.26-15-0.71c0-2.7 4.1-4.5 9-5.1zm8.2 9h20l1.6 2.5c0.89 1.4 1.6 2.7 1.6 3s-11 0.54-24 0.54c-24 0-25-0.16-21-3.8 2.2-2.1 3.2-2.2 22-2.2zm-27 9 50 0.53 0.63 5.5h-54l1.5-3zm61 0.29c7.7-0.5 23 0.6 29 2.6l9.5 3-45 0.12 0.69-2.2c0.38-1.2 0.75-2.3 0.83-2.4 0.42-0.55 2.2-0.9 4.8-1.1zm-219 7.2c-9.9 1.9-11 15-1.1 18 4.3 1.3 4.6 1.2 8.8-0.7 2.7-1.3 3.5-2.1 2.9-3.1-0.66-1-1.3-1.1-2.9-0.25-5.6 3-11 0.78-11-4.5 0-5.2 4.9-7.6 10-5 2.5 1.3 3.3 1.3 4 0.32 1.2-1.9-6.6-5.1-11-4.3zm153 1.8 28 0.035c30 0.038 29-0.22 29 5.4 0.01 0.88-7.6 1.2-30 1.2-16-0.015-30-0.23-30-0.48s0.66-1.7 1.5-3.3zm84 0.18 22 0.12 2.1 2.5c1.1 1.4 2.1 2.8 2.1 3.2 0.093 2.1-48 0.8-49-1.3-2.4-4.5-1.5-4.6 22-4.5zm-144 1c-1.5-0.56-4.6 2.6-6.9 7.6l-3.2 7h2.5c1.4 0 2.3-0.52 2.2-1.2-0.16-0.78 1.2-1.4 3.5-1.6 2.9-0.24 3.8 0.058 3.8 1.2 0 1 0.91 1.6 2.6 1.6h2.6l-3.1-5.7c-1.7-3.1-3.1-6.3-3.1-7 0-1.1-0.29-1.7-0.78-1.9zm-30 0.31c-0.4 0.14-3.7 0.25-7.2 0.25-4.8 0-6.5 0.35-6.5 1.4 0 0.91 0.82 1.2 2.5 0.88 2.4-0.47 2.5-0.35 2.5 5.6 0 5.4 0.22 6.1 2 6.1 1.8 0 2-0.67 2-6.1v-6.1l3.1 0.61c2.6 0.51 3 0.32 2.7-1.1-0.18-0.96-0.67-1.6-1.1-1.5zm48 0.072c-9.3 0.13-12 11-3.7 14 2.4 0.99 7.1 0.53 10-0.99 3.2-1.7 1.2-6.9-2.7-6.9-2.3 0-3.4 0.46-3.4 1.5 0 0.83 0.89 1.5 2 1.5 2.8 0 2.5 1.8-0.41 2.6-3.6 0.9-6.6-1.1-6.6-4.4 0-3.7 3.9-6 7.5-4.3 1.7 0.78 2.7 0.81 3.1 0.078 1.1-1.8-1.3-3.1-5.7-3.1zm-78 0.18-0.33 7c-0.31 6.5-0.18 7 1.7 7 1.6-2e-3 2-0.64 2-2.7-0.057-3.9 2.8-4.1 5.1-0.33 1.2 2 2.6 3.1 4.2 3.1h2.4l-4.1-5.2 2.2-1.8c4.4-3.6 1.1-7-6.6-7zm34 0c-1.6 0-1.8 0.81-1.8 7 0.091 6.4 0.28 7 2.2 7 1.7 0 2-0.49 1.6-3-0.43-2.9-0.33-3 3.7-3 3.9 0 4.1 0.15 4.1 3 0 2.3 0.44 3 2 3 1.8 0 2-0.67 2-7s-0.19-7-2-7c-1.5 0-2 0.67-2 2.5 0 2.2-0.4 2.5-4 2.5s-4-0.25-4-2.5c0-1.8-0.54-2.5-1.9-2.5zm-46 0.29c-1.4-1e-3 -2.7 2.2-4.7 6.7-2.9 6.5-3 7-1.1 7 1.1 0 1.9-0.68 1.9-1.5 0-1.1 1.1-1.5 4-1.5s4 0.42 4 1.5c0 0.91 0.93 1.5 2.4 1.5h2.4l-3.6-7c-2.3-4.5-3.8-6.7-5.2-6.7zm18 1.7c2.9 0.02 5.1 1.5 4.3 2.9-0.86 1.4-6.2 1.5-7.1 0.11-0.96-1.6 0.4-3 2.8-3zm-18 3c0.43 0 1 0.68 1.4 1.5 0.39 1-0.05 1.5-1.4 1.5s-1.8-0.48-1.4-1.5c0.32-0.82 0.93-1.5 1.4-1.5zm70 0.055c0.49 3e-3 0.98 0.46 1.3 1.4 0.3 0.78-0.058 1.6-0.79 1.9-1.7 0.67-2.5-0.18-1.9-1.9 0.35-0.9 0.84-1.4 1.3-1.3zm57 2.9h31c32 0 33 0.13 32 4-0.61 1.9-1.6 2-33 2l-32-8e-3 1-3zm119 0 5.8 6h-17c-15 0-17 0.22-17 1.5 0 1.3 2.7 1.5 18 1.5h18v6h-17c-13 0-17 0.28-17 1.2 0.31 0.92 4.8 1.3 17 1.5l17 0.28v3c0 3-4e-3 3-6.1 3-5.2 0-6 0.25-5.7 1.7 0.25 1.3 1.4 1.7 4.6 1.6 2.3-0.034 4.2 0.35 4.2 0.85 0 2-3.3 5.8-5.1 5.8-1 0-1.9 0.68-1.9 1.5s0.46 1.5 1 1.5c0.58 0 0.36 1.3-0.53 3l-1.6 3h-34c-19 0-34-0.24-34-0.54 0-3.5 3.5-5.5 9.6-5.5 7.5 0 9.2-2.4 2.3-3.3-6.5-0.87-6.1-5.7 0.37-5.7 4.7-0.02 7.7-1 7.7-2.6 0-0.95-1.3-1.4-4-1.4-4.5 0-4.4 0.054-2.8-3.5 1-2.2 1.8-2.5 6-2.5 3.6 0 4.8-0.37 4.8-1.5 0-1-1.1-1.5-3.5-1.5-3.9 0-3.9 0.029-2.3-3.5 1.1-2.4 1.6-2.5 8-2.5 5.4 0 6.8-0.31 6.8-1.5 0-1.2-1.4-1.5-6.5-1.5h-6.5l0.42-6 26-2e-3zm-33 3.1c-1.2 0.68-3.6 10-4 19-0.43 7.6-2.3 11-2.3 4.2 0-1.6-0.46-2.9-1-2.9s-1.5-1.2-2.1-2.8l-1.1-2.8-1.5 2.8c-0.8 1.5-1.9 2.8-2.4 2.8-0.53 0-0.97 2.5-0.97 5.5 0 4.2-0.35 5.5-1.5 5.5-0.93 0-1.5 0.94-1.5 2.5v2.5h23c25 0 27-0.42 23-4.8-0.82-0.94-1.5-3.2-1.6-4.9-0.094-5-3.5-8.2-6.2-5.8-2 1.8-2.1 1.8-3.5-0.08-1.4-1.9-1.6-1.8-4.5 1.3-3.9 4.3-5 4.1-5-0.75 0-2.9-0.42-4-1.5-4-0.94 0-1.5-0.95-1.5-2.5 0-1.4-0.68-4.1-1.5-6.1s-1.5-4.4-1.5-5.5c0-2.2-0.25-3-0.65-2.8zm-90 5.9 33 0.018c18 0.01 33 0.24 33 0.51s-0.73 1.6-1.6 3l-1.6 2.5h-65l1.1-3zm50 8.9c6.3 0.096 10 0.3 10 0.63 0 0.25-0.73 1.6-1.6 2.9l-1.6 2.5h-32c-34 0-36-0.27-32-4.6 0.83-1 39-1.7 57-1.4zm-87 0.01 11 2.1c6.3 1.2 12 2.5 12 3 0.55 0.51-6.4 0.87-16 0.86l-17-0.023 5.1-3zm7.5 9.6c5.9 0.018 12 0.14 18 0.37 0.92 0.033 3.4 4.1 3.4 5.6 0 0.25-7.6 0.45-17 0.45-14 0-17 0.23-17 1.5 0 1.3 2.6 1.5 18 1.5h18v6h-16c-14 0-16 0.23-16 1.5s2.4 1.5 16 1.5h16v6h-6.1c-5.3 0-6 0.19-4.9 1.5 0.8 0.96 3 1.5 6.1 1.5 4.8 0 4.9 0.077 4.9 3 0 2.9-0.17 3-4.5 3-6.2 0-5.6 3.4 0.73 4.2 3.4 0.42 1.8 5.1-1.9 5.6-3.5 0.51-5.1 3.2-1.9 3.2 3 0 3 0.035 1.5 3.5l-1.2 2.5h-27c-15 0-27-0.3-28-0.67-1.6-1.6-0.64-5.3 1.4-5.3 2.7 0 2-2.4-0.81-2.8-1.1-0.17-2.3-1.3-2.7-2.5-0.86-3.2-0.76-3.7 0.73-3.7 0.74 0 2.2-0.9 3.2-2 1.8-2 1.7-2-1.7-2-3 0-3.6-0.4-4-2.5-0.61-3.2-0.19-3.5 4.3-3.5 6.3 0 6-2.8-0.36-3.2-4.8-0.28-5.2-0.49-5.5-3.1l-0.32-2.8 8.8-0.18c4.8-0.098 9.6-0.18 11-0.17s1.8-0.59 1.8-1.3c0-1-2.5-1.3-11-1.3-11 0-12-0.27-12-5.2-8e-3 -0.41 5.8-0.75 13-0.75 11 0 13-0.24 13-1.5 0-1.3-2.1-1.5-13-1.5-15 0-15-0.68-3.3-4.1 5.5-1.5 20-2.4 38-2.3zm54 0.18c15 0.14 29 0.38 30 0.59 0.18 0.18-0.62 1.5-1.8 3l-2.1 2.7-52-0.21-1.5-2.9c-0.81-1.6-1.5-3-1.5-3.2-3.2e-4 -0.2 15-0.17 29-0.023zm-26 9.2h50l-4.3 6-46-0.15v-2.9zm-44 0.31c-1.8 0.44-3.8 6.1-3.8 15-0.025 4.1-0.47 7.2-1 7.2-0.55 0-1-1.4-1-3 0-1.9-0.51-3-1.4-3-0.77 0-1.7-1.1-2-2.5-0.35-1.4-1-2.5-1.5-2.5s-1.2 1.1-1.5 2.5c-0.35 1.4-1.1 2.5-1.6 2.5s-0.98 2.5-0.98 5.5c0 4.1-0.36 5.5-1.4 5.5-1.9 0-2.9 1.7-2.2 3.5 0.46 1.2 4.4 1.5 24 1.5h23v-2.5c0-1.4-0.45-2.5-1-2.5s-1-1.9-1-4.2c-0.04-5.4-4.3-9.4-6.6-6.3-1.2 1.6-1.4 1.7-2.9 0.16-2-2-6.5 0.19-6.5 3.2 0 0.62-0.9 1.1-2 1.1-1.7 0-2-0.67-2-3.9 0-2.5-0.52-4.1-1.5-4.5-0.82-0.32-1.5-1.6-1.5-2.9-0.12-6.3-1.1-9.6-2.3-10-0.25-0.15-0.51-0.2-0.77-0.14zm44 8.7h22c13 0 22 0.38 22 0.89-0.3 0.49 0.12 1.4 0.94 2.1 0.82 0.68 1.5 1.6 1.5 2.1 0 0.48-10 0.88-23 0.88h-23v-3zm85 0h35l-3.5 6h-62l-2.2-2.3c-1.2-1.3-2.2-2.6-2.2-3s16-0.69 35-0.69zm1.2 9c15-0.016 28 0.17 28 0.42s-0.52 1.6-1.2 3l-1.2 2.5h-47l-6.5-5.9zm-73 0.045c3.9-0.053 8.9-0.046 15 4e-3l23 0.15 3.6 3.4c2 1.8 3.4 3.3 3.1 3.2-0.28-0.11-13-0.33-29-0.49l-29-0.28v-2.4c0-2.6 1.1-3.4 13-3.5zm59 9.7c1.9-0.33 7.1-0.11 18 0.18l19 0.5-4.3 5.5-29-0.096-2.9-3c-1.8-1.9-3.1-2.8-1.2-3.1zm-72 0.18h31c33 0 37 0.61 37 5 0 0.97-69 1.3-70 0.35-0.32-0.32-0.09-1.7 0.51-3zm34 9c41 0 40-0.089 40 4.9 0 1.4-78 1.4-79 0.055-3-4.8-1.9-5 39-5zm43 0h28l-4.3 6h-21l-1.6-3zm140 3c2.7 0.026 5.4 2.2 12 8.4l8.3 8.4-1.7 2.6c-0.95 1.4-1.8 2.6-1.9 2.6-1.8 0-20-21-19-21 1-0.4 1.9-0.63 2.8-0.62zm-22 3.5c2-0.7 6.1 3 18 14l15 15-1.5 2.8c-0.8 1.6-1.6 2.8-1.7 2.8-1.7 0-32-32-31-33 0.41-1.1 0.86-1.8 1.5-2zm-234 2.5c15 0 27 0.2 27 0.44s-0.44 1.6-0.97 3l-0.98 2.6h-25c-21 0-25-0.23-25-1.4 0-0.78-0.27-2.1-0.61-3-0.54-1.4 2.1-1.6 26-1.6zm74 0.043c38-0.053 42 0.1 43 1.6 0.52 1.4 1.7 1.5 7.7 0.95 7.3-0.68 13 0.54 12 2.5-0.4 0.65-19 1-54 1h-53l2.1-5.9zm-72 9c21 0 22 0.095 19 4.1-2.8 5.2-40 2.1-40-3.4 0-0.38 9.2-0.69 20-0.69zm79 0.062c29-0.049 53 0.16 53 0.46s-0.73 1.7-1.6 3l-1.6 2.5h-105l3-5.8zm203 0.94c-0.28 0-0.5 0.22-0.5 0.5s0.22 0.5 0.5 0.5 0.5-0.22 0.5-0.5-0.22-0.5-0.5-0.5zm-60 1.5c1.7 0.45 5.2 4.1 15 14l15 15-2.3 1.6c-1.3 0.9-2.6 1.6-2.9 1.6-3.3-0.059-29-28-27-31 0.81-1.2 1.2-2.1 2.2-1.8zm-124 6.5h28l-0.82 7-27-0.23c-15-0.13-38-0.36-52-0.52l-25-0.29 0.63-5.5c25-0.1 51-0.35 76-0.5zm-108 0.016c2.1 0.012 2.4 0.23 1.2 0.98-2 1.3-4 1.3-4 0 0-0.55 1.2-0.99 2.8-0.98zm108 10c29 0 31 0.21 28 4-1.3 2.1-82 2-82 2l-24-0.064v-5.8l24-0.064s41-0.039 54-0.039zm117 0.9 12 12c11 11 11 12 9.6 14-2.8 3.1-3.3 2.9-15-9.3l-11-11 2.8-2.2zm-89 10c0.59 1.1 0.81 2.5 0.47 3-0.37 0.6-11 0.98-28 0.98h-54c-27 0-27 0.047-25-4.4 0.43-1.1 13-1.7 25-1.8 6.1-0.028 81 0.61 81 2.2zm73 2.5c1.6-0.47 3.5 1.6 14 12l11 11-2.3 1.9c-1.3 1.1-2.5 1.9-2.8 2-0.28 0.018-5.8-5.3-12-12l-12-12 2.6-1.7c0.77-0.51 1.3-0.95 1.8-1.1zm153 3.1c-5.5-0.17-11 1.6-15 5.3-2.9 3-4 3.6-6 3-14-3.8-28 3.4-28 14 0 2.1-0.42 3.9-0.92 3.9-2.3 0-7.1 5.3-7.1 7.9 0 6.8 12 11 19 6.2l3.6-2.1 0.87 2.3c1.6 4.2 6.4 8.9 12 11 9.3 4.3 23 2.6 30-3.7 1.6-1.5 3.9-2.1 9.3-2.3 5.1-0.25 8.6-1.1 12-2.8 4.9-2.4 5-2.4 6.7-0.52 6.2 6.8 20 5.9 23-1.5 0.57-1.2 3.3-3.4 6.1-4.8 13-6.4 10-20-5-23-4.7-0.95-6.1-1.7-7.7-4.3-6.6-10-23-12-37-2.6-2.1 1.3-2.4 1.3-3.3-0.29-2.2-3.9-7.4-6-13-6.1zm-253 1.4h26l-2.1 6h-25c-11 0-39 1.6e-4 -54 0h-27l0.87-5.9 26-0.049c21-0.04 32-0.035 54-0.035zm82 4.8c5-0.58 34 28 33 33-1.1 4.4-1.4 4.2-19-14-19-19-19-18-14-19zm-68 4.3c10 0.12 9.9 1 7.3 4.6-3.1 4.4-103 1.5-103 0.059-1.2-4 6.6-4.3 29-4 11 0.15 33-0.41 53-0.64 6.2-0.072 11-0.13 14-0.086zm53 2.5 19 19c19 19 19 19 17 21-1.2 0.96-2.4 1.8-2.8 1.8s-9.4-8.7-20-19l-19-19 2.7-1.8zm-97 7.3h50l-2.2 5.9-96-0.076-0.95-2.5c-0.52-1.4-1.2-2.9-0.95-2.9 13-1.1 33-0.44 50-0.44zm-138 5c-2.2-2e-3 -2.2 0.33-2.2 9 0 8.7 0.083 9 2.2 9 2.2 8.5e-4 2.2-0.33 2.2-9 0-8.7-0.084-9-2.2-9zm8.5 2c-1.6 0.22-3.3 3.6-3.3 8.5 0 6.5 0.24 7.5 1.8 7.5 1.4-6.6e-4 1.8-0.91 1.8-4.8l0.043-4.8 1.9 3.7c2.8 5.3 3.4 5.3 6.4 0.56l2.7-4.2-0.43 4.8c-0.39 4.4-0.25 4.8 1.8 4.8 2.1 0 2.3-0.45 2.4-7.5l0.17-7.5h-2.9c-1.7 0-2.9 0.54-2.9 1.3 0 6.4-5.4 7.2-7 0.97-0.61-2.4-1.6-3.4-2.6-3.3zm18 1 0.17 7.5c0.17 7.1 0.29 7.5 2.5 7.5 2.1 0 2.3-0.35 1.7-3-0.58-2.9-0.48-3 3.1-3 5 0 7.6-1.5 7.6-4.5 0-3.2-2.7-4.5-9.5-4.5zm18 0v15h7.6c6.6 0 7.5-0.22 7.2-1.7-0.27-1.4-1.3-1.7-5.7-1.4-4.7 0.25-5.3 0.07-5-1.5 0.28-1.4 1.2-1.8 3.6-1.7 2.4 0.11 3.2-0.27 3.2-1.5 0-1.4-0.71-1.6-3.5-1.3-2.7 0.32-3.5 0.049-3.5-1.2 0-1.3 1.1-1.6 5-1.6 3.8 0 5-0.37 5-1.5 0-1.2-1.4-1.5-7-1.5zm17 0v7.5c0 6.8 0.18 7.5 2 7.5 1.6 0 2-0.67 2-3 0-2.3 0.45-3 1.9-3 1.2 0 2.4 1.2 3.2 3 0.91 2.1 2 3 3.6 3 2.7 0 2.8-0.32 0.57-3.6-1.6-2.4-1.6-2.6 0-3.5 5.3-3 0.99-7.8-7-7.8zm20 0c-1.8 0-2 0.67-2 7.5s0.18 7.5 2 7.5 2-0.67 2-7.5-0.18-7.5-2-7.5zm9.5 1c1.3 0 1.3 0.39 0.37 2.2-1.7 3.3-1.9 3.3-1.9 0.42 0-1.7 0.54-2.7 1.5-2.7zm5.4 0h4.5c4.4 0 4.5 0.11 4.5 3 0 2.7-0.34 3-3 3-2.3 0-3.3-0.69-4.5-3zm13 0h20l38-1.6e-4c8.8 0 16 0.2 16 0.44s-0.44 1.6-0.97 3l-0.98 2.6h-13c-19-3.1-38 2.3-57-0.66-0.69-0.28-1.2-1.6-1.2-2.9zm-40 2c2.4 0 3.5 0.45 3.5 1.5s-1.1 1.5-3.5 1.5-3.5-0.45-3.5-1.5 1.1-1.5 3.5-1.5zm-35 0.19c2.1 0.17 3.8 0.76 3.8 1.3s-1.7 1.1-3.8 1.3c-2.9 0.24-3.8-0.049-3.8-1.3s0.83-1.6 3.8-1.3zm60 2.2c0.18-0.08 0.43-0.045 0.71 0.12 0.55 0.34 1 0.82 1 1.1s-0.45 0.44-1 0.44-1-0.48-1-1.1c0-0.29 0.11-0.49 0.29-0.57zm50 4.7c17 0.039 31 0.39 31 0.78 0 3.9-33 5.2-50 5.2h-34l0.48-2.5c0.64-3.3 7.1-3.7 8-0.5 0.34 1.3 1.4 2 2.9 2 2.6 0 3-0.96 1.2-2.8-1.5-1.5-0.42-2.7 1.7-1.8 1.1 0.42 1.4 1.3 0.98 2.6-0.6 1.9-0.19 2 6.4 2 5.6 0 7.1-0.31 7.1-1.5 0-0.82-0.87-1.5-1.9-1.5-0.31 0-0.52-0.18-0.8-0.25h-5.8c-0.073 0-0.14-4e-3 -0.21-0.012-0.013-0.01-0.031 5e-3 -0.043-8e-3 -0.88-0.14-0.9-1-0.068-1.2 0.031-0.081 0.027-0.23 0.072-0.28 0.12-0.12 0.29-0.11 0.47 0.08 0.046 0.046 6.3e-4 0.11 0 0.17h8.9c0.088 0 0.17 8e-3 0.24 0.02 4.2-0.29 11-0.49 25-0.46zm-54 9.4 36 0.26c22 0.16 38 0.11 39 0.2 0.23 0.016 0.44 0.053 0.62 0.11h2e-3c0.16-4e-3 0.12-0.031 0.3-0.033 3.2-0.035 3.5 0.99 0.92 3.3-1.6 1.5-5.8 1.7-40 1.7h-38v-2.8zm-72 5.6-0.64 18 8.1-2e-3c9.6-3e-3 14-3.4 9.4-7.7-0.78-0.78-0.79-1.7-0.016-3.1 2.1-3.9-1.4-6.3-9.6-6.8zm150 3.1c0.48-0.25 2.8 1.3 7.3 5.3 4.9 4.3 7.7 5.9 6.3 3.6-1-1.6 0.14-1.1 1.6 0.69 1.2 1.5 1.2 1.6-0.13 0.84-2.1-1.2-1.3-0.42 5.2 4.8 4.8 3.9 27 25 27 26 0 5.8-9.7-0.73-28-19-13-13-21-22-19-23zm-104 0.41c-1.2-0.046-2.5 0.091-3.7 0.47-6.8 2.2-4.3 9 3.3 9 1.9 0 3.4 0.46 3.4 1 0 1.8-3.2 2.3-6.3 1.2-2.5-0.95-3.2-0.87-4.2 0.54-1.4 1.9-4.2-1.7-6.7-8.5-2-5.5-4.8-4.3-8.5 3.8l-3.2 7h2.5c1.4 0 2.3-0.52 2.2-1.2-0.16-0.78 1.2-1.4 3.5-1.6 3-0.25 3.8 0.039 3.8 1.4 0 1.4 0.7 1.6 3.8 1.2 2.1-0.27 4.6-0.14 5.8 0.3 4.5 1.8 9.9 0.26 11-3.1 0.94-3-1.3-5-6.4-5.7-2.3-0.31-4.1-0.91-4.1-1.4 0-1.4 3.7-2 6.3-1 1.4 0.53 2.8 0.69 3.1 0.36 1.8-1.8-1.6-3.6-5.3-3.7zm381 0.064c-2.8 2e-3 -8.9 1.7-13 3.9-3.5 1.9-7.2 3.5-8.2 3.5-1.8 0-1.8 3.4 0.14 16 0.32 2.1 0.63 3.7 0.7 3.7 0.067-8e-3 1.9-0.66 4.1-1.5 2.2-0.79 6.4-1.5 9.2-1.5s5.3-0.38 5.3-0.79 0.68-5.7 1.5-12c0.81-6 1.5-11 1.5-11 0.014-0.42-0.55-0.61-1.5-0.61zm-302 0.36h21l-4.3 6-16-0.016c-289-0.3-24 0.016-34 0.016h-13v-6zm-117 0c3.3 0 4.5 0.39 4.5 1.5s-1.2 1.5-4.5 1.5-4.5-0.39-4.5-1.5 1.2-1.5 4.5-1.5zm48 0c-1.8 0-2 0.67-2 7s0.19 7 2 7 2-0.67 2-7-0.19-7-2-7zm17 0c0.81 0 1.5 0.68 1.5 1.5s-0.4 1.5-0.89 1.5-1.2-0.68-1.5-1.5c-0.35-0.91-2e-3 -1.5 0.89-1.5zm-46 5.6c0.49-0.3 1.2 0.12 1.5 0.94 0.35 0.91-2e-3 1.5-0.89 1.5-1.6 0-2-1.6-0.57-2.4zm-19 1.6c3.4 0.22 4.8 0.72 4.8 1.8s-1.3 1.6-4.8 1.8c-4.3 0.27-4.8 0.088-4.8-1.8s0.49-2.1 4.8-1.8zm70 1.8h15c10 0 21-0.33 32 6e-3 6.8 0.21 16-0.83 16 2.9-0.054 4.4-20 3-22 3-1.7-0.044-3.4-0.096-5.2-0.2-0.86-0.04-1.7-0.08-2.6-0.098-2.1 0.29-6.8 0.32-17 0.25-11-0.075-19-0.33-18-0.57 1.6-0.31 2.2-1.1 2.2-2.9zm63 5.1c-323-513-323-513 0 0zm-13 3.7c0.51 1e-3 1 9e-3 1.5 0.02 1.4 0.038 2.7 0.13 4.1 0.24 0.71 0.05 1.4 0.13 2.1 0.24 0.64-0.13 1.4-0.42 1.8-0.34 0.53 0.1 0.85 0.38 0.85 0.87 0 0.45-1 1.8-2.3 3s-3.1 1.9-5 2c-0.09 0.15-0.3 0.27-0.64 0.25-0.45-0.032-32-0.1-32-0.1h-24v-6h39c0.11-0.063 0.25-0.11 0.44-0.11h3.1c2.1 7e-3 4.2-3e-3 6.3-0.037 1.5-0.035 3.1-0.069 4.6-0.064zm19 0.34c1.6 0.2 4.7 3.2 15 13 13 13 14 14 12 15-3.6 1.9-4.5 1.4-17-12-13-13-14-14-11-17 0.42-0.38 0.8-0.62 1.3-0.55zm-72 8.8c16 0.12 32 0.49 47 0.9 0.77 0.018 1.5 0.028 2.3 0.035 0.52 4e-3 0.81 0.22 0.9 0.48 1.1 0.14 1.9 0.79 1.9 2.2 0 1.6-24 2.5-32 2.5h-20v-3zm56 0.072c0.28 0 0.22 0.45-0.12 1s-0.84 1-1.1 1-0.22-0.45 0.12-1 0.84-1 1.1-1zm3.6 4c0.6-0.24 2.9 1.6 6.3 5 2.7 2.8 4.7 5 4.5 5-0.84-0.065-10-8.1-11-9.1-0.2-0.55-0.21-0.86 0.01-0.94zm-1.1 3.3c0.34 0.044 0.63 0.21 0.81 0.48 0.64 0.99 6.1 5 14 10 10 6.9 15 12 11 14-1.4 0.64-2.6 1.2-2.8 1.2-1.5 0-25-25-24-26 0.34-0.21 0.71-0.28 1.1-0.24zm287 0.96c-3.8 0.22-7.3 1.9-11 5-1.7 1.6-3 1.9-5.7 1.3-4-0.75-10 1.4-11 3.9-0.33 0.85-1.7 1.5-3 1.5-2.3 0-8.3 2.5-8.3 3.5 0 0.26 16 0.47 35 0.47 30 0 42-0.57 31-1.5-1.7-0.14-4.3-1.5-6-3.1-8-7.9-15-12-21-11zm-312 1.2h3.7c1.6-7e-3 3.2 0.054 4.8 0.1 0.91 0.015 1.8 0.08 2.7 0.21 0.099 0.014 0.2 0.028 0.3 0.043 0.25 0.037 0.46 0.11 0.62 0.19h1.9l-2.9 3c-2.3 2.4-7.2 3.8-8.9 3-0.91-0.014-1.8-0.034-2.7-0.084-0.65-0.045-1.3-0.1-1.9-0.22l-0.32 0.33h-31v-6h18c4.5-0.016 3.7-0.62 14 0 0.17-0.3 0.58-0.54 1.2-0.54zm-32 9.5h26l-0.11 0.12c0.35 6e-3 0.71 0.012 1.1 0.018 1.8 0.022 3.6 0.018 5.4 0.074 0.094 3e-3 0.19 6e-3 0.28 0.01 0.6-0.073 1.2-0.22 1.8-0.22h5.2l-1.6 3c-1.4 2.8-23 3-28 3h-9.7l-0.44-3zm8.3 9h8.7l-0.072 0.076c0.2-4e-3 0.39-8e-3 0.59-0.012 1.8 0.011 3.6 0.053 5.4 0.08 0.26 4e-3 0.52 6e-3 0.78 0.01 0.18 3e-3 0.34 0.025 0.48 0.06 1-0.055 1.5-0.21 3.2-0.21 7.8 0 9.1 1 5.5 4.3-1.4 1.3-34 1.8-34 0.072 0.33-0.87 0.61-2.2 0.61-3 3e-5 -1.1 1.9-1.4 8.7-1.4zm194 2.5c-1.6 0.63-3.1 1.3-4.7 1.8 0.091 0.32 0.18 0.65 0.26 0.97 1 0.97 2.9 4.8 4.4 9.2 2.3 7.1 6.9 11 6.9 6 0-8.1 4.2-11 6.5-4 1.6 4.6 2.3 5.5 4.3 5.5 1.3 0 2.2-0.39 1.9-0.87-0.51-0.82 3.3-12 5.5-15 0.84-1.5 0.56-1.8-1.9-1.8-1.6 0-2.9 0.56-2.9 1.2-0.034 0.69-0.74 3-1.6 5.2l-1.5 4-1.6-3.7c-0.88-2-1.6-4.4-1.6-5.2 0-4.1-5.5-1.7-6.9 3-1.8 6.1-2.6 6.3-4.4 1.1-0.7-2-0.83-3.3-0.71-4.2-0.26-0.44-0.53-0.88-0.8-1.3-0.34-0.53-0.66-1.1-0.98-1.6zm-99 1.2c-1.3 0.1-2.3 0.35-2.7 0.79-4.3 3.9-2.4 9 3.8 10s6.6 1.3 5.2 3c-1.6 2-5 1.9-7.9-0.14-2-1.4-2.5-1.4-3.2-0.25-1.3 2-1.1 2.5 1.3 3.7 6.1 2.9 15 0.3 15-4.5 0-2.5-3-5.3-5.6-5.3-1.3 0-3.5-0.45-4.9-1-3.8-1.4-2.1-3.3 2.4-2.6 2 0.34 4.8 0.79 6.3 0.99 4.6 0.65 5.1 1.4 4.6 7.7-0.4 5.6-0.31 5.9 1.9 5.9 2 0 2.2-0.37 1.7-3-0.59-2.9-0.52-3 3.5-3 3.9 0 4.1 0.15 4.1 3 0 5.6 3.8 4 4.2-1.7 0.24-3.7 0.057-5.5 0.094-8.3 0.034-2.6-4.4-2.7-4.6 0.064 0.089 1.2-0.27 2-0.27 3-0.63 1-5.8 1.2-6.7 0.25-0.59-0.66 0.54-4.3 0.6-4.4-0.021-0.037-0.13-0.61-0.15-0.65-0.18-0.46-1.8-0.29-3.7-0.29s-3.6-0.42-3.9-0.93c-0.99-1.6-7-2.7-11-2.4zm130 2.8c-0.49 0.21-0.77 0.86-0.77 2 0 0.84-1.4 4-3 7.1s-3 5.8-3 6 1.1 0.36 2.5 0.36c1.8 0 2.5-0.53 2.5-2 0-1.6 0.67-2 3.5-2s3.5 0.38 3.5 2c0 1.6 0.67 2 3 2h3l-3.7-7.4c-2.7-5.4-6-8.7-7.4-8.1zm15 0.48c-2.1 2e-3 -2.2 0.39-2.2 7.5v7.5h6.5c3.7 0 6.5-0.44 6.5-1 0-0.55 0.11-1.3 0.25-1.7 0.14-0.37-1.8-0.71-4.2-0.75l-4.5-0.076v-5.8c0-5.3-0.18-5.8-2.2-5.8zm-111 2e-3c-1.7 0-2.4 0.55-2.4 2v7.9c0 4.7 0.18 5.1 2.4 5.1 2.2 0 1.9-0.26 1.9-4-0.024-8.4 0.21-6.8 0.014-9-0.14-1.6 0.031-2-1.9-2zm5.6 0v15h4s4-0.035 8.6 0c1.9 0.015 2.5-0.44 2.2-1.8-0.2-0.97-1.1-1.6-2-1.5-0.8 0.14-7.4 0.32-8.1-0.44-1.4-1.4-0.55-2 2-2.3 1.6-0.24 2.7-0.35 4.4-1.1 2.8-1.3-0.25-4-4.3-3.2-1.8 0.37-2.8 0.14-2.8-0.66 0-0.85 1.5-1.1 5-0.88 4.2 0.29 5 0.075 5-1.4-3.8e-4 -1.1-0.76-1.8-2-1.8h-8zm19 0c-1.5 0-2 0.67-2 2.5v12h6.5c5.5 0 6.5-0.26 6.5-1.8 0-1.5-0.74-1.7-4.6-1.4l-4.6 0.36s-0.29-1.4 0.14-10c0.074-1.5-0.62-2.1-2-2.1zm13 0v15h5.5c7.3 0 11-3.2 10-8.7-0.89-5.5-2.1-6.3-9.3-6.3zm88 0c-1.8 0-2 0.67-2 7.5v7.5h6.5c5.5 0 6.5-0.26 6.5-1.8 0-1.5-0.74-1.7-4.5-1.4l-4.5 0.36v-6.1c0-5.4-0.22-6.1-2-6.1zm-253 2.7c0.38-2e-3 0.76-2e-3 1.1 0 0.76 3e-3 1.5 0.015 2.3 0.031 0.59 0.013 0.98 0.22 1.2 0.5 1.2-0.12 1.9-0.3 3.8-0.37 4.7-0.2 7-0.32 7.6-6e-3 0.65 0.32-0.32 1.1-2.1 2.7-2.4 2.1-3.7 2.4-11 2.5 0 0-16-0.52-16-2.5 0-2.3 0.35-2.5 4.7-2.5h1.4c0.15-0.048 0.32-0.082 0.51-0.096 1.5-0.11 3.1-0.17 4.6-0.22 0.38-6e-3 0.76-0.011 1.1-0.014zm171 0.5c4.3-0.61 7 4.6 4 7.6-0.66 0.66-2.5 1.2-4.1 1.2-3.9 0-3.9-8.3 0.062-8.8zm52 2c0.02-0.89 1.9 2.1 2 3.1 8e-3 0.41-0.71 0.75-1.6 0.75-1.1 0-1.4-0.54-1-1.6 0.33-0.87 0.62-1.9 0.62-2.2zm-225 6.8h8.6l-0.32 2.8c-0.37 3.2-15 4.6-18 1.8-3.7-2.7 0.37-4.6 10-4.6zm-12 0.33c0.37-0.37 0.97-0.37 1.3 0 0.37 0.37 0.067 0.67-0.67 0.67-0.73 0-1-0.3-0.67-0.67zm-173 406h5.6c4.3 0 5.7 0.37 6.1 1.7 1.5 4.7 6.3 14 9.6 19 2.1 2.8 3.6 5.3 3.5 5.7-0.15 0.36-5.3 5.5-11 11-14 13-13 14-13-15zm643 0.36 3.9 0.12c2.1 0.065 4.6 0.18 5.4 0.25 1.3 0.11 1.4 3.2 1 24-0.28 13-0.75 24-1 24-0.3 0.3-5.6-4.6-12-11l-11-11 4.1-5.9c2.3-3.2 5.4-9 7-13zm-315 27 32 16h20v10l-7.8 0.1c-25 0.32-24 0.48-25-5.4-5-19-33-17-39 1.8l-1.3 3.7-15 0.22c-17 0.24-17 0.051-16-7.2l0.31-3.7 22-0.078 16-7.6zm-299 0.43 2.7 2.5c3.4 3.2 11 7.9 17 10l4.8 1.8-0.59 11-21 0.027c-31 0.039-31 0.29-15-15zm599 0.49 11 11c9.1 9.2 11 12 10 13-0.94 0.94-6.6 1.3-22 1.3-25 0-25-0.056-25-2.6-0.6-8.5-0.87-8 6.3-11 3.6-1.5 9.6-4.7 13-7.2zm-301 9.6c8.9-0.61 18 4.5 18 13 0.015 1.6-1.5 1.8-17 1.8-19 0-20-0.19-15-7.6 3-4.8 8.2-7.2 14-7.6zm185 5c2.2-0.026 23 0.01 46 0.07l42 0.12-0.19 5.2-0.18 5.2h-105c-123 0.019-110 0.68-110-5.6v-4.9l62-0.07c34-0.039 64-0.091 66-0.12zm-252 0.064c3 0 7.1 0.027 9.1 0.061l3.6 0.062-0.61 10-214 0.21v-10l98-0.062c54-0.034 101-0.061 104-0.061zm88 12c0.28 0 0.5 0.22 0.5 0.5s-0.22 0.5-0.5 0.5-0.5-0.22-0.5-0.5 0.22-0.5 0.5-0.5z"/>
 <text x="103.19067" y="626.547" fill="#000000" font-family="Sans" font-size="36px" stroke="#000000" stroke-linejoin="round" xml:space="preserve"><tspan x="103.19067" y="626.547">Play after the storm movement is </tspan><tspan x="103.19067" y="656.547">calculated, but before storm is moved, </tspan><tspan x="103.19067" y="686.547">and if you have token(s) on the Shield </tspan><tspan x="103.19067" y="716.547">Wall, or in an adjacent territory. </tspan><tspan x="103.19067" y="746.547"/><tspan x="103.19067" y="776.547">All tokens in the Shield Wall are </tspan><tspan x="103.19067" y="806.547">destroyed. Arrakeen, Imperial Basin &amp; </tspan><tspan x="103.19067" y="836.547">Carthag are no longer protected from  </tspan><tspan x="103.19067" y="866.547">the storm for the rest of the game. </tspan><tspan x="103.19067" y="896.547"/><tspan x="103.19067" y="926.547">Place this card near the game board.</tspan></text>
 <text x="118.03568" y="213.43439" fill="#000000" font-family="Sans" font-size="43px" stroke="#000000" stroke-linejoin="round" xml:space="preserve"><tspan x="118.03568" y="225">Special - Storm</tspan></text>
</svg>
