<?xml version="1.0" encoding="UTF-8"?>
<!-- Created with Inkscape (http://www.inkscape.org/) -->
<svg width="822" height="1122" version="1.1" viewBox="0 0 822 1122" xmlns="http://www.w3.org/2000/svg">
 <path d="m104 1e3c-19-0.56-20-1.1-24-8-2.5-4.6-3-933-0.49-939 0.75-1.8 2.8-4.5 4.6-6l3.2-2.7h642l7.8 7.8v469c0 412-0.18 470-1.5 472-0.81 1.6-3 3.8-4.9 5l-3.4 2.1-303 0.25c-167 0.14-311 0.021-320-0.25zm30-8.6-0.3-5.5-6.6-2.8c-3.6-1.5-9.1-4.6-12-6.9-7-5.3-5.3-5.9-18 6.5-15 15-15 14 15 14l22-0.018zm218 0.55c0.19-2.8 0.16-5.3-0.07-5.5-0.23-0.23-49-0.42-108-0.42h-107v11h215zm36 0.75c2.4-8.8 14-17 23-15 8.3 1.4 14 6.4 17 16l1.2 3.2 31-0.042v-11h-21l-30-15-29 15-12 0.53c-13 0.59-13 0.71-12 8.3l0.52 2.8h30zm37 1.7c-1.9e-4 -14-26-18-33-4.4-3.4 6.5-3.3 6.5 16 6.5 17 0 17-0.048 17-2.1zm254-2.9 0.13-5.5h-216v4.8c0 2.7 0.3 5.1 0.67 5.5 0.37 0.37 49 0.67 108 0.67h107zm-61 4c0-0.28 0.22-0.5 0.5-0.5s0.5 0.22 0.5 0.5-0.22 0.5-0.5 0.5-0.5-0.22-0.5-0.5zm111 0.59c1.8-1.1-0.74-4.9-7.5-11-2.7-2.4-6.9-6.4-9.5-8.8l-4.6-4.5-6.6 4.9c-5.5 4.1-11 6.7-17 8.8-1.3 0.4-2 4.5-1.5 8.7l0.36 2.8 23-0.015c12-0.01 23-0.41 24-0.9zm5.4-29 0.25-23-11 1e-3 -1.3 4.2c-1.8 6-5.5 13-9 17-3.8 4.3-4.7 2.6 8.2 15 14 14 13 15 13-14zm-639 13 11-11-3.8-4.9c-4.1-5.3-9.7-16-9.7-19 0-1.2-1.2-1.6-6-1.6h-6v22c0 30-1.1 29 14 14zm297-5.2 16-8 32 16 243-0.53 6.5-3.1c13-6 23-17 28-29l2.3-5.5v-802l-22-0.56-0.69 4.6c-10 67-112 68-121 1.3l-0.77-5.3-480-0.5 0.042 800 2.4 6.7c5.3 15 19 29 34 33 3.4 1.1 28 1.3 124 1.4l120 0.067zm-61-413-212-0.5-3.8-2.3c-2.1-1.3-5-4.4-6.5-7l-2.7-4.7-0.26-158c-0.18-109 0.069-160 0.79-162 1.2-4.5 5.9-10 10-12 4.4-2.3 579-2.4 583-0.11 3.3 1.7 7.6 6.1 9.3 9.4 0.86 1.7 1.1 43 1.1 163l-0.034 161-2.5 4.3c-1.4 2.3-4.2 5.3-6.3 6.6l-3.8 2.3-78 0.5c-43 0.28-173 0.28-290 0zm308-3h57l4.2-2.5c8.9-5.2 8.4-0.13 8.4-90v-159c0-83 0.063-82-4.8-87-5.3-5.7-4.3-5.6-65-5.6h-316l-144 0.022c-79 0.031-70-12-70 94 0 0-0.25 76-0.2 158 0.05 88-0.35 84 9.5 90 2.9 1.8 11 1.9 233 1.9 0 0 251 4e-3 288 4e-3zm-392-12c-21-2.4-27-5-26-13 0.067-7-1.1-6.7 13-4.5 27 4 71 1.3 94-5.7 4.5-1.3 8.2-2.3 8.3-2.2 0.11 0.14 0.43 3.2 0.72 6.7s0.2 5.6-0.2 4.6c-0.71-1.9-2.5 1.3-2.2 3.7 0.16 1-11 6-12 5.2-0.3-0.3-0.1-0.54 0.43-0.54 0.54 0 1.8-0.65 2.9-1.5 1.3-0.95-0.66-0.64-5.6 0.9-18 5.8-53 8.8-74 6.4zm-5-18c-4.7-0.48-12-1.6-16-2.5-4.1-0.89-8.3-1.7-9.2-1.7-0.94-0.05-1.5-0.29-1.2-0.54s-0.33-1.3-1.3-2.4c-1.4-1.6-1.7-3.7-1.6-11 0.071-5.4-0.28-9.4-0.84-9.4-0.79 0-0.19-7.8 0.68-8.8 0.13-0.15 4 0.62 8.6 1.7 4.6 1.1 12 2.3 16 2.7l7.8 0.68v4.4c0 5.1 3e-3 5.1-12 2.9-12-2.1-16-2.6-15-1.7 1.2 0.68 24 5.1 26 5.1 0.39 0 0.7 0.93 0.7 2.1 0 7.8 9.7 8.1 12 0.36 0.6-2.4 0.82-2.4 12-2.5 6.1-0.048 15-0.39 20-0.75 8.2-0.63 8.7-0.55 9 1.3 0.55 3.8 3.6 3 4.4-1.2 2.2-12 15-16 17-4.9 1.9 10-8.2 18-15 11-1.4-1.3-2.4-1.7-2.9-1-0.36 0.58 0.83 2 2.6 3.1 6.7 4.2 15 0.52 17-7.4 0.75-3.8 1.2-4.2 5.8-5.8l5-1.7-5.2 0.58c-3.5 0.39-5.2 0.22-5.2-0.51 0-1.8-4.2-5.2-6.4-5.2-3.7-0.054 0.46-1.7 6.3-2.5 2.9-0.39 5.1-0.92 4.9-1.2-0.25-0.25-6.5 0.28-14 1.2-19 2.3-57 3.3-57 1.4 0.37-1.1 4.7-1.5 21-2.1 25-0.81 47-3.2 60-6.3 11-2.7 12-1.3 2.1 2.2-6.6 2.3-6.4 2.9 0.31 1.4l3.8-0.87v3.9c0 3.5-0.38 4.1-3.2 5.4l-3.2 1.5 3.2-0.61c3-0.56 3.2-0.39 3.2 1.9 0 2.7 3 4.4 5.2 3 0.85-0.53 0.46-0.96-1.2-1.4-3.3-0.8-3.5-13-0.34-16 2.2-1.6 0.64-5-2-4.5-1.4 0.26-1.6-1.5-1.6-16v-16l2.6-1.2c3.1-1.4 2.9-4.5-0.33-5l-2.2-0.32v-143h2.5c2.6 0 3.5-2.5 1.6-4.6-3-3.3-1.6-17 1.6-14 1.4 1.2 1.2 218-0.24 222-0.2 0.61-0.55 2.5-0.77 4.1-0.39 3-0.4 2.9-0.7-0.5-0.27-3.1-0.37-3-0.9 1.5-1.5 13-57 23-102 18zm92-28c-0.33-0.33-1.2-0.37-1.9-0.079-0.8 0.32-0.56 0.56 0.6 0.6 1.1 0.043 1.6-0.19 1.3-0.53zm-4-9c-0.33-0.33-1.2-0.37-1.9-0.079-0.8 0.32-0.56 0.56 0.6 0.6 1.1 0.043 1.6-0.19 1.3-0.53zm-117 32c0-0.28 0.22-0.5 0.5-0.5s0.5 0.22 0.5 0.5-0.22 0.5-0.5 0.5-0.5-0.22-0.5-0.5zm204-4.2c-17-1.4-32-5.1-33-8.3-2.4-4.5-1.3-9 2.2-9.1 3-0.075 2.9-0.19-1.7-1.8-6-2-7.5-4.5-7.5-13-0.013-5.2 0.19-5.8 1.7-5.2 4.7 1.9 30 5.5 38 5.5 0.73 0 1.3 0.83 1.3 1.8 0 5.6 7.2 6.3 7.8 0.8l0.32-2.6 13-0.014c7.3-8e-3 14-0.27 15-0.58 1.7-0.45 2.3-0.021 2.8 2 2.4 9.8 17 8.8 17-1.1 0-2.8 5-6.7 6.6-5.1 16 16-29 27-84 19-2.7-0.39-3.5-0.26-2.5 0.39 5.1 3.3 48 4.4 68 1.7 6.3-0.85 12-1.6 12-1.6 1.3 0 0.93 9.7-0.44 11-5.1 4.2-36 7.2-56 5.5zm-74-1.8c0-0.28 0.22-0.5 0.5-0.5s0.5 0.22 0.5 0.5-0.22 0.5-0.5 0.5-0.5-0.22-0.5-0.5zm2.1-3.1c0.048-1.2 0.28-1.4 0.6-0.6 0.29 0.72 0.25 1.6-0.079 1.9-0.33 0.33-0.57-0.26-0.53-1.3zm-98-0.62c-0.9-0.9-1.1-7.2-0.66-25 0.65-29 2.3-119 3.1-176 0.65-42 0.94-46 4.3-46 3.9 0 5.9 17 2.2 18-1.6 0.53-1.3 3.7 0.4 5.2 1.3 1.1 1.4 4.7 1 25-0.31 15-0.12 25 0.48 26 0.81 1.2 0.98 1.2 0.99-0.53 0.028-3.8 2.7-6.1 8.5-7.4 8.3-1.9 11-4.5 11-11 0.13-7.8 2.1-11 6.7-12 7.7-0.65 9.9 6.5 5.1 16l-2.8 5.6 2.4 1.9c1.3 1.1 3.4 1.9 4.7 1.9 3.2 0 6 3.9 8.5 12 1.2 3.9 3.1 9.1 4.1 11 1 2.4 2.8 8.4 3.9 13 1.1 5 3.1 12 4.5 15 2.9 6.8 3 7.9 0.97 7.9-0.82 0-1.5-0.84-1.5-1.9 0-1-0.68-2.4-1.5-3.1s-1.5-2.3-1.5-3.7-2.2-7.2-4.9-13c-2.7-5.9-5.9-13-7.1-16-6.5-15-8.4 9.4-2.5 32 7.8 30 7 59-1.8 59h-3l0.6-6.4c0.33-3.5 1.3-8.1 2.1-10 1.5-3.5 1.4-3.9-1.8-12-1.8-4.5-4.5-12-6-16-4.5-13-8.7-17-8.6-10 0.011 3.9-3.9 24-6.1 31-1 3.4-1.9 8.7-1.9 12 0 9.2-0.83 12-4.1 12-3.8 0-4.9-7.6-2.8-19 0.96-5.2 1.2-12 0.89-22-0.44-13-0.6-14-1.3-8.7-0.45 3.2-0.51 10-0.13 16 0.55 7.8 0.35 11-1 16-1.6 5.5-1.6 11 0.091 17 0.41 1.4-0.11 1.8-2.6 1.8h-3.1l0.67-46c0.63-43 0.79-46 2.6-48 2.7-3.8 3.2-3.6 6.2 3.3l2.7 6-1.7 11c-2 12-1.5 15 0.88 3.9 3.2-15-1.4-32-7.1-27-1.9 1.7-2 1.7-2.6-1.4-1.4-7.1-1.8-7e-3 -2.6 48-0.71 44-1 50-2.4 52-2 2.2-2.1 3.5-0.13 5.1 2.2 1.8 2.2 34 0.032 37-1.7 2.2-2 5.4-0.53 5.4 1.5 0 1.3 15-0.2 17-1.5 1.5-4.1 1.5-5.6-3e-3zm18-123c-0.32-0.8-0.56-0.56-0.6 0.6-0.043 1.1 0.19 1.6 0.53 1.3s0.37-1.2 0.079-1.9zm33 116c0-0.73 0.3-1 0.67-0.67 0.37 0.37 0.37 0.97 0 1.3-0.37 0.37-0.67 0.067-0.67-0.67zm-43-4.9v-3.9l6.2-0.55c3.4-0.3 14-0.83 24-1.2l17-0.62-3.7 4.5c-4.5 5.5-5.6 5.7-27 5.7l-16 0.011zm44 2.4c0-0.28 0.22-0.5 0.5-0.5s0.5 0.22 0.5 0.5-0.22 0.5-0.5 0.5-0.5-0.22-0.5-0.5zm212-5c-5.6-0.79-13-2.2-16-3.2l-5.3-1.8-0.31-4.8c-0.29-4.5-0.19-4.8 2-4.3 8.5 1.9 13 2.6 25 3.6 14 1.2 48 0.81 51-0.58 1.5-0.62 1.8-0.077 1.8 4.3 0 7.6-29 11-59 6.6zm-164-4c8e-3 -2.8 0.2-3.8 0.43-2.2 0.23 1.5 0.22 3.8-0.014 5-0.24 1.2-0.43-0.014-0.42-2.8zm-124-2c-3.9-0.7-8.5-2-10-3s-3.7-1.4-4.2-1.1c-1.5 0.96-1.1-0.48 1-3.5 2-2.7 7.6-5.8 8.7-4.7 0.31 0.31-0.86 1.3-2.6 2.2-7.4 3.8-0.83 6.5 22 9 3.2 0.34 5.8 1 5.8 1.6 0 1.3-12 0.99-21-0.53zm239 0.21c-3.7-4.5-1.3-14 3.5-14 3.7 0 5.3 1.7 5.3 5.8 0 7-5.5 12-8.8 8zm-44-1.7c-3.2-5.3-1.5-196 1.8-196l2.2 0.31 0.51 147 24-0.71c13-0.39 26-1.1 29-1.6 2.5-0.47 4.7-0.67 4.9-0.45 2.2 2.1-12 3.6-36 3.8l-22 0.14-0.27 24c-0.27 24-1.1 29-4.3 24zm39-1.1c-1.2-2.2 0.23-8.3 2.2-9.6 0.57-0.35 0.49 0.37-0.19 1.6-0.67 1.3-0.98 4-0.69 6.1 0.58 4.4 0.27 4.8-1.3 1.8zm-203-0.19c0-2.7 3-3.1 29-3.5 46-0.82 38 2.3-12 4.4-15 0.64-17 0.54-17-0.83zm-13-0.43c0.37-0.37 0.97-0.37 1.3 0 0.37 0.37 0.067 0.67-0.67 0.67-0.73 0-1-0.3-0.67-0.67zm-19-1.4c-5-2 4.5-7 16-8.6l4.4-0.61v4c0 5.5-12 8.6-21 5.2zm296-1c-12-0.86-27-3.2-32-4.9-2.4-0.92-2.6-1.5-2.6-6.8v-5.8l22 2.5c20 2.2 22 2.6 22 4.3 0 1.1 0.98 2 2.4 2.4 3 0.76 4.6-0.11 4.6-2.6 0-1.8 0.75-1.9 8.2-2 4.5-6e-3 9.9-0.29 12-0.63 3.1-0.51 3.8-0.32 3.8 1.1 0 2.8 4.6 6.6 7.9 6.6 3.1 0 4.5-1.6 6.2-6.9 0.56-1.8 0.75-0.67 0.65 3.8-0.08 3.5-0.49 6.5-0.91 6.8-4.2 2.6-34 3.8-56 2.3zm-303-0.78c-1.1-0.67-1-0.97 0.33-1.5 2.6-1 3.5-0.76 2.9 0.86-0.65 1.7-1.3 1.8-3.2 0.62zm40-1.6c-0.58-7.2-2.7-6.6 28-8.4l12-0.67-8.8-0.86c-4.8-0.48-11-0.59-13-0.24l-3.9 0.62-0.66-6.2c-0.36-3.4-0.51-8-0.33-10l0.33-4 9.9-0.29c9.9-0.29 9.9-0.29 9.2 2-2.3 7.8-2.1 8.4 3.5 14l5.4 5.3 18 2.2c9.9 1.2 19 2 20 1.7 1.8-0.43 2.2-0.11 2.2 1.5 0 3.8-9.2 5.6-21 4.3-11-1.2-38-1.4-52-0.28-5.6 0.43-8.8 0.31-8.8-0.34zm81-3.5c0-0.55-0.48-1-1.1-1s-0.78 0.45-0.44 1 0.82 1 1.1 1 0.44-0.45 0.44-1zm88 1.5v-3.5h4.8c2.7 0 10-0.3 17-0.66l12-0.66-2.2 3.4c-2.3 3.7-6.7 4.5-26 4.8l-6.2 0.11zm-31 0.96c-15-2.1-19-3.6-19-7.9-0.25-3-0.13-3 6.3-1.1 4.2 1.2 26 3.5 33 3.5 2 0 2.4 0.49 2.4 3.5v3.5l-6.2-0.1c-3.4-0.057-11-0.7-16-1.4zm87 0.21c-0.74-1.9 0.34-9.9 1.5-11 1.3-1.7 0.09-4.6-1.6-3.9-3.6 1.4-3.7-24-0.12-26 1.4-0.63 2.5-1.8 2.5-2.7 0-0.96-0.93-1.5-2.5-1.5h-2.5l-0.076-26c-0.042-14-0.26-41-0.48-59l-0.4-33 2.2 0.68c1.2 0.38 2.3 0.76 2.4 0.84 0.11 0.088 0.6 25 1.1 56 1.5 93 1 114-2.1 106zm-271-1.7c0.34-0.55 0.84-1 1.1-1s0.22 0.45-0.12 1-0.84 1-1.1 1-0.22-0.45 0.12-1zm261-2.5c-2.5-2.9-2.2-3.2 3.8-4.1 4.9-0.79 5.2-0.68 5.7 2.1 0.69 4.5-6 5.9-9.4 2zm-258 1c0-0.28 0.22-0.5 0.5-0.5s0.5 0.22 0.5 0.5-0.22 0.5-0.5 0.5-0.5-0.22-0.5-0.5zm9-0.85c0-0.97-0.67-1.3-2-0.94-1.9 0.5-3.3-24-1.5-26 2.7-2.7 6.4 0.65 6.8 6l0.36 5.6 0.38-12 5.2 0.63c2.9 0.35 7.4 0.63 10 0.64l4.8 9e-3 -0.014 9.2c-0.02 14 0.34 13-10 15-4.9 0.96-9.1 1.6-9.2 1.4-0.15-0.21-0.78-1.5-1.4-2.9l-1.1-2.5-0.068 2.7c-0.069 2.7-2.1 5.1-2.1 2.5zm347-1.3c-1.8-2.1-1.6-8.1 0.22-9.9 1.8-1.8 4.6-0.99 5.4 1.7 1.6 5.2-2.8 12-5.6 8.3zm-36-1.6c-0.3-4.8-2.9-143-2.9-154-4e-3 -7.5 1.4-11 3.7-8.3 0.78 0.78 0.77 0.44 1.8 74 1.3 89 1.3 89-0.81 89-0.96 0.19-1.8-0.26-1.8-0.98zm33 0.51c-1.2-1.2-0.67-6.9 0.89-8.9 1.5-1.8 1.5-1.8 0.4 0.42-0.63 1.3-0.97 3.9-0.76 5.8 0.43 3.7 0.43 3.7-0.54 2.7zm-302-1.9c-2-2-2-4-0.071-9.4 0.82-2.3 1.5-6 1.5-8.1 0-3.2 0.34-3.9 2-3.9 1.9 0 2 0.67 2 12 0 12-1.1 14-5.4 9.9zm68 0.57c-2.6-0.65-2.2-0.78 2.2-0.88 2.9-0.066 5.2 0.33 5.2 0.88 0 1.1-3.1 1.1-7.5 0zm71-0.059c-18-1.4-27-3.7-27-6.8 0-1.3 0.26-1.3 1.8 0.13 2.6 2.4 26 5.7 39 5.7 0.44 0 0.8 0.45 0.8 1s-1 0.94-2.2 0.86c-1.2-0.078-6.8-0.49-12-0.92zm23 0.21c0-0.8 3.7-1.1 12-1.2 15-1e-3 33-1.6 40-3.6 5.7-1.6 7.7-1.3 4.2 0.56-6.7 3.6-56 7.3-56 4.2zm-168-0.99c-0.14-0.36-0.26-5.2-0.25-11l0.012-10h3.5c4 0 4.8 4.1 2.3 11-0.69 2-1.3 4.8-1.3 6.2-0.014 2.4-3.5 4.9-4.3 3zm62-0.25c-3-0.33-7-0.38-8.8-0.12-2 0.3-3.2 0.056-3.2-0.65 0-0.64 1.6-1.1 3.8-1.1 6.2 0.012 17 1.2 17 1.9 0 0.77-1.7 0.76-9-0.027zm-25-6-4.8-4.9 1.4-4.8c2.1-7.2 6.3-7.6 5.9-0.5-0.3 4.3 0.046 5.3 3.3 9.1 6.4 7.7 1.6 8.5-5.7 1zm9.7 1.8c-1.8-4.5-0.58-18 1.6-18 1.8 0 2 0.73 2 8.9 0 9.4-1.7 14-3.6 8.9zm87 0.98c-15-2-0.24-6.7 21-6.7h5v7h-6.4c-3.5 0-7.7 0.17-9.2 0.38s-6.4-0.086-11-0.65zm45 0.28-10-0.5-0.65-6.8 15 0.64c21 0.89 36 3.5 32 5.7-2 1.1-21 1.6-36 0.94zm65-2c-15-2.1-15-2.2-15-5.4v-2.3l11 1.8c6.2 1.1 16 1.8 22 1.8l12 9e-3v6l-8.2-0.11c-4.5-0.058-14-0.93-21-1.9zm37-0.31c0-2.3 0.18-2.4 13-2.9 15-0.66 15-0.71 12 2.8-2.5 3.8-26 4-26 0.18zm40 1.3c0-0.73 0.3-1 0.67-0.67 0.37 0.37 0.37 0.97 0 1.3-0.37 0.37-0.67 0.067-0.67-0.67zm-102-1c-0.34-0.55-0.14-1 0.44-1s1.1 0.45 1.1 1-0.2 1-0.44 1-0.72-0.45-1.1-1zm98-3c-1.8-2-1.7-2 0.85-2 2 0 2.7 0.5 2.7 2 0 1.1-0.38 2-0.85 2-0.46 0-1.7-0.9-2.7-2zm-275-2.2c-2.4-3.4-1.7-11 1.1-11 1 0 1.4 1.6 1.4 6.5 0 7.2-0.18 7.5-2.4 4.3zm81-10v-12l7.2 0.59c4 0.33 12 0.88 17 1.2l9.8 0.65-0.21 7.1c-0.12 3.9 0.1 8 0.48 9.1 0.66 1.9 0.19 2-9.6 2.3-10 0.32-12 0.43-20 2l-4.8 0.89zm91 12c-0.82-0.22-7.1-1-14-1.8s-10-1.4-8-1.5c5.3-0.14 21 1.6 25 2.9 2.9 0.86 0.4 1.2-2.7 0.38zm-142-2.8c1.4-1.5 2.1-3.1 1.7-4.1-0.4-1.1-0.18-1.5 0.62-1.2 3.3 1.1 0.61 7.8-3.1 7.8-1.1 0-0.95-0.6 0.78-2.4zm45-10c0-12 0.079-12 2-12 1.9 0.49 2 1.4 2 12 0 11-0.11 12-2 12-1.9 0-2-0.67-2-12zm166 11c-1.3-0.54 2.8-0.89 11-0.94 12-0.068 21-0.93 27-2.6 1.8-0.47 1.7-0.3-0.43 0.91-1.6 0.9-6.6 1.7-13 2.1-5.7 0.32-13 0.76-16 0.99s-6.9 0.019-8-0.45zm-30-0.99c-10-0.8-24-3-24-4 0-0.37 2.8-0.096 6.2 0.61 3.4 0.7 13 1.7 22 2.3s16 1.3 16 1.6c0.64 0.64-9.7 0.41-21-0.49zm-84-1.3c-1.8-4.8 0.056-17 2.7-18l2.6-0.3-0.11 9.3c-0.11 9.2-3.1 14-5.2 8.5zm6.5-2.2c0-1.6 0.57-2.5 1.5-2.5 1.6 0 1.9 0.92 0.89 3.4-0.93 2.4-2.4 1.9-2.4-0.92zm6.3 1.8c0.37-0.37 0.97-0.37 1.3 0 0.37 0.37 0.067 0.67-0.67 0.67-0.73 0-1-0.3-0.67-0.67zm70-1.2c-22-2.1-20-3.4 4.2-3.9l18-0.41v3.1c0 3.7 2 3.6-22 1.2zm30 1.2c-4.2-4.2 2.5-5.3 20-3.2 12 1.4 13 2.5 2.3 3.3-11 0.84-21 0.83-22-9e-3zm-124-3.3c-0.68-1.6-0.86-3.5-0.4-4.2 0.45-0.72 1.1-3.3 1.5-5.8 0.51-3.6 0.67-2.7 0.78 4.2 0.15 9.6-0.037 10-1.8 5.8zm24 0.01c-2.1-1.7-4.5-3.1-5.2-3.1-2.3 0-2.6-2-0.86-6.5 2.4-6.3 6-6.5 5-0.31-0.6 3.8-0.36 4.5 2.5 7.4 4.4 4.5 3.3 6.3-1.5 2.5zm136-9.8c-0.3-9.9 0.71-14 2.9-12 2 2 1.5 21-0.51 22-2 0.51-2.1 0.071-2.4-9.9zm-5.6 9c0.96-0.25 2.5-0.25 3.5 0 0.96 0.25 0.18 0.46-1.8 0.46s-2.7-0.21-1.8-0.46zm-8.5-1c1.2-0.24 3-0.23 4 0.02 0.96 0.25-0.062 0.45-2.3 0.43s-3-0.22-1.7-0.46zm-74-10v-10l15 0.62c20 0.82 18-0.11 16 9.9-0.61 2.5-0.23 3.3 2.7 5.7l3.4 2.8-12-0.15c-6.6-0.082-15 0.2-18 0.62l-6.2 0.77zm52 8.9c-1.1-0.71-0.34-0.97 2.8-0.98 2.6-9e-3 4.1 0.38 3.7 0.98-0.78 1.3-4.5 1.3-6.5 0zm11 0.29c1.2-0.24 3.3-0.24 4.5 0 1.2 0.24 0.22 0.43-2.2 0.43s-3.5-0.2-2.2-0.43zm-21-0.98c0.72-0.29 1.6-0.25 1.9 0.079 0.33 0.33-0.26 0.57-1.3 0.53-1.2-0.048-1.4-0.28-0.6-0.6zm-6.5-2.2c-4.4-2.7-4.6-3.4-2.8-9 2.1-6.3 3.4-6.5 3.4-0.41 0 2.9 0.76 5.9 2.1 8 2.4 3.8 1.8 4.2-2.7 1.4zm19 0.045c-1.3-0.37-2.6-1.3-2.9-2.1-0.32-0.96 0.062-1.2 1.3-0.72 0.95 0.36 2.1 0.66 2.5 0.66s1.1 0.68 1.4 1.5c0.32 0.82 0.48 1.5 0.36 1.4-0.12-0.055-1.3-0.4-2.6-0.78zm-286-1.5c0-1.1 4.3-1.5 20-2 24-0.79 55-2.4 63-3.2 9.1-0.88 5.6 1.2-5 3-19 3.2-78 4.9-78 2.2zm-36-0.79c-9.3-1.5-10-4.8-1.6-6.4 3.1-0.58 3.8-0.44 3.4 0.66-0.29 0.87-1.5 1.3-3.4 1-2.2-0.26-2.6-0.058-1.8 0.85 0.73 0.75 6.5 1.4 16 1.7 11 0.42 15 0.85 15 1.9 0 1.6-18 1.7-27 0.21zm307-0.52c-1.1-1.1-0.77-11 0.33-11 0.56 0 1 2.7 1 6 0 6.1-0.12 6.5-1.3 5.3zm-298-3c-1.3-0.34-1.5-2.9-1.2-16 1.3-78 2.2-124 2.5-124 0.23-0.23 4.6 0.6 9.7 1.8l9.3 2.3-0.45 23c-0.33 17-0.81 24-1.8 26-0.83 1.5-1.7 7.5-2.1 15-0.38 6.9-1 13-1.4 15-0.46 1.4 0.088 3 1.8 5l2.4 2.9-1 50-8.1-0.12c-4.5-0.064-8.8-0.3-9.6-0.52zm44-0.61c0.24-0.69 0.87-5.3 1.4-10 0.52-5 2.3-15 3.9-22s3.3-15 3.7-17c0.89-4.9 1.2-4.4 6.6 10 2.2 5.9 4.9 13 6.1 16 2.1 4.6 2.1 4.9 0.48 10-0.92 2.9-1.7 7.6-1.7 10v5.2h-10c-7.9 0-10-0.3-10-1.2zm-49-1.5c0.089-1.1-0.69-1.9-2.1-2.1l-2.3-0.32 0.57-19c0.59-20 2.5-107 2.5-114 0-3.5 0.23-3.9 2-3.3 1.1 0.36 2 0.18 2-0.43 0-0.59 0.52-1.1 1.2-1.1 0.86 0 0.99 12 0.49 47-1 74-1.7 95-3.2 95-0.68 0-1.2-0.79-1.1-1.7zm81-4.5c0.44-3.4 0.74-9 0.68-12-0.69-36-0.73-58-0.11-58 3.8 0 5.9 65 2.3 69-0.68 0.84-0.8 2.2-0.32 3.4 1.2 3.1 1.1 3.5-1.2 3.5-2 0-2.1-0.28-1.3-6.2zm31 2.8c-0.26-0.26-6.2-0.54-13-0.62-7-0.082-13-0.53-13-1-1.1-1.7 4.8-2.1 16-1 6.2 0.61 12 1.1 13 1.1 0.93 0 1.7 0.45 1.7 1 0 1-3.3 1.4-4.1 0.52zm50-1.6c-10-1.3-15-3.7-6-3.3 2.3 0.12 3.5-0.01 2.5-0.3-1.6-0.49-1.8-4.1-1.8-57 0-53 0.095-56 1.8-56 3.3 1.4 13 3.3 24 4.5l11 1.2v6.4c0 5.2-0.32 6.5-1.8 6.9-4.8 1.5-4.2 0.65-11 16-4.8 11-5.1 12-4.4 16 0.41 2.9 0.67 8 0.59 11-0.17 6.9 2.7 12 4.8 9.4 0.57-0.82 0.84-2.3 0.59-3.3-0.32-1.3-0.015-1.7 1.1-1.2 1.3 0.49 1.4 0.018 0.87-2.7-2.1-10-1.4-18 2.1-25 3-5.8 8.3 4.2 6.6 12-0.54 2.4-0.58 4.5-0.097 4.8 0.48 0.29 0.87 5.1 0.87 11 0 12-1.2 12-2.1 0.47l-0.63-8.2-0.099 9c-0.055 5 0.48 13 1.2 18 1.1 7.9 1.1 10-0.056 13-0.74 1.9-1.3 5.8-1.3 8.8v5.4l-14-0.49c-11-0.39-13-0.32-5.8 0.33 4.7 0.45 12 0.87 15 0.92 3.7 0.055 7 0.55 7.3 1.1 0.74 1.2-22 1.2-31-0.07zm153-0.93c0-0.73 0.3-1 0.67-0.67 0.37 0.37 0.37 0.97 0 1.3-0.37 0.37-0.67 0.067-0.67-0.67zm-211-1.7c0.96-0.25 2.5-0.25 3.5 0 0.96 0.25 0.18 0.46-1.8 0.46s-2.7-0.21-1.8-0.46zm88-3.8c-0.34-2.5-0.2-5.5 0.3-6.8 0.69-1.7 0.93-0.64 0.98 4.5 0.073 7.8-0.4 8.7-1.3 2.3zm9.8-9.3c0.4-7.6 1.1-17 1.5-20l0.75-6.5 1.7 3.7c1.3 3 1.7 6.9 1.7 20v17h-6.3zm6.6-0.95c0-11 0.31-14 1.1-14 1.6 1.6 2.3 12 1.5 21-1.2 13-2.5 8.7-2.5-7.1zm3.5 11c0.39-2.4 1.3-5.8 2.1-7.7 1.9-4.7 1.9-4.9-3.2-17-5.3-13-6-13-8-11-2.3 3.1-2.1-68 0.12-71 3-4.3 10-1.8 10 3.5 0 3.2-2.9 10-4.7 12-1.9 1.4-0.99 3.5 1.6 3.5 3.4 0 4.2 2.2 11 30 1.1 4.4 3.1 9.5 4.4 11 2.4 3.6 3.2 7.1 1.5 7.1-0.96 0-1.6-1.2-8.6-17-6.1-14-6.5-14-6.5-4.4 0 6.1 0.73 10 3 18 7.3 24 6.7 45-1.4 46-2.7 0.32-2.8 0.28-2.1-4zm34 2.2c-3.7-0.66-3.5-0.73 2.3-0.86 4-0.09 6.1 0.23 5.7 0.86-0.67 1.1-1.9 1.1-8 0zm69-0.88c-0.5-0.81 3.8-1.1 16-1.1 9-6e-3 18-0.24 20-0.53 3.6-0.47 3.8-0.41 1.5 0.64-3.5 1.6-36 2.5-37 1zm-165-57v-56l2.6 0.14c2 0.12 2.4 0.55 2 2.1-0.3 1.1-0.54 26-0.55 56-0.014 54-0.038 54-2 54-2 0-2-0.67-2-56zm78 56c2.6-0.21 6.7-0.2 9 6e-3 2.3 0.21 0.17 0.38-4.8 0.38-5-3e-3 -6.8-0.17-4.2-0.38zm50-0.29c-3-0.38 1.7-0.48 10-0.2s16 0.66 16 0.86c0.71 0.62-21 0.081-27-0.66zm18-3.6c-0.38-1.5 0.078-4.7 1.1-7.8 1.8-5.4 1.6-7.9-1.6-20-1.8-6.7-2.1-3.2-0.34 4.3 0.98 4.3 1.4 9 1 12-0.33 2.4-0.87 6.5-1.2 9l-0.61 4.6-15-0.32c-8.4-0.18-16-0.55-16-0.84-0.28-0.28-0.84-22-1.2-47l-0.72-47 2.9 0.73c1.6 0.4 9.5 0.97 18 1.3 14 0.51 15 0.6 15 2.7 6e-3 1.2 0.29 3.8 0.62 5.8 0.59 3.6 0.48 3.8-3.4 5.3-7.7 3.1-15 27-10 32 1 0.99 0.78-1.1-0.73-6.7-1-3.8 7.8-23 11-24 4.6-1.9 6.3-3.9 7.5-9 2.2-8.6 2.6-5.1 3.3 25 0.99 41-4.6 79-9.1 61zm-6.3-35c0.76-2 0.75-3.6-0.025-5.8-1.5-4.3-1.3-15 0.38-18l1.4-2.5 1.7 4c1.6 3.7 1.6 4.6 0.2 11-0.86 4.2-1.2 8.7-0.81 10 0.77 3.5 2.1-6 2.4-18 0.35-13-7.4-11-8.2 1.7-0.24 3.8 0.087 7.7 0.8 9.5 1.3 3.1 0.5 9.5-1.1 8.5-0.51-0.31-0.93-2.2-0.93-4.3-8e-3 -2-0.45-4.4-0.98-5.2-1.4-2.1-1.3 6.5 0.035 9.1 1.5 2.8 3.8 2.4 5.1-0.82zm23 18c-0.12-23 0.68-24 3.9-4.3l2.1 13-2.2 6c-3.4 9-3.7 7.8-3.8-14zm25 19c-0.39-0.63 1.6-0.96 5.2-0.9 4.4 0.076 5.2 0.29 3.3 0.9-3.6 1.2-7.8 1.2-8.5 0zm11-50c-0.73-49-0.64-52 1.7-50 1.6 1.6 3.8 97 2.3 98-3.1 2.2-3.2 0.42-3.9-49zm-45 48c0-0.28 0.22-0.5 0.5-0.5s0.5 0.22 0.5 0.5-0.22 0.5-0.5 0.5-0.5-0.22-0.5-0.5zm17-0.23c2.4-0.21 6-0.21 8 7e-3 2 0.21 0.12 0.39-4.3 0.38-4.4-4e-3 -6.1-0.18-3.7-0.39zm-1.3-35c-5.2-8.2-7.4-15-7.3-21 0.064-3.6 0.33-5.7 0.54-4.6 1.5 7.9 3.1 15 6.4 21 2 3.4 2.4 7.7 0.36 4.5zm-244-3.5c-6.9-23-7.2-48-0.42-34 2 4.4 2.2 6 1.9 21-0.26 15-0.42 16-1.5 12zm102 2.8c-0.42-0.65-1-6.7-1.3-14l-0.53-12 4.5-9.5c2.5-5.2 4.7-10 5-11 0.55-1.8 5.2-4.5 6.1-3.5 0.29 0.29 0.4 5.2 0.24 11-0.28 9.8-0.37 10-1.7 7.1-0.87-2.1-1.9-3.2-3-3-4.4 0.8-9.6 20-7.1 26 0.87 2.1 0.93 3.2 0.18 3.7-0.59 0.36-1.2 2-1.4 3.7-0.21 1.8-0.64 2.5-1.1 1.8zm-158-3.5c-0.67-1.7-0.12-18 0.87-27 0.97-7.9 1.7-3.3 1.5 9.1-0.25 13-1.2 20-2.3 18zm294-3.5c-0.54-1.4-0.43-1.5 0.56-0.56 0.68 0.68 0.99 1.5 0.68 1.8s-0.87-0.25-1.2-1.2zm-229-5.3c0-1.4 0.23-1.9 0.5-1.2s0.28 1.8 0 2.5-0.5 0.12-0.5-1.2zm230-7.5c-0.96-2.5-0.68-3.2 0.5-1.1 0.58 1 0.85 2 0.59 2.3s-0.75-0.26-1.1-1.2zm-233-23c-1.9-4.3-3.2-39-1.4-39 3.1 0 3.7 3.4 3.7 23 0 11-0.14 20-0.3 20-0.17 1e-3 -1.1-1.7-2-3.7zm218-8.5c-0.039-2.1 0.38-3.8 0.93-3.8 1.2 0 1.2 2.7 0 5.5-0.69 1.6-0.87 1.3-0.93-1.8zm12-0.19c0-1.4 0.45-2.6 1-2.6s1 0.87 1 1.9-0.45 2.2-1 2.6c-0.57 0.35-1-0.49-1-1.9zm-236-7.4c-1.3-1.8-3.5-3.3-5.5-3.7-5.5-1.2-6.1-2.2-3.7-6.3 1.2-2 2.4-5.4 2.8-7.6 2.2-13 9.3-5.4 8.9 9.4l-0.28 11zm196 0.74c-2.4-0.48-4.9-1.3-5.4-1.9-2.5-2.5 1.4-3 20-2.4l19 0.65v4.7l-14-0.11c-7.8-0.06-16-0.5-19-0.98zm41 0.42c-2.5-2.5-0.56-5.3 3.6-5.4 2.3-0.019 7.2-0.68 11-1.5 12-2.7 22-1.1 15 2.4-3.1 1.7-28 5.4-29 4.4zm-50-2.3c0-0.73 0.3-1 0.67-0.67 0.37 0.37 0.37 0.97 0 1.3-0.37 0.37-0.67 0.067-0.67-0.67zm-228-13v-11l3.2 0.56c1.8 0.31 5.8 0.86 9 1.2 9.8 1.1 8.6 13-1.7 15-2.3 0.56-5.6 1.7-7.3 2.5l-3.2 1.5zm226 7.2c-0.3-4.5 12-7.9 37-10l7.3-0.67-0.65 5.7-12 0.69c-11 0.61-31 4.3-30 5.5 0.25 0.25 2.2-0.03 4.3-0.62 5.3-1.5 7.6-1.2 3.3 0.34-8 2.9-8.6 2.8-8.8-0.81zm84 1.9c0-0.82 0.73-1.5 1.6-1.5 1.3 0 1.4 0.27 0.38 1.5-0.68 0.82-1.4 1.5-1.6 1.5-0.21 0-0.38-0.68-0.38-1.5zm-59-0.39-7.5-0.62 6-0.72c17-2 20-2 20-0.37 0 0.99-0.86 1.6-2.2 1.6-1.2 6e-3 -3.8 0.17-5.8 0.36-1.9 0.19-6.9 0.073-11-0.27zm65-0.024c-0.36-0.58-2.8-1.7-5.4-2.6l-4.7-1.5 4.5 0.56c4.3 0.54 8 2.8 6.8 4-0.32 0.32-0.88 0.12-1.2-0.46zm-38-0.9c-1.6-1.6 0.29-2.2 7.2-2.4l7.8-0.2-7.2-0.35c-4.4-0.21-7.2-0.78-7.2-1.5 0-0.77 2.7-0.91 9.2-0.46 5 0.36 11 0.72 14 0.8 4.5 0.15 4.5 0.16-1.4 0.93-3.3 0.43-9.5 1.4-14 2.2-4.3 0.78-8 1.2-8.2 0.9zm-34-2.2c2.2-0.45 9.2-1 16-1.3l12-0.52-12 1.4c-14 1.6-21 1.8-14 0.48zm73-3.3c-0.44-2.1-0.55-4.1-0.25-4.4 0.91-0.91 1.8 2.4 1.4 5.4-0.32 2.6-0.4 2.6-1.1-1zm-175 1.2c-12-1.5-18-3.6-17-6.2 0.43-3 3.2-3.2 14-1.2 4.7 0.93 11 1.8 14 1.8 5.6 0.14 5.6 0.17 5.9 3.4l0.31 3.2-4.8-0.13c-2.6-0.07-8-0.53-12-1zm24-1.5c0-3.6 1.7-4.1 14-4.2 9.4-0.084 15-0.72 23-2.8 7.2-1.8 10-1.1 10 2.1-0.07 0.85 0.43 1.3 1.1 1 0.7-0.27 1-1.4 0.76-2.4-0.39-1.5-0.12-1.8 1.1-1.3 0.89 0.34 1.6 1.2 1.6 1.9 0 1.8-2.7 3.8-4.4 3.2-0.77-0.29-3.2 0.077-5.3 0.83-5.8 2-30 4.7-32 3.5-1.4-1.4-7.9-1.2-9.4 0.21-0.93 0.93-1.2 0.51-1.2-1.9zm134 0.65c-3.3-0.41-9.9-0.79-15-0.85-8.2-0.1-8.8-0.24-8.8-2.2 0-4.2 37-1.6 38 2.7 0.62 1.6-4.1 1.7-15 0.39zm-74-6.3 0.3-6.2 6.5-2.2c28-9.4 80-7 81 3.8 0.75 6.9 1.9 6.4-12 5-6.8-0.68-15-1.2-18-1.2-6 0.08-6.1 0.037-6.7-2.9-1.1-5.3-6.6-4.7-6.6 0.66 0 2-0.48 2.4-3.4 2.4-6.3 0-27 3-34 5l-6.8 1.9zm-110 1.6c-0.26-5.1 37-14 41-10 0.44 0.44-4.5 1.3-11 2-18 1.8-29 5-30 8.8-0.35 1.4-0.49 1.3-0.58-0.46zm4 0.34c-0.88-1.1-0.82-1.5 0.28-1.9 0.86-0.33 1.6 0.22 1.9 1.4 0.59 2.3-0.56 2.5-2.2 0.55zm46-4.7v-4.2l17 0.65c22 0.83 23 1.8 3.6 4.5-8.4 1.2-17 2.4-18 2.7-2.7 0.52-2.8 0.39-2.8-3.7zm-23 1.9c-14-1.8-13-3 5.2-4.6 9.8-0.89 9.7-0.92 9.7 3 0 3.2-1.1 3.4-15 1.6zm76-0.87c-6.6-3.6-15-5-34-5.6-9.8-0.32-18-0.98-18-1.4-1.2-1.9 33-0.55 43 1.7 1.4 0.31 2.2 0.24 1.8-0.16-1.6-1.6-15-3.4-30-4l-15-0.7 0.6-5.2 12 0.29c19 0.45 36 3.3 40 6.5 2.4 1.9 1.5 5-1.2 4.3-3.5-0.87-3.1-0.16 1.1 2.4 4.4 2.6 4.5 2.5 3.4-2.4-0.89-3.9-0.37-9.2 0.99-10 0.41-0.25 0.82 3.1 0.91 7.4 0.19 9.1-0.25 9.7-5.3 7zm-102-3c0-4.6 7.9-7.9 25-10 15-2.2 16-2.1 16 1.5 0 2.9-0.12 3-4.9 3-6.5 0-27 3.6-32 5.5-4.3 1.8-4.4 1.8-4.4 0.45zm-64-0.93c0.34-0.55 1-1 1.6-1s0.94 0.45 0.94 1-0.7 1-1.6 1-1.3-0.45-0.94-1zm4.5 0c0-0.55 1.2-1 2.6-1 1.5 0 2.3 0.43 1.9 1-0.34 0.55-1.5 1-2.6 1s-1.9-0.45-1.9-1zm6.3-0.67c0.37-0.37 0.97-0.37 1.3 0 0.37 0.37 0.067 0.67-0.67 0.67-0.73 0-1-0.3-0.67-0.67zm2.7-0.33c0-0.55 1-0.99 2.2-0.98 1.8 0.012 2 0.2 0.75 0.98-1.9 1.3-3 1.3-3 0zm-34-3c-3.6-3.9-7.7-4.1-11-0.44-2.5 2.5-2.9 2.6-10 1.9-11-0.95-11-1.1-11-5.3v-3.6l9.2 0.74c26 2.1 50 1.3 62-2 3.9-1.1 5.8-1.2 7.2-0.44 2.5 1.3 2.6 0.22 0.24-1.7-1.6-1.3-1.5-1.3 0.5-0.33 2.7 1.3 2.8 2.3 0.5 5.1-4 4.8-14 7.2-33 8.4l-11 0.65zm41 2.1c0-0.98 3.3-2.2 6-2.1 1.3 0.015 1.3 0.11 0 0.87-2.7 1.5-6 2.2-6 1.3zm151-0.68c0-0.28 0.22-0.5 0.5-0.5s0.5 0.22 0.5 0.5-0.22 0.5-0.5 0.5-0.5-0.22-0.5-0.5zm-146-4.6c1.2-1.3 2-1.7 2.3-0.88 0.22 0.66-0.22 1.6-0.97 2.1-2.5 1.6-3.2 0.93-1.3-1.2zm39-4.4c0-12 15-17 53-18 35-0.028 49 4.3 49 16 0 7.2 0.17 7.2-8.5 4.4-7-2.2-24-4.1-37-4.1h-8.8v-3c0-2.2-0.64-3.3-2.5-4.1-3.2-1.5-5.5 0.33-5.5 4.3 0 1.6-0.2 2.9-0.45 2.9-7.4 0-30 4.6-38 7.7-1.1 0.42-1.4-0.87-1.4-6.1zm107 4.9c0.048-1.2 0.28-1.4 0.6-0.6 0.29 0.72 0.25 1.6-0.079 1.9-0.33 0.33-0.57-0.26-0.53-1.3zm10-0.27c0.47-1.2 0.31-1.2-1.1-0.038-1.5 1.2-1.6 1.2-1.2-0.11 0.28-0.83 1.8-1.6 3.4-1.6 1.6-0.067 6.1-0.89 9.9-1.8 13-3.3 52-3.3 56-0.12 1.5 1.1-1.8 1.3-21 1.3-18-0.041-25 0.37-35 1.9-10 1.6-12 1.7-12 0.53zm-257-1.5c-7.9-2.6-12-5.2-12-7.3 0-0.76-0.45-1.4-1-1.4-1.5 0-1.2 1.6 0.5 3 1.6 1.4 2 3 0.65 3-1.3 0-6.1-4.7-6.1-5.9 0-0.57 1.6-1.7 3.6-2.5 4.6-1.9 4.9-1.9 3.3 0.15-1.2 1.5-1.2 1.6 0.9 0.45 1.2-0.67 2.8-0.87 3.5-0.44 0.68 0.42 4.8 1.9 9.2 3.4 8 2.6 8 2.6 8.3 6.3 0.38 4.5-0.33 4.6-10 1.3zm-18-1.4c-1.7-0.17-4-1.2-4.9-2.3-1.7-1.9-1.7-2-6e-3 -1.3 1.6 0.62 1.7 0.47 0.45-1.5-1.8-2.9-0.4-5.1 5.3-7.9 8.2-4.1 32-7.4 27-3.7-1.1 0.81-3.4 1.5-5.2 1.5-16 0-29 6.7-22 12 3.7 3.3 3.7 3.4-0.57 3zm57-2.2-16-1.5-0.6-12h11c18 0 42 2.8 56 6.7 17 4.8-17 9.2-50 6.3zm224-0.48c0.72-0.87 1.5-1.4 1.8-1.1 0.26 0.26 3-1.5 6-4 13-10 30-11 42-1.1 5.1 4.2 5.1 4.2-15 4.3-11 0.045-21 0.61-25 1.3-3.3 0.68-7.1 1.5-8.4 1.7-2.1 0.42-2.2 0.28-1.1-1.1zm-166-5c-14-5-32-7.7-56-8.4-15-0.45-21-0.94-21-1.9-1.5-4.4 58 0.87 75 6.7 4.9 1.7 8.6 2.5 8.3 1.8-1.4-4.2-34-9.4-70-11-12-0.61-11-0.23-12-4.4l-0.64-3.2 8.9 2e-3c39 0.011 76 7.9 75 16-0.27 2.3 0.12 3.9 1.2 4.8 4.6 3.8 2.4 3.7-9.4-0.45zm170 0.52c1-1.1 2-2 2.3-2s-0.31 0.9-1.3 2-2 2-2.3 2 0.31-0.9 1.3-2zm-265-1.4c-8.3-2.5-8.2-3 0.43-4 3.3-0.38 6.8-0.91 7.8-1.2 1.5-0.42 1.8 0.16 1.8 3.6 0 4.7 0.22 4.7-9.9 1.6zm-25-2.1c0-0.28 0.22-0.5 0.5-0.5s0.5 0.22 0.5 0.5-0.22 0.5-0.5 0.5-0.5-0.22-0.5-0.5zm3.5-3.5c-2.6-4.3 2.1-7.8 14-11 14-3.3 17-3.3 18 0.22 0.46 4-0.15 4.4-12 6.1-5.6 0.84-12 2.4-15 3.5-2.8 1.1-5.3 1.6-5.6 1.1zm172-3.1c1-1.6 7-3.9 14-5.5 6.5-1.4 6.5-1.4 1.3-0.94-6.4 0.54-6.5-0.23-1-4.9 13-11 38-12 47-1.9 1.4 1.7 3.3 1.8 2.3 0.12-0.4-0.69 0.44-0.19 1.9 1.1 4.6 4.2 2.9 4.8-9.5 3.6-23-2.3-9.1 0.91 17 4.1 5.2 0.62 5.2 0.64 4.1 2.4-0.71 1.2-3.2 1.1-16-0.32-8.3-0.93-18-1.5-22-1.2-3.7 0.28-11 0.77-16 1.1-5.3 0.32-12 1.2-15 2-6.5 1.7-9.3 1.9-8.3 0.36zm38-8c5.2-0.096 5.6-0.22 2.7-0.9-2-0.47-6.6-0.25-12 0.57-5.7 0.95-6.5 1.2-2.7 0.9 3-0.25 8.2-0.51 12-0.57zm30-1.3c0-0.21-0.79-1-1.8-1.8-1.6-1.2-1.6-1.2-0.38 0.38 1.3 1.7 2.1 2.2 2.1 1.4zm-119 7.4c-8.8-5.2-46-11-69-11l-9.4-8.4e-4 0.56-3.4c0.46-2.9 0.15-3.7-1.8-5-4.6-3-8.5-0.51-8.5 5.6v3.5l-9.2 1.3c-5.1 0.71-12 2.4-15 3.7-7.3 2.9-7.8 2.5-7.2-7.3 0.29-5.3 0.92-7.8 2.3-9.4 1.7-1.9 1.7-2.1 0.15-1.5-2.5 0.93-2.1 0.19 1-1.9 2.4-1.6 2.6-1.6 1.4-0.12-1.7 2.1-1.3 2.1 3.9-0.21 2.3-1 3.8-2.1 3.4-2.3-0.47-0.25-0.26-0.3 0.46-0.12 0.72 0.18 5.7-0.4 11-1.3 32-5.4 91 2.7 102 14 3.3 3.5 4 9.5 1.2 10-1.6 0.41-2.1 1.3-2.1 3.4 0 3-1.9 3.8-5 1.9zm-122-5.1c0-1.6 0.17-3 0.39-3 0.21 0 0.58 1.4 0.83 3s0.068 3-0.39 3c-0.45 0-0.83-1.4-0.83-3zm220-15c0.72-0.29 1.6-0.25 1.9 0.079 0.33 0.33-0.26 0.57-1.3 0.53-1.2-0.048-1.4-0.28-0.6-0.6zm-9.1-1c1.2-0.24 3.3-0.24 4.5 0 1.2 0.24 0.22 0.43-2.2 0.43s-3.5-0.2-2.2-0.43zm-100-4.3c-18-6.3-58-9.6-79-6.6-11 1.5-15 1.1-12-0.95 0.85-0.52 0.99-0.36 0.45 0.52-0.53 0.86-0.33 1.1 0.6 0.82 0.76-0.25 1.4-1.1 1.4-1.8s0.68-1.5 1.5-1.7c1.3-0.36 1.3-0.29 0 0.65-2.1 1.5-1.4 1.4 7.6-0.95 23-5.8 71-0.63 83 9 3.5 2.7 2.3 3.1-3.6 1zm-100-2.7c0.37-0.37 0.97-0.37 1.3 0 0.37 0.37 0.067 0.67-0.67 0.67-0.73 0-1-0.3-0.67-0.67zm83-6.9c-13-3.6-26-4.9-44-4.2l-16 0.59 2.4-2.5c1.3-1.4 2.4-2.8 2.4-3.2s0.31-0.57 0.69-0.44c0.38 0.13 4-1.2 7.9-2.9 8.2-3.5 19-4.8 27-3 4.1 0.95 4.3 0.91 2.5-0.51-2.9-2.2 0.96-1.1 9.2 2.7 5.4 2.5 8.9 4.9 4.8 3.3-0.82-0.32-1.5-0.31-1.5 6e-3 0 0.84 6.3 4.1 7.4 3.8 1.5-0.41 6.6 5.1 6.6 7 0 2.2 0.5 2.2-9.8-0.7zm-5.2-11c0-0.28-0.22-0.5-0.5-0.5s-0.5 0.22-0.5 0.5 0.22 0.5 0.5 0.5 0.5-0.22 0.5-0.5zm-63 9.8c0.37-0.37 0.97-0.37 1.3 0 0.37 0.37 0.067 0.67-0.67 0.67-0.73 0-1-0.3-0.67-0.67zm2.7-0.83c0-0.28 0.22-0.5 0.5-0.5s0.5 0.22 0.5 0.5-0.22 0.5-0.5 0.5-0.5-0.22-0.5-0.5zm2-0.81c0-0.17 1.5-1.6 3.2-3.2l3.2-2.9-2.9 3.2c-2.7 3-3.6 3.7-3.6 2.9zm11-9.2c0-0.28 0.22-0.5 0.5-0.5s0.5 0.22 0.5 0.5-0.22 0.5-0.5 0.5-0.5-0.22-0.5-0.5zm2-1c0-0.28 0.22-0.5 0.5-0.5s0.5 0.22 0.5 0.5-0.22 0.5-0.5 0.5-0.5-0.22-0.5-0.5zm2-1c0-0.28 0.22-0.5 0.5-0.5s0.5 0.22 0.5 0.5-0.22 0.5-0.5 0.5-0.5-0.22-0.5-0.5zm-168 284c0.012-334-0.24-419-1.2-419-0.69-0.037-3.2-0.15-5.5-0.25l-4.3-0.18 7.6e-4 419 7.6e-4 419h11zm642 404c3e-3 -8.4 0.12-197 0.25-419 0.28-456 1.2-406-7.3-404l-3.5 0.56 0.24 311c0.13 171 0.24 359 0.25 419l0.011 108h10zm-83-732c37-9.3 55-50 38-83-26-49-100-38-109 17-7 41 31 76 71 66zm-29-6.4c-23-7.3-39-30-37-53 6.1-64 100-62 102 2.1 1.5 35-33 62-66 51zm35-6c14-6.5 24-18 27-32 1.3-5.8 1.7-19 0.55-21-0.52-0.99-1.1-2.8-1.2-4-0.42-3.6-1.8-7.7-2.5-7.7-0.38 0-1.2-1.5-1.9-3.4-9-25-53-31-74-11-39 37 4.6 101 53 78zm-21-7.8c-9.4-2-13-6.4-24-26-8.4-16-4.5-23 4.8-8.4 6.2 9.8 10 9.8 8.8 0.16-2.8-24-3-27-1.3-29 2.1-2.1 4.4-1.1 5.1 2.4 0.29 1.5 1.3 7 2.2 12 2.3 13 3.4 12 3.4-3 0.016-15 0.43-17 3.5-17 3.8 0 3.6-0.66 4.3 24 0.25 9.6 1.7 6.5 2.9-6.3 1.2-13 1.5-14 4.2-14 3 0 3.3 1.5 3.1 16-0.22 16-0.12 16 4.9 5.6 4.4-9.5 6.1-12 8-9.2 1.8 2.2 0.76 7-3.4 16-2.7 5.9-3.8 9.9-4.5 17-1.5 15-9.9 22-23 19zm-458-64c0-2.2-0.34-3.9-0.75-3.6-0.41 0.25-4.3 0.61-8.6 0.79l-7.9 0.33-0.19-9.5c-0.1-5.2 0.24-10 0.77-11 0.74-0.96-0.25-1.2-4.3-1.2-4.5 0-5.1 0.22-4 1.4 1.3 1.6 1 21-0.37 24-0.71 1.6 0.32 1.7 12 2 6.8 0.17 13 0.41 13 0.53s0.75-1.6 0.75-3.8zm29-0.063c0-3.2-0.29-3.9-1.2-3.1-0.69 0.54-4 0.84-7.2 0.67-3.3-0.18-7-0.34-8.2-0.36-1.7-0.034-2.2-0.63-2.2-2.7 0-2.6 0.051-2.6 6.5-2.2l6.5 0.41v-7.2l-6.6 0.42c-6.5 0.41-6.6 0.37-6.2-2 0.33-2.3 0.61-2.4 9.6-2.4h9.3l-1e-3 -3.4c-9.5e-4 -2.6-0.33-3.2-1.6-2.8-0.87 0.33-6.8 0.61-13 0.61l-12 1e-3v27l13 0.31c7.2 0.17 13 0.41 13 0.53 0.14 0.12 0.25-1.6 0.25-3.9zm53 1.4c-1.5-3.9 0.3-5.3 7-5.3 6.7 0 8.5 1.4 6.9 5.4-0.56 1.5 0.6 1.6 11 1.6 10 0 11-0.16 11-1.8-0.29-0.99 0.49-3 1.8-4.6l2.3-2.8 2.1 3c1.2 1.7 1.9 3.7 1.5 4.6-0.52 1.3 0.32 1.6 5.5 1.6 3.4 0 6.1-0.44 6.1-1 0-0.55-0.42-1-0.94-1-2.5 0-10-12-8.9-14 0.72-0.94 3.1-3.8 5.2-6.5l3.9-4.8h-5.6c-4.5 0-5.5 0.29-5 1.5 0.31 0.81-0.34 2.6-1.4 4l-2 2.6-2-2.9c-1.5-2.2-1.8-3.1-0.89-4 0.88-0.88-0.53-1.2-5.8-1.1-6.7 0.022-6.9 0.082-4.9 1.8 1.1 0.95 3.7 3.9 5.8 6.5l3.8 4.7-4.7 6c-2.6 3.3-5.5 6-6.5 6-2.2 0-13-20-13-23 0.42-1.6-0.21-1.8-5.1-1.8-4.2 0-5.3 0.29-4.5 1.1 0.84 0.84-0.32 4-4.5 12-5.8 12-7.2 13-7.2 8.8 0-1.6-0.41-2.3-1.1-1.9-0.59 0.37-4.4 0.79-8.6 0.94l-7.5 0.27 0.62-22-4.9 2e-3c-4.2 2e-3 -4.7 0.22-3.7 1.5 0.84 1 1.1 5.1 0.87 13l-0.33 12 12 0.28c18 0.41 23-0.067 22-2zm3.5-9.8c0-0.94 3.1-6.7 3.4-6.3 0.16 0.19 1 1.8 2 3.6l1.7 3.2h-3.5c-1.9 0-3.5-0.25-3.5-0.55zm241 12c3.2 0 3.9-0.3 3.4-1.6-1.4-3.6 1.1-5.4 7.4-5.4s8.8 1.8 7.4 5.4c-0.5 1.3 0.27 1.6 4.5 1.6 4.7 0 6.5-1 4.2-2.4-1.8-1.1-12-22-11-23 0.47-1.2-0.41-1.5-4.6-1.5-4.3 0-5.1 0.27-4.6 1.5 0.65 1.7-9.8 23-11 23-0.5 0-0.78-0.79-0.62-1.8 0.41-2.5-0.44-3.5-2-2.3-0.76 0.63-4.2 0.97-8.2 0.8l-6.8-0.3-0.29-9.4c-0.19-6 0.12-9.8 0.87-11 0.97-1.2 0.35-1.4-3.7-1.4l-4.9 1e-3v27l12 0.3c6.6 0.17 13 0.18 13 0.028 0.73-0.15 3.1-0.27 5.4-0.27zm8.4-14c0.91-1.8 1.8-3.4 2-3.6 0.32-0.36 3.4 5.4 3.4 6.3 0 0.3-1.6 0.55-3.5 0.55h-3.5zm-374 13c0-0.55-0.44-1-0.98-1-0.59 0-0.97-5-0.95-13l0.032-13 13 0.82v-7.1h-33v7.1l13-0.84-0.66 27 4.8-1e-3c2.6-1e-3 4.8-0.45 4.8-1zm80-12v-14l-4.9-1e-3c-4.2-9.6e-4 -4.7 0.21-3.7 1.5 0.84 1 1.1 5.1 0.87 14l-0.33 12 8-1e-3zm123 11c1.9-1.9 2.3-3.6 2.8-13l0.57-11-4.3 7.4e-4c-3.9 6.7e-4 -4.2 0.16-3.2 2 1.2 2.3 0.36 17-1.1 19-7.3 7.5-17-9.7-11-19 0.4-0.64-0.89-1-3.4-1-2.2 0-4.4-0.11-4.7-0.25-1-0.4-0.38 17 0.77 21 2.1 6.5 19 8.9 24 3.5zm52 0.073c3.8-2 3.8-2.1 4-8.2l0.17-6.2-7.2 3.6e-4c-3.9 2.1e-4 -7.9-0.27-8.8-0.61-1.3-0.5-1.6 0.18-1.6 3.7 0 3.3 0.27 4 1.2 3.1 2.1-2.1 8.8-1.5 8.8 0.76 0 6-17 5.2-20-0.91-5.6-11 11-23 19-14 2.6 2.6 2.6 2.6 4.9-1.9l2-3.9-4.2-0.7c-2.3-0.39-6-1-8.2-1.4-21-3.7-32 22-13 31 4.6 2.3 18 1.8 23-1zm18-3.4-0.43-6h14l-0.87 12h8.1v-27l-8-1e-3 0.69 10h-14l0.96-10-8.2 2e-3v27l8.1-1e-3zm50 4.3c9.3-4.4 9.7-19 0.58-24-15-7.4-30 5.7-22 19 3.7 6 14 8.3 22 4.8zm-12-4.5c-8.1-4.4-5-16 4.2-16 8.5 0 12 12 4.2 16-3.3 1.7-5.7 1.8-8.4 0.31zm-356-8.4c0-2.4 7-15 11-19l3.4-4-12-11c-8.1-7.6-12-11-13-10-1 1-2.1 43-1.2 45 0.65 1.7 12 0.81 12-0.95zm641-21c0-28 0.73-28-13-14l-11 11 3.2 4c2.7 3.5 6.2 10 9.9 19 0.92 2.3 1.6 2.6 6.1 2.6l5.1 0.077zm-311-11 16-7.5h21v-11h-32l-1.3 4.7c-5.3 20-34 18-40-3-0.45-1.6-2.1-1.8-16-1.8h-16v11l22-0.35 15 7.5c8.1 4.1 15 7.5 15 7.6 0.069 0.085 7.2-3.2 16-7.3zm-311 4c2.7-2.6 16-9.8 20-11 2-0.51 2.2-1.2 2.2-6.2v-5.6h-22c-29 0-29-0.27-17 12 5.1 4.9 10 9.9 11 11 2.7 2.8 2.5 2.8 5.5-0.12zm617-21c-0.65-0.94-6.6-1.2-24-1.2h-23l0.025 10 7 2.8c3.8 1.6 9.5 4.7 13 7l5.6 4.2 11-11c7.8-7.6 11-11 10-12zm-316 14c4-1.3 8.5-5.2 10-9.1 3-5.8 3-5.8-16-5.8-16 0-17 0.12-17 1.9 0 4.6 7.2 12 13 13 4.8 1.1 5.2 1.1 9-0.13zm-61-8.9c0.19-2.8 0.16-5.3-0.07-5.5-0.23-0.23-49-0.42-108-0.42h-107v11h215zm327-0.67 0.17-5.2h-216v4.8c0 2.7 0.3 5.1 0.67 5.5 72 0.89 143 0.33 215 0.16z"/>
 <text x="108.81606" y="621.29535" fill="#000000" font-family="Sans" font-size="36px" stroke="#000000" stroke-linejoin="round" xml:space="preserve"><tspan x="108.81606" y="621.29535">Play at any time to gain an extra revival. </tspan><tspan x="108.81606" y="657.96198"/><tspan x="108.81606" y="694.6286">You may immediately revive 1 of your </tspan><tspan x="108.81606" y="731.29523">leaders regardless of how many leaders </tspan><tspan x="108.81606" y="767.96185">you have in the tanks or up to 5 of your </tspan><tspan x="108.81606" y="804.62848">forces from the Tleilaxu Tanks to your </tspan><tspan x="108.81606" y="841.2951">reserves at no cost in spice. </tspan><tspan x="108.81606" y="877.96173"/><tspan x="108.81606" y="914.62836">You still get your normal revivals.</tspan></text>
 <text x="107.90933" y="222.19171" fill="#000000" font-family="Sans" font-size="43px" stroke="#000000" stroke-linejoin="round" xml:space="preserve"><tspan x="107.90933" y="190" font-size="43px">Special</tspan></text>
</svg>
