<?xml version="1.0" encoding="UTF-8"?>
<!-- Created with Inkscape (http://www.inkscape.org/) -->
<svg width="822" height="1122" version="1.1" viewBox="0 0 822 1122" xmlns="http://www.w3.org/2000/svg">
 <path d="m89 1e3c-4.5-1.3-6.7-2.9-8.9-6.5l-2.2-3.5 0.053-461c0.029-254 0.072-465 0.096-469 0.042-7.1 0.16-7.4 4-12l3.9-4.2 320-0.26c237-0.19 321 0.035 323 0.87 1.5 0.62 4.1 2.7 5.7 4.5l3 3.4-2e-3 469c-2e-3 460-0.037 469-1.9 472-1.1 1.7-3.4 4-5.2 5.1-3.5 2.1-634 3.6-641 1.5zm44-8.3c0-4.6-0.35-5.9-1.8-6.4-5.7-1.9-13-6-18-9.5l-5.4-4-11 11c-15 15-16 14 16 14h21zm219 0.45 0.3-5.2-4.3-0.017c-2.4-0.01-51-0.012-108-0.01l-104 0.012-0.32 3.1c-0.18 1.7-0.085 4.1 0.21 5.3l0.53 2.1 215-0.15zm36 1.1c6-20 35-20 40 1 0.47 1.9 1.3 2.8 2.9 2.8 3.9 0.12 13 0.13 21 0.03l7.7-0.096 0.69-10h-19l-33-16-30 15h-22l-0.31 4.4c-0.51 7-1 6.8 16 6.6l15-0.2zm290-0.96-1e-5 -5.2-42-0.27c-23-0.15-71-0.15-108-6e-4l-66 0.27v4.9c0 6.2-13 5.5 110 5.5h105zm50 4.1c1.6-0.92 0.38-2.5-10-13l-12-12-2.5 2.3c-4.5 4.1-12 8.6-18 10l-5.3 1.7v5.2c0 4.7 0.24 5.3 2.2 5.6 5.8 0.83 43 0.18 45-0.77zm-304-1.7c-5-16-25-18-33-3.7-3.1 6-3.2 5.9 16 5.9h18zm309-3c1.7-4.3 0.77-47-0.97-47-0.99-0.021-3.4-0.28-5.5-0.57-3.5-0.51-3.7-0.38-4.9 3.3-2 6-5.9 13-9.6 18l-3.4 4.1 11 11c12 12 12 12 13 11zm-648-1.5c1-0.96 6.2-6 11-11l9.6-9.3-3.9-5.2c-4.2-5.6-8.4-14-9.4-18-0.6-2.5-1-2.7-6.1-2.7h-5.5l-0.029 10c-0.016 5.6-0.092 15-0.17 22-0.18 15 0.55 18 4 14zm307-15c8.3-4.1 15-7.5 16-7.5s7.3 3.4 16 7.5l15 7.5h245l8.3-4.2c11-5.4 19-14 25-25l3.8-7.7 0.51-804h-23l-1.2 6.7c-11 65-111 63-121-2.2l-0.68-4.5h-480l-0.016 74c-0.0088 41-0.015 221-0.014 400l0.0023 327 2.1 5.6c4.9 13 14 23 27 30l7.9 4h245zm-272-414c-5.7-2-9.5-5.3-12-10l-2.1-4.3-0.013-160c-0.011-135 0.2-160 1.4-163 1.7-4 7.1-9.3 11-11 4.7-1.8 577-1.5 581 0.32 3.9 1.7 9.2 7.1 11 11 2.3 6.2 1.4 321-0.97 326-2.2 4.6-7.6 8.9-13 10-5.6 1.6-571 1.2-576-0.4zm518-1.8 57-0.28 4.1-2.4c2.4-1.4 5.1-4.1 6.5-6.5l2.4-4.1v-79l0.49-158c-8e-3 -106 8.6-94-72-94-73-0.56-65 0.048-143-6e-3l-172 4.2e-4c-79 0-143 6e-3 -143 6e-3 -57 6e-3 -60 0.16-65 4.7-6.1 5.1-5.9 1.9-5.9 88v160c0 86-0.23 82 5.3 87 5.7 5.3-7.4 5.6 238 5.1 162-0.3 185 0.27 286-0.16zm-255-34c-3.1-0.6-5.3-5.3-5.4-12-0.42-33 0.043-47 1.6-47 1 0 1.6-0.92 1.6-2.8 7e-3 -1.5 0.68-5.2 1.5-8.2 2.1-7.7 1.9-13-0.8-20-1.3-3.2-3.1-8.5-4.2-12s-2.1-6.1-2.3-5.8c-0.24 0.24 0.51 3.7 1.7 7.8 4.2 15 4.4 23 0.62 23-2.5 0-2.8-2.1-0.71-4.3l2.1-2.1-2.4-4.7c-1.3-2.6-2.9-6.8-3.6-9.4-0.64-2.6-1.5-4.9-2-5.2-1.5-0.92-2.2 4.6-1.1 8.4 3.6 12 3.9 41 0.55 51-2.1 6.3-2.4 8.7-1.9 14 0.6 5.8 0.51 6.2-1.4 6.2-3.2 0-3.3-1-2-18 1.1-15 1-17-0.45-22-0.92-3.2-1.8-7.6-1.9-9.7-0.78-12-2.5-2.8-4.2 23-0.99 15-2.2 28-2.7 29-1.3 2.5-4.1 0.25-3.2-2.5 0.34-1.1 0.29-7.2-0.11-14-1.1-17-5-7.7-7.4 18-1.5 16-5 20-15 17-5.4-1.5-6.6-14-2.3-24 1.1-2.5 2.4-7.8 2.9-12 0.52-4 1.4-9.8 2-13 0.58-3 0.77-6.9 0.42-8.8-0.51-2.7-0.16-3.8 1.9-5.8 4.6-4.6 5.1-7.2 3.9-21-0.8-9.8-0.72-16 0.34-28 2-23 2-24-0.92-24-2.3 0-9.8-7.6-16-16l-2.4-3.4 2.2-1.8c2.2-1.8 2.2-1.9 0.58-7.4-2.3-7.8-2.3-19-0.053-24 0.97-2.5 2.1-7.6 2.6-12 1.7-15 7.6-24 15-24 2.4-3e-3 5.2-1.2 9.2-4 3.1-2.2 6.2-4 6.9-4s-0.22-1.7-1.9-3.7c-3.1-3.8-3.7-6.9-2.2-12 0.38-1.4 0.26-4.1-0.28-6.1-0.87-3.2-0.68-4 1.7-6.8 1.5-1.8 2.9-4.2 3.2-5.4 1.2-4.9 26-1.8 26 3.2 0 0.59 1 1.6 2.2 2.2s2.4 1.3 2.6 1.4c0.63 0.53-2.6 6-4.7 7.9-1.2 1.1-2.1 3.1-2.1 4.7s-0.88 5.2-2 8c-2.4 6.3-2.1 6.9 3.5 6.9h4.4l-1.2 12 4.4 1.1c2.4 0.63 5.9 2.5 7.9 4.1l3.5 2.9 0.87 18c0.48 10 0.95 21 1.1 24 0.36 11 0.57 13 1.5 12 3.7-2.3 2.2 40-1.5 43-1.4 1.2-3.1 2.2-3.8 2.2-1.1 0-1.3 5.7-0.91 31 0.42 32 0.03 37-4.1 58-1.2 6-1.2 6.6 0.57 8.9 1 1.3 1.9 2.9 1.9 3.5s1 3.5 2.2 6.5c3.1 7.6-2.8 10-17 7.5zm-10-121c0-5.7-1.9-7.9-4.7-5.5-3.2 2.7-3.3 6.5-0.27 8 4.1 2.1 5 1.6 5-2.5zm26-9c0-0.99 0.44-2.2 0.98-2.8 0.63-0.63 0.27-2.1-1.1-4.3-2.5-4.1-2.6-4-2.1 3.1 0.35 5.1 2.2 8.5 2.2 4zm-8.5-36-1.5-5.5 0.51 5.3c0.57 5.9 1.7 9.7 2.1 7.2 0.15-0.82-0.39-4-1.2-7zm-43-1.1c1.4-11-2.4-18-6.8-12-2.7 3.4-2.5 9.4 0.31 9.4 0.4 0 1.5 1.8 2.5 4 2.4 5.3 3.1 5 3.9-1.1zm210 156c-1.9-6.9-2.6-17-1.3-19 1.7-2.6 5.7-17 5.7-20 0-1.3 0.34-2.6 0.75-2.7 7.4-3.3 9.6-17 4.8-28-7.6-18-9.4-32-5.5-40 2.5-5.5 2.5-7.1-0.17-12-5.4-9.5-4.7-9.5-7.9-0.47-1.5 4.4-4.2 11-5.8 14-1.6 3.5-3.2 7.1-3.6 8.1-0.31 0.96-1.5 1.8-2.6 1.8-2.4 0-2.5 0.94-0.51 7.4 1.8 5.9 0.91 7.5-3.3 6-2.7-0.95-2.8-1.2-2.6-7.9 0.058-3.8-0.35-7.3-0.91-7.6-1.6-1 1.2-12 4.9-20 1.8-3.7 3.4-7.2 3.4-7.9s1.8-5.3 3.9-10c2.2-4.9 4.2-11 4.6-13 0.71-3.8 4.4-7.6 7.4-7.6 0.92 0 3-1.4 4.6-3s3.5-3 4.2-3c0.79 0 1.3-1.2 1.3-3 0-2.3-0.35-2.8-1.6-2.3-1.4 0.52-1.5 0.11-0.92-2.5 0.56-2.6 0.38-3.2-0.99-3.2-1.2 0-1.5-0.48-0.93-1.8 0.41-0.96 0.78-2.6 0.82-3.7 0.18-4.9 5.9-8.6 13-8.5 3.8 0.043 6.3 0.32 5.5 0.61-0.94 0.37-0.66 0.87 0.92 1.7 1.2 0.63 2.4 2 2.5 3.1s0.58 3.1 0.99 4.4c0.61 2 0.45 2.3-0.92 1.8-1.3-0.51-1.7-5e-3 -1.7 2.6-5e-3 1.8-1.1 5.5-2.4 8.4l-2.4 5.1 4.2 3c2.3 1.6 5.4 3.3 6.9 3.6 1.6 0.38 3.2 1.7 3.6 2.9 2 5.3 3.1 9.5 3.1 12 0 1.5 1.1 5.2 2.5 8.3 4.3 9.8 1.8 24-4.8 28-1.2 0.61-2.3 1.2-2.4 1.3-0.13 0.1-1.1 6-2.2 13-1.2 8-3.1 16-5 20-3.8 9.6-3.8 23 0.095 28 0.48 0.61 1.3 4.9 1.9 9.5 1.7 13 3.7 19 7.1 19 6 0 5.6 4.5-0.79 8.7-1.3 0.85-2.4 2.3-2.4 3.3 0 4.4-7.6 2.8-8.6-1.7-0.34-1.5-1.2-4.5-2-6.6-0.78-2.1-1.4-4.9-1.4-6.3s-0.53-3.5-1.2-4.7c-1.2-2.2-2.5-7.2-3.5-13-0.3-1.8-1-3.6-1.6-3.9-0.64-0.4-0.83-0.057-0.48 0.85 0.32 0.83-0.29 3.5-1.4 5.8-1.1 2.4-2.4 6.3-3 8.7s-1.5 4.6-2 4.9c-1.3 0.78-1.1 12 0.21 13 0.6 0.6 0.93 2.1 0.75 3.4-0.39 2.8-10 4.3-11 1.7zm38-119c-0.35-3-1.2-5.4-2.1-5.9-0.84-0.47-1.6-1.6-1.6-2.6s-0.55-0.13-1.1 1.8c-2.1 7.3-0.47 13 3.3 12 1.9-0.51 2.1-1 1.5-5.6zm-349 115c-1.8-0.45-1.8-1.2-1.2-11 0.4-5.6 0.94-13 1.2-17 0.25-3.6 1.2-8.3 2.2-10 1.5-3.4 1.7-7 1.6-24-0.16-21-0.78-25-2-14-0.39 3.8-1.9 10-3.3 15-2 6.2-2.7 10-2.9 18-0.13 5.8-0.7 15-1.3 21-1.8 19-2 19-8.5 17-4.1-1.4-3.9 0.096-3.7-26 0.2-22-1.6-18-5.6 12-0.68 5.1-0.95 5.5-3.6 5.8l-2.8 0.33 0.59-8.8c2.1-31 2.1-31-0.19-32-3.3-0.86-4.6-6.3-3.1-13 0.68-2.9 1.5-6.6 1.9-8.2 0.47-2.1 1.8-3.7 4.6-5.2 3.4-1.9 3.9-2.6 3.6-5.2-0.58-5.6 2.6-9.5 7.1-8.5 1.5 0.32 2.8 0.2 2.8-0.25 6e-3 -0.46 0.64-2.9 1.4-5.5 1.3-4.3 1.3-5-0.81-9.4l-2.2-4.8-2.1 2.9c-1.2 1.6-2.1 3.3-2.2 3.7-0.34 2.8-1.5 5.8-2.7 6.8-0.74 0.61-1.6 2.5-2 4.3-0.37 1.7-1.1 3.7-1.6 4.4-0.53 0.66-0.66 2.2-0.29 3.3 1.8 5.6-4 10-7.9 6.4-2-2-2-2.6 0.037-7.2 1.5-3.4 2.4-8.6 2.5-14 0.11-6 1.1-9.3 2.9-9.8 1.3-0.35 1.9-1.4 1.9-3.3 7e-3 -1.6 1.1-4.8 2.5-7.2s2.5-5.3 2.5-6.5c-0.016-7.2 7.5-18 13-18 0.78 0 2.1-0.66 2.9-1.5 0.81-0.81 2.4-2.1 3.5-2.9 1.9-1.4 2-1.6 0.45-3.7-6.7-9.5 7.6-27 15-18 4.2 5.4 4.1 16-0.29 18-1.7 1.1-1.1 2.5 0.98 2.5 1.1 0 2 0.44 2 0.99 0 1.3 7.5 6 9.5 6 0.82 0 2.4 1.8 3.5 3.9s2.7 4.3 3.5 4.8c2.6 1.5 11 16 13 22 1.3 4.4 2.9 6.8 7.3 11 3.1 3.1 7.3 7.9 9.3 11l3.7 5-2.7 0.65c-1.5 0.36-4.3 1.7-6.3 3-4.9 3.2-7 3.4-10 0.78-2.5-2-9.5-4.7-10-3.9-0.96 0.96 1.2 11 2.9 13l2 2.4-0.56-2.6c-0.67-3.1 2.4-6.5 5-5.5 1.3 0.51 1.5 1.4 1 4.6-0.58 3.6-0.39 4.1 2.2 5.4 3.3 1.7 5.7 5.8 4.9 8.1-0.35 0.91-0.34 2.1 0.013 2.7 0.36 0.58 2.3-4.1 4.4-10 3.4-10 4-11 6.9-13 3.3-1.4 3.4-1.5 3.1-7.9-0.18-4.5 1.7-6.5 5.1-5.6 1.5 0.4 1.9 1.5 1.9 6.3 0 5.4 0.21 6 2.9 7.3 4.4 2.3 5.9 16 2.1 19-1.4 1.3-2 3.1-2 6.4 0 2.5-1.8 12-4 20s-4 18-4 20c0 3.1-0.36 3.9-1.9 3.9-3.4 0-4-2.4-4.7-18-0.48-11-1.1-16-1.8-15-1.2 0.44-1.2 0.46-0.24 5.5 0.38 2.1 0.25 3.1-0.37 2.7-0.54-0.33-0.98 0.32-0.98 1.5 0 1.4-0.65 2.1-2 2.1-1.1 0-2.3 0.68-2.6 1.5-0.35 0.9-1.9 1.5-3.8 1.5-3.7 0-6.6 4.5-6.6 10 0 4.4-1.7 5.4-3.1 1.9-0.75-2-0.72-4.2 0.11-7.6 1.1-4.7 0.77-6.9-0.81-5.3-0.41 0.41-0.98 4.2-1.2 8.4-0.82 13-4.6 12-4.2-0.54 0.62-18-7e-3 -28-1.3-20-0.33 2.1-1.5 7.7-2.6 12-1.1 4.7-2 10-2 12-0.035 4.2-2.7 8.5-5.3 8.5-2.7 0-4-11-3.7-34 0.12-11-0.17-17-0.9-17-0.59 0-1.1 1-1.1 2.2 0.012 2.7-2.7 22-4.1 30-0.57 3-1.4 9.1-1.9 14-0.68 6.2-1.3 8.4-2.9 9.7-1.1 0.91-2 2.4-2 3.2 0 1.6-4 2-8.4 0.87zm8.8-12c0.9-4.5 0.79-7.4-0.25-6.3-1.2 1.3-2.2 9.4-1.2 9.4 0.43 0 1.1-1.4 1.4-3.1zm60-25c-0.25-0.96-0.46-0.18-0.46 1.8s0.21 2.7 0.46 1.8c0.25-0.96 0.25-2.5 0-3.5zm-5.7-16c0-2 0.51-5.3 1.1-7.3 0.72-2.4 0.8-4.7 0.22-6.5l-0.9-2.7-1.1 2.3c-0.59 1.3-2.2 4.9-3.6 7.9l-2.6 5.6 2.6 2.6c3.2 3.2 4.2 2.7 4.2-2zm-89-8.6c-6e-3 -5.2-0.018-5.2-1.5-2.5-1.1 2.2-1.2 3.3-0.33 5.2 1.6 3.5 1.8 3.1 1.8-2.8zm104-3.9c0-1.1-0.45-1.7-1-1.4s-1 1.5-1 2.6 0.45 1.7 1 1.4 1-1.5 1-2.6zm131 61c-0.065-0.69-0.052-1.8 0.03-2.4s-0.75-6.3-1.8-13c-1.9-11-1.9-19 0.058-19 2.8 0-0.67-20-3.9-23-1.1-0.86-2.3-2.6-2.6-3.8-0.55-1.8-1.2-2.1-4.1-1.6-3 0.49-3.6 0.24-4.4-2-0.63-1.7-2-2.8-3.8-3.2-6-1.2-7.8-2.1-7.8-3.8-5e-3 -0.96-1.5-2.6-3.2-3.7-3.3-2-3.7-2.7-2.6-5.4 0.83-2.2 7.5 1.3 12 6.2l3.4 3.7 5e-3 -6.6c3e-3 -3.6 0.69-8.6 1.5-11s1.3-5.5 0.96-6.9c-2-9.1 8.5-25 16-25 2.6 0 3.6-2.4 2.3-5.2-2.6-5.8 3.6-12 9.2-9.9 2.7 1.2 3.4 10 1.1 15-0.56 1.2 0.56 2.2 4.7 4.3 6.8 3.4 8.3 5.1 9.2 10 0.54 3 2.3 5.6 6.8 11 7.3 7.7 12 17 17 31 1.9 5.8 4.7 13 6.1 17 3.4 8.1 3.3 8.3-1.8 8.3-5.2 0-6.8 1.5-6.4 6.1 0.32 3.9-1.4 4.6-12 4.8-5.1 0.098-6.7 0.57-9.3 2.7-2.8 2.4-3.5 2.5-7.1 1.6-3.8-0.97-4.1-0.87-6.3 2.1-4.3 5.8-4.9 7.6-4.2 14 0.59 5.2 0.45 5.9-1.6 7.4-2.7 1.9-7.8 2.1-7.9 0.33zm-8.1-78c-3.3-6-3.3-6-3.9-3-1.7 7.9-1.1 11 2.4 13 5.2 2.2 5.9-2 1.6-9.8zm-357 508c0.0089-3.4 0.022-192 0.03-419l0.014-412-11-0.58 0.2 417c0.11 230 0.22 418 0.25 419 0.037 1.4 0.97 1.8 5 1.8h5zm643-413 0.027-419h-11v838h11zm-84-328c31-6 52-43 42-74-19-61-110-49-113 14-2.1 39 31 67 71 60zm-24-5.3c-35-7.9-52-49-33-78 28-43 94-24 94 28 0 34-30 58-62 51zm32-7.3c38-19 35-74-5.4-88-15-5-24-4.2-40 3.8-8.2 4-20 19-21 27-0.31 1.7-0.84 3.6-1.2 4.2-2.1 3.5-0.76 20 2.2 27 0.73 1.6 2.1 4.6 2.9 6.6 9.2 20 41 30 63 19zm-27-8.3c-6.4-1.8-27-35-24-39 2.7-2.7 6.3-0.65 10 5.8 7 11 11 5.7 7.3-11-0.48-2.2-1.2-6.7-1.5-10-1.2-11 5.2-14 6.9-3.1 3.1 20 5.1 23 5.1 6.4-0.05-14 0.65-18 3.4-18 3.1 0 3.5 1.7 4 16 0.62 16 2.1 17 3.6 2 1.3-14 2.2-16 5.9-12 1.4 1.4 1.5 3.5 1 15-0.79 17-0.068 17 7.6 0.13 2.5-5.6 5.4-6.4 6.4-1.9 0.62 2.8 0.07 4.6-5 16-2.4 5.4-4.5 13-4.3 18 0.37 13-12 20-27 16zm-423-60c4.4-1.5 5-3.2 5.3-14 0.11-5.3 0.58-9.9 1-10 2.2-1.4 0.37-2.4-4.2-2.4-4.7 0-6.3 1.1-4 2.5 1.3 0.82 1.3 15-0.035 18-1.3 2.4-7.1 2.6-9.4 0.32-0.89-0.89-1.7-1.5-1.9-1.2-2.2 3.3-3.1 8-1.4 7.3 0.69-0.26 2.6-0.055 4.2 0.45 4.2 1.3 6.7 1.3 10-0.024zm-80-1.6c-0.45-0.96-0.8-4-0.79-6.8l0.035-5h18v5.5c0 3-0.39 6.1-0.87 6.8-0.67 0.96 0.48 1.2 4.9 1.2 4.9 0 5.6-0.21 4.5-1.5-0.87-1-1.1-5.7-0.87-16l0.34-15-8 0.66 6e-3 5.7c7e-3 6.6 0.67 6.2-9.4 6.2h-7.9l-0.35-5.1c-0.19-2.8 0.035-5.4 0.5-5.9 0.47-0.47-1.3-1-4-1.2l-4.8-0.35v32l4.8 8.4e-4c4.2 7.4e-4 4.7-0.21 4-1.7zm39 0.42c-2.1-2.5 0.84-4.7 6.5-4.8 6.2-0.14 7.7 0.64 7.1 3.8-0.43 2.3-0.2 2.4 4.9 2.4h5.4l-2.4-3.8c-4.8-7.6-11-20-10-22 0.49-1.3-0.32-1.5-4.6-1.5-4.3 0-5.1 0.28-4.6 1.5 0.32 0.84-2.1 6.9-5.3 14l-5.9 12h5.1c4.1 0 4.9-0.25 4-1.3zm3.6-9.3c-0.33-0.33 0.14-2.1 1-4l1.6-3.4 1.8 3.3c0.96 1.8 1.8 3.6 1.8 4 0.05 0.89-5.4 1-6.2 0.15zm57 9.4c-2.7-2.7-1.5-9.8 1.8-9.8 3.1 0 9.9 7.9 8.5 10-0.38 0.61 1.5 0.99 5 0.99h5.6l-4-5.1c-3.9-5-4.3-6.9-1.5-6.9 2 0 4.5-4 4.5-7 0-5.5-3.6-7.2-17-7.7l-12-0.49v27l5 1e-3c3.8 8.8e-4 4.7-0.27 3.8-1.2zm-1.2-17c0-2.6 0.077-2.6 6.8-2.3 6 0.26 6.8 0.52 6.8 2.3s-0.77 2-6.8 2.3c-6.7 0.29-6.8 0.27-6.8-2.3zm-132-0.028c2-5.8 6.1-13 9.9-17l2.6-2.8-11-11c-14-13-14-13-14-0.13-0.0087 5.4-0.065 15-0.12 21-0.16 17-0.75 15 5.7 15l5.6-0.3zm640-18c-0.38-28 0.58-27-13-13l-12 12 2.6 2.8c3.3 3.6 8 12 9.6 17 1.8 5.7 1.6 5.5 7.6 5.5h5.5zm-310-11 15-7.5h20l0.35-5.1c0.44-6.5 1.9-5.9-15-5.9h-15l-1.5 3.8c-3.9 9.9-9.1 14-18 15-11 0.89-20-5.7-23-17-0.38-1.3-2.8-1.5-16-1.5l-15 0.05v10l23 1 14 7.2c17 8.7 13 8.8 31-0.2zm4.4-5.2c0.37-0.37 0.97-0.37 1.3 0 0.37 0.37 0.067 0.67-0.67 0.67-0.73 0-1-0.3-0.67-0.67zm-314 7.7c2.9-2.2 8.3-5.2 12-6.7l6.8-2.7v-5.3c0-6.8 0.7-6.6-25-6.2-26 0.43-26 0.015-12 13 5.8 5.6 11 11 11 11 0.63 1.4 2.1 0.75 7.4-3.3zm614-19c-0.65-0.65-9.4-1-24-1h-23v11l5 1.7c5.5 1.9 12 5.7 17 9.6l3 2.5 11-11c7.7-7.7 11-11 10-12zm-314 13c5.1-2.6 11-9.3 11-13 0-0.3-7.9-0.54-18-0.54-19 0-19 0.02-16 4.8 4.3 8.3 15 12 23 8.6zm-72-3.4 9.6-0.02-0.24-10h-215l-0.1 3.5c-0.22 7.7-5.5 7 55 7.3 30 0.14 74 0.16 98 0.029s48-0.24 53-0.25zm-100-1.5c0-0.28 0.22-0.5 0.5-0.5s0.5 0.22 0.5 0.5-0.22 0.5-0.5 0.5-0.5-0.22-0.5-0.5zm20 0c0-0.28 0.22-0.5 0.5-0.5s0.5 0.22 0.5 0.5-0.22 0.5-0.5 0.5-0.5-0.22-0.5-0.5zm2.3-0.17c0.37-0.37 0.97-0.37 1.3 0 0.37 0.37 0.067 0.67-0.67 0.67-0.73 0-1-0.3-0.67-0.67zm369 1.7 45-0.021v-11l-106 0.037c-122 0.043-109-0.62-109 5.9l0.35 5c57 0.7 113 0.09 170 0.042z"/>
 <g font-family="Sans" stroke="#000" stroke-linejoin="round">
  <text x="107.17617" y="222.19171" font-size="43px" xml:space="preserve"><tspan x="107.17617" y="190" font-size="43px">Special - Movement</tspan></text>
  <text x="106.97668" y="594.20209" font-size="36px" xml:space="preserve"><tspan x="106.97668" y="594.20209">Play during Movement phase.</tspan><tspan x="106.97668" y="639.20209"/><tspan x="106.97668" y="684.20209">Take an extra on-planet force </tspan><tspan x="106.97668" y="729.20209">movement subject to normal </tspan><tspan x="106.97668" y="774.20209">movement rules. </tspan><tspan x="106.97668" y="819.20209"/><tspan x="106.97668" y="864.20209">The forces you move may be a </tspan><tspan x="106.97668" y="909.20209">group you've already moved this </tspan><tspan x="106.97668" y="954.20209">phase or another group. </tspan></text>
 </g>
</svg>
