<?xml version="1.0" encoding="UTF-8"?>
<!-- Created with Inkscape (http://www.inkscape.org/) -->
<svg width="822" height="1122" version="1.1" viewBox="0 0 822 1122" xmlns="http://www.w3.org/2000/svg">
 <path d="m88.942 1035c-4.535-1.3333-6.7164-2.9271-8.9482-6.5382l-2.1853-3.5359 0.0528-461.23c0.02904-253.67 0.07221-464.51 0.09593-468.52 0.04186-7.0758 0.15785-7.4117 3.9713-11.5l3.9282-4.2113 319.82-0.26014c236.55-0.1924 320.54 0.03497 322.58 0.87323 1.515 0.62335 4.097 2.6622 5.7376 4.5308l2.983 3.3975-2e-3 468.63c-2e-3 460.06-0.0373 468.69-1.9186 471.73-1.054 1.7019-3.4099 3.9943-5.2354 5.0943-3.4506 2.0793-633.89 3.582-640.88 1.5276zm44.058-8.309c0-4.6136-0.35349-5.9011-1.75-6.3742-5.7298-1.9409-13.387-5.9624-18.036-9.473l-5.3503-4.0395-11.41 11.258c-15.305 15.1-16.061 14.411 15.797 14.411h20.75zm218.8 0.4546 0.30226-5.1732-4.3023-0.017c-2.3662-0.01-50.877-0.012-107.8-0.01l-103.5 0.012-0.32368 3.1436c-0.17802 1.7289-0.085 4.0938 0.20661 5.2552l0.53028 2.1116 214.59-0.154zm35.738 1.0577c6.049-20.487 34.859-19.75 39.839 1.0191 0.46733 1.949 1.3092 2.7694 2.8903 2.8166 3.8922 0.1161 12.974 0.129 20.884 0.03l7.6535-0.096 0.34652-5.0006 0.34651-5.0006-19.308 0.0012-32.607-15.805-30.085 15.303h-22l-0.31309 4.3644c-0.50571 7.0496-1.0278 6.8323 15.891 6.6144l15.265-0.1965zm290.46-0.9593-1e-5 -5.2284-41.75-0.2716c-22.962-0.1494-71.338-0.1497-107.5-6e-4l-65.75 0.2709v4.9095c0 6.2211-13.302 5.5486 109.75 5.5486h105.25zm50.301 4.1397c1.5835-0.9211 0.38012-2.4507-9.9848-12.692l-11.785-11.644-2.5152 2.2913c-4.4639 4.0664-12.239 8.6014-17.695 10.321l-5.3201 1.677v5.2479c0 4.6808 0.24309 5.2823 2.25 5.5673 5.816 0.8261 43.412 0.1842 45.051-0.7691zm-303.86-1.6613c-4.9534-16.058-25.396-18.339-32.977-3.6805-3.0826 5.9611-3.1658 5.9305 16.103 5.9305h17.567zm308.83-3.0172c1.6521-4.3053 0.77075-46.734-0.97154-46.771-0.99041-0.0208-3.4432-0.27642-5.4507-0.5681-3.5035-0.50905-3.6996-0.3771-4.8865 3.2878-1.9534 6.0314-5.9067 13.457-9.5658 17.967l-3.366 4.149 11.234 11.433c12.024 12.236 12.266 12.432 13.006 10.502zm-648.43-1.4828c1.0123-0.9625 6.1699-5.9549 11.461-11.094l9.6208-9.3441-3.8511-5.1558c-4.1875-5.6062-8.4089-13.59-9.4296-17.834-0.6017-2.5019-1.0068-2.6786-6.1431-2.6786h-5.4989l-0.02886 10.179c-0.01587 5.5982-0.09197 15.354-0.1691 21.679-0.18249 14.964 0.55398 17.563 4.0385 14.25zm307.03-14.75c8.3115-4.125 15.326-7.5 15.589-7.5s7.2859 3.375 15.608 7.5l15.131 7.5h244.57l8.2942-4.1514c10.863-5.437 19.39-13.938 24.644-24.57l3.7932-7.6749 0.50736-803.6h-22.601l-1.1524 6.7275c-11.16 65.15-110.97 63.342-120.8-2.1893l-0.68055-4.5382h-479.77l-0.01595 73.75c-0.0088 40.562-0.01491 220.75-0.01364 400.43l0.0023 326.68 2.0801 5.5595c4.8821 13.049 13.933 22.863 27.313 29.618l7.8658 3.9708h244.53zm-269.84-106.6c-4.0214-1.623-5.3178-5.3919-2.7782-8.0766 1.363-1.4409 1.7052-7.1907 0.5-8.4014-3.4496-3.4653 1.6837-9.8935 7.2991-9.1403 2.7107 0.36357 3.9721 0.10739 4.3525-0.88391 0.62948-1.6404 4.5984-1.9013 4.5984-0.30223 0 0.60149-0.87933 1.3236-1.9541 1.6046-1.5642 0.40906-1.8375 1.094-1.3696 3.4335 0.78494 3.9247-1.9032 6.8682-6.2723 6.8682-6.955 0-5.679 2.9355 1.674 3.8513 5.8214 0.72503 7.5663 2.4454 6.5574 6.4651-1.0216 4.0705-7.7844 6.5281-12.607 4.5816zm9.7218-3.1583c3.4362-2.7065-0.50533-6.0488-6.5423-5.5475-3.2128 0.26676-3.75 0.67584-4.0248 3.0652-0.48932 4.2545 6.294 5.848 10.567 2.4823zm-3.6843-13.775c2.9046-1.5545 2.5418-5.7742-0.5635-6.5536-3.5249-0.8847-5.5022 0.14217-5.5022 2.8574 0 4.0495 2.5276 5.5897 6.0657 3.6962zm64.583 16.275c-0.26938-0.43586-0.60487-6.1496-0.74553-12.697l-0.25575-11.905 5.6648-0.33071c7.3244-0.42759 9.6881 1.5823 9.6881 8.2381 0 6.1872-3.5348 9.954-8.5735 9.1363-3.4086-0.55314-3.4265-0.53575-3.4265 3.3221 0 3.6653-1.2797 5.9706-2.3516 4.2363zm9.1291-10.797c5.1768-3.626 1.4232-13.355-4.5499-11.793-1.9804 0.51789-2.2276 1.226-2.2276 6.3826 0 7.0044 2.1037 8.6836 6.7775 5.41zm58.223 9.9214c0-0.34943 1.169-1.7187 2.5977-3.0428 3.0404-2.8178 2.8561-4.4466-1.5898-14.051-1.586-3.4262-2.5278-6.4493-2.093-6.718 1.5761-0.97406 3.8964 2.061 5.5915 7.3138 1.9325 5.9886 2.6939 5.636 4.5516-2.1077 0.68829-2.8691 1.6976-4.7587 2.5418-4.7587 1.9282 0 1.8046 0.74226-1.434 8.6125-1.5588 3.7882-3.1345 8.0936-3.5015 9.5676-0.98066 3.9389-6.6642 8.3606-6.6642 5.1846zm-106.51-9.5594c-3.3465-3.9771-2.9238-9.1179 1.0324-12.555 8.4815-7.3695 18.534 4.8474 10.555 12.827-4.0279 4.028-8.0488 3.9337-11.587-0.2716zm9.5104-0.80532c4.0482-4.0482 1.3302-12.407-3.8393-11.807-4.9185 0.57086-6.5481 8.2768-2.5878 12.237 2.1053 2.1053 4.0198 1.9772 6.4271-0.43007zm10.727 2.2514c-2.3031-2.5449-2.5307-15.251-0.27318-15.251 1.0996 0 1.5264 1.6465 1.75 6.75 0.28954 6.6096 0.35543 6.7568 3.1675 7.0782 4.1193 0.47073 5.0103-0.99845 4.7326-7.8033-0.19544-4.7887 0.0607-6.0248 1.2487-6.0248 1.1733 0 1.5647 1.7074 1.8207 7.9426 0.32412 7.8932 0.31062 7.9425-2.1738 7.9388-1.375-2e-3 -3.8601 0.28481-5.5225 0.63756-2.267 0.48104-3.4543 0.16421-4.75-1.2675zm47.907-0.32395c-6.0138-4.7304-2.0451-15.927 5.6454-15.927 7.43 0 10.815 9.9953 5.2652 15.545-3.0364 3.0364-7.3443 3.1872-10.911 0.38197zm8.5364-1.5824c2.312-2.0923 2.4104-8.0448 0.17375-10.516-3.5334-3.9044-8.345-1.0711-8.345 4.914 0 6.1073 4.3316 9.0771 8.1713 5.6023zm48.283 1.2004c-7.5754-7.5754 3.3801-20.358 11.685-13.634 3.6165 2.9284 3.3737 10.39-0.44498 13.675-3.6665 3.1538-8.0608 3.1377-11.24-0.0411zm9.0816-0.94822c2.2944-1.6777 2.6463-8.4675 0.56869-10.971-1.9191-2.3124-5.7212-2.012-7.5481 0.5962-4.3209 6.1689 1.3015 14.526 6.9794 10.375zm12.465 2.4686c-2.3782-1.5731-3.0969-16.066-0.79676-16.066 1.4082 7e-5 1.7557 1.1728 2 6.7501l0.29569 6.75h7l0.29569-6.75c0.46342-10.579 3.2043-9.5193 3.2043 1.2388 0 7.6241-0.10272 7.9879-2.25 7.9683-1.2375-0.0113-3.6 0.23168-5.25 0.53986s-3.6745 0.11414-4.4989-0.4312zm40.06-1.0043c-1.5323-1.5323-2.0615-3.3451-2.0615-7.0615 0-2.75-0.45-5-1-5s-1-0.675-1-1.5 0.45-1.5 1-1.5 1-1.125 1-2.5c0-1.5556 0.56667-2.5 1.5-2.5 0.825 0 1.8247 4e-3 2.2216 8e-3s0.73439 1.017 0.75 2.25c0.0197 1.5526 0.72019 2.3401 2.2784 2.5614 3.1186 0.44291 2.9034 3.1804-0.25 3.1804-2.1791 0-2.5 0.43879-2.5 3.4182 0 4.7504 0.88492 6.5818 3.1803 6.5818 1.3331 0 1.8589 0.56357 1.6328 1.75-0.48344 2.5365-4.3483 2.7148-6.7516 0.31149zm12.393-0.51604c-3.4717-3.4717-3.3891-9.3382 0.18181-12.909 7.0211-7.0211 17.845 0.48972 13.992 9.7097-2.5466 6.0949-9.6707 7.7029-14.174 3.1994zm8.7167-2.2004c3.3284-3.0122 1.4711-10.345-2.6202-10.345-2.0507 0-3.8844 2.8324-3.8844 6 0 5.2463 3.1694 7.3634 6.5046 4.345zm32.294 3.7035c-8.4615-3.4298-5.3178-17.048 3.9355-17.048 8.3445 0 9.687 8.6645 1.4862 9.5923-7.5766 0.85719-7.0544 4.4077 0.6482 4.4077 3.1497 0 4.4648 0.41033 4.4648 1.393 0 2.4924-6.1037 3.4515-10.535 1.6555zm6.5347-11.58c0-3.2206-5.6813-2.9246-6.7738 0.35282-0.25286 0.75857 0.8841 1.1786 3.1905 1.1786 2.5512 0 3.5833-0.44111 3.5833-1.5314zm27.571 11.647c-1.0482-1.696 0.36239-3.2537 2.7742-3.0637 6.5487 0.51594 7.6624-1.3148 2.1906-3.601-8.1854-3.4201-6.2357-10.451 2.8982-10.451 2.8124 0 3.5657 0.39383 3.5657 1.8641 0 1.4598-0.70488 1.8393-3.25 1.75-4.559-0.16-4.7268 1.5373-0.37842 3.8272 4.2209 2.2228 5.7175 5.8982 3.3611 8.2546-1.9122 1.9122-10.205 2.9669-11.161 1.4195zm-288.57-8.6154c0-7.7637 0.82865-10.204 2.53-7.4514 0.44615 0.72188 1.0705 0.69797 2.004-0.0768 1.5866-1.3167 5.966-0.929 5.966 0.52821 0 0.55-1.125 1.1556-2.5 1.3458-4.1332 0.57173-5 2.0066-5 8.2766 0 4.5578-0.33681 5.8776-1.5 5.8776-1.2157 0-1.5-1.6111-1.5-8.5zm103 1.5c0-6.3333-0.19048-7-2-7-1.1 0-2-0.45-2-1s0.9-1 2-1c1.4146 0 2-0.66667 2-2.2775 0-3.4388 2.755-6.7225 5.64-6.7225 1.5723 0 2.3698 0.47055 2.1114 1.2458-0.22839 0.68517-1.2784 1.2477-2.3333 1.25-1.4319 3e-3 -1.9975 0.82797-2.2314 3.2542-0.26205 2.7178 0.0245 3.25 1.75 3.25 1.1348 0 2.0634 0.45 2.0634 1s-0.9 1-2 1c-1.8095 0-2 0.66667-2 7 0 5.5556-0.30952 7-1.5 7s-1.5-1.4444-1.5-7zm74.15-1.5c-0.0188-6.734 0.27485-8.5 1.4132-8.5 0.7903 0 1.4369 0.44035 1.4369 0.97856 0 0.60211 0.93722 0.55154 2.4362-0.13146 2.6742-1.2184 6.0567-0.45368 5.0681 1.1458-0.34232 0.55388-1.6308 1.0071-2.8634 1.0071-3.5316 0-4.641 1.9602-4.641 8.2 0 4.3306-0.35803 5.8-1.4132 5.8-1.1049 0-1.4184-1.8542-1.4369-8.5zm54.329-3.75c0.021-11.935 0.0794-12.258 2.2716-12.57 2.1513-0.30553 2.25-9e-3 2.25 6.75 0 7.7461 0.30956 8.217 3.0836 4.6904 1.7323-2.2022 6.9164-4.203 6.9164-2.6693 0 0.37083-1.3297 1.9481-2.9548 3.5051l-2.9548 2.8309 3.4548 4.0362c4.0808 4.7674 4.2554 5.6762 1.0908 5.6762-1.648 0-3.2381-1.266-5.25-4.18l-2.886-4.18-0.3075 4.18c-0.86494 11.758-4.7373 5.1286-4.7141-8.07zm36.348 4.2355c-0.32028-7.8702 1.7221-11.952 4.0751-8.1453 0.41692 0.67459 1.1822 0.71864 2.1252 0.12233 5.8577-3.7044 9.9736 0.0548 9.9736 9.1089 0 6.7325-0.0711 6.9286-2.5118 6.9286-2.3654 0-2.475-0.23043-1.8797-3.9528 1.0564-6.6067-0.0943-9.2251-3.8928-8.858l-3.2157 0.3108 0.34573 6.25c0.33767 6.1044 0.28704 6.25-2.1739 6.25-2.456 0-2.5278-0.20205-2.8457-8.0145zm36.174 6.1215c0-2.42 2.5019-3.4121 4.013-1.5914 1.4688 1.7698 0.4492 3.4844-2.072 3.4844-1.2378 0-1.941-0.68585-1.941-1.893zm-207-33.633c0-0.73645 0.89895-1.6243 1.9977-1.973 3.485-1.1061 3.5044-4.9652 0.066-13.156-1.7467-4.1611-2.9449-7.7964-2.6628-8.0784 1.3517-1.3517 3.2756 0.99892 5.0211 6.135 2.1604 6.3567 2.7937 6.239 4.8471-0.90084 0.88704-3.0844 2.0747-5.125 3.0999-5.3263 1.4716-0.28893 1.4169 0.28375-0.47782 5-1.1769 2.9295-3.0253 7.8013-4.1075 10.826-2.5383 7.095-7.7837 12.131-7.7837 7.4738zm225.5-6.2488c-7.9289-1.7106-8.3193-13.986-0.54716-17.205 7.6625-3.1739 13.825 4.959 9.7824 12.91-1.3819 2.7178-6.1877 4.9531-9.2353 4.2956zm5.9433-4.4475c2.8968-4.1358 0.63319-11.777-3.4888-11.777-2.7145 0-6.1798 5.1235-5.5604 8.221 1.2002 6.0009 6.0123 7.8922 9.0491 3.5565zm71.782 4.4187c-6.6552-0.99999-7.4595-13.472-1.0815-16.771 6.0927-3.1506 11.856 0.574 11.856 7.662 0 6.2864-4.4606 10.057-10.775 9.1086zm5.9459-3.8512c3.3621-3.0426 1.1401-12.345-2.9488-12.345-2.5671 0-5.2225 3.3672-5.2225 6.6224 0 6.7818 3.9466 9.5458 8.1713 5.7226zm-420.17-6.845v-10.5h-4c-2.2 0-4-0.45-4-1 0-0.59259 3.6667-1 9-1s9 0.40741 9 1c0 0.55-1.575 1-3.5 1h-3.5v10.5c0 8.6667-0.2619 10.5-1.5 10.5s-1.5-1.8333-1.5-10.5zm13-2c0-10.444 0.24667-12.5 1.5-12.5 1.112 0 1.5 1.1688 1.5 4.519 0 4.7935 0.23079 4.8969 6.6352 2.9729 3.4718-1.043 5.3648 2.5085 5.3648 10.065 0 10.66-2.7752 10.827-3.2062 0.1933-0.49128-12.123-8.7938-11.299-8.7938 0.87244 0 5.0023-0.32347 6.3776-1.5 6.3776-1.2533 0-1.5-2.0556-1.5-12.5zm19.823 3.9977c-0.28742-7.5547-0.12843-8.5021 1.4265-8.5 1.5292 2e-3 1.75 1.0746 1.75 8.5023 0 12.327-2.7075 12.325-3.1765-2e-3zm7.1765 7.166c0-0.91756 1.3221-1.3093 4.2191-1.25 5.6602 0.11579 6.491-2.6723 1.4268-4.7883-8.1791-3.4174-5.9969-11.562 2.6546-9.9083 3.8969 0.74494 3.3164 2.1111-1.0506 2.4725-4.9017 0.40569-4.8096 2.2934 0.25 5.1255 7.0616 3.9526 5.2436 9.6849-3.0714 9.6849-3.0287 0-4.4286-0.4224-4.4286-1.3363zm23.977 1.1696c-0.0126-0.18333-0.12799-3.9718-0.25647-8.4187l-0.23361-8.0854 23.617-0.1864 0.99256 2.6106c1.4935 3.9281 0.75048 13.746-1.0402 13.746-1.1236 0-1.3842-1.288-1.1749-5.807 0.29996-6.4755-0.85714-8.693-4.536-8.693-3.1098 0-4.2516 2.9322-3.7968 9.75 0.27214 4.0796 0.0271 5.25-1.0992 5.25-1.1143 3e-5 -1.4494-1.4743-1.4494-6.3775 0-11.757-7.1598-12.832-8-1.2008-0.37583 5.2027-2.7715 11.077-3.0229 7.4117zm29.68-1.9123c-2.7375-3.9083-0.72187-6.9002 5.3088-7.8805 5.8324-0.94802 4.9536-4.4494-1.216-4.8453-6.4797-0.41578-6.0338-2.1952 0.55-2.1952 6.9298 0 7.7001 0.94541 7.6995 9.45l-4.8e-4 7.05-5.4528 0.2357c-4.5237 0.19554-5.6976-0.11368-6.889-1.8147zm7.761-0.528c0.86999-0.33384 1.5818-1.6838 1.5818-3 0-2.84-4.8687-3.4611-7-0.89301-2.3038 2.7759 1.398 5.4357 5.4182 3.893zm34.582-10.024c0-10.328 0.24751-12.369 1.5-12.369 1.1076 0 1.5 1.1589 1.5 4.4302v4.4302l3.0676-0.87976c6.7564-1.9377 11.277 3.5899 9.04 11.055-1.4423 4.8138-3.4257 5.9664-10.012 5.818l-5.0954-0.11479zm10.797 9.3751c4.01-4.8318 1.429-12.089-4.1087-11.553-3.2146 0.3113-5.0679 6.7715-3.2796 11.432 0.66098 1.7225 5.987 1.81 7.3884 0.12147zm10.712 0.85547c-3.6026-3.6026-3.4318-8.8309 0.41411-12.677 3.4989-3.4989 7.2096-3.7704 10.038-0.73452 4.4698 4.7977 2.1043 7.7675-6.211 7.7978-4.4578 0.0162-4.7268 1.1002-1.0003 4.0314 2.0369 1.6022 3.6094 2.0234 6.0659 1.6248 2.3157-0.37579 3.1974-0.17676 2.9221 0.65968-0.8277 2.5156-9.5094 2.0171-12.229-0.70229zm6.366-8.2249c3.519-0.70379 4.094-2.786 1.1974-4.3362-2.335-1.2496-4.7871-0.44039-6.1002 2.0131-1.7243 3.2219-1.0912 3.5219 4.9028 2.3231zm21.325 9.425c-0.66-0.66-1.2-3.81-1.2-7 0-4.4889-0.33908-5.8-1.5-5.8-0.825 0-1.5-0.675-1.5-1.5s0.675-1.5 1.5-1.5c0.93333 0 1.5-0.94444 1.5-2.5s0.56667-2.5 1.5-2.5c0.92189 0 1.5 0.93672 1.5 2.4304 0 1.7591 0.62149 2.5187 2.25 2.75 2.9794 0.42314 2.4851 2.2354-0.71891 2.636-4.3225 0.54038-2.9424 12.184 1.4442 12.184 1.1136 0 2.0248 0.45 2.0248 1 0 1.4066-5.3507 1.2493-6.8-0.2zm10.754 0.95c-0.88749-4.8022-0.29043-24.75 0.74079-24.75 0.87506 0 1.3054 1.443 1.3054 4.3772v4.3772l4.4919-0.50631c6.5258-0.73555 7.5081 0.49088 7.5081 9.3744 0 5.9634-0.294 7.3776-1.5338 7.3776-1.2361 0-1.4998-1.2356-1.3586-6.3668 0.20729-7.5347-0.30734-8.6332-4.0442-8.6332-4.2344 0-5.3692 2.0966-4.87 8.9975 0.33916 4.6888-1.5429 9.5228-2.2396 5.7525zm21.023-2.2747c-6.3056-6.712 1.1234-18.75 8.8737-14.379 6.6012 3.7228 5.2079 7.7948-2.9814 8.7132l-6.3691 0.7143 2.8235 2.8571c2.3477 2.3756 3.4008 2.7634 6.25 2.301 2.5705-0.41713 3.4265-0.197 3.4265 0.88108 0 2.7125-9.2383 1.8768-12.023-1.0875zm9.2182-9.6435c-1.0595-4.6272-8.1214-3.8361-8.1797 0.91627-0.0106 0.86842 1.2776 1.1215 4.2347 0.83182 2.8794-0.28203 4.1516-0.84578 3.945-1.7481zm15.033 10.984c0.21702-0.65105 2.1588-1.2136 4.3151-1.25 5.3531-0.0905 5.9809-2.9027 1.1029-4.9408-8.497-3.5503-6.0235-11.342 3.104-9.7778 3.5289 0.60473 2.6354 1.9998-1.5 2.342-4.9017 0.40569-4.8096 2.2934 0.25 5.1255 7.1014 3.9749 5.2415 9.6849-3.1548 9.6849-3.0304 0-4.3823-0.38869-4.1173-1.1837zm15.953-0.0349c-3.2973-3.2973 0.43857-8.7814 5.9821-8.7814 1.4952 0 3.0088-0.46971 3.3636-1.0438 1.189-1.9238-1.7133-3.9562-5.6495-3.9562-4.9814 0-5.0996-1.9614-0.12756-2.1185 8.1714-0.25818 8.4845 0.0769 8.7749 9.3903l0.23005 7.3769-5.6961 0.15699c-3.2552 0.0897-6.2024-0.34925-6.8775-1.0244zm7.5686-1.4116c3.3001-0.88438 3.1596-5.3697-0.16821-5.3697-3.6458 0-5.5818 1.0198-5.5818 2.9403 0 3.0075 1.3944 3.5966 5.75 2.4294zm9.7155-5.7901c-0.0386-9.4806-0.83168-8.6903 8.5345-8.5051 1.925 0.0381 4.625 0.0498 6 0.0262 10.472-0.1803 10.352-0.28527 10.435 9.1348 0.0517 5.8194-0.23387 7.2645-1.4355 7.2645-1.2002 0-1.4311-1.1561-1.1554-5.7836 0.38372-6.4404-0.77353-8.7164-4.4318-8.7164-3.4106 0-4.7706 3.2979-4.0142 9.7338 0.56773 4.8305 0.4448 5.3825-1.1308 5.0772-1.4962-0.28986-1.7148-1.2284-1.4232-6.1103 0.38311-6.4128-0.77603-8.7007-4.408-8.7007-3.1755 0-3.8854 1.515-3.9825 8.4988-0.14511 10.437-2.9455 8.6388-2.9886-1.9192zm31.709 6.106c-4.8588-5.1719-1.2891-15.686 5.3257-15.686 3.065 0 7.5 4.0762 7.5 6.8933 0 1.985-0.76882 2.2215-10.872 3.3434l-2.3716 0.26336 1.9901 2.4467c1.5094 1.8557 2.9872 2.4596 6.1184 2.5 2.6058 0.0337 4.1295 0.51433 4.1315 1.3033 6e-3 2.4025-9.3575 1.5595-11.823-1.0644zm9.5604-9.3897c0.17267-0.518-0.58548-1.7558-1.6848-2.7506-2.272-2.0561-7.05-0.0392-7.05 2.9759 0 1.679 8.1702 1.4683 8.7347-0.2253zm36.265 4.786c0-3.805-0.27314-7.63-0.60699-8.5-0.39831-1.038-0.0545-1.5818 1-1.5818 0.88385 0 1.607 0.46037 1.607 1.023 0 0.59879 0.93308 0.46077 2.25-0.33282 2.6111-1.5735 4.9341-1.638 5.4298-0.15073 0.19058 0.57172-1.1219 1.4717-2.9167 2-3.2233 0.94877-3.2668 1.0429-3.5589 7.7105-0.43189 9.8591-3.2043 9.7136-3.2043-0.16821zm20.181 5.6996c-3.2676-3.2676 0.21125-8.7814 5.5404-8.7814 3.2736 0 4.8458-2.0324 3.0001-3.8781-0.61703-0.61703-2.8319-1.1219-4.9219-1.1219-4.6199 0-5.1266-1.9516-0.55-2.1185 7.6247-0.27797 8.4528 0.6215 8.9264 9.6957l0.36942 7.0772-5.5916 0.15411c-3.1717 0.0874-6.1028-0.35716-6.7729-1.0272zm7.8844-1.8165c1.0638-0.56935 1.9343-1.9194 1.9343-3 0-2.4853-6.7064-2.8934-7.6384-0.46482-1.4339 3.7366 1.6716 5.6229 5.7041 3.4648zm9.8539 2.7852c-1.618-5.0338-0.18861-16.624 2.0388-16.532 1.3979 0.0578 3.7333-0.15457 5.1899-0.47196 5.0992-1.1111 6.8516 1.3982 6.8516 9.8103 0 6.2083-0.27 7.4433-1.6272 7.4433-1.3606 0-1.5443-0.86032-1.1214-5.25 0.72448-7.5191-0.42267-9.9566-4.5008-9.5634l-3.2506 0.31341-0.29381 7.25c-0.24487 6.0423-2.2332 10.277-3.2865 7zm43.17-0.67327c-0.84061-0.53214-1.6056-3.2501-1.8942-6.7299-0.30133-3.6337-1.0639-6.2612-2.0201-6.9604-1.3382-0.97849-1.2511-1.2757 0.676-2.307 1.2166-0.65112 2.0852-1.9012 1.9302-2.7779-0.15501-0.87672 0.28066-1.7907 0.96816-2.0311 0.79021-0.27631 1.25 0.51315 1.25 2.1463 0 2.0889 0.47849 2.5833 2.5 2.5833 1.5556 0 2.5 0.56667 2.5 1.5s-0.94444 1.5-2.5 1.5c-2.325 0-2.5 0.3415-2.5 4.8776 0 4.9045 1.8227 7.9681 3.9562 6.6495 0.57409-0.35481 1.0438 0.0565 1.0438 0.91391 0 1.7212-3.586 2.107-5.9101 0.63575zm9.9101-11.577c0-10.444 0.24667-12.5 1.5-12.5 1.1163 0 1.5 1.1786 1.5 4.607 0 4.0102 0.22668 4.5086 1.75 3.8476 6.8278-2.963 10.25 0.28771 10.25 9.7366 0 9.7202-2.7728 9.8615-3.2043 0.16326-0.53891-12.112-8.7957-12.427-8.7957-0.33534 0 5.5386-0.30991 6.981-1.5 6.981-1.2533 0-1.5-2.0556-1.5-12.5zm21.509 10.1c-5.5223-5.5223-1.4112-15.6 6.3638-15.6 2.3688 0 6.1273 4.1084 6.1273 6.6978 0 2.3189-2.3789 3.2672-8.25 3.2885-2.0625 8e-3 -3.7431 0.35115-3.7347 0.76365 0.0588 2.8794 5.2798 5.641 9.1872 4.8595 2.1047-0.42093 2.8403-0.23356 2.5497 0.64944-0.83997 2.5518-9.4985 2.0857-12.243-0.65905zm6.366-8.2249c3.519-0.70379 4.094-2.786 1.1974-4.3362-2.335-1.2496-4.7871-0.44039-6.1002 2.0131-1.7243 3.2219-1.0912 3.5219 4.9028 2.3231zm10.548 2.122c-0.0585-6.4338 0.24499-8.497 1.25-8.497 0.73003 0 1.3273 0.54 1.3273 1.2 0 0.93333 0.26667 0.93333 1.2 0 1.4493-1.4493 6.8-1.6066 6.8-0.2 0 0.55-1.0929 1-2.4286 1-4.0455 0-5.5714 2.4846-5.5714 9.0714 0 4.0778-0.39023 5.9276-1.25 5.9256-0.89561-2e-3 -1.2719-2.412-1.3273-8.5zm-448.42-13.497c0-1.5062 0.52215-2.0461 1.75-1.8096 0.9625 0.18536 1.75 0.99969 1.75 1.8096s-0.7875 1.6243-1.75 1.8096c-1.2278 0.23646-1.75-0.30348-1.75-1.8096zm-6.2107-38.363c-0.94087-0.71483-2.197-2.5787-2.7913-4.1419-3.3512-8.8142 7.0586-16.529 13.547-10.04 7.0551 7.055-2.8855 20.162-10.756 14.182zm8.2107-2.6367c3.5481-3.5481 1.5298-12-2.8656-12-5.0882 0-7.474 7.7574-3.6763 11.954 2.3286 2.573 4.0033 2.5849 6.5419 0.0463zm28.967 1.3188c-5.9016-4.9659-2.4253-15.319 5.1437-15.319 3.5525 0 6.8892 3.1482 6.8892 6.5 0 2.3889-0.26667 2.5-6 2.5-4.3594 0-6 0.36778-6 1.345 0 2.5337 3.5675 4.655 7.8287 4.655 4.1854 0 5.5469 1.2582 2.5895 2.393-3.3997 1.3046-7.3728 0.51609-10.451-2.0742zm9.0329-9.6188c0-3.515-4.2178-4.7178-7.1713-2.045-2.8338 2.5645-2.2105 3.345 2.6713 3.345 3.0256 0 4.5-0.42593 4.5-1.3zm41.209 11.278c-7.708-3.1746-4.6016-17.489 3.6407-16.776 8.6262 0.74599 9.3042 8.7985 0.74085 8.7985-6.2769 0-7.523 1.0674-4.6269 3.9635 1.3837 1.3837 3.3454 2.0365 6.1198 2.0365 2.819 0 3.9562 0.38704 3.6727 1.25-0.50833 1.5474-6.4561 2.0007-9.5472 0.72765zm7.2413-10.897c0.78031-1.2626-2.2042-4.0806-4.3216-4.0806-2.0434 0-4.1286 1.8687-4.1286 3.7 0 1.51 7.5422 1.8497 8.4502 0.38062zm30.205 10.091c-1.1305-1.2492-1.655-3.6262-1.655-7.5 0-4.3744-0.34299-5.6713-1.5-5.6713-0.825 0-1.5-0.45-1.5-1s0.675-1 1.5-1c0.93333 0 1.5-0.94444 1.5-2.5s0.56667-2.5 1.5-2.5 1.5 0.94444 1.5 2.5c0 2 0.5 2.5 2.5 2.5 1.375 0 2.5 0.45 2.5 1s-1.1475 1-2.5499 1c-3.6983 0-3.4118 11.292 0.2999 11.82 1.2375 0.17575 2.25 0.96325 2.25 1.75 0 2.0589-4.3695 1.7846-6.345-0.39829zm32.971 0.56513c-2.6896-1.9958-3.3298-15.736-0.73311-15.736 1.3386 0 1.6226 0.70613 1.3216 3.285-0.76414 6.5455 0.97764 10.215 4.8487 10.215h3.4364l0.29569-6.75c0.46342-10.579 3.2043-9.5193 3.2043 1.2388 0 7.6241-0.10272 7.9879-2.25 7.9683-1.2375-0.0113-3.6 0.24728-5.25 0.57452-1.8549 0.36788-3.7151 0.0643-4.8736-0.79526zm29.582 0.24126c-7.4427-3.0654-4.7458-16.978 3.2911-16.978 8.2727 0 9.4619 8.3716 1.25 8.7999-8.456 0.44104-7.1511 6.2001 1.4048 6.2001 2.7619 0 3.884 0.38948 3.6013 1.25-0.50833 1.5474-6.4561 2.0007-9.5472 0.72765zm7.7911-10.906c0-3.1249-5.516-5.1555-7.8-2.8714-2.47 2.47-1.315 3.8 3.3 3.8 2.475 0 4.5-0.41786 4.5-0.92857zm7.25 11.266c-2.7453-1.1078-0.99683-2.3377 3.3233-2.3377 5.7576 0 5.8379-2.5844 0.16329-5.2563-6.7444-3.1757-4.5889-9.7437 3.1976-9.7437 2.0353 0 3.0657 0.49575 3.0657 1.475 0 1.0642-0.76599 1.3351-2.75 0.97287-6.358-1.1609-6.5089 2.9596-0.20412 5.5711 4.0738 1.6874 5.0496 5.6755 1.9941 8.1497-2.1506 1.7415-6.0771 2.2637-8.79 1.169zm-235.25-8.2787c0-7.0837 1.5674-11.857 2.7393-8.3412 0.2535 0.76048 1.1945 0.75595 3.2385-0.0156 2.1008-0.79295 3.5562-0.77998 5.3732 0.0479 1.8594 0.84721 3.2555 0.84721 5.5 0 5.9043-2.2286 7.9326-0.10868 8.318 8.6938 0.28842 6.587 0.11156 7.5604-1.3733 7.5584-1.4079-2e-3 -1.7557-1.1761-2-6.7523l-0.29569-6.75-3.2157-0.3108c-3.8105-0.36829-4.8546 2.059-4.0305 9.3703 0.43947 3.899 0.2641 4.4405-1.4379 4.4405-1.7134 0-1.8648-0.4934-1.3038-4.25 0.97444-6.5258-0.73136-9.952-4.7614-9.5634l-3.2506 0.31341-0.29569 6.75c-0.46203 10.547-3.2043 9.5279-3.2043-1.191zm52.344-0.0652c-2.75-6.9656-2.9366-7.9938-1.4509-7.9938 1.0657 0 2.207 1.4062 3.0435 3.75 3.4131 9.5625 3.0453 9.3807 5.5609 2.75 1.3207-3.4811 2.9626-6.1375 3.911-6.3275 1.6514-0.33083 1.1345 1.1915-4.4399 13.078-2.0173 4.3014-3.2317 3.3379-6.6246-5.2562zm34.156-0.16178c0-5.6434 0.38608-8.294 1.25-8.582 0.6875-0.22918 1.25 0.0867 1.25 0.70183 0 0.79597 0.55779 0.82 1.9343 0.0833 2.5234-1.3505 6.379-1.3219 7.7584 0.0575 0.79019 0.79019 1.6578 0.79019 3.1343 0 2.7404-1.4666 5.4024-1.3767 7.6379 0.25798 2.7499 2.0108 3.0937 15.649 0.39451 15.649-1.5787 0-1.7403-0.58949-1.214-4.4291 0.92916-6.779-0.10405-9.5709-3.542-9.5709-4.2702 0-5.4731 2.1288-4.8136 8.5187 0.50827 4.9248 0.37192 5.4813-1.3429 5.4813-1.6822 0-1.8366-0.52531-1.3015-4.4291 0.92916-6.779-0.10405-9.5709-3.542-9.5709-4.1413 0-5.3465 2.0627-4.9479 8.4677 0.27431 4.4073 0.0389 5.5345-1.1555 5.5324-1.2106-2e-3 -1.5-1.5778-1.5-8.168zm48.326 0.0693c-0.32859-8.1591 0.22355-9.935 2.5012-8.0447 0.78019 0.6475 1.7833 0.68508 2.7062 0.1014 5.7443-3.633 9.9665 0.33671 9.9665 9.3706 0 9.6801-2.7798 9.6118-3.2043-0.0787l-0.29569-6.75h-8l-0.29569 6.75c-0.45298 10.341-2.9475 9.3447-3.3782-1.3486zm40.709 0.14379c0.0358-8.0654 0.84077-10.673 2.4775-8.0246 0.71995 1.1649 1.1568 1.2099 2.1456 0.22104 1.7187-1.7187 5.8416-1.581 5.8416 0.195 0 0.88988-1.2369 1.5559-3.25 1.75l-3.25 0.31336-0.29569 6.75c-0.47677 10.884-3.718 9.8195-3.6691-1.2048zm31.964-4.2951c0.0706-17.685 2.5836-17.684 2.83 5.9e-4 0.1447 10.386-0.0614 12.25-1.3541 12.25-1.286-5e-4 -1.5171-1.9187-1.4759-12.251zm42.501 10.25c0-1.3333 0.66667-2 2-2s2 0.66667 2 2-0.66667 2-2 2-2-0.66667-2-2zm-21.275-32.635c-0.32635-0.52805-0.17995-1.6136 0.32534-2.4123s0.9256-6.0648 0.93402-11.702c0.0126-8.4376 0.28053-10.25 1.5153-10.25 2.4468 0 2.1516 19.974-0.34066 23.052-1.0124 1.2502-2.1077 1.8411-2.434 1.313zm-194.73-7.6344c-3.9055-2.0132-5.4769-6.195-4.08-10.858 2.938-9.8063 16.08-8.1132 16.08 2.0716 0 6.9194-6.454 11.645-12 8.7859zm7.4433-3.9527c3.8131-5.444-0.45194-13.305-5.7412-10.582-4.854 2.4992-3.4937 12.804 1.6901 12.804 1.4439 0 3.1499-0.93591 4.051-2.2225zm270.82 4.5056c-3.1879-0.59725-5.264-4.0748-5.227-8.7556 0.0498-6.3081 4.4274-10.244 10.026-9.0149 10.78 2.3676 6.0705 19.807-4.7986 17.77zm6.706-4.2174c3.4173-6.3852-1.6376-14.085-6.85-10.434-4.382 3.0693-2.2128 12.368 2.8852 12.368 1.873 0 3.303-0.69764 3.9648-1.9343zm40.392 3.9427c-7.5656-3.0531-6.6549-15.462 1.2809-17.454 10.452-2.6233 14.465 13.774 4.2432 17.337-1.7488 0.60963-3.225 1.0799-3.2804 1.045-0.0554-0.0349-1.0651-0.45255-2.2438-0.92819zm7.0863-4.2309c3.2146-4.5895-0.43248-12.378-5.2112-11.128-5.9971 1.5683-4.8782 13.35 1.2679 13.35 1.3326 0 3.0741-0.98151 3.9433-2.2225zm-366.44-4.2372v-8.4598l2.75-0.0282c1.5125-0.0155 4.325 0.0306 6.25 0.10252 1.925 0.0719 4.625 0.0786 6 0.015 9.5488-0.44201 10-0.0156 10 9.4526 0 10.606-2.7771 10.717-3.2062 0.12756-0.27179-6.7067-0.46656-7.2745-2.5988-7.5768-4.0479-0.57384-5.3481 1.5403-5.0742 8.2509 0.21248 5.2065-0.0138 6.1241-1.5845 6.4266-1.6568 0.31907-1.7809-0.21494-1.2952-5.5715 0.61277-6.7576-0.363-9.2793-3.5906-9.2793-3.6115 0-4.6503 1.9435-4.6503 8.7 0 4.9333-0.3254 6.3-1.5 6.3-1.2151 0-1.5-1.6066-1.5-8.4597zm54.415 4.9102c-5.2942-12.671-5.5033-13.45-3.6074-13.45 1.2643 0 2.3238 1.6049 3.6656 5.5524 2.5126 7.392 3.0966 7.4883 5.1875 0.85517 1.5778-5.0055 3.5569-7.5233 4.8764-6.2038 0.66578 0.66578-6.8314 16.796-7.8066 16.796-0.45789 0-1.4999-1.5973-2.3156-3.5495zm15.094 1.1494c-7.1343-7.1343 2.0168-19.694 9.8562-13.527 5.4702 4.3028 2.9302 7.8826-5.6151 7.9138-2.0625 8e-3 -3.7431 0.35115-3.7347 0.76365 0.0588 2.8794 5.2798 5.641 9.1872 4.8595 2.1047-0.42093 2.8403-0.23356 2.5497 0.64944-0.83997 2.5518-9.4985 2.0857-12.243-0.65905zm6.366-8.2249c3.4296-0.68592 4.1188-2.7935 1.375-4.2047-2.1154-1.088-4.3154-0.48817-6 1.6358-2.5032 3.1562-1.3936 3.7726 4.625 2.5688zm10.548 2.29-0.0384-8.335 23.508-0.1856 1.0138 3.1777c1.6605 5.205 0.94419 13.083-1.2276 13.501-1.6419 0.31608-1.7618-0.19986-1.2174-5.2413 0.71355-6.6082-0.51589-9.5821-3.9614-9.5821-3.3058 0-4.7411 3.0935-4.335 9.3432 0.26418 4.0661 0.0178 5.1568-1.165 5.1568-1.2006 0-1.4302-1.1532-1.1503-5.7774 0.38478-6.356-0.77434-8.7226-4.2722-8.7226-3.5362 0-4.5776 1.9791-4.5776 8.7 0 4.4249-0.37784 6.3-1.2695 6.3-0.92135 0-1.28-2.2856-1.3079-8.335zm31.552 5.8076c-6.21-6.6102 0.65174-18.242 8.6195-14.612 2.4985 1.1384 4.8418 5.5616 4.0456 7.6365-0.24814 0.64665-2.9991 1.2559-6.2681 1.3881-7.144 0.28902-7.2184 0.35839-3.9201 3.6566 2.1002 2.1002 3.3913 2.5784 6.1061 2.2614 2.3633-0.2759 3.4427 5e-3 3.4427 0.89728 0 2.5824-9.3422 1.6284-12.026-1.2281zm9.2207-9.6408c-0.9675-4.2253-7.157-3.8066-8.0193 0.54244-0.26984 1.3609 0.40129 1.5643 4 1.2123 2.9386-0.28743 4.2265-0.8497 4.0193-1.7548zm7.805 3.8472v-8.321l6.4653-0.17813c7.8302-0.21575 8.5347 0.6307 8.5347 10.254 0 5.1696-0.31897 6.5657-1.5 6.5657-1.1746 0-1.5-1.3667-1.5-6.3 0-6.6817-1.0439-8.7-4.5-8.7s-4.5 2.0183-4.5 8.7c0 4.9333-0.3254 6.3-1.5 6.3-1.2132 0-1.5-1.5912-1.5-8.321zm22.035 6.3868c-0.56935-1.0638-1.0352-4.2138-1.0352-7 0-3.8362-0.36407-5.0657-1.5-5.0657-0.825 0-1.5-0.675-1.5-1.5s0.6437-1.5 1.4304-1.5 1.5742-0.97725 1.75-2.1717c0.47108-3.2015 2.8196-3.5444 2.8196-0.41166 0 2.0889 0.47849 2.5833 2.5 2.5833 1.5556 0 2.5 0.56667 2.5 1.5 0 0.94152-0.95025 1.5-2.5523 1.5-3.6242 0-3.3643 9.8785 0.30226 11.487 3.1315 1.3738 2.8075 2.5129-0.71482 2.5129-1.9078 0-3.3339-0.68962-4-1.9343zm17.965 0.59795c0-0.91756 1.3221-1.3093 4.2191-1.25 5.5843 0.11424 6.1192-2.2063 1.1325-4.9137-7.5877-4.1196-7.0871-8.7744 1.0008-9.3048 2.7853-0.18266 4.6476 0.11786 4.6476 0.75 0 0.58013-1.8 1.0548-4 1.0548-5.2841 0-5.3176 2.2872-0.0727 4.9629 4.6941 2.3948 5.9829 5.3739 3.5079 8.1088-2.1044 2.3253-10.435 2.7979-10.435 0.59203zm17.077-0.0706c-1.9386-2.3358-2.4409-15.593-0.59081-15.593 1.091 0 1.5136 1.0818 1.5136 3.875 0 9.092 1.6628 11.75 6.5795 10.516 2.2678-0.56918 2.4205-1.0424 2.4205-7.4991 0-5.4592 0.31177-6.8916 1.5-6.8916 1.2122 0 1.4999 1.5832 1.4996 8.25l-4.1e-4 8.25-5.8754 0.25204c-4.0903 0.17546-6.2312-0.17666-7.0465-1.159zm18.305-11.128c0.0104-10.719 0.23422-12.493 1.5447-12.24 1.1526 0.22197 1.456 1.3562 1.2236 4.5743-0.30661 4.2466-0.28743 4.2737 2.5203 3.5573 6.5848-1.68 10.329 1.0823 10.329 7.6198 0 6.2966-2.9884 9.0241-9.8876 9.0241h-5.7425zm11.061 8.3129c4.1988-5.9946-0.31361-12.683-6.8615-10.17-1.645 0.63126-2.1262 5.7598-0.9515 10.143 0.825 3.0785 5.6641 3.0955 7.813 0.0275zm18.582 2.248c-5.4966-5.4966-1.7536-16.025 5.6971-16.025 2.9969 0 6.2775 3.3732 6.2775 6.4547 0 2.5369-1.3165 3.0609-9.5 3.7812l-3 0.26406 2.8235 2.8689c2.3508 2.3887 3.3971 2.7758 6.25 2.3129 2.5705-0.41713 3.4265-0.197 3.4265 0.88108 0 2.3581-9.5056 1.9315-11.975-0.53743zm8.9731-10.24c2e-3 -2.3381-2.9875-3.7418-5.7485-2.6992-4.1954 1.5842-2.9183 5.0082 1.7485 4.6882 3.0029-0.2059 3.9989-0.70114 4-1.989zm9.4537 9.5688c-3.6473-3.9355-2.4182-12.002 2.0926-13.733 2.5672-0.9851 8.4552-0.7213 8.4552 0.37882 0 0.55-1.5495 1-3.4433 1-3.6644 0-6.5567 2.7649-6.5567 6.268 0 2.9616 4.7332 7.0162 7.5597 6.4759 1.6204-0.30977 2.4403-9e-3 2.4403 0.89483 0 2.64-7.7898 1.6912-10.548-1.2847zm17.583 0.71176c-0.56935-1.0639-1.0352-4.2139-1.0352-7 0-3.8362-0.36407-5.0657-1.5-5.0657-0.825 0-1.5-0.675-1.5-1.5s0.675-1.5 1.5-1.5c0.93333 0 1.5-0.94444 1.5-2.5s0.56667-2.5 1.5-2.5 1.5 0.94444 1.5 2.5c0 2 0.5 2.5 2.5 2.5 1.5556 0 2.5 0.56667 2.5 1.5 0 0.92242-0.93706 1.5-2.4336 1.5-4.2272 0-4.1831 10.556 0.0485 11.618 3.3487 0.84048 2.9736 2.3818-0.57976 2.3818-1.9078 0-3.3339-0.68962-4-1.9343zm21.165 0.73424c-0.66-0.66-1.2-3.81-1.2-7 0-4.4889-0.33908-5.8-1.5-5.8-0.825 0-1.5-0.675-1.5-1.5s0.675-1.5 1.5-1.5c0.93333 0 1.5-0.94444 1.5-2.5s0.56667-2.5 1.5-2.5c0.92189 0 1.5 0.93672 1.5 2.4304 0 1.7591 0.62149 2.5187 2.25 2.75 2.9794 0.42314 2.4851 2.2354-0.71891 2.636-4.4977 0.56228-3.063 12.184 1.5041 12.184 1.0806 0 1.9648 0.45 1.9648 1 0 1.4066-5.3507 1.2493-6.8-0.2zm37.8-7.2597v-8.4598l2.75 0.1745c1.5125 0.096 3.9806-0.15399 5.4848-0.55548 4.6905-1.252 6.7652 1.9068 6.7652 10.3 0 5.5556-0.30952 7-1.5 7-1.1746 0-1.5-1.3667-1.5-6.3 0-6.6817-1.0439-8.7-4.5-8.7s-4.5 2.0183-4.5 8.7c0 4.9333-0.3254 6.3-1.5 6.3-1.2151 0-1.5-1.6066-1.5-8.4597zm41 3.1681c0-3.0021-0.28125-6.8646-0.625-8.5833-0.49487-2.4744-0.28667-3.125 1-3.125 0.89375 0 1.625 0.54 1.625 1.2 0 0.93333 0.26667 0.93333 1.2 0 1.6338-1.6338 7.1103-1.5918 6.5083 0.05-0.25208 0.6875-0.98281 1.1314-1.6238 0.9865-3.3098-0.74829-4.9892 1.775-5.287 7.9439-0.39201 8.119-2.7975 9.4328-2.7975 1.5279zm12.408-3.0484-0.0432-8.3401 11.151-0.0719c12.41-0.0801 23.324 14.38 12.463 16.512-1.2261 0.24073-1.5461-0.95587-1.6474-6.1601-0.14694-7.5499-0.6176-8.5999-3.8547-8.5999-3.278 0-4.7163 3.1114-4.3112 9.3261 0.27883 4.2773 0.0384 5.1974-1.4327 5.4836-1.5757 0.30647-1.6985-0.24506-1.1308-5.0759 0.74921-6.3746-0.60933-9.7338-3.9366-9.7338-3.6265 0-4.6648 1.9365-4.6648 8.7 0 4.438-0.3767 6.3-1.2745 6.3-0.92736 0-1.2863-2.2717-1.3177-8.3401zm29.631 6.4117c-2.1292-3.9784 0.90992-8.0716 5.9931-8.0716 3.341 0 5.1782-2.6205 2.8643-4.0856-0.76765-0.48607-3.0832-0.89066-5.1457-0.89908s-3.75-0.46531-3.75-1.0153c0-1.4204 10.355-1.2449 11.8 0.2 0.70648 0.70648 1.1998 4.0995 1.1996 8.25l-4.1e-4 7.05-5.9613 0.25586c-5.0314 0.21594-6.1232-0.0468-6.9996-1.6843zm8.3799-0.67859c0.86999-0.33384 1.5818-1.6838 1.5818-3 0-2.833-4.8665-3.4637-6.9894-0.90574-2.5949 3.1267 0.88601 5.6408 5.4076 3.9057zm9.5818-9.893c0-10.444 0.24667-12.5 1.5-12.5s1.5 2.0556 1.5 12.5-0.24667 12.5-1.5 12.5-1.5-2.0556-1.5-12.5zm-205.31-8.1458c-1.3738-1.3738-0.66124-3.4958 1.0625-3.1638 0.9625 0.18536 1.75 0.96836 1.75 1.74 0 1.5789-1.7643 2.472-2.8125 1.4238zm104.49-25.604-0.0577-12.25 5.8632-0.25419c5.352-0.23202 6.0525-0.014 8.0343 2.5 4.7827 6.0672-0.39362 16.104-7.6942 14.92-3.2952-0.53473-3.3251-0.50411-3.3251 3.3975 0 2.6827-0.44011 3.9371-1.3814 3.9371-1.0968 0-1.3933-2.5232-1.4391-12.25zm10.366 0.79545c5.1546-5.1546-0.56252-15.096-6.0584-10.535-2.2051 1.83-2.0118 10.584 0.26299 11.909 2.5336 1.4757 3.0734 1.3476 5.7954-1.3744zm-327.46 2.5412c-3.5852-3.5852-0.03245-9.0867 5.8679-9.0867 1.9201 0 3.0454-0.50904 3.0454-1.3776 0-2.5452-2.7865-3.8851-6.594-3.1708-2.7574 0.5173-3.5131 0.36614-3.1828-0.63665 0.67238-2.0412 9.1839-2.2651 11.156-0.29342 2.8244 2.8244 2.3046 15.495-0.62873 15.326-1.2375-0.0715-3.4485 0.19755-4.9133 0.59786-2.0183 0.55156-3.1687 0.22246-4.75-1.3588zm8.7298-4.3367c0.36294-3.1543-2.8935-3.8766-6.2878-1.3946-2.9165 2.1326-1.2668 4.8422 2.7145 4.4585 2.7154-0.26169 3.3095-0.77103 3.5733-3.0639zm30.541 5.2584c-4.8851-1.9714-6.6067-7.691-3.894-12.937 3.536-6.8379 13.537-4.8794 13.537 2.651 0 2.1169-0.42298 2.2775-6 2.2775-6.4024 0-7.2012 0.79879-4 4 1.3333 1.3333 3.3333 2 6 2 4.0412 0 5.3302 1.2756 2.4182 2.393-2.1402 0.82128-5.4663 0.6626-8.0612-0.38459zm6.643-11.308c0-3.515-4.2178-4.7178-7.1713-2.045-2.8338 2.5645-2.2105 3.345 2.6713 3.345 3.0256 0 4.5-0.42593 4.5-1.3zm16.75 11.244c-4.4267-2.6395-1.5158-8.621 4.685-9.6272 4.4062-0.71503 5.1024-1.6366 2.9001-3.8388-1.1832-1.1832-2.6712-1.5229-5.0092-1.1435-2.4755 0.40171-3.326 0.17223-3.326-0.8974 0-1.8488 9.2818-2.0098 10.788-0.18713 2.5488 3.0838 1.9109 15.644-0.78824 15.521-1.375-0.0626-3.625 0.18549-5 0.55128s-3.2875 0.19552-4.25-0.37838zm7.75-2.7094c1.9591-1.4394 1.0958-4.7211-1.3325-5.065-2.7643-0.39151-6.2605 2.4245-5.4931 4.4243 0.56586 1.4746 5.1099 1.9012 6.8256 0.64073zm37.75 2.2433c-4.4293-3.1327-0.48953-9.478 5.8849-9.478 1.8495 0 2.8651-0.51923 2.8651-1.4648 0-2.2045-3.717-3.7562-7.1772-2.9963-2.3319 0.51217-2.9536 0.34959-2.6132-0.68343 0.68535-2.0798 9.1695-2.3334 11.169-0.33389 2.8244 2.8244 2.3046 15.495-0.62873 15.326-1.2375-0.0715-3.375 0.17416-4.75 0.54587-1.6162 0.43693-3.2954 0.11328-4.75-0.91552zm8.5664-4.728c0.36294-3.1543-2.8935-3.8766-6.2878-1.3946-2.9165 2.1326-1.2668 4.8422 2.7145 4.4585 2.7154-0.26169 3.3095-0.77103 3.5733-3.0639zm11.593 5.3124c-7.7844-3.2774-3.9345-17.062 4.7653-17.062 3.7966 0 3.8257-0.03038 3.8257-4 0-2.8889 0.41667-4 1.5-4 1.2533 0 1.5 2.0543 1.5 12.489 0 12.298-0.0344 12.488-2.25 12.445-1.2375-0.0243-3.375 0.19287-4.75 0.48258s-3.4409 0.1306-4.591-0.35358zm8.3912-8.3245c0.32685-6.2722-0.65639-7.4928-5.1311-6.3697-6.6752 1.6754-5.0714 13.098 1.7456 12.433 3.0148-0.2942 3.092-0.43253 3.3854-6.0632zm11.515 8.2766c-8.5908-3.546-4.4219-17.015 5.2664-17.015 3.3212 0 3.4182-0.11347 3.4182-4 0-2.7657 0.43287-4 1.4028-4 1.122 0 1.4287 2.5008 1.5324 12.491 0.12874 12.414 0.11537 12.491-2.1528 12.359-1.2553-0.073-3.4074 0.13704-4.7824 0.46667s-3.4831 0.19354-4.6846-0.30242zm8.1846-8.5146c0-6.3348-3.0774-8.7554-6.9962-5.5032-4.5869 3.8068-1.8303 12.358 3.8078 11.812l3.1884-0.30877zm20.5 8.7826c-2.4065-0.93453-2.9684-2.4528-2.9847-8.064-0.0109-3.7616-0.44695-5.447-1.5153-5.857-0.825-0.31659-1.5-0.97746-1.5-1.4686 0-0.49115 0.675-0.89301 1.5-0.89301 0.93333 0 1.5-0.94444 1.5-2.5s0.56667-2.5 1.5-2.5 1.5 0.94444 1.5 2.5c0 2 0.5 2.5 2.5 2.5 3.3907 0 3.1859 1.7882-0.25 2.1836-4.9086 0.5648-4.0816 11.816 0.86852 11.816 1.1938 0 1.8745 0.5214 1.632 1.25-0.47634 1.4306-2.5595 1.8834-4.7505 1.0326zm18.756-1.2601c-3.1236-2.457-3.9832-6.5425-2.2495-10.692 3.687-8.8243 15.539-6.3455 15.462 3.2337-0.0637 7.8818-7.4053 12.026-13.212 7.458zm8.0218-1.5792c4.5196-3.1656 1.9866-12.443-3.3973-12.443-4.6112 0-6.2694 9.5633-2.1577 12.443 1.2224 0.85618 2.4722 1.5567 2.7775 1.5567s1.5551-0.70052 2.7775-1.5567zm31.259 1.787c-4.3934-3.5576-0.39188-9.2302 6.511-9.2302 1.4876 0 2.453-0.57651 2.453-1.4648 0-2.1575-3.8134-3.8225-7.2025-3.1447-2.1047 0.42093-2.8403 0.23356-2.5497-0.64944 0.81229-2.4676 9.4666-2.1122 11.114 0.45648 2.4687 3.8481 1.8908 14.786-0.7733 14.637-1.1489-0.0642-3.2424 0.19958-4.6522 0.58607-1.815 0.49757-3.2456 0.15016-4.9008-1.1901zm8.7804-4.4802c0.25764-2.2391-0.0797-2.75-1.8157-2.75-3.2832 0-6.0007 1.8547-6.0007 4.0956 0 3.5551 7.3991 2.2814 7.8164-1.3456zm25.638 3.7954c-5.3726-5.3726-1.7304-15.545 5.5657-15.545 4.4568 0 6.6588 1.4978 7.9489 5.4066 2.9899 9.0596-7.0567 16.597-13.515 10.139zm8.3229-1.1022c4.013-2.8108 2.4772-12.443-1.9839-12.443-5.3802 0-7.8814 7.9121-3.7936 12 2.4075 2.4075 2.9173 2.4466 5.7775 0.4433zm67.973 2.2086c-4.3926-3.4448-0.09393-9.6519 6.6843-9.6519 1.5866 0 2.5657-0.559 2.5657-1.4648 0-2.1375-3.8019-3.8248-7.1222-3.1608-2.1299 0.42598-2.8778 0.19221-2.8778-0.89943 0-2.1773 9.2881-2.0377 11.118 0.16708 2.4918 3.0024 2.0946 15.335-0.49029 15.224-1.1702-0.0502-3.4776 0.18986-5.1276 0.53347-1.8898 0.39354-3.6476 0.11686-4.75-0.74764zm9.0664-4.9019c0.25764-2.2391-0.0797-2.75-1.8157-2.75-3.2832 0-6.0007 1.8547-6.0007 4.0956 0 3.5551 7.3991 2.2814 7.8164-1.3456zm31.583 4.846c-3.4683-1.5367-4.3997-3.2393-4.3997-8.043 0-9.6722 12.78-12.124 14.612-2.8031l0.63847 3.25h-6.125c-4.4641 0-6.125 0.36473-6.125 1.345 0 2.4155 3.566 4.655 7.4121 4.655 2.5559 0 3.6236 0.39909 3.3442 1.25-0.58288 1.7756-5.7028 1.965-9.3567 0.34605zm7.6003-10.162c0-3.6307-5.2335-5.8008-7.8-3.2343-2.47 2.47-1.315 3.8 3.3 3.8 2.475 0 4.5-0.25458 4.5-0.56574zm10.515 10.2c-1.3643-0.99762-1.9872-3.0187-2.3113-7.5-0.31351-4.3342-0.84863-6.1344-1.8235-6.1344-2.0634 0-1.6638-1.6925 0.53547-2.2676 1.0534-0.27547 2.0659-1.4708 2.25-2.6562 0.4407-2.8378 2.2699-2.6935 2.3063 0.18198 0.0196 1.5526 0.72019 2.3401 2.2784 2.5614 3.0612 0.43476 2.861 2.1804-0.25 2.1804-2.2894 0-2.5 0.37212-2.5 4.4182 0 5.9576 0.77268 7.5818 3.607 7.5818 2.7051 0 3.205 1.4744 0.81122 2.393-2.2484 0.86279-2.8036 0.77689-4.9036-0.75863zm20.735-0.16141c-1.8192-1.2826-2.25-2.5388-2.25-6.5611 0-3.4994-0.44482-5.1454-1.5-5.5503-0.825-0.31659-1.5-1.2025-1.5-1.9686 0-0.76615 0.675-1.393 1.5-1.393 0.91376 0 1.5-0.93149 1.5-2.3834 0-3.589 3.7869-4.2737 4.194-0.75837 0.21284 1.8376 0.97403 2.7368 2.5007 2.954 2.7305 0.38854 1.9784 3.1877-0.85649 3.1877-3.1868 0-2.2618 9.3691 0.97023 9.8272 1.5297 0.21682 2.201 0.89154 1.9898 2-0.43022 2.2584-3.791 2.5898-6.5482 0.64576zm11.385-0.54555c-6.2649-4.928-2.0209-15.927 6.1454-15.927 8.7639 0 11.906 12.525 4.1482 16.537-3.9139 2.024-7.1924 1.8298-10.294-0.60957zm9.0079-3.5049c3.3554-5.121-1.9442-12.145-5.7054-7.5617-2.4775 3.019-2.4575 5.6191 0.0626 8.1392 2.6249 2.6249 3.6105 2.524 5.6427-0.5775zm31.357 4.2835c-8.0158-4.0544-5.0744-16.706 3.884-16.706 8.8108 0 10.244 8.4652 1.616 9.5433-3.025 0.37795-5.5 0.99533-5.5 1.372 0 1.7948 2.8017 3.0848 6.7 3.0848 2.9944 0 4.3 0.42002 4.3 1.3834 0 2.5793-6.88 3.4066-11 1.3226zm7-11.237c0-3.2206-5.6813-2.9246-6.7738 0.35282-0.25286 0.75857 0.8841 1.1786 3.1905 1.1786 2.5512 0 3.5833-0.44111 3.5833-1.5314zm-496.22 1.2814-0.28498-10.25h-3c-7.2553 0-2.8421-2.0228 4.994-2.2889 7.0445-0.23929 8.506-0.0296 8.506 1.2201 0 1.1074-0.96101 1.4504-3.6107 1.2889l-3.6107-0.2201 0.16777 10.25c0.14049 8.5841-0.0796 10.25-1.3543 10.25-1.2453 0-1.5739-1.8642-1.8071-10.25zm29.215-2.25c0-10.444 0.24667-12.5 1.5-12.5 1.2035 0 1.5 1.5226 1.5 7.703v7.703l3.7922-3.703c3.6556-3.5696 6.2078-4.7106 6.2078-2.7754 0 0.51014-1.4535 2.065-3.2299 3.4553l-3.2299 2.5278 2.5087 2.7947c6.5051 7.2466 6.5319 7.2971 3.8561 7.2733-1.652-0.0147-3.2863-1.267-5.2198-4-3.5556-5.0256-4.6852-5.0204-4.6852 0.02135 0 2.8889-0.41667 4-1.5 4-1.2533 0-1.5-2.0556-1.5-12.5zm62.426 3.9988c-0.056-6.4235 0.24919-8.4988 1.25-8.4988 0.72828 0 1.3241 0.41091 1.3241 0.91314 0 0.50458 1.3262 0.41256 2.9641-0.20568 6.32-2.3855 8.4939-0.27666 8.828 8.5635 0.24333 6.4392 0.0335 7.729-1.2576 7.729-1.2551 0-1.5007-1.1336-1.2921-5.9636 0.30577-7.0798-1.3243-9.5559-5.5864-8.4862-2.5533 0.64084-2.6561 0.93319-2.6561 7.5582 0 5.8972-0.2525 6.8914-1.75 6.8903-1.5235-1e-3 -1.7596-1.1014-1.8241-8.5zm85.574 3.1262c0-2.9562-0.29037-6.8268-0.64526-8.6013-0.55587-2.7793-0.38768-3.1767 1.214-2.8682 2.3064 0.44417 2.9697 16.843 0.68129 16.844-0.84502 3.1e-4 -1.25-1.741-1.25-5.3745zm20-3.125c0-6.8889 0.28431-8.5 1.5-8.5s1.5 1.6111 1.5 8.5-0.28431 8.5-1.5 8.5-1.5-1.6111-1.5-8.5zm29 0c0-7.7192 0.82903-10.204 2.5017-7.4973 0.41425 0.67028 1.2409 0.67028 2.4933 0 2.7668-1.4807 6.6458-1.2191 8.4336 0.56873 2.2089 2.2089 2.2701 15.429 0.07143 15.429-1.1786 0-1.5-1.385-1.5-6.4648 0-7.4309-2.0154-9.7604-6.6265-7.6595-2.1448 0.97725-2.3735 1.7098-2.3735 7.6029 0 5.1302-0.32001 6.5214-1.5 6.5214-1.2157 0-1.5-1.6111-1.5-8.5zm38-3c0-6.325-0.0238-11.838-0.0528-12.25s0.64595-0.8955 1.5-1.0733c1.3386-0.27872 1.5528 1.4115 1.5528 12.25-2e-5 10.51-0.24622 12.573-1.5 12.573-1.2464 0-1.5-1.9444-1.5-11.5zm35.389 2.9999c-0.0858-6.5579 0.19981-8.4999 1.25-8.4999 0.74864 0 1.3612 0.41091 1.3612 0.91314 0 0.50458 1.3262 0.41256 2.9641-0.20568 6.32-2.3855 8.4939-0.27666 8.828 8.5635 0.24274 6.4235 0.0316 7.729-1.25 7.729-1.2304 0-1.5421-1.3066-1.5421-6.4648 0-7.0351-1.466-9.0106-5.8383-7.8672-1.9514 0.51032-2.1617 1.2347-2.1617 7.4487 0 5.889-0.25281 6.8834-1.75 6.8832-1.5207-1.2e-4 -1.7646-1.114-1.8612-8.5zm49.611-2.9999c0-6.325-0.0238-11.838-0.0528-12.25s0.64595-0.8955 1.5-1.0733c1.3386-0.27872 1.5528 1.4115 1.5528 12.25-2e-5 10.51-0.24622 12.573-1.5 12.573-1.2464 0-1.5-1.9444-1.5-11.5zm25.986 5.25c-8e-3 -3.4375-0.285-7.2625-0.61664-8.5-0.44329-1.6541-0.17484-2.25 1.0137-2.25 0.88915 0 1.6166 0.46583 1.6166 1.0352 0 0.71358 0.60093 0.71358 1.9343 0 2.6119-1.3978 7.392-1.309 8.8657 0.16482 1.8691 1.8691 1.6159 15.8-0.28717 15.8-1.1702 0-1.387-0.98985-1.0172-4.6445 0.84438-8.3448-1.6412-11.954-6.4578-9.3757-1.7278 0.92467-2.0378 2.0741-2.0378 7.5554 0 5.0798-0.32135 6.4648-1.5 6.4648-1.1719 0-1.503-1.3672-1.5136-6.25zm92.014-6.25v-12.5h2.5821c2.5619 0 2.5795 0.0548 2.25 7.0022-0.36968 7.7956 0.10044 8.3606 3.3261 3.9978 1.352-1.8287 3.1207-3 4.5299-3 3.1337 0 2.9059 1.3224-0.759 4.4062l-3.0709 2.584 3.5709 4.3579c4.2258 5.157 4.3271 5.6519 1.1574 5.6519-1.6777 0-3.3545-1.2796-5.5-4.197-3.2279-4.3893-3.4005-4.3367-3.1112 0.947 0.15723 2.8718-0.1219 3.25-2.3987 3.25h-2.5766zm36.85 5.5c-0.0825-3.85-0.195-7.5625-0.25-8.25s0.9125-1.3938 2.15-1.5696 2.25 0.17758 2.25 0.78518c0 0.78234 0.56447 0.80264 1.9343 0.0695 6.4637-3.4592 10.066-0.22562 10.066 9.0363 0 6.7238-0.07388 6.9286-2.5 6.9286-2.3831 0-2.5-0.27483-2.5-5.8776 0-6.7824-1.5268-8.9812-4.9603-7.1437-1.8392 0.98428-2.0393 1.8273-1.6786 7.0694 0.39363 5.7202 0.31672 5.9518-1.9758 5.9518-2.2723 0-2.3924-0.33165-2.5353-7zm-186.35-2c0.33992-0.55 2.1665-1 4.059-1s3.441 0.45 3.441 1-1.8266 1-4.059 1c-2.4514 0-3.8142-0.39607-3.441-1zm-141.05-12.087c-0.87268-1.412 1.0547-3.3394 2.4667-2.4667 0.59792 0.36954 1.0871 1.3203 1.0871 2.1129 0 1.6836-2.5736 1.9399-3.5538 0.35385zm20.744-0.66287c0.18536-0.9625 0.99969-1.75 1.8096-1.75s1.6243 0.7875 1.8096 1.75c0.23646 1.2278-0.30348 1.75-1.8096 1.75s-2.0461-0.52215-1.8096-1.75zm-51.619-29.821c-1.7896-1.7896-2.141-7.4286-0.46302-7.4286 0.67553 0 0.86936-0.95242 0.49633-2.4387-0.33665-1.3413-0.16543-2.7148 0.38047-3.0522 0.61577-0.38056 0.41727-1.4914-0.52289-2.9263-3.1142-4.7529 0.2858-8.5828 7.6195-8.5828 2.155 0 3.9182-0.45 3.9182-1s0.9-1 2-1c2.3962 0 2.6483 1.5372 0.39393 2.4023-1.1158 0.42815-1.4245 1.3399-1.0112 2.9864 0.91936 3.663-2.6886 7.6113-6.9553 7.6113-2.3799 0-3.4274 0.45843-3.4274 1.5 0 1.1055 1.1544 1.5 4.3892 1.5 5.7875 0 9.1798 2.5968 8.247 6.3131-1.2279 4.8923-11.486 7.6946-15.065 4.1155zm10.846-1.7447c0.98993-0.72385 1.6323-2.1864 1.4274-3.25-0.50849-2.6403-11.128-2.9191-11.631-0.30528-0.76663 3.9808 6.2693 6.4323 10.204 3.5553zm-1.4564-15.611c1.8977-3.5459-1.0729-6.8065-5.051-5.544-2.347 0.74491-3.4097 4.1648-1.8704 6.0195 1.7177 2.0697 5.7059 1.7957 6.9214-0.47555zm-113.96 16.79c0-0.59109 1.125-1.9596 2.5-3.0412 3.2334-2.5434 3.1663-3.4829-0.9237-12.921-3.079-7.105-3.2381-7.9004-1.5804-7.9004 1.3407 0 2.3077 1.4314 3.5466 5.25 2.4715 7.6178 3.1424 7.7345 5.1521 0.896 0.99296-3.3788 2.3679-6.1438 3.0554-6.1446 1.8229-2e-3 1.5755 1.3432-1.6333 8.8839-1.5858 3.7266-3.1898 8.1709-3.5643 9.8761-0.37453 1.7052-1.2145 3.5116-1.8667 4.0142-2.0706 1.5958-4.6857 2.2024-4.6857 1.0869zm167.26-6.5794c-4.251-0.79641-6.7561-8.2176-4.6376-13.738 0.98301-2.5617 6.1337-4.7576 9.4506-4.029 10.768 2.3651 6.0448 19.802-4.813 17.767zm6.706-4.2174c3.4173-6.3852-1.6376-14.085-6.85-10.434-4.382 3.0693-2.2128 12.368 2.8852 12.368 1.873 0 3.303-0.69764 3.9648-1.9343zm151.39 3.9427c-7.7897-3.1435-6.5739-15.704 1.6958-17.52 9.5533-2.0983 13.528 13.282 4.4159 17.089-1.8725 0.78238-3.5315 1.394-3.6866 1.3591-0.15517-0.0349-1.2465-0.45255-2.4251-0.92819zm6.7206-3.6019c2.1647-2.6083 1.6533-8.3963-0.92643-10.485-5.406-4.3775-10.857 3.7702-6.5944 9.8562 1.8166 2.5936 5.626 2.9122 7.5209 0.62906zm-377.96-7.843 0.01393-11.564h5.9354c12.251 0 13.864 11.292 1.8454 12.92l-4.41 0.59739v4.4714c0 3.4103-0.40327 4.5505-1.6993 4.8047-1.521 0.29826-1.6979-0.88043-1.6854-11.23zm11.313-2.135c3.3202-3.3202 0.55487-7.4286-5-7.4286-3.3968 0-3.4286 0.0417-3.4286 4.5 0 4.9682 4.7415 6.6157 8.4286 2.9286zm7.5714 1.0714c0-10.444 0.24667-12.5 1.5-12.5s1.5 2.0556 1.5 12.5-0.24667 12.5-1.5 12.5-1.5-2.0556-1.5-12.5zm9.0383 10.572c-2.1292-3.9784 0.90992-8.0716 5.9931-8.0716 3.341 0 5.1782-2.6205 2.8643-4.0856-0.76765-0.48607-3.0832-0.89066-5.1457-0.89908s-3.75-0.46531-3.75-1.0153 2.4592-1 5.4648-1c6.6697 0 7.5354 1.1701 7.5348 10.184l-4.1e-4 6.3157-5.9613 0.25586c-5.0314 0.21594-6.1232-0.0468-6.9996-1.6843zm8.3799-0.67859c0.86999-0.33384 1.5818-1.6838 1.5818-3 0-2.833-4.8665-3.4637-6.9894-0.90574-2.5949 3.1267 0.88601 5.6408 5.4076 3.9057zm36.981 1.8298c-6.8874-4.5243-3.1572-16.223 5.1729-16.223h4.4274v-4c0-2.5344 0.458-3.9993 1.25-3.998 0.93229 1e-3 1.25 3.135 1.25 12.328v12.326l-5.5 0.14445c-3.025 0.0795-5.9951-0.18079-6.6003-0.57831zm8.0185-1.8298c2.5473-0.97749 2.2095-10.987-0.41821-12.393-1.4099-0.75456-2.5833-0.75818-3.9771-0.0123-7.4938 4.0105-3.4524 15.417 4.3953 12.405zm10.817 1.359c-1.6206-2.0034-2.0729-15.752-0.51817-15.752 0.86164 0 1.2872 1.5592 1.2963 4.75 0.0247 8.6076 1.9816 11.338 6.9864 9.75 1.7466-0.55436 2-1.513 2-7.5674 0-5.4956 0.31091-6.9326 1.5-6.9326 1.2122 0 1.4999 1.5832 1.4996 8.25l-4.1e-4 8.25-5.8754 0.25204c-3.7746 0.16192-6.2376-0.19565-6.8882-1zm17.765-7.252c0-6.8889 0.28431-8.5 1.5-8.5 0.825 0 1.5 0.54 1.5 1.2 0 0.93333 0.26667 0.93333 1.2 0 1.7386-1.7386 6.8836-1.5814 6.204 0.18949-0.29326 0.76422-1.337 1.1793-2.3195 0.92235-3.2434-0.84816-5.0845 2.3237-5.0845 8.7596 0 4.6032-0.33534 5.9286-1.5 5.9286-1.2157 0-1.5-1.6111-1.5-8.5zm13 0c0-6.8889 0.28431-8.5 1.5-8.5s1.5 1.6111 1.5 8.5-0.28431 8.5-1.5 8.5-1.5-1.6111-1.5-8.5zm8 0.17899v-8.321l6.4653-0.17813c7.8302-0.21575 8.5347 0.6307 8.5347 10.254 0 5.1696-0.31897 6.5657-1.5 6.5657-1.1746 0-1.5-1.3667-1.5-6.3 0-6.6817-1.0439-8.7-4.5-8.7s-4.5 2.0183-4.5 8.7c0 4.9333-0.3254 6.3-1.5 6.3-1.2132 0-1.5-1.5912-1.5-8.321zm46.994 7.071c-0.095-20.907 4.8153-27.427 9.5346-12.66l2.9051 9.0904 3.4563-9.0904c4.3758-11.509 8.1097-13.229 8.1097-3.7371 0 2.9443 0.28911 8.1193 0.64246 11.5 0.53991 5.1656 0.39463 6.1467-0.91023 6.1467-1.2348 0-1.6884-1.7915-2.2154-8.75-0.77983-10.296-1.0389-11.422-2.0132-8.75-7.5056 20.583-7.2486 20.408-11.622 7.9332l-3.3816-9.6457-0.67588 4.3562c-0.37173 2.3959-0.70923 6.7187-0.75 9.6062-0.0656 4.6443-3.0592 8.5324-3.0798 4zm55.083-1c-0.48031-1.2375-1.8192-4.6292-2.9752-7.537-2.4808-6.2399-2.5732-7.213-0.68529-7.213 0.83575 0 2.2026 2.3578 3.3333 5.75 1.0542 3.1625 2.2917 5.75 2.75 5.75s1.6958-2.5875 2.75-5.75c1.1307-3.3922 2.4976-5.75 3.3333-5.75 1.9132 0 1.9178-0.0188-2.2225 9.0388-3.8466 8.4151-4.8723 9.3474-6.2836 5.7112zm17.152 1.5807c-2.3652-0.95164-4.4403-6.3908-3.7803-9.9089 1.6503-8.797 14.551-9.7091 14.551-1.0288 0 2.8343-1.6241 3.607-7.5818 3.607-5.1086 0-5.5192 0.98877-1.6685 4.0177 2.0158 1.5856 3.6172 2.0221 6 1.6354 2.404-0.39011 3.2503-0.15324 3.2503 0.90968 0 1.4339-7.7436 1.9859-10.771 0.76784zm7.7659-11.546c0.0112-3.6998-6.8969-4.0888-8.2868-0.46663-0.82591 2.1523 0.0781 2.6428 4.4206 2.3986 2.8935-0.16272 3.8623-0.64684 3.8662-1.932zm6.9823 11.965c-0.0126-0.1375-0.1279-3.885-0.25627-8.3277l-0.23341-8.0777 5.915-0.16302c3.2532-0.0897 6.4785 0.30466 7.1672 0.87627 0.8672 0.71971 1.4515 0.71686 1.9003-9e-3 1.4433-2.3353 8.5172-1.2125 9.5548 1.5165 1.7552 4.6164 1.2569 14.636-0.70905 14.257-1.3925-0.26817-1.6414-1.3766-1.4364-6.3981 0.28242-6.9199-1.1587-9.0728-5.3663-8.0168-2.3838 0.59829-2.513 0.9897-2.513 7.6117 0 5.5386-0.30991 6.981-1.5 6.981-1.1765 0-1.5-1.3753-1.5-6.3776 0-7.1866-1.3761-9.2468-5.487-8.2151-2.3838 0.59829-2.513 0.9897-2.513 7.6117 0 5.4853-2.606 11.288-3.0229 6.731zm31.477-2.2046c-6.7185-6.7185 1.3046-19.209 9.0702-14.121 5.9185 3.878 4.4988 7.7434-3.0746 8.3714-4.3985 0.36476-5.4838 0.79083-5.24 2.0571 0.42584 2.2112 4.7347 4.2734 8.0398 3.8478 1.7962-0.2313 2.75 0.10606 2.75 0.97267 0 2.5248-8.7473 1.6704-11.545-1.1277zm9.0454-9.5188c0-2.6437-3.8723-4.1546-6.2964-2.4567-3.7881 2.6533-2.8298 4.59 2.0464 4.1356 2.5853-0.24095 4.25-0.89854 4.25-1.6788zm7.5 3.7257v-8.3943l6.1587-0.16973c3.3873-0.0934 6.7623 0.33119 7.5 0.94343 2.0194 1.676 1.8775 15.868-0.15871 15.868-1.1746 0-1.5-1.3667-1.5-6.3 0-6.7209-1.0413-8.7-4.5776-8.7-3.3799 0-4.4531 2.2002-4.1938 8.5978 0.19857 4.8994-0.051 5.9369-1.4951 6.215-1.5335 0.29532-1.7335-0.63462-1.7335-8.0605zm21.975 5.6826c-0.53639-1.4108-0.97525-4.5127-0.97525-6.893 0-3.1967-0.4574-4.5052-1.75-5.0063-1.6212-0.6285-1.6028-0.78668 0.25-2.15 1.1-0.80939 2.0562-1.9022 2.125-2.4286 0.0688-0.52632 0.18125-1.407 0.25-1.957 0.27006-2.1605 2.125-0.85112 2.125 1.5 0 2 0.5 2.5 2.5 2.5 1.5556 0 2.5 0.56667 2.5 1.5 0 0.94152-0.95025 1.5-2.5523 1.5-3.6242 0-3.3643 9.8785 0.30226 11.487 3.1498 1.3819 2.8011 2.5129-0.77475 2.5129-2.3267 0-3.2498-0.59194-4-2.5651zm19.025-4.3531c0-3.805-0.27314-7.63-0.60699-8.5-0.39831-1.038-0.0545-1.5818 1-1.5818 0.88385 0 1.607 0.54 1.607 1.2 0 0.93333 0.26667 0.93333 1.2 0 1.6338-1.6338 7.1103-1.5918 6.5083 0.05-0.25208 0.6875-0.98281 1.1314-1.6238 0.9865-3.516-0.79492-5.0845 1.7651-5.0845 8.2987 0 5.0798-0.32135 6.4648-1.5 6.4648-1.1888 0-1.5-1.4354-1.5-6.9182zm35.235 5.6702c-1.6206-2.0034-2.0729-15.752-0.51817-15.752 0.82291 0 1.2827 1.389 1.2827 3.875 0 9.0426 2.0728 12.189 7 10.625 1.7466-0.55436 2-1.513 2-7.5674 0-5.4956 0.31091-6.9326 1.5-6.9326 1.2122 0 1.4999 1.5832 1.4996 8.25l-4.1e-4 8.25-5.8754 0.25204c-3.7746 0.16192-6.2376-0.19565-6.8882-1zm17.207-7.0532-0.0574-8.3514 5.9662-0.16443c3.2814-0.0904 6.5697 0.3365 7.3074 0.94874 2.0194 1.676 1.8775 15.868-0.15875 15.868-1.1891 0-1.5-1.437-1.5-6.9326 0-11.712-7.6905-11.969-8.2055-0.27446-0.47739 10.84-3.2761 9.926-3.3519-1.0941zm21.371 6.5707c-5.472-6.3219-1.253-15.76 6.9078-15.454 3.1748 0.11936 3.2785-0.00234 3.2785-3.8463 0-2.8618 0.41858-3.9696 1.5-3.9696 1.252 0 1.5 2.0322 1.5 12.289v12.289l-5.8273 0.23014c-4.5282 0.17882-6.1688-0.16438-7.359-1.5394zm9.984-7.0196c0.31163-6.5421 0.036-6.904-4.7977-6.2993-3.8572 0.48251-5.4906 8.4159-2.3743 11.532 3.8136 3.8136 6.8465 1.6007 7.172-5.2329zm8.3711 6.5992c0.184-1.2937 1.1451-2.484 2.1624-2.6779 1.4177-0.27033 1.7564 0.17665 1.5 1.9796-0.184 1.2937-1.1451 2.484-2.1624 2.6779-1.4177 0.27033-1.7564-0.17665-1.5-1.9796zm-323.17-19.849c0-1.5062 0.52215-2.0461 1.75-1.8096 0.9625 0.18536 1.75 0.99969 1.75 1.8096s-0.7875 1.6243-1.75 1.8096c-1.2278 0.23646-1.75-0.30348-1.75-1.8096zm-123.11-31.38c-5.7037-2.0383-9.5416-5.2793-11.817-9.9792l-2.1033-4.3449-0.0131-159.61c-0.0111-135.22 0.20257-160.11 1.3982-162.9 1.7091-3.9855 7.1198-9.2801 10.965-10.73 4.7168-1.7783 576.81-1.4637 580.97 0.31943 3.9216 1.6827 9.2171 7.1162 10.657 10.934 2.3296 6.1792 1.3888 321.38-0.97384 326.26-2.2038 4.5524-7.6262 8.8962-13.045 10.45-5.6471 1.6196-571.48 1.224-576.03-0.40269zm518.25-1.8389 57.369-0.28151 4.1321-2.3679c2.3866-1.3676 5.1324-4.1134 6.5-6.5l2.3679-4.1321v-79l0.494-158.25c-8e-3 -105.54 8.5963-93.624-71.747-94.244-72.766-0.56177-65.058 0.0482-142.66-6e-3l-172.09 4.2e-4c-78.65 0-142.64 6e-3 -142.64 6e-3 -57.463 6e-3 -59.517 0.1557-64.961 4.7362-6.1141 5.1443-5.8951 1.8921-5.8951 87.533v160.27c0 85.924-0.23212 82.109 5.3102 87.286 5.7256 5.3478-7.3509 5.5654 237.94 5.111 162.16-0.30047 184.81 0.27318 285.88-0.16468zm-254.89-34.489c-3.1073-0.59755-5.2823-5.282-5.3617-11.548-0.41687-32.905 0.04342-46.745 1.5546-46.745 1.0412 0 1.5722-0.92414 1.58-2.75 7e-3 -1.5125 0.67619-5.225 1.4881-8.25 2.0768-7.7372 1.859-13.144-0.79615-19.77-1.2629-3.1516-3.135-8.5455-4.1603-11.987s-2.0622-6.0583-2.3043-5.8162c-0.24212 0.24212 0.50829 3.7325 1.6676 7.7564 4.1918 14.55 4.4153 22.816 0.61699 22.816-2.4745 0-2.8302-2.138-0.70874-4.2595l2.0578-2.0578-2.3912-4.7188c-1.3152-2.5953-2.9169-6.8066-3.5594-9.3583-0.64254-2.5518-1.5497-4.8753-2.0159-5.1635-1.4919-0.92202-2.2051 4.6096-1.0827 8.3968 3.6244 12.229 3.9338 40.807 0.55274 51.057-2.0676 6.2683-2.3948 8.702-1.8627 13.854 0.60088 5.8175 0.50574 6.25-1.375 6.25-3.2001 0-3.3146-1.0443-2.0226-18.455 1.0947-14.752 1.048-17.078-0.44714-22.259-0.91827-3.1823-1.7819-7.5512-1.9192-9.7086-0.78065-12.267-2.5475-2.7857-4.2198 22.643-0.98669 15.004-2.2159 28.096-2.7316 29.094-1.2798 2.4766-4.1119 0.24929-3.2272-2.538 0.33885-1.0676 0.29015-7.1575-0.10821-13.533-1.0768-17.233-4.995-7.7472-7.4102 17.939-1.4759 15.697-5.0081 19.812-14.76 17.198-5.4238-1.4542-6.6043-13.9-2.2517-23.74 1.0948-2.4749 2.4159-7.7941 2.9358-11.82 0.51994-4.0263 1.4174-9.7679 1.9943-12.759 0.57693-2.9913 0.76764-6.9383 0.42381-8.7711-0.5091-2.7137-0.16016-3.7974 1.8794-5.837 4.5862-4.5862 5.0712-7.2092 3.9289-21.25-0.79997-9.8332-0.72137-16.37 0.33967-28.249 2.0262-22.683 1.9773-23.955-0.92053-23.955-2.3487 0-9.8422-7.6365-15.602-15.899l-2.3695-3.3995 2.2182-1.7962c2.191-1.7742 2.1981-1.8655 0.57771-7.4395-2.2536-7.7521-2.2775-18.81-0.0528-24.465 0.97354-2.475 2.1326-7.65 2.5757-11.5 1.7064-14.827 7.615-24.484 14.987-24.495 2.4102-3e-3 5.1827-1.2158 9.1589-4.005 3.1363-2.2 6.2261-4 6.8662-4s-0.2189-1.6775-1.909-3.7278c-3.1082-3.7707-3.6671-6.9192-2.1784-12.271 0.38228-1.3742 0.25721-4.1389-0.27793-6.1438-0.8669-3.2478-0.68094-3.9924 1.7056-6.8286 1.4732-1.7508 2.9236-4.1611 3.2232-5.3562 1.2221-4.8753 26.455-1.8367 26.455 3.1858 0 0.58899 1.0125 1.5977 2.25 2.2415s2.3957 1.2929 2.5737 1.4422c0.62973 0.52835-2.6481 5.9886-4.7214 7.8648-1.1945 1.081-2.1024 3.1266-2.1024 4.7369 0 1.5589-0.88334 5.159-1.963 8.0004-2.3914 6.2937-2.1041 6.8553 3.5066 6.8553h4.4257l-0.61139 5.8494-0.61138 5.8494 4.3767 1.1489c2.4072 0.63191 5.9496 2.4657 7.872 4.0751l3.4953 2.9262 0.86572 18.326c0.47614 10.079 0.95498 21.026 1.0641 24.326 0.36229 10.957 0.57191 12.623 1.5154 12.04 3.741-2.3121 2.2432 39.824-1.536 43.21-1.3812 1.2375-3.1086 2.25-3.8386 2.25-1.0834 0-1.2515 5.7401-0.91485 31.25 0.42201 31.981 0.0295 37.475-4.1232 57.717-1.2294 5.9927-1.1872 6.6446 0.57498 8.8849 1.046 1.3297 1.9018 2.9108 1.9018 3.5135s1.0012 3.5115 2.225 6.464c3.1375 7.5697-2.8203 10.187-16.986 7.4633zm-10.239-121.1c0-5.6739-1.9207-7.9134-4.7332-5.5188-3.1991 2.7239-3.3234 6.459-0.26683 8.0208 4.0924 2.091 5 1.6369 5-2.502zm26-8.9911c0-0.99 0.43901-2.239 0.97558-2.7756 0.63411-0.63411 0.26523-2.1437-1.0539-4.3128-2.5106-4.1283-2.6139-3.9759-2.1287 3.1384 0.34989 5.1308 2.207 8.4546 2.207 3.95zm-8.4839-36.2-1.4575-5.5 0.50674 5.2622c0.5712 5.9318 1.6978 9.7387 2.1419 7.2378 0.14649-0.825-0.38952-3.975-1.1911-7zm-43.093-1.1311c1.4345-10.814-2.3974-17.781-6.7674-12.304-2.7308 3.4225-2.5308 9.435 0.31388 9.435 0.39974 0 1.5385 1.8 2.5306 4 2.3712 5.2583 3.1034 5.0472 3.923-1.1311zm210.19 155.93c-1.9464-6.8702-2.6437-17.1-1.3049-19.143 1.7218-2.6278 5.6963-16.643 5.6963-20.087 0-1.323 0.3375-2.5555 0.75-2.7388 7.362-3.272 9.6042-16.675 4.7508-28.4-7.605-18.372-9.4082-31.633-5.4788-40.293 2.5046-5.5196 2.481-7.136-0.17238-11.834-5.3636-9.4957-4.7061-9.4564-7.8515-0.46928-1.5495 4.4272-4.1635 10.887-5.809 14.356-1.6454 3.4685-3.247 7.0938-3.559 8.0563-0.31202 0.9625-1.4814 1.75-2.5987 1.75-2.4184 0-2.4829 0.94002-0.51106 7.4405 1.7799 5.8675 0.91 7.4566-3.2652 5.9647-2.6643-0.95204-2.7517-1.214-2.6493-7.9448 0.0582-3.8282-0.34976-7.2555-0.90663-7.6162-1.6167-1.0472 1.1606-12.038 4.9403-19.55 1.8483-3.6736 3.3605-7.2473 3.3605-7.9417s1.7711-5.2871 3.9357-10.206c2.1646-4.919 4.2412-10.572 4.6146-12.562 0.70777-3.7728 4.4252-7.5838 7.3975-7.5838 0.92293 0 2.9714-1.35 4.5522-3s3.465-3 4.1871-3c0.78904 0 1.3129-1.1845 1.3129-2.9686 0-2.3199-0.35234-2.8334-1.6124-2.3499-1.3521 0.51886-1.5007 0.11021-0.92054-2.5314 0.56265-2.5617 0.37688-3.1501-0.99456-3.1501-1.2258 0-1.4812-0.47803-0.93491-1.75 0.41335-0.9625 0.78292-2.6077 0.82128-3.656 0.18038-4.9302 5.8941-8.5995 13.259-8.515 3.785 0.0434 6.2792 0.31934 5.5424 0.61316-0.93823 0.37419-0.66232 0.87478 0.92106 1.6711 1.2433 0.62525 2.3717 2.0368 2.5076 3.1368s0.58123 3.0884 0.98968 4.4187c0.61301 1.9965 0.45276 2.3074-0.91811 1.7814-1.3347-0.51216-1.6627-5e-3 -1.6705 2.5813-5e-3 1.7702-1.0883 5.535-2.4066 8.3662l-2.3968 5.1476 4.1566 2.9534c2.2861 1.6244 5.4094 3.2579 6.9406 3.63 1.5585 0.37875 3.1529 1.6549 3.6221 2.899 2.0025 5.3102 3.0939 9.5484 3.0939 12.015 0 1.4578 1.125 5.1943 2.5 8.3034 4.3475 9.8305 1.8404 24.081-4.8481 27.557-1.1836 0.61498-2.2606 1.2034-2.3935 1.3076-0.13285 0.10419-1.1337 6.0057-2.2242 13.115-1.2326 8.0356-3.1143 15.762-4.974 20.425-3.8242 9.588-3.7792 22.628 0.0953 27.616 0.47681 0.61382 1.3325 4.8888 1.9015 9.5 1.6578 13.435 3.7038 18.884 7.0904 18.884 5.9644 0 5.5536 4.5289-0.78775 8.6839-1.2978 0.85037-2.3597 2.3462-2.3597 3.3241 0 4.3651-7.5518 2.8449-8.5573-1.7226-0.33723-1.532-1.2498-4.482-2.0279-6.5556-0.77807-2.0736-1.4147-4.9157-1.4147-6.3157s-0.52879-3.5284-1.1751-4.7298c-1.1656-2.1667-2.4726-7.1759-3.5076-13.444-0.29603-1.7926-1.015-3.5539-1.5977-3.914-0.63967-0.39534-0.83-0.0569-0.48037 0.85427 0.31849 0.82998-0.29351 3.458-1.36 5.8401-1.0665 2.3821-2.431 6.2845-3.0321 8.672s-1.4877 4.5848-1.9701 4.883c-1.2592 0.77822-1.0843 11.817 0.20766 13.109 0.59657 0.59657 0.93407 2.1491 0.75 3.45-0.39247 2.774-10.488 4.2739-11.226 1.668zm38.037-119.15c-0.352-2.9721-1.2246-5.3992-2.1217-5.9012-0.83808-0.46902-1.5698-1.6179-1.6262-2.5531s-0.54829-0.12531-1.0933 1.7997c-2.07 7.3112-0.47003 13.248 3.3043 12.261 1.9314-0.50507 2.0778-1.0393 1.5369-5.6067zm-349.03 114.63c-1.7545-0.44978-1.8352-1.192-1.1561-10.634 0.40151-5.5828 0.93589-13.063 1.1875-16.622 0.25162-3.5596 1.2366-8.2846 2.1889-10.5 1.4673-3.4137 1.7089-7.045 1.5838-23.809-0.15569-20.871-0.77781-25.351-1.9503-14.047-0.38957 3.7558-1.8824 10.429-3.3175 14.829-2.019 6.1903-2.6645 10.375-2.8536 18.5-0.1344 5.775-0.70039 15.225-1.2577 21-1.8094 18.748-2.0123 19.154-8.4977 17.014-4.1476-1.3688-3.9356 0.0962-3.6926-25.514 0.20429-21.534-1.5942-17.539-5.6275 12.5-0.68383 5.0931-0.94885 5.5241-3.5821 5.8263l-2.8436 0.3263 0.58867-8.8263c2.095-31.411 2.0951-31.388-0.18997-31.986-3.2869-0.85955-4.6307-6.2668-3.1352-12.616 0.67686-2.8736 1.531-6.5747 1.8981-8.2247 0.46709-2.0995 1.8476-3.6629 4.599-5.2084 3.3808-1.899 3.8877-2.6256 3.619-5.1872-0.58469-5.5741 2.6372-9.4554 7.0751-8.5232 1.5125 0.31772 2.7549 0.20443 2.7608-0.25177 6e-3 -0.45621 0.64243-2.9105 1.4144-5.4539 1.3069-4.306 1.2513-4.9559-0.8083-9.4388l-2.2119-4.8143-2.0926 2.9388c-1.1509 1.6163-2.134 3.2783-2.1846 3.6933-0.34471 2.827-1.5247 5.83-2.6617 6.7736-0.73569 0.61056-1.6435 2.5415-2.0174 4.291-0.37387 1.7495-1.115 3.7218-1.6469 4.3829-0.53193 0.66111-0.66412 2.1568-0.29374 3.3237 1.786 5.6272-4.0247 10.315-7.9367 6.4028-1.9599-1.9599-1.9566-2.6027 0.0373-7.2107 1.4709-3.3994 2.4287-8.6014 2.5256-13.718 0.11422-6.0265 1.103-9.3288 2.937-9.8084 1.3303-0.34787 1.9324-1.3866 1.9407-3.348 7e-3 -1.564 1.1316-4.802 2.5-7.1957 1.3684-2.3936 2.4857-5.3186 2.483-6.5-0.0165-7.1688 7.5403-17.648 12.726-17.648 0.78176 0 2.0864-0.66498 2.8991-1.4777 0.81275-0.81275 2.4057-2.1277 3.5398-2.9221 1.9338-1.3545 1.9618-1.5875 0.45084-3.7448-6.6642-9.5145 7.6199-26.8 14.698-17.787 4.2342 5.3916 4.069 15.725-0.2945 18.422-1.7041 1.0532-1.1326 2.5094 0.98485 2.5094 1.1 0 2 0.44435 2 0.98746 0 1.2607 7.4763 6.0125 9.4598 6.0125 0.82476 0 2.4055 1.7759 3.5128 3.9464 1.1073 2.1705 2.6909 4.3256 3.5192 4.7891 2.601 1.4556 11.397 16.372 13.088 22.194 1.2641 4.3528 2.8534 6.8068 7.2689 11.224 3.108 3.1091 7.3122 7.9044 9.3426 10.656l3.6916 5.0034-2.6916 0.65461c-1.4804 0.36004-4.3086 1.712-6.2851 3.0044-4.9277 3.2222-7.0082 3.3803-10.309 0.78348-2.5148-1.9781-9.5295-4.6559-10.266-3.919-0.95804 0.95804 1.2433 10.743 2.8677 12.747l1.9595 2.4173-0.56279-2.6096c-0.67314-3.1214 2.3908-6.4935 4.9928-5.495 1.3234 0.50784 1.5335 1.4442 1.0301 4.5919-0.57653 3.6054-0.38607 4.0813 2.1602 5.398 3.304 1.7086 5.7464 5.8052 4.8514 8.1375-0.34986 0.91174-0.34408 2.1302 0.0129 2.7078 0.35693 0.57754 2.3313-4.0672 4.3875-10.322 3.4007-10.344 4.02-11.487 6.8543-12.643 3.3213-1.3552 3.3888-1.5259 3.1384-7.9267-0.17615-4.5022 1.6514-6.4984 5.1194-5.5915 1.5439 0.40373 1.858 1.4761 1.858 6.3436 0 5.4322 0.20756 5.965 2.8575 7.3354 4.3767 2.2633 5.8846 15.687 2.1425 19.074-1.448 1.3104-2 3.08-2 6.4116 0 2.5309-1.8 11.74-4 20.464s-4 17.609-4 19.743c0 3.1297-0.36336 3.8807-1.8776 3.8807-3.3945 0-4.0153-2.4077-4.7254-18.325-0.47951-10.749-1.0502-15.611-1.7996-15.332-1.1749 0.43625-1.1759 0.45777-0.24316 5.4572 0.38401 2.0582 0.24506 3.0707-0.36932 2.691-0.54176-0.3348-0.98498 0.31783-0.98498 1.4503 0 1.403-0.64726 2.059-2.0314 2.059-1.1173 0-2.2904 0.675-2.607 1.5-0.34612 0.90197-1.8545 1.5-3.7834 1.5-3.735 0-6.5782 4.5274-6.5782 10.475 0 4.386-1.7028 5.4369-3.0534 1.8845-0.74867-1.9692-0.71582-4.1527 0.11456-7.6142 1.1172-4.6571 0.77455-6.9099-0.81111-5.3325-0.4125 0.41036-0.975 4.1979-1.25 8.4167-0.81899 12.564-4.63 12.073-4.2015-0.54168 0.61538-18.117-7e-3 -27.768-1.2664-19.64-0.32828 2.1187-1.4823 7.6989-2.5645 12.4-1.0822 4.7016-1.9826 10.327-2.0009 12.5-0.0353 4.188-2.6906 8.4517-5.2635 8.4517-2.7371 0-3.9689-11.309-3.7306-34.25 0.11809-11.37-0.17074-16.75-0.8993-16.75-0.59029 0-1.0688 1.0125-1.0633 2.25 0.0119 2.6824-2.6654 21.977-4.1281 29.75-0.56922 3.025-1.4303 9.1-1.9136 13.5-0.67682 6.1623-1.3484 8.3814-2.9235 9.6603-1.1246 0.91316-2.0448 2.3757-2.0448 3.25 0 1.5989-3.9523 2.0108-8.3861 0.87417zm8.7611-12.409c0.90129-4.5064 0.78558-7.4496-0.24866-6.325-1.1549 1.2558-2.1574 9.45-1.1562 9.45 0.42891 0 1.0611-1.4062 1.4048-3.125zm60.314-24.625c-0.25153-0.9625-0.45733-0.175-0.45733 1.75s0.2058 2.7125 0.45733 1.75c0.25152-0.9625 0.25152-2.5375 0-3.5zm-5.6893-15.943c0-1.9662 0.50526-5.2614 1.1228-7.3226 0.71991-2.4028 0.79846-4.7206 0.2189-6.4593l-0.9039-2.7117-1.0677 2.3433c-0.58724 1.2888-2.2238 4.8654-3.6368 7.9481l-2.5691 5.6048 2.5949 2.5949c3.1743 3.1743 4.241 2.6719 4.241-1.9975zm-89.006-8.557c-6e-3 -5.2066-0.0182-5.227-1.4609-2.4611-1.1323 2.1709-1.2062 3.3342-0.33332 5.25 1.5848 3.4783 1.8011 3.142 1.7942-2.7889zm104.01-3.868c0-1.1-0.45-1.7219-1-1.382s-1 1.518-1 2.618 0.45 1.7219 1 1.382 1-1.518 1-2.618zm130.88 60.868c-0.0652-0.6875-0.0517-1.7853 0.0299-2.4395 0.0816-0.6542-0.74554-6.3376-1.8382-12.63-1.8822-10.84-1.8581-18.681 0.05757-18.681 2.8228 0-0.66721-20.338-3.9344-22.928-1.0909-0.86468-2.2767-2.553-2.635-3.752-0.55275-1.8491-1.1722-2.0953-4.083-1.623-3.014 0.48911-3.5515 0.24071-4.4195-2.0423-0.63353-1.6663-1.9878-2.8018-3.7735-3.1639-5.9529-1.207-7.7857-2.0964-7.7951-3.7828-5e-3 -0.95579-1.4678-2.6246-3.25-3.7084-3.332-2.0263-3.6703-2.7158-2.6443-5.3895 0.83373-2.1727 7.4701 1.2622 12.03 6.2266l3.3645 3.663 5e-3 -6.6243c3e-3 -3.6434 0.69416-8.5782 1.5367-10.966s1.2745-5.5142 0.95982-6.9469c-1.9923-9.0698 8.4996-24.963 16.479-24.963 2.554 0 3.6136-2.3741 2.3367-5.2357-2.582-5.7866 3.6417-12.475 9.2362-9.9261 2.6786 1.2204 3.3522 10.434 1.1135 15.23-0.5581 1.1955 0.56228 2.2225 4.7183 4.3253 6.7837 3.4322 8.2647 5.0624 9.1821 10.107 0.54295 2.9857 2.2761 5.6498 6.8346 10.506 7.2514 7.7246 12.153 16.696 16.934 30.994 1.9309 5.775 4.6724 13.304 6.0922 16.73 3.366 8.1238 3.3343 8.2699-1.7962 8.2699-5.1806 0-6.7643 1.5092-6.3929 6.0923 0.31611 3.9014-1.3901 4.5879-11.903 4.7894-5.0961 0.0977-6.7154 0.57443-9.2799 2.7324-2.8165 2.3699-3.4798 2.5193-7.102 1.5999-3.8181-0.96914-4.0997-0.87436-6.3446 2.136-4.2993 5.765-4.8624 7.6152-4.1729 13.71 0.59354 5.2462 0.44733 5.9142-1.6097 7.355-2.6952 1.8878-7.7686 2.1018-7.936 0.33477zm-8.051-78.25c-3.2769-5.986-3.2862-5.993-3.9393-3-1.7346 7.949-1.0995 11.408 2.3587 12.845 5.2381 2.1762 5.901-1.9525 1.5806-9.8445zm-311.83-244.87v-13.37l4.6535-0.52451c10.59-1.1936 16.47 6.3241 11.883 15.193-1.7175 3.3213-3.3056 4.0715-8.6188 4.0715-3.9046 0-3.9182 0.01392-3.9182 4 0 3.3333-0.33333 4-2 4-1.9003 0-2-0.66667-2-13.37zm10.777 0.81325c4.0405-2.8301 1.9838-11.443-2.7325-11.443-2.7937 0-4.045 2.2016-4.045 7.1167 0 5.8854 2.3815 7.4057 6.7775 4.3266zm-26.777 4.6816c-3.1304-0.89532-3.5768-4.7751-0.5-4.3458 9.9588 1.3898 11.492-2.4171 3.0316-7.5274-4.9858-3.0115-6.7051-6.3553-5.3288-10.364 1.4739-4.2932 8.4108-6.3533 12.161-3.6115 2.9697 2.1715 1.1366 4.7386-2.424 3.3946-6.7299-2.5402-7.767 3.8458-1.1711 7.2108 5.5988 2.8563 6.724 4.6904 6.347 10.345-0.22626 3.3932-7.3321 6.2659-12.115 4.8979zm111.2-0.32486c-2.5389-2.5389-1.5885-26.8 1.05-26.802 2.2058-2e-3 2.2438 0.19606 1.9318 10.085-0.17528 5.5558 0.16701 11.479 0.76198 13.186 0.82483 2.3661 0.78186 3.2881-0.18176 3.8998-1.7024 1.0807-2.1604 1.0333-3.562-0.36827zm54.98-2.8851c-1.0397-2.4282-2.2216-5.4613-2.6264-6.7402-1.002-3.1652-1.8637-2.0024-3.0714 4.1444-0.9181 4.6729-5.4821 8.7195-5.4821 4.8606 0-0.91145 3.3921-18.154 4.511-22.93 1.0494-4.4791 3.1881-2.2823 5.5934 5.745 2.947 9.8354 3.1097 9.8422 6.0677 0.255 3.4924-11.319 4.7577-10.523 7.9494 5l2.6215 12.75h-2.2582c-1.9903 0-2.4059-0.78267-3.5029-6.5964-1.3633-7.2251-1.9069-7.0952-4.59 1.0964-2.3258 7.101-3.0598 7.441-5.2119 2.4149zm64.382 3.0303c-6.63-1.1642-9.5049-7.5867-6.4234-14.35 3.0152-6.6176 13.426-6.6727 16.566-0.0878 2.526 5.297 1.3892 6.4926-6.1736 6.4926-5.0693 0-6.5314 0.32791-6.5314 1.4648 0 2.0744 3.3358 3.6005 7.2032 3.2953 2.2678-0.17896 3.2968 0.17226 3.2968 1.1253 0 1.9855-3.3746 2.8611-7.9381 2.0598zm6.4381-12.245c0-3.4795-4.724-4.8331-7.4286-2.1286-2.5673 2.5673-1.8316 3.4286 2.9286 3.4286 3.0256 0 4.5-0.42593 4.5-1.3zm-197.49 9.8975c-4.9804-4.9804-2.7174-14.046 4.1588-16.66 5.081-1.9318 11.229 2.1252 11.627 7.6726l0.20747 2.8903-7.2998 0.5c-8.7998 0.60275-8.8249 4.5-0.0289 4.5 6.7667 0 5.9617 2.9059-0.91475 3.302-4.4878 0.25851-5.6046-0.0592-7.75-2.2045zm11.317-10.24c-0.54237-2.7558-3.3278-3.904-6.2457-2.5745-4.3397 1.9773-3.2797 4.2173 1.9957 4.2173 3.7064 0 4.512-0.31141 4.25-1.6428zm10.351 10.328c-6.9548-7.4031 1.7131-20.34 11.209-16.73 3.9297 1.4941 2.4004 4.282-1.9058 3.4742-2.5476-0.47794-3.7628-0.1447-5.384 1.4764-4.5565 4.5565-0.87969 11.839 5.384 10.664 2.3727-0.44512 3.4444-0.21546 3.8431 0.82353 1.3348 3.4783-9.9183 3.7281-13.147 0.29186zm18.826-5.0786c0-5.6491-0.35383-7.5288-1.5-7.9686-3.0266-1.1614-1.6651-3.6384 2-3.6384h3.5v9.5c0 8.8333-0.14035 9.5-2 9.5-1.8196 0-2-0.66667-2-7.393zm9.5245 5.4201c-3.7744-4.1706-0.56181-9.179 6.7699-10.554 5.0148-0.94079 3.1653-3.9712-1.92-3.1459-4.1224 0.66898-5.5654-1.9234-1.8557-3.3338 6.7312-2.5592 11.481 1.4934 11.481 9.7954 0 2.9388 0.43557 6.1571 0.96794 7.1518 1.4947 2.7928-12.921 2.874-15.443 0.087zm9.2755-2.2271c0.66-0.66 1.2-2.01 1.2-3 0-2.3002-5.7708-2.561-6.6384-0.3-1.4046 3.6602 2.63 6.1084 5.4384 3.3zm87.081 3.1933c-4.4304-2.5887-4.7969-11.922-0.61583-15.684 8.6138-7.7513 19.725 2.0737 14.272 12.62-2.0783 4.019-9.2631 5.6315-13.656 3.0648zm8.5474-3.5647c4.7927-4.7927-0.63536-14.266-5.5998-9.7736-3.47 3.1403-1.5381 11.345 2.6713 11.345 0.74643 0 2.0643-0.70714 2.9286-1.5714zm12.801-4.9891-4.1066-9.5605 2.557 0.3105c2.0836 0.25302 2.9403 1.3287 4.627 5.8105l2.07 5.5 2.537-5.75c2.2767-5.16 8.8114-9.4878 6.7949-4.5-8.0856 19.999-9.1484 20.601-14.479 8.1895zm38.771 0.15948v-9.401l3.75-0.11892c3.4404-0.10911 4.9846-0.0847 10.75 0.16965 1.1 0.0485 3.2148-0.25566 4.6997-0.67599 5.0262-1.4228 7.8003 2.8028 7.8003 11.882 0 7.3818-0.0542 7.5454-2.5 7.5454-2.4427 0-2.5-0.1706-2.5-7.441 0-7.7521-0.6775-9.1135-4.009-8.0562-1.7528 0.55632-1.991 1.5213-1.991 8.0646 0 7.2614-0.0576 7.4326-2.5 7.4326-2.4243 0-2.5-0.20816-2.5-6.8776 0-7.7934-1.3736-10.063-4.9361-8.1566-1.7819 0.95367-2.0639 2.0561-2.0639 8.0694 0 6.2982-0.19144 6.9648-2 6.9648-1.8582 0-2-0.66667-2-9.401zm33.825 8.3629c-2.2704-1.3247-4.1246-7.3212-3.3518-10.84 2.3107-10.52 18.527-9.7032 18.527 0.93364v2.9442h-7c-3.8899 0-7 0.43406-7 0.97695 0 2.001 4.8642 4.2118 7.8326 3.5598 2.7882-0.61238 5.0343 1.263 3.4319 2.8655-0.96641 0.96641-10.614 0.6249-12.439-0.44035zm10.58-10.879c1.5964-0.14698-2.65-4.0833-4.405-4.0833-1.9295 0-5.3276 3.3391-4.3712 4.2954 0.34822 0.34822 2.2617 0.46169 4.2522 0.25216 1.9905-0.20952 4.0263-0.41845 4.524-0.46427zm8.595 2.4173v-9.4994l3.25-0.027c1.7875-0.0148 4.7185-0.0794 6.5134-0.14344 5.4782-0.19545 7.0422 2.1801 7.4132 11.26 0.31204 7.6366 0.24456 7.9137-1.9266 7.9114-2.0858-2e-3 -2.25-0.44506-2.25-6.0681 0-6.7919-1.2131-9.9343-3.8352-9.9343-3.1721 0-4.1648 2.1929-4.1648 9.2 0 6.5867-0.0784 6.8-2.5 6.8-2.4912 0-2.5-0.0334-2.5-9.4994zm24.2 8.2994c-0.66-0.66-1.2-3.8161-1.2-7.0136s-0.5625-6.7663-1.25-7.9306c-1-1.6937-1-2.2076 0-2.5698 0.6875-0.24897 1.25-1.2993 1.25-2.3342 0-3.341 3.8066-4.4702 4.1836-1.241 0.22331 1.9128 1.0301 2.877 2.7422 3.2772 3.47 0.81123 3.71 2.8084 0.38343 3.1898-2.5957 0.29765-2.8327 0.68921-3.1172 5.1498-0.34107 5.3466 1.1445 8.0791 3.9881 7.3354 1.2898-0.33729 1.8199 0.0793 1.8199 1.4305 0 2.2435-6.7232 2.7832-8.8 0.70638zm-192.2-9.3c0-2.2963 0.36667-2.5 4.5-2.5s4.5 0.2037 4.5 2.5-0.36667 2.5-4.5 2.5-4.5-0.2037-4.5-2.5zm-51-13.441c0-2.6927 1.8917-3.5959 3.7143-1.7733s0.91938 3.7143-1.7733 3.7143c-1.2546 0-1.941-0.68634-1.941-1.941zm-108.98 771.69c0.0089-3.4375 0.02247-191.88 0.0302-418.75l0.014074-412.5-10.56-0.58491 0.20451 417.29c0.11248 229.51 0.22498 418.08 0.25 419.04 0.0371 1.4273 0.96758 1.75 5.0455 1.75h5zm642.95-412.75 0.027-419h-10.992v838h10.938zm-84.202-328.14c31.243-5.9522 51.894-42.666 41.824-74.356-19.388-61.013-109.88-49.431-113.28 14.5-2.0984 39.406 31.422 67.483 71.459 59.856zm-24.401-5.2872c-34.848-7.9317-51.756-48.526-32.546-78.14 27.953-43.094 94.184-23.705 94.184 27.572 0 33.538-29.637 57.852-61.638 50.568zm31.919-7.3448c38.189-18.923 34.786-74.324-5.403-87.974-14.846-5.0421-23.93-4.1974-40.383 3.7555-8.2194 3.9729-19.508 18.554-21.023 27.155-0.30731 1.7443-0.83911 3.6252-1.1818 4.1796-2.1499 3.4786-0.75772 20.412 2.2329 27.16 0.73126 1.65 2.0517 4.6089 2.9344 6.5753 9.1897 20.473 40.742 30.09 62.824 19.148zm-26.976-8.328c-6.3638-1.8408-27.166-35.463-23.938-38.691 2.6941-2.6941 6.3457-0.65341 10.38 5.8011 7.0043 11.205 10.857 5.6868 7.3336-10.506-0.47866-2.2-1.1573-6.7446-1.5081-10.099-1.1865-11.345 5.2244-14.181 6.9145-3.0588 3.0846 20.299 5.1144 22.872 5.0562 6.4078-0.05-14.123 0.64815-17.75 3.4167-17.75 3.0681 0 3.5108 1.7268 4.04 15.759 0.61857 16.403 2.1302 17.245 3.5576 1.9818 1.3099-14.007 2.2032-15.837 5.9176-12.123 1.3958 1.3958 1.5329 3.4568 0.99794 15-0.78518 16.943-0.0682 16.956 7.5534 0.13192 2.5299-5.5845 5.4438-6.438 6.4433-1.8873 0.6213 2.8287 0.07 4.562-4.9733 15.637-2.4487 5.3774-4.4504 13.457-4.3358 17.5 0.36762 12.973-11.886 20.225-26.855 15.896zm-423.43-60.001c4.3976-1.533 5.0214-3.2312 5.252-14.298 0.11097-5.324 0.57848-9.9129 1.0389-10.197 2.1859-1.351 0.3669-2.3994-4.1628-2.3994-4.6574 0-6.3417 1.0527-4 2.5 1.3198 0.81568 1.2912 15.087-0.0352 17.566-1.3018 2.4324-7.1293 2.627-9.441 0.31521-0.89048-0.89047-1.7315-1.453-1.869-1.25-2.2346 3.3001-3.1306 7.9828-1.4049 7.3425 0.6875-0.25509 2.6-0.0547 4.25 0.44543 4.1741 1.2651 6.6906 1.2593 10.372-0.024zm-79.621-1.6448c-0.45094-0.9625-0.80427-4-0.78518-6.75l0.0347-5h18v5.5c0 3.025-0.3926 6.0625-0.87244 6.75-0.66738 0.95619 0.47789 1.25 4.8724 1.25 4.9301 0 5.5726-0.20761 4.53-1.4638-0.8688-1.0468-1.1173-5.676-0.87244-16.25l0.34244-14.786-8.0129 0.66264 6e-3 5.6687c7e-3 6.6036 0.67008 6.1687-9.397 6.1687h-7.9035l-0.34652-5.0508c-0.19058-2.7779 0.0346-5.4316 0.50044-5.897 0.46582-0.46538-1.3342-1.005-4-1.1992l-4.8465-0.35305v32.498l4.7852 8.4e-4c4.2031 7.4e-4 4.6855-0.21202 3.9653-1.7492zm38.889 0.41796c-2.0894-2.5175 0.83802-4.6842 6.4988-4.81 6.226-0.1384 7.6913 0.63806 7.0947 3.7593-0.43418 2.2713-0.20403 2.3828 4.9184 2.3828h5.3739l-2.4086-3.8155c-4.7792-7.5708-10.578-20.121-9.9965-21.637 0.48939-1.2753-0.32431-1.548-4.62-1.548-4.2644 0-5.1073 0.27805-4.6281 1.5268 0.32313 0.84206-2.0738 6.8964-5.3447 13.5l-5.9306 11.973h5.0742c4.1126 0 4.8647-0.25242 3.9687-1.332zm3.592-9.2699c-0.33105-0.33104 0.13574-2.1487 1.0373-4.0393l1.6392-3.4374 1.7541 3.2894c0.96476 1.8091 1.773 3.6268 1.796 4.0393 0.0497 0.88965-5.3565 1.0182-6.2266 0.1481zm57.469 9.4019c-2.7449-2.7449-1.4837-9.8 1.752-9.8 3.1361 0 9.8599 7.8773 8.5428 10.008-0.37715 0.61023 1.5341 0.9916 4.9694 0.9916h5.5823l-4.0252-5.0923c-3.9181-4.9567-4.3471-6.9077-1.519-6.9077 1.9629 0 4.4977-3.9722 4.4977-7.0482 0-5.4989-3.6437-7.182-16.715-7.7211l-11.785-0.48607v27.253l4.95 1e-3c3.85 8.8e-4 4.6833-0.26554 3.75-1.1989zm-1.2-17.3c0-2.5618 0.0771-2.588 6.75-2.2957 5.9848 0.26217 6.75 0.52242 6.75 2.2957s-0.76523 2.0335-6.75 2.2957c-6.6729 0.29231-6.75 0.26608-6.75-2.2957zm-132.07-0.028c2.0296-5.7779 6.1356-12.711 9.9423-16.788l2.6294-2.8161-11.299-11.022c-13.793-13.455-14.196-13.459-14.217-0.12697-0.008695 5.3798-0.064808 14.956-0.1247 21.281-0.15787 16.673-0.74763 15.148 5.7216 14.8l5.5811-0.2999zm639.89-17.891c-0.38434-28.439 0.58399-27.471-13.448-13.439l-11.554 11.554 2.6194 2.8264c3.329 3.5921 7.9614 11.802 9.5788 16.977 1.7683 5.6577 1.5501 5.5 7.6131 5.5h5.5075zm-309.88-11.081 15.106-7.5h19.766l0.34652-5.0838c0.44061-6.4644 1.8651-5.9162-15.371-5.9162h-14.884l-1.4755 3.75c-3.8954 9.9005-9.1431 14.314-17.882 15.038-10.78 0.894-19.673-5.6502-22.88-16.838-0.3773-1.3163-2.76-1.5424-15.802-1.5l-15.358 0.049984v10l23 1 14 7.1976c16.997 8.7383 13.39 8.761 31.434-0.19762zm4.3989-5.1667c0.36667-0.36667 0.96667-0.36667 1.3333 0 0.36666 0.36667 0.06666 0.66667-0.66667 0.66667s-1.0333-0.3-0.66667-0.66667zm-314.1 7.6657c2.8987-2.2005 8.3078-5.1966 12.02-6.658l6.75-2.6571v-5.323c0-6.7778 0.69758-6.6032-24.722-6.1877-26.384 0.43135-25.99 0.015461-12.404 13.096 5.8442 5.6268 10.776 10.568 10.959 10.981 0.62619 1.4089 2.1272 0.74918 7.3964-3.2509zm613.71-19.466c-0.64917-0.65021-9.4456-1.0331-23.733-1.0331h-22.702v10.638l5.0131 1.6971c5.531 1.8724 12.371 5.7196 16.987 9.5543l3 2.4923 11.233-11.158c7.7226-7.6708 10.911-11.481 10.202-12.191zm-313.64 12.846c5.0961-2.5806 10.7-9.3052 10.7-12.84 0-0.29691-7.875-0.53984-17.5-0.53984-18.515 0-18.582 0.02006-16.095 4.7997 4.3365 8.3346 15.28 12.436 22.895 8.5798zm-72.181-3.3592 9.6186-0.020208-0.1186-5.25-0.11861-5.25h-215l-0.1 3.4656c-0.22166 7.6819-5.4698 6.9872 54.964 7.2758 29.775 0.14221 73.711 0.15515 97.636 0.02876 23.925-0.12639 47.828-0.23889 53.119-0.25zm-100.12-1.5202c0-0.275 0.225-0.5 0.5-0.5s0.5 0.225 0.5 0.5-0.225 0.5-0.5 0.5-0.5-0.225-0.5-0.5zm20 0c0-0.275 0.225-0.5 0.5-0.5s0.5 0.225 0.5 0.5-0.225 0.5-0.5 0.5-0.5-0.225-0.5-0.5zm2.3333-0.16667c0.36667-0.36667 0.96667-0.36667 1.3333 0 0.36666 0.36667 0.06666 0.66667-0.66667 0.66667s-1.0333-0.3-0.66667-0.66667zm368.92 1.6872 44.75-0.020515v-10.916l-106.25 0.03715c-121.59 0.04251-109.35-0.6152-108.9 5.8549l0.34578 5.0017c56.686 0.70302 113.37 0.09012 170.06 0.0423z"/>
</svg>
