<?xml version="1.0" encoding="UTF-8"?>
<!-- Created with Inkscape (http://www.inkscape.org/) -->
<svg width="822" height="1122" version="1.1" viewBox="0 0 822 1122" xml:space="preserve" xmlns="http://www.w3.org/2000/svg"><path d="m89 1e3c-4.5-1.3-6.7-2.9-8.9-6.5l-2.2-3.5 0.053-461c0.029-254 0.072-465 0.096-469 0.042-7.1 0.16-7.4 4-12l3.9-4.2 320-0.26c237-0.19 321 0.035 323 0.87 1.5 0.62 4.1 2.7 5.7 4.5l3 3.4-2e-3 469c-2e-3 460-0.037 469-1.9 472-1.1 1.7-3.4 4-5.2 5.1-3.5 2.1-634 3.6-641 1.5zm44-8.3c0-4.6-0.35-5.9-1.8-6.4-5.7-1.9-13-6-18-9.5l-5.4-4-11 11c-15 15-16 14 16 14h21zm219 0.45 0.3-5.2-4.3-0.017c-2.4-0.01-51-0.012-108-0.01l-104 0.012-0.32 3.1c-0.18 1.7-0.085 4.1 0.21 5.3l0.53 2.1 215-0.15zm36 1.1c6-20 35-20 40 1 0.47 1.9 1.3 2.8 2.9 2.8 3.9 0.12 13 0.13 21 0.03l7.7-0.096 0.69-10h-19l-33-16-30 15h-22l-0.31 4.4c-0.51 7-1 6.8 16 6.6l15-0.2zm290-0.96-1e-5 -5.2-42-0.27c-23-0.15-71-0.15-108-6e-4l-66 0.27v4.9c0 6.2-13 5.5 110 5.5h105zm50 4.1c1.6-0.92 0.38-2.5-10-13l-12-12-2.5 2.3c-4.5 4.1-12 8.6-18 10l-5.3 1.7v5.2c0 4.7 0.24 5.3 2.2 5.6 5.8 0.83 43 0.18 45-0.77zm-304-1.7c-5-16-25-18-33-3.7-3.1 6-3.2 5.9 16 5.9h18zm309-3c1.7-4.3 0.77-47-0.97-47-0.99-0.021-3.4-0.28-5.5-0.57-3.5-0.51-3.7-0.38-4.9 3.3-2 6-5.9 13-9.6 18l-3.4 4.1 11 11c12 12 12 12 13 11zm-648-1.5c1-0.96 6.2-6 11-11l9.6-9.3-3.9-5.2c-4.2-5.6-8.4-14-9.4-18-0.6-2.5-1-2.7-6.1-2.7h-5.5l-0.029 10c-0.016 5.6-0.092 15-0.17 22-0.18 15 0.55 18 4 14zm307-15c8.3-4.1 15-7.5 16-7.5s7.3 3.4 16 7.5l15 7.5h245l8.3-4.2c11-5.4 19-14 25-25l3.8-7.7 0.51-804h-23l-1.2 6.7c-11 65-111 63-121-2.2l-0.68-4.5h-480l-0.016 74c-0.0088 41-0.015 221-0.014 400l0.0023 327 2.1 5.6c4.9 13 14 23 27 30l7.9 4h245zm-301-41c0.0089-3.4 0.022-192 0.03-419l0.014-412-11-0.58 0.2 417c0.11 230 0.22 418 0.25 419 0.037 1.4 0.97 1.8 5 1.8h5zm643-413 0.027-419h-11v838h11zm-84-328c31-6 52-43 42-74-19-61-110-49-113 14-2.1 39 31 67 71 60zm-57-83c28-43 94-24 94 28 0 34-31 54-58 50-30-2.9-58-37-36-78zm65 71c38-19 35-74-5.4-88-15-5-24-4.2-40 3.8-8.2 4-20 19-21 27-0.31 1.7-0.84 3.6-1.2 4.2-2.1 3.5-0.76 20 2.2 27 0.73 1.6 2.1 4.6 2.9 6.6 9.2 20 41 30 63 19zm-563-87c2-5.8 6.1-13 9.9-17l2.6-2.8-11-11c-14-13-14-13-14-0.13-0.0087 5.4-0.065 15-0.12 21-0.16 17-0.75 15 5.7 15l5.6-0.3zm640-18c-0.38-28 0.58-27-13-13l-12 12 2.6 2.8c3.3 3.6 8 12 9.6 17 1.8 5.7 1.6 5.5 7.6 5.5h5.5zm-310-11 15-7.5h20l0.35-5.1c0.44-6.5 1.9-5.9-15-5.9h-15l-1.5 3.8c-3.9 9.9-9.1 14-18 15-11 0.89-20-5.7-23-17-0.38-1.3-2.8-1.5-16-1.5l-15 0.05v10l23 1 14 7.2c17 8.7 13 8.8 31-0.2zm-310 2.5c2.9-2.2 8.3-5.2 12-6.7l6.8-2.7v-5.3c0-6.8 0.7-6.6-25-6.2-26 0.43-26 0.015-12 13 5.8 5.6 11 11 11 11 0.63 1.4 2.1 0.75 7.4-3.3zm614-19c-0.65-0.65-9.4-1-24-1h-23v11l5 1.7c5.5 1.9 12 5.7 17 9.6l3 2.5 11-11c7.7-7.7 11-11 10-12zm-314 13c5.1-2.6 11-9.3 11-13 0-0.3-7.9-0.54-18-0.54-19 0-19 0.02-16 4.8 4.3 8.3 15 12 23 8.6zm-62-3.4-0.24-10h-215l-0.1 3.5c-0.22 7.7-5.5 7 55 7.3 30 0.14 74 0.16 98 0.029s48-0.24 53-0.25zm281 0.02 45-0.021v-11l-106 0.037c-122 0.043-109-0.62-109 5.9l0.35 5c57 0.7 113 0.09 170 0.042zm0.6 114c-6-1-9.1-2.2-12-7-2.9-4.3-4.5-11-13-22-2-2.9-3.3-6.3-4-6.8-1.8-1.4-0.4-4.2 2.1-4.2 2.3 0 6.2 3.7 8.3 7.9 0.79 1.5 2.5 3.8 3.7 4.9 2.1 1.9 2.4 2 3.6 0.63 1.7-2 1.4-16-0.5-29-0.81-5.3 0.026-8.3 2.4-8.3 2 0 3 2.8 4.7 14 1.6 10 1.9 11 3.4 11 1.1 0 1.3-2.2 1.2-12-0.12-13 0.41-17 2.6-17 2.8-1.1 3.4 1.3 3.7 15 0.19 7.6 0.68 14 1.1 15 1.6 1.6 3-2.3 3.4-9.7 0.84-14 1.3-16 3.3-16 2 0 4 3.9 3.3 6.4-0.39 1.3-0.85 18-0.59 22 0.15 2.3 1.6 1.1 3.9-3.3 1.3-2.4 2.7-4.7 3.1-5 0.43-0.31 0.68-0.73 0.56-0.93-0.12-0.2 0.35-1.9 1-3.9 0.94-2.6 1.8-3.5 3.3-3.5 3.9 0 3.2 5-2.4 17-3.1 6.6-3.8 9.4-4.6 17-1.2 11-3.6 14-13 17-3.2 1-4.3 1.1-8.6 0.37zm-497-59-0.34-7.5 6 0.013c8.4 0.018 10 0.7 9.8 3.1-0.29 1.1-0.26 4.2 0.054 6.9l0.58 4.9h6.8l0.13-17c0.12-15-3e-3 -17-1.5-17-0.9 0-1.9-0.3-2.3-0.66s-1.8-0.8-3.1-0.98c-2-0.27-2.3-0.049-1.7 1.4 0.4 0.92 0.92 4.1 1.2 7l0.45 5.3-7.4 0.33c-4.1 0.18-7.6 0.18-7.9-2e-3 -0.26-0.18-0.47-3-0.46-6.2 7e-3 -5.6-0.13-5.9-2.3-6.4-1.3-0.25-3.4-0.76-4.6-1.1-2-0.62-2.2-0.47-1.5 1.5 0.38 1.2 0.64 6.4 0.58 12-0.062 5.2 0.14 12 0.45 16l0.56 6.3h6.9zm33 4.4c0.26-2.7 0.69-3.1 3.6-3.5 5.9-0.9 8.8 0.14 9.7 3.5 0.75 2.6 1.3 3 3.9 3 3.6 0 4.4-0.64 3.3-2.7-3.5-6.3-10-22-9.7-23 0.31-0.8-0.33-1.6-1.7-2-1.2-0.38-2.2-0.52-2.3-0.32-0.05 0.2-0.78-0.2-1.6-0.9-2.4-2-4.2-0.74-3.7 2.6 0.29 2-0.5 4.8-2.5 8.9-1.6 3.3-2.9 6.6-2.9 7.3 0 0.7-0.37 1.7-0.83 2.2-0.45 0.49-1.1 2.5-1.5 4.4-0.63 3.5-0.62 3.5 2.6 3.5 3 0 3.3-0.25 3.6-3zm4.5-10c0-3.9 2.2-6 3.1-2.9 0.26 0.9 0.78 2.4 1.1 3.3 0.55 1.3 0.22 1.6-1.8 1.4-1.6-0.13-2.4-0.75-2.4-1.8zm26 7.6-0.32-5.6h2.7c2.2 0 3.2 0.8 5.3 4.2 1.4 2.3 2.6 4.6 2.6 5 0 1 6.3 2.2 7.5 1.5 0.51-0.31-0.53-2.7-2.4-5.4-3.8-5.7-3.9-5.9-1.3-6.8 2.8-0.87 4.6-5.6 3.6-9.2-1.4-4.8-4.7-7.3-9.4-7.2-9.3 0.38-13 0.31-14-0.27-1.5-1.5-3.2-0.56-2.6 1.4 0.55 1.7 0.84 7.2 1.3 24 0.087 3.4 0.18 3.5 3.6 3.5l3.5 2e-3zm-0.15-15c0-2.2 0.22-2.3 5.4-2 4.7 0.27 5.4 0.57 5.7 2.3 0.27 1.9-0.1 2-5.4 2-5.4-0.038-5.7-0.16-5.7-2.3zm25 20c1.4-0.37 2.1-1.3 2.1-2.7 0-3.1 1.8-4 7-3.9 4.4 0.14 4.8 0.33 6.4 3.6 1.7 3.4 3.4 4.2 6.6 3 1.1-0.43 0.28-2.9-4.2-12-3.1-6.6-5.4-12-5.1-13 0.39-1.2-0.34-1.9-3.1-2.7-6-1.8-6.7-1.5-5.7 1.8 0.85 3 0.22 4.9-5.7 17-1.6 3.3-2.3 6.8-2 9.1 0.12 0.84 0.82 0.86 3.6 0.11zm6.4-12c0.35-0.81 0.84-2.4 1.1-3.6 0.64-2.9 1.8-2.6 3 0.84 1.4 4.1 1.4 4.2-1.8 4.2-2.2 0-2.7-0.32-2.2-1.5zm37 11c6.1 0 6.1-9 2-14-1.9-2.1-3.5-3-5.6-3-1.6 0-3-0.31-3-0.68s-1.4-0.62-3.1-0.54c-4.4 0.2-4.1-2.4 0.38-3.5 2.7-0.67 4.2-0.47 7.1 0.98l3.7 1.8 1.5-2.5c1.3-2.3 1.3-2.6-0.091-3.1-0.85-0.3-2.9-1.4-4.5-2.4-2-1.2-4.2-1.7-6.6-1.5-4.6 0.42-7.8 1.4-7.8 2.5 0 0.45-0.59 0.82-1.3 0.82-2.1 0-2.7 5.9-0.94 9.6 1.8 3.8 4.6 5.3 9.7 5.3 4.8 0 6.6 0.77 6.6 2.8 0 3.5-11 3.4-14-0.12-2.5-2.7-3.3-2.1-3 2.2 0.27 3.7 0.51 4 4 5.1 5.4 1.6 11-0.29 15-0.29zm25-0.32c0-4.6 5.3-5.8 4-9.8-1.6-4.8-3.9-6.2-11-6.7-6.7-0.53-8.4-1.6-5.6-3.6 2.4-1.8 7.9-1.6 11 0.44 2.8 1.7 2.8 1.7 4-0.65 1-2 1-2.5-0.18-3.1-0.77-0.43-2-1.3-2.6-2-2-1.9-7.9-2.5-12-1.1-2.7 0.93-3.9 0.99-4.7 0.23-0.77-0.77-1.1-0.74-1.2 0.079-0.15 1.5-0.37 2.2-1.3 4.2-1.2 2.6 0.18 8.4 2.4 10 1.1 0.88 3.3 1.8 5 2.1 9.9 1.5 10 1.5 10 3.4 0 1-0.18 1.8-0.39 1.8s-1.1 0.28-2 0.63c-1.2 0.47-1.4 0.31-0.84-0.7 0.68-1.1 0.57-1.1-0.75-0.076-1.8 1.4-6.6 0.73-9.6-1.4-1-0.7-2.2-1.3-2.6-1.3-0.63 0-1.1 6.5-0.5 6.5 0.13 8e-3 1.9 0.62 4 1.4 5.3 1.9 14 3.8 14-0.44zm33-1.1c2.6-1.9 2.6-1.9 5.1 0.08 2.9 2.3 6.5 2.5 7.3 0.46 0.98-2.5-0.41-5.9-2.6-6.2-2.7-0.38-2.8-4.3-0.15-5.8 1-0.57 2.2-1.5 2.6-2 1.3-1.8 0.7-5.8-1.2-7.5-1-0.93-1.9-1.2-1.9-0.66 0 0.57-1.1 2.2-2.3 3.5s-2.3 3.1-2.3 3.9c0 1.1-0.26 1.2-1.4 0.22-1.5-1.2-1.9-4.7-0.59-4.7 0.45 0 1.1-1.3 1.4-2.9 0.86-4.3-1.5-8.9-5.2-11-5.2-2.2-12 0.1-14 3.5-1.2 2.5-1.2 3.3 0.14 6.9 1.5 4.1 1.5 4.2-0.55 5.6-1.1 0.79-2.4 1.3-2.7 1.2-0.37-0.12-0.45 0.37-0.17 1.1 0.28 0.71 0.086 1.5-0.42 1.9-1.1 0.69-0.41 5.7 1.3 9 1.1 2.2 3.3 3.7 7 5 2.3 0.82 7.8-0.4 11-2.4zm-11-5.9c-3.5-3.5-1-8 4.3-8 5.3 0 7.9 7.6 3.2 9.4-3.6 1.4-5 1.1-7.5-1.4zm2-15c-1.1-3.5 1.3-5.9 5.3-5 2.1 0.45 3.1 3.7 1.7 5.4-1.7 2-6.3 1.7-7-0.38zm48 22c-0.3-0.78 0.14-3.4 0.99-5.8 0.84-2.4 2.5-7.1 3.6-10l2.1-6 3.5 11c1.9 6 3.2 11 2.9 12-0.39 0.63 0.96 0.98 3.8 0.98 3.4 0 4.3-0.3 3.9-1.3-0.57-1.5 8.1-28 9.8-30 1.2-1.5 1.3-1.4-2.8-2.8-4.2-1.5-5.8-0.68-5.8 2.9-0.012 2.9-3.8 16-4.9 17-1 1-6.2-17-5.2-18 0.61-0.77-0.51-1.4-3.9-2.1-6.6-1.4-6.6-1.4-6.5 2 0.11 3.4-1.1 8.6-2.8 12-0.6 1.1-1.1 2.9-1.1 3.9s-0.39 2.1-0.88 2.4c-0.85 0.52-5.7-14-5.7-17 0-2-3.5-5.5-4.3-4.2-0.33 0.53-1.3 0.71-2.1 0.4-2.4-0.93-3 1.5-1.2 5 2.5 5 9.6 28 9 29-0.36 0.58 1.1 0.94 3.8 0.94 3.5 0 4.3-0.27 3.8-1.4zm38-12c0-14-0.47-16-5-15-2 0.15-2 0.48-2 14v14l7 0.0017zm17 2-0.29-11 4.3 0.34c3.9 0.31 4.3 0.14 4.4-1.8 0.078-1.2 0.18-2.6 0.23-3.2 0.068-0.8-2.6-1.1-9.7-0.95-6.9 0.11-10-0.18-11-0.99-0.55-0.87-0.74-0.83-0.75 0.16-0.012 1.1-0.33 1-1.7-0.17-1.5-1.4-1.6-1.2-1.3 2.9l0.31 4.4 8.6-0.11-0.21 22 7 4e-3zm17 5.5-0.21-5.8 13-0.56-0.63 12 6.6-4e-3 -0.12-13c-0.12-14-0.57-16-2.7-15-0.66 0.25-1.7-0.014-2.3-0.59-1.2-1.2-1.2-1.2-1.4 6.7l-0.14 5.1-5.9 0.067c-6.5 0.073-7.4-0.83-6.4-6.3 0.69-3.8-0.035-4.8-3.3-4.7l-2.9 0.086-0.12 14-0.12 14 7 9.6e-4zm44 4c3.5-2.3 5-6 5-12 0-6.1-2.1-12-4.3-12-0.54-0.0032-1.5-0.47-2-1-1-1-19-1.8-19-0.84-0.022 0.26-0.13 6.7-0.23 14l-0.2 14 9.4-0.37c5.8-0.23 10-0.87 11-1.7zm-14-12 0.27-8.2 3.8-0.24c2.1-0.13 4.8 0.29 6 0.93 4.3 2.2 4.7 10 0.74 14-5.9 2-5.6 1.3-9.6 1.8-1.2 0.17-1.4-1.3-1.2-8.2zm29 8.2-0.32-5.6h2.9c2.4 0 3.3 0.68 5.3 4 1.3 2.2 2.4 4.7 2.4 5.6 0 1.3 1.2 1.6 9 1.6 5.5 0 8.8-0.35 8.4-0.89-0.3-0.49-0.28-2 0.046-3.3 0.56-2.2 0.96-2.4 6.6-2.4 5.6 0 6 0.16 6.6 2.3 0.32 1.3 0.3 2.7-0.038 3.3-0.4 0.64 1 0.99 4.1 0.99 4.2 0 4.7-0.18 3.9-1.6-2.9-5.3-11-24-10-24 0.26-0.42-0.14-1.6-0.89-2.6-1.1-1.5-1.5-1.6-2.2-0.55-0.44 0.71-1.5 1.1-2.2 0.75-1.6-0.61-3.9 1.6-3.1 2.9 0.29 0.47-0.25 2.5-1.2 4.5-0.95 2-3.2 7.3-4.9 12-1.8 4.5-3.7 8.2-4.3 8.2-0.63 0.012-1.9-1.1-2.7-2.5-0.86-1.4-2.3-3.7-3.3-5-1.7-2.5-1.7-2.5 0.65-4 3-1.9 4.4-5.7 3.7-9.6-0.87-4.6-3.4-5.6-15-6.1l-9.9-0.38 0.36 13c0.25 9.2 0.03 13-0.79 14-0.97 1.2-0.54 1.4 3 1.4l4.1 2e-3zm31-6c0-0.86 2.9-7.1 3.3-7.1s3.3 6.2 3.3 7.1c0 0.19-1.5 0.35-3.3 0.35s-3.3-0.16-3.3-0.35zm-31-8.1-0.22-2.8 5.9 0.28c5.3 0.25 5.9 0.49 6.2 2.4 0.39 2.7-5.6 3-8.1 3-3.3 0-3.6-0.21-3.8-2.8zm62 18c-0.28-0.73 0.81-5 2.4-9.4l2.9-8.1 1.6 5.5c0.86 3 2 6.6 2.6 8 0.58 1.4 0.8 3.2 0.5 4-0.44 1.1 0.31 1.4 3.8 1.4 3.3 0 4.2-0.3 3.8-1.3-0.46-1.2 5.2-19 7.2-23 1.5-2.8 0.12-4.4-3-3.5-1.5 0.43-3.1 0.84-3.5 0.91-0.38 0.067-0.57 0.71-0.42 1.4 0.15 0.72-0.67 4.4-1.8 8.1l-2.1 6.8-1.7-5.6c-0.94-3.1-1.9-6.9-2.1-8.4-0.2-1.5-0.41-3-0.47-3.3-0.15-0.74-7.2-0.32-8.5 0.5-0.61 0.37-0.91 1.2-0.66 1.8 0.58 1.5-3.6 14-4.3 13-0.89-1.5-3.8-11-4.1-13-0.35-3.2-0.41-3.3-1.6-2.9-0.65 0.2-2.3 0.61-3.8 0.93-2.3 0.5-2.5 0.8-1.6 2.5 2.4 4.4 7.6 21 7.2 23-0.38 1.9-0.069 2.1 3.8 2.1 3.3 0 4.1-0.3 3.7-1.3zm-437 385c-0.52-0.17-2.1-0.57-3.6-0.89s-4.5-2.3-6.8-4.4c-7.4-6.8-7 0.5-7-121 0.022-60 0.4-108 0.85-108 0.45 0 1 0.6 1.3 1.3 0.28 0.73 2.4 2.2 4.8 3.2 3.6 1.6 4.2 2.3 4.2 4.5-0.086 5.8 0.71 15 1.4 16 0.41 0.65 0.26 1.8-0.33 2.5-0.81 0.97-0.76 1.6 0.2 2.5 0.71 0.66 1.1 2.3 0.88 3.8-0.21 1.4 0.062 3.9 0.61 5.4 0.82 2.3 0.75 2.8-0.42 2.8-0.78 0-1.2 0.38-0.9 0.83s-2 1.6-5.1 2.5c-5.7 1.7-6.5 2.7-4.7 6 1.1 2 2.8 1.7 11-1.8 6.2-2.8 7.7-5.3 6.5-11-0.53-2.5-1.2-9.9-1.6-17-0.83-16-1.4-17-9.7-21-3.6-1.8-6.8-3-7.1-2.7-1.3 1.3-1.7-5.4-1.4-21 0.3-16 0.51-17 2.5-22 1.2-2.5 3.6-5.5 5.4-6.8 7-5.3-12-5 296-5 201-0.029 286 0.26 289 0.97 3.3 0.69 6.1 2.2 8.9 4.7 8 7 7.4-4.5 6.8 137-0.32 69-0.82 127-1.1 130-0.98 7.8-5.9 14-13 17-3.1 1.3-33 1.4-290 1.4-158-0.04-287-0.21-288-0.38zm387-4.2c-1.3 0-3-0.39-3.9-0.87s-5.2-1.8-9.6-2.9c-7.8-2-19-5.2-22-6.3-0.78-0.31-2-0.64-2.8-0.74-2.3-0.29-22-6-27-8-2.8-1-5.8-2-6.6-2.2-0.78-0.19-3.9-1.2-7-2.3-10-3.6-13-3.9-44-5.2-24-1-27-1.2-39-1.8-6.4-0.35-13-0.78-14-0.94-1.3-0.16-2.9-0.33-3.5-0.38-0.65-0.043-1.2-0.94-1.2-2s0.34-1.7 0.76-1.5c0.42 0.26 4.5 0.7 9.2 0.99 4.6 0.29 11 0.74 15 1 3.4 0.26 13 0.68 21 0.94 39 1.3 55 3.2 60 7.1 0.49 0.44 1.7 0.79 2.6 0.79s6.7 1.6 13 3.6c6 2 19 5.8 29 8.5 9.8 2.7 20 5.5 23 6.3s5.1 1.6 5.6 1.7c0.52 0.13 3.2 0.89 5.9 1.7 15 4.5 9.6 4.2 100 4.2 51 0.011 86-0.33 87-0.87 2.6-0.97 4.4-3.1 2.4-2.8-0.7 0.12-3-0.087-5-0.46-2.1-0.37-6.9-1.3-11-2-3.9-0.71-8.5-1.5-10-1.8-5.7-0.88-8.7-1.5-15-3-3.1-0.79-8.4-2-12-2.7-7-1.4-22-4.9-24-5.5-0.78-0.23-3.7-1-6.6-1.7-10-2.6-40-11-45-12-2.6-0.82-9.8-3-16-4.7-6.2-1.8-13-3.8-14-4.5-1.6-0.7-6.8-2.6-12-4.2-8.3-2.8-20-7.2-29-11-2.2-0.98-4.6-1.8-5.3-1.8-0.72 0-1.8-0.63-2.5-1.4-0.64-0.77-1.7-1.4-2.3-1.4-1.1 0-51-24-53-26-0.56-0.43-3.1-1.9-5.7-3.4-9.3-5-32-19-32-20-0.32-0.46-2.2-1.8-4.1-3-1.9-1.2-3.5-2.7-3.5-3.3s-0.62-2.4-1.4-3.8c-0.76-1.4-1.2-2.8-1-3 0.33-0.33 6 3.3 7.1 4.5 0.26 0.29 4.7 3.3 9.9 6.6 26 17 23 16 40 16l14-0.15v-2.2c0-1.8 0.63-2.4 2.9-2.8 2.8-0.55 2.8-0.69 2.5-5-0.35-4-0.16-4.5 1.9-5.5 4.4-2 6-0.89 6 4.2 0 2.6 0.25 2.7 2.9 1.1 1.7-1 2.1-0.89 3.4 0.93 0.79 1.2 2 2.1 2.8 2.1 1.5 0 7.1 2.7 7.8 3.8 0.78 1.2 3 1.3 9.4 0.4 3.4-0.46 6.5-0.88 7-0.94 0.52-0.054 4.1-0.42 8-0.82 3.9-0.4 9.8-1.3 13-2s6.4-1.1 6.7-0.84c0.36 0.22 2.8-0.056 5.4-0.62 6.6-1.4 7.9-0.64 2.9 1.7-2.5 1.1-8.2 2.4-14 3.1-5.4 0.62-13 1.5-16 1.9-23 2.8-50 4.5-73 4.6-1.5 4e-3 -1.2 0.44 1.3 1.9 7.9 4.8 59 30 61 30 0.41 0 2.5 0.8 4.6 1.8 9.1 4.2 21 8.7 46 17 11 3.8 14 4.5 35 10 9.6 2.6 20 5.5 23 6.3s6 1.6 7 1.7c1 0.14 1.9 0.32 1.9 0.41 0 0.21 2.3 0.8 5.6 1.5 1.6 0.31 3.5 0.79 4.2 1.1s2.6 0.67 4.1 0.86 6.7 1.3 12 2.6c5 1.2 12 2.7 15 3.4 3.1 0.64 6.7 1.5 8 1.9 1.3 0.43 4 0.99 6.1 1.2 4.7 0.58 7.9 1.1 20 3.4 13 2.6 14 2.5 16-1.4 0.97-2.9 2-61 1.2-62-0.19-0.19-1.8 0.26-3.5 0.99-3 1.3-17 5.2-38 10-10 2.6-17 5-17 6.1-2e-3 0.38-0.61 0.7-1.4 0.7s-3.6 1.2-6.3 2.7-7.3 3.2-10 3.7c-6.5 1.3-27 2.4-31 1.6-5.3-1.3-1.6-2.2 9.4-2.3 13-0.12 21-1.7 31-6.2l6.5-3-5.6-0.62c-3.1-0.34-6.8-0.83-8.4-1.1s-10-0.62-20-0.82c-18-0.38-33-2.1-33-3.6 0-0.77 7-0.44 16 0.79 4 0.51 28 1.3 41 1.4 12 0.079 19-1.2 35-6.6 4.3-1.5 9.9-3.2 12-3.8s5.5-1.5 6.6-1.9 5.3-1.8 9.4-3l7.5-2.2v-48l-2.3-0.1c-8-0.34-7.5-0.11-6.4-3.2 0.57-1.6 1.7-2.8 2.6-2.8 0.87 0 2.3-0.79 3.1-1.8 0.83-0.96 2-1.9 2.6-2.1 0.79-0.26 1.1-18 1.3-68 0.2-66 0.17-68-1.7-71-1-1.7-3.5-4.5-5.5-6.1l-3.6-2.9h-49c-44 0-49 0.14-48 1.5 0.31 1.9-2.4 4.2-3.5 3.1-0.44-0.47-0.96-1.7-1.1-2.7-0.34-1.8-1.1-1.9-81-2-44-0.082-138-0.36-208-0.62s-128-0.23-128 0.062c0 0.29 1.1 1.9 2.3 3.6 1.8 2.4 3.4 3.3 7.5 4.1 2.9 0.6 4.9 1.5 4.6 2-0.31 0.5-0.084 1.5 0.5 2.2 0.74 0.88 0.76 1.5 0.078 1.9-0.61 0.37-0.67 1.2-0.17 2.2 0.45 0.87 0.71 2.6 0.59 3.9-0.12 1.3 0.33 3.7 1 5.3 0.76 1.8 0.89 3.2 0.34 3.6-0.49 0.3-0.64 0.96-0.33 1.5 0.31 0.5 0.035 1.5-0.61 2.3-0.96 1.1-0.94 1.4 0.089 1.1 0.84-0.19 1.4 0.81 1.6 3 0.64 7.3 2.6 9.8 8.4 11 8.1 1.3 13 2.5 13 3.5 0.5 0.61 1.1 2.6 1.4 4.4 0.47 3.1 2.5 16 2.9 18 0.18 1.1-3.1 0.91-7.8-0.41-20-5.5-19-5.3-21-8.1-0.83-1.5-2.7-5.9-4.2-9.7-5.3-14-8.5-17-23-20-7.5-1.9-7.1-1.2-8.3-13-1.6-16-2.6-21-4.3-22-0.94-0.5-1.9-0.91-2.2-0.91-0.47 0-0.086 3.9 0.96 9.8 1.8 12-3.1 27 11 30 1 0.15 4.6 1.3 8 2.5 6.2 2.3 6.8 3 10 11 2.1 4.9 4.8 14 4.8 15 0 0.95 0.39 1.5 0.87 1.2 0.48-0.29 1.1 0.24 1.4 1.2 0.66 2.1 2.6 3.1 12 6.2 3.8 1.3 7.7 3.1 8.6 4 0.95 0.99 2.2 5.3 3.2 11 2.1 12 4.2 20 5.8 24 1.4 2.8 0.87 3.5-3.1 3.7-1.5 0.091-3.1 0.47-3.6 0.83-0.52 0.37-2.5 1.1-4.4 1.6-3.9 1.1-4 0.98-6.8-9.1-1.9-6.8-4.6-8.4-15-9.1-4.2-0.28-8-0.92-8.3-1.4-0.33-0.5-0.64-5-0.69-10-0.053-5-0.51-10-1-11-1.2-3.1-6.3-4.2-11-2.2-1.7 0.76-4.4 1.6-6.1 1.9-4 0.73-4.6-0.49-6.8-14-1.1-6.3-2.4-11-3.5-13-0.94-1.2-7.4-5.1-14-8.5l-13-6.2-0.2-7.9c-0.32-13-0.032-13 4.8-15 4.7-1.2 6.2-4 6.2-11 0-3.7-0.21-4-2.9-4.6-1.6-0.35-3.1-0.42-3.3-0.17-0.25 0.25-0.59 2.4-0.75 4.7-0.56 8.2-4.2 8.9-4.3 0.77-0.01-2.7-0.47-4.2-1.5-4.5-2.1-0.78-2.6 0.12-2.5 3.9 0.068 1.8-0.22 3.3-0.64 3.3s-0.8 1.3-0.85 2.8c-0.044 1.5 0.21 2.6 0.56 2.4 0.35-0.22 0.7 4.6 0.77 11 0.098 8.9-0.14 11-1.2 11-4.3 0 2.9 6.3 13 11 17 8.6 16 7.9 17 11 0.12 1.7 0.49 5.3 0.82 7.8 0.33 2.6 0.61 5.6 0.62 6.8 0.011 1.2 0.4 2.1 0.86 2.1 0.46 0 0.84 1.5 0.84 3.3s-0.33 3.3-0.74 3.3-0.83 0.73-0.93 1.6c-0.11 0.9-0.3 2.5-0.43 3.5-0.13 1-0.88 2.4-1.7 3-1.2 0.98-1.1 1.3 0.63 2.6 2 1.4 4.3 7.3 5.4 14 0.49 2.9 0.27 3.4-2 4.4-1.4 0.61-3.9 1.4-5.4 1.8-1.6 0.36-3.2 0.98-3.8 1.4s-2.2 0.87-3.8 1c-1.5 0.17-3.1 0.66-3.4 1.1-0.32 0.44-1.6 0.85-2.9 0.93-1.9 0.11-2.2 0.6-2.1 2.6 0.096 1.4 0.45 2.9 0.8 3.5s0.07 1-0.61 1c-0.88 0.01-0.92 0.21-0.15 0.7 1.1 0.71 2.1 5.3 2.7 12 0.17 2.1 0.74 4.7 1.3 5.7 0.53 0.98 1.1 3.4 1.3 5.4 0.29 3.5 0.22 3.6-3.9 4.8-4.6 1.3-6.7 0.53-6.7-2.5 0-0.93-0.37-1.9-0.82-2.2-0.45-0.28-1.1-1.8-1.4-3.3-0.66-3.3-3.8-5.1-10-6-6.6-0.86-7-0.51-6.6 6.2 0.15 3.2 0.38 18 0.52 32 0.14 14 0.56 27 0.94 27s1.5-0.011 2.4-0.86c2.1-1.9 3.8-1.9 6-0.25 2.5 1.9 2.1 5.1-0.83 6.2-3.1 1.2-6.1 0.34-5.4-1.5 0.36-0.93-0.13-1.4-1.6-1.4-1.8 0-1.9 0.23-0.93 1.4 0.74 0.89 0.8 1.4 0.17 1.4-1.6 0-0.82 11 0.82 12 0.75 0.41 3.3 1 5.6 1.3 2.3 0.31 5.3 0.76 6.6 0.99 1.3 0.23 7.2 1.1 13 2 5.9 0.85 11 1.7 12 2s0.22 1.1-0.42 1.9c-0.87 1-2.2 1.2-5 0.8-2.1-0.33-7.2-1-11-1.5-4.1-0.51-10-1.6-13-2.3-9.2-2.4-8.7-3.9-8.4 24 0.25 22 0.44 24 2.2 28 1.1 2.2 2.7 4.4 3.6 4.9 1.7 0.92 10 0.29 12-0.91 1-0.64 3.7-15 3.8-21 0.038-4.2 1.1-4.9 5.5-3.8 3 0.81 3.8 1.4 3.5 2.6-0.26 0.87-0.7 2.8-0.97 4.4-0.85 4.9-1.7 8.4-2.2 9.2-0.28 0.46-0.64 2.3-0.8 4.2s-1.1 4.4-2.2 5.8c-1 1.4-1.6 2.7-1.3 3.1 0.95 0.95 122 0.66 122-0.28 0-0.47-0.48-1-1.1-1.2-0.68-0.22-0.46-0.96 0.61-2 2.3-2.2 7.8-1.3 10 1.8l1.9 2.3h21c18 0 21-0.22 21-1.4 0.3-0.77 0.84-1.2 1.2-0.98 2.5 1.5 13 1.9 66 2.3 33 0.28 157-2.9 134-1.8zm-260-4.7c0-0.68 0.28-0.96 0.63-0.62 0.34 0.34 0.34 0.9 0 1.2-0.34 0.34-0.63 0.062-0.63-0.62zm8.7-1.6c-0.93-0.37-0.96-0.79-0.13-1.8 1.2-1.5 2.8-0.91 2.8 1.1 0 1.4-0.55 1.5-2.6 0.71zm-9.8-1.9c-0.9-0.23-1.7-0.71-1.7-1.1-7e-3 -0.35-0.25-1.5-0.54-2.6-0.47-1.7-0.03-2 3.6-2.5 2.3-0.31 4.8-0.81 5.6-1.1 2.5-0.94 2.8 2.9 0.42 5.6-2 2.3-3.7 2.7-7.4 1.7zm23-7.7c-4 0-7.2-4.8-8.9-5.2-1.8-0.38-3.6-0.93-4.2-1.2-0.51-0.3-1.6-0.6-2.3-0.66-0.78-0.065-3-0.69-4.9-1.4-3.1-1.1-4.1-1.1-8.4 0.27-5.3 1.7-6.4 1.5-6.4-1.1 0-0.91-0.31-2-0.69-2.3-0.38-0.38-0.8-6.7-0.93-14-0.13-7.4-0.62-15-1.1-17-0.47-2.1-0.49-4-0.054-4.3 0.44-0.27 0.61-1 0.38-1.6s-0.078-2.4 0.35-3.9l0.77-2.8 1.3 2.5c5.8 11 12 19 17 22 3.6 2.2 6.5 3 6.5 1.6-5e-3 -0.38-2.1-2.6-4.8-4.9-5.1-4.5-10-12-16-21-1.9-3.5-2-4.3-1-6.2 0.66-1.2 1.5-2.1 1.9-2s4.3 3.7 8.7 8 8.3 7.7 8.6 7.7c0.33 0 1.7 0.85 3 1.9 1.8 1.4 2.7 1.6 3.4 0.86 0.73-0.75-0.66-2.5-5-6.3-12-10-16-15-16-17 0.31-0.81 2.1-3.5 4.1-5.9 3.2-4 4.3-4.7 12-7 6-1.9 8.6-2.3 9.5-1.6 0.67 0.55 3.1 1.2 5.4 1.5 2.3 0.28 4.9 0.74 5.8 1s4.6-0.81 8.3-2.4c5.4-2.4 7.4-2.8 10-2.3 3.7 0.62 3.7 0.66 2 2.5-0.94 1-4.3 3.9-7.5 6.3l-5.8 4.4 3.9 3.8c2.2 2.1 6 4.9 8.4 6.3 2.5 1.4 4.5 2.9 4.5 3.3 0 0.72-2.7 1.6-20 6.5-3.9 1.1-7.9 2.9-8.9 3.9-3.9 4.1 3.2 3.8 3.3 3.8 1.8-0.48 12 4.1 12 5.4 0 1-9.2 3-11 2.4-0.77-0.29-1.4-0.15-1.4 0.32s-1.5 0.77-3.3 0.67-3.3-0.47-3.3-0.83c-1.8e-4 -0.36-0.89-0.48-2-0.27-2.1 0.39-4.5 2.9-4.6 4.8-0.053 1.9 9.2 15 12 17 1.3 0.86 2.4 2 2.4 2.5s-1 0.25-2.3-0.57c-2.8-1.8-6.1-2-6.1-0.23 0 0.7 0.79 2.3 1.8 3.5 0.97 1.2 2.5 4.6 3.5 7.6 0.94 3 2 5.4 2.5 5.4 0.42 0 0.77 0.42 0.77 0.93 0 1.9-0.92-3.7-8-3.7zm-50-4.7c-0.94-3.1-2.2-6-2.7-6.5s-3.9-1.8-7.4-2.9c-3.5-1.1-6.3-2.4-6.3-2.7s0.76-1.4 1.7-2.2c1.6-1.4 2.2-1.3 9.1 1.7 10 4.3 10 4.4 8.9 12-0.54 3.3-1.1 6.1-1.2 6.3-0.15 0.14-1-2.3-2-5.4zm20 2.9c-1.3-2-1-2.3 2.9-3.3 2.6-0.62 9.1 1 9.1 2.3 0 0.36-1.6 0.85-3.5 1.1-1.9 0.25-4.4 0.73-5.4 1.1-1.3 0.43-2.2 0.051-3-1.3zm-63-11c0 5.4-11-13-11-14 0-0.42-2.7-6.5-6.6-15-0.95-2.1-2.4-5.3-3.2-7.2-1.6-3.9-3.7-5.2-5.7-3.5-1.1 0.92-1.5 0.49-2-2.5-0.36-2-0.98-4-1.4-4.5-0.4-0.51-1-2.6-1.4-4.7-0.37-2.1-1.3-4.9-2-6.3-1.8-3.6-1.8-3.8 3.1-8.6l4.4-4.4 2.1 5.4c1.1 3 3.4 9 5 13 3.5 9.5 8.8 20 12 24 7.4 9.3 12 13 12 10 0-0.6-2.2-4.1-5-7.7-5.7-7.6-7.9-11-10-15-2.6-4.9-9.3-22-8.9-22 0.22-0.22 1.8 1.8 3.6 4.5 1.8 2.7 3.9 5.9 4.8 7.2 2.5 3.8 19 20 20 20 2.2 0 1.3-2.3-2.6-6.3-2.1-2.2-3.7-4.4-3.7-5 0-0.52-0.34-0.74-0.76-0.48-0.42 0.26-2-1.1-3.5-2.9s-4-4.9-5.6-6.7c-3.2-3.7-7.3-9.2-11-14-1.2-1.8-2.7-3.6-3.3-3.9-1.9-1.2 0.72-2.6 8.2-4.2 6.8-1.5 7.4-1.5 11 0.082 1.9 0.9 7.5 2.1 12 2.6 9.7 0.99 8.9 0.51 16 9.5 2.9 3.5 6.5 5.5 14 7.7 3 0.87 5.4 1.8 5.5 2.1 0.054 0.31 0.2 2.1 0.32 4 0.2 3.1-0.049 3.5-2.4 3.9-1.8 0.36-2.7 1.1-2.7 2.3 0 1.3-1.1 2.1-4 2.9-2.2 0.62-4.4 1-4.9 0.94-2.4-0.48-10 0.18-12 0.96-1.3 0.79-1.3 1 0 2.2 1.7 1.6 16 7.2 18 7.2 0.87-3e-3 1.9 0.41 2.2 0.93s1.6 0.93 2.9 0.93c4.3 0 6 1.6 6 5.6 0 2.9-0.36 3.7-1.6 3.7-0.9 7e-3 -4.2 0.76-7.3 1.7-5.2 1.5-6.4 1.6-15 0.36-11-1.5-12-1.3-12 4.5-0.11 2.1-0.48 4.1-0.82 4.4-0.34 0.34-2.3-0.3-4.4-1.4-5.7-3.1-6.7-2.2-6.2 5.5 0.26 3.5 0.4 6.4 0.31 6.4-0.092 0-4.1-7.3-4.1-4.1zm118-0.77c-0.2-0.64-0.81-2.6-1.4-4.3-1.7-5.3 1.1-6.8 3.9-2 1.2 2.1 1.4 3.4 0.73 5.1-0.94 2.5-2.6 3.1-3.2 1.1zm25-0.48c-1.6-0.79-3.1-1.8-3.3-2.2-0.66-0.99-4.4-1.2-7.5-0.35-1.3 0.34-2.9 0.7-3.6 0.79-1.9 0.25-3.3-2.5-2.6-5.2 0.53-2.1 1.2-2.4 6.5-2.9 3.2-0.3 6.6-0.82 7.5-1.1 1.2-0.46 2 0.38 3.4 3.5 1.8 4 3.5 9.2 2.8 9-0.19-0.054-1.6-0.75-3.2-1.5zm-31-0.12c-0.48-0.44-4-2.4-7.8-4.4-5-2.6-7.6-4.7-9.4-7.3-1.3-2.1-2.8-3.9-3.2-4-2.2-0.96-0.017-1.8 4.7-1.9 5.2-0.073 5.6 0.1 10 4.3 3.9 3.6 5 5.3 5.9 9 1.1 4.8 0.95 5.7-0.51 4.4zm11-0.1c-0.32-0.51 0.078-0.93 0.88-0.93 0.81 0 1.5 0.42 1.5 0.93s-0.4 0.93-0.88 0.93c-0.49 0-1.1-0.42-1.5-0.93zm-168-1.8c-1.9-0.4-2.8-1.1-2.7-2.2 0.31-6.5 0.85-7.4 7-12 1.7-1.3 6.1-5.1 9.6-8.4 6.8-6.4 8.2-7.3 8.2-5.6 0 0.58 0.88 3 1.9 5.3 2.3 5 2 6.2-1.9 7.9-1.6 0.7-2.9 1.5-2.9 1.9 0 0.33-1.1 0.87-2.4 1.2-3.2 0.8-10 7.5-11 10-0.6 2.4-0.99 2.5-5.7 1.5zm64-4.8c0-2.5 0.29-2.8 3-2.8 2.3 0 2.8 0.25 1.9 1.1-0.62 0.62-1.1 1.9-1.1 2.8 0 1.1-0.7 1.7-1.9 1.7-1.5 0-1.9-0.62-1.9-2.8zm102-0.62c-1.1-1.1-0.68-2.2 0.78-2.2 0.78 0 1.4 0.63 1.4 1.4 0 1.5-1.1 1.9-2.2 0.78zm22-36c3.9-4 5.3-7.8 5.4-15 7e-3 -2.6 0.28-5.7 0.6-6.9 0.52-1.9 0.96-2.1 4-1.5 1.9 0.35 3.6 0.76 3.9 0.93 0.27 0.16 0.058 4.8-0.46 10-0.92 9.8-1 10-3.6 11-1.5 0.7-4 1.5-5.6 1.7-1.6 0.25-3.1 0.84-3.3 1.3-0.17 0.47-1.2 0.85-2.3 0.85-1.8 0-1.6-0.4 1.5-3.6zm46 2.1c-3.4-0.96-3.5-0.99-4.5-7.9-0.58-3.8-1.7-8.8-2.5-11l-1.5-4 3.2-0.14c1.8-0.077 3.8-0.18 4.4-0.23 0.71-0.056 1.2 1.2 1.3 3.2 0.26 5.4 3 14 4.7 15 0.87 0.51 2.9 2.1 4.5 3.4l2.9 2.5-4.5-0.17c-2.5-0.091-6.1-0.6-8-1.1zm-248-9.3c0-3.5 1.3-4.1 4.8-2.3 2.5 1.4 2.3 3.6-0.59 4.7-3.7 1.4-4.2 1.2-4.2-2.4zm110 1.9c0-0.26 0.21-0.47 0.47-0.47s0.47 0.21 0.47 0.47c0 0.26-0.21 0.47-0.47 0.47s-0.47-0.21-0.47-0.47zm-98-1.9c2.2 0-1.8-1.4-0.089-3.2 0.94-1 2.7-1.9 4-1.9 1.2 0 3-0.41 4-0.92 1.5-0.77 1.9-0.45 2.8 2 0.56 1.6 1 3.1 1 3.3s-1.2 0.33-2.8 0.33c-1.5 0-3 0.42-3.3 0.93-0.83 1.3-8.2-0.48-5.6-0.48zm-4.3-3.3c0-0.51 0.42-0.93 0.94-0.93 0.52 0 0.94 0.42 0.94 0.93s-0.42 0.93-0.94 0.93c-0.52 0-0.94-0.42-0.94-0.93zm104-2.4c-1.5-3.2-0.91-3.7 1.3-1.3 1.2 1.3 1.4 2.2 0.78 2.8s-1.3 0.12-2.1-1.5zm2.7-4.6c-1.4-1.7-1.3-1.9 2.6-2.7 3.3-0.7 3.7-0.056 1.7 2.5-1.5 2-2.8 2.1-4.3 0.21zm-2.5-5.7c0.34-0.34 0.91-0.34 1.3 0 0.34 0.34 0.063 0.62-0.63 0.62-0.69 0-0.97-0.28-0.63-0.62zm129-0.11c-2.5-0.39-2.7-1-0.58-2.5 1.9-1.4 6-0.73 6 0.91 0 1.4-2.4 2.1-5.4 1.6zm-126-0.59c0-0.22 2.2-1.1 4.9-2s5.4-2 6-2.5c1.5-1.2 2.5 0.64 0.98 1.9-1.8 1.5-12 3.7-12 2.6zm-6.9-1.2c-1.1-1.1-0.55-3.1 1.1-3.7 3.1-1 12-5.5 14-6.8 2.8-2.3 2-4.4-1.9-5-1.9-0.32-4.8-0.58-6.3-0.59-3.4-0.013-2.3-1.2 2.5-2.7 1.9-0.6 4-1.7 4.6-2.4 3.2-3.8 8.9 1.4 9.6 8.6l0.44 4.8-6.7 2.3c-3.7 1.3-8.8 3.2-11 4.3-2.7 1.1-5.1 1.7-5.4 1.4zm105-1.2c0-0.51 0.61-0.93 1.4-0.93s1.6 0.42 1.9 0.93c0.32 0.51-0.29 0.93-1.4 0.93s-1.9-0.42-1.9-0.93zm-78-0.59c0-0.18 0.73-1.2 1.6-2.2 1.7-2 5.4-2.5 6.4-0.94 0.32 0.51-0.29 0.93-1.4 0.93s-1.9 0.37-1.9 0.82-1.1 1-2.3 1.3c-1.3 0.25-2.3 0.3-2.3 0.12zm103-1.2c-0.3-0.49-0.15-1.1 0.34-1.4 0.49-0.3 1.1-0.15 1.4 0.34 0.3 0.49 0.15 1.1-0.34 1.4-0.49 0.3-1.1 0.15-1.4-0.34zm-205-1.4c0-0.89 2.2-2 6.3-3.2 12-3.6 15-4 15-3.1 0.6 0.6-0.99 1.3-4.6 2-5.7 1.1-13 3.3-16 4.8-1.2 0.63-1.6 0.5-1.6-0.51zm223-5.1c-5.6-3.7-7.9-4.7-11-4.7-3.7 0-3.9-0.17-6.2-5-2.6-5.4-10-13-13-12-1.5 0.29-3.2 3-4.8 7.6l-0.96 2.7-3.1-3c-2.3-2.2-3.8-2.9-5.7-2.7-2.1 0.23-2.8-0.18-3.4-2-4.7-15-6.6-22-6.2-22 0.27-0.43 0.75-3.6 1.1-7s1.2-8.4 2-11c1.9-6.9 2.4-9.2 2.5-13 0.075-2.1 0.8-3.3 2.8-4.4 2-1.1 2.8-1.2 3-0.38 4.2 16 7.1 24 12 33 6 12 12 21 14 21 1.6 0.49 1.5-2.6-0.12-4.9-3.5-5-14-25-16-30-0.65-2.1-1.5-4.2-1.9-4.7s-1.4-3.2-2.2-6.1-1.7-6.1-2.1-7.2c-0.4-1.3-0.24-2.1 0.41-2.1 0.58 0 1 0.4 1 0.89 0 0.49 1.2 2.9 2.7 5.4 1.5 2.5 4.7 8.3 7.2 13 2.5 4.6 5.3 9.4 6.3 11 0.96 1.2 1.7 2.6 1.7 3.1 0 1.8 6.8 10 11 13 7.2 5.2 7.3 3.5 0.24-4.6-2.8-3.3-5.2-6.4-5.2-7.1 0-0.64-0.35-1.3-0.78-1.5-0.83-0.33-19-32-20-35-0.51-1.4-0.31-1.6 1-1 6.2 2.6 11 4.2 18 6.1 6.3 1.7 7.8 2.4 7.8 3.9 0 2.4 2.3 5.9 7.7 12 2.5 2.7 4.5 5.4 4.5 6.1 0 0.7 1.7 2.9 3.8 4.9 2.1 2 4.8 5.2 6.1 7 1.5 2.2 3.7 3.8 6.1 4.6 2.1 0.68 4 1.6 4.3 2.1 0.28 0.45 1.6 1.3 3 1.9 2.4 1 2.3 1.1-2.1 1.4l-4.6 0.31 0.61 3.4c0.34 1.9 0.84 4.2 1.1 5.2 0.43 1.4-0.4 1.2-5.1-1.3-3.2-1.7-6.3-2.8-7.1-2.4-2.1 0.8-1.9 5.7 0.42 11 2.4 4.9 1.7 9.2-1.3 8.5-1.1-0.24-2.6-0.69-3.4-1-0.78-0.32-2-0.21-2.7 0.23-1.6 0.99-0.87 3.4 2.3 8.1 1.3 1.9 2.2 3.6 2 3.8-0.21 0.21-3.6-1.7-7.5-4.3zm-152 2.7c-0.74-1.2 4.6-6.5 6.6-6.5 1.7 0 3.6 2.5 2.9 3.7-0.62 0.99-2.4 1.8-6.7 3.2-1.2 0.36-2.3 0.18-2.7-0.43zm109 0.29c-1.3-0.44-1.8-17-0.47-17 0.39 0.037 1.8 1.4 3.2 3 2.1 2.6 2.4 3.6 2 7.7-0.46 4.7-2.2 7.1-4.7 6.2zm27-0.25c-2.5-1-4.1-3.7-4.1-7.2l4e-3 -2.6 1.9 3.1c1.6 2.6 2.4 3.1 4.7 2.7 2.5-0.37 2.8-0.16 2.8 2.2 0 2.8-1.4 3.3-5.3 1.7zm-18-1.6c-1.6-2.8-1.4-5.8 0.27-6.5 0.81-0.31 1.4-1.7 1.4-3.3 0-1.5 0.64-4.3 1.4-6.1l1.4-3.4 3.3 3.1c2.8 2.7 3.3 3.7 3.3 7.6 0 2.4-0.42 4.7-0.94 5-0.52 0.32-0.94 1.4-0.94 2.4 0 2.5-1.4 2.3-3.2-0.58-1.9-2.9-3.6-2.5-4.3 1.1-0.5 2.7-0.53 2.7-1.6 0.68zm-79-1.2c1.4 0-1.1-1.4 0.59-4.4 3.3-5.9 4.4-10 3.1-12-0.8-0.96-0.83-1.4-0.085-1.4 0.58 0 1.1-1.1 1.1-2.4 0-1.3 0.34-2.2 0.75-1.9 1.3 0.79 2.6-0.65 4.8-5.4 1.4-3.1 2.4-4.3 3.1-3.6 0.65 0.64 0.46 1.9-0.58 3.9-0.85 1.6-1.4 3.7-1.3 4.6s-0.3 2.4-1 3.2c-1.1 1.3-1.1 1.8 0.27 3.3 1.5 1.6 1.5 1.8-0.33 2.2-1 0.27-2.4 1.7-2.9 3.2-1.7 4.5-5.1 11-5.6 11-0.26 0.013-2.7-0.84-1.8-0.84zm-113-0.69c2.2 0-2.1-0.65 0.62-3.5 1.8-1.9 2.8-2.3 4.7-1.8 1.9 0.47 2.4 0.26 2.4-0.89 0-0.83 0.36-1.5 0.79-1.5 0.76 0 0.79 6.3 0.033 6.9-0.74 0.64-10 0.84-8.6 0.84zm86-2.2c0.32-0.51 0.98-0.93 1.5-0.93 0.49 0 0.88 0.42 0.88 0.93s-0.66 0.93-1.5 0.93-1.2-0.42-0.88-0.93zm-74-0.62c-0.34-0.34-0.63-1.1-0.63-1.6 0-0.58 0.44-0.53 1.1 0.14 0.61 0.61 0.89 1.3 0.63 1.6s-0.77 0.2-1.1-0.14zm4.1-1.6c-1.9 0-11-9.3-13-8.6-1.2 0.46-1.3 0.82-0.3 2 1.7 2 0.76 2.4-2.7 1.1-3.7-1.4-3.8-2.3-0.015-5.5 4.2-3.5 9.9-4.8 15-3.4 3.7 0.99 4 1.3 2.6 2.3-1.5 1.1-1.4 1.4 0.64 3.1 1.2 1 2.8 1.9 3.5 1.9s1.3 0.42 1.3 0.93c0 0.51-1.1 0.93-2.4 0.93-1.8 0-2.3 0.37-1.9 1.4 0.3 0.78-0.29 2.3-1.3 3.3-1.3 1.3-0.99 0.58-1.9 0.58zm347 0.8c0-0.26 0.21-0.47 0.47-0.47s0.47 0.21 0.47 0.47c0 0.26-0.21 0.47-0.47 0.47s-0.47-0.21-0.47-0.47zm-288-6c0-1.5 0.34-3 0.75-3.2 0.41-0.25 3.9-0.73 7.8-1l7-0.58-2.3 1.9c-1.3 1-2.8 1.9-3.3 1.9-0.54 0.011-2.6 0.86-4.7 1.9-4.8 2.4-5.2 2.4-5.2-0.88zm451-15c0.34-0.34 0.91-0.34 1.3 0s0.063 0.62-0.63 0.62c-0.69 0-0.97-0.28-0.63-0.62zm-3.8-0.93c0.34-0.34 0.91-0.34 1.3 0 0.34 0.34 0.063 0.62-0.63 0.62-0.69 0-0.97-0.28-0.63-0.62zm-75-0.78c0-0.26 0.21-0.47 0.47-0.47 0.26 0 0.47 0.21 0.47 0.47 0 0.26-0.21 0.47-0.47 0.47-0.26 0-0.47-0.21-0.47-0.47zm-400-2.9c-8.6-2.3-13-4.5-19-11-8-7.8-9-8.2-19-5.6-4.7 1.1-9 2.4-9.6 2.9-1.1 0.8-11 3.7-11 3.2-0.058-0.11-0.63-3.9-1.3-8.5-0.76-5.4-0.84-8.6-0.24-9.2 0.51-0.5 5.5-2.4 11-4.3l10-3.4 0.29-3.9c0.17-2.4-0.65-6.7-2.1-11-3.1-9.2-2.3-11 5.3-12 2.7-0.36 5.4-0.99 5.9-1.4 0.53-0.41 2.1-1 3.4-1.3l2.5-0.59 0.54 7.2c0.3 4 0.4 8.7 0.24 10-0.22 2.4 0.27 3.8 1.9 5.4 1.9 1.9 3.1 2.2 9.8 2.2 4.2 0 8.4 0.43 9.4 0.96 1.1 0.58 2.4 3.1 3.3 6.3 2.5 9.1 4.4 14 6.4 16 1.8 2 2.5 2.1 7.7 1.6 4.1-0.44 7.2-0.18 11 0.93 6.3 1.9 23 8.1 23 8.4 0 0.14-3.1 0.29-6.8 0.33-6 0.067-15 0.72-15 1.1 0 0.072-2.3 0.32-5.2 0.55-6.1 0.5-10 1.9-12 4.2-2 2-3.2 2-10 0.23zm465 0.85c0.34-0.34 0.91-0.34 1.3 0 0.34 0.34 0.063 0.62-0.63 0.62-0.69 0-0.97-0.28-0.63-0.62zm10-4.5c0-0.26 0.21-0.47 0.47-0.47 0.26 0 0.47 0.21 0.47 0.47 0 0.26-0.21 0.47-0.47 0.47-0.26 0-0.47-0.21-0.47-0.47zm-207-8.4c0-0.26 0.21-0.47 0.47-0.47 0.26 0 0.47 0.21 0.47 0.47s-0.21 0.47-0.47 0.47c-0.26 0-0.47-0.21-0.47-0.47zm-158-5.6c-23-7.3-37-11-50-13-4.5-0.73-8.7-3.1-7.2-4 4.7-2.9 66 12 67 16 0.65 2-0.14 3.6-1.7 3.6-0.62-0.034-4.3-1.1-8.2-2.3zm179 1.9c0-0.26 0.21-0.47 0.47-0.47s0.47 0.21 0.47 0.47c0 0.26-0.21 0.47-0.47 0.47s-0.47-0.21-0.47-0.47zm178-0.93c0-0.26 0.21-0.47 0.47-0.47s0.47 0.21 0.47 0.47c0 0.26-0.21 0.47-0.47 0.47s-0.47-0.21-0.47-0.47zm33-0.93c0-0.26 0.21-0.47 0.47-0.47 0.26 0 0.47 0.21 0.47 0.47 0 0.26-0.21 0.47-0.47 0.47-0.26 0-0.47-0.21-0.47-0.47zm-214-0.93c0-0.26 0.21-0.47 0.47-0.47 0.26 0 0.47 0.21 0.47 0.47 0 0.26-0.21 0.47-0.47 0.47-0.26 0-0.47-0.21-0.47-0.47zm-240-5.5c-1.2-1.2-5.3-3.8-9.1-5.8-6.3-3.2-10-6-8.3-6 0.38 0 0.23-0.56-0.35-1.3-0.58-0.69-0.85-1.4-0.61-1.7 0.24-0.24-0.36-3.8-1.3-7.8s-2.1-9.5-2.5-12c-0.87-5.5-0.79-5.1-1.7-7.3-1-2.3-0.4-2.6 3.3-1.6 1.8 0.5 4.6 0.92 6.3 0.92 1.7 0 5 0.46 7.2 1l4.1 1 0.62 5.3c0.34 2.9 1.4 9.9 2.4 15 1.7 10 1.8 10 6 14 2.3 2.4 4.3 4.6 4.3 5 0 0.37-1.2 0.67-2.8 0.67-1.5 0-3 0.42-3.3 0.93-0.89 1.4-1.8 1.1-4.1-1.3zm220 1.8c0-0.26 0.21-0.47 0.47-0.47 0.26 0 0.47 0.21 0.47 0.47 0 0.26-0.21 0.47-0.47 0.47-0.26 0-0.47-0.21-0.47-0.47zm14-0.16c0.34-0.34 0.91-0.34 1.3 0 0.34 0.34 0.063 0.62-0.63 0.62-0.69 0-0.97-0.28-0.63-0.62zm14-3.6c0-0.26 0.21-0.47 0.47-0.47 0.26 0 0.47 0.21 0.47 0.47 0 0.26-0.21 0.47-0.47 0.47-0.26 0-0.47-0.21-0.47-0.47zm210-5.6c0-0.26 0.21-0.47 0.47-0.47 0.26 0 0.47 0.21 0.47 0.47 0 0.26-0.21 0.47-0.47 0.47-0.26 0-0.47-0.21-0.47-0.47zm-145-1.9c-0.82-2.1 0.33-4.2 2.3-4.2 2.7 0 4.4 2.4 3 4.2-0.64 0.77-2 1.4-3 1.4s-2-0.63-2.3-1.4zm-65 0c0-0.26 0.21-0.47 0.47-0.47 0.26 0 0.47 0.21 0.47 0.47 0 0.26-0.21 0.47-0.47 0.47-0.26 0-0.47-0.21-0.47-0.47zm24-1.1c-2.7-0.62-2.8-3-0.18-4 2.4-0.91 5 0.12 5 2 0 1.2-3.1 2.4-4.9 2zm178-8.2c0-0.26 0.21-0.47 0.47-0.47 0.26 0 0.47 0.21 0.47 0.47 0 0.26-0.21 0.47-0.47 0.47-0.26 0-0.47-0.21-0.47-0.47zm-322-4c-1-1.4-2.1-3.7-2.5-5-0.55-2.2-0.21-2.6 3.6-4 4.5-1.7 9.6-1 13 1.7 1.7 1.2 1.6 1.3-0.75 1.9-2.1 0.53-2.4 0.99-1.9 2.9 0.51 2 0.28 2.3-1.9 2.3-1.4 0-3.7 0.63-5.2 1.4-2.6 1.3-2.8 1.3-4.6-1.2zm264 0.34c-0.71-1.8 0.34-3.3 2.4-3.3 2.4 0 3 0.92 1.9 2.9-1.1 2.1-3.5 2.3-4.3 0.39zm-276-2.8c-3.7-1-6.8-2.4-6.8-3 0-1.2 5.7-2.1 9.2-1.5 2.2 0.42 5.4 4.1 4.8 5.5-0.18 0.42-3.4-0.084-7.1-1.1zm293-1.9c0-0.26 0.21-0.47 0.47-0.47 0.26 0 0.47 0.21 0.47 0.47 0 0.26-0.21 0.47-0.47 0.47-0.26 0-0.47-0.21-0.47-0.47zm-324-7c-1.7-3.6-3.6-6.5-4.2-6.5-0.55-0.011-1.9-2.8-3-6.3-2-6.3-2.2-9.4-0.29-4.3 0.57 1.5 2 4 3.3 5.6 1.2 1.6 2 3.2 1.7 3.5-0.31 0.31-0.14 1.1 0.38 1.7 2.3 2.9 6.7 12 6 12-0.4 0.25-2.2-2.5-3.9-6zm19 4.9c-2.4-0.53-1.6-3.6 0.79-3.2 1 0.17 2.2 0.63 2.6 1 1.1 1-1.4 2.6-3.4 2.2zm4.8-5.4c-2.6 0-4.5-3.9-4.5-5.5 0-0.29 0.85-0.53 1.9-0.53 1.3 0 1.9-0.62 1.9-1.9 0-1 0.63-1.9 1.4-1.9 0.88 0 1.4-0.88 1.4-2.4 0-2.1 0.24-2.2 1.8-1.4 1.2 0.64 1.7 1.7 1.4 3-0.22 1.1 0.24 3 1 4.2 1.2 1.9 1.2 2.2 0.068 2.7-0.75 0.28-1.6 1.5-1.9 2.8-0.66 2.6-0.56 0.81-4.5 0.81zm32-1.5c0-1.6-0.43-1.9-2.5-1.5-1.7 0.32-3.7-0.26-6-1.7-4.5-2.8-5.2-4-3.4-5.7 1.2-1.2 2-0.99 6.5 2.1 6.8 4.7 9.3 7 8.7 8-0.98 1.6-3.2 0.76-3.2-1.2zm-43 0.19c0-1.2-1.2-2.1-0.67-6.4 0.41-3.6 0.29-5.8-0.35-6.2-1.4-0.84-0.13-2.6 1.4-2 0.68 0.26 1.9-0.55 2.7-1.8 1.5-2.3 4.3-3.1 4.3-1.3 0 0.51 1.7 0.93 3.8 0.93s3.8 0.42 3.8 0.93-1.1 0.93-2.4 0.93c-1.3 0-2.6 0.63-2.9 1.4-0.3 0.77-1.2 1.4-2 1.4-1 0-1.3 0.68-0.97 2.4 0.42 2.2 0.26 2.3-2.6 1.8-2.7-0.5-3.1-0.29-3.6 1.8-0.65 2.6 0.066 5.3 1.4 5.3 0.46 0 0.84 0.42 0.84 0.93 0 1.1-2.7 2.1-2.7 0.083zm325-2.4c0-0.26 0.21-0.47 0.47-0.47s0.47 0.21 0.47 0.47c0 0.26-0.21 0.47-0.47 0.47s-0.47-0.21-0.47-0.47zm-322-1.9c0-0.26 0.21-0.47 0.47-0.47s0.47 0.21 0.47 0.47c0 0.26-0.21 0.47-0.47 0.47s-0.47-0.21-0.47-0.47zm339 0c0-0.26 0.21-0.47 0.47-0.47s0.47 0.21 0.47 0.47c0 0.26-0.21 0.47-0.47 0.47s-0.47-0.21-0.47-0.47zm-319-5c-1.6-0.6-1.3-0.81 1.3-1.3 3.4-0.68 4.3-0.36 3.4 1.2-0.71 1.1-2.1 1.2-4.7 0.15zm319-1.5c0-0.26 0.21-0.47 0.47-0.47s0.47 0.21 0.47 0.47c0 0.26-0.21 0.47-0.47 0.47s-0.47-0.21-0.47-0.47zm-102-1.9c0-0.26 0.21-0.47 0.47-0.47s0.47 0.21 0.47 0.47-0.21 0.47-0.47 0.47-0.47-0.21-0.47-0.47zm110 0c0-0.26 0.21-0.47 0.47-0.47s0.47 0.21 0.47 0.47-0.21 0.47-0.47 0.47-0.47-0.21-0.47-0.47zm-2.8-0.93c0-0.26 0.21-0.47 0.47-0.47s0.47 0.21 0.47 0.47c0 0.26-0.21 0.47-0.47 0.47s-0.47-0.21-0.47-0.47zm7.5-3.7c0-0.26 0.21-0.47 0.47-0.47s0.47 0.21 0.47 0.47c0 0.26-0.21 0.47-0.47 0.47s-0.47-0.21-0.47-0.47zm-36-3.7c-0.72-1.9 0.35-3.3 2.4-3.3 1.8 0 2.8 1.6 2.2 3.5-0.57 1.6-4 1.5-4.6-0.19zm-179-0.98c0-0.26 0.21-0.47 0.47-0.47 0.26 0 0.47 0.21 0.47 0.47 0 0.26-0.21 0.47-0.47 0.47-0.26 0-0.47-0.21-0.47-0.47zm7.5 0c0-0.26 0.21-0.47 0.47-0.47 0.26 0 0.47 0.21 0.47 0.47 0 0.26-0.21 0.47-0.47 0.47-0.26 0-0.47-0.21-0.47-0.47zm140-2.8c0-0.26 0.21-0.47 0.47-0.47 0.26 0 0.47 0.21 0.47 0.47 0 0.26-0.21 0.47-0.47 0.47-0.26 0-0.47-0.21-0.47-0.47zm58-5.1c0-1.5 0.63-1.9 2.8-1.9 1.8 0 2.7 0.44 2.6 1.2-0.6 3-5.4 3.6-5.4 0.7zm-42 0.47c0-0.26 0.21-0.47 0.47-0.47 0.26 0 0.47 0.21 0.47 0.47 0 0.26-0.21 0.47-0.47 0.47-0.26 0-0.47-0.21-0.47-0.47zm-67-3.7c0-0.26 0.21-0.47 0.47-0.47 0.26 0 0.47 0.21 0.47 0.47 0 0.26-0.21 0.47-0.47 0.47-0.26 0-0.47-0.21-0.47-0.47zm10-4.2c0-3.2 2.1-4.6 4.2-2.8 2.3 1.9 1.4 4-2.1 5.1-1.9 0.58-2.1 0.33-2.1-2.2zm43 2.3c0-0.26 0.21-0.47 0.47-0.47 0.26 0 0.47 0.21 0.47 0.47 0 0.26-0.21 0.47-0.47 0.47-0.26 0-0.47-0.21-0.47-0.47zm-145-1.9c0-0.26 0.21-0.47 0.47-0.47s0.47 0.21 0.47 0.47c0 0.26-0.21 0.47-0.47 0.47s-0.47-0.21-0.47-0.47zm144-1.9c0-0.26 0.21-0.47 0.47-0.47 0.26 0 0.47 0.21 0.47 0.47 0 0.26-0.21 0.47-0.47 0.47-0.26 0-0.47-0.21-0.47-0.47zm54 0c0-0.26 0.21-0.47 0.47-0.47s0.47 0.21 0.47 0.47c0 0.26-0.21 0.47-0.47 0.47s-0.47-0.21-0.47-0.47zm-117-0.93c0-0.26 0.21-0.47 0.47-0.47 0.26 0 0.47 0.21 0.47 0.47 0 0.26-0.21 0.47-0.47 0.47-0.26 0-0.47-0.21-0.47-0.47zm-76-1.9c0-0.26 0.21-0.47 0.47-0.47 0.26 0 0.47 0.21 0.47 0.47 0 0.26-0.21 0.47-0.47 0.47-0.26 0-0.47-0.21-0.47-0.47zm-4.7-4.7c0-0.26 0.21-0.47 0.47-0.47 0.26 0 0.47 0.21 0.47 0.47 0 0.26-0.21 0.47-0.47 0.47-0.26 0-0.47-0.21-0.47-0.47zm77 0c0-0.26 0.21-0.47 0.47-0.47s0.47 0.21 0.47 0.47c0 0.26-0.21 0.47-0.47 0.47s-0.47-0.21-0.47-0.47zm-66-0.93c0-0.26 0.21-0.47 0.47-0.47s0.47 0.21 0.47 0.47c0 0.26-0.21 0.47-0.47 0.47s-0.47-0.21-0.47-0.47zm-13-7.5c0-0.26 0.21-0.47 0.47-0.47 0.26 0 0.47 0.21 0.47 0.47 0 0.26-0.21 0.47-0.47 0.47-0.26 0-0.47-0.21-0.47-0.47zm-9.4-4.7c0-0.26 0.21-0.47 0.47-0.47 0.26 0 0.47 0.21 0.47 0.47 0 0.26-0.21 0.47-0.47 0.47-0.26 0-0.47-0.21-0.47-0.47zm2.8-10c0-0.26 0.21-0.47 0.47-0.47s0.47 0.21 0.47 0.47c0 0.26-0.21 0.47-0.47 0.47s-0.47-0.21-0.47-0.47zm27 0c0-0.26 0.21-0.47 0.47-0.47 0.26 0 0.47 0.21 0.47 0.47 0 0.26-0.21 0.47-0.47 0.47-0.26 0-0.47-0.21-0.47-0.47zm-3.8-14c0-0.26 0.21-0.47 0.47-0.47s0.47 0.21 0.47 0.47c0 0.26-0.21 0.47-0.47 0.47s-0.47-0.21-0.47-0.47zm-371 281c1.3-0.57 0.41-0.79-3.3-0.77-3.9 0.021-4.6 0.2-2.8 0.77 3 0.97 3.8 0.97 6.1 0z"/><text transform="translate(-27 -123)" x="144.12617" y="663.52429" fill="#000000" font-size="29px" style="inline-size:583.437;line-height:1.1;white-space:pre" xml:space="preserve"><tspan x="144.12617" y="663.52429">Play as part of your Battle Plan in place </tspan><tspan x="144.12617" y="695.79091">of a weapon or defense. Your undialed </tspan><tspan x="144.12617" y="728.05751">forces return to your reserves. Your </tspan><tspan x="144.12617" y="760.32411">leader may still be killed normally. If </tspan><tspan x="144.12617" y="792.59071">your opponent calls Traitor, this effect </tspan><tspan x="144.12617" y="824.85732">is canceled. A Face Dancer called on </tspan><tspan x="144.12617" y="857.12392">your leader has no effect on your </tspan><tspan x="144.12617" y="889.39052">undialed forces. Do not use when on </tspan><tspan x="144.12617" y="921.65712">your Homeworld. Discard after use.</tspan></text><text transform="translate(112 194)" fill="#000000" font-size="33px" style="shape-inside:url(#rect2);white-space:pre" xml:space="preserve"><tspan x="0" y="0">Special</tspan></text></svg>
