<?xml version="1.0" encoding="UTF-8"?>
<!-- Created with Inkscape (http://www.inkscape.org/) -->
<svg width="822" height="1122" version="1.1" viewBox="0 0 822 1122" xml:space="preserve" xmlns="http://www.w3.org/2000/svg"><path d="m89 1e3c-4.5-1.3-6.7-2.9-8.9-6.5l-2.2-3.5 0.053-461c0.029-254 0.072-465 0.096-469 0.042-7.1 0.16-7.4 4-12l3.9-4.2 320-0.26c237-0.19 321 0.035 323 0.87 1.5 0.62 4.1 2.7 5.7 4.5l3 3.4-2e-3 469c-2e-3 460-0.037 469-1.9 472-1.1 1.7-3.4 4-5.2 5.1-3.5 2.1-634 3.6-641 1.5zm44-8.3c0-4.6-0.35-5.9-1.8-6.4-5.7-1.9-13-6-18-9.5l-5.4-4-11 11c-15 15-16 14 16 14h21zm219 0.45 0.3-5.2-4.3-0.017c-2.4-0.01-51-0.012-108-0.01l-104 0.012-0.32 3.1c-0.18 1.7-0.085 4.1 0.21 5.3l0.53 2.1 215-0.15zm36 1.1c6-20 35-20 40 1 0.47 1.9 1.3 2.8 2.9 2.8 3.9 0.12 13 0.13 21 0.03l7.7-0.096 0.69-10h-19l-33-16-30 15h-22l-0.31 4.4c-0.51 7-1 6.8 16 6.6l15-0.2zm290-0.96-1e-5 -5.2-42-0.27c-23-0.15-71-0.15-108-6e-4l-66 0.27v4.9c0 6.2-13 5.5 110 5.5h105zm50 4.1c1.6-0.92 0.38-2.5-10-13l-12-12-2.5 2.3c-4.5 4.1-12 8.6-18 10l-5.3 1.7v5.2c0 4.7 0.24 5.3 2.2 5.6 5.8 0.83 43 0.18 45-0.77zm-304-1.7c-5-16-25-18-33-3.7-3.1 6-3.2 5.9 16 5.9h18zm309-3c1.7-4.3 0.77-47-0.97-47-0.99-0.021-3.4-0.28-5.5-0.57-3.5-0.51-3.7-0.38-4.9 3.3-2 6-5.9 13-9.6 18l-3.4 4.1 11 11c12 12 12 12 13 11zm-648-1.5c1-0.96 6.2-6 11-11l9.6-9.3-3.9-5.2c-4.2-5.6-8.4-14-9.4-18-0.6-2.5-1-2.7-6.1-2.7h-5.5l-0.029 10c-0.016 5.6-0.092 15-0.17 22-0.18 15 0.55 18 4 14zm307-15c8.3-4.1 15-7.5 16-7.5s7.3 3.4 16 7.5l15 7.5h245l8.3-4.2c11-5.4 19-14 25-25l3.8-7.7 0.51-804h-23l-1.2 6.7c-11 65-111 63-121-2.2l-0.68-4.5h-480l-0.016 74c-0.0088 41-0.015 221-0.014 400l0.0023 327 2.1 5.6c4.9 13 14 23 27 30l7.9 4h245zm-301-41c0.0089-3.4 0.022-192 0.03-419l0.014-412-11-0.58 0.2 417c0.11 230 0.22 418 0.25 419 0.037 1.4 0.97 1.8 5 1.8h5zm643-413 0.027-419h-11v838h11zm-84-328c31-6 52-43 42-74-19-61-110-49-113 14-2.1 39 31 67 71 60zm-57-83c28-43 94-24 94 28 0 34-31 54-58 50-30-2.9-58-37-36-78zm65 71c38-19 35-74-5.4-88-15-5-24-4.2-40 3.8-8.2 4-20 19-21 27-0.31 1.7-0.84 3.6-1.2 4.2-2.1 3.5-0.76 20 2.2 27 0.73 1.6 2.1 4.6 2.9 6.6 9.2 20 41 30 63 19zm-563-87c2-5.8 6.1-13 9.9-17l2.6-2.8-11-11c-14-13-14-13-14-0.13-0.0087 5.4-0.065 15-0.12 21-0.16 17-0.75 15 5.7 15l5.6-0.3zm640-18c-0.38-28 0.58-27-13-13l-12 12 2.6 2.8c3.3 3.6 8 12 9.6 17 1.8 5.7 1.6 5.5 7.6 5.5h5.5zm-310-11 15-7.5h20l0.35-5.1c0.44-6.5 1.9-5.9-15-5.9h-15l-1.5 3.8c-3.9 9.9-9.1 14-18 15-11 0.89-20-5.7-23-17-0.38-1.3-2.8-1.5-16-1.5l-15 0.05v10l23 1 14 7.2c17 8.7 13 8.8 31-0.2zm-310 2.5c2.9-2.2 8.3-5.2 12-6.7l6.8-2.7v-5.3c0-6.8 0.7-6.6-25-6.2-26 0.43-26 0.015-12 13 5.8 5.6 11 11 11 11 0.63 1.4 2.1 0.75 7.4-3.3zm614-19c-0.65-0.65-9.4-1-24-1h-23v11l5 1.7c5.5 1.9 12 5.7 17 9.6l3 2.5 11-11c7.7-7.7 11-11 10-12zm-314 13c5.1-2.6 11-9.3 11-13 0-0.3-7.9-0.54-18-0.54-19 0-19 0.02-16 4.8 4.3 8.3 15 12 23 8.6zm-62-3.4-0.24-10h-215l-0.1 3.5c-0.22 7.7-5.5 7 55 7.3 30 0.14 74 0.16 98 0.029s48-0.24 53-0.25zm281 0.02 45-0.021v-11l-106 0.037c-122 0.043-109-0.62-109 5.9l0.35 5c57 0.7 113 0.09 170 0.042zm-94 501c-0.13-0.13-95-0.43-212-0.66-233-0.47-215 0.057-221-6.5-1.6-1.8-3.6-4.7-4.4-6.6-1.5-3.8-1.5 10-0.47-190 0.74-141 0.46-135 6.6-141 6.8-6.6-9.6-6.2 184-5.5 224 0.79 374 1.6 390 2.1 8 0.24 13 0.87 16 1.8 4.5 1.9 9.1 7.4 10 12 0.67 2.6 1 57 1.1 162 0.084 155 0.042 158-1.8 162-2.3 4.4-5.6 7.4-11 9.5-3.3 1.4-12 1.5-80 1.2-42-0.17-77-0.42-77-0.55zm154-2.3c5.5-1.4 12-6.5 13-11 0.59-1.8 1.1-7.5 1.1-13v-9.5l-8-0.019c-33-0.079-129-1.1-132-1.4-2-0.21-5.4-0.41-7.5-0.44-2.1-0.03-3.5-0.3-3.2-0.6 0.96-0.96 12-1.5 34-1.7 16-0.13 21-0.47 22-1.4 0.22-0.66-0.018-1.2-0.53-1.2-0.51 0-1.2-0.88-1.4-1.9-0.63-2.4 1-8.6 2.3-8.6 0.51 0 0.92-0.89 0.92-2 0-2.6 1.3-1.7 3.2 2.3 1.3 2.8 1.4 3.8 0.25 8l-1.3 4.8 5.6 0.2c5.5 0.2 8.4-1.2 5.8-2.8-0.67-0.41-0.94-1.2-0.59-1.8 0.34-0.55 0.23-1.2-0.24-1.5-1.2-0.72 1.3-10 2.7-10 0.82 0 2.6 5.1 3.4 9.8 0.45 2.6 0.24 3.6-0.88 4.1-4.2 1.6-0.44 2.4 11 2.4 12 0 16-0.75 12-2.1-0.79-0.3-1.2-1.1-0.99-1.8 0.24-0.68 0.65-3.2 0.92-5.5 0.53-4.7 1.9-6.8 3.4-5.3 1.3 1.3 3.1 11 2.4 13-0.52 1.6 0.86 1.7 23 1.7l24 0.026v-29h-43c-28 0-43-0.34-43-0.96 0-1.1 7.4-1.3 52-1.4 18-0.032 33-0.32 33-0.63 0.32-0.32 0.56-58 0.55-129-0.02-93-0.33-129-1.1-133-1.4-5.4-6.9-11-12-13-3.7-1-53-1.4-325-2.5-69-0.28-152-0.76-186-1.1l-61-0.55-5.3 2.4c-5.8 2.6-9.7 6.9-11 12-0.58 2.1-1 39-1.1 94l-0.17 91 5.7-3.2 7.8 6.5c8.5 7.1 9.8 7.7 20 9.4 5.7 0.9 7.8 1.7 9.9 3.8l2.7 2.7 11-3.1c11-3 11-3.1 15-1.4 1.8 0.91 3.8 2.1 4.4 2.6 1.3 1.1 17 5 20 5 1.1 0.019 3.1 0.62 4.3 1.3 2.3 1.3 2.3 1.3 0.29 1.9-1.1 0.36-4.2 2.9-6.7 5.7l-4.7 5.1-45-0.32c-25-0.18-45-0.21-45-0.067-0.034 0.14-0.29 21-0.58 47-0.58 53-0.46 54 5.4 59 2 1.8 5.1 3.7 6.9 4.3 2.2 0.68 81 1.2 244 1.5 133 0.27 240 1.2 241 1.2 1.3 7e-3 87 0.38 90-0.31zm-384-39c-10-0.34-14-0.75-13-1.4 1.2-0.58 26-0.91 65-0.86 52 0.069 64 0.31 66 1.5 2.9 1.2-2.8 1.4-50 1.3-30-0.024-60-0.26-68-0.53zm122-7.4c1.1 4-15-10-15-12 0-0.46 1.1-0.42 2.5 0.097 3.4 1.3 24 1.2 31-0.16 7-1.2 15-4.8 18-7.6 1.3-1.4 2.5-1.7 5.3-1.3 2.4 0.38 4.6 0.052 6.6-0.95 8.4-4.3 8.6-27 0.23-32-2.1-1.2-2.9-2.4-2.9-4.3-2e-3 -1.4-0.9-4.1-2-5.8-1.1-1.8-1.8-3.4-1.7-3.5 0.61-0.6 9.7 8.5 12 12 1.2 1.9 2.8 5.6 3.5 8.1 1.4 5.2 2.9 5.2 2.9 0.095v-3.4l7 0.6c3.9 0.33 10 1.2 14 2s6.9 1.4 7.1 1.4 0.17 2.1 0.035 4.6c-0.13 2.5 0.11 6.4 0.53 8.6 0.71 3.7 0.56 4.2-1.9 5.8-4.7 3.1-9.3 4.1-21 4.8-6.1 0.33-12 0.95-12 1.4-0.47 0.43-0.58 1.5-0.23 2.4 0.55 1.4 2 1.6 12 1.2 13-0.49 20-2.3 24-6 2-1.7 4-2.4 6.8-2.4 3.3 0 4.3-0.5 6.4-3.2 1.4-1.8 2.5-3.7 2.5-4.4s0.76-1 1.7-0.87c1.8 0.3 2-0.43 2.4-9.8l0.25-5.3 5.3-0.093c5-0.088 16 1.6 20 3 0.99 0.39 1.8 2.3 2.3 5 0.36 2.4 0.88 5 1.1 5.7 0.71 1.8-6.4 5.1-13 6-3.1 0.42-8.6 0.51-12 0.2-4.9-0.41-6.8-0.24-7.1 0.68-1.1 2.8 0.62 3.9 7.3 4.5 10 1 21-1.4 26-5.9 0.92-0.8 2.4-1.2 3.5-0.82 3.3 1 6.7-1 8.5-5.1 0.94-2.1 2.1-3.6 2.5-3.4 1.1 0.7 2.7-3.9 2.7-8v-3.4l6.1 0.67c3.3 0.37 6.6 1.2 7.2 1.8 0.61 0.61 1.4 3.4 1.8 6.2 0.67 5.1 0.67 5.1-2.6 6.4-1.8 0.74-6.2 1.6-9.8 2-5.4 0.57-6.5 0.99-6.5 2.4 0 2.4 3 3.1 8.9 2.3 5.8-0.79 11-2.6 12-4.7 0.69-0.82 2.4-1.5 3.8-1.5 3.5-0.02 4.6-0.91 6.3-4.8 1-2.3 1.5-2.7 1.5-1.4 0.029 3.4-3.5 9.5-7.8 14-7.3 7-18 9-26 5-3.7-2-3.8-2-5.3-0.22-3 3.6-7.6 6-15 7.9-11 2.8-20 2-26-2.5l-3.2-2.4-6 5.9c-3.3 3.2-8.2 7.1-11 8.5-4.5 2.5-5.6 2.6-15 2.5-11-0.11-15-1.3-21-5.4-1.4-0.98-2-0.83-3.9 0.87-3.6 3.3-12 7.7-18 8.8-7.3 1.5-30-5.6-28-0.53zm60-38c0.33-0.53 0.14-0.96-0.43-0.96-0.56 0-1 0.43-1 0.96s0.19 0.96 0.43 0.96 0.7-0.43 1-0.96zm-265 26c-7.1-1.1-15-4.2-20-7.6-4.7-3.4-9.5-12-10-20-1.2-9.4 2.5-21 9.1-28 3.7-3.9 4.5-3.2 1.7 1.5-3.8 6.4-6.3 15-6.3 21 0 3 0.33 5.8 0.73 6.2 0.4 0.4 0.75 1 0.77 1.4 0.13 1.9 4.6 8.9 6.3 9.8 2.3 1.2 2.6-0.16 0.48-2.3-1.9-1.9-3.4-5.9-4.3-12-2.8-18 18-46 44-60 5.5-3 29-12 29-11 0 0.26-1.7 2.5-3.7 4.9-12 14-23 37-24 49-0.3 3.7-0.19 4 0.93 2.4 0.7-1 1.6-3.4 1.9-5.2 0.86-4.7 11-26 17-34 2.5-3.7 6.6-9.2 9.2-12 4-4.6 5.2-5.5 7.9-5.5 3.6 0 22 3.3 30 5.2 11 2.9 27 7.7 31 9.5 28 12 47 25 53 35 2.2 3.5 2.7 5.4 2.7 10 0 7.5-1.6 11-7.6 18-10 11-23 15-54 16-36 1.6-51 1.5-73-0.52l-13-1.2-2.4 2.6c-4.8 5.2-14 7.4-25 5.7zm94-25c0.88-1.7 3.2-5.9 5.1-9.4 8-14 14-27 14-31 0-3-2.3-4.9-5.1-4.2-2.3 0.59-9.4 10-12 16-3.2 7.7-7 28-5.6 31 0.87 1.4 1.9 0.68 3.5-2.4zm36-6.3c11-15 15-24 11-27-4.7-3.9-13 7.3-17 23-3.3 13-1.5 14 5.7 4.1zm-62-24c10-14 11-16 11-20 0-4.1-1-5.2-4.2-4.4-2 0.53-10 7.6-10 8.8 0 0.3-1 2.2-2.3 4.1-4.4 6.9-11 30-11 37 0 3.3 0.51 2.6 5.8-7.7 3.2-6.2 8-14 11-18zm-74 21c0.78-5.8 3.6-15 6.3-20 1.9-3.7 2.7-7.8 1.5-7.8-2.9 0-6.4 4.7-8.3 11-2.4 8.2-3 24-0.83 22 0.4-0.24 1-2.6 1.4-5.2zm12-0.78c2.1-7.9 5.1-15 12-27 5-8.8 6-11 5.3-13-0.88-2-0.99-1.9-4.4 1.1-6.5 5.6-14 25-16 39-0.84 7.4 0.81 7.5 2.8 0.16zm-20 1.5c-0.42-0.68 0.91-6.2 3.3-14 0.77-2.5 0.7-3.1-0.32-3.1-2.1 0-5.3 7.8-5.3 13 0 5.4 0.88 8.2 2 6.4 0.42-0.68 0.56-1.6 0.31-2zm205 29c-2.3-0.75-5.2-2.3-6.3-3.3-1.9-1.8-2.8-1.9-9-1.2-3.8 0.41-9 0.48-12 0.17l-4.7-0.56 3.4-1.8c5.5-2.9 11-7.9 13-12 1.1-2 2.5-4.5 3.1-5.6 0.61-1.1 1.8-3.5 2.5-5.5 0.87-2.2 1.9-3.4 2.7-3.1 0.7 0.25 9.3 0.64 19 0.86 17 0.39 26 1.6 32 4.5 2.2 1 2.5 1.8 3 8.5 0.32 4 0.7 8.4 0.84 9.6 0.33 2.9-2.7 5.2-10 8-7.6 2.7-31 3.6-38 1.4zm-286-11c-17-1-4.9-1.8 27-1.6 24 0.12 33 0.48 33 1.3 0.38 1.1-42 1.4-60 0.33zm330-22c-7-3-18-4.4-35-4.5-15-0.048-17-0.22-16-1.6 1.2-2.9 13-12 19-16 5.7-3 6.7-3.1 16-3.2 9-0.025 11 0.24 15 2.3 5.9 3.2 8.6 5.7 11 9.9 2 3.8 2.5 8.5 0.88 8.5-0.53 0-2.2 1.3-3.7 2.9s-2.9 2.9-3.2 2.8-1.9-0.73-3.7-1.5zm53-2.5c-2.9-0.98-9.8-2-15-2.4l-10-0.59-1.4-3c-0.79-1.7-3.4-5-5.7-7.5-4-4.1-4.2-4.6-2.6-5.9 3.6-3.2 10-5.4 17-5.4 12-0.042 22 4.3 27 12 3.7 6.5 3.8 8.4 0.26 12l-3.1 2.9zm20-0.25c-0.87-1.3-2.1-2.4-2.8-2.4-0.68 0-1.9-2.1-2.7-4.6-0.82-2.5-1.9-5.4-2.3-6.5-0.68-1.7-0.43-1.6 1.9 0.48 3.1 2.8 3.6 3.7 6.3 10 2.2 5.5 2.1 6.2-0.34 2.5zm48 0.22c-0.43-1.5-1.6-3.1-2.6-3.6-1-0.53-1.8-1.7-1.8-2.5 0-0.86-1.8-4-4.1-6.9-2.2-3-3.2-4.8-2.2-4 7.7 5.7 12 13 12 17l-0.35 2.6zm33 0.37c0-1.2-1.3-3.3-2.9-4.7-1.6-1.4-2.9-3.2-2.9-4 0-0.82-1.4-3.2-3.1-5.3l-3.1-3.8 3.3 1.9c5.9 3.4 12 15 9.8 17-0.62 0.62-0.95 0.18-0.95-1.3zm-53-0.66c-2.4-0.77-8.5-1.5-14-1.6l-9.2-0.2-2.2-5.3c-1.2-2.9-2.3-5.9-2.4-6.6-0.33-2.4 9.7-7 17-7.5 6-0.49 6.6-0.35 11 2.7 5.3 3.5 11 11 11 13 0 0.96-0.9 2-2 2.3s-2.2 1.4-2.5 2.5c-0.61 2.3-1.2 2.4-7.1 0.48zm35-1.9c-2.7-0.65-6.2-1.2-7.8-1.3-2.5-0.077-3.2-0.71-4.6-3.9-0.92-2.1-3.4-5.3-5.5-7.2l-3.8-3.4 2.9-1.5c4.7-2.4 12-2 17 1 6.4 3.6 8.7 6 10 9.8 1 3 0.89 3.5-1.2 5.5-2.1 2-2.6 2.1-7.1 0.95zm-194-8.7c-1.1-2.5-2-4.8-2-5.2 0-0.86-7.3-7.7-12-11-23-18-55-30-91-36-15-2.5-18-2.6-25-0.39-3.7 1.1-7.7 2.3-8.7 2.6-1.6 0.46-1.7 0.33-0.73-0.72 0.67-0.71 1.2-2.1 1.2-3 0-2.2-3.6-2.3-6-0.14-3.2 2.9-2.2-1.8 1.1-4.9 2.2-2.1 4-2.8 8.1-3.2 4.7-0.39 5.7-0.88 9.5-4.8 3.8-4 17-14 18-14 0.32 0 0.57 4.2 0.57 9.2 0 8.7 0.15 9.4 2.4 11 5.1 4.1 14 0.63 29-12 22-18 31-24 43-27 7.4-2.1 19-3.1 20-1.7 0.37 0.6 1.3 1.1 2 1.1 2.4 0 11 4.2 26 13 7.3 4.3 21 15 21 17 0 0.91 1 1.4 2.9 1.5 1.6 0.053 5 0.4 7.5 0.78 4.9 0.73 6-0.28 2.4-2.2-2.3-1.2-4.7-1.8-7.7-2-0.93-0.04-1.7-0.72-1.7-1.5 0-0.79-0.33-1.4-0.73-1.4-0.4-1e-3 -2.3-1.3-4.1-2.9-5.9-5-20-14-28-18-8.6-4.3-8.1-4.7 2.7-2 12 3.1 28 12 42 24 6.7 5.8 7.6 7 5.2 7-0.8 0-1.5 0.46-1.5 1 0 0.57-0.79 0.78-1.8 0.47-2.4-0.77-5.8 3-7.3 8.3-2.3 7.8 0.98 12 5.8 7.4 2-1.9 2.5-2 3.3-0.81 2.1 3.2 2.8 8.2 1.8 12-1.4 5.1-2.5 6.2-6.1 6.3-4.6 0.052-13 2.4-19 5.1-11 5.1-19 13-25 26l-3.4 7zm-5.6-40c2-0.85 3.6-1.8 3.6-2.2s1-1.9 2.3-3.3c6.4-7.4 5.7-18-1.5-24-3.5-2.5-4.8-2.9-11-2.9-9 0-15 3.2-19 9.3-2.2 4.2-2 4.4 1.5 1.1 1.7-1.6 4.4-3.5 6-4.4 3.9-2 14-2.8 18-1.3 5 2.1 6.5 11 3.1 18-1.7 3.7-2.7 4.5-8.7 7.2-3.7 1.7-6.8 3.4-6.8 3.9-7e-3 1.1 7.5-0.12 12-2zm-12-3.6c7.9-4 5-18-3.7-18-4.6-0.13-7.7 2-8.9 6.1-1.3 4.4-0.51 8 2.6 11 2.7 2.6 6.1 3 10 0.93zm249 45c-0.37-0.97 0.041-1.4 1.2-1.4 0.99 0 2.1 0.65 2.4 1.4 0.37 0.97-0.041 1.4-1.2 1.4-0.99 0-2.1-0.65-2.4-1.4zm-218-8.1c5.7-10 17-18 31-21 7.5-1.5 5.6-1.6 52 1.9 9.9 0.76 28 2.1 41 3 13 0.89 23 2 24 2.4 1.3 1.2-5.2 6.8-7.1 6.2-7.3-2.3-19-0.18-24 4.3l-2.4 2.2-3.2-2.3c-3-2.2-5-3.1-15-6.9-13-5.1-30-3.2-38 4.4-2 1.9-2.3 1.9-5.5 0.39-6-2.8-16-5.5-22-5.9-10-0.67-20 2.7-28 10l-4.3 3.9zm243-15c-0.29-0.47 0.079-1.4 0.83-2 1.5-1.2 3.1 0.19 2 1.9-0.74 1.2-2.1 1.2-2.8 0.11zm-21-1.8c-0.43-2 2.1-7.9 3.4-7.9 0.47 0 1.7 0.45 2.7 1 1.8 0.96 1.8 1.2-1.2 4.8-3.4 4.2-4.4 4.6-4.9 2.1zm-67-1.2c-4-0.4-15-1.3-24-1.9-9.3-0.65-18-1.3-19-1.5-1.1-0.17-4.1-0.34-6.7-0.38-4.7-0.071-4.7-0.085-3-2 4.6-5 2.2-19-5-30-5.7-8.3-21-20-36-28-4.4-2.2-4.8-2.7-5.9-7.7-0.86-3.8-2-6-4-7.7-2.3-1.9-5.6-7.3-4.4-7.3 0.43 0 12 4.7 17 6.9 25 11 42 25 50 42 4.4 9.6 5.3 18 2.9 26-1.1 3.7 1.1 2.4 3.3-2 1.2-2.3 2.1-4.7 2.1-5.3 0-1.7-1.7-1.9 41 4.6 6.8 1 13 2.1 13 2.3 0.48 0.48-1.3 4.1-3.5 7-2 2.6-6.3 5.3-8.4 5.1-0.95-0.07-5-0.45-9-0.85zm-71-11c0.44-4.8 1.1-6.3 3.7-9.1 4.8-5 5.4-14 0.96-14-2 0-5.4 3.9-6 7-0.55 2.7-1.7 3.4-2.7 1.7-0.85-1.4-3.4-1.2-3.4 0.24 0.012 0.66 0.87 2.3 1.9 3.6 2.1 2.7 2.7 12 0.86 14-0.93 0.92-13 0.72-14-0.23-0.18-0.16 0.15-1.2 0.73-2.2s1-3.7 1-5.8c0-3.2 0.34-3.9 2.2-4.2 2.7-0.39 6.5-6.9 6.5-11 0.016-3.1 0.051-3.1 4.8-3.1 4.2 0 6.9-1.2 5.6-2.5-1.2-1.2-7.2-1.1-9 0.071-1.4 0.92-2.4 1-3.1 0.35-2.6-2.6-7.9 4.3-8 10-0.053 2.5-0.14 2.5-1.2 0.81-0.63-1-2-2.8-3.1-3.9-1.1-1.1-2-3.4-2.1-5.1-0.19-2.8 0.042-3.1 2.9-3.2 3.4-0.18 6.6-0.45 7.7-0.66 2.1-0.38-5.7-8.8-14-16-2.1-1.6-4.4-3.5-5.2-4.1-0.8-0.65-4.1-2.8-7.2-4.8-6.6-4.1-6.5-4.1 3.4-2.1 17 3.6 44 22 51 36 3.7 7.2 4.3 16 1.5 20-1.9 3-2.2 3.1-8.7 3.1h-6.7zm-31 2.8c-3.5-0.36-6.9-0.41-7.7-0.12-1 0.4-1.2 0.072-0.59-1.3 2.5-5.9 2.7-8.7 1.1-14-0.9-3.1-2.4-6.3-3.4-7.1-1.4-1.2-1.7-2.4-1.3-5 0.71-4.5 1.6-5 7.8-4.5 5 0.44 6.9-0.66 3.2-1.8-1-0.32-5.3-4-9.4-8.1-7.7-7.6-16-14-24-18-5.2-2.6-4.1-3 3.1-1.1 4.2 1.1 15 6.5 16 8.4 0.27 0.34 1.6 1.2 2.9 1.9 2.9 1.5 14 10 20 15 3.4 3 3.6 3.4 1.8 3.4-1.2 0.02-2.4 0.49-2.7 1-0.34 0.55-1.5 0.73-2.5 0.4-1-0.33-2.5-0.071-3.3 0.57-3.5 2.9-6 13-3.9 16 1.6 2.1 5.2 0.98 6.6-2.1 0.98-2.1 1.2-2.2 2.7-0.83 2.8 2.5 4.3 9.5 3 14-0.62 2.1-1.4 3.9-1.8 4.1-0.38 0.18-3.5 0.039-7-0.32zm100-11c-11-1.7-22-3.4-25-3.8-5-0.62-5.6-0.94-6.1-3.3-2.3-10-7-20-13-26-2.9-3.2-2.2-3.2 7-0.76 3.8 1 17 4.3 29 7.2 15 3.6 23 5.9 24 7 3 3.6 7.4 14 7.8 19 0.54 5.6 3.1 5.5-23 1.3zm123-6.8c0.61-1.6 2.8-1.9 3.7-0.58 0.29 0.47-0.15 1.1-0.99 1.4-2.5 0.94-3.3 0.68-2.7-0.86zm-392-15c3.4 0-0.5-17 1.9-25 1.1-3.4 3.4-8.6 5.2-12l3.2-5.3 10 0.28c5.7 0.16 11-0.12 11-0.62 0.95-1.5-5.8-4-11-4.3-5.8-0.23-6.6-1.2-3.3-4.2 1.9-1.7 3.5-1.8 17-1.6l15 0.24-2.4-2c-3.8-3.1-6.3-3.8-14-4-4-0.12-7.2-0.47-7.2-0.79 0-1.2 12-7.7 15-8.2 1.9-0.29 4.7-0.88 6.3-1.3l2.9-0.79-4.8-1.9 2.1-1.1c2.8-1.5 2.8-4.7-0.036-5.8-2-0.78-2.1-0.88-0.35-1.6 3.4-1.4 5 0.79 4.8 6.6-0.18 5.3-0.15 5.3 2.9 6 18 3.7 24 8.7 27 21l0.77 4-6.3 1.1c-11 1.8-22 6.8-31 13-1.9 1.4-3.6 2.7-3.9 3-0.27 0.28-4 3.3-8.2 6.7-4.3 3.4-10 8.1-13 10-5.5 4.4-14 8.9-17 8.9-0.95 0-4.1-2.1-2.8-2.1zm15-10c3.2-0.63 7.2-3.7 8.7-6.6 0.54-1.1 1.3-3.8 1.6-6 1.7-11-7.9-17-17-11-2.5 1.6-5.4 9.3-5.4 14 0 3.8 4.9 9.1 8.8 9.6 0.33 0.042 1.9-0.18 3.5-0.5zm-1.2-5.1c0.83-1.6 1.5-3.8 1.5-5 0-3.5-2.9-8.5-5.2-8.9-1.9-0.34-1.9-0.45 0.63-1.5 4.1-1.7 7.1-1.4 9.4 0.99 3.7 3.9 0.96 13-4.9 16l-2.9 1.5zm366 13c0-0.47 0.69-2.2 1.5-3.9 1.1-2.2 2.2-3 3.9-3 4.2 0 2.4 3.8-3.2 6.7-1.2 0.62-2.2 0.74-2.2 0.27zm-105-2.6c-3.9-1.4-11-3.2-39-10-19-4.7-20-5-26-9.5-8.7-6.8-23-15-30-17-1.2-0.39-2-0.9-1.8-1.1 0.25-0.25 6.7 1.1 14 2.9 7.6 1.9 18 4.3 24 5.4 16 3.2 29 8.2 47 18 5.6 3 6.9 2.5 2.4-0.88-11-8.3-31-17-44-20l-3.7-0.64 2.6-2.7c4-4.1 11-6 20-5.5 4.5 0.26 8.2 0.99 9.2 1.8 0.91 0.75 1.8 1.2 2 1 0.67-0.6 6.5 2.1 10 4.6 6.9 4.9 11 11 13 17 0.9 3.3 1.4 7.6 1.2 9.6-0.36 2.8-6e-3 4.2 1.5 5.9 2.2 2.4 1.7 2.5-3.2 0.71zm-1.9-7.6c0-0.23-0.44-0.69-0.97-1-0.53-0.33-0.97-0.14-0.97 0.42 0 0.56 0.44 1 0.97 1s0.97-0.19 0.97-0.42zm15-14c-0.88-1.6-0.74-1.9 0.93-1.9 1.3 0 2 0.63 2 1.9 0 1.1-0.42 1.9-0.93 1.9s-1.4-0.87-2-1.9zm-122 0.4c-0.31-0.31-3.8-1.1-7.7-1.7l-7.1-1.2-0.97-3.9c-0.53-2.1-1.5-4.6-2.2-5.4-2.1-2.5-0.065-2.5 8 0.15 6.4 2.1 8.1 3.1 9.9 5.8 1.2 1.8 2.2 4.1 2.2 5.1 0 1.7-1.1 2.3-2.2 1.2zm-26-5.3c-3.5-0.91-16-3.3-31-6.2-4.8-0.91-9-1.9-9.4-2.3s-0.96-2.4-1.3-4.5c-0.33-2.1-1.2-5.1-2-6.6-0.76-1.5-1.3-2.9-1.1-3.1 0.16-0.16 4.3 1 9.2 2.6 4.9 1.6 9.7 2.8 11 2.8 2.7-0.01 20 4.8 23 6.5 3.7 1.8 6.6 5.5 7.1 8.9 0.4 2.8-0.91 3.2-6 1.8zm66-8.5c-0.83-0.48-7.8-2.2-15-3.9-23-4.8-27-6-27-6.9 0.3-0.48 2-1.5 3.9-2.3s3.3-2 3.3-2.7c0-1.9 4.9-6.1 8-6.9l2.7-0.62 0.076-15c0.11-21 0.36-27 1.2-28 0.39-0.39 0.76 1.9 0.83 5s0.25 8.7 0.4 12c0.15 3.7 0.31 11 0.36 17 0.071 8.4 0.36 10 1.5 10 1.9 0 7.8 6.1 9.2 9.6 0.69 1.7 2.6 3.4 4.9 4.4 4.2 1.9 11 8.2 8.7 8.2-0.77-0.016-2.1-0.42-2.9-0.91zm-121-7.5c-1-3.6-2.9-7.6-4.1-8.9-1.2-1.3-2.1-2.5-1.9-2.6 0.71-0.7 10 3.1 12 4.8 1.8 1.7 5.1 9.6 5.1 12 0 0.43-2.1 0.79-4.6 0.79h-4.6zm68 4.4c-1.6-0.51-3.8-1.1-4.8-1.3-1.1-0.22-5.2-1.3-9.2-2.4-4-1.1-11-3-16-4.2-7.6-1.9-8.7-2.5-9-4.5-0.2-1.3-1.1-3.1-1.9-4.1-2.3-2.5-1.3-2.4 17 2.2 9.2 2.3 17 3.7 18 3.3 1.3-0.51 1.5-0.85 0.49-1.4-1-0.64-0.98-2.7 0.29-11 0.86-5.7 1.7-11 1.9-11 1.1-1.1 2.3 22 1.2 24-0.47 0.74 0.29 1.7 2.1 2.6 3.2 1.6 6.9 5.9 6.9 7.9 0 1.5-3 1.6-7.3 0.23zm72-10c0-1.1 3.8-2.4 4.6-1.5 0.73 0.72-1.7 2.4-3.4 2.4-0.67 8e-3 -1.2-0.39-1.2-0.88zm-120-1.9c-0.73-0.46-1.1-1.2-0.84-1.7 0.7-1.2-0.96-5.2-2.2-5.2-0.55 0-1 1-1 2.2 0 3-0.63 3.5-3.7 2.5-1.4-0.46-8.1-2.2-15-3.9-14-3.5-14-3.8-4.8-8.1 3-1.4 5.8-3 6.2-3.6 0.38-0.59 0.98-4 1.3-7.6 0.35-3.6 1-6.5 1.5-6.5 0.46 0 0.84 2.9 0.84 6.5 0 6.9 0.95 8.9 4.2 8.9 1 0 3.5 1.7 5.5 3.9 6.6 7.1 6.7 6.6 8.4-32 0.35-8.1 1-15 1.5-15s0.83 6.4 0.85 14c0.018 7.8 0.28 18 0.58 24 0.31 5.3 0.15 10-0.39 11-0.64 1.1-0.52 2.5 0.38 4.2 2.7 5.2 0.82 8.6-3.4 6zm189-3.4c0 0.34 0.7-1.7 1.6-3 1.5-2.3 6.2-3.4 6.2-1.5 0 1.1-2.8 3.9-3.9 3.9-0.45 0-1.5 0.26-2.4 0.58-0.84 0.32-1.5-0.37-1.5-0.034zm-46-3.1c-1.4-0.96-2.1-2.3-1.9-3.6 0.24-1.7 0.84-2 3.2-1.7 3.7 0.42 3.5 0.24 2.8 3.8-0.7 3.5-1.1 3.6-4.1 1.5zm-245-206 9.4e-4 -3.6-19 0.66v-6.2l13 0.8-0.58-6.8-6.1 0.33c-6 0.33-6.1 0.3-6.1-2.2v-2.6l18 0.61-2e-3 -6.7-11 0.33c-6.9 0.21-11-0.024-11-0.67 0-0.68-0.92-0.68-2.9 0.02-2.1 0.74-2.8 1.5-2.4 2.7 0.59 1.9 0.9 22 0.37 24-0.28 1.1 1.9 1.4 12 1.4 6.7 0.046 13 0.41 13 0.81 1.6 1.5 2.3 0.57 2.3-2.9zm26 1.1c3.6-1.4 5.5-5.2 4.6-9.1-1-4.7-4.2-6.3-14-7-9.1-0.66-8.5-4.6 0.7-4.6 4-0.036 6 0.43 7.5 1.7 1.9 1.7 2 1.7 3.8-0.6 1-1.3 1.9-2.7 1.9-3 0.054-1.6-11-4.7-15-4.3-5.4 0.59-10 2.5-11 4.5-1.3 5.3 0.73 11 4.2 12 1.1 0.27 4.8 0.8 8.3 1.2 5.4 0.59 6.3 0.95 6.3 2.6 0 1.7-0.74 2-5.7 2.2-4.7 0.24-6.3-0.098-8.6-1.8-1.5-1.1-2.9-1.9-3-1.7-0.56 0.99-2.5 7-2.3 7.1 0.12 0.11 3.1 0.83 6.5 1.6 6.7 1.5 11 1.3 16-0.8zm66-2.6c-2.1 0-0.95-2.1-10-1.8l-9.7 0.3v-6.1l13 0.65-2e-3 -3.7c-2e-3 -2.9-0.28-3.5-1.2-2.8-0.67 0.54-3.4 0.91-6.1 0.84-4.5-0.13-4.8-0.32-4.8-2.5 0-2.4 0.072-2.4 9.2-2.5l9.2-0.13 0.57-6.5-12 0.28c-6.5 0.15-12 0.37-13 0.48-0.92 0.15-1.3 3.7-1.5 14l-0.22 14 13 0.27c14 0.28 19-4.4 14-4.4zm-213 1.6c-1.1-2.8 2.2-4.7 8.1-4.7 5.4 0 5.7 0.12 6.6 2.9 0.52 1.6 1.1 3.1 1.2 3.3 0.22 0.33 4.6 0.45 7.9 0.21 0.88-0.064 0.23-2-2.1-6.1-1.8-3.3-4.7-8.6-6.5-12-1.7-3.1-2.9-6.4-2.7-7.4 0.38-1.5-0.39-1.9-4.3-2.8-2.6-0.56-5-1-5.2-1-0.24 0-0.44 1.3-0.44 2.9 0 1.6-0.42 2.9-0.94 2.9s-0.7 0.61-0.42 1.3 0.054 1.6-0.51 2c-0.57 0.35-1 1.4-1 2.4s-0.87 2.5-1.9 3.5c-1.1 0.96-1.9 2.5-1.9 3.5s-0.38 2-0.85 2.2-1.1 1.5-1.3 2.7c-0.26 1.2-0.78 2.9-1.2 3.8-0.77 1.8 1.2 2.5 5.4 1.9 1.8-0.25 2.4-0.8 2.1-1.7zm5.1-11c1.3-4.4 2-4.8 3.6-2.4 2.3 3.3 2 4.4-1.3 4.4-2.5 0-2.8-0.28-2.3-2zm31 11c0.63-0.95-0.1-3.5-0.02-5.2 0.13-2.8 0.47-3.1 3-3.1 2.2 0 3.5 0.9 5.8 4 1.6 2.2 3 4.6 3 5.3 0 1.2 0.94 1.4 6.8 1.4 1.6 0 3.1-0.039 3.4-0.088s-1.5-2.5-4-5.5l-4.5-5.4 2.9-1.2c5.3-2.2 6.4-6.8 2.8-12l-2.2-3.3-12-0.15c-7.4-0.096-12-0.55-13-1.2-0.63-1-0.25 26 0.39 28 0.18 0.58 1.8 0.84 3.8 0.61 2.9-0.33 2.4-1.1 3.3-2.5zm0.13-16c0-2.5 2.7-3.3 9.2-2.5 3.1 0.38 3.9 0.89 3.9 2.4 0 1.7-0.7 1.9-6.5 2.1-6.2 0.17-6.5 0.071-6.5-2.1zm43 17c-0.23-0.88 2-6.5 5-12 3-6 5.4-11 5.4-12s-0.85-0.91-1.9-0.91-2-1.3-2.4-0.87c-2.6 2.6-6.9 11-8.8 14-0.84 1.6-1.7 2.9-2 2.9-7.3-11-5.8-9-9.5-17-0.7-1.6-5.9-0.58-6.3 1.1-0.17 0.88 0.15 1.6 0.73 1.6 0.57 0 1 0.4 1 0.89s2.2 5.5 4.9 11c2.7 5.6 4.7 11 4.4 12-0.63 1.6 1.2 2.1 6.2 1.7 2.7-0.26 3.5-0.7 3.1-1.9zm93-8.5-0.33-11 11 1.1 2e-3 -7.1-13 0.32c-8.3 0.21-13-0.05-14-0.75-1.7-1.4-2.3 0.32-1.6 4.3 0.51 2.8 0.76 2.9 5.4 2.9h4.8l-0.43 22 8.2 2e-3zm52 5.9-0.47-5.3h3.5c2.5 0 3.7 0.51 4.2 1.7 0.36 0.93 1.6 2.7 2.8 4 1.2 1.3 1.9 2.9 1.6 3.6-0.39 1 0.76 1.3 5 1.3h5.5l-3-4.3c-1.6-2.4-3.4-4.5-3.9-4.9-1.6-1-1.1-1.9 2.3-3.7 2.8-1.5 3.2-2.3 3.4-5.8 0.23-4.4-2.3-8-5.5-8.5-2.1-0.3-7.5-0.24-8.2-0.44-2.4-0.79-13-0.63-14 0.22-0.5 0.31-0.44 1.1 0.14 1.7 0.61 0.73 0.92 6 0.77 13l-0.24 12 7.1-2e-3zm-0.29-14v-2.9h6.1c6.7 0 8.9 1.2 7.4 4-0.78 1.4-2.1 1.8-7.2 1.8h-6.3zm-263 12-0.5-6.7h18v13h4.9c3.5 0 4.7-0.32 4.2-1.1-0.8-1.3-0.76-29 0.05-31 0.29-0.47-1.1-1.1-3.1-1.5s-4.4-0.85-5.2-1.1c-1.5-0.42-1.6 0.3-1.1 6.8l0.56 7.3-18-0.32 0.79-12-3.4-0.57c-1.9-0.31-4.1-0.75-4.9-0.96-1.2-0.33-1.4 1.4-1.2 12 0.13 6.7 0.24 15 0.24 17l5e-3 5.1h9.2zm478 55c-1.6-2-4.5-7.9-6.2-10-2.7-5.3-2.3-5.1-4.1-8.1-1.1-4.2-5.8-9.7-4.2-12 2.2-1.8 6.1 1 9.5 6.9 3.7 6.4 5.9 7.9 7.8 5.2 1.3-5.3 0.12-18-0.91-23-1.2-4.2-0.75-8.5 0.45-10 2.6-3.4 4.4-1 5.1 5.9 0.27 2.8 0.7 5.4 0.95 5.8 0.25 0.4 0.68 2.6 0.96 4.9 0.52 4.3 2.1 7.2 3.5 6.3 0.44-0.27 0.66-5.1 0.48-11-0.48-16 1.5-18 2.9-18 3.7-0.47 3.3 7.9 3.4 9.1v12c0 5.8 0.34 7.7 1.4 8.1 3.9-0.75 3.2-11 3.4-14 0.28-4.7 0.41-4.8 1.1-7.3 1.9-7 6.2-3 5.2 4.9-0.32 2.5-0.7 8.3-0.84 13-0.24 7.7-0.13 8.3 1.4 7.3 0.93-0.58 2.6-3 3.7-5.4 4.5-9.6 5.4-11 7-11 2.1-0.41 3.5 1.7 1.7 6.1-0.13 0.33-3.1 8.7-4.4 11-2.9 6.1-3.6 8.5-3.9 14-0.46 9.7-2.1 13-7.4 17-0.032 0.02-17 6.8-28-6.9zm14-51c-636-111-636-111 0 0z"/><text transform="translate(-25,-19)" x="144.12617" y="663.52429" fill="#000000" font-size="29px" style="inline-size:584.851;line-height:1.1;white-space:pre" xml:space="preserve"><tspan x="144.12617" y="663.52429">Play just after a spice blow comes up. </tspan><tspan x="144.12617" y="695.4243">Double the spice blow. Place double the </tspan><tspan x="144.12617" y="727.32433">amount of spice in the territory.</tspan></text><text transform="translate(112 194)" fill="#000000" font-size="33px" style="shape-inside:url(#rect2);white-space:pre" xml:space="preserve"><tspan x="0" y="0">Spice Blow - Special</tspan></text></svg>
