<?xml version="1.0" encoding="UTF-8"?>
<!-- Created with Inkscape (http://www.inkscape.org/) -->
<svg width="822" height="1122" version="1.1" viewBox="0 0 822 1122" xml:space="preserve" xmlns="http://www.w3.org/2000/svg"><path d="m89 1e3c-4.5-1.3-6.7-2.9-8.9-6.5l-2.2-3.5 0.053-461c0.029-254 0.072-465 0.096-469 0.042-7.1 0.16-7.4 4-12l3.9-4.2 320-0.26c237-0.19 321 0.035 323 0.87 1.5 0.62 4.1 2.7 5.7 4.5l3 3.4-2e-3 469c-2e-3 460-0.037 469-1.9 472-1.1 1.7-3.4 4-5.2 5.1-3.5 2.1-634 3.6-641 1.5zm44-8.3c0-4.6-0.35-5.9-1.8-6.4-5.7-1.9-13-6-18-9.5l-5.4-4-11 11c-15 15-16 14 16 14h21zm219 0.45 0.3-5.2-4.3-0.017c-2.4-0.01-51-0.012-108-0.01l-104 0.012-0.32 3.1c-0.18 1.7-0.085 4.1 0.21 5.3l0.53 2.1 215-0.15zm36 1.1c6-20 35-20 40 1 0.47 1.9 1.3 2.8 2.9 2.8 3.9 0.12 13 0.13 21 0.03l7.7-0.096 0.69-10h-19l-33-16-30 15h-22l-0.31 4.4c-0.51 7-1 6.8 16 6.6l15-0.2zm290-0.96-1e-5 -5.2-42-0.27c-23-0.15-71-0.15-108-6e-4l-66 0.27v4.9c0 6.2-13 5.5 110 5.5h105zm50 4.1c1.6-0.92 0.38-2.5-10-13l-12-12-2.5 2.3c-4.5 4.1-12 8.6-18 10l-5.3 1.7v5.2c0 4.7 0.24 5.3 2.2 5.6 5.8 0.83 43 0.18 45-0.77zm-304-1.7c-5-16-25-18-33-3.7-3.1 6-3.2 5.9 16 5.9h18zm309-3c1.7-4.3 0.77-47-0.97-47-0.99-0.021-3.4-0.28-5.5-0.57-3.5-0.51-3.7-0.38-4.9 3.3-2 6-5.9 13-9.6 18l-3.4 4.1 11 11c12 12 12 12 13 11zm-648-1.5c1-0.96 6.2-6 11-11l9.6-9.3-3.9-5.2c-4.2-5.6-8.4-14-9.4-18-0.6-2.5-1-2.7-6.1-2.7h-5.5l-0.029 10c-0.016 5.6-0.092 15-0.17 22-0.18 15 0.55 18 4 14zm307-15c8.3-4.1 15-7.5 16-7.5s7.3 3.4 16 7.5l15 7.5h245l8.3-4.2c11-5.4 19-14 25-25l3.8-7.7 0.51-804h-23l-1.2 6.7c-11 65-111 63-121-2.2l-0.68-4.5h-480l-0.016 74c-0.0088 41-0.015 221-0.014 400l0.0023 327 2.1 5.6c4.9 13 14 23 27 30l7.9 4h245zm-301-41c0.0089-3.4 0.022-192 0.03-419l0.014-412-11-0.58 0.2 417c0.11 230 0.22 418 0.25 419 0.037 1.4 0.97 1.8 5 1.8h5zm643-413 0.027-419h-11v838h11zm-84-328c31-6 52-43 42-74-19-61-110-49-113 14-2.1 39 31 67 71 60zm-57-83c28-43 94-24 94 28 0 34-31 54-58 50-30-2.9-58-37-36-78zm65 71c38-19 35-74-5.4-88-15-5-24-4.2-40 3.8-8.2 4-20 19-21 27-0.31 1.7-0.84 3.6-1.2 4.2-2.1 3.5-0.76 20 2.2 27 0.73 1.6 2.1 4.6 2.9 6.6 9.2 20 41 30 63 19zm-563-87c2-5.8 6.1-13 9.9-17l2.6-2.8-11-11c-14-13-14-13-14-0.13-0.0087 5.4-0.065 15-0.12 21-0.16 17-0.75 15 5.7 15l5.6-0.3zm640-18c-0.38-28 0.58-27-13-13l-12 12 2.6 2.8c3.3 3.6 8 12 9.6 17 1.8 5.7 1.6 5.5 7.6 5.5h5.5zm-310-11 15-7.5h20l0.35-5.1c0.44-6.5 1.9-5.9-15-5.9h-15l-1.5 3.8c-3.9 9.9-9.1 14-18 15-11 0.89-20-5.7-23-17-0.38-1.3-2.8-1.5-16-1.5l-15 0.05v10l23 1 14 7.2c17 8.7 13 8.8 31-0.2zm-310 2.5c2.9-2.2 8.3-5.2 12-6.7l6.8-2.7v-5.3c0-6.8 0.7-6.6-25-6.2-26 0.43-26 0.015-12 13 5.8 5.6 11 11 11 11 0.63 1.4 2.1 0.75 7.4-3.3zm614-19c-0.65-0.65-9.4-1-24-1h-23v11l5 1.7c5.5 1.9 12 5.7 17 9.6l3 2.5 11-11c7.7-7.7 11-11 10-12zm-314 13c5.1-2.6 11-9.3 11-13 0-0.3-7.9-0.54-18-0.54-19 0-19 0.02-16 4.8 4.3 8.3 15 12 23 8.6zm-62-3.4-0.24-10h-215l-0.1 3.5c-0.22 7.7-5.5 7 55 7.3 30 0.14 74 0.16 98 0.029s48-0.24 53-0.25zm281 0.02 45-0.021v-11l-106 0.037c-122 0.043-109-0.62-109 5.9l0.35 5c57 0.7 113 0.09 170 0.042zm-0.22 509c-0.17-0.17-116-0.4-258-0.51-238-0.18-258-0.32-261-1.9-3.8-2.1-6.9-5.4-9.2-10-1.7-3.4-1.8-12-2.1-161-0.22-135-0.051-158 1.2-162 1.6-5.2 6.5-11 11-13 2.4-1 60-1.2 288-0.82 157 0.26 287 0.7 289 0.98 3.9 0.59 9.8 5.5 12 10 1.5 2.9 1.6 18 1.4 164-0.14 88-0.62 162-1.1 163-1.3 3.4-6 8.6-9.5 11-2.8 1.5-6.9 1.7-32 1.7-16 0.01-29-0.12-30-0.3zm62-4.7c1.8-1.1 4.4-4.1 5.7-6.6l2.5-4.7 0.36-159c0.34-151 0.27-159-1.5-163-1-2.2-3.5-5.2-5.5-6.6l-3.7-2.5-60-0.18c-33-0.099-162-0.33-288-0.51l-228-0.33-3.8 2.5c-2.1 1.4-4.7 4.4-5.8 6.7-2.3 4.6-2.1-18-1.9 239 0.025 50 0.42 81 1.1 83 1.3 4.8 4.4 8.5 9.2 11 3.7 1.9 9.5 1.9 213 1.8 115-0.063 209 0.054 209 0.26 0.21 0.21 35 0.38 77 0.38 74 0 77-0.07 80-2zm-67-403c6.2-4.4 5.4-8.7-1.8-8.7-2.5 0-6.8-2-9.4-4.5-4.1-3.7-4.6-6.6-3.3-17 0.88-7 1.3-13 1-14s1.6-3.6 4.3-6.3c3.5-3.6 4.5-3.9 3.4-1-0.85 2.2 0.23 5.5 2.4 7.3 5.8 4.8 4.8 11-2.9 17-6.5 5.2-6.6 5.7-2.6 9.8 4 4.1 4.7 3.9 11-2.6 3.5-3.8 6.4-7.9 6.4-9.1 0-5.1 4.7-1.6 6.4 4.8 1.8 7 1.8 7 4.5 1.3 3.8-8.2 15-7.9 15 0.32 0 3.3-1.7 7.5-3.8 9.2-2.1 1.7-3.2 4.1-2.5 5.2s0.2 2.8-1.1 3.6c-1.3 0.82-3.1 0.33-4-1.1-2.3-3.7-6.4-3.2-6.4 0.84 0 1.9 2.6 4.7 5.7 6.2 4.8 2.3 3 2.8-11 2.9-16 0.16-16-0.023-11-3.8zm29-24c-2-2-3.1-0.81-4 4-1.2 6.2-0.94 6.4 2.7 2.7 2.9-2.9 3.3-4.8 1.3-6.8zm-34-15c0-4.4-4.5-2.1-5.9 3-1.1 4.3-0.72 4.7 2.2 2.2 2-1.7 3.6-4 3.6-5.2zm-145 405c-14-1.5-15-1.7-6.4-3.5 5.7-1.2 13-0.54 20 1.8 12 3.9 10 4.1-14 1.6zm32-2.7c5-3.3 20-3.3 22 0 0.98 1.6-3.6 2.6-12 2.5-9.7-0.028-12-0.75-9.7-2.5zm-21-1.8c-8.9-2.3-4.1-4.6 9.6-4.6 12 0 13 0.5 9.7 3.2-4.3 3.2-11 3.7-19 1.4zm4.1-18c0.87-5.3 1.6-15 1.6-22 0.02-8.5 1.1-12 3.5-12 2.4 0 3.9 5.2 4.9 17 0.8 9.5 2.2 19 3.2 22 1.4 3.7 0.3 4.5-6.5 4.5-8.1 0-8.2-0.16-6.7-9.6zm-143-0.8c-3.3-1.3-5.5-3.8-4.8-5.6 1.3-3.6 1.8-3.6 24 0.9 14 2.7 18 2.6 31-1.2 15-4.2 20-3.9 20 0.84 0 6.3-58 10-71 5zm7.8-11c-11-3.4-35-21-33-24 0.75-0.75 2.9-0.036 4.9 1.6 1.9 1.6 10 5.3 19 8.3 28 9.7 61 6 88-9.9 3.5-2 1 1.4-5.6 7.7-19 18-47 24-73 16zm-5.7-16c-28-9-40-19-32-26 5.4-4.5 4.7-15-1.3-19-2.8-1.8-5.1-5.6-5.1-8.5 0-5.1 0.6-5 16 2.5 15 7.6 17 7.9 50 7.9 33 0 35-0.24 52-8.2 17-8.1 17-8.1 17-2.5 0 3.1-2.3 7.1-5.1 8.9-5.5 3.5-6.8 12-2.3 15 1.9 1.2 2.3 0.037 1.2-3.3-0.98-3.1-0.092-6.4 2.3-8.3 3.3-2.7 3.9-2.3 3.9 2.8-0.036 15-4.7 24-16 29-35 15-55 18-81 9.6zm19-11c3.7 0 1.5-6-1.9-11-2.5-3.8-5.2-6.2-6-5.4-0.82 0.82 0.45 3.6 2.8 6.3 8.1 9-2.1 18-11 10-3.1-2.7-3.1-2.5-0.096 1.4 4.1 5.4 9.2-1.1 16-1.1zm39 2.1c2.6-1.9 4-5.1 3.2-7.1-1.1-2.7-1.5-2.6-1.6 0.69-0.22 4.7-8.7 8.6-13 6-4.3-2.6-2.9-11 2.2-14 2.6-1.4 5.5-2 6.4-1.4 0.9 0.64 0.44-0.24-1-2-1.9-2.3-3.8-2.4-7-0.36-5.5 3.5-7.1 13-3 18 3.8 4.6 7.8 4.7 14 0.28zm-25-11c0-6.4-0.98-12-2.2-13-1.2-0.75-2.2 4.5-2.2 12 0 7.1 0.98 13 2.2 13s2.2-5.2 2.2-12zm-46-13c0-6.6-0.32-6.9-2.2-2.6-1.2 2.8-2.2 8.6-2.2 13 0 6.6 0.32 6.9 2.2 2.6 1.2-2.8 2.2-8.6 2.2-13zm16 13c0-0.71-0.57-1.3-1.3-1.3s-1.3 0.58-1.3 1.3c0 0.71 0.57 1.3 1.3 1.3s1.3-0.58 1.3-1.3zm77-3.7c0-2.7-1.1-5.7-2.6-6.6-1.4-0.9-2.6 1.3-2.6 5 0 3.6 1.1 6.6 2.6 6.6 1.4 0 2.6-2.2 2.6-5zm-74-1.4c0-0.71-0.57-1.3-1.3-1.3-0.7 0-1.3 0.58-1.3 1.3 0 0.71 0.57 1.3 1.3 1.3 0.7 0 1.3-0.58 1.3-1.3zm69-15c-1.8-1.8-3-2-3-0.38 0 1.5 0.77 3.4 1.7 4.4s2.3 1.1 3 0.38c0.73-0.73-0.04-2.7-1.7-4.4zm65 26c0 1.7-6.2-4.5-12-6.7-6.2-2.5-12-7-14-12-3.9-7.5-3.8-7.6 2-5.5 7.6 2.8 53 2.8 60 0.059 14-5 2.6 9.4-16 21-10 6.2-21-1.9-21 3.1zm-176-19c-0.85-2.2-1.5-5.8-1.5-8 0-3.2 0.71-3.4 3.8-0.76 4.3 3.6 5 9.2 1.5 11-1.3 0.78-3-0.4-3.8-2.6zm157-9c-7.5-2.3-8.2-3.1-4.5-5.2 2.4-1.4 4.4-4.4 4.4-6.7 0-3.6-0.58-3.4-3.8 0.77-3.4 4.5-3.5 4.2-0.83-3.1 2.7-7.4 3.5-7.9 11-5.8 10 3 29 2.9 39-0.2 8.2-2.4 8.5-2.2 7 3.7-0.95 3.8-0.073 7.6 2.3 10 2.7 2.7 3 4.4 0.98 5.7-4.9 3.1-47 3.7-56 0.82zm33-6.8c1-7.4-6.2-10-12-4.9-3.4 3.4-3.5 4.7-0.68 8.2 4.6 5.6 11 3.8 12-3.2zm-8.7 1c-6.1 0 0.71-8.6 4.6-4.6 2.3 2.3 2.3 3.7 0.041 6-2.3 2.3-1.1-1.4-4.7-1.4zm-10-1.6c0.87-1.4-0.21-2.6-2.4-2.6s-4 1.2-4 2.6 1.1 2.6 2.4 2.6c1.3 0 3.1-1.2 4-2.6zm30-0.71c-0.32-3.1-3.8-2.5-4.9 0.83-0.56 1.7 0.36 2.6 2 2.1 1.7-0.56 3-1.9 2.9-2.9zm-218 3c0 26-28-63-16-97 6.7-20 13-29 24-34 11-5.3 29-5.3 29 0.041 0 2.2 3.5 10 7.8 18 4.3 7.7 7.1 15 6.2 17-2.6 4.2-5.2 0.93-14-17-7.8-16-8.2-17-18-17-22 0-35 29-33 72 1.3 27 7.1 43 19 50 3.5 2.3 6.4 6.4 6.4 9 0 6.2-11-11-11-0.52zm53-3.4c0 19-34-12-34-17 0-2.3 2.3-6.3 5-8.8 5.2-4.7 15-26 12-28-0.68-0.68-2.6 3.1-4.2 8.4-3.6 12-13 25-13 18-0.079-6 8.6-25 14-32 2.6-3.1 5.9-7.5 7.3-9.8 2.3-3.9 3.6-3.7 15 1.4 17 7.6 39 7.6 56-0.074 12-5.7 17-5.4 17 1 0 1.9 1.6 4.7 3.6 6.4 3.5 3 17 28 17 32 0 5.1-7.8-5.4-12-16-2.4-6.3-4.9-11-5.6-10-2.2 2.2 5.3 18 13 27 8.8 10 7.4 13-11 21-11 4.8-14 5.2-18 2.4-4.7-3-4.9-2.9-1.7 0.99 3 3.7 2.9 4.3-0.56 4.3-3 0-4-2.3-3.7-9 0.19-4.9-0.42-9.8-1.4-11-0.93-0.93-1.7 3-1.7 8.7 0 7.1-1.3 11-4 12-6.2 2.4-48-17-48-2zm9.5-9c0.69 2 1.3 0.42 1.3-3.5 0.056-7.9-3.1-9.5-5.1-2.6-0.71 2.5-2.1 6.8-3 9.6-1.2 3.6-0.42-0.41 1.9-1 5-1.3 4-5.2 4.9-2.6zm31 1.7c4.2-6.1 5-23 1.5-31-1.3-3.1-1.6 0.4-0.78 9.2 0.81 8.6 0.16 17-1.6 20-3.5 6.6-14 7.5-17 1.3-0.89-2.3-2.3-3.5-3.2-2.6-2.8 2.8 4 9.2 10 9.2 3.3 0 8.5-2.3 11-5.5zm-40-14c2-4.7 3.5-11 3.4-13-0.098-2.5-1.8 0.85-3.9 7.5-4.1 13-7.9 17-10 11-2.8-7.2 1.7-26 8.4-37l6.5-9.8-6.3 5.9c-10 9.6-16 37-9.2 44 4 4 7.1 1.7 11-8.6zm74-6.7c-0.28-15-8.3-33-14-33-1.5 0-0.73 2.2 1.7 5 9.8 11 16 41 8 41-2 0-4.8-3.2-6.2-7.1-1.4-3.9-2.7-5.5-2.8-3.7-0.37 6.2 5.2 14 9.5 13 3.5-0.7 4.2-3.7 4-15zm-93 7.5c-0.03-4.5-0.55-5-2.4-2-1.3 2-1.8 4.6-1.1 5.8 2.2 3.6 3.5 2.2 3.5-3.7zm39-9.6c0.89-8.8 0.61-12-0.74-9-2.1 4.9-3.5 26-1.6 24 0.51-0.59 1.6-7.4 2.3-15zm63 6c-2.2-3.8-2.7-4-2.8-0.62-0.083 4.3 2.6 8.2 4.4 6.4 0.6-0.6-0.13-3.2-1.6-5.8zm-25-19c-0.94-5.9-2.2-10-2.9-9.5-0.65 0.66-0.39 6 0.59 12 0.98 5.8 2.3 10 2.9 9.5 0.61-0.61 0.34-5.9-0.59-12zm-53-8.6c-0.71-1.8-1.3-0.32-1.3 3.2s0.58 5 1.3 3.2c0.71-1.8 0.71-4.6 0-6.4zm24-1.9c1.5 0 4.3 2 6.2 4.5 1.9 2.5 3.4 3.2 3.5 1.6 0.045-1.6-1.7-4.4-4-6.3-4.5-3.8-12-0.84-13 5.5-0.54 2.1 0.25 1.8 1.9-0.82 1.6-2.5 4.1-4.5 5.6-4.5zm146 51c-0.81-1.3-0.3-3.1 1.1-4 1.4-0.89 2.6 0.19 2.6 2.4 0 4.5-1.5 5.2-3.7 1.6zm-45-15c-7.4-1.3-15-11-9-11 1.8-0.099 0.98-1.2-1.8-2.4-3.2-1.4 6.8-2.2 27-2.2 18 0.012 31 0.56 29 1.2-1.6 0.66-2.4 3.3-1.7 5.9 0.7 2.7-0.43 5.3-2.7 6.1-5.8 2.3-33 4-41 2.6zm11-9.5c0-0.54-2.9-1.5-6.4-2.2-3.5-0.67-6.4-0.23-6.4 0.98s2.9 2.2 6.4 2.2 6.4-0.44 6.4-0.98zm23-1.6c0-1.4-1.7-2.6-3.7-2.6s-4.4 1.2-5.3 2.6c-0.87 1.4 0.79 2.6 3.7 2.6 2.9 0 5.3-1.2 5.3-2.6zm-50-10c0.92-1.5 15-2.6 35-2.6 20 0 33 0.99 33 2.6 0 1.6-13 2.6-35 2.6-22 0-34-0.9-33-2.6zm-96-31c0-21-30-9.3-23-14 4.4-2.7 18-33 18-40 0-6.6 0.27-6.8 8.9-4.1 6.4 2 11 2 15-0.043 5.9-2.7 6.1-2.3 7.4 8.9 0.82 7.3 4.3 16 9.2 23l7.9 11-7.5 3.9c-4.1 2.1-14 5-21 6.4l-14 2.5 13-1.1c7.3-0.58 17-2.9 21-5.2 4.4-2.3 9.3-3.6 11-3 3.8 1.4-14 9.6-26 12-4.9 0.91-20 6.1-20-0.35zm-8.9-8.6c0-14-15-4.6-6.4 0.074 3.5 2 8.7 3.7 11 3.6 2.8-0.012-5.1 2.3-5.1-3.7zm4.6-56c-1.3-1.8-3.7-6.3-5.3-10-2.9-6.7-2.8-6.9 3.5-4.5 8.3 3.2 32 3.2 40 2.5e-4 5.7-2.2 5.2-1.2-3.4 7.7-8.6 8.9-11 10-21 10-6.3 0-13-1.4-14-3.2zm9.1-18c-6.5-0.96-15-3.5-19-5.7-6.9-3.7-7-4-2.3-6 2.8-1.2 17-2.1 32-2.1 20 0 28 0.99 32 4 5.4 3.8 4.9 4.1-13 7.8-11 2.3-23 3.1-30 2zm-225-155c2.8-2.2 4.4-8.2 5-19 0.74-15 0.36-16-4.3-16-4.5-1e-5 -5.1 1.7-5.1 15v15l-8.3-0.65c-5.8-0.45-8.3 0.46-8.3 3 0 6.1 15 8.5 21 3.4zm37-2.4c1.8-1.5 3.2-8.3 3.2-15 0-11-0.73-13-4.9-13-4.1 0-4.9 1.7-4.5 11 0.33 7.7-0.78 11-4.1 13-6.1 3.9-9.8-1.8-8.9-14 0.51-6.8-0.4-9.2-3.8-9.8-3.8-0.73-4.5 1.1-4.5 12 0 10 1.1 14 5.7 17 5.9 4.2 16 3.4 22-1.7zm16-12c0-14-0.56-15-5.1-15-4.6 0-5.1 1.6-4.8 15 0.3 13 1 15 5.1 15 4.1 0 4.8-2.1 4.8-15zm31 13c7.6-4.1 3.5-7.2-7.5-5.8-7.8 1-10 0.39-12-3.1-2.7-7.2 3.4-12 13-11 9.7 1.6 13-1.9 6.1-5.9-8.6-4.6-20-3.2-24 3-2.2 3.1-4 7.5-4 9.7s1.8 6.6 4 9.7c4.3 6.2 16 7.6 24 3zm36-1.2c0-2.8-2.9-3.8-11-3.8-10 0-11-3.6-1.3-5.5 6.1-1.2 5.5-6.2-0.66-5.3-2.6 0.42-5.5-0.45-6.4-1.9-1-1.7 2.1-2.7 8.7-2.7 7.5 0 10-1.1 10-3.8 0-3-3.3-3.8-14-3.8h-14v31h14c11 0 14-0.89 14-3.8zm41-0.4c5.5-5 6.1-16 1.2-23-7.6-11-30-2.6-30 11 0 13 18 21 29 12zm-17-6.1c-3.7-3.7-1.6-12 3.5-14 5.4-2.1 11 3.5 10 9.9-0.85 6-9.4 8.4-14 4zm35 4c0-5.1 1.3-6.4 6.4-6.4 4 0 6.4-1.5 6.4-3.8 0-2.4-2.4-3.8-6.4-3.8-3.5 0-6.4-1.3-6.4-2.8 0-1.7 3.5-2.4 8.9-1.8 6.8 0.8 8.9 0.1 8.9-2.9 3e-3 -3.2-2.6-3.8-13-3.1l-13 0.84 0.49 15c0.27 8 0.56 15 0.64 15 0.08 0.35 1.9 0.64 4 0.64 2.4 0 3.8-2.4 3.8-6.4zm58 2.4c11-7.6 4.4-22-9.8-22-4.1 0-7.5-1.2-7.5-2.6 0-3.2 10-3.3 15-0.096 3.5 2.3 7.6-0.67 7.7-5.6 0.06-2.8-17-5.4-24-3.6-14 3.4-8.3 22 6.3 22 3.9 0 7.8 1.1 8.6 2.4 2.3 3.8-8.1 5.9-14 2.8-5.3-2.8-10-1.6-10 2.5 0 2.4 12 7.2 18 7.6 2.1 0.11 6.5-1.6 9.6-3.8zm17-2.4c0.81-2.1 3.8-3.8 6.7-3.8s5.9 1.7 6.7 3.8c0.81 2.1 3.8 3.8 6.5 3.8 4.8 0 4.8-0.54-1.5-11-3.6-6.2-6.6-13-6.6-15s-2-4-4.5-3.9c-3 0.056-6.8 5.3-11 15-6.3 14-6.5 15-2.2 15 2.6 0 5.4-1.7 6.2-3.8zm4.2-12c0-1.5 1.1-2 2.6-1.1 1.4 0.87 2.6 2.1 2.6 2.7s-1.1 1.1-2.6 1.1c-1.4 0-2.6-1.2-2.6-2.7zm31 10c0-2.9 1.7-5.1 3.8-5.1 9.8 0 17-4 17-9.8 0-7.5-5.5-11-19-11-10 0-12 0.7-11 4.1 0.85 2.2 1.5 9.2 1.5 15 0 8.4 1 11 3.8 11 2.1 0 3.8-2.3 3.8-5.1zm0-15c0-1.4 2.9-2.6 6.5-2.6 3.7 0 5.9 1.1 5 2.6-0.87 1.4-3.8 2.6-6.5 2.6-2.7 0-5-1.2-5-2.6zm32 15c-0.16-4.7 1.5-6 8.7-7.1 7-1 9.1-2.6 9.8-7.4 1.1-7.8-3.2-10-17-11l-11-0.039v15c0 13 0.66 15 4.7 15 3.2 0 4.6-1.8 4.5-5.8zm-1.5-15c0-1.4 2.9-2.6 6.5-2.6 3.7 0 5.9 1.1 5 2.6-0.87 1.4-3.8 2.6-6.5 2.6-2.7 0-5-1.2-5-2.6zm33 14c0-5.1 1.3-6.4 6.4-6.4s6.4 1.3 6.4 6.4c0 4.4 1.4 6.4 4.5 6.4 3.8 0 4.5-2.4 4.5-15 0-13-0.71-15-4.5-15-2.8 0-4.5 2-4.5 5.1 0 3.8-1.7 5.1-6.4 5.1-4.7 0-6.4-1.4-6.4-5.1 0-3.2-1.7-5.1-4.5-5.1-3.7 0.0076-4.5 2.5-4.6 15-0.08 13 0.58 15 4.5 15 3.2 0 4.6-2 4.6-6.4zm54 1.3c9.7-9.8 3.2-26-11-26-12 0-18 4.2-18 13 0 16 17 23 28 12zm-20-6.4c-2.4-6.3 1.1-12 7.6-12 6.8 0 11 8 6 13-4 4-12 3.4-14-1.1z"/><text transform="translate(-24 -56)" x="144.12617" y="663.52429" fill="#000000" font-size="31px" style="inline-size:584.851;line-height:1.1;white-space:pre" xml:space="preserve"><tspan x="144.12617" y="663.52429">Choose one: Play this card to be </tspan><tspan x="144.12617" y="697.25769">considered the aggressor in a battle, </tspan><tspan x="144.12617" y="730.99109">or action that Go first for any phase </tspan><tspan x="144.12617" y="764.72448">or requires turn order, or Go last for </tspan><tspan x="144.12617" y="798.45788">any phase or action that requires </tspan><tspan x="144.12617" y="832.19128">turn order (even superseding Guild). </tspan><tspan x="144.12617" y="865.92468">Play the card in the applicable phase </tspan><tspan x="144.12617" y="899.65808">when you wish to intervene. Discard </tspan><tspan x="144.12617" y="933.39148">after use.</tspan></text><text transform="translate(117 193)" fill="#000000" font-size="40px" style="shape-inside:url(#rect2);white-space:pre" xml:space="preserve"><tspan x="0" y="0">Special</tspan></text></svg>
