<?xml version="1.0" encoding="UTF-8" standalone="no"?>
<!-- Created with Inkscape (http://www.inkscape.org/) -->

<svg
   width="822"
   height="1122"
   version="1.1"
   viewBox="0 0 822 1122"
   xml:space="preserve"
   id="svg10"
   sodipodi:docname="Juice of Sappho (Full Res).svg"
   inkscape:version="1.4 (86a8ad7, 2024-10-11)"
   xmlns:inkscape="http://www.inkscape.org/namespaces/inkscape"
   xmlns:sodipodi="http://sodipodi.sourceforge.net/DTD/sodipodi-0.dtd"
   xmlns="http://www.w3.org/2000/svg"
   xmlns:svg="http://www.w3.org/2000/svg"><defs
     id="defs10" /><sodipodi:namedview
     id="namedview10"
     pagecolor="#ffffff"
     bordercolor="#000000"
     borderopacity="0.25"
     inkscape:showpageshadow="2"
     inkscape:pageopacity="0.0"
     inkscape:pagecheckerboard="0"
     inkscape:deskcolor="#d1d1d1"
     inkscape:zoom="1"
     inkscape:cx="432"
     inkscape:cy="526"
     inkscape:window-width="1742"
     inkscape:window-height="1360"
     inkscape:window-x="1882"
     inkscape:window-y="325"
     inkscape:window-maximized="0"
     inkscape:current-layer="svg10" /><path
     d="m 89,1000 c -4.5,-1.3 -6.7,-2.9 -8.9,-6.5 L 77.9,990 77.953,529 c 0.029,-254 0.072,-465 0.096,-469 0.042,-7.1 0.16,-7.4 4,-12 l 3.9,-4.2 320,-0.26 c 237,-0.19 321,0.035 323,0.87 1.5,0.62 4.1,2.7 5.7,4.5 l 3,3.4 -0.002,469 c -0.002,460 -0.037,469 -1.9,472 -1.1,1.7 -3.4,4 -5.2,5.1 -3.5,2.1 -634,3.6 -641,1.5 z m 44,-8.3 c 0,-4.6 -0.35,-5.9 -1.8,-6.4 -5.7,-1.9 -13,-6 -18,-9.5 l -5.4,-4 -11,11 c -15,15 -16,14 16,14 h 21 z m 219,0.45 0.3,-5.2 -4.3,-0.017 c -2.4,-0.01 -51,-0.012 -108,-0.01 l -104,0.012 -0.32,3.1 c -0.18,1.7 -0.085,4.1 0.21,5.3 l 0.53,2.1 215,-0.15 z m 36,1.1 c 6,-20 35,-20 40,1 0.47,1.9 1.3,2.8 2.9,2.8 3.9,0.12 13,0.13 21,0.03 l 7.7,-0.096 0.69,-10 h -19 l -33,-16 -30,15 h -22 l -0.31,4.4 c -0.51,7 -1,6.8 16,6.6 l 15,-0.2 z m 290,-0.96 -10e-6,-5.2 -42,-0.27 c -23,-0.15 -71,-0.15 -108,-6e-4 l -66,0.27 v 4.9 c 0,6.2 -13,5.5 110,5.5 h 105 z m 50,4.1 c 1.6,-0.92 0.38,-2.5 -10,-13 l -12,-12 -2.5,2.3 c -4.5,4.1 -12,8.6 -18,10 l -5.3,1.7 v 5.2 c 0,4.7 0.24,5.3 2.2,5.6 5.8,0.83 43,0.18 45,-0.77 z m -304,-1.7 c -5,-16 -25,-18 -33,-3.7 -3.1,6 -3.2,5.9 16,5.9 h 18 z m 309,-3 c 1.7,-4.3 0.77,-47 -0.97,-47 -0.99,-0.021 -3.4,-0.28 -5.5,-0.57 -3.5,-0.51 -3.7,-0.38 -4.9,3.3 -2,6 -5.9,13 -9.6,18 l -3.4,4.1 11,11 c 12,12 12,12 13,11 z m -648,-1.5 c 1,-0.96 6.2,-6 11,-11 l 9.6,-9.3 -3.9,-5.2 c -4.2,-5.6 -8.4,-14 -9.4,-18 -0.6,-2.5 -1,-2.7 -6.1,-2.7 h -5.5 l -0.029,10 c -0.016,5.6 -0.092,15 -0.17,22 -0.18,15 0.55,18 4,14 z m 307,-15 c 8.3,-4.1 15,-7.5 16,-7.5 1,0 7.3,3.4 16,7.5 l 15,7.5 h 245 l 8.3,-4.2 c 11,-5.4 19,-14 25,-25 l 3.8,-7.7 0.51,-804 h -23 l -1.2,6.7 c -11,65 -111,63 -121,-2.2 l -0.68,-4.5 h -480 l -0.016,74 c -0.0088,41 -0.015,221 -0.014,400 l 0.0023,327 2.1,5.6 c 4.9,13 14,23 27,30 l 7.9,4 h 245 z m -301,-41 c 0.0089,-3.4 0.022,-192 0.03,-419 l 0.014,-412 -11,-0.58 0.2,417 c 0.11,230 0.22,418 0.25,419 0.037,1.4 0.97,1.8 5,1.8 h 5 z m 643,-413 0.027,-419 h -11 v 838 h 11 z m -84,-328 c 31,-6 52,-43 42,-74 -19,-61 -110,-49 -113,14 -2.1,39 31,67 71,60 z m -57,-83.3 c 28,-43 94,-24 94,28 0,34 -30.8498,54.43084 -57.92096,49.64032 C 599.52799,184.64147 571.37318,150.5744 593,109.89 Z m 65,70.7 c 38,-19 35,-74 -5.4,-88 -15,-5 -24,-4.2 -40,3.8 -8.2,4 -20,19 -21,27 -0.31,1.7 -0.84,3.6 -1.2,4.2 -2.1,3.5 -0.76,20 2.2,27 0.73,1.6 2.1,4.6 2.9,6.6 9.2,20 41,30 63,19 z m -563,-87 c 2,-5.8 6.1,-13 9.9,-17 l 2.6,-2.8 -11,-11 c -14,-13 -14,-13 -14,-0.13 -0.0087,5.4 -0.065,15 -0.12,21 -0.16,17 -0.75,15 5.7,15 l 5.6,-0.3 z m 640,-18 c -0.38,-28 0.58,-27 -13,-13 l -12,12 2.6,2.8 c 3.3,3.6 8,12 9.6,17 1.8,5.7 1.6,5.5 7.6,5.5 h 5.5 z m -310,-11 15,-7.5 h 20 l 0.35,-5.1 c 0.44,-6.5 1.9,-5.9 -15,-5.9 h -15 l -1.5,3.8 c -3.9,9.9 -9.1,14 -18,15 -11,0.89 -20,-5.7 -23,-17 -0.38,-1.3 -2.8,-1.5 -16,-1.5 l -15,0.05 v 10 l 23,1 14,7.2 c 17,8.7 13,8.8 31,-0.2 z m -310,2.5 c 2.9,-2.2 8.3,-5.2 12,-6.7 l 6.8,-2.7 v -5.3 c 0,-6.8 0.7,-6.6 -25,-6.2 -26,0.43 -26,0.015 -12,13 5.8,5.6 11,11 11,11 0.63,1.4 2.1,0.75 7.4,-3.3 z m 614,-19 c -0.65,-0.65 -9.4,-1 -24,-1 h -23 v 11 l 5,1.7 c 5.5,1.9 12,5.7 17,9.6 l 3,2.5 11,-11 c 7.7,-7.7 11,-11 10,-12 z m -314,13 c 5.1,-2.6 11,-9.3 11,-13 0,-0.3 -7.9,-0.54 -18,-0.54 -19,0 -19,0.02 -16,4.8 4.3,8.3 15,12 23,8.6 z m -62.4,-3.42 -0.24,-10 h -215 l -0.1,3.5 c -0.22,7.7 -5.5,7 55,7.3 30,0.14 74,0.16 98,0.029 24,-0.131 48,-0.24 53,-0.25 z m 281.4,0.02033 45,-0.021 v -11 l -106,0.037 c -122,0.043 -109,-0.62 -109,5.9 l 0.35,5 c 57,0.7 113,0.09 170,0.042 z m -0.21592,508.68834 c -0.17444,-0.17439 -116.2245,-0.40341 -257.88904,-0.50892 -237.54693,-0.17694 -257.80899,-0.32281 -260.62181,-1.87636 -3.81826,-2.10887 -6.86313,-5.42671 -9.19621,-10.02064 -1.70803,-3.3632 -1.8238,-12.38599 -2.06992,-161.32756 -0.22351,-135.26344 -0.0511,-158.43101 1.20864,-162.43392 1.64118,-5.21485 6.46105,-10.74413 11.06411,-12.69256 2.43472,-1.0306 59.81365,-1.19389 288.21845,-0.8202 156.84819,0.25661 286.67516,0.69631 288.50437,0.9771 3.87609,0.59499 9.79241,5.45453 12.14572,9.97623 1.49573,2.87394 1.62085,17.55983 1.39602,163.85759 -0.13584,88.38539 -0.62481,161.69565 -1.0866,162.91169 -1.28938,3.39531 -6.0107,8.59311 -9.54805,10.51164 -2.78096,1.5083 -6.88538,1.72866 -32.49576,1.74466 -16.12202,0.0101 -29.45548,-0.12436 -29.62992,-0.29875 z m 62.18448,-4.70028 c 1.78298,-1.0801 4.36728,-4.05728 5.74287,-6.61595 l 2.50108,-4.65213 0.35699,-158.81492 c 0.3394,-150.98936 0.26712,-159.01451 -1.46689,-162.86534 -1.00314,-2.22772 -3.48568,-5.19052 -5.51677,-6.58399 l -3.69288,-2.53357 -59.54842,-0.18008 c -32.75163,-0.099 -162.28714,-0.32806 -287.85669,-0.50892 l -228.30826,-0.32884 -3.75571,2.5446 c -2.06564,1.39953 -4.6725,4.42459 -5.79302,6.72237 -2.25532,4.62481 -2.06908,-18.31582 -1.94091,239.08585 0.0248,49.80204 0.42026,80.83423 1.06106,83.26252 1.26765,4.8037 4.35343,8.46791 9.24646,10.97971 3.65444,1.87598 9.49252,1.92575 212.77971,1.81371 114.9622,-0.0634 209.19324,0.0545 209.40231,0.26181 0.20907,0.20735 34.84274,0.377 76.96371,0.377 73.85165,0 76.69921,-0.07 79.82536,-1.96383 z M 629.41249,158.76421 c 6.24771,-4.38015 5.35902,-8.73936 -1.78165,-8.73936 -2.50209,0 -6.75289,-2.00556 -9.44621,-4.45681 -4.08029,-3.71355 -4.62985,-6.58038 -3.29531,-17.19054 0.88089,-7.00356 1.33829,-13.30675 1.01644,-14.00711 -0.32185,-0.70036 1.62704,-3.55189 4.33088,-6.33675 3.46945,-3.57342 4.4627,-3.88084 3.37539,-1.04472 -0.84736,2.21027 0.22889,5.48865 2.39168,7.28528 5.81827,4.83324 4.7972,10.67497 -2.94607,16.855 -6.46396,5.15899 -6.61874,5.74971 -2.56873,9.8035 4.05,4.05378 4.69444,3.89816 10.69498,-2.58257 3.51191,-3.79295 6.38529,-7.87496 6.38529,-9.07114 0,-5.13252 4.69407,-1.57613 6.37338,4.82869 1.83084,6.98276 1.84415,6.98654 4.4812,1.27337 3.76359,-8.15378 14.58914,-7.91273 14.58914,0.32486 0,3.33026 -1.70485,7.47124 -3.78854,9.20217 -2.0837,1.73094 -3.20999,4.08415 -2.50287,5.22936 0.70712,1.14521 0.20114,2.75311 -1.12439,3.5731 -1.32554,0.81999 -3.12924,0.32616 -4.00822,-1.0974 -2.3004,-3.7256 -6.38658,-3.18646 -6.38658,0.84265 0,1.88702 2.57617,4.67455 5.72483,6.19451 4.77418,2.30464 2.99011,2.79218 -10.74362,2.93592 -15.66264,0.16393 -16.18968,-0.0231 -10.77102,-3.82201 z m 29.36939,-24.18001 c -1.95807,-1.9599 -3.11069,-0.80621 -4.03624,4.04001 -1.1829,6.1937 -0.94467,6.43215 2.74074,2.7433 2.88362,-2.88632 3.25358,-4.82341 1.2955,-6.78331 z m -33.93456,-15.43215 c 0,-4.43371 -4.52664,-2.1147 -5.864,3.00413 -1.12312,4.29883 -0.71976,4.69991 2.24762,2.23491 1.98901,-1.65227 3.61638,-4.00984 3.61638,-5.23904 z M 479.93814,524.64598 c -14.43105,-1.48724 -14.80127,-1.68801 -6.38316,-3.46142 5.71816,-1.20462 13.0742,-0.54254 20.42612,1.83844 12.17265,3.94221 10.4231,4.14441 -14.04296,1.62298 z m 31.91581,-2.68898 c 5.033,-3.26766 19.69255,-3.26766 21.70275,0 0.97734,1.58871 -3.5818,2.55016 -11.97732,2.52583 -9.69365,-0.0281 -12.46425,-0.74765 -9.72543,-2.52583 z m -21.06443,-1.76819 c -8.91969,-2.34178 -4.14925,-4.64458 9.62159,-4.64458 11.89753,0 13.41067,0.49889 9.72505,3.20638 -4.34417,3.19127 -10.83218,3.67358 -19.34664,1.4382 z m 4.10604,-18.11141 c 0.87043,-5.29054 1.59525,-15.10209 1.6107,-21.80344 0.0197,-8.52685 1.06659,-12.18428 3.48768,-12.18428 2.42449,0 3.8971,5.18044 4.92188,17.3145 0.80426,9.52297 2.2428,19.33452 3.19675,21.80344 1.43337,3.70969 0.29936,4.48894 -6.53258,4.48894 -8.1322,0 -8.24123,-0.15689 -6.68443,-9.61916 z m -143.47279,-0.80068 c -3.27727,-1.31963 -5.45155,-3.84364 -4.83173,-5.60891 1.25919,-3.58619 1.84664,-3.56428 24.12596,0.89949 13.71153,2.74717 18.01897,2.58842 31.43369,-1.15851 14.89065,-4.15917 20.339,-3.93525 20.339,0.83594 0,6.32564 -57.70667,10.41164 -71.06692,5.03199 z m 7.80074,-11.30619 c -10.84487,-3.40217 -35.27929,-21.20741 -32.68288,-23.81587 0.74518,-0.74863 2.9439,-0.0362 4.88606,1.58308 1.94216,1.61932 10.29995,5.33501 18.57287,8.25709 27.52226,9.72112 60.63375,6.0038 87.80972,-9.85813 3.51074,-2.04913 1.00681,1.41705 -5.56428,7.70262 -18.55159,17.74549 -47.49459,24.1393 -73.02149,16.13121 z m -5.67196,-16.44898 c -27.7561,-8.99843 -40.13558,-19.0993 -31.86216,-25.99749 5.3981,-4.50081 4.66158,-14.74699 -1.33028,-18.50633 -2.80859,-1.76213 -5.10653,-5.60768 -5.10653,-8.54566 0,-5.14127 0.59898,-5.0459 15.9579,2.54086 15.42448,7.61915 17.1101,7.88265 50.42698,7.88265 33.47644,0 34.96538,-0.2362 51.70361,-8.20184 17.00915,-8.09459 17.23453,-8.12781 17.23453,-2.54086 0,3.11353 -2.29794,7.10272 -5.10653,8.86485 -5.52816,3.46841 -6.84206,12.04048 -2.27972,14.87324 1.87227,1.1625 2.28389,0.0367 1.21898,-3.33413 -0.9809,-3.10488 -0.092,-6.35316 2.27973,-8.33064 3.29574,-2.74792 3.88537,-2.31494 3.8733,2.84424 -0.0361,15.45001 -4.70864,23.94475 -15.89108,28.89052 -35.01078,15.48456 -55.42466,17.89053 -81.11873,9.56059 z m 18.71301,-10.94432 c 3.6843,0 1.46491,-6.02903 -1.8582,-11.12427 -2.47309,-3.79192 -5.16365,-6.22417 -5.97903,-5.405 -0.81538,0.81916 0.4531,3.63813 2.81884,6.26437 8.09936,8.99122 -2.07903,18.12853 -11.14588,10.00585 -3.05807,-2.73962 -3.07201,-2.53489 -0.0958,1.40634 4.10546,5.43657 9.20053,-1.14729 16.26003,-1.14729 z m 38.59876,2.08239 c 2.56808,-1.88654 4.02736,-5.06087 3.24285,-7.05406 -1.08126,-2.74712 -1.47516,-2.57966 -1.62796,0.6921 -0.2173,4.65267 -8.73429,8.57301 -12.94505,5.95854 -4.25515,-2.64203 -2.90826,-11.1981 2.1947,-13.94179 2.62395,-1.41081 5.50595,-2.0382 6.40444,-1.39418 0.89849,0.64401 0.44345,-0.23639 -1.01119,-1.95643 -1.93881,-2.29254 -3.81881,-2.38809 -7.04276,-0.35794 -5.47954,3.45052 -7.06938,12.85694 -3.00467,17.77734 3.81326,4.61602 7.7742,4.69542 13.78964,0.27642 z m -24.84884,-10.75314 c 0,-6.38995 -0.98483,-12.22957 -2.18851,-12.97694 -1.20368,-0.74736 -2.18851,4.48078 -2.18851,11.61809 0,7.13732 0.98483,12.97694 2.18851,12.97694 1.20368,0 2.18851,-5.22814 2.18851,-11.61809 z m -45.58817,-12.75046 c 0,-6.56059 -0.32358,-6.93884 -2.19435,-2.56511 -1.20689,2.82162 -2.19435,8.59312 -2.19435,12.82555 0,6.56059 0.32357,6.93884 2.19435,2.56511 1.20689,-2.82162 2.19435,-8.59312 2.19435,-12.82555 z m 15.6785,12.82555 c 0,-0.7054 -0.57448,-1.28255 -1.27663,-1.28255 -0.70215,0 -1.27663,0.57715 -1.27663,1.28255 0,0.70541 0.57448,1.28256 1.27663,1.28256 0.70215,0 1.27663,-0.57715 1.27663,-1.28256 z m 76.59794,-3.69628 c 0,-2.73836 -1.14897,-5.69223 -2.55327,-6.56416 -1.4481,-0.89913 -2.55326,1.25592 -2.55326,4.97884 0,3.61029 1.14897,6.56416 2.55326,6.56416 1.4043,0 2.55327,-2.24048 2.55327,-4.97884 z m -74.04467,-1.43394 c 0,-0.7054 -0.57449,-1.28255 -1.27664,-1.28255 -0.70214,0 -1.27663,0.57715 -1.27663,1.28255 0,0.70541 0.57449,1.28256 1.27663,1.28256 0.70215,0 1.27664,-0.57715 1.27664,-1.28256 z m 69.40624,-14.66388 c -1.83213,-1.84063 -3.02136,-1.99208 -3.02136,-0.38477 0,1.45784 0.76597,3.42015 1.70217,4.36069 0.9362,0.94054 2.29581,1.11369 3.02136,0.38477 0.72556,-0.72892 -0.0404,-2.69123 -1.70217,-4.36069 z m 64.57367,26.09881 c 0,1.72617 -6.18678,-4.49907 -11.73847,-6.73072 -6.1977,-2.49133 -11.60583,-6.9947 -14.01068,-11.66674 -3.86335,-7.50557 -3.83593,-7.57984 2.01304,-5.45355 7.60775,2.76565 52.64947,2.80977 60.18661,0.0589 13.56725,-4.95163 2.59455,9.38149 -15.84207,20.69374 -10.11698,6.20752 -20.60843,-1.93817 -20.60843,3.09832 z M 316.79675,440.93149 c -0.84929,-2.2235 -1.54417,-5.8211 -1.54417,-7.99468 0,-3.22201 0.7074,-3.36214 3.82989,-0.75868 4.27034,3.56051 5.03691,9.20824 1.54418,11.37688 -1.25715,0.78057 -2.9806,-0.40002 -3.8299,-2.62352 z m 156.83006,-9.04136 c -7.50647,-2.30221 -8.19104,-3.09743 -4.46821,-5.19049 2.41801,-1.35947 4.39638,-4.36647 4.39638,-6.68223 0,-3.55524 -0.58405,-3.43561 -3.75304,0.76873 -3.4117,4.52636 -3.48739,4.24893 -0.83224,-3.05029 2.70877,-7.44663 3.48969,-7.8656 10.75766,-5.7715 10.29688,2.9668 28.74877,2.87313 39.41499,-0.20009 8.16926,-2.35379 8.46642,-2.19837 7.00232,3.66214 -0.95107,3.80696 -0.0731,7.58285 2.32279,9.98988 2.71933,2.73195 3.00632,4.3946 0.97613,5.65514 -4.93632,3.06497 -46.5047,3.67469 -55.81678,0.81871 z m 32.66137,-6.80372 c 1.04724,-7.3755 -6.17196,-10.43164 -11.64742,-4.93078 -3.39023,3.40597 -3.50034,4.73615 -0.67513,8.15611 4.59473,5.562 11.32498,3.80041 12.32255,-3.22533 z m -8.70891,0.99725 c -6.06233,0 0.71469,-8.55448 4.61483,-4.63624 2.30281,2.31349 2.31259,3.74744 0.0412,6.02942 -2.27144,2.28198 -1.07653,-1.39318 -4.65598,-1.39318 z m -9.98133,-1.60086 c 0.8679,-1.41081 -0.21326,-2.56511 -2.40258,-2.56511 -2.18932,0 -3.98058,1.1543 -3.98058,2.56511 0,1.41081 1.08116,2.56511 2.40258,2.56511 1.32141,0 3.11268,-1.1543 3.98058,-2.56511 z m 29.55404,-0.7054 c -0.31583,-3.06712 -3.81787,-2.47312 -4.91504,0.83366 -0.56172,1.69297 0.35746,2.61641 2.04261,2.05208 1.68516,-0.56432 2.97775,-1.86291 2.87243,-2.88574 z m -218.20231,3.04402 c 0,25.79501 -28.11406,-62.58545 -16.46238,-97.39092 6.72449,-20.08712 13.06973,-29.18463 23.98475,-34.38818 11.20398,-5.3413 29.20665,-5.316 29.20665,0.041 0,2.19248 3.49722,10.30102 7.77159,18.01899 4.27438,7.71798 7.06741,15.17736 6.20674,16.57642 -2.55899,4.15975 -5.18093,0.93086 -13.56807,-16.70893 -7.79934,-16.40356 -8.16308,-16.74257 -17.96385,-16.74257 -21.6649,0 -35.02833,29.05771 -32.95444,71.65674 1.31949,27.1029 7.14795,42.88853 18.62507,50.44351 3.49267,2.29911 6.35032,6.35604 6.35032,9.0154 0,6.23686 -11.19638,-11.21066 -11.19638,-0.5215 z m 53.32524,-3.36036 c 0,18.98838 -34.46907,-12.05497 -34.46907,-17.03012 0,-2.33146 2.25665,-6.29073 5.01477,-8.79837 5.19044,-4.71908 14.53976,-26.18265 12.35915,-28.37337 -0.67989,-0.68305 -2.57256,3.09416 -4.20592,8.39379 -3.60274,11.68952 -13.02398,24.75656 -13.11122,18.18498 -0.0793,-5.97525 8.59578,-25.3965 14.32045,-32.05965 2.62474,-3.05503 5.92123,-7.4531 7.32552,-9.77349 2.33437,-3.85719 3.63173,-3.73833 15.13268,1.3863 17.02927,7.58797 39.44798,7.55802 55.60048,-0.0743 11.99554,-5.66805 17.35447,-5.35068 17.35447,1.0278 0,1.86021 1.61233,4.72652 3.58296,6.36959 3.54628,2.9568 16.84316,28.3758 16.84316,32.19824 0,5.05543 -7.84067,-5.36298 -11.72395,-15.57837 -2.38308,-6.26898 -4.89614,-10.83226 -5.58457,-10.14064 -2.22612,2.23644 5.26729,17.85916 12.78819,26.6616 8.80315,10.30318 7.44268,12.80393 -11.39468,20.94514 -11.15415,4.82065 -14.01185,5.19806 -18.43078,2.43415 -4.73235,-2.95996 -4.89649,-2.86592 -1.7256,0.98866 3.01085,3.66002 2.93193,4.25976 -0.56057,4.25976 -3.00826,0 -3.97734,-2.3365 -3.72839,-8.98935 0.18501,-4.94414 -0.42446,-9.75372 -1.35439,-10.68796 -0.92992,-0.93424 -1.69076,2.98747 -1.69076,8.71491 0,7.12948 -1.27367,10.90454 -4.03872,11.97052 -6.15114,2.37136 -48.30321,-16.7247 -48.30321,-2.02986 z m 9.50189,-8.98575 c 0.68679,1.97709 1.27138,0.42039 1.2991,-3.45934 0.0563,-7.8814 -3.12774,-9.48067 -5.10699,-2.56511 -0.70661,2.46892 -2.06894,6.79754 -3.02741,9.61916 -1.23479,3.63512 -0.42467,-0.41494 1.92197,-1.0296 5.00176,-1.31012 4.01255,-5.15827 4.91333,-2.56511 z m 31.20557,1.74141 c 4.22639,-6.06203 5.02373,-22.97322 1.48484,-31.49313 -1.30778,-3.14851 -1.61032,0.40467 -0.78319,9.19839 0.80775,8.58783 0.16296,16.55264 -1.60936,19.87961 -3.51749,6.60298 -14.26527,7.46772 -16.60729,1.33618 -0.88545,-2.31814 -2.32108,-3.50033 -3.19028,-2.62709 -2.82499,2.83809 3.97005,9.15701 10.05485,9.15701 3.25916,0 8.46436,-2.31544 10.65043,-5.45097 z m -40.44694,-13.76811 c 1.96316,-4.7203 3.48935,-10.63946 3.39154,-13.15369 -0.0978,-2.51423 -1.83956,0.85483 -3.87054,7.4868 -4.0527,13.23363 -7.90915,17.41257 -10.29781,11.15894 -2.75221,-7.20543 1.67883,-26.49304 8.39032,-36.52172 l 6.54597,-9.78135 -6.30133,5.86293 c -10.26888,9.55445 -16.00521,36.70415 -9.19963,43.54131 3.98777,4.00627 7.07387,1.668 11.34148,-8.59322 z m 73.5039,-6.65992 c -0.28269,-14.55113 -8.28914,-32.86854 -14.36666,-32.86854 -1.50742,0 -0.72998,2.23219 1.72764,4.96042 9.75877,10.83335 15.67461,41.21157 8.02552,41.21157 -1.98942,0 -4.77113,-3.17433 -6.18159,-7.05406 -1.41045,-3.87973 -2.65517,-5.53529 -2.76603,-3.67903 -0.36992,6.1936 5.19685,13.61844 9.54544,12.73152 3.45533,-0.70474 4.2411,-3.69895 4.01568,-15.30188 z m -92.953,7.53195 c -0.0305,-4.50614 -0.55337,-4.95478 -2.38479,-2.04631 -1.29013,2.04886 -1.77921,4.64603 -1.08685,5.7715 2.21462,3.59995 3.51183,2.208 3.47164,-3.72519 z m 39.05269,-9.61917 c 0.88997,-8.77963 0.6107,-12.17048 -0.73943,-8.97788 -2.07891,4.91589 -3.50804,26.36298 -1.60957,24.15479 0.50539,-0.58784 1.56244,-7.41745 2.349,-15.17691 z m 63.42868,5.96389 c -2.22531,-3.84453 -2.72355,-3.95534 -2.78731,-0.61991 -0.0826,4.31986 2.60227,8.20938 4.41184,6.39141 0.59682,-0.59959 -0.13422,-3.19676 -1.62453,-5.7715 z m -24.82303,-18.53293 c -0.93572,-5.87885 -2.23687,-10.15078 -2.89143,-9.49318 -0.65457,0.6576 -0.3875,5.96841 0.5935,11.80178 0.98099,5.83338 2.28213,10.10531 2.89143,9.49318 0.6093,-0.61212 0.34223,-5.92293 -0.5935,-11.80178 z m -52.94888,-8.59312 c -0.70831,-1.76351 -1.28783,-0.32064 -1.28783,3.20639 0,3.52703 0.57952,4.9699 1.28783,3.20639 0.70831,-1.76352 0.70831,-4.64926 0,-6.41278 z m 24.32538,-1.92383 c 1.53077,0 4.30956,2.02002 6.17508,4.48894 1.86553,2.46892 3.4284,3.18741 3.47306,1.59664 0.0447,-1.59077 -1.73856,-4.40958 -3.96271,-6.26403 -4.52516,-3.77297 -11.56491,-0.84112 -13.18685,5.49193 -0.54412,2.12461 0.25,1.77814 1.88986,-0.82454 1.55558,-2.46892 4.08078,-4.48894 5.61156,-4.48894 z m 146.43804,51.47946 c -0.80793,-1.31333 -0.30126,-3.1129 1.12595,-3.99906 1.4272,-0.88615 2.59491,0.18839 2.59491,2.38787 0,4.50568 -1.5321,5.1691 -3.72086,1.61119 z m -45.43047,-14.71346 c -7.42197,-1.26341 -15.16806,-10.95768 -9.02527,-11.29518 1.80477,-0.0992 0.98347,-1.17233 -1.82512,-2.38483 -3.2059,-1.38401 6.77238,-2.19626 26.80928,-2.18231 17.55369,0.0122 30.60157,0.56359 28.99528,1.22526 -1.6063,0.66167 -2.37545,3.2971 -1.70924,5.85652 0.69709,2.67806 -0.42866,5.28572 -2.65191,6.14282 -5.84229,2.25229 -32.63118,3.99303 -40.59302,2.63772 z m 10.85236,-9.53331 c 0,-0.54093 -2.87242,-1.53516 -6.38316,-2.2094 -3.51074,-0.67423 -6.38316,-0.23165 -6.38316,0.98352 0,1.21517 2.87242,2.20941 6.38316,2.20941 3.51074,0 6.38316,-0.44259 6.38316,-0.98353 z m 22.97938,-1.58159 c 0,-1.41081 -1.65564,-2.56511 -3.67921,-2.56511 -2.02357,0 -4.38931,1.1543 -5.25722,2.56511 -0.8679,1.41082 0.78775,2.56512 3.67922,2.56512 2.89146,0 5.25721,-1.1543 5.25721,-2.56512 z m -49.78866,-10.26044 c 0.92047,-1.49626 15.3461,-2.56511 34.61976,-2.56511 20.32566,0 33.04175,0.98718 33.04175,2.56511 0,1.58396 -13.24209,2.56511 -34.61975,2.56511 -22.42967,0 -34.06413,-0.90321 -33.04176,-2.56511 z M 371.4244,354.74295 c 0,-20.58308 -29.97457,-9.28292 -23.02735,-13.59646 4.39302,-2.72763 17.92082,-33.03696 17.92082,-40.15199 0,-6.64222 0.27303,-6.76796 8.9121,-4.10426 6.37216,1.96475 10.64988,1.95243 15.00961,-0.0432 5.865,-2.68467 6.14736,-2.34692 7.40435,8.85678 0.81553,7.26899 4.26439,15.86329 9.17396,22.86087 l 7.86714,11.21299 -7.46794,3.87974 c -4.10737,2.13386 -13.55377,4.99422 -20.992,6.35637 l -13.52406,2.47664 13.26737,-1.06073 c 7.29705,-0.5834 16.85393,-2.92401 21.23752,-5.20137 4.38358,-2.27736 9.32848,-3.62223 10.98865,-2.98862 3.79052,1.44669 -14.40608,9.63606 -26.34405,11.85613 -4.91504,0.91404 -20.42612,6.06287 -20.42612,-0.35288 z m -8.93643,-8.56999 c 0,-13.60566 -14.53936,-4.61017 -6.38316,0.074 3.51074,2.01623 8.6811,3.65611 11.48969,3.64418 2.80859,-0.0119 -5.10653,2.25563 -5.10653,-3.71815 z m 4.6416,-55.71719 c -1.30176,-1.76351 -3.69492,-6.33477 -5.31813,-10.15836 -2.86476,-6.74813 -2.76222,-6.87975 3.49705,-4.48894 8.31031,3.17423 32.00703,3.17438 40.31708,2.5e-4 5.65576,-2.1603 5.24248,-1.21513 -3.3649,7.69533 -8.56358,8.86513 -11.27329,10.15811 -21.28843,10.15811 -6.31171,0 -12.54091,-1.44287 -13.84267,-3.20639 z m 9.10464,-17.60655 c -6.48253,-0.96227 -15.0998,-3.50981 -19.14949,-5.66119 -6.89497,-3.66292 -7.03843,-4.04648 -2.25654,-6.03323 2.80859,-1.1669 17.1707,-2.12163 31.91581,-2.12163 20.13731,0 28.20215,0.99175 32.40615,3.98505 5.38344,3.83308 4.89661,4.12987 -12.76633,7.78282 -11.33835,2.34493 -22.87208,3.12847 -30.1496,2.04818 z M 151.45247,117.59337 c 2.84063,-2.20106 4.39461,-8.23454 4.95622,-19.24301 0.74485,-14.600507 0.36082,-16.036614 -4.28842,-16.036624 -4.51465,-1e-5 -5.10652,1.710059 -5.10652,14.754064 v 14.75407 l -8.29811,-0.65104 c -5.79671,-0.45479 -8.29811,0.45505 -8.29811,3.0183 0,6.11431 14.50732,8.46213 21.03494,3.40424 z m 37.03754,-2.44414 c 1.77048,-1.47618 3.20587,-8.27485 3.20587,-15.18444 0,-10.648205 -0.73355,-12.511473 -4.9256,-12.511473 -4.14336,0 -4.85296,1.680874 -4.46821,10.584133 0.33284,7.7021 -0.7791,11.36909 -4.08352,13.46683 -6.10723,3.87705 -9.80885,-1.83361 -8.91766,-13.75768 0.50832,-6.801296 -0.39946,-9.151686 -3.78782,-9.807253 -3.76148,-0.727756 -4.45637,1.144346 -4.45637,12.005983 0,10.42522 1.09064,13.64315 5.74485,16.95024 5.88754,4.18345 15.50531,3.40903 21.68846,-1.74634 z m 15.97219,-12.30525 c 0,-13.693168 -0.5646,-15.390663 -5.11908,-15.390663 -4.59296,0 -5.08349,1.581811 -4.77278,15.390663 0.29696,13.19777 1.02633,15.39066 5.11908,15.39066 4.13122,0 4.77278,-2.06881 4.77278,-15.39066 z m 30.87854,12.69685 c 7.61914,-4.09656 3.51234,-7.23995 -7.51716,-5.75372 -7.7622,1.04597 -10.18836,0.38661 -11.53325,-3.13438 -2.73915,-7.17123 3.35463,-12.19764 12.90097,-10.64129 9.72902,1.58612 13.43438,-1.94744 6.14944,-5.864312 -8.6222,-4.63587 -20.0017,-3.230564 -24.3506,3.007162 -2.18607,3.13554 -3.97468,7.4959 -3.97468,9.68969 0,2.19379 1.78861,6.55415 3.97468,9.68969 4.3489,6.23773 15.7284,7.64303 24.3506,3.00716 z m 35.50634,-1.15385 c 0,-2.80941 -2.8937,-3.84767 -10.72371,-3.84767 -10.41504,0 -11.24116,-3.59393 -1.26943,-5.52252 6.10581,-1.18089 5.46772,-6.23961 -0.66303,-5.25646 -2.62036,0.42021 -5.50838,-0.44551 -6.41781,-1.92383 -1.04894,-1.70511 2.13574,-2.68785 8.71023,-2.68785 7.51005,0 10.36375,-1.05947 10.36375,-3.847667 0,-2.953764 -3.26251,-3.847666 -14.04296,-3.847666 h -14.04295 v 15.390663 15.39066 h 14.04295 c 10.78045,0 14.04296,-0.8939 14.04296,-3.84766 z m 41.2895,-0.39756 c 5.50856,-5.0083 6.08723,-15.91205 1.20077,-22.625687 -7.64756,-10.507183 -29.72395,-2.637942 -29.72395,10.595257 0,13.46222 18.40854,21.22652 28.52318,12.03043 z m -17.40628,-6.13323 c -3.65811,-3.67508 -1.58043,-11.89783 3.50128,-13.85691 5.44224,-2.098072 11.31127,3.49072 10.39937,9.90279 -0.854,6.00488 -9.43088,8.44462 -13.90065,3.95412 z m 34.84186,3.96568 c 0,-5.13022 1.27664,-6.41278 6.38317,-6.41278 3.97174,0 6.38316,-1.45356 6.38316,-3.84766 0,-2.39411 -2.41142,-3.84767 -6.38316,-3.84767 -3.51074,0 -6.38317,-1.28059 -6.38317,-2.84575 0,-1.74185 3.46654,-2.43917 8.93643,-1.79763 6.81543,0.79935 8.93725,0.10495 8.93991,-2.925751 0.003,-3.190865 -2.63843,-3.808403 -13.40464,-3.134115 l -13.40812,0.839751 0.49336,14.550915 c 0.27135,8.003 0.55859,14.83948 0.63831,15.19219 0.0797,0.3527 1.86841,0.64127 3.97486,0.64127 2.38305,0 3.82989,-2.4226 3.82989,-6.41277 z m 58.15697,2.41966 c 10.81588,-7.61089 4.442,-21.65799 -9.82731,-21.65799 -4.11258,0 -7.47742,-1.154302 -7.47742,-2.565112 0,-3.220481 10.23299,-3.284972 15.2522,-0.09612 3.54209,2.250392 7.58236,-0.671069 7.68808,-5.559142 0.0599,-2.767778 -17.02477,-5.365318 -23.89504,-3.63299 -13.63635,3.438384 -8.31057,22.113804 6.30633,22.113804 3.91236,0 7.77236,1.07119 8.57777,2.38043 2.33377,3.79363 -8.10889,5.87926 -13.88567,2.77327 -5.27393,-2.83561 -10.25673,-1.63117 -10.25673,2.47926 0,2.36387 11.53934,7.22269 17.94305,7.5552 2.14505,0.11137 6.45369,-1.5944 9.57474,-3.79061 z m 16.81104,-2.41966 c 0.80831,-2.11622 3.83972,-3.84767 6.73646,-3.84767 2.89674,0 5.92815,1.73145 6.73647,3.84767 0.80832,2.11621 3.75386,3.84766 6.54564,3.84766 4.83246,0 4.75811,-0.54491 -1.5498,-11.35849 -3.64418,-6.24717 -6.62578,-13.172963 -6.62578,-15.390659 0,-2.217696 -2.01069,-3.994015 -4.46821,-3.947376 -2.9525,0.05603 -6.80199,5.276878 -11.34802,15.390665 -6.31854,14.0572 -6.49705,15.30586 -2.18812,15.30586 2.58043,0 5.35304,-1.73145 6.16136,-3.84766 z m 4.1832,-11.69439 c 0,-1.49407 1.14897,-2.0031 2.55326,-1.13117 1.4043,0.87193 2.55327,2.09436 2.55327,2.7165 0,0.62214 -1.14897,1.13117 -2.55327,1.13117 -1.40429,0 -2.55326,-1.22242 -2.55326,-2.7165 z m 30.63917,10.41183 c 0,-2.85012 1.70218,-5.13022 3.8299,-5.13022 9.81364,0 16.59622,-4.02048 16.59622,-9.83767 0,-7.538712 -5.49141,-10.683214 -18.65668,-10.683214 -10.37567,0 -12.26249,0.697302 -10.97903,4.05746 0.85239,2.231603 1.5498,9.157404 1.5498,15.390664 0,8.36388 1.00344,11.3332 3.8299,11.3332 2.12772,0 3.82989,-2.2801 3.82989,-5.13022 z m 0,-15.39066 c 0,-1.41081 2.94023,-2.56511 6.53385,-2.56511 3.70573,0 5.85082,1.11029 4.95584,2.56511 -0.8679,1.41081 -3.80813,2.56511 -6.53384,2.56511 -2.72572,0 -4.95585,-1.1543 -4.95585,-2.56511 z m 32.11854,14.75422 c -0.16485,-4.68916 1.46704,-6.0072 8.7337,-7.05405 7.01925,-1.0112 9.12129,-2.60092 9.79813,-7.41008 1.09515,-7.781376 -3.19415,-10.461933 -16.81961,-10.511255 l -10.85138,-0.03928 v 15.390665 c 0,13.20218 0.66419,15.39066 4.67095,15.39066 3.20072,0 4.60713,-1.8151 4.46821,-5.76666 z m -1.47936,-14.75422 c 0,-1.41081 2.94023,-2.56511 6.53385,-2.56511 3.70572,0 5.85082,1.11029 4.95584,2.56511 -0.8679,1.41081 -3.80813,2.56511 -6.53385,2.56511 -2.72571,0 -4.95584,-1.1543 -4.95584,-2.56511 z m 33.19244,14.10811 c 0,-5.13022 1.27663,-6.41278 6.38316,-6.41278 5.10653,0 6.38316,1.28256 6.38316,6.41278 0,4.39733 1.4043,6.41277 4.46821,6.41277 3.75898,0 4.46822,-2.44296 4.46822,-15.39066 0,-12.947701 -0.70924,-15.390664 -4.46822,-15.390664 -2.76603,0 -4.46821,1.95437 -4.46821,5.130222 0,3.762162 -1.70218,5.130222 -6.38316,5.130222 -4.68099,0 -6.38316,-1.36806 -6.38316,-5.130222 0,-3.179312 -1.69916,-5.126767 -4.46821,-5.121137 -3.74714,0.0076 -4.48348,2.491372 -4.56281,15.390659 -0.0805,13.09598 0.58341,15.38158 4.46821,15.38158 3.16482,0 4.56281,-1.9648 4.56281,-6.41277 z m 53.61855,1.28255 c 9.72074,-9.76583 3.20237,-25.651104 -10.52569,-25.651104 -12.0413,0 -17.56022,4.197313 -17.56022,13.355104 0,15.87639 17.07929,23.3537 28.08591,12.296 z m -19.50278,-6.41277 c -2.40883,-6.30641 1.05494,-11.543 7.63517,-11.543 6.83319,0 10.58943,7.9534 5.95509,12.60924 -4.01044,4.02905 -11.87988,3.41164 -13.59026,-1.06624 z"
     id="path1"
     sodipodi:nodetypes="cccccccccccsccccccccsscccccccccccccccccccccccccccccccssccccccccscccccsccccccccscccccscsccccccsccccccccccccccccccccccccccscccccccccccccsccccccsccccccccccccccccccsccccccsccccccccccccccsccccccscccccscccssccccccscsccccccccccssssssssssssssssscssscsscssssssssssssssssssssssssssssssssssssssssssssssssssssssssssssssssssssssssssssssssssssssssssssssssssssssssssssssssssssssssssssssssssssssssssssssssssssssssssssssssssssssssssssssssssssssssssssssssssssssssssssssssssssssssssssssssssssssssssscssssssssssssssssssssssssssssssssssssssssssssssssssssssssssssssssssssssssscsscssssssssssssssssssssssssssssscssssssssssssssssssssssssssssssssssscccsssssssssssssssscscsssssssssssssssssssssssssssssssssssssssssssssssscsssssssssssssssssssssssssssss"
     inkscape:label="path1"
     style="display:inline" /><text
     transform="translate(-23.585787,-55.769552)"
     x="144.12617"
     y="663.52429"
     fill="#000000"
     font-size="29px"
     style="font-size:30.6667px;line-height:1.1;white-space:pre;inline-size:584.851;display:inline"
     xml:space="preserve"
     id="text9"><tspan
       x="144.12617"
       y="663.52429"
       id="tspan1">Choose one: Play this card to be </tspan><tspan
       x="144.12617"
       y="697.25769"
       id="tspan2">considered the aggressor in a battle, </tspan><tspan
       x="144.12617"
       y="730.99109"
       id="tspan3">or action that Go first for any phase </tspan><tspan
       x="144.12617"
       y="764.72448"
       id="tspan4">or requires turn order, or Go last for </tspan><tspan
       x="144.12617"
       y="798.45788"
       id="tspan5">any phase or action that requires </tspan><tspan
       x="144.12617"
       y="832.19128"
       id="tspan7">turn order (even superseding Guild). </tspan><tspan
       x="144.12617"
       y="865.92468"
       id="tspan8">Play the card in the applicable phase </tspan><tspan
       x="144.12617"
       y="899.65808"
       id="tspan9">when you wish to intervene. Discard </tspan><tspan
       x="144.12617"
       y="933.39148"
       id="tspan10">after use.</tspan></text><text
     transform="translate(117.05112,192.71261)"
     fill="#000000"
     font-size="43px"
     style="font-size:40px;white-space:pre;shape-inside:url(#rect2);display:inline"
     xml:space="preserve"
     id="text10"><tspan
       x="0"
       y="0"
       id="tspan11">Special</tspan></text></svg>
