<?xml version="1.0" encoding="UTF-8"?>
<!-- Created with Inkscape (http://www.inkscape.org/) -->
<svg width="822" height="1122" version="1.1" viewBox="0 0 822 1122" xmlns="http://www.w3.org/2000/svg">
 <path d="m86 1e3c-2.4-1.2-5.3-3.5-6.4-5l-2.1-2.8-0.25-468c-0.24-444-0.16-468 1.5-471 0.96-1.9 3.3-4.5 5.1-5.7l3.4-2.2 319-0.019c347-0.02 323-0.41 328 5.5l2.2 2.8v940l-3.1 3.5c-5 5.7 10 5.4-327 5.4l-316 0.036zm47-6.7-9e-3 -5.5-8.4-3.9c-4.6-2.1-10-5.4-13-7.4l-4.1-3.5-8.7 8.4c-13 13-14 14-14 15 0 1.9 6.8 2.5 27 2.5l21-0.028zm218 0.5c0.21-2.8 0.32-5.1 0.24-5.3-0.22-0.38-8.8-0.4-117-0.32l-99 0.076v4.8c0 2.7 0.19 5 0.42 5.2 0.23 0.23 49 0.42 107 0.42h107zm36 0.52c6.2-18 32-20 39-2.2 2.6 7.1 0.75 6.6 26 6.3l7.8-0.1v-10h-20l-32-16-31 15-22 0.028-0.26 3.9c-0.48 7.3-0.28 7.4 16 7.1l15-0.24zm291-0.76 0.32-5.2-42-0.27c-23-0.15-72-0.15-108-7e-4l-66 0.27 0.61 9.5 11 0.5c6 0.28 54 0.49 107 0.48l96-0.019zm50 4c1-1-0.93-3.5-10-13l-11-11-3.6 2.8c-4.5 3.6-16 9.6-19 10-3.9 0.89-4.3 11-0.5 12 7 1 44 0.22 45-0.95zm-304-0.77c0-5.7-7.4-13-14-14-8.4-1.4-20 6.3-20 13v2.3h17c15 0 17-0.21 17-1.5zm309-27 0.3-23-4.9-0.68c-5.1-0.7-7.6 0.72-7.6 4.3 0 2-4.8 11-8.7 17l-3.5 4.9 11 11c14 14 13 15 13-13zm-631-2.8c-3-3.5-8.7-14-11-20-0.46-1.4-1.7-1.7-5.9-1.5l-5.3 0.21-0.27 22c-0.36 29-1.1 29 14 15l12-11zm289 9.7 15-7.7 32 16 245-0.6 7-3.4c10-4.9 20-15 25-26l3.9-8 0.25-401 0.25-401h-23l-1.2 6.5c-6.5 34-44 57-77 47-23-6.7-44-31-44-51v-2.8h-481l0.51 802 3.7 7.7c6.1 13 17 22 29 28l5.5 2.3 243 0.048zm-272-414c-5.4-1.4-12-8.1-13-14-0.95-3.5-1.2-40-0.94-162 0.32-180-0.63-163 9.2-169l4.8-3.2h288c286 0 288 0.017 292 2 3.8 2 8.1 6.6 9.4 10 1.6 4.4 0.76 323-0.84 326-2.2 4.2-8.1 8.8-13 10-5.9 1.5-570 1.3-576-0.15zm575-2.7c5.1-1.2 8.6-3.8 11-8.6l2.2-3.9 0.016-79-6e-3 -160c-0.025-89 0.42-84-8.1-89l-4.3-2.8-57-0.28c-78-0.38-57-0.19-144-0.22h-172l-142 6e-3c-80 8e-3 -72-11-72 93-6e-3 79 0.49 160 0.49 160v79l2.3 3.6c2.6 4.1 6.3 6.9 11 7.9 3.3 0.78 566 1.5 573-0.024zm-298-62c-6.3-25-11-46-11-46 0.21-0.15 5.5-4 12-8.5l11-8.2 11 8.3c6.3 4.6 11 8.7 11 9.3 0.096 1.8-22 92-23 91-0.28-0.012-5.6-21-12-46zm15-14c1.4-9.5 3.6-15 7.8-19l4.1-3.9-4.2-3.5c-2.3-1.9-5.3-5.7-6.6-8.3-3.8-7.6-4.3-7.5-9.6 1.9-1.7 3.1-4.4 6.2-6.4 7.3-4.2 2.5-4.3 3.3-0.46 5.3 3.8 2 5.6 5.4 8.1 16 2.8 12 5.9 13 7.4 3.7zm-4.5-11c0-0.92-1.4-4.1-3-7s-2.6-5.3-2.2-5.3c0.44 0 1.9-1.8 3.3-4 3-4.9 2.7-4.9 6.7 0.52l3.2 4.4-2.4 3.5c-1.3 1.9-2.7 4.9-3.1 6.5-0.69 3.2-2.5 4.1-2.5 1.3zm-30 37c-17-4.4-31-11-44-20l-6.3-4.5 36-21 4 2c2.2 1.1 7.1 3.2 11 4.6l6.9 2.6 4.8 19c2.6 10 4.8 19 4.8 20 0.053 1.4-7.5 0.65-16-1.7zm45 0.75c0.36-0.93 2.7-9.8 5.1-20 4.3-17 5.3-20 8.3-20 0.74-8e-3 5.1-1.8 9.6-3.9l8.2-3.9 16 9.9c9 5.4 17 10 18 11 2.2 1.3-9.4 9.3-23 16-17 8.6-44 15-42 10zm59-37c-21-13-40-24-41-25l-2.1-1.5 4.5-28 14-2.3c7.9-1.3 14-2.2 15-2 1.2 1.5 49 81 48 81-0.15 0.12-18-10-39-23zm-18-21c3.5-3.9 6-12 6.5-20l0.5-8.8h-23v6.3c0 17 9.3 31 16 23zm-8.4-7.7c-1.1-2.5-2.1-7.1-2.2-10l-0.19-5.7h12l-0.19 5.7c-0.42 12-5.8 18-9.4 10zm-160 51c0-0.58 47-79 48-80 0.79-0.83 27 3 28 4.1 1.7 1.7 5 27 3.7 29-2.9 2.7-80 48-80 47zm64-45c5.4-4.2 6.1-13 1.4-17-1.9-1.8-2.2-3-1.9-5.9 0.42-3.1 0.077-4-2.3-5.9-5-4-12 0.047-11 6.4 0.33 2.2-0.21 3.8-1.9 5.9-6.2 7.4-0.73 19 9 19 2.8 0 5.3-0.69 6.9-2zm-12-4c-5.3-5.3-2.4-13 5-13 7.4 0 11 8.3 5.6 14-3.3 3.3-7 3.1-11-0.47zm2.3-20c0.37-3.2 3.7-4.3 5.8-1.8 2 2.4 0.52 4.6-3 4.6-2.8 0-3.1-0.27-2.8-2.8zm-48 31c-12-16-27-56-23-60 0.37-0.37 19 4.1 36 8.5 3.3 0.86 3.9 1.5 5.4 6.2 0.94 2.9 2.8 7.4 4.1 9.9s2.4 5.3 2.4 5.9c0 1-16 28-20 34-1.1 1.7-1.7 1.2-5.8-4.6zm195-12-10-17 3.5-8.2c1.9-4.5 3.8-9.4 4.2-11 0.51-2.1 1.5-3 4.3-3.7 14-3.7 36-9.1 37-8.8 4.7 4.7-20 63-27 65-0.61 0.2-5.7-7.3-11-17zm-105-25c-18-7.2-16-5.3-23-23l-6.1-15 6.4-16c7.7-19 4.1-15 22-22l15-6.2 31 13 13 31-13 31-15 6.4c-8.5 3.5-16 6.4-16 6.3-0.31-0.023-7.1-2.7-15-6zm3.4-22c2.9-1 4.4-1.1 6-0.31 2.6 1.4 12 1.4 14-6e-4 1.5-0.81 3.1-0.72 6.3 0.38 6.9 2.4 17-0.99 17-5.6 0-3-2.3-3.4-6.1-1-4.2 2.6-6.9 2.6-12 0.18-3.6-1.8-3.8-1.8-7.2 0-1.9 1-4.4 1.9-5.5 1.9s-3.6-0.85-5.5-1.9c-3.4-1.8-3.6-1.8-7.2 0-4.7 2.4-6.4 2.4-11-0.13-4.4-2.3-6.5-2-6.5 0.86 0 5 10 8.3 17 5.7zm4.3-12c3.4 0.16 15 0.12 18-0.054 1.2-0.087 4.1 0.17 6.4 0.56 5.7 0.98 11-0.088 14-3 4.5-4.2 0.92-7.5-4.3-3.9-3.1 2.2-9.1 2.1-13-0.17-2.6-1.7-2.9-1.7-5.7-0.036-1.6 0.97-4.5 1.8-6.3 1.8s-4.7-0.8-6.3-1.8c-2.9-1.7-3.1-1.7-5.7 0.036-3.4 2.2-9.4 2.3-13 0.17-4.3-3-8.4-0.98-5.6 2.7 2.6 3.4 6.9 4.8 13 4.1 3.3-0.33 7-0.55 8.2-0.49zm0.25-12c4.6 0.25 13 0.24 17-0.014 1.9-0.11 5.6 0.12 8.2 0.53 7.9 1.2 17-4.2 13-8-1.4-1.4-1.9-1.4-4.8 0.47-3.9 2.4-8.5 2.6-13 0.41-2.9-1.5-3.3-1.5-5.9 0-1.5 0.89-4.4 1.6-6.4 1.6s-4.9-0.73-6.4-1.6c-2.5-1.5-3-1.5-5.9 0-4.2 2.2-8.8 2-13-0.41-3-1.8-3.4-1.9-4.8-0.47-3.8 3.8 4.7 9 13 8 2.8-0.36 6.6-0.56 8.5-0.46zm-106 21c-24-6-44-11-45-12-1.4-0.55 87-23 90-23 0.82-1e-3 5.2 5.1 9.8 11l8.3 11-8.3 12c-4.6 6.3-9 11-9.8 11-0.82-0.032-21-5-45-11zm44-2c2.3-1.2 5.7-3.7 7.5-5.6l3.3-3.5-3.8-3.9c-10-10-27-11-37-0.59-10 9.7 15 21 30 14zm-15-1.9c-9.5-1.7-14-6.7-10-10 3.5-2.9 5.5-3.4 4.6-1.1-0.84 2.2 1.8 8.1 4.2 9.4 5.9 3.2 13-0.82 14-7.3 0.097-4.4 0.49-4.4 4.5-1.1 6.2 5.2-5.5 12-17 10zm0.61-8.5c-0.87-2.3 1.2-4.6 3.8-4.2 3.3 0.48 2.9 5.2-0.53 5.6-1.7 0.2-2.8-0.27-3.3-1.4zm142 13c-4.4-6.1-8.1-11-8.1-12 0-1.1 15-22 16-23 1.2-0.75 92 22 91 23-0.58 0.51-89 23-91 23-0.23 0-4.1-5-8.5-11zm54-12c-13-9.4-13-9.3-16-7.5l-2.9 1.7-13-10-3.3 2.8c-2.6 2.3-3.8 2.7-6 2.1-2.6-0.71-8.3 4.9-13 13-0.6 0.99 5.4 1.2 29 1.2h30zm-241-17c0-15 18-59 27-64 0.95-0.59 21 33 21 35 0 0.8-1.1 3.6-2.4 6.2s-3.2 7.1-4.1 10c-1.5 4.6-2.1 5.3-5.3 6.2-2 0.53-10 2.6-18 4.5s-15 3.8-16 4.1c-1.4 0.42-1.8-0.045-1.8-2.1zm236-2.7-20-5-1.2-4.2c-0.67-2.3-2.6-7.2-4.2-11l-3-6.7 10-18c5.7-9.6 11-18 11-18 2.9-0.19 18 28 22 42 3.3 10 6.2 25 4.9 25-0.4-0.051-9.6-2.3-20-5.1zm-196-52c-13-22-24-41-24-41 0-0.82 77 45 80 47 1.3 1.2-1.9 27-3.6 29-0.39 0.34-5.7 1.4-12 2.3s-12 1.9-14 2.2c-2.6 0.49-3.6-1-27-40zm46 22c-3.1-31-21-32-23-1.1l-0.61 7.8h25zm-18-3.5c2.5-18 9.9-19 12-0.95l0.85 6.2h-14zm108 19-13-2.1-2.3-14c-1.2-7.7-1.9-14-1.5-15 1.1-1.1 81-49 81-48 0.71 0.7-49 81-50 81-0.79 0.079-7.3-0.82-14-2zm13-9.2c9.6-4.6 9.9-20 0.51-25-4.1-2.1-9.9-1.9-14 0.41-15 9.3-2.9 32 13 24zm-11-9.5c-7.1-5.6 0.14-17 8.2-13 5.9 3.1 5.6 10-0.51 13-3.1 1.6-4.7 1.5-7.7-0.91zm-62-6.6c-8.1-6-12-9.1-11-10 0.23-0.89 5.3-22 11-46 6-24 11-44 11-44 0.7-0.03 24 92 23 92-0.26 0.2-5.5 4-12 8.5l-11 8.1zm13-6.3c3.7-2 3.4-5.8-0.99-15-4.5-9.1-4.8-13-1.1-17 3.6-4.4 5.1-2 5.1 8 0 11 1.2 14 5 14 4.5 0 7.9-7.9 5-11-1.8-2.2-3-0.92-3 3 0 2.3-0.47 3.4-1.4 3.4-2.5 0-2.8-2-1.6-9.4 2-12-1.9-17-9.4-13-8.2 3.9-9.7 13-4 23 2.3 4.3 3.6 7.8 3.2 8.8-0.97 2.5-3.3 1-5.2-3.4-3-6.5-8.2-4.5-5.5 2.1 2.6 6.2 9.2 9.5 14 7zm-65-25c-9.1-5.5-17-10-17-11-2-5.9 61-32 66-28 0.21 0.2-1.8 9.2-4.5 20l-4.9 20-5 1.7c-2.7 0.93-7.5 2.9-11 4.3-7.1 3.4-4.9 4.1-24-7.4zm102 7.5c-2.8-1.3-7.3-3.2-10-4.1l-5.2-1.7-5-20c-2.7-11-4.7-20-4.3-20 6.7-3.6 66 21 66 27-0.036 0.8-34 21-36 21-0.53-0.043-3.2-1.2-6-2.5zm-357 221 0.0033-419h-11v838h11zm642 404c4e-3 -8.1 0.12-197 0.25-419l0.24-404-11 2e-5 0.24 311c0.13 171 0.24 359 0.25 419l0.012 108h10zm-79-734c46-15 54-78 13-104-31-20-73-5.2-86 29-17 46 26 91 73 75zm-27-3.4c-43-7.6-58-62-25-90 33-28 85-4.8 85 39 0 32-29 57-60 51zm29-7.7c9.4-4.5 18-13 21-19 0.86-1.9 2.2-4.8 2.9-6.5 3-6.7 4.4-24 2.2-27-0.34-0.55-0.87-2.4-1.2-4.2-5-29-49-44-73-25-47 35-4.3 108 48 83zm-26-8.4c-5.4-2.3-9.7-7.9-18-23-2.8-5.2-5.6-10-6.3-12-1.7-2.8-0.61-5.3 2.3-5.3 2.5 0 6.4 3.7 8.7 8.2 0.74 1.5 2.4 3.7 3.6 4.8l2.3 2.1 1.1-2.1c0.87-1.6 0.74-5.7-0.55-17-2.8-25 2.9-29 7.1-4.6 2.4 14 3.4 13 3.4-2.3 0-14 0.78-17 4-17 2.5 0 3.3 2.8 3.5 12 0.094 3.8 0.24 9.6 0.33 13 0.26 9.5 1.7 6.5 3-5.9 2.1-22 7.8-20 7.3 2.4-0.32 16 0.65 17 5.5 4.2 2.9-7.5 4.5-9.5 6.9-8.6 3 1.1 1.3 8.7-4.5 21-1.3 2.7-2.5 7.6-2.9 12-1.5 16-14 24-27 19zm-503-60c-2.1-2.1-1.5-9.2 1.1-12l2.3-2.2 5.2 6.5c2.9 3.6 5 7 4.6 7.5-0.37 0.6 2 0.98 6.1 0.98 6.5 0 6.6-0.053 4.6-1.8-2.8-2.4-14-16-14-17 0-0.45 3.4-3.6 7.6-6.9 4.2-3.3 7.3-6.1 7-6.2-0.35-0.061-1.5-0.11-2.6-0.11-7.2 0-10 0.34-9.6 1.1 0.3 0.49-2.6 3.5-6.6 6.6l-7.1 5.7 0.78-14-8 0.039 0.16 15c0.098 9.1-0.24 15-0.87 16-0.81 0.98 0.25 1.2 4.8 1.2 4.5 0 5.6-0.27 4.6-1.2zm36-0.55c-0.78-3.3 1.1-4.4 7.1-4.4s7.9 1.1 7.1 4.4c-0.36 1.5 0.35 1.8 5.1 1.8 5.2 0 5.5-0.11 4-1.8-3.6-4.1-12-21-11-23 0.59-1.9 0.21-2-5-2-5.2 0-5.6 0.17-5 2 0.62 1.9-7.2 19-10 23-1.3 1.6-1.1 1.8 3.6 1.8 4.3 0 5-0.26 4.6-1.8zm5.9-9c-2.7-0.52-2.7-0.54-0.62-4.5l1.6-3.2 1.7 3.5c1.6 3.3 1.7 5.1 0.23 4.8-0.38-0.075-1.7-0.33-2.9-0.57zm30 10c-2.9-1.2-1.5-10 1.6-10 3 0 9.9 8 8.7 10-0.39 0.62 1.5 1 5 1h5.6l-4.1-5.2c-3.8-4.7-4-5.3-2.4-6.2 12-6.9 6.1-15-11-15l-12-0.33v27l5-0.078c2.8-0.043 4.4-0.3 3.8-0.58zm-1.2-18c0-2.4 0.24-2.5 6.4-2.5 6.6 0 8 0.67 7 3.4-1.2 3.1-13 2.2-13-0.91zm33 17c-1.4-3.6 1.4-5.7 7.1-5.2 6.7 0.55 7.8 1.2 7.2 4.2-0.44 2.3-0.21 2.4 5.1 2.4 5.2 0 5.4-0.11 4-1.8-3.4-4-12-21-11-23 0.54-1.7 0.064-1.9-4.6-1.9-4.3 0-5.1 0.27-4.6 1.5 0.33 0.87-2 6.8-5.4 14l-6 12h4.5c3.5 0 4.4-0.32 3.9-1.4zm3.6-9c0-0.26 0.77-2.1 1.7-4l1.7-3.6 1.8 3.3c2.4 4.5 2.3 4.8-1.7 4.8-1.9 0-3.5-0.21-3.5-0.47zm31 5.7c-0.77-11-0.088-11 4.7-2.8 3.2 5.9 4.6 7.5 5.3 6.5 0.51-0.77 2.6-4.3 4.6-7.9 4.1-7.2 4.8-6.5 4.1 4.2l-0.33 4.8 8-4e-3v-27l-5.3 7.2e-4c-4.8 6.4e-4 -5.3 0.2-4.7 1.9 0.38 1.2-0.74 4.2-3 8.1l-3.6 6.2-3.4-5.9c-1.8-3.2-3.4-6.9-3.4-8.1-0.028-2.1-0.5-2.2-5.5-2.2-5.2 0-6.5 0.67-4.8 2.4 1 1 1.2 20 0.15 22-0.79 2.1-0.58 2.2 3.4 2.3l4.2 6.2e-4zm39 3.5c-2-2.4 0.87-4.5 6.6-5 5.8-0.47 9.5 2.1 7.1 5-0.88 1.1 0.01 1.3 4.7 1.3 4.5 0 5.5-0.28 4.7-1.2-2.9-3.6-12-23-12-24 0.48-1.3-0.34-1.5-4.6-1.5-4.7 0-5.1 0.19-4.6 2 0.41 1.3-1.4 5.8-5.3 14l-6 12h5c4.1 0 4.8-0.25 3.9-1.3zm3.6-10c0.37-0.96 1.2-2.8 1.9-4.1l1.2-2.4 1.6 3.1c2.3 4.4 2 5.2-1.9 5.2-2.9 0-3.4-0.29-2.8-1.8zm-217-4c0.0029-2.4 5.5-13 9.6-18 4.3-5.6 5.1-3.9-7.6-17-14-14-13-15-14 14l-0.3 22h6.1c5.1 0 6.1-0.28 6.1-1.8zm641-22c0-28 0.98-27-13-13l-11 11 3.1 3.5c3.2 3.6 8.6 14 9.8 19 0.64 2.6 1 2.8 6.1 2.8h5.4zm-310-11 15-7.5h20l-0.6-10-14-0.23c-15-0.26-18 0.1-18 2.3 0 4.5-5.8 12-12 15-11 5.3-28-3.6-28-14 0-2.7-0.55-2.8-17-2.7l-14 0.045-0.6 10h22l15 7.4c8.2 4.1 15 7.5 16 7.5 0.38 0.042 7.6-3.3 16-7.4zm-308 1.6c4-2.7 9.6-5.7 13-6.7l5.2-1.8v-5.1c0-6.5 0.62-6.4-23-6.4-29-0.021-28-0.36-14 14 13 13 10 12 19 6.1zm603-6.5 11-11-3.3-1.1c-2-0.7-11-1.1-24-1.1h-21l0.3 5.6c0.29 5.4 0.42 5.6 3.8 6.8 6.7 2.4 13 5.7 17 9.1 2.1 1.9 4.1 3.4 4.4 3.4 0.28 0.023 5.6-5.1 12-11zm-303 0.12c4.2-2.1 8.9-8.2 8.9-12 0.012-0.95-4.1-1.2-17-1.2h-17l1.1 3.1c3.4 9.8 15 14 25 9.7zm-64-3c0.15-0.15 0.4-2.5 0.57-5.3l0.31-5h-215l-0.6 10 55 0.26c59 0.28 159-0.02 160-0.47zm286 0.27 42-0.039-0.65-10h-215l-0.6 10 42 0.26c23 0.14 53 0.17 66 0.05s43-0.23 66-0.25z"/>
 <g fill="#000000" font-family="Sans" stroke="#000000" stroke-linejoin="round">
  <text x="109.89637" y="226.72539" font-size="43px" xml:space="preserve"><tspan x="109.89637" y="190" font-size="43px">Special</tspan></text>
  <text x="108.98964" y="639.46893" font-size="36px" xml:space="preserve"><tspan x="108.98964" y="639.46893">You may play this card to activate a </tspan><tspan x="108.98964" y="676.13556">single Karama Power of your choice </tspan><tspan x="108.98964" y="712.80219">(see list of Karama Powers).</tspan><tspan x="108.98964" y="749.46881"/><tspan x="108.98964" y="786.13544">The powers listed will tell you when to</tspan><tspan x="108.98964" y="822.80206">play this card to activate them. </tspan></text>
 </g>
</svg>
