<?xml version="1.0" encoding="UTF-8"?>
<!-- Created with Inkscape (http://www.inkscape.org/) -->
<svg width="822" height="1122" version="1.1" viewBox="0 0 822 1122" xmlns="http://www.w3.org/2000/svg">
 <path d="m85.955 1033.7c-2.386-1.2198-5.2644-3.4883-6.3966-5.0411l-2.0585-2.8233-0.2502-467.68c-0.23738-443.72-0.16055-467.85 1.5-471.16 0.96261-1.914 3.2589-4.4879 5.103-5.7196l3.3528-2.2395 318.96-0.01851c346.55-0.02012 323.04-0.41267 327.67 5.4714l2.1679 2.756v939.66l-3.0914 3.5209c-4.9743 5.6654 10.349 5.4097-326.51 5.4482l-316.1 0.036zm47.036-6.7178-9e-3 -5.5-8.4362-3.8574c-4.6399-2.1215-10.285-5.44-12.545-7.3744l-4.1088-3.517-8.6534 8.3744c-13.098 12.676-14.238 13.867-14.238 14.88 0 1.9185 6.7773 2.5489 27.112 2.5218l20.888-0.028zm218.24 0.5c0.21467-2.75 0.32282-5.1152 0.24033-5.2559-0.22207-0.3789-8.8289-0.4025-116.72-0.3198l-98.75 0.0757v4.8333c0 2.6584 0.18769 5.0209 0.41709 5.25 0.2294 0.2292 48.569 0.4167 107.42 0.4167h107zm35.596 0.5174c6.1667-18.5 32.235-19.993 38.773-2.2208 2.6085 7.091 0.74548 6.633 25.65 6.3054l7.75-0.102v-10h-19.791l-31.709-15.679-31 15.152-21.891 0.028-0.25772 3.9035c-0.48014 7.2723-0.28379 7.3576 16.32 7.0857l14.746-0.2414zm290.91-0.7649 0.32078-5.2092-41.78-0.2717c-22.979-0.1494-71.616-0.1497-108.08-7e-4l-66.304 0.2708 0.30394 4.7292 0.30394 4.7291 11 0.5c6.05 0.275 54.406 0.4914 107.46 0.4809l96.459-0.019zm50.428 3.9806c1.0228-1.0225-0.93011-3.4703-10.127-12.694l-11.394-11.427-3.5726 2.8271c-4.508 3.5672-15.703 9.6302-19.323 10.464-3.8588 0.8893-4.2981 11.237-0.5 11.776 7.0182 0.9968 43.747 0.2222 44.917-0.9473zm-304.17-0.7729c0-5.6797-7.389-13-14.245-14.113-8.4329-1.3684-19.755 6.297-19.755 13.375v2.2775h17c14.64 0 17-0.2138 17-1.5398zm309.2-27.152 0.30269-23.192-4.927-0.67663c-5.0682-0.69601-7.573 0.72098-7.573 4.2841 0 2.0005-4.7595 11.108-8.6903 16.629l-3.4555 4.8538 11.323 11.299c13.752 13.723 12.654 14.835 13.02-13.198zm-630.88-2.782c-2.965-3.4507-8.7377-14.161-10.636-19.733-0.46299-1.3591-1.6602-1.6646-5.8794-1.5l-5.298 0.20665-0.26958 21.779c-0.36305 29.33-1.067 28.584 13.709 14.53l11.834-11.256zm289.17 9.7436 15.498-7.73 31.52 15.563 245.04-0.6028 6.9786-3.4171c9.9515-4.8728 19.96-15.082 25.079-25.583l3.8999-8 0.25381-401.25 0.2538-401.25h-22.781l-1.231 6.5239c-6.4517 34.193-43.534 56.734-77.103 46.868-22.732-6.6804-43.893-31.063-43.893-50.574v-2.8185h-481.01l0.25612 401.25 0.25612 401.25 3.7475 7.6667c6.1302 12.541 16.517 22.489 28.728 27.513l5.5242 2.2728 243.48 0.048zm-273.48-179.56v-12.289l5.9095-0.23338c5.3432-0.21102 6.1098 0.0213 8 2.4243 4.6919 5.9648 0.94826 14.388-6.3948 14.388h-4.5147v4c0 2.8889-0.41667 4-1.5 4-1.252 0-1.5-2.0322-1.5-12.289zm11.815-0.99598c2.5104-5.2636-1.0282-10.631-6.1598-9.3428-2.6511 0.66538-4.1304 9.8192-1.9407 12.009 1.7416 1.7416 6.7909 0.0798 8.1005-2.6661zm34.185 12.023c0-0.69458 1.0125-1.7071 2.25-2.25 3.3365-1.4638 3.2761-5.3604-0.21004-13.553-1.6923-3.9769-2.863-7.4446-2.6016-7.7061 1.3898-1.3898 3.6235 1.2922 5.1749 6.2137 2.2073 7.0025 2.7314 6.9543 4.8067-0.44199 1.0652-3.7964 2.2154-6 3.1318-6 1.9084 0 1.9704-0.2847-2.0517 9.4317-1.925 4.6503-3.5 9.1556-3.5 10.012 0 1.9845-3.5358 5.5566-5.5 5.5566-0.825 0-1.5-0.56829-1.5-1.2629zm182-6.4434c-6.1367-2.2433-7.9896-9.8692-3.6296-14.938 4.2932-4.9912 12.483-3.0616 14.084 3.3185 1.6814 6.6994-4.6533 13.74-10.454 11.619zm6.5872-4.7865c1.6793-2.563 1.3259-6.7022-0.79002-9.2517-2.7515-3.3154-8.7972 0.28871-8.7972 5.2444 0 5.8879 6.5587 8.6293 9.5872 4.0073zm41.286 4.7061c-6.2833-0.77138-9.1922-8.6197-5.1898-14.002 2.3884-3.2116 10.317-4.5954 10.317-1.8006 0 0.94671-0.57034 1.3072-1.5022 0.94965-2.7906-1.0708-6.2724 0.55411-7.2605 3.3884-1.7708 5.0797 1.4742 9.2508 7.197 9.2508 1.4112 0 2.5657 0.39752 2.5657 0.88337 0 1.1368-2.7818 1.7407-6.1269 1.33zm-255.87-11.713c0-6.325-0.0238-11.838-0.0528-12.25-0.0291-0.4125 0.64595-0.8955 1.5-1.0733 1.3386-0.27872 1.5528 1.4115 1.5528 12.25-2e-5 10.51-0.24622 12.573-1.5 12.573-1.2464 0-1.5-1.9444-1.5-11.5zm9.1814 10.281c-3.2633-3.2633 0.42819-8.7814 5.8745-8.7814 3.399 0 4.1127-0.81652 2.822-3.2282-0.83355-1.5575-1.8637-1.8878-4.9648-1.5921-2.7019 0.25767-3.913-0.0219-3.913-0.90325 0-7.9541 11.767 0.0808 12.161 8.304l0.33932 7.0804-5.5686 0.15096c-3.1501 0.0854-6.0817-0.36213-6.75-1.0304zm8.2368-1.3884c2.0084-0.77069 2.0637-4.2708 0.0796-5.0322-2.5574-0.98139-6.4978 0.52955-6.4978 2.4916 0 3.0439 2.5137 4.0389 6.4182 2.5406zm36.066 1.5813c-0.34866-0.56414-0.89803-3.6016-1.2208-6.75-0.35547-3.467-1.2132-6.2107-2.1751-6.9579-1.4095-1.0948-1.3351-1.3048 0.66181-1.8666 1.5269-0.42961 2.25-1.399 2.25-3.0164 0-1.4652 0.58522-2.3834 1.519-2.3834 1.121 0 1.3546 0.65514 0.89159 2.5-0.54917 2.1881-0.30201 2.5 1.981 2.5 1.6519 0 2.6084 0.55004 2.6084 1.5 0 0.93333-0.94444 1.5-2.5 1.5-2.3194 0-2.5 0.34667-2.5 4.8 0 5.0743 1.24 7.2 4.2 7.2 0.99 0 1.8 0.45 1.8 1 0 1.3189-6.699 1.296-7.5159-0.0257zm10.516-11.474c0-10.444 0.24667-12.5 1.5-12.5 1.1049 0 1.5 1.153 1.5 4.3772v4.3772l4.6555-0.52475c6.1462-0.69276 7.3445 0.93253 7.3445 9.9616 0 9.7202-2.7728 9.8615-3.2043 0.16326-0.53795-12.09-8.7957-11.974-8.7957 0.12417 0 5.1302-0.32001 6.5214-1.5 6.5214-1.2533 0-1.5-2.0556-1.5-12.5zm19.823 3.9977c-0.28742-7.5547-0.12843-8.5021 1.4265-8.5 1.5292 2e-3 1.75 1.0746 1.75 8.5023 0 12.327-2.7075 12.325-3.1765-2e-3zm7.4044 7.3186c0.21702-0.65105 2.1588-1.2136 4.3151-1.25 4.3661-0.0738 6.1804-2.8845 2.5963-4.022-8.9369-2.8365-8.9865-10.544-0.0679-10.544 4.9652 0 5.1725 1.7742 0.25587 2.1896-5.0864 0.42984-5.2214 2.3136-0.34401 4.8018 7.7362 3.9467 6.4975 10.009-2.0452 10.009-3.487 0-4.9797-0.37515-4.7102-1.1837zm25.227-1.2708c-5.3732-5.3732-1.5897-14.545 6-14.545 2.3243 0 3.5454 0.46887 3.5454 1.3613 0 0.91787-0.82579 1.2035-2.535 0.87672-5.52-1.0552-8.6757 6.5512-4.465 10.762 1.1111 1.1111 3.3333 2 5 2 1.65 0 3 0.45 3 1 0 2.1734-8.0243 1.0666-10.545-1.4546zm15.208 1.7835c-3.1102-3.1102 1.2629-9.329 6.5602-9.329 2.1019 0 2.7775-0.48183 2.7775-1.981 0-2.1138-3.1821-3.4386-6.8462-2.8503-1.1346 0.18216-2.0834-6e-3 -2.1084-0.41879-0.0786-1.2976 9.0098-1.949 10.455-0.74939 0.83571 0.69358 1.4692 3.8712 1.6723 8.3884l0.32696 7.2719-6.0877 0.1652c-3.3482 0.0909-6.3857-0.13284-6.75-0.49711zm9.1541-4.579c0.28361-2.4648 2e-3 -2.75-2.7148-2.75-3.1283 0-5.2481 2.3341-4.3646 4.8058 0.95435 2.6696 6.7286 0.99285 7.0794-2.0558zm8.1836-3.25c0-6.8889 0.28431-8.5 1.5-8.5 0.825 0 1.5 0.54 1.5 1.2 0 0.93333 0.26667 0.93333 1.2 0 1.7277-1.7277 6.884-1.5824 6.2096 0.175-0.2902 0.75625-1.6772 1.375-3.0823 1.375-3.4359 0-4.2938 1.6912-4.3119 8.5-0.0118 4.4376-0.35767 5.75-1.5153 5.75-1.2157 0-1.5-1.6111-1.5-8.5zm14.751 6.7696c-5.3747-5.9637-1.5226-15.27 6.3208-15.27 3.9167 0 3.9286-0.01212 3.9286-4 0-2.8889 0.41667-4 1.5-4 1.252 0 1.5 2.0322 1.5 12.289v12.289l-5.8273 0.23014c-4.5096 0.17809-6.1879-0.17001-7.4221-1.5394zm10.047-7.0196 0.29771-6.25h-3.3477c-4.4291 0-5.7477 1.5257-5.7477 6.6503 0 9.3413 8.3518 8.9613 8.7977-0.40031zm18.237 6.8157c-0.56935-1.0638-1.0352-4.2138-1.0352-7 0-3.8362-0.36407-5.0657-1.5-5.0657-1.8845 0-1.9522-1.6402-0.11147-2.7003 0.76369-0.43983 1.5512-1.6624 1.75-2.7168 0.56894-3.0175 2.8615-3.1507 2.8615-0.1662 0 2.0889 0.47849 2.5833 2.5 2.5833 1.5556 0 2.5 0.56667 2.5 1.5 0 0.94116-0.94999 1.5-2.5499 1.5-3.6983 0-3.4118 11.292 0.2999 11.82 3.3043 0.46929 2.7434 2.1804-0.71482 2.1804-1.9078 0-3.3339-0.68962-4-1.9343zm39.061-0.28849c-1.5275-4.0461 1.9931-7.7772 7.3382-7.7772 1.8507 0 2.5657-0.52753 2.5657-1.893 0-2.2322-1.8697-3.107-6.6408-3.107-2.0635 0-3.226-0.40657-2.8592-1 3.6596-5.9214 12.5 0.0826 12.5 8.4894v7.0894l-6.0221 0.23783c-5.4562 0.21548-6.1029 0.0238-6.8818-2.0394zm9.7204-3.0272c0.28361-2.4648 2e-3 -2.75-2.7148-2.75-3.1283 0-5.2481 2.3341-4.3646 4.8058 0.95435 2.6696 6.7286 0.99285 7.0794-2.0558zm26.159 2.6849c-0.53639-1.4108-0.97525-4.5608-0.97525-7 0-3.2755-0.39215-4.4349-1.5-4.4349-2.2121 0-1.8242-2.1024 0.5-2.7102 1.2943-0.33846 2-1.364 2-2.9064 0-1.3108 0.45-2.3834 1-2.3834s1 1.125 1 2.5c0 2 0.5 2.5 2.5 2.5 1.5556 0 2.5 0.56667 2.5 1.5 0 0.94152-0.95025 1.5-2.5523 1.5-3.6242 0-3.3643 9.8785 0.30226 11.487 3.1498 1.3819 2.8011 2.5129-0.77475 2.5129-2.3267 0-3.2498-0.59194-4-2.5651zm10.848-5.9372c-0.28742-7.5547-0.12843-8.5021 1.4265-8.5 1.5292 2e-3 1.75 1.0746 1.75 8.5023 0 12.327-2.7075 12.325-3.1765-2e-3zm11.473 5.2523c-0.5717-1.7875-1.9906-5.6125-3.1532-8.5-1.9753-4.9061-1.9972-5.25-0.33539-5.25 1.2643 0 2.3238 1.6049 3.6656 5.5524 2.5126 7.392 3.0966 7.4883 5.1875 0.85517 1.5815-5.0172 3.5571-7.5231 4.8846-6.1956 0.81359 0.81359-6.8436 16.788-8.0472 16.788-0.63937 0-1.6303-1.4625-2.202-3.25zm14.885 2.0314c-3.2973-3.2973 0.43857-8.7814 5.9821-8.7814 3.2985 0 4.4593-1.5446 2.7284-3.6303-0.86299-1.0398-2.5209-1.4244-5.0861-1.1798-2.6095 0.24886-3.8058-0.03827-3.8058-0.91348 0-0.86078 1.5883-1.2764 4.8776-1.2764 6.4704 0 7.6224 1.5086 7.6224 9.9819v6.6735l-5.5686 0.15366c-3.1536 0.087-6.081-0.35867-6.75-1.0277zm8.2368-1.3884c2.6882-1.0316 2.0118-5.393-0.83642-5.393-3.6458 0-5.5818 1.0198-5.5818 2.9403 0 2.955 2.5598 3.9333 6.4182 2.4527zm11.782 1.407c-0.66-0.66-1.2-3.81-1.2-7 0-4.4889-0.33908-5.8-1.5-5.8-0.825 0-1.5-0.675-1.5-1.5s0.675-1.5 1.5-1.5c0.93333 0 1.5-0.94444 1.5-2.5s0.56667-2.5 1.5-2.5c0.92189 0 1.5 0.93672 1.5 2.4304 0 1.7297 0.62611 2.5226 2.1717 2.75 3.2759 0.48203 3.3743 2.6262 0.13762 2.9974-4.7441 0.54401-4.1088 11.822 0.66596 11.822 1.1136 0 2.0248 0.45 2.0248 1 0 1.4066-5.3507 1.2493-6.8-0.2zm11.974-1.1144c-5.8895-6.2691 0.4238-17.69 8.1541-14.751 7.1647 2.724 5.9077 9.0652-1.797 9.0652-4.2117 0-5.5314 0.35236-5.5314 1.477 0 2.3149 4.6219 4.8055 7.9981 4.31 2.0489-0.30072 3.0019-0.0194 3.0019 0.88622 0 2.4752-9.3024 1.6983-11.826-0.98764zm9.3528-8.7294c0.95533-1.5458-1.4511-3.9562-3.9495-3.9562-2.4368 0-4.5776 1.7304-4.5776 3.7 0 1.5859 7.5648 1.8132 8.5271 0.2562zm17.448 8.4787c-0.53639-1.4108-0.97525-4.3987-0.97525-6.6398 0-2.702-0.58952-4.5273-1.75-5.4185-1.6339-1.2546-1.6007-1.3858 0.5-1.9769 1.5269-0.42961 2.25-1.399 2.25-3.0164 0-1.3108 0.45-2.3834 1-2.3834s1 1.125 1 2.5c0 2 0.5 2.5 2.5 2.5 1.5556 0 2.5 0.56667 2.5 1.5s-0.94444 1.5-2.5 1.5c-2.3194 0-2.5 0.34667-2.5 4.8 0 5.0743 1.24 7.2 4.2 7.2 0.99 0 1.8 0.45 1.8 1 0 2.4188-7.0315 1.0474-8.0248-1.5651zm11.025-9.9349c0-10.444 0.24667-12.5 1.5-12.5 1.1049 0 1.5 1.153 1.5 4.3772v4.3772l4.6555-0.52475c6.1462-0.69276 7.3445 0.93253 7.3445 9.9616 0 9.7202-2.7728 9.8615-3.2043 0.16326-0.53795-12.09-8.7957-11.974-8.7957 0.12417 0 5.1302-0.32001 6.5214-1.5 6.5214-1.2533 0-1.5-2.0556-1.5-12.5zm21.388 9.9784c-6.9728-6.9728 2.3063-19.44 9.9776-13.406 5.3252 4.1888 3.7382 7.9274-3.3651 7.9274-6.4488 0-7.2058 0.79418-3.9041 4.0959 1.592 1.592 3.0367 2.0062 6.0091 1.7227 2.3838-0.22733 3.7814 0.0283 3.5759 0.65411-0.80456 2.4506-9.5563 1.7428-12.293-0.9943zm9.432-9.7284c-0.4218-2.97-5.6083-3.7594-7.5202-1.1447-2.0885 2.8562-1.5698 3.3947 3.2702 3.3947 4.1668 0 4.5414-0.19831 4.25-2.25zm7.6448 3.7724c-0.0263-6.2958 0.30025-8.5224 1.25-8.5224 0.70711 0 1.2856 0.54 1.2856 1.2 0 0.93333 0.26667 0.93333 1.2 0 1.477-1.477 8.4409-1.59 9.33-0.15144 0.44676 0.72288 1.066 0.70168 1.9937-0.0682 2.3584-1.9573 7.788-0.76384 9.1888 2.0197 2.142 4.2565 1.6964 14-0.6402 14-1.7316 0-1.8717-0.54288-1.377-5.336 0.86459-8.3771-2.8036-12.413-7.2452-7.9712-1.3449 1.3449-1.5846 2.8863-1.1663 7.5 0.41447 4.5709 0.22744 5.8071-0.8786 5.8071-1.06 0-1.4052-1.5666-1.4052-6.3776 0-11.842-7.6871-12.662-8.2045-0.87515-0.48293 11.001-3.2843 9.9712-3.3312-1.2249zm29.916 7.0255c-0.70371-1.8339 0.32049-3.5479 2.12-3.5479 1.8389 0 2.6471 1.4532 1.8963 3.4098-0.76328 1.9891-3.2729 2.0754-4.0163 0.13813zm-358.38-20.548c0-1.5062 0.52215-2.0461 1.75-1.8096 0.9625 0.18536 1.75 0.99969 1.75 1.8096s-0.7875 1.6243-1.75 1.8096c-1.2278 0.23646-1.75-0.30348-1.75-1.8096zm194 0c0-1.5062 0.52215-2.0461 1.75-1.8096 0.9625 0.18536 1.75 0.99969 1.75 1.8096s-0.7875 1.6243-1.75 1.8096c-1.2278 0.23646-1.75-0.30348-1.75-1.8096zm-233.05-11.167c-0.0268-0.18333-0.20517-5.9916-0.39642-12.907l-0.34774-12.574 5.8359-0.16084c5.2018-0.14336 6.0598 0.12381 7.8964 2.4587 5.2722 6.7025 0.17516 16.368-8.0058 15.181-2.0325-0.29487-2.294 0.0994-2.3835 3.5938-0.0748 2.9207-2.2719 6.6475-2.5989 4.4083zm10.049-11.833c5.021-5.021-0.0366-14.192-6.0515-10.972-1.5752 0.84305-1.866 1.9342-1.6192 6.0767 0.40764 6.8433 3.6523 8.9142 7.6707 4.8958zm320 10.035c0-0.53065 0.86952-1.4302 1.9323-1.9989 3.6994-1.9799 1.8086-13.48-3.269-19.882-0.84227-1.062-0.5691-1.273 1.2944-1 1.8589 0.27234 2.7525 1.4984 4.1957 5.7563 2.4564 7.2472 2.5156 7.2501 4.471 0.21689 1.3967-5.0237 4.3574-8.6576 4.381-5.3771 6e-3 0.78699-5.1541 14.425-7.5666 20-1.3169 3.0431-5.4388 4.775-5.4388 2.2852zm-388.75-6.7832c-0.88782-0.29738-1.25-3.292-1.25-10.335v-9.9167h-3.5833c-2.4222 0-3.4483-0.40504-3.1667-1.25 0.51531-1.5459 16.739-1.7878 16.771-0.25 0.0115 0.55-1.5486 1.1388-3.4668 1.3084l-3.4876 0.30839-0.28324 10.277c-0.21174 7.6827-0.59878 10.171-1.5332 9.8583zm36.25-0.38105c-7.6659-4.2915-5.0901-16.871 3.4546-16.871 3.702 0 7.0454 3.0846 7.0454 6.5 0 2.3889-0.26667 2.5-6 2.5-4.3594 0-6 0.36778-6 1.345 0 2.4155 3.566 4.655 7.4121 4.655 2.556 0 3.6235 0.39904 3.344 1.25-0.53783 1.6372-6.702 2.0508-9.256 0.62097zm7.5-11.171c0-3.4795-4.724-4.8331-7.4286-2.1286-2.5673 2.5673-1.8316 3.4286 2.9286 3.4286 3.0256 0 4.5-0.42593 4.5-1.3zm37.789 10.937c-4.4588-3.3876-4.5-11.146-0.0777-14.625 8.6739-6.8229 18.22 5.2097 10.365 13.065-3.1688 3.1688-7.3378 3.8009-10.288 1.5598zm8.654-2.8592c2.0809-2.9709 1.9668-7.0494-0.27458-9.8175-2.5297-3.124-6.5816-2.083-8.0266 2.0621-2.4074 6.9057 4.4252 13.289 8.3012 7.7553zm12.829 2.9615c-2.4984-3.2431-6.1598-15.568-4.7819-16.097 0.98147-0.37663 2.0293 1.4092 3.6049 6.1437l2.2212 6.6746 2.2288-5.9802c2.9969-8.0412 4.5905-8.0997 7.4742-0.27462l2.3196 6.2944 2.0231-6.25c1.1831-3.655 2.5939-6.25 3.398-6.25 1.5546 0 1.3294 0.98285-2.2297 9.7307-2.9498 7.2504-4.3487 7.2543-6.9502 0.0193-2.5745-7.1597-2.8413-7.1441-5.0945 0.29777-1.9874 6.564-2.7488 7.5924-4.2134 5.6912zm25.695-1.4201c-5.9016-4.9659-2.4253-15.319 5.1437-15.319 3.5525 0 6.8892 3.1482 6.8892 6.5 0 2.3889-0.26667 2.5-6 2.5-4.3594 0-6 0.36778-6 1.345 0 2.5664 3.5676 4.655 7.9512 4.655 3.7032 0 4.1225 0.20628 3.0488 1.5-2.0087 2.4203-7.4444 1.8384-11.033-1.1812zm9.0329-9.6188c0-3.4795-4.724-4.8331-7.4286-2.1286-2.5673 2.5673-1.8316 3.4286 2.9286 3.4286 3.0256 0 4.5-0.42593 4.5-1.3zm19.496 11.293c-0.73945-1.1965 0.77703-1.8124 5.4274-2.2044 4.3397-0.36582 4.9265-2.0237 1.3499-3.8142-6.4695-3.2386-8.3862-7.773-4.2267-9.9991 2.4319-1.3015 8.5806-0.90608 8.1594 0.52473-0.16194 0.55-1.5534 0.86823-3.092 0.70719-4.0898-0.42807-5.8849 2.1391-2.9387 4.2027 1.2486 0.87456 2.8195 1.5901 3.491 1.5901 1.8935 0 4.1726 3.9021 3.587 6.1414-0.84211 3.2202-10.136 5.4744-11.757 2.8515zm40.754 0.34478c-2.7284-1.101-1.009-2.3377 3.25-2.3377 5.7593 0 6.0342-2.1767 0.62333-4.9371-4.0945-2.0888-5.4408-4.072-4.4743-6.5907 1.3236-3.4491 10.351-5.0746 10.351-1.8638 0 1.2022-0.6113 1.455-2.4205 1.0009-4.6428-1.1653-8.0802 2.4622-3.6619 3.8645 3.2471 1.0306 7.0825 4.5733 7.0825 6.542 0 3.537-6.3591 6.0936-10.75 4.3218zm18-0.87167c-1.9038-1.3364-2.25-2.494-2.25-7.5228 0-4.6163-0.33492-5.9433-1.5-5.9433-0.825 0-1.5-0.45-1.5-1s0.675-1 1.5-1c0.93333 0 1.5-0.94444 1.5-2.5s0.56667-2.5 1.5-2.5 1.5 0.94444 1.5 2.5c0 2 0.5 2.5 2.5 2.5 1.375 0 2.5 0.45 2.5 1s-1.1475 1-2.5499 1c-3.7456 0-3.4042 11.294 0.35753 11.827 1.2692 0.17991 2.1319 0.85491 1.9171 1.5-0.60508 1.8174-2.9972 1.8781-5.4748 0.13895zm11.717-1.1472c-5.9016-4.9659-2.4253-15.319 5.1437-15.319 3.5525 0 6.8892 3.1482 6.8892 6.5 0 2.3889-0.26667 2.5-6 2.5-4.3594 0-6 0.36778-6 1.345 0 2.5664 3.5676 4.655 7.9512 4.655 3.7032 0 4.1225 0.20628 3.0488 1.5-2.0087 2.4203-7.4444 1.8384-11.033-1.1812zm9.0329-9.6188c0-3.515-4.2178-4.7178-7.1713-2.045-2.8338 2.5645-2.2105 3.345 2.6713 3.345 3.0256 0 4.5-0.42593 4.5-1.3zm9.5593 9.9502c-5.7315-5.7315-1.6458-16.346 5.9505-15.459 3.3273 0.38844 3.4013 0.31534 3.6927-3.6473 0.72545-9.8632 2.8845-4.1544 3.0919 8.1753 0.19546 11.621 0.10764 12.219-1.7945 12.218-1.1-3.5e-4 -3.4358 0.28577-5.1907 0.63582-2.5879 0.51623-3.6741 0.15299-5.75-1.9229zm10.249-5.9779c0.46731-7.3256-3.3682-10.112-7.808-5.6723-4.323 4.323-1.867 11.279 3.8154 10.806 3.6458-0.30324 3.6878-0.35738 3.9926-5.1342zm78.817 6.8095c-1.1028-1.1028-1.6246-3.3785-1.6246-7.0846 0-3.9308-0.4201-5.6212-1.5-6.0356-0.825-0.31659-1.5-0.97746-1.5-1.4686 0-0.49115 0.675-0.89301 1.5-0.89301 0.93333 0 1.5-0.94444 1.5-2.5s0.56667-2.5 1.5-2.5 1.5 0.94444 1.5 2.5c0 2 0.5 2.5 2.5 2.5 3.3819 0 3.19 1.7873-0.2344 2.1836-4.8665 0.56315-4.0542 11.816 0.85292 11.816 2.6307 0 1.928 2.3958-0.8222 2.8032-1.1259 0.16677-2.7781-0.42788-3.6717-1.3214zm13.691 0.53526c-7.4668-3.0905-4.6848-17.046 3.3892-17.002 3.3548 0.0184 4.6226 0.77528 6.1458 3.669 2.3642 4.4916 1.6122 5.3157-4.8503 5.3157-4.5333 0-6 0.34921-6 1.4286 0 2.6234 3.0488 4.5714 7.1548 4.5714 2.7619 0 3.884 0.38948 3.6013 1.25-0.50103 1.5252-6.4427 2.0079-9.4407 0.76705zm7.6846-10.946c0-3.5858-6.2868-5.2726-7.9648-2.1372-1.5608 2.9163-1.3919 3.0657 3.4648 3.0657 2.475 0 4.5-0.41786 4.5-0.92857zm50.455 9.474c-4.0486-4.0486-2.8124-12.15 2.2028-14.435 6.1287-2.7924 11.14-0.0428 12.031 6.6017 1.1071 8.2538-8.5169 13.55-14.234 7.8335zm9.0816-0.94822c1.3336-0.97517 1.9184-2.6132 1.9184-5.3737 0-6.7403-4.2883-9.3898-8.4546-5.2235-5.2713 5.2713 0.66258 14.892 6.5361 10.597zm11.277 2.2161c-2.5237-1.9651-3.0572-15.819-0.60904-15.816 1.4079 2e-3 1.7557 1.176 2 6.7522l0.29569 6.75h7l0.29569-6.75c0.46342-10.579 3.2043-9.5193 3.2043 1.2388 0 7.6241-0.10272 7.9879-2.25 7.9683-1.2375-0.0113-3.6 0.24728-5.25 0.57452-1.8133 0.35962-3.6672 0.0755-4.6866-0.71833zm77.544 0.1951c-4.8851-1.9714-6.6067-7.691-3.894-12.937 3.536-6.8379 13.537-4.8794 13.537 2.651 0 2.1169-0.42298 2.2775-6 2.2775-6.4368 0-6.8457 0.34759-4.4433 3.7775 1.2115 1.7296 2.542 2.2225 6 2.2225 4.4152 0 5.8879 1.2317 2.8615 2.393-2.1402 0.82128-5.4663 0.6626-8.0612-0.38459zm6.643-11.308c0-3.515-4.2178-4.7178-7.1713-2.045-2.8338 2.5645-2.2105 3.345 2.6713 3.345 3.0256 0 4.5-0.42593 4.5-1.3zm38.75 11.24c-1.3558-0.80549-1.75-2.3873-1.75-7.0214 0-4.3946-0.398-6.1344-1.5-6.5573-0.825-0.31659-1.5-0.97746-1.5-1.4686 0-0.49115 0.675-0.89301 1.5-0.89301 0.93333 0 1.5-0.94444 1.5-2.5s0.56667-2.5 1.5-2.5 1.5 0.94444 1.5 2.5c0 2 0.5 2.5 2.5 2.5 3.3907 0 3.1859 1.7882-0.25 2.1836-4.8646 0.55974-4.529 11.816 0.35239 11.816 1.6043 0 2.4102 0.46795 2.1526 1.25-0.53783 1.6331-3.7891 2.0069-6.005 0.69034zm11.513-1.1903c-1.9469-2.1006-2.6394-4.7394-2.374-9.0454 0.62369-10.117 16.111-8.0425 16.111 2.1576 0 7.84-8.7759 12.24-13.737 6.8878zm8.908-1.405c2.312-2.0923 2.4104-8.0448 0.17375-10.516-3.5334-3.9044-8.345-1.0711-8.345 4.914 0 6.1073 4.3316 9.0771 8.1713 5.6023zm-558.17-8.845v-12.25c0-3.4326 2.5598 0.17889 2.8029 3.9544 0.29321 4.5536 0.37906 4.6698 2.6763 3.6231 6.0459-2.7547 9.5208 1.1644 9.5208 10.738 0 4.5179-0.29648 5.4349-1.7572 5.4349-1.4703 0-1.6985-0.73851-1.3974-4.5233 0.62021-7.7981-0.30018-9.6442-4.629-9.285l-3.7163 0.30836-0.29569 6.75c-0.56178 12.824-3.2043 8.907-3.2043-4.75zm132.16 3.5102c0-7.094 1.4494-11.688 2.5992-8.2388 0.27305 0.81913 1.0203 0.83154 2.7452 0.0456 2.6215-1.1944 5.9791-0.40508 5.002 1.176-0.34232 0.55388-1.705 1.0071-3.0282 1.0071-3.1417 0-4.4762 2.6636-4.4762 8.9343 0 3.7111-0.38 5.0657-1.421 5.0657-1.1095 0-1.4211-1.7517-1.4211-7.9898zm35.842-4.5102c0-10.444 0.24667-12.5 1.5-12.5s1.5 2.0556 1.5 12.5-0.24667 12.5-1.5 12.5-1.5-2.0556-1.5-12.5zm8.8262 4.5084c-0.30322-7.4297 0.58068-10.268 2.5761-8.2728 1.3828 1.3828 0.62696 16.264-0.82608 16.264-1.0858 0-1.5013-1.8973-1.75-7.9916zm83.803 0.74165c-3.0365-8.3429-3.0964-8.75-1.2875-8.75 0.7721 0 2.117 2.5607 3.168 6.032 2.0501 6.7709 2.523 6.6912 4.9658-0.83636 2.2238-6.8528 4.0692-6.5239 6.9632 1.241 2.4331 6.5284 2.6994 6.46 4.6204-1.1867 0.94991-3.781 1.7991-5.25 3.0348-5.25 2.0328 0-3.6728 15.929-5.722 15.975-0.62045 0.01381-2.1378-2.6749-3.3719-5.9749-2.7785-7.4295-3.0791-7.4294-5.2628 1e-3 -2.3281 7.9223-3.8678 7.6512-7.1081-1.2514zm26.197-0.74165c-0.30322-7.4297 0.58068-10.268 2.5761-8.2728 1.3828 1.3828 0.62696 16.264-0.82608 16.264-1.0858 0-1.5013-1.8973-1.75-7.9916zm8.1738-3.5084c0-6.325-0.0238-11.838-0.0528-12.25s0.64595-0.8955 1.5-1.0733c1.3386-0.27872 1.5528 1.4115 1.5528 12.25-2e-5 10.51-0.24622 12.573-1.5 12.573-1.2464 0-1.5-1.9444-1.5-11.5zm8.8088-0.59807c-0.29834-11.688 0.06042-13.719 2.1912-12.402 1.7177 1.0616 1.2956 24.5-0.4412 24.5-1.1585 0-1.5018-2.3731-1.75-12.098zm47.191-0.47525c0-10.977 0.20245-12.532 1.5949-12.25 2.5354 0.51397 2.6872 24.824 0.1551 24.824-1.5738-3.9e-4 -1.75-1.266-1.75-12.574zm9 0.0733c0-10.444 0.24667-12.5 1.5-12.5s1.5 2.0556 1.5 12.5-0.24667 12.5-1.5 12.5-1.5-2.0556-1.5-12.5zm82.087 5.75c-1.3171-3.7125-2.5988-7.3125-2.848-8s0.23374-1.25 1.0734-1.25c0.95739 0 2.1656 1.9576 3.2401 5.25 2.4724 7.575 2.5191 7.5837 4.7203 0.87009 2.6263-8.0101 4.7086-8.1921 7.0954-0.62009 0.95355 3.025 2.0786 5.5 2.5 5.5s1.5464-2.475 2.5-5.5c1.0416-3.3044 2.3063-5.5 3.168-5.5 1.1615 0 1.0354 0.9984-0.66307 5.25-1.1536 2.8875-2.541 6.4875-3.0832 8-1.518 4.2344-3.0822 3.3126-5.66-3.3353-2.6288-6.7796-3.142-6.7029-5.5876 0.83529-2.2486 6.9308-3.5733 6.623-6.4552-1.5zm25.913-5.8333c0-13.01 1.8844-17.48 3-7.1169 0.41203 3.8275 0.76392 4.4763 2 3.6878 5.8671-3.7429 10 0.0114 10 9.0839 0 9.8902-2.7721 10.045-3.2043 0.17857l-0.29569-6.75h-8l-0.29569 6.75c-0.59066 13.484-3.2043 8.7255-3.2043-5.8333zm38.826 4.4847c-0.30525-7.5798 0.48677-10.631 2.0873-8.0415 0.50509 0.81726 1.5274 0.79998 3.8177-0.0645 6.0328-2.2771 8.05-0.20957 8.4378 8.6486 0.27223 6.2172 0.0632 7.5603-1.1762 7.5584-1.1736-2e-3 -1.4276-1.0036-1.1474-4.5257 0.62021-7.7981-0.30018-9.6442-4.629-9.285l-3.7163 0.30835-0.29569 6.75c-0.45298 10.341-2.9475 9.3447-3.3782-1.3486zm-219.71-12.256c-0.87143-1.05-0.81537-1.6532 0.23464-2.5247s1.6532-0.81537 2.5247 0.23464 0.81537 1.6532-0.23464 2.5247-1.6532 0.81537-2.5247-0.23464zm-109.95-1.3042c0.42145-2.1884 3.3271-2.498 3.3271-0.35451 0 0.81747-0.82837 1.6458-1.8408 1.8408-1.3364 0.25736-1.7437-0.14991-1.4863-1.4863zm-192.26-32.428c-6.9426-6.9426-6.5333-22.477 0.79372-30.127 1.43-1.493 3.015-2.458 3.5222-2.1445 0.5072 0.31347 0.01 1.5411-1.1053 2.7281-6.9501 7.3981-6.8683 21.685 0.16836 29.381 2.8008 3.063-0.32792 3.2134-3.3789 0.16235zm403.6-1.5308c5.8836-8.67 5.8497-20.228-0.0801-27.275-3.3759-4.012-1.219-5.156 2.4055-1.2759 6.5379 6.9988 6.7778 20.614 0.50961 28.92-3.5232 4.6685-6.032 4.3424-2.8351-0.3685zm-374.22-4.5849c-6.2854-1.6287-8.3796-9.2612-3.953-14.407 4.4458-5.1686 12.658-2.4297 12.658 4.2217 0 2.2535-0.34086 2.3892-6 2.3892-3.3333 0-6 0.44444-6 1 0 2.2589 4.1117 5 7.5 5 1.925 0 3.5 0.39754 3.5 0.88342 0 1.3517-4.1259 1.8406-7.7053 0.91315zm5.7053-11.097c0-3.6982-6.1955-5.0717-7.9648-1.7657-1.5608 2.9163-1.3919 3.0657 3.4648 3.0657 3.0256 0 4.5-0.42593 4.5-1.3zm13.5 11.477c-6.812-1.2835-8.793-10.038-3.4748-15.356 3.4616-3.4616 7.1343-3.3218 10.272 0.39093 3.4383 4.0682 1.9324 6.25-4.5474 6.588-4.1737 0.21769-5.75 0.69112-5.75 1.727 0 2.2721 4.6539 4.751 7.9981 4.2601 1.9285-0.28305 3.0019-7e-3 3.0019 0.77272 0 1.3098-4.2586 2.2282-7.5 1.6175zm5.0271-11.221c0.95533-1.5458-1.4511-3.9562-3.9495-3.9562-2.4368 0-4.5776 1.7304-4.5776 3.7 0 1.5859 7.5648 1.8132 8.5271 0.2562zm71.973 10.889c-3.1772-1.7378-4.5-3.9725-4.5-7.6021 0-11.289 14.387-13.657 16.441-2.7056 1.3642 7.2721-5.9491 13.585-11.941 10.308zm7.5776-3.4387c3.3772-4.0693 0.7788-11.407-4.0395-11.407-4.4473 0-6.525 6.4321-3.4814 10.777 1.8166 2.5936 5.626 2.9122 7.5209 0.62906zm51.867 3.2574c-5.4231-2.6937-2.1371-9.664 4.5558-9.664 2.3062 0 3.5-0.46987 3.5-1.3776 0-2.4636-2.8401-3.9101-6.5085-3.3148-2.6319 0.42709-3.4915 0.21276-3.4915-0.87053 0-1.0742 1.3801-1.4371 5.4648-1.4371 6.6882 0 7.5352 1.1616 7.5352 10.334v6.4657h-3.4337c-1.8885 0-3.8262 0.24256-4.3058 0.53902-0.47968 0.29645-1.972-7e-3 -3.3163-0.67504zm6.474-2.271c0.86999-0.33384 1.5818-1.6838 1.5818-3 0-2.833-4.8665-3.4637-6.9894-0.90574-2.5949 3.1267 0.88601 5.6408 5.4076 3.9057zm120.94 2.6369c-4.887-2.0212-6.6052-7.7155-3.9042-12.939 4.4673-8.6388 16.782-4.0889 15.207 5.6184-0.97 5.9774-6.2623 9.4051-11.303 7.3204zm7.0863-4.2525c3.0352-4.3334 0.67739-10.777-3.9433-10.777-2.668 0-5.5 3.3469-5.5 6.5s2.832 6.5 5.5 6.5c1.3326 0 3.0741-0.98151 3.9433-2.2225zm42.057 4.5067c-5.6016-1.3551-8.0924-7.6951-5.3703-13.67 2.4957-5.4775 10.841-5.4518 12.929 0.0399 1.0396 2.7343 0.63186 5.4683-0.78092 5.2363-4.0326-0.66205-10.278 0.30173-10.278 1.5861 0 2.3149 4.6219 4.8055 7.9981 4.31 3.5642-0.52312 4.1994 1.6588 0.75188 2.5827-1.2375 0.33164-2.475 0.55692-2.75 0.50063-0.275-0.0563-1.4-0.32007-2.5-0.58617zm4.7982-10.916c0.34732-0.34732 0.18148-1.4723-0.36852-2.5-1.7404-3.252-7.9296-1.8226-7.9296 1.8315 0 1.34 7.0581 1.9086 8.2982 0.66852zm-358.07 9.4477c0.21702-0.65105 2.1588-1.2136 4.3151-1.25 4.3661-0.0738 6.1804-2.8845 2.5963-4.022-8.9369-2.8365-8.9865-10.544-0.0679-10.544 5.0085 0 5.1535 1.7779 0.17857 2.1896-4.9482 0.40954-4.9289 2.7395 0.042 5.0801 7.4845 3.5242 5.9832 9.7302-2.3539 9.7302-3.487 0-4.9797-0.37515-4.7102-1.1837zm60.772-11.316c0-10.444 0.24667-12.5 1.5-12.5s1.5 2.0556 1.5 12.5-0.24667 12.5-1.5 12.5-1.5-2.0556-1.5-12.5zm8 4c0-6.8889 0.28431-8.5 1.5-8.5s1.5 1.6111 1.5 8.5-0.28431 8.5-1.5 8.5-1.5-1.6111-1.5-8.5zm7.2279 7.3163c0.21702-0.65105 2.1588-1.2136 4.3151-1.25 5.2244-0.0883 5.7655-2.5718 1.0503-4.8204-7.2126-3.4395-6.2657-9.7459 1.4634-9.7459 5.0194 0 5.1763 1.7772 0.1933 2.1896-4.9017 0.40569-4.8096 2.2934 0.25 5.1255 4.2328 2.3693 5.6067 5.6465 3.4543 8.2399-1.5068 1.8156-11.324 2.0547-10.726 0.26122zm18.807-0.75052c-0.56935-1.0638-1.0352-4.2138-1.0352-7 0-3.9547-0.34726-5.0657-1.5833-5.0657-0.87084 0-1.4221-0.48375-1.225-1.075 0.19708-0.59125 0.79266-0.92875 1.3235-0.75s1.1946-0.98788 1.475-2.5925c0.64997-3.7195 3.0098-4.6881 3.0098-1.2354 0 1.8152 0.60346 2.6026 2.1717 2.8333 3.2358 0.47614 3.5346 2.8196 0.3594 2.8196-3.6995 0-3.5117 9.8504 0.21893 11.487 3.1315 1.3738 2.8075 2.5129-0.71482 2.5129-1.9078 0-3.3339-0.68962-4-1.9343zm39.965-4.9491c0-6.1523-0.22311-6.9417-2.1006-7.4327-2.2104-0.57804-1.7552-2.6839 0.58018-2.6839 0.74884 0 1.6579-1.3494 2.0202-2.9988 0.72979-3.3227 3.9708-6.1417 6.1151-5.3188 2.1129 0.81078 1.6525 2.1405-0.8648 2.498-3.2582 0.46274-3.797 5.5287-0.63729 5.9923 3.2446 0.47606 3.636 2.8273 0.47062 2.8273-2.5317 0-2.5833 0.13978-2.5833 7 0 5.5556-0.30952 7-1.5 7-1.1881 0-1.5-1.4315-1.5-6.8834zm20-4.69c0-10.432 0.17055-11.54 1.7297-11.24 1.3763 0.26505 1.6671 1.1994 1.4235 4.5733-0.38911 5.3891 0.71008 5.3385 5.6379-0.25978 2.1786-2.475 4.7874-4.5 5.7974-4.5 1.3799 0 0.65971 1.1946-2.8972 4.8058l-4.7336 4.8058 2.3849 2.2405c1.3117 1.2323 3.8242 4.2446 5.5833 6.6942 5.0686 7.0579 0.54142 6.0788-4.8381-1.0463-2.2839-3.025-4.813-5.5-5.6201-5.5-1.1122 0-1.4676 1.3317-1.4676 5.5 0 4.2222-0.34848 5.5-1.5 5.5-1.2469 0-1.5-1.9526-1.5-11.573zm38 4.6551c0-3.805-0.27314-7.63-0.60699-8.5-0.38982-1.0159-0.0619-1.5818 0.91667-1.5818 0.83801 0 1.7299 0.5625 1.982 1.25 0.36666 1 0.72333 1 1.7833 0 1.936-1.8264 5.925-1.5861 5.925 0.35699 0 1.0505-0.54453 1.398-1.5724 1.0036-3.6957-1.4182-5.4276 1.1104-5.4276 7.9246 0 5.0798-0.32135 6.4648-1.5 6.4648-1.1888 0-1.5-1.4354-1.5-6.9182zm13.181 5.6996c-3.2973-3.2973 0.43857-8.7814 5.9821-8.7814 3.3079 0 4.4582-1.546 2.7141-3.6475-0.92022-1.1088-2.391-1.4128-5.0861-1.0514-2.8307 0.37968-3.7915 0.15256-3.7915-0.8963 0-8.2623 12.447 0.18525 12.615 8.5617l0.13417 6.6824-5.6932 0.15691c-3.2529 0.0897-6.1996-0.34947-6.8745-1.0244zm8.2368-1.3884c2.6882-1.0316 2.0118-5.393-0.83642-5.393-3.6458 0-5.5818 1.0198-5.5818 2.9403 0 2.955 2.5598 3.9333 6.4182 2.4527zm9.0461-5.8706c-0.0263-6.2958 0.30025-8.5224 1.25-8.5224 0.70711 0 1.2856 0.54 1.2856 1.2 0 0.93333 0.26667 0.93333 1.2 0 1.477-1.477 8.4409-1.59 9.33-0.15144 0.44676 0.72288 1.066 0.70168 1.9937-0.0682 2.3584-1.9573 7.788-0.76384 9.1888 2.0197 2.142 4.2565 1.6964 14-0.6402 14-1.7316 0-1.8717-0.54288-1.377-5.336 0.86459-8.3771-2.8036-12.413-7.2452-7.9712-1.3449 1.3449-1.5846 2.8863-1.1663 7.5 0.46532 5.1316 0.31598 5.8071-1.2838 5.8071-1.6058 0-1.7491-0.67581-1.2679-5.9821 0.57233-6.3118-0.51667-9.0316-3.6045-9.0026-3.4915 0.0329-4.4693 1.7348-4.6826 8.1502-0.34961 10.518-2.9357 9.0921-2.9806-1.643zm29.549 6.5021c-1.9946-3.727 1.9797-8.0245 7.4212-8.0245 1.8908 0 2.5657-0.52107 2.5657-1.981 0-2.1446-3.1535-3.4198-7.0487-2.8503-1.246 0.18216-2.4572-0.23129-2.6917-0.91879-0.56959-1.6702 9.8749-1.7155 11.54-0.05 0.70764 0.70764 1.2 4.1088 1.2 8.2894v7.0894l-5.9517 0.23505c-5.0898 0.20101-6.1086-0.0581-7.0352-1.7894zm9.8033-3.2745c0.28178-2.4489-6e-3 -2.75-2.6276-2.75-3.3551 0-5.7016 2.2214-4.8076 4.5511 1.1194 2.9171 7.0578 1.4785 7.4352-1.8011zm17.184-6.25v-11.5h5.845c11.907 0 12.983 11.502 1.2608 13.482-4.0825 0.68973-4.1058 0.71867-4.1058 5.1058 0 3.2552-0.39332 4.4121-1.5 4.4121-1.2464 0-1.5-1.9444-1.5-11.5zm10.8-1.7c3.2789-3.2789 0.24502-7.8-5.2343-7.8-2.3742 0-2.5657 0.33592-2.5657 4.5 0 4.7465 4.4646 6.6354 7.8 3.3zm32.349 11.031c-6.0697-16.387-5.6786-14.831-3.7292-14.831 0.82832 0 2.1334 2.1868 3.1332 5.25 2.4975 7.6521 2.5907 7.6742 5.0086 1.1867 2.8943-7.7659 4.5758-8.0154 6.7851-1.0067 2.3436 7.4348 3.0528 7.5086 5.1635 0.53733 1.0376-3.4269 2.3779-5.9673 3.1484-5.9673 1.8676 0 1.7676 0.50463-1.8324 9.25-2.8346 6.8861-5.8259 10.164-5.8259 6.3834 0-0.75165-0.98869-3.7457-2.1971-6.6534l-2.1971-5.2868-2.1174 6.3416c-2.3064 6.9076-3.9956 8.425-5.3396 4.7966zm42.851-6.3313c0-6.8889 0.28431-8.5 1.5-8.5 0.825 0 1.5 0.54 1.5 1.2 0 0.93333 0.26667 0.93333 1.2 0 1.7277-1.7277 6.884-1.5824 6.2096 0.175-0.2902 0.75625-1.6772 1.375-3.0823 1.375-3.4359 0-4.2938 1.6912-4.3119 8.5-0.0118 4.4376-0.35767 5.75-1.5153 5.75-1.2157 0-1.5-1.6111-1.5-8.5zm12.228 7.3163c0.21702-0.65105 2.1588-1.2136 4.3151-1.25 5.2244-0.0883 5.7655-2.5718 1.0503-4.8204-4.6171-2.2017-5.966-4.7688-3.9891-7.5913 1.7158-2.4496 9.3952-3.189 9.3964-0.90461 4e-4 0.77793-1.4158 1.25-3.75 1.25-4.9644 0-4.8632 1.9534 0.24934 4.8151 4.2328 2.3693 5.6067 5.6465 3.4543 8.2399-1.5068 1.8156-11.324 2.0547-10.726 0.26122zm28.439-0.24315c-0.76254-1.9871 2.0649-4.2418 3.5087-2.798 1.3808 1.3808 0.34634 4.2248-1.5368 4.2248-0.78341 0-1.6708-0.6421-1.9719-1.4269zm-337.49-20.232c0.42145-2.1884 3.3271-2.498 3.3271-0.35451 0 0.81747-0.82837 1.6458-1.8408 1.8408-1.3364 0.25736-1.7437-0.14991-1.4863-1.4863zm-35.173-11.013c-4.4181-1.7338-6.3652-5.9499-3.75-8.1201 1.2698-1.0538 1.3652-6.5432 0.19732-11.36-0.99653-4.1099 2.6349-7.2343 7.6297-6.5644 2.6017 0.34896 4.2203 0.0632 5.0064-0.8839 1.5355-1.8502 3.9167-1.7892 3.9167 0.1004 0 0.84963-0.89638 1.5-2.0674 1.5-1.6363 0-1.9302 0.43207-1.4097 2.0722 1.5802 4.9787-1.2638 8.173-7.4397 8.3562-6.3074 0.18705-2.1124 3.5286 4.4668 3.558 3.7914 0.017 5.45 1.5966 5.45 5.1906 0 4.1582-7.4053 7.9538-12 6.1507zm8.7444-3.5305c3.3861-2.8102-0.4616-6.1094-6.5368-5.605-3.2128 0.26676-3.75 0.67584-4.0248 3.0652-0.49634 4.3156 6.4183 5.9784 10.562 2.5398zm-2.3766-14.912c2.5465-3.6356-0.68037-6.873-5.3679-5.3852-2.5172 0.79891-2.6809 5.004-0.25 6.4199 2.6443 1.5402 3.9876 1.2928 5.6179-1.0347zm317.63 16.509c0-0.33334 1.125-1.491 2.5-2.5726 3.2066-2.5224 3.1186-4.744-0.52705-13.292-3.5176-8.2482-3.4095-7.5288-1.1313-7.5288 1.3826 0 2.295 1.4971 3.6603 6.0064 2.0728 6.846 2.3515 6.8273 4.5002-0.30126 0.99969-3.3167 2.1899-5.311 3.2967-5.5242 1.5706-0.30246 1.5289 0.1634-0.4465 4.9927-1.1983 2.9295-3.0466 7.8013-4.1074 10.826-2.3538 6.7122-7.7449 11.859-7.7449 7.3939zm-370.33-7.0606c-1.5263-1.5263-0.46413-2.4755 2.5833-2.3086 5.0284 0.2753 5.75 0.0865 5.75-1.5044 0-0.81382-1.7445-2.3696-3.8767-3.4574-5.528-2.8202-6.4258-6.7603-2.0714-9.0907 2.8659-1.5338 7.9481-1.2123 7.9481 0.50278 0 1.0642-0.76599 1.3351-2.75 0.97287-1.5125-0.27618-3.425-0.0308-4.25 0.54531-1.5941 1.1132-1.1082 1.6748 5.4531 6.3035 3.1379 2.2136 3.2682 5.0847 0.32438 7.1466-2.2433 1.5713-7.879 2.1218-9.1108 0.89003zm75.539-0.3569c-7.9306-3.2658-4.6108-17.635 3.8802-16.795 8.4675 0.83776 8.8707 8.8182 0.44558 8.8182-4.8317 0-5.5314 0.24854-5.5314 1.9648 0 2.5003 2.8595 4.0352 7.5176 4.0352 2.4716 0 3.5166 0.40335 3.2384 1.25-0.50855 1.5481-6.4565 2.0005-9.5505 0.72643zm7.7944-10.905c0-3.1249-5.516-5.1555-7.8-2.8714-2.47 2.47-1.315 3.8 3.3 3.8 2.475 0 4.5-0.41786 4.5-0.92857zm26.789 8.5119c-6.5657-9.5931-8.7885-10.373-8.7885-3.0833 0 4.2744-0.34154 5.5-1.5328 5.5-2.028 0-1.7536-22.076 0.28275-22.752 0.89465-0.29689 1.2535 1.1013 1.2623 4.9185l0.0123 5.3333 5.0847-5.25c4.707-4.8601 6.8907-6.2981 6.8907-4.5378 0 0.39168-1.8925 2.6405-4.2056 4.9973l-4.2056 4.2852 3.5563 3.7527c3.6281 3.8285 6.8549 8.2102 6.8549 9.3085 0 1.8012-3.3859 0.19482-5.2115-2.4725zm9.9615 2.3794c-4.3922-2.6657-1.0884-8.5652 5.3756-9.5988 2.9162-0.46632 3.835-1.0243 3.429-2.0823-0.30502-0.79488-0.55459-1.6334-0.55459-1.8635 0-0.23001-2.0625-0.41821-4.5833-0.41821-5.7596 0-5.6236-2.3602 0.16105-2.7944 6.3894-0.47958 7.9107 1.3674 7.9783 9.6861 0.0526 6.472-0.11232 7.0535-1.9994 7.0494-1.1312-2e-3 -3.4067 0.24038-5.0567 0.53963s-3.7875 0.0661-4.75-0.51803zm9.0701-4.7172c0.19634-1.3827-0.31169-2.4969-1.3138-2.8815-2.5094-0.96296-6.5064 1.2945-6.5064 3.6749 0 3.2017 7.3588 2.4551 7.8201-0.7934zm20.889 3.7489c-2.702-3.8576-0.3656-7.5387 5.4035-8.5134 5.9263-1.0012 5.0067-3.8758-1.3712-4.2858-7.1091-0.45703-5.6954-3.1952 1.6496-3.1952 5.3135 0 6.4443 1.6174 6.796 9.7204 0.28964 6.6741 0.16202 7.216-1.6866 7.1614-1.1-0.0325-3.6276 0.25499-5.6168 0.6388-3.0529 0.58905-3.8596 0.35111-5.1746-1.5262zm9.2914-3.9944c0-3.5722-2.4828-4.0492-6.0483-1.162-2.9212 2.3654-1.7957 4.162 2.6074 4.162 3.1566 0 3.441-0.2479 3.441-3zm19.518 4.8134c-0.2571-0.72236-0.59142-4.0134-0.74293-7.3134l-0.27549-6h-7l-0.29569 6.75c-0.46203 10.547-3.2043 9.5279-3.2043-1.191 0-7.2564 0.97532-10.526 2.4352-8.1638 0.34484 0.55798 1.7394 0.48769 3.4986-0.17632 2.1808-0.82316 3.5938-0.79947 5.5528 0.0931 1.8198 0.82913 3.2048 0.88836 4.5048 0.19263 5.9333-3.1754 9.0086-0.0803 9.0086 9.0668 0 9.8902-2.7721 10.045-3.2043 0.17857-0.50256-11.472-7.7493-10.596-7.7804 0.94098-0.0143 5.3318-1.4499 8.5642-2.4969 5.6224zm19.053-0.38481c-3.5204-3.5204-0.8178-7.7496 5.7286-8.9646 5.7065-1.0591 4.6808-3.8676-1.5591-4.2687-6.9062-0.44399-5.7517-3.1952 1.3408-3.1952 4.9177 0 6.9182 3.0192 6.9182 10.441 0 6.0565-1.0685 8.8752-2.4916 6.5726-0.42333-0.68497-1.244-0.69031-2.5034-0.0163-2.7176 1.4544-5.6335 1.2314-7.4336-0.56873zm9.2586-4.8196c0.31727-2.7792 0.20248-2.8655-2.9688-2.2312-6.2381 1.2476-6.7819 6.0302-0.61816 5.4361 2.7589-0.26588 3.3073-0.75591 3.5869-3.2049zm37.625 3.9365c-5.4645-5.4645-1.7131-15.586 5.75-15.514 4.1001 0.0396 6.6329 1.891 7.6689 5.6059 2.5648 9.1965-7.0392 16.288-13.419 9.9077zm8.7167-1.2004c2.312-2.0923 2.4104-8.0448 0.17375-10.516-2.2264-2.4601-4.8979-2.3051-6.7883 0.39377-4.3747 6.2457 1.3009 14.931 6.6146 10.122zm13.97 1.4652c-6.0644-16.377-5.6709-14.81-3.7211-14.81 0.82832 0 2.1334 2.1868 3.1332 5.25 2.4724 7.575 2.5191 7.5837 4.7203 0.87009 2.696-8.2229 4.766-8.2481 7.2366-0.0881 2.0474 6.7621 2.5247 6.6867 4.9478-0.78199 0.98437-3.0341 2.2963-5.25 3.1083-5.25 1.1332 0 1.0275 0.95794-0.54625 4.9505-5.6445 14.32-5.5734 14.281-8.9671 4.973-2.4897-6.8283-3.0534-6.7449-5.5059 0.81472-1.9895 6.1325-3.2211 7.2708-4.4057 4.0719zm25.717-0.79816c-3.6511-3.6511-3.5432-8.5895 0.27654-12.655 4.354-4.6346 11.865-2.12 11.865 3.9721 0 2.5677-0.21091 2.6713-5.441 2.6713-6.1633 0-7.1264 0.74494-4.9606 3.837 1.1736 1.6756 2.5349 2.163 6.0416 2.163 5.8669 0 5.4563 2.3711-0.48628 2.8084-3.5693 0.26267-4.6512-0.15204-7.2956-2.7964zm9.1418-9.3896c0-3.9727-5.3019-4.5694-7.7525-0.87244-1.4742 2.2239-1.4379 2.25 3.1305 2.25 3.2592 0 4.622-0.40618 4.622-1.3776zm30.455 9.923c-1.7689-1.7688-2.4546-3.5466-2.4546-6.3636 0-9.6096 12.79-12.959 15.86-4.1537 3.2512 9.3265-6.7498 17.173-13.405 10.517zm8.1458-0.31076c4.4233-2.9535 3.5127-11.666-1.3467-12.886-1.9765-0.49608-3.0253-0.11394-4.4223 1.6112-4.3911 5.4228 0.42802 14.841 5.769 11.275zm50.629 2.096c-0.69907-0.28127-1.9764-1.8754-2.8385-3.5425-4.6325-8.9583 6.1987-18.29 13.155-11.334 6.7952 6.7952-1.3193 18.496-10.316 14.876zm8.2143-3.5532c3.5514-5.0703 0.33576-12.692-4.81-11.4-4.6851 1.1759-5.6795 7.5233-1.8601 11.873 2.0974 2.3886 4.8002 2.1971 6.67-0.47251zm10.284 2.4739c-2.3031-2.5449-2.5307-15.251-0.27318-15.251 1.0996 0 1.5264 1.6465 1.75 6.75l0.29569 6.75h7l0.29569-6.75c0.39612-9.0425 3.1589-9.8829 3.2876-1 0.0458 3.1625 0.19385 6.7383 0.32893 7.9463 0.1967 1.7591-0.26784 2.1948-2.3333 2.1888-1.4184-4e-3 -3.9391 0.28104-5.6014 0.63379-2.267 0.48104-3.4543 0.16421-4.75-1.2675zm42.588 0.76519c-5.1165-2.1166-5.8585-9.6273-1.3923-14.093 3.243-3.243 9.0769-4.1576 9.0769-1.4231 0 1.0303-1.0333 1.5-3.3 1.5-4.1328 0-5.7 1.5246-5.7 5.545 0 3.9564 2.6755 6.455 6.9121 6.455 2.1559 0 3.1161 0.42199 2.8442 1.25-0.50495 1.5382-5.4829 1.9903-8.441 0.76656zm33.194-2.1874c-6.9204-8.2244 4.4724-19.938 12.036-12.375 2.8303 2.8303 3.207 7.1897 0.99154 11.474-2.7159 5.252-9.0003 5.6865-13.027 0.90063zm9.9336-1.0516c2.0809-2.9709 1.9668-7.0494-0.27458-9.8175-2.5297-3.124-6.5816-2.083-8.0266 2.0621-2.4074 6.9057 4.4252 13.289 8.3012 7.7553zm10.094 3.0359c-1.08-3.1587-0.99-15.814 0.1154-16.236 1.9907-0.75939 2.3478 0.5381 2.3478 8.5303 0 7.0128-1.3046 11.094-2.4632 7.7057zm9.4506-1.6722c-5.762-5.762-1.6038-15.712 6.25-14.956 3.9191 0.37754 3.9488 2.1794 0.0437 2.648-8.5133 1.0214-8.1845 12.166 0.35895 12.166 4.4796 0 4.0766 2.3648-0.47967 2.8143-2.4507 0.24179-3.8748-0.37492-6.173-2.6731zm16.15 0.32069c-3.5427-2.981-4.0916-6.7155-1.6741-11.39 3.382-6.5401 13.537-4.7184 13.537 2.4285 0 2.3889-0.26667 2.5-6 2.5-4.3594 0-6 0.36778-6 1.345 0 2.556 3.5676 4.655 7.9121 4.655 5.5597 0 5.0476 2.3796-0.60269 2.8008-3.1736 0.23657-4.705-0.2628-7.1723-2.3389zm8.8629-9.7619c0-3.515-4.2178-4.7178-7.1713-2.045-2.8338 2.5645-2.2105 3.345 2.6713 3.345 3.0256 0 4.5-0.42593 4.5-1.3zm-525.17 3.3084c-0.29461-7.2187 0.88296-11.067 2.5136-8.2147 1.1692 2.0454 0.43941 16.206-0.83525 16.206-0.99622 0-1.438-2.1038-1.6783-7.9916zm8 0c-0.28827-7.0634 1.0993-11.732 2.3615-7.9455 0.18991 0.56973 1.5896 0.47006 3.4941-0.24881 6.0858-2.2971 8.0984-0.25071 8.4872 8.6299 0.27223 6.2172 0.0632 7.5603-1.1762 7.5584-1.1736-2e-3 -1.4276-1.0036-1.1474-4.5257 0.62021-7.7981-0.30018-9.6442-4.629-9.285l-3.7163 0.30836-0.29569 6.75c-0.45018 10.277-2.9455 9.3595-3.3782-1.2416zm39.673-4.2584c0.0269-6.7375 0.37553-12.138 0.77479-12s1.0634 0.25045 1.4759 0.25099c0.4125 5.5e-4 0.75 5.4008 0.75 12.001 0 10.087-0.24309 11.999-1.5248 11.999-1.286-4.4e-4 -1.5171-1.9186-1.4759-12.251zm74.001 4.0796c0-5.64 0.3862-8.2905 1.25-8.5789 0.6875-0.22956 1.25 0.086 1.25 0.70114 0 0.79597 0.55779 0.82 1.9343 0.0833 2.8388-1.5192 6.0657-1.272 6.0657 0.46485 0 0.99604-0.99609 1.5-2.9648 1.5-3.7287 0-4.7349 1.9453-4.5259 8.75 0.12885 4.195-0.15732 5.2491-1.424 5.2456-1.3172-4e-3 -1.5853-1.3847-1.5853-8.166zm87.5-3.3296v-11.5h4.4349c8.2358 0 11.58 2.8208 10.141 8.554-0.68269 2.72-5.2007 5.446-9.0262 5.446-2.3552 0-2.5497 0.34329-2.5497 4.5 0 3.3333-0.38889 4.5-1.5 4.5-1.2464 0-1.5-1.9444-1.5-11.5zm9.7775-1.0567c4.2635-2.9863 2.1812-7.4433-3.4775-7.4433-3.2444 0-3.3 0.0758-3.3 4.5 0 5.0521 2.3251 6.0619 6.7775 2.9433zm76.023 4.8067c-0.36227-7.8624 0.48174-11.029 2.1991-8.25 0.73008 1.1813 1.1695 1.2305 2.1584 0.24164 1.7583-1.7583 5.8416-1.5777 5.8416 0.25836 0 0.89855-0.92222 1.5-2.3 1.5-3.5922 0-4.7 1.9328-4.7 8.2 0 9.5753-2.7451 7.902-3.1991-1.95zm42.199 0.75c0-6.3333-0.19048-7-2-7-1.1 0-2-0.45-2-1s0.84375-1 1.875-1c1.3038 0 2.0672-0.9611 2.5059-3.1547 0.34701-1.7351 1.1334-3.7601 1.7474-4.5 1.4324-1.7259 6.192-1.8066 5.6216-0.0953-0.22917 0.6875-0.82917 1.2569-1.3333 1.2653-1.991 0.0333-3.4167 1.7205-3.4167 4.0437 0 1.937 0.51612 2.441 2.5 2.441 1.375 0 2.5 0.45 2.5 1s-1.125 1-2.5 1c-2.4286 0-2.5 0.2-2.5 7 0 5.5556-0.30952 7-1.5 7s-1.5-1.4444-1.5-7zm75.771-0.75c-0.44886-7.7746 0.45498-11.12 2.2288-8.25 0.73008 1.1813 1.1695 1.2305 2.1584 0.24164 1.7187-1.7187 5.8416-1.581 5.8416 0.195 0 0.88988-1.2369 1.5559-3.25 1.75l-3.25 0.31336-0.29569 6.75c-0.43869 10.014-2.8376 9.3156-3.4331-1zm36.733-4.0004c4e-3 -11.825 1.5212-16.568 2.4959-7.8019 0.41103 3.6966 0.76691 4.3265 2 3.5398 5.8671-3.7429 10 0.0114 10 9.0839 0 9.8831-2.7718 10.047-3.2043 0.18891-0.31999-7.2936-1.129-8.1465-6.4583-6.8089-2.396 0.60136-2.49 0.90837-2.1709 7.0906 0.26978 5.2265 0.0468 6.4616-1.1664 6.4596-1.2483-2e-3 -1.4993-1.974-1.4959-11.752zm40.875-8.7042c-0.89712-2.3378 0.98055-4.022 2.4757-2.2205 0.90806 1.0941 0.83407 1.6885-0.33055 2.655-1.2242 1.016-1.6192 0.93596-2.1451-0.43454zm-490.81-0.4321c-0.68055-1.1012 1.8676-3.3423 2.772-2.438 0.36189 0.3619 0.65799 1.258 0.65799 1.9913 0 1.4897-2.5779 1.8254-3.43 0.44664zm98.998-14.004c-0.30273-0.48983 0.57071-1.6252 1.941-2.523 3.3559-2.1989 3.2372-5.9434-0.46403-14.641-2.6265-6.1722-2.7598-6.9452-1.1976-6.9452 1.2207 0 2.3194 1.6044 3.5951 5.25 2.6698 7.6292 3.2756 7.7349 5.175 0.90321 1.0047-3.6136 2.2622-6.1532 3.0468-6.1532 1.8586 0 1.7216 0.7881-1.4982 8.6125-1.5588 3.7882-3.1453 8.1365-3.5254 9.663-1.1156 4.4796-5.6157 8.1915-7.0727 5.8339zm25.419 0.64062c-7e-3 -0.1375-0.11976-5.7359-0.25-12.441l-0.23681-12.191 2.5 0.0386c1.375 0.0212 3.9638-0.0739 5.753-0.21133 4.6829-0.35981 7.247 2.3202 7.247 7.5747 0 6.0261-2.9411 9.4799-8.0726 9.4799-3.9153 0-3.9274 0.01232-3.9274 4 0 3.0535-2.862 6.6153-3.0132 3.75zm10.442-11.321c3.6938-3.6938 1.0104-11.429-3.9648-11.429-3.7639 0-5.0261 5.0774-2.9209 11.75 0.55619 1.7629 5.0093 1.555 6.8857-0.32143zm35.571 10.465c0-0.60834 1.125-1.991 2.5-3.0726 3.1917-2.5106 3.1475-3.405-0.61488-12.443-1.7132-4.1152-2.8576-7.7396-2.5431-8.054 1.4378-1.4378 3.3668 0.91035 4.9973 6.0829 2.1064 6.6823 2.874 6.5402 4.6495-0.86094 1.0209-4.2555 1.7621-5.5466 3.1843-5.5466 1.7661 0 1.7764 0.17721 0.21844 3.75-0.8994 2.0625-2.7363 6.9-4.0821 10.75-2.678 7.6614-8.3095 14.028-8.3095 9.3939zm-161.64-6.8855c-7.7897-3.1435-6.5739-15.704 1.6958-17.52 9.5533-2.0983 13.528 13.282 4.4159 17.089-1.8725 0.78238-3.5315 1.394-3.6866 1.3591-0.15517-0.0349-1.2465-0.45255-2.4251-0.92819zm7.0863-4.2309c2.2366-3.1932 1.9214-6.5037-0.8866-9.3117-3.3267-3.3267-6.7072-2.1296-7.9664 2.8211-1.7566 6.9063 5.0609 11.905 8.853 6.4906zm335.82 4.5056c-3.1879-0.59725-5.264-4.0748-5.227-8.7556 0.0498-6.3081 4.4274-10.244 10.026-9.0149 10.78 2.3676 6.0705 19.807-4.7986 17.77zm6.706-4.2174c3.4173-6.3852-1.6376-14.085-6.85-10.434-4.382 3.0693-2.2128 12.368 2.8852 12.368 1.873 0 3.303-0.69764 3.9648-1.9343zm-366.96-0.39626c0-4.1616-2.2235-9.703-6.3878-15.919-1.7935-2.6774-1.7926-2.75 0.0336-2.75 1.2455 0 2.9358 1.9135 5.0304 5.6947l3.1546 5.6947 2.7929-5.6947c1.9415-3.9586 3.3743-5.6947 4.6997-5.6947 2.1095 0 2.2243-0.25882-3.984 8.9821-1.7158 2.5539-2.3394 4.8864-2.3394 8.75 0 4.0159-0.3565 5.2679-1.5 5.2679-1.1024 0-1.5-1.1478-1.5-4.3305zm35.199 3.1292c-1.4701-1.4701-1.6503-15.799-0.19872-15.799 0.55 0 1 1.7438 1 3.875 0 9.0426 2.0728 12.189 7 10.625 1.7466-0.55436 2-1.513 2-7.5674 0-5.4956 0.31091-6.9326 1.5-6.9326 1.2122 0 1.4999 1.5832 1.4996 8.25l-4.1e-4 8.25-5.8009 0.24872c-3.4951 0.14986-6.2773-0.22775-6.9996-0.95zm24.801-7.2987c0-6.8889 0.28431-8.5 1.5-8.5 0.825 0 1.5 0.5051 1.5 1.1224 0 0.76899 0.39363 0.80497 1.25 0.11427 7.2258-5.8279 20.75-0.36228 20.75 8.3857 0 10.606-2.7771 10.717-3.2062 0.12756-0.48523-11.973-7.7938-11.155-7.7938 0.87244 0 9.7912-2.805 9.0279-3.2062-0.87244-0.48523-11.973-7.7938-11.155-7.7938 0.87244 0 5.0023-0.32347 6.3776-1.5 6.3776-1.2157 0-1.5-1.6111-1.5-8.5zm30.181 7.2814c-3.1051-3.1051 0.67638-8.7814 5.85-8.7814 3.341 0 5.1782-2.6205 2.8643-4.0856-0.76765-0.48607-3.0832-0.89066-5.1457-0.89908s-3.75-0.46531-3.75-1.0153 2.4592-1 5.4648-1c6.6784 0 7.5352 1.166 7.5352 10.255v6.3867l-5.8186 0.16036c-3.3532 0.0924-6.3192-0.3402-7-1.021zm8.2368-1.3884c0.86999-0.33384 1.5818-1.6838 1.5818-3 0-2.833-4.8665-3.4637-6.9894-0.90574-2.5949 3.1267 0.88601 5.6408 5.4076 3.9057zm55.039-9.8596c0.0357-10.455 0.29149-12.533 1.5428-12.534 2.166-3.3e-4 2.0076 24.352-0.16117 24.784-1.1735 0.23351-1.4168-1.9235-1.3816-12.25zm7.5811 10.538c-2.1292-3.9784 0.90992-8.0716 5.9931-8.0716 3.341 0 5.1782-2.6205 2.8643-4.0856-0.76765-0.48607-3.0832-0.89066-5.1457-0.89908s-3.75-0.46531-3.75-1.0153c0-1.4204 10.355-1.2449 11.8 0.2 0.70648 0.70648 1.1998 4.0995 1.1996 8.25l-4.1e-4 7.05-5.9613 0.25586c-5.0314 0.21594-6.1232-0.0468-6.9996-1.6843zm8.3799-0.67859c0.86999-0.33384 1.5818-1.6838 1.5818-3 0-2.7699-4.8473-3.4868-6.8948-1.0198-2.5231 3.0401 0.97301 5.6852 5.313 4.0198zm36.617 0.67273c-0.56935-1.0638-1.0352-4.2138-1.0352-7 0-3.8362-0.36407-5.0657-1.5-5.0657-0.825 0-1.5-0.675-1.5-1.5s0.6437-1.5 1.4304-1.5 1.5742-0.97725 1.75-2.1717c0.47108-3.2015 2.8196-3.5444 2.8196-0.41166 0 2.0889 0.47849 2.5833 2.5 2.5833 1.5556 0 2.5 0.56667 2.5 1.5 0 0.94152-0.95025 1.5-2.5523 1.5-3.6242 0-3.3643 9.8785 0.30226 11.487 3.1315 1.3738 2.8075 2.5129-0.71482 2.5129-1.9078 0-3.3339-0.68962-4-1.9343zm10.965-8.984c0-6.005-0.27314-11.63-0.60699-12.5-0.43514-1.134-0.0104-1.5818 1.5-1.5818 1.82 0 2.107 0.59298 2.107 4.3532v4.3532l4.9772-0.47824c6.4215-0.61703 8.3157 3.55 6.3738 14.022-0.97749 5.2712-3.0504 3.1699-2.5714-2.6066 0.66592-8.03-1.789-11.112-7.1979-9.0364-1.2307 0.47226-1.5818 2.137-1.5818 7.5 0 5.4604-0.31174 6.893-1.5 6.893-1.2417 0-1.5-1.8798-1.5-10.918zm19.868 10.168c-1.0171-5.7741-0.58136-16.25 0.67596-16.25 1.1607 0 1.4562 1.7248 1.4562 8.5 0 6.8044-1.4014 11.898-2.1321 7.75zm7.1321-0.5492c0-0.8668 1.0817-1.1894 3.25-0.96916 6.9132 0.70206 7.2802-2.4002 0.68215-5.7662-4.1042-2.0938-5.2232-5.2743-2.7322-7.7654 1.4462-1.4462 9.8-1.6166 9.8-0.2 0 0.55-1.833 1-4.0733 1-5.2234 0-5.0919 2.5255 0.27866 5.3537 4.5002 2.3698 5.3233 4.1906 3.2943 7.2872-1.769 2.6998-10.5 3.5812-10.5 1.0599zm24.977-1.2255c-5.191-5.5256-1.3593-14.475 6.1975-14.475 2.1041 0 3.8257 0.45 3.8257 1s-1.264 1-2.8089 1c-4.1624 0-6.5245 2.1774-6.5245 6.0143 0 3.9615 3.4536 7.2307 7.1675 6.7848 1.3702-0.1645 2.6806 0.2634 2.9119 0.9509 0.86824 2.5804-8.1504 1.513-10.769-1.2747zm15.205 1.306c-3.0729-3.0729 0.67117-8.7814 5.7596-8.7814 1.6175 0 3.2313-0.46971 3.5861-1.0438 1.189-1.9238-1.7133-3.9562-5.6495-3.9562-2.1327 0-3.8776-0.45-3.8776-1s2.4592-1 5.4648-1c6.6784 0 7.5352 1.166 7.5352 10.255v6.3867l-5.8186 0.16036c-3.3532 0.0924-6.3192-0.3402-7-1.021zm8.2368-1.3884c0.86999-0.33384 1.5818-1.6838 1.5818-3 0-2.833-4.8665-3.4637-6.9894-0.90574-2.5949 3.1267 0.88601 5.6408 5.4076 3.9057zm9.5818-4.3112c0-3.805-0.27314-7.63-0.60699-8.5-0.39831-1.038-0.0545-1.5818 1-1.5818 0.88385 0 1.607 0.54 1.607 1.2 0 0.93333 0.26667 0.93333 1.2 0 1.8284-1.8284 6.8-1.5308 6.8 0.40699 0 1.0505-0.54453 1.398-1.5724 1.0036-3.6957-1.4182-5.4276 1.1104-5.4276 7.9246 0 5.0798-0.32135 6.4648-1.5 6.4648-1.1888 0-1.5-1.4354-1.5-6.9182zm14.622 5.3971c-5.782-5.782-1.7391-15.771 6.3379-15.66l4.0404 0.05576v-3.9373c0-2.8332 0.42065-3.9373 1.5-3.9373 1.2522 0 1.5 2.0357 1.5 12.321v12.321l-5.9438 0.16381c-4.1119 0.11333-6.4032-0.29562-7.4345-1.3269zm9.1859-1.3388c0.88233-0.55959 1.2076-2.5874 1-6.2347-0.36415-6.3981-4.9019-8.4643-8.2116-3.739-4.1144 5.8741 1.4788 13.61 7.2116 9.9737zm19.392 1.66c-0.66-0.66-1.2-3.81-1.2-7 0-4.4889-0.33908-5.8-1.5-5.8-0.825 0-1.5-0.675-1.5-1.5s0.675-1.5 1.5-1.5c0.93333 0 1.5-0.94444 1.5-2.5s0.56667-2.5 1.5-2.5c0.92189 0 1.5 0.93672 1.5 2.4304 0 1.7591 0.62149 2.5187 2.25 2.75 2.9794 0.42314 2.4851 2.2354-0.71891 2.636-4.4977 0.56228-3.063 12.184 1.5041 12.184 1.0806 0 1.9648 0.45 1.9648 1 0 1.4066-5.3507 1.2493-6.8-0.2zm38.981-0.0186c-3.0729-3.073 0.67117-8.7814 5.7596-8.7814 1.6175 0 3.2313-0.46971 3.5861-1.0438 1.189-1.9238-1.7133-3.9562-5.6495-3.9562-2.1327 0-3.8776-0.45-3.8776-1s2.4592-1 5.4648-1c6.6784 0 7.5352 1.166 7.5352 10.255v6.3867l-5.8186 0.16036c-3.3532 0.0924-6.3192-0.3402-7-1.021zm8.2368-1.3884c0.86999-0.33384 1.5818-1.6838 1.5818-3 0-2.833-4.8665-3.4637-6.9894-0.90574-2.5949 3.1267 0.88601 5.6408 5.4076 3.9057zm11.607 0.63243c-3.9412-3.9412-3.3638-11.704 1.046-14.064 2.367-1.2668 8.9286-1.2387 8.9286 0.03818 0 0.55-1.5495 1-3.4433 1-3.8052 0-6.5567 2.7907-6.5567 6.6499 0 2.8848 4.7707 6.627 7.7277 6.0618 1.463-0.27967 2.2723 0.0505 2.2723 0.92695 0 2.2151-7.6144 1.7469-9.9746-0.61323zm16.175 0.77452c-0.66-0.66-1.2-3.81-1.2-7 0-4.4889-0.33908-5.8-1.5-5.8-0.825 0-1.5-0.675-1.5-1.5s0.675-1.5 1.5-1.5c0.93333 0 1.5-0.94444 1.5-2.5s0.56667-2.5 1.5-2.5 1.5 0.94444 1.5 2.5c0 2 0.5 2.5 2.5 2.5 1.5556 0 2.5 0.56667 2.5 1.5s-0.94444 1.5-2.5 1.5c-2.3626 0-2.5 0.30127-2.5 5.481 0 5.0124 0.21374 5.5346 2.5 6.1084 1.375 0.3451 2.5 1.0287 2.5 1.519 0 1.325-5.4121 1.0795-6.8-0.30841zm11.8-4.175c0-2.9562-0.28125-6.7812-0.625-8.5-0.49487-2.4744-0.28667-3.125 1-3.125 1.7036 0 1.7403 0.18502 1.7878 9 0.0407 7.5533-0.0243 8-1.1628 8-0.55 0-1-2.4188-1-5.375zm9.7943-1.3885c-4.3912-10.933-4.2865-10.479-2.3272-10.088 1.0953 0.21882 2.6208 2.6154 4.0431 6.3514l2.2841 6 1.5349-3.5554c0.84422-1.9555 1.8393-4.768 2.2112-6.25 0.42824-1.7063 1.352-2.6946 2.5185-2.6946 1.634 0 1.4181 0.92488-1.9099 8.1838-4.6833 10.215-5.0412 10.303-8.3547 2.0527zm14.308 4.5224c-1.5703-4.2244 1.2176-7.7588 6.1201-7.7588 3.1641 0 4.9104-2.669 2.6732-4.0856-0.76765-0.48607-3.0832-0.89066-5.1457-0.89908s-3.75-0.46531-3.75-1.0153c0-1.4204 10.355-1.2449 11.8 0.2 0.70648 0.70648 1.1998 4.0995 1.1996 8.25l-4.1e-4 7.05-6.0285 0.25885c-5.4618 0.23452-6.1075 0.0465-6.8682-2zm8.3158-0.36584c0.86999-0.33384 1.5818-1.6838 1.5818-3 0-2.7699-4.8473-3.4868-6.8948-1.0198-2.5231 3.0401 0.97301 5.6852 5.313 4.0198zm12.672 1.6837c-0.84061-0.53214-1.6056-3.2501-1.8942-6.7299-0.30831-3.7179-1.0671-6.2868-2.0899-7.0756-1.433-1.1051-1.3636-1.3066 0.64416-1.8715 1.5269-0.42961 2.25-1.399 2.25-3.0164 0-1.3108 0.45-2.3834 1-2.3834s1 1.125 1 2.5c0 2 0.5 2.5 2.5 2.5 1.5556 0 2.5 0.56667 2.5 1.5s-0.94444 1.5-2.5 1.5c-2.3194 0-2.5 0.34667-2.5 4.8 0 5.1041 1.2398 7.2 4.259 7.2 1.0225 0 1.5809 0.45 1.241 1-0.76329 1.235-4.5095 1.2799-6.4101 0.0767zm13.139 0.25398c-7.0847-2.8505-3.4035-17.331 4.4059-17.331 8.1476 0 8.7643 9.5607 0.63789 9.8894-7.0365 0.28468-7.1148 0.35945-3.8215 3.6527 2.1002 2.1002 3.3913 2.5784 6.1061 2.2614 2.3633-0.2759 3.4427 5e-3 3.4427 0.89728 0 1.2995-7.951 1.7645-10.771 0.62991zm7.7696-11.546c2e-3 -2.3381-2.9875-3.7418-5.7485-2.6992-4.1954 1.5842-2.9183 5.0082 1.7485 4.6882 3.0029-0.2059 3.9989-0.70114 4-1.989zm16.183 10.996c-3.2973-3.2973 0.43857-8.7814 5.9821-8.7814 1.4952 0 3.0088-0.46971 3.3636-1.0438 1.189-1.9238-1.7133-3.9562-5.6495-3.9562-2.1327 0-3.8776-0.45-3.8776-1 0-1.4478 10.725-1.254 11.63 0.21014 0.41135 0.66557 0.84059 4.4113 0.95387 8.3239l0.20597 7.1138-5.7135 0.15747c-3.2691 0.0901-6.2189-0.34795-6.8948-1.0239zm8.2368-1.3884c2.6882-1.0316 2.0118-5.393-0.83642-5.393-3.6458 0-5.5818 1.0198-5.5818 2.9403 0 2.955 2.5598 3.9333 6.4182 2.4527zm-285.89-18.34c-0.87924-1.4226 0.24199-3.0528 2.0997-3.0528 0.87615 0 1.378 0.70256 1.191 1.6671-0.38952 2.0085-2.3862 2.8492-3.2907 1.3857zm195 0c-0.87924-1.4226 0.24199-3.0528 2.0997-3.0528 0.87615 0 1.378 0.70256 1.191 1.6671-0.38952 2.0085-2.3862 2.8492-3.2907 1.3857zm-435.95-31.294c-5.3732-1.4205-11.865-8.088-13.428-13.791-0.94749-3.4569-1.1602-40.197-0.94073-162.47 0.32334-180.12-0.63207-162.57 9.2163-169.25l4.7934-3.25h288.43c286.01 0 288.46 0.0167 292.33 1.9908 3.8346 1.9563 8.0595 6.6427 9.4055 10.433 1.5791 4.4466 0.76105 323.39-0.83739 326.48-2.18 4.2157-8.1237 8.752-13.114 10.008-5.9205 1.4908-570.2 1.3406-575.85-0.15329zm574.84-2.7159c5.1122-1.1857 8.5524-3.8124 11.311-8.6366l2.2336-3.906 0.0165-79.25-6e-3 -159.5c-0.0249-88.783 0.42433-83.808-8.0755-89.434l-4.254-2.8161-57.324-0.28131c-77.788-0.38173-56.865-0.18968-144.32-0.21869h-172.12l-142.03 6e-3c-80.423 8e-3 -71.843-11.117-71.85 93.163-6e-3 79.499 0.49442 159.88 0.49442 159.88v79.455l2.2676 3.6465c2.5626 4.1209 6.2685 6.8609 10.711 7.9196 3.2846 0.78272 566.46 1.4808 572.94-0.0236zm-298.3-62.109c-6.2551-25.312-11.205-46.142-11-46.29 0.20511-0.14761 5.4575-3.9672 11.672-8.488l11.299-8.2196 11.424 8.2818c6.2831 4.555 11.448 8.7318 11.478 9.2818 0.0955 1.7591-22.457 91.501-22.989 91.478-0.28112-0.0123-5.6289-20.732-11.884-46.044zm15.333-13.516c1.419-9.4625 3.6438-14.81 7.817-18.788l4.06-3.8703-4.212-3.4988c-2.3166-1.9243-5.3089-5.6633-6.6496-8.3089-3.8474-7.5925-4.3296-7.4987-9.601 1.8672-1.741 3.0932-4.4332 6.1683-6.434 7.3488-4.2121 2.4852-4.2859 3.3438-0.45737 5.3236 3.8385 1.985 5.5588 5.4216 8.1264 16.234 2.7992 11.788 5.9029 13.347 7.3506 3.6924zm-4.4601-11.087c0-0.91803-1.3538-4.068-3.0086-7s-2.6452-5.3309-2.201-5.3309c0.44414 0 1.9105-1.7879 3.2586-3.9731 2.9972-4.8584 2.7399-4.8786 6.6785 0.52379l3.2275 4.4269-2.4053 3.5444c-1.3229 1.9494-2.6985 4.8795-3.0569 6.5112-0.69364 3.1581-2.4927 4.0947-2.4927 1.2976zm-29.5 37.225c-17.03-4.4386-31.292-10.955-44.329-20.255l-6.3286-4.5145 35.657-21.486 4 2.0263c2.2 1.1145 7.1235 3.191 10.941 4.6144l6.9412 2.5881 4.781 18.985c2.6296 10.442 4.7935 19.323 4.8088 19.735 0.0526 1.4218-7.4958 0.64551-16.472-1.694zm44.936 0.74951c0.35764-0.93198 2.6694-9.8013 5.1373-19.71 4.3025-17.274 5.2631-19.546 8.2791-19.58 0.74395-8e-3 5.0563-1.7509 9.583-3.8722l8.2304-3.8569 16.417 9.9015c9.0293 5.4458 17.053 10.278 17.831 10.738 2.1867 1.2943-9.3706 9.2846-23.414 16.188-17.474 8.5891-43.906 14.994-42.064 10.192zm59.47-36.697c-21.227-12.71-39.55-23.784-40.719-24.609l-2.1247-1.5 4.4911-28 14.307-2.3328c7.8689-1.283 14.426-2.183 14.572-2 1.2112 1.5227 48.549 81.171 48.34 81.336-0.14992 0.11818-17.64-10.184-38.867-22.894zm-17.599-21.396c3.5466-3.9189 5.9633-11.546 6.4691-20.418l0.5015-8.7956h-23.277v6.2899c0 17.481 9.3444 30.617 16.307 22.924zm-8.42-7.7363c-1.1004-2.4876-2.0876-7.1001-2.1938-10.25l-0.19309-5.7271h12l-0.19309 5.7271c-0.42134 12.497-5.8252 18.377-9.42 10.25zm-159.89 51.095c0-0.58073 46.974-78.869 47.909-79.847 0.79093-0.82706 27.12 3.0061 28.277 4.1167 1.728 1.6591 5.007 27.395 3.6522 28.665-2.8917 2.7112-79.838 48.072-79.838 47.065zm64.23-44.538c5.3886-4.2387 6.0535-12.626 1.359-17.145-1.8757-1.8053-2.25-2.9965-1.8584-5.9155 0.41827-3.1185 0.0767-3.9803-2.3268-5.8709-5.0416-3.9657-12.055 0.0466-11.117 6.3596 0.32549 2.1901-0.20955 3.8262-1.9177 5.8643-6.1701 7.3619-0.72968 18.673 8.9813 18.673 2.8405 0 5.2583-0.69102 6.8793-1.9661zm-12.307-3.957c-5.3106-5.3106-2.3559-13.077 4.9752-13.077 7.4006 0 10.87 8.3224 5.6472 13.545-3.3024 3.3025-7.0152 3.1387-10.622-0.46853zm2.2605-19.827c0.36839-3.2017 3.7342-4.2589 5.7658-1.811 1.9618 2.3638 0.52403 4.561-2.9844 4.561-2.7895 0-3.0663-0.27372-2.7814-2.75zm-47.559 31.477c-11.747-16.463-26.588-56.097-22.526-60.159 0.37179-0.37178 19.257 4.079 36.077 8.5025 3.2855 0.86405 3.8576 1.5222 5.3883 6.1981 0.94186 2.8773 2.7752 7.354 4.0742 9.9482 1.299 2.5942 2.3617 5.2601 2.3617 5.9242 0 1.0106-15.644 28.339-19.568 34.184-1.1097 1.6528-1.6563 1.22-5.8075-4.5973zm195.46-11.779-10.187-17.128 3.4859-8.1597c1.9173-4.4878 3.7878-9.3927 4.1568-10.9 0.51085-2.0864 1.5401-2.9686 4.315-3.6984 14.111-3.7114 36.445-9.094 36.695-8.8437 4.6575 4.6575-19.538 62.991-27.165 65.493-0.6128 0.201-5.6982-7.3423-11.301-16.763zm-105.08-25.032c-17.515-7.2495-15.536-5.2532-22.951-23.158l-6.1054-14.743 6.448-15.593c7.6579-18.52 4.1105-14.97 22.411-22.424l15.303-6.2328 31.296 12.834 12.864 31.369-12.828 31.262-15.403 6.3858c-8.4716 3.5122-15.658 6.3671-15.969 6.3443-0.31127-0.02283-7.0909-2.7423-15.066-6.0432zm3.4241-22.401c2.9211-1.0408 4.4422-1.1208 5.9512-0.31326 2.6182 1.4012 11.632 1.4008 14.251-6e-4 1.518-0.8124 3.1018-0.71561 6.2956 0.38474 6.8646 2.365 17.079-0.98508 17.079-5.6017 0-2.9931-2.2925-3.3849-6.1273-1.047-4.1851 2.5514-6.906 2.5941-11.663 0.18278-3.6318-1.8412-3.7837-1.8412-7.1946 0-1.9164 1.0345-4.3984 1.8809-5.5156 1.8809s-3.5992-0.84639-5.5156-1.8809c-3.4108-1.8412-3.5627-1.8412-7.1946 0-4.6968 2.381-6.426 2.3606-11.319-0.13388-4.42-2.2534-6.4711-1.9806-6.4711 0.86092 0 5.0467 10.02 8.306 17.424 5.6679zm4.3259-12.493c3.445 0.15922 14.971 0.1236 17.5-0.0541 1.2375-0.0869 4.134 0.16536 6.4367 0.56068 5.6834 0.9757 10.547-0.0885 13.682-2.9934 4.5454-4.2125 0.92247-7.5276-4.2598-3.8978-3.0848 2.1607-9.0856 2.0802-12.517-0.16791-2.6377-1.7283-2.8797-1.7298-5.7465-0.0364-1.6461 0.97235-4.5016 1.7679-6.3457 1.7679s-4.6996-0.79556-6.3457-1.7679c-2.8668-1.6934-3.1088-1.6919-5.7465 0.0364-3.431 2.2481-9.4318 2.3286-12.517 0.16791-4.2753-2.9945-8.3903-0.98351-5.5725 2.7232 2.5777 3.391 6.9437 4.7654 13.181 4.1497 3.3-0.32576 7.0125-0.5455 8.25-0.4883zm0.25-12.019c4.5828 0.2503 12.608 0.24353 17-0.0144 1.925-0.11303 5.6067 0.12358 8.1816 0.52582 7.9141 1.2363 16.941-4.2476 13.181-8.0075-1.4028-1.4028-1.867-1.3574-4.8256 0.47106-3.9488 2.4405-8.5448 2.5878-12.759 0.40878-2.8732-1.4858-3.3394-1.4858-5.8546 0-1.5031 0.88794-4.394 1.6144-6.4243 1.6144s-4.9212-0.72645-6.4243-1.6143c-2.5152-1.4858-2.9814-1.4858-5.8546 0-4.2137 2.179-8.8097 2.0317-12.759-0.40878-2.9586-1.8285-3.4228-1.8738-4.8256-0.47106-3.7705 3.7705 4.7117 9.0168 12.863 7.9557 2.75-0.35796 6.575-0.56482 8.5-0.45968zm-106 20.879c-23.925-6.0155-44.175-11.207-45-11.537-1.3648-0.54604 86.506-23.282 90-23.287 0.825-1e-3 5.2274 5.1395 9.7831 11.424l8.2831 11.426-8.2831 11.514c-4.5557 6.3327-8.9581 11.488-9.7831 11.456-0.825-0.0318-21.075-4.9796-45-10.995zm44.324-2.0376c2.2968-1.1671 5.668-3.6976 7.4915-5.6233l3.3156-3.5013-3.7852-3.8764c-10.156-10.401-26.667-10.664-37.096-0.58941-10.064 9.7219 15.21 21.143 30.074 13.59zm-15.324-1.8689c-9.5431-1.6815-14.343-6.6664-9.9656-10.35 3.5-2.9451 5.4797-3.4067 4.5825-1.0686-0.83981 2.1885 1.8199 8.0723 4.2327 9.3636 5.9452 3.1818 13.425-0.82023 13.569-7.2598 0.0971-4.3509 0.4944-4.4453 4.5048-1.0708 6.1956 5.2132-5.5096 12.396-16.923 10.385zm0.61049-8.5469c-0.86832-2.2628 1.2285-4.5933 3.802-4.2256 3.3272 0.47538 2.8756 5.2069-0.53474 5.6024-1.7329 0.20095-2.841-0.26599-3.2673-1.3768zm142.47 12.567c-4.4466-6.0532-8.0847-11.453-8.0847-11.999 0-1.1235 14.757-21.727 16.2-22.619 1.2216-0.75495 91.961 21.891 91.019 22.715-0.58349 0.51071-89.189 22.909-90.626 22.909-0.23288 0-4.0615-4.9526-8.5081-11.006zm54.315-11.796c-13.068-9.3894-12.977-9.3474-16.195-7.5007l-2.9448 1.6901-13.203-10.376-3.2785 2.8398c-2.6411 2.2877-3.8094 2.6933-6.0092 2.0861-2.5859-0.71377-8.339 4.9002-13.13 12.813-0.59883 0.98894 5.4479 1.25 28.952 1.25h29.709zm-241.4-16.673c0-15.029 18.276-58.634 26.777-63.888 0.94995-0.58711 21.223 32.816 21.223 34.968 0 0.80361-1.0854 3.6031-2.412 6.221s-3.1772 7.0993-4.1124 9.9585c-1.5135 4.6273-2.1001 5.3036-5.338 6.154-2.0007 0.52552-10.163 2.5665-18.138 4.5355s-15.288 3.8231-16.25 4.1202c-1.3576 0.41907-1.75-0.0449-1.75-2.0693zm235.88-2.7054-19.618-4.9933-1.2103-4.1632c-0.66566-2.2898-2.5768-7.1682-4.247-10.841l-3.0367-6.6776 10.365-17.535c5.7006-9.6444 10.615-17.552 10.922-17.572 2.8944-0.193 17.988 28.015 22.249 41.582 3.2722 10.417 6.1969 25.452 4.9192 25.287-0.39875-0.0514-9.553-2.3404-20.343-5.0868zm-195.79-51.834c-13.25-22.073-24.091-40.501-24.091-40.951 0-0.82472 77.395 45.156 79.788 47.403 1.3218 1.2409-1.9293 27.227-3.5869 28.67-0.3855 0.33552-5.6509 1.3697-11.701 2.2982s-12.197 1.9186-13.659 2.2004c-2.5574 0.49262-3.5818-1.0248-26.75-39.621zm46.47 22.264c-3.0727-30.847-20.893-31.688-23.252-1.0974l-0.60514 7.8474h24.529zm-18.035-3.5c2.4781-18.229 9.854-18.799 12.295-0.95064l0.84799 6.2006h-13.857zm108.04 18.893-12.93-2.1426-2.2673-14c-1.247-7.7-1.9385-14.33-1.5367-14.733 1.092-1.096 80.625-48.633 80.905-48.356 0.70716 0.69855-48.593 81.109-49.803 81.231-0.79057 0.0793-7.2559-0.81992-14.367-1.9984zm13.013-9.2491c9.5884-4.55 9.9058-19.987 0.51077-24.845-4.0845-2.1122-9.9411-1.9391-13.79 0.40745-15.301 9.3299-2.9164 32.123 13.279 24.438zm-10.948-9.4661c-7.1162-5.5976 0.13989-16.681 8.194-12.516 5.9112 3.0568 5.6402 10.148-0.5131 13.425-3.0898 1.6456-4.6708 1.4584-7.6809-0.90924zm-62.138-6.6202c-8.1288-5.9719-11.536-9.0584-11.246-10.187 0.22891-0.8909 5.3286-21.522 11.333-45.848 6.004-24.325 11.148-44.238 11.432-44.25 0.70065-0.0301 23.549 91.774 22.956 92.236-0.2591 0.2016-5.4979 4.0229-11.642 8.4919l-11.171 8.1253zm13.454-6.2809c3.7023-1.9814 3.4437-5.813-0.99424-14.73-4.5232-9.0879-4.757-12.852-1.0803-17.392 3.58-4.4211 5.1238-2.0055 5.1238 8.017 0 10.745 1.1929 14.078 5.0381 14.078 4.5039 0 7.9364-7.916 4.9781-11.481-1.7915-2.1586-3.0162-0.92438-3.0162 3.0396 0 2.3294-0.46552 3.441-1.441 3.441-2.4994 0-2.8412-2.0019-1.5974-9.3545 1.9517-11.537-1.8816-16.962-9.4392-13.358-8.1583 3.8904-9.6614 12.62-3.9948 23.201 2.3046 4.3035 3.5723 7.8079 3.1873 8.8112-0.96553 2.5161-3.2532 1.0499-5.2415-3.3594-2.953-6.5485-8.2031-4.5311-5.4576 2.0971 2.5632 6.1882 9.2056 9.5192 13.935 6.9882zm-64.95-25.063c-9.0744-5.4764-16.639-10.377-16.81-10.89-1.9786-5.9359 60.796-32.23 65.688-27.515 0.20852 0.20101-1.8329 9.2325-4.5366 20.07l-4.9157 19.705-4.9761 1.6914c-2.7369 0.93029-7.4888 2.8801-10.56 4.333-7.1411 3.3783-4.8789 4.0785-23.89-7.3946zm102.5 7.4563c-2.75-1.3322-7.324-3.1667-10.164-4.0767l-5.1643-1.6546-4.9685-19.858c-2.7327-10.922-4.6837-20.011-4.3357-20.199 6.7471-3.6409 66.394 21.001 66.108 27.311-0.0361 0.79564-34.369 21.073-35.519 20.978-0.52566-0.0434-3.2058-1.1688-5.9558-2.501zm-312.5-119.79v-13.373l5.2131-0.50092c9.2598-0.88975 12.787 1.9123 12.787 10.159 0 5.8478-3.0563 9.0878-8.5726 9.0878h-4.4274v4c0 3.6-0.25 4-2.5 4h-2.5zm10.951 1.3992c3.724-1.993 3.6881-9.0789-0.0562-11.083-3.9544-2.1164-5.8945-0.32021-5.8945 5.4572 0 6.7604 1.3846 8.0694 5.9507 5.6257zm-26.877 4.0964c-2.7028-0.75529-3.4335-2.0051-2.2568-3.86 0.56015-0.88299 1.6811-0.9802 3.915-0.33951 7.3642 2.112 8.3107-3.8041 1.2676-7.9233-7.2274-4.2269-7.8908-11.57-1.2727-14.086 3.8476-1.4629 9.2727-0.31318 9.2727 1.9651 0 2.5665-0.98674 3.1988-3.1693 2.0308-6.2203-3.329-7.6809 2.9004-1.5807 6.742 9.8611 6.2101 7.4507 18.257-3.25 16.243-0.275-0.0518-1.5916-0.39916-2.9259-0.772zm111.98-0.0884c-2.3969-1.4814-1.5961-26.477 0.86035-26.854 2.0142-0.30883 2.0841 0.0833 2.0841 11.691 0 6.9283 0.42315 12.272 1 12.629 0.55 0.33992 1 0.98899 1 1.4424 0 1.1686-3.5514 1.9529-4.9444 1.0919zm-72.03-2.0089c-6.4275-6.4275-1.4698-17.576 7.7002-17.316 4.5124 0.12791 8.2743 3.9226 8.2743 8.3465v2.9442h-7c-7.382 0-8.2263 0.58026-5.04 3.4638 1.4522 1.3143 2.847 1.6074 5.384 1.1314 3.2573-0.61108 5.6356 1.0918 3.9204 2.807-1.56 1.56-11.317 0.54531-13.239-1.3768zm11.31-9.6943c0.98353-0.98354-2.3675-4.3312-4.3355-4.3312s-5.319 3.3476-4.3355 4.3312c0.36787 0.36787 2.3188 0.66885 4.3355 0.66885s3.9676-0.30098 4.3355-0.66885zm9.5826 9.8036c-7.8508-6.3572 1.1132-20.735 10.664-17.104 3.571 1.3577 2.4906 3.5347-1.5858 3.1954-4.2868-0.35677-6.9959 2.105-6.9959 6.3571 0 4.7548 2.4298 6.7632 7.2498 5.9925 3.3798-0.54045 3.8608-0.38551 3.5689 1.1497-0.52012 2.7354-9.6694 3.0255-12.901 0.40907zm19.082-5.6348c0-4.3333-0.42222-7.5-1-7.5-0.55 0-1-0.9-1-2 0-1.619 0.66667-2 3.5-2h3.5v9.5c0 9.4667-9e-3 9.5-2.5 9.5-2.4444 0-2.5-0.16667-2.5-7.5zm10.164 6.2643c-3.9247-3.9247 0.39519-10.931 6.8806-11.16 1.6228-0.0573 2.9516-0.65803 2.9528-1.335 3e-3 -1.3851-3.7717-2.5866-6.5771-2.0937-1.0813 0.18997-1.9865-0.34562-2.1818-1.2908-0.48363-2.3415 5.0453-3.2104 9.2498-1.4537 3.563 1.4887 3.5079 1.3283 4.8468 14.136l0.42516 4.0671-7.216 0.14718c-4.348 0.0887-7.6788-0.31557-8.3803-1.0171zm8.2539-2.3713c2.6612-1.0212 2.0161-5.393-0.79577-5.393-2.8281 0-5.079 2.3678-4.2657 4.4873 0.61145 1.5934 2.4241 1.9178 5.0615 0.90574zm-17.978-19.489c-0.37254-0.60278 8e-3 -1.781 0.84502-2.6183 1.8226-1.8226 3.7143-0.91938 3.7143 1.7733 0 2.124-3.3815 2.7507-4.5593 0.84502zm-108.46 358.1 0.003263-419h-10.988v838h10.981zm642.02 404.25c4e-3 -8.1125 0.11678-196.66 0.25-419l0.24221-404.25-11 2e-5 0.23794 310.75c0.13086 170.91 0.24336 359.46 0.25 419l0.01206 108.25h10zm-79.008-733.93c46.403-15.159 54.141-77.924 12.871-104.41-30.598-19.634-73.204-5.2329-85.607 28.936-16.722 46.07 26.25 90.657 72.736 75.47zm-27-3.3586c-42.812-7.6046-57.614-61.569-24.65-89.869 33.028-28.355 84.65-4.7607 84.65 38.691 0 32.356-28.605 56.755-60 51.178zm29.215-7.6578c9.4205-4.5203 18.352-12.592 21.363-19.308 0.86324-1.925 2.1678-4.85 2.8991-6.5 2.9906-6.7479 4.3827-23.682 2.2329-27.16-0.34268-0.55447-0.87448-2.4353-1.1818-4.1796-5.042-28.619-48.696-43.734-73.367-25.404-46.779 34.757-4.3275 107.69 48.053 82.551zm-26.214-8.3694c-5.4391-2.303-9.7372-7.8851-17.692-22.977-2.7651-5.2461-5.6118-10.474-6.326-11.618-1.7228-2.7586-0.61069-5.3441 2.2987-5.3441 2.4943 0 6.4354 3.7367 8.6684 8.2187 0.74497 1.4953 2.3725 3.6751 3.6168 4.844l2.2623 2.1253 1.1398-2.1297c0.87044-1.6264 0.74152-5.6814-0.5455-17.159-2.8183-25.133 2.9362-28.856 7.149-4.6245 2.3809 13.694 3.4277 12.997 3.4277-2.2817 0-13.665 0.77716-16.993 3.9678-16.993 2.4597 0 3.3289 2.8229 3.541 11.5 0.0941 3.85 0.2431 9.5875 0.33114 12.75 0.26409 9.486 1.747 6.5173 2.9676-5.9408 2.1442-21.885 7.7561-20.073 7.3078 2.3594-0.31634 15.828 0.65042 16.576 5.4879 4.2457 2.9417-7.498 4.523-9.4636 6.884-8.5576 2.9662 1.1382 1.304 8.6941-4.5212 20.551-1.3136 2.6738-2.4664 7.5918-2.93 12.5-1.5041 15.921-13.607 24.216-27.036 18.53zm-502.8-60.138c-2.1456-2.1456-1.4674-9.2002 1.1179-11.629l2.3179-2.1776 5.2282 6.5242c2.8755 3.5883 4.9558 6.9648 4.623 7.5033-0.37168 0.6014 1.9678 0.97909 6.0647 0.97909 6.467 0 6.6074-0.0532 4.6184-1.75-2.7956-2.3848-14.17-16.232-14.17-17.251 0-0.45079 3.433-3.56 7.629-6.9093 4.1959-3.3493 7.3459-6.1397 7-6.2008-0.34594-0.0611-1.529-0.11111-2.629-0.11111-7.171 0-10.048 0.33543-9.5661 1.1153 0.30358 0.49119-2.6492 3.4795-6.5618 6.6407l-7.1137 5.7476 0.39046-6.9103 0.39047-6.9103-8.0393 0.0392 0.16167 15c0.0981 9.1036-0.24484 15.491-0.87245 16.25-0.80684 0.97528 0.24552 1.25 4.7883 1.25 4.5286 0 5.5558-0.26667 4.6224-1.2zm36.193-0.55c-0.78026-3.2558 1.0592-4.3929 7.1066-4.3929s7.8869 1.137 7.1066 4.3929c-0.36118 1.5072 0.35235 1.75 5.142 1.75 5.2112 0 5.4653-0.11017 4.0353-1.75-3.5913-4.1182-11.919-21.25-11.291-23.228 0.59229-1.8662 0.20723-2.0221-4.993-2.0221-5.1518 0-5.5812 0.16893-5.0093 1.9707 0.61619 1.9414-7.158 19.426-10.351 23.279-1.3482 1.6272-1.0947 1.75 3.6114 1.75 4.3134 0 4.9994-0.2586 4.642-1.75zm5.8566-8.9557c-2.6864-0.51743-2.6899-0.54291-0.62023-4.5452l1.6298-3.1516 1.6978 3.4513c1.6254 3.3042 1.7129 5.1066 0.23369 4.8151-0.38004-0.0749-1.7035-0.3312-2.941-0.56955zm30 10.043c-2.9315-1.1829-1.5318-10.338 1.5805-10.338 3.0411 0 9.9363 7.9503 8.671 9.9977-0.38569 0.62405 1.4873 1.0023 4.9628 1.0023h5.5823l-4.1334-5.2292c-3.752-4.7466-3.9699-5.3234-2.361-6.25 11.906-6.8572 6.0527-14.87-11.213-15.35l-11.839-0.32875v27.155l5-0.0778c2.75-0.0428 4.4375-0.3048 3.75-0.58221zm-1.25-17.838c0-2.4079 0.23727-2.5 6.441-2.5 6.6405 0 8.0067 0.66979 6.9553 3.4098-1.172 3.0542-13.396 2.224-13.396-0.90976zm33.392 17.078c-1.3809-3.5986 1.4409-5.6575 7.1162-5.1923 6.679 0.54757 7.8034 1.206 7.225 4.2313-0.43536 2.2774-0.21166 2.3828 5.0608 2.3828 5.1565 0 5.4188-0.11415 4.0213-1.75-3.4118-3.9938-11.872-21.495-11.285-23.345 0.54157-1.7063 0.06409-1.9054-4.5696-1.9054-4.2544 0-5.069 0.27455-4.5818 1.5442 0.3331 0.86806-2.0316 6.779-5.4007 13.5l-5.9933 11.956h4.4763c3.4588 0 4.3523-0.32321 3.9307-1.4219zm3.6084-9.0442c0-0.25634 0.76679-2.074 1.704-4.0394l1.704-3.5733 1.7541 3.2894c2.4119 4.5228 2.3194 4.7893-1.6621 4.7893-1.925 0-3.5-0.20973-3.5-0.46607zm31.166 5.6502c-0.76615-11.045-0.088-11.449 4.6876-2.7926 3.2459 5.8837 4.589 7.5375 5.2788 6.5 0.50892-0.76534 2.5998-4.3165 4.6465-7.8915 4.1375-7.2272 4.7995-6.5442 4.0553 4.1842l-0.33413 4.8171 8-4e-3v-26.999l-5.3174 7.2e-4c-4.7596 6.4e-4 -5.2544 0.19902-4.7173 1.8914 0.38001 1.1973-0.73592 4.1702-3.043 8.1066l-3.643 6.2159-3.3594-5.8566c-1.8476-3.2211-3.373-6.869-3.3896-8.1066-0.0277-2.0569-0.50221-2.25-5.5303-2.25-5.1649 0-6.4947 0.67201-4.7608 2.4058 1.0429 1.0428 1.1696 19.626 0.15245 22.344-0.79016 2.1112-0.58138 2.25 3.3831 2.2506l4.2252 6.2e-4zm38.974 3.4838c-1.9788-2.3843 0.86763-4.5256 6.6394-4.9947 5.8336-0.47415 9.4779 2.1075 7.0702 5.0086-0.88375 1.0648 0.01 1.3182 4.6509 1.3182 4.4601 0 5.5223-0.27956 4.7496-1.25-2.8929-3.6332-12.136-22.882-11.626-24.211 0.48473-1.2632-0.33682-1.5391-4.5838-1.5391-4.6811 0-5.1152 0.18653-4.5534 1.9566 0.41378 1.3037-1.3673 5.8086-5.3375 13.5l-5.9585 11.543h5.0274c4.0736 0 4.8176-0.25269 3.9218-1.332zm3.5883-10.418c0.36571-0.9625 1.2135-2.8138 1.884-4.1139l1.2191-2.3639 1.5846 3.0642c2.28 4.4091 2.0048 5.1636-1.884 5.1636-2.8901 0-3.3577-0.29188-2.8037-1.75zm-216.73-4c0.0029-2.4014 5.5096-12.802 9.6167-18.164 4.3015-5.6155 5.0735-3.933-7.6023-16.569-14.108-14.064-13.431-14.751-13.82 14.032l-0.30318 22.452h6.0532c5.0974 0 6.0535-0.27631 6.0553-1.75zm641-21.691c0-28.067 0.9807-27.079-12.984-13.076l-11.346 11.378 3.089 3.5182c3.1844 3.6268 8.5663 14.019 9.773 18.871 0.64048 2.5754 1.0262 2.75 6.0755 2.75h5.3916zm-309.73-11.059 15.375-7.5h20.457l-0.60452-10.5-13.5-0.23159c-15.157-0.26002-18 0.10177-18 2.2905 0 4.5277-5.7565 11.821-11.7 14.824-10.528 5.3191-28.3-3.6151-28.3-14.226 0-2.6646-0.55159-2.7523-17-2.7015l-14.5 0.044809-0.60452 10.5h21.649l14.978 7.4236c8.2378 4.083 15.292 7.458 15.677 7.5 0.38449 0.042 7.6177-3.2986 16.074-7.4236zm-308.05 1.5998c4.0039-2.6951 9.6423-5.7257 12.53-6.7347l5.25-1.8345v-5.1486c0-6.5227 0.62343-6.3508-23.101-6.3683-28.616-0.021007-28.286-0.3574-13.649 13.938 13.321 13.01 10.253 12.016 18.97 6.1481zm602.65-6.4667 11.335-11.367-3.2502-1.133c-2.0202-0.70424-11.16-1.133-24.151-1.133h-20.901l0.29991 5.5974c0.28924 5.3984 0.42434 5.6414 3.7999 6.835 6.6951 2.3674 12.852 5.7278 16.664 9.0957 2.1098 1.8638 4.0683 3.4074 4.3523 3.4303 0.28397 0.0229 5.6169-5.0735 11.851-11.325zm-302.83 0.11696c4.2074-2.1236 8.9056-8.1607 8.9496-11.5 0.0125-0.95287-4.131-1.25-17.432-1.25h-17.448l1.0803 3.099c3.4169 9.8018 15.361 14.44 24.85 9.651zm-64.477-2.9785c0.14658-0.14935 0.40377-2.5215 0.57154-5.2715l0.30504-5h-214.93l-0.30196 5.2414-0.30197 5.2414 54.802 0.25856c58.563 0.27631 159.42-0.02015 159.86-0.46989zm285.72 0.26705 41.781-0.038594-0.64706-10.5h-214.91l-0.60376 10.478 41.802 0.26101c22.991 0.14356 52.827 0.16588 66.302 0.04961 13.475-0.11627 43.301-0.22877 66.281-0.25z"/>
</svg>
