<?xml version="1.0" encoding="UTF-8"?>
<!-- Created with Inkscape (http://www.inkscape.org/) -->
<svg width="822" height="1122" version="1.1" viewBox="0 0 822 1122" xmlns="http://www.w3.org/2000/svg">
 <path d="m418 90-320 2e-3 -3.1 2.6c-1.7 1.4-3.8 3.9-4.6 5.5-2.6 5.1-2.2 936 0.49 941 3.3 5.3 6.4 6.7 16 7.3 5 0.28 149 0.41 320 0.31l311-0.2 3.5-2.2c1.9-1.2 4.1-3.4 5-5 1.3-2.5 1.5-60 1.5-472v-469l-2.1-2.7c-4.8-6.1 22-5.6-328-5.6zm-10 2.8c9.9-0.32 28 0.66 28 2 0 2.7-4.9 9.7-8.1 12-9.6 5.6-33-5.9-26-13 0.43-0.43 2.8-0.68 6.1-0.79zm-41 0.15 31 0.55 0.68 3.3c4.2 20 35 19 40-1.8 0.51-2 1.2-2.1 16-2.1h16l-0.25 11h-21l-14 6.9c-7.7 3.8-15 7.1-16 7.4-1.1 0.33-7.5-2.4-16-6.9l-14-7.4-22-0.11v-5.5zm-244 0.051h22v5.5c0 4.4-0.36 5.7-1.8 6.1-5.3 1.8-14 6.5-19 9.7-2.6 2-4.9 3.6-5 3.6s-5.4-5-12-11c-15-14-15-14 15-14zm25 0h215v11h-215v-5.5zm326 0h216l-0.42 3.2c-0.23 1.8-0.45 4.3-0.49 5.5l-0.068 2.2h-215v-5.5zm219 0h22c16 0 23 0.33 24 1.2 1.3 1.1-0.087 2.8-9.8 12l-11 11-3.3-2.7c-4.4-3.5-11-7.4-17-9.5l-4.8-1.8v-5.4zm51 5.4c0.77 0.47 1.1 8 1.1 24v23l-10-6e-3 -2.8-7.3c-1.5-4-4.2-9.2-6-12-1.8-2.4-3.7-4.9-4.2-5.6-1.2-1.7 21-24 22-23zm-650 1.6c0.3-0.11 0.65-0.098 1.1 0.027 1.9 0.6 5.1 3.8 10 8.8 13 12 12 11 7.4 17-4.2 5.6-8 13-9.1 17-0.57 2.1-1.3 2.4-6.4 2.7l-5.8 0.27 0.3-23c0.2-15 0.065-22 2.2-23zm555 25v2e-3c14 0.23 28 5.4 39 17 31 30 19 82-22 97-37 13-77-16-77-55-0.051-35 29-59 60-58zm-511 4.3-0.52 25 3.3 0.062c11 0.21 16 0.053 17-0.53 0.68-0.42 1.1 0.8 1.1 3.4 0 2.2-0.11 4-0.25 3.8-0.14-0.12-6.6-0.36-14-0.53l-14-0.3v-31l4-2e-3zm512 3.7c-26-1.6-52 17-55 47-2.3 24 15 49 38 54 51 12 86-49 49-86-9.7-9.7-21-15-33-15zm-415 1.5h2e-3c1.9-0.15 3.7-0.1 5.5 0.16 2.4 0.36 4.5 1.1 6.2 2.3 0.18 0.12-0.4 1.6-1.3 3.3-1.4 2.8-1.8 3-3.1 1.6-4-4-13-2.2-15 2.9-1.3 3.3 0.2 7.8 3.1 9.3 5 2.5 14 0.56 13-2.6-0.93-1.5-4.9-1.5-6.4 0.047-0.93 0.93-1.2 0.43-1.2-2.2l-4e-3 -3.4 14 0.64v5.4c0 5.3-0.059 5.4-3.8 6.9-16 6.3-31-5.4-23-18 2.2-3.6 7.7-5.8 13-6.3zm-32 0.16c2.7-0.085 5.7 0.33 8.9 1.4l5.3 1.7-1.5 2.9c-1.4 2.7-1.7 2.8-3.2 1.4-2.4-2.2-9.4-3.1-12-1.6-3 1.6-0.33 4 4.5 4 11 0.02 17 8.1 10 14-1.9 1.5-7.9 2.8-12 2.3-3.5-0.42-11-2.4-11-2.9 0-0.44 2-4.5 2.5-5.1 0.15-0.18 1.4 0.41 2.8 1.3 3.4 2.2 13 1.8 13-0.65 0.25-1.3-0.71-1.8-4.5-2.3-11-1.4-11-1.5-13-4.5-3.4-6.6 1.2-11 9.2-12zm104 0.69 7 4e-3v25h-4.2c-3 0-4.1-0.37-3.7-1.3 0.27-0.69-2.7-4.4-6.6-8.2l-7.1-7 0.34 8.2 0.35 8.2-3.5 2e-3h-3.5v-25h4.2c2.3-6.9e-4 4.3 0.4 4.5 0.89 0.18 0.49 3.2 3.9 6.7 7.6l6.3 6.7-0.33-7.6zm-53 2e-3h4.4c3.5 1e-3 4.2 0.27 3.2 1.2-4.8 4.8-0.2 19 6.2 19 5.7 0 9.8-14 5.4-19-0.93-0.93-0.21-1.2 3.2-1.2h4.4l-0.53 10c-0.5 9.5-0.7 10-3.3 13-3.3 2.9-14 3.3-19 0.81-3.4-1.8-2.9-0.06-3.6-13zm-79 2e-3h2e-3c3.9 1.5e-4 4.6 0.3 4.6 2 0 2.4 9.8 21 11 21 0.5 0 0.91 0.45 0.91 1s-2.3 1-5.1 1c-3.6 0-5-0.36-4.6-1.2 1.1-3.2-1.2-4.8-7.2-4.8-6 0-7.7 1.2-6.4 4.5 0.46 1.2-0.33 1.5-3.9 1.5h-4.4l5.9-12c3.2-6.3 5.6-12 5.3-12-0.37-0.59 1.2-0.99 3.9-0.99zm473 0.94c12 0.15 24 4.9 34 15 25 27 13 70-22 80-35 9.4-68-25-58-60 6.4-22 26-35 47-34zm-473 6.7-1.6 3.1c-0.89 1.7-1.6 3.4-1.6 3.7s1.4 0.55 3 0.55c3.3 0 3.7-1.2 1.6-4.9zm483 0.68c-0.097-0.098-8 9.3-18 21-9.6 12-18 22-19 23-1.8 2-1.7 2 8.8 2h11l-0.68 4.2c-0.38 2.3-1.7 8.8-3 14-1.3 5.5-2.6 12-2.9 14l-0.64 3.5 4.3-4.7c2.3-2.6 8.8-10 14-17 5.5-6.7 12-15 15-18 2.9-3.4 5.2-6.5 5.2-6.7 0-0.29-4.6-0.59-10-0.68-5.6-0.088-10-0.3-11-0.46-0.17-0.17 1.2-7.7 3.1-17 1.9-9 3.3-16 3.3-17zm-567 5.2 11 0.68-0.053 419-0.055 419h-11l-2e-3 -419zm643 0.5h5.9c5.6 1e-5 5.8 0.1 5.3 2.2-0.33 1.2-0.61 190-0.62 419l-0.014 417h-10l-0.053-9.2c-0.028-5.1-0.14-194-0.25-419zm-149 39 0.46 2.3c3.2 16 6.3 23 14 32 33 40 108 18 108-33 0-1.7 0.93-1.8 11-1.5l11 0.28-0.12 802-2.3 5.5c-5.3 13-15 23-28 29l-6.5 3.1-243 0.52-32-16-32 16-241-0.045-5.9-2.4c-13-5.4-23-15-29-28l-3.7-7.5v-803zm-166 71c-201 0-289 0.32-291 1.1-4 1.5-8.3 5.8-10 10-2.3 4.9-3 317-0.76 324 4.5 13 4.3 13 59 14 97 1 529 0.32 532-0.89 4.9-2 8.6-5.1 11-9.2 2-3.8 2-6 1.7-166l-0.26-162-3-3.7c-6.7-8.3 26-7.4-298-7.4zm272 1.7c33 1.1 28 13 28 93v238l-2.3 4.4c-1.4 2.7-3.8 5.3-6.2 6.6l-3.9 2.2-346 0.022-229-0.01-4-2.4c-8.6-5.2-8 1.4-8-89v-161c0-89-0.54-83 7.7-88l4.1-2.7c172-1 345-0.55 517-0.48 9.9 4e-3 18-0.18 26-0.3 6.4-0.11 12-0.16 17-8e-3zm-119 44-7.3 0.69c-8.6 0.81-8.5 0.73-9 6.2-0.35 3.9-0.21 4.2 1.6 3.6 1.8-0.62 6-0.62 12-2e-3 1.7 0.18 2-0.48 2.3-5.1zm-48 0.21c-1.7 0.19-2 0.95-2 2.4 0 2.4 0.2 2.5 7 2.5h7v4.3c0 2.4 0.3 4.6 0.67 5 2.9 2.9 6.1 0.55 6.7-5 0.81-6.9 0.92-6.8-8.7-8.2-5.8-0.84-9-1.2-11-1zm24 1.9c-2.5 0-3.2 1.8-3.2 8.1 0 8 3.4 5.9 4.6-2.9 0.64-4.8 0.53-5.2-1.3-5.2zm4.9 0c-1.4 0-2.2 2.9-1.5 5.6 0.95 3.8 2.4 2.8 2.4-1.6 0-2.2-0.4-4-0.89-4zm-20 4.3c-0.23-0.05-0.53-0.01-0.89 0.094-0.96 0.27-13 2-26 3.8l-25 3.3v4.3c0 2.4 0.23 4.3 0.5 4.3s12-1.8 26-4c14-2.2 26-4 26-4s0.88-1.8 0.88-4.1c0-2.5-0.16-3.5-0.86-3.7zm-81 3.7c-1.3 0.15-1.2 0.84-1.2 2.2 0 2.1 0.56 2.3 7 2.8l7 0.5 0.3 4.7c0.22 3.4 0.77 4.8 2 5.1 3.7 0.97 4.1 0.6 4.7-4.8 1-8 0.89-8.1-9.9-9.5-5.7-0.76-8.5-1.2-9.9-1zm112 1.9c-2 0.084-4.6 0.31-7.9 0.71-5.1 0.61-7.7 3.2-3.5 3.5 0.96 0.063-0.05 0.47-2.2 0.91-2.2 0.44-4.4 0.39-4.9-0.12-3.1-3-66 5.9-66 9.3 0 1 4.5 0.61 21-1.9 22-3.4 29-4.1 19-1.8-6 1.3-27 4.8-36 5.9-2.6 0.33-5.1 1.1-5.7 1.8-1.1 1.4-7.2 16-7.2 18 0 1.4-2.6 1.8 56-8.9l54-9.7-0.23-3.5c-0.13-1.9-0.5-5.4-0.83-7.9l-0.6-4.4-7.2 0.62c-3.9 0.34-9.4 0.84-12 1.1-4.2 0.41-3.9 0.26 1.9-0.96 8.3-1.7 8.6-2.8 2.7-2.5zm-88 0.057c-2.9 0-3.6 1.6-3.6 8.6 0 6 4 8.4 5.4 3.2 1.6-6 0.74-12-1.8-12zm-17 4.5c-1.2 0.28-35 5.1-74 11-170 24-166 23-166 25 0.1 1.1 0.48 5.9 0.84 11 0.74 9.9 0.26 9.6 10 7.3 3.3-0.75 8.9-1.7 12-2 3.6-0.36 12-1.7 19-3 6.9-1.3 15-2.6 18-3 4.8-0.55 22-3.5 39-6.7 3-0.57 8.9-1.5 13-2.1 4.1-0.59 15-2.4 24-3.9s25-4 34-5.4c9.6-1.4 26-4 36-5.9s21-3.7 24-4.1c4.5-0.56 4.9-0.9 7.7-5.8 3.8-6.6 4.2-13 0.74-12zm81 1.9c0.37-0.37 0.97-0.37 1.3 0 0.37 0.37 0.067 0.67-0.67 0.67-0.73 0-1-0.3-0.67-0.67zm-6.6 1c0.69-0.28 1.8-0.28 2.5 0s0.12 0.5-1.2 0.5-1.9-0.23-1.2-0.5zm134 0.14c-0.48 0.48-8.2 24-8.2 25-5e-3 0.32 1.9 0.65 4.2 0.73s6 0.42 8.1 0.76l3.8 0.62-0.68 8.2c-2.3 28-3.2 29-13 27-8.5-2.4-8-2.9-9.2 10-1.3 13-1.1 14 4.1 16 3.5 1.2 3.7 1.5 1.6 1.6l-2.5 0.18 2.5 0.8c1.4 0.44 3.4 0.81 4.5 0.83l2 0.029-2-0.93c-1.4-0.66-0.82-0.77 2.2-0.36l4.2 0.57 1-4.8c0.56-2.7 2-10 3.3-17 2.8-15 3.4-15 1.5 0.35-0.83 6.5-1.6 14-1.8 17l-0.27 5.5-4-0.18c-3-0.13-3.5 0.036-2 0.68 7.6 3.3 12-0.32 12-11l0.31-7.9-2.8 16 0.42-9.5c0.68-15 5.1-41 9.9-59 5-18 5.1-18 3.3-18-0.74 6.7e-4 -2.7 4.9-4.7 12-4.1 14-5 14-2.1-0.24 3-15 3.5-13-6.6-15-4.8-0.62-8.9-0.92-9.1-0.67zm-141 0.83c0.97-0.25 2.3-0.24 3 0.037 0.68 0.27-0.12 0.48-1.8 0.46s-2.2-0.24-1.2-0.5zm-63 7.1c-2.5-0.48-5.7 3.5-5.7 7 0 0.24 2.2 0.97 5 1.6 5 1.2 7.7 5.5 5.6 8.9-0.36 0.59-0.29 1.1 0.17 1.1 0.72 0 6.3-14 6.3-16-5e-3 -0.36-1.9-0.95-4.3-1.3-2.3-0.35-5.5-0.88-7-1.2zm111 4.2c-1.2 0.31-26 5-55 10-29 5.4-53 10-53 10-0.21 0.24-0.17 2.1 0.086 4.2 0.58 4.7-2.5 4.9 33-2.2 17-3.3 31-6 33-6 1.4 0 8-1.3 15-2.9 6.7-1.6 15-3.4 19-4.1 9.3-1.6 11-2.4 11-6.6 0-3.1-0.24-3.4-2.2-2.9zm-121 4.5c-4.5 1.9e-4 -7.1 0.41-32 5-8.5 1.6-19 3.4-24 4-4.4 0.63-19 3.1-32 5.6-13 2.4-31 5.3-39 6.5-17 2.4-57 9-97 16-49 8.6-59 8.9-59 1.5-6e-3 -1.6-0.55-1.8-3.3-1.3-1.8 0.32-5.6 0.88-8.5 1.2-2.9 0.37-5.5 1.1-5.8 1.6-0.78 1.3 18 9.8 22 10 3 0.14 3.1 0.18 0.52 0.57-1.5 0.23-2.8 0.58-2.8 0.77 0 1 4 39 4.5 42l0.56 4.1 6.7-0.8c8.8-1.1 25-4.5 61-13 16-3.8 39-8.7 50-11 12-2.2 24-4.7 28-5.5 3.8-0.84 7.1-1.3 7.4-0.99 0.3 0.3-0.21 0.54-1.1 0.54-1.4 0-1.1 1.1 1.6 6.2 3 5.8 3.2 6.8 3.2 16 0 8.7 0.24 10 1.5 9.9 0.82-0.22 3.6-0.7 6.3-1.1 5.8-0.79 7.4-2.9 8.6-11l0.83-5.9 0.78 4.2c0.96 5.2-0.52 5.3 23-0.64 11-2.7 23-5.6 27-6.6 13-2.8 17-9 12-19-3.3-7-8.1-7.2-31-1.3-9 2.3-20 4.9-25 5.9-9.7 1.9-9.7 1.9-8.2 8.6 0.49 2.1-0.28 1.2-2.5-2.8-2.6-4.7-3.6-5.7-5.3-5.3-1.1 0.27-3.9 0.74-6.1 1.1-8.9 1.2 11-3.7 36-8.9 15-3 32-6.8 40-8.4 7.2-1.6 20-4.4 29-6.2 21-4.2 19-1.7 21-24 0.41-4 1.5-8.1 2.5-9.5 1.7-2.4 2.4-6 1.1-6-0.37 0-18 2.9-39 6.5-21 3.6-50 8.5-65 11-15 2.5-61 10-104 18-42 7.1-77 13-78 13-5.2-0.24 17-4.3 79-14 15-2.5 43-7.4 62-11 19-3.5 44-7.6 54-9s23-3.5 28-4.5c17-3.6 42-7.9 49-8.6 7.3-0.73 8.3-2.4 1.4-2.4h-2e-3zm-249 4.9c-2.2 0.11-4.9 0.36-7.6 0.73-5.5 0.73-10 1.3-11 1.4-0.44 0.02-0.5 0.53-0.12 1.1 0.41 0.66 2.2 0.89 4.3 0.56 2-0.3 7.4-1.1 12-1.8 5.7-0.81 7.8-1.4 6.5-1.9-0.54-0.2-2.2-0.23-4.3-0.12zm377 1.4c-0.23-0.081-0.53-0.043-0.91 0.064-0.96 0.27-3.3 0.77-5.2 1.1s-6.4 1.3-10 2.1c-3.6 0.8-12 2.6-20 4.1-16 3.3-17 3.5-12 6.2 9.6 5.9 7.4 18-3.8 20-2.7 0.59-13 3.1-24 5.6-23 5.6-22 6.1-21-6.6 0.34-12-1.2-11 17-14 21-4.1 28-5.7 27-6.5-0.26-0.41-13 1.8-29 4.9l-28 5.7-0.61 6c-0.34 3.3-0.69 18-0.78 33-0.11 18 0.18 27 0.86 27 0.56 0 23-6 49-13 26-7.4 49-14 51-14 7.2-1.2 9-5 8.8-19-0.088-5.9-0.27-7-0.73-4l-0.61 4-17 4.3c-22 5.3-20 6.9-19-14 1.2-21-0.99-18 18-22 21-4.5 20-4.5 21-1.5 0.5 1.8 0.73 0.77 0.8-3.3 0.065-3.8-0.035-5.1-0.73-5.4zm-366 0.97c-0.26-0.26-6.3 0.31-14 1.3-15 2-14-0.097-12 18 0.82 6.6 1.5 13 1.5 13 0 2.1 23-0.9 26-3.3 0.65-0.65-1.4-29-2.2-29zm-32 1.9c-4.3-1.5-4.5 4-0.25 6.3 1.5 0.82 2.9 1.5 3 1.5 2.3 0.37-0.3-7-2.8-7.8zm481 1.1c-5.8-0.55-12 3.3-7.6 4.9 3.9 1.5 10 0.98 12-1.1 2.3-2.6 1.6-3.2-4.4-3.8zm6.8 2.9c-0.35-0.025-0.85 0.3-1.5 0.85-5.5 4.6-8.9 20-6 26 2.8 6.7 3.2 5.9 6.6-14 1.6-9.7 2-13 0.94-13zm-93 1.5-4.3 0.69c-2.4 0.38-8.1 1.8-13 3.1-4.7 1.3-9.7 2.4-11 2.4-2.8 0-2.8 0.065-2.8 6.3 0 3.5-0.29 11-0.65 17-0.38 6.2-0.27 11 0.25 11 0.5-0.011 7.2-1.7 15-3.8 16-4.4 15-2.2 16-23zm82 4.3c-5.4-0.044-77 4.3-78 4.7-0.58 0.51-1.9 20-1.4 20 0.18 0.31 7.7-0.46 17-1.7 9-1.3 22-3 28-3.8 6.6-0.85 17-2.3 22-3.2l10-1.7 1.6-5.5c0.86-3 1.8-6.3 2.1-7.3 0.38-1.3-0.074-1.8-1.8-1.8zm-480 0.73c-1-0.084-2-0.067-2.9 0.068-1.1 0.18-2 0.57-2.4 1.2-0.54 0.87 0.78 13 2.1 20 0.39 1.9 10 2.6 12 0.84 0.29-0.23-1.5-14-2.4-19-0.32-1.6-3.5-2.8-6.6-3zm-9.2 0.56c-0.13 0.041-0.25 0.2-0.36 0.5-0.5 1.4 1.5 18 2.3 19 1.3 2.1 1.6 0.11 0.92-7.3-0.63-7.2-2-13-2.9-13zm360 1c-2.8-0.5-7.3 0.28-15 2.1-5.4 1.3-14 3.1-19 4-11 1.9-10 1.5-7.1 6.3 2.2 3.2 2.6 4.6 2.1 8.5l-0.54 4.6 5.2-1.2c2.9-0.68 11-2.5 17-4 22-5.1 24-6.3 22-15-0.99-3.3-2.2-5.1-5.1-5.6zm-67 6.7c-1.8-0.15-2.1 1.3-2.1 5.5 0 6.1 0.49 5.7-9.8 7.6-6.8 1.3-7.4 1.9-3.9 4.2 7.8 5.1 7.2 24-0.76 24-5.8 0-12 2.5-16 6.1-2.2 2.3-4.8 3.9-6.1 3.9-1.9 0-1.7-0.28 1.2-1.8 4-2.1 6.9-7.1 7.1-12l0.11-3.5 1.3 4c3.1 10 18 0.27 16-11-1.4-8.1-6.2-10-17-8-3.1 0.69-3.3 1.2-2.1 6.6 0.65 2.9 0.63 2.9-1.3-0.57-3-5.4-4.4-6.2-9.4-5.4-6.8 1-7.1 1.5-4.3 6.6 3.7 6.7 4.8 14 3 20-0.8 2.6-1.5 4.9-1.5 5s0.85 0.25 1.9 0.25c1.1 0 2.1 0.53 2.3 1.2s9.4 4.2 20 7.9c11 3.7 21 6.8 22 6.8 2.9 0.14 4.2-65 1.3-66-0.94-0.36-1.7-0.59-2.3-0.64zm22 3.6c-0.4 0.7-0.45 3.2-0.45 7.9 0 8.6 0.58 9.8 3.4 6.9 2.2-2.2 2-8.3-0.42-12-1.4-2.3-2.2-3.4-2.6-2.7zm167 3.7c-0.98 0.12-1.9 0.47-2.5 1.1-0.9 0.9 1.9 4.8 4 5.6 5.6 2.3 7.7 1.4 6.3-2.7-0.93-2.6-4.8-4.3-7.8-4zm22 0.11c0.11-0.11 0.24 0.035 0.4 0.43 0.29 0.72 0.25 1.6-0.08 1.9-0.33 0.33-0.57-0.26-0.53-1.3 0.024-0.58 0.096-0.93 0.2-1zm-526 6.5c-1.2 0.4-0.73 2.6-0.057 7.2 1.3 8.6 0.68 8 6.7 6.7 6-1.3 8.3 0.88 11 10 3.3 12 0.95 17-7.5 17h-3.8c0.028-0.062-0.72 0.021-1.3 0.97-0.14 0.53 4.3 3.6 9.8 6.9 12 7.2 12 7.2 11 1.8-0.33-2.4-1.3-12-2.2-21-2.1-21-1.8-20-14-26-5.8-2.8-8.6-4.3-9.8-3.9zm380 2.6h2e-3c2.8 0.21 5.2 2.2 6.9 5.9 4 8.4-1.1 13-18 17-7 1.7-17 4.2-22 5.5-5.1 1.3-9.7 2.7-10 3.1-1.9 1.2-3.1-4.6-2.9-13l0.29-8.6 3-0.68c8.6-1.9 18-4 27-5.8 5.5-1.1 11-2.6 13-3.1 1-0.33 2-0.46 2.9-0.39zm1.4 2.5c-14 0-43 9.4-40 13 1.4 2.2 2.1 4.9 2 7.3-0.096 2.1-0.13 4.1-0.078 4.4 0.26 1.8 39-9.2 41-12 3.8-4.3 2.1-13-2.6-13zm-121 3.1c-2-0.15-4.3 0.13-6.1 0.88-1.5 0.61-0.7 0.83 2.8 0.8 5.2-0.044 7.8 1.6 10 6.6 0.81 1.6 1.7 2.6 2 2.3 0.61-0.61-2.3-6.5-4.4-8.9-0.82-0.93-2.6-1.5-4.6-1.6zm269 3.3c-0.11 0.11-0.18 0.45-0.2 1-0.043 1.1 0.19 1.6 0.53 1.3 0.33-0.33 0.37-1.2 0.08-1.9-0.16-0.4-0.3-0.54-0.4-0.43zm-521 3.7c-0.8 0.06-1.8 0.26-2.9 0.58-2.3 0.62-2.4 1.1-0.68 5.8 0.4 1.1-0.24 0.5-1.4-1.3-4-6.2-6.1 1.1-3.7 13l0.7 3.5-1.4-3.5c-0.79-1.9-1.5-2.7-1.5-1.8-0.084 1.9 2.4 13 8.7 9.3l0.89-4.3c0.82-6.2 1.8-7.1 1.1-1.1l-0.5 4.7 3.1-0.57c5.5-1 9.4-7.6 6.1-10-0.82-0.68-1.5-2.2-1.5-3.4-0.012-1.2-0.89-4-2-6.4-1.5-3.2-2.5-4.4-4.9-4.2zm330 0.43-0.73 3c-0.4 1.6-0.78 5.4-0.85 8.3-0.11 5 0.035 5.3 2.1 5 3.7-0.53 4.5-5.6 1.7-11zm-67 10c-0.18 0.24-0.44 0.93-0.76 2.1-1.3 4.7-3.4 6.8-7.5 7.6-3.3 0.62-4 1.4-2.7 2.7 3.9 3.9 12-4.2 11-12-0.029-0.68-0.14-0.89-0.32-0.66zm-95 0.047c-0.94 0.11-0.24 1.5 2.1 4 1.7 1.8 3.1 3.8 3.1 4.4 0.056 0.82 0.22 0.81 0.56-0.037 0.65-1.6-2.4-7.3-4.2-8-0.68-0.26-1.2-0.37-1.5-0.33zm-170 1.3c0.12-0.12 0.29-0.1 0.47 0.08 0.37 0.37 0.37 0.97 0 1.3-0.37 0.37-0.67 0.067-0.67-0.67 0-0.37 0.074-0.63 0.2-0.75zm165 2.9c-5.7-0.24-16 2.1-35 6.7-14 3.3-29 6.8-34 7.8-5.2 0.96-9.7 1.9-9.9 2-0.2 0.14 1.2 2.9 3 6.1 3 5.2 3.4 6.6 3.4 13l2e-3 7.6 3.5-0.48c1.9-0.26 13-2.9 24-5.8 11-2.9 27-7 36-9.1 21-5.1 22-6.3 18-20-1.7-5.5-3-8.3-8.7-8.6zm237 0.96c-0.3-0.32-18 3.8-18 4.2 6.4e-4 0.076 0.9 7.1 2 16s2 16 2 16c3e-3 0.56 1.8 0.16 8.9-1.9l7.4-2.2-0.72-16c-0.4-8.6-0.88-16-1.1-16zm-226 4.9c-0.28 0-0.5 0.22-0.5 0.5s0.22 0.5 0.5 0.5 0.5-0.22 0.5-0.5-0.22-0.5-0.5-0.5zm204 0.59c-0.76 0.018-1.7 0.26-3 0.59-4.9 1.2-4.8 0.62-2.8 16 1.5 11 1.4 11 5.9 13 6.6 2.4 6.6 2.3 3.5-20-1-7.4-1.3-9.4-3.6-9.3zm-203 3.4c-0.28 0-0.5 0.22-0.5 0.5s0.22 0.5 0.5 0.5 0.5-0.22 0.5-0.5-0.22-0.5-0.5-0.5zm191 0.35c-1.3-0.35-4.4 0.45-5.8 1.8-0.67 0.67 0.14 0.89 2.4 0.68 1.9-0.18 3.6-0.95 3.9-1.7 0.13-0.4-0.085-0.64-0.51-0.76zm-8.2 1.7c-0.58 0-1.1 0.45-1.1 1s0.2 1 0.44 1 0.72-0.45 1.1-1 0.14-1-0.44-1zm-181 0.5-0.77 5.3c-0.93 6.4-2 7.8-6.6 8.7-2.9 0.55-3.3 0.91-2.3 2.1 4.1 5 10-1.5 9.8-11zm178 0.83-20 5.7c-11 3.1-21 6-22 6.3-1.4 0.52-1.6 2.8-1.8 14l-0.22 13-0.31-13-0.31-13-5.7-2.5c-6.4-2.8-20-7.7-22-7.7-0.74 0-1.1 6.7-1.1 21l8e-3 21 27 12 0.39-3.1c0.38-3 0.41-3 1-0.57 0.99 3.8 2.9 3.6 18-1.9 7.6-2.8 17-5.8 20-6.7l6-1.7 0.65-16c0.36-8.6 0.65-18 0.65-22zm-274 4.2c-2.4-0.17-3.9 4.3-3.1 12 0.64 6.2 0.58 6.6-0.87 4.7-1.4-1.8-1.4-1.6 4e-3 2.7 0.93 2.8 3 5.9 5 7.8 2.7 2.4 4 2.9 6.2 2.4 4.1-0.97 4.1-1.5 0.01-1.2-3.8 0.26-6.2-1.1-8-4.6-0.8-1.6-0.28-1.3 2.1 0.89 7.5 7 10-6.9 3.8-19-1.9-3.7-3.7-5.4-5.2-5.5zm337 0.99c0.028 0.028 0.064 0.052 0.09 0.08 0.43-0.011 0.85-0.022 1.3-0.035 0.094-2e-3 0.19-6e-3 0.28-8e-3 -0.59-0.012-1.1-0.024-1.7-0.037zm-12 16c-0.28-0.22-0.72-0.21-1.3 2e-3 -0.96 0.32-12 4.1-25 8.3-21 7-24 8-24 10-0.23 1.7 0.073 2.2 1 1.9 0.74-0.26 12-4.2 26-8.8 21-7 24-8.6 24-10 0-0.7-0.12-1.1-0.4-1.4zm-36 2.4c-6.8 0.41-14 3.9-14 7.8 0 2.9 0.32 3.4 1.8 3 23-6.4 25-7.8 19-10-1.9-0.64-4.1-0.85-6.4-0.71zm-81 27c-3.4 0 0.068 4.6 5 6.6 7 2.8 7 2.8 7 0.031 0-2.1-8.1-6.6-12-6.6zm14 6.1c-0.46 0.1-0.68 0.57-0.68 1.4 0 1.7 0.18 1.8 2.5 0.86 1.3-0.51 1.4-0.81 0.33-1.5-0.99-0.62-1.7-0.89-2.2-0.79zm-202 21c-0.95 0.038-1.7 0.24-2.2 0.67-1.8 1.8 0.13 4 4 4.3 4.7 0.4 5.3 0.16 5.3-2.1 0-1.6-4.3-3-7.1-2.8zm-11 1.1c-4.4 0.71-5.6 1.8-4.7 4.1 0.38 0.99 1.3 1.5 2.1 1.2 0.81-0.31 2.5-0.83 3.9-1.2 4.4-1.1 3.2-4.8-1.3-4.1zm25 2.1c-0.85-0.19-1.6-0.2-2.1 0.082-1.8 1.1-0.96 3.4 1.8 4.9 2.7 1.4 5.2 2 5.2 1.2 0-0.23 0.27-1.1 0.61-2 0.5-1.3-3-3.6-5.6-4.1zm-35 1.9c-0.58 0.036-1.4 0.37-2.6 1-3.9 2-4.7 3.3-3.1 5.2 2.2 2.6 8.9-2.5 7.1-5.4-0.35-0.56-0.7-0.82-1.3-0.79zm333 4e-3c-2.9 0.088-5.6 1-7.5 2.8-2.4 2.3-3.4 2.6-6.5 2.1-8.3-1.3-16 2.6-16 8.3 0 1.8-1 3.6-3.1 5.3-6.4 5.4 1.9 10 11 6.7 0.99-0.4 2.2 0.49 3.5 2.6 1.1 1.8 3.6 4 5.5 5 5 2.5 12 2.3 17-0.61 2.2-1.3 6.2-2.6 8.9-3 2.6-0.34 6-1.2 7.4-2 2.4-1.2 3-1.1 6.1 0.99 5.3 3.6 8.8 2.9 14-2.6 1.4-1.4 3.8-3.4 5.2-4.4 5.7-3.8 1.6-13-5.9-13-1.1-2e-3 -3.5-1.6-5.3-3.5-5.5-5.9-13-6.8-21-2.4-3.3 1.9-3.3 1.9-6.3-0.35-2.3-1.7-5.2-2.5-8.1-2.4zm-315 1.6v2e-3c-2.4-0.6-4.2 1.8-4.3 6.6-0.13 4.4-0.43 5-3.3 6.4-1.7 0.83-4.8 3.8-6.7 6.5-9.2 13-13 19-12 19 0.99 0.99 3.5-0.77 4.6-3.2 1.2-2.6 11-13 12-13 2 0 3 7.4 3.3 25 0.23 12 0.8 20 1.5 22 1.4 2.6 3.7 2.2 3-0.55-0.69-2.7-0.44-13 0.52-21l0.81-7 1.4 5c0.76 2.7 1.3 7.8 1.3 11-0.096 7 2.3 13 4.3 11 0.85-0.85 0.82-1.6-0.12-3.2-0.99-1.6-1-4.2-0.16-12 0.76-7 0.79-12 0.096-16-1-6.2-0.55-13 0.92-14 0.42-0.26 3 2 5.8 5 5 5.5 9 7.7 5.8 3.2-3.2-4.5-8.2-12-9.7-15-0.88-1.7-2.5-3.1-3.8-3.3-2.1-0.3-2.2-0.7-1.6-4.6 0.49-3.3 0.25-4.7-1-5.9-0.9-0.9-1.8-1.4-2.6-1.6zm27 2.9c-0.35-0.028-0.66 0.043-0.9 0.24-1.9 1.5-1.7 2.9 0.85 5.5 2.4 2.6 3.9 2.9 5.6 1.1 1.5-1.5-3.1-6.7-5.6-6.9zm-56 3.1c-1.4 0-5.2 6.2-4.7 7.6 0.88 2.3 3.1 1.7 5.5-1.6 2.1-2.9 1.7-5.9-0.82-5.9zm64 7.1c-1.1 0.33-1.4 2.2 0.014 5.2 1.8 3.7 2.8 4.3 5.3 2.7 1.2-0.74 1.1-1.4-0.51-4.2-1.7-3-3.7-4.1-4.8-3.8zm-71 4.4c-0.91-0.15-1.4 0.6-2.4 2.9-1.8 4.3-1.8 5.3-0.22 5.9 3.6 1.4 7.1-6.6 3.7-8.4-0.43-0.23-0.78-0.38-1.1-0.43zm223 3.7c-2.7-0.1-5.4 0.2-5.9 0.99-0.34 0.53-4.2 1-8.5 1.1-4.3 0.088-8.1 0.49-8.4 0.91-0.78 1.1-54 8.6-54 7.7-0.33-0.87-2.2-1.2-6.1-1-2.4 0.1-2.7 0.35-1.6 1.6 1 1.3 0.9 1.5-0.88 1.5-1.4 0-2.1 0.63-2.1 1.9 0 1.2-0.92 2.1-2.4 2.5-4.1 1-4.3 7.4-0.3 11 3.8 3.4 4.6 3.4 18 0.19 5.7-1.4 11-2.4 12-2.2 0.91 0.2-1.4 0.95-5.1 1.7-6.4 1.2-6.8 1.4-6.8 4.1 0 4 0.67 4.1 9.1 1.9 4.1-1.1 9.7-2.2 12-2.5 2.8-0.33 5.2-0.91 5.5-1.3 0.42-0.59 7.6-2.4 14-3.5 3.9-0.69 6.3 2 6 6.8-0.2 3.2 0.24 5.1 1.5 6.6 2.2 2.6 4.9 2.2 18-2.5l9-3.2 0.082-4.9c0.07-4.2 0.38-4.9 2.2-5.2 1.9-0.27 2.7-1.8 2.3-4.3-0.12-0.88 3.1-1.6 11-2.4l6.7-0.68-0.55 4.1c-0.56 4.2-0.53 4.2 3.7 4.5 1.1 0.077 1.8-1.8 2.6-7 0.62-3.9 1.4-8 1.8-9.2 0.71-2.2-1.8-5.6-3.8-5-2 0.66-3.2 6.8-1.6 7.8 0.92 0.58-1.1 0.9-5.7 0.91-10 0.021-13 0.8-14 3.4-0.27 1.2-0.39 0.22-0.28-2.1 0.15-3.2-0.17-4.3-1.3-4.3-1-0.053-1.1-0.24-0.28-0.58 1.5-0.6 1.7-6.3 0.25-6.3-0.55 0-1-0.62-1-1.4 0-0.81-2.5-1.3-5.2-1.4zm-119 1.8c-2.1 0-2.4 0.49-2.7 4.8l-0.3 4.8-4.8 0.3c-7.6 0.49-7.4 6.2 0.25 6.2h5v4.5c0 4.1 0.2 4.5 2.5 4.5s2.5-0.37 2.5-4.5v-4.5h5c7.6 0 7.8-5.7 0.25-6.2l-4.8-0.3-0.3-4.8c-0.27-4.3-0.55-4.8-2.7-4.8zm120 0.16c0.33-0.12 0.6-0.12 0.76 0.031 0.31 0.31-0.25 0.87-1.2 1.2-1.4 0.54-1.5 0.43-0.56-0.56 0.34-0.34 0.71-0.59 1-0.71zm-22 2.1c0.12-0.12 0.29-0.1 0.47 0.08 0.37 0.37 0.37 0.97 0 1.3-0.37 0.37-0.67 0.067-0.67-0.67 0-0.37 0.074-0.63 0.2-0.75zm-126 0.59c-2.6 0.47-2.6 0.36-1.8 5 0.66 4.1 3.8 6 4.9 2.9 1-2.9-1.1-8.3-3.1-7.9zm131 0.15c0.55 0 0.72 0.45 0.38 1s-1.1 1-1.6 1-0.72-0.45-0.38-1 1.1-1 1.6-1zm68 1v6h25v-6h-12zm-71 4c0.61 0 0.8 0.85 0.43 2-0.75 2.3-0.87 2.3 7.5 0.5 7.6-1.7 12-1.9 8.4-0.52-1.2 0.47-4.2 1.2-6.7 1.5-2.5 0.38-4.4 1.1-4.1 1.6 0.3 0.49 0.073 0.89-0.51 0.89-0.58 0-1.1-0.41-1.1-0.91s-1-0.65-2.2-0.34c-1.2 0.31-2.6 1.1-3.1 1.7-0.5 0.65-0.6 0.35-0.25-0.74 0.33-1 0.59-2.7 0.59-3.8s0.48-1.9 1.1-1.9zm-208 0.13c-0.92 0.18-1 1.2-1 4.3 0 3.9 0.29 4.6 2 4.6 1.6 0 2-0.67 2-3.5 0-1.9 0.11-3.8 0.25-4.2s-0.76-0.89-2-1.1c-0.51-0.073-0.91-0.1-1.2-0.045zm228 0.2c0.69-0.28 1.8-0.28 2.5 0s0.12 0.5-1.2 0.5-1.9-0.23-1.2-0.5zm-44 1c0.69-0.28 1.8-0.28 2.5 0s0.12 0.5-1.2 0.5-1.9-0.23-1.2-0.5zm-5.5 0.97c0.97-0.25 2.3-0.24 3 0.037 0.68 0.27-0.12 0.48-1.8 0.46s-2.2-0.24-1.2-0.5zm48 0.69c0.22 0 0.39 1.8 0.39 4s-0.35 4-0.78 4c-0.43 0-0.6-1.8-0.39-4 0.21-2.2 0.56-4 0.78-4zm-54 0.32c0.72-0.29 1.6-0.25 1.9 0.08 0.33 0.33-0.26 0.57-1.3 0.53-1.2-0.048-1.4-0.29-0.6-0.61zm80 0.94c0.12-0.12 0.29-0.1 0.47 0.08 0.37 0.37 0.37 0.97 0 1.3-0.37 0.37-0.67 0.067-0.67-0.67 0-0.37 0.074-0.63 0.2-0.75zm117 0.7c-1.4-0.23-4 0.56-8.1 2.3-4.9 2.1-5.3 2.4-4.8 5.1 0.3 1.6 0.55 4.2 0.55 5.8 0 2.7 0.25 2.9 2.8 2.4 1.5-0.3 4.4-0.83 6.5-1.2 3.4-0.58 3.8-0.94 3.8-3.8 6e-3 -1.7 0.29-4.8 0.63-6.9 0.38-2.3 0.062-3.6-1.4-3.8zm-209 0.38c0.37-0.37 0.97-0.37 1.3 0 0.37 0.37 0.067 0.67-0.67 0.67-0.73 0-1-0.3-0.67-0.67zm-7.6 1c0.69-0.28 1.8-0.28 2.5 0s0.12 0.5-1.2 0.5c-1.4 0-1.9-0.23-1.2-0.5zm-3.2 0.66c0.28 0 0.5 0.22 0.5 0.5s-0.22 0.5-0.5 0.5-0.5-0.22-0.5-0.5 0.22-0.5 0.5-0.5zm105 0c0.28 0 0.22 0.45-0.12 1s-0.84 1-1.1 1c-0.28 0-0.22-0.45 0.12-1s0.84-1 1.1-1zm36 1c-13 0-16 1.4-12 5.3 0.37 0.37 6 0.67 12 0.67h12v-6zm-210 0.072c-0.61-0.058-2.1 0.23-2.2 1.6 0.067 0.79 0.12 1.6 0.17 2.4 0.019 0.63 0.056 1.3 0.11 1.9-3e-4 1 0.028 1.7 0.73 2.4 3.5 0.44 2.9-6.9 1.6-8.1-0.15-0.064-0.31-0.084-0.47-0.1zm122 0.014c0.99 0.036 0.82 0.35-0.5 0.91-2.7 1.2-4.3 1.2-2.5 0 0.82-0.53 2.2-0.94 3-0.91zm-7.5 1.9c0.28 0 0.5 0.22 0.5 0.5s-0.22 0.5-0.5 0.5-0.5-0.22-0.5-0.5 0.22-0.5 0.5-0.5zm17 1.3c0.37-0.37 0.97-0.37 1.3 0 0.37 0.37 0.067 0.67-0.67 0.67-0.73 0-1-0.3-0.67-0.67zm-24 0.06c0.33 0.039 0.09 0.19-0.74 0.46-5.3 1.7-8.5 2.3-7.5 1.3 0.55-0.53 3-1.2 5.5-1.6 1.5-0.19 2.4-0.27 2.7-0.23zm7.6 0.98c0.18-0.08 0.43-0.045 0.71 0.12 0.55 0.34 1 0.82 1 1.1s-0.45 0.44-1 0.44-1-0.48-1-1.1c0-0.29 0.11-0.49 0.29-0.57zm-59 0.62c0.28 0 0.5 0.22 0.5 0.5s-0.22 0.5-0.5 0.5-0.5-0.22-0.5-0.5 0.22-0.5 0.5-0.5zm-135 0.18c-2.5-0.36-2.7 0.94-1.1 5.7 1.1 3.2 3.6 4.2 4.4 1.9 0.95-2.6-1.1-7.2-3.3-7.6zm172 0.82c0.28 0 0.5 0.22 0.5 0.5s-0.22 0.5-0.5 0.5-0.5-0.22-0.5-0.5 0.22-0.5 0.5-0.5zm1.7 2.3c0.12-0.12 0.29-0.1 0.47 0.08 0.37 0.37 0.37 0.97 0 1.3-0.37 0.37-0.67 0.067-0.67-0.67 0-0.37 0.074-0.63 0.2-0.75zm46 1c0.62 0.1 0.8 0.98 0.8 3.1 0 2.9-0.37 3.6-2 3.6-1.6 0-2-0.67-2-3 0-1.6 0.19-3 0.42-3 0.23 0 1.1-0.27 2-0.61 0.32-0.12 0.57-0.17 0.78-0.14zm-145 2.8c-1.8-0.041-5.1 7.2-3.7 8.1 2 1.3 3.1 0.65 5.3-3 1.8-3.2 1.3-5-1.6-5.1zm149 3c0.28 0 0.5 0.22 0.5 0.5s-0.22 0.5-0.5 0.5-0.5-0.22-0.5-0.5 0.22-0.5 0.5-0.5zm-219 1.2c-1.5 0.35-1.7 3 0.75 6.3 2.2 2.9 3 3.4 4.2 2.4 2-1.6 1.7-3-1.1-6.4-1.5-1.9-2.9-2.5-3.8-2.3zm362 3.6c-1.2-0.18-2.4-0.17-3.5 0.029-1.5 0.26-3 0.87-4.4 1.8-1.5 0.99-4.4 1.8-6.5 1.9-2.4 0.046-4.3 0.71-5.1 1.8-0.68 0.93-2.1 1.7-3.1 1.7-1 8e-3 -2.6 0.45-3.4 0.98-1 0.64 5.4 0.97 19 0.98l20 0.016-2.4-2.6c-3.6-3.8-7.3-6-11-6.6zm-299 3.3c-2.7-0.3-7.7 4.3-6 6.3 1.8 2.1 2.2 2 5.6-1.5 2.5-2.6 2.7-3.2 1.4-4.4-0.27-0.26-0.62-0.41-1-0.45zm-53 3.8c-0.77-0.14-1.4-0.12-1.7 0.14-2.1 1.8-1.8 2.5 1.8 4.9 4.1 2.6 5.8 2.2 5.8-1.4 0-1.2-3.5-3.2-5.8-3.6zm42 3.3c-0.084-0.16-1.2 0.14-2.5 0.67-1.3 0.53-3.2 1.2-4.2 1.5-1.5 0.46-1.6 0.94-0.71 2.6 1.3 2.4 2 2.5 6.7 0.52 3.2-1.3 3.4-1.7 2.3-3.2-0.74-0.96-1.4-1.9-1.5-2zm-31 2.4c-0.83 3e-3 -1.5 0.21-1.8 0.69-1.3 2-0.92 3.5 0.94 4 4.4 1.1 7.2 0.69 7.2-1.1 0-1.8-3.9-3.6-6.4-3.6zm20 1.9c-0.93-0.23-2.6-0.1-4.9 0.21-4.2 0.56-6.5 4.3-2.7 4.3 4.5 0 4.3-0.15 5.3-0.33 2.2-0.4 6.9-3 2.3-4.2zm468 405 11 0.59-0.11 23c-0.061 13-0.35 23-0.63 24-0.9 1.5-1.6 0.85-13-10-12-12-12-12-8.7-14 2.7-2.5 8.4-13 10-18zm-642 0.09h6c4.7 0 6 0.33 6 1.5 0 2.9 5.7 14 9.8 19 2.3 2.8 3.7 5.3 3.2 5.5-0.49 0.18-5.9 5.2-12 11-14 13-13 14-13-15zm327 27 31 15h21v11l-31-0.55-1.3-4.7c-5.3-19-34-18-39 0.71l-1.2 4.5h-15c-17 0-17 0-16-7.6l0.33-2.9 24-1.1 14-7.2zm299 0.59 11 11c12 12 13 13 9.2 13-9.4 2.1-46 0.96-46-1.5-0.58-9.2-0.95-8.5 6.6-11 5.2-1.9 11-5.6 16-9.7zm-598 1.2h2e-3c1.4 0.11 2.6 1.3 5 3.1 4.6 3.5 12 7.5 18 9.5 1.4 0.47 1.8 1.7 1.8 6.1v5.5l-22-0.14c-31-0.2-30 0.58-16-13 8.6-8.4 11-11 14-11zm297 8.5c8.2-0.89 17 3.6 18 12l0.58 2.9-17 0.014c-19 0.016-20-0.23-15-7.6 3.1-4.6 7.9-7 13-7.6zm-269 4.7 215 0.51-0.3 5c-0.17 2.8-0.42 5.1-0.55 5.3-0.38 0.38-212 0.79-214 0.41-0.55-0.18-1-2.8-1-5.8zm326 0 215 0.51-0.1 5c-0.14 6.6 9.9 6.1-110 5.8l-105-0.26v-5.5zm156 9c-0.28 0-0.5 0.22-0.5 0.5s0.22 0.5 0.5 0.5 0.5-0.22 0.5-0.5-0.22-0.5-0.5-0.5z"/>
 <text x="117.7645" y="231.68839" fill="#000000" font-family="Sans" font-size="43px" stroke="#000000" stroke-linejoin="round" xml:space="preserve"><tspan x="117.7645" y="231.68839" font-size="43px">Weapon - Special</tspan></text>
 <text x="121.7645" y="639.36664" fill="#000000" font-family="Sans" font-size="26px" stroke="#000000" stroke-linejoin="round" xml:space="preserve"><tspan x="121.7645" y="639.36664">Play as part of your Battle Plan.</tspan><tspan x="121.7645" y="676.03326">Automatocally kills enemy leader regardless </tspan><tspan x="121.7645" y="712.69989">of defense card used. </tspan><tspan x="121.7645" y="749.36652"/><tspan x="121.7645" y="786.03314">You may keep this card if you win in this battle. </tspan><tspan x="121.7645" y="822.69977"/><tspan x="121.7645" y="859.36639">If anyone plays a Shield in this battle, and neither </tspan><tspan x="121.7645" y="896.03302">leader is called as a traitor, then all tokens and </tspan><tspan x="121.7645" y="932.69965">leaders in this battle's territory are killed. </tspan><tspan x="121.7645" y="969.36627">Both players lose this battle.</tspan></text>
</svg>
