<?xml version="1.0" encoding="UTF-8" standalone="no"?>
<!-- Created with Inkscape (http://www.inkscape.org/) -->

<svg
   width="822"
   height="1122"
   version="1.1"
   viewBox="0 0 822 1122"
   xml:space="preserve"
   id="svg10"
   sodipodi:docname="Mirror Weapon (Full Res).svg"
   inkscape:version="1.4 (86a8ad7, 2024-10-11)"
   xmlns:inkscape="http://www.inkscape.org/namespaces/inkscape"
   xmlns:sodipodi="http://sodipodi.sourceforge.net/DTD/sodipodi-0.dtd"
   xmlns="http://www.w3.org/2000/svg"
   xmlns:svg="http://www.w3.org/2000/svg"><defs
     id="defs10" /><sodipodi:namedview
     id="namedview10"
     pagecolor="#ffffff"
     bordercolor="#000000"
     borderopacity="0.25"
     inkscape:showpageshadow="2"
     inkscape:pageopacity="0.0"
     inkscape:pagecheckerboard="0"
     inkscape:deskcolor="#d1d1d1"
     inkscape:zoom="0.70710678"
     inkscape:cx="288.49957"
     inkscape:cy="415.77879"
     inkscape:window-width="1742"
     inkscape:window-height="1360"
     inkscape:window-x="1882"
     inkscape:window-y="325"
     inkscape:window-maximized="0"
     inkscape:current-layer="svg10" /><path
     d="m 89,1000 c -4.5,-1.3 -6.7,-2.9 -8.9,-6.5 L 77.9,990 77.953,529 c 0.029,-254 0.072,-465 0.096,-469 0.042,-7.1 0.16,-7.4 4,-12 l 3.9,-4.2 320,-0.26 c 237,-0.19 321,0.035 323,0.87 1.5,0.62 4.1,2.7 5.7,4.5 l 3,3.4 -0.002,469 c -0.002,460 -0.037,469 -1.9,472 -1.1,1.7 -3.4,4 -5.2,5.1 -3.5,2.1 -634,3.6 -641,1.5 z m 44,-8.3 c 0,-4.6 -0.35,-5.9 -1.8,-6.4 -5.7,-1.9 -13,-6 -18,-9.5 l -5.4,-4 -11,11 c -15,15 -16,14 16,14 h 21 z m 219,0.45 0.3,-5.2 -4.3,-0.017 c -2.4,-0.01 -51,-0.012 -108,-0.01 l -104,0.012 -0.32,3.1 c -0.18,1.7 -0.085,4.1 0.21,5.3 l 0.53,2.1 215,-0.15 z m 36,1.1 c 6,-20 35,-20 40,1 0.47,1.9 1.3,2.8 2.9,2.8 3.9,0.12 13,0.13 21,0.03 l 7.7,-0.096 0.69,-10 h -19 l -33,-16 -30,15 h -22 l -0.31,4.4 c -0.51,7 -1,6.8 16,6.6 l 15,-0.2 z m 290,-0.96 -10e-6,-5.2 -42,-0.27 c -23,-0.15 -71,-0.15 -108,-6e-4 l -66,0.27 v 4.9 c 0,6.2 -13,5.5 110,5.5 h 105 z m 50,4.1 c 1.6,-0.92 0.38,-2.5 -10,-13 l -12,-12 -2.5,2.3 c -4.5,4.1 -12,8.6 -18,10 l -5.3,1.7 v 5.2 c 0,4.7 0.24,5.3 2.2,5.6 5.8,0.83 43,0.18 45,-0.77 z m -304,-1.7 c -5,-16 -25,-18 -33,-3.7 -3.1,6 -3.2,5.9 16,5.9 h 18 z m 309,-3 c 1.7,-4.3 0.77,-47 -0.97,-47 -0.99,-0.021 -3.4,-0.28 -5.5,-0.57 -3.5,-0.51 -3.7,-0.38 -4.9,3.3 -2,6 -5.9,13 -9.6,18 l -3.4,4.1 11,11 c 12,12 12,12 13,11 z m -648,-1.5 c 1,-0.96 6.2,-6 11,-11 l 9.6,-9.3 -3.9,-5.2 c -4.2,-5.6 -8.4,-14 -9.4,-18 -0.6,-2.5 -1,-2.7 -6.1,-2.7 h -5.5 l -0.029,10 c -0.016,5.6 -0.092,15 -0.17,22 -0.18,15 0.55,18 4,14 z m 307,-15 c 8.3,-4.1 15,-7.5 16,-7.5 1,0 7.3,3.4 16,7.5 l 15,7.5 h 245 l 8.3,-4.2 c 11,-5.4 19,-14 25,-25 l 3.8,-7.7 0.51,-804 h -23 l -1.2,6.7 c -11,65 -111,63 -121,-2.2 l -0.68,-4.5 h -480 l -0.016,74 c -0.0088,41 -0.015,221 -0.014,400 l 0.0023,327 2.1,5.6 c 4.9,13 14,23 27,30 l 7.9,4 h 245 z m -301,-41 c 0.0089,-3.4 0.022,-192 0.03,-419 l 0.014,-412 -11,-0.58 0.2,417 c 0.11,230 0.22,418 0.25,419 0.037,1.4 0.97,1.8 5,1.8 h 5 z m 643,-413 0.027,-419 h -11 v 838 h 11 z m -84,-328 c 31,-6 52,-43 42,-74 -19,-61 -110,-49 -113,14 -2.1,39 31,67 71,60 z m -57,-83.3 c 28,-43 94,-24 94,28 0,34 -30.8498,54.43084 -57.92096,49.64032 C 599.52799,184.64147 571.37318,150.5744 593,109.89 Z m 65,70.7 c 38,-19 35,-74 -5.4,-88 -15,-5 -24,-4.2 -40,3.8 -8.2,4 -20,19 -21,27 -0.31,1.7 -0.84,3.6 -1.2,4.2 -2.1,3.5 -0.76,20 2.2,27 0.73,1.6 2.1,4.6 2.9,6.6 9.2,20 41,30 63,19 z m -563,-87 c 2,-5.8 6.1,-13 9.9,-17 l 2.6,-2.8 -11,-11 c -14,-13 -14,-13 -14,-0.13 -0.0087,5.4 -0.065,15 -0.12,21 -0.16,17 -0.75,15 5.7,15 l 5.6,-0.3 z m 640,-18 c -0.38,-28 0.58,-27 -13,-13 l -12,12 2.6,2.8 c 3.3,3.6 8,12 9.6,17 1.8,5.7 1.6,5.5 7.6,5.5 h 5.5 z m -310,-11 15,-7.5 h 20 l 0.35,-5.1 c 0.44,-6.5 1.9,-5.9 -15,-5.9 h -15 l -1.5,3.8 c -3.9,9.9 -9.1,14 -18,15 -11,0.89 -20,-5.7 -23,-17 -0.38,-1.3 -2.8,-1.5 -16,-1.5 l -15,0.05 v 10 l 23,1 14,7.2 c 17,8.7 13,8.8 31,-0.2 z m -310,2.5 c 2.9,-2.2 8.3,-5.2 12,-6.7 l 6.8,-2.7 v -5.3 c 0,-6.8 0.7,-6.6 -25,-6.2 -26,0.43 -26,0.015 -12,13 5.8,5.6 11,11 11,11 0.63,1.4 2.1,0.75 7.4,-3.3 z m 614,-19 c -0.65,-0.65 -9.4,-1 -24,-1 h -23 v 11 l 5,1.7 c 5.5,1.9 12,5.7 17,9.6 l 3,2.5 11,-11 c 7.7,-7.7 11,-11 10,-12 z m -314,13 c 5.1,-2.6 11,-9.3 11,-13 0,-0.3 -7.9,-0.54 -18,-0.54 -19,0 -19,0.02 -16,4.8 4.3,8.3 15,12 23,8.6 z m -62.4,-3.42 -0.24,-10 h -215 l -0.1,3.5 c -0.22,7.7 -5.5,7 55,7.3 30,0.14 74,0.16 98,0.029 24,-0.131 48,-0.24 53,-0.25 z m 281.4,0.02033 45,-0.021 v -11 l -106,0.037 c -122,0.043 -109,-0.62 -109,5.9 l 0.35,5 c 57,0.7 113,0.09 170,0.042 z m -0.21592,508.68834 c -0.17444,-0.17439 -116.2245,-0.40341 -257.88904,-0.50892 -237.54693,-0.17694 -257.80899,-0.32281 -260.62181,-1.87636 -3.81826,-2.10887 -6.86313,-5.42671 -9.19621,-10.02064 -1.70803,-3.3632 -1.8238,-12.38599 -2.06992,-161.32756 -0.22351,-135.26344 -0.0511,-158.43101 1.20864,-162.43392 1.64118,-5.21485 6.46105,-10.74413 11.06411,-12.69256 2.43472,-1.0306 59.81365,-1.19389 288.21845,-0.8202 156.84819,0.25661 286.67516,0.69631 288.50437,0.9771 3.87609,0.59499 9.79241,5.45453 12.14572,9.97623 1.49573,2.87394 1.62085,17.55983 1.39602,163.85759 -0.13584,88.38539 -0.62481,161.69565 -1.0866,162.91169 -1.28938,3.39531 -6.0107,8.59311 -9.54805,10.51164 -2.78096,1.5083 -6.88538,1.72866 -32.49576,1.74466 -16.12202,0.0101 -29.45548,-0.12436 -29.62992,-0.29875 z m 62.18448,-4.70028 c 1.78298,-1.0801 4.36728,-4.05728 5.74287,-6.61595 l 2.50108,-4.65213 0.35699,-158.81492 c 0.3394,-150.98936 0.26712,-159.01451 -1.46689,-162.86534 -1.00314,-2.22772 -3.48568,-5.19052 -5.51677,-6.58399 l -3.69288,-2.53357 -59.54842,-0.18008 c -32.75163,-0.099 -162.28714,-0.32806 -287.85669,-0.50892 l -228.30826,-0.32884 -3.75571,2.5446 c -2.06564,1.39953 -4.6725,4.42459 -5.79302,6.72237 -2.25532,4.62481 -2.06908,-18.31582 -1.94091,239.08585 0.0248,49.80204 0.42026,80.83423 1.06106,83.26252 1.26765,4.8037 4.35343,8.46791 9.24646,10.97971 3.65444,1.87598 9.49252,1.92575 212.77971,1.81371 114.9622,-0.0634 209.19324,0.0545 209.40231,0.26181 0.20907,0.20735 34.84274,0.377 76.96371,0.377 73.85165,0 76.69921,-0.07 79.82536,-1.96383 z M 629.41249,158.76421 c 6.24771,-4.38015 5.35902,-8.73936 -1.78165,-8.73936 -2.50209,0 -6.75289,-2.00556 -9.44621,-4.45681 -4.08029,-3.71355 -4.62985,-6.58038 -3.29531,-17.19054 0.88089,-7.00356 1.33829,-13.30675 1.01644,-14.00711 -0.32185,-0.70036 1.62704,-3.55189 4.33088,-6.33675 3.46945,-3.57342 4.4627,-3.88084 3.37539,-1.04472 -0.84736,2.21027 0.22889,5.48865 2.39168,7.28528 5.81827,4.83324 4.7972,10.67497 -2.94607,16.855 -6.46396,5.15899 -6.61874,5.74971 -2.56873,9.8035 4.05,4.05378 4.69444,3.89816 10.69498,-2.58257 3.51191,-3.79295 6.38529,-7.87496 6.38529,-9.07114 0,-5.13252 4.69407,-1.57613 6.37338,4.82869 1.83084,6.98276 1.84415,6.98654 4.4812,1.27337 3.76359,-8.15378 14.58914,-7.91273 14.58914,0.32486 0,3.33026 -1.70485,7.47124 -3.78854,9.20217 -2.0837,1.73094 -3.20999,4.08415 -2.50287,5.22936 0.70712,1.14521 0.20114,2.75311 -1.12439,3.5731 -1.32554,0.81999 -3.12924,0.32616 -4.00822,-1.0974 -2.3004,-3.7256 -6.38658,-3.18646 -6.38658,0.84265 0,1.88702 2.57617,4.67455 5.72483,6.19451 4.77418,2.30464 2.99011,2.79218 -10.74362,2.93592 -15.66264,0.16393 -16.18968,-0.0231 -10.77102,-3.82201 z m 29.36939,-24.18001 c -1.95807,-1.9599 -3.11069,-0.80621 -4.03624,4.04001 -1.1829,6.1937 -0.94467,6.43215 2.74074,2.7433 2.88362,-2.88632 3.25358,-4.82341 1.2955,-6.78331 z m -33.93456,-15.43215 c 0,-4.43371 -4.52664,-2.1147 -5.864,3.00413 -1.12312,4.29883 -0.71976,4.69991 2.24762,2.23491 1.98901,-1.65227 3.61638,-4.00984 3.61638,-5.23904 z m -511.0496,443.85211 c -5.57837,-4.53526 -5.99441,-6.85802 -7.3333,-40.94207 -0.78068,-19.87372 -1.34433,-93.20468 -1.25253,-162.95769 l 0.1669,-126.82365 7.02858,-6.08062 7.02858,-6.08062 73.13303,0.34473 c 42.41678,0.19994 66.71947,1.08217 57.86282,2.10051 -8.39862,0.96568 -21.30177,4.77879 -28.67367,8.47357 -7.3719,3.69478 -14.28044,6.71778 -15.35232,6.71778 -1.07188,0 -3.73819,-3.48014 -5.92513,-7.73363 l -3.97626,-7.73363 -38.41872,0.80497 c -33.53257,0.70259 -39.08602,1.41327 -43.66565,5.58788 -5.22074,4.75904 -5.24692,5.58023 -5.24514,164.53298 l 0.002,159.75007 6.40215,6.43911 60.04588,5.49403 53.64373,-0.94508 156.78068,-0.69137 152.70339,0.48827 -124,1.68111 c -68.2,0.92461 -162.48421,1.83867 -209.52047,2.03125 -80.7043,0.33042 -85.8535,0.0794 -91.43434,-4.4579 z m 435.60127,-2.00909 c 0,3.15763 5.63636,-1.72619 5.63636,-2.50146 0,-3.3751 -13.05862,-37.42246 -15.47738,-40.35371 -2.04371,-2.47673 -0.41,-4.18712 6.95614,-7.28266 11.4466,-4.81031 15.21337,-3.13482 22.29902,9.91877 2.75556,5.07644 6.41919,9.23295 8.14142,9.23669 3.8837,0.008 3.90116,-2.06488 0.13665,-16.22122 -2.65708,-9.9919 -2.47213,-11.84204 1.64078,-16.41299 8.40635,-9.34253 11.97335,-6.42047 26.11453,21.3928 7.41835,14.59064 13.02634,26.99268 12.46218,27.56009 -0.56415,0.56741 -7.19735,3.92097 -14.74044,7.45236 -13.53514,6.33662 -13.59991,6.4187 -4.94704,6.26822 4.82222,-0.0839 11.02222,-1.06645 13.77778,-2.18353 2.75556,-1.11708 6.19079,-1.08921 7.63385,0.0619 1.44306,1.15113 11.58852,2.48352 22.54546,2.96086 10.95693,0.47734 -6.56921,0.94165 -38.94699,1.03181 -32.37777,0.0902 -53.23232,-4.08558 -53.23232,-0.92795 z m 38.20202,-20.89751 c 0,-3.35935 -1.67003,-5.03902 -5.0101,-5.03902 -3.34007,0 -5.0101,1.67967 -5.0101,5.03902 0,3.35935 1.67003,5.03903 5.0101,5.03903 3.34007,0 5.0101,-1.67968 5.0101,-5.03903 z m -334.32767,-6.70585 c -14.26273,-4.40133 -13.57896,-5.13509 12.42868,-13.3373 19.11945,-6.02984 63.53013,-21.65089 95.19192,-33.48289 67.56361,-25.24849 69.52828,-25.80129 73.14125,-20.58002 1.83421,2.65071 7.35752,10.33778 12.27403,17.08237 6.67134,9.15191 8.21665,12.98697 6.09131,15.11707 -2.12293,2.12768 -4.14122,1.25091 -7.92924,-3.4446 l -5.08144,-6.29878 1.35117,7.96052 c 1.68507,9.92772 -3.92982,13.03627 -9.22993,5.10992 -4.46968,-6.68443 -9.04683,-3.50951 -4.80022,3.32966 2.52217,4.06194 2.02491,5.89244 -3.11634,11.47197 l -6.11736,6.63884 -1.63389,-6.54753 c -2.06297,-8.26701 -9.52989,-8.59439 -28.64631,-1.25595 -7.57778,2.90896 -30.12323,9.13987 -50.10101,13.84645 -40.27088,9.48745 -63.38233,10.69793 -83.82262,4.39027 z m 92.71068,-26.28195 c 2.20364,-4.28597 3.50057,-8.30164 2.88206,-8.92372 -0.6185,-0.62208 -5.75677,0.73309 -11.41836,3.01149 l -10.29381,4.14255 5.59729,4.69736 c 7.54403,6.3311 8.59156,6.09934 13.23282,-2.92768 z m 25.81705,0.2164 10.90714,-2.83719 -8.2625,-6.13107 c -11.06141,-8.20796 -14.38998,-7.74379 -18.6897,2.6063 -4.62747,11.13904 -4.5633,12.03078 0.75409,10.47872 2.41111,-0.70377 9.29205,-2.55631 15.29097,-4.11676 z m 27.37612,-26.5654 c -1.6401,-1.64956 -22.97556,5.59008 -23.79935,8.07571 -0.44277,1.33597 2.88086,4.20774 7.38584,6.38172 l 8.19087,3.95269 4.56495,-8.7488 c 2.51072,-4.81184 4.15669,-9.15944 3.65769,-9.66132 z m 81.33291,50.35101 c -1.72222,-1.8695 -3.13131,-4.69328 -3.13131,-6.27506 0,-2.54304 -12.55023,-25.01371 -21.73112,-38.90866 -23.18853,-35.09502 -27.04627,-42.69389 -29.41902,-57.94878 -1.19375,-7.67483 -0.36831,-12.03067 3.46155,-18.26647 4.88897,-7.96027 14.5387,-11.81797 11.83489,-4.73126 -0.72546,1.90143 -2.07907,8.55478 -3.00802,14.78522 -3.10985,20.85771 7.66985,32.29326 27.00261,28.64548 6.47288,-1.22133 8.79568,-0.49499 11.29639,3.53242 1.73142,2.78843 2.4595,7.82902 1.61797,11.2013 -0.92955,3.72501 1.8e-4,8.32874 2.36891,11.7301 3.55528,5.10518 3.52511,5.87362 -0.34232,8.71788 -3.97802,2.92559 -3.96281,3.89803 0.24494,15.66693 5.20401,14.55543 5.06284,37.55887 -0.19547,31.8509 z m 51.92432,-34.21568 c -5.24719,-6.53972 -8.49057,-7.98605 -20.97196,-9.35209 -13.12277,-1.43624 -15.59318,-2.64683 -22.2134,-10.88536 l -7.4486,-9.26941 8.07694,-12.53681 c 5.95878,-9.24906 10.82074,-13.59071 18.53958,-16.55559 5.75445,-2.21033 11.27041,-4.01878 12.25768,-4.01878 4.55253,0 0.9804,8.65195 -6.97264,16.88821 -4.82222,4.99394 -8.76768,9.51878 -8.76768,10.05518 0,0.53641 2.46654,4.33072 5.4812,8.4318 6.21154,8.45006 9.26896,9.00719 20.44325,3.72524 8.65465,-4.09096 36.4001,-13.90531 39.31069,-13.90531 1.0035,0 3.64983,5.61272 5.88074,12.4727 4.03747,12.41513 4.02724,12.50182 -2.21671,18.78182 -3.4501,3.47001 -6.2729,7.41383 -6.2729,8.76404 0,1.35021 -3.66364,2.26781 -8.14142,2.0391 -4.47778,-0.2287 -10.98456,0.37555 -14.45952,1.34279 -5.14629,1.43244 -7.46933,0.3238 -12.52525,-5.97753 z m -18.60775,-34.22547 c -0.91514,-2.39859 -0.54146,-4.73738 0.8304,-5.19731 4.87521,-1.63445 25.34798,-18.42682 25.34798,-20.79116 0,-1.32226 3.43934,-2.4041 7.64298,-2.4041 6.2791,0 8.25947,-1.484 11.09773,-8.31612 3.16539,-7.61959 5.02361,-8.68812 22.18578,-12.75747 15.49024,-3.67291 20.60472,-3.93389 29.56049,-1.50843 l 10.82946,2.9329 -11.22388,5.41541 c -8.33984,4.02389 -11.90379,7.53105 -13.86991,13.64891 -2.5289,7.86902 -4.24726,8.78917 -38.8172,20.78598 -19.89413,6.90386 -37.46463,12.55248 -39.04554,12.55248 -1.58092,0 -3.62314,-1.96249 -4.53829,-4.36109 z m 96.02434,-4.19006 c -11.28281,-5.77499 -10.23668,-25.90216 1.62892,-31.3397 14.85071,-6.8055 23.71704,-2.27477 23.71704,12.11951 0,16.27742 -12.53063,25.77958 -25.34596,19.22019 z m -132.9652,-17.82352 c -5.28906,-10.94931 -5.31183,-11.39778 -0.83172,-16.37683 6.31305,-7.01612 7.42134,-6.58595 12.55978,4.87485 4.19302,9.35214 4.21375,10.40406 0.3227,16.37683 -2.28697,3.51051 -4.71043,6.38274 -5.38546,6.38274 -0.67504,0 -3.67442,-5.06591 -6.6653,-11.25759 z m 50.59399,-5.27738 c 0,-3.46433 -1.73893,-6.96993 -3.86428,-7.79021 -3.62558,-1.3993 -14.96788,-20.56158 -13.21443,-22.32515 0.44338,-0.44594 3.72025,-1.54642 7.28193,-2.44551 6.13151,-1.54779 6.7638,-0.75223 11.89385,14.96519 6.44057,19.73257 6.50291,20.57528 1.6605,22.44422 -2.72255,1.05077 -3.75757,-0.28475 -3.75757,-4.84854 z m -32.70288,-7.76339 c -1.38505,-3.66398 -3.05841,-7.54081 -3.7186,-8.61517 -1.55148,-2.52485 5.77866,-9.91817 9.83341,-9.91817 1.71308,0 4.97785,3.92967 7.25507,8.7326 4.01114,8.46001 3.96913,8.85324 -1.34595,12.59756 -7.50369,5.28613 -9.10964,4.91258 -12.02393,-2.79682 z m 46.52582,-4.2531 c -2.21745,-3.4038 -4.69134,-10.27688 -5.49753,-15.27351 -1.17422,-7.27768 -0.66464,-9.08478 2.5618,-9.08478 5.48972,0 12.07822,10.75381 12.53519,20.46007 0.473,10.04656 -4.32478,11.99488 -9.59946,3.89822 z M 447.77022,410.9983 c 0.95869,-6.75846 8.28977,-8.90016 10.51361,-3.07145 2.11485,5.54302 -0.16983,8.71461 -6.27762,8.71461 -3.78445,0 -4.83749,-1.40285 -4.23599,-5.64316 z M 276.13195,391.9017 c -9.02642,-10.03166 -10.56022,-25.65048 -2.51894,-25.65048 3.31727,0 7.79102,8.17308 11.90399,21.74736 2.12339,7.00795 -4.21824,9.64534 -9.38505,3.90312 z m 18.67951,-2.57225 c -4.67286,-9.13951 -10.59533,-30.67243 -9.10382,-33.09967 2.92271,-4.75636 6.29741,-2.63503 6.29741,3.95853 0,4.2416 1.62794,6.96283 4.63921,7.75484 4.86359,1.27921 13.88836,17.33064 11.72417,20.85259 -2.66635,4.33916 -11.43483,4.68436 -13.55697,0.53371 z m 83.98802,-10.23936 c 2.01976,-19.4355 -0.11263,-27.04114 -8.85655,-31.5889 -3.9387,-2.04854 -7.586,-3.3658 -8.10513,-2.92724 -0.51912,0.43855 -4.45343,1.46778 -8.74291,2.28717 -6.50976,1.24352 -8.2419,0.51224 -10.47788,-4.42353 -1.47335,-3.25233 -2.08967,-8.17927 -1.36959,-10.94876 0.72008,-2.76949 -0.55107,-7.891 -2.82477,-11.38114 -3.87436,-5.94716 -3.85273,-6.50402 0.34433,-8.86637 4.23477,-2.38358 4.25472,-3.18289 0.36669,-14.69746 -5.40081,-15.99478 -7.09868,-26.55398 -5.35074,-33.27672 1.33898,-5.14983 1.62147,-5.20903 4.79331,-1.00449 1.85377,2.45731 3.40633,6.02142 3.45015,7.92024 0.0438,1.89883 2.98634,8.13462 6.53895,13.85732 43.75165,70.47729 42.08333,67.28606 43.1851,82.60581 1.12211,15.60258 -3.52512,27.31983 -10.83544,27.31983 -2.97298,0 -3.37075,-2.79698 -2.11552,-14.87576 z m -16.02675,10.54823 c -1.72222,-0.62227 -3.13132,-3.30449 -3.13132,-5.96047 0,-3.47133 1.7608,-4.82907 6.26263,-4.82907 3.64934,0 6.26263,1.44829 6.26263,3.47077 0,4.53552 -5.41687,8.75578 -9.39394,7.31877 z m -51.6232,-12.36123 c -2.3809,-5.02162 -3.99878,-9.333 -3.59528,-9.58084 0.4035,-0.24785 3.85393,-2.41456 7.66763,-4.81491 6.60127,-4.15486 7.00173,-4.14849 8.34522,0.13267 0.77616,2.47333 2.37329,6.93913 3.54918,9.92399 1.56361,3.96907 0.95114,6.5073 -2.27984,9.44817 -6.49952,5.91595 -8.88113,5.02693 -13.68691,-5.10908 z m -104.3162,3.6269 -6.26262,-2.66441 7.15805,-2.06942 c 9.65125,-2.79021 16.04231,-9.00522 17.87086,-17.37858 1.30823,-5.99072 3.80533,-7.64636 18.3036,-12.13576 9.23378,-2.85926 24.44907,-8.12334 33.81174,-11.69796 9.36268,-3.57463 19.10571,-6.49932 21.65118,-6.49932 8.05826,0 7.95325,6.97884 -0.1976,13.13171 -4.2001,3.17055 -10.71638,8.59908 -14.48063,12.06341 -3.76425,3.46433 -8.59371,5.9587 -10.73214,5.54305 -4.9691,-0.96584 -12.01133,6.0505 -12.01133,11.96719 0,3.49858 -3.74444,5.49876 -16.17139,8.63833 -18.36105,4.63878 -29.86125,4.96416 -38.93972,1.10176 z m 496,-81.02935 c 0,-71.68718 1.26115,-80.55329 -4.71976,-80.75062 -41.55878,-1.37115 -101.60433,-2.59844 -147.6297,-1.0969 -11.14988,0.45795 -19.47803,0.12589 -18.50698,-0.73792 0.97104,-0.8638 38.04002,-1.73582 82.52829,-2.54893 78.04088,-1.42635 81.18557,-1.80457 85.92298,2.96018 4.66228,4.6892 4.91022,8.81895 4.91022,81.7837 0,42.26481 -0.56363,76.84512 -1.25252,76.84512 -0.68889,0 -1.25253,-34.40458 -1.25253,-76.45463 z m -371.85795,68.33548 c -5.25712,-7.54892 -4.911,-15.37442 0.91453,-20.67689 4.60194,-4.18874 4.97693,-4.12266 8.50684,1.49914 5.90198,9.39962 7.40772,17.12814 4.11459,21.11902 -4.29864,5.20946 -9.02855,4.53111 -13.53596,-1.94127 z m -134.64579,1.1707 c -5.80013,-1.26404 -10.33197,-15.81475 -7.36776,-23.65621 3.43109,-9.07655 9.02119,-12.66837 18.3167,-11.76908 6.18088,0.59797 9.13167,2.58168 11.60793,7.80361 2.87762,6.06832 2.71295,8.23634 -1.23511,16.26138 -4.5275,9.20287 -12.27652,13.33157 -21.32176,11.3603 z m 102.56624,-13.83753 c 0.7764,-3.11789 4.61891,-9.39608 8.53889,-13.95154 l 7.12724,-8.28265 -5.48692,-7.46431 c -3.0178,-4.10537 -6.68403,-7.45878 -8.14715,-7.45204 -1.46312,0.007 -13.29341,3.99462 -26.28954,8.86194 -12.99613,4.86732 -24.40085,7.9797 -25.34381,6.9164 -0.94297,-1.06331 -3.42262,-7.1293 -5.51035,-13.47999 -3.58556,-10.90698 -3.5297,-11.71389 1.00815,-14.56419 2.64221,-1.65961 5.96531,-5.58094 7.38466,-8.71407 2.08664,-4.6061 4.173,-5.50962 10.89894,-4.71987 4.57507,0.5372 10.66245,-0.28507 13.52752,-1.82726 4.54007,-2.4438 5.70881,-1.83231 9.09844,4.76036 2.13908,4.16039 6.40509,8.05008 9.48003,8.64377 3.07494,0.59368 11.07691,2.02733 17.78216,3.18589 10.51907,1.81752 12.92441,3.39746 17.53536,11.51804 l 5.34398,9.41157 -6.7055,12.00428 c -5.51943,9.88096 -8.84265,12.78238 -18.78788,16.40327 -6.64531,2.41944 -12.25866,4.40355 -12.47411,4.40914 -0.21546,0.006 0.24349,-2.54084 1.01989,-5.65874 z m 77.23884,-39.05244 c -7.53746,-11.43594 -10.37823,-17.832 -8.67247,-19.52622 1.69636,-1.68486 3.60964,-1.05888 5.77553,1.88964 4.51772,6.15014 6.81097,5.49683 5.07825,-1.44671 -0.92129,-3.69192 -0.0363,-7.04532 2.39488,-9.07468 3.2557,-2.71758 4.31861,-2.19804 6.82577,3.33635 2.98956,6.59925 7.17549,8.85688 7.17549,3.87001 0,-1.47683 -1.02131,-4.6045 -2.26958,-6.95038 -1.6544,-3.10913 -0.6359,-6.17545 3.75758,-11.31266 l 6.02715,-7.04744 v 6.51835 c 0,3.62828 1.76239,7.19855 3.97493,8.05248 2.18621,0.84377 17.12257,-2.49443 33.19192,-7.41822 65.81209,-20.16541 111.50307,-25.84136 133.17659,-16.54379 l 8.76767,3.76118 -5.98226,3.23033 c -3.29024,1.77668 -16.09165,5.9514 -28.44757,9.27715 -12.35592,3.32575 -31.08208,9.54451 -41.61369,13.81946 -10.53162,4.27496 -29.29385,11.21408 -41.69385,15.42028 -12.4,4.20619 -23.67273,8.52471 -25.0505,9.5967 -1.37778,1.072 -10.9596,4.47374 -21.29293,7.55943 -10.33334,3.08569 -19.85879,6.59699 -21.16768,7.8029 -5.0426,4.64584 -9.12816,1.61285 -19.95523,-14.81416 z m 68.12845,-9.3149 c 1.74583,-1.75591 -6.52061,-8.17463 -12.66215,-9.8319 -3.20763,-0.86556 -5.80102,1.47509 -9.3191,8.4109 l -4.87463,9.61022 12.70955,-3.37207 c 6.99025,-1.85464 13.3561,-4.02236 14.14633,-4.81715 z m 19.61246,-13.00315 c 2.07708,-4.99984 3.39808,-9.47122 2.93557,-9.93641 -0.85892,-0.86387 -20.37467,3.01114 -26.81154,5.32366 -2.48791,0.89381 -0.97814,3.11405 5.0101,7.3678 11.63394,8.26415 14.45961,7.85151 18.86587,-2.75505 z m 18.56694,-0.0432 c 9.73115,-3.91611 9.98973,-4.30096 5.92507,-8.81829 -6.00005,-6.66825 -10.26497,-5.88105 -14.68205,2.70994 -6.09898,11.86222 -5.89478,12.00467 8.75698,6.10835 z m -252.51345,5.98442 c -1.41253,-1.73216 -7.67418,-13.9203 -13.91478,-27.08475 -13.14228,-27.72346 -13.94889,-25.66981 14.81229,-37.71224 28.92108,-12.10939 28.99813,-12.07504 40.7952,18.18602 5.53724,14.20375 9.19142,26.7165 8.1204,27.80611 -1.07102,1.08961 -6.02143,2.64606 -11.00091,3.45879 -8.6357,1.40947 -9.37647,0.94006 -16.04838,-10.16953 -3.84714,-6.40596 -7.84845,-11.6472 -8.89182,-11.6472 -2.7921,0 -2.30808,10.65968 0.90494,19.92974 2.47229,7.13296 2.12617,8.80763 -2.94172,14.23329 -6.53464,6.99596 -8.22672,7.42484 -11.83522,2.99977 z m 13.2275,-46.15655 c 0,-2.63701 -1.97273,-5.17666 -4.38384,-5.64368 -4.4087,-0.85394 -6.34664,6.78444 -2.66162,10.49073 2.95953,2.97662 7.04546,0.16563 7.04546,-4.84705 z m 99.86181,2.71182 c -0.86766,-2.27416 -0.37639,-5.34295 1.09172,-6.81953 3.81672,-3.83876 11.0483,-0.33028 10.05132,4.87649 -1.11049,5.79962 -9.13759,7.19933 -11.14304,1.94304 z m 62.96647,-38.28415 c 42.44923,-1.77476 120.92042,-1.87641 119.85926,-0.15526 -0.64077,1.0393 -31.8167,1.66435 -69.27983,1.38901 -37.46313,-0.27534 -60.22388,-0.83053 -50.57943,-1.23375 z m -265.22781,-101.19551 0.055,-10.70792 4.9996,11.08307 c 2.74978,6.09569 5.41319,10.63081 5.91869,10.07805 0.5055,-0.55276 3.30365,-5.52336 6.21811,-11.04576 l 5.29902,-10.04074 v 10.67062 c 0,8.99094 0.78865,10.67061 5.01011,10.67061 4.56475,0 5.0101,-1.67967 5.0101,-18.89634 0,-17.91933 -0.29142,-18.895854 -5.63637,-18.886898 -4.3363,0.0073 -6.72747,2.677672 -10.36687,11.577418 l -4.73052,11.56797 -4.98278,-11.57741 c -3.67897,-8.548019 -6.37406,-11.576938 -10.29979,-11.575574 -4.94649,0.0017 -5.31701,1.31856 -5.31701,18.896754 0,16.31562 0.59843,18.89484 4.38384,18.89449 5.18379,-4.8e-4 4.12928,-10.70834 4.43886,-10.70834 z m 45.03589,-4.40914 c 0,-11.75773 -0.83502,-15.117075 -3.75758,-15.117075 -2.92256,0 -3.75757,3.359345 -3.75757,15.117075 0,11.75772 0.83501,15.11707 3.75757,15.11707 2.92256,0 3.75758,-3.35935 3.75758,-15.11707 z m 15.0303,8.81829 c 0,-3.46433 1.15144,-6.29878 2.55876,-6.29878 1.40731,0 3.8428,2.83445 5.4122,6.29878 1.88807,4.16779 4.88422,6.29878 8.85602,6.29878 5.66904,0 5.78985,-0.30545 2.17428,-5.4972 -2.72926,-3.91907 -3.07441,-6.4108 -1.20227,-8.67961 1.44431,-1.75033 2.25766,-5.79583 1.80745,-8.99 -0.72604,-5.151173 -2.3758,-5.890859 -14.59634,-6.544397 l -13.77777,-0.736817 v 15.224014 c 0,12.81938 0.69242,15.22401 4.38383,15.22401 3.00606,0 4.38384,-1.97962 4.38384,-6.29878 z m 0,-14.2067 c 0,-1.19357 2.81818,-2.17013 6.26263,-2.17013 3.44444,0 6.26262,0.43472 6.26262,0.96604 0,0.53132 -2.81818,1.50788 -6.26262,2.17013 -3.44445,0.66224 -6.26263,0.22753 -6.26263,-0.96604 z m 33.17877,14.2067 c -0.83363,-4.38606 -0.0896,-6.29878 2.45033,-6.29878 2.00613,0 4.93156,2.83445 6.50096,6.29878 1.67383,3.69488 4.94681,6.29878 7.91725,6.29878 6.00396,0 6.5403,-3.18957 1.27534,-7.58432 -2.85914,-2.38657 -3.09888,-3.998 -0.9773,-6.56911 2.27085,-2.75199 3.85698,-1.84027 8.25227,4.74344 3.88316,5.81658 7.70704,8.37312 13.35485,8.92867 15.36309,1.51118 24.03535,-16.35477 13.21925,-27.23331 -6.74075,-6.779668 -16.45593,-6.353728 -23.81114,1.04394 -5.73183,5.76493 -6.12763,5.83079 -7.57009,1.25976 -1.25329,-3.971538 -3.9251,-4.823215 -15.13101,-4.823215 h -13.60897 v 15.117075 c 0,13.06198 0.63387,15.11707 4.66272,15.11707 3.62278,0 4.39571,-1.40483 3.46554,-6.29878 z m 32.98201,-4.71514 c -2.78485,-7.2991 0.0521,-12.92144 6.51999,-12.92144 5.25033,0 6.22832,1.18687 6.22832,7.55853 0,5.92474 -1.22074,7.73289 -5.64756,8.36513 -3.31214,0.47304 -6.2485,-0.76846 -7.10075,-3.00222 z m -32.36422,-11.62651 c 1.62687,-2.64752 10.00999,-2.1668 12.89983,0.73973 0.95402,0.95953 -1.90164,1.7446 -6.34591,1.7446 -4.67282,0 -7.43671,-1.04768 -6.55392,-2.48433 z m 68.91051,16.34165 c 0,-3.46433 1.15144,-6.29878 2.55876,-6.29878 1.40731,0 3.8428,2.83445 5.4122,6.29878 1.56939,3.46433 4.92704,6.29878 7.46144,6.29878 5.30355,0 5.57789,-1.02808 2.0457,-7.66614 -1.82655,-3.43264 -1.65197,-6.28147 0.60799,-9.92112 5.28937,-8.51852 -0.16695,-13.779516 -15.21278,-14.668188 L 293.5101,94.880565 v 16.508495 c 0,14.82883 0.50976,16.5085 5.0101,16.5085 3.67408,0 5.0101,-1.67967 5.0101,-6.29878 z m 0,-16.37683 c 0,-1.38573 2.81818,-2.51951 6.26263,-2.51951 3.44444,0 6.26263,1.13378 6.26263,2.51951 0,1.38573 -2.81819,2.51951 -6.26263,2.51951 -3.44445,0 -6.26263,-1.13378 -6.26263,-2.51951 z m 57.58876,10.16156 c 3.7865,-11.53944 6.66419,-11.13404 8.97684,1.26463 1.25814,6.74517 2.84638,8.72203 6.98592,8.69523 4.29725,-0.0278 6.28314,-2.89499 10.03423,-14.48719 7.75255,-23.958129 7.69708,-23.270814 1.87814,-23.270814 -3.34593,0 -5.33502,1.62681 -5.39104,4.409146 -0.0488,2.425031 -1.62976,7.208591 -3.51321,10.630128 l -3.42445,6.22097 -2.88799,-10.78709 c -2.36566,-8.836101 -3.84133,-10.644781 -8.15903,-10.000246 -2.89907,0.432766 -5.54841,2.487519 -5.88744,4.566116 -0.33903,2.078598 -1.73407,6.613716 -3.10009,10.07805 l -2.48367,6.29878 -2.76303,-7.09268 c -1.51967,-3.900973 -2.76303,-8.530062 -2.76303,-10.286867 0,-1.756805 -2.23158,-3.028836 -4.95907,-2.826737 -6.67735,0.494774 -8.80257,3.034364 -5.78919,6.917958 1.37002,1.765652 4.57152,9.162626 7.11446,16.437716 5.71922,16.36213 11.44684,17.50998 16.13165,3.2329 z m 73.57976,6.21527 c 0.79306,-2.0786 4.29548,-3.77927 7.78317,-3.77927 3.96663,0 6.34124,1.41523 6.34124,3.77927 0,2.79946 2.92256,3.77927 11.27273,3.77927 10.35421,0 11.27273,-0.51324 11.27273,-6.29878 0,-5.28483 1.18095,-6.29878 7.33622,-6.29878 4.03492,0 9.10764,-1.78166 11.27272,-3.95924 3.57865,-3.5993 3.93651,-3.37553 3.93651,2.46143 0,15.48291 24.36401,17.96178 32.51389,3.30807 3.41177,-6.13444 3.40885,-7.57242 -0.028,-13.77794 -5.08784,-9.186529 -22.93661,-11.395984 -27.87047,-3.450021 -3.107,5.003831 -3.12501,5.003881 -6.59871,0.01586 -2.84982,-4.092175 -5.83315,-4.864642 -16.40651,-4.248086 l -12.92332,0.753587 -0.10567,13.12376 c -0.0581,7.21807 -0.73912,13.76086 -1.51333,14.53955 -0.77421,0.77868 -4.45351,-5.41046 -8.17622,-13.75365 -3.7227,-8.343175 -8.33304,-15.169416 -10.24518,-15.169416 -1.91215,0 -6.58535,6.967126 -10.38488,15.482496 -3.79954,8.51538 -7.33851,14.18428 -7.86438,12.59756 -0.52587,-1.58671 -5.37128,-2.88494 -10.76758,-2.88494 -5.3963,0 -9.81145,-1.13378 -9.81145,-2.51951 0,-1.38573 2.81819,-2.51951 6.26263,-2.51951 8.6295,0 8.10393,-6.94329 -0.62626,-8.27344 -4.83695,-0.73697 -3.71771,-1.16205 3.75757,-1.42711 8.32501,-0.29519 10.64721,-1.33891 10.64988,-4.786643 0.003,-3.761572 -1.98958,-4.284198 -13.56634,-3.558417 l -13.56977,0.850729 -0.83769,14.900811 -0.83769,14.90081 19.14613,-0.005 c 14.70487,-0.004 19.4806,-0.88125 20.58804,-3.78386 z m 69.67762,-13.04221 c 0.64834,-5.69111 2.06295,-7.11389 7.07305,-7.11389 5.01011,0 6.26263,1.25976 6.26263,6.29878 0,5.03903 -1.41461,6.4618 -7.07305,7.11389 -6.43403,0.74146 -6.99983,0.17239 -6.26263,-6.29878 z m -63.97425,0.44465 c 0.79305,-2.0786 1.88495,-3.77927 2.42643,-3.77927 0.54148,0 0.98451,1.70067 0.98451,3.77927 0,2.0786 -1.09189,3.77927 -2.42643,3.77927 -1.33454,0 -1.77757,-1.70067 -0.98451,-3.77927 z m 30.9665,-6.29878 c 0,-1.38573 2.81818,-2.51951 6.26262,-2.51951 3.44445,0 6.26263,1.13378 6.26263,2.51951 0,1.38573 -2.81818,2.51951 -6.26263,2.51951 -3.44444,0 -6.26262,-1.13378 -6.26262,-2.51951 z m 69.15126,14.01173 c -0.59146,0 2.24411,-9.93579 9.36776,-1.42093 10.47841,12.52477 14.16785,10.23016 14.16785,-8.81153 0,-12.877509 -0.80291,-16.376832 -3.75758,-16.376832 -2.659,0 -3.77907,2.762296 -3.83101,9.448171 l -0.0734,9.448171 -7.40641,-8.18841 c -4.07352,-4.50363 -9.57672,-8.18842 -12.22932,-8.18842 -4.13052,0 -4.94476,2.17091 -5.67167,15.12166 -0.81109,14.45037 -0.58649,15.12146 5.05916,15.11708 5.01063,-0.004 4.5581,-6.14896 4.37465,-6.14896 z M 460.77022,527.9983 c 0.95869,-6.75846 8.28977,-8.90016 10.51361,-3.07145 2.11485,5.54302 -0.16983,8.71461 -6.27762,8.71461 -3.78445,0 -4.83749,-1.40285 -4.23599,-5.64316 z"
     id="path1"
     sodipodi:nodetypes="cccccccccccsccccccccsscccccccccccccccccccccccccccccccssccccccccscccccsccccccccscccccscsccccccsccccccccccccccccccccccccccscccccccccccccsccccccsccccccccccccccccccsccccccsccccccccccccccsccccccscccccscccssccccccscsccccccccccssssssssssssssssscssscsscsssssssssssssssssssssssssssssssssssssssscsscccssssscsscccccccssccssssscsssssssssssssssssssssssscsssscssssssscssscssssssscssssssssssssssssssscssssssssssssssssssssscssssssssssssssssssssssssssssssssssssssssssssssssssssssssssscsssssssssssssssscssssssssssssssssssssssssssssssssscscssssssssssscsscsssssssssscsssscssssssssssscssssssssssssssssssssssssssssssssssccssscssscscscssccssssssssssssscsssssssssssssssssssscssssssssssssssssssscssssssssssssssscsssscsssssscsssssssssssscssssssssssscsccccccsssssssssssssssssssscsssccsssss"
     inkscape:label="path1"
     style="display:inline" /><text
     transform="translate(-23.585787,-55.769552)"
     x="144.12617"
     y="663.52429"
     fill="#000000"
     font-size="29px"
     style="font-size:30.6667px;line-height:1.1;white-space:pre;inline-size:584.851;display:inline"
     xml:space="preserve"
     id="text9"><tspan
       x="144.12617"
       y="663.52429"
       id="tspan1"> Play as part of your Battle Plan. </tspan><tspan
       x="144.12617"
       y="697.25769"
       id="tspan2">Copies your opponent's weapon, if </tspan><tspan
       x="144.12617"
       y="730.99109"
       id="tspan3">they reveal one (and if their </tspan><tspan
       x="144.12617"
       y="764.72448"
       id="tspan4">Treachery Card counts as a weapon). </tspan><tspan
       x="144.12617"
       y="798.45788"
       id="tspan5">You must use your weapon first if </tspan><tspan
       x="144.12617"
       y="832.19128"
       id="tspan6">order matters (ei. Poison Tooth). </tspan><tspan
       x="144.12617"
       y="865.92468"
       id="tspan7">Discard after use. </tspan></text><text
     transform="translate(117.05112,192.71261)"
     fill="#000000"
     font-size="43px"
     style="font-size:40px;white-space:pre;shape-inside:url(#rect2);display:inline"
     xml:space="preserve"
     id="text10"><tspan
       x="0"
       y="0"
       id="tspan8">Special</tspan></text></svg>
