<?xml version="1.0" encoding="UTF-8"?>
<!-- Created with Inkscape (http://www.inkscape.org/) -->
<svg width="822" height="1122" version="1.1" viewBox="0 0 822 1122" xml:space="preserve" xmlns="http://www.w3.org/2000/svg"><path d="m89 1e3c-4.5-1.3-6.7-2.9-8.9-6.5l-2.2-3.5 0.053-461c0.029-254 0.072-465 0.096-469 0.042-7.1 0.16-7.4 4-12l3.9-4.2 320-0.26c237-0.19 321 0.035 323 0.87 1.5 0.62 4.1 2.7 5.7 4.5l3 3.4-2e-3 469c-2e-3 460-0.037 469-1.9 472-1.1 1.7-3.4 4-5.2 5.1-3.5 2.1-634 3.6-641 1.5zm44-8.3c0-4.6-0.35-5.9-1.8-6.4-5.7-1.9-13-6-18-9.5l-5.4-4-11 11c-15 15-16 14 16 14h21zm219 0.45 0.3-5.2-4.3-0.017c-2.4-0.01-51-0.012-108-0.01l-104 0.012-0.32 3.1c-0.18 1.7-0.085 4.1 0.21 5.3l0.53 2.1 215-0.15zm36 1.1c6-20 35-20 40 1 0.47 1.9 1.3 2.8 2.9 2.8 3.9 0.12 13 0.13 21 0.03l7.7-0.096 0.69-10h-19l-33-16-30 15h-22l-0.31 4.4c-0.51 7-1 6.8 16 6.6l15-0.2zm290-0.96-1e-5 -5.2-42-0.27c-23-0.15-71-0.15-108-6e-4l-66 0.27v4.9c0 6.2-13 5.5 110 5.5h105zm50 4.1c1.6-0.92 0.38-2.5-10-13l-12-12-2.5 2.3c-4.5 4.1-12 8.6-18 10l-5.3 1.7v5.2c0 4.7 0.24 5.3 2.2 5.6 5.8 0.83 43 0.18 45-0.77zm-304-1.7c-5-16-25-18-33-3.7-3.1 6-3.2 5.9 16 5.9h18zm309-3c1.7-4.3 0.77-47-0.97-47-0.99-0.021-3.4-0.28-5.5-0.57-3.5-0.51-3.7-0.38-4.9 3.3-2 6-5.9 13-9.6 18l-3.4 4.1 11 11c12 12 12 12 13 11zm-648-1.5c1-0.96 6.2-6 11-11l9.6-9.3-3.9-5.2c-4.2-5.6-8.4-14-9.4-18-0.6-2.5-1-2.7-6.1-2.7h-5.5l-0.029 10c-0.016 5.6-0.092 15-0.17 22-0.18 15 0.55 18 4 14zm307-15c8.3-4.1 15-7.5 16-7.5s7.3 3.4 16 7.5l15 7.5h245l8.3-4.2c11-5.4 19-14 25-25l3.8-7.7 0.51-804h-23l-1.2 6.7c-11 65-111 63-121-2.2l-0.68-4.5h-480l-0.016 74c-0.0088 41-0.015 221-0.014 400l0.0023 327 2.1 5.6c4.9 13 14 23 27 30l7.9 4h245zm-301-41c0.0089-3.4 0.022-192 0.03-419l0.014-412-11-0.58 0.2 417c0.11 230 0.22 418 0.25 419 0.037 1.4 0.97 1.8 5 1.8h5zm643-413 0.027-419h-11v838h11zm-84-328c31-6 52-43 42-74-19-61-110-49-113 14-2.1 39 31 67 71 60zm-57-83c28-43 94-24 94 28 0 34-31 54-58 50-30-2.9-58-37-36-78zm65 71c38-19 35-74-5.4-88-15-5-24-4.2-40 3.8-8.2 4-20 19-21 27-0.31 1.7-0.84 3.6-1.2 4.2-2.1 3.5-0.76 20 2.2 27 0.73 1.6 2.1 4.6 2.9 6.6 9.2 20 41 30 63 19zm-563-87c2-5.8 6.1-13 9.9-17l2.6-2.8-11-11c-14-13-14-13-14-0.13-0.0087 5.4-0.065 15-0.12 21-0.16 17-0.75 15 5.7 15l5.6-0.3zm640-18c-0.38-28 0.58-27-13-13l-12 12 2.6 2.8c3.3 3.6 8 12 9.6 17 1.8 5.7 1.6 5.5 7.6 5.5h5.5zm-310-11 15-7.5h20l0.35-5.1c0.44-6.5 1.9-5.9-15-5.9h-15l-1.5 3.8c-3.9 9.9-9.1 14-18 15-11 0.89-20-5.7-23-17-0.38-1.3-2.8-1.5-16-1.5l-15 0.05v10l23 1 14 7.2c17 8.7 13 8.8 31-0.2zm-310 2.5c2.9-2.2 8.3-5.2 12-6.7l6.8-2.7v-5.3c0-6.8 0.7-6.6-25-6.2-26 0.43-26 0.015-12 13 5.8 5.6 11 11 11 11 0.63 1.4 2.1 0.75 7.4-3.3zm614-19c-0.65-0.65-9.4-1-24-1h-23v11l5 1.7c5.5 1.9 12 5.7 17 9.6l3 2.5 11-11c7.7-7.7 11-11 10-12zm-314 13c5.1-2.6 11-9.3 11-13 0-0.3-7.9-0.54-18-0.54-19 0-19 0.02-16 4.8 4.3 8.3 15 12 23 8.6zm-62-3.4-0.24-10h-215l-0.1 3.5c-0.22 7.7-5.5 7 55 7.3 30 0.14 74 0.16 98 0.029s48-0.24 53-0.25zm281 0.02 45-0.021v-11l-106 0.037c-122 0.043-109-0.62-109 5.9l0.35 5c57 0.7 113 0.09 170 0.042zm-0.22 509c-0.17-0.17-116-0.4-258-0.51-238-0.18-258-0.32-261-1.9-3.8-2.1-6.9-5.4-9.2-10-1.7-3.4-1.8-12-2.1-161-0.22-135-0.051-158 1.2-162 1.6-5.2 6.5-11 11-13 2.4-1 60-1.2 288-0.82 157 0.26 287 0.7 289 0.98 3.9 0.59 9.8 5.5 12 10 1.5 2.9 1.6 18 1.4 164-0.14 88-0.62 162-1.1 163-1.3 3.4-6 8.6-9.5 11-2.8 1.5-6.9 1.7-32 1.7-16 0.01-29-0.12-30-0.3zm62-4.7c1.8-1.1 4.4-4.1 5.7-6.6l2.5-4.7 0.36-159c0.34-151 0.27-159-1.5-163-1-2.2-3.5-5.2-5.5-6.6l-3.7-2.5-60-0.18c-33-0.099-162-0.33-288-0.51l-228-0.33-3.8 2.5c-2.1 1.4-4.7 4.4-5.8 6.7-2.3 4.6-2.1-18-1.9 239 0.025 50 0.42 81 1.1 83 1.3 4.8 4.4 8.5 9.2 11 3.7 1.9 9.5 1.9 213 1.8 115-0.063 209 0.054 209 0.26 0.21 0.21 35 0.38 77 0.38 74 0 77-0.07 80-2zm-67-403c6.2-4.4 5.4-8.7-1.8-8.7-2.5 0-6.8-2-9.4-4.5-4.1-3.7-4.6-6.6-3.3-17 0.88-7 1.3-13 1-14s1.6-3.6 4.3-6.3c3.5-3.6 4.5-3.9 3.4-1-0.85 2.2 0.23 5.5 2.4 7.3 5.8 4.8 4.8 11-2.9 17-6.5 5.2-6.6 5.7-2.6 9.8 4 4.1 4.7 3.9 11-2.6 3.5-3.8 6.4-7.9 6.4-9.1 0-5.1 4.7-1.6 6.4 4.8 1.8 7 1.8 7 4.5 1.3 3.8-8.2 15-7.9 15 0.32 0 3.3-1.7 7.5-3.8 9.2-2.1 1.7-3.2 4.1-2.5 5.2s0.2 2.8-1.1 3.6c-1.3 0.82-3.1 0.33-4-1.1-2.3-3.7-6.4-3.2-6.4 0.84 0 1.9 2.6 4.7 5.7 6.2 4.8 2.3 3 2.8-11 2.9-16 0.16-16-0.023-11-3.8zm29-24c-2-2-3.1-0.81-4 4-1.2 6.2-0.94 6.4 2.7 2.7 2.9-2.9 3.3-4.8 1.3-6.8zm-34-15c0-4.4-4.5-2.1-5.9 3-1.1 4.3-0.72 4.7 2.2 2.2 2-1.7 3.6-4 3.6-5.2zm-511 444c-5.6-4.5-6-6.9-7.3-41-0.78-20-1.3-93-1.3-163l0.17-127 14-12 73 0.34c42 0.2 67 1.1 58 2.1-8.4 0.97-21 4.8-29 8.5s-14 6.7-15 6.7-3.7-3.5-5.9-7.7l-4-7.7-38 0.8c-34 0.7-39 1.4-44 5.6-5.2 4.8-5.2 5.6-5.2 165l2e-3 160 6.4 6.4 60 5.5 54-0.95 157-0.69 153 0.49-124 1.7c-68 0.92-162 1.8-210 2-81 0.33-86 0.079-91-4.5zm436-2c0 3.2 5.6-1.7 5.6-2.5 0-3.4-13-37-15-40-2-2.5-0.41-4.2 7-7.3 11-4.8 15-3.1 22 9.9 2.8 5.1 6.4 9.2 8.1 9.2 3.9 8e-3 3.9-2.1 0.14-16-2.7-10-2.5-12 1.6-16 8.4-9.3 12-6.4 26 21 7.4 15 13 27 12 28-0.56 0.57-7.2 3.9-15 7.5-14 6.3-14 6.4-4.9 6.3 4.8-0.084 11-1.1 14-2.2s6.2-1.1 7.6 0.062c1.4 1.2 12 2.5 23 3 11 0.48-6.6 0.94-39 1-32 0.09-53-4.1-53-0.93zm38-21c0-3.4-1.7-5-5-5s-5 1.7-5 5 1.7 5 5 5 5-1.7 5-5zm-334-6.7c-14-4.4-14-5.1 12-13 19-6 64-22 95-33 68-25 70-26 73-21 1.8 2.7 7.4 10 12 17 6.7 9.2 8.2 13 6.1 15-2.1 2.1-4.1 1.3-7.9-3.4l-5.1-6.3 1.4 8c1.7 9.9-3.9 13-9.2 5.1-4.5-6.7-9-3.5-4.8 3.3 2.5 4.1 2 5.9-3.1 11l-6.1 6.6-1.6-6.5c-2.1-8.3-9.5-8.6-29-1.3-7.6 2.9-30 9.1-50 14-40 9.5-63 11-84 4.4zm93-26c2.2-4.3 3.5-8.3 2.9-8.9-0.62-0.62-5.8 0.73-11 3l-10 4.1 5.6 4.7c7.5 6.3 8.6 6.1 13-2.9zm26 0.22 11-2.8-8.3-6.1c-11-8.2-14-7.7-19 2.6-4.6 11-4.6 12 0.75 10 2.4-0.7 9.3-2.6 15-4.1zm27-27c-1.6-1.6-23 5.6-24 8.1-0.44 1.3 2.9 4.2 7.4 6.4l8.2 4 4.6-8.7c2.5-4.8 4.2-9.2 3.7-9.7zm81 50c-1.7-1.9-3.1-4.7-3.1-6.3 0-2.5-13-25-22-39-23-35-27-43-29-58-1.2-7.7-0.37-12 3.5-18 4.9-8 15-12 12-4.7-0.73 1.9-2.1 8.6-3 15-3.1 21 7.7 32 27 29 6.5-1.2 8.8-0.49 11 3.5 1.7 2.8 2.5 7.8 1.6 11-0.93 3.7 1.8e-4 8.3 2.4 12 3.6 5.1 3.5 5.9-0.34 8.7-4 2.9-4 3.9 0.24 16 5.2 15 5.1 38-0.2 32zm52-34c-5.2-6.5-8.5-8-21-9.4-13-1.4-16-2.6-22-11l-7.4-9.3 8.1-13c6-9.2 11-14 19-17 5.8-2.2 11-4 12-4 4.6 0 0.98 8.7-7 17-4.8 5-8.8 9.5-8.8 10 0 0.54 2.5 4.3 5.5 8.4 6.2 8.5 9.3 9 20 3.7 8.7-4.1 36-14 39-14 1 0 3.6 5.6 5.9 12 4 12 4 13-2.2 19-3.5 3.5-6.3 7.4-6.3 8.8s-3.7 2.3-8.1 2c-4.5-0.23-11 0.38-14 1.3-5.1 1.4-7.5 0.32-13-6zm-19-34c-0.92-2.4-0.54-4.7 0.83-5.2 4.9-1.6 25-18 25-21 0-1.3 3.4-2.4 7.6-2.4 6.3 0 8.3-1.5 11-8.3 3.2-7.6 5-8.7 22-13 15-3.7 21-3.9 30-1.5l11 2.9-11 5.4c-8.3 4-12 7.5-14 14-2.5 7.9-4.2 8.8-39 21-20 6.9-37 13-39 13-1.6 0-3.6-2-4.5-4.4zm96-4.2c-11-5.8-10-26 1.6-31 15-6.8 24-2.3 24 12 0 16-13 26-25 19zm-133-18c-5.3-11-5.3-11-0.83-16 6.3-7 7.4-6.6 13 4.9 4.2 9.4 4.2 10 0.32 16-2.3 3.5-4.7 6.4-5.4 6.4-0.68 0-3.7-5.1-6.7-11zm51-5.3c0-3.5-1.7-7-3.9-7.8-3.6-1.4-15-21-13-22 0.44-0.45 3.7-1.5 7.3-2.4 6.1-1.5 6.8-0.75 12 15 6.4 20 6.5 21 1.7 22-2.7 1.1-3.8-0.28-3.8-4.8zm-33-7.8c-1.4-3.7-3.1-7.5-3.7-8.6-1.6-2.5 5.8-9.9 9.8-9.9 1.7 0 5 3.9 7.3 8.7 4 8.5 4 8.9-1.3 13-7.5 5.3-9.1 4.9-12-2.8zm47-4.3c-2.2-3.4-4.7-10-5.5-15-1.2-7.3-0.66-9.1 2.6-9.1 5.5 0 12 11 13 20 0.47 10-4.3 12-9.6 3.9zm-94-12c0.96-6.8 8.3-8.9 11-3.1 2.1 5.5-0.17 8.7-6.3 8.7-3.8 0-4.8-1.4-4.2-5.6zm-172-19c-9-10-11-26-2.5-26 3.3 0 7.8 8.2 12 22 2.1 7-4.2 9.6-9.4 3.9zm19-2.6c-4.7-9.1-11-31-9.1-33 2.9-4.8 6.3-2.6 6.3 4 0 4.2 1.6 7 4.6 7.8 4.9 1.3 14 17 12 21-2.7 4.3-11 4.7-14 0.53zm84-10c2-19-0.11-27-8.9-32-3.9-2-7.6-3.4-8.1-2.9-0.52 0.44-4.5 1.5-8.7 2.3-6.5 1.2-8.2 0.51-10-4.4-1.5-3.3-2.1-8.2-1.4-11s-0.55-7.9-2.8-11c-3.9-5.9-3.9-6.5 0.34-8.9 4.2-2.4 4.3-3.2 0.37-15-5.4-16-7.1-27-5.4-33 1.3-5.1 1.6-5.2 4.8-1 1.9 2.5 3.4 6 3.5 7.9 0.044 1.9 3 8.1 6.5 14 44 70 42 67 43 83 1.1 16-3.5 27-11 27-3 0-3.4-2.8-2.1-15zm-16 11c-1.7-0.62-3.1-3.3-3.1-6 0-3.5 1.8-4.8 6.3-4.8 3.6 0 6.3 1.4 6.3 3.5 0 4.5-5.4 8.8-9.4 7.3zm-52-12c-2.4-5-4-9.3-3.6-9.6 0.4-0.25 3.9-2.4 7.7-4.8 6.6-4.2 7-4.1 8.3 0.13 0.78 2.5 2.4 6.9 3.5 9.9 1.6 4 0.95 6.5-2.3 9.4-6.5 5.9-8.9 5-14-5.1zm-104 3.6-6.3-2.7 7.2-2.1c9.7-2.8 16-9 18-17 1.3-6 3.8-7.6 18-12 9.2-2.9 24-8.1 34-12 9.4-3.6 19-6.5 22-6.5 8.1 0 8 7-0.2 13-4.2 3.2-11 8.6-14 12s-8.6 6-11 5.5c-5-0.97-12 6.1-12 12 0 3.5-3.7 5.5-16 8.6-18 4.6-30 5-39 1.1zm496-81c0-72 1.3-81-4.7-81-42-1.4-102-2.6-148-1.1-11 0.46-19 0.13-19-0.74 0.97-0.86 38-1.7 83-2.5 78-1.4 81-1.8 86 3 4.7 4.7 4.9 8.8 4.9 82 0 42-0.56 77-1.3 77s-1.3-34-1.3-76zm-372 68c-5.3-7.5-4.9-15 0.91-21 4.6-4.2 5-4.1 8.5 1.5 5.9 9.4 7.4 17 4.1 21-4.3 5.2-9 4.5-14-1.9zm-135 1.2c-5.8-1.3-10-16-7.4-24 3.4-9.1 9-13 18-12 6.2 0.6 9.1 2.6 12 7.8 2.9 6.1 2.7 8.2-1.2 16-4.5 9.2-12 13-21 11zm103-14c0.78-3.1 4.6-9.4 8.5-14l7.1-8.3-5.5-7.5c-3-4.1-6.7-7.5-8.1-7.5-1.5 7e-3 -13 4-26 8.9s-24 8-25 6.9c-0.94-1.1-3.4-7.1-5.5-13-3.6-11-3.5-12 1-15 2.6-1.7 6-5.6 7.4-8.7 2.1-4.6 4.2-5.5 11-4.7 4.6 0.54 11-0.29 14-1.8 4.5-2.4 5.7-1.8 9.1 4.8 2.1 4.2 6.4 8.1 9.5 8.6 3.1 0.59 11 2 18 3.2 11 1.8 13 3.4 18 12l5.3 9.4-6.7 12c-5.5 9.9-8.8 13-19 16-6.6 2.4-12 4.4-12 4.4-0.22 6e-3 0.24-2.5 1-5.7zm77-39c-7.5-11-10-18-8.7-20 1.7-1.7 3.6-1.1 5.8 1.9 4.5 6.2 6.8 5.5 5.1-1.4-0.92-3.7-0.036-7 2.4-9.1 3.3-2.7 4.3-2.2 6.8 3.3 3 6.6 7.2 8.9 7.2 3.9 0-1.5-1-4.6-2.3-7-1.7-3.1-0.64-6.2 3.8-11l6-7v6.5c0 3.6 1.8 7.2 4 8.1 2.2 0.84 17-2.5 33-7.4 66-20 112-26 133-17l8.8 3.8-6 3.2c-3.3 1.8-16 6-28 9.3s-31 9.5-42 14c-11 4.3-29 11-42 15-12 4.2-24 8.5-25 9.6-1.4 1.1-11 4.5-21 7.6-10 3.1-20 6.6-21 7.8-5 4.6-9.1 1.6-20-15zm68-9.3c1.7-1.8-6.5-8.2-13-9.8-3.2-0.87-5.8 1.5-9.3 8.4l-4.9 9.6 13-3.4c7-1.9 13-4 14-4.8zm20-13c2.1-5 3.4-9.5 2.9-9.9-0.86-0.86-20 3-27 5.3-2.5 0.89-0.98 3.1 5 7.4 12 8.3 14 7.9 19-2.8zm19-0.043c9.7-3.9 10-4.3 5.9-8.8-6-6.7-10-5.9-15 2.7-6.1 12-5.9 12 8.8 6.1zm-253 6c-1.4-1.7-7.7-14-14-27-13-28-14-26 15-38 29-12 29-12 41 18 5.5 14 9.2 27 8.1 28s-6 2.6-11 3.5c-8.6 1.4-9.4 0.94-16-10-3.8-6.4-7.8-12-8.9-12-2.8 0-2.3 11 0.9 20 2.5 7.1 2.1 8.8-2.9 14-6.5 7-8.2 7.4-12 3zm13-46c0-2.6-2-5.2-4.4-5.6-4.4-0.85-6.3 6.8-2.7 10 3 3 7 0.17 7-4.8zm100 2.7c-0.87-2.3-0.38-5.3 1.1-6.8 3.8-3.8 11-0.33 10 4.9-1.1 5.8-9.1 7.2-11 1.9zm63-38c42-1.8 121-1.9 120-0.16-0.64 1-32 1.7-69 1.4s-60-0.83-51-1.2zm-265-101 0.055-11 5 11c2.7 6.1 5.4 11 5.9 10s3.3-5.5 6.2-11l5.3-10v11c0 9 0.79 11 5 11 4.6 0 5-1.7 5-19 0-18-0.29-19-5.6-19-4.3 0.0073-6.7 2.7-10 12l-4.7 12-5-12c-3.7-8.5-6.4-12-10-12-4.9 0.0017-5.3 1.3-5.3 19 0 16 0.6 19 4.4 19 5.2-4.8e-4 4.1-11 4.4-11zm45-4.4c0-12-0.84-15-3.8-15s-3.8 3.4-3.8 15c0 12 0.84 15 3.8 15s3.8-3.4 3.8-15zm15 8.8c0-3.5 1.2-6.3 2.6-6.3 1.4 0 3.8 2.8 5.4 6.3 1.9 4.2 4.9 6.3 8.9 6.3 5.7 0 5.8-0.31 2.2-5.5-2.7-3.9-3.1-6.4-1.2-8.7 1.4-1.8 2.3-5.8 1.8-9-0.73-5.2-2.4-5.9-15-6.5l-14-0.74v15c0 13 0.69 15 4.4 15 3 0 4.4-2 4.4-6.3zm0-14c0-1.2 2.8-2.2 6.3-2.2 3.4 0 6.3 0.43 6.3 0.97s-2.8 1.5-6.3 2.2c-3.4 0.66-6.3 0.23-6.3-0.97zm33 14c-0.83-4.4-0.09-6.3 2.5-6.3 2 0 4.9 2.8 6.5 6.3 1.7 3.7 4.9 6.3 7.9 6.3 6 0 6.5-3.2 1.3-7.6-2.9-2.4-3.1-4-0.98-6.6 2.3-2.8 3.9-1.8 8.3 4.7 3.9 5.8 7.7 8.4 13 8.9 15 1.5 24-16 13-27-6.7-6.8-16-6.4-24 1-5.7 5.8-6.1 5.8-7.6 1.3-1.3-4-3.9-4.8-15-4.8h-14v15c0 13 0.63 15 4.7 15 3.6 0 4.4-1.4 3.5-6.3zm33-4.7c-2.8-7.3 0.052-13 6.5-13 5.3 0 6.2 1.2 6.2 7.6 0 5.9-1.2 7.7-5.6 8.4-3.3 0.47-6.2-0.77-7.1-3zm-32-12c1.6-2.6 10-2.2 13 0.74 0.95 0.96-1.9 1.7-6.3 1.7-4.7 0-7.4-1-6.6-2.5zm69 16c0-3.5 1.2-6.3 2.6-6.3 1.4 0 3.8 2.8 5.4 6.3 1.6 3.5 4.9 6.3 7.5 6.3 5.3 0 5.6-1 2-7.7-1.8-3.4-1.7-6.3 0.61-9.9 5.3-8.5-0.17-14-15-15l-13-0.76v17c0 15 0.51 17 5 17 3.7 0 5-1.7 5-6.3zm0-16c0-1.4 2.8-2.5 6.3-2.5 3.4 0 6.3 1.1 6.3 2.5s-2.8 2.5-6.3 2.5c-3.4 0-6.3-1.1-6.3-2.5zm58 10c3.8-12 6.7-11 9 1.3 1.3 6.7 2.8 8.7 7 8.7 4.3-0.028 6.3-2.9 10-14 7.8-24 7.7-23 1.9-23-3.3 0-5.3 1.6-5.4 4.4-0.049 2.4-1.6 7.2-3.5 11l-3.4 6.2-2.9-11c-2.4-8.8-3.8-11-8.2-10-2.9 0.43-5.5 2.5-5.9 4.6-0.34 2.1-1.7 6.6-3.1 10l-2.5 6.3-2.8-7.1c-1.5-3.9-2.8-8.5-2.8-10s-2.2-3-5-2.8c-6.7 0.49-8.8 3-5.8 6.9 1.4 1.8 4.6 9.2 7.1 16 5.7 16 11 18 16 3.2zm74 6.2c0.79-2.1 4.3-3.8 7.8-3.8 4 0 6.3 1.4 6.3 3.8 0 2.8 2.9 3.8 11 3.8 10 0 11-0.51 11-6.3 0-5.3 1.2-6.3 7.3-6.3 4 0 9.1-1.8 11-4 3.6-3.6 3.9-3.4 3.9 2.5 0 15 24 18 33 3.3 3.4-6.1 3.4-7.6-0.028-14-5.1-9.2-23-11-28-3.5-3.1 5-3.1 5-6.6 0.016-2.8-4.1-5.8-4.9-16-4.2l-13 0.75-0.11 13c-0.058 7.2-0.74 14-1.5 15-0.77 0.78-4.5-5.4-8.2-14-3.7-8.3-8.3-15-10-15-1.9 0-6.6 7-10 15-3.8 8.5-7.3 14-7.9 13-0.53-1.6-5.4-2.9-11-2.9s-9.8-1.1-9.8-2.5 2.8-2.5 6.3-2.5c8.6 0 8.1-6.9-0.63-8.3-4.8-0.74-3.7-1.2 3.8-1.4 8.3-0.3 11-1.3 11-4.8 3e-3 -3.8-2-4.3-14-3.6l-14 0.85-1.7 30 19-5e-3c15-4e-3 19-0.88 21-3.8zm70-13c0.65-5.7 2.1-7.1 7.1-7.1 5 0 6.3 1.3 6.3 6.3 0 5-1.4 6.5-7.1 7.1-6.4 0.74-7 0.17-6.3-6.3zm-64 0.44c0.79-2.1 1.9-3.8 2.4-3.8s0.98 1.7 0.98 3.8-1.1 3.8-2.4 3.8-1.8-1.7-0.98-3.8zm31-6.3c0-1.4 2.8-2.5 6.3-2.5 3.4 0 6.3 1.1 6.3 2.5s-2.8 2.5-6.3 2.5c-3.4 0-6.3-1.1-6.3-2.5zm69 14c-0.59 0 2.2-9.9 9.4-1.4 10 13 14 10 14-8.8 0-13-0.8-16-3.8-16-2.7 0-3.8 2.8-3.8 9.4l-0.073 9.4-7.4-8.2c-4.1-4.5-9.6-8.2-12-8.2-4.1 0-4.9 2.2-5.7 15-0.81 14-0.59 15 5.1 15 5-4e-3 4.6-6.1 4.4-6.1zm-80 411c0.96-6.8 8.3-8.9 11-3.1 2.1 5.5-0.17 8.7-6.3 8.7-3.8 0-4.8-1.4-4.2-5.6z"/><text transform="translate(-24 -56)" x="144.12617" y="663.52429" fill="#000000" font-size="31px" style="inline-size:584.851;line-height:1.1;white-space:pre" xml:space="preserve"><tspan x="144.12617" y="663.52429"> Play as part of your Battle Plan. </tspan><tspan x="144.12617" y="697.25769">Copies your opponent's weapon, if </tspan><tspan x="144.12617" y="730.99109">they reveal one (and if their </tspan><tspan x="144.12617" y="764.72448">Treachery Card counts as a weapon). </tspan><tspan x="144.12617" y="798.45788">You must use your weapon first if </tspan><tspan x="144.12617" y="832.19128">order matters (ei. Poison Tooth). </tspan><tspan x="144.12617" y="865.92468">Discard after use. </tspan></text><text transform="translate(117 193)" fill="#000000" font-size="40px" style="shape-inside:url(#rect2);white-space:pre" xml:space="preserve"><tspan x="0" y="0">Special</tspan></text></svg>
