<?xml version="1.0" encoding="UTF-8" standalone="no"?>
<!-- Created with Inkscape (http://www.inkscape.org/) -->

<svg
   width="822"
   height="1122"
   version="1.1"
   viewBox="0 0 822 1122"
   xml:space="preserve"
   id="svg10"
   sodipodi:docname="Nullentropy Box (Full Res).svg"
   inkscape:version="1.4 (86a8ad7, 2024-10-11)"
   xmlns:inkscape="http://www.inkscape.org/namespaces/inkscape"
   xmlns:sodipodi="http://sodipodi.sourceforge.net/DTD/sodipodi-0.dtd"
   xmlns="http://www.w3.org/2000/svg"
   xmlns:svg="http://www.w3.org/2000/svg"><defs
     id="defs10" /><sodipodi:namedview
     id="namedview10"
     pagecolor="#ffffff"
     bordercolor="#000000"
     borderopacity="0.25"
     inkscape:showpageshadow="2"
     inkscape:pageopacity="0.0"
     inkscape:pagecheckerboard="0"
     inkscape:deskcolor="#d1d1d1"
     inkscape:zoom="1"
     inkscape:cx="337"
     inkscape:cy="479"
     inkscape:window-width="1742"
     inkscape:window-height="1360"
     inkscape:window-x="1882"
     inkscape:window-y="325"
     inkscape:window-maximized="0"
     inkscape:current-layer="svg10" /><path
     d="m 89,1000 c -4.5,-1.3 -6.7,-2.9 -8.9,-6.5 L 77.9,990 77.953,529 c 0.029,-254 0.072,-465 0.096,-469 0.042,-7.1 0.16,-7.4 4,-12 l 3.9,-4.2 320,-0.26 c 237,-0.19 321,0.035 323,0.87 1.5,0.62 4.1,2.7 5.7,4.5 l 3,3.4 -0.002,469 c -0.002,460 -0.037,469 -1.9,472 -1.1,1.7 -3.4,4 -5.2,5.1 -3.5,2.1 -634,3.6 -641,1.5 z m 44,-8.3 c 0,-4.6 -0.35,-5.9 -1.8,-6.4 -5.7,-1.9 -13,-6 -18,-9.5 l -5.4,-4 -11,11 c -15,15 -16,14 16,14 h 21 z m 219,0.45 0.3,-5.2 -4.3,-0.017 c -2.4,-0.01 -51,-0.012 -108,-0.01 l -104,0.012 -0.32,3.1 c -0.18,1.7 -0.085,4.1 0.21,5.3 l 0.53,2.1 215,-0.15 z m 36,1.1 c 6,-20 35,-20 40,1 0.47,1.9 1.3,2.8 2.9,2.8 3.9,0.12 13,0.13 21,0.03 l 7.7,-0.096 0.69,-10 h -19 l -33,-16 -30,15 h -22 l -0.31,4.4 c -0.51,7 -1,6.8 16,6.6 l 15,-0.2 z m 290,-0.96 -10e-6,-5.2 -42,-0.27 c -23,-0.15 -71,-0.15 -108,-6e-4 l -66,0.27 v 4.9 c 0,6.2 -13,5.5 110,5.5 h 105 z m 50,4.1 c 1.6,-0.92 0.38,-2.5 -10,-13 l -12,-12 -2.5,2.3 c -4.5,4.1 -12,8.6 -18,10 l -5.3,1.7 v 5.2 c 0,4.7 0.24,5.3 2.2,5.6 5.8,0.83 43,0.18 45,-0.77 z m -304,-1.7 c -5,-16 -25,-18 -33,-3.7 -3.1,6 -3.2,5.9 16,5.9 h 18 z m 309,-3 c 1.7,-4.3 0.77,-47 -0.97,-47 -0.99,-0.021 -3.4,-0.28 -5.5,-0.57 -3.5,-0.51 -3.7,-0.38 -4.9,3.3 -2,6 -5.9,13 -9.6,18 l -3.4,4.1 11,11 c 12,12 12,12 13,11 z m -648,-1.5 c 1,-0.96 6.2,-6 11,-11 l 9.6,-9.3 -3.9,-5.2 c -4.2,-5.6 -8.4,-14 -9.4,-18 -0.6,-2.5 -1,-2.7 -6.1,-2.7 h -5.5 l -0.029,10 c -0.016,5.6 -0.092,15 -0.17,22 -0.18,15 0.55,18 4,14 z m 307,-15 c 8.3,-4.1 15,-7.5 16,-7.5 1,0 7.3,3.4 16,7.5 l 15,7.5 h 245 l 8.3,-4.2 c 11,-5.4 19,-14 25,-25 l 3.8,-7.7 0.51,-804 h -23 l -1.2,6.7 c -11,65 -111,63 -121,-2.2 l -0.68,-4.5 h -480 l -0.016,74 c -0.0088,41 -0.015,221 -0.014,400 l 0.0023,327 2.1,5.6 c 4.9,13 14,23 27,30 l 7.9,4 h 245 z m -301,-41 c 0.0089,-3.4 0.022,-192 0.03,-419 l 0.014,-412 -11,-0.58 0.2,417 c 0.11,230 0.22,418 0.25,419 0.037,1.4 0.97,1.8 5,1.8 h 5 z m 643,-413 0.027,-419 h -11 v 838 h 11 z m -84,-328 c 31,-6 52,-43 42,-74 -19,-61 -110,-49 -113,14 -2.1,39 31,67 71,60 z m -57,-83.3 c 28,-43 94,-24 94,28 0,34 -30.8498,54.43084 -57.92096,49.64032 C 599.52799,184.64147 571.37318,150.5744 593,109.89 Z m 65,70.7 c 38,-19 35,-74 -5.4,-88 -15,-5 -24,-4.2 -40,3.8 -8.2,4 -20,19 -21,27 -0.31,1.7 -0.84,3.6 -1.2,4.2 -2.1,3.5 -0.76,20 2.2,27 0.73,1.6 2.1,4.6 2.9,6.6 9.2,20 41,30 63,19 z m -563,-87 c 2,-5.8 6.1,-13 9.9,-17 l 2.6,-2.8 -11,-11 c -14,-13 -14,-13 -14,-0.13 -0.0087,5.4 -0.065,15 -0.12,21 -0.16,17 -0.75,15 5.7,15 l 5.6,-0.3 z m 640,-18 c -0.38,-28 0.58,-27 -13,-13 l -12,12 2.6,2.8 c 3.3,3.6 8,12 9.6,17 1.8,5.7 1.6,5.5 7.6,5.5 h 5.5 z m -310,-11 15,-7.5 h 20 l 0.35,-5.1 c 0.44,-6.5 1.9,-5.9 -15,-5.9 h -15 l -1.5,3.8 c -3.9,9.9 -9.1,14 -18,15 -11,0.89 -20,-5.7 -23,-17 -0.38,-1.3 -2.8,-1.5 -16,-1.5 l -15,0.05 v 10 l 23,1 14,7.2 c 17,8.7 13,8.8 31,-0.2 z m -310,2.5 c 2.9,-2.2 8.3,-5.2 12,-6.7 l 6.8,-2.7 v -5.3 c 0,-6.8 0.7,-6.6 -25,-6.2 -26,0.43 -26,0.015 -12,13 5.8,5.6 11,11 11,11 0.63,1.4 2.1,0.75 7.4,-3.3 z m 614,-19 c -0.65,-0.65 -9.4,-1 -24,-1 h -23 v 11 l 5,1.7 c 5.5,1.9 12,5.7 17,9.6 l 3,2.5 11,-11 c 7.7,-7.7 11,-11 10,-12 z m -314,13 c 5.1,-2.6 11,-9.3 11,-13 0,-0.3 -7.9,-0.54 -18,-0.54 -19,0 -19,0.02 -16,4.8 4.3,8.3 15,12 23,8.6 z m -62.4,-3.42 -0.24,-10 h -215 l -0.1,3.5 c -0.22,7.7 -5.5,7 55,7.3 30,0.14 74,0.16 98,0.029 24,-0.131 48,-0.24 53,-0.25 z m 281.4,0.02033 45,-0.021 v -11 l -106,0.037 c -122,0.043 -109,-0.62 -109,5.9 l 0.35,5 c 57,0.7 113,0.09 170,0.042 z m -0.21592,508.68834 c -0.17444,-0.17439 -116.2245,-0.40341 -257.88904,-0.50892 -237.54693,-0.17694 -257.80899,-0.32281 -260.62181,-1.87636 -3.81826,-2.10887 -6.86313,-5.42671 -9.19621,-10.02064 -1.70803,-3.3632 -1.8238,-12.38599 -2.06992,-161.32756 -0.22351,-135.26344 -0.0511,-158.43101 1.20864,-162.43392 1.64118,-5.21485 6.46105,-10.74413 11.06411,-12.69256 2.43472,-1.0306 59.81365,-1.19389 288.21845,-0.8202 156.84819,0.25661 286.67516,0.69631 288.50437,0.9771 3.87609,0.59499 9.79241,5.45453 12.14572,9.97623 1.49573,2.87394 1.62085,17.55983 1.39602,163.85759 -0.13584,88.38539 -0.62481,161.69565 -1.0866,162.91169 -1.28938,3.39531 -6.0107,8.59311 -9.54805,10.51164 -2.78096,1.5083 -6.88538,1.72866 -32.49576,1.74466 -16.12202,0.0101 -29.45548,-0.12436 -29.62992,-0.29875 z m 62.18448,-4.70028 c 1.78298,-1.0801 4.36728,-4.05728 5.74287,-6.61595 l 2.50108,-4.65213 0.35699,-158.81492 c 0.3394,-150.98936 0.26712,-159.01451 -1.46689,-162.86534 -1.00314,-2.22772 -3.48568,-5.19052 -5.51677,-6.58399 l -3.69288,-2.53357 -59.54842,-0.18008 c -32.75163,-0.099 -162.28714,-0.32806 -287.85669,-0.50892 l -228.30826,-0.32884 -3.75571,2.5446 c -2.06564,1.39953 -4.6725,4.42459 -5.79302,6.72237 -2.25532,4.62481 -2.06908,-18.31582 -1.94091,239.08585 0.0248,49.80204 0.42026,80.83423 1.06106,83.26252 1.26765,4.8037 4.35343,8.46791 9.24646,10.97971 3.65444,1.87598 9.49252,1.92575 212.77971,1.81371 114.9622,-0.0634 209.19324,0.0545 209.40231,0.26181 0.20907,0.20735 34.84274,0.377 76.96371,0.377 73.85165,0 76.69921,-0.07 79.82536,-1.96383 z M 629.41249,158.76421 c 6.24771,-4.38015 5.35902,-8.73936 -1.78165,-8.73936 -2.50209,0 -6.75289,-2.00556 -9.44621,-4.45681 -4.08029,-3.71355 -4.62985,-6.58038 -3.29531,-17.19054 0.88089,-7.00356 1.33829,-13.30675 1.01644,-14.00711 -0.32185,-0.70036 1.62704,-3.55189 4.33088,-6.33675 3.46945,-3.57342 4.4627,-3.88084 3.37539,-1.04472 -0.84736,2.21027 0.22889,5.48865 2.39168,7.28528 5.81827,4.83324 4.7972,10.67497 -2.94607,16.855 -6.46396,5.15899 -6.61874,5.74971 -2.56873,9.8035 4.05,4.05378 4.69444,3.89816 10.69498,-2.58257 3.51191,-3.79295 6.38529,-7.87496 6.38529,-9.07114 0,-5.13252 4.69407,-1.57613 6.37338,4.82869 1.83084,6.98276 1.84415,6.98654 4.4812,1.27337 3.76359,-8.15378 14.58914,-7.91273 14.58914,0.32486 0,3.33026 -1.70485,7.47124 -3.78854,9.20217 -2.0837,1.73094 -3.20999,4.08415 -2.50287,5.22936 0.70712,1.14521 0.20114,2.75311 -1.12439,3.5731 -1.32554,0.81999 -3.12924,0.32616 -4.00822,-1.0974 -2.3004,-3.7256 -6.38658,-3.18646 -6.38658,0.84265 0,1.88702 2.57617,4.67455 5.72483,6.19451 4.77418,2.30464 2.99011,2.79218 -10.74362,2.93592 -15.66264,0.16393 -16.18968,-0.0231 -10.77102,-3.82201 z m 29.36939,-24.18001 c -1.95807,-1.9599 -3.11069,-0.80621 -4.03624,4.04001 -1.1829,6.1937 -0.94467,6.43215 2.74074,2.7433 2.88362,-2.88632 3.25358,-4.82341 1.2955,-6.78331 z m -33.93456,-15.43215 c 0,-4.43371 -4.52664,-2.1147 -5.864,3.00413 -1.12312,4.29883 -0.71976,4.69991 2.24762,2.23491 1.98901,-1.65227 3.61638,-4.00984 3.61638,-5.23904 z m -484.8554,-8.76274 0.77339,-11.911189 8.88095,11.832589 c 12.70555,16.92832 15.22449,15.75787 15.22449,-7.07426 0,-15.251228 -0.76123,-19.064036 -3.80612,-19.064036 -2.82368,0 -3.80613,2.975345 -3.80613,11.526871 v 11.526875 l -7.61224,-8.6851 c -4.18673,-4.776808 -7.61225,-9.963895 -7.61225,-11.526872 0,-1.562976 -2.28367,-2.841774 -5.07483,-2.841774 -4.62373,0 -5.07483,1.694581 -5.07483,19.064036 0,14.93001 0.79521,19.06404 3.6671,19.06404 2.56611,0 3.89928,-3.57613 4.44047,-11.91118 z m 53.87786,7.91681 c 5.39175,-5.40123 5.53607,-26.50809 0.18124,-26.50809 -2.82793,0 -3.80612,2.98516 -3.80612,11.61521 0,10.5915 -0.50319,11.54363 -5.70919,10.80296 -4.74604,-0.67523 -5.84081,-2.63472 -6.48943,-11.61521 -1.06068,-14.685611 -6.96566,-14.417068 -7.7288,0.35148 -0.6542,12.66042 4.04103,19.34802 13.58388,19.34802 3.28958,0 7.77536,-1.79746 9.96842,-3.99437 z m 31.89893,-1.08937 c 0,-1.39803 -3.7192,-2.54187 -8.26489,-2.54187 -8.23834,0 -8.26196,-0.0367 -7.35674,-11.43843 0.72817,-9.171595 0.10322,-11.43842 -3.15348,-11.43842 -3.23157,0 -4.06163,2.857081 -4.06163,13.9803 v 13.98029 h 11.41837 c 6.2801,0 11.41837,-1.14384 11.41837,-2.54187 z m 25.37415,0 c 0,-1.39803 -3.36295,-2.54187 -7.47322,-2.54187 -7.11526,0 -7.51026,-0.57832 -8.2466,-12.07389 -1.05013,-16.394419 -5.66712,-14.195242 -6.60919,3.1481 l -0.76098,14.00953 h 11.54499 c 6.34975,0 11.545,-1.14384 11.545,-2.54187 z m 27.91156,0 c 0,-1.39803 -3.99643,-2.54187 -8.88095,-2.54187 -6.20257,0 -8.88095,-1.1499 -8.88095,-3.81281 0,-2.37241 2.39644,-3.81281 6.34353,-3.81281 3.48895,0 6.34354,-1.14384 6.34354,-2.54187 0,-1.39803 -2.85459,-2.54187 -6.34354,-2.54187 -3.48894,0 -6.34353,-1.14385 -6.34353,-2.541875 0,-1.398029 3.99643,-2.541872 8.88095,-2.541872 6.27782,0 8.88095,-1.139307 8.88095,-3.886915 0,-3.086659 -2.48147,-3.675357 -12.05272,-2.859359 l -12.05272,1.027556 -0.76098,14.297785 -0.76098,14.29778 h 12.8137 c 7.04754,0 12.8137,-1.14384 12.8137,-2.54187 z m 10.25529,-6.99015 0.10562,-9.53202 8.40988,9.53202 c 11.79896,13.37331 14.21561,12.36504 14.21561,-5.93103 0,-11.241776 -0.86587,-15.173392 -3.17177,-14.401977 -1.91955,0.642163 -2.88294,4.489066 -2.4402,9.743843 l 0.73157,8.682764 -9.01232,-9.532023 c -4.95677,-5.242608 -10.13879,-9.532019 -11.51558,-9.532019 -1.3768,0 -2.50327,6.863054 -2.50327,15.251232 0,8.47291 1.12774,15.25123 2.53742,15.25123 1.39557,0 2.58495,-4.28941 2.64304,-9.53202 z m 43.03043,-1.9064 c 0,-8.472909 0.98677,-11.438427 3.80612,-11.438427 2.09337,0 3.80612,-1.715763 3.80612,-3.812807 0,-2.880789 -3.10128,-3.812808 -12.68707,-3.812808 -9.58579,0 -12.68708,0.932019 -12.68708,3.812808 0,2.179147 2.28387,3.812807 5.33033,3.812807 4.76036,0 5.23323,1.223111 4.42219,11.438427 -0.75917,9.56217 -0.17676,11.43842 3.55063,11.43842 3.59284,0 4.45876,-2.2214 4.45876,-11.43842 z m 17.7619,5.08374 c 0,-3.49507 1.11551,-6.35468 2.47892,-6.35468 1.36341,0 4.34932,2.85961 6.63537,6.35468 2.28604,3.49507 5.73787,6.35468 7.67074,6.35468 4.32253,0 4.52405,-3.05547 0.46939,-7.11724 -2.36825,-2.37241 -2.36825,-3.72808 0,-6.10049 1.6747,-1.67764 3.0449,-5.65929 3.0449,-8.848127 0,-6.415361 -7.15109,-9.426383 -18.99886,-7.999611 -6.57165,0.791393 -6.9511,1.579656 -7.43718,15.449708 -0.37208,10.61716 0.3973,14.61576 2.81225,14.61576 1.85449,0 3.32447,-2.80985 3.32447,-6.35468 z m 0,-13.980295 c 0,-1.398029 2.85459,-2.541872 6.34354,-2.541872 3.48894,0 6.34354,1.143843 6.34354,2.541872 0,1.398025 -2.8546,2.541875 -6.34354,2.541875 -3.48895,0 -6.34354,-1.14385 -6.34354,-2.541875 z m 48.64544,16.128205 c 5.77773,-5.23795 5.9869,-15.50823 0.44088,-21.647268 -8.71316,-9.644846 -26.24958,-2.85654 -26.24958,10.161148 0,13.59649 15.74934,20.60571 25.8087,11.48612 z m -15.24669,-3.10976 c -1.86658,-1.18522 -3.00842,-4.88519 -2.53742,-8.22216 0.62982,-4.462241 2.70224,-6.279986 7.83425,-6.871526 6.22121,-0.717087 6.97789,0.01143 6.97789,6.718196 0,4.51468 -1.60483,8.13941 -4.01365,9.06539 -4.85303,1.86555 -4.14318,1.92484 -8.26107,-0.6899 z m 32.38463,4.13919 c -0.95571,-7.37273 0.62672,-9.25222 8.42491,-10.00644 6.89819,-0.66717 8.46311,-2.03479 9.63717,-8.422131 l 1.40167,-7.625615 4.31861,8.134854 c 2.37524,4.474172 4.31861,11.051262 4.31861,14.615762 0,4.06623 1.4181,6.48091 3.80613,6.48091 2.44684,0 3.82627,-2.49638 3.86254,-6.99015 0.031,-3.84458 2.28932,-9.84975 5.01841,-13.344825 6.24741,-8.000881 6.31047,-10.167487 0.29594,-10.167487 -2.75918,0 -5.49934,2.417119 -6.48358,5.719211 l -1.7047,5.719211 -2.6163,-5.340211 c -2.25071,-4.593992 -5.03662,-5.384986 -19.93685,-5.660626 l -17.32054,-0.320413 -0.85678,15.19728 c -0.74648,13.24079 -0.2708,15.19668 3.69493,15.19264 2.50344,-0.003 4.36636,-1.43443 4.13983,-3.18197 z m 0.18941,-18.428571 c 0,-4.099845 2.32418,-4.710633 8.65885,-2.275522 5.16437,1.985235 2.64808,6.088333 -3.73377,6.088333 -2.70879,0 -4.92508,-1.71577 -4.92508,-3.812811 z m 89.89699,17.611541 c 4.33754,-4.34516 5.2297,-10.18768 1.87301,-12.26587 -1.16289,-0.71997 -1.62405,-4.655467 -1.02481,-8.745551 1.33757,-9.129485 -1.14979,-10.80409 -17.03362,-11.467793 l -12.45227,-0.520316 -0.81503,18.50287 -0.81502,18.50286 13.14019,-0.006 c 8.55586,-0.004 14.53128,-1.39947 17.12755,-4.00029 z m -21.38679,-7.44405 c 0,-3.13383 1.99654,-3.94207 8.2466,-3.33839 4.53563,0.43808 8.2466,1.94036 8.2466,3.33839 0,1.39803 -3.71097,2.9003 -8.2466,3.33839 -6.25006,0.60367 -8.2466,-0.20456 -8.2466,-3.33839 z m 0,-15.251234 c 0,-2.541872 2.53742,-3.812808 7.61225,-3.812808 5.07483,0 7.61224,1.270936 7.61224,3.812808 0,2.541871 -2.53741,3.812807 -7.61224,3.812807 -5.07483,0 -7.61225,-1.270936 -7.61225,-3.812807 z m 52.72113,22.732714 c 10.84102,-7.60668 4.50814,-26.545522 -8.87645,-26.545522 -11.00514,0 -15.93311,4.461516 -15.93311,14.424972 0,14.51616 12.61317,20.67824 24.80956,12.12055 z m -17.19732,-10.8535 c 0,-8.457924 6.14862,-12.447597 11.86243,-7.697221 5.96517,4.959351 3.07182,13.498331 -4.88454,14.415411 -6.22121,0.71709 -6.97789,-0.0114 -6.97789,-6.71819 z m 32.9864,10.99763 c 0,-2.09704 1.17767,-3.81281 2.61705,-3.81281 1.43938,0 3.2743,1.71577 4.0776,3.81281 1.36781,3.57072 11.06725,5.59289 11.06725,2.30733 0,-0.82801 -2.26455,-4.38943 -5.03233,-7.91428 -5.02645,-6.40132 -5.02617,-6.41663 0.24208,-13.110286 4.70419,-5.976985 4.81604,-6.794326 1.03461,-7.560292 -2.33189,-0.472346 -5.68269,1.117937 -7.44624,3.533962 -2.93544,4.021504 -3.34143,4.040381 -4.80359,0.223344 -0.87844,-2.293187 -3.94299,-4.16943 -6.81012,-4.16943 -4.99968,0 -5.04012,0.264255 -0.98841,6.458805 3.66857,5.608787 3.77047,7.365047 0.77427,13.344827 -1.89766,3.78731 -3.86754,7.7439 -4.37751,8.79243 -0.50997,1.04852 1.4516,1.9064 4.35906,1.9064 3.0073,0 5.28628,-1.64374 5.28628,-3.81281 z M 382.32926,512.39099 c -7.03174,-4.1273 -7.56573,-5.42118 -6.70594,-16.25073 0.89717,-11.30023 1.19969,-11.6997 7.63493,-10.08172 3.6854,0.9266 7.04938,2.03399 7.4755,2.46086 0.42612,0.42687 0.42846,6.98157 0.005,14.566 l -0.76956,13.78987 z m 13.98367,-7.11782 c 0,-13.4896 0.23264,-13.84274 10.78401,-16.36918 6.82441,-1.63405 6.97789,-1.41958 6.97789,9.75078 0,10.07703 -0.88128,11.8781 -7.48624,15.29966 -4.11743,2.13294 -8.11386,3.87808 -8.88095,3.87808 -0.76709,0 -1.39471,-5.6517 -1.39471,-12.55934 z m 20.29931,-9.26999 v -11.66185 l -10.78401,1.75597 c -6.78513,1.10483 -9.8431,0.86746 -8.2466,-0.64011 3.43914,-3.24758 18.92174,-9.25098 20.29924,-7.87106 0.60825,0.60931 1.87068,7.62633 2.80541,15.59337 1.18835,10.12876 0.83126,14.48552 -1.18727,14.48552 -1.73794,0 -2.88677,-4.64099 -2.88677,-11.66184 z m -48.03254,-5.49579 c -0.10486,-9.34154 0.90063,-15.8867 2.44057,-15.8867 1.44041,0 6.75399,1.73078 11.80797,3.84617 10.20154,4.26997 10.32949,7.89303 0.14172,4.01285 -7.64725,-2.91259 -9.43402,-1.58612 -9.67211,7.18039 -0.0981,3.61157 -1.15967,8.85419 -2.35907,11.65024 -1.54147,3.59348 -2.23301,0.42667 -2.35908,-10.80295 z m -29.99297,1.4801 -20.93367,-9.97905 v -22.75791 c 0,-17.75784 0.77659,-22.75792 3.53465,-22.75792 4.52017,0 6.61501,-5.56638 6.61501,-17.57735 0,-5.24477 0.69123,-10.2284 1.53608,-11.07472 0.84484,-0.84633 8.55223,1.73914 17.12755,5.74549 8.57531,4.00634 21.30066,9.45153 28.27855,12.1004 l 12.68707,4.81613 0.73201,21.98082 0.732,21.98083 -10.56633,-3.73457 c -5.81148,-2.05401 -11.45639,-3.73457 -12.54423,-3.73457 -1.08785,0 -2.94251,7.86858 -4.12146,17.48573 l -2.14355,17.48573 z m 88.17517,-1.01174 c -6.38304,0 -1.23565,-13.91843 -2.7459,-16.74531 -2.6992,-5.05237 -6.70739,-5.18598 -18.58639,-0.61957 -3.51448,1.351 -4.04185,-1.45502 -4.04185,-21.50564 0,-20.44413 0.57452,-23.36739 5.06577,-25.77525 11.84367,-6.34967 53.11885,-22.21065 54.41641,-20.9108 0.77867,0.78004 1.40223,19.24314 1.38567,41.0291 l -0.0301,39.61083 -15.01482,8.26109 c -8.25815,4.5436 -16.23745,8.26108 -17.73179,8.26108 -1.53432,0 3.83679,-11.60553 -2.71699,-11.60553 z m 40.59864,-48.99781 v -40.26837 l 18.39626,-6.91926 c 10.11794,-3.80559 22.10723,-8.54316 26.64286,-10.52794 l 8.2466,-3.60869 v 19.02291 c 0,14.37947 -0.84554,19.02292 -3.46393,19.02292 -1.90516,0 -6.5461,2.42869 -10.31319,5.39709 -6.27045,4.941 -6.80097,6.7315 -6.27782,21.18746 0.3143,8.6847 -0.20716,17.0524 -1.15879,18.59487 -1.74727,2.83211 -27.52562,18.36738 -30.4778,18.36738 -0.8768,0 -1.59419,-18.12077 -1.59419,-40.26837 z m -168.06958,29.56242 c -9.43029,-5.47589 -9.4729,-5.57569 -7.94407,-18.60649 1.91079,-16.28647 -0.90964,-21.83428 -14.13829,-27.81004 l -10.30384,-4.65454 v -19.94893 c 0,-10.97191 1.07858,-19.94893 2.39684,-19.94893 1.31826,0 11.06062,3.95515 21.64967,8.78921 l 19.25284,8.78921 -1.66547,16.2844 c -1.12322,10.98245 -0.73672,16.85941 1.18707,18.05046 3.18596,1.9725 4.09551,44.71599 0.94946,44.61946 -1.04668,-0.0321 -6.16958,-2.53582 -11.38421,-5.56381 z m -16.7432,-18.52558 c -0.56565,-11.59015 -1.76687,-13.86101 -10.49841,-19.84685 -4.44979,-3.05052 -5.08479,-4.30093 -2.18416,-4.30093 2.24928,0 6.57346,2.01483 9.60929,4.47741 4.63337,3.75847 5.36311,6.51352 4.54459,17.15764 -0.89436,11.63046 -1.01617,11.83848 -1.47131,2.51273 z m -11.20252,3.53102 c -5.80952,-3.28739 -6.2733,-20.05319 -0.55472,-20.05319 4.90169,0 6.84931,4.9807 5.80833,14.85377 -0.68761,6.5216 -1.49861,7.32423 -5.25361,5.19942 z m 236.6528,-11.3841 c -0.0353,-14.06183 0.54181,-15.74372 6.30468,-18.37407 6.99653,-3.19344 8.51088,-1.356 2.53026,3.07008 -2.19617,1.62532 -3.98467,7.35296 -4.21744,13.50627 -0.65909,17.4231 -4.57445,18.94746 -4.6175,1.79772 z m 7.57339,-0.89346 c 0,-7.07266 1.14184,-12.85937 2.53741,-12.85937 1.39558,0 2.53742,5.07978 2.53742,11.28841 0,6.20862 -1.14184,11.99534 -2.53742,12.85937 -1.56389,0.96824 -2.53741,-3.36277 -2.53741,-11.28841 z M 316.80726,427.17241 c -0.93039,-0.93202 -1.69161,-4.32764 -1.69161,-7.54584 0,-4.1568 1.1022,-5.42756 3.80612,-4.38814 2.09337,0.80471 3.80612,4.20034 3.80612,7.54584 0,5.93351 -2.51628,7.79848 -5.92063,4.38814 z m 39.54138,-18.96435 -26.0085,-10.2135 v -17.45811 c 0,-9.60195 -1.14184,-18.16503 -2.53742,-19.02906 -3.27034,-2.02473 -3.33421,-34.31527 -0.0679,-34.31527 1.35825,0 7.63835,2.51561 13.95578,5.59025 l 11.48625,5.59025 v 17.4537 c 0,9.59954 1.04484,19.40943 2.32186,21.79977 1.27703,2.39033 9.26989,7.67274 17.76191,11.73869 15.37039,7.35928 15.44004,7.44211 15.44004,18.36367 0,7.15638 -1.10283,10.92274 -3.17177,10.83209 -1.74447,-0.0764 -44.5484,-10.35248 -29.18027,-10.35248 z m 45.03912,-3.28161 v -11.23118 l 16.49319,-5.49823 16.4932,-5.49822 v -22.07298 -22.07298 l 12.39328,-4.40944 c 6.8163,-2.42519 13.12954,-4.40943 14.02943,-4.40943 0.89988,0 1.31755,15.15513 0.92815,33.67808 l -0.708,33.67807 -27.91157,9.44961 c -15.35136,5.19728 -28.76794,9.48748 -29.81462,9.53375 -1.04669,0.0463 -1.90306,-4.9699 -1.90306,-11.14705 z m 66.53349,-45.24895 0.708,-33.60328 10.14966,-5.75392 c 15.09805,-8.5592 16.4932,-7.86366 16.4932,8.22253 0,16.57136 3.53964,19.32947 16.72383,13.03132 l 8.65032,-4.1323 v 18.63243 18.63243 l -24.99314,9.28704 c -13.74623,5.10787 -25.76865,9.28704 -26.71651,9.28704 -0.94785,0 -1.40476,-15.12148 -1.01536,-33.60329 z m -180.71717,21.36736 -19.03061,-9.36998 v -15.25123 c 0,-12.34071 0.72635,-15.04572 3.80612,-14.1743 2.09337,0.59232 7.21413,1.16424 11.37947,1.27094 7.3666,0.1887 7.62517,-0.21537 9.4714,-14.80143 1.04393,-8.24748 2.35066,-15.44882 2.90385,-16.00298 0.55319,-0.55417 6.41291,1.6184 13.02161,4.82793 l 12.01582,5.8355 -1.24115,17.44609 c -0.7295,10.25419 -2.58579,18.27859 -4.50298,19.46556 -1.79401,1.1107 -3.79134,8.41587 -4.43852,16.23371 -0.64718,7.81784 -1.89167,14.14133 -2.76554,14.05221 -0.87387,-0.0891 -10.15263,-4.37853 -20.61947,-9.53202 z m 85.5311,1.84056 c -11.20926,-5.92611 -14.48348,-12.92249 -14.48348,-30.94843 0,-17.38991 4.53456,-12.69743 5.56383,5.75759 0.76788,13.76825 0.9529,14.06769 12.19808,19.74197 11.43175,5.76843 16.082,10.85918 9.72675,10.64815 -1.86077,-0.0618 -7.7131,-2.40146 -13.00518,-5.19928 z m 28.65258,3.11467 c 0,-1.16308 4.59189,-4.18899 10.20421,-6.72424 11.24654,-5.08039 14.13788,-11.30371 11.84053,-25.48549 -0.7762,-4.79159 -0.34462,-9.37237 0.95906,-10.17951 1.38372,-0.85669 2.37034,6.03427 2.37034,16.55537 0,14.94561 -0.75817,18.25795 -4.44047,19.39961 -2.44226,0.7572 -8.15145,2.99048 -12.68708,4.96284 -4.53563,1.97237 -8.24659,2.63451 -8.24659,1.47142 z m -84.21724,-6.75934 c -2.44382,-2.44812 1.07594,-14.14584 3.97039,-13.19533 4.36987,1.435 5.18971,14.52601 0.90972,14.52601 -1.95347,0 -4.14952,-0.59881 -4.88011,-1.33068 z m 55.60848,-6.29872 c -5.27271,-4.1548 -6.42476,-7.18391 -6.28384,-16.52217 0.1912,-12.66977 0.80617,-13.02535 13.40607,-7.75153 8.39432,3.51353 8.79945,4.27422 8.79945,16.52216 0,10.83504 -0.73871,12.83907 -4.73264,12.83907 -2.60295,0 -7.63802,-2.28939 -11.18904,-5.08753 z m 29.1105,-8.08365 c 0.70991,-12.19137 1.38042,-13.42098 9.01356,-16.52945 l 8.2466,-3.35829 v 13.57958 c 0,12.08509 -0.71127,13.90422 -6.46293,16.52946 -10.51896,4.80117 -11.61175,3.76667 -10.79723,-10.2213 z m -23.16019,-23.47451 -6.16525,-3.42121 7.9423,-4.11433 c 10.0338,-5.19779 14.9082,-5.05748 25.77793,0.74201 8.40078,4.48219 8.51659,4.74302 3.33859,7.51907 -7.20886,3.86484 -23.30251,3.48688 -30.89357,-0.72554 z m -104.2123,-5.4098 c -8.75999,-3.26634 -8.36753,-4.771 0.98379,-3.77183 6.32318,0.67561 9.07959,-4.14534 9.12701,-15.96309 0.0214,-5.32512 1.01636,-9.07684 2.21109,-8.33716 2.36372,1.46342 0.7788,27.18223 -1.8355,29.7851 -0.88299,0.87913 -5.60187,0.10827 -10.48639,-1.71302 z m 88.80952,-0.97371 c 0,-1.29758 6.53485,-4.80853 14.52188,-7.80211 16.34388,-6.12577 25.12615,-5.46119 38.76383,2.93339 11.67518,7.18657 5.83363,9.01584 -7.32161,2.29275 -12.68028,-6.48036 -18.82923,-6.49767 -32.91977,-0.0927 -12.6964,5.77125 -13.04433,5.84243 -13.04433,2.66867 z m 137.02041,-10.2001 c 0,-6.90764 1.14184,-13.26628 2.53741,-14.13031 1.53718,-0.9517 2.53742,2.62139 2.53742,9.06427 0,10.46127 0.12452,10.61029 7.61224,9.11011 9.64265,-1.93191 9.68657,-0.31545 0.12601,4.63719 -11.41566,5.91364 -12.81308,4.96684 -12.81308,-8.68126 z m -155.41667,2.84671 c -5.23342,-2.02761 -9.5153,-4.5036 -9.5153,-5.50219 0,-0.99859 7.70739,-4.93736 17.12755,-8.75283 9.42015,-3.81546 20.87726,-8.56242 25.46023,-10.54881 11.53964,-5.00159 12.18061,-4.8912 38.92344,6.70353 13.08532,5.67333 26.64609,11.53209 30.13503,13.01945 6.30476,2.68777 6.28198,2.72608 -3.72494,6.26581 -9.63414,3.40787 -10.68934,3.23002 -24.46062,-4.12289 -18.14031,-9.68567 -29.45435,-9.80706 -49.20559,-0.52795 -14.44087,6.78431 -15.71425,6.9627 -24.7398,3.46588 z m -74.85374,0.40359 c -1.98952,-0.8042 -3.17177,-6.41414 -3.17177,-15.05056 0,-14.48672 2.30766,-16.67584 10.78402,-10.23007 6.74652,5.13034 5.47365,27.24868 -1.54019,26.76339 -1.59516,-0.11037 -4.32759,-0.77762 -6.07206,-1.48276 z m 238.36384,-10.11529 c 0.58516,-6.87828 2.25451,-9.79636 6.4967,-11.35651 5.29673,-1.94798 5.70919,-1.39068 5.70919,7.71396 0,6.60389 -1.31274,10.31825 -4.01365,11.35651 -7.53798,2.89767 -8.97955,1.54027 -8.19224,-7.71396 z m -70.2601,-5.62826 c -9.76905,-3.89647 -22.26836,-9.43061 -27.77625,-12.29807 l -10.01434,-5.21357 7.47693,-3.72362 c 4.11231,-2.04799 14.45648,-6.27782 22.98704,-9.39962 l 15.51012,-5.676 18.0931,5.50527 c 17.80509,5.41764 18.00677,5.57529 12.67006,9.90429 -5.79533,4.70101 -5.3396,5.65539 6.72681,14.08737 4.8283,3.374 4.52013,3.79927 -6.34354,8.75404 -14.73589,6.72083 -18.02214,6.55873 -39.32993,-1.94009 z m -130.51395,-1.47498 -11.25545,-6.0297 10.65123,-3.19679 c 13.8725,-4.1636 17.77937,-8.68762 10.75479,-12.45367 -8.14988,-4.36934 -6.32896,-6.64105 8.08277,-10.08369 12.04184,-2.87653 14.62299,-2.66625 26.87168,2.18916 7.45264,2.95424 17.04986,7.18424 21.32717,9.40001 l 7.77692,4.02867 -23.86459,10.19463 c -30.03177,12.82917 -36.15484,13.55299 -50.34452,5.95138 z m 182.4612,-8.21576 c -3.45058,-2.33248 -6.81163,-4.68236 -7.469,-5.22195 -1.37093,-1.12531 5.23829,-5.691 8.32286,-5.74949 1.12905,-0.0214 1.25029,1.26188 0.26943,2.85174 -0.99565,1.61381 0.89961,4.95717 4.29072,7.56909 7.5919,5.84748 3.09806,6.3045 -5.41401,0.55061 z M 289.7415,299.23153 c 2.09336,-1.35522 4.94796,-2.46403 6.34353,-2.46403 1.39558,0 0.82466,1.10881 -1.2687,2.46403 -2.09337,1.35521 -4.94796,2.46402 -6.34354,2.46402 -1.39558,0 -0.82466,-1.10881 1.26871,-2.46402 z m 208.14151,0.0993 c -5.46959,-3.46514 -1.3912,-6.05637 8.921,-5.66801 11.63451,0.43815 16.41323,3.2608 9.8677,5.82855 -6.85701,2.68994 -14.39096,2.62557 -18.7887,-0.16054 z m -219.67141,-2.7797 c -4.50159,-1.67195 -4.29881,-2.10594 2.17978,-4.66525 8.29049,-3.2751 16.96236,-3.70312 16.96236,-0.83722 0,3.42415 -13.94512,7.43272 -19.14214,5.50247 z m 22.76702,-4.9452 c 0,-5.92788 1.09756,-6.15406 7.23371,-1.49071 4.05658,3.08291 4.09992,3.59093 0.42682,5.0029 -6.44569,2.47779 -7.66053,1.92081 -7.66053,-3.51219 z m 67.51895,-9.74334 -21.47181,-9.2119 9.86733,-2.77336 c 8.25199,-2.31934 12.13224,-1.93756 23.70245,2.33209 13.11708,4.84046 14.44365,4.89189 25.56026,0.99091 11.43872,-4.01401 24.3645,-3.5777 27.13689,0.916 0.75953,1.2311 -0.46177,2.23837 -2.714,2.23837 -2.25222,0 -12.14478,3.43153 -21.98346,7.62562 -9.83869,4.19408 -18.05441,7.50604 -18.25718,7.35989 -0.20276,-0.14615 -10.03098,-4.41107 -21.84048,-9.47762 z m 16.39699,-14.09511 c -7.34657,-3.15991 -7.10357,-3.2668 6.96261,-3.06269 15.08603,0.2189 18.81695,2.30074 8.89623,4.96406 -7.22203,1.93883 -6.81803,1.98726 -15.85884,-1.90137 z m 5.70918,-5.80557 c 1.74447,-0.70515 4.59907,-0.70515 6.34354,0 1.74447,0.70514 0.31718,1.28208 -3.17177,1.28208 -3.48895,0 -4.91624,-0.57694 -3.17177,-1.28208 z"
     id="path1"
     sodipodi:nodetypes="cccccccccccsccccccccsscccccccccccccccccccccccccccccccssccccccccscccccsccccccccscccccscsccccccsccccccccccccccccccccccccccscccccccccccccsccccccsccccccccccccccccccsccccccsccccccccccccccsccccccscccccscccssccccccscsccccccccccssssssssssssssssscssscsscssssssssssssssssssssssssssssssssssssssssscsssscssssssssssssssssssscsssssscsssssssssssscccssscsssscssssssssssssssssssssssssssssssssssssssssssscssssssscsscscssssscsssccccccsssssssssssssssssssssssssssssssssssssccsssssssscsssssssssssssccsssssscccsssccssssssscssssscsscsssssssssscssscsssssssssssssssssssssssssssssccsssscsssssscscccccssscsssscssscccsssscsssssscssssssssssssssssssssssssssssssscsssscsssssssssssssssssssssssssssssssssssssssssssscsscsssssscssssscsssssssssssssssssssssssssscssssssssssssssss"
     inkscape:label="path1"
     style="display:inline" /><text
     transform="translate(-23.585787,-55.769552)"
     x="144.12617"
     y="663.52429"
     fill="#000000"
     font-size="29px"
     style="font-size:30.6667px;line-height:1.1;white-space:pre;inline-size:584.851;display:inline"
     xml:space="preserve"
     id="text9"><tspan
       x="144.12617"
       y="663.52429"
       id="tspan1">At any time, pay 2 spice to the Spice </tspan><tspan
       x="144.12617"
       y="697.25769"
       id="tspan2">Bank, then take the Treachery Card </tspan><tspan
       x="144.12617"
       y="730.99109"
       id="tspan3">discard pile and secretly search it for </tspan><tspan
       x="144.12617"
       y="764.72448"
       id="tspan4">any card (other than a Nullentropy </tspan><tspan
       x="144.12617"
       y="798.45788"
       id="tspan5">Box) to add to your hand. Shuffle the </tspan><tspan
       x="144.12617"
       y="832.19128"
       id="tspan7">discard pile afterward and then </tspan><tspan
       x="144.12617"
       y="865.92468"
       id="tspan8">return it face up, discarding this card </tspan><tspan
       x="144.12617"
       y="899.65808"
       id="tspan9">on top.</tspan></text><text
     transform="translate(117.05112,192.71261)"
     fill="#000000"
     font-size="43px"
     style="font-size:40px;white-space:pre;shape-inside:url(#rect2);display:inline"
     xml:space="preserve"
     id="text10"><tspan
       x="0"
       y="0"
       id="tspan10">Special</tspan></text></svg>
