<?xml version="1.0" encoding="UTF-8"?>
<!-- Created with Inkscape (http://www.inkscape.org/) -->
<svg width="822" height="1122" version="1.1" viewBox="0 0 822 1122" xml:space="preserve" xmlns="http://www.w3.org/2000/svg"><path d="m89 1e3c-4.5-1.3-6.7-2.9-8.9-6.5l-2.2-3.5 0.053-461c0.029-254 0.072-465 0.096-469 0.042-7.1 0.16-7.4 4-12l3.9-4.2 320-0.26c237-0.19 321 0.035 323 0.87 1.5 0.62 4.1 2.7 5.7 4.5l3 3.4-2e-3 469c-2e-3 460-0.037 469-1.9 472-1.1 1.7-3.4 4-5.2 5.1-3.5 2.1-634 3.6-641 1.5zm44-8.3c0-4.6-0.35-5.9-1.8-6.4-5.7-1.9-13-6-18-9.5l-5.4-4-11 11c-15 15-16 14 16 14h21zm219 0.45 0.3-5.2-4.3-0.017c-2.4-0.01-51-0.012-108-0.01l-104 0.012-0.32 3.1c-0.18 1.7-0.085 4.1 0.21 5.3l0.53 2.1 215-0.15zm36 1.1c6-20 35-20 40 1 0.47 1.9 1.3 2.8 2.9 2.8 3.9 0.12 13 0.13 21 0.03l7.7-0.096 0.69-10h-19l-33-16-30 15h-22l-0.31 4.4c-0.51 7-1 6.8 16 6.6l15-0.2zm290-0.96-1e-5 -5.2-42-0.27c-23-0.15-71-0.15-108-6e-4l-66 0.27v4.9c0 6.2-13 5.5 110 5.5h105zm50 4.1c1.6-0.92 0.38-2.5-10-13l-12-12-2.5 2.3c-4.5 4.1-12 8.6-18 10l-5.3 1.7v5.2c0 4.7 0.24 5.3 2.2 5.6 5.8 0.83 43 0.18 45-0.77zm-304-1.7c-5-16-25-18-33-3.7-3.1 6-3.2 5.9 16 5.9h18zm309-3c1.7-4.3 0.77-47-0.97-47-0.99-0.021-3.4-0.28-5.5-0.57-3.5-0.51-3.7-0.38-4.9 3.3-2 6-5.9 13-9.6 18l-3.4 4.1 11 11c12 12 12 12 13 11zm-648-1.5c1-0.96 6.2-6 11-11l9.6-9.3-3.9-5.2c-4.2-5.6-8.4-14-9.4-18-0.6-2.5-1-2.7-6.1-2.7h-5.5l-0.029 10c-0.016 5.6-0.092 15-0.17 22-0.18 15 0.55 18 4 14zm307-15c8.3-4.1 15-7.5 16-7.5s7.3 3.4 16 7.5l15 7.5h245l8.3-4.2c11-5.4 19-14 25-25l3.8-7.7 0.51-804h-23l-1.2 6.7c-11 65-111 63-121-2.2l-0.68-4.5h-480l-0.016 74c-0.0088 41-0.015 221-0.014 400l0.0023 327 2.1 5.6c4.9 13 14 23 27 30l7.9 4h245zm-301-41c0.0089-3.4 0.022-192 0.03-419l0.014-412-11-0.58 0.2 417c0.11 230 0.22 418 0.25 419 0.037 1.4 0.97 1.8 5 1.8h5zm643-413 0.027-419h-11v838h11zm-84-328c31-6 52-43 42-74-19-61-110-49-113 14-2.1 39 31 67 71 60zm-57-83c28-43 94-24 94 28 0 34-31 54-58 50-30-2.9-58-37-36-78zm65 71c38-19 35-74-5.4-88-15-5-24-4.2-40 3.8-8.2 4-20 19-21 27-0.31 1.7-0.84 3.6-1.2 4.2-2.1 3.5-0.76 20 2.2 27 0.73 1.6 2.1 4.6 2.9 6.6 9.2 20 41 30 63 19zm-563-87c2-5.8 6.1-13 9.9-17l2.6-2.8-11-11c-14-13-14-13-14-0.13-0.0087 5.4-0.065 15-0.12 21-0.16 17-0.75 15 5.7 15l5.6-0.3zm640-18c-0.38-28 0.58-27-13-13l-12 12 2.6 2.8c3.3 3.6 8 12 9.6 17 1.8 5.7 1.6 5.5 7.6 5.5h5.5zm-310-11 15-7.5h20l0.35-5.1c0.44-6.5 1.9-5.9-15-5.9h-15l-1.5 3.8c-3.9 9.9-9.1 14-18 15-11 0.89-20-5.7-23-17-0.38-1.3-2.8-1.5-16-1.5l-15 0.05v10l23 1 14 7.2c17 8.7 13 8.8 31-0.2zm-310 2.5c2.9-2.2 8.3-5.2 12-6.7l6.8-2.7v-5.3c0-6.8 0.7-6.6-25-6.2-26 0.43-26 0.015-12 13 5.8 5.6 11 11 11 11 0.63 1.4 2.1 0.75 7.4-3.3zm614-19c-0.65-0.65-9.4-1-24-1h-23v11l5 1.7c5.5 1.9 12 5.7 17 9.6l3 2.5 11-11c7.7-7.7 11-11 10-12zm-314 13c5.1-2.6 11-9.3 11-13 0-0.3-7.9-0.54-18-0.54-19 0-19 0.02-16 4.8 4.3 8.3 15 12 23 8.6zm-62-3.4-0.24-10h-215l-0.1 3.5c-0.22 7.7-5.5 7 55 7.3 30 0.14 74 0.16 98 0.029s48-0.24 53-0.25zm281 0.02 45-0.021v-11l-106 0.037c-122 0.043-109-0.62-109 5.9l0.35 5c57 0.7 113 0.09 170 0.042zm-0.22 509c-0.17-0.17-116-0.4-258-0.51-238-0.18-258-0.32-261-1.9-3.8-2.1-6.9-5.4-9.2-10-1.7-3.4-1.8-12-2.1-161-0.22-135-0.051-158 1.2-162 1.6-5.2 6.5-11 11-13 2.4-1 60-1.2 288-0.82 157 0.26 287 0.7 289 0.98 3.9 0.59 9.8 5.5 12 10 1.5 2.9 1.6 18 1.4 164-0.14 88-0.62 162-1.1 163-1.3 3.4-6 8.6-9.5 11-2.8 1.5-6.9 1.7-32 1.7-16 0.01-29-0.12-30-0.3zm62-4.7c1.8-1.1 4.4-4.1 5.7-6.6l2.5-4.7 0.36-159c0.34-151 0.27-159-1.5-163-1-2.2-3.5-5.2-5.5-6.6l-3.7-2.5-60-0.18c-33-0.099-162-0.33-288-0.51l-228-0.33-3.8 2.5c-2.1 1.4-4.7 4.4-5.8 6.7-2.3 4.6-2.1-18-1.9 239 0.025 50 0.42 81 1.1 83 1.3 4.8 4.4 8.5 9.2 11 3.7 1.9 9.5 1.9 213 1.8 115-0.063 209 0.054 209 0.26 0.21 0.21 35 0.38 77 0.38 74 0 77-0.07 80-2zm-67-403c6.2-4.4 5.4-8.7-1.8-8.7-2.5 0-6.8-2-9.4-4.5-4.1-3.7-4.6-6.6-3.3-17 0.88-7 1.3-13 1-14s1.6-3.6 4.3-6.3c3.5-3.6 4.5-3.9 3.4-1-0.85 2.2 0.23 5.5 2.4 7.3 5.8 4.8 4.8 11-2.9 17-6.5 5.2-6.6 5.7-2.6 9.8 4 4.1 4.7 3.9 11-2.6 3.5-3.8 6.4-7.9 6.4-9.1 0-5.1 4.7-1.6 6.4 4.8 1.8 7 1.8 7 4.5 1.3 3.8-8.2 15-7.9 15 0.32 0 3.3-1.7 7.5-3.8 9.2-2.1 1.7-3.2 4.1-2.5 5.2s0.2 2.8-1.1 3.6c-1.3 0.82-3.1 0.33-4-1.1-2.3-3.7-6.4-3.2-6.4 0.84 0 1.9 2.6 4.7 5.7 6.2 4.8 2.3 3 2.8-11 2.9-16 0.16-16-0.023-11-3.8zm29-24c-2-2-3.1-0.81-4 4-1.2 6.2-0.94 6.4 2.7 2.7 2.9-2.9 3.3-4.8 1.3-6.8zm-34-15c0-4.4-4.5-2.1-5.9 3-1.1 4.3-0.72 4.7 2.2 2.2 2-1.7 3.6-4 3.6-5.2zm-485-8.8 0.77-12 8.9 12c13 17 15 16 15-7.1 0-15-0.76-19-3.8-19-2.8 0-3.8 3-3.8 12v12l-7.6-8.7c-4.2-4.8-7.6-10-7.6-12 0-1.6-2.3-2.8-5.1-2.8-4.6 0-5.1 1.7-5.1 19 0 15 0.8 19 3.7 19 2.6 0 3.9-3.6 4.4-12zm54 7.9c5.4-5.4 5.5-27 0.18-27-2.8 0-3.8 3-3.8 12 0 11-0.5 12-5.7 11-4.7-0.68-5.8-2.6-6.5-12-1.1-15-7-14-7.7 0.35-0.65 13 4 19 14 19 3.3 0 7.8-1.8 10-4zm32-1.1c0-1.4-3.7-2.5-8.3-2.5-8.2 0-8.3-0.037-7.4-11 0.73-9.2 0.1-11-3.2-11-3.2 0-4.1 2.9-4.1 14v14h11c6.3 0 11-1.1 11-2.5zm25 0c0-1.4-3.4-2.5-7.5-2.5-7.1 0-7.5-0.58-8.2-12-1.1-16-5.7-14-6.6 3.1l-0.76 14h12c6.3 0 12-1.1 12-2.5zm28 0c0-1.4-4-2.5-8.9-2.5-6.2 0-8.9-1.1-8.9-3.8 0-2.4 2.4-3.8 6.3-3.8 3.5 0 6.3-1.1 6.3-2.5s-2.9-2.5-6.3-2.5c-3.5 0-6.3-1.1-6.3-2.5 0-1.4 4-2.5 8.9-2.5 6.3 0 8.9-1.1 8.9-3.9 0-3.1-2.5-3.7-12-2.9l-12 1-1.5 29h13c7 0 13-1.1 13-2.5zm10-7 0.11-9.5 8.4 9.5c12 13 14 12 14-5.9 0-11-0.87-15-3.2-14-1.9 0.64-2.9 4.5-2.4 9.7l0.73 8.7-9-9.5c-5-5.2-10-9.5-12-9.5-1.4 0-2.5 6.9-2.5 15 0 8.5 1.1 15 2.5 15 1.4 0 2.6-4.3 2.6-9.5zm43-1.9c0-8.5 0.99-11 3.8-11 2.1 0 3.8-1.7 3.8-3.8 0-2.9-3.1-3.8-13-3.8s-13 0.93-13 3.8c0 2.2 2.3 3.8 5.3 3.8 4.8 0 5.2 1.2 4.4 11-0.76 9.6-0.18 11 3.6 11 3.6 0 4.5-2.2 4.5-11zm18 5.1c0-3.5 1.1-6.4 2.5-6.4s4.3 2.9 6.6 6.4c2.3 3.5 5.7 6.4 7.7 6.4 4.3 0 4.5-3.1 0.47-7.1-2.4-2.4-2.4-3.7 0-6.1 1.7-1.7 3-5.7 3-8.8 0-6.4-7.2-9.4-19-8-6.6 0.79-7 1.6-7.4 15-0.37 11 0.4 15 2.8 15 1.9 0 3.3-2.8 3.3-6.4zm0-14c0-1.4 2.9-2.5 6.3-2.5 3.5 0 6.3 1.1 6.3 2.5 0 1.4-2.9 2.5-6.3 2.5-3.5 0-6.3-1.1-6.3-2.5zm49 16c5.8-5.2 6-16 0.44-22-8.7-9.6-26-2.9-26 10 0 14 16 21 26 11zm-15-3.1c-1.9-1.2-3-4.9-2.5-8.2 0.63-4.5 2.7-6.3 7.8-6.9 6.2-0.72 7 0.011 7 6.7 0 4.5-1.6 8.1-4 9.1-4.9 1.9-4.1 1.9-8.3-0.69zm32 4.1c-0.96-7.4 0.63-9.3 8.4-10 6.9-0.67 8.5-2 9.6-8.4l1.4-7.6 4.3 8.1c2.4 4.5 4.3 11 4.3 15 0 4.1 1.4 6.5 3.8 6.5 2.4 0 3.8-2.5 3.9-7 0.031-3.8 2.3-9.8 5-13 6.2-8 6.3-10 0.3-10-2.8 0-5.5 2.4-6.5 5.7l-1.7 5.7-2.6-5.3c-2.3-4.6-5-5.4-20-5.7l-17-0.32-0.86 15c-0.75 13-0.27 15 3.7 15 2.5-3e-3 4.4-1.4 4.1-3.2zm0.19-18c0-4.1 2.3-4.7 8.7-2.3 5.2 2 2.6 6.1-3.7 6.1-2.7 0-4.9-1.7-4.9-3.8zm90 18c4.3-4.3 5.2-10 1.9-12-1.2-0.72-1.6-4.7-1-8.7 1.3-9.1-1.1-11-17-11l-12-0.52-1.6 37 13-6e-3c8.6-4e-3 15-1.4 17-4zm-21-7.4c0-3.1 2-3.9 8.2-3.3 4.5 0.44 8.2 1.9 8.2 3.3s-3.7 2.9-8.2 3.3c-6.3 0.6-8.2-0.2-8.2-3.3zm0-15c0-2.5 2.5-3.8 7.6-3.8s7.6 1.3 7.6 3.8c0 2.5-2.5 3.8-7.6 3.8s-7.6-1.3-7.6-3.8zm53 23c11-7.6 4.5-27-8.9-27-11 0-16 4.5-16 14 0 15 13 21 25 12zm-17-11c0-8.5 6.1-12 12-7.7 6 5 3.1 13-4.9 14-6.2 0.72-7-0.011-7-6.7zm33 11c0-2.1 1.2-3.8 2.6-3.8s3.3 1.7 4.1 3.8c1.4 3.6 11 5.6 11 2.3 0-0.83-2.3-4.4-5-7.9-5-6.4-5-6.4 0.24-13 4.7-6 4.8-6.8 1-7.6-2.3-0.47-5.7 1.1-7.4 3.5-2.9 4-3.3 4-4.8 0.22-0.88-2.3-3.9-4.2-6.8-4.2-5 0-5 0.26-0.99 6.5 3.7 5.6 3.8 7.4 0.77 13-1.9 3.8-3.9 7.7-4.4 8.8-0.51 1 1.5 1.9 4.4 1.9 3 0 5.3-1.6 5.3-3.8zm-171 396c-7-4.1-7.6-5.4-6.7-16 0.9-11 1.2-12 7.6-10 3.7 0.93 7 2 7.5 2.5s0.43 7 5e-3 15l-0.77 14zm14-7.1c0-13 0.23-14 11-16 6.8-1.6 7-1.4 7 9.8 0 10-0.88 12-7.5 15-4.1 2.1-8.1 3.9-8.9 3.9s-1.4-5.7-1.4-13zm20-9.3v-12l-11 1.8c-6.8 1.1-9.8 0.87-8.2-0.64 3.4-3.2 19-9.3 20-7.9 0.61 0.61 1.9 7.6 2.8 16 1.2 10 0.83 14-1.2 14-1.7 0-2.9-4.6-2.9-12zm-48-5.5c-0.1-9.3 0.9-16 2.4-16 1.4 0 6.8 1.7 12 3.8 10 4.3 10 7.9 0.14 4-7.6-2.9-9.4-1.6-9.7 7.2-0.098 3.6-1.2 8.9-2.4 12-1.5 3.6-2.2 0.43-2.4-11zm-30 1.5-21-10v-23c0-18 0.78-23 3.5-23 4.5 0 6.6-5.6 6.6-18 0-5.2 0.69-10 1.5-11 0.84-0.85 8.6 1.7 17 5.7 8.6 4 21 9.5 28 12l13 4.8 1.5 44-11-3.7c-5.8-2.1-11-3.7-13-3.7-1.1 0-2.9 7.9-4.1 17l-2.1 17zm88-1c-6.4 0-1.2-14-2.7-17-2.7-5.1-6.7-5.2-19-0.62-3.5 1.4-4-1.5-4-22 0-20 0.57-23 5.1-26 12-6.3 53-22 54-21 0.78 0.78 1.4 19 1.4 41l-0.03 40-15 8.3c-8.3 4.5-16 8.3-18 8.3-1.5 0 3.8-12-2.7-12zm41-49v-40l18-6.9c10-3.8 22-8.5 27-11l8.2-3.6v19c0 14-0.85 19-3.5 19-1.9 0-6.5 2.4-10 5.4-6.3 4.9-6.8 6.7-6.3 21 0.31 8.7-0.21 17-1.2 19-1.7 2.8-28 18-30 18-0.88 0-1.6-18-1.6-40zm-168 30c-9.4-5.5-9.5-5.6-7.9-19 1.9-16-0.91-22-14-28l-10-4.7v-20c0-11 1.1-20 2.4-20s11 4 22 8.8l19 8.8-1.7 16c-1.1 11-0.74 17 1.2 18 3.2 2 4.1 45 0.95 45-1-0.032-6.2-2.5-11-5.6zm-17-19c-0.57-12-1.8-14-10-20-4.4-3.1-5.1-4.3-2.2-4.3 2.2 0 6.6 2 9.6 4.5 4.6 3.8 5.4 6.5 4.5 17-0.89 12-1 12-1.5 2.5zm-11 3.5c-5.8-3.3-6.3-20-0.55-20 4.9 0 6.8 5 5.8 15-0.69 6.5-1.5 7.3-5.3 5.2zm237-11c-0.035-14 0.54-16 6.3-18 7-3.2 8.5-1.4 2.5 3.1-2.2 1.6-4 7.4-4.2 14-0.66 17-4.6 19-4.6 1.8zm7.6-0.89c0-7.1 1.1-13 2.5-13 1.4 0 2.5 5.1 2.5 11 0 6.2-1.1 12-2.5 13-1.6 0.97-2.5-3.4-2.5-11zm-199-17c-0.93-0.93-1.7-4.3-1.7-7.5 0-4.2 1.1-5.4 3.8-4.4 2.1 0.8 3.8 4.2 3.8 7.5 0 5.9-2.5 7.8-5.9 4.4zm40-19-26-10v-17c0-9.6-1.1-18-2.5-19-3.3-2-3.3-34-0.068-34 1.4 0 7.6 2.5 14 5.6l11 5.6v17c0 9.6 1 19 2.3 22 1.3 2.4 9.3 7.7 18 12 15 7.4 15 7.4 15 18 0 7.2-1.1 11-3.2 11-1.7-0.076-45-10-29-10zm45-3.3v-11l33-11v-44l12-4.4c6.8-2.4 13-4.4 14-4.4 0.9 0 1.3 15 0.93 34l-0.71 34-28 9.4c-15 5.2-29 9.5-30 9.5-1 0.046-1.9-5-1.9-11zm67-45 0.71-34 10-5.8c15-8.6 16-7.9 16 8.2 0 17 3.5 19 17 13l8.7-4.1v37l-25 9.3c-14 5.1-26 9.3-27 9.3-0.95 0-1.4-15-1-34zm-181 21-19-9.4v-15c0-12 0.73-15 3.8-14 2.1 0.59 7.2 1.2 11 1.3 7.4 0.19 7.6-0.22 9.5-15 1-8.2 2.4-15 2.9-16 0.55-0.55 6.4 1.6 13 4.8l12 5.8-1.2 17c-0.73 10-2.6 18-4.5 19-1.8 1.1-3.8 8.4-4.4 16s-1.9 14-2.8 14c-0.87-0.089-10-4.4-21-9.5zm86 1.8c-11-5.9-14-13-14-31 0-17 4.5-13 5.6 5.8 0.77 14 0.95 14 12 20 11 5.8 16 11 9.7 11-1.9-0.062-7.7-2.4-13-5.2zm29 3.1c0-1.2 4.6-4.2 10-6.7 11-5.1 14-11 12-25-0.78-4.8-0.34-9.4 0.96-10 1.4-0.86 2.4 6 2.4 17 0 15-0.76 18-4.4 19-2.4 0.76-8.2 3-13 5-4.5 2-8.2 2.6-8.2 1.5zm-84-6.8c-2.4-2.4 1.1-14 4-13 4.4 1.4 5.2 15 0.91 15-2 0-4.1-0.6-4.9-1.3zm56-6.3c-5.3-4.2-6.4-7.2-6.3-17 0.19-13 0.81-13 13-7.8 8.4 3.5 8.8 4.3 8.8 17 0 11-0.74 13-4.7 13-2.6 0-7.6-2.3-11-5.1zm29-8.1c0.71-12 1.4-13 9-17l8.2-3.4v14c0 12-0.71 14-6.5 17-11 4.8-12 3.8-11-10zm-23-23-6.2-3.4 7.9-4.1c10-5.2 15-5.1 26 0.74 8.4 4.5 8.5 4.7 3.3 7.5-7.2 3.9-23 3.5-31-0.73zm-104-5.4c-8.8-3.3-8.4-4.8 0.98-3.8 6.3 0.68 9.1-4.1 9.1-16 0.021-5.3 1-9.1 2.2-8.3 2.4 1.5 0.78 27-1.8 30-0.88 0.88-5.6 0.11-10-1.7zm89-0.97c0-1.3 6.5-4.8 15-7.8 16-6.1 25-5.5 39 2.9 12 7.2 5.8 9-7.3 2.3-13-6.5-19-6.5-33-0.093-13 5.8-13 5.8-13 2.7zm137-10c0-6.9 1.1-13 2.5-14 1.5-0.95 2.5 2.6 2.5 9.1 0 10 0.12 11 7.6 9.1 9.6-1.9 9.7-0.32 0.13 4.6-11 5.9-13 5-13-8.7zm-155 2.8c-5.2-2-9.5-4.5-9.5-5.5s7.7-4.9 17-8.8c9.4-3.8 21-8.6 25-11 12-5 12-4.9 39 6.7 13 5.7 27 12 30 13 6.3 2.7 6.3 2.7-3.7 6.3-9.6 3.4-11 3.2-24-4.1-18-9.7-29-9.8-49-0.53-14 6.8-16 7-25 3.5zm-75 0.4c-2-0.8-3.2-6.4-3.2-15 0-14 2.3-17 11-10 6.7 5.1 5.5 27-1.5 27-1.6-0.11-4.3-0.78-6.1-1.5zm238-10c0.59-6.9 2.3-9.8 6.5-11 5.3-1.9 5.7-1.4 5.7 7.7 0 6.6-1.3 10-4 11-7.5 2.9-9 1.5-8.2-7.7zm-70-5.6c-9.8-3.9-22-9.4-28-12l-10-5.2 7.5-3.7c4.1-2 14-6.3 23-9.4l16-5.7 18 5.5c18 5.4 18 5.6 13 9.9-5.8 4.7-5.3 5.7 6.7 14 4.8 3.4 4.5 3.8-6.3 8.8-15 6.7-18 6.6-39-1.9zm-131-1.5-11-6 11-3.2c14-4.2 18-8.7 11-12-8.1-4.4-6.3-6.6 8.1-10 12-2.9 15-2.7 27 2.2 7.5 3 17 7.2 21 9.4l7.8 4-24 10c-30 13-36 14-50 6zm182-8.2c-3.5-2.3-6.8-4.7-7.5-5.2-1.4-1.1 5.2-5.7 8.3-5.7 1.1-0.021 1.3 1.3 0.27 2.9-1 1.6 0.9 5 4.3 7.6 7.6 5.8 3.1 6.3-5.4 0.55zm-200-3.4c2.1-1.4 4.9-2.5 6.3-2.5 1.4 0 0.82 1.1-1.3 2.5-2.1 1.4-4.9 2.5-6.3 2.5s-0.82-1.1 1.3-2.5zm208 0.099c-5.5-3.5-1.4-6.1 8.9-5.7 12 0.44 16 3.3 9.9 5.8-6.9 2.7-14 2.6-19-0.16zm-220-2.8c-4.5-1.7-4.3-2.1 2.2-4.7 8.3-3.3 17-3.7 17-0.84 0 3.4-14 7.4-19 5.5zm23-4.9c0-5.9 1.1-6.2 7.2-1.5 4.1 3.1 4.1 3.6 0.43 5-6.4 2.5-7.7 1.9-7.7-3.5zm68-9.7-21-9.2 9.9-2.8c8.3-2.3 12-1.9 24 2.3 13 4.8 14 4.9 26 0.99 11-4 24-3.6 27 0.92 0.76 1.2-0.46 2.2-2.7 2.2-2.3 0-12 3.4-22 7.6-9.8 4.2-18 7.5-18 7.4-0.2-0.15-10-4.4-22-9.5zm16-14c-7.3-3.2-7.1-3.3 7-3.1 15 0.22 19 2.3 8.9 5-7.2 1.9-6.8 2-16-1.9zm5.7-5.8c1.7-0.71 4.6-0.71 6.3 0 1.7 0.71 0.32 1.3-3.2 1.3s-4.9-0.58-3.2-1.3z"/><text transform="translate(-24 -56)" x="144.12617" y="663.52429" fill="#000000" font-size="31px" style="inline-size:584.851;line-height:1.1;white-space:pre" xml:space="preserve"><tspan x="144.12617" y="663.52429">At any time, pay 2 spice to the Spice </tspan><tspan x="144.12617" y="697.25769">Bank, then take the Treachery Card </tspan><tspan x="144.12617" y="730.99109">discard pile and secretly search it for </tspan><tspan x="144.12617" y="764.72448">any card (other than a Nullentropy </tspan><tspan x="144.12617" y="798.45788">Box) to add to your hand. Shuffle the </tspan><tspan x="144.12617" y="832.19128">discard pile afterward and then </tspan><tspan x="144.12617" y="865.92468">return it face up, discarding this card </tspan><tspan x="144.12617" y="899.65808">on top.</tspan></text><text transform="translate(117 193)" fill="#000000" font-size="40px" style="shape-inside:url(#rect2);white-space:pre" xml:space="preserve"><tspan x="0" y="0">Special</tspan></text></svg>
