<?xml version="1.0" encoding="UTF-8" standalone="no"?>
<!-- Created with Inkscape (http://www.inkscape.org/) -->

<svg
   width="822"
   height="1122"
   version="1.1"
   viewBox="0 0 822 1122"
   xml:space="preserve"
   id="svg10"
   sodipodi:docname="Ornithopter (Full Res).svg"
   inkscape:version="1.4 (86a8ad7, 2024-10-11)"
   xmlns:inkscape="http://www.inkscape.org/namespaces/inkscape"
   xmlns:sodipodi="http://sodipodi.sourceforge.net/DTD/sodipodi-0.dtd"
   xmlns="http://www.w3.org/2000/svg"
   xmlns:svg="http://www.w3.org/2000/svg"><defs
     id="defs10" /><sodipodi:namedview
     id="namedview10"
     pagecolor="#ffffff"
     bordercolor="#000000"
     borderopacity="0.25"
     inkscape:showpageshadow="2"
     inkscape:pageopacity="0.0"
     inkscape:pagecheckerboard="0"
     inkscape:deskcolor="#d1d1d1"
     inkscape:zoom="1"
     inkscape:cx="431"
     inkscape:cy="491"
     inkscape:window-width="1742"
     inkscape:window-height="1360"
     inkscape:window-x="1882"
     inkscape:window-y="325"
     inkscape:window-maximized="0"
     inkscape:current-layer="svg10" /><path
     d="m 89,1000 c -4.5,-1.3 -6.7,-2.9 -8.9,-6.5 L 77.9,990 77.953,529 c 0.029,-254 0.072,-465 0.096,-469 0.042,-7.1 0.16,-7.4 4,-12 l 3.9,-4.2 320,-0.26 c 237,-0.19 321,0.035 323,0.87 1.5,0.62 4.1,2.7 5.7,4.5 l 3,3.4 -0.002,469 c -0.002,460 -0.037,469 -1.9,472 -1.1,1.7 -3.4,4 -5.2,5.1 -3.5,2.1 -634,3.6 -641,1.5 z m 44,-8.3 c 0,-4.6 -0.35,-5.9 -1.8,-6.4 -5.7,-1.9 -13,-6 -18,-9.5 l -5.4,-4 -11,11 c -15,15 -16,14 16,14 h 21 z m 219,0.45 0.3,-5.2 -4.3,-0.017 c -2.4,-0.01 -51,-0.012 -108,-0.01 l -104,0.012 -0.32,3.1 c -0.18,1.7 -0.085,4.1 0.21,5.3 l 0.53,2.1 215,-0.15 z m 36,1.1 c 6,-20 35,-20 40,1 0.47,1.9 1.3,2.8 2.9,2.8 3.9,0.12 13,0.13 21,0.03 l 7.7,-0.096 0.69,-10 h -19 l -33,-16 -30,15 h -22 l -0.31,4.4 c -0.51,7 -1,6.8 16,6.6 l 15,-0.2 z m 290,-0.96 -10e-6,-5.2 -42,-0.27 c -23,-0.15 -71,-0.15 -108,-6e-4 l -66,0.27 v 4.9 c 0,6.2 -13,5.5 110,5.5 h 105 z m 50,4.1 c 1.6,-0.92 0.38,-2.5 -10,-13 l -12,-12 -2.5,2.3 c -4.5,4.1 -12,8.6 -18,10 l -5.3,1.7 v 5.2 c 0,4.7 0.24,5.3 2.2,5.6 5.8,0.83 43,0.18 45,-0.77 z m -304,-1.7 c -5,-16 -25,-18 -33,-3.7 -3.1,6 -3.2,5.9 16,5.9 h 18 z m 309,-3 c 1.7,-4.3 0.77,-47 -0.97,-47 -0.99,-0.021 -3.4,-0.28 -5.5,-0.57 -3.5,-0.51 -3.7,-0.38 -4.9,3.3 -2,6 -5.9,13 -9.6,18 l -3.4,4.1 11,11 c 12,12 12,12 13,11 z m -648,-1.5 c 1,-0.96 6.2,-6 11,-11 l 9.6,-9.3 -3.9,-5.2 c -4.2,-5.6 -8.4,-14 -9.4,-18 -0.6,-2.5 -1,-2.7 -6.1,-2.7 h -5.5 l -0.029,10 c -0.016,5.6 -0.092,15 -0.17,22 -0.18,15 0.55,18 4,14 z m 307,-15 c 8.3,-4.1 15,-7.5 16,-7.5 1,0 7.3,3.4 16,7.5 l 15,7.5 h 245 l 8.3,-4.2 c 11,-5.4 19,-14 25,-25 l 3.8,-7.7 0.51,-804 h -23 l -1.2,6.7 c -11,65 -111,63 -121,-2.2 l -0.68,-4.5 h -480 l -0.016,74 c -0.0088,41 -0.015,221 -0.014,400 l 0.0023,327 2.1,5.6 c 4.9,13 14,23 27,30 l 7.9,4 h 245 z m -301,-41 c 0.0089,-3.4 0.022,-192 0.03,-419 l 0.014,-412 -11,-0.58 0.2,417 c 0.11,230 0.22,418 0.25,419 0.037,1.4 0.97,1.8 5,1.8 h 5 z m 643,-413 0.027,-419 h -11 v 838 h 11 z m -84,-328 c 31,-6 52,-43 42,-74 -19,-61 -110,-49 -113,14 -2.1,39 31,67 71,60 z m -57,-83.3 c 28,-43 94,-24 94,28 0,34 -30.8498,54.43084 -57.92096,49.64032 C 599.52799,184.64147 571.37318,150.5744 593,109.89 Z m 65,70.7 c 38,-19 35,-74 -5.4,-88 -15,-5 -24,-4.2 -40,3.8 -8.2,4 -20,19 -21,27 -0.31,1.7 -0.84,3.6 -1.2,4.2 -2.1,3.5 -0.76,20 2.2,27 0.73,1.6 2.1,4.6 2.9,6.6 9.2,20 41,30 63,19 z m -563,-87 c 2,-5.8 6.1,-13 9.9,-17 l 2.6,-2.8 -11,-11 c -14,-13 -14,-13 -14,-0.13 -0.0087,5.4 -0.065,15 -0.12,21 -0.16,17 -0.75,15 5.7,15 l 5.6,-0.3 z m 640,-18 c -0.38,-28 0.58,-27 -13,-13 l -12,12 2.6,2.8 c 3.3,3.6 8,12 9.6,17 1.8,5.7 1.6,5.5 7.6,5.5 h 5.5 z m -310,-11 15,-7.5 h 20 l 0.35,-5.1 c 0.44,-6.5 1.9,-5.9 -15,-5.9 h -15 l -1.5,3.8 c -3.9,9.9 -9.1,14 -18,15 -11,0.89 -20,-5.7 -23,-17 -0.38,-1.3 -2.8,-1.5 -16,-1.5 l -15,0.05 v 10 l 23,1 14,7.2 c 17,8.7 13,8.8 31,-0.2 z m -310,2.5 c 2.9,-2.2 8.3,-5.2 12,-6.7 l 6.8,-2.7 v -5.3 c 0,-6.8 0.7,-6.6 -25,-6.2 -26,0.43 -26,0.015 -12,13 5.8,5.6 11,11 11,11 0.63,1.4 2.1,0.75 7.4,-3.3 z m 614,-19 c -0.65,-0.65 -9.4,-1 -24,-1 h -23 v 11 l 5,1.7 c 5.5,1.9 12,5.7 17,9.6 l 3,2.5 11,-11 c 7.7,-7.7 11,-11 10,-12 z m -314,13 c 5.1,-2.6 11,-9.3 11,-13 0,-0.3 -7.9,-0.54 -18,-0.54 -19,0 -19,0.02 -16,4.8 4.3,8.3 15,12 23,8.6 z m -62.4,-3.42 -0.24,-10 h -215 l -0.1,3.5 c -0.22,7.7 -5.5,7 55,7.3 30,0.14 74,0.16 98,0.029 24,-0.131 48,-0.24 53,-0.25 z m 281.4,0.02033 45,-0.021 v -11 l -106,0.037 c -122,0.043 -109,-0.62 -109,5.9 l 0.35,5 c 57,0.7 113,0.09 170,0.042 z m -0.21592,508.68834 c -0.17444,-0.17439 -116.2245,-0.40341 -257.88904,-0.50892 -237.54693,-0.17694 -257.80899,-0.32281 -260.62181,-1.87636 -3.81826,-2.10887 -6.86313,-5.42671 -9.19621,-10.02064 -1.70803,-3.3632 -1.8238,-12.38599 -2.06992,-161.32756 -0.22351,-135.26344 -0.0511,-158.43101 1.20864,-162.43392 1.64118,-5.21485 6.46105,-10.74413 11.06411,-12.69256 2.43472,-1.0306 59.81365,-1.19389 288.21845,-0.8202 156.84819,0.25661 286.67516,0.69631 288.50437,0.9771 3.87609,0.59499 9.79241,5.45453 12.14572,9.97623 1.49573,2.87394 1.62085,17.55983 1.39602,163.85759 -0.13584,88.38539 -0.62481,161.69565 -1.0866,162.91169 -1.28938,3.39531 -6.0107,8.59311 -9.54805,10.51164 -2.78096,1.5083 -6.88538,1.72866 -32.49576,1.74466 -16.12202,0.0101 -29.45548,-0.12436 -29.62992,-0.29875 z m 62.18448,-4.70028 c 1.78298,-1.0801 4.36728,-4.05728 5.74287,-6.61595 l 2.50108,-4.65213 0.35699,-158.81492 c 0.3394,-150.98936 0.26712,-159.01451 -1.46689,-162.86534 -1.00314,-2.22772 -3.48568,-5.19052 -5.51677,-6.58399 l -3.69288,-2.53357 -59.54842,-0.18008 c -32.75163,-0.099 -162.28714,-0.32806 -287.85669,-0.50892 l -228.30826,-0.32884 -3.75571,2.5446 c -2.06564,1.39953 -4.6725,4.42459 -5.79302,6.72237 -2.25532,4.62481 -2.06908,-18.31582 -1.94091,239.08585 0.0248,49.80204 0.42026,80.83423 1.06106,83.26252 1.26765,4.8037 4.35343,8.46791 9.24646,10.97971 3.65444,1.87598 9.49252,1.92575 212.77971,1.81371 114.9622,-0.0634 209.19324,0.0545 209.40231,0.26181 0.20907,0.20735 34.84274,0.377 76.96371,0.377 73.85165,0 76.69921,-0.07 79.82536,-1.96383 z M 629.41249,158.76421 c 6.24771,-4.38015 5.35902,-8.73936 -1.78165,-8.73936 -2.50209,0 -6.75289,-2.00556 -9.44621,-4.45681 -4.08029,-3.71355 -4.62985,-6.58038 -3.29531,-17.19054 0.88089,-7.00356 1.33829,-13.30675 1.01644,-14.00711 -0.32185,-0.70036 1.62704,-3.55189 4.33088,-6.33675 3.46945,-3.57342 4.4627,-3.88084 3.37539,-1.04472 -0.84736,2.21027 0.22889,5.48865 2.39168,7.28528 5.81827,4.83324 4.7972,10.67497 -2.94607,16.855 -6.46396,5.15899 -6.61874,5.74971 -2.56873,9.8035 4.05,4.05378 4.69444,3.89816 10.69498,-2.58257 3.51191,-3.79295 6.38529,-7.87496 6.38529,-9.07114 0,-5.13252 4.69407,-1.57613 6.37338,4.82869 1.83084,6.98276 1.84415,6.98654 4.4812,1.27337 3.76359,-8.15378 14.58914,-7.91273 14.58914,0.32486 0,3.33026 -1.70485,7.47124 -3.78854,9.20217 -2.0837,1.73094 -3.20999,4.08415 -2.50287,5.22936 0.70712,1.14521 0.20114,2.75311 -1.12439,3.5731 -1.32554,0.81999 -3.12924,0.32616 -4.00822,-1.0974 -2.3004,-3.7256 -6.38658,-3.18646 -6.38658,0.84265 0,1.88702 2.57617,4.67455 5.72483,6.19451 4.77418,2.30464 2.99011,2.79218 -10.74362,2.93592 -15.66264,0.16393 -16.18968,-0.0231 -10.77102,-3.82201 z m 29.36939,-24.18001 c -1.95807,-1.9599 -3.11069,-0.80621 -4.03624,4.04001 -1.1829,6.1937 -0.94467,6.43215 2.74074,2.7433 2.88362,-2.88632 3.25358,-4.82341 1.2955,-6.78331 z m -33.93456,-15.43215 c 0,-4.43371 -4.52664,-2.1147 -5.864,3.00413 -1.12312,4.29883 -0.71976,4.69991 2.24762,2.23491 1.98901,-1.65227 3.61638,-4.00984 3.61638,-5.23904 z m -461.67029,-2.4615 c 5.33668,-5.30034 6.28007,-8.08485 4.96693,-14.66041 -3.3563,-16.806733 -26.36593,-23.191485 -38.85964,-10.782836 -8.30758,8.251023 -7.95524,15.437906 1.20277,24.533566 9.94105,9.87337 23.29078,10.24486 32.68994,0.90968 z m -26.07374,-7.12064 c -6.77054,-10.262807 1.6403,-19.590441 14.11819,-15.657077 6.50402,2.050243 7.34082,17.735727 1.0736,20.124307 -7.29673,2.78096 -11.15936,1.64513 -15.19179,-4.46723 z m 45.97773,7.28965 c -1.15937,-4.58783 -0.57524,-6.37409 2.08441,-6.37409 2.03235,0 5.24079,2.86834 7.12987,6.37409 2.93603,5.44868 5.23524,6.3741 15.83648,6.3741 h 12.40178 l 0.0695,-9.56114 0.0695,-9.56114 8.94998,9.56114 c 13.12499,14.02124 16.58224,12.82519 16.58224,-5.73668 0,-13.598068 -0.57047,-15.297825 -5.13423,-15.297825 -4.06331,0 -5.13423,1.699757 -5.13423,8.149065 v 8.14906 l -8.46533,-8.14906 C 214.3428,88.149365 210.2651,89.675765 210.2651,107.2276 v 14.58959 l -5.77601,-5.74979 c -4.54944,-4.52878 -5.04688,-6.19928 -2.34251,-7.86643 1.88842,-1.16415 3.04363,-4.85522 2.56712,-8.202384 -0.77388,-5.435995 -2.46536,-6.226961 -15.84271,-7.408328 -8.23698,-0.727416 -15.47636,-0.519011 -16.08751,0.463123 -0.61116,0.982133 -0.35517,8.174479 0.56886,15.982989 1.37363,11.60785 2.56094,14.19729 6.50974,14.19729 3.8698,0 4.50956,-1.26684 3.21894,-6.3741 z m -1.05417,-16.57264 c 0,-3.026857 4.45984,-3.026857 11.55201,0 4.30252,1.83628 3.78271,2.22027 -3.20889,2.37044 -4.58872,0.0986 -8.34312,-0.96813 -8.34312,-2.37044 z m 79.58053,7.64892 c 0,-13.598068 -0.57047,-15.297825 -5.13423,-15.297825 -4.56375,0 -5.13422,1.699757 -5.13422,15.297825 0,13.59806 0.57047,15.29782 5.13422,15.29782 4.56376,0 5.13423,-1.69976 5.13423,-15.29782 z m 23.10403,2.54963 c 0,-11.048424 0.68456,-12.748182 5.13423,-12.748182 2.82382,0 5.13423,-1.476676 5.13423,-3.281503 0,-2.321253 -4.50455,-3.253862 -15.3936,-3.187046 -12.27163,0.0753 -15.39543,0.911148 -15.40268,4.121356 -0.006,2.503852 2.11015,3.950331 5.59414,3.824455 5.03491,-0.18191 5.57797,1.02594 5.35418,11.90833 -0.21216,10.31648 0.47902,12.11078 4.66522,12.11078 4.18573,0 4.91428,-1.88995 4.91428,-12.74819 z m 24.1582,6.37409 c -1.45939,-5.77507 -0.86087,-6.37409 6.36887,-6.37409 6.80021,0 7.97964,0.94213 7.97964,6.37409 0,4.77377 1.35232,6.3741 5.38629,6.3741 5.09035,0 5.28605,-0.8755 3.562,-15.93523 -2.06711,-18.056299 -2.2069,-18.368143 -7.35475,-16.406178 -2.33735,0.890819 -3.23809,3.424069 -2.37842,6.689071 1.17381,4.458117 0.19721,5.255237 -6.43851,5.255237 -6.15745,0 -7.99679,-1.22091 -8.64253,-5.736681 -0.45118,-3.155176 -2.51125,-5.736683 -4.57793,-5.736683 -2.888,0 -3.77915,3.687853 -3.85067,15.935364 -0.087,14.89264 0.28809,15.93536 5.73185,15.93523 4.93135,-1.1e-4 5.57782,-0.97794 4.21416,-6.37423 z m 57.41825,2.40507 c 3.98601,-2.7729 5.70543,-6.5712 5.70543,-12.60361 0,-6.03242 -1.71942,-9.830711 -5.70543,-12.603613 -18.88445,-13.137129 -41.45633,9.840343 -23.47019,23.891923 8.06082,6.29747 15.69351,6.72521 23.47019,1.3153 z m -17.29625,-7.38186 c -4.83373,-5.78464 -2.19808,-12.870663 4.78726,-12.870663 8.09774,0 12.68489,7.077003 8.12455,12.534463 -4.20507,5.0323 -8.88583,5.15418 -12.91181,0.3362 z m 37.69427,4.55185 c -0.94518,-4.91071 -0.0575,-5.94915 5.08552,-5.94915 8.9983,0 16.16149,-4.52026 16.16149,-10.19855 0,-6.461422 -7.46364,-10.198542 -20.36815,-10.198542 h -10.43722 v 14.872882 c 0,16.10538 0.50162,17.42252 6.63526,17.42252 2.87762,0 3.73305,-1.741 2.9231,-5.94916 z m -1.85702,-16.1477 c 0,-1.402295 3.4656,-2.549632 7.70134,-2.549632 4.23574,0 7.70134,1.147337 7.70134,2.549632 0,1.40231 -3.4656,2.54964 -7.70134,2.54964 -4.23574,0 -7.70134,-1.14733 -7.70134,-2.54964 z m 45.05868,8.92373 c -1.66985,-11.059522 -1.49517,-11.473362 4.84275,-11.473362 4.13311,0 6.57508,-1.420396 6.57508,-3.824455 0,-3.005361 -3.55649,-3.824455 -16.60567,-3.824455 -13.70592,0 -16.34765,0.667843 -15.12804,3.824455 0.81271,2.10345 3.66445,3.824455 6.33722,3.824455 4.04809,0 4.85958,1.915908 4.85958,11.473362 0,9.97907 0.70665,11.47337 5.4257,11.47337 4.97571,0 5.28203,-0.9516 3.69338,-11.47337 z m 44.79031,7.38111 c 0,-3.23664 -2.14695,-3.88891 -10.26845,-3.11967 -7.1282,0.67516 -10.26846,-0.0227 -10.26846,-2.28183 0,-1.78993 2.888,-3.25442 6.41778,-3.25442 3.87086,0 6.41779,-1.45529 6.41779,-3.66705 0,-2.3209 -2.30477,-3.49085 -6.27839,-3.18705 -3.45311,0.264 -6.34013,-0.62688 -6.41561,-1.979744 -0.0755,-1.352862 3.90501,-2.443901 8.8455,-2.424532 5.67393,0.02224 8.98273,-1.184821 8.98273,-3.276935 0,-2.314971 -4.25081,-3.312151 -14.11913,-3.312151 h -14.11913 v 15.297822 15.29782 h 15.40269 c 12.42785,0 15.40268,-0.79037 15.40268,-4.09226 z m 12.83557,-2.4943 c 0,-7.82001 5.20191,-7.2303 8.95186,1.01482 1.5219,3.34625 4.85435,5.57174 8.34312,5.57174 6.92477,0 7.26662,-1.8233 1.52356,-8.12611 -4.01524,-4.40659 -3.97477,-4.93237 0.64178,-8.33775 3.93241,-2.90073 4.3553,-4.565611 2.09443,-8.24577 -2.08704,-3.397224 -6.6681,-4.813068 -17.40087,-5.377999 l -14.56804,-0.766805 0.61343,15.427214 c 0.51275,12.89532 1.36733,15.42722 5.20708,15.42722 3.228,0 4.59365,-1.95813 4.59365,-6.58656 z m 0,-14.812571 c 0,-2.670629 2.2346,-4.097238 6.41779,-4.097238 3.52978,0 6.41778,1.147337 6.41778,2.549637 0,1.4023 -1.06072,2.549632 -2.35715,2.549632 -1.29644,0 -4.18444,0.69643 -6.41779,1.54761 -2.66462,1.01555 -4.06063,0.139 -4.06063,-2.549641 z M 352.73993,501.55539 c -2.82382,-1.1917 -9.08116,-2.24736 -13.9052,-2.34592 -13.69178,-0.27974 -8.60074,-2.15538 21.52064,-7.92864 52.41835,-10.04682 120.85581,-35.31635 133.06238,-49.13131 l 7.18788,-8.13499 -4.93387,11.01944 c -2.71363,6.06069 -5.94817,12.00819 -7.18788,13.21667 -4.15699,4.05225 -92.00679,34.90444 -125.47549,44.06604 -2.82383,0.77298 -7.44463,0.4304 -10.26846,-0.76129 z m -45.7802,-9.32416 c -3.27439,-3.25209 -1.68833,-6.55451 1.77636,-3.69865 2.66958,2.20048 5.22896,1.56327 10.91023,-2.71634 l 7.42247,-5.59122 -6.22349,6.85299 c -6.16816,6.79206 -10.58506,8.43126 -13.88557,5.15322 z m -37.65101,-5.84582 c -12.307,-1.79025 -12.49239,-1.5912 8.4244,-9.04516 9.43161,-3.36108 26.40297,-2.55715 28.84445,1.36635 1.34304,2.15829 -17.60946,10.34267 -22.55989,9.74218 -1.73632,-0.21062 -8.35535,-1.13913 -14.70896,-2.06337 z m 87.28188,-3.92778 c 0,-4.05902 -5.19457,-3.68442 -3.69954,-3.73411 1.49503,-0.0497 4.96064,1.59417 7.70134,3.65302 6.33815,4.76129 -4.0018,9.64342 -4.0018,0.0811 z m -26.84008,-17.97708 c -0.99616,-6.59762 -2.38127,-13.47115 -3.07802,-15.2745 -0.72662,-1.88066 4.83067,-7.75263 13.03237,-13.77033 7.86455,-5.77034 27.58839,-21.34598 43.83072,-34.61256 l 29.53152,-24.12105 v 33.0526 33.0526 l -8.27949,4.25234 -8.2795,4.25235 -14.82453,-16.00837 c -18.13394,-19.58205 -19.4852,-18.59987 -2.15727,1.56805 6.96699,8.10886 12.17631,15.53234 11.57627,16.49662 -0.60005,0.96429 -4.03222,2.48642 -7.62706,3.38252 -3.59483,0.89611 -13.96025,5.00648 -23.03425,9.13417 -27.75477,12.6254 -28.57812,12.58772 -30.69076,-1.40444 z m -29.26562,6.80548 c -7.46963,-1.36712 -9.25197,-3.25027 -13.41524,-14.17399 -2.64063,-6.92857 -4.09334,-13.23892 -3.22825,-14.023 0.8651,-0.78408 2.08346,-0.007 2.70748,1.72733 0.62403,1.73412 3.42244,5.74979 6.2187,8.92373 l 5.08411,5.7708 -4.35077,-7.09108 c -2.39292,-3.90008 -3.77994,-7.65801 -3.08226,-8.35094 0.69768,-0.69292 7.72701,-0.50596 15.62073,0.41547 13.52038,1.57824 14.44525,2.13614 15.95713,9.62576 0.88269,4.37273 2.1741,9.95826 2.86979,12.41229 1.74547,6.15707 -5.82186,5.80163 -16.69862,-0.78434 -4.74796,-2.87492 -9.21024,-4.65346 -9.9162,-3.95231 -0.70596,0.70115 2.60113,3.62703 7.34908,6.50195 9.01832,5.46067 8.8564,5.55557 -5.11568,2.99833 z m 116.43289,-0.30177 c 0.87261,-1.4023 2.09598,-2.54964 2.71861,-2.54964 0.62263,0 1.13206,1.14734 1.13206,2.54964 0,1.4023 -1.22338,2.54964 -2.71862,2.54964 -1.49524,0 -2.00466,-1.14734 -1.13205,-2.54964 z m 1.6089,-10.19855 c 0.23385,-7.99545 4.19308,-20.87483 4.55299,-14.81088 0.47435,7.99211 5.25301,7.45559 8.97613,-1.00779 3.14665,-7.15293 3.72766,-7.54396 3.90592,-2.62875 0.11873,3.27386 -3.65109,9.898 -8.70603,15.29782 -8.61152,9.19904 -8.90908,9.30641 -8.72901,3.1496 z m -118.73794,-25.8195 c 1.62884,6.51538 -5.29251,-7.48955 -4.14629,-21.67191 0.72232,-8.93723 0.31313,-16.24951 -0.9093,-16.24951 -3.7825,0 -5.62846,12.5303 -4.06393,27.58591 0.97505,9.38297 0.65911,13.07173 -0.90866,10.60924 -1.32189,-2.07628 -2.42112,-10.12913 -2.44274,-17.89522 -0.0548,-19.68292 7.95795,-34.65376 23.64962,-44.18644 11.27458,-6.8493 34.15693,-13.52203 31.4494,-9.17098 -0.65969,1.06014 0.58672,2.60828 2.76982,3.4403 2.28825,0.87211 3.30028,0.43774 2.38966,-1.02566 -3.40721,-5.47545 6.71364,-5.15926 18.28336,0.57119 15.4352,7.64502 18.93359,14.33994 4.47015,8.55458 -8.83279,-3.5331 -9.3404,-3.53653 -4.75434,-0.0322 2.82383,2.15778 7.73122,4.57092 10.90531,5.36251 l 5.77108,1.43926 -6.41286,7.56936 c -3.52707,4.16315 -6.41286,9.02451 -6.41286,10.80303 0,1.77852 -2.11697,5.13646 -4.70438,7.4621 -4.51677,4.05978 -4.65797,3.67246 -3.54047,-9.71137 0.64015,-7.66689 0.22395,-15.98905 -0.92491,-18.49368 -1.14885,-2.50463 -2.17697,-5.70122 -2.2847,-7.10352 -0.18348,-2.38809 -2.17314,-3.82445 -5.2977,-3.82445 -0.74222,0 0.41299,3.38503 2.56711,7.52229 5.00666,9.61589 5.01922,26.30814 0.027,35.89628 -2.13927,4.10873 -10.17635,12.08311 -17.86018,17.72084 -16.37849,12.01712 -40.64123,-7.26012 -37.6192,4.82801 z m 7.67037,-49.39478 c 4.66113,-4.90805 7.17057,-8.92373 5.57653,-8.92373 -3.28539,0 -15.48867,12.34624 -15.48867,15.67013 0,3.37578 0.84607,2.79993 9.91214,-6.7464 z m 112.73429,40.15678 c 0,6.68795 -1.36281,-23.01047 -1.69376,-36.33233 -0.33095,-13.32185 -1.39986,-24.88066 -2.37535,-25.68624 -1.57672,-1.30208 -24.92864,-6.75057 -48.80703,-11.3877 -4.68967,-0.91072 -7.96453,-2.21418 -7.27747,-2.89657 0.68707,-0.68239 11.45529,-3.92519 23.92937,-7.20623 12.47409,-3.28104 37.6535,-10.76488 55.95426,-16.63075 l 33.27409,-10.66522 5.8744,6.78289 c 11.22525,12.96126 6.42621,21.80652 -10.78578,19.87968 -6.44184,-0.72114 -15.87444,0.3336 -22.28423,2.4918 -8.94666,3.01237 -12.85784,3.15549 -20.05391,0.73382 l -8.93959,-3.00841 7.65603,-1.89966 c 10.0443,-2.49225 50.46953,-19.74447 49.20588,-20.99951 -0.53895,-0.53528 -12.40125,3.74783 -26.36066,9.51803 -13.95942,5.77019 -29.44126,10.53187 -34.4041,10.58148 l -9.02335,0.0902 10.26846,4.68724 c 5.64765,2.57798 11.80425,4.71732 13.68132,4.75409 2.42237,0.0475 2.93936,2.20802 1.78136,7.4445 -1.61826,7.3177 -1.42178,7.45717 24.18361,17.16679 l 25.81512,9.78915 v 11.66672 c 0,6.4167 -1.444,13.56651 -3.20889,15.88846 -2.47414,3.25505 -50.46443,27.34853 -54.47384,27.34853 -0.46415,0 -1.93594,-18.79871 -1.93594,-12.11077 z m 37.67741,-13.79485 c 3.59622,-1.62739 6.53858,-4.83993 6.53858,-7.13898 0,-2.29905 1.26222,-5.43372 2.80493,-6.96593 6.12119,-6.07952 -8.28135,-22.5428 -16.09,-18.39219 -2.68819,1.42888 -4.9594,1.38238 -5.89471,-0.12068 -4.17785,-6.71389 -14.19271,6.78065 -14.19271,19.124 0,7.49988 8.31571,16.45267 15.2819,16.45267 2.75739,0 7.95579,-1.3315 11.55201,-2.95889 z m -20.23276,-6.14695 c -2.21872,-2.20362 -4.03403,-6.57367 -4.03403,-9.71124 0,-5.57585 6.41867,-16.84248 8.16058,-14.32419 0.48347,0.69895 3.07832,3.86434 5.76634,7.03421 4.8342,5.70078 4.81995,5.83928 -1.31092,12.74818 l -6.19822,6.98479 6.62564,-5.77625 c 6.48163,-5.65071 6.72118,-5.6714 11.02107,-0.95243 4.01922,4.41096 4.03839,4.95989 0.22396,6.41366 -7.27982,2.77451 -16.08547,1.72383 -20.25442,-2.41673 z m 20.73388,-7.93893 c -0.89064,-0.88458 -0.18536,-3.36288 1.56728,-5.50733 2.65765,-3.25178 2.47204,-3.63331 -1.11814,-2.29837 -2.39155,0.88925 -5.65761,-0.0183 -7.34868,-2.0421 -2.41895,-2.89481 -2.11773,-3.99572 1.46709,-5.36198 7.02862,-2.67878 15.5732,11.58744 9.26085,15.46213 -1.21498,0.74578 -2.93776,0.63222 -3.8284,-0.25235 z M 402.79866,342.2276 c 0,-0.70115 -0.5776,-1.27482 -1.28356,-1.27482 -0.70596,0 -1.28356,0.57367 -1.28356,1.27482 0,0.70115 0.5776,1.27482 1.28356,1.27482 0.70596,0 1.28356,-0.57367 1.28356,-1.27482 z m -28.56997,54.35895 c 2.39501,-6.43026 9.46317,-11.71944 12.12641,-9.07433 2.12471,2.11024 -3.14042,8.84664 -9.59675,12.27844 -4.03867,2.14671 -4.3675,1.73021 -2.52966,-3.20411 z m 146.65722,-9.53181 c -48.72981,-12.49687 -82.14765,-23.11429 -82.14765,-26.09973 0,-0.92765 7.15551,-4.08664 15.90114,-7.01997 12.88045,-4.32018 22.26805,-5.34123 49.41695,-5.37484 18.43369,-0.0228 46.80061,-1.16962 63.03761,-2.54846 19.19378,-1.62992 35.80844,-1.63975 47.49161,-0.0281 9.88339,1.36338 23.74581,3.23807 30.80537,4.16599 l 12.83557,1.68713 -18.10118,8.61249 c -27.87791,13.26423 -49.87619,16.9336 -92.28473,15.39334 -28.71513,-1.04291 -40.51188,-2.65955 -58.68541,-8.04231 -12.5102,-3.70535 -23.21451,-6.2715 -23.78736,-5.70255 -1.47653,1.46648 33.31822,11.44331 51.6674,14.8148 9.15142,1.68148 30.50993,2.32112 52.62584,1.57601 31.78462,-1.07086 40.12522,-2.26033 57.08579,-8.1411 10.92445,-3.78786 23.97177,-9.65656 28.99404,-13.04156 7.97187,-5.37303 12.05074,-6.15455 32.12143,-6.15455 12.64451,0 22.99002,0.95516 22.99002,2.12257 0,1.16741 -12.41842,5.90903 -27.59648,10.53693 -15.17806,4.6279 -36.83808,11.22596 -48.13339,14.66235 -11.2953,3.43639 -29.58842,9.59447 -40.65137,13.68462 -11.06296,4.09015 -21.45977,7.35555 -23.10403,7.25645 -1.64426,-0.0991 -24.36079,-5.66087 -50.48117,-12.35951 z m -59.73889,-27.24527 c -0.85303,-0.84722 -3.06716,-0.9378 -4.9203,-0.20128 -2.04787,0.81391 -1.43958,1.41806 1.55096,1.5404 2.70617,0.11071 4.22237,-0.49189 3.36934,-1.33912 z m -71.18393,23.411 c 0,-5.20301 -19.7971,-21.30404 -28.53928,-23.21108 -4.07018,-0.88787 -7.40032,-2.67049 -7.40032,-3.96137 0,-2.947 -3.37653,-3.49666 30.1554,4.90912 l 28.87184,7.23759 -10.14843,9.32576 c -11.19097,10.28378 -12.93921,11.05391 -12.93921,5.69998 z m -35.9396,-12.94686 c 0,-0.70115 0.5776,-1.27482 1.28356,-1.27482 0.70595,0 1.28355,0.57367 1.28355,1.27482 0,0.70115 -0.5776,1.27482 -1.28355,1.27482 -0.70596,0 -1.28356,-0.57367 -1.28356,-1.27482 z m 84.71477,-17.84746 c 0,2.74115 5.07592,-3.78797 7.37389,-3.74337 3.51006,0.0681 3.38135,0.67963 -0.80498,3.82446 -6.48592,4.8723 -6.56891,-6.469 -6.56891,-0.0811 z m 13.97018,-4.06382 c -0.79069,-1.27065 0.26888,-2.31027 2.3546,-2.31027 2.08571,0 5.809,-0.76865 8.27396,-1.7081 2.81825,-1.0741 3.86387,-0.71516 2.81708,0.96706 -2.31569,3.72135 -11.70305,5.85169 -13.44564,3.05131 z m -111.52052,-6.34883 -11.55201,-3.53793 11.30525,1.33147 c 11.06205,1.30283 24.29137,6.30494 15.64944,5.91718 -2.11787,-0.095 -9.04907,-1.76486 -15.40268,-3.71072 z m 143.75839,0.2141 c 1.75767,-2.10345 5.65353,-3.83016 8.65745,-3.83714 3.00392,-0.007 23.3673,-4.66797 45.25194,-10.35775 64.10659,-16.66705 88.26195,-22.65133 88.89469,-22.02289 0.32637,0.32414 -13.39944,8.42424 -30.50179,18.00023 l -31.09518,17.41089 -30.97688,2.23747 c -47.06275,3.39936 -54.09891,3.19892 -50.23023,-1.43081 z m -108.17618,-6.16068 c 6.12508,-5.36937 15.76007,-7.22756 15.76007,-3.03945 0,1.25028 -2.78068,2.96639 -6.1793,3.81359 -3.39861,0.84719 -8.30822,2.21494 -10.91023,3.03945 -3.71783,1.17807 -3.43314,0.36142 1.32946,-3.81359 z m -54.03334,0.59454 c 1.85313,-0.73652 4.06727,-0.64594 4.9203,0.20128 0.85303,0.84723 -0.66317,1.44983 -3.36934,1.33912 -2.99054,-0.12234 -3.59883,-0.72649 -1.55096,-1.5404 z m -0.80223,-5.70396 c -40.13979,-10.17607 -60.49138,-16.75546 -76.04999,-24.58593 -14.16071,-7.12692 -36.25499,-27.86343 -43.9635,-41.26179 l -4.49336,-7.81002 10.91115,1.36758 c 6.00113,0.75217 12.64394,2.80374 14.76181,4.55905 4.80945,3.98611 54.75879,31.97528 98.83389,55.38169 18.35487,9.74748 33.85382,18.18898 34.44212,18.75888 2.32661,2.25387 -7.43473,0.43734 -34.44212,-6.40946 z m -15.40268,2.34637 c -3.2362,-1.38117 -3.71071,-2.19123 -1.28356,-2.19123 2.11787,0 6.16108,0.98606 8.9849,2.19123 3.23621,1.38118 3.71071,2.19124 1.28356,2.19124 -2.11787,0 -6.16108,-0.98606 -8.9849,-2.19124 z m 28.88003,-32.03877 c -18.00188,-17.53798 -32.7307,-32.29376 -32.7307,-32.79062 0,-0.49686 10.40759,2.9868 23.12798,7.74146 12.72039,4.75466 24.76532,8.64483 26.76651,8.64483 2.00119,0 6.57387,6.36798 10.16151,14.15107 3.58764,7.78309 8.90673,17.47595 11.82021,21.53968 5.24569,7.31675 5.24814,7.41471 0.25175,10.07049 -2.775,1.47502 -5.41021,2.64777 -5.85601,2.6061 -0.4458,-0.0417 -15.53936,-14.42502 -33.54125,-31.96301 z m 59.68541,29.9645 c 0,-3.19774 6.32851,-5.57464 14.8425,-5.57464 8.68126,0 4.56832,3.99186 -6.49938,6.30807 -4.89836,1.0251 -8.34312,0.72228 -8.34312,-0.73343 z m -143.75839,-12.90377 -42.35739,-12.1192 -20.53691,-21.34092 c -11.2953,-11.73751 -23.13611,-23.84274 -26.31292,-26.90053 -7.79998,-7.50775 -7.28386,-8.7698 2.56712,-6.27728 4.58871,1.16105 12.41426,2.79296 17.3901,3.62646 6.89678,1.15527 10.16929,3.58526 13.76908,10.22416 6.55748,12.09359 28.12425,33.42406 41.90324,41.44411 6.33245,3.6858 23.24118,10.46772 37.57497,15.07094 38.38687,12.32774 24.67083,10.19707 -23.99729,-3.72774 z m 234.91541,5.73358 c -3.63848,-5.51521 -3.80358,-7.08067 -0.93702,-8.88468 1.91381,-1.20443 4.53859,-2.20744 5.83285,-2.22891 1.29425,-0.0215 1.68199,-0.70567 0.86164,-1.52043 -0.82035,-0.81477 -3.99983,-0.14814 -7.0655,1.48139 -3.06568,1.62953 -6.21283,2.32826 -6.99368,1.55273 -1.973,-1.95957 11.76351,-6.96083 21.3149,-7.76045 4.34689,-0.36391 16.30156,-3.8489 26.56593,-7.74444 14.86127,-5.64014 20.04888,-9.07539 25.46905,-16.86565 3.7436,-5.38057 7.70296,-9.8264 8.79857,-9.87962 1.0956,-0.0532 7.71899,4.14972 14.71863,9.33986 13.65721,10.12664 13.1834,13.40025 -1.94974,13.47107 -7.19841,0.0337 -8.34312,-0.83552 -8.34312,-6.33505 0,-3.50575 -0.91194,-6.37409 -2.02654,-6.37409 -1.11459,0 -1.98099,2.97041 -1.92533,6.60092 0.0903,5.89178 -3.48404,8.48588 -33.27129,24.14677 -18.35486,9.65022 -34.10602,17.5795 -35.00257,17.62063 -0.89655,0.0411 -3.6176,-2.93789 -6.04678,-6.62005 z m 11.52754,-14.97709 c 0,-0.70115 -0.5776,-1.27481 -1.28356,-1.27481 -0.70595,0 -1.28355,0.57366 -1.28355,1.27481 0,0.70115 0.5776,1.27482 1.28355,1.27482 0.70596,0 1.28356,-0.57367 1.28356,-1.27482 z"
     id="path1"
     sodipodi:nodetypes="cccccccccccsccccccccsscccccccccccccccccccccccccccccccssccccccccscccccsccccccccscccccscsccccccsccccccccccccccccccccccccccscccccccccccccsccccccsccccccccccccccccccsccccccsccccccccccccccsccccccscccccscccssccccccscsccccccccccssssssssssssssssscssscsscssssssssssssssssssssssssssssssssssssssssssssssssssssscccsssscsscsssssssssscsssssssssscsssssssssssssssssssssssssssssscssssssssssssssssssssssssssscccssssssssscssssssssssssscssssssscsssssssssssssssscccccssssssssssscsssssssssssssssssssssssssssssssssscssssssssssssssssssssssscsssscsssscsssscsssssssssssssssssscssssssssssssssssssssssssssscssssssssssssssssssssssscsssssssssssssssssscsssssssscsssssssssssssscsssssssssssssssssssssssscsssssssssssssssssssssssssssssss"
     inkscape:label="path1"
     style="display:inline" /><text
     transform="translate(-23.585787,-55.769552)"
     x="144.12617"
     y="663.52429"
     fill="#000000"
     font-size="29px"
     style="font-size:30.6667px;line-height:1.1;white-space:pre;inline-size:584.851;display:inline"
     xml:space="preserve"
     id="text9"><tspan
       x="144.12617"
       y="663.52429"
       id="tspan1">As part of your movement, you may </tspan><tspan
       x="144.12617"
       y="697.25769"
       id="tspan2">move one group of your forces up to </tspan><tspan
       x="144.12617"
       y="730.99109"
       id="tspan3">3 territories, or move 2 different </tspan><tspan
       x="144.12617"
       y="764.72448"
       id="tspan4">groups of your forces up to your </tspan><tspan
       x="144.12617"
       y="798.45788"
       id="tspan5">normal movement. Discard after use.</tspan></text><text
     transform="translate(117.05112,192.71261)"
     fill="#000000"
     font-size="43px"
     style="font-size:40px;white-space:pre;shape-inside:url(#rect2);display:inline"
     xml:space="preserve"
     id="text10"><tspan
       x="0"
       y="0"
       id="tspan7">Special - Movement</tspan></text></svg>
