<?xml version="1.0" encoding="UTF-8"?>
<!-- Created with Inkscape (http://www.inkscape.org/) -->
<svg width="822" height="1122" version="1.1" viewBox="0 0 822 1122" xml:space="preserve" xmlns="http://www.w3.org/2000/svg"><path d="m89 1e3c-4.5-1.3-6.7-2.9-8.9-6.5l-2.2-3.5 0.053-461c0.029-254 0.072-465 0.096-469 0.042-7.1 0.16-7.4 4-12l3.9-4.2 320-0.26c237-0.19 321 0.035 323 0.87 1.5 0.62 4.1 2.7 5.7 4.5l3 3.4-2e-3 469c-2e-3 460-0.037 469-1.9 472-1.1 1.7-3.4 4-5.2 5.1-3.5 2.1-634 3.6-641 1.5zm44-8.3c0-4.6-0.35-5.9-1.8-6.4-5.7-1.9-13-6-18-9.5l-5.4-4-11 11c-15 15-16 14 16 14h21zm219 0.45 0.3-5.2-4.3-0.017c-2.4-0.01-51-0.012-108-0.01l-104 0.012-0.32 3.1c-0.18 1.7-0.085 4.1 0.21 5.3l0.53 2.1 215-0.15zm36 1.1c6-20 35-20 40 1 0.47 1.9 1.3 2.8 2.9 2.8 3.9 0.12 13 0.13 21 0.03l7.7-0.096 0.69-10h-19l-33-16-30 15h-22l-0.31 4.4c-0.51 7-1 6.8 16 6.6l15-0.2zm290-0.96-1e-5 -5.2-42-0.27c-23-0.15-71-0.15-108-6e-4l-66 0.27v4.9c0 6.2-13 5.5 110 5.5h105zm50 4.1c1.6-0.92 0.38-2.5-10-13l-12-12-2.5 2.3c-4.5 4.1-12 8.6-18 10l-5.3 1.7v5.2c0 4.7 0.24 5.3 2.2 5.6 5.8 0.83 43 0.18 45-0.77zm-304-1.7c-5-16-25-18-33-3.7-3.1 6-3.2 5.9 16 5.9h18zm309-3c1.7-4.3 0.77-47-0.97-47-0.99-0.021-3.4-0.28-5.5-0.57-3.5-0.51-3.7-0.38-4.9 3.3-2 6-5.9 13-9.6 18l-3.4 4.1 11 11c12 12 12 12 13 11zm-648-1.5c1-0.96 6.2-6 11-11l9.6-9.3-3.9-5.2c-4.2-5.6-8.4-14-9.4-18-0.6-2.5-1-2.7-6.1-2.7h-5.5l-0.029 10c-0.016 5.6-0.092 15-0.17 22-0.18 15 0.55 18 4 14zm307-15c8.3-4.1 15-7.5 16-7.5s7.3 3.4 16 7.5l15 7.5h245l8.3-4.2c11-5.4 19-14 25-25l3.8-7.7 0.51-804h-23l-1.2 6.7c-11 65-111 63-121-2.2l-0.68-4.5h-480l-0.016 74c-0.0088 41-0.015 221-0.014 400l0.0023 327 2.1 5.6c4.9 13 14 23 27 30l7.9 4h245zm-301-41c0.0089-3.4 0.022-192 0.03-419l0.014-412-11-0.58 0.2 417c0.11 230 0.22 418 0.25 419 0.037 1.4 0.97 1.8 5 1.8h5zm643-413 0.027-419h-11v838h11zm-84-328c31-6 52-43 42-74-19-61-110-49-113 14-2.1 39 31 67 71 60zm-57-83c28-43 94-24 94 28 0 34-31 54-58 50-30-2.9-58-37-36-78zm65 71c38-19 35-74-5.4-88-15-5-24-4.2-40 3.8-8.2 4-20 19-21 27-0.31 1.7-0.84 3.6-1.2 4.2-2.1 3.5-0.76 20 2.2 27 0.73 1.6 2.1 4.6 2.9 6.6 9.2 20 41 30 63 19zm-563-87c2-5.8 6.1-13 9.9-17l2.6-2.8-11-11c-14-13-14-13-14-0.13-0.0087 5.4-0.065 15-0.12 21-0.16 17-0.75 15 5.7 15l5.6-0.3zm640-18c-0.38-28 0.58-27-13-13l-12 12 2.6 2.8c3.3 3.6 8 12 9.6 17 1.8 5.7 1.6 5.5 7.6 5.5h5.5zm-310-11 15-7.5h20l0.35-5.1c0.44-6.5 1.9-5.9-15-5.9h-15l-1.5 3.8c-3.9 9.9-9.1 14-18 15-11 0.89-20-5.7-23-17-0.38-1.3-2.8-1.5-16-1.5l-15 0.05v10l23 1 14 7.2c17 8.7 13 8.8 31-0.2zm-310 2.5c2.9-2.2 8.3-5.2 12-6.7l6.8-2.7v-5.3c0-6.8 0.7-6.6-25-6.2-26 0.43-26 0.015-12 13 5.8 5.6 11 11 11 11 0.63 1.4 2.1 0.75 7.4-3.3zm614-19c-0.65-0.65-9.4-1-24-1h-23v11l5 1.7c5.5 1.9 12 5.7 17 9.6l3 2.5 11-11c7.7-7.7 11-11 10-12zm-314 13c5.1-2.6 11-9.3 11-13 0-0.3-7.9-0.54-18-0.54-19 0-19 0.02-16 4.8 4.3 8.3 15 12 23 8.6zm-62-3.4-0.24-10h-215l-0.1 3.5c-0.22 7.7-5.5 7 55 7.3 30 0.14 74 0.16 98 0.029s48-0.24 53-0.25zm281 0.02 45-0.021v-11l-106 0.037c-122 0.043-109-0.62-109 5.9l0.35 5c57 0.7 113 0.09 170 0.042zm-0.22 509c-0.17-0.17-116-0.4-258-0.51-238-0.18-258-0.32-261-1.9-3.8-2.1-6.9-5.4-9.2-10-1.7-3.4-1.8-12-2.1-161-0.22-135-0.051-158 1.2-162 1.6-5.2 6.5-11 11-13 2.4-1 60-1.2 288-0.82 157 0.26 287 0.7 289 0.98 3.9 0.59 9.8 5.5 12 10 1.5 2.9 1.6 18 1.4 164-0.14 88-0.62 162-1.1 163-1.3 3.4-6 8.6-9.5 11-2.8 1.5-6.9 1.7-32 1.7-16 0.01-29-0.12-30-0.3zm62-4.7c1.8-1.1 4.4-4.1 5.7-6.6l2.5-4.7 0.36-159c0.34-151 0.27-159-1.5-163-1-2.2-3.5-5.2-5.5-6.6l-3.7-2.5-60-0.18c-33-0.099-162-0.33-288-0.51l-228-0.33-3.8 2.5c-2.1 1.4-4.7 4.4-5.8 6.7-2.3 4.6-2.1-18-1.9 239 0.025 50 0.42 81 1.1 83 1.3 4.8 4.4 8.5 9.2 11 3.7 1.9 9.5 1.9 213 1.8 115-0.063 209 0.054 209 0.26 0.21 0.21 35 0.38 77 0.38 74 0 77-0.07 80-2zm-67-403c6.2-4.4 5.4-8.7-1.8-8.7-2.5 0-6.8-2-9.4-4.5-4.1-3.7-4.6-6.6-3.3-17 0.88-7 1.3-13 1-14s1.6-3.6 4.3-6.3c3.5-3.6 4.5-3.9 3.4-1-0.85 2.2 0.23 5.5 2.4 7.3 5.8 4.8 4.8 11-2.9 17-6.5 5.2-6.6 5.7-2.6 9.8 4 4.1 4.7 3.9 11-2.6 3.5-3.8 6.4-7.9 6.4-9.1 0-5.1 4.7-1.6 6.4 4.8 1.8 7 1.8 7 4.5 1.3 3.8-8.2 15-7.9 15 0.32 0 3.3-1.7 7.5-3.8 9.2-2.1 1.7-3.2 4.1-2.5 5.2s0.2 2.8-1.1 3.6c-1.3 0.82-3.1 0.33-4-1.1-2.3-3.7-6.4-3.2-6.4 0.84 0 1.9 2.6 4.7 5.7 6.2 4.8 2.3 3 2.8-11 2.9-16 0.16-16-0.023-11-3.8zm29-24c-2-2-3.1-0.81-4 4-1.2 6.2-0.94 6.4 2.7 2.7 2.9-2.9 3.3-4.8 1.3-6.8zm-34-15c0-4.4-4.5-2.1-5.9 3-1.1 4.3-0.72 4.7 2.2 2.2 2-1.7 3.6-4 3.6-5.2zm-462-2.5c5.3-5.3 6.3-8.1 5-15-3.4-17-26-23-39-11-8.3 8.3-8 15 1.2 25 9.9 9.9 23 10 33 0.91zm-26-7.1c-6.8-10 1.6-20 14-16 6.5 2.1 7.3 18 1.1 20-7.3 2.8-11 1.6-15-4.5zm46 7.3c-1.2-4.6-0.58-6.4 2.1-6.4 2 0 5.2 2.9 7.1 6.4 2.9 5.4 5.2 6.4 16 6.4h12l0.14-19 8.9 9.6c13 14 17 13 17-5.7 0-14-0.57-15-5.1-15-4.1 0-5.1 1.7-5.1 8.1v8.1l-8.5-8.1c-13-13-17-11-17 6.4v15l-5.8-5.7c-4.5-4.5-5-6.2-2.3-7.9 1.9-1.2 3-4.9 2.6-8.2-0.77-5.4-2.5-6.2-16-7.4-8.2-0.73-15-0.52-16 0.46-0.61 0.98-0.36 8.2 0.57 16 1.4 12 2.6 14 6.5 14 3.9 0 4.5-1.3 3.2-6.4zm-1.1-17c0-3 4.5-3 12 0 4.3 1.8 3.8 2.2-3.2 2.4-4.6 0.099-8.3-0.97-8.3-2.4zm80 7.6c0-14-0.57-15-5.1-15-4.6 0-5.1 1.7-5.1 15 0 14 0.57 15 5.1 15 4.6 0 5.1-1.7 5.1-15zm23 2.5c0-11 0.68-13 5.1-13 2.8 0 5.1-1.5 5.1-3.3 0-2.3-4.5-3.3-15-3.2-12 0.075-15 0.91-15 4.1-6e-3 2.5 2.1 4 5.6 3.8 5-0.18 5.6 1 5.4 12-0.21 10 0.48 12 4.7 12 4.2 0 4.9-1.9 4.9-13zm24 6.4c-1.5-5.8-0.86-6.4 6.4-6.4 6.8 0 8 0.94 8 6.4 0 4.8 1.4 6.4 5.4 6.4 5.1 0 5.3-0.88 3.6-16-2.1-18-2.2-18-7.4-16-2.3 0.89-3.2 3.4-2.4 6.7 1.2 4.5 0.2 5.3-6.4 5.3-6.2 0-8-1.2-8.6-5.7-0.45-3.2-2.5-5.7-4.6-5.7-2.9 0-3.8 3.7-3.9 16-0.087 15 0.29 16 5.7 16 4.9-1.1e-4 5.6-0.98 4.2-6.4zm57 2.4c4-2.8 5.7-6.6 5.7-13 0-6-1.7-9.8-5.7-13-19-13-41 9.8-23 24 8.1 6.3 16 6.7 23 1.3zm-17-7.4c-4.8-5.8-2.2-13 4.8-13 8.1 0 13 7.1 8.1 13-4.2 5-8.9 5.2-13 0.34zm38 4.6c-0.95-4.9-0.058-5.9 5.1-5.9 9 0 16-4.5 16-10 0-6.5-7.5-10-20-10h-10v15c0 16 0.5 17 6.6 17 2.9 0 3.7-1.7 2.9-5.9zm-1.9-16c0-1.4 3.5-2.5 7.7-2.5s7.7 1.1 7.7 2.5c0 1.4-3.5 2.5-7.7 2.5s-7.7-1.1-7.7-2.5zm45 8.9c-1.7-11-1.5-11 4.8-11 4.1 0 6.6-1.4 6.6-3.8 0-3-3.6-3.8-17-3.8-14 0-16 0.67-15 3.8 0.81 2.1 3.7 3.8 6.3 3.8 4 0 4.9 1.9 4.9 11 0 10 0.71 11 5.4 11 5 0 5.3-0.95 3.7-11zm45 7.4c0-3.2-2.1-3.9-10-3.1-7.1 0.68-10-0.023-10-2.3 0-1.8 2.9-3.3 6.4-3.3 3.9 0 6.4-1.5 6.4-3.7 0-2.3-2.3-3.5-6.3-3.2-3.5 0.26-6.3-0.63-6.4-2-0.076-1.4 3.9-2.4 8.8-2.4 5.7 0.022 9-1.2 9-3.3 0-2.3-4.3-3.3-14-3.3h-14v31h15c12 0 15-0.79 15-4.1zm13-2.5c0-7.8 5.2-7.2 9 1 1.5 3.3 4.9 5.6 8.3 5.6 6.9 0 7.3-1.8 1.5-8.1-4-4.4-4-4.9 0.64-8.3 3.9-2.9 4.4-4.6 2.1-8.2-2.1-3.4-6.7-4.8-17-5.4l-15-0.77 0.61 15c0.51 13 1.4 15 5.2 15 3.2 0 4.6-2 4.6-6.6zm0-15c0-2.7 2.2-4.1 6.4-4.1 3.5 0 6.4 1.1 6.4 2.5s-1.1 2.5-2.4 2.5c-1.3 0-4.2 0.7-6.4 1.5-2.7 1-4.1 0.14-4.1-2.5zm-135 402c-2.8-1.2-9.1-2.2-14-2.3-14-0.28-8.6-2.2 22-7.9 52-10 121-35 133-49l7.2-8.1-4.9 11c-2.7 6.1-5.9 12-7.2 13-4.2 4.1-92 35-125 44-2.8 0.77-7.4 0.43-10-0.76zm-46-9.3c-3.3-3.3-1.7-6.6 1.8-3.7 2.7 2.2 5.2 1.6 11-2.7l7.4-5.6-6.2 6.9c-6.2 6.8-11 8.4-14 5.2zm-38-5.8c-12-1.8-12-1.6 8.4-9 9.4-3.4 26-2.6 29 1.4 1.3 2.2-18 10-23 9.7-1.7-0.21-8.4-1.1-15-2.1zm87-3.9c0-4.1-5.2-3.7-3.7-3.7 1.5-0.05 5 1.6 7.7 3.7 6.3 4.8-4 9.6-4 0.081zm-27-18c-1-6.6-2.4-13-3.1-15-0.73-1.9 4.8-7.8 13-14 7.9-5.8 28-21 44-35l30-24v66l-17 8.5-15-16c-18-20-19-19-2.2 1.6 7 8.1 12 16 12 16-0.6 0.96-4 2.5-7.6 3.4-3.6 0.9-14 5-23 9.1-28 13-29 13-31-1.4zm-29 6.8c-7.5-1.4-9.3-3.3-13-14-2.6-6.9-4.1-13-3.2-14 0.87-0.78 2.1-7e-3 2.7 1.7 0.62 1.7 3.4 5.7 6.2 8.9l5.1 5.8-4.4-7.1c-2.4-3.9-3.8-7.7-3.1-8.4 0.7-0.69 7.7-0.51 16 0.42 14 1.6 14 2.1 16 9.6 0.88 4.4 2.2 10 2.9 12 1.7 6.2-5.8 5.8-17-0.78-4.7-2.9-9.2-4.7-9.9-4s2.6 3.6 7.3 6.5c9 5.5 8.9 5.6-5.1 3zm116-0.3c0.87-1.4 2.1-2.5 2.7-2.5s1.1 1.1 1.1 2.5-1.2 2.5-2.7 2.5-2-1.1-1.1-2.5zm1.6-10c0.23-8 4.2-21 4.6-15 0.47 8 5.3 7.5 9-1 3.1-7.2 3.7-7.5 3.9-2.6 0.12 3.3-3.7 9.9-8.7 15-8.6 9.2-8.9 9.3-8.7 3.1zm-119-26c1.6 6.5-5.3-7.5-4.1-22 0.72-8.9 0.31-16-0.91-16-3.8 0-5.6 13-4.1 28 0.98 9.4 0.66 13-0.91 11-1.3-2.1-2.4-10-2.4-18-0.055-20 8-35 24-44 11-6.8 34-14 31-9.2-0.66 1.1 0.59 2.6 2.8 3.4 2.3 0.87 3.3 0.44 2.4-1-3.4-5.5 6.7-5.2 18 0.57 15 7.6 19 14 4.5 8.6-8.8-3.5-9.3-3.5-4.8-0.032 2.8 2.2 7.7 4.6 11 5.4l5.8 1.4-6.4 7.6c-3.5 4.2-6.4 9-6.4 11s-2.1 5.1-4.7 7.5c-4.5 4.1-4.7 3.7-3.5-9.7 0.64-7.7 0.22-16-0.92-18-1.1-2.5-2.2-5.7-2.3-7.1-0.18-2.4-2.2-3.8-5.3-3.8-0.74 0 0.41 3.4 2.6 7.5 5 9.6 5 26 0.027 36-2.1 4.1-10 12-18 18-16 12-41-7.3-38 4.8zm7.7-49c4.7-4.9 7.2-8.9 5.6-8.9-3.3 0-15 12-15 16 0 3.4 0.85 2.8 9.9-6.7zm113 40c0 6.7-1.4-23-1.7-36-0.33-13-1.4-25-2.4-26-1.6-1.3-25-6.8-49-11-4.7-0.91-8-2.2-7.3-2.9 0.69-0.68 11-3.9 24-7.2 12-3.3 38-11 56-17l33-11 5.9 6.8c11 13 6.4 22-11 20-6.4-0.72-16 0.33-22 2.5-8.9 3-13 3.2-20 0.73l-8.9-3 7.7-1.9c10-2.5 50-20 49-21-0.54-0.54-12 3.7-26 9.5-14 5.8-29 11-34 11l-9 0.09 10 4.7c5.6 2.6 12 4.7 14 4.8 2.4 0.048 2.9 2.2 1.8 7.4-1.6 7.3-1.4 7.5 24 17l26 9.8v12c0 6.4-1.4 14-3.2 16-2.5 3.3-50 27-54 27-0.46 0-1.9-19-1.9-12zm38-14c3.6-1.6 6.5-4.8 6.5-7.1s1.3-5.4 2.8-7c6.1-6.1-8.3-23-16-18-2.7 1.4-5 1.4-5.9-0.12-4.2-6.7-14 6.8-14 19 0 7.5 8.3 16 15 16 2.8 0 8-1.3 12-3zm-20-6.1c-2.2-2.2-4-6.6-4-9.7 0-5.6 6.4-17 8.2-14 0.48 0.7 3.1 3.9 5.8 7 4.8 5.7 4.8 5.8-1.3 13l-6.2 7 6.6-5.8c6.5-5.7 6.7-5.7 11-0.95 4 4.4 4 5 0.22 6.4-7.3 2.8-16 1.7-20-2.4zm21-7.9c-0.89-0.88-0.19-3.4 1.6-5.5 2.7-3.3 2.5-3.6-1.1-2.3-2.4 0.89-5.7-0.018-7.3-2-2.4-2.9-2.1-4 1.5-5.4 7-2.7 16 12 9.3 15-1.2 0.75-2.9 0.63-3.8-0.25zm-56-56c0-0.7-0.58-1.3-1.3-1.3s-1.3 0.57-1.3 1.3 0.58 1.3 1.3 1.3 1.3-0.57 1.3-1.3zm-29 54c2.4-6.4 9.5-12 12-9.1 2.1 2.1-3.1 8.8-9.6 12-4 2.1-4.4 1.7-2.5-3.2zm147-9.5c-49-12-82-23-82-26 0-0.93 7.2-4.1 16-7 13-4.3 22-5.3 49-5.4 18-0.023 47-1.2 63-2.5 19-1.6 36-1.6 47-0.028 9.9 1.4 24 3.2 31 4.2l13 1.7-18 8.6c-28 13-50 17-92 15-29-1-41-2.7-59-8-13-3.7-23-6.3-24-5.7-1.5 1.5 33 11 52 15 9.2 1.7 31 2.3 53 1.6 32-1.1 40-2.3 57-8.1 11-3.8 24-9.7 29-13 8-5.4 12-6.2 32-6.2 13 0 23 0.96 23 2.1s-12 5.9-28 11-37 11-48 15c-11 3.4-30 9.6-41 14-11 4.1-21 7.4-23 7.3s-24-5.7-50-12zm-60-27c-0.85-0.85-3.1-0.94-4.9-0.2-2 0.81-1.4 1.4 1.6 1.5 2.7 0.11 4.2-0.49 3.4-1.3zm-71 23c0-5.2-20-21-29-23-4.1-0.89-7.4-2.7-7.4-4 0-2.9-3.4-3.5 30 4.9l29 7.2-10 9.3c-11 10-13 11-13 5.7zm-36-13c0-0.7 0.58-1.3 1.3-1.3 0.71 0 1.3 0.57 1.3 1.3s-0.58 1.3-1.3 1.3c-0.71 0-1.3-0.57-1.3-1.3zm85-18c0 2.7 5.1-3.8 7.4-3.7 3.5 0.068 3.4 0.68-0.8 3.8-6.5 4.9-6.6-6.5-6.6-0.081zm14-4.1c-0.79-1.3 0.27-2.3 2.4-2.3 2.1 0 5.8-0.77 8.3-1.7 2.8-1.1 3.9-0.72 2.8 0.97-2.3 3.7-12 5.9-13 3.1zm-112-6.3-12-3.5 11 1.3c11 1.3 24 6.3 16 5.9-2.1-0.095-9-1.8-15-3.7zm144 0.21c1.8-2.1 5.7-3.8 8.7-3.8 3-7e-3 23-4.7 45-10 64-17 88-23 89-22 0.33 0.32-13 8.4-31 18l-31 17-31 2.2c-47 3.4-54 3.2-50-1.4zm-108-6.2c6.1-5.4 16-7.2 16-3 0 1.3-2.8 3-6.2 3.8-3.4 0.85-8.3 2.2-11 3-3.7 1.2-3.4 0.36 1.3-3.8zm-54 0.59c1.9-0.74 4.1-0.65 4.9 0.2 0.85 0.85-0.66 1.4-3.4 1.3-3-0.12-3.6-0.73-1.6-1.5zm-0.8-5.7c-40-10-60-17-76-25-14-7.1-36-28-44-41l-4.5-7.8 11 1.4c6 0.75 13 2.8 15 4.6 4.8 4 55 32 99 55 18 9.7 34 18 34 19 2.3 2.3-7.4 0.44-34-6.4zm-15 2.3c-3.2-1.4-3.7-2.2-1.3-2.2 2.1 0 6.2 0.99 9 2.2 3.2 1.4 3.7 2.2 1.3 2.2-2.1 0-6.2-0.99-9-2.2zm29-32c-18-18-33-32-33-33s10 3 23 7.7 25 8.6 27 8.6 6.6 6.4 10 14 8.9 17 12 22c5.2 7.3 5.2 7.4 0.25 10-2.8 1.5-5.4 2.6-5.9 2.6-0.45-0.042-16-14-34-32zm60 30c0-3.2 6.3-5.6 15-5.6 8.7 0 4.6 4-6.5 6.3-4.9 1-8.3 0.72-8.3-0.73zm-144-13-42-12-21-21c-11-12-23-24-26-27-7.8-7.5-7.3-8.8 2.6-6.3 4.6 1.2 12 2.8 17 3.6 6.9 1.2 10 3.6 14 10 6.6 12 28 33 42 41 6.3 3.7 23 10 38 15 38 12 25 10-24-3.7zm235 5.7c-3.6-5.5-3.8-7.1-0.94-8.9 1.9-1.2 4.5-2.2 5.8-2.2 1.3-0.022 1.7-0.71 0.86-1.5-0.82-0.81-4-0.15-7.1 1.5-3.1 1.6-6.2 2.3-7 1.6-2-2 12-7 21-7.8 4.3-0.36 16-3.8 27-7.7 15-5.6 20-9.1 25-17 3.7-5.4 7.7-9.8 8.8-9.9 1.1-0.053 7.7 4.1 15 9.3 14 10 13 13-1.9 13-7.2 0.034-8.3-0.84-8.3-6.3 0-3.5-0.91-6.4-2-6.4-1.1 0-2 3-1.9 6.6 0.09 5.9-3.5 8.5-33 24-18 9.7-34 18-35 18-0.9 0.041-3.6-2.9-6-6.6zm12-15c0-0.7-0.58-1.3-1.3-1.3-0.71 0-1.3 0.57-1.3 1.3s0.58 1.3 1.3 1.3c0.71 0 1.3-0.57 1.3-1.3z"/><text transform="translate(-24 -56)" x="144.12617" y="663.52429" fill="#000000" font-size="31px" style="inline-size:584.851;line-height:1.1;white-space:pre" xml:space="preserve"><tspan x="144.12617" y="663.52429">As part of your movement, you may </tspan><tspan x="144.12617" y="697.25769">move one group of your forces up to </tspan><tspan x="144.12617" y="730.99109">3 territories, or move 2 different </tspan><tspan x="144.12617" y="764.72448">groups of your forces up to your </tspan><tspan x="144.12617" y="798.45788">normal movement. Discard after use.</tspan></text><text transform="translate(117 193)" fill="#000000" font-size="40px" style="shape-inside:url(#rect2);white-space:pre" xml:space="preserve"><tspan x="0" y="0">Special - Movement</tspan></text></svg>
