<?xml version="1.0" encoding="UTF-8" standalone="no"?>
<!-- Created with Inkscape (http://www.inkscape.org/) -->

<svg
   width="822"
   height="1122"
   version="1.1"
   viewBox="0 0 822 1122"
   xml:space="preserve"
   id="svg10"
   sodipodi:docname="Poison Blade (Full Res).svg"
   inkscape:version="1.4 (86a8ad7, 2024-10-11)"
   xmlns:inkscape="http://www.inkscape.org/namespaces/inkscape"
   xmlns:sodipodi="http://sodipodi.sourceforge.net/DTD/sodipodi-0.dtd"
   xmlns="http://www.w3.org/2000/svg"
   xmlns:svg="http://www.w3.org/2000/svg"><defs
     id="defs10" /><sodipodi:namedview
     id="namedview10"
     pagecolor="#ffffff"
     bordercolor="#000000"
     borderopacity="0.25"
     inkscape:showpageshadow="2"
     inkscape:pageopacity="0.0"
     inkscape:pagecheckerboard="0"
     inkscape:deskcolor="#d1d1d1"
     inkscape:zoom="1.040107"
     inkscape:cx="315.8329"
     inkscape:cy="469.66324"
     inkscape:window-width="2560"
     inkscape:window-height="1369"
     inkscape:window-x="1072"
     inkscape:window-y="317"
     inkscape:window-maximized="1"
     inkscape:current-layer="svg10" /><path
     d="m 89,1000 c -4.5,-1.3 -6.7,-2.9 -8.9,-6.5 L 77.9,990 77.953,529 c 0.029,-254 0.072,-465 0.096,-469 0.042,-7.1 0.16,-7.4 4,-12 l 3.9,-4.2 320,-0.26 c 237,-0.19 321,0.035 323,0.87 1.5,0.62 4.1,2.7 5.7,4.5 l 3,3.4 -0.002,469 c -0.002,460 -0.037,469 -1.9,472 -1.1,1.7 -3.4,4 -5.2,5.1 -3.5,2.1 -634,3.6 -641,1.5 z m 44,-8.3 c 0,-4.6 -0.35,-5.9 -1.8,-6.4 -5.7,-1.9 -13,-6 -18,-9.5 l -5.4,-4 -11,11 c -15,15 -16,14 16,14 h 21 z m 219,0.45 0.3,-5.2 -4.3,-0.017 c -2.4,-0.01 -51,-0.012 -108,-0.01 l -104,0.012 -0.32,3.1 c -0.18,1.7 -0.085,4.1 0.21,5.3 l 0.53,2.1 215,-0.15 z m 36,1.1 c 6,-20 35,-20 40,1 0.47,1.9 1.3,2.8 2.9,2.8 3.9,0.12 13,0.13 21,0.03 l 7.7,-0.096 0.69,-10 h -19 l -33,-16 -30,15 h -22 l -0.31,4.4 c -0.51,7 -1,6.8 16,6.6 l 15,-0.2 z m 290,-0.96 -10e-6,-5.2 -42,-0.27 c -23,-0.15 -71,-0.15 -108,-6e-4 l -66,0.27 v 4.9 c 0,6.2 -13,5.5 110,5.5 h 105 z m 50,4.1 c 1.6,-0.92 0.38,-2.5 -10,-13 l -12,-12 -2.5,2.3 c -4.5,4.1 -12,8.6 -18,10 l -5.3,1.7 v 5.2 c 0,4.7 0.24,5.3 2.2,5.6 5.8,0.83 43,0.18 45,-0.77 z m -304,-1.7 c -5,-16 -25,-18 -33,-3.7 -3.1,6 -3.2,5.9 16,5.9 h 18 z m 309,-3 c 1.7,-4.3 0.77,-47 -0.97,-47 -0.99,-0.021 -3.4,-0.28 -5.5,-0.57 -3.5,-0.51 -3.7,-0.38 -4.9,3.3 -2,6 -5.9,13 -9.6,18 l -3.4,4.1 11,11 c 12,12 12,12 13,11 z m -648,-1.5 c 1,-0.96 6.2,-6 11,-11 l 9.6,-9.3 -3.9,-5.2 c -4.2,-5.6 -8.4,-14 -9.4,-18 -0.6,-2.5 -1,-2.7 -6.1,-2.7 h -5.5 l -0.029,10 c -0.016,5.6 -0.092,15 -0.17,22 -0.18,15 0.55,18 4,14 z m 307,-15 c 8.3,-4.1 15,-7.5 16,-7.5 1,0 7.3,3.4 16,7.5 l 15,7.5 h 245 l 8.3,-4.2 c 11,-5.4 19,-14 25,-25 l 3.8,-7.7 0.51,-804 h -23 l -1.2,6.7 c -11,65 -111,63 -121,-2.2 l -0.68,-4.5 h -480 l -0.016,74 c -0.0088,41 -0.015,221 -0.014,400 l 0.0023,327 2.1,5.6 c 4.9,13 14,23 27,30 l 7.9,4 h 245 z m -301,-41 c 0.0089,-3.4 0.022,-192 0.03,-419 l 0.014,-412 -11,-0.58 0.2,417 c 0.11,230 0.22,418 0.25,419 0.037,1.4 0.97,1.8 5,1.8 h 5 z m 643,-413 0.027,-419 h -11 v 838 h 11 z m -84,-328 c 31,-6 52,-43 42,-74 -19,-61 -110,-49 -113,14 -2.1,39 31,67 71,60 z m -24,-5.3 c -35,-7.9 -52,-49 -33,-78 28,-43 94,-24 94,28 0,34 -30,58 -62,51 z m 32,-7.3 c 38,-19 35,-74 -5.4,-88 -15,-5 -24,-4.2 -40,3.8 -8.2,4 -20,19 -21,27 -0.31,1.7 -0.84,3.6 -1.2,4.2 -2.1,3.5 -0.76,20 2.2,27 0.73,1.6 2.1,4.6 2.9,6.6 9.2,20 41,30 63,19 z m -563,-87 c 2,-5.8 6.1,-13 9.9,-17 l 2.6,-2.8 -11,-11 c -14,-13 -14,-13 -14,-0.13 -0.0087,5.4 -0.065,15 -0.12,21 -0.16,17 -0.75,15 5.7,15 l 5.6,-0.3 z m 640,-18 c -0.38,-28 0.58,-27 -13,-13 l -12,12 2.6,2.8 c 3.3,3.6 8,12 9.6,17 1.8,5.7 1.6,5.5 7.6,5.5 h 5.5 z m -310,-11 15,-7.5 h 20 l 0.35,-5.1 c 0.44,-6.5 1.9,-5.9 -15,-5.9 h -15 l -1.5,3.8 c -3.9,9.9 -9.1,14 -18,15 -11,0.89 -20,-5.7 -23,-17 -0.38,-1.3 -2.8,-1.5 -16,-1.5 l -15,0.05 v 10 l 23,1 14,7.2 c 17,8.7 13,8.8 31,-0.2 z m -310,2.5 c 2.9,-2.2 8.3,-5.2 12,-6.7 l 6.8,-2.7 v -5.3 c 0,-6.8 0.7,-6.6 -25,-6.2 -26,0.43 -26,0.015 -12,13 5.8,5.6 11,11 11,11 0.63,1.4 2.1,0.75 7.4,-3.3 z m 614,-19 c -0.65,-0.65 -9.4,-1 -24,-1 h -23 v 11 l 5,1.7 c 5.5,1.9 12,5.7 17,9.6 l 3,2.5 11,-11 c 7.7,-7.7 11,-11 10,-12 z m -314,13 c 5.1,-2.6 11,-9.3 11,-13 0,-0.3 -7.9,-0.54 -18,-0.54 -19,0 -19,0.02 -16,4.8 4.3,8.3 15,12 23,8.6 z m -72,-3.4 9.6,-0.02 -0.24,-10 h -215 l -0.1,3.5 c -0.22,7.7 -5.5,7 55,7.3 30,0.14 74,0.16 98,0.029 24,-0.131 48,-0.24 53,-0.25 z m 291,3.3e-4 45,-0.021 v -11 l -106,0.037 c -122,0.043 -109,-0.62 -109,5.9 l 0.35,5 c 57,0.7 113,0.09 170,0.042 z m -10.49,114.111 c 2,-6.7 3.1,-13 4.8,-20 1.2,-4.6 2.1,-8.9 2.1,-9.5 7.1e-4,-0.79 -3.5,-1 -11,-0.79 l -11,0.37 3.5,-4.1 c 1.9,-2.3 5.2,-6.3 7.4,-8.9 2.1,-2.6 5.6,-6.8 7.7,-9.1 6.9,-7.8 13,-15 16,-19 1.8,-2.3 3.3,-3.5 3.3,-2.7 0,0.8 -1.4,8 -3.2,16 -1.8,7.9 -3.2,15 -3.2,15 -0.01,0.42 4.8,0.9 11,1.1 l 11,0.3 -5.6,6.6 c -3.1,3.6 -7.1,8.4 -8.9,11 -1.8,2.2 -4.1,5 -5.2,6.3 -3.5,4 -14,17 -17,20 l -2.5,3.4 z M 275.11665,525.14171 c -6.061,0 11.69632,-12.93542 27.72935,-29.95166 7.88513,-8.36868 16.72294,-17.80999 19.63957,-20.98067 2.91663,-3.17068 9.15014,-9.8164 13.85225,-14.76827 4.70212,-4.95186 14.12183,-15.04494 20.93271,-22.42908 11.41351,-12.37417 17.20776,-18.59497 25.42173,-27.29316 1.71853,-1.81984 7.54369,-8.068 12.94479,-13.88479 5.4011,-5.8168 10.72408,-11.49964 11.82885,-12.62854 1.10477,-1.1289 2.00867,-2.30177 2.00867,-2.60637 0,-0.30461 3.27115,-4.11001 7.26921,-8.45645 6.1977,-6.73773 8.23021,-8.32924 13.78872,-10.79694 6.29716,-2.79562 8.40482,-4.67527 6.53888,-5.83146 -0.49116,-0.30433 -1.91454,0.11772 -3.16307,0.9379 -4.04192,2.6552 -3.4004,0.5947 1.3988,-4.49284 3.26277,-3.4588 4.42946,-5.29535 3.84427,-6.0515 -0.4621,-0.5971 -3.00692,-3.90503 -5.65516,-7.35095 -8.19033,-10.65736 -8.05718,-10.54987 -11.15117,-9.0024 -1.46539,0.73291 -4.75986,1.54171 -7.32104,1.79731 l -4.65669,0.46473 v -6.67531 -6.67532 l 4.5761,-3.08968 4.57611,-3.08968 4.35133,3.25695 c 2.69818,2.01958 4.35621,3.94947 4.36418,5.07976 0.009,1.2453 1.76453,2.95708 5.54178,5.40299 l 5.52892,3.58018 0.0379,6.63428 c 0.0256,4.48103 0.40006,6.75661 1.1538,7.01119 0.76811,0.25945 1.11593,-0.72733 1.11593,-3.16597 0,-1.94859 0.24961,-4.79417 0.55469,-6.32352 l 0.5547,-2.78064 2.34672,1.61643 c 1.2907,0.88904 3.81486,2.50181 5.60926,3.58397 l 3.26254,1.96756 2.01968,-3.37661 c 4.25639,-7.11606 14.99123,-20.72168 22.63697,-28.69075 8.99038,-9.37059 17.04939,-16.23079 27.64308,-23.53111 4.01103,-2.76408 7.37882,-5.75703 7.55357,-6.71285 0.50628,-2.76915 2.89317,-4.85752 5.55187,-4.85752 2.23948,0 2.55466,-0.41496 3.43261,-4.51929 0.5317,-2.4856 0.96672,-5.09856 0.96672,-5.80657 0,-1.08723 6.14776,-5.78497 7.57058,-5.78497 0.25527,0 0.46003,1.309 0.45504,2.9089 -0.008,2.53232 -0.46126,3.09924 -3.50191,4.37919 -3.18698,1.34155 -3.54875,1.84412 -4.1314,5.73954 -0.53388,3.56937 -0.37088,4.46549 0.99431,5.46632 2.183,1.60036 2.91665,1.51219 7.0778,-0.85063 3.12271,-1.77316 3.68949,-2.61371 4.66736,-6.92188 1.15688,-5.09682 0.91741,-7.65464 -0.62706,-6.69764 -1.13071,0.70062 -1.16691,-2.30589 -0.0628,-5.21736 0.59984,-1.58175 2.14257,-2.64014 5.45721,-3.74393 2.54153,-0.84634 5.68041,-2.09049 6.97527,-2.76479 2.94235,-1.5322 3.16695,-0.93983 2.39254,6.31015 l -0.60174,5.63346 -5.74426,1.55891 c -4.33311,1.17594 -5.74427,1.95073 -5.74427,3.15385 0,2.02288 2.30742,2.94345 4.4697,1.78325 2.4821,-1.33181 5.78903,-1.17178 4.69014,0.22697 -0.48342,0.61535 -1.13562,2.19747 -1.44932,3.51583 -0.40828,1.71583 -1.63563,2.86043 -4.31891,4.02771 -10.45715,4.54907 -12.75536,6.13787 -13.04021,9.01494 -0.32517,3.2843 -1.33547,4.26127 -5.52805,5.34569 -1.71853,0.44451 -3.52633,1.59618 -4.01734,2.55927 -1.69344,3.32162 -9.72633,15.01676 -14.04106,20.44249 -11.70435,14.71809 -33.98487,34.15653 -44.28282,38.63415 -3.02901,1.31703 -5.5073,2.72096 -5.5073,3.11984 0,1.68365 1.74741,1.44774 7.59397,-1.02524 3.40563,-1.44052 6.53678,-2.61912 6.9581,-2.61912 0.42132,0 4.54335,2.45327 9.16006,5.45171 7.62729,4.95374 8.70515,5.39902 11.80008,4.87478 2.6159,-0.44309 3.91409,-0.17908 5.59596,1.13801 1.20445,0.94322 3.09381,1.99888 4.19858,2.34591 2.34177,0.7356 2.38547,1.78238 0.37493,8.9807 l -1.49086,5.33771 -7.14195,1.01796 c -3.92807,0.55988 -7.3087,0.87725 -7.5125,0.70528 -0.2038,-0.17196 -0.47116,-1.21954 -0.59413,-2.32795 -0.80578,-7.26314 -1.16779,-9.81749 -1.42311,-10.04154 -0.15974,-0.14017 -3.30345,-1.29892 -6.98602,-2.57499 -3.68257,-1.27606 -8.74821,-3.08302 -11.25698,-4.01546 l -4.56141,-1.69534 -5.51689,5.24712 c -3.03429,2.88592 -5.94762,5.24712 -6.47406,5.24712 -0.61264,0 -0.74354,-1.14165 -0.36367,-3.17179 0.7474,-3.99424 -0.0578,-6.7472 -1.77961,-6.08476 -0.95622,0.36788 -1.30484,2.16432 -1.3373,6.89093 l -0.0439,6.39333 -5.98214,5.2717 c -9.71514,8.56136 -23.17964,20.93085 -33.22139,30.51959 -5.16141,4.92857 -12.99523,12.13426 -17.4085,16.01264 -4.41326,3.87839 -10.23366,9.12856 -12.93421,11.66705 -2.70055,2.53849 -8.32483,7.59204 -12.49841,11.23011 -4.17357,3.63807 -7.78919,6.89891 -8.03469,7.24631 -0.24551,0.3474 -2.2318,2.12275 -4.41399,3.94522 -2.1822,1.82247 -7.58367,6.6029 -12.00327,10.62318 -4.41961,4.02027 -10.46801,9.50056 -13.44088,12.17841 -2.97288,2.67786 -5.6061,5.09448 -5.85161,5.37028 -0.2455,0.2758 -3.45938,3.11175 -7.14195,6.30212 -3.68256,3.19037 -6.89644,6.03992 -7.14195,6.33234 -0.2455,0.29242 -4.26285,3.87479 -8.92743,7.96083 -4.66459,4.08605 -11.10493,9.89607 -14.31186,12.91116 -7.37771,6.93637 -1.39083,5.00208 -6.66762,5.00208 z M 313.951,488.92484 c 0,-0.24613 -0.20087,-0.44752 -0.44637,-0.44752 -0.24551,0 -0.44637,0.20139 -0.44637,0.44752 0,0.24614 0.20086,0.44753 0.44637,0.44753 0.2455,0 0.44637,-0.20139 0.44637,-0.44753 z m 5.05888,-4.6244 c -0.32734,-0.32819 -0.86298,-0.32819 -1.19032,0 -0.32734,0.32818 -0.0595,0.5967 0.59516,0.5967 0.65468,0 0.9225,-0.26852 0.59516,-0.5967 z m 28.41901,-25.49243 c 15.85107,-14.28179 42.90459,-38.93506 50.43699,-45.96211 4.22142,-3.93821 12.27636,-11.44276 17.89988,-16.67678 21.74758,-20.24132 20.19667,-18.44809 22.153,-25.61416 1.62493,-5.95214 1.64794,-6.48647 0.27801,-6.45737 -2.84827,0.0605 -5.28519,2.32435 -27.88304,25.90306 -19.91831,20.78286 -70.44481,72.34593 -84.96173,86.70476 -2.81312,2.78249 -5.1231,5.37857 -5.13328,5.76909 -0.0171,0.65661 6.6631,-5.15362 27.21017,-23.66649 z M 496.1294,370.2997 c 3.91861,-2.10258 1.21203,-7.12888 -3.8388,-7.12888 -2.65717,0 -4.25458,1.56275 -4.25458,4.16225 0,3.31548 4.42221,4.93645 8.09338,2.96663 z m -44.05909,-18.19178 c -0.50743,-1.5262 -9.6411,-6.22392 -10.47518,-5.38769 -0.94003,0.94246 -3.54498,11.68481 -2.97264,12.25863 0.69323,0.69501 13.746,-5.97409 13.44782,-6.87094 z m 5.61242,-10.86574 c 0,-0.24613 -0.20087,-0.44752 -0.44637,-0.44752 -0.2455,0 -0.44637,0.20139 -0.44637,0.44752 0,0.24614 0.20087,0.44753 0.44637,0.44753 0.2455,0 0.44637,-0.20139 0.44637,-0.44753 z m 8.11291,-9.44532 c 3.42535,-0.95448 4.95961,-0.92302 9.37558,0.19223 4.87525,1.23125 5.48035,1.21198 7.89342,-0.25137 3.32327,-2.01532 4.50269,-4.01409 2.76345,-4.68322 -0.71511,-0.27512 -4.22692,-0.76428 -7.80402,-1.08702 -9.70123,-0.87528 -16.08246,1.24322 -18.73985,6.22142 -0.76781,1.43836 -0.64931,1.63183 0.75224,1.22824 0.91499,-0.26348 3.50662,-0.9926 5.75918,-1.62028 z m -44.56251,-8.59432 c 1.99541,-1.81048 2.03071,-2.46695 0.22972,-4.27258 -2.58972,-2.5964 -8.4173,-1.32165 -8.4173,1.84123 0,1.72482 2.61711,3.91264 4.68037,3.91264 1.03104,0 2.60928,-0.66658 3.50721,-1.48129 z m 73.49846,-11.41479 c 0,7.73624 8.09797,0.18606 9.71314,-2.01768 2.05741,-2.80714 0.99805,-3.7806 -4.35667,-4.00337 -1.96404,-0.0817 -5.50508,-0.23491 -7.86897,-0.34044 -6.54426,-0.29215 -11.93497,1.16137 -13.98157,3.7699 -0.98056,1.24981 -1.60672,2.55807 -1.39147,2.90726 0.21526,0.34919 2.51976,0.35973 5.12111,0.0234 2.60136,-0.33631 12.76443,-4.7607 12.76443,-0.33908 z m 19.77226,-17.07521 c -0.42464,-1.3764 -7.59136,-2.38834 -13.80771,-1.94967 -4.28804,0.30261 -6.16171,0.88842 -7.81151,2.44232 -1.19371,1.12433 -2.17038,2.30181 -2.17038,2.61661 0,0.31481 2.30997,0.42627 5.13327,0.24769 2.82331,-0.17859 7.54369,0.0248 10.48974,0.45202 4.8503,0.70332 5.5021,0.60174 6.89762,-1.07499 0.84764,-1.01844 1.41868,-2.24873 1.26897,-2.73398 z m 8.02683,-10.94693 c 0.31703,-2.08274 -5.39769,-7.84783 -6.87306,-6.93365 -1.44291,0.89407 -0.93763,2.31971 2.06212,5.81825 3.18366,3.71304 4.37354,3.98891 4.81094,1.1154 z m 21.30182,-2.93906 C 0,1 0,1 543.8325,280.82655 Z M 116.81537,562.55499 c -3.6,-1.6 -8.1,-5.9 -10,-10 -2,-3.7 -3.1,-316 -1.1,-324 1.4,-5.1 6.4,-11 11,-13 3.8,-1.7 20,-1.8 290,-1.8 314,-0.052 290,-0.51 296,5.7 6.2,5.8 5.7,-6.6 5.7,169 l -0.017,161 -2.2,3.9 c -1.2,2.1 -4,5.1 -6.2,6.7 l -4,2.8 -289,0.21 c -238,0.18 -289,-0.02 -292,-1.1 z m 580,-3.1 c 11,-5.5 10,-1.4 9.9,-92 -0.46,-124 0.22,-19 0.22,-158 0,-83 0.062,-82 -4.8,-87 -5.5,-5.9 -3.2,-5.7 -65,-5.7 h -461 c -79,0 -70.00003,-12 -70,94 l 4e-5,156 c -0.29,89 -0.54,86 9.2,92 3.2,2 576.99996,2.4 579.99996,0.44 z M 142.16972,117.89779 c 1.74446,-0.0701 1.84058,-0.50982 1.58142,-7.23496 l -0.27593,-7.16037 6.00689,-0.10605 c 3.3038,-0.0583 6.5048,-0.0417 7.11336,0.037 2.43217,0.31457 8.04427,-1.81673 9.80836,-3.72489 3.59407,-3.88759 3.00754,-10.440499 -1.35409,-15.128458 l -3.38405,-3.637238 -13.91782,-0.132051 -13.91783,-0.132051 0.75424,1.988062 c 0.41483,1.093433 0.78916,8.34331 0.83183,16.110836 0.067,12.19237 0.34431,19.29692 0.76379,19.56723 0.0633,0.0408 1.01902,-0.0263 2.12379,-0.14917 1.10477,-0.12285 2.84449,-0.25692 3.86604,-0.29794 z m 1.71661,-24.98031 c -0.32082,-2.144905 -0.38627,-4.097376 -0.14545,-4.338822 0.24083,-0.241446 3.55605,-0.453383 7.36715,-0.47097 7.54706,-0.03483 9.87199,1.308483 8.74853,5.054782 -0.85014,2.83492 -1.22849,2.982475 -8.53813,3.3296 l -6.84879,0.32524 z m 49.97582,23.50835 c 5.5376,-2.32657 7.89812,-6.59737 7.73201,-13.98926 -0.20902,-9.30142 -6.09634,-15.16168 -15.85774,-15.784843 -3.81571,-0.243592 -5.69697,-0.0337 -5.69697,0.635625 0,0.549623 -0.70304,1.00026 -1.5623,1.001415 -1.92843,0.0026 -6.75173,4.152333 -8.28251,7.125883 -1.52644,2.96512 -1.35936,10.80796 0.29832,14.00347 4.221,8.13684 13.82614,11.01713 23.36919,7.00771 z m -14.76091,-7.73637 c -3.00228,-3.01003 -3.40771,-6.4586 -1.25089,-10.64018 1.53866,-2.98312 4.38235,-4.39233 8.86343,-4.39233 6.11947,0 9.86979,8.82104 6.09901,14.34535 -2.13812,3.13241 -2.90058,3.4913 -7.2321,3.40413 -3.00899,-0.0605 -4.42001,-0.65222 -6.47945,-2.71697 z m 218.68744,8.23869 c 4.10145,0 4.22472,-0.0774 3.91737,-2.46138 -0.17454,-1.35375 0.005,-2.94158 0.39863,-3.52851 0.61952,-0.92336 6.62661,-1.62135 11.02076,-1.28054 1.72732,0.13397 3.6435,4.04066 2.9152,5.94348 -0.44134,1.15309 0.29955,1.35229 4.51585,1.21416 2.7741,-0.0909 4.93071,-0.40477 4.79246,-0.69751 -0.13825,-0.29275 -2.60582,-5.33639 -5.48349,-11.2081 -3.29257,-6.71827 -5.27822,-11.93428 -5.35646,-14.070596 -0.12088,-3.300479 -0.23591,-3.413555 -4.14168,-4.071262 -5.75676,-0.969402 -5.7939,-0.958849 -5.89199,1.674269 -0.0836,2.244133 -0.67558,3.799459 -4.8805,12.822679 -0.91762,1.9691 -2.6687,5.99681 -3.89128,8.95046 -1.98114,4.78623 -2.227,5.06318 -2.26063,2.54655 -0.0364,-2.72022 -0.16046,-2.81151 -3.38552,-2.49032 -1.84129,0.18338 -5.8891,0.5124 -8.99515,0.73116 l -5.64736,0.39774 0.2909,-12.04485 c 0.32109,-13.295036 0.80942,-12.135684 -5.51194,-13.085868 l -2.23186,-0.335478 V 101.43 116.92576 l 11.77617,0.001 c 8.19918,8.3e-4 11.9774,0.32764 12.43867,1.07592 0.51551,0.83626 0.74179,0.83626 1.01983,0 0.21108,-0.63488 2.09045,-1.07473 4.59202,-1.07473 z m 8.11492,-12.54474 c 0,-1.48102 2.18122,-8.04161 2.67241,-8.03797 0.48216,0.004 3.57679,7.17194 3.57679,8.28523 0,0.36403 -1.40607,0.66188 -3.1246,0.66188 -1.71853,0 -3.1246,-0.40912 -3.1246,-0.90914 z m -192.3664,11.68166 c -0.68352,-2.20857 -0.88402,-25.481515 -0.22869,-26.544596 0.35884,-0.58212 -0.7675,-1.377807 -2.8254,-1.99596 -5.28661,-1.587991 -6.6144,-1.371875 -6.05736,0.985915 0.26169,1.10762 0.60138,7.854031 0.75487,14.992031 l 0.27907,12.97817 2.68971,0.45671 c 4.65764,0.79086 5.84311,0.59894 5.3878,-0.87227 z m 26.81184,-0.87196 c 0.51425,-0.24503 5.9272,-7.3694 2.48117,-12.95957 -2.04672,-3.3202 -6.56921,-4.19018 -13.85362,-4.43715 -4.64255,-0.1574 -5.6623,-0.72648 -4.89484,-2.7316 1.17099,-3.05944 11.73086,-2.77379 14.89951,0.40303 1.64152,1.64575 1.70795,1.62067 3.09607,-1.16907 1.3205,-2.653821 1.30808,-2.935848 -0.17956,-4.079509 -3.07765,-2.36602 -7.73321,-3.870688 -11.56768,-3.73865 -7.26719,0.250242 -7.88647,0.371674 -8.97285,1.75942 -0.59815,0.764074 -1.10032,1.087147 -1.11593,0.717941 -0.0156,-0.369207 -0.90929,0.211881 -1.98594,1.291306 -3.58515,3.594392 -1.50253,11.989292 3.47775,14.018532 1.37343,0.55962 5.30928,1.3212 8.74635,1.69241 5.43923,0.58744 6.28433,0.9218 6.52022,2.57971 0.62164,4.36897 -11.74793,4.08947 -16.99135,-0.38394 -1.36605,-1.16544 -1.60755,-1.15014 -2.09866,0.13297 -0.92145,2.40747 -0.87971,6.37649 0.0714,6.78586 6.57361,2.82944 14.88444,3.684 17.26033,2.55195 z m 30.96539,0.20565 c 4.57152,-2.67679 6.92682,-6.89922 6.92682,-12.41792 0,-7.47543 -2.59446,-12.295484 -8.18921,-15.214123 -2.43862,-1.272166 -11.95362,-2.258118 -12.87522,-1.334141 -0.28061,0.281337 -0.77803,0.528404 -1.10537,0.549038 -1.28845,0.08122 -6.03571,3.001831 -7.42797,4.569843 -2.70706,3.048773 -3.89065,8.941293 -2.6957,13.420603 2.32426,8.71255 8.60606,13.25882 17.33499,12.54571 2.82054,-0.23042 6.43479,-1.18398 8.03166,-2.11901 z m -13.23115,-4.8584 c -3.36354,-0.99667 -6.24378,-11.06435 -2.56008,-15.14529 1.78849,-1.98135 6.54309,-3.07844 9.79509,-2.26013 2.91296,0.73299 5.78174,5.46065 5.74798,9.47247 -0.0262,3.11082 -2.48667,7.16037 -4.3506,7.16037 -0.53505,0 -0.97283,0.32045 -0.97283,0.71211 0,1.0624 -4.10533,1.11364 -6.03713,0.54122 z m 230.84548,3.25513 c -0.99069,-1.98137 -0.40173,-4.02771 -0.89274,-4.02771 -0.49101,0 -0.89405,0.30208 -0.89564,0.67129 -0.002,0.54696 -12.53111,0.80586 -16.73605,0.34584 -0.66239,-0.0725 -1.11593,-1.42511 -1.11593,-3.32819 v -3.20611 l 6.25122,0.29721 6.25121,0.29721 -0.002,-3.98296 c -0.002,-3.09786 -0.24007,-3.74428 -1.0733,-2.9089 -0.58921,0.59073 -3.40135,1.07405 -6.24921,1.07405 h -5.17791 v -3.19024 -3.19025 l 9.37569,0.28135 c 5.79288,0.173835 9.41851,-0.0607 9.48775,-0.6137 0.71604,-5.71963 0.24153,-8.740761 -1.04506,-6.653659 -0.48152,0.781132 -4.2532,1.130533 -12.88734,1.193854 l -12.20658,0.08952 -0.15639,14.926135 -0.15639,14.92613 12.33652,-0.0218 c 6.78509,-0.012 12.57677,0.21904 12.87039,0.51342 1.35644,1.35994 3.67784,-0.18033 2.02177,-3.49247 z m -198.91242,1.99476 c -1.07992,-1.30458 -1.65619,-16.3155 -0.62635,-16.3155 1.3548,0 14.74083,14.48241 14.74083,15.94818 0,1.22898 0.90689,1.50522 4.9415,1.50522 4.72053,0 4.89728,-0.0828 3.95251,-1.85271 -0.63433,-1.18831 -0.8857,-6.4848 -0.70097,-14.76953 0.20387,-9.142954 -0.005,-12.916445 -0.71631,-12.915552 -0.55239,6.95e-4 -2.24768,-0.248047 -3.76732,-0.552759 l -2.76298,-0.554022 0.46748,9.280723 0.46749,9.28073 -7.18991,-7.13938 c -3.95444,-3.926649 -7.1899,-7.835418 -7.1899,-8.686143 0,-1.094746 -0.97835,-1.704478 -3.34779,-2.08642 -1.84128,-0.296807 -4.30012,-0.737688 -5.46407,-0.979735 -1.96083,-0.407758 -2.07827,-0.223157 -1.59876,2.512946 0.28464,1.624167 0.6228,8.692512 0.75147,15.707442 l 0.23394,12.75441 h 4.37555 c 3.43836,0 4.17379,-0.24372 3.43359,-1.1379 z m 68.13459,0.23938 c 6.92581,0 8.2323,-10.30256 3.70869,-16.50493 -1.03479,-1.4188 -1.03854,-2.05038 -0.0238,-4.00005 1.41233,-2.71348 1.56717,-7.090575 0.36315,-10.265568 -1.69183,-4.46132 -4.09109,-5.133997 -18.94546,-5.311704 l -13.67954,-0.163652 v 18.571294 18.57129 l 13.10986,9.2e-4 c 7.21042,5.1e-4 14.0796,-0.8976 15.46706,-0.8976 z m -19.91648,-10.14801 0.267,-4.61678 7.45243,0.16158 c 4.09883,0.0889 8.01574,0.37831 8.70425,0.6432 1.53894,0.59207 1.69086,6.42543 0.19153,7.35445 -0.58315,0.36135 -4.62022,0.75089 -8.97124,0.86566 l -7.91096,0.20867 z m -0.17937,-15.334266 v -4.004638 l 7.67748,0.426875 c 4.22262,0.234782 8.03909,0.650941 8.48107,0.924799 1.37344,0.851024 0.90765,5.531 -0.60855,6.11432 -0.77667,0.2988 -4.59315,0.54328 -8.48107,0.54328 h -7.06893 z m 114.32865,24.340606 c 0,-4.64289 5.7906,-6.7284 5.65308,-14.08508 -0.1199,-6.414 -2.24298,-10.459816 -6.48748,-12.362787 -4.2332,-1.897901 -23.83048,-2.210002 -23.68424,-0.377188 0.0491,0.615345 0.14954,7.353765 0.22319,14.974265 l 0.13391,13.85545 10.40139,-0.0333 c 8.99954,-0.0288 13.76015,1.38382 13.76015,-1.97135 z m -16.55927,-4.06198 c -0.25318,-0.25382 -0.46032,-4.469 -0.46032,-9.36706 v -8.90556 l 5.82154,0.37165 c 4.41961,0.28215 6.27918,0.83046 7.72192,2.27693 3.25104,3.25943 2.62915,12.5944 -0.9676,14.52429 -1.72393,0.92499 -11.41265,1.80446 -12.11554,1.09975 z"
     id="path1"
     sodipodi:nodetypes="cccccccccccsccccccccsscccccccccccccccccccccccccccccccssccccccccscccccsccccccccscccccscsccccccsccccccccccccccccccccccccccsccccccccccccccsccccccsccccccccccccccccccsccccccsccccccccccccccsccccccscccccscccsscccccccscscccccccccccccccccccsccccccccccsssssssssssssssssscccccscscsssscsscssssssssssssssssssscssssssssssssssssssscsssssscssssscsssssssssssssssssssssssssssssssssssssssssssssssssssssssssssssssssssssssssssssssssccccccccccccccccccscssscccccscccsscccscssccssssscssssssssssssscscscssssssssssssscssccccssccscsssssssscsssssssssssssssssscssssssssssssssssssssscssccccsscccscsscccsssssssssssscccsssssscssssssscccssscccsssccccssssccssssscssssscssss"
     inkscape:label="path1"
     style="display:inline" /><text
     transform="translate(-25,-19)"
     x="144.12617"
     y="663.52429"
     fill="#000000"
     font-size="29px"
     style="line-height:1.1;white-space:pre;inline-size:584.851;display:inline"
     xml:space="preserve"
     id="text9"><tspan
       x="144.12617"
       y="663.52429"
       id="tspan1">Play as part of your Battle Plan. This </tspan><tspan
       x="144.12617"
       y="695.4243"
       id="tspan2">weapon counts as both projectile and </tspan><tspan
       x="144.12617"
       y="727.32433"
       id="tspan3">poison. You may keep this card if you </tspan><tspan
       x="144.12617"
       y="759.22435"
       id="tspan4">win this battle.</tspan></text><text
     transform="translate(112.05112,193.71261)"
     fill="#000000"
     font-size="43px"
     style="font-size:33.3333px;white-space:pre;shape-inside:url(#rect2);display:inline"
     xml:space="preserve"
     id="text10"><tspan
       x="0"
       y="0"
       id="tspan5">Weapon - Special</tspan></text></svg>
