<?xml version="1.0" encoding="UTF-8"?>
<!-- Created with Inkscape (http://www.inkscape.org/) -->
<svg width="822" height="1122" version="1.1" viewBox="0 0 822 1122" xml:space="preserve" xmlns="http://www.w3.org/2000/svg"><path d="m89 1e3c-4.5-1.3-6.7-2.9-8.9-6.5l-2.2-3.5 0.053-461c0.029-254 0.072-465 0.096-469 0.042-7.1 0.16-7.4 4-12l3.9-4.2 320-0.26c237-0.19 321 0.035 323 0.87 1.5 0.62 4.1 2.7 5.7 4.5l3 3.4-2e-3 469c-2e-3 460-0.037 469-1.9 472-1.1 1.7-3.4 4-5.2 5.1-3.5 2.1-634 3.6-641 1.5zm44-8.3c0-4.6-0.35-5.9-1.8-6.4-5.7-1.9-13-6-18-9.5l-5.4-4-11 11c-15 15-16 14 16 14h21zm219 0.45 0.3-5.2-4.3-0.017c-2.4-0.01-51-0.012-108-0.01l-104 0.012-0.32 3.1c-0.18 1.7-0.085 4.1 0.21 5.3l0.53 2.1 215-0.15zm36 1.1c6-20 35-20 40 1 0.47 1.9 1.3 2.8 2.9 2.8 3.9 0.12 13 0.13 21 0.03l7.7-0.096 0.69-10h-19l-33-16-30 15h-22l-0.31 4.4c-0.51 7-1 6.8 16 6.6l15-0.2zm290-0.96-1e-5 -5.2-42-0.27c-23-0.15-71-0.15-108-6e-4l-66 0.27v4.9c0 6.2-13 5.5 110 5.5h105zm50 4.1c1.6-0.92 0.38-2.5-10-13l-12-12-2.5 2.3c-4.5 4.1-12 8.6-18 10l-5.3 1.7v5.2c0 4.7 0.24 5.3 2.2 5.6 5.8 0.83 43 0.18 45-0.77zm-304-1.7c-5-16-25-18-33-3.7-3.1 6-3.2 5.9 16 5.9h18zm309-3c1.7-4.3 0.77-47-0.97-47-0.99-0.021-3.4-0.28-5.5-0.57-3.5-0.51-3.7-0.38-4.9 3.3-2 6-5.9 13-9.6 18l-3.4 4.1 11 11c12 12 12 12 13 11zm-648-1.5c1-0.96 6.2-6 11-11l9.6-9.3-3.9-5.2c-4.2-5.6-8.4-14-9.4-18-0.6-2.5-1-2.7-6.1-2.7h-5.5l-0.029 10c-0.016 5.6-0.092 15-0.17 22-0.18 15 0.55 18 4 14zm307-15c8.3-4.1 15-7.5 16-7.5s7.3 3.4 16 7.5l15 7.5h245l8.3-4.2c11-5.4 19-14 25-25l3.8-7.7 0.51-804h-23l-1.2 6.7c-11 65-111 63-121-2.2l-0.68-4.5h-480l-0.016 74c-0.0088 41-0.015 221-0.014 400l0.0023 327 2.1 5.6c4.9 13 14 23 27 30l7.9 4h245zm-301-41c0.0089-3.4 0.022-192 0.03-419l0.014-412-11-0.58 0.2 417c0.11 230 0.22 418 0.25 419 0.037 1.4 0.97 1.8 5 1.8h5zm643-413 0.027-419h-11v838h11zm-84-328c31-6 52-43 42-74-19-61-110-49-113 14-2.1 39 31 67 71 60zm-24-5.3c-35-7.9-52-49-33-78 28-43 94-24 94 28 0 34-30 58-62 51zm32-7.3c38-19 35-74-5.4-88-15-5-24-4.2-40 3.8-8.2 4-20 19-21 27-0.31 1.7-0.84 3.6-1.2 4.2-2.1 3.5-0.76 20 2.2 27 0.73 1.6 2.1 4.6 2.9 6.6 9.2 20 41 30 63 19zm-563-87c2-5.8 6.1-13 9.9-17l2.6-2.8-11-11c-14-13-14-13-14-0.13-0.0087 5.4-0.065 15-0.12 21-0.16 17-0.75 15 5.7 15l5.6-0.3zm640-18c-0.38-28 0.58-27-13-13l-12 12 2.6 2.8c3.3 3.6 8 12 9.6 17 1.8 5.7 1.6 5.5 7.6 5.5h5.5zm-310-11 15-7.5h20l0.35-5.1c0.44-6.5 1.9-5.9-15-5.9h-15l-1.5 3.8c-3.9 9.9-9.1 14-18 15-11 0.89-20-5.7-23-17-0.38-1.3-2.8-1.5-16-1.5l-15 0.05v10l23 1 14 7.2c17 8.7 13 8.8 31-0.2zm-310 2.5c2.9-2.2 8.3-5.2 12-6.7l6.8-2.7v-5.3c0-6.8 0.7-6.6-25-6.2-26 0.43-26 0.015-12 13 5.8 5.6 11 11 11 11 0.63 1.4 2.1 0.75 7.4-3.3zm614-19c-0.65-0.65-9.4-1-24-1h-23v11l5 1.7c5.5 1.9 12 5.7 17 9.6l3 2.5 11-11c7.7-7.7 11-11 10-12zm-314 13c5.1-2.6 11-9.3 11-13 0-0.3-7.9-0.54-18-0.54-19 0-19 0.02-16 4.8 4.3 8.3 15 12 23 8.6zm-72-3.4 9.6-0.02-0.24-10h-215l-0.1 3.5c-0.22 7.7-5.5 7 55 7.3 30 0.14 74 0.16 98 0.029s48-0.24 53-0.25zm291 3.3e-4 45-0.021v-11l-106 0.037c-122 0.043-109-0.62-109 5.9l0.35 5c57 0.7 113 0.09 170 0.042zm-10 114c2-6.7 3.1-13 4.8-20 1.2-4.6 2.1-8.9 2.1-9.5 7.1e-4 -0.79-3.5-1-11-0.79l-11 0.37 3.5-4.1c1.9-2.3 5.2-6.3 7.4-8.9 2.1-2.6 5.6-6.8 7.7-9.1 6.9-7.8 13-15 16-19 1.8-2.3 3.3-3.5 3.3-2.7s-1.4 8-3.2 16c-1.8 7.9-3.2 15-3.2 15-0.01 0.42 4.8 0.9 11 1.1l11 0.3-5.6 6.6c-3.1 3.6-7.1 8.4-8.9 11-1.8 2.2-4.1 5-5.2 6.3-3.5 4-14 17-17 20l-2.5 3.4zm-348 353c-6.1 0 12-13 28-30 7.9-8.4 17-18 20-21s9.2-9.8 14-15c4.7-5 14-15 21-22 11-12 17-19 25-27 1.7-1.8 7.5-8.1 13-14 5.4-5.8 11-11 12-13s2-2.3 2-2.6c0-0.3 3.3-4.1 7.3-8.5 6.2-6.7 8.2-8.3 14-11 6.3-2.8 8.4-4.7 6.5-5.8-0.49-0.3-1.9 0.12-3.2 0.94-4 2.7-3.4 0.59 1.4-4.5 3.3-3.5 4.4-5.3 3.8-6.1-0.46-0.6-3-3.9-5.7-7.4-8.2-11-8.1-11-11-9-1.5 0.73-4.8 1.5-7.3 1.8l-4.7 0.46v-13l9.2-6.2 4.4 3.3c2.7 2 4.4 3.9 4.4 5.1 9e-3 1.2 1.8 3 5.5 5.4l5.5 3.6 0.038 6.6c0.026 4.5 0.4 6.8 1.2 7 0.77 0.26 1.1-0.73 1.1-3.2 0-1.9 0.25-4.8 0.55-6.3l0.55-2.8 2.3 1.6c1.3 0.89 3.8 2.5 5.6 3.6l3.3 2 2-3.4c4.3-7.1 15-21 23-29 9-9.4 17-16 28-24 4-2.8 7.4-5.8 7.6-6.7 0.51-2.8 2.9-4.9 5.6-4.9 2.2 0 2.6-0.41 3.4-4.5 0.53-2.5 0.97-5.1 0.97-5.8 0-1.1 6.1-5.8 7.6-5.8 0.26 0 0.46 1.3 0.46 2.9-8e-3 2.5-0.46 3.1-3.5 4.4-3.2 1.3-3.5 1.8-4.1 5.7-0.53 3.6-0.37 4.5 0.99 5.5 2.2 1.6 2.9 1.5 7.1-0.85 3.1-1.8 3.7-2.6 4.7-6.9 1.2-5.1 0.92-7.7-0.63-6.7-1.1 0.7-1.2-2.3-0.063-5.2 0.6-1.6 2.1-2.6 5.5-3.7 2.5-0.85 5.7-2.1 7-2.8 2.9-1.5 3.2-0.94 2.4 6.3l-0.6 5.6-5.7 1.6c-4.3 1.2-5.7 2-5.7 3.2 0 2 2.3 2.9 4.5 1.8 2.5-1.3 5.8-1.2 4.7 0.23-0.48 0.62-1.1 2.2-1.4 3.5-0.41 1.7-1.6 2.9-4.3 4-10 4.5-13 6.1-13 9-0.33 3.3-1.3 4.3-5.5 5.3-1.7 0.44-3.5 1.6-4 2.6-1.7 3.3-9.7 15-14 20-12 15-34 34-44 39-3 1.3-5.5 2.7-5.5 3.1 0 1.7 1.7 1.4 7.6-1 3.4-1.4 6.5-2.6 7-2.6s4.5 2.5 9.2 5.5c7.6 5 8.7 5.4 12 4.9 2.6-0.44 3.9-0.18 5.6 1.1 1.2 0.94 3.1 2 4.2 2.3 2.3 0.74 2.4 1.8 0.37 9l-1.5 5.3-7.1 1c-3.9 0.56-7.3 0.88-7.5 0.71-0.2-0.17-0.47-1.2-0.59-2.3-0.81-7.3-1.2-9.8-1.4-10-0.16-0.14-3.3-1.3-7-2.6-3.7-1.3-8.7-3.1-11-4l-4.6-1.7-5.5 5.2c-3 2.9-5.9 5.2-6.5 5.2-0.61 0-0.74-1.1-0.36-3.2 0.75-4-0.058-6.7-1.8-6.1-0.96 0.37-1.3 2.2-1.3 6.9l-0.044 6.4-6 5.3c-9.7 8.6-23 21-33 31-5.2 4.9-13 12-17 16-4.4 3.9-10 9.1-13 12s-8.3 7.6-12 11c-4.2 3.6-7.8 6.9-8 7.2-0.25 0.35-2.2 2.1-4.4 3.9-2.2 1.8-7.6 6.6-12 11-4.4 4-10 9.5-13 12-3 2.7-5.6 5.1-5.9 5.4-0.25 0.28-3.5 3.1-7.1 6.3-3.7 3.2-6.9 6-7.1 6.3-0.25 0.29-4.3 3.9-8.9 8-4.7 4.1-11 9.9-14 13-7.4 6.9-1.4 5-6.7 5zm39-36c0-0.25-0.2-0.45-0.45-0.45-0.25 0-0.45 0.2-0.45 0.45 0 0.25 0.2 0.45 0.45 0.45 0.25 0 0.45-0.2 0.45-0.45zm5.1-4.6c-0.33-0.33-0.86-0.33-1.2 0-0.33 0.33-0.06 0.6 0.6 0.6 0.65 0 0.92-0.27 0.6-0.6zm28-25c16-14 43-39 50-46 4.2-3.9 12-11 18-17 22-20 20-18 22-26 1.6-6 1.6-6.5 0.28-6.5-2.8 0.06-5.3 2.3-28 26-20 21-70 72-85 87-2.8 2.8-5.1 5.4-5.1 5.8-0.017 0.66 6.7-5.2 27-24zm149-89c3.9-2.1 1.2-7.1-3.8-7.1-2.7 0-4.3 1.6-4.3 4.2 0 3.3 4.4 4.9 8.1 3zm-44-18c-0.51-1.5-9.6-6.2-10-5.4-0.94 0.94-3.5 12-3 12 0.69 0.7 14-6 13-6.9zm5.6-11c0-0.25-0.2-0.45-0.45-0.45s-0.45 0.2-0.45 0.45c0 0.25 0.2 0.45 0.45 0.45s0.45-0.2 0.45-0.45zm8.1-9.4c3.4-0.95 5-0.92 9.4 0.19 4.9 1.2 5.5 1.2 7.9-0.25 3.3-2 4.5-4 2.8-4.7-0.72-0.28-4.2-0.76-7.8-1.1-9.7-0.88-16 1.2-19 6.2-0.77 1.4-0.65 1.6 0.75 1.2 0.91-0.26 3.5-0.99 5.8-1.6zm-45-8.6c2-1.8 2-2.5 0.23-4.3-2.6-2.6-8.4-1.3-8.4 1.8 0 1.7 2.6 3.9 4.7 3.9 1 0 2.6-0.67 3.5-1.5zm73-11c0 7.7 8.1 0.19 9.7-2 2.1-2.8 1-3.8-4.4-4-2-0.082-5.5-0.23-7.9-0.34-6.5-0.29-12 1.2-14 3.8-0.98 1.2-1.6 2.6-1.4 2.9 0.22 0.35 2.5 0.36 5.1 0.023 2.6-0.34 13-4.8 13-0.34zm20-17c-0.42-1.4-7.6-2.4-14-1.9-4.3 0.3-6.2 0.89-7.8 2.4-1.2 1.1-2.2 2.3-2.2 2.6 0 0.31 2.3 0.43 5.1 0.25 2.8-0.18 7.5 0.025 10 0.45 4.9 0.7 5.5 0.6 6.9-1.1 0.85-1 1.4-2.2 1.3-2.7zm8-11c0.32-2.1-5.4-7.8-6.9-6.9-1.4 0.89-0.94 2.3 2.1 5.8 3.2 3.7 4.4 4 4.8 1.1zm21-2.9c-544-280-544-280 0 0zm-427 282c-3.6-1.6-8.1-5.9-10-10-2-3.7-3.1-316-1.1-324 1.4-5.1 6.4-11 11-13 3.8-1.7 20-1.8 290-1.8 314-0.052 290-0.51 296 5.7 6.2 5.8 5.7-6.6 5.7 169l-0.017 161-2.2 3.9c-1.2 2.1-4 5.1-6.2 6.7l-4 2.8-289 0.21c-238 0.18-289-0.02-292-1.1zm580-3.1c11-5.5 10-1.4 9.9-92-0.46-124 0.22-19 0.22-158 0-83 0.062-82-4.8-87-5.5-5.9-3.2-5.7-65-5.7h-461c-79 0-70-12-70 94l4e-5 156c-0.29 89-0.54 86 9.2 92 3.2 2 577 2.4 580 0.44zm-555-442c1.7-0.07 1.8-0.51 1.6-7.2l-0.28-7.2 6-0.11c3.3-0.058 6.5-0.042 7.1 0.037 2.4 0.31 8-1.8 9.8-3.7 3.6-3.9 3-10-1.4-15l-3.4-3.6-28-0.26 0.75 2c0.41 1.1 0.79 8.3 0.83 16 0.067 12 0.34 19 0.76 20 0.063 0.041 1-0.026 2.1-0.15 1.1-0.12 2.8-0.26 3.9-0.3zm1.7-25c-0.32-2.1-0.39-4.1-0.15-4.3 0.24-0.24 3.6-0.45 7.4-0.47 7.5-0.035 9.9 1.3 8.7 5.1-0.85 2.8-1.2 3-8.5 3.3l-6.8 0.33zm50 24c5.5-2.3 7.9-6.6 7.7-14-0.21-9.3-6.1-15-16-16-3.8-0.24-5.7-0.034-5.7 0.64 0 0.55-0.7 1-1.6 1-1.9 0.0026-6.8 4.2-8.3 7.1-1.5 3-1.4 11 0.3 14 4.2 8.1 14 11 23 7zm-15-7.7c-3-3-3.4-6.5-1.3-11 1.5-3 4.4-4.4 8.9-4.4 6.1 0 9.9 8.8 6.1 14-2.1 3.1-2.9 3.5-7.2 3.4-3-0.06-4.4-0.65-6.5-2.7zm219 8.2c4.1 0 4.2-0.077 3.9-2.5-0.17-1.4 5e-3 -2.9 0.4-3.5 0.62-0.92 6.6-1.6 11-1.3 1.7 0.13 3.6 4 2.9 5.9-0.44 1.2 0.3 1.4 4.5 1.2 2.8-0.091 4.9-0.4 4.8-0.7-0.14-0.29-2.6-5.3-5.5-11-3.3-6.7-5.3-12-5.4-14-0.12-3.3-0.24-3.4-4.1-4.1-5.8-0.97-5.8-0.96-5.9 1.7-0.084 2.2-0.68 3.8-4.9 13-0.92 2-2.7 6-3.9 9-2 4.8-2.2 5.1-2.3 2.5-0.036-2.7-0.16-2.8-3.4-2.5-1.8 0.18-5.9 0.51-9 0.73l-5.6 0.4 0.29-12c0.32-13 0.81-12-5.5-13l-2.2-0.34v31l12 1e-3c8.2 8.3e-4 12 0.33 12 1.1 0.52 0.84 0.74 0.84 1 0 0.21-0.63 2.1-1.1 4.6-1.1zm8.1-13c0-1.5 2.2-8 2.7-8 0.48 4e-3 3.6 7.2 3.6 8.3 0 0.36-1.4 0.66-3.1 0.66s-3.1-0.41-3.1-0.91zm-192 12c-0.68-2.2-0.88-25-0.23-27 0.36-0.58-0.77-1.4-2.8-2-5.3-1.6-6.6-1.4-6.1 0.99 0.26 1.1 0.6 7.9 0.75 15l0.28 13 2.7 0.46c4.7 0.79 5.8 0.6 5.4-0.87zm27-0.87c0.51-0.25 5.9-7.4 2.5-13-2-3.3-6.6-4.2-14-4.4-4.6-0.16-5.7-0.73-4.9-2.7 1.2-3.1 12-2.8 15 0.4 1.6 1.6 1.7 1.6 3.1-1.2 1.3-2.7 1.3-2.9-0.18-4.1-3.1-2.4-7.7-3.9-12-3.7-7.3 0.25-7.9 0.37-9 1.8-0.6 0.76-1.1 1.1-1.1 0.72-0.016-0.37-0.91 0.21-2 1.3-3.6 3.6-1.5 12 3.5 14 1.4 0.56 5.3 1.3 8.7 1.7 5.4 0.59 6.3 0.92 6.5 2.6 0.62 4.4-12 4.1-17-0.38-1.4-1.2-1.6-1.2-2.1 0.13-0.92 2.4-0.88 6.4 0.071 6.8 6.6 2.8 15 3.7 17 2.6zm31 0.21c4.6-2.7 6.9-6.9 6.9-12 0-7.5-2.6-12-8.2-15-2.4-1.3-12-2.3-13-1.3-0.28 0.28-0.78 0.53-1.1 0.55-1.3 0.081-6 3-7.4 4.6-2.7 3-3.9 8.9-2.7 13 2.3 8.7 8.6 13 17 13 2.8-0.23 6.4-1.2 8-2.1zm-13-4.9c-3.4-1-6.2-11-2.6-15 1.8-2 6.5-3.1 9.8-2.3 2.9 0.73 5.8 5.5 5.7 9.5-0.026 3.1-2.5 7.2-4.4 7.2-0.54 0-0.97 0.32-0.97 0.71 0 1.1-4.1 1.1-6 0.54zm231 3.3c-0.99-2-0.4-4-0.89-4s-0.89 0.3-0.9 0.67c-2e-3 0.55-13 0.81-17 0.35-0.66-0.072-1.1-1.4-1.1-3.3v-3.2l13 0.59-2e-3 -4c-2e-3 -3.1-0.24-3.7-1.1-2.9-0.59 0.59-3.4 1.1-6.2 1.1h-5.2v-6.4l9.4 0.28c5.8 0.17 9.4-0.061 9.5-0.61 0.72-5.7 0.24-8.7-1-6.7-0.48 0.78-4.3 1.1-13 1.2l-12 0.09-0.31 30 12-0.022c6.8-0.012 13 0.22 13 0.51 1.4 1.4 3.7-0.18 2-3.5zm-199 2c-1.1-1.3-1.7-16-0.63-16 1.4 0 15 14 15 16 0 1.2 0.91 1.5 4.9 1.5 4.7 0 4.9-0.083 4-1.9-0.63-1.2-0.89-6.5-0.7-15 0.2-9.1-5e-3 -13-0.72-13-0.55 7e-4 -2.2-0.25-3.8-0.55l-2.8-0.55 0.93 19-7.2-7.1c-4-3.9-7.2-7.8-7.2-8.7 0-1.1-0.98-1.7-3.3-2.1-1.8-0.3-4.3-0.74-5.5-0.98-2-0.41-2.1-0.22-1.6 2.5 0.28 1.6 0.62 8.7 0.75 16l0.23 13h4.4c3.4 0 4.2-0.24 3.4-1.1zm68 0.24c6.9 0 8.2-10 3.7-17-1-1.4-1-2.1-0.024-4 1.4-2.7 1.6-7.1 0.36-10-1.7-4.5-4.1-5.1-19-5.3l-14-0.16v37l13 9.2e-4c7.2 5.1e-4 14-0.9 15-0.9zm-20-10 0.27-4.6 7.5 0.16c4.1 0.089 8 0.38 8.7 0.64 1.5 0.59 1.7 6.4 0.19 7.4-0.58 0.36-4.6 0.75-9 0.87l-7.9 0.21zm-0.18-15v-4l7.7 0.43c4.2 0.23 8 0.65 8.5 0.92 1.4 0.85 0.91 5.5-0.61 6.1-0.78 0.3-4.6 0.54-8.5 0.54h-7.1zm114 24c0-4.6 5.8-6.7 5.7-14-0.12-6.4-2.2-10-6.5-12-4.2-1.9-24-2.2-24-0.38 0.049 0.62 0.15 7.4 0.22 15l0.13 14 10-0.033c9-0.029 14 1.4 14-2zm-17-4.1c-0.25-0.25-0.46-4.5-0.46-9.4v-8.9l5.8 0.37c4.4 0.28 6.3 0.83 7.7 2.3 3.3 3.3 2.6 13-0.97 15-1.7 0.92-11 1.8-12 1.1z"/><text transform="translate(-25,-19)" x="144.12617" y="663.52429" fill="#000000" font-size="29px" style="inline-size:584.851;line-height:1.1;white-space:pre" xml:space="preserve"><tspan x="144.12617" y="663.52429">Play as part of your Battle Plan. This </tspan><tspan x="144.12617" y="695.4243">weapon counts as both projectile and </tspan><tspan x="144.12617" y="727.32433">poison. You may keep this card if you </tspan><tspan x="144.12617" y="759.22435">win this battle.</tspan></text><text transform="translate(112 194)" fill="#000000" font-size="33px" style="shape-inside:url(#rect2);white-space:pre" xml:space="preserve"><tspan x="0" y="0">Weapon - Special</tspan></text></svg>
