<?xml version="1.0" encoding="UTF-8" standalone="no"?>
<!-- Created with Inkscape (http://www.inkscape.org/) -->

<svg
   width="822"
   height="1122"
   version="1.1"
   viewBox="0 0 822 1122"
   xml:space="preserve"
   id="svg10"
   sodipodi:docname="Poison Tooth (Full Res).svg"
   inkscape:version="1.4 (86a8ad7, 2024-10-11)"
   xmlns:inkscape="http://www.inkscape.org/namespaces/inkscape"
   xmlns:sodipodi="http://sodipodi.sourceforge.net/DTD/sodipodi-0.dtd"
   xmlns="http://www.w3.org/2000/svg"
   xmlns:svg="http://www.w3.org/2000/svg"><defs
     id="defs10" /><sodipodi:namedview
     id="namedview10"
     pagecolor="#ffffff"
     bordercolor="#000000"
     borderopacity="0.25"
     inkscape:showpageshadow="2"
     inkscape:pageopacity="0.0"
     inkscape:pagecheckerboard="0"
     inkscape:deskcolor="#d1d1d1"
     inkscape:zoom="1"
     inkscape:cx="5.5"
     inkscape:cy="578.5"
     inkscape:window-width="2560"
     inkscape:window-height="1369"
     inkscape:window-x="1072"
     inkscape:window-y="317"
     inkscape:window-maximized="1"
     inkscape:current-layer="svg10" /><path
     d="m 89,1000 c -4.5,-1.3 -6.7,-2.9 -8.9,-6.5 L 77.9,990 77.953,529 c 0.029,-254 0.072,-465 0.096,-469 0.042,-7.1 0.16,-7.4 4,-12 l 3.9,-4.2 320,-0.26 c 237,-0.19 321,0.035 323,0.87 1.5,0.62 4.1,2.7 5.7,4.5 l 3,3.4 -0.002,469 c -0.002,460 -0.037,469 -1.9,472 -1.1,1.7 -3.4,4 -5.2,5.1 -3.5,2.1 -634,3.6 -641,1.5 z m 44,-8.3 c 0,-4.6 -0.35,-5.9 -1.8,-6.4 -5.7,-1.9 -13,-6 -18,-9.5 l -5.4,-4 -11,11 c -15,15 -16,14 16,14 h 21 z m 219,0.45 0.3,-5.2 -4.3,-0.017 c -2.4,-0.01 -51,-0.012 -108,-0.01 l -104,0.012 -0.32,3.1 c -0.18,1.7 -0.085,4.1 0.21,5.3 l 0.53,2.1 215,-0.15 z m 36,1.1 c 6,-20 35,-20 40,1 0.47,1.9 1.3,2.8 2.9,2.8 3.9,0.12 13,0.13 21,0.03 l 7.7,-0.096 0.69,-10 h -19 l -33,-16 -30,15 h -22 l -0.31,4.4 c -0.51,7 -1,6.8 16,6.6 l 15,-0.2 z m 290,-0.96 -10e-6,-5.2 -42,-0.27 c -23,-0.15 -71,-0.15 -108,-6e-4 l -66,0.27 v 4.9 c 0,6.2 -13,5.5 110,5.5 h 105 z m 50,4.1 c 1.6,-0.92 0.38,-2.5 -10,-13 l -12,-12 -2.5,2.3 c -4.5,4.1 -12,8.6 -18,10 l -5.3,1.7 v 5.2 c 0,4.7 0.24,5.3 2.2,5.6 5.8,0.83 43,0.18 45,-0.77 z m -304,-1.7 c -5,-16 -25,-18 -33,-3.7 -3.1,6 -3.2,5.9 16,5.9 h 18 z m 309,-3 c 1.7,-4.3 0.77,-47 -0.97,-47 -0.99,-0.021 -3.4,-0.28 -5.5,-0.57 -3.5,-0.51 -3.7,-0.38 -4.9,3.3 -2,6 -5.9,13 -9.6,18 l -3.4,4.1 11,11 c 12,12 12,12 13,11 z m -648,-1.5 c 1,-0.96 6.2,-6 11,-11 l 9.6,-9.3 -3.9,-5.2 c -4.2,-5.6 -8.4,-14 -9.4,-18 -0.6,-2.5 -1,-2.7 -6.1,-2.7 h -5.5 l -0.029,10 c -0.016,5.6 -0.092,15 -0.17,22 -0.18,15 0.55,18 4,14 z m 307,-15 c 8.3,-4.1 15,-7.5 16,-7.5 1,0 7.3,3.4 16,7.5 l 15,7.5 h 245 l 8.3,-4.2 c 11,-5.4 19,-14 25,-25 l 3.8,-7.7 0.51,-804 h -23 l -1.2,6.7 c -11,65 -111,63 -121,-2.2 l -0.68,-4.5 h -480 l -0.016,74 c -0.0088,41 -0.015,221 -0.014,400 l 0.0023,327 2.1,5.6 c 4.9,13 14,23 27,30 l 7.9,4 h 245 z m -301,-41 c 0.0089,-3.4 0.022,-192 0.03,-419 l 0.014,-412 -11,-0.58 0.2,417 c 0.11,230 0.22,418 0.25,419 0.037,1.4 0.97,1.8 5,1.8 h 5 z m 643,-413 0.027,-419 h -11 v 838 h 11 z m -84,-328 c 31,-6 52,-43 42,-74 -19,-61 -110,-49 -113,14 -2.1,39 31,67 71,60 z m -57,-83.3 c 28,-43 94,-24 94,28 0,34 -30.8498,54.43084 -57.92096,49.64032 C 599.52799,184.64147 571.37318,150.5744 593,109.89 Z m 65,70.7 c 38,-19 35,-74 -5.4,-88 -15,-5 -24,-4.2 -40,3.8 -8.2,4 -20,19 -21,27 -0.31,1.7 -0.84,3.6 -1.2,4.2 -2.1,3.5 -0.76,20 2.2,27 0.73,1.6 2.1,4.6 2.9,6.6 9.2,20 41,30 63,19 z m -563,-87 c 2,-5.8 6.1,-13 9.9,-17 l 2.6,-2.8 -11,-11 c -14,-13 -14,-13 -14,-0.13 -0.0087,5.4 -0.065,15 -0.12,21 -0.16,17 -0.75,15 5.7,15 l 5.6,-0.3 z m 640,-18 c -0.38,-28 0.58,-27 -13,-13 l -12,12 2.6,2.8 c 3.3,3.6 8,12 9.6,17 1.8,5.7 1.6,5.5 7.6,5.5 h 5.5 z m -310,-11 15,-7.5 h 20 l 0.35,-5.1 c 0.44,-6.5 1.9,-5.9 -15,-5.9 h -15 l -1.5,3.8 c -3.9,9.9 -9.1,14 -18,15 -11,0.89 -20,-5.7 -23,-17 -0.38,-1.3 -2.8,-1.5 -16,-1.5 l -15,0.05 v 10 l 23,1 14,7.2 c 17,8.7 13,8.8 31,-0.2 z m -310,2.5 c 2.9,-2.2 8.3,-5.2 12,-6.7 l 6.8,-2.7 v -5.3 c 0,-6.8 0.7,-6.6 -25,-6.2 -26,0.43 -26,0.015 -12,13 5.8,5.6 11,11 11,11 0.63,1.4 2.1,0.75 7.4,-3.3 z m 614,-19 c -0.65,-0.65 -9.4,-1 -24,-1 h -23 v 11 l 5,1.7 c 5.5,1.9 12,5.7 17,9.6 l 3,2.5 11,-11 c 7.7,-7.7 11,-11 10,-12 z m -314,13 c 5.1,-2.6 11,-9.3 11,-13 0,-0.3 -7.9,-0.54 -18,-0.54 -19,0 -19,0.02 -16,4.8 4.3,8.3 15,12 23,8.6 z m -62.4,-3.42 -0.24,-10 h -215 l -0.1,3.5 c -0.22,7.7 -5.5,7 55,7.3 30,0.14 74,0.16 98,0.029 24,-0.131 48,-0.24 53,-0.25 z m 281.4,0.02033 45,-0.021 v -11 l -106,0.037 c -122,0.043 -109,-0.62 -109,5.9 l 0.35,5 c 57,0.7 113,0.09 170,0.042 z M 116.81537,562.55499 c -3.6,-1.6 -8.1,-5.9 -10,-10 -2,-3.7 -3.1,-316 -1.1,-324 1.4,-5.1 6.4,-11 11,-13 3.8,-1.7 20,-1.8 290,-1.8 314,-0.052 290,-0.51 296,5.7 6.2,5.8 5.7,-6.6 5.7,169 l -0.017,161 -2.2,3.9 c -1.2,2.1 -4,5.1 -6.2,6.7 l -4,2.8 -289,0.21 c -238,0.18 -289,-0.02 -292,-1.1 z m 580,-3.1 c 11,-5.5 10,-1.4 9.9,-92 -0.46,-124 0.22,-19 0.22,-158 0,-83 0.062,-82 -4.8,-87 -5.5,-5.9 -3.2,-5.7 -65,-5.7 h -461 c -79,0 -70.00003,-12 -70,94 l 4e-5,156 c -0.29,89 -0.54,86 9.2,92 3.2,2 576.99996,2.4 579.99996,0.44 z m -303.7215,4.77908 c -240.01734,0.0417 -133.89649,-0.70595 -121.43381,-2.21107 5.00699,-0.68594 33.63505,-0.8997 93.12412,-0.69532 39.61011,0.13609 164.00992,-0.10882 164.00992,-0.10882 m -94.24197,-0.45832 c 8.2e-4,-0.51526 -3.29306,-5.92328 -9.75754,-16.0203 -2.8896,-4.51333 -10.49805,-16.51468 -16.90767,-26.66967 -14.58155,-23.10207 -21.83163,-30.67739 -39.06683,-40.81929 -9.1425,-5.37983 -12.33068,-7.83624 -13.97898,-10.77045 -1.17442,-2.09062 -6.14572,-9.57101 -11.04734,-16.62309 -4.90161,-7.05207 -11.84265,-18.59184 -15.42452,-25.64391 l -6.5125,-12.82196 1.88181,-7.69318 c 1.03499,-4.23124 2.21996,-12.77067 2.63325,-18.9765 0.64187,-9.63797 1.11059,-11.75947 3.21436,-14.54859 2.08389,-2.76276 2.46292,-4.43161 2.46292,-10.84416 0,-10.2162 2.23907,-16.53369 7.00969,-19.77768 2.04411,-1.38999 4.71892,-2.52725 5.94401,-2.52725 2.10119,0 2.19582,-0.34907 1.66943,-6.15828 l -0.55802,-6.15827 5.01162,-4.9759 c 2.75639,-2.73675 5.64209,-5.17638 6.41266,-5.42142 1.17261,-0.3729 1.1375,-1.72068 -0.2154,-8.26721 -1.60235,-7.75359 -1.59331,-7.89163 1.0391,-15.85929 2.86983,-8.68629 8.61776,-17.41135 13.02212,-19.76691 3.38883,-1.81244 4.93267,-0.61616 7.19749,5.57712 l 1.49957,4.10066 0.0722,-5.57555 c 0.0984,-7.59869 2.60371,-10.32368 9.4913,-10.32368 4.49362,0 5.15169,0.31284 6.97737,3.31704 1.61685,2.66057 1.89024,4.38615 1.38136,8.71894 -0.34894,2.97103 -0.32407,5.40188 0.0553,5.40188 0.37934,0 1.81633,-0.73871 3.19332,-1.64157 2.49315,-1.63473 2.5711,-1.57213 18.67085,14.99295 8.89199,9.14899 16.67291,17.61934 17.29095,18.823 0.61803,1.20366 1.93231,6.11199 2.92062,10.90741 1.39982,6.79216 3.55594,12.11911 9.75674,24.10528 7.77615,15.0313 8.89609,18.28007 13.31576,38.62687 1.5361,7.07177 5.07683,48.05069 4.47284,51.76688 -0.45519,2.8007 1.40216,6.09622 14.74198,26.1568 8.39453,12.6238 15.93393,25.02952 16.75422,27.56827 2.1974,6.80078 1.76899,16.81341 -1.02679,23.99791 -2.89998,7.45227 -15.00731,20.02094 -33.10179,34.36309 -6.6243,5.25059 -12.04418,9.73062 -12.04418,9.95561 0,0.225 2.19598,0.40909 4.87995,0.40909 4.51417,0 5.57064,-0.55188 14.09426,-7.36254 15.76701,-12.59838 27.65892,-25.1482 31.38972,-33.12634 3.68499,-7.88017 4.99264,-18.69989 3.09238,-25.58689 -2.63856,-9.56278 20.70319,27.66912 21.24207,30.56362 0.32774,1.76044 0.60312,7.12433 0.61195,11.91974 0.0142,7.72081 -0.36452,9.52474 -3.30841,15.75796 -1.82846,3.87146 -3.32447,7.21799 -3.32447,7.43673 0,0.21875 1.55144,0.39772 3.44765,0.39772 3.21221,0 3.62527,-0.40278 6.04866,-5.89811 3.4777,-7.88607 5.06854,-16.05365 4.23503,-21.74307 l -0.68419,-4.67016 3.98305,5.19605 c 2.19067,2.85782 7.90382,10.14075 12.69587,16.18429 l 8.71281,10.98824 m -90.79882,-57.62315 c -14.55074,-21.2653 -20.66489,-29.62338 -21.67026,-29.62338 -1.22784,0 0.0846,8.9255 1.88543,12.82195 0.78222,1.6925 2.69605,4.46205 4.25295,6.15454 1.55691,1.6925 4.43871,5.15443 6.404,7.69318 4.4888,5.7986 17.82273,18.6063 18.22119,17.50208 0.16358,-0.45332 -3.92841,-7.00009 -9.09331,-14.54837 z m 10.48598,-4.44773 c -5.94447,-11.52187 -10.47297,-18.68819 -16.57092,-26.2234 -4.61508,-5.70284 -8.57759,-10.18212 -8.80559,-9.95397 -0.9323,0.93296 10.50263,23.36986 15.80113,31.00397 7.99946,11.52568 15.5697,21.02801 16.75242,21.02801 0.55156,0 -2.67811,-7.13457 -7.17704,-15.85461 z m -75.44148,-4.50058 c 0.53559,-0.4762 3.58507,-1.89793 6.77663,-3.1594 4.43137,-1.7515 7.43563,-4.03179 12.71141,-9.64819 3.79972,-4.04503 9.02998,-9.61337 11.62279,-12.37409 2.59281,-2.76072 3.97731,-4.76397 3.07666,-4.45167 -3.83344,1.32924 -29.9239,20.9069 -33.21004,24.92002 -1.97521,2.41217 -3.59129,4.65428 -3.59129,4.98246 0,0.87932 1.49534,0.72536 2.61384,-0.26913 z m 2.61474,-51.70524 c -0.23921,-12.50585 -0.25694,-12.58843 -3.79686,-17.69328 -5.45878,-7.87197 -6.49283,-9.12497 -7.06113,-8.55626 -0.42055,0.42084 6.94834,30.53335 9.32941,38.12407 1.26192,4.02293 1.75882,0.16282 1.52858,-11.87453 z m 48.63543,11.94955 c 1.33195,-0.33453 3.65185,-2.22215 5.15534,-4.19471 2.41849,-3.17304 2.63054,-4.06844 1.83946,-7.76728 -0.49179,-2.29944 -1.42942,-4.35805 -2.08362,-4.57469 -1.1197,-0.37078 -10.59847,15.16775 -10.59847,17.37405 0,0.56368 0.73475,0.74272 1.63278,0.39787 0.89803,-0.34485 2.72256,-0.9007 4.05451,-1.23524 z m -78.07676,-8.87126 c 5.51369,-9.32953 5.61922,-9.65983 6.30836,-19.74581 0.43718,-6.39844 0.33918,-9.87166 -0.26047,-9.23181 -1.45474,1.55224 -7.08869,17.26657 -10.00147,27.89631 -3.79011,13.83141 -3.61066,13.88049 3.95358,1.08131 z m 59.064,-11.7289 c 0,-0.38612 -0.73455,-3.3218 -1.63234,-6.52373 l -1.63235,-5.82171 -7.62957,-3.35531 c -4.19627,-1.84542 -7.83075,-3.15398 -8.07664,-2.90793 -0.24588,0.24606 1.16514,2.84304 3.1356,5.77107 4.60004,6.83546 15.8353,15.94384 15.8353,12.83761 z m -91.15166,-17.78568 c 0.88779,-0.99587 3.94378,-2.99201 6.79109,-4.43586 5.00664,-2.53884 6.45778,-4.23241 6.45778,-7.53663 0,-1.9593 -6.33846,-1.2037 -13.93636,1.66132 -5.43098,2.04792 -6.52095,3.84619 -8.10662,13.37478 l -0.76186,4.57816 3.9709,-2.91554 c 2.184,-1.60355 4.69729,-3.73035 5.58507,-4.72623 z m -8.4672,-12.35307 c 2.99607,-1.71935 5.3024,-3.46359 5.12518,-3.87609 -0.17721,-0.41251 -2.49411,-2.73532 -5.14866,-5.16181 -5.40033,-4.93636 -4.95889,-5.24392 -6.44455,4.49006 -0.34442,2.25667 -0.86335,4.91081 -1.15317,5.8981 -0.76603,2.60959 1.38503,2.22848 7.6212,-1.35026 z m 59.72426,-0.99947 c 4.94509,-2.52456 6.81348,-5.88019 5.07941,-9.12261 -1.49181,-2.78943 -3.5123,-2.25992 -3.96336,1.03868 -0.18682,1.36623 -2.01018,4.21501 -4.05192,6.33064 -4.14983,4.30001 -3.18326,4.87724 2.93587,1.75329 z m -10.3322,-1.71868 c 0,-0.28557 -1.77561,-2.66044 -3.9458,-5.27748 -2.1702,-2.61704 -5.23002,-6.72046 -6.79961,-9.11871 -1.56959,-2.39825 -4.29132,-5.2165 -6.0483,-6.26277 -3.90144,-2.3233 -16.6223,-4.91962 -28.1883,-5.75323 l -8.59322,-0.61935 0.65189,4.39487 c 0.52463,3.53689 1.59642,5.24595 5.49004,8.75434 4.51363,4.06706 5.23537,4.35947 10.76018,4.35947 6.58606,0 7.15083,-0.80123 4.3649,-6.19241 l -1.55713,-3.01327 2.54507,1.16043 c 1.39978,0.63823 3.78875,2.95633 5.30882,5.15132 1.52006,2.195 6.04829,6.18928 10.06274,8.87619 6.40455,4.28663 7.82896,4.83471 11.62385,4.47256 2.37868,-0.22701 4.32487,-0.64639 4.32487,-0.93196 z m 21.298,-17.15903 c 0.78751,-0.78807 -21.23417,-24.86593 -25.13586,-27.4828 -3.8986,-2.61481 -22.84483,-7.01095 -36.80458,-8.53986 -5.87868,-0.64385 -6.40923,-0.52663 -7.86866,1.73841 -1.29956,2.01694 -2.20893,8.38792 -1.8108,12.68638 0.057,0.61511 3.68564,0.94627 9.06413,0.82721 10.18081,-0.22538 24.95722,2.13931 28.88417,4.62238 1.44966,0.91664 5.40335,4.15354 8.78597,7.19311 7.71387,6.93156 14.93778,10.40205 20.4291,9.81451 2.21568,-0.23707 4.22112,-0.62377 4.45653,-0.85934 z m 9.76531,-1.9904 c 3.87527,-3.5521 4.64289,-6.34751 2.72684,-9.93021 -1.45314,-2.71712 -3.03905,-2.49402 -3.03905,0.42753 0,1.32639 -1.15317,4.58195 -2.56259,7.23458 -1.40943,2.65263 -2.56259,5.02933 -2.56259,5.28156 0,1.24139 2.0119,0.12638 5.43739,-3.01346 z m 27.75182,-14.09228 c -5.13219,-5.2142 -7.84031,-6.39399 -17.5574,-7.6489 -5.83102,-0.75304 -6.34876,-0.21062 -3.42809,3.59147 2.12715,2.76912 24.93982,11.76215 25.58525,10.08602 0.20632,-0.53581 -1.86357,-3.24867 -4.59976,-6.02859 z m -27.39949,-8.33602 c -0.29223,-0.70521 -1.08137,-2.96569 -1.75364,-5.02329 -1.19972,-3.67196 -1.3445,-3.75419 -7.835,-4.44975 -3.63698,-0.38976 -6.86913,-0.45203 -7.18256,-0.13838 -1.01632,1.01703 1.75371,6.29558 4.06014,7.73698 4.76396,2.97723 13.71504,4.29721 12.71106,1.87444 z m -13.09143,-12.65589 c 0.21233,-0.18721 -1.43205,-2.55141 -3.65418,-5.25379 -2.22213,-2.70237 -5.00189,-6.29818 -6.17725,-7.99068 -2.24186,-3.22824 -8.61178,-6.0025 -16.18055,-7.04705 -1.64611,-0.22718 -4.02876,-0.44948 -6.73251,-0.64921 -9.00071,-0.66489 -21.55981,-1.07954 -22.35039,-0.59059 -0.58949,0.36458 -0.64791,1.94715 -0.14528,3.93545 0.46239,1.82911 1.1249,4.59502 1.47224,6.14648 0.58599,2.61744 1.0015,2.82083 5.76282,2.82083 4.24445,0 21.3698,4.42687 35.83111,9.26227 2.24836,0.75178 11.12675,0.28962 12.17399,-0.63371 z m 15.6117,-1.96114 c 1.49598,-2.63434 1.58718,-3.93726 0.63362,-9.05205 -1.0711,-5.74532 -1.3036,-6.07098 -6.05378,-8.47977 -5.70823,-2.89461 -6.19474,-2.32504 -1.84768,2.16314 4.76023,4.91476 5.49242,8.87396 2.46634,13.33627 -3.18966,4.70352 -3.13028,5.83465 0.28527,5.43425 1.80714,-0.21185 3.37564,-1.39331 4.51623,-3.40184 z m 3.49216,-27.2056 c 1.01376,-1.64145 -2.57371,-11.29365 -6.09139,-16.38906 -9.27476,-13.43465 -13.91458,-17.79891 -16.93607,-15.93022 -1.61891,1.00125 0.067,13.28107 2.84313,20.70899 2.29361,6.13682 3.41805,7.76676 6.84462,9.9217 4.25881,2.67832 12.11432,3.6727 13.33971,1.68859 z m -21.42715,-1.77203 c -3.19388,-10.66023 -4.72551,-18.1341 -4.72551,-23.05891 0,-5.54818 -0.15258,-5.91872 -2.43709,-5.91872 -3.41051,0 -4.44445,-1.66106 -5.43011,-8.72377 -0.77636,-5.56287 -1.09227,-6.1497 -3.3107,-6.1497 -2.14548,0 -2.64237,0.77035 -3.96982,6.15454 -0.83456,3.385 10.50256,0.82463 10.26751,7.67865 -0.0497,1.44812 -15.69244,-4.63806 -14.69072,4.6556 0.54323,5.03993 -0.99024,6.40521 1.09219,13.72387 l 2.33001,8.18879 5.04971,1.08373 c 2.77734,0.59605 5.83421,1.10008 6.79306,1.12007 0.95885,0.02 2.89653,0.69602 4.30596,1.50229 3.53994,2.02504 5.37915,1.92523 4.72551,-0.25644 z m -31.02329,-8.67747 c 0.43571,-1.66731 -0.19668,-2.95537 -2.39213,-4.87234 -4.32464,-3.77607 -4.26648,-6.24563 0.24744,-10.50579 2.6143,-2.46733 3.84159,-4.51948 3.84159,-6.42351 0,-2.71057 -2.86585,-8.75608 -4.15078,-8.75608 -0.3485,0 -2.29885,2.42335 -4.33409,5.38522 -4.22594,6.14998 -6.26363,13.68224 -5.33149,19.70771 1.19126,7.70038 1.2176,7.73128 6.59062,7.73128 4.23058,0 5.02126,-0.32413 5.52884,-2.26649 z M 630.61604,163.52154 c -6.46776,-1.88187 -10.29625,-6.39691 -12.59038,-12.67098 -2.1491,-6.51642 -0.6254,-11.64071 7.4411,-25.02477 4.10059,-6.80377 8.0791,-13.55695 8.84114,-15.00709 0.76204,-1.45013 1.75245,-2.24503 2.20092,-1.76644 0.44847,0.47859 3.6995,5.71686 7.22452,11.64061 3.52502,5.92374 7.24519,11.99758 8.26704,13.49741 1.2134,1.78096 1.94836,4.9955 2.11863,9.26629 0.43649,10.94842 -3.6339,16.77556 -13.83588,19.80736 -3.71118,1.60525 -6.05271,1.40379 -9.66709,0.25761 z M 253.12127,116.7181 c 1.40943,-1.03244 3.20697,-3.19401 3.99454,-4.8035 1.22591,-2.50528 1.22591,-3.28944 0,-5.44975 -2.53218,-4.46225 -6.10937,-6.24148 -13.98864,-6.95771 -6.13608,-0.55776 -7.43152,-0.98832 -7.43152,-2.469989 0,-2.239306 2.01,-3.039716 7.63338,-3.039716 2.83848,0 5.31192,0.725224 6.99684,2.051513 3.32763,2.619362 3.46831,2.598992 5.22513,-0.756368 1.45634,-2.781467 1.42531,-2.829627 -3.29863,-5.119405 -6.03057,-2.923128 -15.88376,-3.200713 -19.66001,-0.553864 -1.39393,0.977029 -2.7444,1.554017 -3.00105,1.282196 -1.03529,-1.096494 -1.99061,7.342663 -1.09734,9.693783 1.38503,3.64547 4.81306,5.45184 11.81435,6.22546 3.38262,0.37376 6.95743,0.90366 7.94403,1.17755 2.49351,0.69222 2.24537,3.33595 -0.40521,4.31715 -2.88197,1.06686 -12.66974,-0.50057 -15.754,-2.52287 -2.37435,-1.55683 -2.44031,-1.51192 -3.12221,2.12549 -0.38314,2.04375 -0.50123,3.91144 -0.26242,4.15042 0.23881,0.23897 2.80276,1.04109 5.69767,1.78247 6.925,1.77348 15.45216,1.25731 18.71509,-1.13286 z m 35.56033,-0.27559 c 4.60589,-2.84859 7.76019,-9.49048 6.82959,-14.38081 -1.57996,-8.302751 -6.3735,-12.909861 -14.42144,-13.860565 -15.18518,-1.793829 -25.40063,10.735235 -18.52557,22.721285 4.80224,8.37227 17.25135,11.00347 26.11742,5.52009 z m -17.66878,-6.49922 c -3.03009,-3.03222 -3.36615,-8.5139 -0.72218,-11.77981 2.52123,-3.114303 9.04646,-4.443901 12.65212,-2.578032 3.05054,1.578605 5.57614,7.382422 4.5797,10.524132 -2.09176,6.59518 -11.55434,8.79249 -16.50964,3.83371 z m 102.61178,7.95215 c 0,-0.72616 -0.54804,-7.37123 -0.641,-14.87347 l -0.16901,-13.640441 5.32638,-0.312932 c 3.04361,-0.178816 5.94967,0.204722 6.78072,0.894916 1.22358,1.016195 1.45434,0.374116 1.45434,-4.046534 0,-2.88991 -0.46126,-5.254382 -1.02503,-5.254382 -0.56377,0 -1.02504,0.418583 -1.02504,0.930185 0,1.56775 -30.2115,0.79491 -32.15919,-0.822664 -1.5008,-1.246429 -1.66702,-0.882787 -1.66702,3.646999 v 5.031474 l 6.919,-0.391541 6.919,-0.391542 -0.13889,15.303922 -0.13888,15.30391 5.01831,-0.0724 c 3.46404,-0.05 4.54631,-0.3941 4.54631,-1.30547 z m 38.39334,-0.15339 c 9.63645,-5.12441 11.09978,-17.95112 2.90025,-25.421794 -2.21503,-2.018133 -7.39817,-4.291597 -7.62762,-3.34568 -0.0543,0.223824 -0.7462,-0.121654 -1.53756,-0.76773 -2.1683,-1.770228 -13.09928,1.910125 -16.63165,5.599717 -7.24721,7.569777 -3.33719,21.768407 6.80313,24.704537 5.47993,1.58671 12.27398,1.26204 16.09345,-0.76905 z m -15.3129,-6.91081 c -4.21266,-3.54722 -4.43985,-9.48551 -0.51323,-13.414894 2.29307,-2.294678 3.26563,-2.571871 7.39107,-2.106547 5.63114,0.635156 8.41907,3.437321 8.41907,8.462071 0,4.80357 -0.86231,6.50078 -4.17346,8.21424 -4.23525,2.19167 -7.5589,1.8466 -11.12345,-1.15487 z m 54.8095,6.30813 c 9.99058,-3.25272 8.73757,-20.039637 -0.0884,-25.826671 -4.0962,-2.685814 -11.42568,-3.455085 -17.03552,-1.787973 -8.518,2.531353 -12.48715,9.918284 -10.0987,18.794544 1.24279,4.61861 5.97503,9.84691 9.66759,10.68099 6.11409,1.51401 11.81282,0.009 17.55503,-1.86089 z m -15.56355,-4.85227 c -2.6565,-1.2872 -4.47335,-5.00459 -4.47335,-9.15275 0,-9.422346 15.53305,-11.31617 18.5204,-2.25804 2.81225,8.52719 -5.71035,15.45033 -14.04705,11.41079 z m 42.84568,-5.08783 -0.34517,-12.444875 5.72661,0.475229 5.72662,0.475229 0.001,-3.67454 10e-4,-3.67454 -13.37877,0.338985 c -9.36328,0.237242 -13.82468,-0.03135 -14.86447,-0.894916 -1.26595,-1.051382 -1.48572,-0.426323 -1.48572,4.225632 0,4.246304 0.27334,5.185998 1.23004,4.228625 0.67653,-0.676999 3.26208,-1.230908 5.74567,-1.230908 H 471.67 l -0.36422,12.309109 -0.36423,12.30912 4.10015,0.001 4.10015,0.001 z m 23.58777,5.67786 -0.4181,-6.57061 h 7.9266 7.9266 l -0.42425,6.66741 -0.42425,6.66742 4.14873,-9.8e-4 4.14872,-9.9e-4 0.13395,-13.59029 c 0.0737,-7.47466 0.3043,-14.282676 0.51252,-15.128926 0.28756,-1.168764 -0.75152,-1.612141 -4.32252,-1.844417 l -4.70108,-0.305782 0.47161,5.691005 0.47161,5.69101 -3.4583,0.17916 c -1.90207,0.0985 -5.45461,0.21392 -7.89455,0.25644 l -4.43624,0.0773 0.3361,-5.38829 c 0.33404,-5.355225 0.3157,-5.392113 -2.98755,-6.010809 -5.36524,-1.004904 -6.28638,-0.173108 -5.43812,4.910664 0.88444,5.300605 0.65879,19.931515 -0.35624,23.098645 -0.67568,2.10827 -0.40923,2.24722 4.24093,2.21114 l 4.96192,-0.0385 z m -357.0444,-1.54859 -0.33641,-7.28705 9.8152,-0.28057 c 5.39836,-0.15431 10.80813,-0.81234 12.02171,-1.46228 7.10144,-3.80325 6.03093,-16.325597 -1.66612,-19.489448 -1.52289,-0.625977 -9.12364,-1.268539 -16.89057,-1.427915 -12.41862,-0.254828 -14.03286,-0.09915 -13.38513,1.290847 0.4051,0.869342 0.83713,9.196865 0.96006,18.505606 0.12293,9.30874 0.2651,17.04038 0.31592,17.18143 0.0508,0.14104 2.2095,0.25644 4.79707,0.25644 h 4.70468 z m 0.15239,-17.802295 c 0,-1.99751 -0.11532,-3.940202 -0.25626,-4.317092 -0.41783,-1.117312 14.97791,-0.283468 16.38795,0.887583 1.5667,1.30116 1.70054,4.553906 0.22493,5.466523 -0.58795,0.363628 -4.50871,0.87122 -8.71281,1.127983 l -7.64381,0.466841 z m 55.33154,23.292685 c 10.4557,-5.25681 10.81963,-19.726978 0.67116,-26.685702 -2.79221,-1.914602 -4.727,-2.290334 -11.79379,-2.290334 -4.94078,0 -8.20919,0.395772 -7.8654,0.952421 0.32352,0.523831 -0.74884,0.418796 -1.62864,1.282196 -2.2644,2.222178 -7.67979,9.489089 -5.26604,19.144689 0.51333,2.05344 3.48519,4.8084 5.72953,6.43533 3.43681,2.49136 5.06713,2.95781 10.33331,2.95647 3.90646,-9.9e-4 7.59121,-0.67457 9.81987,-1.79507 z m -15.7294,-6.48384 c -2.1615,-1.70143 -2.69431,-2.98162 -2.66822,-6.41098 0.0352,-4.62597 1.25555,-6.860813 4.76893,-8.733369 5.2866,-2.817633 11.11583,-0.480931 12.79548,5.129189 1.00437,3.35466 0.89705,4.45429 -0.72977,7.47723 -1.32451,2.46121 -8.2065,7.2293 -14.16642,2.53793 z m 37.78812,-6.56779 V 88.919008 l -2.89909,-0.637196 c -1.59451,-0.35046 -3.97907,-0.755831 -5.29904,-0.900828 -2.17385,-0.238796 -2.30652,-0.01772 -1.4082,2.346692 0.54546,1.435678 0.94485,8.17659 0.88753,14.979804 -0.0573,6.80321 -0.0794,12.71567 -0.0491,13.1388 0.0303,0.42312 2.01549,0.76932 4.41151,0.76932 h 4.3564 z m 85.77291,5.57348 -0.33017,-9.27953 8.27508,8.34794 c 4.5513,4.59137 8.01684,8.7661 7.70119,9.27717 -0.31564,0.51108 1.64435,0.92924 4.35553,0.92924 h 4.92942 V 103.74212 88.868651 h -3.33137 c -1.83225,0 -3.65826,0.0033 -4.05779,0.0074 -0.39953,0.0041 -0.59751,4.042986 -0.43994,8.975371 l 0.28649,8.967968 -7.76036,-7.6675 c -4.2682,-4.217126 -7.76036,-8.256042 -7.76036,-8.975369 0,-0.719327 -1.03785,-1.343395 -2.30633,-1.386816 -1.26848,-0.04342 -3.80548,-0.158819 -5.63778,-0.256439 -3.21949,-0.171527 -4.5557,1.508565 -2.30625,2.899779 -0.90856,4.036528 0.38043,19.972835 0.63172,24.508065 0.14653,2.64459 -0.49832,2.67458 3.70515,2.67684 l 4.37594,0.002 z"
     id="path1"
     sodipodi:nodetypes="cccccccccccsccccccccsscccccccccccccccccccccccccccccccssccccccccscccccsccccccccscccccscsccccccsccccccccccccccccccccccccccscccccccccccccsccccccsccccccccccccccccccsccccccsccccccccccccccsccccccscccccscccssccccccscsccccccccccccccccccccccccccscssscccccssccsssssscssssssscsssssscsssssssssssssssssssssssssssscsscsssssssssssssssssssssssssssssssssssssssscssssssssscsssssssssssssssssscsssscssssssssssssssssssssssssssssssssssssssssssssssssssssssssssssssssscssssssssssssssssssssssssssssssssssssssssssssssssssssssscssssssscccccssssssssssssssssssssssssssccccccsssssccccccccccccccssscccsscsssssccccscssssssccssssscssssssssssssssssccssssssccccssscccssscssssssccc"
     inkscape:label="path1"
     style="display:inline" /><text
     transform="translate(-25,-19)"
     x="144.12617"
     y="663.52429"
     fill="#000000"
     font-size="29px"
     style="line-height:1.1;white-space:pre;inline-size:584.851;display:inline"
     xml:space="preserve"
     id="text9"><tspan
       x="144.12617"
       y="663.52429"
       id="tspan1">Play as part of your Battle Plan. Kills </tspan><tspan
       x="144.12617"
       y="695.4243"
       id="tspan2">both leaders, and is not stopped by a </tspan><tspan
       x="144.12617"
       y="727.32433"
       id="tspan3">Snooper. After seeing the battle results, </tspan><tspan
       x="144.12617"
       y="759.22435"
       id="tspan4">you may choose not to use this </tspan><tspan
       x="144.12617"
       y="791.12438"
       id="tspan5">weapon. If you win the battle and did </tspan><tspan
       x="144.12617"
       y="823.0244"
       id="tspan6">not use this card, you may keep it. </tspan><tspan
       x="144.12617"
       y="854.92443"
       id="tspan7">Otherwise, it is discarded.</tspan></text><text
     transform="translate(112.05112,193.71261)"
     fill="#000000"
     font-size="43px"
     style="font-size:33.3333px;white-space:pre;shape-inside:url(#rect2);display:inline"
     xml:space="preserve"
     id="text10"><tspan
       x="0"
       y="0"
       id="tspan8">Weapon - Poison - Special</tspan></text></svg>
