<?xml version="1.0" encoding="UTF-8"?>
<!-- Created with Inkscape (http://www.inkscape.org/) -->
<svg width="822" height="1122" version="1.1" viewBox="0 0 822 1122" xml:space="preserve" xmlns="http://www.w3.org/2000/svg"><path d="m89 1e3c-4.5-1.3-6.7-2.9-8.9-6.5l-2.2-3.5 0.053-461c0.029-254 0.072-465 0.096-469 0.042-7.1 0.16-7.4 4-12l3.9-4.2 320-0.26c237-0.19 321 0.035 323 0.87 1.5 0.62 4.1 2.7 5.7 4.5l3 3.4-2e-3 469c-2e-3 460-0.037 469-1.9 472-1.1 1.7-3.4 4-5.2 5.1-3.5 2.1-634 3.6-641 1.5zm44-8.3c0-4.6-0.35-5.9-1.8-6.4-5.7-1.9-13-6-18-9.5l-5.4-4-11 11c-15 15-16 14 16 14h21zm219 0.45 0.3-5.2-4.3-0.017c-2.4-0.01-51-0.012-108-0.01l-104 0.012-0.32 3.1c-0.18 1.7-0.085 4.1 0.21 5.3l0.53 2.1 215-0.15zm36 1.1c6-20 35-20 40 1 0.47 1.9 1.3 2.8 2.9 2.8 3.9 0.12 13 0.13 21 0.03l7.7-0.096 0.69-10h-19l-33-16-30 15h-22l-0.31 4.4c-0.51 7-1 6.8 16 6.6l15-0.2zm290-0.96-1e-5 -5.2-42-0.27c-23-0.15-71-0.15-108-6e-4l-66 0.27v4.9c0 6.2-13 5.5 110 5.5h105zm50 4.1c1.6-0.92 0.38-2.5-10-13l-12-12-2.5 2.3c-4.5 4.1-12 8.6-18 10l-5.3 1.7v5.2c0 4.7 0.24 5.3 2.2 5.6 5.8 0.83 43 0.18 45-0.77zm-304-1.7c-5-16-25-18-33-3.7-3.1 6-3.2 5.9 16 5.9h18zm309-3c1.7-4.3 0.77-47-0.97-47-0.99-0.021-3.4-0.28-5.5-0.57-3.5-0.51-3.7-0.38-4.9 3.3-2 6-5.9 13-9.6 18l-3.4 4.1 11 11c12 12 12 12 13 11zm-648-1.5c1-0.96 6.2-6 11-11l9.6-9.3-3.9-5.2c-4.2-5.6-8.4-14-9.4-18-0.6-2.5-1-2.7-6.1-2.7h-5.5l-0.029 10c-0.016 5.6-0.092 15-0.17 22-0.18 15 0.55 18 4 14zm307-15c8.3-4.1 15-7.5 16-7.5s7.3 3.4 16 7.5l15 7.5h245l8.3-4.2c11-5.4 19-14 25-25l3.8-7.7 0.51-804h-23l-1.2 6.7c-11 65-111 63-121-2.2l-0.68-4.5h-480l-0.016 74c-0.0088 41-0.015 221-0.014 400l0.0023 327 2.1 5.6c4.9 13 14 23 27 30l7.9 4h245zm-301-41c0.0089-3.4 0.022-192 0.03-419l0.014-412-11-0.58 0.2 417c0.11 230 0.22 418 0.25 419 0.037 1.4 0.97 1.8 5 1.8h5zm643-413 0.027-419h-11v838h11zm-84-328c31-6 52-43 42-74-19-61-110-49-113 14-2.1 39 31 67 71 60zm-57-83c28-43 94-24 94 28 0 34-31 54-58 50-30-2.9-58-37-36-78zm65 71c38-19 35-74-5.4-88-15-5-24-4.2-40 3.8-8.2 4-20 19-21 27-0.31 1.7-0.84 3.6-1.2 4.2-2.1 3.5-0.76 20 2.2 27 0.73 1.6 2.1 4.6 2.9 6.6 9.2 20 41 30 63 19zm-563-87c2-5.8 6.1-13 9.9-17l2.6-2.8-11-11c-14-13-14-13-14-0.13-0.0087 5.4-0.065 15-0.12 21-0.16 17-0.75 15 5.7 15l5.6-0.3zm640-18c-0.38-28 0.58-27-13-13l-12 12 2.6 2.8c3.3 3.6 8 12 9.6 17 1.8 5.7 1.6 5.5 7.6 5.5h5.5zm-310-11 15-7.5h20l0.35-5.1c0.44-6.5 1.9-5.9-15-5.9h-15l-1.5 3.8c-3.9 9.9-9.1 14-18 15-11 0.89-20-5.7-23-17-0.38-1.3-2.8-1.5-16-1.5l-15 0.05v10l23 1 14 7.2c17 8.7 13 8.8 31-0.2zm-310 2.5c2.9-2.2 8.3-5.2 12-6.7l6.8-2.7v-5.3c0-6.8 0.7-6.6-25-6.2-26 0.43-26 0.015-12 13 5.8 5.6 11 11 11 11 0.63 1.4 2.1 0.75 7.4-3.3zm614-19c-0.65-0.65-9.4-1-24-1h-23v11l5 1.7c5.5 1.9 12 5.7 17 9.6l3 2.5 11-11c7.7-7.7 11-11 10-12zm-314 13c5.1-2.6 11-9.3 11-13 0-0.3-7.9-0.54-18-0.54-19 0-19 0.02-16 4.8 4.3 8.3 15 12 23 8.6zm-62-3.4-0.24-10h-215l-0.1 3.5c-0.22 7.7-5.5 7 55 7.3 30 0.14 74 0.16 98 0.029s48-0.24 53-0.25zm281 0.02 45-0.021v-11l-106 0.037c-122 0.043-109-0.62-109 5.9l0.35 5c57 0.7 113 0.09 170 0.042zm-517 505c-3.6-1.6-8.1-5.9-10-10-2-3.7-3.1-316-1.1-324 1.4-5.1 6.4-11 11-13 3.8-1.7 20-1.8 290-1.8 314-0.052 290-0.51 296 5.7 6.2 5.8 5.7-6.6 5.7 169l-0.017 161-2.2 3.9c-1.2 2.1-4 5.1-6.2 6.7l-4 2.8-289 0.21c-238 0.18-289-0.02-292-1.1zm580-3.1c11-5.5 10-1.4 9.9-92-0.46-124 0.22-19 0.22-158 0-83 0.062-82-4.8-87-5.5-5.9-3.2-5.7-65-5.7h-461c-79 0-70-12-70 94l4e-5 156c-0.29 89-0.54 86 9.2 92 3.2 2 577 2.4 580 0.44zm-304 4.8c-240 0.042-134-0.71-121-2.2 5-0.69 34-0.9 93-0.7 40 0.14 164-0.11 164-0.11m-94-0.46c8.2e-4 -0.52-3.3-5.9-9.8-16-2.9-4.5-10-17-17-27-15-23-22-31-39-41-9.1-5.4-12-7.8-14-11-1.2-2.1-6.1-9.6-11-17-4.9-7.1-12-19-15-26l-6.5-13 1.9-7.7c1-4.2 2.2-13 2.6-19 0.64-9.6 1.1-12 3.2-15 2.1-2.8 2.5-4.4 2.5-11 0-10 2.2-17 7-20 2-1.4 4.7-2.5 5.9-2.5 2.1 0 2.2-0.35 1.7-6.2l-0.56-6.2 5-5c2.8-2.7 5.6-5.2 6.4-5.4 1.2-0.37 1.1-1.7-0.22-8.3-1.6-7.8-1.6-7.9 1-16 2.9-8.7 8.6-17 13-20 3.4-1.8 4.9-0.62 7.2 5.6l1.5 4.1 0.072-5.6c0.098-7.6 2.6-10 9.5-10 4.5 0 5.2 0.31 7 3.3 1.6 2.7 1.9 4.4 1.4 8.7-0.35 3-0.32 5.4 0.055 5.4 0.38 0 1.8-0.74 3.2-1.6 2.5-1.6 2.6-1.6 19 15 8.9 9.1 17 18 17 19 0.62 1.2 1.9 6.1 2.9 11 1.4 6.8 3.6 12 9.8 24 7.8 15 8.9 18 13 39 1.5 7.1 5.1 48 4.5 52-0.46 2.8 1.4 6.1 15 26 8.4 13 16 25 17 28 2.2 6.8 1.8 17-1 24-2.9 7.5-15 20-33 34-6.6 5.3-12 9.7-12 10 0 0.22 2.2 0.41 4.9 0.41 4.5 0 5.6-0.55 14-7.4 16-13 28-25 31-33 3.7-7.9 5-19 3.1-26-2.6-9.6 21 28 21 31 0.33 1.8 0.6 7.1 0.61 12 0.014 7.7-0.36 9.5-3.3 16-1.8 3.9-3.3 7.2-3.3 7.4 0 0.22 1.6 0.4 3.4 0.4 3.2 0 3.6-0.4 6-5.9 3.5-7.9 5.1-16 4.2-22l-0.68-4.7 4 5.2c2.2 2.9 7.9 10 13 16l8.7 11m-91-58c-15-21-21-30-22-30-1.2 0 0.085 8.9 1.9 13 0.78 1.7 2.7 4.5 4.3 6.2 1.6 1.7 4.4 5.2 6.4 7.7 4.5 5.8 18 19 18 18 0.16-0.45-3.9-7-9.1-15zm10-4.4c-5.9-12-10-19-17-26-4.6-5.7-8.6-10-8.8-10-0.93 0.93 11 23 16 31 8 12 16 21 17 21 0.55 0-2.7-7.1-7.2-16zm-75-4.5c0.54-0.48 3.6-1.9 6.8-3.2 4.4-1.8 7.4-4 13-9.6 3.8-4 9-9.6 12-12s4-4.8 3.1-4.5c-3.8 1.3-30 21-33 25-2 2.4-3.6 4.7-3.6 5 0 0.88 1.5 0.73 2.6-0.27zm2.6-52c-0.24-13-0.26-13-3.8-18-5.5-7.9-6.5-9.1-7.1-8.6-0.42 0.42 6.9 31 9.3 38 1.3 4 1.8 0.16 1.5-12zm49 12c1.3-0.33 3.7-2.2 5.2-4.2 2.4-3.2 2.6-4.1 1.8-7.8-0.49-2.3-1.4-4.4-2.1-4.6-1.1-0.37-11 15-11 17 0 0.56 0.73 0.74 1.6 0.4s2.7-0.9 4.1-1.2zm-78-8.9c5.5-9.3 5.6-9.7 6.3-20 0.44-6.4 0.34-9.9-0.26-9.2-1.5 1.6-7.1 17-10 28-3.8 14-3.6 14 4 1.1zm59-12c0-0.39-0.73-3.3-1.6-6.5l-1.6-5.8-7.6-3.4c-4.2-1.8-7.8-3.2-8.1-2.9-0.25 0.25 1.2 2.8 3.1 5.8 4.6 6.8 16 16 16 13zm-91-18c0.89-1 3.9-3 6.8-4.4 5-2.5 6.5-4.2 6.5-7.5 0-2-6.3-1.2-14 1.7-5.4 2-6.5 3.8-8.1 13l-0.76 4.6 4-2.9c2.2-1.6 4.7-3.7 5.6-4.7zm-8.5-12c3-1.7 5.3-3.5 5.1-3.9-0.18-0.41-2.5-2.7-5.1-5.2-5.4-4.9-5-5.2-6.4 4.5-0.34 2.3-0.86 4.9-1.2 5.9-0.77 2.6 1.4 2.2 7.6-1.4zm60-1c4.9-2.5 6.8-5.9 5.1-9.1-1.5-2.8-3.5-2.3-4 1-0.19 1.4-2 4.2-4.1 6.3-4.1 4.3-3.2 4.9 2.9 1.8zm-10-1.7c0-0.29-1.8-2.7-3.9-5.3-2.2-2.6-5.2-6.7-6.8-9.1s-4.3-5.2-6-6.3c-3.9-2.3-17-4.9-28-5.8l-8.6-0.62 0.65 4.4c0.52 3.5 1.6 5.2 5.5 8.8 4.5 4.1 5.2 4.4 11 4.4 6.6 0 7.2-0.8 4.4-6.2l-1.6-3 2.5 1.2c1.4 0.64 3.8 3 5.3 5.2 1.5 2.2 6 6.2 10 8.9 6.4 4.3 7.8 4.8 12 4.5 2.4-0.23 4.3-0.65 4.3-0.93zm21-17c0.79-0.79-21-25-25-27-3.9-2.6-23-7-37-8.5-5.9-0.64-6.4-0.53-7.9 1.7-1.3 2-2.2 8.4-1.8 13 0.057 0.62 3.7 0.95 9.1 0.83 10-0.23 25 2.1 29 4.6 1.4 0.92 5.4 4.2 8.8 7.2 7.7 6.9 15 10 20 9.8 2.2-0.24 4.2-0.62 4.5-0.86zm9.8-2c3.9-3.6 4.6-6.3 2.7-9.9-1.5-2.7-3-2.5-3 0.43 0 1.3-1.2 4.6-2.6 7.2-1.4 2.7-2.6 5-2.6 5.3 0 1.2 2 0.13 5.4-3zm28-14c-5.1-5.2-7.8-6.4-18-7.6-5.8-0.75-6.3-0.21-3.4 3.6 2.1 2.8 25 12 26 10 0.21-0.54-1.9-3.2-4.6-6zm-27-8.3c-0.29-0.71-1.1-3-1.8-5-1.2-3.7-1.3-3.8-7.8-4.4-3.6-0.39-6.9-0.45-7.2-0.14-1 1 1.8 6.3 4.1 7.7 4.8 3 14 4.3 13 1.9zm-13-13c0.21-0.19-1.4-2.6-3.7-5.3-2.2-2.7-5-6.3-6.2-8-2.2-3.2-8.6-6-16-7-1.6-0.23-4-0.45-6.7-0.65-9-0.66-22-1.1-22-0.59-0.59 0.36-0.65 1.9-0.15 3.9 0.46 1.8 1.1 4.6 1.5 6.1 0.59 2.6 1 2.8 5.8 2.8 4.2 0 21 4.4 36 9.3 2.2 0.75 11 0.29 12-0.63zm16-2c1.5-2.6 1.6-3.9 0.63-9.1-1.1-5.7-1.3-6.1-6.1-8.5-5.7-2.9-6.2-2.3-1.8 2.2 4.8 4.9 5.5 8.9 2.5 13-3.2 4.7-3.1 5.8 0.29 5.4 1.8-0.21 3.4-1.4 4.5-3.4zm3.5-27c1-1.6-2.6-11-6.1-16-9.3-13-14-18-17-16-1.6 1 0.067 13 2.8 21 2.3 6.1 3.4 7.8 6.8 9.9 4.3 2.7 12 3.7 13 1.7zm-21-1.8c-3.2-11-4.7-18-4.7-23 0-5.5-0.15-5.9-2.4-5.9-3.4 0-4.4-1.7-5.4-8.7-0.78-5.6-1.1-6.1-3.3-6.1-2.1 0-2.6 0.77-4 6.2-0.83 3.4 11 0.82 10 7.7-0.05 1.4-16-4.6-15 4.7 0.54 5-0.99 6.4 1.1 14l2.3 8.2 5 1.1c2.8 0.6 5.8 1.1 6.8 1.1 0.96 0.02 2.9 0.7 4.3 1.5 3.5 2 5.4 1.9 4.7-0.26zm-31-8.7c0.44-1.7-0.2-3-2.4-4.9-4.3-3.8-4.3-6.2 0.25-11 2.6-2.5 3.8-4.5 3.8-6.4 0-2.7-2.9-8.8-4.2-8.8-0.35 0-2.3 2.4-4.3 5.4-4.2 6.1-6.3 14-5.3 20 1.2 7.7 1.2 7.7 6.6 7.7 4.2 0 5-0.32 5.5-2.3zm259-145c-6.5-1.9-10-6.4-13-13-2.1-6.5-0.63-12 7.4-25 4.1-6.8 8.1-14 8.8-15 0.76-1.5 1.8-2.2 2.2-1.8s3.7 5.7 7.2 12c3.5 5.9 7.2 12 8.3 13 1.2 1.8 1.9 5 2.1 9.3 0.44 11-3.6 17-14 20-3.7 1.6-6.1 1.4-9.7 0.26zm-377-47c1.4-1 3.2-3.2 4-4.8 1.2-2.5 1.2-3.3 0-5.4-2.5-4.5-6.1-6.2-14-7-6.1-0.56-7.4-0.99-7.4-2.5 0-2.2 2-3 7.6-3 2.8 0 5.3 0.73 7 2.1 3.3 2.6 3.5 2.6 5.2-0.76 1.5-2.8 1.4-2.8-3.3-5.1-6-2.9-16-3.2-20-0.55-1.4 0.98-2.7 1.6-3 1.3-1-1.1-2 7.3-1.1 9.7 1.4 3.6 4.8 5.5 12 6.2 3.4 0.37 7 0.9 7.9 1.2 2.5 0.69 2.2 3.3-0.41 4.3-2.9 1.1-13-0.5-16-2.5-2.4-1.6-2.4-1.5-3.1 2.1-0.38 2-0.5 3.9-0.26 4.2 0.24 0.24 2.8 1 5.7 1.8 6.9 1.8 15 1.3 19-1.1zm36-0.28c4.6-2.8 7.8-9.5 6.8-14-1.6-8.3-6.4-13-14-14-15-1.8-25 11-19 23 4.8 8.4 17 11 26 5.5zm-18-6.5c-3-3-3.4-8.5-0.72-12 2.5-3.1 9-4.4 13-2.6 3.1 1.6 5.6 7.4 4.6 11-2.1 6.6-12 8.8-17 3.8zm103 8c0-0.73-0.55-7.4-0.64-15l-0.17-14 5.3-0.31c3-0.18 5.9 0.2 6.8 0.89 1.2 1 1.5 0.37 1.5-4 0-2.9-0.46-5.3-1-5.3s-1 0.42-1 0.93c0 1.6-30 0.79-32-0.82-1.5-1.2-1.7-0.88-1.7 3.6v5l14-0.78-0.28 31 5-0.072c3.5-0.05 4.5-0.39 4.5-1.3zm38-0.15c9.6-5.1 11-18 2.9-25-2.2-2-7.4-4.3-7.6-3.3-0.054 0.22-0.75-0.12-1.5-0.77-2.2-1.8-13 1.9-17 5.6-7.2 7.6-3.3 22 6.8 25 5.5 1.6 12 1.3 16-0.77zm-15-6.9c-4.2-3.5-4.4-9.5-0.51-13 2.3-2.3 3.3-2.6 7.4-2.1 5.6 0.64 8.4 3.4 8.4 8.5 0 4.8-0.86 6.5-4.2 8.2-4.2 2.2-7.6 1.8-11-1.2zm55 6.3c10-3.3 8.7-20-0.088-26-4.1-2.7-11-3.5-17-1.8-8.5 2.5-12 9.9-10 19 1.2 4.6 6 9.8 9.7 11 6.1 1.5 12 9e-3 18-1.9zm-16-4.9c-2.7-1.3-4.5-5-4.5-9.2 0-9.4 16-11 19-2.3 2.8 8.5-5.7 15-14 11zm43-5.1-0.35-12 11 0.95 2e-3 -7.3-13 0.34c-9.4 0.24-14-0.031-15-0.89-1.3-1.1-1.5-0.43-1.5 4.2 0 4.2 0.27 5.2 1.2 4.2 0.68-0.68 3.3-1.2 5.7-1.2h4.5l-0.73 25 8.2 2e-3zm24 5.7-0.42-6.6h16l-0.85 13 8.3-2e-3 0.13-14c0.074-7.5 0.3-14 0.51-15 0.29-1.2-0.75-1.6-4.3-1.8l-4.7-0.31 0.94 11-3.5 0.18c-1.9 0.098-5.5 0.21-7.9 0.26l-4.4 0.077 0.34-5.4c0.33-5.4 0.32-5.4-3-6-5.4-1-6.3-0.17-5.4 4.9 0.88 5.3 0.66 20-0.36 23-0.68 2.1-0.41 2.2 4.2 2.2l5-0.038zm-357-1.5-0.34-7.3 9.8-0.28c5.4-0.15 11-0.81 12-1.5 7.1-3.8 6-16-1.7-19-1.5-0.63-9.1-1.3-17-1.4-12-0.25-14-0.099-13 1.3 0.41 0.87 0.84 9.2 0.96 19 0.12 9.3 0.27 17 0.32 17 0.051 0.14 2.2 0.26 4.8 0.26h4.7zm0.15-18c0-2-0.12-3.9-0.26-4.3-0.42-1.1 15-0.28 16 0.89 1.6 1.3 1.7 4.6 0.22 5.5-0.59 0.36-4.5 0.87-8.7 1.1l-7.6 0.47zm55 23c10-5.3 11-20 0.67-27-2.8-1.9-4.7-2.3-12-2.3-4.9 0-8.2 0.4-7.9 0.95 0.32 0.52-0.75 0.42-1.6 1.3-2.3 2.2-7.7 9.5-5.3 19 0.51 2.1 3.5 4.8 5.7 6.4 3.4 2.5 5.1 3 10 3 3.9-9.9e-4 7.6-0.67 9.8-1.8zm-16-6.5c-2.2-1.7-2.7-3-2.7-6.4 0.035-4.6 1.3-6.9 4.8-8.7 5.3-2.8 11-0.48 13 5.1 1 3.4 0.9 4.5-0.73 7.5-1.3 2.5-8.2 7.2-14 2.5zm38-6.6v-15l-2.9-0.64c-1.6-0.35-4-0.76-5.3-0.9-2.2-0.24-2.3-0.018-1.4 2.3 0.55 1.4 0.94 8.2 0.89 15-0.057 6.8-0.079 13-0.049 13 0.03 0.42 2 0.77 4.4 0.77h4.4zm86 5.6-0.33-9.3 8.3 8.3c4.6 4.6 8 8.8 7.7 9.3-0.32 0.51 1.6 0.93 4.4 0.93h4.9v-30h-3.3c-1.8 0-3.7 0.0033-4.1 0.0074s-0.6 4-0.44 9l0.29 9-7.8-7.7c-4.3-4.2-7.8-8.3-7.8-9s-1-1.3-2.3-1.4c-1.3-0.043-3.8-0.16-5.6-0.26-3.2-0.17-4.6 1.5-2.3 2.9-0.91 4 0.38 20 0.63 25 0.15 2.6-0.5 2.7 3.7 2.7l4.4 2e-3z"/><text transform="translate(-25,-19)" x="144.12617" y="663.52429" fill="#000000" font-size="29px" style="inline-size:584.851;line-height:1.1;white-space:pre" xml:space="preserve"><tspan x="144.12617" y="663.52429">Play as part of your Battle Plan. Kills </tspan><tspan x="144.12617" y="695.4243">both leaders, and is not stopped by a </tspan><tspan x="144.12617" y="727.32433">Snooper. After seeing the battle results, </tspan><tspan x="144.12617" y="759.22435">you may choose not to use this </tspan><tspan x="144.12617" y="791.12438">weapon. If you win the battle and did </tspan><tspan x="144.12617" y="823.0244">not use this card, you may keep it. </tspan><tspan x="144.12617" y="854.92443">Otherwise, it is discarded.</tspan></text><text transform="translate(112 194)" fill="#000000" font-size="33px" style="shape-inside:url(#rect2);white-space:pre" xml:space="preserve"><tspan x="0" y="0">Weapon - Poison - Special</tspan></text></svg>
