<?xml version="1.0" encoding="UTF-8" standalone="no"?>
<!-- Created with Inkscape (http://www.inkscape.org/) -->

<svg
   width="822"
   height="1122"
   version="1.1"
   viewBox="0 0 822 1122"
   xml:space="preserve"
   id="svg10"
   sodipodi:docname="Portable Snooper (Full Res).svg"
   inkscape:version="1.4 (86a8ad7, 2024-10-11)"
   xmlns:inkscape="http://www.inkscape.org/namespaces/inkscape"
   xmlns:sodipodi="http://sodipodi.sourceforge.net/DTD/sodipodi-0.dtd"
   xmlns="http://www.w3.org/2000/svg"
   xmlns:svg="http://www.w3.org/2000/svg"><defs
     id="defs10" /><sodipodi:namedview
     id="namedview10"
     pagecolor="#ffffff"
     bordercolor="#000000"
     borderopacity="0.25"
     inkscape:showpageshadow="2"
     inkscape:pageopacity="0.0"
     inkscape:pagecheckerboard="0"
     inkscape:deskcolor="#d1d1d1"
     inkscape:zoom="1"
     inkscape:cx="489"
     inkscape:cy="485"
     inkscape:window-width="1742"
     inkscape:window-height="1360"
     inkscape:window-x="1882"
     inkscape:window-y="325"
     inkscape:window-maximized="0"
     inkscape:current-layer="svg10" /><path
     d="m 89,1000 c -4.5,-1.3 -6.7,-2.9 -8.9,-6.5 L 77.9,990 77.953,529 c 0.029,-254 0.072,-465 0.096,-469 0.042,-7.1 0.16,-7.4 4,-12 l 3.9,-4.2 320,-0.26 c 237,-0.19 321,0.035 323,0.87 1.5,0.62 4.1,2.7 5.7,4.5 l 3,3.4 -0.002,469 c -0.002,460 -0.037,469 -1.9,472 -1.1,1.7 -3.4,4 -5.2,5.1 -3.5,2.1 -634,3.6 -641,1.5 z m 44,-8.3 c 0,-4.6 -0.35,-5.9 -1.8,-6.4 -5.7,-1.9 -13,-6 -18,-9.5 l -5.4,-4 -11,11 c -15,15 -16,14 16,14 h 21 z m 219,0.45 0.3,-5.2 -4.3,-0.017 c -2.4,-0.01 -51,-0.012 -108,-0.01 l -104,0.012 -0.32,3.1 c -0.18,1.7 -0.085,4.1 0.21,5.3 l 0.53,2.1 215,-0.15 z m 36,1.1 c 6,-20 35,-20 40,1 0.47,1.9 1.3,2.8 2.9,2.8 3.9,0.12 13,0.13 21,0.03 l 7.7,-0.096 0.69,-10 h -19 l -33,-16 -30,15 h -22 l -0.31,4.4 c -0.51,7 -1,6.8 16,6.6 l 15,-0.2 z m 290,-0.96 -10e-6,-5.2 -42,-0.27 c -23,-0.15 -71,-0.15 -108,-6e-4 l -66,0.27 v 4.9 c 0,6.2 -13,5.5 110,5.5 h 105 z m 50,4.1 c 1.6,-0.92 0.38,-2.5 -10,-13 l -12,-12 -2.5,2.3 c -4.5,4.1 -12,8.6 -18,10 l -5.3,1.7 v 5.2 c 0,4.7 0.24,5.3 2.2,5.6 5.8,0.83 43,0.18 45,-0.77 z m -304,-1.7 c -5,-16 -25,-18 -33,-3.7 -3.1,6 -3.2,5.9 16,5.9 h 18 z m 309,-3 c 1.7,-4.3 0.77,-47 -0.97,-47 -0.99,-0.021 -3.4,-0.28 -5.5,-0.57 -3.5,-0.51 -3.7,-0.38 -4.9,3.3 -2,6 -5.9,13 -9.6,18 l -3.4,4.1 11,11 c 12,12 12,12 13,11 z m -648,-1.5 c 1,-0.96 6.2,-6 11,-11 l 9.6,-9.3 -3.9,-5.2 c -4.2,-5.6 -8.4,-14 -9.4,-18 -0.6,-2.5 -1,-2.7 -6.1,-2.7 h -5.5 l -0.029,10 c -0.016,5.6 -0.092,15 -0.17,22 -0.18,15 0.55,18 4,14 z m 307,-15 c 8.3,-4.1 15,-7.5 16,-7.5 1,0 7.3,3.4 16,7.5 l 15,7.5 h 245 l 8.3,-4.2 c 11,-5.4 19,-14 25,-25 l 3.8,-7.7 0.51,-804 h -23 l -1.2,6.7 c -11,65 -111,63 -121,-2.2 l -0.68,-4.5 h -480 l -0.016,74 c -0.0088,41 -0.015,221 -0.014,400 l 0.0023,327 2.1,5.6 c 4.9,13 14,23 27,30 l 7.9,4 h 245 z m -301,-41 c 0.0089,-3.4 0.022,-192 0.03,-419 l 0.014,-412 -11,-0.58 0.2,417 c 0.11,230 0.22,418 0.25,419 0.037,1.4 0.97,1.8 5,1.8 h 5 z m 643,-413 0.027,-419 h -11 v 838 h 11 z m -84,-328 c 31,-6 52,-43 42,-74 -19,-61 -110,-49 -113,14 -2.1,39 31,67 71,60 z m -57,-83.3 c 28,-43 94,-24 94,28 0,34 -30.8498,54.43084 -57.92096,49.64032 C 599.52799,184.64147 571.37318,150.5744 593,109.89 Z m 65,70.7 c 38,-19 35,-74 -5.4,-88 -15,-5 -24,-4.2 -40,3.8 -8.2,4 -20,19 -21,27 -0.31,1.7 -0.84,3.6 -1.2,4.2 -2.1,3.5 -0.76,20 2.2,27 0.73,1.6 2.1,4.6 2.9,6.6 9.2,20 41,30 63,19 z m -563,-87 c 2,-5.8 6.1,-13 9.9,-17 l 2.6,-2.8 -11,-11 c -14,-13 -14,-13 -14,-0.13 -0.0087,5.4 -0.065,15 -0.12,21 -0.16,17 -0.75,15 5.7,15 l 5.6,-0.3 z m 640,-18 c -0.38,-28 0.58,-27 -13,-13 l -12,12 2.6,2.8 c 3.3,3.6 8,12 9.6,17 1.8,5.7 1.6,5.5 7.6,5.5 h 5.5 z m -310,-11 15,-7.5 h 20 l 0.35,-5.1 c 0.44,-6.5 1.9,-5.9 -15,-5.9 h -15 l -1.5,3.8 c -3.9,9.9 -9.1,14 -18,15 -11,0.89 -20,-5.7 -23,-17 -0.38,-1.3 -2.8,-1.5 -16,-1.5 l -15,0.05 v 10 l 23,1 14,7.2 c 17,8.7 13,8.8 31,-0.2 z m -310,2.5 c 2.9,-2.2 8.3,-5.2 12,-6.7 l 6.8,-2.7 v -5.3 c 0,-6.8 0.7,-6.6 -25,-6.2 -26,0.43 -26,0.015 -12,13 5.8,5.6 11,11 11,11 0.63,1.4 2.1,0.75 7.4,-3.3 z m 614,-19 c -0.65,-0.65 -9.4,-1 -24,-1 h -23 v 11 l 5,1.7 c 5.5,1.9 12,5.7 17,9.6 l 3,2.5 11,-11 c 7.7,-7.7 11,-11 10,-12 z m -314,13 c 5.1,-2.6 11,-9.3 11,-13 0,-0.3 -7.9,-0.54 -18,-0.54 -19,0 -19,0.02 -16,4.8 4.3,8.3 15,12 23,8.6 z m -62.4,-3.42 -0.24,-10 h -215 l -0.1,3.5 c -0.22,7.7 -5.5,7 55,7.3 30,0.14 74,0.16 98,0.029 24,-0.131 48,-0.24 53,-0.25 z m 281.4,0.02033 45,-0.021 v -11 l -106,0.037 c -122,0.043 -109,-0.62 -109,5.9 l 0.35,5 c 57,0.7 113,0.09 170,0.042 z m -0.21592,508.68834 c -0.17444,-0.17439 -116.2245,-0.40341 -257.88904,-0.50892 -237.54693,-0.17694 -257.80899,-0.32281 -260.62181,-1.87636 -3.81826,-2.10887 -6.86313,-5.42671 -9.19621,-10.02064 -1.70803,-3.3632 -1.8238,-12.38599 -2.06992,-161.32756 -0.22351,-135.26344 -0.0511,-158.43101 1.20864,-162.43392 1.64118,-5.21485 6.46105,-10.74413 11.06411,-12.69256 2.43472,-1.0306 59.81365,-1.19389 288.21845,-0.8202 156.84819,0.25661 286.67516,0.69631 288.50437,0.9771 3.87609,0.59499 9.79241,5.45453 12.14572,9.97623 1.49573,2.87394 1.62085,17.55983 1.39602,163.85759 -0.13584,88.38539 -0.62481,161.69565 -1.0866,162.91169 -1.28938,3.39531 -6.0107,8.59311 -9.54805,10.51164 -2.78096,1.5083 -6.88538,1.72866 -32.49576,1.74466 -16.12202,0.0101 -29.45548,-0.12436 -29.62992,-0.29875 z m 62.18448,-4.70028 c 1.78298,-1.0801 4.36728,-4.05728 5.74287,-6.61595 l 2.50108,-4.65213 0.35699,-158.81492 c 0.3394,-150.98936 0.26712,-159.01451 -1.46689,-162.86534 -1.00314,-2.22772 -3.48568,-5.19052 -5.51677,-6.58399 l -3.69288,-2.53357 -59.54842,-0.18008 c -32.75163,-0.099 -162.28714,-0.32806 -287.85669,-0.50892 l -228.30826,-0.32884 -3.75571,2.5446 c -2.06564,1.39953 -4.6725,4.42459 -5.79302,6.72237 -2.25532,4.62481 -2.06908,-18.31582 -1.94091,239.08585 0.0248,49.80204 0.42026,80.83423 1.06106,83.26252 1.26765,4.8037 4.35343,8.46791 9.24646,10.97971 3.65444,1.87598 9.49252,1.92575 212.77971,1.81371 114.9622,-0.0634 209.19324,0.0545 209.40231,0.26181 0.20907,0.20735 34.84274,0.377 76.96371,0.377 73.85165,0 76.69921,-0.07 79.82536,-1.96383 z M 629.41249,158.76421 c 6.24771,-4.38015 5.35902,-8.73936 -1.78165,-8.73936 -2.50209,0 -6.75289,-2.00556 -9.44621,-4.45681 -4.08029,-3.71355 -4.62985,-6.58038 -3.29531,-17.19054 0.88089,-7.00356 1.33829,-13.30675 1.01644,-14.00711 -0.32185,-0.70036 1.62704,-3.55189 4.33088,-6.33675 3.46945,-3.57342 4.4627,-3.88084 3.37539,-1.04472 -0.84736,2.21027 0.22889,5.48865 2.39168,7.28528 5.81827,4.83324 4.7972,10.67497 -2.94607,16.855 -6.46396,5.15899 -6.61874,5.74971 -2.56873,9.8035 4.05,4.05378 4.69444,3.89816 10.69498,-2.58257 3.51191,-3.79295 6.38529,-7.87496 6.38529,-9.07114 0,-5.13252 4.69407,-1.57613 6.37338,4.82869 1.83084,6.98276 1.84415,6.98654 4.4812,1.27337 3.76359,-8.15378 14.58914,-7.91273 14.58914,0.32486 0,3.33026 -1.70485,7.47124 -3.78854,9.20217 -2.0837,1.73094 -3.20999,4.08415 -2.50287,5.22936 0.70712,1.14521 0.20114,2.75311 -1.12439,3.5731 -1.32554,0.81999 -3.12924,0.32616 -4.00822,-1.0974 -2.3004,-3.7256 -6.38658,-3.18646 -6.38658,0.84265 0,1.88702 2.57617,4.67455 5.72483,6.19451 4.77418,2.30464 2.99011,2.79218 -10.74362,2.93592 -15.66264,0.16393 -16.18968,-0.0231 -10.77102,-3.82201 z m 29.36939,-24.18001 c -1.95807,-1.9599 -3.11069,-0.80621 -4.03624,4.04001 -1.1829,6.1937 -0.94467,6.43215 2.74074,2.7433 2.88362,-2.88632 3.25358,-4.82341 1.2955,-6.78331 z m -33.93456,-15.43215 c 0,-4.43371 -4.52664,-2.1147 -5.864,3.00413 -1.12312,4.29883 -0.71976,4.69991 2.24762,2.23491 1.98901,-1.65227 3.61638,-4.00984 3.61638,-5.23904 z M 573.25,478.09203 c -4.73819,-1.89981 -3.86526,-14.9632 1.72785,-25.85729 8.29012,-16.14728 10.73793,-16.77779 21.72585,-5.59628 l 9.68602,9.85668 -4.473,11.63835 c -4.33688,11.28419 -4.79256,11.63226 -14.97452,11.43811 -5.77584,-0.11013 -11.93733,-0.77594 -13.6922,-1.47957 z m 30.07355,-2.55145 c -0.13201,-4.81864 2.84188,-10.98718 5.297,-10.98718 3.34528,0 2.78617,3.43754 -1.46818,9.02674 -2.0612,2.70793 -3.78417,3.59012 -3.82882,1.96044 z m -53.85145,-4.7128 c -3.57802,-1.86286 -17.92645,-8.19305 -31.8854,-14.06708 -13.95896,-5.87404 -26.40409,-11.59331 -27.65586,-12.70949 -1.30883,-1.16706 -0.60821,-5.59515 1.64879,-10.42077 2.1586,-4.61525 6.4228,-14.24459 9.476,-21.39853 l 5.55127,-13.00717 28.53553,12.60729 c 15.69455,6.93401 31.14829,13.62572 34.34165,14.87046 l 5.80612,2.26317 -6.8596,13.35515 c -3.77278,7.34534 -8.11812,17.5264 -9.65631,22.62458 -2.69725,8.93978 -3.02806,9.14896 -9.30219,5.88239 z m -8.00125,-16.92729 c 7.70694,-7.65824 -0.12106,-19.80508 -9.5365,-14.79794 -6.43673,3.42306 -6.87004,11.58968 -0.8013,15.10205 5.79896,3.35624 6.68025,3.33031 10.3378,-0.30411 z m -11.02604,-4.6461 c -0.9913,-1.59382 -0.60129,-4.09134 0.8667,-5.55005 3.43036,-3.40867 11.42809,-0.43546 10.03245,3.72964 -1.42075,4.24008 -8.64385,5.4465 -10.89915,1.82041 z m -12.97874,-7.92081 c 6.99133,-9.91843 -3.57768,-20.17228 -11.28304,-10.94657 -2.47772,2.96659 -2.56416,5.35447 -0.36727,10.14563 3.53228,7.7035 6.63448,7.91677 11.65031,0.80094 z m -8.59829,-0.79288 c -3.52855,-4.22476 -1.46205,-8.9606 3.90998,-8.9606 3.98487,0 5.11368,8.96466 1.41485,11.23621 -1.24483,0.76449 -3.641,-0.25954 -5.32483,-2.27561 z m 53.98678,24.6468 c 3.14743,-11.54128 14.84817,-33.6074 17.8206,-33.6074 3.28331,0 2.6677,1.84796 -4.0316,12.10232 -3.39817,5.20143 -7.60024,14.30802 -9.33794,20.23688 -3.89312,13.28291 -8.05065,14.46748 -4.45106,1.2682 z m -93.66045,-16.30916 c -1.45162,-3.75896 24.93722,-66.15109 28.44231,-67.2472 1.22539,-0.3832 3.93512,0.37474 6.02163,1.68433 4.30533,2.70222 4.76678,1.2506 -13.3271,41.92361 -10.74203,24.14684 -17.8646,32.11267 -21.13684,23.63926 z m -17.67865,-6.91247 c -0.88474,-1.42249 1.11011,-8.05072 4.433,-14.72939 3.32289,-6.67867 9.89089,-21.55945 14.59554,-33.0684 8.4901,-20.76921 11.93923,-24.17857 17.60176,-17.39877 4.46446,5.34534 -22.44671,65.91782 -29.76846,67.00377 -2.88927,0.42853 -5.97709,-0.38471 -6.86184,-1.80721 z m -11.55141,-5.26113 c -2.80294,-1.72136 -0.75814,-8.57162 10.25922,-34.36931 7.56794,-17.72069 15.30568,-32.80887 17.19497,-33.52928 7.71909,-2.94336 7.5908,3.89749 -0.39237,20.92322 -4.57877,9.76517 -10.97819,24.33725 -14.22092,32.38241 -6.5624,16.28117 -7.80062,17.68833 -12.8409,14.59296 z m -42.7936,-28.8333 c -19.98032,-8.58312 -36.3485,-16.47062 -36.37373,-17.52779 -0.0908,-3.80617 20.12128,-46.18576 22.385,-46.93556 1.27454,-0.42216 16.5631,5.36015 33.97459,12.84958 17.41149,7.48943 33.62697,14.32369 36.0344,15.18725 4.00007,1.43485 3.81756,2.83633 -2.11864,16.2683 -3.57268,8.084 -7.36482,15.59598 -8.42696,16.69328 -1.06215,1.0973 -16.13356,-4.33937 -33.49203,-12.08149 -28.11077,-12.5378 -31.9811,-13.65899 -35.4052,-10.25653 -5.32833,5.29464 -3.45501,6.61174 31.47438,22.12905 16.73783,7.43575 30.90444,14.92665 31.48135,16.64645 1.52351,4.54164 0.31212,4.14413 -39.53316,-12.97254 z m 10.93541,-5.09815 c -27.24283,-12.0765 -38.30885,-19.38494 -29.35156,-19.38494 6.7112,0 61.12536,26.29871 61.12536,29.54227 0,1.88707 -0.28716,3.41549 -0.63813,3.39649 -0.35098,-0.019 -14.36203,-6.11821 -31.13567,-13.55382 z m -65.22281,-11.42687 c 0,-4.83508 24.6814,-60.40492 27.63438,-62.21842 1.07998,-0.66325 3.598,-0.20217 5.5956,1.02461 4.32159,2.654 2.34247,9.07764 -13.03605,42.31118 -7.57934,16.37923 -10.91262,21.07019 -14.97198,21.07019 -2.87207,0 -5.22195,-0.9844 -5.22195,-2.18756 z m -20.18731,-32.36791 c -10.40107,-4.82596 -33.37395,-14.58701 -51.05085,-21.69123 -17.67689,-7.10422 -32.4409,-13.15797 -32.8089,-13.45277 -1.41119,-1.13049 9.94888,-24.14762 11.91801,-24.14762 1.14188,0 12.28741,4.73587 24.76785,10.52416 12.48044,5.78828 35.11038,15.89788 50.28874,22.46578 15.17837,6.5679 27.76592,12.38983 27.97232,12.93762 0.84619,2.24577 -8.45392,22.53952 -10.24106,22.34699 -1.06429,-0.11465 -10.44504,-4.15697 -20.84611,-8.98293 z m -86.53769,-49.14599 c 2.91717,-6.97512 6.31486,-12.68203 7.55042,-12.68203 1.23557,0 0.40379,4.28018 -1.84838,9.51152 -2.25218,5.23135 -4.68777,10.93826 -5.41244,12.68204 -0.72466,1.74378 -2.27966,3.17051 -3.45556,3.17051 -1.17589,0 0.24879,-5.70691 3.16596,-12.68204 z m -17.0733,7.11477 c -10.51578,-5.92543 -12.04406,-16.70631 -3.56293,-25.13383 4.08479,-4.05897 7.24932,-4.96373 13.21473,-3.77819 4.31406,0.85736 8.26332,1.97576 8.77614,2.48533 0.98189,0.97568 -11.20254,29.51334 -12.54426,29.38043 -0.42823,-0.0424 -3.07589,-1.37161 -5.88368,-2.95374 z M 144.89582,110.6266 c 0.66429,-5.57594 2.09998,-6.77951 8.08699,-6.77951 4.00363,0 9.10926,-0.69778 11.34585,-1.55061 2.91508,-1.11155 3.64107,-0.4489 2.56394,2.34029 -1.99785,5.17341 7.56986,14.42876 14.91571,14.42876 3.19737,0 8.36627,-1.77679 11.48645,-3.94843 5.16728,-3.59643 5.67304,-3.57985 5.67304,0.18598 0,2.58283 1.67638,3.80319 4.46695,3.25181 2.97258,-0.58734 4.19979,-2.77087 3.66836,-6.527 -0.53278,-3.7657 0.52922,-5.64439 3.19068,-5.64439 2.19409,0 3.98926,0.92323 3.98926,2.05162 0,5.16931 6.76959,10.80982 11.02584,9.18687 4.1698,-1.58999 4.19774,-2.0623 0.37053,-6.26458 -3.82023,-4.19463 -3.8061,-5.05024 0.18337,-11.10045 4.91732,-7.45734 11.94154,-8.77788 11.25965,-2.11679 -1.33884,13.07867 0.23125,20.72888 3.96231,19.30619 2.59937,-0.99117 3.82881,-5.03783 3.82881,-12.60244 0,-8.21347 1.00647,-11.14246 3.82881,-11.14246 2.10585,0 3.82882,-1.14139 3.82882,-2.53641 0,-1.5299 -10.6356,-2.53641 -26.8017,-2.53641 -23.23756,0 -26.80169,0.55822 -26.80169,4.19772 0,3.90603 -0.32438,3.90603 -4.66794,0 -5.44096,-4.89287 -18.47582,-5.54977 -22.89952,-1.15403 -2.38237,2.36731 -3.06305,2.10532 -3.06305,-1.17896 0,-6.127412 -8.81772,-9.870627 -21.156,-8.980953 l -10.75078,0.775204 -0.77603,14.934439 c -0.42682,8.21395 -0.13905,16.58389 0.63948,18.59988 2.19418,5.68182 7.70234,2.35501 8.60186,-5.19534 z m 31.7056,-2.3408 c -3.3892,-4.1793 0.60804,-14.58434 5.60279,-14.58434 4.87135,0 9.56066,8.55328 7.54744,13.7665 -1.84325,4.77308 -9.55384,5.25262 -13.15023,0.81784 z m 31.88333,-8.50942 c -2.78015,-2.76258 0.57949,-6.07492 6.16166,-6.07492 2.99862,0 4.7213,1.33058 4.10478,3.17051 -1.21364,3.62198 -7.69815,5.45647 -10.26644,2.90441 z M 144.1674,93.8289 c -1.9516,-3.1378 4.13625,-6.01465 10.11663,-4.78067 2.26201,0.46674 4.08778,1.99 4.05727,3.38502 -0.077,3.52055 -12.11504,4.70589 -14.1739,1.39565 z m 112.5858,21.43202 c 1.76951,-4.58211 13.68803,-5.13454 13.68043,-0.6341 -0.007,3.95953 32.7553,2.83519 37.79938,-1.29721 2.44678,-2.00455 3.12644,-1.88395 2.55254,0.45293 -0.74508,3.03395 14.17128,4.16446 40.69665,3.08438 11.21092,-0.45649 10.62662,-5.41061 -0.63813,-5.41061 -4.91365,0 -8.9339,-1.14138 -8.9339,-2.53641 0,-1.39502 2.29729,-2.5364 5.10508,-2.5364 2.99985,0 5.10509,-1.69094 5.10509,-4.10044 0,-2.85169 -1.55471,-3.69644 -5.10509,-2.77387 -3.31795,0.86218 -5.10508,0.0778 -5.10508,-2.24058 0,-2.27257 2.7791,-3.56715 7.65763,-3.56715 4.42356,0 7.65829,-1.33901 7.65921,-3.17051 10e-4,-2.23315 -3.79123,-2.909388 -12.82709,-2.2873 l -12.82868,0.88321 1.34873,11.16473 1.34874,11.16472 h -8.94198 c -8.89621,0 -8.94198,-0.0584 -8.94198,-11.41383 0,-8.4547 -0.99266,-11.41384 -3.82882,-11.41384 -2.55604,0 -3.92919,2.74024 -4.13081,8.24333 l -0.30201,8.24332 -1.62557,-7.60922 c -1.49696,-7.0072 -2.5838,-7.670385 -13.73698,-8.3823 l -12.11141,-0.77308 -0.15531,13.45512 -0.15531,13.45511 -6.75397,-13.31614 c -3.71468,-7.323878 -8.30257,-13.31614 -10.19532,-13.31614 -2.72584,0 -15.92314,24.23533 -15.92314,29.24101 0,3.01606 7.98065,0.77432 9.2871,-2.60873 z m 31.55358,-7.78563 c 0,-2.6438 1.86199,-3.70877 5.54328,-3.17051 8.17196,1.19486 9.04718,7.15153 1.05079,7.15153 -4.28957,0 -6.59407,-1.39129 -6.59407,-3.98102 z m -26.8017,-3.6282 c 0.86766,-1.39503 2.0841,-2.53641 2.70319,-2.53641 0.6191,0 1.12563,1.14138 1.12563,2.53641 0,1.39502 -1.21644,2.53641 -2.70319,2.53641 -1.48675,0 -1.99328,-1.14139 -1.12563,-2.53641 z m 26.8017,-7.60923 c 0,-1.39502 2.2295,-2.5364 4.95444,-2.5364 2.72494,0 5.66434,1.14138 6.532,2.5364 0.89473,1.43855 -1.24976,2.53641 -4.95444,2.53641 -3.5926,0 -6.532,-1.14138 -6.532,-2.53641 z m 107.67894,17.08256 c 5.55607,-8.69208 0.93195,-15.38485 -12.61901,-18.26427 -11.6635,-2.47835 -7.67613,-6.592685 5.2672,-5.43493 l 10.70846,0.95785 v 12.97208 c 0,10.1194 0.88511,12.97274 4.02487,12.97503 3.04529,0.002 3.7808,-2.00332 3.02204,-8.24038 l -1.00283,-8.24332 7.79029,8.24332 c 9.13089,9.66188 15.44604,10.68261 15.69263,2.53641 l 0.17275,-5.70692 2.68,5.50682 c 3.9762,8.17023 14.27437,9.81464 22.69995,3.62471 5.72493,-4.20587 7.23968,-4.47685 8.38898,-1.50075 2.27463,5.89011 13.64123,7.38641 20.78382,2.73599 11.24332,-7.32035 7.37197,-23.77821 -6.63222,-28.19488 -3.58255,-1.12987 -7.14403,0.041 -10.95989,3.60315 -4.82637,4.50548 -6.19398,4.76568 -9.35488,1.77983 -7.49429,-7.079242 -14.74337,-7.250884 -21.52742,-0.50972 -5.88467,5.84747 -6.42385,5.96714 -6.42385,1.42573 0,-2.72664 -1.72297,-4.95753 -3.82881,-4.95753 -2.59672,0 -3.86219,2.65268 -3.93255,8.24333 l -0.10374,8.24332 -7.10165,-8.24332 c -3.90591,-4.533825 -8.74096,-8.27963 -10.74457,-8.324 -2.0036,-0.0444 -5.87258,-1.75644 -8.59773,-3.804607 -10.40999,-7.823947 -26.95197,-2.269423 -26.95197,9.050027 0,5.30778 7.07935,10.0537 14.99681,10.0537 2.81723,0 5.83716,1.14944 6.71095,2.55432 2.50635,4.02973 -6.54873,6.1782 -11.93954,2.83286 -4.78316,-2.96825 -9.76822,-1.95568 -9.76822,1.98413 0,7.11722 24.20521,8.89934 28.55013,2.10202 z m 42.74349,-5.88133 c -3.89164,-4.6595 -0.57263,-11.96565 6.02216,-13.25655 5.76411,-1.12831 10.74667,8.8852 6.78271,13.63129 -3.97132,4.7549 -8.63455,4.61843 -12.80487,-0.37474 z m 30.0649,2.43327 c -5.83318,-5.79631 1.79981,-17.55541 9.49163,-14.62244 6.2522,2.38403 4.30801,14.71486 -2.47213,15.67928 -2.86557,0.4076 -6.02434,-0.068 -7.0195,-1.05684 z m 30.91308,2.01938 c 0.55749,-3.76475 2.61774,-5.50824 6.50899,-5.50824 3.13132,0 7.07168,-1.36967 8.75636,-3.04369 2.38238,-2.36732 3.06305,-1.24003 3.06305,5.07281 0,4.65499 1.36076,8.23428 3.19068,8.39265 1.75487,0.15188 9.50822,0.43722 17.22966,0.6341 12.74408,0.32494 14.11422,-0.16842 14.85465,-5.34896 1.06967,-7.48402 4.0444,-7.23757 7.65379,0.6341 1.59915,3.48757 4.65513,6.34102 6.79108,6.34102 4.57622,0 4.77617,-1.21254 1.27265,-7.71755 -1.83643,-3.4097 -1.71693,-6.27005 0.40284,-9.6429 5.27886,-8.39936 1.07591,-13.07644 -11.75083,-13.07644 h -11.56655 v 12.11496 12.11497 l -10.21017,-0.96754 c -11.10374,-1.05222 -14.20106,-5.50753 -3.82881,-5.50753 3.97062,0 6.38135,-1.4373 6.38135,-3.80462 0,-2.36731 -2.41073,-3.80461 -6.38135,-3.80461 -3.50975,0 -6.38136,-1.14138 -6.38136,-2.53641 0,-1.39502 4.02025,-2.5364 8.9339,-2.5364 4.91364,0 8.9339,-1.14139 8.9339,-2.53641 0,-3.8468 -25.48206,-3.21873 -25.72694,0.6341 -0.16122,2.53641 -0.45901,2.53641 -1.48899,0 -0.77141,-1.89969 -6.06204,-3.17236 -13.19933,-3.17513 l -11.91186,-0.005 0.87165,15.35709 c 0.57875,10.19662 1.86536,15.03221 3.82882,14.39029 1.62643,-0.53174 3.32421,-3.4455 3.77282,-6.47504 z m 53.37078,-12.11536 c -2.78015,-2.76258 0.57949,-6.07492 6.16166,-6.07492 2.99862,0 4.7213,1.33058 4.10478,3.17051 -1.21364,3.62198 -7.69815,5.45647 -10.26644,2.90441 z m -54.18644,-3.53852 c 0.86765,-1.39502 3.80705,-2.5364 6.53199,-2.5364 2.72495,0 4.95445,1.14138 4.95445,2.5364 0,1.39503 -2.9394,2.53641 -6.532,2.53641 -3.70468,0 -5.84917,-1.09786 -4.95444,-2.53641 z"
     id="path1"
     sodipodi:nodetypes="cccccccccccsccccccccsscccccccccccccccccccccccccccccccssccccccccscccccsccccccccscccccscsccccccsccccccccccccccccccccccccccscccccccccccccsccccccsccccccccccccccccccsccccccsccccccccccccccsccccccscccccscccssccccccscsccccccccccssssssssssssssssscssscsscssssssssssssssssssssssssssssssssssssssssssscsssssssssssscsscsssssssssssssssssssssssssssssssssssssssssssssssssssssssssssssssssssssssssssssssssssssssssssssssssssssssssssssscsssssssssssssssscsssssssssscscccsssscsscccssssssssssssssssssssscscscsscssssssssssscssssssssssssscssccssssssssssscccsssssssssccssccsssssssss"
     inkscape:label="path1"
     style="display:inline" /><text
     transform="translate(-23.585787,-55.769552)"
     x="144.12617"
     y="663.52429"
     fill="#000000"
     font-size="29px"
     style="font-size:30.6667px;line-height:1.1;white-space:pre;inline-size:584.851;display:inline"
     xml:space="preserve"
     id="text9"><tspan
       x="144.12617"
       y="663.52429"
       id="tspan1">Protects your leader from a poison </tspan><tspan
       x="144.12617"
       y="697.25769"
       id="tspan2">weapon. You may play this after </tspan><tspan
       x="144.12617"
       y="730.99109"
       id="tspan3">revealing your Battle Plan if you did </tspan><tspan
       x="144.12617"
       y="764.72448"
       id="tspan4">not play a defense (unless prevented </tspan><tspan
       x="144.12617"
       y="798.45788"
       id="tspan5">by the Bene Gesserit Voice). You may </tspan><tspan
       x="144.12617"
       y="832.19128"
       id="tspan7">not play this if you played a weapon </tspan><tspan
       x="144.12617"
       y="865.92468"
       id="tspan8">and a worthless card in your Battle </tspan><tspan
       x="144.12617"
       y="899.65808"
       id="tspan9">Plan. Discard after use.</tspan></text><text
     transform="translate(117.05112,192.71261)"
     fill="#000000"
     font-size="43px"
     style="font-size:40px;white-space:pre;shape-inside:url(#rect2);display:inline"
     xml:space="preserve"
     id="text10"><tspan
       x="0"
       y="0"
       id="tspan10">Defense - Poison</tspan></text></svg>
