<?xml version="1.0" encoding="UTF-8"?>
<!-- Created with Inkscape (http://www.inkscape.org/) -->
<svg width="822" height="1122" version="1.1" viewBox="0 0 822 1122" xml:space="preserve" xmlns="http://www.w3.org/2000/svg"><path d="m89 1e3c-4.5-1.3-6.7-2.9-8.9-6.5l-2.2-3.5 0.053-461c0.029-254 0.072-465 0.096-469 0.042-7.1 0.16-7.4 4-12l3.9-4.2 320-0.26c237-0.19 321 0.035 323 0.87 1.5 0.62 4.1 2.7 5.7 4.5l3 3.4-2e-3 469c-2e-3 460-0.037 469-1.9 472-1.1 1.7-3.4 4-5.2 5.1-3.5 2.1-634 3.6-641 1.5zm44-8.3c0-4.6-0.35-5.9-1.8-6.4-5.7-1.9-13-6-18-9.5l-5.4-4-11 11c-15 15-16 14 16 14h21zm219 0.45 0.3-5.2-4.3-0.017c-2.4-0.01-51-0.012-108-0.01l-104 0.012-0.32 3.1c-0.18 1.7-0.085 4.1 0.21 5.3l0.53 2.1 215-0.15zm36 1.1c6-20 35-20 40 1 0.47 1.9 1.3 2.8 2.9 2.8 3.9 0.12 13 0.13 21 0.03l7.7-0.096 0.69-10h-19l-33-16-30 15h-22l-0.31 4.4c-0.51 7-1 6.8 16 6.6l15-0.2zm290-0.96-1e-5 -5.2-42-0.27c-23-0.15-71-0.15-108-6e-4l-66 0.27v4.9c0 6.2-13 5.5 110 5.5h105zm50 4.1c1.6-0.92 0.38-2.5-10-13l-12-12-2.5 2.3c-4.5 4.1-12 8.6-18 10l-5.3 1.7v5.2c0 4.7 0.24 5.3 2.2 5.6 5.8 0.83 43 0.18 45-0.77zm-304-1.7c-5-16-25-18-33-3.7-3.1 6-3.2 5.9 16 5.9h18zm309-3c1.7-4.3 0.77-47-0.97-47-0.99-0.021-3.4-0.28-5.5-0.57-3.5-0.51-3.7-0.38-4.9 3.3-2 6-5.9 13-9.6 18l-3.4 4.1 11 11c12 12 12 12 13 11zm-648-1.5c1-0.96 6.2-6 11-11l9.6-9.3-3.9-5.2c-4.2-5.6-8.4-14-9.4-18-0.6-2.5-1-2.7-6.1-2.7h-5.5l-0.029 10c-0.016 5.6-0.092 15-0.17 22-0.18 15 0.55 18 4 14zm307-15c8.3-4.1 15-7.5 16-7.5s7.3 3.4 16 7.5l15 7.5h245l8.3-4.2c11-5.4 19-14 25-25l3.8-7.7 0.51-804h-23l-1.2 6.7c-11 65-111 63-121-2.2l-0.68-4.5h-480l-0.016 74c-0.0088 41-0.015 221-0.014 400l0.0023 327 2.1 5.6c4.9 13 14 23 27 30l7.9 4h245zm-301-41c0.0089-3.4 0.022-192 0.03-419l0.014-412-11-0.58 0.2 417c0.11 230 0.22 418 0.25 419 0.037 1.4 0.97 1.8 5 1.8h5zm643-413 0.027-419h-11v838h11zm-84-328c31-6 52-43 42-74-19-61-110-49-113 14-2.1 39 31 67 71 60zm-57-83c28-43 94-24 94 28 0 34-31 54-58 50-30-2.9-58-37-36-78zm65 71c38-19 35-74-5.4-88-15-5-24-4.2-40 3.8-8.2 4-20 19-21 27-0.31 1.7-0.84 3.6-1.2 4.2-2.1 3.5-0.76 20 2.2 27 0.73 1.6 2.1 4.6 2.9 6.6 9.2 20 41 30 63 19zm-563-87c2-5.8 6.1-13 9.9-17l2.6-2.8-11-11c-14-13-14-13-14-0.13-0.0087 5.4-0.065 15-0.12 21-0.16 17-0.75 15 5.7 15l5.6-0.3zm640-18c-0.38-28 0.58-27-13-13l-12 12 2.6 2.8c3.3 3.6 8 12 9.6 17 1.8 5.7 1.6 5.5 7.6 5.5h5.5zm-310-11 15-7.5h20l0.35-5.1c0.44-6.5 1.9-5.9-15-5.9h-15l-1.5 3.8c-3.9 9.9-9.1 14-18 15-11 0.89-20-5.7-23-17-0.38-1.3-2.8-1.5-16-1.5l-15 0.05v10l23 1 14 7.2c17 8.7 13 8.8 31-0.2zm-310 2.5c2.9-2.2 8.3-5.2 12-6.7l6.8-2.7v-5.3c0-6.8 0.7-6.6-25-6.2-26 0.43-26 0.015-12 13 5.8 5.6 11 11 11 11 0.63 1.4 2.1 0.75 7.4-3.3zm614-19c-0.65-0.65-9.4-1-24-1h-23v11l5 1.7c5.5 1.9 12 5.7 17 9.6l3 2.5 11-11c7.7-7.7 11-11 10-12zm-314 13c5.1-2.6 11-9.3 11-13 0-0.3-7.9-0.54-18-0.54-19 0-19 0.02-16 4.8 4.3 8.3 15 12 23 8.6zm-62-3.4-0.24-10h-215l-0.1 3.5c-0.22 7.7-5.5 7 55 7.3 30 0.14 74 0.16 98 0.029s48-0.24 53-0.25zm281 0.02 45-0.021v-11l-106 0.037c-122 0.043-109-0.62-109 5.9l0.35 5c57 0.7 113 0.09 170 0.042zm-12 105c-1.6-2-4.5-7.9-6.2-10-2.7-5.3-2.3-5.1-4.1-8.1-1.1-4.2-5.8-9.7-4.2-12 2.2-1.8 6.1 1 9.5 6.9 3.7 6.4 5.9 7.9 7.8 5.2 1.3-5.3 0.12-18-0.91-23-1.2-4.2-0.75-8.5 0.45-10 2.6-3.4 4.4-1 5.1 5.9 0.27 2.8 0.7 5.4 0.95 5.8 0.25 0.4 0.68 2.6 0.96 4.9 0.52 4.3 2.1 7.2 3.5 6.3 0.44-0.27 0.66-5.1 0.48-11-0.48-16 1.5-18 2.9-18 3.7-0.47 3.3 7.9 3.4 9.1v12c0 5.8 0.34 7.7 1.4 8.1 3.9-0.75 3.2-11 3.4-14 0.28-4.7 0.41-4.8 1.1-7.3 1.9-7 6.2-3 5.2 4.9-0.32 2.5-0.7 8.3-0.84 13-0.24 7.7-0.13 8.3 1.4 7.3 0.93-0.58 2.6-3 3.7-5.4 4.5-9.6 5.4-11 7-11 2.1-0.41 3.5 1.7 1.7 6.1-0.13 0.33-3.1 8.7-4.4 11-2.9 6.1-3.6 8.5-3.9 14-0.46 9.7-2.1 13-7.4 17-0.032 0.02-17 6.8-28-6.9zm14-51c-636-111-636-111 0 0zm-520 451c-5 0-7.5-5.1-9.7-10-2-4.5-1.8 4.9-2.6-191-0.44-109-0.31-127 0.92-131 1.7-5.7 7.5-12 13-13 2.6-0.81 41-1.1 142-1.2 76-0.076 141-0.24 145-0.36 3.7-0.12 71-0.32 150-0.44 133-0.2 144-0.096 147 1.4 4.2 2.1 6.4 4.5 8.3 8.9 2.6 6.3 1.3 323 0.085 327-1.1 3.8-7 9.7-11 11-1.2 0.48-128 1-290 1.3-273 0.38-288-1.3-292-1.3zm105-9.9 4.4-9.4 7.1 7.1-2.6 5.2c-1.4 2.9-2.3 5.6-2 6.1 1.4 2.2 3.6 0.54 5.9-4.3l2.4-5.2 5.8 3c5.1 2.6 5.7 3.2 5.2 5.2-0.48 1.9-0.2 2.3 1.8 2.3 1.3 0 2.9-0.54 3.5-1.2 0.77-0.77 3.5-1.1 7.7-0.92 5 0.21 7.4-0.17 10-1.7 2.6-1.3 4.3-1.7 5.4-1.1 2.3 1.2 18 0.96 20-0.34 1.5-1.2 3.5-10 3.6-16 0.24-9.9 1.5-8.5 2.8 3 1.7 16 1.2 15 17 15 6.8 0.039 14-0.29 16-0.73 3.8-0.74 4.1-0.65 4.4 1.5 0.31 2.2 0.55 2.3 11 2.3 12 0 12-0.1 11-6.6-0.55-2.6-0.46-6.6 0.26-11l1.1-7.1 27-0.44 1.5 4.8c0.91 2.8 1.5 8.1 1.5 13 0 7.9 0.061 8.1 2.3 8.1 4 0 4.8-2.1 4.3-11l-0.41-8.5 6.4 2.3c6.7 2.4 13 3.9 18 4 1.9 0.041 3-0.59 3.7-2.1 1.2-2.6 6.5-28 7.9-37 0.69-4.5 1.5-7 2.3-7 1.9 0 2.1 0.73 3.8 12 1.8 11 5 23 8.2 30 1.2 2.6 2.3 5 2.5 5.2 0.64 0.7 9.2 0.75 9.7 0.054 0.24-0.38 2.4-0.99 4.9-1.4 2.5-0.37 6.3-1.3 8.5-2.1 2.2-0.81 6.8-2.2 10-3.2l6.1-1.7-0.7 7.4c-0.39 4.1-0.73 8.5-0.76 9.8l-0.053 2.4 25 0.54-0.57-3.5c-0.54-3.3-0.45-3.5 1.7-2.8 3.3 1 7.9 1.5 20 2.1 11 0.49 11 0.41 12-1.5 1-1.7 4-19 4.1-23 0.01-0.67 1-1.2 2.2-1.2 2.5 0 3.8 3.1 5.6 14 0.62 3.7 1.3 7.7 1.5 8.9 0.29 1.5 1.4 2.4 4 3.1 4.3 1.1 17 1.5 19 0.57 0.56-0.35 3.2-0.75 5.9-0.89 4.7-0.25 4.8-0.17 4.3 2l-0.58 2.3h29l1.6-5c1.6-4.9 1.6-5.2-0.58-11-2.5-6.4-4.4-7.1-10-3.7-3.3 2-4.5 5.2-4.2 11 0.31 4.8-0.051 5.4-1.8 2.9-1.9-2.8-2.2-3.5-2.9-10-0.39-3.7-0.12-5.6 1-7.2 0.86-1.2 1.6-2.9 1.6-3.8 0-0.85 0.81-3.3 1.8-5.4 0.99-2.1 2.4-5.2 3.2-7 0.95-2.2 1.8-3 2.8-2.5 5.8 2.5 9.9 3.5 14 3.6 4.9 0.11 5.1 0.24 5.6 3 3.5 21 3.7 24 2 32l-0.76 3.6 28-0.021c25-0.019 28-0.2 32-1.8 4.8-2.2 7.7-5.3 9.1-9.8-0.34-81 1.8-161 2-242 0.14-66-0.059-79-1.2-82-2.1-5.1-7.2-9.2-13-10-3.3-0.72-22-1.8-60-0.74-29 0.8-53 0.24-79 0.48-12 0.13-90 0.27-172 0.3-84 0.033-148 0.43-150 0.46-38 0.67-77-1.7-115 0.62-4.9 0.83-9.3 4.1-12 9.5l-2.3 4.5 0.51 78c0.28 43 0.68 103 0.9 133 0.22 30 0.45 66 0.52 80 0.071 14 0.38 26 0.68 28 0.77 3.8 6.9 10 11 12 2.5 0.84 17 1.2 51 1.2h47zm31-0.72c-5.5-1.6-16-7.3-18-10-2.4-2.8-5.7-7.2-11-14-3-4.1-6.6-8-8-8.7-3.1-1.5-3-2.9 0.33-4 4.2-1.4 6.9 5e-3 10 5.4 5.6 9 8.9 12 16 15 3.5 1.6 8.3 4.6 11 6.6 4.2 3.5 12 6.2 14 5.3 0.72-0.27 1.6 0.73 2.2 2.4 0.81 2.3 0.73 3-0.45 3.4-2.7 1-9.5 0.44-16-1.3zm64 0.16-6-0.3-0.55-3.6c-0.3-2-0.79-6.2-1.1-9.5l-0.55-5.9 4.2-0.033c2.3-0.018 9.3-0.37 16-0.79l11-0.75-0.56 19-3.4 0.65c-5.3 1-19 7.7-19 1.1zm252-1.9c-0.048-2.3-2.1-11-4.3-17-0.65-2-0.37-2.1 7.9-2.2 4.7-0.068 12-0.39 16-0.73l7.4-0.6 0.71 4.2c0.39 2.3 1.5 6.6 2.5 9.5 1 2.9 1.8 5.8 1.8 6.4 0 1.1-16 3-27 3.4-5 0.14-5.1 0.072-5.2-2.6zm-294-0.8c-2.4-3-2.4-3.3-1.2-6.6 1.8-4.8 6.3-5.4 11-1.5 4 3.7 1.9 9.3-3.9 10-2.8 0.46-3.7 0.13-5.4-2.1zm254 1.9c-0.24-0.24-2.1-0.65-4.2-0.91s-6.1-1-9-1.6c-4.5-1-5.1-1.4-4.7-3.1 0.28-1.1 1.3-5.1 2.3-8.9s2.1-7.3 2.5-7.6c0.37-0.37 3.2-0.17 6.3 0.44 7.3 1.5 12 1.9 20 2l6.9 0.069-0.8 5.6c-0.44 3.1-1.1 7.5-1.5 9.9l-0.72 4.4-8.4 0.18c-4.6 0.097-8.6-0.021-8.8-0.26zm-237-4.9c-0.32-6.7-2.4-9.6-9.4-13l-3.9-1.9 7.3 0.59c4 0.32 7.5 0.74 7.7 0.92 0.21 0.18-0.054 3.9-0.58 8.3-0.53 4.4-1 6.6-1.1 4.9zm165-4.4c-3.5-9.4-5.7-18-7.3-27-1-6-2.1-11-2.4-12s1.1-0.91 3.2-0.94c7.9-0.13 17-1.1 21-2.3l4.4-1.3 2.2 3.8c1.2 2.1 3.6 5.4 5.3 7.4 3.7 4.2 10 14 13 18 1.6 3.1 1.6 3.1-1.1 4.5-4.3 2.2-33 10-36 10-0.6 0-1.3-0.54-1.5-1.2zm-201-2c-0.59-0.71-0.8-1.6-0.45-1.9 0.73-0.73 3.2 1.1 3.2 2.4 0 1.3-1.6 1-2.8-0.45zm162 0.28c-2.4 0-7.6-1.9-12-3.1l-7.3-2.4 0.079-6.2c0.26-20 0.36-21 1.7-20 0.92 0.76 4.2 0.91 10 0.47 12-0.85 18-2.3 19-5 0.97-2.2 2.4-2.9 2.4-1.2 0 0.5-0.48 2.1-1.1 3.6-1.1 2.7-3.9 15-5.8 25-1.5 8.4-1.9 9.7-2.6 9.6-0.39-0.063-2.6-0.91-5.1-0.91zm-156-7.1c-1.5-3-3.1-5.4-3.5-5.4-0.42 0-0.77-0.61-0.77-1.3 0-0.74-0.66-1.6-1.5-1.9-0.8-0.31-1.5-1.1-1.5-1.9 0-1.3-5.4-6.6-9.7-9.3-1.3-0.86-3.4-2.5-4.7-3.7-1.2-1.2-3.5-2.8-5.1-3.7-3.2-1.7-3.2-1.7-2-4.1 0.5-0.92 1.8-3.6 3-6 1.1-2.4 4-6.4 6.3-8.9l4.3-4.6 2.7 2.5c1.5 1.4 5.6 4.9 9.2 7.7 3.6 2.9 7.3 6.3 8.3 7.7 0.95 1.3 3.1 4.3 4.8 6.6 3.2 4.4 3.6 6 3.3 13l-0.21 4.4-2.6-7.9c-2.7-8-5.5-12-7.2-11-0.51 0.32-0.72 1.9-0.47 3.6 0.68 4.5 4.6 17 5.7 19 1.1 1.4 0.066 5.4-1.2 4.6-0.48-0.3-1.7-3.3-2.8-6.7-4.1-13-8-19-10-15-0.34 0.55 1.6 6.9 4.4 14 5.3 14 5.9 18 1.3 8.7zm-14-1.2c2.5 0-4.5-2.6-5.2-3.1-1.1-0.67-1.1-1.4-0.048-4.3 1.5-4.1 1.9-4.2 4.4-1.4 3.9 4.5 5.9 8 5.3 9.5-0.5 1.3-8.3-0.76-4.5-0.76zm-49-1.4c-1.4-2.2-0.44-8 1.6-9.7 2.7-2.3 7-0.99 8.2 2.4 0.73 2.1 0.51 3.1-1.1 5.3-2.2 2.9-7.4 4.1-8.7 2zm170-0.52c-0.85 1.1-2.8-0.79-3.2-1.2-0.42-0.4-0.46-6.7-0.091-14l0.67-13 3.5 0.62c6.7 1.2 6.5 0.96 7.8 10 1.4 9.7 2.3 12 4.8 12 3 0 3.9-2.2 5.1-12 1.3-11 2.8-13 2.8-3.8 3e-3 3.3 0.28 9.6 0.62 14l0.62 7.9-7.2 0.11c-3.9 0.06-8.5 0.28-10 0.49-1.6 0.21-4.5-1.1-5.3-0.082zm-88-9.7c-5.3 0 0.82-7.9-0.05-11-0.62-2.4-0.011-2.9 2-1.7 1.7 1.1 0.5 18-1.3 18-1.1 0 3.1-4.6-0.64-4.6zm48-2.4c0.35-3.9 0.78-7.2 0.96-7.4s3.4-0.53 7.2-0.71l6.9-0.32-0.62 4.1c-0.34 2.3-0.93 5.6-1.3 7.5l-0.69 3.4-13 0.57zm200 6.5c-0.24-0.24-2.4-0.65-4.8-0.9-8-0.85-8.2-1.1-8.5-7.2-0.15-3-0.52-6.3-0.82-7.3-0.5-1.7-0.13-1.7 4.7-1.1 4.9 0.69 7.2 0.92 12 1.3 2.1 0.15 2.2 0.46 2.1 7.9-0.16 7.3-0.29 7.7-2.3 7.7-1.2 0-2.3-0.2-2.6-0.44zm50-7.4v-7.3l8-1.1c4.4-0.58 8.1-0.98 8.2-0.9 0.087 0.087-0.22 2.1-0.69 4.5s-0.86 6-0.89 8l-0.042 3.6-4.4 0.12c-2.4 0.067-5.7 0.18-7.3 0.24l-2.9 0.12zm51-0.058c-0.98-0.57-2.3-1.1-2.9-1.2-0.62-0.11-2.8-0.76-4.8-1.4l-3.7-1.3 0.24-9.2c0.13-5 0.49-9.3 0.8-9.5 0.3-0.19 1.7-0.12 3.1 0.15l2.6 0.49-0.52 8.1c-0.45 7-0.3 8.2 1.1 8.7 2.6 1 3.4-0.68 3.7-8.2l0.27-7.1 4.6 0.43c2.5 0.24 4.9 0.67 5.2 0.96 0.29 0.29 0.01 3.1-0.63 6.2-0.64 3.1-1.4 7.2-1.6 9-0.69 4.7-3.3 6.1-7.4 3.7zm-86-13c-0.24-0.24-5.9-0.89-13-1.4-17-1.5-18-1.7-19-6.4-0.18-2.5-0.52-5.3-0.98-7.9-0.3-1.7 0.73-2.8 5.4-5.6 5.2-3.1 6.3-3.4 10-2.9 4.3 0.58 4.8 0.41 7.3-2.3 5.3-5.7 7.4-9.3 9.7-17 0.8-2.7 2.5-6.5 3.9-8.5 1.3-2 2.7-5.5 3-7.8 0.58-4.4 1.5-5.6 4.5-5.6 1.7-0.014 1.8 1.3 1.5 31-0.2 17-0.57 32-0.84 32-0.27 0.27-2.5 0.72-4.9 1s-5.1 0.77-5.9 1.1-1.7 0.36-1.9 0.12zm19-0.69c-0.024-0.21-0.087-15-0.14-34l-0.095-33 8.6-2.3c4.7-1.2 11-2.9 14-3.8 2.9-0.83 6.4-1.6 7.8-1.8 1.3-0.16 3.1-0.56 3.9-0.89 3.4-1.4 10-3.5 11-3.5 0.58 0 0.71 1.3 0.31 3.1-0.36 1.7-0.88 5.8-1.2 9s-1.2 8.4-2 12c-0.82 3.2-1.6 7.1-1.8 8.7-0.17 1.6-1 7-1.8 12-0.84 5.1-1.5 11-1.5 13-2e-3 2-0.39 3.8-0.86 4.1-0.47 0.29-1.2 2.8-1.6 5.6-1.4 10-1.1 10-7.8 11-7.9 0.85-27 1.9-27 1.5zm-250-1.6-6.7-0.29 0.63-5c3.4-27-4.6-99 4.3-144l1.7-8.7 8.1 0.22c4.5 0.12 8.2 0.34 8.3 0.48 0.11 0.14-0.25 3.4-0.8 7.3-0.9 6.3-0.82 7.2 0.78 9 0.98 1.1 2.5 2 3.4 2 3.3 0 27 8.3 27 9.4-0.089 0.45-0.43 16-0.76 34-0.64 35-0.44 33-6.5 56-3.8 14-6.5 26-7.4 33-0.54 3.9-1.1 7.3-1.3 7.5-0.5 0.5-38 0.64-30 0.64zm86-0.2c0-0.53 0.44-0.97 0.97-0.97s0.97 0.44 0.97 0.97c0 0.53-0.44 0.97-0.97 0.97s-0.97-0.44-0.97-0.97zm-104-0.48c-0.39 0-2.4-0.68-4.8-0.9-17-1.6-19-2.2-15-5.8 1-0.92 2.1-3.1 2.5-4.9s1.9-4.9 3.5-6.8c3-3.7 3.7-6.6 1.9-7.7-0.57-0.35-0.74-2-0.39-3.8 1.4-7.2-3.4-13-10-13-4 0.042-5.9 1.2-12 7-4.9 4.4-5.1 4.7-3.9 7.4 1 2.5 0.93 3.1-0.73 4.9l-1.9 2-2.7-3.2c-1.5-1.8-3.1-3.1-3.6-2.9-2.1 0.64-3.4-2.2-4-8.8-0.36-3.9-1.3-10-2.2-14-2.3-11-3.1-18-2.3-20 0.38-1.1 0.36-5.6-0.044-10-0.41-4.5-1-15-1.3-24-0.33-8.5-0.83-18-1.1-22-0.27-3.3-0.24-6.1 0.059-6.1 2.4 0 25-4.1 29-5.2 2.4-0.75 5.6-1.1 7-0.88 3.6 0.68 4.8-2.2 4.3-9.8-0.39-6.2-0.38-6.2 2.5-7.2 1.6-0.56 5.1-1 7.7-1 4.5 0 4.8 0.17 7.5 4.3 3.4 5.4 4.6 11 5.9 31 1.4 21 0.96 66-0.65 68-1.4 1.4-1.7 3.1-0.37 2.4 0.47-0.29 1 0.89 1.3 2.6 0.55 4.2 0.38 47-0.19 47-0.89 0.81-4.3 1.1-5 1.1zm-51-98c-243-403-243-403 0 0zm164 97c2.2-7.9 3.7-16 3.2-19-0.68-2.7-5.3-5.1-8.4-4.3-1.9 0.49-1.9 0.045-1.9-11v-11l7.3-1.6c7.3-1.6 10-3.3 10-5.9 0-0.75-0.87-3.7-1.9-6.5s-1.9-5.5-1.9-6.1c7e-3 -0.91 6.7-2.6 28-7.1 4.8-1 11-2.2 14-2.5 5.5-0.74 18-3.7 22-5.1 1.9-0.74 3.3-0.36 7 2 5.6 3.5 11 4.3 19 2.7l6-1.2 2.2 2.7c3.8 4.7 3.7 4.8-11 8.2-2.4 0.56-9.8 2.5-17 4.3-6.7 1.8-15 3.8-19 4.3-4 0.59-10 2.1-14 3.4-3.9 1.3-7.9 2.3-8.9 2.3-1 0-5.7 1.3-10 2.8-4.7 1.5-10 3.1-13 3.5-4.8 0.79-6.5 2.5-8.6 8.2-3 8.6-1.3 12 5.8 11 1.6-0.18 5.4-0.56 8.5-0.84 7.4-0.67 12-4 14-9.9 1.7-6.5 5.6-5.5 5.6 1.5 0 3.7-1.7 5.6-7.8 8.7-7.3 3.7-9.4 7.1-10 16-0.35 4.1-0.79 8-0.97 8.6-0.19 0.6-2.5 1.4-5 1.7-2.6 0.35-6.4 0.89-8.5 1.2-3.6 0.54-3.8 0.46-3.1-1.7zm16-51c0.33-0.53 0.14-0.97-0.43-0.97s-1 0.44-1 0.97c0 0.53 0.19 0.97 0.43 0.97s0.7-0.44 1-0.97zm12-4.3c0.93-2 0.73-2.9-1.4-5.7-5-6.5-12-7.8-13-2.2-0.37 3.1 2.7 6.9 7.1 8.8 4.3 1.9 6.2 1.6 7.4-1zm17-4.8c1.4-3-0.13-5.9-4.3-8.4-5.1-3.1-10-2.1-10 2 0 2.2 5.8 7.5 8.7 8 4.5 0.8 4.9 0.7 5.9-1.6zm15-3.8c1.4-2.1 1.3-2.4-2-5.3-4.2-3.7-8.5-4.2-9.3-0.99-0.63 2.4 1.3 5.5 4.4 7.3 3.3 1.8 5.2 1.5 6.8-0.96zm-87 64c-0.53-0.78-3.9-2-7.6-2.6l-6.7-1.2 1.3-28-3-6c-1.6-3.3-3-6.8-3-7.7 0.046-4.2 4.9-20 8.5-27 2.2-4.5 4.5-10 5.1-13 0.66-2.6 1.9-6.7 2.8-9l1.6-4.2 4 16c2.2 8.7 5.2 19 6.7 24 2.6 7.9 2.7 9 2.7 30 0.057 26 0.12 26-3.6 26-3.6 0-6.5 1.5-7.4 3.9-0.58 1.6-0.84 1.6-1.6 0.44zm-157-1.2c0-3.2-18-12-20-13-1.3-0.92 0.32-3.8 2.1-3.8 0.93 0 3.4 1.2 5.5 2.7 11 7.9 15 4.1 6.2-6.1-2.1-2.5-3.9-4.8-3.9-5.2 0-1.1 8-6.9 9.5-6.9 0.77 0 3 1.4 5 3.1s5.6 4.6 8.1 6.3l4.6 3.1-4 4.1c-4.5 4.6-8.6 11-8.6 13 0 0.71-0.55 2-1.2 2.8-1.1 1.4-3.6 2.7-3.6 0.024zm259-0.79c-1.1-2-2.9-17-2.4-20 1.1-5.5 3.9-14 4.6-14 0.63 0 1.8 4.4 2.4 9.3 0.14 1.1 0.99 3.4 1.9 5.2 1.4 2.6 1.4 3.3 0.3 4.3-0.73 0.62-2.1 3.7-3.1 6.9-2.5 8.4-3.1 9.7-3.7 8.7zm-82-8.1c0-5.2 0.21-5.9 1.9-5.9 2.3 0 2.3 0.54 0.85 6.4-1.6 6.4-2.8 6.2-2.8-0.5zm59 0.33c0-4.9 0.16-5.2 2.3-5.2 1.3 0 4.2-0.66 6.5-1.5 2.3-0.8 4.3-1.3 4.5-1.2 0.32 0.32 1.3 5.5 1.6 8.8 0.21 2-1.7 2.6-11 3.7l-4.1 0.51zm-196-1.7c-2.7-2.2-5-4.5-5-5.1-0.12-2.1 3-5.4 4.2-4.5 0.62 0.51 3.1 1.9 5.5 3.2l4.4 2.3-4.1 8.1zm366 3c-8.9-1.2-11-2-10-3.6 0.26-0.42 0.66-2.8 0.9-5.4 0.24-2.5 0.83-4.9 1.3-5.2 6.1-4.1 10-7.4 9.7-8.3-0.6-1.8-4.6-1.7-7.9 0.25l-3.2 1.9-1.1-2.1c-0.58-1.1-1.3-3.2-1.5-4.5-0.99-5.1-2.6-11-4-16-1.4-4.4-1.4-4.7 0.52-6.7 1.1-1.2 2-2.6 2-3.2s2-4.3 4.4-8.1c2.4-3.9 4.4-7.4 4.4-7.8 0-0.79 4.8-5.5 4.9-4.8 0.051 0.23 0.66 3.2 1.4 6.7 2.2 11 4.3 20 6.2 26 2.2 7.1 2.9 10 3.7 15 0.3 2.2 0.91 4.7 1.3 5.5 0.45 0.84 0.13 5.8-0.72 11-1.7 11-0.53 10-12 8.7zm-133-12c-3.1-8.4-5-15-4.5-15 1.3-1.1 9.5-5.4 11-5.9 1.7-0.51 2.1-0.32 1.6 0.83-1.5 3.9 5.5 15 9.4 15 3.6 0 2.3 1.4-7.3 7.8-3.2 2.1-6.3 3.8-7 3.8s-2.3-2.9-3.6-6.5zm-141 1.5c-0.67 0 0.41-2.7 0.91-4.6 0.5-1.9 1.4-5.3 2.1-7.7 0.96-3.6 1.3-4 1.9-2.4 0.43 1.1 0.81 5.1 0.85 9l0.068 7h-2.9c-1.7 0-2.2-1.2-2.9-1.2zm-165-10c0-18-12-14-11-17 0.29-1.3 4.6-11 9.7-21s10-21 12-24 3.6-8.1 4.9-11c1.3-2.8 2.3-5.4 2.4-5.8 0.017-0.43 0.62-1.6 1.3-2.5 1.2-1.6 1.9-0.64 6.9 9.2 3.1 6 5.9 11 6.3 12s1.9 3.7 3.4 6.9l2.7 6-4.3 6.6c-6.2 9.5-14 19-16 19-0.98 0-2-0.76-2.2-1.7-0.41-1.6-0.45-1.6-0.56 0.044-0.094 1.4-0.68 1.6-3.4 1.1-3.9-0.74-7.4 0.16-7.4 1.9 0 1.7 7.1 4.5 12 4.9 2.6 0.21 5.2 1.2 7 2.7 1.6 1.3 3.4 2.6 4.1 2.8 0.76 0.26-0.71 2.2-3.8 5-2.8 2.5-5.3 5.4-5.6 6.4s-1.4 1.9-2.4 1.9-2.7 1.3-3.9 2.9c-1.1 1.6-2.4 2.9-2.8 2.9s-8.9-2.7-8.9-9.6zm254 9.2c0-0.32 1.7-1.3 3.9-2.1 2.1-0.85 5.2-3.1 6.9-5 2.9-3.3 3-3.7 2.7-11l-0.33-7.4 3.5-1.7c1.9-0.93 6.1-2.2 9.2-2.7 3.2-0.58 6.6-1.4 7.7-1.9 4.6-1.9 5.3-1.9 5.3-0.13 0 0.96-0.31 2.1-0.69 2.4-0.38 0.38-2.5 6-4.6 12l-3.9 12-6.3 1.7c-3.5 0.96-8.5 2-11 2.3-2.7 0.29-6.5 0.79-8.5 1.1-2 0.31-3.6 0.3-3.6-0.013zm-174-4.6c-3.1-1.6-5.6-3.3-5.6-3.8 0-1.9 4.8-3.9 7.8-3.3 2.8 0.62 3 0.92 2.5 3.8-0.28 1.7-0.035 3.7 0.55 4.2 2.3 2.3-0.029 1.8-5.4-1zm254-0.87c-1-0.64-0.83-1.7 0.98-5.1 4.6-8.7 0.62-12-6.3-5.4l-4.1 4-1.6-3.1c-1.5-3-1.5-3.1 0.79-5.6 1.3-1.4 3.1-3.7 4-5.2l1.7-2.6 4.7 2.9c2.8 1.7 6.7 3.1 9.6 3.5 2.7 0.32 4.9 1 4.9 1.5 0 1.6-6 13-7.4 14-1.7 1.4-5.7 1.8-7.4 0.79zm-75-11c-0.047-4 0.28-7.3 0.73-7.3 0.45 0 0.87 1.2 0.95 2.7 0.41 8.2 0.25 11-0.62 12-0.58 0.19-1-2.6-1.1-6.9zm-33 4.1c0.047-2.6 3.7-5.4 8.9-6.9 7-2 6.6-2 6.6 1.2 0 2.2-0.66 3.1-3.2 4.2-4.5 2-12 3-12 1.4zm75-11c-1.3-4.7-1.3-6.4 0.12-9.4 1.2-2.7 5.8-4.5 6.4-2.6 1.1 3.2 3.9 5.3 7 5.2 5.8-0.16 5.1 0.88-2.9 4.8-4.3 2.1-7.8 4.3-7.8 4.7 0 2.3-2 0.45-2.9-2.8zm47-6c-0.28-1.1-0.94-1.9-1.5-1.9s-0.71 0.65-0.4 1.5c1.3 3.4-7.6 0.2-11-3.9-1.2-1.5-2.1-3.8-2.1-5.3s-1.5-6.5-3.4-11c-1.9-4.7-3.1-8.9-2.9-9.4 1.1-1.8 2.2-0.61 4.3 4.5 2.4 5.8 4.4 8.1 5.9 6.7 0.88-0.87 0.17-6.5-1.6-13-0.46-1.6-0.22-2.2 0.95-2.2 0.86 0 1.6 0.67 1.6 1.5 0 2 3.4 8.5 5.1 10 3.4 2.9 3.6-3.9 0.24-12-0.51-1.2-0.29-1.7 0.69-1.7 2.2 0 8.1 9.6 8.8 14 0.36 2.3 1.3 6 2.1 8.2 0.78 2.2 1.4 4.9 1.4 6-0.16 5.3-7.3 11-8.4 7.3zm-24-1.8c0-0.53 0.44-1.2 0.97-1.6s0.97-0.16 0.97 0.37c0 0.53-0.44 1.2-0.97 1.6s-0.97 0.16-0.97-0.37zm-114-1c-0.49 0-0.27-1.6-0.59-2.4-0.39-1-0.052-1.5 0.99-1.5 2.2 0 5.4-5.6 5.5-9.7l0.09-3.4 1.3 4.4c0.69 2.4 1.7 5.6 2.3 7.1 1.6 4 1.5 4.2-3.2 5.4-5.2 1.3-5.2 0.19-6.4 0.19zm103-4.9c0-0.53 0.68-0.97 1.5-0.97 0.83 0 3.7-0.71 6.3-1.6 6.2-2 7.3-0.99 1.7 1.5-4.6 2.1-9.6 2.6-9.6 1zm-105-5.7c-1.8-2.8-8.6-29-10-39-1.2-7.7-1.7-9.8-2.4-12-0.46-1.1 1.1-1.8 7.4-3.3 15-3.4 19-4.7 21-6.8 0.96-1.4 1.4-4.6 1.4-10 0-7 0.21-8 1.5-7.5 0.85 0.33 2.6 0.81 3.9 1.1s3.4 0.69 4.6 0.94c2.5 0.51 3.4 2.6 6.5 16 1.3 5.8 2.1 14 2.6 27l0.66 19-3.8 0.49c-2.1 0.27-5.5 1.1-7.7 2-2.1 0.81-5.4 1.6-7.2 1.8-3.2 0.32-3.4 0.16-3.7-3-0.21-1.8-1.5-4.8-2.9-6.5-2.1-2.8-3.1-3.2-6.5-3.2-2.2 0-4.6 0.52-5.2 1.2-1.7 1.7-1.4 5.9 0.78 12 1.1 2.8 1.9 6 1.9 7.2 5.3e-4 2.3-1.5 3.8-2.4 2.3zm26-24c-0.047-1.7-0.54-2.8-1.1-2.6-1.3 0.43-1.9 3.2-1.2 5.2 0.89 2.3 2.4 0.62 2.3-2.6zm0.3-7c1.2 0 0.25-4.2 0.44-6.8 0.19-2.5-0.062-4.6-0.57-4.6-0.51 0-0.96 0.33-0.99 0.73-0.89 9.3-0.89 13 5e-3 13 0.57 0-0.078-2.2 1.1-2.2zm188 27c0.4-2.4 0.69-5.3 0.63-6.4-0.056-1.1 0.44-2.5 1.1-3 1.4-1.1 6.5-2.4 6.5-1.7 0 0.85-7 14-8 15-0.66 0.65-0.74-0.45-0.25-3.4zm-64 1.1c-0.32-0.51-0.032-1.3 0.63-1.9 1.9-1.5 17-6.1 36-11 6.4-1.6 13-3.3 14-3.8 13-4.4 23-7 24-6.1 1.5 1.5 0.15 3.2-2.6 3.2-2.6 0-16 3.2-21 5.2-1.9 0.7-5.8 2-8.7 2.8-32 9-40 11-41 12-0.88 0.36-1.9 0.24-2.2-0.27zm-144-8.3c-0.61-1.5-0.92-3-0.68-3.2 0.71-0.71 2.7 3.6 2.2 4.9-0.24 0.64-0.93-0.1-1.5-1.6zm142-4.4c-1.5-3-1.7-4.1-0.8-4.4 0.68-0.23 9.5-2.2 20-4.5s21-5.1 24-6.4c6.3-2.6 7.6-2.2 8.7 2.8 0.59 2.5 0.44 2.6-6.9 4.2-4.1 0.91-9 2.3-11 3.1-1.9 0.77-7.5 2.5-13 3.8-9.1 2.4-13 3.5-17 4.7-1.8 0.54-2.5-8e-3 -4.2-3.3zm-180-24c13 0 0.46-24 0.67-25 0.21-0.63 2.5-1.4 5.1-1.7 2.6-0.33 6.4-0.85 8.5-1.2 3.2-0.46 3.7-0.32 2.8 0.78-2 2.5-6 14-9.5 27-3.3 12-6.6 23-7.5 24-0.21 0.21-13-23-0.099-23zm75 23c13 0-0.51-32 0.099-36 0.44-2.7 1-6.4 1.3-8.2 1.9-13 2.5-14 7.7-15 9-2.2 8.7-2.6 7.9 9.5l-0.69 11 2.8 1.5c1.6 0.8 6.9 2 12 2.6 18 2.3 16 1.7 16 5.1-0.25 1.7-0.73 7.9-1.1 14l-0.63 11-2.6-1.5c-2.4-1.4-3.1-1.4-8.9 0.56-3.5 1.1-9.3 2.5-13 3.1-5.9 0.94-10 1.8-19 3.5-1.2 0.25-2.6-0.3-2.2-0.3zm54-3.4c0.039-0.67 0.91-2.5 1.9-4.1s2.5-4.3 3.3-6.1c0.81-1.7 1.8-3.1 2.3-3.1 0.46 0 1.1 2.3 1.5 5.1 0.37 2.8 0.91 6.1 1.2 7.3 0.51 2.1 0.25 2.2-4.9 2.2-3.7 0-5.4-0.38-5.4-1.2zm16-0.97c-0.044-0.13-0.19-1.1-0.32-2.2-0.13-1.1-0.56-4-0.94-6.5-0.79-5.1-0.1-5.9 6.5-7.1 2-0.38 4.2-1.2 4.8-1.8s3.9-2.5 7.3-4.3c9.5-4.8 10-5.7 9.7-13-0.37-7.1-0.076-7.3 8.4-6.2l5 0.63 1.7 7.5c0.92 4.1 1.8 11 2 15l0.3 7.9-6 2c-6.5 2.2-11 2.6-12 1.1-0.9-1.5-7.4-1.2-11 0.49-1.5 0.8-3.4 1.4-4 1.4-0.7 0-3.4 1.1-6.1 2.4-4.5 2.3-5.9 2.8-6.1 2.2zm-282-4.8c-0.73-2.3-1.6-4.3-2-4.6-0.77-0.59-8.6-17-11-21-4.1-6.9-2-2.4-3.4-5.1 0-0.67-1.6-4.2-3.5-8s-3.3-6.9-3-7.2c0.5-0.5 12 1.3 17 2.6 4.6 1.2 4.2-0.75 6.1 28 0.27 4 0.74 10 1 13 0.31 3.3 0.38 6.1 0.15 6.1-0.22 0-1-1.9-1.7-4.1zm-6.9-37c-0.036-2.6-0.49-3.9-1.4-3.9-1.5 0-1.6 0.47-0.74 4.7 0.86 4.3 2.2 3.8 2.1-0.85zm380 30c-0.41-2.4-1.6-4.6-3-5.7-1.3-1-2.3-2-2.3-2.3s2.3 0.14 5.1 0.87c2.8 0.72 6.1 1.3 7.3 1.3 1.9 0 2.2 0.5 2.2 3.4 0 3.5-0.35 3.8-6.5 5.7-1.8 0.57-2.2 0.19-2.8-3.3zm-111 1.1c-0.33-0.53-0.14-4.6 0.41-9 0.55-4.4 0.78-8.6 0.51-9.3-0.33-0.85 0.88-1.7 3.6-2.4 7.6-2.1 10-2.6 10-1.9 0 0.4-1.5 2.7-3.4 5.1-1.8 2.4-4.7 6.9-6.3 10-4 7.7-4.6 8.5-5.3 7.4zm68-5c0-2.6 0.42-5.8 0.93-7.2s1.2-4.4 1.5-6.9c0.29-2.4 1.3-6.1 2.2-8l1.7-3.6 6.7 0.18c3.7 0.1 7.1 0.6 7.6 1.1 0.6 0.6 0.42 3.2-0.51 7.3-1.1 4.8-1.2 6.7-0.34 7.8 1.2 1.6 10 4.6 12 4.2 0.8-0.12 1.7 0.19 1.9 0.7 0.46 0.87-4.5 2.7-10 3.8-1.5 0.28-5 1.3-8 2.4-2.9 1-7.6 2.1-10 2.4l-5.1 0.56zm56 3.9c-0.14-0.27 0.12-1.8 0.56-3.5 0.63-2.3 2-3.6 5.9-5.6 2.8-1.4 5.6-2.6 6.2-2.6 0.63 0 0.3 2.2-0.85 5.7l-1.9 5.7-4.8 0.33c-2.7 0.18-5 0.11-5.1-0.16zm-60-25c0.72-4.9-3-9.9-7.5-9.9-3.3 0-4.8-1.2-3.8-2.9 0.39-0.63 1.3-0.58 2.7 0.17 3.4 1.8 22 2 25 0.29 3.2-1.6 4.1-1.3 3.2 0.96-0.38 1-2 1.5-4.7 1.6-2.3 0.057-5 0.17-6 0.24-1.8 0.13-7.1 7.5-7.3 10-0.042 0.67-0.54 1.2-1.1 1.2s-0.92-0.76-0.78-1.7zm-84-0.94c-2.4 0-3.6-8.4-4.4-27-0.88-21-0.89-25-0.055-30 0.58-3.4 0.38-4.4-1.3-5.8-2-1.7-2.6-5.5-1.1-6.5 0.77-0.48 2.6-11 2.3-12-0.074-0.31-0.34-2.8-0.59-5.5-0.25-2.7-1.1-5.9-1.9-7.2-0.79-1.2-1.7-3.3-2.1-4.4-0.55-1.9-0.29-2.2 1.8-2.2 3.7 0 7.3 3.8 9.3 9.6 1.6 4.8 1.7 8.4 1.3 48-0.25 23-0.75 43-1.1 43-0.36 0.31-1.3 0.2-2.2 0.2zm0.098-58c0-0.77-0.44-1.4-0.97-1.4s-0.97 0.9-0.97 2 0.44 1.7 0.97 1.4c0.53-0.33 0.97-1.2 0.97-2zm-1.5-8.2c-0.47-0.76-1-0.81-1.7-0.17-0.53 0.53-0.65 1.5-0.27 2.1 0.47 0.76 1 0.81 1.7 0.17 0.53-0.53 0.65-1.5 0.27-2.1zm-37 55c-0.62-2.3-1.4-4.9-1.7-5.8-0.46-1.2 0.095-1.7 2.3-2l3-0.43-0.63 3.9c-1.3 8.3-1.7 8.8-2.9 4.3zm117-4.4c-3.6 0-9.4-8.3-9-12 0.092-0.91 0.084-1.9-0.016-2.1-0.1-0.27-0.31-3.3-0.47-6.8-0.16-3.5-0.59-7.4-0.96-8.8-0.4-1.5-0.055-4.2 0.83-6.8 0.83-2.4 1.5-5.2 1.5-6.4 0.024-3.6 1.1-5.2 3.5-5.2 1.2 0 2.5 0.39 2.8 0.86 0.29 0.47 6 0.8 13 0.73 11-0.12 12 0.073 13 1.6 0.5 0.94 0.83 2.2 0.72 2.9s0.084 1.9 0.42 2.7c0.34 0.8 0.77 3.1 0.95 5s0.84 4.2 1.5 4.9c0.76 0.91 0.95 4.3 0.58 10-0.5 8.5-0.77 9.4-4.1 14l-3.6 5.1-9.2-0.12c-5.1-0.066-10-0.53-11-0.53zm14-14c0.4-0.25 0.74-1 0.74-1.8 0-0.93-1.1-1.2-3.7-1.1l-3.7 0.26 0.048-7.5c0.03-4.6-0.42-8-1.2-8.9-2.5-3.1-16-2.5-16 0.66 0 1.9 1.1 2.5 3 1.5 1.1-0.6 2-0.6 2.3 2e-3 0.32 0.52 1.8 0.71 3.2 0.43 3.8-0.74 4.8 1.6 4.1 9.6-0.53 6.1-0.41 6.7 1.4 7.5 1.8 0.77 7.8 0.32 9.5-0.71zm-263 6.4c-0.3-0.8-1-3.3-1.6-5.6-0.59-2.3-1.3-4.8-1.6-5.6-0.4-1.1 0.32-1.4 3-1.4 3.9 0 3.9-0.07 2.1 8.2-0.7 3.2-1.5 5.2-1.8 4.4zm145-2.6c3-2.7 3.5-2.8 3.5-0.44 0 1.3-0.86 2-3 2.3l-3 0.44zm-20-1.1c11 0-15-12-14-15 0.25-0.94 0.092-1.7-0.34-1.7-0.44 0-1.3-3.2-1.9-7s-1.5-9-2.1-11c-0.67-3-0.69-5.3-0.045-6.9 0.53-1.4 1.2-4.8 1.5-7.6 0.32-2.8 0.77-5.4 0.99-5.7 0.22-0.36 3.4-0.5 7.1-0.32 6.3 0.32 6.8 0.19 9.4-2.6 3.6-3.7 4.7-3.6 6.1 0.25 1.4 3.8 6.7 8.2 13 10 8.3 3.1 3 6.4 7 14 1.7 3.1 1.3 7-1.9 18-1.5 5.4-2.6 7.3-6.1 10-7.5 6.7-25 5-18 5zm9.3-17c-1.5-1.5 1.5-1.7-0.081-2.6-0.93-0.52-3.4-0.94-5.4-0.94-2.1 0-3.7-0.13-3.7-0.29 0-0.16 0.45-1.5 0.99-2.9 3.8-10 0.83-20-6.6-21-3.8-0.82-9 0.73-11 3.4-1.6 1.7-1.6 1.9-0.11 2.5 0.88 0.34 2.3 0.072 3.1-0.59 2-1.7 9.1-1.7 10-0.077 1.4 2.2 2.1 8.8 1.2 11-0.48 0.91-1.2 3.9-1.6 6.7-0.64 4.7-0.53 5.1 1.6 6 3.8 1.5 14 1.2 12-0.58zm-22-3.9c-0.5 0-0.15-1.2 0.44-1.9 0.7-0.84 0.73-1.3 0.082-1.3-0.55 0-0.77-0.87-0.49-1.9 0.28-1.1 0.03-1.9-0.58-1.9-0.6 0-1.1 1.5-1.1 3.2 0 3 0.6 4.5 1.8 4.5 0.27 0 0.34-0.64-0.15-0.64zm120 15c-0.23-3.7 0.2-12 0.63-13 0.95-0.95 1.3 0.6 1.5 7.1 0.16 4.5-0.14 6.8-0.9 7.1-0.63 0.21-1.2-0.42-1.3-1.4zm49-2.1c0-5.6 1.1-10 2.3-9.6 0.97 0.33 1 2 0.27 11-0.087 1-0.7 2-1.4 2.3-0.83 0.28-1.2-0.79-1.2-3.4zm-299-6.5c0 1.8 1.1-1.8 3.5-0.031 1.8 1.4 1.8 1.4-0.79 1.5-1.7 0.02-2.7-2.4-2.7-1.4zm18-0.56c-1.6-0.48-3.5-0.67-4.2-0.4-1.8 0.66-5-1.2-5-2.9 0-0.78-0.46-1.4-1-1.4-12-3.2-14-10-15-21-0.89-12-0.82-14 0.75-29 1.5-14 2-15 12-13 3.7 0.42 11 1 16 1.4 4.8 0.35 9.6 1.2 11 1.9s4.2 5.8 6.9 11l5 10-0.99 28-7.8 6.5c-4.3 3.6-8.5 7.3-9.3 8.2-1.7 1.9-3 2-7.4 0.65zm-15-18c2.4 0 2.1-3.9 5-3.2 11 2.4 13-4.8 10-4.8-2.9-0.022-4.9-0.5-5.2-1.2-0.22-0.67 0.34-1.2 1.2-1.2 1.3 0 1.4-0.29 0.54-1.3-0.8-0.96-0.85-2.5-0.16-5.6 1-4.5 0.28-19-0.94-18-0.4 0.25-2.5-0.19-4.8-0.97-5.4-1.9-11-0.82-12 2.2-0.26 1.8 0.15 2.1 2.5 2.1 1.6 0 3.1 0.33 3.5 0.73s1 0.75 1.4 0.77c5.4 0.4 6.1 3.1 3.4 14-1.3 5.5-2 6.7-3.9 7.2-1.3 0.31-2.3 1.3-2.3 2.1 0 0.97 0.54 1.3 1.5 0.98 2.1-0.81 1.8 1.1-0.38 2.2-5.3 2.8 0.036-10 1.1-9.1 0.29 0.29 1-0.86 1.6-2.6 1.3-3.8 1.4-4.7 0.11-4.7-0.53 0-0.97 1.1-0.97 2.4 0 1.6-0.55 2.4-1.5 2.4-1.1 0-1.3-0.56-0.87-2.1 0.41-1.3 0.16-2.4-0.66-2.9-17 4.6-3.7 20 0.92 20zm17-11c0.32 0.84 1.5 1.5 2.7 1.5 1.1-0.042 1.5-0.3 0.87-0.56-1.9-0.78-1.4-2.2 0.79-2 13 6.7-7.4-10-4.3 1.1zm21-0.86h-3e-5zm-24-2c-0.72 0.45-0.68 1.3 0.16 2.8l1.2 2.1 0.34-2.3c0.23-1.5 0.31-3.9-1.7-2.6zm6.7-32c-308-271-308-271 0 0zm-19 0c-289-271-289-271 0 0zm171 57c0.38-2 0.78-4.2 0.89-4.8 0.33-2.1 1.5-2.6 1.5-0.67-0.023 3.9-1.3 9.1-2.2 9.1-0.58 0-0.68-1.4-0.25-3.6zm-55 1.7c-0.34-0.55-0.81-3.5-1.1-6.5-0.51-6.5 0.88-4.4 2 2.9 0.66 4.5 0.36 5.7-0.91 3.6zm131-12c0-10 0.15-10 3.1-13 8-6.8 6.9-6.5 18-6.5 14-0.024 18 0.42 19 2.3 0.33 0.85 1.3 2.4 2.1 3.4s2.5 2.9 3.6 4.3c1.2 1.4 1.9 3.4 1.7 4.5-0.21 1.1-0.46 4.3-0.55 7.1-0.16 4.9-1.8 7.5-1.9 3-0.022-1.2-1-4.1-2.2-6.5l-2.1-4.4-12-0.042c-6.7-0.023-15-0.39-18-0.82l-5.5-0.78-1.7 7.1c-2.4 10-2.5 11-3.4 11-0.44 0-0.66-4.6-0.66-10zm-202-13c-0.038-3.8 0.37-7.2 0.9-7.6 1.2-0.74 1.2 9.8 0 13-0.57 1.3-0.86-0.24-0.9-5zm-64 3.3c-0.66-2.5-0.83-11-0.2-10 0.58 0.58 1.7 12 1.2 12-0.24 0-0.7-0.98-1-2.2zm187 0.9c-2.2 0 0.19-3.3 1.5-2 0.55 0.55 0.57 1.5 0.036 2.3-0.75 1.2 0.017-0.29-1.5-0.29zm-54-10c-1.1-4.7-0.38-9 1.9-10 0.67-0.41 0.83-2.4 0.44-5.3-0.47-3.5-0.22-5.2 1.1-7.2 0.92-1.4 2-2.5 2.3-2.5 0.34 5.4e-4 0.62 3.2 0.62 7s0.44 7.4 0.97 7.8c0.6 0.46 0.34 1.1-0.69 1.7-1.8 1.1-3.7 6.6-3.7 11-9e-3 4.2-1.6 3.1-2.9-2zm56 3.9c-2.2-0.55-9.2-5.1-7.8-5.1 0.49 0-0.5-1.2-2.2-2.7-1.7-1.5-2.9-2.9-2.7-3.1 0.21-0.22-0.69-1.2-2-2.2-2.4-1.8-2.4-1.8-3 0.35-0.52 2-0.66 1.9-1.9-1-1.7-3.7 1.2-7-3.9-5.6-2 0.56-5.3 2.3-7.3 3.9l-3.6 2.8-1.5-2.9c-2.8-5.5-1.2-12 4.1-17 2.6-2.2 3.7-2.4 9.1-2.2 8.1 0.32 11 1.2 16 4.4 5.1 3.5 6.6 5.4 8.6 11 2.4 6.4 2.1 8.4-1.4 10-3.7 1.9-3.2 3.9 1 3.6 2.7-0.22 3.1-8e-3 2.4 1.5-0.4 0.94-0.7 2.5-0.66 3.4 0.072 1.8-0.017 1.8-3.2 0.98zm-7.3-14c0-0.55 0.98-1.4 2.2-1.9 2.1-0.85 2.1-0.88 0.15-0.94-1.1-0.034-2.8 0.81-3.8 1.9-1.6 1.7-1.6 1.9-0.15 1.9 0.88 0 1.6-0.45 1.6-1zm-38-3.4-2.1-4.4 2.2-5.4c2.2-5.3 4.1-7.2 7.3-7.2 1.3 0 1.2 0.49-0.87 2.5-1.4 1.4-2.8 3.3-3.1 4.4s-0.88 1.8-1.2 1.8-0.66 1.5-0.66 3.4 0.33 3.4 0.73 3.4 0.73 0.78 0.73 1.7c0 0.96 0.52 2.3 1.2 2.9 0.91 0.9 0.8 1.2-0.48 1.2-1 0-2.5-1.7-3.7-4.4zm-144-6.5c-2.2-14-3.3-22-2.8-23 0.25-0.66 2.3-1.7 4.5-2.4 3.9-1.2 4.1-1.1 6 1.3 2.7 3.4 4.8 2.1 7.7-4.7 2.6-5.9 4.2-6.6 12-5.2 2.1 0.38 6.6 0.7 9.9 0.73 3.3 0.023 6.2 0.43 6.5 0.89 0.56 0.9 9.3 4 11 4 1.7 0 13 5.6 15 7.9l2.4 2-5.5-0.56c-5.6-0.57-8.6 0.69-8.6 3.6 0 1.4 4.4 5.6 8.7 8.2l3.3 2-3.3 0.31c-3 0.29-3.4 0.73-4.9 5.2l-1.6 4.8-3.2-6.8c-3.6-7.5-12-17-18-20-2-1-6.4-2.5-9.9-3.2-6.2-1.3-6.2-1.3-5.5 0.74 0.49 1.3 2.7 2.7 6.3 4 5.9 2.1 13 6.2 13 7.4 0 0.9-3.7 0.21-17-3.1-13-3.2-16-2.9-19 1.9-3.7 4.7-4.7 7.3-5.5 15-0.36 3.5-0.94 6.3-1.3 6.3-0.35 0-1.2-3.2-1.8-7zm10-18c0-0.53-0.19-0.97-0.43-0.97s-0.7 0.44-1 0.97c-0.33 0.53-0.14 0.97 0.43 0.97 0.57 0 1-0.44 1-0.97zm89 300c-1 0.33 1.2-2.9 0.97-8-0.26-6.4-0.5-7.2-2.3-7.5-1.9-0.27-2.1 0.29-2.6 7.2-0.31 4.1-0.35 7.8-0.086 8.3 0.62 0.99 5.9-0.65 4.1-0.048zm13-0.23c1.9 0 0.67-8.8-0.49-9.9-1.6-1.6-3.6 1.2-4.2 5.8-0.28 2.2-0.26 4.3 0.044 4.6 0.94 0.93 3.3-0.51 4.6-0.51zm8.6-4.1c1-5.3-0.18-7.7-2.8-5.6-1.7 1.4-3 7.1-2.1 9.3 1.2 3.1 4 1 4.9-3.7zm245 1c0.23-5.8-0.15-11-1-14-0.49-1.6-1.2-4.8-1.5-7-0.35-2.3-1-4.1-1.5-4.1-1.9 0-2.5 3.3-1.6 8.1 0.52 2.8 0.89 8.4 0.81 13-0.14 7.4-0.11 7.5 2.3 7.5 2.1 0 2.5-0.47 2.6-3.1zm-500-444v-6.3l3.4-0.62c4.2-0.77 4.5-0.49 8.7 6.8l3.4 5.9 9.4 0.021-3.3-4.1c-1.8-2.3-4-5.2-4.8-6.6-1.5-2.5-1.5-2.5 1.7-4.1 5.7-2.7 6.5-11 1.5-16-2.6-2.5-3.1-2.6-15-2.8l-12-0.19 0.44 34 7-0.58zm0.48-17 6.8e-4 -4.1h7.3c7.1 0 7.3 0.075 7.9 2.6 1.1 4.3-0.39 5.4-8.2 5.5l-7 0.15zm52 22c0.43-0.68 0.53-2 0.22-3-0.5-1.6-1.6-1.8-9.3-1.6l-8.7 0.15v-6.6l12 0.84 4e-3 -5.9-12 0.66v-6.2l17 0.68-0.0017-5.8h-12c-8.4 0-12 0.34-12 1 0.22 0.56 0.51 6.5 0.66 13s0.53 13 0.85 13c0.91 1.5 22 1.2 23-0.3zm26-1.3c3.9-2 4.4-3.2 2.3-6-1.3-1.7-1.5-1.6-4 0.73-5.7 5.3-16 0.76-16-7.1 0-1 1.3-3.2 2.8-4.9 2.3-2.4 3.6-3 6.9-3 2.5 0 5.1 0.74 6.8 1.9l2.7 1.9 1.6-2.4c1.5-2.3 1.5-2.4-2.8-4.9-3.7-2.2-5.3-2.5-10-2.2-8.2 0.59-13 5-14 12-1.6 13 11 20 24 14zm15-3.8c0-5.1 0.12-5.3 2.7-5.6 2.2-0.26 3.1 0.4 5.6 4.3 1.6 2.5 2.9 5.2 2.9 5.9 0 1.3 6.8 1.9 8 0.69 0.32-0.32-0.92-2.7-2.8-5.2-3.5-4.8-4.1-6.8-2.2-6.8 4.5 0 6.3-8.4 2.7-13-1.9-2.4-2.3-2.5-13-2.5l-11-2.8e-4 0.19 11c0.11 6 0.22 12 0.24 14 0.047 3 0.23 3.2 3.2 2.9 3.1-0.3 3.2-0.33 3.2-5.6zm0.11-12c-1.5-3.9-0.82-4.4 5.5-4.1 5.7 0.27 6.1 0.43 6.1 2.6 0 2.2-0.41 2.4-5.5 2.7-4.3 0.25-5.6-9e-3 -6.1-1.2zm45 15c1.9-1.9 2.2-3.4 2.7-14l0.49-12-6.8 0.0034 0.23 9.5c0.27 11-0.56 13-6 13-5.9 0-7.3-2.6-7.1-13l0.19-8.8-7.1-0.6 0.4 11c0.56 15 2.4 17 15 17 4.8-0.19 6.5-0.7 8.3-2.4zm61 1.7c2.7-0.38 6.6-4.1 6.6-8.6-0.058-6.5-3.1-8.1-16-8.6-2.3-0.088-2.7-0.49-2.4-2.3 0.27-1.9 0.99-2.2 5-2.5 2.8-0.18 5.8 0.3 7.7 1.2 1.7 0.83 3.1 1.4 3.2 1.3 2.2-2.9 2.1-4.1-0.49-5.7-4.4-2.7-11-3.2-15-1.3-4.6 1.8-6 3.7-6 8 0 5 2.7 7.2 10 8.1 7.1 0.85 8.8 1.8 7.9 4.2-0.87 2.2-9 2-14-0.42-3.5-1.9-3.6-1.9-3.6-0.079 0 1-0.26 2.5-0.57 3.3-0.42 1.1 0.62 1.8 4.1 2.9 6.1 1.9 11 0.83 13 0.56zm-47-13c-0.31-14-0.53-15-5.3-14-1.6 0.38-1.7 1.7-1.6 14l0.14 13 7.1 4e-3zm18 2.4-0.3-11 4.4 0.18c4.1 0.17 4.4 0.017 4.9-2.7 0.31-1.6 0.13-3.3-0.41-3.8-0.66-0.66-0.98-0.6-0.98 0.18 0 1.5-21 1.7-22 0.19-1.1-1.7-2.1-1-1.9 1.2 0.13 1.2 0.28 2.9 0.32 3.8 0.066 1.3 0.88 1.5 4.5 1.1l4.4-0.49 0.11 11c0.063 5.8 0.063 11 0 11s1.5 0.73 3.5 0.73l3.6 2e-3z"/><text transform="translate(-25,-19)" x="144.12617" y="663.52429" fill="#000000" font-size="29px" style="inline-size:584.851;line-height:1.1;white-space:pre" xml:space="preserve"><tspan x="144.12617" y="663.52429">Play during Revival. All factions double </tspan><tspan x="144.12617" y="695.4243">their current Free Revival rates. The </tspan><tspan x="144.12617" y="727.32433">normal revival limit is increased to 7. </tspan><tspan x="144.12617" y="759.22435">Discard after use.</tspan></text><text transform="translate(112 194)" fill="#000000" font-size="33px" style="shape-inside:url(#rect2);white-space:pre" xml:space="preserve"><tspan x="0" y="0">Special - Revival</tspan></text></svg>
