<?xml version="1.0" encoding="UTF-8"?>
<!-- Created with Inkscape (http://www.inkscape.org/) -->
<svg width="822" height="1122" version="1.1" viewBox="0 0 822 1122" xml:space="preserve" xmlns="http://www.w3.org/2000/svg"><path d="m89 1e3c-4.5-1.3-6.7-2.9-8.9-6.5l-2.2-3.5 0.053-461c0.029-254 0.072-465 0.096-469 0.042-7.1 0.16-7.4 4-12l3.9-4.2 320-0.26c237-0.19 321 0.035 323 0.87 1.5 0.62 4.1 2.7 5.7 4.5l3 3.4-2e-3 469c-2e-3 460-0.037 469-1.9 472-1.1 1.7-3.4 4-5.2 5.1-3.5 2.1-634 3.6-641 1.5zm44-8.3c0-4.6-0.35-5.9-1.8-6.4-5.7-1.9-13-6-18-9.5l-5.4-4-11 11c-15 15-16 14 16 14h21zm219 0.45 0.3-5.2-4.3-0.017c-2.4-0.01-51-0.012-108-0.01l-104 0.012-0.32 3.1c-0.18 1.7-0.085 4.1 0.21 5.3l0.53 2.1 215-0.15zm36 1.1c6-20 35-20 40 1 0.47 1.9 1.3 2.8 2.9 2.8 3.9 0.12 13 0.13 21 0.03l7.7-0.096 0.69-10h-19l-33-16-30 15h-22l-0.31 4.4c-0.51 7-1 6.8 16 6.6l15-0.2zm290-0.96-1e-5 -5.2-42-0.27c-23-0.15-71-0.15-108-6e-4l-66 0.27v4.9c0 6.2-13 5.5 110 5.5h105zm50 4.1c1.6-0.92 0.38-2.5-10-13l-12-12-2.5 2.3c-4.5 4.1-12 8.6-18 10l-5.3 1.7v5.2c0 4.7 0.24 5.3 2.2 5.6 5.8 0.83 43 0.18 45-0.77zm-304-1.7c-5-16-25-18-33-3.7-3.1 6-3.2 5.9 16 5.9h18zm309-3c1.7-4.3 0.77-47-0.97-47-0.99-0.021-3.4-0.28-5.5-0.57-3.5-0.51-3.7-0.38-4.9 3.3-2 6-5.9 13-9.6 18l-3.4 4.1 11 11c12 12 12 12 13 11zm-648-1.5c1-0.96 6.2-6 11-11l9.6-9.3-3.9-5.2c-4.2-5.6-8.4-14-9.4-18-0.6-2.5-1-2.7-6.1-2.7h-5.5l-0.029 10c-0.016 5.6-0.092 15-0.17 22-0.18 15 0.55 18 4 14zm307-15c8.3-4.1 15-7.5 16-7.5s7.3 3.4 16 7.5l15 7.5h245l8.3-4.2c11-5.4 19-14 25-25l3.8-7.7 0.51-804h-23l-1.2 6.7c-11 65-111 63-121-2.2l-0.68-4.5h-480l-0.016 74c-0.0088 41-0.015 221-0.014 400l0.0023 327 2.1 5.6c4.9 13 14 23 27 30l7.9 4h245zm-301-41c0.0089-3.4 0.022-192 0.03-419l0.014-412-11-0.58 0.2 417c0.11 230 0.22 418 0.25 419 0.037 1.4 0.97 1.8 5 1.8h5zm643-413 0.027-419h-11v838h11zm-84-328c31-6 52-43 42-74-19-61-110-49-113 14-2.1 39 31 67 71 60zm-57-83c28-43 94-24 94 28 0 34-31 54-58 50-30-2.9-58-37-36-78zm65 71c38-19 35-74-5.4-88-15-5-24-4.2-40 3.8-8.2 4-20 19-21 27-0.31 1.7-0.84 3.6-1.2 4.2-2.1 3.5-0.76 20 2.2 27 0.73 1.6 2.1 4.6 2.9 6.6 9.2 20 41 30 63 19zm-563-87c2-5.8 6.1-13 9.9-17l2.6-2.8-11-11c-14-13-14-13-14-0.13-0.0087 5.4-0.065 15-0.12 21-0.16 17-0.75 15 5.7 15l5.6-0.3zm640-18c-0.38-28 0.58-27-13-13l-12 12 2.6 2.8c3.3 3.6 8 12 9.6 17 1.8 5.7 1.6 5.5 7.6 5.5h5.5zm-310-11 15-7.5h20l0.35-5.1c0.44-6.5 1.9-5.9-15-5.9h-15l-1.5 3.8c-3.9 9.9-9.1 14-18 15-11 0.89-20-5.7-23-17-0.38-1.3-2.8-1.5-16-1.5l-15 0.05v10l23 1 14 7.2c17 8.7 13 8.8 31-0.2zm-310 2.5c2.9-2.2 8.3-5.2 12-6.7l6.8-2.7v-5.3c0-6.8 0.7-6.6-25-6.2-26 0.43-26 0.015-12 13 5.8 5.6 11 11 11 11 0.63 1.4 2.1 0.75 7.4-3.3zm614-19c-0.65-0.65-9.4-1-24-1h-23v11l5 1.7c5.5 1.9 12 5.7 17 9.6l3 2.5 11-11c7.7-7.7 11-11 10-12zm-314 13c5.1-2.6 11-9.3 11-13 0-0.3-7.9-0.54-18-0.54-19 0-19 0.02-16 4.8 4.3 8.3 15 12 23 8.6zm-62-3.4-0.24-10h-215l-0.1 3.5c-0.22 7.7-5.5 7 55 7.3 30 0.14 74 0.16 98 0.029s48-0.24 53-0.25zm281 0.02 45-0.021v-11l-106 0.037c-122 0.043-109-0.62-109 5.9l0.35 5c57 0.7 113 0.09 170 0.042zm-12 105c-1.6-2-4.5-7.9-6.2-10-2.7-5.3-2.3-5.1-4.1-8.1-1.1-4.2-5.8-9.7-4.2-12 2.2-1.8 6.1 1 9.5 6.9 3.7 6.4 5.9 7.9 7.8 5.2 1.3-5.3 0.12-18-0.91-23-1.2-4.2-0.75-8.5 0.45-10 2.6-3.4 4.4-1 5.1 5.9 0.27 2.8 0.7 5.4 0.95 5.8 0.25 0.4 0.68 2.6 0.96 4.9 0.52 4.3 2.1 7.2 3.5 6.3 0.44-0.27 0.66-5.1 0.48-11-0.48-16 1.5-18 2.9-18 3.7-0.47 3.3 7.9 3.4 9.1v12c0 5.8 0.34 7.7 1.4 8.1 3.9-0.75 3.2-11 3.4-14 0.28-4.7 0.41-4.8 1.1-7.3 1.9-7 6.2-3 5.2 4.9-0.32 2.5-0.7 8.3-0.84 13-0.24 7.7-0.13 8.3 1.4 7.3 0.93-0.58 2.6-3 3.7-5.4 4.5-9.6 5.4-11 7-11 2.1-0.41 3.5 1.7 1.7 6.1-0.13 0.33-3.1 8.7-4.4 11-2.9 6.1-3.6 8.5-3.9 14-0.46 9.7-2.1 13-7.4 17-0.032 0.02-17 6.8-28-6.9zm14-51c-636-111-636-111 0 0zm-497-0.5c-0.41-7.9-0.2-8.3 4.4-7.9 3.6 0.35 4 0.63 7.6 7 3.7 6.5 3.9 6.6 7.3 6.4 1.9-0.11 3.6-0.35 3.8-0.55s-1.5-3.2-3.7-6.6c-3.2-4.8-3.8-6.5-2.9-7 0.67-0.42 1.7-0.77 2.3-0.78 2.1-0.026 3.9-4 3.9-8.4 0-3.4-0.52-4.9-2.5-7.1l-2.5-2.8-13-0.17c-13-0.17-13-0.11-13 1.7 0.25 1 0.5 6.7 0.55 13 0.049 6 0.32 13 0.61 15 0.52 4.3 0.57 4.3 3.8 4.3l3.3 2e-3zm-0.15-18v-4.1h6.8c7.6 0 9.9 1.3 9.5 5.3-0.27 2.4-0.4 2.4-8.3 2.7l-8 0.26zm53 21 4.7e-4 -2.8-18 0.039-0.24-3c-0.27-3.2-0.16-3.3 7.7-3 3.8 0.15 3.9 0.064 3.9-2.6v-2.8h-12v-5.6l17 0.58-4e-3 -5.8-12-0.28c-12-0.27-12-0.22-12 1.5 0.25 1 0.53 7.4 0.63 14l0.17 12h24zm11-10v-14l-2.3-0.54c-1.3-0.3-3.1-0.77-4-1.1-1.4-0.43-1.6-0.15-1.2 1.6 0.29 1.2 0.61 7.5 0.72 14l0.2 12 3.3 0.55c1.8 0.3 3.3 0.61 3.3 0.68v-13zm12 12c-0.21-0.63-0.57-4.8-0.81-9.2l-0.43-8 7 7.5c3.8 4.1 7.4 8.2 7.8 9.2 0.56 1.2 1.8 1.7 3.8 1.7h3l0.27-13c0.27-13 0.24-13-1.8-14-4.3-2-4.5-1.6-4 7.7 0.25 4.8 0.092 8.6-0.35 8.6-1.1-0.089-13-14-13-15 0-0.49-1.3-1.1-2.8-1.5-6-1.2-5.8-1.4-5.6 7.9 0.13 4.6 0.47 11 0.76 14l0.52 5.7h3.1c2.1 0 3-0.38 2.7-1.1zm33-4.9-0.44-6 12 0.62-4e-3 -5.5-5.4 0.34c-5.1 0.33-5.4 0.24-6-2-0.33-1.3-0.37-2.8-0.09-3.2 0.28-0.45 4.2-0.7 8.7-0.54l8.2 0.28-4e-3 -5.7h-24l9e-3 9.1c5e-3 5 0.27 11 0.58 14 0.56 4.7 0.64 4.8 3.5 4.8h3zm41 4.3c6.4-3.4 8.5-12 4.6-20-3.2-6.2-8.9-7.8-18-5.1-5.2 1.6-8.5 5.5-9.2 11-0.63 4.7 2.4 11 6.4 14 3.8 2.4 12 2.5 16 0.19zm-10-3.5c-5.1-2-7.5-8.1-5.1-13 2.7-5.3 8.9-6.4 13-2.3 2.1 2.1 2.3 2.9 1.9 7.3-0.23 2.7-1 5.6-1.7 6.3-1.5 1.5-6.1 2.4-8.1 1.6zm27-0.88-0.37-5.8h2.8c2.3 0 3.3 0.74 5.6 4 1.5 2.2 2.8 4.5 2.8 5 0 1.6 3.5 2.9 5.9 2.3 1.3-0.32 2.3-0.79 2.3-1.1 0-0.26-1.5-2.5-3.3-5.1-3.1-4.4-3.2-4.6-1.6-5.8 3.5-2.4 4.9-4.4 4.9-6.9 0-3.1-2.3-7.9-3.9-8.1-0.61-0.059-6-0.16-12-0.23-10-0.12-11-0.05-10 1.7 0.27 1 0.5 7.2 0.5 14l0.012 12 6.9 0.18zm0.45-11c-0.33-0.33-0.6-1.8-0.6-3.2 0-2.5 0.089-2.6 5.3-2.6 2.9 0 5.8 0.49 6.4 1.1 1.2 1.2 1.5 4.3 0.41 4.4-0.38 0.028-3 0.23-5.8 0.45-2.8 0.22-5.4 0.13-5.7-0.2zm44 15c2.1-1.1 4.1-2.1 4.3-2.2 0.51-0.39-1.8-5.8-2.5-5.8-0.32 0-1.1 0.8-1.7 1.8-1.3 2.1-6.6 3.7-9.6 3-2.8-0.68-6.8-4.5-7.5-7.2-0.72-2.9 1.6-8.1 4.1-9.5 2.8-1.5 10-0.63 13 1.5 1.8 1.7 1.9 1.7 3.5-0.49 1.6-2.1 1.6-2.2-0.3-3.6-4.1-3-6.2-3.7-11-3.7-7.6 0-13 3-15 8.8-1.6 3.6-0.26 11 2.6 14 4 5.1 13 6.5 20 3zm33-1.2c0.16-1.4-0.14-2.9-0.68-3.5-0.7-0.7-0.98-0.67-0.98 0.11 0 0.76-2.3 1.1-7.7 1.1-7.5 0-7.7-0.073-8.3-2.3-1-4.1-0.18-4.7 5.9-4.1l5.6 0.53v-2.8c0-3.1-0.69-4.3-2.1-3.4-0.5 0.31-2.8 0.56-5.1 0.57-4.1 5e-3 -4.2-0.089-4.5-2.9l-0.29-2.9 17 0.58-2e-3 -3.5c-2e-3 -3.2-0.17-3.4-2.1-2.8-2.7 0.87-15 1-19 0.24l-3-0.61 0.18 14c0.14 10 0.47 14 1.4 14 0.66 0.25 6 0.39 12 0.31l11-0.14zm9.7-6c-0.19-4.5-0.063-8.1 0.28-8.1 0.35 0.014 2.4 3.8 4.6 8.4l4 8.3 3.5-7.6c1.9-4.2 3.5-7.9 3.5-8.4s0.41-0.78 0.9-0.78c0.55 0 0.82 3.2 0.68 8.2l-0.22 8.2 6.4-4e-3 0.014-27h-4.2c-3.9 0-4.3 0.2-4.7 2.5-0.66 3.4-4.6 14-5.2 14-0.61 0-4.5-8.3-5.9-13-0.97-3-1.3-3.2-5.4-3.5l-4.3-0.28 0.3 13c0.16 7.4 0.64 14 1.1 14 0.42 0.3 1.7 0.36 2.9 0.13 2.1-0.4 2.2-0.59 1.8-8.5zm54 5.6c-0.76-1.2-0.41-2.9-0.91-3.2s-0.91-0.13-0.91 0.4c0 0.61-3.1 0.96-8.3 0.96h-8.3l0.57-6.8 11 0.11v-3.1c0-2.7-0.21-3-2-2.4-1.1 0.35-3.7 0.66-5.7 0.69-3.5 0.056-3.7-0.081-4-2.9l-0.29-3 17 0.58-2e-3 -3.4c-2e-3 -3.2-0.74-4.2-2.1-2.9-0.31 0.31-5.3 0.49-11 0.41l-11-0.16v27l12 0.25c6.4 0.14 12 0.13 12-0.026 0.38-0.15 1.4-1.7 0.68-2.9zm81 1.4c2.9-1.9 4.3-5.5 3.6-9.3-0.44-2.3-1.3-3.3-3.8-4.3-1.8-0.75-4.4-1.4-5.8-1.4-7.3 0-11-2.6-7.7-5.1 2.4-1.8 6.8-1.5 11 0.66 2.8 1.5 3.7 1.7 4.3 0.68 2.4-3.8-0.83-6.1-9.6-6.9-6.1-0.57-11 1.3-12 4.7-1.8 6.8 1.3 11 7.8 12 6.7 0.18 9.4 1.1 9.7 3.2 0.21 1.4-0.4 2.2-2.4 2.9-3.9 1.4-13-0.63-13-2.9-0.047-1.7-2.7 2.3-2.7 4.1 0 3.9 15 5.5 21 2.1zm-71-7.3c-0.32-6.1-0.15-8.6 0.58-8.6 0.57 0 1 0.31 1.1 0.68 0.014 0.38 2.9 3.7 6.4 7.5 3.5 3.7 6.4 7.3 6.4 8 0 0.78 1.3 1.2 3.6 1.2h3.6v-14c0-7.4-0.23-14-0.51-14-0.28-0.28-1.6-0.22-2.9 0.13l-2.4 0.64 0.27 8.4c0.18 5.6-0.066 8.4-0.72 8.4-0.54 0-0.99-0.36-0.99-0.8s-2.7-3.7-5.9-7.2-5.9-7.1-5.9-7.9c0-1.2-0.78-1.5-4.1-1.2-2.3 0.15-4.1 0.58-4.1 0.96 8e-3 0.38 0.014 6.4 0.014 13v13h6.1zm40-2.4-0.28-11 9.2 0.64-0.014-4.1c-9e-3 -2.5-0.3-3.6-0.77-2.9-0.57 0.91-3.5 1.1-12 0.91l-12-0.28 2e-3 6.4 9.1-0.63v22l6.8 4e-3zm-375 458c0-4.5-9.5-5.9-12-11l-2.4-4.9-0.43-51c-0.24-28-0.52-100-0.63-161l-0.2-110 2-3.6c4.3-7.9 8.7-10 23-11 5.5-0.31 136-0.8 290-1.1l280-0.54 4.1 2.8c2.3 1.5 5.1 4.3 6.4 6.2l2.3 3.4 0.26 161c0.14 89 0.031 162-0.25 164-0.72 4-7 11-12 13-3.5 1.3-24 1.5-202 1.8-109 0.22-238 0.6-287 0.85s-91 0.98-91-0.061zm58-11c2.2-4.6 4.6-10 5.4-12 1.4-3.3 1.6-3.4 3-2.1 0.88 0.79 5.1 3.2 9.3 5.3 4.3 2.1 9.9 5.2 13 6.9 7.5 4.8 8.3 4.5 17-6.7 3.5-4.4 8.7-10 12-13s6-6.8 7.1-8.4c1.1-1.6 2.3-3 2.7-3 0.33-3e-3 1.5 1.9 2.7 4.3 1.1 2.4 4.1 7.8 6.6 12 2.5 4.3 5.9 10 7.7 14s4 6.6 5 7.5c2.3 2 6.3 2 10 0.082 3.7-1.9 18-5.9 19-5.3 0.41 0.25 1.8 2.5 3.2 5 2.2 4.1 2.7 4.5 5.3 4.2 1.6-0.18 4.5-0.38 6.5-0.43l3.6-0.1 8.6-13c4.7-7.1 8.8-13 8.9-13 0.17-0.23 1.1 0.076 2.1 0.68 0.97 0.61 5 2.9 8.8 5.1s8.6 4.8 11 5.9c4.9 2.8 6.2 2.5 10-2.4 3.5-4.5 9.6-11 20-20 3.4-3 7.5-6.8 9-8.4 3.3-3.5 4.3-3.7 4.3-0.8 0 1.2 0.56 3.7 1.2 5.7 0.68 1.9 1.7 6.4 2.4 9.9 2 11 4.9 21 6.7 22 0.93 0.5 8.4 0.92 17 0.94l15 0.034v2.9c0 3.4 1.4 5.1 4.3 5.1 1.8 0 2-0.37 1.6-2.3-0.26-1.3-0.69-3.3-0.95-4.6-0.38-1.8-0.018-2.5 1.7-3.1 1.2-0.46 2.5-1.3 2.8-1.8 0.93-1.5-1-13-3.6-22-1.3-4.3-3.1-10-4.1-13-0.95-3.1-1.4-5.7-1.1-5.7 0.8 0 9.2 7.9 9.2 8.6 0 0.29 1.2 1.7 2.7 3.2 1.5 1.5 2.7 3.1 2.7 3.6s0.47 0.94 1 0.94 2.3 1.5 3.9 3.4l2.9 3.4 3.2-2c1.7-1.1 3.9-2.8 4.9-3.8 0.92-1 2-1.9 2.4-1.9 0.38 0 2.4-1.6 4.4-3.6 2-2 4.1-3.6 4.6-3.6s3-2.1 5.6-4.6c4.7-4.7 6.5-5.3 4.8-1.5-0.51 1.1-1 8.5-1.1 16l-0.18 14 2.2 0.83c3.5 1.3 18 0.31 43-3.1 3.8-0.5 13-2.5 15-3.3 1-0.43 2.8-0.9 4.1-1 1.9-0.23 2.3 0.2 2.9 2.9 0.63 3.2 6.2 22 6.7 23 0.13 0.14 29 0.25 65 0.24 67-4e-3 67-3e-3 72-3.7 0.93-0.75 2.8-3 4.1-5 2.9-4.4 2.8 0.034 2.8-98 0.013-36 0.074-74 0.14-85 0.48-83 0.14-139-0.86-143-1.2-4.2-3.6-7.1-8.7-10l-3.3-2-57 0.075c-52 0.069-318 0.65-318 0.65-46 0.073-147 0.52-147 0.52-63 0.28-59-0.056-65 6-5 5.2-4.9 3.2-4.5 86 1.7 65 0.91 130 1.5 195 0.46 47 0.47 48 2.5 51 1.1 1.9 2.9 4.2 3.9 5.1 4.3 3.9 6.2 4.1 34 4.2l26 0.036zm92-3.7c-1.5-2.6-2.7-5.1-2.7-5.6-5e-3 -0.53-0.5-1.4-1.1-2.1-1.2-1.2-6-9.5-9.1-16-1.1-2.3-3-5.6-4.1-7.5-2.6-4.2-2.6-6.6-0.29-10l1.8-3h10c5.6 0 11-0.43 12-0.95s3-3.6 4.5-6.9c2.5-5.6 2.8-5.9 5.2-5.3 1.4 0.33 2.9 0.88 3.2 1.2s-0.98 4.5-3 9.2l-3.7 8.6 1.8 3.6c0.99 2 3.7 7.4 5.9 12 2.3 4.6 5.6 11 7.4 13l3.2 4.8-2.5 0.67c-1.4 0.37-3.5 0.86-4.8 1.1-8.2 1.5-9.6 2-17 5.7l-4 1.9zm-62-5.1c-4.9-3.2-16-9.4-24-14-3.9-1.9-6.9-4.4-6.2-5 0.31-0.31 2 0.31 3.7 1.4 3.1 1.9 3.3 1.9 9.7 0.43 3.6-0.84 7.4-1.5 8.5-1.5 1.1 6e-3 2.3-0.4 2.6-0.9 0.31-0.5 2-0.91 3.7-0.91 2.8 0 3.3-0.39 4.6-3.4 1.1-2.6 1.2-3.8 0.41-5-0.55-0.89-1-2-1-2.4 0-1.5 17-9.3 22-9.9 3.4-0.4 16 1.1 16 1.9-0.58 4.3-3.4 9-9.6 16-9.2 10-15 17-19 23-1.7 2.2-3.4 4-3.8 4-0.38 0-3.2-1.6-6.3-3.6zm203 1.5c-0.19-0.55-0.74-2.6-1.2-4.6-0.48-2-2.3-9.4-4-16-1.8-7-3.3-14-3.5-16l-0.3-3.6 6.8 0.3c3.8 0.17 11 0.78 16 1.4l9.1 1.1 0.81 3.2c0.45 1.8 1.4 4.7 2.1 6.6 1.9 5.1 5.5 20 6.2 25 0.57 4.1 0.49 4.4-1.2 3.8-1-0.32-2-0.21-2.3 0.25-0.76 1.2-28 1-28-0.21zm-64-11c-6.2-3.5-11-6.4-12-6.4s-1.2-0.65-2.1-1.4c-1.5-1.4-1.5-1.6 0.25-4.6 1-1.7 2.4-3.1 3-3.1s2.3 1.5 3.7 3.3l2.5 3.3 6.9-0.52c4.4-0.33 10-1.7 16-3.8 5.2-1.8 10-3.2 11-3.2s3.1-0.64 4.7-1.4l2.9-1.4-2.7 2.4c-13 11-17 16-20 19-1.6 2.2-3.1 4-3.4 4s-5.6-2.9-12-6.4zm150-3.8c-0.23-9.7-0.069-14 0.93-23 0.68-6.1 0.68-8.9-0.027-9.8-1.6-2-2.4-1.7-7.3 2.7-1.8 1.6-1.9 1.6-4.4-1.1-1.4-1.5-2.9-2.8-3.4-2.8-0.43-0.01-5.7-0.82-12-1.8-6-0.98-13-2-15-2.3-7.4-0.81-8.2-0.99-8.5-2-0.17-0.52 0.64-1.2 1.8-1.5 2-0.51 9.2-5.6 13-9 0.9-0.88 2-1.6 2.3-1.6 1.7 0 4.7 2.9 4.9 4.8 0.2 1.4 1.6 2.7 4.4 4 2.3 1.1 4.3 1.9 4.6 1.9 0.25-0.036 1.3 0.24 2.3 0.62 16 6 23 7.9 29 8.1 8.4 0.3 9.1 1.1 4.1 4.3-5.9 3.7-5.7 6.4 0.64 12 2.6 2.5 6.8 5.9 9.3 7.6 2.5 1.7 4.8 3.4 5 3.8 0.97 1.4 5.4 1.8 8.9 0.87 2-0.54 5.7-2.3 8.1-4 3.9-2.6 13-6.1 16-6.1 0.58 0 1.1 0.63 1.1 1.4s0.66 2.4 1.5 3.6c1.4 2.1 1.4 2.3-0.68 3.1-4.4 1.8-5.8 2.3-6.7 2.4-0.5 0.077-1.7 0.47-2.6 0.87-0.93 0.4-3.2 0.77-5 0.82-1.8 0.053-3.6 0.51-4 1s-1.4 0.97-2.3 1.1c-0.9 0.078-3.3 0.41-5.3 0.74-2 0.33-6 0.76-8.9 0.95-2.9 0.2-5.6 0.59-6.1 0.88-0.46 0.29-3.4 0.7-6.6 0.93-3.2 0.22-8.5 0.65-12 0.94l-6.2 0.54zm123-11c-5-2.9-9.7-5.6-10-5.9-4-1.9-6.8-4.2-6.5-5.3 0.21-0.69 0.42-2.9 0.46-5 0.12-6.4-8.5-15-15-15-1.2 0-4.2 1.3-6.6 2.8-3.4 2.2-4.6 2.5-5.2 1.6-0.42-0.66-0.77-1.4-0.78-1.7-0.011-0.25-1.6-1.5-3.4-2.7-3.5-2.4-4.2-2.9-6.8-6-1.5-1.8-1.5-2 0.6-5 1.2-1.8 2.5-5.1 2.8-7.4 0.61-4.1 2.3-5.7 5.6-5.3 0.59 0.068 1.3-0.3 1.7-0.83 0.32-0.52 2-1.5 3.7-2.3 3.6-1.5 2.4-2.2 14 7.5 3.6 3.1 6.9 5.7 7.3 5.7s2.2 1.2 4.1 2.7c1.9 1.5 3.9 2.7 4.5 2.7s1 0.61 1 1.4c0 1.9-2.1 1.7-4.9-0.5-1.3-1-2.6-1.8-2.9-1.7-0.3 0.072-3.1-1.5-6.2-3.4-12-7.9-13-8.4-13-6.4 0 1.1 2.1 2.9 6.9 6.1 1.1 0.75 4.6 3.1 7.7 5.2 3.1 2.1 5.8 3.9 6.1 3.9 0.23 0 1.9 0.96 3.8 2.1s6.3 3.9 9.8 6.1c3.5 2.2 6.9 4.5 7.5 5.1 0.61 0.58 3.1 2 5.5 3.1 2.4 1.1 4.6 2.3 4.8 2.6s1.5 1.1 2.7 1.7c3.9 2 7.6 4.2 8.9 5.4 0.68 0.63 1.6 1.1 2.1 1.1s0.85 0.41 0.85 0.91-0.62 0.91-1.4 0.91c-1.4 0-8.9 4.5-9.4 5.7-0.17 0.38-0.7 0.68-1.2 0.68s-2 1-3.3 2.3c-1.4 1.3-3.1 2.3-3.8 2.3-0.76 0-5.5-2.4-10-5.3zm11-2.3c-8e-3 -1.1-0.4-2.6-0.88-3.3-0.76-1.2-1.1-1.2-2.4 0.19-1.3 1.3-1.4 2-0.52 3.9 1.2 2.7 3.8 2.2 3.8-0.73zm-7.8-7.6c-0.56-1.6-1.5-2.5-2.7-2.5-2.4 0-2.9 3.7-0.8 6 1.4 1.6 1.8 1.6 3 0.39 1.1-1.1 1.2-2 0.49-3.9zm-9.7-3.5c0.33-3.4-2.1-6.1-3.5-4-1.8 2.8-0.57 7.5 1.8 7 0.91-0.17 1.6-1.4 1.8-3.1zm-432 15c-2.8-2.8-5.7-8.8-6.8-14-0.41-2-1.6-6.7-2.6-10-2.2-8.4-2.2-8.4-2.1-9.8 0.16-1.7 11-6.3 16-6.9l4.7-0.57 1 3.8c0.56 2.1 1.7 7.6 2.6 12 0.88 4.6 2.3 9.4 3.1 11 0.85 1.2 3.2 4.6 5.2 7.6 3.1 4.6 3.4 5.5 2.1 5.8-0.85 0.17-1.9-0.24-2.2-0.91-1.9-3.4-11-13-12-13-1.8-0.071-0.46 4.6 1.8 6.1 2 1.4 5.9 8.4 4.6 8.4-0.95 0-7.8-6.5-11-11-2.5-3.1-4.4-3.8-4.4-1.8 0 2.4 8.2 12 10 12 0.42 0 0.77 0.41 0.77 0.91 0 1.5-3.2 1-5.2-0.68-0.99-0.88-3.1-3.5-4.7-5.9-3.7-5.5-4.7-6-4.7-2.7 0 1.6 1.3 4.7 3.2 7.5 3.7 5.5 3.7 6.6-6e-3 2.9zm277-3.2c-3.1-3.1-6.4-6.5-7.5-7.4-1.1-0.96-1.8-1.9-1.6-2.1 0.2-0.2 6.6 0.28 14 1.1s14 1.4 15 1.4c2.2 0 1.6 1.3-1.2 2.5-1.4 0.62-4.8 3.2-7.5 5.7s-5.2 4.6-5.4 4.6c-0.26 8e-3 -3-2.5-6-5.7zm72 3c-2.5-1.5-8.6-6.1-11-8-0.62-0.59-2.2-1.9-3.5-3-2-1.5-2.2-2.1-1.3-3.2 1.9-2.3 5.9-3.9 7-2.8 1.2 1.3 6.3 5.1 8.4 6.4 0.92 0.54 3.3 2.2 5.3 3.7 2 1.5 4.4 3.2 5.4 3.7 1.5 0.9 1.4 1.1-1.5 2.4-4.9 2.2-6.6 2.3-9.2 0.77zm115-0.94c2.5-2.2 6-2.8 3.7-0.6-0.73 0.7-2.4 1.5-3.6 1.9l-2.3 0.6zm-299-0.69c0 3.5-5.8-6.5-5.5-14l0.27-6.1 3.6 0.067c7.5 0.14 8.4 0.74 9.1 6.3 0.5 4 1.3 5.7 3.8 8.3 1.7 1.8 3 3.4 2.9 3.5-0.48 0.42-9.9 2.2-11 2.1-0.6-0.068-3.2-1.7-3.2-0.52zm252-0.72c-0.29-0.75-1.1-1.4-1.8-1.4s-1.3-0.4-1.3-0.89c0-0.49-1.6-1.7-3.5-2.7-4.1-2.1-6.6-4.6-4.5-4.6 0.72 0 3.6-2.2 6.4-4.8 5.8-5.4 6.9-4.8 4.8 2.4-1.1 3.6-1 4.2 0.43 5.7 2.8 2.9 5.5 4.9 6.7 4.9 1.7 0.049-3.2 2.6-5.1 2.7-0.89 0.018-1.9-0.58-2.1-1.3zm-56-6.5c-2.5-1.8-5.3-4.1-6.4-5.3-1-1.1-3.1-2.8-4.6-3.7-3.8-2.4-10-7.1-10-7.9-0.17-0.38-1.5-0.68-3-0.68-1.7 0-2.6-0.41-2.4-1.1 0.17-0.63 1.5-4.6 2.9-8.9l2.6-7.7 8.4-4.7c6.8-3.8 9.6-4.9 15-5.7 3.8-0.52 9.6-1.7 13-2.7 6.7-1.9 7.7-1.2 3.6 2.3-4.1 3.5-4.7 3.9-5.7 3.9-0.52 0-0.95 0.36-0.95 0.8 0 0.88-5 3.1-6.9 3.1-1 0-2.8 4.1-2.1 4.6 1.3 0.88 10 3.1 11 2.7 0.45-0.28 0.82-0.071 0.82 0.46 0 0.53 0.51 0.96 1.1 0.97 0.63 8.2e-4 2.6 1.5 4.4 3.4 1.8 1.9 5.3 4.4 7.9 5.7 4.9 2.4 6.7 5.4 4.8 7.8-1.4 1.6-4.3 0.47-8-3.1-1.5-1.5-3.4-2.8-4.1-2.8s-1.8-0.61-2.5-1.4c-0.62-0.75-1.9-1.4-2.8-1.4-0.94 0-1.7 0.61-1.7 1.4 0 0.75 0.4 1.4 0.89 1.4 1.1 0 13 12 13 13 0 0.45-0.43 1.6-0.96 2.6-0.9 1.7-1.1 1.6-4.4-1.7-5.4-5.4-9-8.4-9.9-8.4-0.46 0-2.2-1.2-3.9-2.7-2.1-1.9-3.4-2.4-4-1.8-0.65 0.65 0.19 2.1 2.7 4.5 2 2 5 5.2 6.8 7.2 1.7 2 3.6 3.6 4.1 3.5 0.53-0.093 0.96 0.45 0.96 1.2 0 0.78-0.98 1.5-2.3 1.6-1.7 0.19-4.5-1.4-10-5.7-4.3-3.3-8.3-6-8.9-6-1.7 0-1.1 1.9 1.2 3.8 1.2 0.96 2.5 2.5 2.8 3.3 0.29 0.86 1.9 2.6 3.7 3.8s3.2 2.6 3.2 3c0.062 1.7-4.5 0.27-8.5-2.7zm-390 0.48c-2.3-2.5-3.9-7.9-4-13-7e-3 -5.6 1.8-13 3.3-14 0.7-0.27 4.1 0.19 7.5 1l6.2 1.5 2.1 7.9c3.1 12 4 17 3.3 17-0.36 0.36-4.2 0.79-8.6 0.96-7.3 0.28-8 0.15-9.9-1.8zm213 0.1c-5.8-2.2-7.7-11-3.3-15 1.4-1.3 3.2-3.8 4-5.4 3.6-7 6.2-13 6.2-15 0-1.1 0.3-1.3 0.93-0.67s0.5 3-0.44 7.4c-1.3 6.3-1.2 9.3 0.5 9.3 1.4 0 4.7-7.5 4.9-11 0.34-6.6 1.9-3.1 2 4.5 0.13 9.3 0.17 9.6 1.3 9.6 1.5 0 3.4-5.4 3.8-11 0.23-3.1 0.84-5.1 1.6-5.4 1-0.33 1.1 1.4 0.64 9.2-0.86 14 1.9 14 4.5-0.2l1.2-6.9-0.35 9.6c-0.39 11-1.1 13-3.9 15-1 0.6-3.7 2.2-5.9 3.5-4.2 2.5-14 4-18 2.6zm-37-2.6-5.9-2.6-0.55-10 4.3 0.59c2.4 0.32 5.6 0.59 7.2 0.59h3l-0.13 7.3c-0.074 4.2-0.52 7.3-1 7.3-0.5-0.013-3.6-1.2-6.8-2.7zm-124-5c-1.6-1.6-3-5.9-3.7-11-0.28-2.3-0.75-5.8-1.1-7.8l-0.54-3.7 6.1-2.7c4.5-1.9 7.4-4 11-7.9 2.7-2.9 5.5-5.3 6.2-5.3 0.74 0 3.3 0.86 5.7 1.9 5.8 2.5 11 1.8 16-2.1 4.3-3.1 7-6.8 8-11 0.47-2 0.97-2.4 2.2-1.9 0.86 0.35 3 1 4.7 1.5 1.8 0.47 4 1.2 5 1.7 5 2.2 23 6.8 30 7.7 2 0.25 6.5 0.87 10 1.4 3.5 0.51 8.2 1.1 10 1.4 6.7 0.78 8.2 1.4 8.7 3.7 0.6 2.4 9 8.5 15 11 4.6 2 17 4.6 21 4.6 2.9 0 3.1 0.19 2.5 2-1.1 3.5-5.1 8-6.7 7.6-4.7-1.3-13-2.5-23-3.3-14-1.1-19-1.6-23-2.7-1.8-0.44-5.2-1.1-7.7-1.4-8.7-1.1-11-1.5-15-2.5-3.5-0.86-4.6-0.79-6.4 0.39-2 1.3-5.4 6.9-6.6 11-0.35 1.2-1.4 1.6-4.3 1.6-3.6 0-3.7-0.086-2.3-1.6 2.5-2.7 4.4-9.2 3.3-11-0.51-0.96-1.2-1.8-1.6-1.9s-1.5-0.21-2.5-0.32c-1-0.11-5-1.3-8.8-2.6-3.8-1.3-7.6-2.2-8.4-1.9-0.79 0.3-1.4 0.14-1.4-0.37 0-0.54-2.4-0.86-5.9-0.77-4.6 0.12-6.2 0.54-7.5 2-2.2 2.5-4.7 7.4-6.1 12-0.81 2.8-1.9 4.3-3.4 5-1.2 0.5-5.1 2.4-8.6 4.2-8.2 4.2-11 4.9-13 3.1zm96-24c3.6-5.4-2.9-18-6.6-13-2.4 3.2-1.4 9.3 2.2 13 1.9 2.1 2.6 2 4.4-0.7zm-18-1.3c1.8-1.1 2.4-9.4 0.92-13-1.4-3.3-4.4-5.1-7-4.3-5 1.6-1.4 18 3.8 18 0.53-8e-3 1.5-0.37 2.2-0.81zm-17-4.3c1.7-2.1 1.9-10 0.3-13-0.73-1.4-2.4-3.3-3.7-4.1-2.3-1.5-2.4-1.5-4.5 0.95-4.6 5.4-1.3 18 4.7 18 1.1 0 2.6-0.66 3.2-1.5zm131 29c0.34-0.92 0.63-2 0.63-2.5s0.41-0.84 0.91-0.84c1.5 0 1.1 2.4-0.63 3.8-1.4 1.1-1.5 1-0.91-0.42zm83-0.084c-0.52-0.52-44-5.2-61-6.5-6-0.48-14-1.8-18-2.8-1.1-0.32-1.6-1.4-1.6-3.7 0-3.1 0.12-3.2 2.5-2.6 1.4 0.35 4.8 0.98 7.5 1.4 2.8 0.42 8.9 1.6 14 2.6 9.4 2 9.5 2 27 4.3 27 3.5 32 4.5 32 6.2 0.27 1.4-0.79 2.1-1.7 1.2zm-187-1.2c0-0.44 1-1.8 2.3-2.9 1.6-1.5 2.3-1.7 2.2-0.84-0.03 1.4-4.5 5.1-4.5 3.8zm-48-5.9c-2.6-1.2-2.6-1.4 0.68-7.8l2.7-5.4 4.2 0.78c2.3 0.43 6 1.4 8.2 2.2 2.2 0.76 4.7 1.4 5.4 1.4 1.6 0 1.6 0.2 0.37 2.9-1.9 4.1-6.9 6.6-14 6.7-3.3 0.074-7-0.28-8.1-0.79zm54-0.43c0-0.5 0.62-1.4 1.4-2 0.76-0.63 1.4-0.73 1.4-0.22 0 0.5-0.62 1.4-1.4 2-0.76 0.63-1.4 0.73-1.4 0.22zm-64-3.5c0.8-4.3 4.6-10 6.5-10 1.2 0 1.3 0.22 0.24 1.5-1.3 1.5-3.3 6.5-4.2 10-0.27 1.1-1.1 2-1.8 2-1.1 0-1.2-0.7-0.74-3.3zm268-2.3c-3.3-0.98-8.2-2.7-11-3.9s-7.6-2.9-11-3.8c-4.8-1.5-5.7-2-5.7-3.8-7e-3 -1.9 2.3-7.5 3.1-7.5 0.83 0 8.8 3.4 16 6.8 5.8 2.7 8.9 2.5 8.9-0.79 0-2.4-1.3-4.1-9.3-13-6.4-6.8-7.1-8.2-4.7-9.2 1.5-0.57 9.5 3.6 9.5 4.9 0 0.42 0.72 1 1.6 1.3 0.88 0.29 3.4 2.2 5.6 4.2s5.2 4.3 6.6 5c1.5 0.76 2.6 2.1 2.6 3.1 0 1.6-5.6 17-6.4 18-0.22 0.2-3.1-0.44-6.3-1.4zm-74-2.7c-5-0.97-11-2.3-14-2.9-5-1.1-5-1.2-4.7-4.3 0.26-2.6 3.4-17 5.3-25 0.25-1 0.66-3.7 0.91-5.9s0.53-4.2 0.63-4.3c0.099-0.1 2.8 1.8 6 4.3s6.2 4.5 6.7 4.5 4.7 2.8 9.4 6.3c4.7 3.5 9 6.5 9.6 6.7 0.72 0.24-0.71 3.9-4.2 11-2.9 5.7-5.5 11-5.9 11-0.33 0.32-4.7-0.22-9.7-1.2zm-29-5c-0.88-0.23-1.6-0.94-1.6-1.6 0-1.5-3-4.2-4.7-4.2-0.78 0-1.8-0.53-2.4-1.2-0.53-0.64-2.3-1.3-3.9-1.4-1.6-0.12-3.7-0.64-4.6-1.2-0.96-0.51-2.1-0.68-2.6-0.37s-1.6-0.13-2.4-0.97c-1.1-1.1-2.5-1.4-5.1-1-4.3 0.58-5.2 1.4-5.5 4.8-0.19 2.6-0.37 2.7-5.5 2.9-4.8 0.25-5.3 0.12-4.7-1.4 0.36-0.9 1.4-5.1 2.3-9.4 1.6-7.3 2.1-13 3.2-34 0.25-4.8 0.86-12 1.4-16 1.4-11 2.8-25 3.2-31 0.4-5.7 2.8-11 8.9-21 4.1-6.3 6.7-7.7 16-7.8 6.4-0.11 6.7-0.012 9.3 2.9 1.5 1.6 2.9 3.9 3.2 5 0.53 2.1 4.4 6.5 17 20 4.1 4.3 11 12 16 18 4.9 5.4 11 12 14 14 2.8 2.3 9.8 8.5 15 14s12 11 13 12c3.9 2.4 7.8 5.6 7.8 6.3 0 0.3-0.54 0.55-1.2 0.55-2.1 0-5.9 4.8-5.3 6.9 0.66 2.2 6.5 10 7.4 10 0.36 0 0.87 0.55 1.1 1.2 0.33 0.86-1.2 0.58-5.1-0.95-3.1-1.2-6.3-2.5-7.1-3-1.7-0.93-3.8 0.93-4.8 4.2-1.3 4.2-2.8 4.4-9.1 0.84-3.2-1.8-7.1-4.3-8.6-5.6-1.5-1.2-3-2.3-3.3-2.3-1.5 0-16-11-16-12 0.014-0.3 1.7-2.4 3.7-4.6 5-5.6 5.8-7.2 4-7.9-0.92-0.35-3.5 1.4-7.4 5l-6 5.6-3.7-2.9c-2-1.6-3.9-3.5-4.1-4.1s-1-1.2-1.7-1.2-1.3-0.38-1.3-0.85-0.72-1.1-1.6-1.4c-3.1-1-22-20-28-29-1.4-1.9-3.3-4.3-4.3-5.3-0.94-1-3.7-4.2-6.1-7-4.3-5.1-6.3-5.8-7.4-2.9-0.52 1.4 2.3 5.6 7 11 1.4 1.5 3.6 4.4 5 6.3s3.1 4.3 3.9 5.1c0.75 0.8 5.1 5.5 9.6 10 4.5 4.9 9.6 10 11 12l3.2 3-2.1 11c-1.1 5.9-2.6 13-3.3 16-3.7 17-3.2 15-7.1 14zm-231-4.6c-0.28-0.89-1.3-3.1-2.2-4.8-0.95-1.8-2.3-4.5-3.1-6.1-0.75-1.6-1.8-3.2-2.3-3.5-1.6-1-0.99-3.9 1.5-6.9l2.5-2.9 2.5 5.3c1.4 2.9 2.5 5.8 2.6 6.3 0.099 1.8 4.5 5.2 6 4.6 1.2-0.45 1.3-1.3 0.85-4.4-0.95-6.1-1.1-15-0.27-16 0.57-1.1 1.9-1.5 5.5-1.4l4.7 0.13 2.1 12c1.1 6.8 2.1 13 2.1 13 0.017 0.34-1.1 0.56-2.5 0.49-4.4-0.23-10 1.1-15 3.5-4.2 2.1-4.5 2.2-5 0.66zm172-3.3c5.8 0-11-7.3-12-10-0.95-2.3-2-3.3-4-3.6-2.7-0.53-2.7-0.66-2.7-6.1l3e-3 -5.6 25-19v18c0 20-0.57 27-2.2 27-0.56-0.041-4.7-1.1-3.3-1.1zm214 0.22c0-0.48 0.95-1.2 2.1-1.7 1.2-0.44 3.4-1.9 5.1-3.3s3.1-2.3 3.4-2.1c0.23 0.23-0.49 2.1-1.6 4.1-1.8 3.3-2.4 3.7-5.5 3.7-1.9 0.026-3.5-0.35-3.5-0.83zm-351-2.2c0 0.29 0.81-3.7 1.8-7.6 3.9-15 9.2-38 9.6-41 0.55-4.3 1.1-4.9 4.2-4.9 2.4 0 3-0.66 6.3-7.6 2-4.2 4.7-12 6-17 2.2-8.6 2.5-10 3.8-20 0.31-2.4 1-4.4 1.6-4.4 3.5-0.29 9.6 0.42 12 1.5 3.9 1.5 16 3.2 22 3.2 4.3 0 4.7-0.2 7.2-3.9 5.7-8.1 4.8-7.5 8.1-5.8 3.1 1.6 5.2 3.2 12 9l3.8 3.4-3.5 9.1c-1.9 5-3.8 11-4.1 13-1.6 9.9-13 38-18 43-0.66 0.77-1.8 2.9-2.6 4.7l-1.4 3.3-4.6-1.7c-2.5-0.95-7.7-2.6-12-3.6-8-2.2-9-1.8-9.9 3.9-0.75 4.7-4 9.1-7.8 11-2.3 0.96-3.7 0.96-7.1 0.041-2.3-0.63-6.2-1.3-8.5-1.6-4.6-0.48-5.5 0.055-11 7.1-2.2 2.8-8.1 4.6-8.1 5.9zm312-7.4c-3.1-2.3-5.6-4.5-5.6-5s-0.54-0.83-1.2-0.83-2.8-1.4-4.8-3c-2-1.7-4.5-3.5-5.6-4.1-1.1-0.6-2.1-1.6-2.1-2.3 0-1.5-8.9-9.8-16-15-2.8-2-5.1-4.1-5.1-4.6-0.013-0.53 1.3-2.2 2.9-3.7 1.6-1.5 4.9-4.8 7.3-7.5 2.4-2.6 4.5-4.8 4.8-4.8 0.22 0 1 2.4 1.8 5.2 0.8 2.9 1.7 5.8 2 6.6 0.65 1.6 0.57 1.4 1.9 5.9 2.1 7.3 7.8 17 10 17 0.5 0 1.1 0.31 1.2 0.68 0.4 0.9 7.7 7.4 12 10 1.7 1.3 3.6 2.8 4.2 3.4 0.64 0.63 1.6 1.1 2.1 1.1 2.2 0 1.8 1.9-0.72 3.1-1.5 0.77-2.9 1.4-3.1 1.4-0.23 0-2.9-1.9-6-4.2zm16-4c4.4 0-8.7-4.2-18-13-7.8-7.4-8.3-8.1-11-16-1.6-4.4-3.2-9.3-3.5-11-0.33-1.5-0.96-3.2-1.4-3.8-0.45-0.57-1-3-1.3-5.5l-0.49-4.4 6.3-6.6c11-11 9.9-14-3.5-14-7.1 0.04-8.2-0.15-7.8-1.4 0.25-0.8 0.7-5.1 1-9.6s0.97-8.4 1.5-8.8c0.63-0.39 0.6-0.78-0.074-1.2-0.72-0.44-0.73-1.1-0.052-2.4 0.53-0.99 1.2-1.6 1.6-1.4 0.35 0.21 2.7 0.026 5.2-0.41 5-0.87 18-2.5 24-3.2 6.8-0.67 7.6-1.1 7-4.2-0.29-1.5-0.11-4.7 0.42-7.1 0.77-3.6 1.4-4.5 3.1-4.8 2.1-0.4 16 1.7 29 4.2l5.9 1.2-0.29 3.6c-0.16 2-0.67 4-1.1 4.4-1.2 1.2-1.1 8.7 0.13 8.7 0.54 0 1.6 0.61 2.3 1.4 0.75 0.75 2.3 1.4 3.4 1.4 1.1 2e-3 3.3 0.82 5 1.8 1.6 1 3.4 1.8 3.9 1.8 0.49 0 2.5 0.72 4.6 1.6 4.6 2 5.4 4.4 2.8 9.4-1.1 2-1.7 4.1-1.4 4.5s0.13 1-0.31 1.3c-0.44 0.27-1.3 2.2-1.8 4.4s-2.9 11-5.1 20c-5.5 21-6.8 26-8.3 27-0.68 0.79-1.2 2-1.2 2.7-5e-3 1.8-4.8 11-6.6 13-1.6 1.6-3.3 2.1-8.8 2.8-1.8 0.22-5.6 0.77-8.7 1.2-3 0.44-5.8 0.61-6.2 0.37-0.4-0.23-1.7 0.22-2.9 1-2.4 1.6-11 0.55-6.6 0.55zm-231-3.7c-3.1-0.41-6.6-1.1-7.7-1.4-2.5-0.85-1.9-0.73-8.2-1.6-2.9-0.38-5.5-1.1-5.8-1.6-0.29-0.47 0.4-2.1 1.5-3.7 1.8-2.6 8.2-15 12-24 1.4-3.2 5.5-14 7.1-20 0.46-1.5 0.83-4.2 0.83-5.9 0-1.8 0.55-4 1.2-5 0.67-0.99 2-4.4 3-7.5l1.7-5.7 4.3-8e-3c5-9e-3 5.7 0.7 4.3 4.2-0.55 1.4-1.1 3.2-1.3 4.1-0.43 2.1 4.4 6.4 12 11 11 6 11 5.7 6.8 14-4.1 9.1-16 33-19 39-2.7 4.7-2.5 4.7-13 3.4zm-130-5.4c-4.6 0-2-5.5-4.5-4.6-1.9 0.73-2.1 0.5-2.7-2.6-0.3-1.8-0.56-8.3-0.56-14l-0.01-11 5.6-4.9c3.1-2.7 9.1-8.2 13-12 4.3-4.1 10-9.5 13-12 3-2.6 8.3-7.5 12-11l6.4-6.3 1.5 11c0.83 6.3 1.4 16 1.4 21l-0.15 9.6-10 4.9c-5.5 2.7-11 5.3-11 5.7-1.1 0.59-2.6-0.33-5.9-3.8-5.3-5.4-7.2-6.6-9-5.6-1.1 0.61-0.27 2 4.2 7.3 5 5.9 5.5 6.9 5.8 11 0.17 2.7 0.45 5.5 0.64 6.2 0.28 1.1-0.96 1.4-7.3 1.4-6.9 0-7.7 0.19-9.4 2.2-1.1 1.4-1.6 3-1.3 4.2 0.28 1.1 0.16 3-0.28 4.2-0.74 2 1.6-1.1-1.5-1.1zm161-22c3-6 6.1-13 6.9-16 0.86-2.6 2.1-4.8 2.7-4.8 1.6 0 13 3.3 14 4 0.31 0.31-0.081 1.3-0.88 2.2-9.3 10-12 13-16 15-2.1 1.4-4.2 3-4.7 3.5-0.5 0.55-2.5 2.2-4.4 3.6l-3.4 2.6zm307-5.1c-0.75 1e-3 -3.5-0.4-6.1-0.89-2.6-0.49-5.9-1-7.3-1.2-1.4-0.17-2.6-0.37-2.6-0.44 0-0.076-3.8-0.32-8.5-0.53-4.7-0.22-8.9-0.67-9.5-1-0.55-0.34-2.3-0.71-3.8-0.82-4.6-0.34-9-1.2-9.8-2-0.41-0.41 0.62-2.8 2.3-5.3 2.7-4.2 7.6-12 10-17 2.4-4.2 7.7-9.8 8.8-9.2 1.5 0.9 9.6 1.9 9.9 1.2 0.14-0.3 2.3-0.39 4.9-0.21l4.6 0.33 5.7 11c4.9 9.6 5.9 11 7.5 11 1.1-0.3 1.6-0.98 1.3-1.8-0.28-0.73-0.78-2.4-1.1-3.7-0.33-1.3-1.1-3.4-1.8-4.7-0.67-1.3-1.2-2.8-1.2-3.5-3e-3 -0.62-1.3-3.2-2.9-5.8-2.6-4.2-2.7-4.8-1.4-5.5 0.83-0.47 1.5-1.4 1.5-2.1 0-1.6 3.3-3.5 4.8-2.6 1.7 1 12 1.4 13 0.46 0.68-0.45 1.5-2.2 1.9-3.9 0.72-3.5 2.5-3.4 2.1 0.18-0.38 3.4 1.4 7.5 2.9 6.9 0.7-0.27 2 0.039 2.9 0.68 1.5 1.1 1.5 1.5-0.37 8.4-1.1 4-3.5 13-5.3 20s-3.7 13-4 13c-4.6 2.6-13-0.37-19-0.52zm-169-0.63c0-2.2 3.4-12 8.3-25 2.1-5.4 2.2-5.5 17-6.4 11-0.69 10-1.3 1.8 7.9-15 16-25 25-26 25-0.66 0-1.2-0.76-1.2-1.7zm-7.8-5.8c-1-1.1-3.7-3.5-5.9-5.4-4.1-3.3-7.9-7-18-18-5.1-5.3-5.3-5.7-4.1-7.9 0.67-1.3 2.3-6.1 3.6-11s2.9-9.3 3.4-10 1-2.1 1-2.5c0.042-0.89 0.56-0.93 2.8-0.2 3 1 6.3 2.6 7.5 3.8 1.2 1.1 0.65 5.7-0.73 6.6-0.36 0.25-0.45 1.8-0.21 3.4 0.33 2.2 1.2 3.4 3.3 4.4 2.2 1.1 16 10 19 12 0.34 0.26-2.2 8.6-3.5 12-0.43 1-1.7 4.8-2.8 8.4s-2.3 6.6-2.6 6.6c-0.31-9e-3 -1.4-0.93-2.4-2zm126-9.5c0.27-0.88 1.4-4.7 2.5-8.4 1.1-3.8 2.4-7.3 2.9-7.9 0.49-0.6 0.63-1.5 0.32-2-0.31-0.51 0.22-2.7 1.2-4.8 0.97-2.1 2-5.3 2.4-6.9l0.64-3 4.8 0.6c7.1 0.89 11 1.7 11 2.5-0.026 0.38-0.35 0.73-0.73 0.79-0.64 0.1-5 3.4-7.1 5.3-1.9 1.8-3.2 3.6-3.2 4.5 0 0.52-0.43 0.95-0.96 0.95-0.53 0-1.4 1.2-1.9 2.7-0.51 1.5-1.5 2.9-2.2 3.2s-1.3 1.3-1.3 2.3-0.51 2.1-1.1 2.5c-0.63 0.4-2.2 2.7-3.4 5.1-2.2 4.2-4.4 6-3.4 2.7zm-366-5.4c-0.19-7-0.28-8-2.1-21-2.4-18-2.7-24-1-24 0.76 0 1.4 0.37 1.4 0.81s1 1.1 2.3 1.4 3.9 2.3 5.9 4.4c3.4 3.6 3.6 4.1 3.1 7.9-0.97 7.7-5.9 29-6.9 30-0.43 0.48-0.78 1.6-0.78 2.4s-0.41 1.8-0.91 2.1c-0.56 0.35-0.97-1.5-1.1-4.7zm252-16c-3.4-2.4-3.8-4.9-1.3-7.6 0.74-0.82 1.3-2 1.3-2.6 0-2.7 1.6-0.62 2.7 3.5 0.69 2.5 1.6 4.8 2 5.1 1.2 0.73 0.84 4-0.41 3.9-0.63-0.043-2.6-1.1-4.3-2.4zm10-0.52c0.15-1.1-0.071-2.6-0.48-3.2-0.41-0.66-0.5-1.4-0.2-1.7 0.3-0.3-6e-3 -1.2-0.68-2-1.1-1.3-2.2-4.2-5.3-15-0.59-2-1.4-4.1-1.9-4.8-1.6-2.1 0.05-4.1 2.8-3.5 1.4 0.31 3.5 0.78 4.8 1 4.9 1 6.4 2.4 5.9 5.4-0.29 1.5-0.67 3.6-0.85 4.6-0.18 1-0.36 6.2-0.4 12-0.066 9.3-0.17 9.8-2 9.8-1.4 0-1.8-0.5-1.6-2zm-59-4.9c-0.9-1.4-3.6-4.5-6.1-6.9-6.1-6.1-2.6-3.7-8.6-10-2.3-2.5-4-4.9-3.8-5.5 0.2-0.53 0.9-3.1 1.6-5.8 1.1-4.2 1.5-4.7 3.1-4.2 2.6 0.75 12 5 12 5.7 0.25 0.31 0.87 0.6 1.4 0.66 4.4 0.48 4.9 1.3 4.5 7.5-0.92 16-1.3 21-2.1 21-0.45 0.15-1.6-0.85-2.5-2.2zm246-1.2c-0.73-0.46-1.6-0.66-1.9-0.45-1.3 0.82-2.9-2.5-3.1-6.7-0.35-6.2-1.2-12-2.3-14l-0.95-2.5-1.7 2.7c-0.91 1.5-2.1 5.5-2.7 8.9-1 5.9-3.8 11-5 8.9-0.3-0.49-1.4-0.68-2.4-0.42-1 0.26-1.8 0.057-1.8-0.46 0-0.51-0.79-0.73-1.7-0.47-0.96 0.25-2.4 0.11-3.1-0.31-1.2-0.66-1-1.7 1.3-7.6 1.5-3.8 2.7-7.7 2.7-8.7 2e-3 -1 0.42-2.3 0.94-2.8 0.51-0.51 1.2-3 1.5-5.6 0.58-4.9 1-5.2 5.2-3.4 0.93 0.4 2.9 0.77 4.3 0.82 1.4 0.05 2.6 0.42 2.6 0.83 1e-3 0.41 0.44 0.47 0.97 0.14 0.53-0.33 3.6-0.11 6.8 0.49l5.8 1.1-0.49 9.7c-0.27 5.3-0.45 11-0.4 13 0.097 3.6-1.2 8-2.4 8-0.39-8e-3 -1.3-0.39-2-0.85zm-345-1c-1-0.48-4.3-2.3-7.3-4-3-1.7-7.5-4.2-10-5.4-8.5-4.4-8.9-4.9-8.9-12 8e-3 -3.6-0.26-6.7-0.61-6.9-0.34-0.21-2.3-0.59-4.4-0.84-7.5-0.9-8.6-2.6-7.3-11 1.4-9.3 3.5-9.6 8.1-1.1 4 7.3 6.2 9.5 9.1 9.1 2.7-0.39 4.4-3.8 4.4-9 7e-3 -2.3 0.62-6.2 1.4-8.6s1.4-5.4 1.4-6.5c0.016-3.3 5.3-5.3 16-5.8 5.5-0.3 7.9 0.83 8.6 4 0.32 1.6 1.4 4.7 2.5 6.8l1.9 4-1.9 3.6c-1.8 3.5-1.9 3.7-0.4 7.4 0.83 2.1 2.9 5.8 4.6 8.3 3.5 5 3.3 5.6-2.8 8-3.3 1.3-4 2-4.7 5-1.4 6.1-5.5 17-6.5 17-0.5-0.026-1.7-0.44-2.7-0.92zm-20-25c0-1.3-0.37-2.1-0.83-1.8s-0.61 1.3-0.35 2.3c0.66 2.5 1.2 2.3 1.2-0.51zm2.7 23c-1.4-0.54-2.7-2-2.7-3.2-8e-3 -0.36 1.4 0.19 3.2 1.2 1.8 1 3.2 2 3.2 2.2 0 0.5-2 0.34-3.6-0.3zm126-13c0.52-8.7 0.074-12-1.8-12-0.68 0-3.3-1-5.8-2.3-2.5-1.3-5-2.3-5.5-2.3-0.55 0-1-0.38-1-0.84s-1.2-1.1-2.7-1.4c-1.5-0.33-2.7-1-2.7-1.5 0-1.5 4-9.8 4.7-9.8 0.66 0 2.8 5.9 3 8.2 0.21 2.5 2.7 5.1 6.9 7.2 2.3 1.1 5.9 3.1 8 4.3 3.8 2.2 3.9 2.3 2.3 4.1-0.9 0.99-2.6 4.5-3.7 7.9l-2 6.1zm-64 0.27c-0.062-5.8 7.2-25 9.4-25 1.5 0 5.6 3.1 11 8.9l4.9 4.8-4 0.16c-5.9 0.23-6.7 0.31-7.7 0.89-0.5 0.29-1.9 0.79-3.2 1.1-2.9 0.73-6.2 3.7-8.9 7.9-1.1 1.8-2 2.5-2 1.8zm-77-0.84c-1.1-0.67-1.1-1.1-0.24-2 1.3-1.3 2.3-0.58 1.9 1.4-0.22 1-0.7 1.2-1.7 0.56zm-4.9-6.6c-0.31-1.1-3.2-4.1-6.5-6.5-11-8-12-16-5.4-32 0.86-2 1.5-4.9 1.5-6.3-0.095-3.9 8.4-13 15-16 4.6-2.3 5.5-2.4 14-1.9 16 0.91 20 2.2 28 9.8 2.8 2.7 2.9 3.1 1.4 6.6-0.95 2.1-1.6 2.4-3.7 2-3.3-0.63-15 1-19 2.6-6 2.5-7.3 5.7-8.5 21-0.29 3.4-0.84 6.1-1.2 6.1-0.39 0-1.4-1.3-2.2-3-3.6-7.3-5.8-10-8.4-11-2.4-0.97-3.2-0.88-5.6 0.59-3.4 2-4.7 6.2-4.8 14-6e-3 6.5 1.9 9.6 6.9 11 3.6 1.3 3.8 1.7 1.4 3.9-1.6 1.5-1.7 1.4-2.3-0.54zm158-4.3c0-4-7.8-4.2-9.6-5.1s-3.8-2-4.6-2.4c-0.75-0.42-2.3-1.2-3.4-1.6-1.3-0.57-2.1-1.7-2.1-3.1 0-3.5-4.3-12-6.3-13-0.98-0.31-2.8-0.32-4-0.023-3 0.75-4.8-2.8-4.8-9.4-0.023-4.5 0.2-5.2 1.9-5.4 1.6-0.23 2.1 0.48 3.1 4.9 0.7 3.1 1.9 5.8 3.1 6.7 1.8 1.4 2.1 1.4 6.2-0.46 8.7-4 8.7-4 7.3-11-0.66-3.2-1.5-6.2-1.9-6.7-1.1-1.4-1.5-9.1-0.47-9.1 0.5-0.012 1.4-0.35 2.1-0.75 0.63-0.4 5.3-1.7 10-3l9.3-2.3 3.9 4.3c4.3 4.8 4.5 5.4 2.5 10-2.2 5.4-1.8 7 3.6 12 4.5 4.6 7.5 9.4 7.2 10-0.29 0.76-2.3 1.8-4.5 2.4-2.2 0.55-4.5 1.6-5.1 2.3-0.7 0.84-1.2 5.1-1.3 12-0.1 5.6-0.23 10-0.28 11-0.26 1.8-12 3.8-12-2.8zm-247-2.8c0-0.43 0.85-1 1.9-1.4 3.1-0.98 13-11 20-21 8.9-13 9-13 16-19 8-7.8 12-9.1 21-7.7 7.4 1.1 13 4.2 13 6.9 0 2.1-4 4.8-8.7 6-6.7 1.6-12 4.8-20 13-4.1 4.1-9.1 8.2-11 9.2-2 1-3.9 2.3-4.2 2.8-0.54 0.83-4 2.5-16 7.7-4.7 2.1-12 4.3-12 3.6zm382-1.1c-3.3-3-5.4-4.5-8.4-6.5-1.5-0.97-5.1-4-8-6.8-4.8-4.6-5.6-5-9.1-4.8-4.4 0.21-6.2-0.91-7.9-5.1-1.4-3.5-0.68-11 1.4-15 2.3-3.6 4.6-2.6 6.4 2.7 0.89 2.6 1.8 5.6 1.9 6.6 0.86 5.1 3.6 4 7-2.6 1.6-3.2 3.6-5.7 5.2-6.5 1.8-0.94 2.6-2.1 2.7-3.8 0.071-1.4 0.21-3.3 0.3-4.3 0.094-1 0.24-2.7 0.33-3.8 0.19-2.4 5.1-7.9 7.3-8.1 0.85-0.095 2.2-0.47 3.1-0.84 2.5-1.1 3.5-0.27 6.7 5.7 2.6 4.9 2.9 6.1 2.1 8.8-0.48 1.7-1.2 3.4-1.7 3.6-1.9 1.2 1.2 4.5 1.4 4.9 0.54 1.5 1.2 3.5 3.2 7.3 2 3.8 3.6 7.4 3.6 8 6e-3 0.58-1.5 1.4-3.4 1.9-3.8 0.9-4.8 2.4-7.2 11-0.86 3-2.3 6.4-3.1 7.5l-1.5 2zm89-2.5c0-0.86-2.2-0.84-3.4-0.85-1.1-8e-3 -2.1-0.32-2.1-0.7-3e-3 -0.38-2.3-0.74-5.1-0.81-2.8-0.067-5.5-0.58-6.1-1.1-0.56-0.56-2-1-3.1-1-1.6 0-2.1-0.51-2.1-2.2 0-1.2-0.42-2.5-0.93-2.8-0.51-0.31-0.67-0.98-0.36-1.5 1.2-2-10-8.1-14-7.4-2.9 0.55-3.1-1.2-0.29-1.9 1.1-0.3 4.6-0.55 7.8-0.56 5-0.011 6-0.31 8-2.4 1.3-1.5 2.2-3.5 2.3-5.2 0.018-1.6 0.46-6.9 0.99-12 0.53-5 0.97-10 0.98-11 0.038-2.7 3-4.4 4.7-2.7 1 1 1.2 3.5 1 11-0.17 5.5-0.58 10-0.92 11-0.84 1.4 1.2 3.3 2.2 2.2 0.45-0.48 1-5.4 1.3-11 0.27-5.5 0.51-10 0.55-10 0.12-0.44 3.7 0.34 4.3 0.94 0.34 0.34 0.76 5.2 0.94 11s0.52 10 0.75 11c1.3 1.3 2.2-5.4 1.8-13-0.37-6.8-0.23-8.1 0.84-7.7 1.7 0.65 2.6 5 3.2 15 0.11 1.8 0.13 1.8 1.1 0.053 0.56-0.97 0.94-4.1 0.84-7.1-0.15-4.3 0.085-5.3 1.2-5.3 1.9 0 1.9 1.8 1 22-0.34 7.3-0.96 11-2.2 14-0.96 2.1-2 5.2-2.4 6.8-0.73 3.4-3.3 5.1-3.3 2.9zm-113-5.2c-1.5-0.22-3.2-0.81-3.8-1.3-0.6-0.5-1.9-0.65-2.9-0.34-2.5 0.79-3.2-0.77-1.1-2.6 2.1-1.9 8.3-3.1 8.3-1.6 0 0.57 1.3 2.3 3 3.7 3.2 2.9 3 3-3.4 2.1zm-148-2.5c0 1.7-1.8-3.6-2.4-4.6-0.53-1-1.5-3-2.1-4.6-0.62-1.5-1.5-3.5-2-4.5-1.5-2.9-6.2-18-6.2-20 0-0.98 0.41-1.8 0.91-1.8 0.5 0 0.91-0.69 0.91-1.5 0-0.84 1.5-4.6 3.3-8.4 1.8-3.8 3.5-7.8 4.2-8.8 1.5-2.2 5.8-3.9 13-5.7 8.8-2.1 31-1.9 33 0.63 0.53 0.53 1.1 2.6 1.3 4.6l0.34 3.6-3.5-0.038c-3.4-0.038-12 1.8-19 4.3-2.6 0.83-4.6 2.2-5.3 3.5-1.3 2.5-0.75 9 1.3 15 2 5.5 1.7 7.1-1.4 9-3.3 2-3.7 1.6-5.8-5.5-1.9-6.6-5.9-7.8-11-3.1-2.4 2.4-2.7 3.3-2.7 8.1 0 3 0.37 6.4 0.82 7.6 0.95 2.4 4 5.8 5.7 6.4 0.91 0.3 0.84 0.89-0.3 2.6-0.81 1.2-1.6 3-1.8 4-0.31 1.5-1.8-3.6-1.8-0.95zm130-1.2c-2.2-0.78-4.3-3.2-6.3-7.3-2.2-4.3-4.3-4.9-6.9-2.1-1.7 1.9-5.7 1.7-7.1-0.35-1.4-2.1 1-10 3.4-11 2.2-0.86 4.5-6.8 3.2-8.4-1.3-1.5-2.7-0.88-2.7 1.3-0.029 1.7-8 11-8.8 9.9-0.28-0.28 0.53-1.9 1.8-3.5 2.4-3.2 2.5-8 0.18-8-1.5 0-2.6-5.5-1.4-6.7 0.51-0.51 0.92-1.9 0.92-3s0.37-2.1 0.83-2.1 0.63-0.76 0.39-1.7c-0.28-1.1 0.67-2.9 2.6-4.9 2.4-2.6 3.7-3.2 6.4-3.2 2 0 3.5 0.5 3.8 1.3 0.27 0.7 1.3 1.3 2.2 1.3 1.4 0 2.1-1.3 3.4-7 1.2-4.9 2.2-7.3 3.5-8 1-0.55 2-1.2 2.3-1.5 0.25-0.27 1.1-0.49 1.8-0.49 0.75-3e-3 4.2-0.72 7.7-1.6 7.6-1.9 11-2.4 18-3.1 5.4-0.45 5.6-0.33 7.5 2.2 2.2 2.9 1.5 3 4.1 5.2 1.1 1.1 3.6 1.7 9.9 2.3 0.32 0.031 0.77 1.1 1 2.3 0.6 3.1-1.5 5.8-4.6 5.8-4.3-0.093-11 2.1-13 4.6-3.6 3.4-5 6.5-5.7 12-0.4 3.4-1 5.1-1.8 5.1-0.68 0-1.2 0.61-1.2 1.4 0 0.75-0.39 1.4-0.87 1.4-0.48 0-1.4 1.6-2 3.6-1.3 4.3-2.2 4.1-3.1-0.64-0.89-4.8-4.2-10-5.8-9.8-0.7 0.27-2.2 0.73-3.4 1-4.8 1.2-8.9 14-6.8 21 0.62 2.1 1.7 4.8 2.4 5.9 1.2 1.8 1.1 2.2-0.35 3.6-3 2.9-4.3 3.6-5.6 3.2zm148-4.2c-0.93 0-2-1.1-3.3-0.86-2.6 0.47-3.9-1.7-2.5-4.1 0.5-0.81 0.79-3 0.64-4.9-0.15-1.9 0.033-3.4 0.41-3.4s0.59-2.6 0.48-5.7l-0.2-5.7 9.4 0.32-0.089 6.2c-0.15 10-0.99 17-2.5 18-1.2 1.2-1 0.11-2.4 0.11zm-42-12c-0.35-0.57-0.98-0.83-1.4-0.58-0.74 0.46-4.7-1.1-9.1-3.7-1.3-0.71-2.9-1.3-3.7-1.3-1.2-0.011-1.4-1.4-1.5-8.1-0.075-6.2 0.21-8.2 1.2-8.6 0.97-0.37 1.2 0.44 1.2 3.4-0.043 2.1 0.2 4.8 0.55 5.9 0.67 2.1 2.7 2.6 3.7 1 0.53-0.85 0.85-15 0.36-16-0.098-0.25-0.27-11-0.38-23-0.2-23 0.2-26 2.7-24 0.66 0.6 1 1.4 0.8 1.8-0.22 0.36 0.48 4.4 1.5 8.9 1.1 4.5 1.7 8.9 1.4 9.6s-0.2 1.3 0.19 1.3 0.7 1.4 0.7 3.2c0 1.8-0.23 3.2-0.5 3.2-0.28 3e-4 -0.53 3-0.56 6.6s-0.29 10-0.56 15c-0.43 7.4-0.28 8.7 1.3 11 0.97 1.2 2.6 2.2 3.6 2.2 1.7 0 1.8 0.37 1.2 5.7-0.72 6.4-1.6 8.8-2.7 7.2zm2.1-17c-2.3-0.45-2.5-2.7-1.4-14 0.57-5.4 0.98-13 0.9-18l-0.13-7.9 2.6-0.38c3-0.44 3.2 0.25 4.1 14 0.52 7.9 0.42 8.7-1.4 11-1.1 1.2-1.8 2.5-1.5 2.9 0.25 0.41-0.018 3.4-0.59 6.7-0.82 4.7-1.3 5.9-2.5 5.6zm-115-23c0-1.3 0.21-1.8 0.46-1.1 0.25 0.63 0.25 1.7 0 2.3s-0.46 0.11-0.46-1.1zm101-36c0.32-1.2 0.74-1.6 0.96-0.96 0.22 0.66-0.65 18-1.2 19-0.68 0.68-0.18-16 0.22-18zm-383 315c-0.02-0.97-2.4-7.4-4.4-12-3.3-7.7-6.6-5.6-12 7.7-0.82 1.9-1.9 3.4-2.4 3.4s-0.64 0.37-0.36 0.82c0.59 0.95 20 1.2 20 0.26zm143-7.2c-0.58-9.5-0.77-11-1.4-12-0.31-0.31-0.35-1.1-0.1-1.8 0.25-0.66-0.36-1.6-1.4-2.2-1.5-0.81-2.1-0.63-3.3 1-0.78 1.1-1.4 2.5-1.4 3.1s-0.82 2-1.8 3.1c-1 1.2-1.8 2.4-1.8 2.9 0 1.2-6.7 11-7.5 11-0.39 0-0.72 0.41-0.72 0.91 0 0.55 3.9 0.91 9.9 0.91h9.9zm103 4.8c-0.36-4.1-7-20-8.7-20-1.9-0.6-4.7 1.8-14 9.8-3.4 3.1-6 6.2-9 9.1-1 0.86-1.8 1.9-1.8 2.3 0 0.4 7.5 0.7 17 0.67 16-0.051 17-0.12 16-1.8z"/><text transform="translate(-24 -56)" x="144.12617" y="663.52429" fill="#000000" font-size="29px" style="inline-size:584.851;line-height:1.1;white-space:pre" xml:space="preserve"><tspan x="144.12617" y="663.52429">Play as part of your Battle Plan in place </tspan><tspan x="144.12617" y="695.79091">of a weapon or defense. Add +2 to </tspan><tspan x="144.12617" y="728.05751">your dialed number, then send 3 forces </tspan><tspan x="144.12617" y="760.32411">from your reserves to the Tanks You </tspan><tspan x="144.12617" y="792.59071">may not use this card if you do not </tspan><tspan x="144.12617" y="824.85732">have at least 3 forces in your reserves. </tspan><tspan x="144.12617" y="857.12392">Discard after use.</tspan></text><text transform="translate(112 194)" fill="#000000" font-size="33px" style="shape-inside:url(#rect2);white-space:pre" xml:space="preserve"><tspan x="0" y="0">Special</tspan></text></svg>
