<?xml version="1.0" encoding="UTF-8" standalone="no"?>
<!-- Created with Inkscape (http://www.inkscape.org/) -->

<svg
   width="822"
   height="1122"
   version="1.1"
   viewBox="0 0 822 1122"
   xml:space="preserve"
   id="svg10"
   sodipodi:docname="Residual Poison (Full Res).svg"
   inkscape:version="1.4 (86a8ad7, 2024-10-11)"
   xmlns:inkscape="http://www.inkscape.org/namespaces/inkscape"
   xmlns:sodipodi="http://sodipodi.sourceforge.net/DTD/sodipodi-0.dtd"
   xmlns="http://www.w3.org/2000/svg"
   xmlns:svg="http://www.w3.org/2000/svg"><defs
     id="defs10" /><sodipodi:namedview
     id="namedview10"
     pagecolor="#ffffff"
     bordercolor="#000000"
     borderopacity="0.25"
     inkscape:showpageshadow="2"
     inkscape:pageopacity="0.0"
     inkscape:pagecheckerboard="0"
     inkscape:deskcolor="#d1d1d1"
     inkscape:zoom="1"
     inkscape:cx="490"
     inkscape:cy="506"
     inkscape:window-width="1742"
     inkscape:window-height="1360"
     inkscape:window-x="1882"
     inkscape:window-y="325"
     inkscape:window-maximized="0"
     inkscape:current-layer="svg10" /><path
     d="m 89,1000 c -4.5,-1.3 -6.7,-2.9 -8.9,-6.5 L 77.9,990 77.953,529 c 0.029,-254 0.072,-465 0.096,-469 0.042,-7.1 0.16,-7.4 4,-12 l 3.9,-4.2 320,-0.26 c 237,-0.19 321,0.035 323,0.87 1.5,0.62 4.1,2.7 5.7,4.5 l 3,3.4 -0.002,469 c -0.002,460 -0.037,469 -1.9,472 -1.1,1.7 -3.4,4 -5.2,5.1 -3.5,2.1 -634,3.6 -641,1.5 z m 44,-8.3 c 0,-4.6 -0.35,-5.9 -1.8,-6.4 -5.7,-1.9 -13,-6 -18,-9.5 l -5.4,-4 -11,11 c -15,15 -16,14 16,14 h 21 z m 219,0.45 0.3,-5.2 -4.3,-0.017 c -2.4,-0.01 -51,-0.012 -108,-0.01 l -104,0.012 -0.32,3.1 c -0.18,1.7 -0.085,4.1 0.21,5.3 l 0.53,2.1 215,-0.15 z m 36,1.1 c 6,-20 35,-20 40,1 0.47,1.9 1.3,2.8 2.9,2.8 3.9,0.12 13,0.13 21,0.03 l 7.7,-0.096 0.69,-10 h -19 l -33,-16 -30,15 h -22 l -0.31,4.4 c -0.51,7 -1,6.8 16,6.6 l 15,-0.2 z m 290,-0.96 -10e-6,-5.2 -42,-0.27 c -23,-0.15 -71,-0.15 -108,-6e-4 l -66,0.27 v 4.9 c 0,6.2 -13,5.5 110,5.5 h 105 z m 50,4.1 c 1.6,-0.92 0.38,-2.5 -10,-13 l -12,-12 -2.5,2.3 c -4.5,4.1 -12,8.6 -18,10 l -5.3,1.7 v 5.2 c 0,4.7 0.24,5.3 2.2,5.6 5.8,0.83 43,0.18 45,-0.77 z m -304,-1.7 c -5,-16 -25,-18 -33,-3.7 -3.1,6 -3.2,5.9 16,5.9 h 18 z m 309,-3 c 1.7,-4.3 0.77,-47 -0.97,-47 -0.99,-0.021 -3.4,-0.28 -5.5,-0.57 -3.5,-0.51 -3.7,-0.38 -4.9,3.3 -2,6 -5.9,13 -9.6,18 l -3.4,4.1 11,11 c 12,12 12,12 13,11 z m -648,-1.5 c 1,-0.96 6.2,-6 11,-11 l 9.6,-9.3 -3.9,-5.2 c -4.2,-5.6 -8.4,-14 -9.4,-18 -0.6,-2.5 -1,-2.7 -6.1,-2.7 h -5.5 l -0.029,10 c -0.016,5.6 -0.092,15 -0.17,22 -0.18,15 0.55,18 4,14 z m 307,-15 c 8.3,-4.1 15,-7.5 16,-7.5 1,0 7.3,3.4 16,7.5 l 15,7.5 h 245 l 8.3,-4.2 c 11,-5.4 19,-14 25,-25 l 3.8,-7.7 0.51,-804 h -23 l -1.2,6.7 c -11,65 -111,63 -121,-2.2 l -0.68,-4.5 h -480 l -0.016,74 c -0.0088,41 -0.015,221 -0.014,400 l 0.0023,327 2.1,5.6 c 4.9,13 14,23 27,30 l 7.9,4 h 245 z m -301,-41 c 0.0089,-3.4 0.022,-192 0.03,-419 l 0.014,-412 -11,-0.58 0.2,417 c 0.11,230 0.22,418 0.25,419 0.037,1.4 0.97,1.8 5,1.8 h 5 z m 643,-413 0.027,-419 h -11 v 838 h 11 z m -84,-328 c 31,-6 52,-43 42,-74 -19,-61 -110,-49 -113,14 -2.1,39 31,67 71,60 z m -57,-83.3 c 28,-43 94,-24 94,28 0,34 -30.8498,54.43084 -57.92096,49.64032 C 599.52799,184.64147 571.37318,150.5744 593,109.89 Z m 65,70.7 c 38,-19 35,-74 -5.4,-88 -15,-5 -24,-4.2 -40,3.8 -8.2,4 -20,19 -21,27 -0.31,1.7 -0.84,3.6 -1.2,4.2 -2.1,3.5 -0.76,20 2.2,27 0.73,1.6 2.1,4.6 2.9,6.6 9.2,20 41,30 63,19 z m -563,-87 c 2,-5.8 6.1,-13 9.9,-17 l 2.6,-2.8 -11,-11 c -14,-13 -14,-13 -14,-0.13 -0.0087,5.4 -0.065,15 -0.12,21 -0.16,17 -0.75,15 5.7,15 l 5.6,-0.3 z m 640,-18 c -0.38,-28 0.58,-27 -13,-13 l -12,12 2.6,2.8 c 3.3,3.6 8,12 9.6,17 1.8,5.7 1.6,5.5 7.6,5.5 h 5.5 z m -310,-11 15,-7.5 h 20 l 0.35,-5.1 c 0.44,-6.5 1.9,-5.9 -15,-5.9 h -15 l -1.5,3.8 c -3.9,9.9 -9.1,14 -18,15 -11,0.89 -20,-5.7 -23,-17 -0.38,-1.3 -2.8,-1.5 -16,-1.5 l -15,0.05 v 10 l 23,1 14,7.2 c 17,8.7 13,8.8 31,-0.2 z m -310,2.5 c 2.9,-2.2 8.3,-5.2 12,-6.7 l 6.8,-2.7 v -5.3 c 0,-6.8 0.7,-6.6 -25,-6.2 -26,0.43 -26,0.015 -12,13 5.8,5.6 11,11 11,11 0.63,1.4 2.1,0.75 7.4,-3.3 z m 614,-19 c -0.65,-0.65 -9.4,-1 -24,-1 h -23 v 11 l 5,1.7 c 5.5,1.9 12,5.7 17,9.6 l 3,2.5 11,-11 c 7.7,-7.7 11,-11 10,-12 z m -314,13 c 5.1,-2.6 11,-9.3 11,-13 0,-0.3 -7.9,-0.54 -18,-0.54 -19,0 -19,0.02 -16,4.8 4.3,8.3 15,12 23,8.6 z m -62.4,-3.42 -0.24,-10 h -215 l -0.1,3.5 c -0.22,7.7 -5.5,7 55,7.3 30,0.14 74,0.16 98,0.029 24,-0.131 48,-0.24 53,-0.25 z m 281.4,0.02033 45,-0.021 v -11 l -106,0.037 c -122,0.043 -109,-0.62 -109,5.9 l 0.35,5 c 57,0.7 113,0.09 170,0.042 z m -4.58751,101.07388 c 6.24771,-4.38015 5.35902,-8.73936 -1.78165,-8.73936 -2.50209,0 -6.75289,-2.00556 -9.44621,-4.45681 -4.08029,-3.71355 -4.62985,-6.58038 -3.29531,-17.19054 0.88089,-7.00356 1.33829,-13.30675 1.01644,-14.00711 -0.32185,-0.70036 1.62704,-3.55189 4.33088,-6.33675 3.46945,-3.57342 4.4627,-3.88084 3.37539,-1.04472 -0.84736,2.21027 0.22889,5.48865 2.39168,7.28528 5.81827,4.83324 4.7972,10.67497 -2.94607,16.855 -6.46396,5.15899 -6.61874,5.74971 -2.56873,9.8035 4.05,4.05378 4.69444,3.89816 10.69498,-2.58257 3.51191,-3.79295 6.38529,-7.87496 6.38529,-9.07114 0,-5.13252 4.69407,-1.57613 6.37338,4.82869 1.83084,6.98276 1.84415,6.98654 4.4812,1.27337 3.76359,-8.15378 14.58914,-7.91273 14.58914,0.32486 0,3.33026 -1.70485,7.47124 -3.78854,9.20217 -2.0837,1.73094 -3.20999,4.08415 -2.50287,5.22936 0.70712,1.14521 0.20114,2.75311 -1.12439,3.5731 -1.32554,0.81999 -3.12924,0.32616 -4.00822,-1.0974 -2.3004,-3.7256 -6.38658,-3.18646 -6.38658,0.84265 0,1.88702 2.57617,4.67455 5.72483,6.19451 4.77418,2.30464 2.99011,2.79218 -10.74362,2.93592 -15.66264,0.16393 -16.18968,-0.0231 -10.77102,-3.82201 z m 29.36939,-24.18001 c -1.95807,-1.9599 -3.11069,-0.80621 -4.03624,4.04001 -1.1829,6.1937 -0.94467,6.43215 2.74074,2.7433 2.88362,-2.88632 3.25358,-4.82341 1.2955,-6.78331 z m -33.93456,-15.43215 c 0,-4.43371 -4.52664,-2.1147 -5.864,3.00413 -1.12312,4.29883 -0.71976,4.69991 2.24762,2.23491 1.98901,-1.65227 3.61638,-4.00984 3.61638,-5.23904 z m -483.31024,-6.35473 c -0.1385,-9.62527 7.6838,-9.19189 12.77114,0.70757 2.3543,4.58124 5.93876,7.65037 8.93494,7.65037 5.9533,0 6.46479,-3.25532 1.20205,-7.65037 -4.20322,-3.51021 -5.14631,-10.20049 -1.4379,-10.20049 4.86134,0 5.72754,-10.53104 1.27354,-15.48348 -3.36233,-3.73861 -7.82179,-4.91892 -18.60171,-4.92343 l -14.17914,-0.006 0.83889,19.27905 c 0.7132,16.39052 1.4726,19.15098 5.0685,18.42429 2.73916,-0.55356 4.19439,-3.30129 4.12969,-7.79757 z m -1.16722,-18.41835 c 0,-2.67155 2.67504,-3.82518 8.86987,-3.82518 6.19482,0 8.86986,1.15363 8.86986,3.82518 0,2.67156 -2.67504,3.82519 -8.86986,3.82519 -6.19483,0 -8.86987,-1.15363 -8.86987,-3.82519 z m 60.20035,22.31357 c 0.72088,-2.20119 -2.15842,-3.18765 -9.30423,-3.18765 -5.69149,0 -10.34817,-1.14756 -10.34817,-2.55012 0,-1.40257 2.85103,-2.55012 6.33561,-2.55012 3.94217,0 6.33562,-1.44507 6.33562,-3.82519 0,-2.38011 -2.39345,-3.82518 -6.33562,-3.82518 -3.48458,0 -6.33561,-1.14756 -6.33561,-2.55012 0,-1.40257 3.99144,-2.55013 8.86986,-2.55013 5.40711,0 8.86934,-1.24444 8.86853,-3.18765 -9e-4,-2.14972 -4.38274,-3.18765 -13.45729,-3.18765 h -13.45595 l 0.70391,15.30073 c 0.38715,8.41541 0.74088,15.6476 0.78606,16.07153 0.26663,2.50199 26.46382,-1.29138 27.33728,-3.95845 z m 27.16368,0.34114 c 3.57595,-3.59836 3.64202,-4.81235 0.52045,-9.56296 -2.04327,-3.10958 -7.25043,-5.99484 -12.15121,-6.73292 -5.68133,-0.85564 -7.4857,-1.99528 -5.34609,-3.37661 1.7763,-1.14679 6.62305,-1.33508 10.77055,-0.41843 8.60485,1.90178 10.30993,-2.16818 2.63902,-6.29925 -7.52744,-4.05379 -14.11576,-3.1633 -19.30771,2.60967 -6.06984,6.74912 -2.38411,13.53261 7.9926,14.71016 4.04092,0.45857 8.48754,2.03799 9.88138,3.50984 1.75853,1.85696 -0.76254,2.26146 -8.2363,1.3215 -7.91688,-0.99569 -10.77055,-0.4617 -10.77055,2.01542 0,6.95021 17.68307,8.58799 24.00786,2.22358 z m 14.4143,-11.05377 c 0.72144,-12.75014 0.14991,-15.361 -3.57627,-16.33705 -3.88237,-1.01697 -4.43493,0.87377 -4.43493,15.17534 0,12.36474 0.86956,16.33706 3.57627,16.33706 2.58203,0 3.81499,-4.21893 4.43493,-15.17535 z m 32.75635,9.85411 c 3.91857,-3.94311 4.8503,-7.07652 3.59764,-12.09881 -2.68152,-10.75096 -6.16381,-13.18142 -18.88593,-13.18142 h -11.91382 l 0.18646,15.29852 0.18645,15.29853 10.77055,0.002 c 7.54274,0.002 12.35533,-1.5925 16.05865,-5.31903 z m -17.95933,-11.25456 c 0,-6.03529 1.1723,-8.92543 3.62035,-8.92543 5.34639,0 12.0917,7.74398 10.46375,12.01293 -0.77708,2.03772 -1.41287,4.18487 -1.41287,4.77144 0,0.58657 -2.85103,1.06649 -6.33562,1.06649 -5.5512,0 -6.33561,-1.10505 -6.33561,-8.92543 z m 49.7739,14.62416 c 1.58968,-1.03045 3.3003,-7.89892 3.80137,-15.26327 0.77576,-11.40172 0.25256,-13.38949 -3.5239,-13.38814 -3.56649,0.001 -4.43494,2.24872 -4.43494,11.47713 0,10.54051 -0.51623,11.47555 -6.33561,11.47555 -5.81938,0 -6.33562,-0.93504 -6.33562,-11.47555 0,-8.50041 -0.98554,-11.47555 -3.80137,-11.47555 -5.34814,0 -5.20401,21.17537 0.18102,26.59413 4.14185,4.1678 15.4387,5.30345 20.44905,2.0557 z m 16.11651,-1.87355 c 0,-2.39276 2.40229,-3.82518 6.41515,-3.82518 3.52833,0 7.07158,1.72133 7.87388,3.82518 0.80229,2.10385 3.55425,3.82519 6.11546,3.82519 4.27684,0 4.09966,-1.24137 -2.17182,-15.21643 -8.61452,-19.19617 -13.23441,-19.71502 -20.42904,-2.29436 -6.42306,15.55242 -6.60256,17.51079 -1.605,17.51079 2.09075,0 3.80137,-1.72134 3.80137,-3.82519 z m 5.06849,-12.90111 c 0,-2.18662 1.14041,-3.26645 2.53425,-2.39962 1.39383,0.86683 2.53424,2.65589 2.53424,3.97568 0,1.3198 -1.14041,2.39963 -2.53424,2.39963 -1.39384,0 -2.53425,-1.78906 -2.53425,-3.97569 z m 48.15068,12.90111 c 0,-2.67155 -2.67503,-3.82518 -8.86986,-3.82518 -8.82293,0 -8.86986,-0.0607 -8.86986,-11.47555 0,-9.22724 -0.8689,-11.47646 -4.43493,-11.4802 -3.82689,-0.004 -4.31722,2.09376 -3.57628,15.30074 l 0.85866,15.30538 h 12.44614 c 9.37373,0 12.44613,-0.94427 12.44613,-3.82519 z M 399.75,113.50489 c 0,7.60681 -1.27416,-7.65037 8.42637,-7.65037 10.70302,0 16.02911,-3.49832 16.02911,-10.52836 0,-8.14673 -7.25484,-12.422345 -21.08855,-12.42867 l -13.12378,-0.006 0.83378,19.13185 c 0.73159,16.78694 1.4227,19.13186 5.6387,19.13186 3.9872,0 3.28437,-14.12295 3.28437,-7.65037 z m -0.88699,-19.12592 c 0,-3.144 1.99404,-3.95486 8.23631,-3.34922 4.52996,0.43951 8.2363,1.94666 8.2363,3.34922 0,1.40257 -3.70634,2.90972 -8.2363,3.34923 -6.24227,0.60563 -8.23631,-0.20523 -8.23631,-3.34923 z m 55.75343,21.67604 c 10.39822,-10.46336 3.14024,-25.50122 -12.30809,-25.50122 -11.44959,0 -15.56862,3.62395 -15.56862,13.69737 0,15.3967 17.10749,22.64054 27.87671,11.80385 z m -18.58448,-4.2502 c -3.90045,-3.92489 -1.51243,-13.31351 3.81946,-15.01639 6.64586,-2.12253 12.33345,4.295 10.40002,11.73474 -1.26011,4.84887 -10.53486,6.98935 -14.21948,3.28165 z m 34.19843,-5.95493 c 0.74093,-13.20698 0.25061,-15.30475 -3.57628,-15.30074 -3.73046,0.004 -4.43493,2.43511 -4.43493,15.30538 0,11.47255 0.89477,15.30074 3.57627,15.30074 2.58625,0 3.81398,-4.23702 4.43494,-15.30538 z m 29.49564,12.24523 c 0,9.37888 -0.21714,-17.34083 -11.07828,-17.34083 -3.38503,0 -6.1546,-1.14756 -6.1546,-2.55012 0,-3.31074 6.60934,-3.26455 12.83784,0.0897 3.8726,2.08554 4.90189,1.80455 4.90189,-1.33818 0,-5.62373 -11.18963,-9.39263 -19.00685,-6.40191 -10.85659,4.15352 -6.69328,17.85086 5.42578,17.85086 3.12356,0 6.44484,1.24658 7.38061,2.77019 1.13209,1.84323 -1.3164,2.50856 -7.31724,1.98832 -10.13758,-0.87888 -14.85208,1.95561 -9.21713,5.54158 5.3014,3.37371 22.22798,-5.70995 22.22798,-0.60963 z m 33.45205,-2.0401 c 6.77991,-6.82238 6.38977,-14.20301 -1.15193,-21.79195 -11.16777,-11.23773 -26.72478,-5.23235 -26.72478,10.3164 0,14.89893 17.36911,22.04898 27.87671,11.47555 z m -18.58447,-4.2502 c -3.14806,-3.16778 -1.71152,-13.04648 2.11187,-14.52284 8.47184,-3.27132 16.76706,7.2562 10.60412,13.45775 -3.06527,3.08447 -10.12181,3.67552 -12.71599,1.06509 z m 33.85852,-0.21251 0.0686,-9.56296 8.8354,9.56296 c 4.85947,5.25963 10.24557,9.56505 11.9691,9.5676 4.63573,0.007 2.60992,-29.77341 -2.15038,-31.61155 -2.68546,-1.03696 -3.61227,0.99636 -3.69127,8.09831 l -0.10549,9.48292 -8.13081,-9.17413 c -11.00245,-12.414245 -14.46643,-10.47193 -14.46643,8.11158 0,11.71168 0.8507,15.08823 3.80137,15.08823 2.69101,0 10.63977,-9.56296 3.86994,-9.56296 z m -388.80855,454.29608 -40.28107,-1.28691 -5.16981,-6.97671 c -5.04841,-6.81288 -5.19478,-10.76486 -6.23347,-168.30806 l -1.06367,-161.33137 5.43177,-5.73777 5.43176,-5.73778 H 407.8316 c 333.08525,0 298.64495,-2.96307 301.17309,25.91143 0.77846,8.89108 2.11849,82.96425 2.97784,164.60706 l 1.56245,148.44148 -6.51575,6.55657 -6.51575,6.55657 -250.29441,-0.7038 C 312.55714,567.492 181.79817,566.59618 159.64358,565.88838 Z m 81.2218,-4.67536 c 0,-3.44966 -4.19415,-6.40352 -4.19415,-8.53019 0,-6.33071 9.29398,-13.12421 15.66226,-11.44843 3.48571,0.91724 7.44716,-0.10061 10.22032,-2.62601 7.18078,-6.53923 5.29367,-0.58358 -4.40881,13.91404 -4.91545,7.34475 -7.88536,13.3541 -6.5998,13.3541 1.28557,0 5.87958,-5.5546 10.20892,-12.34356 7.2653,-11.39292 12.11661,-24.17526 20.47942,-53.95962 2.88707,-10.28236 3.44415,-10.87896 5.35782,-5.73778 3.09177,8.30627 4.71139,7.04046 3.26289,-2.55012 -1.17037,-7.749 -0.35264,-8.84866 12.57608,-16.91217 7.60531,-4.74335 15.00309,-11.21982 16.43951,-14.39217 1.53897,-3.39882 2.12088,-17.13902 1.41678,-33.45274 -1.06308,-24.63084 -0.62832,-28.59912 3.94117,-35.97275 6.4268,-10.37071 8.44743,-10.37585 12.98952,-0.033 4.16632,9.48714 18.49433,18.47884 33.22162,20.84858 l 9.95132,1.60125 -8.00722,6.77984 c -7.19685,6.09369 -8.81336,6.48336 -15.97252,3.85033 -6.32408,-2.32589 -7.13621,-2.28852 -3.9415,0.18138 2.21309,1.71099 3.54357,4.54534 2.95662,6.29855 -1.30051,3.88461 -0.9021,3.90157 9.11401,0.38806 4.3895,-1.53977 7.98091,-3.67881 7.98091,-4.75342 0,-1.07461 4.33784,-4.9788 9.63964,-8.67596 9.53618,-6.64998 25.98225,-9.06613 32.47143,-4.77049 4.20474,2.78341 2.87341,14.14622 -2.09552,17.8851 -2.38357,1.79353 -5.09771,7.5313 -6.03142,12.75062 -0.93371,5.21931 -5.3181,14.07988 -9.74308,19.69015 -14.9833,18.99678 -22.16637,34.19279 -23.58044,49.88518 -1.44774,16.06587 -2.14148,14.83279 17.07911,30.35704 l 6.33562,5.11721 -6.33562,5.07837 c -6.9515,5.57203 -3.98806,7.108 3.16781,1.64189 6.82712,-5.21498 5.45601,-9.62381 -6.29638,-20.24618 -9.21135,-8.32566 -9.87294,-9.53153 -4.47417,-8.15499 3.48459,0.88847 10.63518,2.28358 15.89019,3.10024 7.92465,1.23153 9.29841,0.81313 8.05302,-2.45265 -0.97718,-2.56244 0.34531,-4.52732 3.78703,-5.62652 2.90871,-0.92897 4.58149,-2.84028 3.71729,-4.24735 -0.92841,-1.51161 -3.86162,-0.39315 -7.16931,2.73372 -6.13358,5.7983 -12.8627,6.62449 -22.84611,2.80503 -5.6107,-2.14655 -6.5006,-4.01422 -6.5006,-13.64306 0,-11.60605 4.50022,-19.44387 23.25605,-40.50391 10.86343,-12.19805 19.77026,-11.14646 28.90374,3.41253 9.53995,15.20694 17.26664,13.21804 24.1035,-6.20438 3.13973,-8.91949 2.93798,-10.60123 -2.51195,-20.93881 -3.99497,-7.57776 -5.39964,-13.35021 -4.31088,-17.71537 0.88826,-3.56126 1.11635,-6.47501 0.50687,-6.47501 -0.60947,0 -2.90468,-0.69372 -5.10045,-1.54159 -2.67365,-1.03241 -4.76367,0.44163 -6.32761,4.46271 -2.30568,5.9282 -2.37328,5.89925 -5.33272,-2.28359 -1.6486,-4.55834 -4.45686,-8.2879 -6.2406,-8.2879 -1.78373,0 -4.78239,-1.86629 -6.66369,-4.14732 -2.89379,-3.50864 -6.84862,-3.88691 -25.68122,-2.45633 -26.67028,2.02595 -40.07377,-1.26078 -49.08421,-12.03616 -9.60609,-11.48771 -7.27005,-15.80744 8.48116,-15.68307 9.97495,0.0788 14.57819,1.46147 19.10176,5.73777 7.61254,7.19641 9.4345,7.09381 9.4345,-0.53127 0,-4.58673 2.42468,-7.36168 9.46998,-10.83802 10.17912,-5.02264 21.93218,-20.12171 19.16707,-24.62379 -1.16208,-1.89206 -2.0061,-1.78948 -2.7079,0.3291 -0.56077,1.69286 -1.89786,2.53174 -2.97129,1.86416 -1.07344,-0.66758 -1.46171,1.36554 -0.86282,4.51805 1.29032,6.79217 -5.03153,13.33244 -15.40617,15.93843 -6.75042,1.69563 -7.12232,1.40209 -5.4023,-4.26403 1.01595,-3.34676 3.59966,-8.09324 5.74157,-10.54774 2.23637,-2.56273 2.70941,-4.46271 1.11108,-4.46271 -5.22405,0 -10.67347,11.31733 -10.67347,22.1666 v 10.83128 l -9.22351,-6.29845 c -6.67904,-4.56091 -12.62153,-6.29845 -21.54109,-6.29845 -9.92955,0 -12.37458,-0.8652 -12.61157,-4.46272 -0.23872,-3.62395 -0.53266,-3.50413 -1.56393,0.63753 -0.69847,2.80514 -5.27949,9.57581 -10.18003,15.04594 -8.84452,9.8725 -8.89986,10.08169 -7.52081,28.43015 1.32214,17.59122 -0.55472,24.88465 -8.17107,31.75252 -0.77771,0.70128 -3.58648,3.85706 -6.24172,7.01284 -8.03263,9.54685 -1.54963,6.42468 7.65372,-3.68599 l 8.57809,-9.42377 v 9.07986 c 0,10.86453 -6.72494,20.26226 -19.785,27.64841 -5.19524,2.93817 -12.21157,9.58432 -15.59185,14.76921 -3.38028,5.18489 -7.92233,11.0159 -10.09346,12.9578 -3.5359,3.16259 -3.48508,3.37035 0.48744,1.99262 2.83167,-0.98207 4.43493,-0.25494 4.43493,2.01139 0,6.80657 -13.00791,19.02937 -27.35949,25.70818 -7.95057,3.69997 -16.43583,7.77504 -18.85613,9.05572 -7.40872,3.92024 -8.59902,2.43406 -2.28787,-2.85659 3.29054,-2.75847 7.98349,-5.0154 10.42878,-5.0154 8.94804,0 16.8217,-9.42491 20.06799,-24.02174 1.99392,-8.96558 9.22589,-24.20223 19.74623,-41.60225 14.18173,-23.45575 17.51296,-31.35625 22.86666,-54.23176 8.10615,-34.63628 13.43699,-48.25853 21.12062,-53.97101 5.12668,-3.8115 28.114,-9.84721 62.61225,-16.4399 4.1654,-0.79602 5.70205,-2.8682 5.70205,-7.68923 0,-5.34013 0.84635,-6.22139 4.43494,-4.6179 9.27038,4.14229 25.99465,4.23855 32.14262,0.18501 5.85294,-3.85902 6.16067,-3.73278 8.68866,3.56445 1.44144,4.16084 3.53544,7.59857 4.65332,7.63941 1.11789,0.0408 10.0154,2.30254 19.77224,5.02599 9.75685,2.72346 20.70476,4.98516 24.32867,5.026 3.62392,0.0408 11.13896,3.39091 16.70009,7.44461 8.51671,6.20812 11.55004,11.13423 19.23589,31.239 5.01861,13.12775 9.85867,29.49265 10.75568,36.36644 1.21121,9.28149 5.93075,19.39028 18.33893,39.2802 10.40829,16.68418 18.42068,32.99759 21.25038,43.26629 4.74489,17.21874 8.87683,22.21939 20.57593,24.90192 6.66298,1.52777 24.602,17.88485 24.64862,22.47499 0.0121,1.19047 -3.96946,-0.20528 -8.84788,-3.10165 -10.38114,-6.16339 -11.58989,-3.79827 -2.4666,4.8263 6.29138,5.94748 7.18804,6.04394 51.31849,5.52106 56.43651,-0.6687 53.78509,1.36031 53.78509,-41.15915 0,-16.44988 -0.74078,-52.18384 -1.64618,-79.40881 l -1.24182,-110.06537 c -0.78744,-85.07876 -2.37955,-106.10616 -8.36692,-110.50435 -3.89161,-2.8587 -16.57265,-3.61362 -60.70126,-3.61362 h -55.78197 c -6.30178,3.90268 -170.16977,-4.8296 -152.04408,4.26911 9.51563,4.77665 16.22059,15.48011 16.22059,25.89374 0,4.23494 1.33239,13.50828 2.96087,20.60742 2.51546,10.96586 2.36728,13.58451 -0.98508,17.40787 -2.17027,2.47519 -4.778,8.51679 -5.79495,13.42577 -2.80048,13.51841 -5.40328,17.09655 -17.71958,24.3596 -8.21666,4.84545 -13.27665,6.23378 -18.5069,5.07783 -8.81386,-1.94798 -23.31053,-14.82414 -23.31053,-20.70477 0,-2.36801 -2.38208,-8.18391 -5.29351,-12.92422 -4.7529,-7.73852 -5.1092,-10.89458 -3.48869,-30.90247 2.54951,-31.47796 7.40558,-39.19159 27.78905,-44.14155 4.18151,-1.01544 -31.14745,-1.96372 -78.5088,-2.10729 l -86.11155,-0.26104 h -2.73515 l -56.97293,0.0391 c -31.33512,0.0215 -58.22773,0.88215 -59.76136,1.91259 -8.49096,5.70509 -9.0605,12.93293 -7.19893,91.35876 l 1.64872,160.65484 0.73589,80.55693 5.98281,4.87217 c 5.4094,4.4052 10.49447,4.87217 53.05585,4.87217 44.84309,0 47.35088,-0.26267 52.93842,-5.54477 7.76212,-7.33782 7.5117,-11.42801 -0.38106,-6.22407 -3.43555,2.26516 -7.65026,4.11847 -9.36602,4.11847 -1.71576,0 2.27516,-3.44267 8.86871,-7.65037 12.47084,-7.95832 17.54523,-9.84908 12.3191,-4.59022 -3.92027,3.94483 -3.92027,15.4361 0,19.38093 4.92381,4.95466 3.6873,5.25698 3.6873,-1.60336 z m 17.34695,-29.6841 c 0,-12.85733 13.94668,-8.2314 6.33562,-0.079 -3.27361,3.50642 -7.74894,6.3696 -9.94518,6.36264 -2.66299,-0.008 3.60956,0.28873 3.60956,-6.2836 z m 98.57911,21.8786 c 0.83799,-6.15667 1.52363,-15.53219 1.52363,-20.83449 0,-15.72583 -19.0484,-100.54389 -26.5154,-118.06688 -6.02228,-14.13262 -7.54574,-9.78873 -1.76912,5.04433 9.6848,24.86839 9.52724,26.81635 -3.40168,42.05416 -13.33309,15.71414 -39.61789,58.99914 -51.4916,84.79475 -4.43029,9.6248 -8.05435,17.65769 -8.05347,17.85086 8.9e-4,0.19317 19.84266,0.35122 44.09282,0.35122 h 44.0912 z M 551.49295,537.82518 C 535.17213,506.17299 514.45261,473.534 501.5754,459.19117 c -8.36166,-9.31333 -9.0653,-11.20996 -7.42625,-20.01716 0.99583,-5.35096 3.34226,-13.42172 5.21428,-17.93501 5.32894,-12.8476 3.87516,-18.58725 -1.62139,-6.40139 -2.70257,5.99161 -8.39433,28.36893 -12.64835,49.72738 -4.25402,21.35845 -8.95415,44.9127 -10.44473,52.34277 -1.95753,9.75766 -1.9141,18.25582 0.15637,30.60147 l 2.86652,17.09224 h 43.81388 43.81388 z m -155.16418,24.22616 c 0,-0.70128 -0.57021,-1.27506 -1.26713,-1.27506 -0.69691,0 -1.26712,0.57378 -1.26712,1.27506 0,0.70129 0.57021,1.27507 1.26712,1.27507 0.69692,0 1.26713,-0.57378 1.26713,-1.27507 z M 411.53425,534 c 0,-0.70128 -0.57021,-1.27506 -1.26713,-1.27506 -0.69691,0 -1.26712,0.57378 -1.26712,1.27506 0,0.70128 0.57021,1.27506 1.26712,1.27506 0.69692,0 1.26713,-0.57378 1.26713,-1.27506 z M 267.08219,505.94866 c 0,-0.70129 -0.5702,-1.27507 -1.26712,-1.27507 -0.69692,0 -1.26712,0.57378 -1.26712,1.27507 0,0.70128 0.5702,1.27506 1.26712,1.27506 0.69692,0 1.26712,-0.57378 1.26712,-1.27506 z m 104.84106,-63.11553 c 2.60285,-9.77335 1.73244,-11.15902 -2.21968,-3.53369 -4.41374,8.51598 -4.53981,9.27146 -1.54709,9.27146 1.23127,0 2.92632,-2.58199 3.76677,-5.73777 z m -8.53969,1.91259 c 0,-0.70128 -0.5702,-1.27506 -1.26712,-1.27506 -0.69692,0 -1.26712,0.57378 -1.26712,1.27506 0,0.70128 0.5702,1.27506 1.26712,1.27506 0.69692,0 1.26712,-0.57378 1.26712,-1.27506 z m 52.37443,-99.87979 c -0.92922,-0.93504 -1.6895,-0.17 -1.6895,1.70008 0,1.87009 0.76028,2.63513 1.6895,1.70009 0.92922,-0.93505 0.92922,-2.46512 0,-3.40017 z"
     id="path1"
     sodipodi:nodetypes="cccccccccccsccccccccsscccccccccccccccccccccccccccccccssccccccccscccccsccccccccscccccscsccccccsccccccccccccccccccccccccccscccccccccccccsccccccsccccccccccccccccccsccccccsccccccccccccccsccccccscccccscccssccccccscsccccccccccssssssssssssssssssssssssssssssscsssssccssccssssssssssssssscsssssssssssssssssssscssccccccsssssssscsssssssssssssssssssssssscsssssscssssssssssssssssssssssssssssssssssssssssssccscsscsssscscsscccssscccsssssssssssssssssscssssssssssssscssssssssssssssssssssssssssssssssssssscssssssssscsssssssssssssssssssssssssssssssssccsscssssssssssssccsscccsssssssssssscsssssssssscssssssssscccsssssssssssssssssssssssssssss"
     inkscape:label="path1"
     style="display:inline" /><text
     transform="translate(-23.585787,-55.769552)"
     x="144.12617"
     y="663.52429"
     fill="#000000"
     font-size="29px"
     style="font-size:30.6667px;line-height:1.1;white-space:pre;inline-size:584.851;display:inline"
     xml:space="preserve"
     id="text9"><tspan
       x="144.12617"
       y="663.52429"
       id="tspan1">Play on your opponent before </tspan><tspan
       x="144.12617"
       y="697.25769"
       id="tspan2">choosing leaders in a battle. That </tspan><tspan
       x="144.12617"
       y="730.99109"
       id="tspan3">faction will lose one of their available </tspan><tspan
       x="144.12617"
       y="764.72448"
       id="tspan4">leaders at random to the tanks. No </tspan><tspan
       x="144.12617"
       y="798.45788"
       id="tspan5">spice is collected for it. Discard after </tspan><tspan
       x="144.12617"
       y="832.19128"
       id="tspan7">use.</tspan></text><text
     transform="translate(117.05112,192.71261)"
     fill="#000000"
     font-size="43px"
     style="font-size:40px;white-space:pre;shape-inside:url(#rect2);display:inline"
     xml:space="preserve"
     id="text10"><tspan
       x="0"
       y="0"
       id="tspan8">Special</tspan></text></svg>
