<?xml version="1.0" encoding="UTF-8" standalone="no"?>
<!-- Created with Inkscape (http://www.inkscape.org/) -->

<svg
   width="822"
   height="1122"
   version="1.1"
   viewBox="0 0 822 1122"
   xml:space="preserve"
   id="svg10"
   sodipodi:docname="Semuta Drug (Full Res).svg"
   inkscape:version="1.4 (86a8ad7, 2024-10-11)"
   xmlns:inkscape="http://www.inkscape.org/namespaces/inkscape"
   xmlns:sodipodi="http://sodipodi.sourceforge.net/DTD/sodipodi-0.dtd"
   xmlns="http://www.w3.org/2000/svg"
   xmlns:svg="http://www.w3.org/2000/svg"><defs
     id="defs10" /><sodipodi:namedview
     id="namedview10"
     pagecolor="#ffffff"
     bordercolor="#000000"
     borderopacity="0.25"
     inkscape:showpageshadow="2"
     inkscape:pageopacity="0.0"
     inkscape:pagecheckerboard="0"
     inkscape:deskcolor="#d1d1d1"
     inkscape:zoom="1"
     inkscape:cx="435"
     inkscape:cy="529"
     inkscape:window-width="1742"
     inkscape:window-height="1360"
     inkscape:window-x="1882"
     inkscape:window-y="325"
     inkscape:window-maximized="0"
     inkscape:current-layer="svg10" /><path
     d="m 89,1000 c -4.5,-1.3 -6.7,-2.9 -8.9,-6.5 L 77.9,990 77.953,529 c 0.029,-254 0.072,-465 0.096,-469 0.042,-7.1 0.16,-7.4 4,-12 l 3.9,-4.2 320,-0.26 c 237,-0.19 321,0.035 323,0.87 1.5,0.62 4.1,2.7 5.7,4.5 l 3,3.4 -0.002,469 c -0.002,460 -0.037,469 -1.9,472 -1.1,1.7 -3.4,4 -5.2,5.1 -3.5,2.1 -634,3.6 -641,1.5 z m 44,-8.3 c 0,-4.6 -0.35,-5.9 -1.8,-6.4 -5.7,-1.9 -13,-6 -18,-9.5 l -5.4,-4 -11,11 c -15,15 -16,14 16,14 h 21 z m 219,0.45 0.3,-5.2 -4.3,-0.017 c -2.4,-0.01 -51,-0.012 -108,-0.01 l -104,0.012 -0.32,3.1 c -0.18,1.7 -0.085,4.1 0.21,5.3 l 0.53,2.1 215,-0.15 z m 36,1.1 c 6,-20 35,-20 40,1 0.47,1.9 1.3,2.8 2.9,2.8 3.9,0.12 13,0.13 21,0.03 l 7.7,-0.096 0.69,-10 h -19 l -33,-16 -30,15 h -22 l -0.31,4.4 c -0.51,7 -1,6.8 16,6.6 l 15,-0.2 z m 290,-0.96 -10e-6,-5.2 -42,-0.27 c -23,-0.15 -71,-0.15 -108,-6e-4 l -66,0.27 v 4.9 c 0,6.2 -13,5.5 110,5.5 h 105 z m 50,4.1 c 1.6,-0.92 0.38,-2.5 -10,-13 l -12,-12 -2.5,2.3 c -4.5,4.1 -12,8.6 -18,10 l -5.3,1.7 v 5.2 c 0,4.7 0.24,5.3 2.2,5.6 5.8,0.83 43,0.18 45,-0.77 z m -304,-1.7 c -5,-16 -25,-18 -33,-3.7 -3.1,6 -3.2,5.9 16,5.9 h 18 z m 309,-3 c 1.7,-4.3 0.77,-47 -0.97,-47 -0.99,-0.021 -3.4,-0.28 -5.5,-0.57 -3.5,-0.51 -3.7,-0.38 -4.9,3.3 -2,6 -5.9,13 -9.6,18 l -3.4,4.1 11,11 c 12,12 12,12 13,11 z m -648,-1.5 c 1,-0.96 6.2,-6 11,-11 l 9.6,-9.3 -3.9,-5.2 c -4.2,-5.6 -8.4,-14 -9.4,-18 -0.6,-2.5 -1,-2.7 -6.1,-2.7 h -5.5 l -0.029,10 c -0.016,5.6 -0.092,15 -0.17,22 -0.18,15 0.55,18 4,14 z m 307,-15 c 8.3,-4.1 15,-7.5 16,-7.5 1,0 7.3,3.4 16,7.5 l 15,7.5 h 245 l 8.3,-4.2 c 11,-5.4 19,-14 25,-25 l 3.8,-7.7 0.51,-804 h -23 l -1.2,6.7 c -11,65 -111,63 -121,-2.2 l -0.68,-4.5 h -480 l -0.016,74 c -0.0088,41 -0.015,221 -0.014,400 l 0.0023,327 2.1,5.6 c 4.9,13 14,23 27,30 l 7.9,4 h 245 z m -301,-41 c 0.0089,-3.4 0.022,-192 0.03,-419 l 0.014,-412 -11,-0.58 0.2,417 c 0.11,230 0.22,418 0.25,419 0.037,1.4 0.97,1.8 5,1.8 h 5 z m 643,-413 0.027,-419 h -11 v 838 h 11 z m -84,-328 c 31,-6 52,-43 42,-74 -19,-61 -110,-49 -113,14 -2.1,39 31,67 71,60 z m -57,-83.3 c 28,-43 94,-24 94,28 0,34 -30.8498,54.43084 -57.92096,49.64032 C 599.52799,184.64147 571.37318,150.5744 593,109.89 Z m 65,70.7 c 38,-19 35,-74 -5.4,-88 -15,-5 -24,-4.2 -40,3.8 -8.2,4 -20,19 -21,27 -0.31,1.7 -0.84,3.6 -1.2,4.2 -2.1,3.5 -0.76,20 2.2,27 0.73,1.6 2.1,4.6 2.9,6.6 9.2,20 41,30 63,19 z m -563,-87 c 2,-5.8 6.1,-13 9.9,-17 l 2.6,-2.8 -11,-11 c -14,-13 -14,-13 -14,-0.13 -0.0087,5.4 -0.065,15 -0.12,21 -0.16,17 -0.75,15 5.7,15 l 5.6,-0.3 z m 640,-18 c -0.38,-28 0.58,-27 -13,-13 l -12,12 2.6,2.8 c 3.3,3.6 8,12 9.6,17 1.8,5.7 1.6,5.5 7.6,5.5 h 5.5 z m -310,-11 15,-7.5 h 20 l 0.35,-5.1 c 0.44,-6.5 1.9,-5.9 -15,-5.9 h -15 l -1.5,3.8 c -3.9,9.9 -9.1,14 -18,15 -11,0.89 -20,-5.7 -23,-17 -0.38,-1.3 -2.8,-1.5 -16,-1.5 l -15,0.05 v 10 l 23,1 14,7.2 c 17,8.7 13,8.8 31,-0.2 z m -310,2.5 c 2.9,-2.2 8.3,-5.2 12,-6.7 l 6.8,-2.7 v -5.3 c 0,-6.8 0.7,-6.6 -25,-6.2 -26,0.43 -26,0.015 -12,13 5.8,5.6 11,11 11,11 0.63,1.4 2.1,0.75 7.4,-3.3 z m 614,-19 c -0.65,-0.65 -9.4,-1 -24,-1 h -23 v 11 l 5,1.7 c 5.5,1.9 12,5.7 17,9.6 l 3,2.5 11,-11 c 7.7,-7.7 11,-11 10,-12 z m -314,13 c 5.1,-2.6 11,-9.3 11,-13 0,-0.3 -7.9,-0.54 -18,-0.54 -19,0 -19,0.02 -16,4.8 4.3,8.3 15,12 23,8.6 z m -62.4,-3.42 -0.24,-10 h -215 l -0.1,3.5 c -0.22,7.7 -5.5,7 55,7.3 30,0.14 74,0.16 98,0.029 24,-0.131 48,-0.24 53,-0.25 z m 281.4,0.02033 45,-0.021 v -11 l -106,0.037 c -122,0.043 -109,-0.62 -109,5.9 l 0.35,5 c 57,0.7 113,0.09 170,0.042 z m -4.58751,101.07388 c 6.24771,-4.38015 5.35902,-8.73936 -1.78165,-8.73936 -2.50209,0 -6.75289,-2.00556 -9.44621,-4.45681 -4.08029,-3.71355 -4.62985,-6.58038 -3.29531,-17.19054 0.88089,-7.00356 1.33829,-13.30675 1.01644,-14.00711 -0.32185,-0.70036 1.62704,-3.55189 4.33088,-6.33675 3.46945,-3.57342 4.4627,-3.88084 3.37539,-1.04472 -0.84736,2.21027 0.22889,5.48865 2.39168,7.28528 5.81827,4.83324 4.7972,10.67497 -2.94607,16.855 -6.46396,5.15899 -6.61874,5.74971 -2.56873,9.8035 4.05,4.05378 4.69444,3.89816 10.69498,-2.58257 3.51191,-3.79295 6.38529,-7.87496 6.38529,-9.07114 0,-5.13252 4.69407,-1.57613 6.37338,4.82869 1.83084,6.98276 1.84415,6.98654 4.4812,1.27337 3.76359,-8.15378 14.58914,-7.91273 14.58914,0.32486 0,3.33026 -1.70485,7.47124 -3.78854,9.20217 -2.0837,1.73094 -3.20999,4.08415 -2.50287,5.22936 0.70712,1.14521 0.20114,2.75311 -1.12439,3.5731 -1.32554,0.81999 -3.12924,0.32616 -4.00822,-1.0974 -2.3004,-3.7256 -6.38658,-3.18646 -6.38658,0.84265 0,1.88702 2.57617,4.67455 5.72483,6.19451 4.77418,2.30464 2.99011,2.79218 -10.74362,2.93592 -15.66264,0.16393 -16.18968,-0.0231 -10.77102,-3.82201 z m 29.36939,-24.18001 c -1.95807,-1.9599 -3.11069,-0.80621 -4.03624,4.04001 -1.1829,6.1937 -0.94467,6.43215 2.74074,2.7433 2.88362,-2.88632 3.25358,-4.82341 1.2955,-6.78331 z m -33.93456,-15.43215 c 0,-4.43371 -4.52664,-2.1147 -5.864,3.00413 -1.12312,4.29883 -0.71976,4.69991 2.24762,2.23491 1.98901,-1.65227 3.61638,-4.00984 3.61638,-5.23904 z m -465.20374,446.73633 -40.28107,-1.28691 -5.16981,-6.97671 c -5.04841,-6.81288 -5.19478,-10.76486 -6.23347,-168.30806 l -1.06367,-161.33137 5.43177,-5.73777 5.43176,-5.73778 H 407.8316 c 333.08525,0 298.64495,-2.96307 301.17309,25.91143 0.77846,8.89108 2.11849,82.96425 2.97784,164.60706 l 1.56245,148.44148 -6.51575,6.55657 -6.51575,6.55657 -250.29441,-0.7038 C 312.55714,567.492 181.79817,566.59618 159.64358,565.88838 Z m 497.14667,-2.07718 c 56.437,-0.62624 53.78509,1.36031 53.78509,-41.15915 0,-16.44988 -0.74078,-52.18384 -1.64618,-79.40881 l -1.24182,-110.06537 c -0.78744,-85.07876 -2.37955,-106.10616 -8.36692,-110.50435 -3.89161,-2.8587 -16.57265,-3.61362 -60.70126,-3.61362 h -55.78197 c -178.0638,1.15815 -140.29907,0.61991 -258.68161,0.26104 l -86.11155,-0.26104 h -2.73515 l -56.97293,0.0391 c -31.33512,0.0215 -58.22773,0.88215 -59.76136,1.91259 -8.49096,5.70509 -9.0605,12.93293 -7.19893,91.35876 l 1.64872,160.65484 0.73589,80.55693 5.98281,4.87217 c 12.62935,10.28486 213.81806,8.94353 537.04717,5.35691 z m -345.61363,0.79027 c 0,0 -118.51096,-0.0768 0,0 z M 165.76027,117.68381 c 4.07516,-3.14959 4.13149,-13.67864 0.0866,-16.17568 -1.70412,-1.05199 -7.03069,-2.55115 -11.83684,-3.33146 -4.80614,-0.78032 -8.61687,-2.564018 -8.46829,-3.963775 0.4634,-4.365493 10.86077,-4.428348 15.65498,-0.09464 4.22438,3.818605 4.69777,3.801845 6.24328,-0.22106 2.23786,-5.825061 -0.8863,-8.473509 -12.14901,-10.29909 -7.00585,-1.135586 -10.67276,-0.365181 -14.43078,3.031858 -9.9308,8.976908 -5.47629,17.309247 10.88642,20.363487 5.25513,0.98092 9.55479,2.67876 9.55479,3.77297 0,4.20849 -8.57599,4.9874 -15.71973,1.42773 -6.58529,-3.28139 -7.64488,-3.27263 -8.93054,0.0739 -1.90006,4.94579 -0.29422,6.33349 9.87029,8.52954 8.74688,1.88977 13.82929,1.0672 19.23888,-3.11375 z m 38.85617,2.12554 c 0,-2.49961 -3.45576,-3.92093 -10.82877,-4.45377 -5.95582,-0.43042 -10.47986,-1.92784 -10.05342,-3.3276 0.42644,-1.39976 3.57952,-2.3294 7.00685,-2.06588 3.94395,0.30325 6.2315,-0.86458 6.2315,-3.18126 0,-2.18415 -2.50833,-3.6604 -6.21949,-3.6604 -3.42072,0 -6.92811,-1.14526 -7.79421,-2.54501 -0.96185,-1.55453 2.94615,-2.54502 10.04141,-2.54502 8.62682,0 11.61613,-0.9824 11.61613,-3.817515 0,-2.95864 -3.35608,-3.817518 -14.917,-3.817518 h -14.91699 l 0.26631,14.633823 0.26631,14.63382 12.73972,1.49393 c 7.00685,0.82166 13.59966,1.6806 14.65069,1.90876 1.05103,0.22815 1.91096,-1.23721 1.91096,-3.25636 z m 12.74816,-6.71117 1.28241,-8.70524 3.48561,8.27129 c 1.91709,4.54921 4.28507,8.27129 5.26218,8.27129 0.97711,0 3.63111,-3.72208 5.89779,-8.27129 l 4.12123,-8.27129 0.16295,9.5438 c 0.11464,6.71436 1.29603,9.5438 3.98487,9.5438 3.00527,0 3.82192,-3.53474 3.82192,-16.54258 0,-14.230194 -0.64077,-16.542583 -4.58404,-16.542583 -2.97166,0 -5.78083,3.305863 -7.98657,9.398713 l -3.40253,9.39871 -4.75316,-5.86314 c -2.61424,-3.22472 -4.75315,-7.454147 -4.75315,-9.398711 0,-1.944565 -2.29315,-3.535572 -5.09589,-3.535572 -4.57985,0 -5.09589,1.696675 -5.09589,16.754663 0,12.2674 0.85299,16.47328 3.18493,15.70402 1.75171,-0.57785 3.76201,-4.968 4.46734,-9.75588 z m 61.30975,7.7478 c 3.85661,-2.06162 4.92839,-5.38241 4.92839,-15.27007 0,-9.31106 -0.96702,-12.635521 -3.67542,-12.635521 -2.50249,0 -3.92545,3.451781 -4.4589,10.816301 -0.6977,9.63203 -1.48093,10.8163 -7.15335,10.8163 -5.79151,0 -6.44038,-1.0976 -7.14646,-12.08881 -0.54523,-8.487407 -1.87359,-12.088803 -4.4589,-12.088803 -5.808,0 -5.11922,26.906253 0.77659,30.336293 5.80281,3.37594 14.99387,3.42552 21.18805,0.11431 z m 27.8599,-10.09051 c 0,-11.02838 0.67945,-12.72506 5.09589,-12.72506 2.80274,0 5.09268,-1.43157 5.08876,-3.181262 -0.005,-2.190609 -4.7659,-3.181265 -15.28885,-3.181265 -12.35487,0 -15.2815,0.785421 -15.28055,4.10085 8.9e-4,3.060137 1.70892,3.774767 6.73036,2.815967 6.68944,-1.27729 6.72174,-1.20757 5.46991,11.80548 -1.10633,11.50053 -0.6858,13.09036 3.46261,13.09036 3.96761,0 4.72187,-2.03266 4.72187,-12.72507 z m 17.83561,8.90755 c 0,-2.54502 2.54795,-3.81752 7.64384,-3.81752 5.09589,0 7.64383,1.2725 7.64383,3.81752 0,2.17174 2.28844,3.81752 5.30822,3.81752 2.91952,0 4.86527,-0.85895 4.32388,-1.90876 -0.54138,-1.04982 -3.79001,-7.84311 -7.21917,-15.09619 -3.42917,-7.25308 -8.24135,-13.731086 -10.69375,-14.395557 -2.45239,-0.664471 -4.4589,-0.164478 -4.4589,1.111097 0,1.275575 -2.86644,8.25423 -6.36986,15.50812 -7.63846,15.81553 -7.54932,14.78129 -1.27398,14.78129 2.83105,0 5.09589,-1.69668 5.09589,-3.81752 z m 5.09589,-12.87526 c 0,-2.18225 1.14658,-3.25991 2.54795,-2.39482 1.40137,0.8651 2.54794,2.65057 2.54794,3.96772 0,1.31715 -1.14657,2.39481 -2.54794,2.39481 -1.40137,0 -2.54795,-1.78547 -2.54795,-3.96771 z m 70.77554,12.73094 c 4.38837,-3.07019 5.66282,-6.47434 5.66282,-15.12576 0,-14.357477 -6.13887,-19.087587 -24.77241,-19.087587 h -13.44677 v 19.087587 19.0876 h 13.44677 c 8.0466,0 15.72092,-1.59106 19.10959,-3.96184 z m -22.36458,-15.12576 c 0,-10.846595 0.37748,-11.452551 7.13425,-11.452551 8.48746,0 13.24931,4.116091 13.24931,11.452551 0,7.33647 -4.76185,11.45256 -13.24931,11.45256 -6.75677,0 -7.13425,-0.60596 -7.13425,-11.45256 z m 43.31507,12.51298 c 0,-7.80583 5.16307,-7.21719 8.88501,1.01298 1.53684,3.39833 4.81402,5.56164 8.4253,5.56164 5.57518,0 5.68827,-0.31643 1.99531,-5.58279 -3.54686,-5.05803 -3.51064,-6.02891 0.3854,-10.32902 7.09109,-7.82654 1.40781,-13.219606 -14.85887,-14.100109 l -13.74996,-0.744275 v 15.378094 c 0,12.94913 0.70429,15.3781 4.45891,15.3781 3.09589,0 4.4589,-2.00976 4.4589,-6.57462 z m 0,-15.05799 c 0,-3.99277 4.42847,-4.8902 11.24273,-2.27833 5.65222,2.16646 2.41424,6.09585 -5.02324,6.09585 -3.8298,0 -6.21949,-1.46679 -6.21949,-3.81752 z m 54.33914,19.72385 c 0,-1.22085 1.94501,-7.92135 2.93741,-15.27008 1.62029,-11.998127 1.3182,-13.361311 -2.96095,-13.361311 -4.00526,0 -4.61368,1.588414 -3.81452,9.958741 0.77348,8.10134 -0.0554,10.49663 -4.44423,12.84275 -7.79506,4.16699 -10.38562,1.29868 -10.38562,-11.49913 0,-9.066876 -0.88192,-11.302674 -4.4589,-11.303943 -3.79688,-0.0013 -4.32291,1.982442 -3.54295,13.361313 0.50378,7.34959 2.22364,14.2043 3.82192,15.23268 3.81921,2.45741 22.84784,2.88626 22.84784,0.039 z m 38.45247,0.36396 c 2.38998,-0.91606 4.03031,-4.54143 4.03031,-8.90754 0,-6.7179 -0.78105,-7.36275 -8.91781,-7.36275 -6.39871,0 -8.91781,1.12681 -8.91781,3.98902 0,2.90512 1.46658,3.52408 5.39735,2.27794 3.90281,-1.23728 5.07869,-0.75623 4.24657,1.73726 -1.64984,4.94382 -12.40016,4.25638 -15.72306,-1.00544 -5.5766,-8.83057 3.23383,-15.22909 16.27092,-11.81667 2.14376,0.56112 3.82192,-0.67586 3.82192,-2.81715 0,-5.017947 -18.76109,-6.553401 -24.70301,-2.02175 -7.26841,5.54331 -8.34931,16.0902 -2.27121,22.1613 5.26049,5.25445 18.15051,7.06799 26.76583,3.76578 z M 387.11706,554.14912 c 3.59827,-2.98286 3.07928,-4.14532 -4.71627,-10.56368 -10.55636,-8.69142 -14.31417,-18.36576 -11.39104,-29.32576 2.49121,-9.34054 14.76203,-20.59999 24.60443,-22.57652 3.74576,-0.75222 10.82349,-3.32871 15.72829,-5.72554 10.81571,-5.28532 12.64351,-13.16679 5.23517,-22.57413 -4.79023,-6.08278 -4.93057,-7.16926 -1.42575,-11.03759 3.0656,-3.38355 7.84626,-4.18612 22.61226,-3.79611 10.29862,0.27201 20.03256,1.3019 21.63099,2.28864 4.1819,2.58159 3.57918,10.87122 -0.91569,12.59408 -5.26249,2.01708 -4.84276,15.20948 0.63699,20.02106 2.4524,2.15337 10.97648,5.77678 18.94242,8.05204 19.78027,5.6497 30.57548,19.94153 26.63944,35.26811 -1.59475,6.20986 -12.06527,18.47637 -17.41875,20.40657 -2.68884,0.96946 -2.71055,2.22898 -0.11412,6.6198 M 191.9646,550.00317 c -11.26745,-13.57827 9.17239,-58.68131 9.17239,-12.34786 0,15.55006 -3.0774,19.69285 -9.17239,12.34786 z m 42.61997,0.23832 c -2.80722,-7.30708 -1.71665,-22.96946 1.94793,-27.9753 3.05623,-4.17483 4.12825,-4.36163 7.75883,-1.35198 3.19469,2.6483 4.03092,6.92996 3.46065,17.71902 -0.64886,12.27596 -1.49365,14.33257 -6.16056,14.99768 -3.19009,0.45464 -6.06416,-0.93563 -7.00685,-3.38942 z m 258.87715,0.86559 c 0.69524,-2.08329 9.85782,-3.07402 29.42135,-3.18126 23.63882,-0.12958 29.16898,-0.91195 32.91974,-4.65727 9.27036,-9.2569 -7.82299,-18.97122 -34.26171,-19.47128 -6.28091,-0.11879 -10.82877,-1.42212 -10.82877,-3.1033 0,-3.34074 23.48582,-1.63721 38.56314,2.79716 11.65826,3.42879 18.18867,15.7659 11.74977,22.19739 -5.3195,5.31338 -21.71514,8.19948 -47.34031,8.33325 -15.31053,0.0799 -20.95125,-0.73306 -20.22321,-2.91469 z m -281.15108,-5.50604 c -8.97191,-19.66849 14.85732,-42.62756 12.50689,-6.7614 -0.88782,13.54737 -7.72529,17.2438 -12.50689,6.7614 z m 151.92772,0.39494 c -5.58739,-1.21804 -13.61342,-5.48841 -17.83561,-9.48971 -10.07735,-9.55012 -27.25645,-18.00384 -36.58624,-18.00384 -4.49041,0 -13.70154,4.16648 -23.16305,10.47736 -17.45572,11.64307 -33.2836,16.82044 -33.2836,10.88723 0,-2.15807 2.74675,-3.57771 7.00685,-3.62145 3.85377,-0.0396 13.85574,-4.61668 22.2266,-10.17136 8.37086,-5.55468 18.79412,-10.7692 23.16279,-11.58782 12.18603,-2.28348 27.82955,3.15281 40.43774,14.05256 6.2811,5.43 14.89438,10.63491 19.1406,11.56647 6.88897,1.51133 12.33724,5.57522 9.94495,7.41799 -0.49067,0.37796 -5.46363,-0.30938 -11.05103,-1.52743 z m -26.78631,-47.90971 c -37.59168,-5.67758 -54.77756,-10.77697 -81.53424,-24.1928 -22.43829,-11.25059 -26.96565,-15.14458 -39.62112,-34.07824 -14.40715,-21.55433 -8.40039,-53.29964 14.2689,-75.41013 9.95134,-9.70604 35.47295,-18.96349 52.27991,-18.96349 15.44091,0 47.08997,9.853 57.10926,17.77929 6.58743,5.21133 11.25993,7.15248 14.44581,6.00137 3.24265,-1.17162 2.48624,0.40841 -2.42911,5.07403 -7.37518,7.00049 -10.98846,8.81863 -8.03297,4.04206 0.93021,-1.50337 -0.94258,-5.53381 -4.16175,-8.95652 -14.01785,-14.90413 -68.13644,-21.82369 -88.70615,-11.34189 -20.00902,10.19609 -38.40769,36.78071 -38.45364,55.56247 -0.0342,13.98699 13.0338,34.12726 30.29291,46.68706 20.90054,15.20973 75.53021,32.76283 101.96621,32.76283 16.47161,0 28.65007,2.61035 27.55051,5.90522 -1.33023,3.9861 -3.10655,3.94185 -34.97453,-0.87126 z m 10.19179,-125.92204 c 0,-0.69987 -0.57329,-1.2725 -1.27398,-1.2725 -0.70068,0 -1.27397,0.57263 -1.27397,1.2725 0,0.69988 0.57329,1.27251 1.27397,1.27251 0.70069,0 1.27398,-0.57263 1.27398,-1.27251 z m 28.02739,119.6673 c 0,-0.67143 4.87295,-3.69981 10.82877,-6.72974 5.95582,-3.02992 14.36953,-8.20137 18.69712,-11.4921 4.3276,-3.29073 8.62046,-5.23191 9.5397,-4.31373 0.91924,0.91818 -0.45792,2.9169 -3.06035,4.44159 -2.60242,1.5247 -10.9083,6.48352 -18.4575,11.01959 -13.20507,7.93451 -17.54774,9.68526 -17.54774,7.07439 z m 83.99099,-21.26605 c 1.67861,-3.26933 3.75081,-5.24626 4.60488,-4.39317 0.85407,0.85309 -0.51933,3.528 -3.05202,5.94425 -4.40222,4.19983 -4.47056,4.13157 -1.55286,-1.55108 z m 7.73504,-14.41584 c 0,-2.09964 1.11059,-3.81752 2.46798,-3.81752 1.35739,0 1.808,1.71788 1.00137,3.81752 -0.80663,2.09963 -1.91722,3.81751 -2.46798,3.81751 -0.55075,0 -1.00137,-1.71788 -1.00137,-3.81751 z m -70.48497,-3.8206 c -16.31577,-2.3887 -18.69311,-5.62097 -18.69311,-25.41545 0,-13.61507 -1.11278,-18.57329 -5.38637,-24.00002 -6.42286,-8.15595 -4.43597,-11.87487 2.83355,-5.30362 6.59068,5.95762 10.86057,21.87655 8.80438,32.82437 -1.3332,7.0984 -0.59944,9.27326 4.28048,12.68736 3.23922,2.26623 8.43315,4.12041 11.54205,4.12041 3.10891,0 6.40833,1.22145 7.33205,2.71434 2.38689,3.85762 1.21022,4.11822 -10.71303,2.37261 z m 67.93703,-4.63606 c 0,-3.65931 22.40933,-21.16885 23.93562,-18.7021 1.18838,1.92062 -2.93165,5.69267 -19.39758,17.75927 -2.49593,1.82907 -4.53804,2.25334 -4.53804,0.94283 z m -34.85696,-5.25057 c -0.69112,-2.63982 -3.64057,-5.86221 -6.55433,-7.16087 -5.08624,-2.26693 -4.97569,-2.59025 2.7691,-8.09868 4.43676,-3.15562 8.06684,-7.37739 8.06684,-9.38171 0,-2.00432 1.71987,-3.64422 3.82192,-3.64422 2.10206,0 3.81158,1.43157 3.79895,3.18127 -0.0126,1.7497 3.71374,6.29991 8.28082,10.11159 6.30791,5.26456 7.2169,6.94677 3.78182,6.99878 -2.48708,0.0376 -5.61178,2.9316 -6.94378,6.43099 -3.02421,7.94511 -15.06107,9.0503 -17.02134,1.56285 z m 61.77316,-15.38075 c -2.64152,-2.91549 -4.01812,-6.08465 -3.0591,-7.04256 2.41774,-2.41496 10.0856,5.67997 8.85977,9.35322 -0.63144,1.89215 -2.76159,1.04362 -5.80067,-2.31066 z m 6.0704,-6.64869 c 0.48418,-2.33478 2.99917,-4.18456 4.40054,-4.11062 3.78189,0.19953 3.61743,6.512 -0.34999,7.83295 -2.14313,0.71355 -4.60087,-1.0686 -4.05055,-3.72233 z m -63.56195,-11.34606 c 0,-1.39976 1.71987,-2.54501 3.82192,-2.54501 2.10206,0 3.82192,1.14525 3.82192,2.54501 0,1.39976 -1.71986,2.54501 -3.82192,2.54501 -2.10205,0 -3.82192,-1.14525 -3.82192,-2.54501 z m -7.00685,-13.7908 C 417.22186,385.09823 417.04975,382.90537 425.79669,376.541 l 6.81039,-4.95531 -6.81039,-4.4572 c -8.64864,-5.66028 -8.59974,-9.73306 0.19646,-16.36564 L 433,345.47949 l -8.30379,-7.01772 c -9.97418,-8.42941 -10.3012,-12.24391 -1.80876,-21.0979 8.449,-8.8087 6.21129,-15.18747 -5.32783,-15.18747 -9.55901,0 -21.50483,-4.63304 -21.50483,-8.34038 0,-1.33833 2.5798,-1.69956 5.73288,-0.80272 16.31482,4.64042 19.25087,4.54821 24.57706,-0.77184 5.50765,-5.50131 20.64897,-7.51571 20.64897,-2.74713 0,5.05244 12.97809,7.88821 22.19526,4.84977 4.79683,-1.58127 9.50282,-2.09464 10.45775,-1.14081 3.2073,3.2036 -8.05676,8.95311 -17.54035,8.95311 -5.27489,0 -10.79486,1.68743 -12.59083,3.84895 -2.65086,3.19041 -2.05031,4.9114 3.50993,10.05853 8.43122,7.80479 8.55385,15.30725 0.3381,20.68421 -7.68077,5.02684 -8.19726,11.39923 -1.27397,15.71792 2.80274,1.74833 5.09589,4.84666 5.09589,6.88519 0,2.03852 -2.29315,4.93225 -5.09589,6.4305 -2.80274,1.49826 -5.09589,4.1262 -5.09589,5.83988 0,1.71368 2.29315,4.54623 5.09589,6.29456 2.80274,1.74832 5.09589,4.48494 5.09589,6.08137 0,3.33125 -16.55171,20.038 -19.62028,19.80406 -1.12049,-0.0854 -5.76362,-3.93088 -10.31808,-8.54546 z m -69.4315,1.90382 c 0,-3.49858 11.12849,-13.56314 14.9969,-13.56314 2.44176,0 2.3839,0.75584 -0.24353,3.18126 -10.18978,9.40632 -14.75337,12.6177 -14.75337,10.38188 z m -4.90764,-14.60907 c -2.13166,-2.56554 -2.18888,-4.08157 -0.20037,-5.30913 2.95572,-1.82463 10.2039,2.91094 10.2039,6.66668 0,3.51701 -6.70993,2.60642 -10.00353,-1.35755 z m 81.98298,-99.96389 c 2.4524,-0.64014 6.46541,-0.64014 8.91781,0 2.45239,0.64014 0.44589,1.16389 -4.45891,1.16389 -4.90479,0 -6.9113,-0.52375 -4.4589,-1.16389 z m -4.3168,-5.65103 c 1.4975,0 -0.76695,-4.04802 0.0466,-6.16575 0.81359,-2.11772 -0.83205,-6.15904 -3.65697,-8.98071 l -5.13621,-5.1303 5.37662,-0.79275 c 8.64818,-1.27512 8.40266,-7.01227 -0.37513,-8.7658 -9.17633,-1.83316 -10.39993,-7.29674 -2.12992,-9.51046 9.02391,-2.41553 24.69782,-1.8605 30.17722,1.06862 5.75113,3.07436 4.20099,7.50734 -2.6252,7.50734 -2.54845,0 -5.9753,1.61487 -7.61523,3.58859 -2.43439,2.92987 -1.43934,3.93011 5.42089,5.44916 8.06531,1.78589 8.17248,1.96393 2.66972,4.43536 -4.28996,1.92674 -5.73288,4.71886 -5.73288,11.09342 0,7.73048 -0.6933,8.51863 -7.49346,8.51863 -4.12141,0 -10.42358,-2.31535 -8.92608,-2.31535 z"
     id="path1"
     sodipodi:nodetypes="cccccccccccsccccccccsscccccccccccccccccccccccccccccccssccccccccscccccsccccccccscccccscsccccccsccccccccccccccccccccccccccscccccccccccccsccccccsccccccccccccccccccsccccccsccccccccccccccsccccccscccccscccssccccccscsccccccccccsssssssssssssssssssssssssssssssscsscccssscccssssccsscsccsscccsssscssssssssssssccsssssssssscccsssscssscssssscssssssssssssssssscssssssssssssssssssssssssscccssssssssssssscsssssssssssssssssssssssssssssscssssssssssssscsssssssssssssssssssssssssssssssssssssssssssssssssssssssssssssssssssssssssssssssssssssssssssssssssssssssssssscsscsssssssssssssssssssssssssssssssssssscssssssssssss"
     inkscape:label="path1"
     style="display:inline" /><text
     transform="translate(-23.585787,-55.769552)"
     x="144.12617"
     y="663.52429"
     fill="#000000"
     font-size="29px"
     style="font-size:30.6667px;line-height:1.1;white-space:pre;inline-size:584.851;display:inline"
     xml:space="preserve"
     id="text9"><tspan
       x="144.12617"
       y="663.52429"
       id="tspan1">Take a Treachery Card immediately </tspan><tspan
       x="144.12617"
       y="697.25769"
       id="tspan2">after another player discards it, and </tspan><tspan
       x="144.12617"
       y="730.99109"
       id="tspan3">add it to your hand. If multiple cards </tspan><tspan
       x="144.12617"
       y="764.72448"
       id="tspan4">are discarded at the same time, you </tspan><tspan
       x="144.12617"
       y="798.45788"
       id="tspan5">choose which card to take. Discard </tspan><tspan
       x="144.12617"
       y="832.19128"
       id="tspan7">after use.</tspan></text><text
     transform="translate(117.05112,192.71261)"
     fill="#000000"
     font-size="43px"
     style="font-size:40px;white-space:pre;shape-inside:url(#rect2);display:inline"
     xml:space="preserve"
     id="text10"><tspan
       x="0"
       y="0"
       id="tspan8">Special</tspan></text></svg>
