<?xml version="1.0" encoding="UTF-8"?>
<!-- Created with Inkscape (http://www.inkscape.org/) -->
<svg width="822" height="1122" version="1.1" viewBox="0 0 822 1122" xml:space="preserve" xmlns="http://www.w3.org/2000/svg"><path d="m89 1e3c-4.5-1.3-6.7-2.9-8.9-6.5l-2.2-3.5 0.053-461c0.029-254 0.072-465 0.096-469 0.042-7.1 0.16-7.4 4-12l3.9-4.2 320-0.26c237-0.19 321 0.035 323 0.87 1.5 0.62 4.1 2.7 5.7 4.5l3 3.4-2e-3 469c-2e-3 460-0.037 469-1.9 472-1.1 1.7-3.4 4-5.2 5.1-3.5 2.1-634 3.6-641 1.5zm44-8.3c0-4.6-0.35-5.9-1.8-6.4-5.7-1.9-13-6-18-9.5l-5.4-4-11 11c-15 15-16 14 16 14h21zm219 0.45 0.3-5.2-4.3-0.017c-2.4-0.01-51-0.012-108-0.01l-104 0.012-0.32 3.1c-0.18 1.7-0.085 4.1 0.21 5.3l0.53 2.1 215-0.15zm36 1.1c6-20 35-20 40 1 0.47 1.9 1.3 2.8 2.9 2.8 3.9 0.12 13 0.13 21 0.03l7.7-0.096 0.69-10h-19l-33-16-30 15h-22l-0.31 4.4c-0.51 7-1 6.8 16 6.6l15-0.2zm290-0.96-1e-5 -5.2-42-0.27c-23-0.15-71-0.15-108-6e-4l-66 0.27v4.9c0 6.2-13 5.5 110 5.5h105zm50 4.1c1.6-0.92 0.38-2.5-10-13l-12-12-2.5 2.3c-4.5 4.1-12 8.6-18 10l-5.3 1.7v5.2c0 4.7 0.24 5.3 2.2 5.6 5.8 0.83 43 0.18 45-0.77zm-304-1.7c-5-16-25-18-33-3.7-3.1 6-3.2 5.9 16 5.9h18zm309-3c1.7-4.3 0.77-47-0.97-47-0.99-0.021-3.4-0.28-5.5-0.57-3.5-0.51-3.7-0.38-4.9 3.3-2 6-5.9 13-9.6 18l-3.4 4.1 11 11c12 12 12 12 13 11zm-648-1.5c1-0.96 6.2-6 11-11l9.6-9.3-3.9-5.2c-4.2-5.6-8.4-14-9.4-18-0.6-2.5-1-2.7-6.1-2.7h-5.5l-0.029 10c-0.016 5.6-0.092 15-0.17 22-0.18 15 0.55 18 4 14zm307-15c8.3-4.1 15-7.5 16-7.5s7.3 3.4 16 7.5l15 7.5h245l8.3-4.2c11-5.4 19-14 25-25l3.8-7.7 0.51-804h-23l-1.2 6.7c-11 65-111 63-121-2.2l-0.68-4.5h-480l-0.016 74c-0.0088 41-0.015 221-0.014 400l0.0023 327 2.1 5.6c4.9 13 14 23 27 30l7.9 4h245zm-301-41c0.0089-3.4 0.022-192 0.03-419l0.014-412-11-0.58 0.2 417c0.11 230 0.22 418 0.25 419 0.037 1.4 0.97 1.8 5 1.8h5zm643-413 0.027-419h-11v838h11zm-84-328c31-6 52-43 42-74-19-61-110-49-113 14-2.1 39 31 67 71 60zm-57-83c28-43 94-24 94 28 0 34-31 54-58 50-30-2.9-58-37-36-78zm65 71c38-19 35-74-5.4-88-15-5-24-4.2-40 3.8-8.2 4-20 19-21 27-0.31 1.7-0.84 3.6-1.2 4.2-2.1 3.5-0.76 20 2.2 27 0.73 1.6 2.1 4.6 2.9 6.6 9.2 20 41 30 63 19zm-563-87c2-5.8 6.1-13 9.9-17l2.6-2.8-11-11c-14-13-14-13-14-0.13-0.0087 5.4-0.065 15-0.12 21-0.16 17-0.75 15 5.7 15l5.6-0.3zm640-18c-0.38-28 0.58-27-13-13l-12 12 2.6 2.8c3.3 3.6 8 12 9.6 17 1.8 5.7 1.6 5.5 7.6 5.5h5.5zm-310-11 15-7.5h20l0.35-5.1c0.44-6.5 1.9-5.9-15-5.9h-15l-1.5 3.8c-3.9 9.9-9.1 14-18 15-11 0.89-20-5.7-23-17-0.38-1.3-2.8-1.5-16-1.5l-15 0.05v10l23 1 14 7.2c17 8.7 13 8.8 31-0.2zm-310 2.5c2.9-2.2 8.3-5.2 12-6.7l6.8-2.7v-5.3c0-6.8 0.7-6.6-25-6.2-26 0.43-26 0.015-12 13 5.8 5.6 11 11 11 11 0.63 1.4 2.1 0.75 7.4-3.3zm614-19c-0.65-0.65-9.4-1-24-1h-23v11l5 1.7c5.5 1.9 12 5.7 17 9.6l3 2.5 11-11c7.7-7.7 11-11 10-12zm-314 13c5.1-2.6 11-9.3 11-13 0-0.3-7.9-0.54-18-0.54-19 0-19 0.02-16 4.8 4.3 8.3 15 12 23 8.6zm-62-3.4-0.24-10h-215l-0.1 3.5c-0.22 7.7-5.5 7 55 7.3 30 0.14 74 0.16 98 0.029s48-0.24 53-0.25zm281 0.02 45-0.021v-11l-106 0.037c-122 0.043-109-0.62-109 5.9l0.35 5c57 0.7 113 0.09 170 0.042zm-4.6 101c6.2-4.4 5.4-8.7-1.8-8.7-2.5 0-6.8-2-9.4-4.5-4.1-3.7-4.6-6.6-3.3-17 0.88-7 1.3-13 1-14s1.6-3.6 4.3-6.3c3.5-3.6 4.5-3.9 3.4-1-0.85 2.2 0.23 5.5 2.4 7.3 5.8 4.8 4.8 11-2.9 17-6.5 5.2-6.6 5.7-2.6 9.8 4 4.1 4.7 3.9 11-2.6 3.5-3.8 6.4-7.9 6.4-9.1 0-5.1 4.7-1.6 6.4 4.8 1.8 7 1.8 7 4.5 1.3 3.8-8.2 15-7.9 15 0.32 0 3.3-1.7 7.5-3.8 9.2-2.1 1.7-3.2 4.1-2.5 5.2s0.2 2.8-1.1 3.6c-1.3 0.82-3.1 0.33-4-1.1-2.3-3.7-6.4-3.2-6.4 0.84 0 1.9 2.6 4.7 5.7 6.2 4.8 2.3 3 2.8-11 2.9-16 0.16-16-0.023-11-3.8zm29-24c-2-2-3.1-0.81-4 4-1.2 6.2-0.94 6.4 2.7 2.7 2.9-2.9 3.3-4.8 1.3-6.8zm-34-15c0-4.4-4.5-2.1-5.9 3-1.1 4.3-0.72 4.7 2.2 2.2 2-1.7 3.6-4 3.6-5.2zm-465 447-40-1.3-5.2-7c-5-6.8-5.2-11-6.2-168l-1.1-161 11-11h290c333 0 299-3 301 26 0.78 8.9 2.1 83 3 165l1.6 148-13 13-250-0.7c-138-0.39-268-1.3-291-2zm497-2.1c56-0.63 54 1.4 54-41 0-16-0.74-52-1.6-79l-1.2-110c-0.79-85-2.4-106-8.4-111-3.9-2.9-17-3.6-61-3.6h-56c-178 1.2-140 0.62-259 0.26l-86-0.26h-2.7l-57 0.039c-31 0.022-58 0.88-60 1.9-8.5 5.7-9.1 13-7.2 91l1.6 161 0.74 81 6 4.9c13 10 214 8.9 537 5.4zm-346 0.79s-119-0.077 0 0zm-145-447c4.1-3.1 4.1-14 0.087-16-1.7-1.1-7-2.6-12-3.3-4.8-0.78-8.6-2.6-8.5-4 0.46-4.4 11-4.4 16-0.095 4.2 3.8 4.7 3.8 6.2-0.22 2.2-5.8-0.89-8.5-12-10-7-1.1-11-0.37-14 3-9.9 9-5.5 17 11 20 5.3 0.98 9.6 2.7 9.6 3.8 0 4.2-8.6 5-16 1.4-6.6-3.3-7.6-3.3-8.9 0.074-1.9 4.9-0.29 6.3 9.9 8.5 8.7 1.9 14 1.1 19-3.1zm39 2.1c0-2.5-3.5-3.9-11-4.5-6-0.43-10-1.9-10-3.3s3.6-2.3 7-2.1c3.9 0.3 6.2-0.86 6.2-3.2 0-2.2-2.5-3.7-6.2-3.7-3.4 0-6.9-1.1-7.8-2.5-0.96-1.6 2.9-2.5 10-2.5 8.6 0 12-0.98 12-3.8 0-3-3.4-3.8-15-3.8h-15l0.53 29 13 1.5c7 0.82 14 1.7 15 1.9 1.1 0.23 1.9-1.2 1.9-3.3zm13-6.7 1.3-8.7 3.5 8.3c1.9 4.5 4.3 8.3 5.3 8.3s3.6-3.7 5.9-8.3l4.1-8.3 0.16 9.5c0.11 6.7 1.3 9.5 4 9.5 3 0 3.8-3.5 3.8-17 0-14-0.64-17-4.6-17-3 0-5.8 3.3-8 9.4l-3.4 9.4-4.8-5.9c-2.6-3.2-4.8-7.5-4.8-9.4 0-1.9-2.3-3.5-5.1-3.5-4.6 0-5.1 1.7-5.1 17 0 12 0.85 16 3.2 16 1.8-0.58 3.8-5 4.5-9.8zm61 7.7c3.9-2.1 4.9-5.4 4.9-15 0-9.3-0.97-13-3.7-13-2.5 0-3.9 3.5-4.5 11-0.7 9.6-1.5 11-7.2 11-5.8 0-6.4-1.1-7.1-12-0.55-8.5-1.9-12-4.5-12-5.8 0-5.1 27 0.78 30 5.8 3.4 15 3.4 21 0.11zm28-10c0-11 0.68-13 5.1-13 2.8 0 5.1-1.4 5.1-3.2-5e-3 -2.2-4.8-3.2-15-3.2-12 0-15 0.79-15 4.1 8.9e-4 3.1 1.7 3.8 6.7 2.8 6.7-1.3 6.7-1.2 5.5 12-1.1 12-0.69 13 3.5 13 4 0 4.7-2 4.7-13zm18 8.9c0-2.5 2.5-3.8 7.6-3.8s7.6 1.3 7.6 3.8c0 2.2 2.3 3.8 5.3 3.8 2.9 0 4.9-0.86 4.3-1.9-0.54-1-3.8-7.8-7.2-15-3.4-7.3-8.2-14-11-14-2.5-0.66-4.5-0.16-4.5 1.1s-2.9 8.3-6.4 16c-7.6 16-7.5 15-1.3 15 2.8 0 5.1-1.7 5.1-3.8zm5.1-13c0-2.2 1.1-3.3 2.5-2.4 1.4 0.87 2.5 2.7 2.5 4s-1.1 2.4-2.5 2.4-2.5-1.8-2.5-4zm71 13c4.4-3.1 5.7-6.5 5.7-15 0-14-6.1-19-25-19h-13v38h13c8 0 16-1.6 19-4zm-22-15c0-11 0.38-11 7.1-11 8.5 0 13 4.1 13 11 0 7.3-4.8 11-13 11-6.8 0-7.1-0.61-7.1-11zm43 13c0-7.8 5.2-7.2 8.9 1 1.5 3.4 4.8 5.6 8.4 5.6 5.6 0 5.7-0.32 2-5.6-3.5-5.1-3.5-6 0.39-10 7.1-7.8 1.4-13-15-14l-14-0.74v15c0 13 0.7 15 4.5 15 3.1 0 4.5-2 4.5-6.6zm0-15c0-4 4.4-4.9 11-2.3 5.7 2.2 2.4 6.1-5 6.1-3.8 0-6.2-1.5-6.2-3.8zm54 20c0-1.2 1.9-7.9 2.9-15 1.6-12 1.3-13-3-13-4 0-4.6 1.6-3.8 10 0.77 8.1-0.055 10-4.4 13-7.8 4.2-10 1.3-10-11 0-9.1-0.88-11-4.5-11-3.8-0.0013-4.3 2-3.5 13 0.5 7.3 2.2 14 3.8 15 3.8 2.5 23 2.9 23 0.039zm38 0.36c2.4-0.92 4-4.5 4-8.9 0-6.7-0.78-7.4-8.9-7.4-6.4 0-8.9 1.1-8.9 4 0 2.9 1.5 3.5 5.4 2.3 3.9-1.2 5.1-0.76 4.2 1.7-1.6 4.9-12 4.3-16-1-5.6-8.8 3.2-15 16-12 2.1 0.56 3.8-0.68 3.8-2.8 0-5-19-6.6-25-2-7.3 5.5-8.3 16-2.3 22 5.3 5.3 18 7.1 27 3.8zm-127 432c3.6-3 3.1-4.1-4.7-11-11-8.7-14-18-11-29 2.5-9.3 15-21 25-23 3.7-0.75 11-3.3 16-5.7 11-5.3 13-13 5.2-23-4.8-6.1-4.9-7.2-1.4-11 3.1-3.4 7.8-4.2 23-3.8 10 0.27 20 1.3 22 2.3 4.2 2.6 3.6 11-0.92 13-5.3 2-4.8 15 0.64 20 2.5 2.2 11 5.8 19 8.1 20 5.6 31 20 27 35-1.6 6.2-12 18-17 20-2.7 0.97-2.7 2.2-0.11 6.6m-295-3.8c-11-14 9.2-59 9.2-12 0 16-3.1 20-9.2 12zm43 0.24c-2.8-7.3-1.7-23 1.9-28 3.1-4.2 4.1-4.4 7.8-1.4 3.2 2.6 4 6.9 3.5 18-0.65 12-1.5 14-6.2 15-3.2 0.45-6.1-0.94-7-3.4zm259 0.87c0.7-2.1 9.9-3.1 29-3.2 24-0.13 29-0.91 33-4.7 9.3-9.3-7.8-19-34-19-6.3-0.12-11-1.4-11-3.1 0-3.3 23-1.6 39 2.8 12 3.4 18 16 12 22-5.3 5.3-22 8.2-47 8.3-15 0.08-21-0.73-20-2.9zm-281-5.5c-9-20 15-43 13-6.8-0.89 14-7.7 17-13 6.8zm152 0.39c-5.6-1.2-14-5.5-18-9.5-10-9.6-27-18-37-18-4.5 0-14 4.2-23 10-17 12-33 17-33 11 0-2.2 2.7-3.6 7-3.6 3.9-0.04 14-4.6 22-10s19-11 23-12c12-2.3 28 3.2 40 14 6.3 5.4 15 11 19 12 6.9 1.5 12 5.6 9.9 7.4-0.49 0.38-5.5-0.31-11-1.5zm-27-48c-38-5.7-55-11-82-24-22-11-27-15-40-34-14-22-8.4-53 14-75 10-9.7 35-19 52-19 15 0 47 9.9 57 18 6.6 5.2 11 7.2 14 6 3.2-1.2 2.5 0.41-2.4 5.1-7.4 7-11 8.8-8 4 0.93-1.5-0.94-5.5-4.2-9-14-15-68-22-89-11-20 10-38 37-38 56-0.034 14 13 34 30 47 21 15 76 33 102 33 16 0 29 2.6 28 5.9-1.3 4-3.1 3.9-35-0.87zm10-126c0-0.7-0.57-1.3-1.3-1.3-0.7 0-1.3 0.57-1.3 1.3 0 0.7 0.57 1.3 1.3 1.3 0.7 0 1.3-0.57 1.3-1.3zm28 120c0-0.67 4.9-3.7 11-6.7 6-3 14-8.2 19-11 4.3-3.3 8.6-5.2 9.5-4.3s-0.46 2.9-3.1 4.4c-2.6 1.5-11 6.5-18 11-13 7.9-18 9.7-18 7.1zm84-21c1.7-3.3 3.8-5.2 4.6-4.4s-0.52 3.5-3.1 5.9c-4.4 4.2-4.5 4.1-1.6-1.6zm7.7-14c0-2.1 1.1-3.8 2.5-3.8s1.8 1.7 1 3.8c-0.81 2.1-1.9 3.8-2.5 3.8-0.55 0-1-1.7-1-3.8zm-70-3.8c-16-2.4-19-5.6-19-25 0-14-1.1-19-5.4-24-6.4-8.2-4.4-12 2.8-5.3 6.6 6 11 22 8.8 33-1.3 7.1-0.6 9.3 4.3 13 3.2 2.3 8.4 4.1 12 4.1 3.1 0 6.4 1.2 7.3 2.7 2.4 3.9 1.2 4.1-11 2.4zm68-4.6c0-3.7 22-21 24-19 1.2 1.9-2.9 5.7-19 18-2.5 1.8-4.5 2.3-4.5 0.94zm-35-5.3c-0.69-2.6-3.6-5.9-6.6-7.2-5.1-2.3-5-2.6 2.8-8.1 4.4-3.2 8.1-7.4 8.1-9.4s1.7-3.6 3.8-3.6c2.1 0 3.8 1.4 3.8 3.2-0.013 1.7 3.7 6.3 8.3 10 6.3 5.3 7.2 6.9 3.8 7-2.5 0.038-5.6 2.9-6.9 6.4-3 7.9-15 9.1-17 1.6zm62-15c-2.6-2.9-4-6.1-3.1-7 2.4-2.4 10 5.7 8.9 9.4-0.63 1.9-2.8 1-5.8-2.3zm6.1-6.6c0.48-2.3 3-4.2 4.4-4.1 3.8 0.2 3.6 6.5-0.35 7.8-2.1 0.71-4.6-1.1-4.1-3.7zm-64-11c0-1.4 1.7-2.5 3.8-2.5 2.1 0 3.8 1.1 3.8 2.5s-1.7 2.5-3.8 2.5c-2.1 0-3.8-1.1-3.8-2.5zm-7-14c-10-10-10-12-1.5-19l6.8-5-6.8-4.5c-8.6-5.7-8.6-9.7 0.2-16l7-5.3-8.3-7c-10-8.4-10-12-1.8-21 8.4-8.8 6.2-15-5.3-15-9.6 0-22-4.6-22-8.3 0-1.3 2.6-1.7 5.7-0.8 16 4.6 19 4.5 25-0.77 5.5-5.5 21-7.5 21-2.7 0 5.1 13 7.9 22 4.8 4.8-1.6 9.5-2.1 10-1.1 3.2 3.2-8.1 9-18 9-5.3 0-11 1.7-13 3.8-2.7 3.2-2.1 4.9 3.5 10 8.4 7.8 8.6 15 0.34 21-7.7 5-8.2 11-1.3 16 2.8 1.7 5.1 4.8 5.1 6.9 0 2-2.3 4.9-5.1 6.4-2.8 1.5-5.1 4.1-5.1 5.8s2.3 4.5 5.1 6.3c2.8 1.7 5.1 4.5 5.1 6.1 0 3.3-17 20-20 20-1.1-0.085-5.8-3.9-10-8.5zm-69 1.9c0-3.5 11-14 15-14 2.4 0 2.4 0.76-0.24 3.2-10 9.4-15 13-15 10zm-4.9-15c-2.1-2.6-2.2-4.1-0.2-5.3 3-1.8 10 2.9 10 6.7 0 3.5-6.7 2.6-10-1.4zm82-100c2.5-0.64 6.5-0.64 8.9 0 2.5 0.64 0.45 1.2-4.5 1.2-4.9 0-6.9-0.52-4.5-1.2zm-4.3-5.7c1.5 0-0.77-4 0.047-6.2 0.81-2.1-0.83-6.2-3.7-9l-5.1-5.1 5.4-0.79c8.6-1.3 8.4-7-0.38-8.8-9.2-1.8-10-7.3-2.1-9.5 9-2.4 25-1.9 30 1.1 5.8 3.1 4.2 7.5-2.6 7.5-2.5 0-6 1.6-7.6 3.6-2.4 2.9-1.4 3.9 5.4 5.4 8.1 1.8 8.2 2 2.7 4.4-4.3 1.9-5.7 4.7-5.7 11 0 7.7-0.69 8.5-7.5 8.5-4.1 0-10-2.3-8.9-2.3z"/><text transform="translate(-24 -56)" x="144.12617" y="663.52429" fill="#000000" font-size="31px" style="inline-size:584.851;line-height:1.1;white-space:pre" xml:space="preserve"><tspan x="144.12617" y="663.52429">Take a Treachery Card immediately </tspan><tspan x="144.12617" y="697.25769">after another player discards it, and </tspan><tspan x="144.12617" y="730.99109">add it to your hand. If multiple cards </tspan><tspan x="144.12617" y="764.72448">are discarded at the same time, you </tspan><tspan x="144.12617" y="798.45788">choose which card to take. Discard </tspan><tspan x="144.12617" y="832.19128">after use.</tspan></text><text transform="translate(117 193)" fill="#000000" font-size="40px" style="shape-inside:url(#rect2);white-space:pre" xml:space="preserve"><tspan x="0" y="0">Special</tspan></text></svg>
