<?xml version="1.0" encoding="UTF-8" standalone="no"?>
<!-- Created with Inkscape (http://www.inkscape.org/) -->

<svg
   width="822"
   height="1122"
   version="1.1"
   viewBox="0 0 822 1122"
   xml:space="preserve"
   id="svg10"
   sodipodi:docname="Shield Snooper (Full Res).svg"
   inkscape:version="1.4 (86a8ad7, 2024-10-11)"
   xmlns:inkscape="http://www.inkscape.org/namespaces/inkscape"
   xmlns:sodipodi="http://sodipodi.sourceforge.net/DTD/sodipodi-0.dtd"
   xmlns="http://www.w3.org/2000/svg"
   xmlns:svg="http://www.w3.org/2000/svg"><defs
     id="defs10" /><sodipodi:namedview
     id="namedview10"
     pagecolor="#ffffff"
     bordercolor="#000000"
     borderopacity="0.25"
     inkscape:showpageshadow="2"
     inkscape:pageopacity="0.0"
     inkscape:pagecheckerboard="0"
     inkscape:deskcolor="#d1d1d1"
     inkscape:zoom="1"
     inkscape:cx="543"
     inkscape:cy="449"
     inkscape:window-width="1742"
     inkscape:window-height="1360"
     inkscape:window-x="1882"
     inkscape:window-y="325"
     inkscape:window-maximized="0"
     inkscape:current-layer="svg10" /><path
     d="m 89,1000 c -4.5,-1.3 -6.7,-2.9 -8.9,-6.5 L 77.9,990 77.953,529 c 0.029,-254 0.072,-465 0.096,-469 0.042,-7.1 0.16,-7.4 4,-12 l 3.9,-4.2 320,-0.26 c 237,-0.19 321,0.035 323,0.87 1.5,0.62 4.1,2.7 5.7,4.5 l 3,3.4 -0.002,469 c -0.002,460 -0.037,469 -1.9,472 -1.1,1.7 -3.4,4 -5.2,5.1 -3.5,2.1 -634,3.6 -641,1.5 z m 44,-8.3 c 0,-4.6 -0.35,-5.9 -1.8,-6.4 -5.7,-1.9 -13,-6 -18,-9.5 l -5.4,-4 -11,11 c -15,15 -16,14 16,14 h 21 z m 219,0.45 0.3,-5.2 -4.3,-0.017 c -2.4,-0.01 -51,-0.012 -108,-0.01 l -104,0.012 -0.32,3.1 c -0.18,1.7 -0.085,4.1 0.21,5.3 l 0.53,2.1 215,-0.15 z m 36,1.1 c 6,-20 35,-20 40,1 0.47,1.9 1.3,2.8 2.9,2.8 3.9,0.12 13,0.13 21,0.03 l 7.7,-0.096 0.69,-10 h -19 l -33,-16 -30,15 h -22 l -0.31,4.4 c -0.51,7 -1,6.8 16,6.6 l 15,-0.2 z m 290,-0.96 -10e-6,-5.2 -42,-0.27 c -23,-0.15 -71,-0.15 -108,-6e-4 l -66,0.27 v 4.9 c 0,6.2 -13,5.5 110,5.5 h 105 z m 50,4.1 c 1.6,-0.92 0.38,-2.5 -10,-13 l -12,-12 -2.5,2.3 c -4.5,4.1 -12,8.6 -18,10 l -5.3,1.7 v 5.2 c 0,4.7 0.24,5.3 2.2,5.6 5.8,0.83 43,0.18 45,-0.77 z m -304,-1.7 c -5,-16 -25,-18 -33,-3.7 -3.1,6 -3.2,5.9 16,5.9 h 18 z m 309,-3 c 1.7,-4.3 0.77,-47 -0.97,-47 -0.99,-0.021 -3.4,-0.28 -5.5,-0.57 -3.5,-0.51 -3.7,-0.38 -4.9,3.3 -2,6 -5.9,13 -9.6,18 l -3.4,4.1 11,11 c 12,12 12,12 13,11 z m -648,-1.5 c 1,-0.96 6.2,-6 11,-11 l 9.6,-9.3 -3.9,-5.2 c -4.2,-5.6 -8.4,-14 -9.4,-18 -0.6,-2.5 -1,-2.7 -6.1,-2.7 h -5.5 l -0.029,10 c -0.016,5.6 -0.092,15 -0.17,22 -0.18,15 0.55,18 4,14 z m 307,-15 c 8.3,-4.1 15,-7.5 16,-7.5 1,0 7.3,3.4 16,7.5 l 15,7.5 h 245 l 8.3,-4.2 c 11,-5.4 19,-14 25,-25 l 3.8,-7.7 0.51,-804 h -23 l -1.2,6.7 c -11,65 -111,63 -121,-2.2 l -0.68,-4.5 h -480 l -0.016,74 c -0.0088,41 -0.015,221 -0.014,400 l 0.0023,327 2.1,5.6 c 4.9,13 14,23 27,30 l 7.9,4 h 245 z m -301,-41 c 0.0089,-3.4 0.022,-192 0.03,-419 l 0.014,-412 -11,-0.58 0.2,417 c 0.11,230 0.22,418 0.25,419 0.037,1.4 0.97,1.8 5,1.8 h 5 z m 643,-413 0.027,-419 h -11 v 838 h 11 z m -84,-328 c 31,-6 52,-43 42,-74 -19,-61 -110,-49 -113,14 -2.1,39 31,67 71,60 z m -57,-83.3 c 28,-43 94,-24 94,28 0,34 -30.8498,54.43084 -57.92096,49.64032 C 599.52799,184.64147 571.37318,150.5744 593,109.89 Z m 65,70.7 c 38,-19 35,-74 -5.4,-88 -15,-5 -24,-4.2 -40,3.8 -8.2,4 -20,19 -21,27 -0.31,1.7 -0.84,3.6 -1.2,4.2 -2.1,3.5 -0.76,20 2.2,27 0.73,1.6 2.1,4.6 2.9,6.6 9.2,20 41,30 63,19 z m -563,-87 c 2,-5.8 6.1,-13 9.9,-17 l 2.6,-2.8 -11,-11 c -14,-13 -14,-13 -14,-0.13 -0.0087,5.4 -0.065,15 -0.12,21 -0.16,17 -0.75,15 5.7,15 l 5.6,-0.3 z m 640,-18 c -0.38,-28 0.58,-27 -13,-13 l -12,12 2.6,2.8 c 3.3,3.6 8,12 9.6,17 1.8,5.7 1.6,5.5 7.6,5.5 h 5.5 z m -310,-11 15,-7.5 h 20 l 0.35,-5.1 c 0.44,-6.5 1.9,-5.9 -15,-5.9 h -15 l -1.5,3.8 c -3.9,9.9 -9.1,14 -18,15 -11,0.89 -20,-5.7 -23,-17 -0.38,-1.3 -2.8,-1.5 -16,-1.5 l -15,0.05 v 10 l 23,1 14,7.2 c 17,8.7 13,8.8 31,-0.2 z m -310,2.5 c 2.9,-2.2 8.3,-5.2 12,-6.7 l 6.8,-2.7 v -5.3 c 0,-6.8 0.7,-6.6 -25,-6.2 -26,0.43 -26,0.015 -12,13 5.8,5.6 11,11 11,11 0.63,1.4 2.1,0.75 7.4,-3.3 z m 614,-19 c -0.65,-0.65 -9.4,-1 -24,-1 h -23 v 11 l 5,1.7 c 5.5,1.9 12,5.7 17,9.6 l 3,2.5 11,-11 c 7.7,-7.7 11,-11 10,-12 z m -314,13 c 5.1,-2.6 11,-9.3 11,-13 0,-0.3 -7.9,-0.54 -18,-0.54 -19,0 -19,0.02 -16,4.8 4.3,8.3 15,12 23,8.6 z m -62.4,-3.42 -0.24,-10 h -215 l -0.1,3.5 c -0.22,7.7 -5.5,7 55,7.3 30,0.14 74,0.16 98,0.029 24,-0.131 48,-0.24 53,-0.25 z m 281.4,0.02033 45,-0.021 v -11 l -106,0.037 c -122,0.043 -109,-0.62 -109,5.9 l 0.35,5 c 57,0.7 113,0.09 170,0.042 z m -26.71234,74.65438 C 0,0 0,0 607.28766,132.34471 Z m 16.12824,43.32382 c 0.35335,-2.34634 1.16051,-5.55253 1.79371,-7.12488 0.6332,-1.57235 1.28692,-3.88757 1.45271,-5.14494 0.16579,-1.25736 0.58082,-3.16739 0.92228,-4.2445 1.91826,-6.05101 2.92852,-15.35292 1.66745,-15.35292 -4.53975,-1.33924 -22.86682,4.09546 -18.00353,-1.28998 3.21626,-3.65709 -0.94633,0.53711 4.87404,-5.56038 5.09244,-5.23199 5.03953,-6.02119 6.83896,-8.12303 3.47289,-4.05654 7.29436,-8.51088 11.30216,-13.32118 5.2539,-6.33007 7.89407,-9.62819 11.67365,-14.25892 0.22998,-0.28177 -3.55139,19.4575 -6.21983,31.35725 l -0.57061,2.5446 10.33273,-0.50892 c 5.683,-0.27991 11.01955,-0.31665 10.78472,-0.0529 -2.74434,3.08224 -2.53051,4.17013 -4.86322,6.77574 -1.86451,2.01814 -6.20523,6.50409 -7.56079,8.31926 -8.11134,10.37157 -16.29995,20.36059 -25.06688,30.25175 z m 10.36818,390.71014 c -0.17444,-0.17439 -116.2245,-0.40341 -257.88904,-0.50892 -237.54693,-0.17694 -257.80899,-0.32281 -260.62181,-1.87636 -3.81826,-2.10887 -6.86313,-5.42671 -9.19621,-10.02064 -1.70803,-3.3632 -1.8238,-12.38599 -2.06992,-161.32756 -0.22351,-135.26344 -0.0511,-158.43101 1.20864,-162.43392 1.64118,-5.21485 6.46105,-10.74413 11.06411,-12.69256 2.43472,-1.0306 59.81365,-1.19389 288.21845,-0.8202 156.84819,0.25661 286.67516,0.69631 288.50437,0.9771 3.87609,0.59499 9.79241,5.45453 12.14572,9.97623 1.49573,2.87394 1.62085,17.55983 1.39602,163.85759 -0.13584,88.38539 -0.62481,161.69565 -1.0866,162.91169 -1.28938,3.39531 -6.0107,8.59311 -9.54805,10.51164 -2.78096,1.5083 -6.88538,1.72866 -32.49576,1.74466 -16.12202,0.0101 -29.45548,-0.12436 -29.62992,-0.29875 z m 62.18448,-4.70028 c 1.78298,-1.0801 4.36728,-4.05728 5.74287,-6.61595 l 2.50108,-4.65213 0.35699,-158.81492 c 0.3394,-150.98936 0.26712,-159.01451 -1.46689,-162.86534 -1.00314,-2.22772 -3.48568,-5.19052 -5.51677,-6.58399 l -3.69288,-2.53357 -59.54842,-0.18008 c -32.75163,-0.099 -162.28714,-0.32806 -287.85669,-0.50892 l -228.30826,-0.32884 -3.75571,2.5446 c -2.06564,1.39953 -4.6725,4.42459 -5.79302,6.72237 -2.25532,4.62481 -2.06908,-18.31582 -1.94091,239.08585 0.0248,49.80204 0.42026,80.83423 1.06106,83.26252 1.26765,4.8037 4.35343,8.46791 9.24646,10.97971 3.65444,1.87598 9.49252,1.92575 212.77971,1.81371 114.9622,-0.0634 209.19324,0.0545 209.40231,0.26181 0.20907,0.20735 34.84274,0.377 76.96371,0.377 73.85165,0 76.69921,-0.07 79.82536,-1.96383 z m -115.59205,-69.0305 c 11.45116,0 2.41472,-37.72756 14.92356,-49.82444 4.18379,-4.046 10.93011,-7.40545 12.68757,-6.318 2.11503,1.3087 4.88835,9.1481 4.91028,13.88008 l 0.0223,4.81272 -4.48969,-0.19563 c -5.52605,-0.24079 -8.44268,1.2632 -11.9133,6.14321 -6.34815,8.92606 -6.43334,22.69911 -0.15813,25.56167 l 2.40737,1.09817 -3.34372,2.89624 c -3.2009,2.77253 -8.70009,5.25396 -11.64352,5.25396 -0.76351,0 -5.53297,-3.30798 -3.40275,-3.30798 z m -9.13865,-5.77576 c 0,-2.02615 -12.22844,-13.3405 -19.37508,-17.92677 -9.52946,-6.11542 -20.10685,-10.64954 -24.84367,-10.64954 -4.67725,0 -8.95454,-2.21316 -10.39515,-5.37868 -3.15218,-6.92643 2.22095,-23.33716 11.80369,-36.05111 4.2344,-5.61801 15.29907,-5.88108 17.20438,-0.40906 0.87171,2.50353 2.38484,3.2851 13.54773,6.9977 11.66928,3.88102 22.98244,7.09974 27.81608,7.91399 1.11831,0.18839 4.32073,0.73578 7.1165,1.21642 l 5.08322,0.8739 -3.04993,1.64358 c -1.67746,0.90397 -4.55996,3.13409 -6.40554,4.95583 -8.9973,8.88102 -18.38175,32.44586 -17.32777,43.5109 0.22233,2.33413 0.049,4.24387 -0.38511,4.24387 -0.43414,0 -0.78935,-0.42346 -0.78935,-0.94103 z m 29.72204,-4.18899 c -3.70251,-1.48338 -4.71074,-5.6637 -2.81859,-11.68641 2.65443,-8.44905 8.0711,-12.63132 12.6219,-9.74551 2.5619,1.62459 1.00891,12.61985 -2.48311,17.58059 -3.3641,4.77901 -4.07334,5.15216 -7.3202,3.85133 z m -93.87987,-36.22448 c -1.75268,-2.11456 -1.5316,-9.58204 0.44811,-15.13557 5.03536,-14.12534 11.54151,-22.90139 16.97801,-22.90139 3.82319,0 3.77609,0.69775 -0.34349,5.0892 -4.66598,4.97391 -10.61718,16.99217 -12.96475,26.18191 -1.08899,4.26292 -2.14249,7.91345 -2.34109,8.1123 -0.19861,0.19884 -0.99817,-0.40706 -1.77679,-1.34645 z m -10.47282,-5.78132 c -3.70294,-2.71085 -1.78835,-13.06089 4.6488,-25.13076 5.97168,-11.19711 7.96203,-12.88136 13.01221,-11.01097 l 2.42817,0.8993 -2.18313,1.53092 c -4.80057,3.3664 -14.44044,24.41356 -14.44044,31.52844 0,3.81522 -0.66442,4.23375 -3.46561,2.18307 z m -19.94236,-2.29563 c -0.54531,-1.43598 -0.99148,-3.872 -0.99148,-5.41338 0,-7.72624 8.57339,-27.39881 15.24999,-34.99275 4.99933,-5.68621 8.71819,-6.36361 12.75392,-2.32313 2.82885,2.83218 3.15176,4.43826 1.05432,5.24407 -2.53277,0.97306 -10.40129,13.9106 -12.67968,20.84813 -1.21147,3.68884 -2.48848,9.18518 -2.8378,12.21407 -0.34932,3.0289 -1.13707,5.84359 -1.75056,6.25488 -0.61349,0.41129 -3.07109,0.75481 -5.46133,0.76338 -3.73644,0.0134 -4.48494,-0.35055 -5.33738,-2.59527 z m -12.85987,-5.36071 -5.26021,-2.71575 2.13765,-2.93201 c 2.59521,-3.5596 3.5095,-12.16175 1.83315,-17.24711 -2.81651,-8.54414 -9.55247,-12.84118 -20.18776,-12.87831 -9.4348,-0.0329 -16.51666,4.43541 -18.0408,11.38294 -0.34039,1.55161 -1.01002,3.06313 -1.48807,3.35893 -0.47804,0.29579 -13.82442,-5.83263 -29.6586,-13.61872 -25.20391,-12.39342 -44.30214,-21.50229 -45.08307,-21.50229 -0.13712,0 -1.0287,1.64437 -1.98128,3.65415 -1.68252,3.54982 -1.66894,3.72131 0.47582,6.00699 3.27457,3.48971 3.80442,9.75474 1.184,13.99967 -2.7074,4.38582 -6.47555,6.38987 -11.79462,6.27285 -11.6963,-0.25731 -16.80739,-13.61655 -8.23963,-21.53648 2.64364,-2.44375 4.52564,-3.30798 7.20362,-3.30798 3.17558,0 3.80771,-0.43766 5.09815,-3.52975 0.8102,-1.94136 1.47309,-3.94691 1.47309,-4.45679 0,-1.4519 -6.19168,-3.65383 -9.61445,-3.41915 -3.35338,0.22993 -5.27737,-0.94141 -7.9693,-4.85176 -3.47551,-5.04857 -1.43231,-16.54285 5.06673,-28.50354 4.37506,-8.05178 6.5086,-10.82857 10.6974,-13.9226 6.03915,-4.46079 16.05263,-2.56814 16.05263,3.03411 0,1.66783 5.86183,4.89105 7.3652,4.04987 1.93109,-1.08051 2.76562,-4.27191 1.45997,-5.58317 -2.62272,-2.634 -3.80783,-8.00539 -2.6863,-12.17535 2.74716,-10.21415 14.97111,-12.90616 21.78586,-4.79776 3.35921,3.99689 4.11687,7.3153 2.72906,11.95282 -1.48631,4.96672 -6.29343,8.46236 -12.45196,9.05481 -3.62002,0.34825 -4.93538,0.93676 -5.31141,2.37641 -0.57644,2.20691 -0.80228,2.03539 8.78404,6.67144 4.01494,1.94166 14.61972,7.11489 23.56618,11.49605 15.94196,7.80691 29.60808,14.33461 41.5973,19.86917 6.01004,2.7744 6.01926,2.77526 11.6914,1.08395 5.11185,-1.52425 6.16592,-1.54242 10.59466,-0.18271 4.87432,1.49653 4.97823,1.4798 11.6914,-1.882 3.72535,-1.86557 15.3513,-7.53965 25.83543,-12.60907 11.1354,-5.38433 19.06207,-9.80351 19.06207,-10.62725 0,-0.77557 0.91684,-2.24083 2.03742,-3.25613 2.96654,-2.68784 7.11237,-0.69447 7.11237,3.41973 0,4.01559 -2.19496,5.62278 -6.55952,4.80302 -3.66499,-0.68836 -4.73148,-0.20084 -32.07293,14.66143 -4.19366,2.27959 -10.02665,5.3734 -12.96221,6.87514 -5.01486,2.56544 -6.82064,5.3398 -4.43598,6.81533 0.49576,0.30676 1.18942,2.0514 1.54145,3.87697 0.5539,2.87238 1.42481,3.65185 6.46928,5.79012 3.20606,1.35899 6.00446,2.60318 6.21866,2.76487 0.2142,0.16169 -1.05185,1.93746 -2.81344,3.94617 -6.85269,7.81396 -15.40956,28.46154 -15.67459,37.82253 -0.0526,1.85822 -0.34811,3.34109 -0.65666,3.29527 -0.30854,-0.0458 -2.92809,-1.3054 -5.8212,-2.79906 z m -42.881,-32.15481 c 1.69306,-3.72024 -1.25217,-8.36909 -6.25236,-9.86895 -3.55327,-1.06584 -4.31105,-0.9878 -6.09394,0.62759 -4.12035,3.73325 -1.61903,10.93254 4.36351,12.559 3.86441,1.05062 6.49174,-0.0413 7.98279,-3.31764 z m -20.518,-8.663 c 3.60684,-6.74738 -4.42537,-14.37615 -11.66116,-11.07543 -3.36083,1.5331 -3.53551,7.26762 -0.32558,10.68845 2.92958,3.12206 10.39584,3.3631 11.98674,0.38698 z m -21.51708,-9.43104 c 3.38156,-3.38553 0.003,-11.25565 -5.41634,-12.61745 -8.73734,-2.19551 -12.36506,6.21635 -5.19026,12.03501 2.50159,2.02874 8.81568,2.37547 10.6066,0.58244 z m 62.94803,44.92638 c -8.90968,-2.17248 -12.92916,-6.40428 -12.92916,-13.6121 0,-4.96779 4.23101,-9.54095 10.02921,-10.84022 2.44072,-0.54692 5.4144,-0.71483 6.60818,-0.37312 8.78534,2.51469 11.82863,6.27149 11.82863,14.60187 0,8.67266 -5.92039,12.5684 -15.53686,10.22357 z M 314.34047,363.57288 c -1.22549,-0.46445 -3.01435,-2.12867 -3.97522,-3.69826 -6.64685,-10.85766 -13.69906,-18.67064 -23.27926,-25.79055 -3.35492,-2.49334 -6.3286,-4.76925 -6.60818,-5.05758 -1.21474,-1.25276 -9.19165,-6.1033 -10.03712,-6.1033 -0.51201,0 -2.40232,-1.3761 -4.20068,-3.058 -2.92503,-2.73559 -3.19639,-3.45993 -2.57392,-6.87041 0.86655,-4.74772 3.0712,-8.26417 5.81938,-9.28199 1.33393,-0.49403 5.74072,0.24193 12.02558,2.00836 16.81499,4.72602 29.26817,6.37264 43.20833,5.71319 8.52395,-0.40323 13.06815,-0.21241 14.71801,0.61802 2.68263,1.35027 3.91326,3.74596 1.92424,3.74596 -5.05983,0 -16.68959,14.12915 -20.57413,24.99577 -0.98905,2.76677 -2.15555,5.71753 -2.59223,6.55725 -0.43668,0.83972 -0.90122,4.95812 -1.03231,9.152 -0.13108,4.19388 -0.31843,7.69021 -0.41632,7.76962 -0.0979,0.0794 -1.18067,-0.23563 -2.40617,-0.70008 z m -66.5592,-51.98839 c -5.14975,-2.42475 -8.99884,-4.88653 -9.27131,-5.9297 -0.63887,-2.44593 1.76602,-9.09442 4.15469,-11.48589 1.94136,-1.94365 2.02834,-1.93702 7.43486,0.56644 3.00879,1.39321 7.18612,3.13011 9.28294,3.8598 3.33939,1.16208 5.39514,3.97126 2.90616,3.97126 -1.22477,0 -4.17696,7.56814 -4.17696,10.70791 0,1.3882 -0.34312,2.50875 -0.76248,2.4901 -0.41937,-0.0186 -4.72492,-1.89961 -9.5679,-4.17992 z m -19.18769,-8.66946 c -6.48235,-2.85056 -6.57705,-2.95809 -6.48417,-7.36444 0.10991,-5.21418 1.89436,-8.68803 5.24896,-10.21828 2.18005,-0.99447 2.90981,-0.85632 4.78288,0.90541 1.21568,1.14341 2.69668,2.07893 3.29112,2.07893 0.59444,0 1.60598,0.63355 2.24788,1.40789 0.89765,1.08288 0.82125,1.54076 -0.33094,1.98341 -0.82391,0.31654 -2.33836,3.31618 -3.36545,6.66587 l -1.86744,6.09035 z M 513.25589,118.73959 c 0,-3.563 -0.30842,-4.48754 -1.2708,-3.80933 -0.69894,0.49257 -4.93072,0.89217 -9.40395,0.88801 l -8.13315,-0.008 -0.32809,-3.43566 -0.32808,-3.43567 6.17378,0.4471 6.17379,0.44709 v -3.8499 c 0,-2.60964 -0.4094,-3.72409 -1.2708,-3.45938 -0.69895,0.21478 -3.44388,0.64967 -6.09987,0.96642 -4.80961,0.57359 -4.82905,0.56369 -4.82905,-2.45814 0,-3.026101 0.0166,-3.034467 6.35402,-3.194391 8.5387,-0.215475 8.08822,-0.240176 10.67476,0.585321 2.113,0.674367 2.28744,0.418898 2.28744,-3.349835 0,-4.097525 -1.30498,-6.203267 -2.57217,-4.150497 -0.37367,0.605311 -1.89212,1.022276 -3.37434,0.926589 -1.48223,-0.09569 -6.81236,-0.125439 -11.84475,-0.06612 l -9.14979,0.107853 v 14.75867 14.75867 h 12.39388 c 7.16595,0 12.65892,0.42934 13.02221,1.01784 1.16901,1.89372 1.52496,1.03308 1.52496,-3.68707 z m -358.29453,2.54482 c 6.0974,-1.53715 9.5858,-5.71066 9.5858,-11.46841 0,-7.13732 -6.41898,-11.817487 -16.208,-11.817487 -5.97981,0 -8.51776,-2.145196 -5.78036,-4.885821 2.62936,-2.632451 10.85457,-2.320075 14.74551,0.560004 1.70167,1.259576 3.32946,2.290138 3.61732,2.290138 0.65045,0 3.62553,-5.674586 3.62553,-6.915247 0,-0.500116 -3.0927,-1.963446 -6.87267,-3.251844 -12.39935,-4.226305 -22.58203,-1.023034 -24.20024,7.61292 -0.73629,3.92937 1.49195,8.900727 5.02963,11.221427 1.30923,0.85885 5.45404,1.84891 9.21069,2.20012 3.93783,0.36815 7.47376,1.28282 8.34982,2.15992 1.34832,1.3499 1.29713,1.74404 -0.45425,3.49749 -3.7944,3.79885 -11.61135,2.57978 -19.45757,-3.03445 -2.41254,-1.72625 -2.45667,-1.7158 -1.89147,0.44806 0.34417,1.31767 0.0571,2.41594 -0.70826,2.71 -2.05375,0.78902 -0.62365,5.46806 1.86531,6.10297 1.20337,0.30698 4.4754,1.23694 7.27117,2.0666 6.34404,1.88262 6.73784,1.89878 12.27204,0.50361 z m 87.86963,-2.67465 0.002,-3.8169 -9.66039,0.32431 -9.6604,0.3243 v -3.57717 -3.57717 l 4.82906,0.30413 c 2.65598,0.16727 5.51529,0.486 6.35402,0.70827 1.13786,0.30155 1.52497,-0.48321 1.52497,-3.09147 v -3.49561 l -6.35403,0.25963 -6.35402,0.25962 v -3.22376 -3.22377 l 9.6589,0.352712 9.65891,0.352712 -7.9e-4,-3.254326 -7.9e-4,-3.254326 -14.09339,-0.308112 -14.09339,-0.308112 0.96089,2.75429 c 0.52849,1.514859 0.80877,8.487932 0.62286,15.495712 l -0.33802,12.74142 13.21636,0.31299 c 7.269,0.17214 13.33074,0.41302 13.47053,0.53526 0.13979,0.12225 0.25519,-1.49533 0.25644,-3.59463 z m 28.46611,0 0.002,-3.8169 -8.64385,0.32925 -8.64384,0.32924 v -11.27102 c 0,-8.329938 0.3316,-11.275081 1.2708,-11.2866 0.84721,-0.01039 0.76249,-0.344475 -0.25416,-1.002253 -0.83873,-0.542667 -3.12618,-0.993856 -5.08322,-1.002634 l -3.55825,-0.01596 v 15.238047 15.23805 l 12.19973,0.31877 c 6.70984,0.17532 12.31409,0.4178 12.45388,0.53884 0.13979,0.12103 0.25523,-1.49752 0.25653,-3.59682 z m 68.2152,2.66057 c 1.90069,-0.63598 4.7139,-2.32477 6.25157,-3.75287 2.27241,-2.11047 2.79154,-3.46593 2.77316,-7.24084 -0.0356,-7.31932 -3.42987,-10.443914 -12.68543,-11.677638 -9.46723,-1.261939 -10.67476,-1.680375 -10.67476,-3.699048 0,-1.055447 0.98168,-2.444995 2.18152,-3.087884 3.28583,-1.760592 11.69114,-0.614344 14.43764,1.968886 1.27588,1.200044 2.62167,2.181898 2.99064,2.181898 0.75062,0 3.773,-5.516147 3.773,-6.8861 0,-1.228228 -12.07824,-5.350791 -15.64003,-5.338275 -4.26879,0.015 -10.51894,2.09175 -12.33209,4.097609 -3.79963,4.203492 -3.53481,12.084206 0.52984,15.766992 1.27547,1.15564 5.25398,2.3836 10.35644,3.19647 9.17695,1.46198 11.04046,2.50327 9.33219,5.21462 -2.65555,4.21488 -14.16571,3.64702 -18.27744,-0.90174 -0.95338,-1.05471 -2.04678,-1.91766 -2.42977,-1.91766 -0.79027,0 -3.60938,8.00742 -2.96532,8.4227 0.90602,0.58419 7.70067,3.01401 10.58499,3.78528 4.49977,1.20324 7.91681,1.16488 11.79385,-0.1324 z m 70.01755,-0.17342 c 4.68827,-1.61354 8.1221,-7.61074 8.14483,-14.22499 0.0358,-10.427255 -5.1889,-15.987529 -15.02926,-15.994478 -10.15084,-0.0072 -15.93695,5.535487 -15.91516,15.245528 0.0158,7.05022 2.40194,11.27591 7.9829,14.1373 4.64795,2.38303 9.5236,2.65834 14.81669,0.83664 z m -9.12139,-5.52143 c -6.35507,-2.22036 -8.38955,-11.30576 -3.60446,-16.096473 3.29139,-3.295261 7.64632,-3.244186 11.65961,0.136745 2.49681,2.103398 3.12793,3.426848 3.12793,6.559198 0,6.14215 -6.02156,11.20389 -11.18308,9.40053 z m 44.49107,4.13136 c 7.16058,-5.35244 9.06803,-13.03671 5.13595,-20.690487 -2.80045,-5.451055 -7.43935,-8.139552 -14.0445,-8.139552 -8.35061,0 -14.69711,4.959792 -15.90831,12.432359 -1.33204,8.21806 2.63558,16.06364 9.13026,18.05418 4.77363,1.46306 12.62195,0.63428 15.6866,-1.6565 z m -13.20372,-4.97383 c -5.80767,-3.15541 -6.61905,-10.03538 -1.75752,-14.902627 2.67597,-2.679121 3.60906,-3.019144 6.86234,-2.500666 4.41662,0.70388 8.34015,4.682273 8.34015,8.456763 0,3.8242 -3.04191,8.29552 -6.45363,9.48625 -3.69786,1.2906 -3.61009,1.29738 -6.99134,-0.53972 z m -254.96972,4.60124 c -0.60993,-1.14101 -0.96915,-4.00368 -0.79825,-6.36149 l 0.31072,-4.28693 h 6.60818 6.60818 l 0.30268,6.36149 0.30267,6.3615 h 4.63515 c 4.0176,0 4.53691,-0.23732 3.89772,-1.78122 -0.91348,-2.20643 -0.98303,-25.107091 -0.0807,-26.568825 0.39267,-0.636101 -0.88843,-1.325697 -3.18357,-1.713667 -2.11237,-0.357073 -4.71048,-0.891099 -5.77358,-1.186725 -1.57659,-0.438414 -1.77898,-0.187484 -1.09788,1.361176 0.45927,1.044272 1.03378,3.867313 1.27669,6.273424 l 0.44165,4.374747 -6.9686,-0.30339 -6.9686,-0.30339 0.0158,-4.580276 c 0.0184,-5.33394 -0.6946,-6.070379 -5.89724,-6.091451 -3.55238,-0.01439 -3.76338,0.14306 -2.74492,2.048306 0.63958,1.196473 1.05892,7.292341 0.99775,14.504211 -0.058,6.84218 -0.0809,12.78384 -0.0508,13.2037 0.0301,0.41986 2.12946,0.76338 4.66533,0.76338 4.32444,0 4.54182,-0.12879 3.50169,-2.07457 z m 34.62244,0.10581 c 0.003,-4.84375 -1.3884,-25.184869 -0.0192,-26.032085 1.89686,-1.173701 0.14663,-2.145485 -4.27801,-2.375292 l -4.38004,-0.227491 v 15.301028 15.30102 l 4.86483,7.9e-4 c 4.83797,7.9e-4 3.81075,0.35236 3.81242,-1.96797 z m 84.63246,0.58248 c 0,0.27958 7.16425,-5.12935 7.63623,-11.66206 0.5337,-7.38703 -1.54338,-12.654241 -6.08274,-15.425072 -2.81438,-1.717898 -5.12678,-2.054788 -14.12593,-2.057966 l -10.76065,-0.0038 0.79091,5.852577 c 0.435,3.218917 0.69475,10.089341 0.57721,15.267601 l -0.2137,9.41501 h 9.45362 c 5.69837,0 12.72505,0.75539 12.72505,-1.38628 z m -14.51982,-13.88131 v -9.160556 h 4.11706 c 8.30989,0 12.29806,4.584366 10.62454,12.212806 -0.90981,4.14722 -4.08329,6.1083 -9.8846,6.1083 h -4.857 z m 78.58626,9.41501 c -0.20399,-3.21891 -0.49288,-7.34116 -0.64198,-9.16055 -0.1491,-1.81939 0.0324,-3.30798 0.40328,-3.30798 1.27777,0 14.67508,15.66104 14.53412,16.98993 -0.0991,0.9341 1.34139,1.33118 4.82906,1.33118 4.50256,0 6.32574,-1.07681 4.12684,-2.43741 -0.92618,-0.57309 -0.58665,-24.568934 0.36957,-26.117941 0.66904,-1.083801 0.41868,-1.160616 -4.77479,-1.464991 l -3.72367,-0.218234 0.45892,5.704273 c 0.25241,3.137353 0.6412,7.192863 0.86399,9.012253 0.22278,1.81939 0.15994,3.30798 -0.13964,3.30798 -1.21653,0 -14.05844,-14.716459 -13.9276,-15.96062 0.0777,-0.738459 -0.60858,-1.375303 -1.52497,-1.415208 -0.91639,-0.03991 -3.26738,-0.270305 -5.22442,-0.512 l -3.55825,-0.439444 v 15.269682 15.26969 l 4.15022,9.9e-4 4.15021,9.8e-4 z m 103.45529,4.40104 c -0.66179,-0.79834 -1.06093,-3.432 -0.88697,-5.85257 l 0.31629,-4.40104 7.34374,-0.11974 c 8.82803,-0.14394 12.09493,-1.87507 13.03818,-6.90895 0.82788,-4.418161 -0.1143,-7.393926 -2.92193,-9.22856 -3.11208,-2.033581 -25.80826,-2.372288 -25.12908,-0.375015 0.99944,2.939117 1.16312,14.976075 0.29213,21.484545 l -0.91708,6.85287 h 5.03399 c 4.24343,0 4.84502,-0.22795 3.83073,-1.45154 z m -0.68857,-17.31903 c 0,-3.780394 0.0181,-5.154195 4.19873,-4.973681 2.22877,0.09624 5.09602,0.210743 6.37166,0.25446 3.09612,0.106104 4.14204,3.032431 1.71809,4.806951 -2.58828,1.89482 -12.28848,1.96692 -12.28848,-0.0877 z m 61.82167,12.66353 c -0.42438,-5.87399 -0.34928,-6.10644 1.96841,-6.09145 1.3253,0.009 2.91311,0.3521 3.52847,0.76338 1.95929,1.30954 6.60317,9.43641 5.9743,10.45513 -0.36076,0.58441 1.73993,0.97998 5.20416,0.97998 5.44639,0 5.71213,-0.11122 4.25598,-1.78122 -0.85422,-0.97967 -2.76548,-3.73522 -4.24724,-6.12344 l -2.69411,-4.34222 2.50289,-0.95271 c 5.31772,-2.02416 6.51835,-10.634994 1.9811,-14.208199 -2.36078,-1.859169 -4.08027,-2.109554 -14.48717,-2.109554 h -11.80846 v 14.758673 14.75867 h 4.13144 4.13145 z m -0.015,-14.39828 c 0.18671,-1.95244 0.87049,-3.370333 1.59727,-3.312122 0.69894,0.05598 3.57261,0.170488 6.38593,0.254459 3.60478,0.107596 5.29565,0.623683 5.72653,1.747852 0.98684,2.574681 -1.15378,3.740501 -7.79938,4.247711 l -6.23682,0.47601 z"
     id="path1"
     sodipodi:nodetypes="cccccccccccsccccccccsscccccccccccccccccccccccccccccccssccccccccscccccsccccccccscccccscsccccccsccccccccccccccccccccccccccscccccccccccccsccccccsccccccccccccccccccsccccccsccccccccccccccsccccccscccccscccssccccccscsccccccccccsssssscccscsscsscccsssssssssssssssssscssscsscssssssssssssscssscssssssssssssscsssssssssssssssssssscsssssssssssssscssssssssssssssssssssssssssssssssssssssssssssssssssssssssssssssssssssssssssssssssssssssssssssssssssssscscsccccccsssssssssscccssccssssssssssssssscsssccccccssscccccccccccsscssccccccsssscccssccsssssssssssssssssssssssssssssssssssssssssscscccccssssssscccssssssccssscccsssssscsscsssccsssccsssssssscsssssscccccssscssssscssssssssscssssscssscccccsssssscs"
     inkscape:label="path1"
     style="display:inline" /><text
     transform="translate(-21.585787,-52.769552)"
     x="144.12617"
     y="663.52429"
     fill="#000000"
     font-size="29px"
     style="font-size:30.6667px;line-height:1.1;white-space:pre;inline-size:584.851;display:inline"
     xml:space="preserve"
     id="text9"><tspan
       x="144.12617"
       y="663.52429"
       id="tspan2">Play as part of your Battle Plan. </tspan><tspan
       x="144.12617"
       y="697.25769"
       id="tspan3">Counts as both a Shield (projectile </tspan><tspan
       x="144.12617"
       y="730.99109"
       id="tspan4">defense) and Snooper (poison </tspan><tspan
       x="144.12617"
       y="764.72448"
       id="tspan5">defense). You may keep this card if </tspan><tspan
       x="144.12617"
       y="798.45788"
       id="tspan6">you win this battle.</tspan></text><text
     transform="translate(112.05112,193.71261)"
     fill="#000000"
     font-size="43px"
     style="font-size:33.3333px;white-space:pre;shape-inside:url(#rect2);display:inline"
     xml:space="preserve"
     id="text10"><tspan
       x="0"
       y="0"
       id="tspan7">Defense - Special</tspan></text></svg>
