<?xml version="1.0" encoding="UTF-8"?>
<!-- Created with Inkscape (http://www.inkscape.org/) -->
<svg width="822" height="1122" version="1.1" viewBox="0 0 822 1122" xml:space="preserve" xmlns="http://www.w3.org/2000/svg"><path d="m89 1e3c-4.5-1.3-6.7-2.9-8.9-6.5l-2.2-3.5 0.053-461c0.029-254 0.072-465 0.096-469 0.042-7.1 0.16-7.4 4-12l3.9-4.2 320-0.26c237-0.19 321 0.035 323 0.87 1.5 0.62 4.1 2.7 5.7 4.5l3 3.4-2e-3 469c-2e-3 460-0.037 469-1.9 472-1.1 1.7-3.4 4-5.2 5.1-3.5 2.1-634 3.6-641 1.5zm44-8.3c0-4.6-0.35-5.9-1.8-6.4-5.7-1.9-13-6-18-9.5l-5.4-4-11 11c-15 15-16 14 16 14h21zm219 0.45 0.3-5.2-4.3-0.017c-2.4-0.01-51-0.012-108-0.01l-104 0.012-0.32 3.1c-0.18 1.7-0.085 4.1 0.21 5.3l0.53 2.1 215-0.15zm36 1.1c6-20 35-20 40 1 0.47 1.9 1.3 2.8 2.9 2.8 3.9 0.12 13 0.13 21 0.03l7.7-0.096 0.69-10h-19l-33-16-30 15h-22l-0.31 4.4c-0.51 7-1 6.8 16 6.6l15-0.2zm290-0.96-1e-5 -5.2-42-0.27c-23-0.15-71-0.15-108-6e-4l-66 0.27v4.9c0 6.2-13 5.5 110 5.5h105zm50 4.1c1.6-0.92 0.38-2.5-10-13l-12-12-2.5 2.3c-4.5 4.1-12 8.6-18 10l-5.3 1.7v5.2c0 4.7 0.24 5.3 2.2 5.6 5.8 0.83 43 0.18 45-0.77zm-304-1.7c-5-16-25-18-33-3.7-3.1 6-3.2 5.9 16 5.9h18zm309-3c1.7-4.3 0.77-47-0.97-47-0.99-0.021-3.4-0.28-5.5-0.57-3.5-0.51-3.7-0.38-4.9 3.3-2 6-5.9 13-9.6 18l-3.4 4.1 11 11c12 12 12 12 13 11zm-648-1.5c1-0.96 6.2-6 11-11l9.6-9.3-3.9-5.2c-4.2-5.6-8.4-14-9.4-18-0.6-2.5-1-2.7-6.1-2.7h-5.5l-0.029 10c-0.016 5.6-0.092 15-0.17 22-0.18 15 0.55 18 4 14zm307-15c8.3-4.1 15-7.5 16-7.5s7.3 3.4 16 7.5l15 7.5h245l8.3-4.2c11-5.4 19-14 25-25l3.8-7.7 0.51-804h-23l-1.2 6.7c-11 65-111 63-121-2.2l-0.68-4.5h-480l-0.016 74c-0.0088 41-0.015 221-0.014 400l0.0023 327 2.1 5.6c4.9 13 14 23 27 30l7.9 4h245zm-301-41c0.0089-3.4 0.022-192 0.03-419l0.014-412-11-0.58 0.2 417c0.11 230 0.22 418 0.25 419 0.037 1.4 0.97 1.8 5 1.8h5zm643-413 0.027-419h-11v838h11zm-84-328c31-6 52-43 42-74-19-61-110-49-113 14-2.1 39 31 67 71 60zm-57-83c28-43 94-24 94 28 0 34-31 54-58 50-30-2.9-58-37-36-78zm65 71c38-19 35-74-5.4-88-15-5-24-4.2-40 3.8-8.2 4-20 19-21 27-0.31 1.7-0.84 3.6-1.2 4.2-2.1 3.5-0.76 20 2.2 27 0.73 1.6 2.1 4.6 2.9 6.6 9.2 20 41 30 63 19zm-563-87c2-5.8 6.1-13 9.9-17l2.6-2.8-11-11c-14-13-14-13-14-0.13-0.0087 5.4-0.065 15-0.12 21-0.16 17-0.75 15 5.7 15l5.6-0.3zm640-18c-0.38-28 0.58-27-13-13l-12 12 2.6 2.8c3.3 3.6 8 12 9.6 17 1.8 5.7 1.6 5.5 7.6 5.5h5.5zm-310-11 15-7.5h20l0.35-5.1c0.44-6.5 1.9-5.9-15-5.9h-15l-1.5 3.8c-3.9 9.9-9.1 14-18 15-11 0.89-20-5.7-23-17-0.38-1.3-2.8-1.5-16-1.5l-15 0.05v10l23 1 14 7.2c17 8.7 13 8.8 31-0.2zm-310 2.5c2.9-2.2 8.3-5.2 12-6.7l6.8-2.7v-5.3c0-6.8 0.7-6.6-25-6.2-26 0.43-26 0.015-12 13 5.8 5.6 11 11 11 11 0.63 1.4 2.1 0.75 7.4-3.3zm614-19c-0.65-0.65-9.4-1-24-1h-23v11l5 1.7c5.5 1.9 12 5.7 17 9.6l3 2.5 11-11c7.7-7.7 11-11 10-12zm-314 13c5.1-2.6 11-9.3 11-13 0-0.3-7.9-0.54-18-0.54-19 0-19 0.02-16 4.8 4.3 8.3 15 12 23 8.6zm-62-3.4-0.24-10h-215l-0.1 3.5c-0.22 7.7-5.5 7 55 7.3 30 0.14 74 0.16 98 0.029s48-0.24 53-0.25zm281 0.02 45-0.021v-11l-106 0.037c-122 0.043-109-0.62-109 5.9l0.35 5c57 0.7 113 0.09 170 0.042zm-27 75c-607-132-607-132 0 0zm16 43c0.35-2.3 1.2-5.6 1.8-7.1s1.3-3.9 1.5-5.1c0.17-1.3 0.58-3.2 0.92-4.2 1.9-6.1 2.9-15 1.7-15-4.5-1.3-23 4.1-18-1.3 3.2-3.7-0.95 0.54 4.9-5.6 5.1-5.2 5-6 6.8-8.1 3.5-4.1 7.3-8.5 11-13 5.3-6.3 7.9-9.6 12-14 0.23-0.28-3.6 19-6.2 31l-0.57 2.5 10-0.51c5.7-0.28 11-0.32 11-0.053-2.7 3.1-2.5 4.2-4.9 6.8-1.9 2-6.2 6.5-7.6 8.3-8.1 10-16 20-25 30zm10 391c-0.17-0.17-116-0.4-258-0.51-238-0.18-258-0.32-261-1.9-3.8-2.1-6.9-5.4-9.2-10-1.7-3.4-1.8-12-2.1-161-0.22-135-0.051-158 1.2-162 1.6-5.2 6.5-11 11-13 2.4-1 60-1.2 288-0.82 157 0.26 287 0.7 289 0.98 3.9 0.59 9.8 5.5 12 10 1.5 2.9 1.6 18 1.4 164-0.14 88-0.62 162-1.1 163-1.3 3.4-6 8.6-9.5 11-2.8 1.5-6.9 1.7-32 1.7-16 0.01-29-0.12-30-0.3zm62-4.7c1.8-1.1 4.4-4.1 5.7-6.6l2.5-4.7 0.36-159c0.34-151 0.27-159-1.5-163-1-2.2-3.5-5.2-5.5-6.6l-3.7-2.5-60-0.18c-33-0.099-162-0.33-288-0.51l-228-0.33-3.8 2.5c-2.1 1.4-4.7 4.4-5.8 6.7-2.3 4.6-2.1-18-1.9 239 0.025 50 0.42 81 1.1 83 1.3 4.8 4.4 8.5 9.2 11 3.7 1.9 9.5 1.9 213 1.8 115-0.063 209 0.054 209 0.26 0.21 0.21 35 0.38 77 0.38 74 0 77-0.07 80-2zm-116-69c11 0 2.4-38 15-50 4.2-4 11-7.4 13-6.3 2.1 1.3 4.9 9.1 4.9 14l0.022 4.8-4.5-0.2c-5.5-0.24-8.4 1.3-12 6.1-6.3 8.9-6.4 23-0.16 26l2.4 1.1-3.3 2.9c-3.2 2.8-8.7 5.3-12 5.3-0.76 0-5.5-3.3-3.4-3.3zm-9.1-5.8c0-2-12-13-19-18-9.5-6.1-20-11-25-11-4.7 0-9-2.2-10-5.4-3.2-6.9 2.2-23 12-36 4.2-5.6 15-5.9 17-0.41 0.87 2.5 2.4 3.3 14 7 12 3.9 23 7.1 28 7.9 1.1 0.19 4.3 0.74 7.1 1.2l5.1 0.87-3 1.6c-1.7 0.9-4.6 3.1-6.4 5-9 8.9-18 32-17 44 0.22 2.3 0.049 4.2-0.39 4.2-0.43 0-0.79-0.42-0.79-0.94zm30-4.2c-3.7-1.5-4.7-5.7-2.8-12 2.7-8.4 8.1-13 13-9.7 2.6 1.6 1 13-2.5 18-3.4 4.8-4.1 5.2-7.3 3.9zm-94-36c-1.8-2.1-1.5-9.6 0.45-15 5-14 12-23 17-23 3.8 0 3.8 0.7-0.34 5.1-4.7 5-11 17-13 26-1.1 4.3-2.1 7.9-2.3 8.1-0.2 0.2-1-0.41-1.8-1.3zm-10-5.8c-3.7-2.7-1.8-13 4.6-25 6-11 8-13 13-11l2.4 0.9-2.2 1.5c-4.8 3.4-14 24-14 32 0 3.8-0.66 4.2-3.5 2.2zm-20-2.3c-0.55-1.4-0.99-3.9-0.99-5.4 0-7.7 8.6-27 15-35 5-5.7 8.7-6.4 13-2.3 2.8 2.8 3.2 4.4 1.1 5.2-2.5 0.97-10 14-13 21-1.2 3.7-2.5 9.2-2.8 12-0.35 3-1.1 5.8-1.8 6.3s-3.1 0.75-5.5 0.76c-3.7 0.013-4.5-0.35-5.3-2.6zm-13-5.4-5.3-2.7 2.1-2.9c2.6-3.6 3.5-12 1.8-17-2.8-8.5-9.6-13-20-13-9.4-0.033-17 4.4-18 11-0.34 1.6-1 3.1-1.5 3.4-0.48 0.3-14-5.8-30-14-25-12-44-22-45-22-0.14 0-1 1.6-2 3.7-1.7 3.5-1.7 3.7 0.48 6 3.3 3.5 3.8 9.8 1.2 14-2.7 4.4-6.5 6.4-12 6.3-12-0.26-17-14-8.2-22 2.6-2.4 4.5-3.3 7.2-3.3 3.2 0 3.8-0.44 5.1-3.5 0.81-1.9 1.5-3.9 1.5-4.5 0-1.5-6.2-3.7-9.6-3.4-3.4 0.23-5.3-0.94-8-4.9-3.5-5-1.4-17 5.1-29 4.4-8.1 6.5-11 11-14 6-4.5 16-2.6 16 3 0 1.7 5.9 4.9 7.4 4 1.9-1.1 2.8-4.3 1.5-5.6-2.6-2.6-3.8-8-2.7-12 2.7-10 15-13 22-4.8 3.4 4 4.1 7.3 2.7 12-1.5 5-6.3 8.5-12 9.1-3.6 0.35-4.9 0.94-5.3 2.4-0.58 2.2-0.8 2 8.8 6.7 4 1.9 15 7.1 24 11 16 7.8 30 14 42 20 6 2.8 6 2.8 12 1.1 5.1-1.5 6.2-1.5 11-0.18 4.9 1.5 5 1.5 12-1.9 3.7-1.9 15-7.5 26-13 11-5.4 19-9.8 19-11 0-0.78 0.92-2.2 2-3.3 3-2.7 7.1-0.69 7.1 3.4 0 4-2.2 5.6-6.6 4.8-3.7-0.69-4.7-0.2-32 15-4.2 2.3-10 5.4-13 6.9-5 2.6-6.8 5.3-4.4 6.8 0.5 0.31 1.2 2.1 1.5 3.9 0.55 2.9 1.4 3.7 6.5 5.8 3.2 1.4 6 2.6 6.2 2.8s-1.1 1.9-2.8 3.9c-6.9 7.8-15 28-16 38-0.053 1.9-0.35 3.3-0.66 3.3-0.31-0.046-2.9-1.3-5.8-2.8zm-43-32c1.7-3.7-1.3-8.4-6.3-9.9-3.6-1.1-4.3-0.99-6.1 0.63-4.1 3.7-1.6 11 4.4 13 3.9 1.1 6.5-0.041 8-3.3zm-21-8.7c3.6-6.7-4.4-14-12-11-3.4 1.5-3.5 7.3-0.33 11 2.9 3.1 10 3.4 12 0.39zm-22-9.4c3.4-3.4 3e-3 -11-5.4-13-8.7-2.2-12 6.2-5.2 12 2.5 2 8.8 2.4 11 0.58zm63 45c-8.9-2.2-13-6.4-13-14 0-5 4.2-9.5 10-11 2.4-0.55 5.4-0.71 6.6-0.37 8.8 2.5 12 6.3 12 15 0 8.7-5.9 13-16 10zm-127-64c-1.2-0.46-3-2.1-4-3.7-6.6-11-14-19-23-26-3.4-2.5-6.3-4.8-6.6-5.1-1.2-1.3-9.2-6.1-10-6.1-0.51 0-2.4-1.4-4.2-3.1-2.9-2.7-3.2-3.5-2.6-6.9 0.87-4.7 3.1-8.3 5.8-9.3 1.3-0.49 5.7 0.24 12 2 17 4.7 29 6.4 43 5.7 8.5-0.4 13-0.21 15 0.62 2.7 1.4 3.9 3.7 1.9 3.7-5.1 0-17 14-21 25-0.99 2.8-2.2 5.7-2.6 6.6s-0.9 5-1 9.2c-0.13 4.2-0.32 7.7-0.42 7.8-0.098 0.079-1.2-0.24-2.4-0.7zm-67-52c-5.1-2.4-9-4.9-9.3-5.9-0.64-2.4 1.8-9.1 4.2-11 1.9-1.9 2-1.9 7.4 0.57 3 1.4 7.2 3.1 9.3 3.9 3.3 1.2 5.4 4 2.9 4-1.2 0-4.2 7.6-4.2 11 0 1.4-0.34 2.5-0.76 2.5-0.42-0.019-4.7-1.9-9.6-4.2zm-19-8.7c-6.5-2.9-6.6-3-6.5-7.4 0.11-5.2 1.9-8.7 5.2-10 2.2-0.99 2.9-0.86 4.8 0.91 1.2 1.1 2.7 2.1 3.3 2.1s1.6 0.63 2.2 1.4c0.9 1.1 0.82 1.5-0.33 2-0.82 0.32-2.3 3.3-3.4 6.7l-1.9 6.1zm285-184c0-3.6-0.31-4.5-1.3-3.8-0.7 0.49-4.9 0.89-9.4 0.89l-8.1-8e-3 -0.66-6.9 12 0.89v-3.8c0-2.6-0.41-3.7-1.3-3.5-0.7 0.21-3.4 0.65-6.1 0.97-4.8 0.57-4.8 0.56-4.8-2.5 0-3 0.017-3 6.4-3.2 8.5-0.22 8.1-0.24 11 0.59 2.1 0.67 2.3 0.42 2.3-3.3 0-4.1-1.3-6.2-2.6-4.2-0.37 0.61-1.9 1-3.4 0.93-1.5-0.096-6.8-0.13-12-0.066l-9.1 0.11v30h12c7.2 0 13 0.43 13 1 1.2 1.9 1.5 1 1.5-3.7zm-358 2.5c6.1-1.5 9.6-5.7 9.6-11 0-7.1-6.4-12-16-12-6 0-8.5-2.1-5.8-4.9 2.6-2.6 11-2.3 15 0.56 1.7 1.3 3.3 2.3 3.6 2.3 0.65 0 3.6-5.7 3.6-6.9 0-0.5-3.1-2-6.9-3.3-12-4.2-23-1-24 7.6-0.74 3.9 1.5 8.9 5 11 1.3 0.86 5.5 1.8 9.2 2.2 3.9 0.37 7.5 1.3 8.3 2.2 1.3 1.3 1.3 1.7-0.45 3.5-3.8 3.8-12 2.6-19-3-2.4-1.7-2.5-1.7-1.9 0.45 0.34 1.3 0.057 2.4-0.71 2.7-2.1 0.79-0.62 5.5 1.9 6.1 1.2 0.31 4.5 1.2 7.3 2.1 6.3 1.9 6.7 1.9 12 0.5zm88-2.7 2e-3 -3.8-19 0.65v-7.2l4.8 0.3c2.7 0.17 5.5 0.49 6.4 0.71 1.1 0.3 1.5-0.48 1.5-3.1v-3.5l-13 0.52v-6.4l19 0.71-0.0016-6.5-28-0.62 0.96 2.8c0.53 1.5 0.81 8.5 0.62 15l-0.34 13 13 0.31c7.3 0.17 13 0.41 13 0.54 0.14 0.12 0.26-1.5 0.26-3.6zm28 0 2e-3 -3.8-17 0.66v-11c0-8.3 0.33-11 1.3-11 0.85-0.01 0.76-0.34-0.25-1-0.84-0.54-3.1-0.99-5.1-1l-3.6-0.016v30l12 0.32c6.7 0.18 12 0.42 12 0.54 0.14 0.12 0.26-1.5 0.26-3.6zm68 2.7c1.9-0.64 4.7-2.3 6.3-3.8 2.3-2.1 2.8-3.5 2.8-7.2-0.036-7.3-3.4-10-13-12-9.5-1.3-11-1.7-11-3.7 0-1.1 0.98-2.4 2.2-3.1 3.3-1.8 12-0.61 14 2 1.3 1.2 2.6 2.2 3 2.2 0.75 0 3.8-5.5 3.8-6.9 0-1.2-12-5.4-16-5.3-4.3 0.015-11 2.1-12 4.1-3.8 4.2-3.5 12 0.53 16 1.3 1.2 5.3 2.4 10 3.2 9.2 1.5 11 2.5 9.3 5.2-2.7 4.2-14 3.6-18-0.9-0.95-1.1-2-1.9-2.4-1.9-0.79 0-3.6 8-3 8.4 0.91 0.58 7.7 3 11 3.8 4.5 1.2 7.9 1.2 12-0.13zm70-0.17c4.7-1.6 8.1-7.6 8.1-14 0.036-10-5.2-16-15-16-10-0.0072-16 5.5-16 15 0.016 7.1 2.4 11 8 14 4.6 2.4 9.5 2.7 15 0.84zm-9.1-5.5c-6.4-2.2-8.4-11-3.6-16 3.3-3.3 7.6-3.2 12 0.14 2.5 2.1 3.1 3.4 3.1 6.6 0 6.1-6 11-11 9.4zm44 4.1c7.2-5.4 9.1-13 5.1-21-2.8-5.5-7.4-8.1-14-8.1-8.4 0-15 5-16 12-1.3 8.2 2.6 16 9.1 18 4.8 1.5 13 0.63 16-1.7zm-13-5c-5.8-3.2-6.6-10-1.8-15 2.7-2.7 3.6-3 6.9-2.5 4.4 0.7 8.3 4.7 8.3 8.5 0 3.8-3 8.3-6.5 9.5-3.7 1.3-3.6 1.3-7-0.54zm-255 4.6c-0.61-1.1-0.97-4-0.8-6.4l0.31-4.3h13l0.61 13h4.6c4 0 4.5-0.24 3.9-1.8-0.91-2.2-0.98-25-0.081-27 0.39-0.64-0.89-1.3-3.2-1.7-2.1-0.36-4.7-0.89-5.8-1.2-1.6-0.44-1.8-0.19-1.1 1.4 0.46 1 1 3.9 1.3 6.3l0.44 4.4-14-0.61 0.016-4.6c0.018-5.3-0.69-6.1-5.9-6.1-3.6-0.014-3.8 0.14-2.7 2 0.64 1.2 1.1 7.3 1 15-0.058 6.8-0.081 13-0.051 13s2.1 0.76 4.7 0.76c4.3 0 4.5-0.13 3.5-2.1zm35 0.11c3e-3 -4.8-1.4-25-0.019-26 1.9-1.2 0.15-2.1-4.3-2.4l-4.4-0.23v31l4.9 7.9e-4c4.8 7.9e-4 3.8 0.35 3.8-2zm85 0.58c0 0.28 7.2-5.1 7.6-12 0.53-7.4-1.5-13-6.1-15-2.8-1.7-5.1-2.1-14-2.1l-11-0.0038 0.79 5.9c0.44 3.2 0.69 10 0.58 15l-0.21 9.4h9.5c5.7 0 13 0.76 13-1.4zm-15-14v-9.2h4.1c8.3 0 12 4.6 11 12-0.91 4.1-4.1 6.1-9.9 6.1h-4.9zm79 9.4c-0.2-3.2-0.49-7.3-0.64-9.2s0.032-3.3 0.4-3.3c1.3 0 15 16 15 17-0.099 0.93 1.3 1.3 4.8 1.3 4.5 0 6.3-1.1 4.1-2.4-0.93-0.57-0.59-25 0.37-26 0.67-1.1 0.42-1.2-4.8-1.5l-3.7-0.22 0.46 5.7c0.25 3.1 0.64 7.2 0.86 9 0.22 1.8 0.16 3.3-0.14 3.3-1.2 0-14-15-14-16 0.078-0.74-0.61-1.4-1.5-1.4-0.92-0.04-3.3-0.27-5.2-0.51l-3.6-0.44v31l8.3 2e-3zm103 4.4c-0.66-0.8-1.1-3.4-0.89-5.9l0.32-4.4 7.3-0.12c8.8-0.14 12-1.9 13-6.9 0.83-4.4-0.11-7.4-2.9-9.2-3.1-2-26-2.4-25-0.38 1 2.9 1.2 15 0.29 21l-0.92 6.9h5c4.2 0 4.8-0.23 3.8-1.5zm-0.69-17c0-3.8 0.018-5.2 4.2-5 2.2 0.096 5.1 0.21 6.4 0.25 3.1 0.11 4.1 3 1.7 4.8-2.6 1.9-12 2-12-0.088zm62 13c-0.42-5.9-0.35-6.1 2-6.1 1.3 9e-3 2.9 0.35 3.5 0.76 2 1.3 6.6 9.4 6 10-0.36 0.58 1.7 0.98 5.2 0.98 5.4 0 5.7-0.11 4.3-1.8-0.85-0.98-2.8-3.7-4.2-6.1l-2.7-4.3 2.5-0.95c5.3-2 6.5-11 2-14-2.4-1.9-4.1-2.1-14-2.1h-12v30h8.3zm-0.015-14c0.19-2 0.87-3.4 1.6-3.3 0.7 0.056 3.6 0.17 6.4 0.25 3.6 0.11 5.3 0.62 5.7 1.7 0.99 2.6-1.2 3.7-7.8 4.2l-6.2 0.48z"/><text transform="translate(-22 -53)" x="144.12617" y="663.52429" fill="#000000" font-size="31px" style="inline-size:584.851;line-height:1.1;white-space:pre" xml:space="preserve"><tspan x="144.12617" y="663.52429">Play as part of your Battle Plan. </tspan><tspan x="144.12617" y="697.25769">Counts as both a Shield (projectile </tspan><tspan x="144.12617" y="730.99109">defense) and Snooper (poison </tspan><tspan x="144.12617" y="764.72448">defense). You may keep this card if </tspan><tspan x="144.12617" y="798.45788">you win this battle.</tspan></text><text transform="translate(112 194)" fill="#000000" font-size="33px" style="shape-inside:url(#rect2);white-space:pre" xml:space="preserve"><tspan x="0" y="0">Defense - Special</tspan></text></svg>
