<?xml version="1.0" encoding="UTF-8" standalone="no"?>
<!-- Created with Inkscape (http://www.inkscape.org/) -->

<svg
   width="822"
   height="1122"
   version="1.1"
   viewBox="0 0 822 1122"
   xml:space="preserve"
   id="svg10"
   sodipodi:docname="Stone Burner (Full Res).svg"
   inkscape:version="1.4 (86a8ad7, 2024-10-11)"
   xmlns:inkscape="http://www.inkscape.org/namespaces/inkscape"
   xmlns:sodipodi="http://sodipodi.sourceforge.net/DTD/sodipodi-0.dtd"
   xmlns="http://www.w3.org/2000/svg"
   xmlns:svg="http://www.w3.org/2000/svg"><defs
     id="defs10" /><sodipodi:namedview
     id="namedview10"
     pagecolor="#ffffff"
     bordercolor="#000000"
     borderopacity="0.25"
     inkscape:showpageshadow="2"
     inkscape:pageopacity="0.0"
     inkscape:pagecheckerboard="0"
     inkscape:deskcolor="#d1d1d1"
     inkscape:zoom="0.70710678"
     inkscape:cx="458.20519"
     inkscape:cy="360.62446"
     inkscape:window-width="1742"
     inkscape:window-height="1360"
     inkscape:window-x="1882"
     inkscape:window-y="325"
     inkscape:window-maximized="0"
     inkscape:current-layer="svg10" /><path
     d="m 89,1000 c -4.5,-1.3 -6.7,-2.9 -8.9,-6.5 L 77.9,990 77.953,529 c 0.029,-254 0.072,-465 0.096,-469 0.042,-7.1 0.16,-7.4 4,-12 l 3.9,-4.2 320,-0.26 c 237,-0.19 321,0.035 323,0.87 1.5,0.62 4.1,2.7 5.7,4.5 l 3,3.4 -0.002,469 c -0.002,460 -0.037,469 -1.9,472 -1.1,1.7 -3.4,4 -5.2,5.1 -3.5,2.1 -634,3.6 -641,1.5 z m 44,-8.3 c 0,-4.6 -0.35,-5.9 -1.8,-6.4 -5.7,-1.9 -13,-6 -18,-9.5 l -5.4,-4 -11,11 c -15,15 -16,14 16,14 h 21 z m 219,0.45 0.3,-5.2 -4.3,-0.017 c -2.4,-0.01 -51,-0.012 -108,-0.01 l -104,0.012 -0.32,3.1 c -0.18,1.7 -0.085,4.1 0.21,5.3 l 0.53,2.1 215,-0.15 z m 36,1.1 c 6,-20 35,-20 40,1 0.47,1.9 1.3,2.8 2.9,2.8 3.9,0.12 13,0.13 21,0.03 l 7.7,-0.096 0.69,-10 h -19 l -33,-16 -30,15 h -22 l -0.31,4.4 c -0.51,7 -1,6.8 16,6.6 l 15,-0.2 z m 290,-0.96 -10e-6,-5.2 -42,-0.27 c -23,-0.15 -71,-0.15 -108,-6e-4 l -66,0.27 v 4.9 c 0,6.2 -13,5.5 110,5.5 h 105 z m 50,4.1 c 1.6,-0.92 0.38,-2.5 -10,-13 l -12,-12 -2.5,2.3 c -4.5,4.1 -12,8.6 -18,10 l -5.3,1.7 v 5.2 c 0,4.7 0.24,5.3 2.2,5.6 5.8,0.83 43,0.18 45,-0.77 z m -304,-1.7 c -5,-16 -25,-18 -33,-3.7 -3.1,6 -3.2,5.9 16,5.9 h 18 z m 309,-3 c 1.7,-4.3 0.77,-47 -0.97,-47 -0.99,-0.021 -3.4,-0.28 -5.5,-0.57 -3.5,-0.51 -3.7,-0.38 -4.9,3.3 -2,6 -5.9,13 -9.6,18 l -3.4,4.1 11,11 c 12,12 12,12 13,11 z m -648,-1.5 c 1,-0.96 6.2,-6 11,-11 l 9.6,-9.3 -3.9,-5.2 c -4.2,-5.6 -8.4,-14 -9.4,-18 -0.6,-2.5 -1,-2.7 -6.1,-2.7 h -5.5 l -0.029,10 c -0.016,5.6 -0.092,15 -0.17,22 -0.18,15 0.55,18 4,14 z m 307,-15 c 8.3,-4.1 15,-7.5 16,-7.5 1,0 7.3,3.4 16,7.5 l 15,7.5 h 245 l 8.3,-4.2 c 11,-5.4 19,-14 25,-25 l 3.8,-7.7 0.51,-804 h -23 l -1.2,6.7 c -11,65 -111,63 -121,-2.2 l -0.68,-4.5 h -480 l -0.016,74 c -0.0088,41 -0.015,221 -0.014,400 l 0.0023,327 2.1,5.6 c 4.9,13 14,23 27,30 l 7.9,4 h 245 z m -301,-41 c 0.0089,-3.4 0.022,-192 0.03,-419 l 0.014,-412 -11,-0.58 0.2,417 c 0.11,230 0.22,418 0.25,419 0.037,1.4 0.97,1.8 5,1.8 h 5 z m 643,-413 0.027,-419 h -11 v 838 h 11 z m -84,-328 c 31,-6 52,-43 42,-74 -19,-61 -110,-49 -113,14 -2.1,39 31,67 71,60 z m -57,-83.3 c 28,-43 94,-24 94,28 0,34 -30.8498,54.43084 -57.92096,49.64032 C 599.52799,184.64147 571.37318,150.5744 593,109.89 Z m 65,70.7 c 38,-19 35,-74 -5.4,-88 -15,-5 -24,-4.2 -40,3.8 -8.2,4 -20,19 -21,27 -0.31,1.7 -0.84,3.6 -1.2,4.2 -2.1,3.5 -0.76,20 2.2,27 0.73,1.6 2.1,4.6 2.9,6.6 9.2,20 41,30 63,19 z m -563,-87 c 2,-5.8 6.1,-13 9.9,-17 l 2.6,-2.8 -11,-11 c -14,-13 -14,-13 -14,-0.13 -0.0087,5.4 -0.065,15 -0.12,21 -0.16,17 -0.75,15 5.7,15 l 5.6,-0.3 z m 640,-18 c -0.38,-28 0.58,-27 -13,-13 l -12,12 2.6,2.8 c 3.3,3.6 8,12 9.6,17 1.8,5.7 1.6,5.5 7.6,5.5 h 5.5 z m -310,-11 15,-7.5 h 20 l 0.35,-5.1 c 0.44,-6.5 1.9,-5.9 -15,-5.9 h -15 l -1.5,3.8 c -3.9,9.9 -9.1,14 -18,15 -11,0.89 -20,-5.7 -23,-17 -0.38,-1.3 -2.8,-1.5 -16,-1.5 l -15,0.05 v 10 l 23,1 14,7.2 c 17,8.7 13,8.8 31,-0.2 z m -310,2.5 c 2.9,-2.2 8.3,-5.2 12,-6.7 l 6.8,-2.7 v -5.3 c 0,-6.8 0.7,-6.6 -25,-6.2 -26,0.43 -26,0.015 -12,13 5.8,5.6 11,11 11,11 0.63,1.4 2.1,0.75 7.4,-3.3 z m 614,-19 c -0.65,-0.65 -9.4,-1 -24,-1 h -23 v 11 l 5,1.7 c 5.5,1.9 12,5.7 17,9.6 l 3,2.5 11,-11 c 7.7,-7.7 11,-11 10,-12 z m -314,13 c 5.1,-2.6 11,-9.3 11,-13 0,-0.3 -7.9,-0.54 -18,-0.54 -19,0 -19,0.02 -16,4.8 4.3,8.3 15,12 23,8.6 z m -62.4,-3.42 -0.24,-10 h -215 l -0.1,3.5 c -0.22,7.7 -5.5,7 55,7.3 30,0.14 160.34,-0.8 160.34,-0.8 z m 281.4,0.02033 45,-0.021 v -11 l -106,0.037 c -122,0.043 -109,-0.62 -109,5.9 l 0.35,5 c 57,0.7 113,0.09 170,0.042 z m -4.58751,101.07388 c 6.24771,-4.38015 5.35902,-8.73936 -1.78165,-8.73936 -2.50209,0 -6.75289,-2.00556 -9.44621,-4.45681 -4.08029,-3.71355 -4.62985,-6.58038 -3.29531,-17.19054 0.88089,-7.00356 1.33829,-13.30675 1.01644,-14.00711 -0.32185,-0.70036 1.62704,-3.55189 4.33088,-6.33675 3.46945,-3.57342 4.4627,-3.88084 3.37539,-1.04472 -0.84736,2.21027 0.22889,5.48865 2.39168,7.28528 5.81827,4.83324 4.7972,10.67497 -2.94607,16.855 -6.46396,5.15899 -6.61874,5.74971 -2.56873,9.8035 4.05,4.05378 4.69444,3.89816 10.69498,-2.58257 3.51191,-3.79295 6.38529,-7.87496 6.38529,-9.07114 0,-5.13252 4.69407,-1.57613 6.37338,4.82869 1.83084,6.98276 1.84415,6.98654 4.4812,1.27337 3.76359,-8.15378 14.58914,-7.91273 14.58914,0.32486 0,3.33026 -1.70485,7.47124 -3.78854,9.20217 -2.0837,1.73094 -3.20999,4.08415 -2.50287,5.22936 0.70712,1.14521 0.20114,2.75311 -1.12439,3.5731 -1.32554,0.81999 -3.12924,0.32616 -4.00822,-1.0974 -2.3004,-3.7256 -6.38658,-3.18646 -6.38658,0.84265 0,1.88702 2.57617,4.67455 5.72483,6.19451 4.77418,2.30464 2.99011,2.79218 -10.74362,2.93592 -15.66264,0.16393 -16.18968,-0.0231 -10.77102,-3.82201 z m 29.36939,-24.18001 c -1.95807,-1.9599 -3.11069,-0.80621 -4.03624,4.04001 -1.1829,6.1937 -0.94467,6.43215 2.74074,2.7433 2.88362,-2.88632 3.25358,-4.82341 1.2955,-6.78331 z m -33.93456,-15.43215 c 0,-4.43371 -4.52664,-2.1147 -5.864,3.00413 -1.12312,4.29883 -0.71976,4.69991 2.24762,2.23491 1.98901,-1.65227 3.61638,-4.00984 3.61638,-5.23904 z m -463.44478,-1.42187 c 2.43072,-2.11732 4.41949,-5.21137 4.41949,-6.87566 0,-4.9539 -8.30537,-10.95731 -16.41525,-11.8655 -4.16695,-0.46664 -7.00805,-1.99269 -6.31356,-3.39122 1.26274,-2.54284 8.0189,-3.00803 15.15254,-1.04331 2.14415,0.59053 3.78814,-0.61199 3.78814,-2.77087 0,-2.29014 -3.76532,-4.750779 -9.42336,-6.158178 -7.7464,-1.92686 -10.33057,-1.517343 -14.52119,2.301191 -8.6485,7.880597 -5.06171,19.068397 6.14031,19.152647 2.84742,0.0214 6.88178,1.16567 8.96526,2.54279 3.36723,2.22564 3.36723,2.77993 0,4.98859 -4.0379,2.64856 -13.32786,0.86034 -14.73689,-2.8367 -1.21506,-3.1881 -5.4665,0.004 -5.4665,4.10431 0,4.20747 11.99778,8.58944 18.94067,6.91773 2.77797,-0.66888 7.03962,-2.9485 9.47034,-5.06582 z M 183.5,110.85452 c 0,-9.74735 0.74827,-11.44254 5.05085,-11.44254 2.80602,0 5.05084,-1.69519 5.05084,-3.81418 0,-2.92806 -3.22693,-3.81418 -13.88983,-3.81418 -10.6629,0 -13.88983,0.88612 -13.88983,3.81418 0,2.11899 2.24482,3.81418 5.05085,3.81418 4.30258,0 5.05085,1.69519 5.05085,11.44254 0,8.47596 0.98211,11.44255 3.78813,11.44255 2.80603,0 3.78814,-2.96659 3.78814,-11.44255 z m 42.85286,3.17849 c 3.47302,-6.27946 3.47302,-7.70587 0,-13.98533 -4.72681,-8.54639 -19.53032,-11.0414 -26.1235,-4.40289 -5.27348,5.30973 -5.27348,17.48137 0,22.79111 6.59318,6.6385 21.39669,4.1435 26.1235,-4.40289 z m -19.61896,0.12714 c -5.27655,-5.31283 -1.90259,-17.29096 4.87046,-17.29096 2.55249,0 9.777,7.51576 9.777,10.17115 0,2.6554 -7.22451,10.17115 -9.777,10.17115 -1.01198,0 -3.20368,-1.3731 -4.87046,-3.05134 z m 32.39375,-1.39854 0.0683,-9.53545 8.80463,9.53545 c 12.91184,13.98357 16.31294,12.79074 16.31294,-5.72127 0,-11.86634 -0.84181,-15.25672 -3.78814,-15.25672 -2.67692,0 -3.81596,2.79712 -3.88295,9.53545 l -0.0948,9.53545 -8.11281,-9.53556 c -12.01133,-14.117766 -15.68908,-12.77465 -15.68908,5.72967 0,10.50607 0.98212,15.25043 3.15678,15.24961 1.95186,-7.2e-4 -2.67087,-9.53663 3.22511,-9.53663 z m 58.01642,5.72128 c 0,-2.75469 -2.80603,-3.81419 -10.1017,-3.81419 -5.55593,0 -10.10169,-1.14425 -10.10169,-2.54278 0,-1.39854 2.8411,-2.54279 6.31356,-2.54279 3.6426,0 6.31356,-1.46442 6.31356,-3.46157 0,-2.367 -2.1006,-3.05725 -6.64315,-2.18292 -4.92391,0.94774 -6.32662,0.36293 -5.42008,-2.2597 0.77104,-2.23061 4.62634,-3.43116 10.43129,-3.24832 6.90837,0.2176 9.20907,-0.73503 9.21165,-3.81418 0.003,-3.3856 -2.42915,-3.9517 -13.88983,-3.23318 l -13.89327,0.87103 v 15.02139 15.02139 h 13.88983 c 10.6629,0 13.88983,-0.88613 13.88983,-3.81418 z m 44.74263,2.23352 c 0,-7.07898 9.83479,-10.01097 5.57644,-15.17725 -2.37239,-2.87821 -2.423,-4.51393 -0.20865,-6.74351 7.49944,-7.551 -1.47028,-14.640393 -18.52349,-14.640393 h -13.50993 l -0.83087,19.076823 -0.83088,19.07682 11.36441,-0.0406 c 6.25042,-0.0224 16.96297,1.63757 16.96297,-1.55185 z m -19.48839,-9.86189 c 0,-2.66387 2.66572,-3.81418 8.83898,-3.81418 6.17326,0 8.83898,1.15031 8.83898,3.81418 0,2.66388 -2.66572,3.81418 -8.83898,3.81418 -6.17326,0 -8.83898,-1.1503 -8.83898,-3.81418 z m 0,-15.09561 c 0,-2.86561 2.5261,-3.97529 9.04943,-3.97529 11.41063,0 10.5411,6.00255 -1.0363,7.15377 -5.92097,0.58876 -8.01313,-0.24111 -8.01313,-3.17848 z m 56.64164,22.54235 c 5.42658,-5.46389 5.57305,-29.06043 0.18039,-29.06043 -2.86215,0 -3.78814,3.10785 -3.78814,12.71394 0,11.71476 -0.47494,12.71393 -6.04336,12.71393 -7.36597,0 -9.31052,-4.40885 -7.33921,-16.64009 1.30362,-8.08854 0.89008,-9.18678 -3.16335,-8.40079 -3.81136,0.73905 -4.61022,3.12958 -4.37387,13.08852 0.15904,6.70139 1.66088,13.84852 3.33743,15.88253 4.0311,4.89058 16.20719,4.71957 21.19011,-0.29761 z m 17.06826,-3.23322 c -7.1621,0 5.8982,-7.35942 10.21516,-0.39934 1.73487,2.79707 5.18002,5.08558 7.65589,5.08558 4.16029,0 4.2031,-0.45868 0.5646,-6.0499 -3.53226,-5.42799 -3.53825,-6.20397 -0.0582,-7.54856 4.62237,-1.78597 5.09945,-9.58322 0.84825,-13.86364 -1.66678,-1.67824 -8.48543,-3.05135 -15.15254,-3.05135 h -12.12204 v 14.83293 c 0,8.15811 0.7813,15.6196 1.73623,16.58109 3.27032,3.2928 11.85681,-5.58681 6.31266,-5.58681 z m -0.47262,-15.65606 c 0,-1.39853 3.40933,-2.54279 7.57627,-2.54279 4.16695,0 7.57628,1.14426 7.57628,2.54279 0,1.39853 -3.40933,2.54279 -7.57628,2.54279 -4.16694,0 -7.57627,-1.14426 -7.57627,-2.54279 z m 35.35594,12.21513 v -8.12718 l 8.32785,8.12718 c 4.58031,4.46995 9.59336,8.12717 11.1401,8.12717 1.65861,0 3.16325,-6.26044 3.6679,-15.26136 0.72737,-12.97304 0.21586,-15.26066 -3.41137,-15.25672 -3.09305,0.003 -4.4827,2.58861 -5.05085,9.39641 l -0.7838,9.39177 -6.31356,-9.3744 c -3.47246,-5.155921 -8.30233,-9.38222 -10.73305,-9.39177 -3.71991,-0.0146 -4.4195,2.3977 -4.4195,15.23935 0,11.86634 0.84181,15.25672 3.78814,15.25672 2.57709,0 3.78814,-2.59821 3.78814,-8.12717 z m 58.08474,4.88149 c 0,-2.2531 -3.08926,-2.94905 -10.10169,-2.27571 -8.24664,0.79186 -10.1017,0.16607 -10.1017,-3.40771 0,-3.29841 1.55656,-4.0781 6.31356,-3.16249 4.7582,0.91584 6.31356,0.1361 6.31356,-3.16513 0,-3.30124 -1.55536,-4.08098 -6.31356,-3.16514 -3.51122,0.67582 -6.31356,0.0231 -6.31356,-1.47051 0,-1.47715 4.17381,-3.04086 9.27513,-3.47492 5.10131,-0.43405 9.74178,-2.21951 10.31214,-3.96768 0.75004,-2.29886 -3.03984,-3.17848 -13.69461,-3.17848 H 460.0339 v 15.25673 15.25672 h 14.52118 c 10.09368,0 14.52119,-0.98961 14.52119,-3.24568 z m 12.62712,-3.11129 c 0,-3.49633 1.1608,-6.35697 2.57957,-6.35697 1.41876,0 3.87405,2.86064 5.45621,6.35697 1.58216,3.49633 4.96712,6.35697 7.52213,6.35697 5.30724,0 5.9771,-2.72768 1.722,-7.01204 -2.21435,-2.22958 -2.16733,-3.86094 0.19386,-6.72556 1.71454,-2.0801 2.74599,-6.41955 2.29213,-9.64322 -0.73725,-5.23641 -2.37323,-5.942535 -15.34641,-6.62383 l -14.52119,-0.76259 v 15.38362 c 0,13.68843 0.55658,15.38362 5.05085,15.38362 3.70396,0 5.05085,-1.69519 5.05085,-6.35697 z m -1.26271,-13.98533 c -0.91307,-1.48753 1.70707,-2.54279 6.31356,-2.54279 4.60648,0 7.22662,1.05526 6.31356,2.54279 -0.85844,1.39853 -3.69954,2.54279 -6.31356,2.54279 -2.61402,0 -5.45512,-1.14426 -6.31356,-2.54279 z m 183.00463,112.37326 c -4.88108,0 -10.78288,0.10404 -18.02539,0.47656 -15.47257,0.79582 -63.07784,1.56864 -105.78906,1.7168 -53.16196,0.18442 -77.65625,1.12541 -77.65625,2.98242 0,1.87511 14.91656,2.28778 48.3125,1.33594 0,0 80.86841,-1.63947 110.9707,-1.91602 48.94411,0 58.13619,0.59736 61.51172,3.99609 3.44154,3.46521 3.9668,14.74433 3.9668,84.94727 v 104.99023 21.82813 l -22.09571,0.95898 c -12.15359,0.52644 -48.04026,1.22038 -79.74804,1.54297 -54.26396,0.55208 -62.80274,0.41602 -62.80274,0.41602 h -18.75781 -18.75781 c 0,0 -2.39787,2.24204 -2.39844,3.22851 -0.002,2.40081 12.80778,2.95954 55.17383,2.40039 48.68452,-0.64254 55.58165,-0.23673 58.62305,3.45313 2.95931,3.59027 2.78358,4.66926 -1.23633,7.6289 -2.57526,1.89602 -5.94122,3.97396 -7.48047,4.61719 -5.40053,2.25679 4.66318,6.56108 16.14258,6.9043 6.25042,0.18689 14.77445,1.07499 18.9414,1.97461 l 7.57618,1.63672 -9.1504,5.69922 c -7.20569,4.4887 -19.28066,7.04917 -56.82226,12.04882 -26.21956,3.49183 -48.52467,6.34957 -49.56641,6.34961 -4.47538,1.9e-4 -1.36006,5.42113 4.41993,7.69141 3.47244,1.36392 9.31146,3.65609 12.97656,5.09375 3.66509,1.43766 6.16707,3.1139 5.55859,3.72656 -0.60847,0.61265 -20.93912,5.27682 -45.17773,10.36328 -24.23861,5.08647 -45.12939,10.25523 -46.42578,11.48633 -5.10691,4.84975 1.59953,5.17855 19.40039,0.95313 l 18.63867,-4.42383 28.54297,8.39844 28.54297,8.39843 -8.50196,4.58399 c -26.97928,14.54324 -28.85127,14.78995 -125.85351,16.58594 l -90.69336,1.67968 -16.60742,-10.89453 c -16.19318,-10.62279 -16.98044,-10.85079 -31.71875,-9.17187 -8.31263,0.94693 -15.11329,1.25944 -15.11329,0.69336 0,-3.58148 30.99068,-22.11322 37.01954,-22.13672 11.71994,-0.0457 26.11523,-3.01733 26.11523,-5.39063 0,-1.21555 -6.83647,-2.20898 -15.19141,-2.20898 -12.02794,0 -17.94249,1.53293 -28.41015,7.36133 -12.64883,7.0429 -13.98452,7.2573 -30.89844,4.99218 -29.84816,-3.99727 -88.61325,-16.68327 -84.60156,-18.26367 2.08347,-0.82078 25.16633,-3.30145 51.29492,-5.51367 77.35921,-6.54971 78.00077,-6.9976 36.59961,-25.47656 -12.0783,-5.39102 -21.38672,-10.73659 -20.68555,-11.87891 0.70117,-1.14231 9.57331,-2.07617 19.71485,-2.07617 23.6992,0 41.87304,-2.52872 41.87304,-5.82617 0,-3.19328 -71.76257,-0.34361 -77.85937,3.09179 -4.5138,2.54342 -6.92701,0.82447 29.875,21.28516 l 18.9414,10.5293 -17.67773,2.0625 c -73.92397,8.61768 -111.13275,9.10435 -118.63281,1.55273 -0.8443,-0.85011 3.34192,-3.57283 9.30273,-6.04883 l 10.83789,-4.5 -16.41406,-4.9414 c -19.72331,-5.93703 -22.83161,-8.36253 -13.68555,-10.67383 3.788,-0.95726 18.92877,-7.23945 33.64649,-13.96094 l 26.75976,-12.2207 51.76953,-1.60547 c -3.66022,0.11352 47.18916,-9.18367 57.45508,-1.61719 3.12521,-0.007 5.68164,-1.15811 5.68164,-2.55664 0,-1.44952 -7.49201,-2.54101 -17.42578,-2.54101 H 270.3418 c -24.96044,-1.81605 -56.30608,1.29936 -82.42774,1.83007 l -77.38476,1.5 0.73437,-22.64453 -0.0566,-106.78125 0.79297,-80.32617 5.96289,-4.85742 c 5.46772,-4.45518 10.60204,-4.24124 61.90625,-4.85938 74.49902,-0.8976 177.6368,-2.00195 223.18555,-2.21679 37.84979,-0.17853 68.81939,-1.18352 68.82031,-2.23243 9.2e-4,-1.04889 -79.13412,-1.27244 -175.85547,-0.49609 l -175.85742,1.41211 -5.97461,6.99414 c -6.64886,7.7829 -6.73556,10.76447 -7.09961,244.04297 l -0.13867,88.58008 7.26953,6.29883 7.27148,6.30078 184.66211,-1.61719 c 101.56395,-0.88899 197.1626,-2.01835 212.44141,-2.50977 15.27881,-0.49142 61.00158,-0.97981 101.60742,-1.08593 l 73.83008,-0.19336 7.38477,-6.99219 7.38476,-6.99414 1.29297,-162.73828 c 0.97079,-122.10138 0.5564,-163.74441 -1.66211,-166.77149 -4.89415,-6.67787 -10.34308,-9.46093 -24.98633,-9.46093 z m -269.38476,73.23437 c -9.98326,-0.30655 -10.375,0.75336 -10.375,4.72852 0,4.97658 1.28396,5.43938 14.52148,5.23633 21.78492,-0.33419 40.35166,-3.24286 36.52344,-5.72071 -1.78879,-1.15781 -14.00566,-2.74956 -27.14844,-3.53906 -5.80003,-0.34841 -10.19373,-0.6029 -13.52148,-0.70508 z m -27.41993,0.12891 c -6.59766,0.0617 -17.67813,1.64012 -24.62304,3.50781 -10.52281,2.82989 -11.57585,3.60087 -6.31446,4.62695 3.47247,0.6772 14.55292,1.38569 24.62305,1.57618 16.74035,0.31661 18.3086,-0.0885 18.3086,-4.73829 0,-4.38756 -1.64482,-5.06945 -11.99415,-4.97265 z M 453.125,299.9668 c -3.7763,-9.1e-4 -8.98529,0.23894 -14.71484,0.71875 -11.45911,0.9596 -23.9596,1.83605 -27.7793,1.94726 -4.37316,0.12732 -6.94531,1.60305 -6.94531,3.98438 0,3.14817 3.27928,3.5351 19.57226,2.3125 20.10616,-1.50873 35.98828,-5.14388 35.98828,-8.23828 0,-0.48118 -2.34479,-0.72371 -6.12109,-0.72461 z m -94.54102,1.36523 c -4.42475,-0.0682 -7.32673,0.0473 -7.63867,0.36133 -2.40907,2.42563 2.92315,4.81295 14.33399,6.41797 21.52019,3.02698 33.35547,2.64165 33.35547,-1.08594 0,-2.53007 -6.14567,-3.83948 -23.27735,-4.95703 -6.40148,-0.41759 -12.34868,-0.66811 -16.77344,-0.73633 z m 45.10547,13.70899 c -36.58537,0.73693 -37.88476,0.9469 -37.88476,6.11328 0,3.09538 -4.25691,9.01747 -10.10157,14.05468 -5.55592,4.78837 -10.10156,10.45726 -10.10156,12.59571 0,2.3737 -1.44374,3.32956 -3.70703,2.45508 -2.039,-0.78781 -4.35852,-0.37263 -5.1543,0.92382 -0.79578,1.29645 1.72506,3.06316 5.60157,3.92579 3.87651,0.86259 8.18524,2.01589 9.57422,2.5625 4.1285,1.62463 105.46604,-0.89545 113.01171,-2.81055 8.04327,-2.04139 9.3197,-6.25586 1.89454,-6.25586 -2.77796,0 -5.05079,-1.65892 -5.05079,-3.68555 0,-2.02663 -3.74125,-6.55577 -8.3125,-10.0664 -7.68871,-5.90479 -9.72266,-6.27092 -27.14843,-4.8711 -10.36032,0.83225 -20.07697,2.49291 -21.59375,3.68946 -3.67485,2.89897 -6.08203,0.13507 -6.08203,-6.98438 0,-5.46717 0.73863,-5.72613 12.39648,-4.33594 14.91147,1.77819 30.53602,-0.78574 30.54102,-5.01172 0.003,-2.28705 -9.59738,-2.86857 -37.88282,-2.29882 z m 47.75586,31.33789 c 0.76275,-0.0729 1.51553,0.13639 2.11719,0.74218 0.85672,0.86262 0.34233,2.79394 -1.14453,4.29102 -1.8137,1.82618 -3.22694,1.86955 -4.29297,0.13281 -1.34513,-2.19144 1.03208,-4.94744 3.32031,-5.16601 z m -92.64258,2.11328 c 1.04067,-0.17691 1.98444,0.43682 2.14063,1.95703 0.10418,1.01393 -1.17306,2.29996 -2.83984,2.85937 -1.66678,0.55941 -2.57708,-0.35496 -2.02149,-2.0332 0.54261,-1.639 1.68004,-2.6063 2.7207,-2.7832 z m 75.76368,0 c 1.04066,-0.17691 1.98443,0.43682 2.14062,1.95703 0.10417,1.01393 -1.17502,2.29996 -2.8418,2.85937 -1.66678,0.55941 -2.57513,-0.35496 -2.01953,-2.0332 0.5426,-1.639 1.68004,-2.6063 2.72071,-2.7832 z m -58.50977,0.11328 c 1.30701,0 2.375,1.71665 2.375,3.81445 0,3.93219 -2.98013,5.05115 -5.82422,2.1875 -2.01764,-2.03151 0.26472,-6.00195 3.44922,-6.00195 z m 20.05274,0 c 1.38895,0 2.52539,1.71665 2.52539,3.81445 0,2.09779 -1.13641,3.81443 -2.52539,3.81446 -1.38899,0 -2.5254,-1.71667 -2.5254,-3.81446 0,-2.0978 1.13641,-3.81445 2.5254,-3.81445 z m 21.46679,0 c 2.08348,0 3.78906,1.14444 3.78906,2.54297 0,1.39853 -1.70558,2.54297 -3.78906,2.54297 -2.08347,0 -3.78711,-1.14444 -3.78711,-2.54297 0,-1.39853 1.70364,-2.54297 3.78711,-2.54297 z m 69.75195,4.82031 c -2.62844,-0.48175 -6.65531,1.30947 -12.8789,4.43555 -5.09218,2.55778 -20.13198,5.12339 -38.90039,6.63672 -37.31045,3.0084 -36.91406,2.89891 -36.91406,10.21875 0,13.15999 15.12188,16.83574 20.7207,5.03711 3.67463,-7.7437 12.76983,-10.44458 18.64258,-5.53711 2.31131,1.9314 3.51605,6.75939 3.16797,12.69922 -0.61762,10.53929 2.73038,15.97048 14.29101,23.17968 10.39358,6.48144 37.99231,5.67566 37.67188,-1.09961 -0.11575,-2.44743 -0.39937,-15.89162 -0.63086,-29.87695 -0.29421,-17.77372 -0.78914,-24.89044 -5.16993,-25.69336 z m -167.58789,1.26563 c -0.85166,-0.0643 -1.49284,0.007 -1.84961,0.22851 -1.42703,0.88801 -2.59374,6.56163 -2.59374,12.60938 0,8.85741 0.98222,11.25491 5.05078,12.32617 2.77796,0.73145 5.05078,2.58187 5.05078,4.11133 0,1.52946 -2.27282,2.77929 -5.05078,2.77929 -2.77797,0 -5.05081,1.14444 -5.05078,2.54297 0,1.39853 2.27281,2.54297 5.05078,2.54297 2.80602,0 5.05078,1.69546 5.05078,3.81445 0,2.39672 -2.40197,3.81446 -6.46289,3.81446 -3.66531,0 -5.78757,1.1008 -4.90235,2.54297 0.85844,1.39853 3.7669,2.54297 6.46289,2.54297 2.69599,-10e-6 4.90235,1.14443 4.90235,2.54296 0,1.39854 -2.84201,2.54297 -6.31446,2.54297 -6.73451,0 -6.55041,-0.92858 -7.41796,37.50586 -0.12026,5.32777 1.16447,7.18112 5.39453,7.78711 9.68083,1.38686 15.91406,-3.8673 15.91406,-13.41601 0,-10.28268 4.60346,-15.55903 15.7207,-18.01758 4.50811,-0.99695 10.50118,-3.33479 13.31836,-5.19336 11.2854,-7.44532 25.61955,10.55988 15.28321,19.19726 -2.30548,1.92653 -3.91602,7.32774 -3.91602,13.13282 0,8.22142 0.85497,9.85937 5.14062,9.85937 8.98348,0 17.5879,-7.53543 17.5879,-15.40039 0,-3.95221 -1.13642,-7.89152 -2.5254,-8.75586 -3.90212,-2.42822 -2.98826,-11.7996 1.6543,-16.96484 5.03881,-5.60611 10.43373,-5.93118 15.89258,-0.95703 2.22933,2.0314 8.52459,5.17956 13.99023,6.99414 6.60337,2.1923 12.51197,6.8375 17.61133,13.8457 9.18586,12.62441 15.75036,16.16339 29.89063,16.11719 19.70677,-0.0645 21.97851,-1.61942 21.97851,-15.04492 v -11.94336 l -14.52148,0.98047 c -19.36507,1.30855 -39.81263,-8.62499 -47.35156,-23.00391 -3.99607,-7.62169 -6.1055,-9.30443 -10.10157,-8.05859 -21.29091,6.63772 -33.12759,4.11351 -38.21679,-8.1504 -2.13572,-5.1466 -3.07634,-12.05177 -2.19336,-16.0996 l 1.54687,-7.0879 -20.97461,-1.76171 c -12.34846,-1.03708 -25.36058,-3.84391 -31.63867,-6.82618 -4.39885,-2.08958 -8.85517,-3.48694 -11.41016,-3.67968 z m 4.39454,11.71289 c 2.08348,0 3.78906,1.14444 3.78906,2.54297 0,1.39854 -1.70558,2.54296 -3.78906,2.54296 -2.08347,0 -3.78711,-1.14442 -3.78711,-2.54296 0,-1.39853 1.70364,-2.54297 3.78711,-2.54297 z m 66.92382,0 c -4.23592,0 -2.90612,20.78943 1.6543,25.86328 4.65211,5.17586 19.94444,6.27588 26.12695,1.8789 2.82286,-2.0076 1.39941,-2.29821 -5.58593,-1.13671 -12.11104,2.01377 -19.66993,-4.78846 -19.66993,-17.70508 0,-4.89486 -1.1364,-8.90039 -2.52539,-8.90039 z m 87.12696,0 c 2.08348,0 3.78906,1.07655 3.78906,2.39258 0,3.20638 -3.9433,5.50416 -5.96094,3.47265 -2.84409,-2.86365 -1.73346,-5.86523 2.17188,-5.86523 z m -137.63477,5.08593 c 1.38898,0 2.52539,1.14443 2.52539,2.54297 0,1.39853 -1.13641,2.54297 -2.52539,2.54297 -1.38899,0 -2.52539,-1.14444 -2.52539,-2.54297 0,-1.39854 1.1364,-2.54297 2.52539,-2.54297 z m 116.31836,0 c 1.30701,0 2.37695,1.71666 2.37695,3.81446 0,3.93219 -2.98013,5.05115 -5.82421,2.1875 -2.01763,-2.03151 0.26276,-6.00196 3.44726,-6.00196 z m -89.80078,2.54297 c 2.08347,0 3.78711,1.07658 3.78711,2.39258 0,3.2064 -3.9433,5.50221 -5.96094,3.4707 -2.84409,-2.86365 -1.73151,-5.86328 2.17383,-5.86328 z m 62.63476,3.14453 c -1.19002,-0.11695 -2.40651,0.12037 -3.51562,0.81055 -2.71464,1.68927 -3.05955,9.68671 -0.52734,12.23633 3.33627,3.35921 9.59419,0.28582 10.35937,-5.08789 0.57933,-4.06859 -2.7463,-7.60813 -6.31641,-7.95899 z m 5.34766,22.04493 c -2.16954,-0.84467 -0.59879,2.94271 5.47852,10.21484 3.59593,4.30291 7.57433,7.82227 8.83984,7.82227 3.59342,0 2.90389,-1.1863 -6.53906,-11.26758 -3.82981,-4.0887 -6.47757,-6.26273 -7.7793,-6.76953 z m 22.84375,18.71875 c -0.72403,0.19664 -1.17383,0.67954 -1.17383,1.40234 0,1.44562 1.98921,3.15339 4.41992,3.79297 8.58952,2.26011 30.6594,1.7176 32.19922,-0.79102 0.97404,-1.58687 -4.11487,-2.54297 -13.53515,-2.54297 -8.30227,0 -16.89277,-0.69407 -19.08985,-1.54296 -1.09853,-0.42445 -2.09627,-0.51501 -2.82031,-0.31836 z m -55.06055,3.11914 c -1.19249,0.0387 -2.28347,0.81018 -3.79687,2.33398 -1.98933,2.00303 -2.92872,5.44806 -2.08789,7.6543 1.96915,5.1668 5.31213,5.08182 10.625,-0.26758 3.98117,-4.00854 3.96014,-4.48936 -0.33594,-7.65234 -1.91828,-1.41232 -3.2118,-2.1071 -4.4043,-2.06836 z m -32.9375,1.70507 c -5.4161,-1.0502 -9.32661,3.76549 -7.32421,9.01954 0.74277,1.94893 3.76251,3.197 6.71093,2.77343 6.82823,-0.98096 7.32296,-10.49189 0.61328,-11.79297 z m -17.3496,4.88477 C 343.6367,427.36998 335.5,435.57401 335.5,444.83789 c 0,9.83056 -7.82664,16.56411 -17.57812,15.12305 -5.26014,-0.77733 -7.67579,-0.0737 -7.67579,2.23828 0,4.73318 15.19389,4.33306 22.16602,-0.58399 4.13481,-2.91604 5.61328,-6.51653 5.61328,-13.67382 0,-10.49415 3.26638,-14.57307 14.35938,-17.92579 l 7.10742,-2.14648 z m 65.85742,0.0137 c -1.32853,-0.10513 -2.08985,0.47653 -2.08985,1.86328 0,1.34116 2.55643,3.12368 5.68164,3.96094 3.12521,0.83725 8.95903,6.22062 12.96485,11.96289 4.00582,5.74227 10.82426,12.61417 15.15234,15.27149 10.02907,6.15757 47.01367,7.16239 47.01367,1.27734 0,-2.8196 -3.14823,-3.28445 -14.92773,-2.20898 -21.16963,1.9328 -27.41838,-0.42744 -41.8086,-15.79102 -8.9162,-9.51931 -18.00075,-16.02054 -21.98632,-16.33594 z m -65.06446,6.23438 c -0.99187,0.13497 -2.09087,0.44985 -3.30859,0.91601 -5.35617,2.05041 -6.9367,4.74627 -8.35156,14.2461 -1.95204,13.10662 -6.69705,17.46101 -21.96289,20.15625 -7.92046,1.39838 -9.47071,2.69382 -9.47071,7.91406 0,3.43296 0.85282,6.30807 1.89453,6.38867 1.04175,0.0806 9.84744,2.30362 19.57032,4.93945 9.72289,2.63582 20.51974,4.85219 23.99218,4.92579 l 6.31446,0.13281 -0.0332,-26.05078 c -0.0326,-26.63509 -1.70143,-34.51314 -8.64454,-33.56836 z m 63.05274,3.81445 c -1.75463,-0.21223 -3.34582,0.05 -4.64649,0.85938 -1.28049,0.79684 -2.95258,6.14213 -3.71679,11.8789 -1.81709,13.64058 -7.14089,19.15615 -22.25586,23.05664 -11.53878,2.97763 -12.39258,3.74891 -12.39258,11.19336 0,4.39738 0.8528,8.90027 1.89453,10.00586 3.56502,3.78353 70.34984,-0.8605 95.27344,-6.625 21.93086,-5.07232 24.05273,-6.08733 24.05273,-11.49414 0,-5.64974 -0.84057,-5.92969 -17.77929,-5.92969 -21.9079,0 -34.12383,-5.62865 -43.64258,-20.11132 -4.7859,-7.28173 -11.52323,-12.19728 -16.78711,-12.83399 z m 290.34375,0.35742 v 9.9375 c 0,9.15068 -0.54797,9.93515 -6.94336,9.91407 -4.54845,-0.015 -9.12481,2.52344 -13.25977,7.35546 -5.46655,6.38809 -8.67519,7.60191 -23.91992,9.05078 l -17.60742,1.67383 6.04297,-6.47656 c 3.32308,-3.56152 5.35923,-7.16238 4.52539,-8.00195 -0.83384,-0.83957 -9.83419,-2.28861 -20.00195,-3.22071 -18.19001,-1.66752 -18.38603,-1.76057 -12.17383,-5.83007 8.09373,-5.30206 38.67896,-11.62654 63.76758,-13.18555 z m -303.57227,0.80469 -2.40625,9.07031 c -2.54966,9.61188 -12.59173,17.62891 -22.08398,17.62891 -2.91091,0 -5.29297,1.29348 -5.29297,2.875 0,3.87609 16.36806,1.11652 24.25976,-4.08984 4.89178,-3.22727 5.99633,-6.04064 5.78516,-14.73633 z m 228.08203,1.26953 c 5.8694,0 10.19788,0.40787 9.61914,0.90625 -2.89242,2.49079 -17.46598,3.69747 -18.78125,1.55469 -0.88139,-1.43593 2.93169,-2.46094 9.16211,-2.46094 z m -261.21484,1.84375 c -0.32698,-0.63994 -0.84234,0.54203 -1.70117,3.24219 -1.11208,3.49633 -2.13499,8.3592 -2.27344,10.80664 -0.13845,2.44743 0.88446,4.45117 2.27344,4.45117 1.38898,0 2.41189,-4.86288 2.27344,-10.80664 -0.10693,-4.59027 -0.24529,-7.05342 -0.57227,-7.69336 z m -258.66211,3.25195 c 0.34725,0.005 8.8605,3.23888 18.91992,7.18555 l 18.29102,7.17578 -16.44531,6.80078 c -9.04519,3.74012 -17.5604,6.79883 -18.92188,6.79883 -1.36148,0 -2.47656,-6.29244 -2.47656,-13.98437 0,-7.69193 0.28557,-13.98157 0.63281,-13.97657 z m 42.30078,0.27344 c 19.84389,-0.0955 20.98879,0.1719 15.15235,3.53125 -7.77983,4.47794 -16.23067,4.47794 -27.7793,0 -8.53974,-3.31125 -8.11241,-3.43145 12.62695,-3.53125 z m 547.31641,17.51758 c 5.72019,0 5.75,0.19731 5.75,36.86914 0,22.88508 -0.95788,36.87109 -2.52539,36.87109 -1.38898,0 -2.60357,-3.14622 -2.70117,-6.99218 -0.39445,-15.53956 -2.16233,-16.75364 -23.47852,-16.12696 -10.73595,0.31564 -21.72223,0.99952 -24.41406,1.52149 -7.2788,1.4114 -41.29115,-26.86334 -36.06641,-29.98242 1.13222,-0.67591 16.26466,-2.73859 33.62695,-4.58399 29.41481,-3.12645 31.99381,-3.84098 37.8125,-10.4668 3.43452,-3.91091 8.83295,-7.10937 11.9961,-7.10937 z m -333.75,7.55859 c -0.7529,0 -0.63779,2.67535 -0.64844,8.96875 -0.0142,8.3912 0.44524,12.13147 1.02149,8.31055 0.57625,-3.82092 0.58742,-10.68753 0.0254,-15.25781 -0.14052,-1.14257 -0.14747,-2.02149 -0.39844,-2.02149 z m -46.88867,2.61133 c 1.38898,0 2.52539,1.14444 2.52539,2.54297 0,1.39853 -1.13641,2.54297 -2.52539,2.54297 -1.38899,0 -2.52539,-1.14444 -2.52539,-2.54297 0,-1.39853 1.1364,-2.54297 2.52539,-2.54297 z m 160.36328,2.54297 c 2.08348,0 3.78906,1.07658 3.78906,2.39258 0,3.2064 -3.9433,5.50416 -5.96094,3.47266 -2.84409,-2.86366 -1.73346,-5.86524 2.17188,-5.86524 z m -141.42188,2.54297 c 2.08347,0 3.78711,1.07658 3.78711,2.39258 0,3.20639 -3.9433,5.50221 -5.96094,3.4707 -2.84409,-2.86365 -1.73152,-5.86328 2.17383,-5.86328 z m 119.73242,0.31641 c 0.76275,-0.0729 1.51553,0.13639 2.11719,0.74218 0.85673,0.86261 0.34232,2.79394 -1.14453,4.29102 -1.81371,1.82618 -3.22694,1.86954 -4.29297,0.13281 -1.34513,-2.19144 1.03208,-4.94744 3.32031,-5.16601 z m -28.60742,2.22656 c 2.19922,0 3.54786,1.35878 2.99805,3.01953 -1.5609,4.7149 -6.99609,5.49624 -6.99609,1.00586 0,-2.21434 1.79882,-4.02539 3.99804,-4.02539 z m -314.78711,0.57422 c 0,-0.76754 1.64294,-0.0469 2.66016,0.0918 2.71257,0.36995 6.39389,1.45042 11.39062,2.77149 l 12.62696,3.33789 -10.97657,5.68945 c -6.03776,3.12931 -10.55241,6.11784 -10.03124,6.64258 2.16437,2.17925 65.88606,21.57813 70.88085,21.57812 7.71762,10e-6 3.40991,2.98842 -17.69531,12.2754 -10.08235,4.43656 -20.31002,7.83843 -22.72851,7.56054 -2.4185,-0.27788 -12.6369,-0.90016 -22.70703,-1.38281 l -18.31055,-0.87695 v -29.13086 c 0,-21.26097 4.89062,-23.1839 4.89062,-28.55664 z m 281.7461,1.96875 c 2.08348,0 3.78711,1.71665 3.78711,3.81445 0,3.97075 -2.98674,5.04496 -5.89258,2.11914 -2.90584,-2.92582 -1.83817,-5.93359 2.10547,-5.93359 z m 203.7207,3.55859 c 2.72081,-0.79199 11.21773,5.17843 23.99219,16.86133 l 19.77929,18.08984 24.6211,-1.66015 24.62305,-1.65821 v 7.625 c 0,11.06223 2.38668,15.66797 8.11718,15.66797 3.56815,0 4.6005,1.18005 3.51758,4.02149 -0.8431,2.21218 -1.5332,4.94356 -1.5332,6.06836 0,1.1248 -3.86378,3.89128 -8.58789,6.14843 -7.01447,3.35147 -17.31761,4.06629 -56.19141,3.90235 -26.18076,-0.11041 -49.30519,-0.81572 -51.38867,-1.56836 -18.89561,-6.82595 -25.73464,-11.11214 -23.00977,-14.41797 4.12599,-5.00571 -0.12405,-7.71032 -22.44922,-14.29688 -10.41738,-3.07342 -19.85956,-6.46506 -20.98242,-7.53515 -1.12286,-1.07009 5.12837,-3.328 13.89063,-5.01953 21.84964,-4.21802 34.87304,-8.21897 34.87304,-10.71289 0,-1.15036 -5.22016,-4.76297 -11.59961,-8.02735 l -11.5996,-5.93554 24.85742,-3.16407 c 13.67159,-1.73999 26.75334,-3.71424 29.07031,-4.38867 z m -133.83594,8.85156 c 0,4.38443 -10.48453,4.83363 -11.56836,9.18164 -1.89504,7.60234 -6.54492,8.52077 -6.54492,1.29297 0,-2.79707 -1.1364,-5.08594 -2.52539,-5.08593 -1.38898,0 -2.52539,2.28886 -2.52539,5.08593 0,2.98838 -1.68492,5.08594 -4.08398,5.08594 -2.83935,0 -3.6803,-1.54913 -2.76172,-5.08594 0.72645,-2.79707 0.37132,-5.08594 -0.79102,-5.08593 -1.16235,0 -2.47802,2.33502 -2.92187,5.1875 -1.06258,6.82874 -5.62861,6.66354 -6.69532,-0.24219 -0.64805,-4.19534 -2.08299,-5.09205 -6.31445,-3.94922 -3.01129,0.81328 -10.30386,1.49262 -16.20703,1.51172 l -10.73438,0.0351 v 16.89258 16.89063 l 19.57227,-1.43946 c 10.76462,-0.79178 25.25431,-2.82133 32.19922,-4.50976 12.12075,-2.94675 12.90822,-3.68277 19.61133,-18.37891 3.84072,-8.42056 6.44968,-15.84665 5.79882,-16.50195 -0.80306,-0.8086 -3.50781,-2.34625 -3.50781,-0.88477 z m -133.60547,1.32618 c -0.32181,0.31918 2.94084,8.06461 7.25,17.21289 l 7.83399,16.63281 14.21679,2.53906 c 24.37969,4.35386 23.05469,4.95718 23.05469,-10.5 0,-20.42752 -1.00627,-21.80335 -16.05273,-21.93164 -7.14355,-0.0609 -18.10309,-1.106 -24.35352,-2.32227 -6.25042,-1.21626 -11.6274,-1.95009 -11.94922,-1.63085 z m 42.10547,9.14843 c 1.30701,0 3.07906,1.14444 3.9375,2.54297 0.85843,1.39854 -0.2115,2.54297 -2.37695,2.54297 -2.16544,0 -3.9375,-1.14443 -3.9375,-2.54297 0,-1.39853 1.06994,-2.54297 2.37695,-2.54297 z m 26.94727,0.97461 c 0.30186,-0.0135 0.63322,0.0808 0.98047,0.29688 1.38898,0.86434 2.52539,2.64884 2.52539,3.96484 0,1.31599 -1.13641,2.39258 -2.52539,2.39258 -1.38898,0 -2.52539,-1.78454 -2.52539,-3.96484 0,-1.63527 0.63932,-2.64907 1.54492,-2.68946 z m -25.53516,9.19727 c 2.08348,0 3.78711,1.14444 3.78711,2.54297 0,1.39854 -1.70363,2.54296 -3.78711,2.54296 -2.08347,0 -3.78906,-1.14442 -3.78906,-2.54296 0,-1.39853 1.70559,-2.54297 3.78906,-2.54297 z m 24.56446,2.42969 c 1.04066,-0.17692 1.98443,0.43486 2.14062,1.95507 0.10417,1.01394 -1.17306,2.30192 -2.83984,2.86133 -1.66678,0.55941 -2.57709,-0.35496 -2.02149,-2.0332 0.5426,-1.639 1.68001,-2.60631 2.72071,-2.7832 z m -193.76758,5.93554 15.15234,3.55469 c 8.3339,1.95446 23.1072,4.37213 32.83008,5.37305 l 17.67773,1.82031 -19.16601,14.59961 -19.16406,14.59961 h -31.85547 -31.85743 l -2.57421,-9.39258 c -1.41662,-5.16586 -2.32328,-9.6093 -2.01368,-9.875 0.30959,-0.2657 9.65572,-5.02838 20.76758,-10.58203 z m 170.46484,1.80469 c 1.38899,0 2.52539,1.14444 2.52539,2.54297 0,1.39853 -1.1364,2.54297 -2.52539,2.54297 -1.38898,0 -2.52539,-1.14444 -2.52539,-2.54297 0,-1.39853 1.13641,-2.54297 2.52539,-2.54297 z m 22.72852,0 c 1.38898,0 2.52539,1.71665 2.52539,3.81445 0,2.09779 -1.13641,3.81446 -2.52539,3.81446 -1.38899,0 -2.52539,-1.71667 -2.52539,-3.81446 0,-2.0978 1.1364,-3.81445 2.52539,-3.81445 z m -282.60547,21.41992 c 4.40681,0.0392 10.30965,0.27038 16.64453,0.68359 21.41536,1.39699 23.23762,1.94811 25.89844,7.82813 1.5742,3.47874 2.16293,7.0304 1.30664,7.89258 -2.05936,2.07351 -28.19712,2.44474 -37.68555,0.53515 -6.95361,-1.39944 -16.96304,-13.31817 -13.83203,-16.4707 0.35131,-0.35373 3.26116,-0.50797 7.66797,-0.46875 z m 163.05469,6.55078 c 0,-16.42752 26.15229,1.20729 31.2871,3.88086 4.09797,2.13372 7.45118,4.42064 7.45118,5.08399 0,0.66335 -16.7625,1.16954 -37.25,1.12304 l -37.25,-0.0859 5.96093,-5 c 5.00184,-4.19552 29.80079,14.99624 29.80079,-5.00196 z m 272.33984,0 c 1.76454,0 7.03142,1.67179 11.70508,3.71485 8.37512,3.66115 8.20718,3.71484 -11.70508,3.71484 -19.91225,0 -20.0802,-0.0537 -11.70508,-3.71484 4.67367,-2.04306 9.94055,-3.71485 11.70508,-3.71485 z"
     id="path1"
     sodipodi:nodetypes="cccccccccccsccccccccsscccccccccccccccccccccccccccccccssccccccccscccccsccccccccscccccscsccccccsccccccccccccccccccccccccccscccccccccccccsccccccsccccccccccccccccccsccccccsccccccccccccccsccccccscccccscccssccccccsccccccccccsssssssssssssssssssssssssssssssssssssssssssssssssssssssssssssssssccsssscsssscsssssssscscccssssssccccssssssssssssssssssssssssssscsssssssssscssscscssssssssssssssscccsssssssssscssssssssssssccsscccsccccssssscccssssssscccccccssssssssssssssscccscccsccccsscccccccsssccccccccscccccssssssssssssssssssssssscsssssssssssssssssssscsssssssssssssssssssssssssssssssssssssssssscssssssssssssssssssssssssssssccssscccssssssssssssssssssssssssssssssssssssssssssssssssssssssssscssssscccsssssssssssssssscccsssssssssssscsssccssssccccsssccssssssssssscccssssssssssssssssssssssssssssssssssssssssssssssscccssssccssssssssccccsssssssssssssccsssssssssssscccccsssssscccssssssssssssssssssssssssscccccccccsccssssssssssscssssssssccssssssss"
     inkscape:label="path1"
     style="display:inline" /><text
     transform="translate(-23.585787,-55.769552)"
     x="144.12617"
     y="663.52429"
     fill="#000000"
     font-size="29px"
     style="font-size:30.6667px;line-height:1.1;white-space:pre;inline-size:584.851;display:inline"
     xml:space="preserve"
     id="text9"><tspan
       x="144.12617"
       y="663.52429"
       id="tspan1">You choose after battle plans are </tspan><tspan
       x="144.12617"
       y="697.25769"
       id="tspan2">revealed: Both leaders are killed, OR </tspan><tspan
       x="144.12617"
       y="730.99109"
       id="tspan3">both leaders in this battle do not </tspan><tspan
       x="144.12617"
       y="764.72448"
       id="tspan4">count their strength if they otherwise </tspan><tspan
       x="144.12617"
       y="798.45788"
       id="tspan5">survived. In either case, the player </tspan><tspan
       x="144.12617"
       y="832.19128"
       id="tspan7">with the higher number of undialed </tspan><tspan
       x="144.12617"
       y="865.92468"
       id="tspan8">force tokens wins the battle. Dialed </tspan><tspan
       x="144.12617"
       y="899.65808"
       id="tspan9">forces are lost normally. Discard after </tspan><tspan
       x="144.12617"
       y="933.39148"
       id="tspan10">use.</tspan></text><text
     transform="translate(117.05112,192.71261)"
     fill="#000000"
     font-size="43px"
     style="font-size:40px;white-space:pre;shape-inside:url(#rect2);display:inline"
     xml:space="preserve"
     id="text10"><tspan
       x="0"
       y="0"
       id="tspan11">Weapon - Special</tspan></text></svg>
