<?xml version="1.0" encoding="UTF-8"?>
<!-- Created with Inkscape (http://www.inkscape.org/) -->
<svg width="822" height="1122" version="1.1" viewBox="0 0 822 1122" xml:space="preserve" xmlns="http://www.w3.org/2000/svg"><path d="m89 1e3c-4.5-1.3-6.7-2.9-8.9-6.5l-2.2-3.5 0.053-461c0.029-254 0.072-465 0.096-469 0.042-7.1 0.16-7.4 4-12l3.9-4.2 320-0.26c237-0.19 321 0.035 323 0.87 1.5 0.62 4.1 2.7 5.7 4.5l3 3.4-2e-3 469c-2e-3 460-0.037 469-1.9 472-1.1 1.7-3.4 4-5.2 5.1-3.5 2.1-634 3.6-641 1.5zm44-8.3c0-4.6-0.35-5.9-1.8-6.4-5.7-1.9-13-6-18-9.5l-5.4-4-11 11c-15 15-16 14 16 14h21zm219 0.45 0.3-5.2-4.3-0.017c-2.4-0.01-51-0.012-108-0.01l-104 0.012-0.32 3.1c-0.18 1.7-0.085 4.1 0.21 5.3l0.53 2.1 215-0.15zm36 1.1c6-20 35-20 40 1 0.47 1.9 1.3 2.8 2.9 2.8 3.9 0.12 13 0.13 21 0.03l7.7-0.096 0.69-10h-19l-33-16-30 15h-22l-0.31 4.4c-0.51 7-1 6.8 16 6.6l15-0.2zm290-0.96-1e-5 -5.2-42-0.27c-23-0.15-71-0.15-108-6e-4l-66 0.27v4.9c0 6.2-13 5.5 110 5.5h105zm50 4.1c1.6-0.92 0.38-2.5-10-13l-12-12-2.5 2.3c-4.5 4.1-12 8.6-18 10l-5.3 1.7v5.2c0 4.7 0.24 5.3 2.2 5.6 5.8 0.83 43 0.18 45-0.77zm-304-1.7c-5-16-25-18-33-3.7-3.1 6-3.2 5.9 16 5.9h18zm309-3c1.7-4.3 0.77-47-0.97-47-0.99-0.021-3.4-0.28-5.5-0.57-3.5-0.51-3.7-0.38-4.9 3.3-2 6-5.9 13-9.6 18l-3.4 4.1 11 11c12 12 12 12 13 11zm-648-1.5c1-0.96 6.2-6 11-11l9.6-9.3-3.9-5.2c-4.2-5.6-8.4-14-9.4-18-0.6-2.5-1-2.7-6.1-2.7h-5.5l-0.029 10c-0.016 5.6-0.092 15-0.17 22-0.18 15 0.55 18 4 14zm307-15c8.3-4.1 15-7.5 16-7.5s7.3 3.4 16 7.5l15 7.5h245l8.3-4.2c11-5.4 19-14 25-25l3.8-7.7 0.51-804h-23l-1.2 6.7c-11 65-111 63-121-2.2l-0.68-4.5h-480l-0.016 74c-0.0088 41-0.015 221-0.014 400l0.0023 327 2.1 5.6c4.9 13 14 23 27 30l7.9 4h245zm-301-41c0.0089-3.4 0.022-192 0.03-419l0.014-412-11-0.58 0.2 417c0.11 230 0.22 418 0.25 419 0.037 1.4 0.97 1.8 5 1.8h5zm643-413 0.027-419h-11v838h11zm-84-328c31-6 52-43 42-74-19-61-110-49-113 14-2.1 39 31 67 71 60zm-57-83c28-43 94-24 94 28 0 34-31 54-58 50-30-2.9-58-37-36-78zm65 71c38-19 35-74-5.4-88-15-5-24-4.2-40 3.8-8.2 4-20 19-21 27-0.31 1.7-0.84 3.6-1.2 4.2-2.1 3.5-0.76 20 2.2 27 0.73 1.6 2.1 4.6 2.9 6.6 9.2 20 41 30 63 19zm-563-87c2-5.8 6.1-13 9.9-17l2.6-2.8-11-11c-14-13-14-13-14-0.13-0.0087 5.4-0.065 15-0.12 21-0.16 17-0.75 15 5.7 15l5.6-0.3zm640-18c-0.38-28 0.58-27-13-13l-12 12 2.6 2.8c3.3 3.6 8 12 9.6 17 1.8 5.7 1.6 5.5 7.6 5.5h5.5zm-310-11 15-7.5h20l0.35-5.1c0.44-6.5 1.9-5.9-15-5.9h-15l-1.5 3.8c-3.9 9.9-9.1 14-18 15-11 0.89-20-5.7-23-17-0.38-1.3-2.8-1.5-16-1.5l-15 0.05v10l23 1 14 7.2c17 8.7 13 8.8 31-0.2zm-310 2.5c2.9-2.2 8.3-5.2 12-6.7l6.8-2.7v-5.3c0-6.8 0.7-6.6-25-6.2-26 0.43-26 0.015-12 13 5.8 5.6 11 11 11 11 0.63 1.4 2.1 0.75 7.4-3.3zm614-19c-0.65-0.65-9.4-1-24-1h-23v11l5 1.7c5.5 1.9 12 5.7 17 9.6l3 2.5 11-11c7.7-7.7 11-11 10-12zm-314 13c5.1-2.6 11-9.3 11-13 0-0.3-7.9-0.54-18-0.54-19 0-19 0.02-16 4.8 4.3 8.3 15 12 23 8.6zm-62-3.4-0.24-10h-215l-0.1 3.5c-0.22 7.7-5.5 7 55 7.3 30 0.14 160-0.8 160-0.8zm281 0.02 45-0.021v-11l-106 0.037c-122 0.043-109-0.62-109 5.9l0.35 5c57 0.7 113 0.09 170 0.042zm-4.6 101c6.2-4.4 5.4-8.7-1.8-8.7-2.5 0-6.8-2-9.4-4.5-4.1-3.7-4.6-6.6-3.3-17 0.88-7 1.3-13 1-14s1.6-3.6 4.3-6.3c3.5-3.6 4.5-3.9 3.4-1-0.85 2.2 0.23 5.5 2.4 7.3 5.8 4.8 4.8 11-2.9 17-6.5 5.2-6.6 5.7-2.6 9.8 4 4.1 4.7 3.9 11-2.6 3.5-3.8 6.4-7.9 6.4-9.1 0-5.1 4.7-1.6 6.4 4.8 1.8 7 1.8 7 4.5 1.3 3.8-8.2 15-7.9 15 0.32 0 3.3-1.7 7.5-3.8 9.2-2.1 1.7-3.2 4.1-2.5 5.2s0.2 2.8-1.1 3.6c-1.3 0.82-3.1 0.33-4-1.1-2.3-3.7-6.4-3.2-6.4 0.84 0 1.9 2.6 4.7 5.7 6.2 4.8 2.3 3 2.8-11 2.9-16 0.16-16-0.023-11-3.8zm29-24c-2-2-3.1-0.81-4 4-1.2 6.2-0.94 6.4 2.7 2.7 2.9-2.9 3.3-4.8 1.3-6.8zm-34-15c0-4.4-4.5-2.1-5.9 3-1.1 4.3-0.72 4.7 2.2 2.2 2-1.7 3.6-4 3.6-5.2zm-463-1.4c2.4-2.1 4.4-5.2 4.4-6.9 0-5-8.3-11-16-12-4.2-0.47-7-2-6.3-3.4 1.3-2.5 8-3 15-1 2.1 0.59 3.8-0.61 3.8-2.8 0-2.3-3.8-4.8-9.4-6.2-7.7-1.9-10-1.5-15 2.3-8.6 7.9-5.1 19 6.1 19 2.8 0.021 6.9 1.2 9 2.5 3.4 2.2 3.4 2.8 0 5-4 2.6-13 0.86-15-2.8-1.2-3.2-5.5 4e-3 -5.5 4.1 0 4.2 12 8.6 19 6.9 2.8-0.67 7-2.9 9.5-5.1zm22-6.9c0-9.7 0.75-11 5.1-11 2.8 0 5.1-1.7 5.1-3.8 0-2.9-3.2-3.8-14-3.8s-14 0.89-14 3.8c0 2.1 2.2 3.8 5.1 3.8 4.3 0 5.1 1.7 5.1 11 0 8.5 0.98 11 3.8 11 2.8 0 3.8-3 3.8-11zm43 3.2c3.5-6.3 3.5-7.7 0-14-4.7-8.5-20-11-26-4.4-5.3 5.3-5.3 17 0 23 6.6 6.6 21 4.1 26-4.4zm-20 0.13c-5.3-5.3-1.9-17 4.9-17 2.6 0 9.8 7.5 9.8 10 0 2.7-7.2 10-9.8 10-1 0-3.2-1.4-4.9-3.1zm32-1.4 0.068-9.5 8.8 9.5c13 14 16 13 16-5.7 0-12-0.84-15-3.8-15-2.7 0-3.8 2.8-3.9 9.5l-0.095 9.5-8.1-9.5c-12-14-16-13-16 5.7 0 11 0.98 15 3.2 15 2-7.2e-4 -2.7-9.5 3.2-9.5zm58 5.7c0-2.8-2.8-3.8-10-3.8-5.6 0-10-1.1-10-2.5 0-1.4 2.8-2.5 6.3-2.5 3.6 0 6.3-1.5 6.3-3.5 0-2.4-2.1-3.1-6.6-2.2-4.9 0.95-6.3 0.36-5.4-2.3 0.77-2.2 4.6-3.4 10-3.2 6.9 0.22 9.2-0.74 9.2-3.8 3e-3 -3.4-2.4-4-14-3.2l-14 0.87v30h14c11 0 14-0.89 14-3.8zm45 2.2c0-7.1 9.8-10 5.6-15-2.4-2.9-2.4-4.5-0.21-6.7 7.5-7.6-1.5-15-19-15h-14l-1.7 38 11-0.041c6.3-0.022 17 1.6 17-1.6zm-19-9.9c0-2.7 2.7-3.8 8.8-3.8s8.8 1.2 8.8 3.8c0 2.7-2.7 3.8-8.8 3.8s-8.8-1.2-8.8-3.8zm0-15c0-2.9 2.5-4 9-4 11 0 11 6-1 7.2-5.9 0.59-8-0.24-8-3.2zm57 23c5.4-5.5 5.6-29 0.18-29-2.9 0-3.8 3.1-3.8 13 0 12-0.47 13-6 13-7.4 0-9.3-4.4-7.3-17 1.3-8.1 0.89-9.2-3.2-8.4-3.8 0.74-4.6 3.1-4.4 13 0.16 6.7 1.7 14 3.3 16 4 4.9 16 4.7 21-0.3zm17-3.2c-7.2 0 5.9-7.4 10-0.4 1.7 2.8 5.2 5.1 7.7 5.1 4.2 0 4.2-0.46 0.56-6-3.5-5.4-3.5-6.2-0.058-7.5 4.6-1.8 5.1-9.6 0.85-14-1.7-1.7-8.5-3.1-15-3.1h-12v15c0 8.2 0.78 16 1.7 17 3.3 3.3 12-5.6 6.3-5.6zm-0.47-16c0-1.4 3.4-2.5 7.6-2.5 4.2 0 7.6 1.1 7.6 2.5s-3.4 2.5-7.6 2.5c-4.2 0-7.6-1.1-7.6-2.5zm35 12v-8.1l8.3 8.1c4.6 4.5 9.6 8.1 11 8.1 1.7 0 3.2-6.3 3.7-15 0.73-13 0.22-15-3.4-15-3.1 3e-3 -4.5 2.6-5.1 9.4l-0.78 9.4-6.3-9.4c-3.5-5.2-8.3-9.4-11-9.4-3.7-0.015-4.4 2.4-4.4 15 0 12 0.84 15 3.8 15 2.6 0 3.8-2.6 3.8-8.1zm58 4.9c0-2.3-3.1-2.9-10-2.3-8.2 0.79-10 0.17-10-3.4 0-3.3 1.6-4.1 6.3-3.2 4.8 0.92 6.3 0.14 6.3-3.2 0-3.3-1.6-4.1-6.3-3.2-3.5 0.68-6.3 0.023-6.3-1.5 0-1.5 4.2-3 9.3-3.5 5.1-0.43 9.7-2.2 10-4 0.75-2.3-3-3.2-14-3.2h-15v31h15c10 0 15-0.99 15-3.2zm13-3.1c0-3.5 1.2-6.4 2.6-6.4 1.4 0 3.9 2.9 5.5 6.4s5 6.4 7.5 6.4c5.3 0 6-2.7 1.7-7-2.2-2.2-2.2-3.9 0.19-6.7 1.7-2.1 2.7-6.4 2.3-9.6-0.74-5.2-2.4-5.9-15-6.6l-15-0.76v15c0 14 0.56 15 5.1 15 3.7 0 5.1-1.7 5.1-6.4zm-1.3-14c-0.91-1.5 1.7-2.5 6.3-2.5 4.6 0 7.2 1.1 6.3 2.5-0.86 1.4-3.7 2.5-6.3 2.5s-5.5-1.1-6.3-2.5zm183 112c-4.9 0-11 0.1-18 0.48-15 0.8-63 1.6-106 1.7-53 0.18-78 1.1-78 3 0 1.9 15 2.3 48 1.3 0 0 81-1.6 111-1.9 49 0 58 0.6 62 4 3.4 3.5 4 15 4 85v127l-22 0.96c-12 0.53-48 1.2-80 1.5-54 0.55-63 0.42-63 0.42h-38s-2.4 2.2-2.4 3.2c-2e-3 2.4 13 3 55 2.4 49-0.64 56-0.24 59 3.5 3 3.6 2.8 4.7-1.2 7.6-2.6 1.9-5.9 4-7.5 4.6-5.4 2.3 4.7 6.6 16 6.9 6.3 0.19 15 1.1 19 2l7.6 1.6-9.2 5.7c-7.2 4.5-19 7-57 12-26 3.5-49 6.3-50 6.3-4.5 1.9e-4 -1.4 5.4 4.4 7.7 3.5 1.4 9.3 3.7 13 5.1 3.7 1.4 6.2 3.1 5.6 3.7-0.61 0.61-21 5.3-45 10-24 5.1-45 10-46 11-5.1 4.8 1.6 5.2 19 0.95l19-4.4 57 17-8.5 4.6c-27 15-29 15-126 17l-91 1.7-17-11c-16-11-17-11-32-9.2-8.3 0.95-15 1.3-15 0.69 0-3.6 31-22 37-22 12-0.046 26-3 26-5.4 0-1.2-6.8-2.2-15-2.2-12 0-18 1.5-28 7.4-13 7-14 7.3-31 5-30-4-89-17-85-18 2.1-0.82 25-3.3 51-5.5 77-6.5 78-7 37-25-12-5.4-21-11-21-12 0.7-1.1 9.6-2.1 20-2.1 24 0 42-2.5 42-5.8 0-3.2-72-0.34-78 3.1-4.5 2.5-6.9 0.82 30 21l19 11-18 2.1c-74 8.6-111 9.1-119 1.6-0.84-0.85 3.3-3.6 9.3-6l11-4.5-16-4.9c-20-5.9-23-8.4-14-11 3.8-0.96 19-7.2 34-14l27-12 52-1.6c-3.7 0.11 47-9.2 57-1.6 3.1-7e-3 5.7-1.2 5.7-2.6 0-1.4-7.5-2.5-17-2.5h-17c-25-1.8-56 1.3-82 1.8l-77 1.5 0.73-23-0.057-107 0.79-80 6-4.9c5.5-4.5 11-4.2 62-4.9 74-0.9 178-2 223-2.2 38-0.18 69-1.2 69-2.2 9.2e-4 -1-79-1.3-176-0.5l-176 1.4-6 7c-6.6 7.8-6.7 11-7.1 244l-0.14 89 15 13 185-1.6c102-0.89 197-2 212-2.5s61-0.98 102-1.1l74-0.19 15-14 1.3-163c0.97-122 0.56-164-1.7-167-4.9-6.7-10-9.5-25-9.5zm-269 73c-10-0.31-10 0.75-10 4.7 0 5 1.3 5.4 15 5.2 22-0.33 40-3.2 37-5.7-1.8-1.2-14-2.7-27-3.5-5.8-0.35-10-0.6-14-0.71zm-27 0.13c-6.6 0.062-18 1.6-25 3.5-11 2.8-12 3.6-6.3 4.6 3.5 0.68 15 1.4 25 1.6 17 0.32 18-0.088 18-4.7 0-4.4-1.6-5.1-12-5zm66 15c-3.8-9.1e-4 -9 0.24-15 0.72-11 0.96-24 1.8-28 1.9-4.4 0.13-6.9 1.6-6.9 4 0 3.1 3.3 3.5 20 2.3 20-1.5 36-5.1 36-8.2 0-0.48-2.3-0.72-6.1-0.72zm-95 1.4c-4.4-0.068-7.3 0.047-7.6 0.36-2.4 2.4 2.9 4.8 14 6.4 22 3 33 2.6 33-1.1 0-2.5-6.1-3.8-23-5-6.4-0.42-12-0.67-17-0.74zm45 14c-37 0.74-38 0.95-38 6.1 0 3.1-4.3 9-10 14-5.6 4.8-10 10-10 13 0 2.4-1.4 3.3-3.7 2.5-2-0.79-4.4-0.37-5.2 0.92s1.7 3.1 5.6 3.9c3.9 0.86 8.2 2 9.6 2.6 4.1 1.6 105-0.9 113-2.8 8-2 9.3-6.3 1.9-6.3-2.8 0-5.1-1.7-5.1-3.7s-3.7-6.6-8.3-10c-7.7-5.9-9.7-6.3-27-4.9-10 0.83-20 2.5-22 3.7-3.7 2.9-6.1 0.14-6.1-7 0-5.5 0.74-5.7 12-4.3 15 1.8 31-0.79 31-5 3e-3 -2.3-9.6-2.9-38-2.3zm48 31c0.76-0.073 1.5 0.14 2.1 0.74 0.86 0.86 0.34 2.8-1.1 4.3-1.8 1.8-3.2 1.9-4.3 0.13-1.3-2.2 1-4.9 3.3-5.2zm-93 2.1c1-0.18 2 0.44 2.1 2 0.1 1-1.2 2.3-2.8 2.9s-2.6-0.35-2-2c0.54-1.6 1.7-2.6 2.7-2.8zm76 0c1-0.18 2 0.44 2.1 2 0.1 1-1.2 2.3-2.8 2.9s-2.6-0.35-2-2c0.54-1.6 1.7-2.6 2.7-2.8zm-59 0.11c1.3 0 2.4 1.7 2.4 3.8 0 3.9-3 5.1-5.8 2.2-2-2 0.26-6 3.4-6zm20 0c1.4 0 2.5 1.7 2.5 3.8 0 2.1-1.1 3.8-2.5 3.8-1.4 0-2.5-1.7-2.5-3.8 0-2.1 1.1-3.8 2.5-3.8zm21 0c2.1 0 3.8 1.1 3.8 2.5s-1.7 2.5-3.8 2.5c-2.1 0-3.8-1.1-3.8-2.5s1.7-2.5 3.8-2.5zm70 4.8c-2.6-0.48-6.7 1.3-13 4.4-5.1 2.6-20 5.1-39 6.6-37 3-37 2.9-37 10 0 13 15 17 21 5 3.7-7.7 13-10 19-5.5 2.3 1.9 3.5 6.8 3.2 13-0.62 11 2.7 16 14 23 10 6.5 38 5.7 38-1.1-0.12-2.4-0.4-16-0.63-30-0.29-18-0.79-25-5.2-26zm-168 1.3c-0.85-0.064-1.5 7e-3 -1.8 0.23-1.4 0.89-2.6 6.6-2.6 13 0 8.9 0.98 11 5.1 12 2.8 0.73 5.1 2.6 5.1 4.1s-2.3 2.8-5.1 2.8c-2.8 0-5.1 1.1-5.1 2.5 0 1.4 2.3 2.5 5.1 2.5 2.8 0 5.1 1.7 5.1 3.8 0 2.4-2.4 3.8-6.5 3.8-3.7 0-5.8 1.1-4.9 2.5 0.86 1.4 3.8 2.5 6.5 2.5 2.7-1e-5 4.9 1.1 4.9 2.5 0 1.4-2.8 2.5-6.3 2.5-6.7 0-6.6-0.93-7.4 38-0.12 5.3 1.2 7.2 5.4 7.8 9.7 1.4 16-3.9 16-13 0-10 4.6-16 16-18 4.5-1 11-3.3 13-5.2 11-7.4 26 11 15 19-2.3 1.9-3.9 7.3-3.9 13 0 8.2 0.85 9.9 5.1 9.9 9 0 18-7.5 18-15 0-4-1.1-7.9-2.5-8.8-3.9-2.4-3-12 1.7-17 5-5.6 10-5.9 16-0.96 2.2 2 8.5 5.2 14 7 6.6 2.2 13 6.8 18 14 9.2 13 16 16 30 16 20-0.064 22-1.6 22-15v-12l-15 0.98c-19 1.3-40-8.6-47-23-4-7.6-6.1-9.3-10-8.1-21 6.6-33 4.1-38-8.2-2.1-5.1-3.1-12-2.2-16l1.5-7.1-21-1.8c-12-1-25-3.8-32-6.8-4.4-2.1-8.9-3.5-11-3.7zm4.4 12c2.1 0 3.8 1.1 3.8 2.5 0 1.4-1.7 2.5-3.8 2.5-2.1 0-3.8-1.1-3.8-2.5 0-1.4 1.7-2.5 3.8-2.5zm67 0c-4.2 0-2.9 21 1.7 26 4.7 5.2 20 6.3 26 1.9 2.8-2 1.4-2.3-5.6-1.1-12 2-20-4.8-20-18 0-4.9-1.1-8.9-2.5-8.9zm87 0c2.1 0 3.8 1.1 3.8 2.4 0 3.2-3.9 5.5-6 3.5-2.8-2.9-1.7-5.9 2.2-5.9zm-138 5.1c1.4 0 2.5 1.1 2.5 2.5 0 1.4-1.1 2.5-2.5 2.5-1.4 0-2.5-1.1-2.5-2.5 0-1.4 1.1-2.5 2.5-2.5zm116 0c1.3 0 2.4 1.7 2.4 3.8 0 3.9-3 5.1-5.8 2.2-2-2 0.26-6 3.4-6zm-90 2.5c2.1 0 3.8 1.1 3.8 2.4 0 3.2-3.9 5.5-6 3.5-2.8-2.9-1.7-5.9 2.2-5.9zm63 3.1c-1.2-0.12-2.4 0.12-3.5 0.81-2.7 1.7-3.1 9.7-0.53 12 3.3 3.4 9.6 0.29 10-5.1 0.58-4.1-2.7-7.6-6.3-8zm5.3 22c-2.2-0.84-0.6 2.9 5.5 10 3.6 4.3 7.6 7.8 8.8 7.8 3.6 0 2.9-1.2-6.5-11-3.8-4.1-6.5-6.3-7.8-6.8zm23 19c-0.72 0.2-1.2 0.68-1.2 1.4 0 1.4 2 3.2 4.4 3.8 8.6 2.3 31 1.7 32-0.79 0.97-1.6-4.1-2.5-14-2.5-8.3 0-17-0.69-19-1.5-1.1-0.42-2.1-0.52-2.8-0.32zm-55 3.1c-1.2 0.039-2.3 0.81-3.8 2.3-2 2-2.9 5.4-2.1 7.7 2 5.2 5.3 5.1 11-0.27 4-4 4-4.5-0.34-7.7-1.9-1.4-3.2-2.1-4.4-2.1zm-33 1.7c-5.4-1.1-9.3 3.8-7.3 9 0.74 1.9 3.8 3.2 6.7 2.8 6.8-0.98 7.3-10 0.61-12zm-17 4.9c-8.9-0.28-17 7.9-17 17 0 9.8-7.8 17-18 15-5.3-0.78-7.7-0.074-7.7 2.2 0 4.7 15 4.3 22-0.58 4.1-2.9 5.6-6.5 5.6-14 0-10 3.3-15 14-18l7.1-2.1zm66 0.014c-1.3-0.11-2.1 0.48-2.1 1.9 0 1.3 2.6 3.1 5.7 4 3.1 0.84 9 6.2 13 12s11 13 15 15c10 6.2 47 7.2 47 1.3 0-2.8-3.1-3.3-15-2.2-21 1.9-27-0.43-42-16-8.9-9.5-18-16-22-16zm-65 6.2c-0.99 0.13-2.1 0.45-3.3 0.92-5.4 2.1-6.9 4.7-8.4 14-2 13-6.7 17-22 20-7.9 1.4-9.5 2.7-9.5 7.9 0 3.4 0.85 6.3 1.9 6.4 1 0.081 9.8 2.3 20 4.9 9.7 2.6 21 4.9 24 4.9l6.3 0.13-0.033-26c-0.033-27-1.7-35-8.6-34zm63 3.8c-1.8-0.21-3.3 0.05-4.6 0.86-1.3 0.8-3 6.1-3.7 12-1.8 14-7.1 19-22 23-12 3-12 3.7-12 11 0 4.4 0.85 8.9 1.9 10 3.6 3.8 70-0.86 95-6.6 22-5.1 24-6.1 24-11 0-5.6-0.84-5.9-18-5.9-22 0-34-5.6-44-20-4.8-7.3-12-12-17-13zm290 0.36v9.9c0 9.2-0.55 9.9-6.9 9.9-4.5-0.015-9.1 2.5-13 7.4-5.5 6.4-8.7 7.6-24 9.1l-18 1.7 6-6.5c3.3-3.6 5.4-7.2 4.5-8s-9.8-2.3-20-3.2c-18-1.7-18-1.8-12-5.8 8.1-5.3 39-12 64-13zm-304 0.8-2.4 9.1c-2.5 9.6-13 18-22 18-2.9 0-5.3 1.3-5.3 2.9 0 3.9 16 1.1 24-4.1 4.9-3.2 6-6 5.8-15zm228 1.3c5.9 0 10 0.41 9.6 0.91-2.9 2.5-17 3.7-19 1.6-0.88-1.4 2.9-2.5 9.2-2.5zm-261 1.8c-0.33-0.64-0.84 0.54-1.7 3.2-1.1 3.5-2.1 8.4-2.3 11-0.14 2.4 0.88 4.5 2.3 4.5s2.4-4.9 2.3-11c-0.11-4.6-0.25-7.1-0.57-7.7zm-259 3.3c0.35 5e-3 8.9 3.2 19 7.2l18 7.2-16 6.8c-9 3.7-18 6.8-19 6.8s-2.5-6.3-2.5-14 0.29-14 0.63-14zm42 0.27c20-0.096 21 0.17 15 3.5-7.8 4.5-16 4.5-28 0-8.5-3.3-8.1-3.4 13-3.5zm547 18c5.7 0 5.8 0.2 5.8 37 0 23-0.96 37-2.5 37-1.4 0-2.6-3.1-2.7-7-0.39-16-2.2-17-23-16-11 0.32-22 1-24 1.5-7.3 1.4-41-27-36-30 1.1-0.68 16-2.7 34-4.6 29-3.1 32-3.8 38-10 3.4-3.9 8.8-7.1 12-7.1zm-334 7.6c-0.75 0-0.64 2.7-0.65 9-0.014 8.4 0.45 12 1 8.3s0.59-11 0.025-15c-0.14-1.1-0.15-2-0.4-2zm-47 2.6c1.4 0 2.5 1.1 2.5 2.5s-1.1 2.5-2.5 2.5c-1.4 0-2.5-1.1-2.5-2.5s1.1-2.5 2.5-2.5zm160 2.5c2.1 0 3.8 1.1 3.8 2.4 0 3.2-3.9 5.5-6 3.5-2.8-2.9-1.7-5.9 2.2-5.9zm-141 2.5c2.1 0 3.8 1.1 3.8 2.4 0 3.2-3.9 5.5-6 3.5-2.8-2.9-1.7-5.9 2.2-5.9zm120 0.32c0.76-0.073 1.5 0.14 2.1 0.74 0.86 0.86 0.34 2.8-1.1 4.3-1.8 1.8-3.2 1.9-4.3 0.13-1.3-2.2 1-4.9 3.3-5.2zm-29 2.2c2.2 0 3.5 1.4 3 3-1.6 4.7-7 5.5-7 1 0-2.2 1.8-4 4-4zm-315 0.57c0-0.77 1.6-0.047 2.7 0.092 2.7 0.37 6.4 1.5 11 2.8l13 3.3-11 5.7c-6 3.1-11 6.1-10 6.6 2.2 2.2 66 22 71 22 7.7 1e-5 3.4 3-18 12-10 4.4-20 7.8-23 7.6-2.4-0.28-13-0.9-23-1.4l-18-0.88v-29c0-21 4.9-23 4.9-29zm282 2c2.1 0 3.8 1.7 3.8 3.8 0 4-3 5-5.9 2.1s-1.8-5.9 2.1-5.9zm204 3.6c2.7-0.79 11 5.2 24 17l20 18 49-3.3v7.6c0 11 2.4 16 8.1 16 3.6 0 4.6 1.2 3.5 4-0.84 2.2-1.5 4.9-1.5 6.1s-3.9 3.9-8.6 6.1c-7 3.4-17 4.1-56 3.9-26-0.11-49-0.82-51-1.6-19-6.8-26-11-23-14 4.1-5-0.12-7.7-22-14-10-3.1-20-6.5-21-7.5s5.1-3.3 14-5c22-4.2 35-8.2 35-11 0-1.2-5.2-4.8-12-8l-12-5.9 25-3.2c14-1.7 27-3.7 29-4.4zm-134 8.9c0 4.4-10 4.8-12 9.2-1.9 7.6-6.5 8.5-6.5 1.3 0-2.8-1.1-5.1-2.5-5.1-1.4 0-2.5 2.3-2.5 5.1 0 3-1.7 5.1-4.1 5.1-2.8 0-3.7-1.5-2.8-5.1 0.73-2.8 0.37-5.1-0.79-5.1-1.2 0-2.5 2.3-2.9 5.2-1.1 6.8-5.6 6.7-6.7-0.24-0.65-4.2-2.1-5.1-6.3-3.9-3 0.81-10 1.5-16 1.5l-11 0.035v34l20-1.4c11-0.79 25-2.8 32-4.5 12-2.9 13-3.7 20-18 3.8-8.4 6.4-16 5.8-17-0.8-0.81-3.5-2.3-3.5-0.88zm-134 1.3c-0.32 0.32 2.9 8.1 7.2 17l7.8 17 14 2.5c24 4.4 23 5 23-10 0-20-1-22-16-22-7.1-0.061-18-1.1-24-2.3-6.3-1.2-12-2-12-1.6zm42 9.1c1.3 0 3.1 1.1 3.9 2.5 0.86 1.4-0.21 2.5-2.4 2.5-2.2 0-3.9-1.1-3.9-2.5 0-1.4 1.1-2.5 2.4-2.5zm27 0.97c0.3-0.014 0.63 0.081 0.98 0.3 1.4 0.86 2.5 2.6 2.5 4 0 1.3-1.1 2.4-2.5 2.4s-2.5-1.8-2.5-4c0-1.6 0.64-2.6 1.5-2.7zm-26 9.2c2.1 0 3.8 1.1 3.8 2.5 0 1.4-1.7 2.5-3.8 2.5-2.1 0-3.8-1.1-3.8-2.5 0-1.4 1.7-2.5 3.8-2.5zm25 2.4c1-0.18 2 0.43 2.1 2 0.1 1-1.2 2.3-2.8 2.9s-2.6-0.35-2-2c0.54-1.6 1.7-2.6 2.7-2.8zm-194 5.9 15 3.6c8.3 2 23 4.4 33 5.4l18 1.8-38 29h-64l-2.6-9.4c-1.4-5.2-2.3-9.6-2-9.9 0.31-0.27 9.7-5 21-11zm170 1.8c1.4 0 2.5 1.1 2.5 2.5s-1.1 2.5-2.5 2.5c-1.4 0-2.5-1.1-2.5-2.5s1.1-2.5 2.5-2.5zm23 0c1.4 0 2.5 1.7 2.5 3.8 0 2.1-1.1 3.8-2.5 3.8-1.4 0-2.5-1.7-2.5-3.8 0-2.1 1.1-3.8 2.5-3.8zm-283 21c4.4 0.039 10 0.27 17 0.68 21 1.4 23 1.9 26 7.8 1.6 3.5 2.2 7 1.3 7.9-2.1 2.1-28 2.4-38 0.54-7-1.4-17-13-14-16 0.35-0.35 3.3-0.51 7.7-0.47zm163 6.6c0-16 26 1.2 31 3.9 4.1 2.1 7.5 4.4 7.5 5.1s-17 1.2-37 1.1l-37-0.086 6-5c5-4.2 30 15 30-5zm272 0c1.8 0 7 1.7 12 3.7 8.4 3.7 8.2 3.7-12 3.7-20 0-20-0.054-12-3.7 4.7-2 9.9-3.7 12-3.7z"/><text transform="translate(-24 -56)" x="144.12617" y="663.52429" fill="#000000" font-size="31px" style="inline-size:584.851;line-height:1.1;white-space:pre" xml:space="preserve"><tspan x="144.12617" y="663.52429">You choose after battle plans are </tspan><tspan x="144.12617" y="697.25769">revealed: Both leaders are killed, OR </tspan><tspan x="144.12617" y="730.99109">both leaders in this battle do not </tspan><tspan x="144.12617" y="764.72448">count their strength if they otherwise </tspan><tspan x="144.12617" y="798.45788">survived. In either case, the player </tspan><tspan x="144.12617" y="832.19128">with the higher number of undialed </tspan><tspan x="144.12617" y="865.92468">force tokens wins the battle. Dialed </tspan><tspan x="144.12617" y="899.65808">forces are lost normally. Discard after </tspan><tspan x="144.12617" y="933.39148">use.</tspan></text><text transform="translate(117 193)" fill="#000000" font-size="40px" style="shape-inside:url(#rect2);white-space:pre" xml:space="preserve"><tspan x="0" y="0">Weapon - Special</tspan></text></svg>
