<?xml version="1.0" encoding="UTF-8"?>
<!-- Created with Inkscape (http://www.inkscape.org/) -->
<svg width="822" height="1122" version="1.1" viewBox="0 0 822 1122" xml:space="preserve" xmlns="http://www.w3.org/2000/svg"><path d="m89 1e3c-4.5-1.3-6.7-2.9-8.9-6.5l-2.2-3.5 0.053-461c0.029-254 0.072-465 0.096-469 0.042-7.1 0.16-7.4 4-12l3.9-4.2 320-0.26c237-0.19 321 0.035 323 0.87 1.5 0.62 4.1 2.7 5.7 4.5l3 3.4-2e-3 469c-2e-3 460-0.037 469-1.9 472-1.1 1.7-3.4 4-5.2 5.1-3.5 2.1-634 3.6-641 1.5zm44-8.3c0-4.6-0.35-5.9-1.8-6.4-5.7-1.9-13-6-18-9.5l-5.4-4-11 11c-15 15-16 14 16 14h21zm219 0.45 0.3-5.2-4.3-0.017c-2.4-0.01-51-0.012-108-0.01l-104 0.012-0.32 3.1c-0.18 1.7-0.085 4.1 0.21 5.3l0.53 2.1 215-0.15zm36 1.1c6-20 35-20 40 1 0.47 1.9 1.3 2.8 2.9 2.8 3.9 0.12 13 0.13 21 0.03l7.7-0.096 0.69-10h-19l-33-16-30 15h-22l-0.31 4.4c-0.51 7-1 6.8 16 6.6l15-0.2zm290-0.96-1e-5 -5.2-42-0.27c-23-0.15-71-0.15-108-6e-4l-66 0.27v4.9c0 6.2-13 5.5 110 5.5h105zm50 4.1c1.6-0.92 0.38-2.5-10-13l-12-12-2.5 2.3c-4.5 4.1-12 8.6-18 10l-5.3 1.7v5.2c0 4.7 0.24 5.3 2.2 5.6 5.8 0.83 43 0.18 45-0.77zm-304-1.7c-5-16-25-18-33-3.7-3.1 6-3.2 5.9 16 5.9h18zm309-3c1.7-4.3 0.77-47-0.97-47-0.99-0.021-3.4-0.28-5.5-0.57-3.5-0.51-3.7-0.38-4.9 3.3-2 6-5.9 13-9.6 18l-3.4 4.1 11 11c12 12 12 12 13 11zm-648-1.5c1-0.96 6.2-6 11-11l9.6-9.3-3.9-5.2c-4.2-5.6-8.4-14-9.4-18-0.6-2.5-1-2.7-6.1-2.7h-5.5l-0.029 10c-0.016 5.6-0.092 15-0.17 22-0.18 15 0.55 18 4 14zm307-15c8.3-4.1 15-7.5 16-7.5s7.3 3.4 16 7.5l15 7.5h245l8.3-4.2c11-5.4 19-14 25-25l3.8-7.7 0.51-804h-23l-1.2 6.7c-11 65-111 63-121-2.2l-0.68-4.5h-480l-0.016 74c-0.0088 41-0.015 221-0.014 400l0.0023 327 2.1 5.6c4.9 13 14 23 27 30l7.9 4h245zm-301-41c0.0089-3.4 0.022-192 0.03-419l0.014-412-11-0.58 0.2 417c0.11 230 0.22 418 0.25 419 0.037 1.4 0.97 1.8 5 1.8h5zm643-413 0.027-419h-11v838h11zm-84-328c31-6 52-43 42-74-19-61-110-49-113 14-2.1 39 31 67 71 60zm-57-83c28-43 94-24 94 28 0 34-31 54-58 50-30-2.9-58-37-36-78zm65 71c38-19 35-74-5.4-88-15-5-24-4.2-40 3.8-8.2 4-20 19-21 27-0.31 1.7-0.84 3.6-1.2 4.2-2.1 3.5-0.76 20 2.2 27 0.73 1.6 2.1 4.6 2.9 6.6 9.2 20 41 30 63 19zm-563-87c2-5.8 6.1-13 9.9-17l2.6-2.8-11-11c-14-13-14-13-14-0.13-0.0087 5.4-0.065 15-0.12 21-0.16 17-0.75 15 5.7 15l5.6-0.3zm640-18c-0.38-28 0.58-27-13-13l-12 12 2.6 2.8c3.3 3.6 8 12 9.6 17 1.8 5.7 1.6 5.5 7.6 5.5h5.5zm-310-11 15-7.5h20l0.35-5.1c0.44-6.5 1.9-5.9-15-5.9h-15l-1.5 3.8c-3.9 9.9-9.1 14-18 15-11 0.89-20-5.7-23-17-0.38-1.3-2.8-1.5-16-1.5l-15 0.05v10l23 1 14 7.2c17 8.7 13 8.8 31-0.2zm-310 2.5c2.9-2.2 8.3-5.2 12-6.7l6.8-2.7v-5.3c0-6.8 0.7-6.6-25-6.2-26 0.43-26 0.015-12 13 5.8 5.6 11 11 11 11 0.63 1.4 2.1 0.75 7.4-3.3zm614-19c-0.65-0.65-9.4-1-24-1h-23v11l5 1.7c5.5 1.9 12 5.7 17 9.6l3 2.5 11-11c7.7-7.7 11-11 10-12zm-314 13c5.1-2.6 11-9.3 11-13 0-0.3-7.9-0.54-18-0.54-19 0-19 0.02-16 4.8 4.3 8.3 15 12 23 8.6zm-62-3.4-0.24-10h-215l-0.1 3.5c-0.22 7.7-5.5 7 55 7.3 30 0.14 74 0.16 98 0.029s48-0.24 53-0.25zm281 0.02 45-0.021v-11l-106 0.037c-122 0.043-109-0.62-109 5.9l0.35 5c57 0.7 113 0.09 170 0.042zm-12 105c-1.6-2-4.5-7.9-6.2-10-2.7-5.3-2.3-5.1-4.1-8.1-1.1-4.2-5.8-9.7-4.2-12 2.2-1.8 6.1 1 9.5 6.9 3.7 6.4 5.9 7.9 7.8 5.2 1.3-5.3 0.12-18-0.91-23-1.2-4.2-0.75-8.5 0.45-10 2.6-3.4 4.4-1 5.1 5.9 0.27 2.8 0.7 5.4 0.95 5.8 0.25 0.4 0.68 2.6 0.96 4.9 0.52 4.3 2.1 7.2 3.5 6.3 0.44-0.27 0.66-5.1 0.48-11-0.48-16 1.5-18 2.9-18 3.7-0.47 3.3 7.9 3.4 9.1v12c0 5.8 0.34 7.7 1.4 8.1 3.9-0.75 3.2-11 3.4-14 0.28-4.7 0.41-4.8 1.1-7.3 1.9-7 6.2-3 5.2 4.9-0.32 2.5-0.7 8.3-0.84 13-0.24 7.7-0.13 8.3 1.4 7.3 0.93-0.58 2.6-3 3.7-5.4 4.5-9.6 5.4-11 7-11 2.1-0.41 3.5 1.7 1.7 6.1-0.13 0.33-3.1 8.7-4.4 11-2.9 6.1-3.6 8.5-3.9 14-0.46 9.7-2.1 13-7.4 17-0.032 0.02-17 6.8-28-6.9zm14-51c-636-111-636-111 0 0zm-515 448c-4.7-2-8-5.1-11-10-2-4-2.1-5.3-1.4-115 1.3-220 1.2-210 3.8-210 0.51 0 0.92-0.49 0.92-1.1 0-2 5.6-7 9.6-8.6 3.5-1.4 27-1.6 209-1.7 113-0.043 240-0.18 284-0.3l80-0.23 4.5 3.3c2.5 1.8 5.5 5.2 6.7 7.8l2.2 4.5 0.64 159c0.62 156 0.59 159-1.4 163-2.5 4.9-4.8 6.9-9.9 8.9-3.7 1.4-37 1.6-289 2.1-250 0.44-285 0.31-289-1zm151-1.3 23-0.1-2.9-2.3c-1.6-1.3-8.6-7-15-13-6.9-5.7-15-12-17-14-2.6-2-5.3-4.3-6.2-5.2-0.85-0.89-2.9-2.6-4.5-3.9s-5.1-4.1-7.7-6.4-6.9-5.8-9.4-7.9c-2.6-2.1-5.6-4.5-6.7-5.5-1.1-0.96-4.9-4.1-8.3-6.9-3.4-2.8-7.5-6.3-9.2-7.8-1.7-1.4-6.5-5.6-11-9.2-9.5-8.1-17-15-17-17 0-0.64-0.64-1.9-1.4-2.8-0.79-0.9-2.7-4.2-4.3-7.3-1.6-3.1-3.5-6.3-4.2-7.1-0.73-0.75-1.3-1.8-1.3-2.3s-3.5-6.9-7.8-14c-4.3-7.3-8.5-15-9.3-16l-1.5-3.1 2.4 2.7c2.6 2.9 12 17 14 22 0.88 1.7 3.7 6.4 6.3 10 2.6 4 6.7 10 9.1 14 4.3 6.7 12 14 30 29 3.5 2.8 8.8 7.4 12 10 6.4 5.6 8.4 6.4 5.3 2-1.2-1.7-2.1-3.3-2.1-3.7 0-0.38-0.64-1.3-1.4-2.1-0.78-0.79-4.1-5.8-7.4-11-3.3-5.3-6.7-11-7.7-12s-2.7-6.3-3.9-11-2.9-11-3.8-14c-2.4-8.8-1.3-9.7 1.5-1.2 4.5 14 9.2 25 13 30 8.7 13 15 23 15 24 0 0.51 0.93 1.8 2.1 2.8s2.1 2.3 2.1 2.9c0 2.3 7.5 11 14 16 3.9 3.1 7.3 5.9 7.6 6.2s4.2 3.5 8.8 7.1 10 8.2 13 10c2.4 2 8.2 6.6 13 10l8.5 6.6 65 0.024 3.1-7c1.7-3.8 6-14 9.7-22 4.9-11 7.1-15 8.4-15 2.7 0 11 4.2 12 6 0.55 1.4-5.7 17-13 32l-3.4 7h62c34 0 62-0.26 62-0.57s-1.7-1.3-3.9-2.2c-14-5.9-21-9.4-28-14-3.7-2.4-7.4-4.8-8.3-5.3-0.85-0.55-4.3-2.8-7.7-5-8.3-5.3-15-10-28-18-5.7-3.6-11-6.7-11-6.9-0.24-0.18-0.089-0.66 0.33-1.1 0.92-0.92 5.8 1.8 21 12 6.2 4.1 14 9.3 18 12s11 6.6 15 9.8 12 6.8 15 8.2c3.1 1.3 7.5 3.3 9.8 4.3 2.3 1 7 3.1 11 4.5l6.4 2.7h34c21 0 34-0.37 34-0.97-0.33-0.53-3-1.9-6-3-3-1.1-8.9-3.7-13-5.6s-11-4.9-14-6.5-7.9-4.1-9.3-5.6c-1.4-1.5-4.3-3.8-6.3-5.3-2-1.4-6-4.7-8.9-7.2-12-11-17-14-25-19-17-9.2-22-12-29-15-3.8-2-10-4.5-14-5.6-9.2-2.5-10-5-2.1-5 4.4 0 6.2-0.5 8.1-2.3 1.4-1.3 3.1-2.3 3.8-2.3 1.2 0-4.2 4.2-6.8 5.3-0.51 0.22 7.5 4.7 18 9.9l19 9.5 4.6-4.6c2.5-2.5 5.1-4.6 5.6-4.6 3.4 0 0.22-5.6 0.43-5.8 0.4-0.4 5.3 3.8 11 9.3l10 10 13-0.63c14-0.65 28-1.4 38-2.1 3.1-0.2 11-0.67 19-1 13-0.69 17-1.3 27-4.8 3.4-1.1 7.4-2 8.9-2 2.8 0 9.3 2.7 9.3 3.9 0 0.34-0.27 0.35-0.59 0.019-0.33-0.33-3.7 0.34-7.5 1.5-23 7-20 6.5-41 7.6-7.1 0.37-15 0.83-18 1-2.6 0.18-13 0.63-24 1-28 0.97-36 1.5-37 2.2-0.34 0.34 0.54 1.6 2 2.7 1.4 1.1 4 3.3 5.7 4.8 1.7 1.5 5.4 4.6 8.3 6.9 2.8 2.3 5.4 4.4 5.7 4.7 1.3 1.4 10 8.3 11 8.3 0.31 0 3 1.1 6 2.5 13 6.1 16 7.4 29 13l13 5.6h47c38 0 48-0.28 52-1.5 5.5-1.6 9.9-5.5 12-10 0.69-1.8 1.1-15 1.1-37 0-32-0.11-34-1.8-33-0.99 0.31-7 2.2-13 4.2-9.8 3.1-12 3.6-17 3-3.2-0.37-6-1-6.2-1.4s3.1-1.8 7.5-3.1c4.4-1.3 11-3.5 16-4.8 4.3-1.4 9.4-2.9 11-3.3l3.6-0.88-0.069-37-13-0.35c-18-0.48-43-5.7-55-12-8.2-4-18-14-23-24-2.3-4.6-4.2-9.2-4.2-10 0-1-0.4-2.1-0.89-2.4-1.7-1.1-3.1-13-3.2-27-0.11-22-1-28-5.1-37-1.5-3.1-3-5.9-3.3-6.2-0.29-0.28-2.5-3.1-4.8-6.2s-6.7-8-9.5-11c-2.8-2.8-5-5.5-4.7-5.9 0.76-1.2 8.9 1.6 13 4.5 4.8 3.3 15 15 19 21 4.4 7.5 5.8 13 7.4 30 1.8 19 4 32 7.3 43 5 16 11 24 21 29 12 5.6 12 5.6 23 4.3 5.8-0.67 13-1.4 15-1.7 4.8-0.51 15-2.2 19-3 2.2-0.47 2.2-0.91 2.1-16-0.094-9.5-1.3-16-1.2-16 0.64 5.7-0.066-11 0.23-2.4 0.047 1.4 0.23-153-0.8-157-1.4-5.3-6.9-11-12-12-4.3-1.2-34-1.2-264-0.21l-19 0.083c-21 0.039-152 0-227 0-52 0-63 0.57-63 3.2 0 0.5-0.5 0.91-1.1 0.91-1.4 0-3.1 1.8-5.3 5.8-1.4 2.5-1.8 6.1-1.9 17l-0.16 13 5 4.5c10 9.1 22 19 23 18 0.49-0.3 0.62-1.4 0.29-2.4-0.98-3.1 1.5-3.5 2.6-0.44 0.58 1.5 0.83 3 0.55 3.3-0.85 0.85 1.5 4.4 2.9 4.4 0.88 0 1.2-1.2 0.88-3.6-0.33-2.9-0.061-3.6 1.3-3.6 1 0 1.7 0.74 1.5 1.8-0.63 6.3-0.021 7.4 5.3 10 5.1 2.6 5.2 2.6 4.6 0.49-0.74-2.3 1.2-5.6 2.7-4.6 0.5 0.31 0.92 2.4 0.92 4.6 0 3.5 0.46 4.3 3.1 5.7 3 1.6 3.1 1.5 3.1-0.84 0-1.3 0.31-2.7 0.68-3.1 1.3-1.3 3.5 1.6 3.5 4.5 0 1.6 0.44 3.2 0.97 3.5s0.88-0.69 0.77-2.3c-0.13-1.9 0.3-2.9 1.4-2.9 1 0 1.7 1.3 1.9 3.9 0.21 2.6 1 4.2 2.3 5 1.7 0.93 2 0.73 2-1.6 0-1.4 0.46-2.6 1-2.6 1 0 1.2 0.7 1.4 4.7 0.065 1.3 1.5 2.8 3.7 3.9l3.6 1.8 0.33-2.7c0.45-3.6 2.7-2.6 3.1 1.4 0.17 1.8 0.99 3.8 1.8 4.4 1.2 1 1.5 0.76 1.5-1.6 0-3.9 2.5-2.8 2.9 1.2 0.21 2.2 1.1 3.5 2.8 4.3 2.2 1 2.5 0.9 2.5-0.89 0-1.1 0.69-2 1.5-2 0.95 0 1.5 0.97 1.5 2.5 0 1.5 1.1 3.4 2.7 4.7 3.2 2.5 4.7 2.7 4.3 0.66-0.17-0.82 0.16-1.5 0.73-1.6 0.57-0.055 1.2 1.1 1.4 2.5 0.21 1.7 1.4 3.2 3.3 4.2 3.7 1.9 4.2 1.9 3.5-9e-3 -0.37-0.97 7e-3 -1.6 1-1.6 0.95 0 1.7 1.1 1.9 2.8 0.35 3 2.9 4.7 2.9 2 0-2.9 1.8-1.7 2.5 1.7 0.7 3.2 0.76 3.3 1.7 0.97 0.93-2.4 3.2-2.2 2.9 0.14-0.35 2.8 0.44 3.7 7.1 8 6.5 4.2 20 13 26 17 6.4 4.4 24 17 25 18 0.75 0.75 2.9 2.2 4.7 3.1 1.8 0.95 3.1 2.2 2.7 2.7s-3e-3 1 0.74 1c0.74 0.023 2.8 1.3 4.6 2.8 3.1 2.7 3.3 3.2 3.9 13l0.65 10 5.5 7.4c3 4.1 6.1 8.5 6.8 9.9 2.4 4.6 11 15 17 21 5.9 6 6.7 6.4 16 8.8 5.3 1.4 9.5 2.8 9.5 3.2 0 0.4 0.93 0.48 2.1 0.18 2.2-0.58 2.4-0.31 1.5 2.1-0.51 1.3-1.8 1.2-9.5-0.86-4.9-1.3-9.1-2.3-9.2-2.2-0.33 0.32 11 12 14 14 1.3 1 2.7 1.8 3.1 1.8 1.6 0 6.1 5.7 7.2 9.1 0.62 1.9 0.94 3.4 0.72 3.4-1.5 0-23-7.7-30-10-16-7-20-9.2-21-11-0.47-0.84-3.2-4-6-7.1-9.6-10-19-21-26-30-2.4-3.1-4.7-5.9-5-6.2-0.36-0.28-4-4.7-8-9.8-4-5.1-8.1-10-9-11-0.9-1.1-5.8-7.7-11-15-6.5-8.9-10-13-12-13-1.5-0.43-3.2-0.92-3.8-1.1-0.57-0.17-2.9-0.82-5.2-1.4-2.3-0.61-4.6-1.3-5.2-1.4-0.57-0.17-3.1-0.88-5.7-1.6-7.9-2.2-22-6.5-24-7.4-1.1-0.47-9.9-3.5-20-6.7-31-10-53-20-70-31-4-2.6-7.4-4.6-7.6-4.4s-0.51 51-0.8 114c-0.5 109-0.44 114 1.4 118 3.4 7.1 6.5 9.5 14 11 2.3 0.39 31 0.57 63 0.4 33-0.17 70-0.36 82-0.41zm125-46c-3.2-2-7-3.5-8.8-3.5-5.4 0-5.8-1.4-2.7-10l2.7-7.7 3.6 0.62c8.6 1.5 15 4.8 18 8.9 3.2 4.8 3.2 5 0.56 11-1.8 3.9-2.5 4.6-4.9 4.5-1.5-0.058-5.3-1.7-8.4-3.6zm270-14c15 0-26-9.8-34-13-3.4-1.6-10-4.1-15-5.6-16-5-29-13-42-26-7.3-7.2-9.2-9.9-11-15-8.6-29-12-54-13-91-0.26-10-0.92-21-1.5-24-0.64-3.7-0.62-6 0.058-6.7 1.6-1.6 1.2-3-0.51-2.3-1.1 0.42-2.3-0.99-4.3-4.8-1.5-3-3.7-6.7-4.9-8.3-4.6-6.1-14-15-19-17-2.4-1.2-5.2-3.4-6.2-5-4.6-6.8-21-15-30-15-3.2 0-4.1-0.39-4.1-1.8-4e-3 -1-1.2-2.4-2.6-3-2.3-1.1-2.9-0.93-4.8 1.3-1.3 1.5-2.9 2.3-3.9 2-1.7-0.53-6 3.5-26 24-5.5 5.7-6.3 7.2-6.3 11 0 3-0.7 4.6-2.8 6.6-1.6 1.4-3.6 2.6-4.6 2.6s-2.4 0.22-3.1 0.49c-2.6 0.92-5.2-2.2-5.4-6.5-0.17-3.3-1.2-5.3-5.3-10-2.8-3.2-5.6-6.8-6.2-7.8-2.6-4.5-5-6.3-7.8-5.7-3.3 0.65-5.2-1.1-4.5-4.3 0.74-3.8 2.6-6.4 5.2-7.1 4.2-1.1 6.2-0.14 6.4 3 0.16 2.2 2.6 5.4 9.2 12 4.9 5 9.8 9.4 11 9.6 1.9 0.49 3-0.74 20-22 0.69-0.85 3.4-4.2 5.9-7.4s4.7-6.7 4.7-7.8c9e-3 -2.5 3.2-7.3 6.3-9.5 3.4-2.4 8.2-1.7 11 1.7 2.8 3.3 3.2 2.8 6.7-6.9l2.3-6.5 7.7 0.3c6.9 0.26 7.9 0.06 8.8-1.8 0.94-1.8 2-2 7.7-1.8 6.2 0.25 6.9 0.51 11 4.7 3.9 3.8 4.4 4.8 4 7.8-0.29 1.9-0.17 3.2 0.27 2.9 0.44-0.27 2.8 1.5 5.2 4 4.2 4.3 4.4 4.8 3.8 8.8-0.46 2.9-0.3 4.2 0.53 4.2 2.2 0 13 5.3 19 9.9 6.8 4.6 20 18 19 19-0.78 0.78-22-13-32-21-4.7-3.8-8.7-6.9-9-6.9s-1.5 1.8-2.7 4.1c-2.5 4.4-8.1 6.9-9 4.1-0.66-2-11-11-12-11-0.72 0-1.3-0.37-1.3-0.82 0-0.45-4.1-2.1-9.2-3.7-9.1-2.9-16-3.2-16-0.85 0.42 5 0.25 4.8 6.6 5.1 4.4 0.15 8 1.1 13 3.3 7.1 3.4 15 9.8 15 12 0 2.1 1.9 2.9 3.5 1.6 3.1-2.6 23 17 29 29 5.2 10 6.8 16 8 32 0.58 7.5 1.3 15 1.6 18 1 8.2 3.5 41 4.2 54l0.64 13 4.6 7c2.5 3.8 4.6 7.4 4.6 7.9s0.36 1.1 0.81 1.3 3.1 3.4 5.9 7.1c12 16 29 31 40 34 12 4.2 35 9.8 44 11 6.1 0.64 6.5 0.82 7.9 4.4 0.85 2 2.5 5 3.6 6.6s1.6 2.8 1.2 2.8c-0.46-0.038-19-4.1-12-4.1zm-252-0.41c6 0-17-12-23-12l-3.2 0.32-8.5-25 28-29 4.4 0.61c7.3 1 23 8.5 27 13 3.1 3.3 8.2 3 9.7-0.59 0.81-1.8 1.9-2.2 6.3-2.3 5.1-0.061 5.4 0.096 5.9 2.8 0.45 2.2 4.1 5.6 16 15 13 9.8 16 12 19 12 2.2 0.12 4.3 0.52 4.6 0.88 0.89 0.89 0.83 9.8-0.069 11-0.4 0.4-2.4 0.67-4.5 0.61-4.3-0.12-7-3-7-7.4 0-1.8-0.91-3.1-3-4.2-1.6-0.88-7.5-4.1-13-7.2-9.1-5.1-10-5.6-16-5.4-5.4 0.17-6.1-0.048-6.6-2-0.48-1.8-1.1-2.1-3.7-1.6-1.7 0.34-3.5 0.62-4.1 0.62-0.68 0-0.84 5.2-0.48 15l0.56 15-7.4 3.4c-4.1 1.8-8.1 3.8-8.9 4.3-1.5 0.92-10 5.1-11 5.1-0.12 0-3.2-2.6-1.6-2.6zm28-56c0-1-19-10-25-12-1.9-0.64-4.7-1.2-6-1.2-1.6 0-2.4-0.47-2-1.3 5.4-14 9.3-21 11-21 3-0.086 13 3.5 19 6.8 6 3.2 13 9.6 12 11-5.4 13-10 21-10 18zm-212-4.9c0-1.7-1.3-3.4-1.3-4.1s-0.8-2.1-1.8-3.1c-1.3-1.3-1.8-3.7-1.9-8.4-0.12-5.4-0.68-7.3-3-11-2.6-3.8-5.7-5.5-5.7-3.2 0 0.88-0.81 1.2-6.5 2.8-1.3 0.36-1.8-0.094-1.8-1.6 0-1.3 0.67-2.1 1.8-2.1 2.3 0 6.5-4.9 6.5-7.5 0-1.1 0.9-2.2 2.1-2.6 1.2-0.3 1.9-1.1 1.7-1.7-0.49-1.4 2.5-6.9 3.7-6.9 0.45 0 1.6 1.3 2.6 2.9 0.99 1.6 2.4 2.7 3.1 2.5 2.2-0.74 8.4 3.7 7.9 5.7-0.27 1.2 2.2 3.9 7.8 8.5 4.5 3.7 8.2 7 8.2 7.3 0 1.5-1.4 1.9-3.2 0.94-1.2-0.66-2.5-0.67-3.7-0.02-1 0.55-3.5 1.3-5.6 1.6-3.4 0.55-3.8 0.95-4.4 4.7-0.62 3.9-2.7 5.9-2.7 2.6 0-0.85-0.69-1.6-1.5-1.6-1.6 0-1.5 2.2 0.64 11 1.5 6-3 8.7-3 3.1zm221-23c-2.6-2.3-5.3-4.7-6-5.2-1.9-1.5-17-7.1-20-7.3-2.9-0.24-3.2-2-0.88-4.3 2-2 4.5-2 11-0.22 15 3.9 25 13 22 19-0.64 1.2-1.3 2.2-1.4 2.1-0.12-0.014-2.3-1.9-4.9-4.2zm-303-9.3c-1.8-3-1.5-3.9 0.4-1.2 0.91 1.3 1.5 2.6 1.3 2.8s-0.97-0.5-1.7-1.6zm310-1.6c-1.7-1.9-4.4-4-5.9-4.7-1.6-0.66-2.8-1.5-2.8-1.9 0-0.95-13-5.6-17-5.8-6.9-0.47-6.5-0.16-4.7-3.3 0.86-1.6 2.6-5.3 3.8-8.3s2.5-5.2 2.7-5c0.62 0.62 11-7.3 11-8.4-8.1e-4 -0.45-1.8-1.1-3.9-1.4l-3.9-0.59 3.1-1.3c1.8-0.77 4.6-1 6.7-0.6 2 0.38 4.7 0.9 6.1 1.1 8.1 1.5 21 11 21 16 0 2-0.32 1.9-3.1-1.3-3.4-4-3.7-3.4-2.1 5.5 1.1 5.7 0.98 6.1-3.1 15-2.3 4.8-4.3 8.8-4.4 8.7-0.12-0.055-1.6-1.7-3.3-3.6zm1.9-8.9c2.4-1.8 4.8-3.9 5.4-4.7 1.2-1.4 0.75-11-0.6-12-0.41-0.45-3.1 0.25-6.1 1.6-5.3 2.4-5.3 2.4-5.3 7.2-1e-3 5.1 0.97 11 1.8 11 0.27 0 2.4-1.5 4.8-3.3zm-16-9.6c0-6.3 4.8-4.7 4.3-9-0.31-2.5-0.59-5.1-0.61-5.8-0.061-1.7-1.3-1.6-3 0.069-0.75 0.75-2.6 2.2-4.2 3.2-2.6 1.7-2.8 2.4-2.8 9 0 3.9 0.35 7.1 0.77 7.1 0.43-0.016 5.6-0.9 5.6-4.5zm15-9.1c2.7-1.3 4.9-2.7 4.9-3.1 0-1.7-12-7.6-13-6.5-0.93 0.92 1.2 12 2.3 12 0.67 5e-3 3.4-1 6.1-2.3zm15-6.8c-4.6-5.4-14-10-23-12-4.1-0.68-7.6-1.3-7.8-1.4-0.18-0.12 0.16-1.1 0.75-2.1 0.59-1.1 3.4-7 6.3-13l5.2-11 5.2 0.7c6.9 0.92 22 8.1 27 13l4.2 4.1 4.6-1.8c3.5-1.3 5.2-1.5 7-0.7 4.2 1.9 4.1 10-0.17 12-2.6 1.4-6.3-0.28-7.5-3.3-0.57-1.5-2-2.7-3.7-3-2.7-0.51-3-0.027-8.1 11-2.9 6.2-5.5 11-5.8 11-0.29-0.048-2-1.8-3.8-3.9zm15-31c0 7-19-11-26-13-4.7-0.94-6.1-1.6-5.7-2.7 0.31-0.82 0.57-1.7 0.57-1.9s0.58-0.2 1.3 0.035c0.71 0.24 3 0.68 5.1 0.99 11 1.6 32 14 30 18-0.75 2-5.3-6.9-5.3-1.6zm5.1-7.7-2.4-2.5 2.6-5.5c5.1-11 6.9-15 6.9-16 0-2 1.9-1.1 4 1.9l2.1 3-2.5 5.1c-1.4 2.8-3.7 7.7-5.1 11s-2.8 6-3 6c-0.19 0-1.4-1.1-2.7-2.5zm-9.1-6c-1.3-0.62-2.3-1.7-2.3-2.4 0-2.1 9.1-23 10-23 0.56-0.19 2.2 0.44 3.6 1.4 2.5 1.6 2.5 1.9 1.2 4.5-0.81 1.5-2.6 5.3-3.9 8.4-5 11-5.4 12-5.9 12-0.29-0.038-1.6-0.58-2.8-1.2zm-12-5.3c-2.1-0.6-3.9-1.5-3.9-1.9 0-0.81 7.5-18 9.3-22 0.82-1.5 1.6-1.6 5.1-0.74 4.6 1.2 4.8 1.6 2.7 6.3-0.81 1.8-2.9 6.9-4.7 11s-3.6 8-3.9 7.9c-0.37-0.072-2.4-0.62-4.5-1.2zm-12-3.8c0-0.58 1.1-3.3 2.5-6 1.4-2.7 3.4-7.1 4.6-9.7 1.8-4.1 4.7-7 5.9-5.8 0.19 0.19-1.8 5.3-4.4 11-3.6 8.4-5.2 11-6.7 11-1.1 0-1.9-0.47-1.9-1.1zm47-12c-6.8-7.7-21-14-30-14-2.6 0-4.6-0.23-4.6-0.51 0-2.3 7.5-16 9-16 2.7-0.85 13 0.93 17 3.1 7.5 3.4 13 7.7 15 12l2.1 4.1-6.8 15zm14 203c1.7-0.17 3.4-0.37 3.9-0.43 0.42-0.062-2.6-3.4-6.6-7.4l-7.4-7.3-2.7 2.4c-1.5 1.3-3 2.9-3.5 3.7-0.46 0.71-1.3 1.3-1.9 1.3-1.4 0-4 2.6-4 4 0 0.57 1.6 1.6 3.6 2.4 2 0.72 3.6 1.7 3.6 2.1 0 0.69 3.1 0.56 15-0.66zm-145-24c0-0.21-3.4-2.9-7.5-6-8.4-6.3-8-5.9-18-17-4-4.5-7.7-8.6-8.3-9.3s-3.3-3.9-6.2-7.4c-2.8-3.4-5.7-6.8-6.5-7.6-0.72-0.75-1.3-1.7-1.3-2.1 0-0.42-0.81-1.7-1.8-2.8-3-3.4-16-22-16-23-3e-3 -0.28-5e-3 -4.2-5e-3 -8.8 0-9.1-0.45-9.9-9-16-2.1-1.6-4.1-3.2-4.4-3.5s-2.1-1.7-4.1-3.1c-2-1.4-4.4-3.2-5.3-4.1-2.1-1.9-3.2-2.8-8.6-6.8-2.3-1.7-4.7-3.5-5.3-4.1-0.64-0.57-3.2-2.3-5.7-3.8s-8.7-5.4-14-8.7c-10-6.4-18-11-34-19-5.4-2.9-12-6.7-15-8.6-3.1-1.8-12-6.7-20-11s-15-8.4-17-9.4c-1.7-1-4.5-2.5-6.3-3.3-1.8-0.81-7.7-4.1-13-7.3-5.5-3.2-10-5.8-11-5.8-0.28 0-4-2.9-8.3-6.5-11-9.3-19-15-19-15-0.23 0-0.36 11-0.28 25l0.14 25 8.8 5.9c23 16 67 34 116 48 21 6.2 20 5.4 25 12 2.5 3.2 8.4 11 13 17s9.2 12 10 13c1.1 1.3 6 7.4 11 14 10 13 9.4 12 25 30 12 13 12 13 23 19 16 7.6 33 14 33 12zm-221-376c0-15-0.52-14 7.9-13 3.6 0.59 3.8 0.47 4.3-2.6 0.33-2.1 0.35-4.9-1.1-4.8-3.3 0.27-5.4 0.67-6.7 0.39-0.68-0.42-5.7-0.38-11-0.66-2.4-0.13-11-0.97-13-0.89-2 0.058-1.7-1.1-1 2.1 0.38 1.9 0.69 4.3 0.69 5.2-1e-3 1.4 0.98 1.6 5.6 1.3l5.6-0.35 5e-3 11c4e-3 8.8 0.34 14 1 16 0.047 0.14 1.8 0.26 4 0.26l3.9-4.9e-4zm22 7.3-0.44-6.1 5.5 0.24c9 0.39 9.2 0.5 9.2 6.2v5.1l7.7-2e-3v-13c0-7.3-0.4-13-0.89-13-1.3-0.6-2.9-0.41-4.4-0.62-2.5-0.35-2.9-1.5-2.7 3.7l0.24 5.4c-8.2 0.92-2.4 0.48-10 0.58-3.2 0.043-3.1 0.27-3.5-7.3-0.061-1.2-0.98-2.2-2.2-2.4-1.1-0.21-2.5-0.78-3.1-1.3-2-1.6-3.7 0.52-2.7 3.2 0.51 1.4 0.62 3.4 0.23 4.5s-0.53 5.5-0.31 9.8c0.21 4.3 0.39 8.6 0.4 9.6 7e-3 1.2 1 1.7 3.9 1.7h3.9zm53 2.8c2-2.3 2.3-3.8 2.3-12 0-5 0.26-9.9 0.58-11 0.39-1-0.37-1.8-2.3-2.3-4.4-1.2-6-1.1-5.6 0.61 0.22 0.83 0.55 5 0.74 9.4 0.41 9.3-1.4 12-7.2 12-5.7 0-7.1-2.6-6.7-13l0.32-8.6-3.3-1.3c-4.3-1.8-6.8-0.88-5.4 1.9 0.59 1.1 0.98 5.4 0.87 9.5-0.35 13 4.2 18 17 17 5.5-0.46 7.1-1 9-3.2zm108-0.23 6e-4 -3.9-8 0.17c-4.4 0.091-8.7 0.32-9.5 0.52-1.1 0.24-1.6-0.62-1.9-2.8-0.3-3.1-0.28-3.1 4.8-3 2.8 0.072 5.6 0.45 6.2 0.84 0.75 0.46 1.1-0.52 1.1-2.9 0-2.7-0.51-3.7-2-4.1-1.1-0.29-0.97 4e-3 -2.5 0.66-3.4 0.77-3.9-0.12-5.9 0.22-1.6 0-2-0.57-1.8-2.5 0.29-2.4 0.61-2.5 8.2-2.5 4.3 3e-3 8.4 0.33 9 0.73 0.78 0.49 1.2-0.57 1.2-3.2l-2e-3 -3.9-13 0.1c-7.1 0.056-13 0.29-13 0.52-0.13 0.23-0.1 6.6 0.072 14l0.32 14 12-0.078c6.8-0.043 13 0.19 13 0.52 1.1 1.1 1.3 0.61 1.3-3.3zm-92-5.7-0.26-8.5 1.9 3.6c3.9 7.6 6.8 12 7.5 12 0.4 0 2.8-3.4 5.4-7.5l4.7-7.5-0.25 5.6c-0.4 8.9 0.15 10 3.9 10l3.2-2.1e-4 0.074-13c0.056-10-0.25-13-1.2-13-3.2-3.3-8.7-2-8.7-0.2 0 1.9-4 12-6 15-0.75 1.1-1.8-0.062-4.2-4.9-1.8-3.5-3.2-7.1-3.2-7.9s-0.54-1.6-1.2-1.6c-3.7-4-9.2-2.2-9-0.41 0.14 1.2 0.029 6.1 0.15 14l0.2 13 7.3 4e-3zm40 2.9-0.46-5.6 7.3-0.023c9.9-0.031 14-2 14-7.4 0.013-2.7-3.5-9.4-4.9-9.2-0.43 0.07-1 0.06-1.3-0.022s-5.5-0.25-12-0.38l-11-0.23 0.65 3.5c0.36 1.9 0.67 8.3 0.69 14l0.039 11h7.6zm0.25-12c-0.26-0.26-0.47-1.3-0.47-2.4 0-1.6 0.88-1.9 6.2-1.9 4.7 0 6.4 0.4 6.8 1.6 1.9 4.9-13 2.7-13 2.6zm63 12-0.59-5.7h3.6c3 0 4 0.63 6.3 4.2 1.5 2.3 2.8 4.9 2.8 5.7 0 1.1 1.4 1.5 5.2 1.5h5.2l-8.4-11 2.6-1c3.8-1.5 5.1-4.9 3.7-10-1.4-5.1-2.9-4.2-14-5.7-5.9-0.77-8.8-1.3-12-0.98-2.9 0.28-2 2.1-1.7 15l0.37 14h6.9zm0.74-12c0-0.5-0.28-1.6-0.63-2.5-0.53-1.4 0.4-1.6 6.2-1.6 5.3 0 7 0.37 7.5 1.7 0.85 2.2-1.7 3.6-4.1 2.3-1.1-0.59-2.3-0.67-2.6-0.19-0.87 1.2-6.3 1.5-6.3 0.4z"/><text transform="translate(-24 -56)" x="144.12617" y="663.52429" fill="#000000" font-size="31px" style="inline-size:584.851;line-height:1.1;white-space:pre" xml:space="preserve"><tspan x="144.12617" y="663.52429">Play at beginning of Spice Blow </tspan><tspan x="144.12617" y="697.25769">Phase instead of revealing the next </tspan><tspan x="144.12617" y="730.99109">Spice Blow card. Causes a Sandworm </tspan><tspan x="144.12617" y="764.72448">to appear. Play proceeds as though </tspan><tspan x="144.12617" y="798.45788">Shai-Hulud has been revealed.</tspan></text><text transform="translate(112 194)" fill="#000000" font-size="33px" style="shape-inside:url(#rect2);white-space:pre" xml:space="preserve"><tspan x="0" y="0">Spice BLow - Special</tspan></text></svg>
