<?xml version="1.0" encoding="UTF-8" standalone="no"?>
<!-- Created with Inkscape (http://www.inkscape.org/) -->

<svg
   width="822"
   height="1122"
   version="1.1"
   viewBox="0 0 822 1122"
   xml:space="preserve"
   id="svg10"
   sodipodi:docname="Thumper (Full Res).svg"
   inkscape:version="1.4 (86a8ad7, 2024-10-11)"
   xmlns:inkscape="http://www.inkscape.org/namespaces/inkscape"
   xmlns:sodipodi="http://sodipodi.sourceforge.net/DTD/sodipodi-0.dtd"
   xmlns="http://www.w3.org/2000/svg"
   xmlns:svg="http://www.w3.org/2000/svg"><defs
     id="defs10" /><sodipodi:namedview
     id="namedview10"
     pagecolor="#ffffff"
     bordercolor="#000000"
     borderopacity="0.25"
     inkscape:showpageshadow="2"
     inkscape:pageopacity="0.0"
     inkscape:pagecheckerboard="0"
     inkscape:deskcolor="#d1d1d1"
     inkscape:zoom="1"
     inkscape:cx="622.5"
     inkscape:cy="423"
     inkscape:window-width="1742"
     inkscape:window-height="1360"
     inkscape:window-x="1889"
     inkscape:window-y="325"
     inkscape:window-maximized="0"
     inkscape:current-layer="svg10" /><path
     d="m 89,1000 c -4.5,-1.3 -6.7,-2.9 -8.9,-6.5 L 77.9,990 77.953,529 c 0.029,-254 0.072,-465 0.096,-469 0.042,-7.1 0.16,-7.4 4,-12 l 3.9,-4.2 320,-0.26 c 237,-0.19 321,0.035 323,0.87 1.5,0.62 4.1,2.7 5.7,4.5 l 3,3.4 -0.002,469 c -0.002,460 -0.037,469 -1.9,472 -1.1,1.7 -3.4,4 -5.2,5.1 -3.5,2.1 -634,3.6 -641,1.5 z m 44,-8.3 c 0,-4.6 -0.35,-5.9 -1.8,-6.4 -5.7,-1.9 -13,-6 -18,-9.5 l -5.4,-4 -11,11 c -15,15 -16,14 16,14 h 21 z m 219,0.45 0.3,-5.2 -4.3,-0.017 c -2.4,-0.01 -51,-0.012 -108,-0.01 l -104,0.012 -0.32,3.1 c -0.18,1.7 -0.085,4.1 0.21,5.3 l 0.53,2.1 215,-0.15 z m 36,1.1 c 6,-20 35,-20 40,1 0.47,1.9 1.3,2.8 2.9,2.8 3.9,0.12 13,0.13 21,0.03 l 7.7,-0.096 0.69,-10 h -19 l -33,-16 -30,15 h -22 l -0.31,4.4 c -0.51,7 -1,6.8 16,6.6 l 15,-0.2 z m 290,-0.96 -10e-6,-5.2 -42,-0.27 c -23,-0.15 -71,-0.15 -108,-6e-4 l -66,0.27 v 4.9 c 0,6.2 -13,5.5 110,5.5 h 105 z m 50,4.1 c 1.6,-0.92 0.38,-2.5 -10,-13 l -12,-12 -2.5,2.3 c -4.5,4.1 -12,8.6 -18,10 l -5.3,1.7 v 5.2 c 0,4.7 0.24,5.3 2.2,5.6 5.8,0.83 43,0.18 45,-0.77 z m -304,-1.7 c -5,-16 -25,-18 -33,-3.7 -3.1,6 -3.2,5.9 16,5.9 h 18 z m 309,-3 c 1.7,-4.3 0.77,-47 -0.97,-47 -0.99,-0.021 -3.4,-0.28 -5.5,-0.57 -3.5,-0.51 -3.7,-0.38 -4.9,3.3 -2,6 -5.9,13 -9.6,18 l -3.4,4.1 11,11 c 12,12 12,12 13,11 z m -648,-1.5 c 1,-0.96 6.2,-6 11,-11 l 9.6,-9.3 -3.9,-5.2 c -4.2,-5.6 -8.4,-14 -9.4,-18 -0.6,-2.5 -1,-2.7 -6.1,-2.7 h -5.5 l -0.029,10 c -0.016,5.6 -0.092,15 -0.17,22 -0.18,15 0.55,18 4,14 z m 307,-15 c 8.3,-4.1 15,-7.5 16,-7.5 1,0 7.3,3.4 16,7.5 l 15,7.5 h 245 l 8.3,-4.2 c 11,-5.4 19,-14 25,-25 l 3.8,-7.7 0.51,-804 h -23 l -1.2,6.7 c -11,65 -111,63 -121,-2.2 l -0.68,-4.5 h -480 l -0.016,74 c -0.0088,41 -0.015,221 -0.014,400 l 0.0023,327 2.1,5.6 c 4.9,13 14,23 27,30 l 7.9,4 h 245 z m -301,-41 c 0.0089,-3.4 0.022,-192 0.03,-419 l 0.014,-412 -11,-0.58 0.2,417 c 0.11,230 0.22,418 0.25,419 0.037,1.4 0.97,1.8 5,1.8 h 5 z m 643,-413 0.027,-419 h -11 v 838 h 11 z m -84,-328 c 31,-6 52,-43 42,-74 -19,-61 -110,-49 -113,14 -2.1,39 31,67 71,60 z m -57,-83.3 c 28,-43 94,-24 94,28 0,34 -30.8498,54.43084 -57.92096,49.64032 C 599.52799,184.64147 571.37318,150.5744 593,109.89 Z m 65,70.7 c 38,-19 35,-74 -5.4,-88 -15,-5 -24,-4.2 -40,3.8 -8.2,4 -20,19 -21,27 -0.31,1.7 -0.84,3.6 -1.2,4.2 -2.1,3.5 -0.76,20 2.2,27 0.73,1.6 2.1,4.6 2.9,6.6 9.2,20 41,30 63,19 z m -563,-87 c 2,-5.8 6.1,-13 9.9,-17 l 2.6,-2.8 -11,-11 c -14,-13 -14,-13 -14,-0.13 -0.0087,5.4 -0.065,15 -0.12,21 -0.16,17 -0.75,15 5.7,15 l 5.6,-0.3 z m 640,-18 c -0.38,-28 0.58,-27 -13,-13 l -12,12 2.6,2.8 c 3.3,3.6 8,12 9.6,17 1.8,5.7 1.6,5.5 7.6,5.5 h 5.5 z m -310,-11 15,-7.5 h 20 l 0.35,-5.1 c 0.44,-6.5 1.9,-5.9 -15,-5.9 h -15 l -1.5,3.8 c -3.9,9.9 -9.1,14 -18,15 -11,0.89 -20,-5.7 -23,-17 -0.38,-1.3 -2.8,-1.5 -16,-1.5 l -15,0.05 v 10 l 23,1 14,7.2 c 17,8.7 13,8.8 31,-0.2 z m -310,2.5 c 2.9,-2.2 8.3,-5.2 12,-6.7 l 6.8,-2.7 v -5.3 c 0,-6.8 0.7,-6.6 -25,-6.2 -26,0.43 -26,0.015 -12,13 5.8,5.6 11,11 11,11 0.63,1.4 2.1,0.75 7.4,-3.3 z m 614,-19 c -0.65,-0.65 -9.4,-1 -24,-1 h -23 v 11 l 5,1.7 c 5.5,1.9 12,5.7 17,9.6 l 3,2.5 11,-11 c 7.7,-7.7 11,-11 10,-12 z m -314,13 c 5.1,-2.6 11,-9.3 11,-13 0,-0.3 -7.9,-0.54 -18,-0.54 -19,0 -19,0.02 -16,4.8 4.3,8.3 15,12 23,8.6 z m -62.4,-3.42 -0.24,-10 h -215 l -0.1,3.5 c -0.22,7.7 -5.5,7 55,7.3 30,0.14 74,0.16 98,0.029 24,-0.131 48,-0.24 53,-0.25 z m 281.4,0.02033 45,-0.021 v -11 l -106,0.037 c -122,0.043 -109,-0.62 -109,5.9 l 0.35,5 c 57,0.7 113,0.09 170,0.042 z m -12.2811,104.79619 c -1.62058,-1.98064 -4.52454,-7.86503 -6.1846,-10.0971 -2.69719,-5.30594 -2.34691,-5.07692 -4.06672,-8.10654 -1.13975,-4.21208 -5.81226,-9.66348 -4.17992,-11.93817 2.20773,-1.82167 6.10761,1.02403 9.51092,6.94003 3.70262,6.43627 5.87086,7.88371 7.84768,5.23886 1.33491,-5.2755 0.12354,-18.33191 -0.90658,-23.38031 -1.22448,-4.17295 -0.7459,-8.53119 0.4463,-10.06861 2.63252,-3.39482 4.44624,-1.03102 5.12459,5.85108 0.27386,2.77832 0.70358,5.38233 0.95493,5.78669 0.25136,0.40436 0.6823,2.59343 0.95765,4.86461 0.51788,4.27165 2.14764,7.18103 3.54252,6.32393 0.43988,-0.27029 0.65527,-5.13996 0.47865,-10.8215 -0.48253,-15.52178 1.53377,-17.86183 2.87115,-18.03289 3.70942,-0.47447 3.30063,7.92516 3.37852,9.06687 v 11.53147 c 0,5.79348 0.3379,7.72873 1.42166,8.1422 3.89311,-0.7463 3.19053,-10.60722 3.39158,-13.5521 0.27721,-4.73911 0.4109,-4.7993 1.06604,-7.28756 1.93963,-6.98417 6.22559,-3.00423 5.22922,4.85586 -0.31894,2.51604 -0.69606,8.32374 -0.83805,12.90599 -0.23928,7.72227 -0.13441,8.25453 1.43445,7.28042 0.93094,-0.57802 2.61691,-3.02728 3.74661,-5.44281 4.4694,-9.55642 5.43208,-11.12089 7.03034,-11.42516 2.14363,-0.40808 3.49498,1.67473 1.71895,6.08295 -0.13468,0.33429 -3.11524,8.70547 -4.3699,11.29123 -2.94372,6.06677 -3.61311,8.52226 -3.88644,14.25634 -0.46168,9.68537 -2.09311,13.34429 -7.39772,16.59133 -0.0325,0.0199 -17.16642,6.77677 -28.32183,-6.85711 z m 14.44865,-51.18137 C 0,0 0,0 636.16755,111.30515 Z M 121.63628,559.2146 c -4.72201,-2.00341 -7.98949,-5.14401 -10.53666,-10.1275 -2.04643,-4.00379 -2.06205,-5.30525 -1.38572,-115.45793 1.34892,-219.69654 1.18051,-210.29849 3.76832,-210.29849 0.50623,0 0.92041,-0.49125 0.92041,-1.09166 0,-1.96051 5.58961,-6.99617 9.56971,-8.62134 3.45108,-1.40914 27.07171,-1.59794 208.52964,-1.66678 112.55074,-0.0427 240.47632,-0.17907 284.27906,-0.30304 l 79.64136,-0.2254 4.49312,3.25311 c 2.54064,1.83947 5.46416,5.21428 6.7277,7.76623 l 2.23457,4.51312 0.6361,159.18646 c 0.62226,155.72331 0.59289,159.2714 -1.35047,163.09081 -2.5088,4.93069 -4.75602,6.94847 -9.94872,8.93297 -3.65155,1.39552 -37.09395,1.63602 -289.05098,2.07868 -249.77389,0.43884 -285.36648,0.31187 -288.52744,-1.02924 z m 151.22823,-1.34641 22.71115,-0.0997 -2.89535,-2.31598 c -1.59245,-1.27379 -8.56064,-6.98496 -15.48488,-12.69148 -6.92424,-5.70653 -14.67998,-11.98397 -17.23498,-13.94987 -2.55501,-1.9659 -5.34229,-4.30317 -6.19395,-5.19393 -0.85167,-0.89076 -2.87197,-2.63821 -4.48956,-3.88323 -1.61759,-1.24502 -5.10169,-4.13083 -7.74244,-6.41291 -2.64075,-2.28208 -6.89182,-5.82927 -9.44683,-7.88265 -2.555,-2.05338 -5.57455,-4.51688 -6.71011,-5.47445 -1.13556,-0.95758 -4.85193,-4.07234 -8.2586,-6.92169 -3.40667,-2.84936 -7.54929,-6.33691 -9.20582,-7.75012 -1.65653,-1.4132 -6.53426,-5.56575 -10.83941,-9.22789 -9.49124,-8.07365 -16.6023,-15.29938 -16.6023,-16.87002 0,-0.63822 -0.64484,-1.89606 -1.43298,-2.79519 -0.78813,-0.89913 -2.74544,-4.19764 -4.34956,-7.33002 -1.60413,-3.13238 -3.51429,-6.31098 -4.24482,-7.06357 -0.73052,-0.75258 -1.32822,-1.76909 -1.32822,-2.2589 0,-0.48981 -3.52871,-6.86367 -7.84159,-14.16412 -4.31287,-7.30046 -8.51848,-14.67148 -9.3458,-16.38005 l -1.50422,-3.10649 2.37762,2.73374 c 2.5536,2.93607 11.63294,17.01566 14.26312,22.11819 0.88071,1.70857 3.69794,6.36831 6.2605,10.35497 2.56256,3.98667 6.67497,10.4062 9.13869,14.26564 4.27931,6.70354 12.23853,14.33171 30.43673,29.17076 3.45549,2.81765 8.81431,7.3609 11.90849,10.0961 6.37233,5.63304 8.431,6.39887 5.28393,1.96563 -1.17422,-1.65411 -2.13495,-3.3183 -2.13495,-3.69821 0,-0.3799 -0.641,-1.33371 -1.42446,-2.11957 -0.78345,-0.78587 -4.09487,-5.7618 -7.35869,-11.05764 -3.26383,-5.29583 -6.72309,-10.79372 -7.68724,-12.21753 -0.96415,-1.42381 -2.72832,-6.31653 -3.92036,-10.87272 -1.19204,-4.55619 -2.92373,-11.00421 -3.8482,-14.32893 -2.44331,-8.78703 -1.29589,-9.70823 1.52097,-1.2211 4.51112,13.59189 9.1713,24.53369 12.72615,29.88019 8.67496,13.04714 15.15346,23.43011 15.15346,24.28618 0,0.51113 0.92909,1.77273 2.06465,2.80355 1.13556,1.03082 2.06465,2.32204 2.06465,2.86937 0,2.30259 7.52851,10.9949 14.09506,16.27395 3.88718,3.12501 7.29987,5.93304 7.58376,6.24006 0.28389,0.30702 4.23253,3.50648 8.77476,7.10991 4.54223,3.60343 10.2415,8.18985 12.66504,10.19204 2.42355,2.00219 8.23037,6.60847 12.90407,10.23618 l 8.49762,6.59582 32.6381,0.0119 32.6381,0.0119 3.06713,-6.98961 c 1.68692,-3.84428 6.04019,-13.86272 9.67392,-22.26319 4.9499,-11.44319 7.06601,-15.27358 8.43791,-15.27358 2.74837,0 11.20325,4.24369 11.85639,5.95098 0.54944,1.43621 -5.7138,16.98802 -12.72066,31.58579 l -3.35498,6.98961 h 61.85645 c 34.02105,0 61.85646,-0.25677 61.85646,-0.57059 0,-0.31382 -1.74205,-1.29017 -3.87122,-2.16966 -14.29399,-5.90437 -21.4659,-9.39176 -28.13086,-13.67881 -3.69056,-2.37385 -7.40693,-4.76392 -8.2586,-5.31126 -0.85166,-0.54735 -4.33576,-2.79054 -7.74243,-4.98486 -8.29079,-5.34031 -15.49445,-9.95059 -27.87278,-17.83833 -5.67778,-3.61801 -10.51681,-6.72291 -10.75338,-6.89978 -0.23657,-0.17686 -0.0893,-0.66345 0.32726,-1.0813 0.91831,-0.92112 5.80693,1.81108 20.74937,11.59664 6.24557,4.09011 14.2763,9.2662 17.84607,11.50242 3.56977,2.23622 10.53796,6.64454 15.48487,9.79628 4.94691,3.15174 11.54939,6.82084 14.67217,8.15355 3.12279,1.33271 7.53597,3.2676 9.80709,4.29975 2.27111,1.03215 7.01872,3.07123 10.55022,4.53129 l 6.42093,2.65466 h 34.15875 c 20.93335,0 33.92772,-0.37497 33.56205,-0.96846 -0.32819,-0.53266 -3.02675,-1.88771 -5.9968,-3.01123 -2.97004,-1.12353 -8.88418,-3.66247 -13.14252,-5.6421 -4.25834,-1.97963 -10.76199,-4.90167 -14.45255,-6.49342 -3.69056,-1.59175 -7.88331,-4.09219 -9.31722,-5.55654 -1.43391,-1.46434 -4.277,-3.82737 -6.31799,-5.25118 -2.04098,-1.42381 -6.0299,-4.68562 -8.86427,-7.24848 -11.84064,-10.70638 -16.56587,-14.23702 -25.47314,-19.03325 -17.17045,-9.24563 -21.71958,-11.69842 -28.59635,-15.41851 -3.75231,-2.02987 -10.01788,-4.54751 -13.92349,-5.59475 -9.18569,-2.46303 -10.23776,-4.99762 -2.07443,-4.99762 4.40799,0 6.15403,-0.50266 8.09305,-2.32987 1.35984,-1.28142 3.088,-2.32987 3.84036,-2.32987 1.18559,0 -4.15685,4.18512 -6.76166,5.2969 -0.51331,0.21908 7.53168,4.67009 17.87774,9.89113 l 18.81103,9.4928 4.62561,-4.57418 c 2.54409,-2.5158 5.06239,-4.57419 5.59624,-4.57419 3.37016,0 0.22088,-5.58452 0.42692,-5.79119 0.39825,-0.39947 5.26253,3.79955 10.80951,9.33115 l 10.08543,10.05747 13.42023,-0.63383 c 13.77178,-0.65043 27.65374,-1.41187 37.67986,-2.06681 3.12278,-0.20398 11.48461,-0.67398 18.58184,-1.04443 13.18052,-0.68799 16.56072,-1.27805 27.26903,-4.76019 3.3585,-1.09212 7.3519,-1.98568 8.87424,-1.98568 2.77102,0 9.27903,2.71617 9.27903,3.87267 0,0.33797 -0.26698,0.34669 -0.59329,0.0194 -0.32632,-0.32731 -3.69428,0.34174 -7.48436,1.48679 -23.19243,7.00682 -20.31104,6.47941 -41.47395,7.59136 -7.09723,0.37291 -14.99452,0.82853 -17.54952,1.0125 -2.555,0.18396 -13.23957,0.63325 -23.74347,0.99842 -27.8065,0.96669 -36.35756,1.46821 -37.05743,2.17343 -0.34234,0.34495 0.53893,1.56139 1.95838,2.70318 1.41945,1.1418 3.98187,3.31507 5.69427,4.82948 1.71241,1.51441 5.42878,4.60157 8.2586,6.86036 2.82983,2.25878 5.37741,4.35566 5.6613,4.65973 1.32544,1.41968 10.21975,8.31909 10.72448,8.31909 0.31345,0 3.02255,1.11276 6.02021,2.47279 13.38959,6.07482 16.43353,7.40983 28.87653,12.66465 l 13.19526,5.57251 h 46.79644 c 38.26,0 47.73271,-0.2789 51.92904,-1.5289 5.50604,-1.64015 9.92373,-5.48897 11.69366,-10.18786 0.69365,-1.84154 1.098,-15.3091 1.098,-36.57105 0,-31.57919 -0.11148,-33.62102 -1.80657,-33.08861 -0.99362,0.31209 -7.0041,2.21483 -13.35663,4.22831 -9.8175,3.11174 -12.41565,3.55885 -17.32047,2.98061 -3.17373,-0.37415 -5.96641,-0.99839 -6.20596,-1.38718 -0.23955,-0.38879 3.14147,-1.7615 7.51338,-3.05045 4.37192,-1.28895 11.43303,-3.45133 15.69137,-4.80529 4.25834,-1.35395 9.36835,-2.85848 11.35558,-3.34339 l 3.61313,-0.88166 -0.0347,-18.45145 -0.0347,-18.45145 -13.31271,-0.34812 c -18.25056,-0.47724 -42.92216,-5.66273 -55.26747,-11.61614 -8.22864,-3.96818 -17.54224,-13.88889 -22.65126,-24.12777 -2.30406,-4.6175 -4.18919,-9.24595 -4.18919,-10.28544 0,-1.03948 -0.40188,-2.13911 -0.89307,-2.44361 -1.73568,-1.07601 -3.102,-12.68874 -3.17783,-27.00926 -0.11472,-21.66373 -1.04457,-28.4199 -5.05932,-36.76015 -1.50784,-3.13238 -2.97497,-5.92822 -3.26029,-6.21299 -0.28532,-0.28476 -2.46558,-3.0806 -4.84501,-6.21298 -2.37943,-3.13238 -6.65444,-7.98697 -9.50003,-10.78798 -2.84558,-2.80101 -4.95084,-5.45459 -4.67836,-5.89684 0.75807,-1.23034 8.92221,1.55913 13.30353,4.54547 4.79225,3.26643 15.04389,14.71555 18.55025,20.71709 4.40934,7.54709 5.77787,13.07882 7.35198,29.71749 1.84368,19.4881 3.98097,32.07184 7.25842,42.73535 5.04188,16.4043 10.54429,24.07425 20.56368,28.66423 12.28825,5.62938 11.96938,5.57157 23.45595,4.25238 5.83662,-0.67031 12.70249,-1.43897 15.25749,-1.70813 4.81098,-0.50681 15.37487,-2.15908 19.25095,-3.01098 2.15697,-0.47406 2.21341,-0.91211 2.06465,-16.02251 -0.0938,-9.52423 -1.25628,-16.21641 -1.18526,-15.58672 0.6411,5.68438 -0.0655,-11.47568 0.23309,-2.43379 0.0469,1.41974 0.22573,-153.35723 -0.80184,-157.18508 -1.41286,-5.26308 -6.85069,-10.54809 -12.45486,-12.10484 -4.29276,-1.19246 -33.93899,-1.21603 -263.89755,-0.20782 l -18.83993,0.0826 c -20.52985,0.0392 -152.31278,0 -227.41798,0 -51.68591,0 -62.66532,0.56582 -62.66532,3.22942 0,0.50192 -0.49773,0.91257 -1.10606,0.91257 -1.42324,0 -3.09652,1.82939 -5.29757,5.79177 -1.37306,2.47183 -1.79356,6.09615 -1.91979,16.54671 l -0.16163,13.38161 5.01677,4.50543 c 10.13093,9.09833 22.4395,18.67866 23.30696,18.1409 0.49049,-0.30408 0.62173,-1.40638 0.29165,-2.44957 -0.97516,-3.08191 1.45498,-3.48803 2.61163,-0.43645 0.5826,1.53707 0.83035,3.0243 0.55055,3.30496 -0.84546,0.84806 1.46142,4.37997 2.8608,4.37997 0.88342,0 1.16864,-1.17059 0.88306,-3.62424 -0.33354,-2.86582 -0.0606,-3.62424 1.30451,-3.62424 1.0259,0 1.65176,0.73523 1.54255,1.81212 -0.6349,6.26073 -0.021,7.43437 5.30509,10.14158 5.10116,2.59289 5.23137,2.60676 4.56017,0.4855 -0.73539,-2.32415 1.15564,-5.55389 2.6936,-4.60046 0.50344,0.31211 0.91535,2.39189 0.91535,4.62175 0,3.45744 0.45592,4.29077 3.09698,5.66071 3.01846,1.56571 3.09697,1.5445 3.09697,-0.83632 0,-1.34351 0.30567,-2.74936 0.67926,-3.1241 1.26515,-1.26903 3.45004,1.60856 3.45004,4.54385 0,1.60523 0.43732,3.1897 0.97182,3.52105 0.5345,0.33135 0.88291,-0.68959 0.77424,-2.26876 -0.13418,-1.94994 0.29929,-2.87121 1.35092,-2.87121 1.04395,0 1.65282,1.2642 1.8687,3.88003 0.21075,2.55367 1.00476,4.24753 2.32273,4.95505 1.73704,0.93249 2.00252,0.72698 2.00252,-1.55017 0,-1.44385 0.46454,-2.62518 1.03232,-2.62518 1.02613,0 1.24187,0.69653 1.44325,4.65974 0.0647,1.27212 1.49899,2.77216 3.71838,3.88869 l 3.61313,1.81769 0.33256,-2.6557 c 0.45212,-3.61046 2.68782,-2.62917 3.08217,1.35281 0.17477,1.76468 0.98772,3.76624 1.80657,4.44791 1.23448,1.02768 1.48882,0.76078 1.48882,-1.56242 0,-3.86844 2.49228,-2.8414 2.8938,1.1925 0.21428,2.1527 1.10969,3.50862 2.8389,4.29892 2.21634,1.01294 2.5259,0.90333 2.5259,-0.89438 0,-1.13082 0.69381,-2.0488 1.54848,-2.0488 0.95116,0 1.54849,0.96962 1.54849,2.51359 0,1.48212 1.11618,3.39427 2.72003,4.65974 3.18,2.50907 4.71925,2.74598 4.29342,0.66081 -0.16684,-0.81694 0.16121,-1.53039 0.72899,-1.58544 0.56778,-0.0551 1.17972,1.08357 1.35988,2.53029 0.20623,1.65607 1.42998,3.20221 3.30379,4.17418 3.72295,1.93112 4.19397,1.92983 3.45208,-0.009 -0.36972,-0.96644 0.007,-1.55325 0.99615,-1.55325 0.95414,0 1.72105,1.10726 1.91702,2.76777 0.3505,2.96982 2.90746,4.70961 2.90746,1.97826 0,-2.94231 1.78852,-1.72327 2.53206,1.72583 0.69873,3.24127 0.76026,3.277 1.66879,0.96897 0.92648,-2.35361 3.224,-2.24024 2.93049,0.14461 -0.35,2.84394 0.43971,3.73855 7.06313,8.00128 6.48718,4.17506 20.12402,13.18991 26.06621,17.23148 6.39691,4.35087 23.82304,17.11341 25.0573,18.35147 0.75236,0.75467 2.87018,2.15137 4.70627,3.10376 1.83608,0.95239 3.06345,2.17775 2.72749,2.72302 -0.33596,0.54527 -0.003,1.01034 0.74049,1.03348 0.74323,0.0231 2.82005,1.30458 4.61516,2.84762 3.14072,2.69971 3.28852,3.18913 3.91843,12.97568 l 0.6546,10.17015 5.46713,7.4333 c 3.00692,4.08832 6.05102,8.53695 6.76467,9.88584 2.41168,4.55843 10.82779,15.11495 17.07621,21.4191 5.91636,5.96912 6.66837,6.38705 15.76178,8.7596 5.25195,1.37028 9.54901,2.81623 9.54901,3.21322 0,0.397 0.92909,0.4781 2.06465,0.18024 2.20785,-0.57914 2.39851,-0.30664 1.47481,2.10788 -0.50821,1.32847 -1.82947,1.20944 -9.549,-0.86025 -4.92755,-1.32113 -9.05365,-2.30921 -9.16912,-2.19573 -0.32632,0.3207 11.3074,12.33592 13.9122,14.3684 1.27731,0.99667 2.69471,1.81212 3.14977,1.81212 1.56023,0 6.09434,5.69516 7.21345,9.0606 0.6155,1.85095 0.93761,3.36537 0.71582,3.36537 -1.51443,0 -23.4846,-7.73705 -29.63372,-10.43586 -16.02828,-7.0347 -20.31354,-9.19633 -21.13589,-10.66167 -0.46867,-0.83512 -3.17486,-4.01796 -6.01376,-7.07296 -9.5946,-10.325 -18.84761,-21.13927 -25.51261,-29.81736 -2.40575,-3.13238 -4.66677,-5.92822 -5.02448,-6.21298 -0.35772,-0.28476 -3.96235,-4.71151 -8.0103,-9.83722 -4.04795,-5.12572 -8.0963,-10.25143 -8.99634,-11.39047 -0.90003,-1.13905 -5.80965,-7.73492 -10.91026,-14.6575 -6.52452,-8.8551 -10.09908,-12.81715 -12.05746,-13.36452 -1.53099,-0.42791 -3.24816,-0.9198 -3.81594,-1.09308 -0.56778,-0.17329 -2.89051,-0.81772 -5.16162,-1.43207 -2.27112,-0.61435 -4.59385,-1.25316 -5.16163,-1.41958 -0.56778,-0.16641 -3.12278,-0.87635 -5.67779,-1.57765 -7.89659,-2.16744 -22.08826,-6.49684 -24.25963,-7.4008 -1.13556,-0.47274 -9.94679,-3.49637 -19.58052,-6.71919 -30.70699,-10.27256 -53.32702,-20.32805 -69.85737,-31.05434 -4.0253,-2.61196 -7.44351,-4.60772 -7.59603,-4.43503 -0.15252,0.17269 -0.51252,51.40396 -0.80001,113.84726 -0.4998,108.56131 -0.4398,113.70826 1.37012,117.52893 3.37059,7.11516 6.4679,9.52768 13.87781,10.80954 2.27112,0.39289 30.84071,0.57351 63.48799,0.40139 32.64727,-0.17211 69.5787,-0.3578 82.06983,-0.41263 z m 125.47314,-46.2569 c -3.24295,-2.02615 -6.98713,-3.51888 -8.82638,-3.51888 -5.4083,0 -5.80119,-1.43471 -2.74267,-10.0151 l 2.74862,-7.71099 3.61314,0.6151 c 8.56168,1.45754 15.27184,4.77799 17.99408,8.9042 3.19234,4.83879 3.20265,5.03787 0.56197,10.85235 -1.75855,3.87211 -2.53709,4.5862 -4.90355,4.49756 -1.5472,-0.0579 -5.34754,-1.68885 -8.44521,-3.62424 z m 269.9073,-13.94961 c 15.3669,0 -26.20319,-9.83474 -34.06672,-13.45944 -3.40667,-1.5703 -10.14259,-4.10946 -14.96871,-5.64256 -15.67279,-4.97876 -28.50076,-12.97883 -41.80916,-26.07398 -7.27788,-7.16127 -9.18574,-9.88201 -10.79353,-15.39237 -8.56069,-29.33991 -12.14999,-54.13559 -13.10588,-90.53848 -0.26171,-9.96666 -0.91555,-20.65957 -1.45299,-23.76202 -0.64171,-3.70442 -0.62187,-5.9972 0.0578,-6.67896 1.55902,-1.56382 1.24253,-2.99641 -0.51272,-2.32078 -1.09368,0.42097 -2.34682,-0.98937 -4.27194,-4.80783 -1.49834,-2.97195 -3.70531,-6.70276 -4.90436,-8.29068 -4.60296,-6.09579 -14.42436,-15.23076 -18.53344,-17.23812 -2.36123,-1.15351 -5.15702,-3.38787 -6.21286,-4.96523 -4.55038,-6.79802 -20.54737,-14.77616 -29.62772,-14.77616 -3.18279,0 -4.06953,-0.39425 -4.07583,-1.81212 -0.004,-0.99667 -1.19492,-2.36453 -2.64553,-3.0397 -2.32507,-1.08218 -2.89727,-0.92789 -4.83072,1.30261 -1.31852,1.52108 -2.87927,2.31178 -3.91338,1.98256 -1.66259,-0.52931 -5.9736,3.54794 -25.64977,24.25892 -5.45373,5.74055 -6.31019,7.17545 -6.31019,10.57194 0,2.95314 -0.70296,4.5837 -2.82835,6.56053 -1.55559,1.44685 -3.60805,2.63065 -4.56103,2.63065 -0.95298,0 -2.35136,0.21986 -3.10752,0.48859 -2.57505,0.91512 -5.18694,-2.24614 -5.40563,-6.54262 -0.168,-3.30061 -1.22513,-5.28623 -5.31573,-9.98455 -2.80832,-3.22554 -5.61182,-6.75786 -6.23,-7.84961 -2.57089,-4.54029 -4.97712,-6.31519 -7.79511,-5.74986 -3.2539,0.65278 -5.1534,-1.13606 -4.54902,-4.28401 0.73831,-3.84549 2.61966,-6.42061 5.15765,-7.05956 4.23508,-1.0662 6.1848,-0.14314 6.42899,3.04369 0.1649,2.15195 2.63586,5.39943 9.18414,12.07036 4.9272,5.01947 9.83932,9.35735 10.91582,9.63973 1.88368,0.49411 3.01039,-0.73967 20.16906,-22.08556 0.68671,-0.85429 3.36341,-4.16327 5.94822,-7.3533 2.58481,-3.19003 4.70272,-6.68484 4.70646,-7.76623 0.009,-2.54219 3.15486,-7.30433 6.27269,-9.49486 3.40917,-2.39521 8.21133,-1.66801 10.98755,1.66386 2.75868,3.31083 3.23806,2.82144 6.71733,-6.85757 l 2.33991,-6.50942 7.74244,0.29643 c 6.85927,0.26262 7.86674,0.0602 8.83217,-1.77456 0.94195,-1.79013 1.98754,-2.03501 7.70994,-1.80565 6.24488,0.25031 6.87512,0.51448 11.11678,4.65974 3.92456,3.83537 4.42894,4.82546 3.96487,7.78296 -0.29244,1.86371 -0.17164,3.16535 0.26845,2.89252 0.4401,-0.27283 2.79991,1.5478 5.24405,4.04584 4.16444,4.2563 4.40162,4.80692 3.77194,8.75683 -0.46292,2.90385 -0.29773,4.21493 0.53106,4.21493 2.19156,0 12.65612,5.32221 19.46791,9.90126 6.80116,4.5719 20.45609,17.55782 19.4858,18.5311 -0.7787,0.78108 -21.76462,-13.47546 -31.64199,-21.49563 -4.69868,-3.8152 -8.73373,-6.93673 -8.96679,-6.93673 -0.23306,0 -1.45648,1.84316 -2.71871,4.0959 -2.47451,4.41633 -8.11782,6.94733 -9.04989,4.05884 -0.6552,-2.03043 -10.70689,-11.26123 -12.2627,-11.26123 -0.71519,0 -1.30034,-0.36932 -1.30034,-0.82071 0,-0.4514 -4.1345,-2.11351 -9.18777,-3.69358 -9.14408,-2.85921 -16.20144,-3.23595 -16.00096,-0.85416 0.4186,4.97327 0.25004,4.84451 6.6266,5.06162 4.42678,0.15073 8.03345,1.09211 12.63659,3.29829 7.0851,3.39572 15.21646,9.83116 15.21646,12.04282 0,2.05267 1.93733,2.92874 3.53513,1.59861 3.09112,-2.57329 22.61409,16.88215 28.74065,28.64124 5.18686,9.95548 6.77581,16.27617 7.98155,31.74992 0.58209,7.47007 1.29245,15.44585 1.57858,17.72394 1.02773,8.18236 3.53781,40.64998 4.16283,53.84586 l 0.6376,13.46146 4.5546,6.9772 c 2.50503,3.83746 4.55461,7.40992 4.55461,7.93881 0,0.52889 0.36403,1.11694 0.80896,1.30678 0.44493,0.18984 3.11071,3.374 5.92397,7.0759 11.7804,15.50157 29.34227,30.70944 39.72169,34.39736 11.88937,4.22442 34.82543,9.80739 44.42596,10.81393 6.13961,0.64369 6.45879,0.82023 7.94387,4.39372 0.85098,2.0477 2.45483,5.00452 3.5641,6.57071 1.10927,1.56619 1.63681,2.81659 1.17231,2.77866 -0.46449,-0.0379 -18.83655,-4.14879 -12.20011,-4.14879 z M 415.8581,497.2508 c 5.99932,0 -16.79624,-12.37763 -23.15496,-11.7407 l -3.18592,0.31912 -4.27003,-12.49893 -4.27003,-12.49894 13.9222,-14.29168 13.92221,-14.29168 4.43696,0.61002 c 7.30886,1.00487 23.06707,8.50266 27.35878,13.01736 3.12577,3.28818 8.18384,2.98344 9.74885,-0.58736 0.80989,-1.84787 1.87712,-2.23334 6.33107,-2.28671 5.06104,-0.0606 5.3889,0.0959 5.93486,2.83413 0.44597,2.23669 4.05019,5.57269 15.78866,14.61368 12.72949,9.80428 15.86066,11.75216 19.19468,11.94085 2.19116,0.12401 4.27677,0.51923 4.6347,0.87826 0.88575,0.88848 0.82823,9.79427 -0.0691,10.69433 -0.39592,0.39714 -2.43962,0.67318 -4.54156,0.61341 -4.27939,-0.12168 -6.95442,-2.98617 -6.95442,-7.44699 0,-1.80003 -0.91409,-3.07903 -2.99694,-4.19335 -1.64831,-0.88185 -7.45514,-4.10976 -12.90406,-7.17314 -9.09747,-5.11459 -10.39891,-5.55419 -15.92472,-5.37912 -5.37178,0.17019 -6.07994,-0.0485 -6.59852,-2.03763 -0.4821,-1.84924 -1.10476,-2.12319 -3.66045,-1.61048 -1.69374,0.33979 -3.54743,0.6178 -4.1193,0.6178 -0.67572,0 -0.84432,5.19254 -0.48156,14.83079 l 0.5582,14.83079 -7.38991,3.35795 c -4.06445,1.84687 -8.08673,3.77926 -8.9384,4.2942 -1.52391,0.92138 -10.38544,5.14165 -10.7962,5.14165 -0.11577,0 -3.16951,-2.55763 -1.57511,-2.55763 z m 27.85618,-56.43008 c 0,-1.04258 -18.56574,-10.32928 -24.67176,-12.34098 -1.93001,-0.63586 -4.65085,-1.15611 -6.04632,-1.15611 -1.61533,0 -2.35069,-0.4703 -2.02387,-1.29437 5.40751,-13.63493 9.30859,-20.95516 11.19644,-21.00973 2.96327,-0.0857 13.24652,3.52211 19.3691,6.79544 6.00093,3.20829 12.98523,9.61432 12.29526,11.27726 -5.44476,13.12264 -10.11885,21.31177 -10.11885,17.72849 z m -212.40085,-4.90988 c 0,-1.68924 -1.29041,-3.35989 -1.29041,-4.05995 0,-0.70006 -0.79898,-2.07428 -1.77551,-3.05381 -1.26625,-1.27015 -1.8175,-3.66642 -1.92189,-8.35452 -0.1192,-5.35338 -0.67797,-7.343 -3.01034,-10.71896 -2.62766,-3.80336 -5.68016,-5.51212 -5.68016,-3.17969 0,0.87963 -0.80817,1.23166 -6.45203,2.81046 -1.30044,0.36379 -1.80656,-0.0944 -1.80656,-1.63541 0,-1.33339 0.66894,-2.14077 1.7737,-2.14077 2.26644,0 6.48489,-4.883 6.48489,-7.50649 0,-1.14942 0.90018,-2.243 2.10687,-2.55952 1.15877,-0.30396 1.91717,-1.07579 1.68533,-1.71518 -0.49085,-1.35368 2.45618,-6.85776 3.67183,-6.85776 0.45371,0 1.63105,1.32242 2.61632,2.93872 0.98526,1.6163 2.37121,2.74269 3.07987,2.5031 2.18568,-0.73897 8.3598,3.71581 7.91505,5.7109 -0.27481,1.23274 2.17034,3.87223 7.84459,8.46809 4.53411,3.6724 8.24384,6.97305 8.24384,7.33477 0,1.48683 -1.41889,1.90369 -3.20893,0.94274 -1.23421,-0.66256 -2.54973,-0.66965 -3.73549,-0.0201 -1.00668,0.55143 -3.51465,1.27129 -5.57325,1.59969 -3.42545,0.54646 -3.79861,0.94648 -4.39958,4.71631 -0.62241,3.90433 -2.69692,5.8781 -2.69692,2.56597 0,-0.85429 -0.68521,-1.55325 -1.52268,-1.55325 -1.5966,0 -1.46588,2.16302 0.6429,10.63774 1.48402,5.96397 -2.99144,8.70769 -2.99144,3.12696 z M 451.97288,412.7276 c -2.555,-2.3041 -5.25098,-4.66396 -5.99105,-5.24413 -1.92834,-1.51169 -17.44241,-7.08023 -20.41265,-7.32681 -2.87272,-0.23848 -3.22677,-1.98692 -0.87917,-4.34173 1.97361,-1.97968 4.5275,-2.02939 11.28183,-0.2196 14.61378,3.91567 25.42406,13.25022 22.24512,19.20839 -0.63531,1.19071 -1.25489,2.15329 -1.37686,2.13905 -0.12196,-0.0142 -2.31221,-1.91107 -4.86722,-4.21517 z m -303.28452,-9.25345 c -1.8488,-2.9695 -1.52069,-3.92001 0.40245,-1.16589 0.90958,1.30259 1.47268,2.55002 1.25133,2.77205 -0.22135,0.22203 -0.96555,-0.50074 -1.65378,-1.60616 z m 309.99463,-1.58512 c -1.70333,-1.91929 -4.37447,-4.02781 -5.93587,-4.6856 -1.56139,-0.65778 -2.83889,-1.51924 -2.83889,-1.91434 0,-0.94635 -13.20729,-5.61412 -16.5172,-5.83757 -6.90615,-0.46624 -6.46501,-0.1605 -4.74541,-3.2889 0.8609,-1.56619 2.57636,-5.30816 3.81214,-8.31549 1.23578,-3.00733 2.46514,-5.24894 2.7319,-4.98136 0.61653,0.61842 10.66107,-7.30043 10.65911,-8.40336 -8.1e-4,-0.45202 -1.75889,-1.08536 -3.90687,-1.40742 l -3.90541,-0.58557 3.08624,-1.29525 c 1.83403,-0.76972 4.55657,-1.0145 6.71011,-0.6033 1.99313,0.38058 4.7251,0.89677 6.07105,1.14708 8.11722,1.50964 20.78014,11.35569 20.78014,16.1576 0,2.01626 -0.3231,1.87556 -3.05502,-1.3304 -3.4466,-4.04465 -3.69705,-3.36966 -2.05522,5.5391 1.05827,5.74232 0.98444,6.08704 -3.14592,14.68714 -2.3263,4.84374 -4.32375,8.7619 -4.43877,8.70703 -0.11502,-0.0549 -1.60277,-1.67009 -3.30611,-3.58939 z m 1.9161,-8.91631 c 2.35282,-1.8073 4.80042,-3.91352 5.43912,-4.6805 1.20277,-1.44435 0.74707,-10.51532 -0.60313,-12.00565 -0.40633,-0.4485 -3.13639,0.25047 -6.0668,1.55325 -5.30701,2.35934 -5.32804,2.38758 -5.32939,7.15786 -10e-4,5.12888 0.97094,11.26103 1.78569,11.26103 0.27316,0 2.42169,-1.47869 4.77451,-3.28599 z m -15.66836,-9.55919 c 0,-6.32794 4.80598,-4.69113 4.26279,-9.03128 -0.31173,-2.49079 -0.58814,-5.11118 -0.61425,-5.82309 -0.0614,-1.67537 -1.26719,-1.64751 -2.98468,0.069 -0.75028,0.74983 -2.64165,2.20135 -4.20304,3.22559 -2.64232,1.7333 -2.83889,2.35591 -2.83889,8.99164 0,3.92116 0.34841,7.11619 0.77424,7.10006 0.42583,-0.0161 5.60383,-0.9003 5.60383,-4.53188 z m 14.52651,-9.13585 c 2.69695,-1.27838 4.90354,-2.66955 4.90354,-3.09149 0,-1.7192 -12.11977,-7.61609 -13.28699,-6.4648 -0.93017,0.91747 1.15712,11.86368 2.26378,11.87175 0.66887,0.005 3.42272,-1.03707 6.11967,-2.31546 z m 14.53594,-6.84166 c -4.64569,-5.38947 -14.36378,-10.29253 -23.31628,-11.76373 -4.11333,-0.67597 -7.6271,-1.32764 -7.80839,-1.44816 -0.18128,-0.12052 0.15591,-1.07996 0.74932,-2.13209 0.5934,-1.05212 3.44007,-6.97858 6.32592,-13.16991 l 5.247,-11.25695 5.23088,0.69603 c 6.94971,0.92474 21.51145,8.13377 26.77046,13.25315 l 4.21825,4.10625 4.63681,-1.77626 c 3.49308,-1.33812 5.21609,-1.51151 6.98526,-0.70294 4.18006,1.91042 4.06784,10.21982 -0.16811,12.44759 -2.58624,1.36015 -6.33822,-0.2847 -7.47189,-3.27566 -0.57228,-1.50982 -2.03185,-2.69036 -3.72847,-3.01569 -2.66253,-0.51054 -3.02568,-0.0271 -8.06636,10.73726 -2.90307,6.19953 -5.51556,11.23243 -5.80552,11.18422 -0.28997,-0.0482 -1.99947,-1.79561 -3.79888,-3.88311 z m 15.28763,-31.1901 c 0,7.03464 -18.98738,-11.18014 -25.973,-12.5587 -4.74894,-0.93717 -6.14346,-1.60423 -5.71191,-2.73228 0.31401,-0.82082 0.57093,-1.67265 0.57093,-1.89296 0,-0.22031 0.58068,-0.20472 1.29041,0.0346 0.70972,0.23935 3.00637,0.68401 5.10367,0.98812 11.14538,1.61609 31.61636,13.73241 30.06275,17.79348 -0.75313,1.96865 -5.34285,-6.87618 -5.34285,-1.6323 z m 5.08721,-7.73772 -2.35472,-2.5142 2.57315,-5.51091 c 5.08009,-10.88003 6.93803,-15.25214 6.93803,-16.32682 0,-2.00659 1.90172,-1.12378 4.02629,1.86908 l 2.10223,2.96139 -2.49819,5.06372 c -1.374,2.78504 -3.67572,7.74306 -5.11492,11.01782 -1.4392,3.27476 -2.77432,5.95411 -2.96693,5.95411 -0.19262,0 -1.40985,-1.13138 -2.70494,-2.51419 z m -9.10266,-5.99811 c -1.2775,-0.61801 -2.32273,-1.69945 -2.32273,-2.40321 0,-2.10486 9.12178,-22.68159 10.21724,-23.04787 0.55684,-0.18619 2.19831,0.44089 3.64771,1.39349 2.466,1.62075 2.54079,1.90763 1.16431,4.46611 -0.80902,1.50375 -2.57875,5.29695 -3.93272,8.42933 -4.95671,11.46723 -5.41614,12.42469 -5.92884,12.35589 -0.28723,-0.0385 -1.56747,-0.57573 -2.84497,-1.19374 z m -11.87174,-5.26264 c -2.12917,-0.598 -3.87122,-1.45016 -3.87122,-1.8937 0,-0.80914 7.5263,-18.30188 9.32457,-21.67231 0.82192,-1.5405 1.55298,-1.64661 5.10824,-0.74141 4.60131,1.17152 4.79959,1.64203 2.67307,6.3432 -0.81179,1.79464 -2.9456,6.87428 -4.7418,11.28809 -1.7962,4.41381 -3.57088,7.96622 -3.94373,7.89425 -0.37285,-0.072 -2.41996,-0.62013 -4.54913,-1.21812 z m -12.12981,-3.84757 c 0,-0.58001 1.12239,-3.25936 2.4942,-5.95411 1.37181,-2.69476 3.4489,-7.05793 4.61575,-9.69595 1.8112,-4.09473 4.74023,-6.96085 5.91224,-5.78525 0.18633,0.18691 -1.80384,5.32359 -4.4226,11.41485 -3.60788,8.39197 -5.22631,11.07501 -6.68049,11.07501 -1.05551,0 -1.9191,-0.47455 -1.9191,-1.05455 z m 46.93475,-12.47624 c -6.84214,-7.68288 -20.82262,-14.42763 -29.9055,-14.42763 -2.55275,0 -4.64136,-0.23102 -4.64136,-0.51337 0,-2.27269 7.46001,-15.98944 8.95486,-16.46535 2.6839,-0.85445 12.57392,0.92936 17.40204,3.13872 7.45131,3.40973 12.85694,7.68098 14.96394,11.82374 l 2.07918,4.08805 -3.41227,7.31686 -3.41227,7.31687 z m 14.48858,202.53647 c 1.70333,-0.17498 3.44234,-0.36923 3.86446,-0.43166 0.42212,-0.0624 -2.55492,-3.38719 -6.61565,-7.38832 l -7.38314,-7.27479 -2.67262,2.35618 c -1.46994,1.2959 -3.0453,2.93865 -3.50081,3.65055 -0.45551,0.71191 -1.30284,1.29438 -1.88296,1.29438 -1.35631,0 -4.00427,2.64579 -4.00427,4.001 0,0.57333 1.62591,1.63217 3.61314,2.35297 1.98722,0.7208 3.61314,1.66538 3.61314,2.09906 0,0.69416 3.13914,0.55588 14.96871,-0.65937 z M 377.64549,479.75862 c 0,-0.20646 -3.36701,-2.88581 -7.48225,-5.95411 -8.43189,-6.28679 -7.98377,-5.86125 -17.80971,-16.91242 -3.97445,-4.47004 -7.69082,-8.64452 -8.2586,-9.27662 -0.56778,-0.6321 -3.34986,-3.94194 -6.1824,-7.35519 -2.83253,-3.41326 -5.73595,-6.82167 -6.45203,-7.57425 -0.71608,-0.75259 -1.30196,-1.71316 -1.30196,-2.13462 0,-0.42145 -0.81296,-1.68713 -1.80657,-2.81263 -2.98718,-3.38367 -15.72979,-21.74795 -15.73828,-22.68155 -0.003,-0.283 -0.005,-4.22115 -0.005,-8.75145 0,-9.06314 -0.45261,-9.88099 -9.00919,-16.27946 -2.14218,-1.60189 -4.12715,-3.17061 -4.41104,-3.48605 -0.28389,-0.31544 -2.13579,-1.70972 -4.11535,-3.0984 -1.97955,-1.38867 -4.38513,-3.23011 -5.34571,-4.09209 -2.09554,-1.88043 -3.2174,-2.76387 -8.60462,-6.77596 -2.27112,-1.69139 -4.65398,-3.54123 -5.29525,-4.11075 -0.64127,-0.56953 -3.19628,-2.26148 -5.67779,-3.7599 -2.48151,-1.49842 -8.69275,-5.41423 -13.80276,-8.7018 -10.0243,-6.44923 -18.17307,-11.1517 -33.55056,-19.36124 -5.3939,-2.87962 -12.36209,-6.73348 -15.48487,-8.56414 -3.12279,-1.83065 -11.94917,-6.74911 -19.61418,-10.92991 -7.66501,-4.1808 -15.33002,-8.42679 -17.03336,-9.43553 -1.70333,-1.00874 -4.54729,-2.49806 -6.3199,-3.3096 -1.77262,-0.81154 -7.73236,-4.08708 -13.24389,-7.27898 -5.51152,-3.1919 -10.25296,-5.80345 -10.53652,-5.80345 -0.28357,0 -4.03231,-2.91233 -8.33053,-6.47185 -11.18389,-9.26181 -18.75887,-15.27359 -19.24505,-15.27359 -0.23118,0 -0.35598,11.29986 -0.27732,25.11081 l 0.14302,25.11081 8.77476,5.93815 c 22.96365,15.54021 67.24806,33.78931 116.13655,47.85856 21.44855,6.17251 19.79665,5.38857 24.77408,11.75709 2.53425,3.24253 8.35201,10.92313 12.92834,17.068 4.57633,6.14487 9.1811,12.20253 10.23282,13.46146 1.05172,1.25894 6.01685,7.41468 11.03362,13.67944 10.28061,12.83805 9.41684,11.8156 25.30852,29.95773 11.71372,13.37251 11.74275,13.39637 22.5177,18.50147 16.00477,7.58296 33.08495,13.6448 33.08495,11.74202 z M 156.21179,104.0256 c 0,-15.338864 -0.51608,-14.483729 7.90623,-13.10053 3.59681,0.59071 3.80099,0.46725 4.28164,-2.588742 0.32746,-2.081985 0.35311,-4.878192 -1.08345,-4.762276 -3.28472,0.265043 -5.42965,0.670455 -6.66397,0.390651 -0.68054,-0.421888 -5.67769,-0.383038 -11.0892,-0.66428 -2.41121,-0.125313 -10.51268,-0.968864 -13.13953,-0.893952 -2.02847,0.05785 -1.65957,-1.102106 -1.03232,2.07364 0.37965,1.922142 0.68963,4.252011 0.68886,5.177486 -0.001,1.391253 0.97638,1.621597 5.64417,1.329933 l 5.64557,-0.35276 0.005,10.70773 c 0.004,8.76489 0.3389,14.1277 1.00897,16.14409 0.0473,0.14238 1.82807,0.25865 3.95724,0.25838 l 3.87122,-4.9e-4 z m 22.38057,7.30862 -0.44196,-6.12884 5.54789,0.23833 c 9.00048,0.38665 9.16104,0.49547 9.16104,6.20954 v 5.05671 l 3.87122,-10e-4 3.87121,-0.001 v -13.36241 c 0,-7.34933 -0.40034,-13.11375 -0.88966,-12.80982 -1.3165,-0.601544 -2.88046,-0.413191 -4.41312,-0.623388 -2.4957,-0.353536 -2.94786,-1.499091 -2.7147,3.749748 l 0.24111,5.42783 c -8.22195,0.91659 -2.39867,0.47537 -10.28931,0.58062 -3.23141,0.0431 -3.12078,0.27252 -3.5079,-7.27501 -0.0606,-1.18129 -0.98115,-2.21699 -2.16989,-2.441301 -1.13556,-0.214275 -2.54478,-0.778766 -3.1316,-1.254426 -1.96312,-1.591251 -3.73974,0.52398 -2.7252,3.244597 0.51334,1.37656 0.61849,3.38379 0.23368,4.46052 -0.38481,1.07673 -0.52519,5.50348 -0.31194,9.83723 0.21324,4.33374 0.39201,8.63144 0.39726,9.55045 0.007,1.23732 1.00914,1.67091 3.86168,1.67091 h 3.85215 z m 53.23723,2.75826 c 2.03339,-2.3422 2.32273,-3.81867 2.32273,-11.85253 0,-5.04737 0.25998,-9.85662 0.57774,-10.68722 0.38859,-1.01577 -0.37184,-1.778621 -2.32273,-2.330133 -4.38176,-1.238709 -6.04026,-1.057662 -5.60179,0.611507 0.2176,0.828396 0.55109,5.045676 0.74107,9.371736 0.40831,9.29726 -1.36383,12.32664 -7.21089,12.32664 -5.70201,0 -7.06834,-2.56167 -6.69122,-12.54498 l 0.3231,-8.55323 -3.2832,-1.343807 c -4.29876,-1.759473 -6.82995,-0.878347 -5.36489,1.867547 0.58673,1.09969 0.97718,5.39564 0.86765,9.54653 -0.34976,13.25526 4.18746,17.84992 16.60959,16.81985 5.53953,-0.45935 7.11531,-1.02316 9.03284,-3.23191 z m 107.62048,-0.23013 6e-4,-3.88312 -8.00112,0.16542 c -4.40062,0.091 -8.69794,0.32396 -9.54961,0.51774 -1.06494,0.24231 -1.64373,-0.61773 -1.85348,-2.75415 -0.30327,-3.08886 -0.27604,-3.10575 4.79608,-2.97535 2.8056,0.0721 5.61399,0.44911 6.24087,0.83774 0.74718,0.4632 1.13978,-0.52125 1.13978,-2.858 0,-2.66453 -0.50882,-3.69804 -2.01515,-4.09317 -1.10834,-0.29073 -0.96639,0.004 -2.46235,0.65585 -3.36191,0.76607 -3.92407,-0.122439 -5.89297,0.22291 -1.63157,0 -2.04244,-0.57179 -1.80657,-2.51414 0.29337,-2.41587 0.61294,-2.5139 8.17663,-2.50805 4.32922,0.003 8.394,0.33011 9.03284,0.72615 0.78291,0.48535 1.16099,-0.56559 1.1599,-3.22416 l -0.002,-3.94423 -12.91751,0.10141 c -7.10464,0.05578 -13.02687,0.288762 -13.16053,0.517748 -0.13365,0.228986 -0.10102,6.590992 0.0725,14.137792 l 0.31549,13.72145 12.42616,-0.0777 c 6.83439,-0.0427 12.69281,0.18974 13.01871,0.51664 1.09295,1.09631 1.28076,0.61426 1.28137,-3.28874 z m -91.62621,-5.69281 -0.26484,-8.54528 1.8582,3.62424 c 3.88544,7.57818 6.82047,12.42597 7.52311,12.42597 0.40095,0 2.83003,-3.36761 5.39794,-7.48357 l 4.66893,-7.48356 -0.2502,5.58596 c -0.40037,8.93857 0.15378,10.41669 3.90512,10.41645 l 3.23471,-2.1e-4 0.0741,-13.46125 c 0.0557,-10.12046 -0.24623,-13.461254 -1.21667,-13.461254 -3.19993,-3.300814 -8.66454,-1.960094 -8.66454,-0.198628 0,1.928092 -3.98868,11.559052 -6.04643,14.599562 -0.7501,1.10835 -1.75085,-0.0622 -4.18001,-4.88908 -1.75658,-3.49047 -3.19379,-7.05855 -3.19379,-7.92908 0,-0.87053 -0.5441,-1.582774 -1.20912,-1.582774 -3.72798,-4.031583 -9.24007,-2.211827 -9.01731,-0.413819 0.14461,1.167182 0.0292,6.130903 0.15441,14.270673 l 0.20091,13.06608 3.64515,0.002 3.64515,0.002 z m 40.23055,2.91784 -0.46484,-5.62257 7.32387,-0.0232 c 9.90711,-0.0314 13.52181,-1.99813 13.54661,-7.37058 0.0126,-2.72793 -3.52899,-9.417441 -4.87126,-9.201065 -0.43277,0.06976 -1.01913,0.0599 -1.30302,-0.02191 -0.28389,-0.08181 -5.50974,-0.253489 -11.61301,-0.381499 l -11.09684,-0.232746 0.65134,3.47734 c 0.35824,1.91254 0.66891,8.31968 0.69042,14.23809 l 0.0391,10.76074 h 3.78125 3.78126 z m 0.24545,-11.85796 c -0.25665,-0.25744 -0.46664,-1.32236 -0.46664,-2.36649 0,-1.63104 0.87689,-1.89841 6.22635,-1.89841 4.70091,0 6.37845,0.3976 6.84718,1.62285 1.87616,4.90421 -12.55609,2.693005 -12.60689,2.64205 z m 62.80233,11.78531 -0.586,-5.69524 h 3.57419 c 3.04415,0 3.9841,0.62802 6.33837,4.23492 1.5203,2.32921 2.76419,4.89206 2.76419,5.69524 0,1.06327 1.41225,1.46031 5.19419,1.46031 h 5.19418 l -4.20202,-5.70555 -4.20202,-5.70554 2.63366,-1.0044 c 3.80906,-1.45266 5.09693,-4.94045 3.71924,-10.07252 -1.35985,-5.065625 -2.91848,-4.236674 -13.75694,-5.655805 -5.85832,-0.767058 -8.77304,-1.260605 -11.69558,-0.983079 -2.92585,0.277841 -2.03763,2.05903 -1.67512,15.406554 l 0.37264,13.72034 h 3.45651 3.45651 z m 0.73517,-11.87225 c 0,-0.49615 -0.28197,-1.63916 -0.62661,-2.54002 -0.5326,-1.39221 0.40147,-1.63794 6.22635,-1.63794 5.33122,0 6.99379,0.36812 7.48715,1.65776 0.85475,2.23429 -1.65354,3.63434 -4.1297,2.30507 -1.09642,-0.58859 -2.28281,-0.67257 -2.63644,-0.18662 -0.86696,1.19134 -6.32075,1.53799 -6.32075,0.40175 z"
     id="path1"
     sodipodi:nodetypes="cccccccccccsccccccccsscccccccccccccccccccccccccccccccssccccccccscccccsccccccccscccccscsccccccsccccccccccccccccccccccccccscccccccccccccsccccccsccccccccccccccccccsccccccsccccccccccccccsccccccscccccscccssccccccscsccccccccccssssssssssssssssssssssssssssssssssssssscsscsssssccsssssssssssssssssscssssssssssssssssssssssscccssssscssssssssssssssscsssssssssssssssscsssscssssssssssssssssssscssssssssssscccssssssssssssssssssssssssscssssscsssssssssssssssssssssssssscssssssssssssssssssssssssssssscssssssssssssssssssssssssssssssssssccssscssssssssssssssssssscssssssssssssssssssscssscssssssssssssssssssssssssssscssssssssssssscccccsssssssssssssssssscssssssssssssssssssssssssssssssssssssssssssssssssssssssssssssscssssssssssssscssssssssssssssssssssscsscsssssssssssssssssscssscssssssssssssssssssssssssssssssssscccsssscssssssscssssssscssssssssssssssssssscsssssssscccssssssscsccssccccsscccsssscssssssscsccsssssssscsssssccssssssscsscsccsssccsccccssscsscsssssssssccccccssssscssccccsssssccsssscccsssssccccsssssss"
     inkscape:label="path1"
     style="display:inline" /><text
     transform="translate(-23.585787,-55.769552)"
     x="144.12617"
     y="663.52429"
     fill="#000000"
     font-size="29px"
     style="font-size:30.6667px;line-height:1.1;white-space:pre;inline-size:584.851;display:inline"
     xml:space="preserve"
     id="text9"><tspan
       x="144.12617"
       y="663.52429"
       id="tspan1">Play at beginning of Spice Blow </tspan><tspan
       x="144.12617"
       y="697.25769"
       id="tspan2">Phase instead of revealing the next </tspan><tspan
       x="144.12617"
       y="730.99109"
       id="tspan3">Spice Blow card. Causes a Sandworm </tspan><tspan
       x="144.12617"
       y="764.72448"
       id="tspan4">to appear. Play proceeds as though </tspan><tspan
       x="144.12617"
       y="798.45788"
       id="tspan5">Shai-Hulud has been revealed.</tspan></text><text
     transform="translate(112.05112,193.71261)"
     fill="#000000"
     font-size="43px"
     style="font-size:33.3333px;white-space:pre;shape-inside:url(#rect2);display:inline"
     xml:space="preserve"
     id="text10"><tspan
       x="0"
       y="0"
       id="tspan6">Spice BLow - Special</tspan></text></svg>
