<?xml version="1.0" encoding="UTF-8"?>
<!-- Created with Inkscape (http://www.inkscape.org/) -->
<svg width="822" height="1122" version="1.1" viewBox="0 0 822 1122" xmlns="http://www.w3.org/2000/svg">
 <path d="m406.5 80.008c-359.64 0-323.99-0.76765-328.03 7.0547-2.769 5.3546-2.4788 938.09 0.29297 941.84 1.0584 1.4294 3.4122 3.6121 5.2305 4.8496l3.3047 2.25h318.38c345.71 0 321.92 0.3967 327.32-5.4512l2.5-2.709 0.24023-468.99c0.21445-420.35 0.07952-469.3-1.2988-471.96-3.9372-7.6137 31.146-6.877-327.94-6.877zm-55.5 2.9824-0.0137 3.2559c-8e-3 1.79-0.28496 4.268-0.61719 5.5078l-0.60547 2.2539-42.41-0.05078c-61.953-0.31588-108.89-0.014037-171.48-1.6875-0.97496-0.026067-0.1822-3.3445-0.25-5.2695l-0.12305-3.5 107.75-0.25391zm-241.07 0.009766h22.066v5.5312c0 4.3755-0.3657 5.6561-1.75 6.125-0.9625 0.32603-4.2113 1.6805-7.2188 3.0117-3.0075 1.3312-7.7474 4.1433-10.535 6.2481l-5.0703 3.8262-11.676-11.355c-14.453-14.056-15.163-13.387 14.184-13.387zm243.96 0h16.053c13.787 0 16.053 0.21656 16.053 1.5391 0 19.898 34.675 22.236 39.938 2.6934l1.1387-4.2324h15.295c17.688 0 16.222-0.54508 15.785 5.8633l-0.3418 5.0312-10.158-0.10352-10.156-0.10547-13.396 6.7363c-7.3675 3.7056-14.343 7.0606-15.5 7.4551-1.5412 0.5252-6.1184-1.2776-17.104-6.7383l-15-7.457-11-0.08984-11-0.0918-0.30273-5.25zm52.674 0h17.566l-0.66407 2.25c-1.2738 4.3123-5.3149 9.4481-8.6309 10.969-9.671 4.435-18.11 1.9139-23.584-7.0449-3.8309-6.2698-4.0681-6.1738 15.312-6.1738zm55.432 0h215v11.023l-215-0.089844v-5.4668zm218 0 22.75 0.01563c29.005 0.01952 28.194-0.69297 14.721 12.922-12.539 12.671-11.09 11.941-15.988 8.0488-3.402-2.7038-11.147-6.7684-18.732-9.832-2.4874-1.0047-2.75-1.5908-2.75-6.1328zm50.592 5c3.1074 0 3.7638 46.944 0.6582 47.072-0.9625 0.0398-3.4403 0.1523-5.5059 0.25-3.4723 0.16427-3.8387-0.0863-4.8574-3.3223-1.609-5.1112-7.6733-16.079-10.613-19.195l-2.543-2.6953 10.852-11.055c5.9678-6.0801 11.372-11.055 12.01-11.055zm-648.84 1.0859c1.6902-0.07059 5.0355 3.237 11.678 9.8535l11.482 11.439-3.5156 4.5605c-3.1208 4.0477-8.1239 13.445-9.748 18.311-0.42484 1.2727-1.6609 1.75-4.5332 1.75-2.1723 0-4.6613 0.27357-5.5312 0.60742-1.8825 0.72239-1.8685 0.85147-1.7188-15.107 0.06195-6.6 0.12572-16.05 0.14062-21 0.02076-6.8948 0.0559-10.343 1.7461-10.414zm553.72 25.545c14.656 0.0531 29.368 5.5078 40.684 16.713 32.08 31.766 17.101 86.466-26.75 97.682-51.049 13.056-91.987-44.646-62.834-88.566 11.309-17.038 30.057-25.896 48.9-25.828zm-521.47 0.86914h32l4e-3 7-6.082-0.34375-6.0801-0.3418 0.32812 13.594 0.33008 13.594h-4.8574c-4.2601-1e-3 -4.76-0.21703-4.0664-1.752 1.2395-2.7428 1.6918-11.917 0.93555-18.979l-0.68945-6.4394-11.826 0.66797 2e-3 -3.5zm89.5 5.6875 2.5 0.33789c1.375 0.18552 3.3033 0.36835 4.2852 0.40625 1.4296 0.0552 1.5853 0.44074 0.7832 1.9394-0.55089 1.0294-0.9878 5.6418-0.9707 10.25 0.0369 9.9445-0.44324 11.489-4.1699 13.416-3.6094 1.8665-14.578 1.8435-18.039-0.0371-3.6484-1.9829-4.7455-5.5384-5.0898-16.5l-0.29883-9.5 4 0.084c5.6284 0.11742 6.0523 0.26216 4.6992 1.6152-4.7926 4.7926-0.53396 20.256 5.5781 20.256 6.6837 0 7.4497-1.3638 7.0606-12.557zm263.92 0.20508c1.2486-0.47912 1.582 0.1002 1.584 2.75l2e-3 3.3574-9.002-0.32031-9.002-0.32227v2.6875c0 2.6762 0.0259 2.6867 6.332 2.2852l6.334-0.4043-0.2129 3.4961-0.21093 3.4961-4.8711-0.29688c-2.6789-0.16277-5.3211-0.36948-5.8711-0.45898s-1.1464 1.107-1.3242 2.6582l-0.32226 2.8203 19.15-0.64062-2e-3 3.75c-1e-3 2.0625-0.11445 3.6514-0.25195 3.5312-0.1375-0.12011-6.1-0.35588-13.25-0.52539l-13-0.30859v-26.945h11.168c6.1425-6.2e-4 11.88-0.27552 12.75-0.60937zm-254.42 0.10742h26.998v3.1035l2e-3 3.1035-5.0918-0.49023-5.0918-0.48828 0.34179 11.137 0.3418 11.137h-8l0.3418-11.137 0.34179-11.137-5.0918 0.48828-5.0918 0.49023v-3.1035zm62.5 0h13.705c13.165 0 13.69 0.0788 13.324 2-0.20925 1.1-0.41458 2.45-0.45508 3-0.0423 0.57359-2.2059 0.85306-5.0742 0.6543l-5-0.34766v10.098c0 6.4394 0.38316 10.096 1.0586 10.096 0.58246 0 0.78133 0.45 0.44141 1s-2.3649 1-4.5 1-4.1601-0.45-4.5-1-0.14105-1 0.44141-1c0.67562 0 1.0586-3.6644 1.0586-10.123v-10.125l-10.635 0.88282 0.0664-3.0684zm121 0 4.1894 0.3457c3.8094 0.31451 4.1174 0.54092 3.4082 2.5-0.82928 2.2908-0.53299 18.589 0.4082 22.461 0.53331 2.1939 0.32761 2.2912-4.2227 2-2.7334-0.17495-4.7005-0.76897-4.5898-1.3867 0.10652-0.59454-3.156-4.4099-7.25-8.4766l-7.4434-7.3926v7.7246c0 4.7703 0.40462 7.7246 1.0586 7.7246 0.58246 0 0.78133 0.45 0.44141 1s-2.2786 1.0008-4.3086 1.002h-3.6914l0.33398-12.047c0.22159-7.9739-0.0467-12.508-0.79687-13.412-1.3909-1.676-0.34207-2.3839 2.9629-2 1.375 0.1597 3.5125 0.32725 4.75 0.37305s2.1375 0.47997 2 0.96289c-0.24457 0.85895 11.908 14.121 12.939 14.121 0.28752 0 0.36175-3.4875 0.16602-7.75zm-233.92 0.0879c6.5634 0.1343 12.628 1.189 14.113 2.6738 3.2635 3.2635 0.77506 12.738-3.3457 12.738-0.73975 0-1.3457 0.36108-1.3457 0.80273 0 1.2968 6.0867 9.1973 7.0859 9.1973 0.50242 0 0.91406 0.45 0.91406 1s-2.5132 1-5.584 1c-4.032 0-5.4626-0.34731-5.1484-1.25 0.93881-2.6976-5.1654-9.75-8.4395-9.75h-3.0762l0.45703 5.5 0.45508 5.5h-4.082l-4.082 2e-3v-26.768l5.5-0.45508c2.1476-0.17783 4.3904-0.23617 6.5781-0.19141zm154.34 0.0215c6.3745 0.26067 13.326 1.2057 14.797 2.5879 4.0413 3.7966 1.5614 12.803-3.5254 12.803-1.9205 0-1.4141 1.1004 2.8144 6.1152 5.05 5.989 5.078 5.8848-1.6074 5.8848-4.7102 0-5.5097-0.25448-4.998-1.5879 1.087-2.8326-4.4313-9.366-7.9316-9.3906-3.1173-0.0219-5.0542 6.8765-2.3926 8.5215 0.52927 0.3271 0.70316 1.0134 0.38672 1.5254-1.2665 2.0493-9.6445 1.0992-8.9726-1.0176 0.86567-2.7273 0.94487-22.548 0.0957-23.922-0.83825-1.3563 4.9595-1.7802 11.334-1.5195zm35.494 0.084c1.8085-0.26242 4.4166-0.1938 7.541 0.24414 0.2475 0.0347-0.0583 0.57003-0.67969 1.1914-1.1313 1.1313 8.438 21.954 10.744 23.379 0.54234 0.33518 0.98633 1.0332 0.98633 1.5508 0 1.2642-9.716 1.2102-10.5-0.0586-0.33992-0.55-0.15074-1 0.41992-1 0.68971 0 0.65561-0.83819-0.10156-2.5-2.4922-5.4697-16.335-2.6171-14.207 2.9277 0.49586 1.2922-0.23353 1.5723-4.0879 1.5723-2.5797 0-4.5348-0.3375-4.3457-0.75s2.89-5.7311 6.002-11.82c3.112-6.0892 5.5811-11.939 5.4883-13-0.077-0.88014 0.93177-1.4739 2.7402-1.7363zm-87.908 0.30469 8 4e-3v27l-4.0644-0.00209h-4.0625l0.875-12.098-13.748 0.59766 0.0508 11.5h-8.0508v-26.998l4.1035-0.00195h4.1035l-0.96094 10h14.447l-0.34766-5.002zm156.78 0.0176c7.3958-0.56 17.796 1.2592 17.695 3.9844-0.0606 1.6376-4.054 5.3633-4.7168 4.4004-4.0631-5.903-16.944-3.7698-18.666 3.0918-2.1336 8.5008 12.532 14.09 18.404 7.0137 1.0661-1.2845 1.5028-1.1423 3.2324 1.0566 1.1 1.3984 1.835 2.6711 1.6348 2.8281-0.2002 0.15705-2.4186 1.2583-4.9297 2.4473-18.802 8.9026-36.136-12.979-18.549-23.416 1.2978-0.77026 3.4293-1.2196 5.8945-1.4063zm214.7 0.44336c-16.277-0.20998-32.707 7.014-43.045 21.752-20.224 28.832-5.3237 69.919 28.754 79.287 44.879 12.337 81.88-38.941 56.42-78.189-9.7285-14.997-25.852-22.64-42.129-22.85zm-0.66602 3.541c53.063 0 66.1 70.799 17.004 92.34-24.766 10.866-57.21-5.6603-63.49-32.34-7.4018-31.446 14.721-60 46.486-60zm-315.64 0.97852c-3.1801 0.27093-6.2792 1.2471-6.4844 2.6875-0.20607 1.4466 0.29182 2.2816 1.5 2.5156 6.6047 1.279 13.089-0.70722 11.955-3.6621-0.52874-1.3779-3.7906-1.812-6.9707-1.541zm-155.8 0.02148c-5.7803 0-5.877 0.0475-5.877 2.8203 0 2.8168 5e-3 2.8176 6.1602 2.5469 10.38-0.45648 10.12-5.3672-0.28321-5.3672zm190.02 4.1856c-0.56632 0.27772-1.2716 1.3691-2.1992 3.3144l-1.668 3.5h3.5898c3.0276 0 3.4785-0.27448 2.8711-1.75-0.39625-0.9625-0.94787-2.5375-1.2246-3.5-0.37558-1.3062-0.80282-1.8422-1.3691-1.5644zm368.1 6.709 10.5 0.60547v838l-10.5 0.60547v-419.61zm-638.47 0.52149c2.1832-0.0583 4.6438 0.0436 5.4688 0.22656 1.4751 0.32715 1.5877 91.724 1.0137 820.61l-0.013672 17.75h-10l-0.04492-9.75c-0.0245-5.3625-0.12255-194.02-0.21875-419.24l-0.17578-409.49zm552.91 2.7363c-2.5319 0.48759-3.5601 7.2266-2.9902 19.598 0.40737 8.8434-0.72061 12.494-2.0078 6.5-0.92001-4.2839-2.2969-11.322-3.1602-16.146-0.97089-5.4264-3.687-7.5682-5.8691-4.6289-1.5191 2.0462-1.2571 9.2046 0.66211 18.025 3.3164 15.243-0.29531 22.574-6.2266 12.637-4.8705-8.1598-9.602-11.196-11.674-7.4941-0.68038 1.2158 0.78058 4.9184 5.623 14.25 9.9094 19.096 14.438 24.059 23.197 25.422 1.375 0.21395 3.175 0.26252 4 0.10938s3.4286-0.57856 5.7852-0.94531c8.2234-1.2798 11.705-6.2641 12.656-18.119 0.51209-6.3811 1.2076-8.6566 6.6113-21.641 5.9708-14.347 1.0866-17.582-5.6465-3.7402-5.9119 12.154-6.4862 11.735-6.1719-4.5176 0.40629-21.008-5.2335-22.936-6.6973-2.2891-1.2787 18.036-3.5371 17.373-3.5371-1.0391 0-13.544-0.89452-16.685-4.5547-15.98zm-542.45 36.848h479.54l1.2734 6.75c15.828 69.387 111.4 64.251 121.17-3.5l0.01367-3.25h23.01l-0.25391 402.25-0.25586 402.25-3.5 7c-5.1149 10.229-15.379 20.347-25.578 25.217l-7.9219 3.7832-242.76 0.3477-16.139-7.7422-16.141-7.7422-16.303 7.8047-16.301 7.8027-119.68-0.049c-94.062-0.038-120.53-0.3212-123.68-1.3223-15.206-4.8422-28.519-17.425-34.506-32.613-2.1432-5.4322-2.199-26.055-2.0117-741.24zm136.33 17.426c-0.82299 0.31581-1.684 0.57422-1.9141 0.57422-0.67396 0-0.47972 23.676 0.20898 25.471 0.93907 2.4472 4.9764 1.576 4.498-0.9707-0.20655-1.0997-0.58299-7.3209-0.83594-13.824-0.38771-9.9683-0.69554-11.734-1.957-11.25zm-107.49 0.56055c-2.5755 0.18596-5.2241 0.8193-6.0352 1.7637-4.026 4.6877-2.8265 8.9814 3.5508 12.719 8.6871 5.091 6.4486 10.131-3.2988 7.4297-1.8848-0.52239-2.6638 3.103-0.90625 4.2168 2.2168 1.4049 8.2414 0.99753 10.697-0.72265 5.4596-3.8241 4.4002-9.4279-2.627-13.893-6.3273-4.02-6.5526-7.0353-0.51563-6.916 4.0952 0.0809 6.0969-1.4724 4.7363-3.6738-0.52408-0.84797-3.026-1.1098-5.6016-0.92383zm77.031 0.0215c-0.98022 0.13343-1.873 0.77943-1.873 1.8262 0 1.0083 0.29935 2.1333 0.66602 2.5 1.9235 1.9235 4.5624-0.335 3.6035-3.084-0.34851-0.99911-1.4163-1.3761-2.3965-1.2422zm2.127 6.8652-3.2422 0.31445c-3.3695 0.32571-5.5024 3.8125-2.332 3.8125 1.3 0 1.5742 1.3898 1.5742 8 0 7.3333 0.16667 8 2 8 1.8675 0 2-0.66581 2-10.062zm-14.682 0.12693c-2.3407 8e-3 -5.1816 0.85616-7.1816 2.5391-5.0996 4.291-4.3564 13.178 1.3633 16.307 4.1705 2.2811 12.014 0.65736 10.896-2.2559-0.3719-0.96919-1.65-1.2324-4.2852-0.8789-4.4991 0.60346-7.1113-1.463-7.1113-5.627 0-3.8274 3.0358-6.3325 7.1719-5.918 2.7734 0.27797 3.3281 2.6e-4 3.3281-1.666 0-1.6762-1.8409-2.5078-4.1816-2.5zm26.24 0c-7.054 0-7.1597 3.5918-0.12304 4.1758 5.1442 0.42696 6.0792 2.8242 1.1016 2.8242-6.8056 0-10.806 6.7314-6.5371 11 2.1019 2.1019 6.4854 2.6104 8.9668 1.041 0.92772-0.58675 1.9324-0.53831 2.7363 0.1289 2.1187 1.7583 4.5762 0.22028 3.3398-2.0898-0.57371-1.072-1.043-4.4525-1.043-7.5137 0-7.1849-2.1014-9.5664-8.4414-9.5664zm-47.855 4e-3c-5.1109-0.35617-10.72 3.5558-10.672 10.17 0.0334 4.5502 1.1594 6.7212 4.4688 8.6191 3.8896 2.2307 11.818 1.0548 11.273-1.6719-0.24522-1.2288-1.2417-1.5405-4.123-1.2852-2.5666 0.22746-4.4192-0.22084-5.7031-1.3828-2.8627-2.5907-1.488-3.4531 5.5039-3.4531 6.9365 0 8.2348-1.0662 6.584-5.4082-1.3783-3.6252-4.2655-5.3742-7.332-5.5879zm-26.453 0.16601-5.25 0.0606v13.385c0 12.715 0.0996 13.385 2 13.385 1.619 0 2-0.66667 2-3.5 0-3.3963 0.11459-3.5 3.8652-3.5 7.4925 0 11.735-6.6182 9.1895-14.332-1.3742-4.1639-4.4247-5.5842-11.805-5.498zm25.25 3.83c2.106 0 4.5 1.7016 4.5 3.1992 0 0.44-2.025 0.80078-4.5 0.80078s-4.5-0.36078-4.5-0.80078c0-1.4976 2.394-3.1992 4.5-3.1992zm-23.189 0.17773c5.0457-0.57856 7.4838 4.6018 4.6543 9.8887-1.2207 2.2808-6.7401 2.6817-7.5586 0.54882-1.5958-4.1586 0.0602-10.111 2.9043-10.438zm74.174 6.0215c0.65047-0.0345 1.2365 0.12124 1.6426 0.52734 0.58972 0.58972 0.771 2.0165 0.4043 3.1719-0.93742 2.9535-6.5312 3.0218-6.5312 0.0801 0-1.865 2.5329-3.6759 4.4844-3.7793zm-97.312 35.301-4.3359 3.0059c-2.6466 1.8352-5.2326 4.8138-6.6387 7.6426l-2.3047 4.6328 0.0273 159.6c0.0272 155.63 0.0766 159.69 1.957 163.36 2.1752 4.242 5.2171 7.2749 9.623 9.5977 4.5414 2.3941 575.54 2.5074 581.27 0.11523 4.7146-1.9699 7.9244-4.9731 10.33-9.6641 1.8479-3.6013 1.9024-8.4018 1.9024-163.59v-159.88l-2.3262-4.4062c-1.2797-2.424-4.2432-5.7582-6.5859-7.4082l-4.2598-3h-289.33zm521.36 2.7266 57.129 0.27344 3.5312 2.6934c7.734 5.9002 7.3125 0.77723 7.3125 88.807l0.27344 160.41-0.27344 79.414-3 4.2324c-5.9105 8.338-2.5227 7.9394-67.4 7.9394h-229.36c-77.516-1.6212-153.48-0.0433-229.99-0.0234-63.668-0.0253-61.204 0.22795-66.57-6.8066l-2.6797-3.5137-0.26758-80.775-0.23242-161.04v-79.162l2.4863-4.2422c5.0843-8.6757 3.1547-8.4336 67.279-8.4336h143.7l172.09-6e-5c51.124-2e-5 95.693-0.014 145.97 0.22662zm-236.06 3.1914c-9.4756 2.3782-7.3852 18.613 2.5312 19.66 12.19 1.2868 16.062-16.734 4.1894-20.182-2.3396-0.67934-4.1698-0.17186-6.7207 0.52149zm44.457 4.5313c-2.2699-0.14733-4.5561 0.71073-6.7754 2.5781-5.7344 4.8252-4.6108 14.067 2.0625 16.967 10.678 4.6395 19.563-7.9177 11.387-16.094-2.1511-2.151-4.404-3.3038-6.6738-3.4512zm-81.023 0.05078c-10.983 0-13.707 15.13-3.5234 19.562 3.8713 1.6849 3.104 1.6799 7.0234 0.043 10.341-4.3216 7.6123-19.606-3.5-19.606zm-37.156 16c-9.8993 0-14.208 9.7371-7.3457 16.6 4.3021 4.3021 9.0107 4.6078 13.449 0.87305 7.2396-6.0917 3.2641-17.473-6.1035-17.473zm155.59 0c-10.895 0-14.382 13.589-4.834 18.84 9.7518 5.3628 19.183-7.1204 11.91-15.764-2.1828-2.594-3.2922-3.0762-7.0762-3.0762zm-187.67 24.406c-4.7595-0.23014-9.7 2.7252-10.416 9.0781-0.46239 4.1024-0.20783 4.757 3.1523 8.1172 6.7493 6.7493 16.582 2.5055 16.594-7.1621 8e-3 -6.3871-4.5706-9.8031-9.3301-10.033zm221.02 0.10742c-5.4397-0.57483-11.186 3.043-11.178 9.6504 6e-3 4.4706 2.5942 9.2849 5.4941 10.219 8.8755 2.8582 17.657-6.0583 13.834-14.047-1.7333-3.6222-4.8865-5.4774-8.1504-5.8223zm24.635 32.025c-5.5413-0.68662-11.119 3.9665-11.318 11.035-0.53763 19.054 31.8 5.6334 16.646-8.4609-1.6388-1.5242-3.481-2.3453-5.3281-2.5742zm-270.54 0.20313c-3.6585-0.10904-7.3972 1.6176-9.2695 5.2383-2.4078 4.6561-1.8889 7.8396 1.8906 11.619 8.1884 8.1884 20.654-0.3541 16.172-11.082-1.5555-3.7228-5.1345-5.6664-8.793-5.7754zm106.16 1.0664c-0.0348-0.71996-1.0537 1.6502-2.2637 5.2656-2.5547 7.6336-11.598 22.126-13.393 21.463-0.66989-0.24762-1.4988 4e-3 -1.8418 0.55859-0.34301 0.55503-1.1442 0.82488-1.7812 0.59961-1.2322-0.4357-32.741 29.729-36.217 34.672-2.7232 3.8725-1.342 9.7706 3.5723 15.262 4.2142 4.7088 9.0918 12.018 15.572 23.328 2.6648 4.6509 7.3897 11.655 10.498 15.566 7.7717 9.7799 7.775 9.7888 9.1016 23.865 1.6028 17.006-0.61325 32.374-5.7422 39.83-1.8292 2.6592-3.6411 5.8356-4.0273 7.0586s-2.163 4.0227-3.9473 6.2227c-13.091 16.142-12.918 22.854 0.83008 32.205 4.5733 3.1106 8.8806 5.2949 10.441 5.2949 4.5426 0 19.061-2.0958 36.26-5.2344 9.075-1.6561 22.422-3.3675 29.66-3.8027 7.2384-0.43528 21.366-1.6076 31.393-2.6055l18.23-1.8144 5.5274-6.8418c5.4105-6.6964 7.9439-13.573 6.4414-17.488-0.49897-1.3003-16.21-9.2129-18.293-9.2129-0.59538 0-7.266-2.0207-14.822-4.4902-13.841-4.5235-17.475-6.6393-19.199-11.174-0.64217-1.689-1.4919-2.3143-2.6875-1.9766-0.96207 0.27174-3.6625 0.79297-6 1.1562l-4.25 0.66016 0.0176-8.8379c0.027-13.744 2.0244-20.895 10.898-39.021l7.9219-16.184 8.332-6.6211c4.5818-3.6417 10.431-7.5364 12.998-8.6543 17.111-7.4518 17.122-18.957 0.0391-37.137-4.9551-5.2728-10.253-11.87-11.771-14.66-1.5186-2.7901-3.2495-4.998-3.8477-4.9062-5.9158 0.90786-17.549-19.882-14.936-26.691 0.30893-0.80507 0.0747-1.4629-0.52148-1.4629-1.907 0-4.0626 4.42-4.8965 10.041-0.63216 4.2611-1.1851 5.4287-2.5215 5.3203-2.8335-0.22987-1.9611 2.1849 2.8125 7.7773 5.7961 6.7903 7.3703 11.564 5.0039 15.176-1.9749 3.014-2.4704 1.9527 7.7324 16.535 4.3673 6.242 7.5578 11.717 7.0898 12.166-0.91565 0.87924-28.763 13.345-32.365 14.488-1.6019 0.50842-2.9198-0.025-5.0098-2.0274l-2.8379-2.7168 2.9316-7.9492c1.6102-4.3713 2.9296-9.288 2.9296-10.928s0.72204-4.3795 1.6055-6.0879c6.7664-13.085-3.0674-27.606-18.012-26.596-17.43 1.1781-23.428 14.738-14.734 33.314 7.7665 16.597-3.0372 28.748-17.045 19.17-12.957-8.8595-13.028-11.893-0.5957-25.447 11.062-12.06 11.5-12.784 9.2578-15.262-1.1224-1.2403-1.3334-1.9746-0.56836-1.9746 0.66982 0 1.0806-0.80409 0.91407-1.7871-0.1987-1.1729 3.1319-5.0944 9.6875-11.406 9.5087-9.1552 12.476-14.083 5.084-8.4453-4.7169 3.5978-4.8612 3.4126-2.0566-2.6113 2.7575-5.9229 3.1662-9.75 1.043-9.75-0.81547 0-2.1261 2.1279-3.0801 5-0.9134 2.75-1.8978 5-2.1875 5-0.28964 0-0.22058-0.7875 0.15234-1.75 2.6838-6.927 1.8777-14.815-1.3125-12.844-0.63943 0.3952-1.1796 0.12912-1.2148-0.59766zm264.4 29.857c-14.82 0-19.546 20.809-6.2637 27.582 4.5637 2.3271 9.3424 2.21 13.883-0.3418 13.257-7.4507 7.7219-27.24-7.6191-27.24zm-465.01 0.33984c-15.054-0.0192-19.796 20.465-6.3066 27.242 1.914 0.96164 4.8305 1.748 6.4805 1.748 7.7535 0 14.506-6.938 14.494-14.895-0.0121-8.4558-5.87-14.084-14.668-14.096zm376.14 4.8477c-11.421 3.305-10.663 15.82-3.9238 19.479 0.0378 0.0205 0.0549 0.0661 0.082 0.0996 11.069 5.5491 22.375-3.916 13.971-15.031-4.4684-3.6336-7.7506-4.9234-10.129-4.5469zm-298.11 1.3848c-1.4305 0.092-2.9078 0.50874-4.3828 1.2715-7.2849 3.7672-6.647 15.296 1.0195 18.42 7.8132 3.184 16.723-4.8722 13.615-12.311-2.093-5.0094-5.9604-7.657-10.252-7.3809zm387.46 1.791c1.3796 0.0328 2.8403 0.62931 4.1816 1.9707 2.4026 2.4026 2.5385 4.7861 0.44336 7.7773-2.0472 2.9228-7.9022 3.103-9.4082 0.28907-2.7616-5.1601 0.64432-10.136 4.7832-10.037zm-465.53 0.16015c5.8052-0.69597 8.5726 6.0387 4.2559 10.355-2.6841 2.6841-2.9873 2.7541-6.3027 1.4219-5.818-2.3379-4.3099-11.015 2.0469-11.777zm443.32 16.84c-7.4032 0.35042-13.712 8.7433-9.2129 16.861 0.72855 1.3145 2.3984 2.9844 3.7129 3.7129 3.7972 2.1046 52.64 1.9608 55.674-0.16407 11.724-8.2121 0.46876-26.018-11.848-18.742-5.387 3.1822-1.2484 8.85 5.5176 7.5566 2.4074-0.46019 2.6829-0.24493 2.3848 1.8633l-0.33789 2.3828-23.113 0.26758c-19.377 0.22476-23.31 0.0309-24.336-1.2051-1.6893-2.0355-0.30123-3.843 2.5352-3.3008 1.3507 0.2582 3.8952-0.48214 5.9766-1.7383l3.625-2.1875-3.1699-2.668c-2.3507-1.978-4.9405-2.7555-7.4082-2.6387zm-422.11 0.1582c-1.4329 0.0956-2.9218 0.49763-4.4258 1.2754-5.806 3.0024-2.1278 8.348 5.2578 7.6406 2.4528-0.23492 2.7864 0.0402 2.5 2.0625l-0.33008 2.334-23.113 0.26758c-19.672 0.22819-23.299 0.0421-24.371-1.25-1.7682-2.1306 0.45149-4.8727 2.8887-3.5684 4.8848 2.6143 9.5143-4.0883 4.8457-7.0156-11.07-6.9414-22.584 7.4319-13.35 16.666l3.4004 3.4004 25.35-4e-3c23.344-3e-3 25.603-0.15688 28.539-1.9473 10.087-6.1504 2.8387-20.531-7.1914-19.861zm364.43 21.256c-13.355-0.18817-14.425 23.885 6.2636 17.516l2.9922-2.9902c3.6531-13.312-5.2963-14.009-9.2559-14.525zm-312.39 0.0469c-1.2443 0.0453-2.549 0.32354-3.8828 0.88086-7.0537 2.9472-8.636 10.844-3.252 16.229 4.5582 4.5582 9.1014 4.6545 14.064 0.29687 7.5514-6.6302 1.7801-17.724-6.9297-17.406zm-100.11 4.5097-0.1446 9h54.719v-9h-27.287zm465.7 0-0.31054 3.75-0.31055 3.75h-0.13281c0.0459 0.70749 0.1051 1.4139 0.17773 2.1191 0.0162 0.15821 0.0176 0.17206 0.0234 0.23047l5.2988-8e-3c19.856-0.0319 35.881-2e-4 50.037 0.0293-0.0966-0.74555-0.17204-1.4936-0.23047-2.2441-3e-3 -0.0423-7e-3 -0.0846-0.01-0.12695h-0.16379l-0.31055-3.75-0.31054-3.75h-26.879zm-1.7598 9.8515c-0.0255-0.24298 0 0 0 0zm-443.98 0.33047c-11.38-0.0547-21.396 2.0214-23.951 6.9629-3.0395 5.8777-0.61932 13.62 4.9629 15.875 4.4906 1.8144 13.611-0.79285 13.611-3.8906 0-1.6411-5.4563-4.5136-8.1836-4.3086-3.1886 0.23962-4.4708-1.3283-2.7656-3.3828 1.0258-1.236 4.9592-1.4298 24.336-1.2051l23.113 0.26723 0.33008 2.334c0.28642 2.0223-0.0472 2.2974-2.5 2.0625-3.6155-0.3463-9.4424 2.6464-8.7363 4.4863 2.9893 7.7899 18.014 4.3322 19.791-4.5547 1.7084-8.5421-21.042-14.555-40.008-14.646zm498.47 1.818-26.172 0.0215c-28.286 0.024-28.712 0.10049-31.557 5.6621-2.7404 5.3585-0.0497 13.186 5.2715 15.336 4.8558 1.962 13.611-0.85699 13.611-4.3828 0-1.6966-5.6776-4.1906-8.6523-3.8008-2.6976 0.3535-3.9151-1.4486-2.2969-3.3984 1.0258-1.236 4.9592-1.4298 24.336-1.2051l23.113 0.26756 0.33789 2.3828c0.30129 2.1306 0.0364 2.3257-2.5 1.834-1.8969-0.36776-3.9642 0.14168-6.2363 1.5391l-3.3984 2.0898 3.1641 2.8281c1.999 1.7861 4.2823 2.8262 6.1992 2.8262 10.544 0 15.699-12.812 7.8223-19.439zm-491.9 18.076c-1.8936 0.12194-3.8842 0.65202-5.9219 1.6758-10.693 5.3724-10.393 21.762 0.48047 26.289 3.666 1.5264 10.86 1.0383 13.859-0.93946 13.342-8.7961 4.8371-27.879-8.418-27.025zm464.22 0.0664c-6.8885 0.72581-13.154 6.374-13.158 14.656-3e-3 6.2626 5.2252 12.868 11.184 14.129 14.774 3.1267 24.105-13.26 13.826-24.279-3.3617-3.6039-7.7185-4.9414-11.852-4.5059zm-384.62 5.8008c-2.5405-0.12482-5.238 0.70364-7.666 2.873-4.5279 4.0457-4.5279 10.322 0 14.367 4.7955 4.2848 10.293 3.9725 14.834-0.84179 6.6678-7.07 0.45359-16.024-7.168-16.398zm290.34 13.321c8.0137 11.973 20.111 5.8214 20.111-3.0803 0-11.248-20.549-16.526-20.111 3.0803zm-369.39-11.264c4.9203 0 7.9918 7.5082 4.5 11-3.6991 3.6991-11 0.59327-11-4.6797 0-1.915 4.5304-6.3203 6.5-6.3203zm465.04 0.92773c1.9079 0.0585 3.8827 0.83355 4.9062 2.2949 2.0952 2.9913 1.9592 5.3747-0.44336 7.7773-5.2882 5.2882-12.594-1.2855-8.9648-8.0664 0.75297-1.4069 2.5941-2.0643 4.502-2.0059zm-106.92 34.395c-0.0948 0.0264-0.18382 0.0712-0.27539 0.10742-0.27065 0.44542-0.67357 1.3314-0.87891 1.5703-0.70915 0.825-2.5741 3.975-4.1445 7-1e-3 3e-3 -5e-3 5e-3 -6e-3 8e-3 0.0213 0.72638 0.10536 1.4533 0.24414 2.1758 0.0789 0.41057 0.18871 0.81539 0.28321 1.2227 0.17644 0.647 0.38728 1.2844 0.62304 1.9121 0.30411 0.38818 0.523 0.54465 1.0274 1.3984 3.1849 5.3916 8.6801 6.6954 14.154 3.3574 8.8035-5.3691 5.632-23.392-11.027-18.752zm-263.69 0.25195c-10.086-0.14515-14.567 9.9874-7.5293 17.025 9.1847 9.1847 23.812-2.4806 13.135-14.596-0.54745-0.63692-1.0914-1.2768-1.6387-1.9141-1.062-0.31463-2.286-0.49145-3.9668-0.51562zm245.72 31.32c-12.737-1.39-14.951 15.053-6.2695 19.715 0.20774 0.1031 0.41683 0.20272 0.6289 0.29687 6.7814 2.9737 10.689 0.6627 13.521-4.6992 3.1651-6.492-1.9318-14.157-7.8809-15.312zm-219.79 0.39258c-9.2462-1.2311-12.768 16.568-3.0449 20.541l0.19922 0.0137c5.5198 0.37942 10.986-3.4852 10.986-7.7656 0-0.22564 0.044-0.30529 0.0527-0.49219-0.19572-1.9373-0.44541-3.8704-0.82226-5.7812-0.30011-1.233-0.61449-2.4737-1.0859-3.6504l-2.9531-1.6973c-1.0894-0.64353-2.2121-1.0188-3.332-1.168zm108.63 74.713c-407.49-594-407.49-594 0 0zm-250.82 29.621c-0.79254-0.99757-1.6699 3.7766-1.6699 12.795 0 10.519 0.24614 12.584 1.5 12.584 1.0833 0 1.5-1.1111 1.5-4 0-5.0189 0.85964-5.0241 4.5586-0.0234 1.9317 2.611 3.7335 3.9845 5.25 4 2.1498 0.022 2.0158-0.32554-1.957-5.0371l-4.2676-5.0625 3.207-2.5117c1.7646-1.3811 3.209-2.9134 3.209-3.4062 0-1.495-3.311 0.15251-6.7031 3.3359l-3.2031 3.0059-0.29687-7.3203c-0.20617-5.084-0.65143-7.7608-1.127-8.3594zm124.74 0.27539c-0.24988 0.07676-0.41211 0.492-0.41211 1.3535v12.25c0 9.5556 0.25362 11.5 1.5 11.5 1.1801 0 1.5-1.3923 1.5-6.5254 0-6.0335 0.18843-6.5948 2.4922-7.4707 5.0518-1.9207 7.0256 1.0222 6.3535 9.4726-0.30102 3.7848-0.0738 4.5234 1.3965 4.5234 2.3857 0 2.5415-11.436 0.20117-14.777-1.7457-2.4923-7.7382-3.1304-9.1348-0.97266-0.49443 0.76393-1.003-0.69427-1.3086-3.75-0.30112-3.0111-1.8382-5.8338-2.5879-5.6035zm339.97 0.0332c-0.18337-0.25235-0.49002-0.15842-0.92188 0.27343-0.41372 0.41398-7.4648 29.232-7.4648 30.51 0 2.6022 2.9119-0.77421 3.418-3.9629 0.37098-2.3375 1.8318-9.1097 3.2461-15.049 1.7026-7.1495 2.2728-11.014 1.7227-11.771zm-259.89 0.07032c-1.2533 0-1.5 2.0556-1.5 12.5s0.24667 12.5 1.5 12.5 1.5-2.0556 1.5-12.5-0.24667-12.5-1.5-12.5zm170.08 0.17578c-1.3769-0.28128-1.582 1.312-1.582 12.25 0 11.308 0.17615 12.574 1.75 12.574 2.5214 8.5e-4 2.3568-24.308-0.16797-24.824zm-46.459 0.82422c-1.3113 0-3.2043 2.5848-2.4473 3.3418 1.369 1.369 3.3242 0.57986 3.3242-1.3418 0-1.1-0.39429-2-0.87695-2zm-358.08 0.9043c-1.6859-0.48776-3.6242 3.2649-7.4238 12.346-3.9047 9.332-4.26 10.75-2.7031 10.75 1.1655 0 2.1189-1.1379 2.7246-3.25 0.90419-3.1527 1.0946-3.25 6.3574-3.25s5.4532 0.0973 6.3574 3.25c0.61861 2.157 1.5536 3.25 2.7793 3.25 1.7226 0 1.6723-0.45373-0.74024-6.75-1.4225-3.7125-3.3319-8.7178-4.2422-11.123-1.1772-3.1107-2.0979-4.93-3.1094-5.2226zm142.46 2.0957c-0.93333 0-1.5 0.94444-1.5 2.5s-0.56667 2.5-1.5 2.5c-0.825 0-1.5 0.45-1.5 1s0.675 1 1.5 1c1.1651 0 1.5 1.3271 1.5 5.9434 0 5.0288 0.34622 6.187 2.25 7.5234 2.4775 1.7392 4.8695 1.6768 5.4746-0.14063 0.21477-0.64509-0.64682-1.3201-1.916-1.5-3.7617-0.53321-4.105-11.826-0.35937-11.826 1.4024 0 2.5508-0.45 2.5508-1s-1.125-1-2.5-1c-2 0-2.5-0.5-2.5-2.5 0-1.5556-0.56667-2.5-1.5-2.5zm-143.33 0.5 1.9141 5c1.0521 2.75 1.9136 5.0648 1.9141 5.1445 4.4e-4 0.0797-1.8 0.31754-4 0.52735-4.6522 0.44366-4.641 0.47738-1.9141-5.8398zm398.81 1.5293c-1.0519-0.0521-2.191 0.34926-2.5352 1.2461-0.31676 0.82541-1.8557 1.1422-4.3711 0.90234-5.0595-0.4825-8.6177 2.6352-7.6113 6.6699 1.167 4.6791 1.0709 9.6154-0.21484 10.975-2.539 2.6841-0.71631 6.8045 3.75 8.4785 5.0174 1.8806 12-2.0787 12-6.8047 0-3.7129-0.10421-3.7744-8.373-4.8887-6.11-0.82333-6.282-3.6074-0.22265-3.6074 4.4243 0 7.0589-2.9379 6.252-6.9727-0.51041-2.5521-0.29591-3.0273 1.3691-3.0273 1.0889 0 1.9746-0.673 1.9746-1.5 0-0.91389-0.96566-1.4186-2.0176-1.4707zm109.98 1.7676c-1.0978-3.7e-4 -2.4181 0.31377-3.998 0.91015-1.6379 0.61824-2.9648 0.71161-2.9648 0.20703 0-0.50223-0.61269-0.91406-1.3613-0.91406-1.0502 0-1.3358 1.9421-1.25 8.5 0.0983 7.5135 0.32219 8.4999 1.9316 8.5 1.5916 1.2e-4 1.7886-0.77712 1.5684-6.1738-0.21749-5.3289 0.0371-6.3656 1.8574-7.5742 4.0906-2.7161 6.2539-0.19671 6.2539 7.2832 0 5.1582 0.31258 6.4648 1.543 6.4648 1.2816 0 1.4927-1.305 1.25-7.7285-0.25054-6.6301-1.5368-9.4735-4.8301-9.4746zm-57.092 0.0195c-0.52887-0.80756-2.8235 2.5467-4.3633 7.1582l-2.1211 6.3535-2.2344-6.1308c-1.2294-3.3717-2.6662-6.3969-3.1934-6.7227-2.654-1.6402-2.4072 1.2899 0.7168 8.5156 3.6393 8.4176 3.6929 11.207 0.25586 13.047-1.0628 0.56876-1.9316 1.4674-1.9316 1.998 0 1.1354 2.016 1.2456 3.6406 0.19922 1.1134-0.71705 7.9515-17.379 9.0762-22.115 0.30913-1.3017 0.33059-2.0336 0.15429-2.3027zm-367.24 0.10742c-1.0654-0.0141-2.3567 0.28693-3.9043 0.87109-2.4399 0.92095-3.2939 0.90962-3.8867-0.0488-1.5654-2.5329-2.3929 0.90989-2.043 8.5039 0.47688 10.35 3.1992 11.395 3.1992 1.2285 0-6.0638 0.18339-6.6059 2.6172-7.7148 4.2109-1.9186 6.6958 1.8871 5.8184 8.9102-0.56374 4.5121-0.4189 5.3262 0.94922 5.3262 1.3438 0 1.6152-1.264 1.6152-7.5215 0-6.6279-1.1691-9.5124-4.3652-9.5547zm263.46 0.0156c-2.0871 0.10028-4.4464 0.7874-5.5332 1.9883-2.4269 2.6817-1.2952 5.2936 3.4473 7.959 5.4696 3.0741 5.265 5.1133-0.51172 5.1133-4.259 0-5.9784 1.2369-3.25 2.3379 2.7129 1.0947 6.6384 0.57155 8.7891-1.1699 3.0556-2.4742 2.0797-6.461-1.9941-8.1484-6.3048-2.6115-6.1529-6.7332 0.20508-5.5723 1.984 0.36227 2.75 0.0915 2.75-0.97266 0-1.1487-1.8152-1.6354-3.9023-1.5352zm115.14 0.0176c-3.4767 0.12052-7.1414 2.5812-7.8926 7.2734-0.68179 4.2584 1.3836 8.3164 4.9668 9.7598 2.6408 1.0637 5.9574 1.2281 8.1094 0.40235 2.9574-1.1341 1.5956-2.3926-2.5898-2.3926-4.2612 0-7.8281-2.1206-7.8281-4.6543 0-0.97723 1.6406-1.3457 6-1.3457 5.577 0 6-0.16041 6-2.2773 0-4.6662-3.2889-6.8862-6.7656-6.7656zm64.348 0.0137c-2.0661-0.0594-4.2654 0.71425-6.1484 2.334-3.6876 3.172-3.9233 9.4804-0.49023 13.135 7.3085 7.7795 18.647-4.3349 11.984-12.805-1.3472-1.7127-3.2796-2.6046-5.3457-2.6641zm-46.557 0.0137c-2.1152 0.0581-4.4866 0.61943-5.5078 1.6406-2.5583 2.5583-1.4375 5.5866 2.9824 8.0606 5.2471 2.937 5.1596 4.7297-0.25 5.1211-4.1227 0.29829-5.5494 1.5026-3 2.5312 3.7711 1.5217 9.2785-0.27834 10.254-3.3516 0.81147-2.5567-1.3547-5.2671-5.623-7.0352-4.3066-1.7839-3.433-4.4863 1.4023-4.3379 2.5281 0.0776 3.7168-0.32213 3.7168-1.25 0-0.99312-1.8595-1.437-3.9746-1.3789zm-300.12 0.01c-2.156-0.0598-4.3462 0.7468-5.8359 2.6406-3.9832 5.0638-2.0159 12.417 3.9277 14.682 2.4682 0.94049 7.3158 0.27415 7.7559-1.0664 0.27934-0.85741-0.78789-1.2503-3.3438-1.2503-3.8461 0-7.4121-2.2388-7.4121-4.6543 0-0.97723 1.6406-1.3457 6-1.3457 5.7333 0 6-0.11111 6-2.5 0-3.8987-3.4984-6.4062-7.0918-6.5059zm103 0c-2.156-0.0598-4.3462 0.7468-5.8359 2.6406-3.6438 4.6324-2.5038 11.292 2.4277 14.184 2.5164 1.4755 8.7094 1.095 9.2559-0.56836 0.27955-0.85096-0.78773-1.25-3.3438-1.25-3.8461-1e-3 -7.4121-2.2388-7.4121-4.6543 0-0.97723 1.6406-1.3457 6-1.3457 5.7333 0 6-0.11111 6-2.5 0-3.8987-3.4984-6.4062-7.0918-6.5059zm-263.22 0.0056c-7.7014 0-9.0272 5.8593-2.1914 9.6856 4.9624 2.7776 5.1527 4.7199 0.5 5.1035-5.3701 0.44271-6.9366 1.2376-4.5 2.2852 8.2413 3.5432 14.459-5.0135 6.5684-9.0391-6.3673-3.2484-6.2533-6.7629 0.18164-5.5879 1.984 0.36227 2.75 0.0915 2.75-0.97266 0-1.0028-1.059-1.4746-3.3086-1.4746zm80.689 0c-8.1386 0-10.323 12.775-2.8809 16.846 2.2463 1.2286 5.5483 1.4562 7.918 0.54688 2.8926-1.11 1.6354-2.3926-2.3457-2.3926-4.0224 0-7.0723-1.9719-7.0723-4.5723 0-1.0826 1.4833-1.4277 6.125-1.4277h6.125l-0.63867-3.25c-0.785-3.9958-2.9911-5.75-7.2305-5.75zm27.721 0c-7.7471 0-11.742 9.5141-6.2852 14.971 3.902 3.902 7.4304 3.9348 11.26 0.10547 5.7062-5.7062 2.6146-15.076-4.9746-15.076zm64.461 0c-1.1384 0-1.4309 1.766-1.4121 8.5 0.0185 6.6458 0.33062 8.5 1.4356 8.5 1.0573 0 1.4141-1.4795 1.4141-5.877 0-6.27 0.86681-7.7056 5-8.2774 1.375-0.1902 2.5-0.7957 2.5-1.3457 0-1.498-4.3993-1.8289-6.0547-0.45508-1.0228 0.84889-1.4453 0.87264-1.4453 0.07813 0-0.61734-0.6472-1.123-1.4375-1.123zm102.94 0c-1.2157 0-1.5 1.6111-1.5 8.5s0.28431 8.5 1.5 8.5c1.1632 0 1.5-1.3191 1.5-5.877 0-6.27 0.86681-7.7056 5-8.2774 1.375-0.1902 2.5-0.7957 2.5-1.3457 0-1.498-4.3993-1.8289-6.0547-0.45508-1.0228 0.84889-1.4453 0.87264-1.4453 0.07813 0-0.61734-0.675-1.123-1.5-1.123zm-233.86 0.0312c-7.674 0.0778-11.648 10.049-6.1836 15.514 5.5381 5.5381 14.045 1.2699 14.045-7.0469 0-5.5207-2.7833-8.5182-7.8613-8.4668zm303.3 0c-0.95167-0.045-1.3458 2.9976-1.1094 8.8711 0.42885 10.639 3.1738 12.003 3.1738 1.5762 0-6.0638 0.18339-6.6059 2.6172-7.7148 4.1011-1.8686 6.735 1.9723 6.1543 8.9746-0.35778 4.3144-0.15113 5.2617 1.1465 5.2637 1.8478 3e-3 1.7374-13.494-0.12891-15.752-1.3323-1.6117-7.0217-1.6124-8.6309-8e-3 -0.98886 0.98886-1.4137 0.96197-2.0879-0.12891-0.43867-0.70978-0.81749-1.067-1.1348-1.082zm-118.47 0.0332c-2.4691-0.0757-4.8314 0.5028-5.2559 1.791-0.34041 1.033 0.28138 1.1958 2.6133 0.68359 3.4601-0.75997 7.1777 0.79162 7.1777 2.9961 0 0.88831-0.9656 1.4648-2.4531 1.4648-6.6095 0-10.528 5.1531-6.9375 9.1211 1.3991 1.546 2.5764 1.8914 4.8672 1.4277 1.6624-0.33647 3.9644-0.60947 5.1133-0.60547 2.6622 9e-3 3.233-10.909 0.77149-14.746-0.85154-1.3274-3.4274-2.0571-5.8965-2.1328zm73.871 0.10743c-2.4615 0.0493-4.765 0.58535-5.0898 1.5723-0.28479 0.86513 0.60585 1.1461 2.9219 0.91992 3.9417-0.38494 6.832 0.8293 6.832 2.8711 0 0.96577-1.037 1.4648-3.0449 1.4648-6.0404 0-9.9419 6.4819-5.7051 9.4785 1.4546 1.0288 3.1338 1.351 4.75 0.91406 1.375-0.37171 3.5125-0.61642 4.75-0.54492 2.9334 0.16945 3.4534-12.502 0.62891-15.326-0.96116-0.96116-3.5815-1.3989-6.043-1.3496zm98.705 6e-3c-8.522-0.84034-11.801 13.519-3.8359 16.799 3.0939 1.2741 9.0422 0.82153 9.5508-0.72656 0.27813-0.84665-0.76668-1.25-3.2383-1.25-4.6581-0.0025-7.5176-1.535-7.5176-4.0353 0-1.7163 0.69955-1.9648 5.5312-1.9648 8.4591 0 8.0154-7.9835-0.49023-8.8223zm-201.04 0.0684-5.8516 0.25391 0.0781 12c0.0428 6.6 0.26162 12.338 0.48632 12.75 1.0641 1.9534 2.2062 0.34553 2.4844-3.5 0.29978-4.1433 0.3888-4.2412 3.5586-3.9238 7.292 0.73004 11.944-9.128 7.1719-15.195-1.8742-2.3829-2.6448-2.6143-7.9277-2.3848zm40.82 0.0586c-0.39975-0.11172-0.77399-0.0131-1.1035 0.3164-0.26549 0.26548 0.80317 3.4956 2.375 7.1797 3.6886 8.6454 3.8123 12.906 0.41211 14.199-1.375 0.52277-2.5 1.411-2.5 1.9746 0 4.0312 6.4939-0.39411 7.5352-5.1348 0.38411-1.7489 2.0305-6.3079 3.6582-10.133 2.0468-4.8099 2.6385-7.2756 1.9199-7.9941-1.108-1.108-1.8463 0.3276-4.1836 8.1289-1.4667 4.8955-2.0703 4.5484-4.3574-2.5039-1.1284-3.4794-2.5566-5.698-3.7559-6.0332zm98.184 0.19517c-0.825 0-1.4554 0.5625-1.4004 1.25s0.1675 4.4 0.25 8.25c0.11274 5.2613 0.4987 7 1.5508 7 1.0987 0 1.3676-1.7746 1.25-8.25-0.11981-6.6001-0.45037-8.25-1.6504-8.25zm32.33 1.4883c4.102-0.0997 6.7961 4.8038 2.7363 6.9766-2.302 1.232-2.1208 1.2334-4.3164-0.0449-2.1418-1.2475-2.3128-5.7663-0.24805-6.5586 0.62795-0.24097 1.2421-0.3588 1.8281-0.37305zm28.799 0.01172c2.1174 0 5.1006 2.8175 4.3203 4.0801-0.90793 1.4691-8.4492 1.1291-8.4492-0.38086 0-1.8313 2.0855-3.6992 4.1289-3.6992zm107.26 0c5.0592 0 7.4972 8.1103 3.6074 12-2.4616 2.4616-4.2326 2.533-6.1934 0.25-3.8045-4.4297-2.1534-12.25 2.5859-12.25zm-425.89 0.11133c2.5547-0.30223 5.498 1.5992 5.498 4.3223 0 0.31116-2.025 0.56641-4.5 0.56641-4.615 0-5.7708-1.3308-3.3008-3.8008 0.64163-0.64163 1.4512-0.98715 2.3027-1.0879zm81.215 0.0781c1.7892 0.2679 3.2832 1.5525 3.2832 3.5098 0 0.87407-1.4744 1.3008-4.5 1.3008-4.7602 0-5.495-0.86045-2.9277-3.4277 0.67614-0.67614 1.4776-1.0998 2.3008-1.2988 0.6174-0.1493 1.2473-0.17305 1.8438-0.084zm103 0c1.7892 0.2679 3.2832 1.5525 3.2832 3.5098 0 0.87407-1.4744 1.3008-4.5 1.3008-4.7602 0-5.495-0.86045-2.9277-3.4277 0.67614-0.67614 1.4776-1.0998 2.3008-1.2988 0.6174-0.1493 1.2473-0.17305 1.8438-0.084zm-221.88 4e-3c4.9185 0.57086 6.5482 8.276 2.5879 12.236-2.1053 2.1053-4.0205 1.9776-6.4277-0.42969-4.0482-4.0482-1.3296-12.407 3.8398-11.807zm401.13 0.0488c1.6934 0.23527 3.0273 1.4798 3.0273 3.457 0 0.87407-1.4744 1.3008-4.5 1.3008-4.8817 0-5.5056-0.78118-2.6719-3.3457 0.73836-0.6682 1.5564-1.0926 2.3672-1.3008 0.60806-0.15614 1.2129-0.18976 1.7774-0.11133zm-334.43 0.0723c4.1689 0.81874 6.2014 7.9432 2.459 11.686-2.4614 2.4614-4.2226 2.5321-6.2266 0.25-3.8194-4.3495-2.8257-10.697 1.8594-11.873 0.67211-0.16869 1.3126-0.17946 1.9082-0.0625zm90.428 0.10352c4.6468-0.36891 8.304 6.3077 4.7812 10.789-1.6954 2.1568-4.8761 2.9322-7 1.7051-2.6132-1.5098-2.4751-10.454 0.18359-11.877 0.68616-0.36722 1.3713-0.56449 2.0352-0.61719zm104.11 6.5215c1.193 0.26461 1.9158 1.2334 1.7344 2.8106-0.26382 2.2928-0.85877 2.8028-3.5742 3.0644-3.9813 0.38368-5.6294-2.3264-2.7129-4.459 1.6971-1.241 3.3597-1.6806 4.5527-1.416zm-75.65 0.25782c0.7276-0.11342 1.4469-0.0747 2.0742 0.16601 1.0021 0.38453 1.5108 1.5001 1.3144 2.8828-0.46129 3.2485-7.8203 3.9947-7.8203 0.79297 0-1.7852 2.2488-3.5015 4.4316-3.8418zm142.08 8.0078c5.0996-0.37614 8.5038 1.84 6.8906 4.4863-1.4688 2.4096-10.144 3.1369-10.994 0.92187-1.297-3.3799 0.013-5.1065 4.1035-5.4082zm-237.01 17.795c-1.2533 0-1.5 2.0556-1.5 12.5v12.5h5.4277c5.8298 0 7.9701-1.2854 9.6973-5.8281 2.3475-6.1744-1.6458-11.619-8.0742-11.006l-4.0508 0.38671v-4.2754c0-3.1346-0.40051-4.2773-1.5-4.2773zm94 0c-1.2533 0-1.5 2.0556-1.5 12.5s0.24667 12.5 1.5 12.5c1.1901 0 1.5-1.4418 1.5-6.9805 0-6.7209 0.0984-7.007 2.6543-7.6484 4.5775-1.1489 5.8457 0.58628 5.8457 8 0 5.6463 0.25932 6.629 1.75 6.6289 1.4701-1.2e-4 1.75-0.94998 1.75-5.9356 0-9.779-1.0577-11.409-7.0234-10.836l-4.9766 0.47851v-4.3535c0-3.2028-0.39638-4.3535-1.5-4.3535zm167 0c-1.2533 0-1.5 2.0556-1.5 12.5s0.24667 12.5 1.5 12.5c1.1786 0 1.5-1.385 1.5-6.4648 0-7.1565 1.7573-9.3154 6.5938-8.1016 2.2549 0.56595 2.4062 1.0456 2.4062 7.5859 0 5.5386 0.30991 6.9805 1.5 6.9805 1.1978 0 1.5-1.4858 1.5-7.377 0-8.8835-0.982-10.111-7.5078-9.375l-4.4922 0.50586v-4.377c0-3.2241-0.39513-4.377-1.5-4.377zm43.947 0.17578c-0.85405 0.17782-1.529 0.66172-1.5 1.0742s0.0527 5.925 0.0527 12.25c0 9.5556 0.25362 11.5 1.5 11.5 1.1883 0 1.5-1.4321 1.5-6.8926 0-5.363 0.35133-7.0277 1.582-7.5 5.4198-2.0798 7.8629 1.0044 7.1934 9.0781-0.37603 4.5345-0.19331 5.3489 1.1387 5.0957 1.969-0.37426 2.7176-9.9895 1.1074-14.225-1.0116-2.6608-1.3272-2.7814-6.0449-2.3281l-4.9765 0.47851v-4.4277c0-3.4738-0.33414-4.3573-1.5527-4.1035zm-378.81 0.82422c-1.8577 0-2.9788 1.6301-2.0996 3.0527 0.90454 1.4636 2.9015 0.62371 3.291-1.3848 0.18707-0.96457-0.31526-1.668-1.1914-1.668zm355.12 0.18945c-1.2278-0.23646-1.75 0.3044-1.75 1.8106s0.52215 2.047 1.75 1.8106c0.9625-0.18536 1.75-1.0006 1.75-1.8106s-0.7875-1.6252-1.75-1.8106zm-220.75 1.8106c-0.55 0-1 1.072-1 2.3828 0 1.6174-0.72311 2.588-2.25 3.0176-2.0078 0.56491-2.0775 0.76602-0.64453 1.8711 1.0228 0.78878 1.7815 3.3583 2.0898 7.0762 0.28857 3.4798 1.0539 6.1964 1.8945 6.7285 1.9006 1.2032 5.6469 1.1596 6.4102-0.0762 0.33992-0.55-0.21777-1-1.2402-1-3.0192 7.5e-4 -4.2598-2.0951-4.2598-7.1992 0-4.4533 0.18056-4.8008 2.5-4.8008 1.5556 0 2.5-0.56667 2.5-1.5s-0.94444-1.5-2.5-1.5c-2 0-2.5-0.5-2.5-2.5 0-1.375-0.45-2.5-1-2.5zm-146.24 0.25c-0.64685 0.1104-1.3518 1.0004-1.584 2.5781-0.17575 1.1944-0.96325 2.1719-1.75 2.1719s-1.4297 0.675-1.4297 1.5 0.675 1.5 1.5 1.5c1.1609 0 1.5 1.3119 1.5 5.8008 0 3.19 0.53922 6.34 1.1992 7 1.3879 1.3879 6.8008 1.6336 6.8008 0.3086 0-0.49038-1.125-1.1744-2.5-1.5195-3.9175-0.98323-3.8406-11.59 0.08398-11.59 3.1327 0 2.7894-2.3492-0.4121-2.8203-1.5682-0.23076-2.1719-1.0168-2.1719-2.832 0-1.5381-0.58948-2.2081-1.2363-2.0977zm167.02 0c-0.64425 0.0374-1.3601 0.82328-1.6445 2.332-0.19881 1.0544-0.98631 2.277-1.75 2.7168-1.8407 1.0601-1.7732 2.7012 0.11133 2.7012 1.1359 0 1.5 1.2302 1.5 5.0664 0 2.7862 0.46581 5.9362 1.0352 7 0.66611 1.2446 2.0922 1.9336 4 1.9336 3.5223 0 3.8463-1.1398 0.71484-2.5137-3.6665-1.6086-3.9269-11.486-0.30273-11.486 1.602 0 2.5527-0.55848 2.5527-1.5 0-0.93333-0.94444-1.5-2.5-1.5-2.0215 0-2.5-0.49509-2.5-2.584 0-1.4922-0.57255-2.2034-1.2168-2.166zm317 0c-0.64425 0.0374-1.3601 0.82328-1.6445 2.332-0.19881 1.0544-0.98631 2.277-1.75 2.7168-1.8407 1.0601-1.7732 2.7012 0.11133 2.7012 1.1359 0 1.5 1.2302 1.5 5.0664 0 2.7862 0.46581 5.9362 1.0352 7 0.66611 1.2446 2.0922 1.9336 4 1.9336 3.6097 0 3.9079-1.546 0.46484-2.4102-2.2863-0.57382-2.5-1.097-2.5-6.1094 0-5.1797 0.13742-5.4805 2.5-5.4805 1.5556 0 2.5-0.56667 2.5-1.5s-0.94444-1.5-2.5-1.5c-2.0215 0-2.5-0.49509-2.5-2.584 0-1.4922-0.57255-2.2034-1.2168-2.166zm-245.75 2.7734c-1.0296 0.0267-2.1556 0.35921-2.5371 0.97656-0.33992 0.55-2.547 1-4.9043 1-5.3805 0-8.1501 2.5815-7.2051 6.7148 1.1986 5.2421 1.1514 9.4221-0.11914 10.477-1.9976 1.6579-1.4884 5.5432 0.95118 7.252 5.4221 3.7978 14.777 0.34299 14.777-5.457 0-3.5077-0.82458-4.0581-7.2695-4.8574-5.8629-0.72717-7.8105-3.1289-2.5371-3.1289 5.2582 0 8.0818-2.5182 7.5859-6.7656-0.32315-2.7681-0.0242-3.6186 1.4043-3.9922 0.99866-0.26116 1.8164-0.87353 1.8164-1.3594 0-0.60746-0.93328-0.88606-1.9629-0.85937zm-34.178 1.1133c-1.5552 0.0757-3.1518 1.0034-4.9356 2.7871-3.8203 3.8203-4.0156 9.0743-0.46875 12.621 2.7761 2.7761 11.545 3.6546 11.545 1.1562 0-0.88883-1.0749-1.1741-3.4023-0.90234-2.4871 0.29035-3.9663-0.16744-5.5-1.7012-3.0293-3.0293-2.6004-4.0958 1.6523-4.1113 8.4936-0.0309 10.582-2.7446 5.7949-7.5312-1.6181-1.6181-3.1306-2.3941-4.6855-2.3184zm-234.73 0.27148c-6.2277 1.0563-9.4052 10.314-4.1016 15.617 2.3608 2.3608 11.975 2.9034 11.975 0.67578 0-0.87784-1.058-1.1752-3.2617-0.91797-2.2538 0.26312-4.1076-0.28484-6-1.7734-3.7154-2.9225-3.4426-4.0072 1.0117-4.0234 9.5337-0.0347 12.079-7.5477 3.2168-9.4941-0.99831-0.21927-1.9502-0.23465-2.8398-0.084zm327.39 0.17383c-5.5466 1.2653-9.3546 9.6669-4.0039 15.018 2.0869 2.0869 3.2935 2.4583 7.1719 2.2051 6.1064-0.39867 6.7169-2.3047 0.73828-2.3047-3.3802 0-4.9526-0.509-6-1.9414-2.2071-3.0184-1.7525-3.5586 2.998-3.5586 8.0627 0 10.355-3.6737 4.9473-7.9277-1.9598-1.5416-4.0027-1.912-5.8516-1.4902zm-271.12 0.0176c-8.8198 0-11.997 13.501-3.9922 16.965 6.0028 2.5973 11.873-1.6342 11.873-8.5586 0-5.4178-2.8014-8.4062-7.8809-8.4062zm86 0c-8.8198 0-11.997 13.501-3.9922 16.965 6.0028 2.5973 11.873-1.6342 11.873-8.5586 0-5.4178-2.8014-8.4062-7.8809-8.4062zm205.11 0.01c-0.31191 0.07212-0.50391 0.47699-0.50391 1.2712 0 0.92763 4.7894 13.97 5.6289 15.328 1.1826 1.9135 2.3562 0.34456 4.4492-5.9453l2.2422-6.7363 1.8516 4.3633c1.0189 2.3992 2.1216 5.4308 2.4492 6.7363 1.3216 5.2657 3.3394 2.3625 8.9492-12.877 0.43903-1.1927 0.14782-1.75-0.91211-1.75-1.0471 0-2.1048 1.9602-3.2383 6-0.92593 3.3-2.0021 6-2.3926 6-0.39044 0-1.5282-2.7-2.5273-6-2.4479-8.085-4.5492-8.0953-6.9902-0.0332-2.1177 6.9944-2.6324 6.949-4.9551-0.43555-1.1042-3.5104-3.1151-6.1576-4.0508-5.9219zm-36.27 0.36132c-2.0825-0.19425-4.1705 0.11842-4.7637 1.0781-0.43681 0.70675-1.0438 0.71976-1.8613 0.041-1.9375-1.608-13.778-0.97043-13.135 0.70704 0.2886 0.75205 0.52539 4.4801 0.52539 8.2852 0 5.4828 0.31121 6.918 1.5 6.918 1.1891 0 1.5-1.436 1.5-6.9316 0-6.0544 0.25337-7.014 2-7.5684 4.7165-1.497 6 0.12279 6 7.5684 0 5.4956 0.31091 6.9316 1.5 6.9316 1.1746 0 1.5-1.3674 1.5-6.3008 0-6.7285 1.0415-8.6992 4.5938-8.6992 2.7712 0 3.4062 1.6951 3.4062 9.082 0 4.594 0.33564 5.918 1.5 5.918 1.804 0 2.1705-11.879 0.46484-15.066-0.57178-1.0684-2.648-1.7686-4.7305-1.9629zm86.016 0.0274c-1.555-2e-3 -1.7132 0.94528-1.4258 8.5 0.46901 12.327 3.1758 12.328 3.1758 2e-3 0-7.4277-0.22077-8.5-1.75-8.502zm-427.75 0.00165-5.5 0.0156c-7.5877 0.0211-10 2.2385-10 9.1953 0 5.8213 2.4512 8.0971 8.1367 7.5508l4.8633-0.46873v4.3535c0 2.8159 0.44143 4.3535 1.25 4.3535 0.93333 0 1.25-3.1667 1.25-12.5zm6 0c-1.7779 0-2.1482 10.167-0.52539 14.436 0.91867 2.4163 1.3519 2.5555 7.4082 2.3887l6.4316-0.17774-0.13476-8.3223c-0.09651-6.0021-0.48834-8.3242-1.4062-8.3242-0.90746 0-1.2734 1.9786-1.2734 6.8926 0 7.1866-0.57322 8.1074-5.0469 8.1074-2.6852 0-3.9531-3.0258-3.9531-9.4336 0-4.2807-0.34634-5.5664-1.5-5.5664zm43.572 0c-9.1589 0-8.3278 8.0808 1.1562 11.242 3.2115 1.0705-0.36413 4.0031-4.2461 3.4824-3.0063-0.40322-3.9824-0.18958-3.9824 0.87109 0 2.7592 9.8398 1.8494 11.152-1.0312 1.5494-3.4006 0.58876-5.1446-4.1699-7.5723-4.8774-2.4883-4.7407-4.3729 0.3457-4.8027 4.9167-0.41548 4.7094-2.1894-0.25585-2.1894zm22.303 0c-1.2867 0-1.4949 0.65064-1 3.125 0.34375 1.7188 0.625 5.5438 0.625 8.5s0.45 5.375 1 5.375c0.58824 0 1-3.5 1-8.5 0-7.1795-0.25245-8.5-1.625-8.5zm61.09 0c-3.7655 0-5.4648 0.39782-5.4648 1.2773 0 0.87521 1.1971 1.161 3.8066 0.91211 2.5652-0.24463 4.223 0.13986 5.0859 1.1797 1.7687 2.1312 0.54982 3.6309-2.9512 3.6309-5.0884 0-8.8327 5.7083-5.7598 8.7812 0.68079 0.68079 3.6468 1.1139 7 1.0215l5.8184-0.16015v-6.3867c0-9.0892-0.85672-10.256-7.5352-10.256zm54.037 0c-1.9126 0-1.5508 13.03 0.42774 15.414 0.93101 1.1218 2.9225 1.508 7.1797 1.3906l5.8906-0.16211v-8.3223c0-6.7298-0.28684-8.3203-1.5-8.3203-1.1883 0-1.5 1.4321-1.5 6.8926 0 7.2065-0.56808 8.1074-5.1074 8.1074-2.4788 0-3.8926-3.6564-3.8926-10.064 0-3.7166-0.37006-4.9356-1.498-4.9356zm292 0c-1.2198 0-1.4792 1.5763-1.4043 8.5 0.0713 6.5918 0.40598 8.5 1.4961 8.5 1.0588 0 1.4062-1.5553 1.4062-6.3008 0-6.7635 1.0376-8.6992 4.6641-8.6992 3.3273 0 4.6867 3.3597 3.9375 9.7344-0.56777 4.8308-0.44481 5.3826 1.1309 5.0762 1.4711-0.28613 1.7105-1.207 1.4316-5.4844-0.40511-6.2147 1.0345-9.3262 4.3125-9.3262 3.2762 0 3.7544 1.1293 3.6426 8.5801-0.0759 5.0608 0.21959 6.4199 1.3926 6.4199 1.9039 0 2.1589-13.931 0.28906-15.801-1.4974-1.4974-7.4501-1.5762-8.3555-0.11133-0.48382 0.78285-0.97496 0.78285-1.7578 0-1.4621-1.4621-7.991-1.386-9.4883 0.11133-0.93333 0.93333-1.1992 0.93333-1.1992 0 0-0.66-0.67439-1.1992-1.498-1.1992zm29.998 0c-1.7779 0-2.1482 10.167-0.52539 14.436 0.91897 2.417 1.3508 2.5559 7.4219 2.3887l6.4453-0.17774-0.15821-8.3242c-0.11303-5.9519-0.51917-8.3223-1.4219-8.3223-1.3422 0-1.684 2.1575-1.3125 8.2891 0.26897 4.4389-1.2668 6.7109-4.5371 6.7109-3.136 0-4.4121-2.729-4.4121-9.4336 0-4.2807-0.34634-5.5664-1.5-5.5664zm-66.545 0.01c-2.1647 0.22702-4.6135 0.95515-5.7539 2.0176-4.0402 3.764-3.6677 11.427 0.67969 13.967 2.5569 1.494 9.1191 1.238 9.1191-0.35547 0-0.90383-0.819-1.2043-2.4394-0.89453-2.8265 0.53456-7.5606-3.5152-7.5606-6.4768 0-3.503 2.8923-6.2676 6.5566-6.2676 1.8938 0 3.4434-0.45 3.4434-1 0-0.94283-1.8802-1.2173-4.0449-0.99023zm-132.6 0.0156c-2.7694-0.05219-5.3574 0.26419-5.3574 0.9744 0 0.55 1.6875 1.0072 3.75 1.0156 2.0625 8e-3 4.3788 0.41237 5.1465 0.89844 2.3138 1.4651 0.47578 4.0859-2.8652 4.0859-5.0831 0-8.1214 4.0938-5.9922 8.0723 0.87635 1.6375 1.9667 1.8995 6.998 1.6836l5.9629-0.25586v-7.0508c2.5e-4 -4.1505-0.49274-7.5435-1.1992-8.25-0.72245-0.72246-3.674-1.1269-6.4434-1.1738zm223.94 0.0117c-1.9476-0.0396-4.0904 0.19262-4.873 0.72851-3.4741 2.3789-1.6582 7.0674 3.5781 9.2363 4.4499 1.8432 3.6055 4.4788-1.4629 4.5645-2.1563 0.0364-4.0974 0.59895-4.3144 1.25-0.59781 1.7934 9.2198 1.5539 10.727-0.26172 2.1524-2.5934 0.77773-5.871-3.4551-8.2402-5.0596-2.8321-5.1517-4.7193-0.25-5.125 2.0625-0.1707 3.75-0.7332 3.75-1.25 0-0.5518-1.7516-0.86274-3.6992-0.90234zm-428.14 0.1502-6.1582 0.16992v8.3223c0 6.7298 0.28684 8.3203 1.5 8.3203 1.1746 0 1.5-1.3674 1.5-6.3008 0-6.6817 1.0439-8.6992 4.5-8.6992s4.5 2.0175 4.5 8.6992c0 4.9333 0.3254 6.3008 1.5 6.3008 2.0362 0 2.1776-14.193 0.1582-15.869-0.73771-0.61224-4.1127-1.0368-7.5-0.94336zm185.75 1.3008c0.69053-0.0133 1.407 0.14628 2.0898 0.51172 2.3922 1.2803 2.6699 5.5284 0.41797 6.3926-4.1354 1.5869-6.418 0.5122-6.418-3.0234 0-2.2464 1.8386-3.841 3.9102-3.8809zm-204.34 0.16992c3.4586 0.61615 6.0273 6.4852 3.3926 11.408-0.66182 1.2366-2.0918 1.9336-3.9648 1.9336-4.9868 0-7.0054-7.9946-3.0234-11.977 1.1912-1.1912 2.4428-1.5706 3.5957-1.3652zm-55.174 0.13672c1.8917 0.16349 3.6016 1.2876 3.6016 3.2402 0 1.6114-0.6902 1.9648-3.834 1.9648-4.3486 0-5.2744-0.55676-4.459-2.6816 0.72526-1.89 2.7997-2.6869 4.6914-2.5234zm-39.068 8e-3c1.5908-0.0903 3.1415 0.33387 3.7676 1.3223 1.2884 2.034 1.087 9.2919-0.29688 10.676-5.024 5.024-11.822-4.2863-7.4727-10.234 0.78115-1.0683 2.4112-1.6734 4.002-1.7637zm272.6 0.19708c2.6726 0 4.704 2.1701 3.6406 3.8906-0.54192 0.87686-8.5684 1.4239-8.5684 0.58399 0-2.2806 2.4161-4.4746 4.9277-4.4746zm94.834 0.0254c1.7431 0.46999 3.2383 1.9348 3.2383 4.0566 0 0.50501-2.025 0.91797-4.5 0.91797-4.8567 0-5.0256-0.15007-3.4648-3.0664 0.99238-1.8543 2.9834-2.3782 4.7266-1.9082zm-188.12 6e-3c1.5569-0.14722 3.2055 0.21723 4.1562 1.168 1.5543 1.5543 1.5543 9.0472 0 10.602-4.7702 4.7702-11.216-3.4201-7.7656-9.8672 0.58662-1.0961 2.0525-1.7551 3.6094-1.9023zm-20.334 0.14648c5.087-0.58329 7.621 5.3454 4.6543 10.889-1.2182 2.2762-6.7408 2.6828-7.5566 0.55664-1.6566-4.317 0.0689-11.12 2.9024-11.445zm-17.01 6.7402c1.482 0.19205 2.6992 1.0581 2.6992 2.4746 0 1.3162-0.71204 2.6662-1.582 3-4.5216 1.7351-8.0031-0.77956-5.4082-3.9062 1.0614-1.279 2.809-1.7604 4.291-1.5684zm177 0c1.482 0.19205 2.6992 1.0581 2.6992 2.4746 0 1.3162-0.71204 2.6662-1.582 3-4.5216 1.7351-8.0031-0.77956-5.4082-3.9062 1.0614-1.279 2.809-1.7604 4.291-1.5684zm-20.262 8.1816c2.4037-0.18417 4.9876 0.22657 5.9375 1.3711 1.0835 1.3055 0.99975 1.8981-0.49414 3.5488-3.4884 3.8546-11.171 1.8268-10.307-2.7207 0.23467-1.2353 2.4596-2.015 4.8633-2.1992zm-40.014 16.037c-1.1077 0.49969-1.4345 4.4188-1.2168 12.873 0.24804 9.6318 0.59236 11.99 1.75 11.99 1.474 0 2.2683-22.839 0.84375-24.264-0.55151-0.55151-1.0077-0.76618-1.377-0.59961zm-20.775 0.10727c-1.1939-0.39262-1.9914 23.7-0.82227 24.84 1.521 1.4829 9.5492 0.72266 11.9-1.127 7.252-5.7044 2.4982-17.395-6.2891-15.465-2.8325 0.62212-2.9268 0.51826-3.2285-3.5977-0.1709-2.3311-0.87305-4.4243-1.5606-4.6504zm-55.412 0.25586c-0.89437 0-1.3379 1.3263-1.3379 4 0 3.6296-0.21748 3.9685-2.3574 3.668-8.4993-1.1937-13.752 9.3126-7.6875 15.377 2.5266 2.5266 5.9354 3.1256 8.5117 1.4961 0.92964-0.58796 1.9363-0.53662 2.75 0.13867 1.533 1.2722 1.4317 2.1617 1.4473-12.68 0.01-9.3607-0.28243-12-1.3262-12zm109.15 0.5c-1.2619-5.7e-4 -1.5078 1.967-1.5078 12 0 10.033 0.246 12 1.5078 12 1.2618 2.4e-4 1.5098-1.9675 1.5098-12 0-10.032-0.24798-11.999-1.5098-12zm-297.47 0.0254c-0.32351-0.0341-0.73813 0.0486-1.2559 0.22461-0.40434 0.1375-0.742 5.5171-0.75 11.955l-0.0156 11.705 2.5 0.39453c8.9436 1.4122 13-1.3266 13-8.7774 0-6.0478-3.3549-9.0466-9.0938-8.1289l-4.1777 0.66797 0.54101-4.0332c0.37037-2.7614 0.22249-3.9056-0.74805-4.0078zm273.04 0.9746c-1.6706 0-2.7985 1.4281-1.8652 2.3613 1.1952 1.1952 3.3066 0.6449 3.3066-0.86133 0-0.825-0.64887-1.5-1.4414-1.5zm14.119 5.9707c-1.8638 0.29222-4.1324 1.3316-5.7539 2.9531-4.535 4.535-3.8333 10.724 1.5762 13.895 2.4963 1.4631 7.7068 1.104 8.2559-0.56836 0.27182-0.82801-0.68789-1.25-2.8438-1.25-5.7503 0-8.627-4.9278-5.877-10.066 0.71768-1.341 2.0979-1.9336 4.5-1.9336 2.4132 0 3.4648-0.45528 3.4648-1.5 0-1.3673-1.4584-1.8215-3.3223-1.5293zm-154.16 0.0293c-7.3989 0-10.908 10.688-5.1387 15.65 2.2091 1.9002 3.7659 2.3862 6.9082 2.1523 5.5514-0.41309 6.2291-2.8027 0.79492-2.8027-2.7744 0-4.7374-0.65345-6.1211-2.0371-2.8927-2.8927-1.6509-3.9629 4.5957-3.9629 5.2301 0 5.4414-0.10417 5.4414-2.6719 0-3.7053-2.6862-6.3281-6.4805-6.3281zm18.219 0.0234c-1.2406-0.0549-2.7009 0.33958-3.5801 1.2188-0.98886 0.98886-1.4137 0.96197-2.0879-0.12891-1.7547-2.8391-2.5596-0.0448-2.2441 7.7891 0.4082 10.137 3.1738 12.137 3.1738 2.2969 0-6.2672 1.107-8.1992 4.6992-8.1992 1.3778 0 2.3008-0.60145 2.3008-1.5 0-0.91805-1.0211-1.4217-2.2617-1.4766zm-79.977 0.0488c-1.3342-0.0792-2.6609 0.21151-3.7285 0.88671-0.92287 0.58368-1.9249 0.54594-2.7051-0.10156-2.2776-1.8903-2.8305-0.11419-2.502 8.0449 0.43064 10.693 2.9259 11.688 3.3789 1.3477 0.28795-6.5734 0.36853-6.7584 3.1055-7.0723 4.5821-0.5254 5.8952 1.3794 5.5195 8.0117-0.2774 4.8968-0.0673 5.8145 1.3398 5.8125 2.6133-3e-3 2.0606-13.628-0.63281-15.598-1.0993-0.8038-2.4412-1.2529-3.7754-1.332zm91.471 0.01c-2.2805 0.26091-4.5013 1.5377-5.7695 3.9902-2.2682 4.3862-1.8072 7.7357 1.5195 11.062 2.5165 2.5165 3.6347 2.9341 7.1719 2.6738 5.7626-0.42832 6.4059-2.8088 0.75781-2.8088-4.3445 0-7.9121-2.0983-7.9121-4.6543 0-0.97723 1.6406-1.3457 6-1.3457 5.7333 0 6-0.11111 6-2.5 0-4.4668-3.9668-6.8528-7.7676-6.418zm49.326 0.0469c-1.5957-0.24517-3.2341 0.0137-4.5312 0.83398-0.94778 0.59937-1.7112 0.54709-2.1387-0.14453-1.9575-3.1673-3.0197 10.715-1.9141 25.016 0.17835 2.3069 2.6021-1.5193 2.8223-4.4551 0.2907-3.8765 0.37375-3.9568 3.7012-3.5684 7.2077 0.84145 11.592-9.8932 6.3281-15.496-1.1194-1.1916-2.6719-1.9404-4.2676-2.1855zm-123.63 0.0527c-1.8575-0.064-3.9076 0.39073-5.0254 1.4023-2.7958 2.5302-2.3538 5.2618 1.168 7.2129 5.8839 3.2597 6.5482 3.9445 5.1719 5.3398-0.68976 0.69929-2.8273 1.1646-4.75 1.0352-3.2729-0.22042-4.3722 0.61997-2.8301 2.1621 1.4522 1.4522 7.3978 0.60222 9.334-1.334 3.3863-3.3863 2.0794-6.0879-4.25-8.7852-5.0014-2.1314-2.5302-5.95 2.959-4.5723 1.9155 0.48076 2.4372 0.29266 2.0938-0.75196-0.34922-1.0621-2.0136-1.645-3.8711-1.709zm-39.158 0.0137c-5.9745 0.4423-6.0441 2.6175-0.0957 2.998 6.2022 0.39678 7.3908 3.2087 1.7442 4.125-6.4694 1.0498-10.023 7.067-5.6719 9.6016 2.2528 1.3121 4.8961 1.3418 7.2559 0.0781 1.2594-0.67401 2.0786-0.66887 2.502 0.0156 1.3508 2.1856 2.1889-0.22542 2.2734-6.543 0.11168-8.3474-1.7515-10.739-8.0078-10.275zm-24.623 6e-3c-7.1974 0.62243-10.212 10.768-4.627 15.572 2.0652 1.7764 3.6729 2.2594 6.7656 2.0293 5.6296-0.4189 6.1337-2.6977 0.58008-2.6211-9.1205 0.12588-9.9377-5.8683-0.86914-6.375 5.1722-0.28897 5.4834-0.45297 5.2266-2.7539-0.44118-3.953-3.1478-6.1913-7.0762-5.8516zm248.57 0.71875c-2.0018-0.18255-2.3008 1.1152-1.918 8.3301 0.28831 5.4336 0.79614 7.75 1.6973 7.75 1.4306 0 1.6496-15.95 0.2207-16.08zm-176.41 0.07975c-0.83964 0-1.3216 0.5625-1.0723 1.25s1.5305 4.2875 2.8477 8c2.9605 8.3445 4.1883 8.4413 7.0625 0.55859l2.2578-6.1914 1.7617 3.9414c0.96964 2.1676 2.2044 5.1789 2.7441 6.6914 1.3342 3.7389 1.8286 3.5052 4.2246-2 4.2141-9.6826 4.917-12.25 3.3535-12.25-0.86647 0-2.179 2.4346-3.3691 6.25l-1.9492 6.25-1.5195-3.5547c-0.83533-1.9555-1.8234-4.768-2.1953-6.25-1.2098-4.8204-3.9132-3.3551-6.0293 3.2676-2.1444 6.7111-2.4949 6.6594-4.8867-0.71289-1.0696-3.2969-2.2718-5.25-3.2305-5.25zm128.19 0c-2.1413 0-2.0955 11.703 0.0566 14.777 1.633 2.3314 5.7456 2.9489 8.4102 1.2637 0.92964-0.58796 1.9363-0.53662 2.75 0.13867 1.5544 1.29 1.5623 1.2533 1.6855-8.4297 0.0852-6.6992-0.13512-7.7499-1.6211-7.75-1.4772-9e-5 -1.6882 0.94945-1.5 6.75l0.21875 6.75-3.3945 0.32422c-4.2938 0.40999-5.0706-0.82182-5.0898-8.0742-0.011-4.4376-0.35798-5.75-1.5156-5.75zm79.234 0c-1.1844 0-1.7334 0.49023-1.4004 1.25 6.4948 14.82 6.8008 16.713 3.166 19.572-1.375 1.0816-2.5 2.2389-2.5 2.5723 0 4.4658 5.5588-0.81963 7.8926-7.5039 1.0353-2.9651 2.8394-7.7873 4.0098-10.717 1.8867-4.7226 1.9404-5.2893 0.4668-5-1.0252 0.20129-2.2126 2.2418-3.0996 5.3262-2.0725 7.2062-2.7172 7.2775-4.7598 0.53125-1.4193-4.6875-2.2611-6.0312-3.7754-6.0312zm-279.61 1c2.1174 0 5.1006 2.8175 4.3203 4.0801-0.90793 1.4691-8.4492 1.1291-8.4492-0.38086 0-1.8313 2.0855-3.6992 4.1289-3.6992zm157.93 8e-3c2.8524-0.80199 4.9434 1.8692 4.9434 7.1562 0 3.6874-0.43671 4.9997-1.9336 5.8008-6.0274 3.2211-11.096-5.9354-6.0664-10.965 1.0709-1.0709 2.1058-1.7249 3.0566-1.9922zm-18.084 0.23438c1.6934 0.23527 3.0273 1.4798 3.0273 3.457 0 0.87407-1.4744 1.3008-4.5 1.3008-4.8817 0-5.5056-0.78118-2.6719-3.3457 0.73837-0.6682 1.5564-1.0926 2.3672-1.3008 0.60806-0.15614 1.2129-0.18976 1.7774-0.11133zm-30.93 0.0684c1.6318 0.18363 2.957 1.3261 2.957 3.3125 0 0.97138-1.3619 1.377-4.6211 1.377-4.5684 0-4.605-0.0261-3.1309-2.25 1.2253-1.8485 3.1631-2.6231 4.7949-2.4394zm116 0.0762c4.8645-0.45076 7.5581 6.8838 3.1855 11.863-1.5106 1.7203-3.508 2.084-5.9766 1.0879-2.1237-0.85694-1.6341-11.063 0.58789-12.252 0.76928-0.41171 1.5082-0.63483 2.2031-0.69922zm-244.22 0.17187c4.8125 0.13983 7.4404 7.1827 3.1816 11.441-4.3324 4.3324-8 1.3113-8-6.5898 0-2.8174 0.48893-3.6451 2.6348-4.4609 0.76292-0.29007 1.4961-0.4106 2.1836-0.39063zm204.94 0.0215c4.8807 0.10821 7.5481 7.116 3.2441 11.42-4.229 4.229-6.4594 2.8149-7.4785-4.7402-0.6821-5.057-0.61083-5.2746 2.0215-6.2754 0.77372-0.29418 1.5156-0.41976 2.2129-0.4043zm-158.74 6.7617c2.0342-0.1925 3.1067 0.79697 2.8086 2.7949-0.57449 3.8503-7.8203 4.5597-7.8203 0.76562 0-1.195 1.0354-2.3466 2.6719-2.9688 0.87683-0.33337 1.6618-0.52763 2.3398-0.59179zm271.24 3.8376c-1.7317-0.24594-2.25 0.17397-2.25 1.8203s0.51831 2.0662 2.25 1.8203c1.2375-0.17575 2.25-0.99531 2.25-1.8203s-1.0125-1.6446-2.25-1.8203zm-32.826 39.045c-1.8245 0.20988-3.7415 2.1056-4.5625 4.8457-1.2017 4.011-2.4969 4.7494-7.166 4.0859-3.6585-0.51985-3.6136-5.4556 0.0547-5.9766 2.3777-0.33768 2.9516-1.6276 1.2051-2.707-1.7887-1.1055-5.648 2.2437-6.291 5.459-0.363 1.8143-1.2367 3.0684-2.1387 3.0684-0.83875 0-1.5254 0.675-1.5254 1.5s0.675 1.5 1.5 1.5c1.1905 0 1.5 1.4444 1.5 7s0.30952 7 1.5 7c1.1881 0 1.5-1.432 1.5-6.8867 0-6.7512 0.054-6.8945 2.75-7.2773 5.7911-0.82235 6.25-0.28958 6.25 7.2383 0 5.4904 0.31104 6.9258 1.5 6.9258 1.189 0 1.5-1.436 1.5-6.9297 0-6.3483 0.18255-6.9573 2.1719-7.25 3.2451-0.4775 3.5324-2.8203 0.3457-2.8203-3.5809 0-3.369-5.3088 0.23242-5.8203 2.2553-0.3203 2.9724-1.6152 1.4238-2.5723-0.54336-0.33581-1.1418-0.45277-1.75-0.38281zm-70.924 0.77539c-1.2533 0-1.5 2.0556-1.5 12.5s0.24667 12.5 1.5 12.5 1.5-2.0556 1.5-12.5-0.24667-12.5-1.5-12.5zm206.57 1c-1.4311 0-2.0742 0.64313-2.0742 2.0742 0 2.5626 3.3105 2.2708 3.8125-0.33594 0.2311-1.2-0.30718-1.7383-1.7383-1.7383zm-410.68 1c-1.3721 0-1.5519 1.2224-1.25 8.5 0.19398 4.6751 0.27024 8.5001 0.16797 8.5-0.10226-7e-5 -2.7574-3.825-5.9004-8.5-8.0018-11.902-9.017-11.566-9.0684 3-0.0318 8.9963 0.25267 11.5 1.3066 11.5 1.0322 0 1.3477-2.1535 1.3477-9.207v-9.207l6.25 9.1719c8.2599 12.122 8.75 11.996 8.75-2.2578 0-9.8828-0.22627-11.5-1.6035-11.5zm318.6 1c-0.55 0-1 1.072-1 2.3828 0 1.6174-0.72311 2.588-2.25 3.0176-2.1007 0.59107-2.1339 0.72191-0.5 1.9766 1.1605 0.89112 1.75 2.7159 1.75 5.418 0 2.2411 0.43822 5.2298 0.97461 6.6406 0.75019 1.9732 1.6733 2.5644 4 2.5644 3.5759 0 3.9252-1.1318 0.77539-2.5137-3.6665-1.6086-3.9269-11.486-0.30273-11.486 1.602 0 2.5527-0.55848 2.5527-1.5 0-0.93333-0.94444-1.5-2.5-1.5-2 0-2.5-0.5-2.5-2.5 0-1.375-0.45-2.5-1-2.5zm120.77 0.24805c-0.646 0.0943-1.3524 0.97932-1.5879 2.5801-0.17575 1.1944-0.96325 2.1719-1.75 2.1719s-1.4297 0.675-1.4297 1.5 0.675 1.5 1.5 1.5c1.1359 0 1.5 1.2302 1.5 5.0664 0 2.7862 0.46581 5.9362 1.0352 7 0.66611 1.2446 2.0922 1.9336 4 1.9336 3.5223 0 3.8463-1.1398 0.71484-2.5137-3.6665-1.6086-3.9269-11.486-0.30273-11.486 1.602 0 2.5527-0.55848 2.5527-1.5 0-0.93333-0.94444-1.5-2.5-1.5-2.0215 0-2.5-0.49509-2.5-2.584 0-1.5664-0.58642-2.2623-1.2324-2.168zm97.018 0c-0.64403 0.0317-1.3618 0.81113-1.6524 2.3105-0.20167 1.0407-1.1017 2.4338-2 3.0957-1.5007 1.1058-1.4907 1.2575 0.11719 1.8809 1.3402 0.51954 1.75 1.8392 1.75 5.6367 0 2.7273 0.46581 5.8307 1.0352 6.8945 0.66611 1.2446 2.0922 1.9336 4 1.9336 3.5223 0 3.8463-1.1398 0.71484-2.5137-3.6665-1.6086-3.9269-11.486-0.30273-11.486 1.602 0 2.5527-0.55848 2.5527-1.5 0-0.93333-0.94444-1.5-2.5-1.5-2.0215 0-2.5-0.49509-2.5-2.584 0-1.4851-0.57081-2.1997-1.2148-2.168zm-478.92 2.7285c-1.1191 0.17738-1.8613 1.1007-1.8613 3.0234 0 0.55 1.7443 1 3.877 1 3.9362 0 6.8394 2.0332 5.6504 3.957-0.35481 0.57409-1.8681 1.043-3.3633 1.043-5.5436 0-9.2798 5.4839-5.9824 8.7812 0.67413 0.67413 3.6169 1.1147 6.8555 1.0254l5.6758-0.15625-0.39844-7.0234c-0.34033-6.0068-7.0958-12.183-10.453-11.65zm-7.8613 0.02344c-1.1 0-2 0.42601-2 0.94727s-2.3593 1.0838-5.2422 1.25c-6.4696 0.37307-9.2034 3.9493-6.3496 8.3047 0.96918 1.4792 1.1893 2.6289 0.57618 3.0078-0.5459 0.33739-0.71556 1.7095-0.37891 3.0508 0.37303 1.4863 0.17944 2.4394-0.49609 2.4394-1.6781 0-1.3267 5.6382 0.46289 7.4277 3.5791 3.5791 13.837 0.77705 15.064-4.1152 0.93274-3.7163-2.4605-6.3125-8.248-6.3125-3.2349 0-4.3887-0.3945-4.3887-1.5 0-1.0417 1.0468-1.5 3.4277-1.5 5.0588 0 7.1937-2.6602 6.623-8.2559-0.0985-0.96625 0.52456-2.0273 1.3848-2.3574 2.2198-0.85181 1.9399-2.3867-0.43555-2.3867zm60.697 1.1836c-6.5359-0.0971-11.122 9.5419-5.7207 15.291 2.6812 2.8541 12.023 3.8073 12.023 1.2266 0-0.89228-1.0801-1.1743-3.4434-0.89844-2.7665 0.32298-3.9942-0.15683-6.25-2.4492l-2.8066-2.8535 5.709-0.50781c8.3267-0.7418 10.273-5.9924 3.3848-9.1309-0.9899-0.45103-1.9628-0.66387-2.8965-0.67774zm108.32 0.0176c-6.6199-0.56856-11.634 9.3246-6.0469 15.271 2.7872 2.9668 12.025 3.804 12.025 1.0898 0-1.0781-0.85532-1.298-3.4258-0.88086-2.8071 0.45553-3.9123 0.0721-6.1074-2.123-3.3135-3.3135-3.2395-3.3848 3.8555-3.6719l5.7773-0.23242-0.29883-3.5469c-0.21913-2.5893-0.99273-3.9323-2.8691-4.9805-0.98502-0.55022-1.9644-0.84455-2.9102-0.92578zm-81.049 0.0723c-0.7233-0.0174-1.4761 0.0665-2.2461 0.25976-7.8883 1.9798-8.9026 14.464-1.418 17.447 4.569 1.821 10.323-1.4955 11.26-6.4902 1.1414-6.0843-2.5326-11.095-7.5957-11.217zm151.66 0.0215c-6.6462-0.92603-12.053 9.3713-6.1738 15.25 2.7981 2.7981 11.545 3.6537 11.545 1.1289 0-0.90562-0.95306-1.1874-3.002-0.88672-3.296 0.4834-7.998-1.9767-7.998-4.1856 0-0.91816 1.7668-1.5011 5.498-1.8105 7.5244-0.62398 8.928-4.501 3.0273-8.3672-0.9707-0.63603-1.947-0.99662-2.8965-1.1289zm-45.484 0.0137c-5.5937 1.1874-10.021 9.9067-4.7578 15.17 2.8326 2.8326 11.5 3.4111 12.352 0.82421 0.27521-0.83644-0.60614-1.0359-2.9219-0.66015-2.4566 0.39865-4.0295-0.0228-6.0664-1.625-3.7265-2.9312-3.4578-4.015 1-4.0312 8.3502-0.0304 10.929-3.412 6.0606-7.9473-1.8084-1.6848-3.8014-2.1263-5.666-1.7305zm-227.08 0.10352c-3.6527-0.47058-7.6736 1.5578-9.1426 6.4609-1.3969 4.6625 0.17457 8.8442 4.0801 10.857 5.546 2.8588 12-1.8678 12-8.7871 0-5.0924-3.2848-8.0607-6.9375-8.5312zm438.45 0.16992c-5.5466 1.2653-9.3546 9.6669-4.0039 15.018 2.7447 2.7447 11.402 3.2119 12.242 0.66016 0.29066-0.883-0.44413-1.0713-2.5488-0.65039-3.9074 0.78147-9.1287-1.98-9.1875-4.8594-8e-3 -0.4125 1.6719-0.75567 3.7344-0.76367 8.5453-0.0311 11.085-3.6112 5.6152-7.9141-1.9598-1.5416-4.0027-1.912-5.8516-1.4902zm67.041 0.28516c-0.52039 0.14493-2.622 0.28625-4.668 0.31445l-3.7188 0.0527 0.0469 12.383c0.03631 9.7912 0.33311 12.383 1.416 12.383 0.9309 0 1.3691-1.2807 1.3691-4v-4h4.5156c6.7532 0 10.404-6.6908 7.332-13.434-1.0965-2.4065-4.2586-4.2658-6.293-3.6992zm-138 0.0566c-0.40416-0.12295-0.78085-0.0277-1.1133 0.30469-0.26145 0.26145 0.90924 3.7282 2.6016 7.7051 3.4862 8.1923 3.5474 12.089 0.21094 13.553-1.2375 0.54292-2.25 1.5554-2.25 2.25 0 1.518 0.16364 1.533 3.4356 0.28906 1.4108-0.53645 2.5644-1.4986 2.5644-2.1367 0-0.63808 1.8-5.6454 4-11.129 4.594-11.451 4.4279-10.76 2.5801-10.76-0.82962 0-2.1277 2.182-3.123 5.25-2.3893 7.3645-2.8021 7.4591-4.9512 1.1367-1.2795-3.7641-2.7426-6.094-3.9551-6.4629zm-28.316 0.0469c-2.0825-0.19425-4.1705 0.11842-4.7637 1.0781-0.44878 0.72586-1.0332 0.72371-1.9004 0.01-1.9975-1.6578-13.771-1.0263-13.107 0.70313 0.29585 0.77095 0.53711 4.5153 0.53711 8.3203 0 5.4828 0.31121 6.918 1.5 6.918 1.1901 0 1.5-1.4418 1.5-6.9805 0-6.622 0.1299-7.013 2.5137-7.6113 4.1109-1.0318 5.4863 1.0283 5.4863 8.2148 0 5.0023 0.32347 6.377 1.5 6.377 1.1901 0 1.5-1.4418 1.5-6.9805 0-6.622 0.1299-7.013 2.5137-7.6113 4.1109-1.0318 5.4863 1.0283 5.4863 8.2148 0 5.0023 0.32347 6.377 1.5 6.377 1.804 0 2.1705-11.88 0.46484-15.066-0.57178-1.0684-2.6482-1.7686-4.7305-1.9629zm-198.94 0.0254c-1.4981-0.0115-3.2768 0.38621-4.0938 1.2031-0.93333 0.93333-1.1992 0.93333-1.1992 0 0-0.66-0.73125-1.1992-1.625-1.1992-1.2867 0-1.4949 0.65064-1 3.125 0.34375 1.7188 0.625 5.5438 0.625 8.5 0 4.1111 0.35271 5.375 1.5 5.375 1.1786 0 1.5-1.385 1.5-6.4648 0-6.5336 1.568-9.0938 5.084-8.2988 0.64103 0.14492 1.3729-0.29883 1.625-0.98633 0.30099-0.82088-0.91791-1.2424-2.416-1.2539zm20.998 2e-3c-1.5001-0.0115-3.2758 0.38521-4.0918 1.2012-0.93333 0.93333-1.1992 0.93333-1.1992 0 0-0.66-0.6111-1.1992-1.3574-1.1992-1.0446 0-1.3323 1.9558-1.25 8.498 0.0764 6.0749 0.46395 8.4993 1.3574 8.5 0.85755 7.1e-4 1.25-1.8339 1.25-5.8438 0-6.2786 2.0574-9.6039 5.5488-8.9707 0.95932 0.17398 1.9412-0.24609 2.1816-0.93359 0.28672-0.82001-0.93936-1.2405-2.4394-1.252zm298 0c-1.5001-0.0115-3.2758 0.38521-4.0918 1.2012-0.93333 0.93333-1.1992 0.93333-1.1992 0 0-0.66-0.59779-1.1992-1.3281-1.1992-1.1609 0-1.4014 5.8744-0.6875 16.75 0.22846 3.4806 2.0156-1.4812 2.0156-5.5957 0-6.2786 2.0574-9.6039 5.5488-8.9707 0.95932 0.17398 1.9412-0.24609 2.1816-0.93359 0.28672-0.82001-0.93936-1.2405-2.4394-1.252zm-291.81 0.00181c-1.8784 0-1.4197 13.157 0.54102 15.52 0.83142 1.0018 3.011 1.3976 7.0918 1.2852l5.8906-0.16211v-8.3223c0-6.7298-0.28684-8.3203-1.5-8.3203-1.1901 0-1.5 1.4418-1.5 6.9805 0 6.6107-0.13277 7.0138-2.498 7.6074-4.8813 1.2251-6.502-1.4447-6.502-10.713 0-2.8049-0.42032-3.875-1.5234-3.875zm123.7 0c-7.5568 0-11.388 8.949-6.1973 14.475 2.6189 2.7877 11.638 3.8558 10.77 1.2754-0.23132-0.6875-1.5419-1.1157-2.9121-0.95117-3.8081 0.45719-7.1658-2.8066-7.0508-6.8535 0.11099-3.9036 2.311-5.9453 6.4082-5.9453 1.5449 0 2.8086-0.45 2.8086-1s-1.722-1-3.8262-1zm63.703 0c-5.9913 0-6.4966 1.7687-0.62695 2.1934 5.3491 0.38702 7.2276 4.8066 2.043 4.8066-5.6599 0-9.4488 5.4438-6.1113 8.7812 0.66827 0.66827 3.5999 1.1166 6.75 1.0312l5.5684-0.15234-0.33984-7.0801c-0.41532-8.6664-1.1103-9.5801-7.2832-9.5801zm38.623 0c-1.2157 0-1.5 1.6111-1.5 8.5s0.28431 8.5 1.5 8.5 1.5-1.6111 1.5-8.5-0.28431-8.5-1.5-8.5zm72.051 0c-1.1529 0-1.4512 1.7414-1.4512 8.5s0.29823 8.5 1.4512 8.5c1.0968 0 1.4532-1.4007 1.4648-5.75 0.0183-6.8617 0.95141-8.6382 4.6211-8.7988 1.5144-0.0663 2.927-0.64634 3.1406-1.2871 0.51963-1.5588-5.0137-1.5302-6.5781 0.0352-0.93333 0.93333-1.1992 0.93333-1.1992 0 0-0.66-0.65172-1.1992-1.4492-1.1992zm12.836 0c-2.036 0-1.6206 12.809 0.49805 15.361 0.98134 1.1824 2.8871 1.5629 7.2246 1.4434l5.8906-0.16211v-8.3223c0-6.7298-0.28684-8.3203-1.5-8.3203-1.1746 0-1.5 1.3674-1.5 6.3008 0 6.792-1.036 8.6992-4.7246 8.6992-2.8911 0-4.2754-3.258-4.2754-10.064 0-3.8734-0.34736-4.9356-1.6133-4.9356zm-72.229 0.1875-6.1582 0.16992v8.3223c0 6.7298 0.28684 8.3203 1.5 8.3203 1.1746 0 1.5-1.3674 1.5-6.3008 0-6.6817 1.0439-8.6992 4.5-8.6992s4.5 2.0175 4.5 8.6992c0 4.9333 0.3254 6.3008 1.5 6.3008 2.0362 0 2.1776-14.193 0.1582-15.869-0.73771-0.61224-4.1127-1.0368-7.5-0.94336zm-338.78 0.0625-11.125 0.0566 0.0391 8.3477c0.0289 6.2754 0.36912 8.3457 1.373 8.3457 0.97233 4e-5 1.3359-1.713 1.3359-6.3008 0-6.7635 1.0376-8.6992 4.6641-8.6992 3.1285 0 4.566 3.2197 4.1699 9.3418-0.26318 4.0676-0.0166 5.1582 1.166 5.1582 1.1828 0 1.4282-1.0902 1.1641-5.1562-0.40485-6.2314 1.0323-9.3438 4.3125-9.3438 3.2531 0 3.7476 1.1184 3.8008 8.5918 0.0331 4.6633 0.41065 6.4082 1.3848 6.4082 1.8153 0 1.8946-14.298 0.0879-15.781-0.6988-0.57373-6.1545-1.0008-12.373-0.96875zm-40.732 1.1133c2.4248 0.55061 3.7397 3.0495 2.3164 5.709-1.2155 2.2712-5.2042 2.5463-6.9219 0.47656-1.5392-1.8547-0.4759-5.2746 1.8711-6.0195 0.9945-0.31565 1.9261-0.34956 2.7344-0.16602zm202.11 0.20508c1.7501 0.21435 3.2441 1.421 3.2441 3.4668 0 1.662-0.69353 1.9648-4.5 1.9648-4.823 0-5.0178-0.16231-3.5273-2.9473 1.0275-1.9199 3.0331-2.6987 4.7832-2.4844zm-229.84 0.12109c1.2636 0.0269 2.5999 0.70082 3.8066 2.248 1.837 2.3554 1.5367 7.5226-0.54687 9.4082-2.5583 2.3152-5.8834 2.0628-7.2832-0.55273-2.9125-5.442 0.23254-11.184 4.0234-11.104zm442.21 0.0586c1.605 0.25453 2.877 1.3995 2.877 3.2871 0 1.662-0.69353 1.9648-4.5 1.9648-4.7166 0-5.3159-0.58848-3.25-3.1934 1.3298-1.6767 3.268-2.3131 4.873-2.0586zm-347.01 0.0469c1.5667 0.30811 2.8906 1.3881 2.8906 3.0274 0 1.3511-0.91581 1.7891-4 1.9121-3.934 0.15687-4.9005-0.83922-3.2344-3.334 0.96773-1.449 2.777-1.9136 4.3438-1.6055zm108 0c1.5667 0.30811 2.8906 1.3881 2.8906 3.0274 0 1.3511-0.91581 1.7891-4 1.9121-3.934 0.15687-4.9005-0.83922-3.2344-3.334 0.96772-1.449 2.777-1.9136 4.3438-1.6055zm69.115 0.0645c2.1166-0.16386 4.2754 1.2146 4.2754 3.25 0 0.89373-1.4693 1.4695-4.25 1.6641-4.867 0.34054-5.7999-1.5744-2.0469-4.2031 0.61467-0.43052 1.316-0.65656 2.0215-0.71093zm-151.21 0.0352c0.81021-0.16449 1.6042-0.0658 2.2774 0.37891 3.3253 2.1969 4.4567 6.2911 2.6387 9.5449-3.0128 5.392-9.9356 2.8935-9.9356-3.5859 0-2.9834 2.5889-5.8444 5.0195-6.3379zm383.63 0.29883c5.351-0.51949 8.1826 5.739 4.7891 10.584-1.7671 2.5229-7.1732 3.092-8.0352 0.84571-1.7771-4.6311 0.0664-11.121 3.2461-11.43zm-147.59 6.6836c1.5306 0.2059 2.9316 1.1016 2.9316 2.5156 0 1.3162-0.71204 2.6662-1.582 3-3.868 1.4843-6.3784-0.44802-5.0566-3.8926 0.51597-1.3446 2.1764-1.829 3.707-1.623zm-310.6 0.12293c3.7466 0 4.8538 2.279 2.332 4.8008-1.685 1.685-5.7504 1.4948-6.4394-0.30078-1.0836-2.8239 0.44647-4.5 4.1074-4.5zm-19.469 8.5c6.0024 0 8.116 2.4795 4.418 5.1836-0.98993 0.72386-2.9782 1.3164-4.418 1.3164-3.5045 0-6.304-2.1868-5.8457-4.5664 0.31409-1.6309 1.2305-1.9336 5.8457-1.9336zm121 16c-0.825 0-1.4554 0.5625-1.4004 1.25s0.1675 6.1679 0.25 12.18c0.14389 10.485 0.24209 10.95 2.4004 11.365 8.5723 1.6511 12.75-1.2168 12.75-8.75 0-6.3481-2.6964-8.9948-8.3691-8.2168l-4.1309 0.56641v-4.1973c0-3.064-0.40493-4.1973-1.5-4.1973zm-166.23 0.27734c-0.70205 0.15952-1.3434 4.6562-1.4707 12.221-0.1803 10.713-0.0192 12.002 1.5 12.004 1.4616 2e-3 1.6536-0.90944 1.3672-6.459-0.31911-6.1823-0.22415-6.4904 2.1719-7.0918 5.3294-1.3376 6.137-0.48499 6.457 6.8086 0.43248 9.8576 3.2051 9.6956 3.2051-0.1875 0-9.0725-4.1329-12.827-10-9.084-1.2331 0.78665-1.589 0.15561-2-3.541-0.36693-3.3-0.80924-4.7656-1.2305-4.6699zm280.69 0.62891c-1.0937 0.03595-2.4609 1.0698-2.4609 2.2012 0 0.76615 0.9 1.3926 2 1.3926 1.8826 0 2.7192-1.9468 1.4023-3.2637-0.24328-0.24329-0.57683-0.34206-0.9414-0.33008zm-75.396 0.0508c-1.1578 0.2697-2.2178 1.7016-1.748 2.9258 0.35523 0.92573 1.2478 1.339 2.1465 0.99414 1.6283-0.62484 2.0818-2.9229 0.74023-3.752-0.35442-0.21905-0.75273-0.25787-1.1387-0.16797zm-216.56 2.543c-0.93333 0-1.5 0.94444-1.5 2.5s-0.56667 2.5-1.5 2.5c-0.825 0-1.5 0.40143-1.5 0.89258 0 0.49116 0.675 1.1522 1.5 1.4688 1.102 0.42288 1.5 2.1621 1.5 6.5566 0 4.6341 0.39425 6.216 1.75 7.0215 2.2159 1.3165 5.468 0.94364 6.0059-0.68945 0.25755-0.78205-0.54999-1.25-2.1543-1.25-4.895 0-5.213-11.258-0.33398-11.818 3.0472-0.35027 2.7734-2.1816-0.32617-2.1816-1.4037 0-1.9414-0.692-1.9414-2.5 0-1.5556-0.56667-2.5-1.5-2.5zm285.21 2.0449c-0.74876-0.0338-1.7011 0.34954-2.5176 1.166-0.66633 0.66633-2.895 1.0916-4.9512 0.94336-4.9713-0.35838-8.7203 2.8775-7.7852 6.7207 1.2569 5.1654 1.124 9.6681-0.36132 12.271-1.6995 2.9788-0.56135 5.3076 3.373 6.9024 2.943 1.1929 4.1953 1.1191 7.9863-0.46485 7.6486-3.1958 6.8895-10.584-1.0879-10.584-4.0506 0-7.6943-1.6555-6.8066-3.0918 0.33669-0.54478 1.4216-0.73235 2.4121-0.41797 4.3859 1.392 9.2815-3.7888 7.6348-8.0801-0.40866-1.065 0.0543-1.7692 1.3926-2.1191 1.1023-0.28825 2.0039-1.1474 2.0039-1.9082 0-0.85329-0.54421-1.3041-1.293-1.3379zm-28.09 2e-3c-0.78689-0.0208-1.7645 0.42569-2.5312 1.3496-0.63757 0.76822-2.0365 1.1687-3.1074 0.88868-5.9469-1.5552-11.463 3.8011-8.5274 8.2812 1.2359 1.8862 1.3943 2.9131 0.59766 3.873-0.59633 0.71848-0.82003 1.993-0.49805 2.832 0.32199 0.83908 0.10508 1.8224-0.48242 2.1856-3.0233 1.8685-0.72264 7.7874 3.4316 8.8281 3.5353 0.88565 7.9387-0.36709 10.25-2.916 4.2264-4.6609 2.3742-8.3599-4.1992-8.3848-6.99-0.0264-9.0727-3.0036-2.4648-3.5234 4.2274-0.33255 6.3317-2.6858 6.2109-6.9453-0.068-2.3956 0.34814-3.5156 1.3027-3.5156 0.77056 0 1.4004-0.675 1.4004-1.5 0-0.94413-0.59593-1.4326-1.3828-1.4531zm-25.41 1.7012c-1.2322 3e-3 -2.6438 0.41414-4.2129 1.2539-1.2594 0.67401-2.0786 0.66887-2.502-0.0156-1.5148-2.4526-2.4922 0.71311-2.4922 8.0722 0 6.392 0.2926 7.9414 1.5 7.9414 1.179 0 1.5-1.3863 1.5-6.4805 0-6.0226 0.17218-6.5252 2.4219-7.0898 5.2391-1.315 6.0541-0.43974 6.373 6.8301 0.42478 9.682 3.2051 9.7403 3.2051 0.0684 0-6.9072-2.0964-10.588-5.793-10.58zm111 0c-1.2322 3e-3 -2.6438 0.41414-4.2129 1.2539-1.2524 0.67028-2.0779 0.67028-2.4922 0-1.6726-2.7074-2.502-0.22115-2.502 7.498 0 6.8889 0.28431 8.5 1.5 8.5 1.179 0 1.5-1.3863 1.5-6.4805 0-6.0226 0.17218-6.5252 2.4219-7.0898 5.2392-1.315 6.0541-0.43974 6.373 6.8301 0.42478 9.682 3.2051 9.7403 3.2051 0.0684 0-6.9072-2.0964-10.588-5.793-10.58zm-258.57 0.17578c-1.0654-0.0141-2.3567 0.28693-3.9043 0.87109-2.4399 0.92095-3.2939 0.90962-3.8867-0.0488-1.5654-2.5329-2.3929 0.90989-2.043 8.5039 0.47838 10.382 2.9614 11.112 3.4043 1l0.29492-6.75 3.1836-0.30859c4.1269-0.39979 5.5567 2.1379 4.9707 8.8262-0.33271 3.7975-0.10559 4.9824 0.95508 4.9824 1.0651 0 1.3906-1.7635 1.3906-7.5215 0-6.6279-1.1691-9.5124-4.3652-9.5547zm-47.219 0.07613c-7.8661 0-11.049 10.996-4.6426 16.035 1.8656 1.4675 3.7612 1.9759 6.5938 1.7637 5.5727-0.41752 6.0091-2.6932 0.50195-2.6172-3.2375 0.0447-4.6862-0.4736-6.0566-2.166-2.5384-3.1347-1.4971-4.0156 4.7461-4.0156 5.2301 0 5.4414-0.10417 5.4414-2.6719 0-3.7496-2.6834-6.3281-6.584-6.3281zm119.46 0.0117c-0.9449 0.0868-1.3518 3.3415-1.0801 9.2383 0.47283 10.262 3.1992 11.419 3.1992 1.3574 0-6.6616 0.6318-7.6074 5.082-7.6074 1.055 0 1.918-0.675 1.918-1.5 0-1.8361-4.0835-2.0162-5.8418-0.25781-0.98886 0.98886-1.4281 0.93911-2.1582-0.24219-0.42933-0.69468-0.80417-1.0172-1.1191-0.98828zm46.824 4e-3c-8.074-0.0442-10.857 13.911-3.3906 17.002 2.998 1.2409 8.9404 0.7576 9.4414-0.76758 0.28269-0.86052-0.8397-1.25-3.6016-1.25-4.106-8e-5 -7.1543-1.9488-7.1543-4.5723 0-1.0794 1.4667-1.4277 6-1.4277 6.4626 0 7.2138-0.82478 4.8496-5.3164-1.5231-2.8937-2.7898-3.6496-6.1445-3.668zm-57.936 0.0645c-0.95142-0.17562-1.956-0.15375-2.9434 0.0859-1.3165 0.3208-2.6029 1.0328-3.6914 2.1914-3.8197 4.0659-3.9284 9.0032-0.27735 12.654 2.6444 2.6444 3.7276 3.0595 7.2969 2.7969 5.9426-0.43732 6.3532-2.8086 0.48632-2.8086-3.5067 0-4.8693-0.4865-6.043-2.1621-2.1658-3.0941-1.2024-3.838 4.9609-3.838 5.2301 0 5.4414-0.10413 5.4414-2.6719 0-3.4268-2.3762-5.7212-5.2305-6.248zm-46.723 0.01c-6.4126 0.71402-6.9414 7.2554 0.62304 10.416 5.3056 2.2168 3.8433 5.0716-2.3828 4.6523-3.091-0.20817-4.1364 0.66045-2.6211 2.1758 1.8675 1.8675 9.6648-0.14883 10.666-2.7578 0.98525-2.5675-0.33702-4.5378-4.4551-6.6387-2.1322-1.0964-3.877-2.6436-3.877-3.4574 0-1.492 0.65793-1.7582 4.7305-1.9024 3.0238-0.10698 3.3515-1.9949 0.41797-2.4102-1.1498-0.16276-2.1855-0.18085-3.1016-0.0781zm-37.469 0.11524c-5.7846 0.43418-5.9217 2.7949-0.1621 2.7949 2.5208 0 4.584 0.18796 4.584 0.41797 0 0.23002 0.24833 1.0681 0.55273 1.8613 0.39982 1.0419-0.46638 1.6079-3.123 2.0391-6.4913 1.0534-10.005 7.0194-5.6797 9.6445 0.9625 0.58413 3.1 0.81683 4.75 0.51758s3.9255-0.54106 5.0566-0.53906c1.887 4e-3 2.0526-0.57683 2-7.0488-0.0676-8.3188-1.5891-10.167-7.9785-9.6875zm260.9 0.12304c-2.1871 0.0154-4.3774 0.99317-5.8203 2.9258-2.9787 3.9897-2.5958 9.5441 0.86328 12.52 3.0238 2.601 10.449 2.8587 11.262 0.39062 0.29398-0.8932-0.34493-1.2723-1.9238-1.1406-4.3864 0.36573-5.855-0.0171-7.8984-2.0606-2.8961-2.8961-1.65-3.9629 4.627-3.9629 6.4364 0 7.7876-1.6785 4.6895-5.8281-1.4278-1.9124-3.6117-2.859-5.7988-2.8438zm-30.971 0.30665c-1.1571 0.44401-1.4718 2.3385-1.4062 8.4688 0.0651 6.0778 0.40811 7.8965 1.4902 7.8965 1.0973 0 1.4062-1.8595 1.4062-8.4688 0-7.0928-0.24189-8.3755-1.4902-7.8965zm20.035 0.29687c-0.83399-0.30564-2.5164 0.81595-2.9082 2.377-0.31865 1.2696-1.3171 4.0776-2.2207 6.2402l-1.6445 3.9316-2.2344-5.9902c-1.4314-3.8379-2.8795-6.1166-4.0312-6.3418-1.1869-0.23201-1.6164 0.10778-1.2637 1 0.29382 0.74328 1.757 4.3891 3.252 8.1016 3.1737 7.8817 11.754 1.5528 11.523-8.5-0.0104-0.45531-0.19466-0.71648-0.47266-0.81836zm-190.5 0.0332c-1.143-0.0862-2.3069 1.7609-3.5898 5.5352-1.0282 3.025-2.1329 5.5-2.4551 5.5s-1.4268-2.475-2.4551-5.5-2.4714-5.5-3.207-5.5c-1.8075 0-1.7124 0.71183 1.0137 7.5781 1.2932 3.2573 2.6393 6.737 2.9922 7.7344 0.96311 2.7222 2.3118 1.2558 4.2031-4.5742 2.4289-7.4871 2.903-7.5565 5.4316-0.79492 2.4798 6.631 4.0054 7.5202 5.6699 3.3066 0.59751-1.5125 2.0528-5.1467 3.2344-8.0762 1.9005-4.7117 1.9565-5.2886 0.48633-5-1.0252 0.20129-2.2126 2.2418-3.0996 5.3262-2.0725 7.2062-2.7172 7.2775-4.7598 0.53125-1.1994-3.9615-2.3218-5.9802-3.4648-6.0664zm95.455 0.0348c-1.2083 0-1.5 1.5556-1.5 8s0.29167 8 1.5 8 1.5-1.5556 1.5-8-0.29167-8-1.5-8zm60.682 0.9043c3.0617-0.0218 5.8076 3.345 3.2422 6.1797-1.9442 2.1484-3.1232 2.3216-5.6738 0.83594-2.0211-1.1772-2.2914-3.9801-0.55078-5.7207 0.90544-0.90544 1.9619-1.2877 2.9824-1.2949zm-26.631 0.19336c0.84585 0.13739 1.6388 0.49036 2.25 1.1016 1.6298 1.6298 1.506 3.3495-0.37305 5.2285-0.86428 0.86429-2.1813 1.5723-2.9277 1.5723-1.6925 0-4.5-2.7269-4.5-4.3711 0-2.4045 3.0132-3.9434 5.5508-3.5312zm70.832 0.14843c2.5149-0.24599 5.6172 1.4825 5.6172 3.8262 0 0.51071-2.025 0.92773-4.5 0.92773-4.615 0-5.7708-1.3308-3.3008-3.8008 0.57101-0.57101 1.3453-0.87113 2.1836-0.95313zm-283.34 0.0645c1.6318 0.18363 2.957 1.3261 2.957 3.3125 0 0.97138-1.3619 1.377-4.6211 1.377-4.5684 0-4.605-0.0261-3.1309-2.25 1.2253-1.8485 3.1631-2.6231 4.7949-2.4394zm107 0c1.6318 0.18363 2.957 1.3261 2.957 3.3125 0 0.97138-1.3619 1.377-4.6211 1.377-4.5684 0-4.605-0.0261-3.1309-2.25 1.2253-1.8485 3.1631-2.6231 4.7949-2.4394zm58.93 0.0332c2.039 0.29519 4.0273 1.7115 4.0273 3.7285 0 0.51071-2.025 0.92773-4.5 0.92773-4.8567 0-5.0256-0.15007-3.4648-3.0664 0.41951-0.78387 1.1278-1.2654 1.9531-1.4922 0.61902-0.17008 1.3047-0.19514 1.9844-0.0977zm-19.576 0.0762c4.4229 0.63324 6.8097 8.9214 2.3809 12.023-4.2932 3.0071-6.5526 1.5487-7.127-4.5996-0.47301-5.0633-0.0565-6.1545 2.7402-7.1894 0.70106-0.25943 1.374-0.32484 2.0059-0.23438zm-120.93 6.7891c0.72355-0.11273 1.4333-0.0782 2.0391 0.1543 0.97762 0.37515 1.506 1.4896 1.3144 2.7734-0.57413 3.8476-7.8203 4.5591-7.8203 0.76758 0-1.6864 2.2961-3.3571 4.4668-3.6953zm292.64 3.791c-1.8995 0-3.4904 2.283-2.3711 3.4023 1.4349 1.4349 4.2637 0.50438 4.2637-1.4023 0-1.2956-0.66624-2-1.8926-2zm-78.842 4c5.4702 0 8.5442 3.2526 5.4785 5.7969-3.5068 2.9104-10.744 1.8567-10.744-1.5645 0-2.6439 1.9761-4.2324 5.2656-4.2324zm-28.461 0.18945c6.7997-0.67913 10.004 4.6362 4.0469 6.7129-4.1217 1.4368-4.2325 1.4232-6.9902-0.83984-3.0378-2.4929-1.57-5.4223 2.9434-5.873zm193.88 35.037c-0.56174-0.17669-1.3084 0.0423-2.2129 0.79297-1.0811 0.89723-1.1758 1.6744-0.38476 3.1524 0.78606 1.4688 0.66838 2.5458-0.46875 4.2812-0.83551 1.2751-1.2423 2.5936-0.9043 2.9316 0.9764 0.9764 1.1992 0.79921 3.293-2.6348 2.3843-3.9106 2.363-7.9934 0.67773-8.5234zm-59.984 0.0215c-0.24426 0.0643-0.88045 0.79558-2.127 2.252-2.4304 2.8397-3.394 7.3502-1.8906 8.8535 1.4404 1.4404 2.819-0.15727 2.9668-3.4395 0.0846-1.8778 0.45439-4.5391 0.82226-5.9141 0.3247-1.2136 0.47277-1.8163 0.22852-1.752zm128.11 0.26953c-0.29412-0.28334-1.0287 0.28983-2.3477 1.7891-2.3303 2.6488-3.2927 7.5354-1.7812 9.0469 1.4852 1.4852 2.8125-0.2153 2.8125-3.6035 0-1.9585 0.3375-3.9035 0.75-4.3223s0.73615-1.4729 0.71875-2.3438c-6e-3 -0.28201-0.0543-0.47196-0.15234-0.5664zm65.342 0.0176c-1.4902-0.0482-2.5816 1.5272-1.5195 3.2422 0.86998 1.4048 0.81914 2.4124-0.21484 4.2793-0.74403 1.3434-1.3564 2.8934-1.3594 3.4434s1.331-0.46945 2.9648-2.2656c3.173-3.4882 3.7681-6.3279 1.6875-8.0547-0.52004-0.43159-1.0619-0.62846-1.5586-0.64453zm-202.08 0.0117c-2.148-1.3275-6.3182 8.8771-4.4082 10.787 2.0122 2.0122 5.1747-1.6149 3.3379-3.8281-0.99905-1.2038-0.92693-1.9742 0.36718-3.9492 0.88395-1.3491 1.2-2.7027 0.70313-3.0098zm75.945 0.0977c-1.3972 0.52251-2.1779 2.4585-1.0234 3.8496 0.99804 1.2026 0.93371 1.9639-0.32617 3.8867-0.86143 1.3147-1.2892 2.6659-0.95117 3.0039 0.9154 0.9154 0.95095 0.88582 3.1992-2.752 2.4191-3.9142 2.6876-7.1866 0.6543-7.9668-0.5539-0.21255-1.087-0.19542-1.5527-0.0215zm117.15 0.0293c-1.4276 0.22562-2.5308 2.1869-1.334 3.6289 0.78476 0.94558 0.69741 2.0421-0.31836 4-1.9827 3.8217 0.49736 3.6362 2.7676-0.20703 2.0718-3.5073 2.1692-5.4745 0.34765-6.9863-0.47481-0.39406-0.98703-0.51076-1.4629-0.43555zm-549.67 0.32611c-1.2533 0-1.5 2.0556-1.5 12.5 0 14.42 2.6117 19.189 3.2051 5.8535 0.53891-12.112 8.7949-12.425 8.7949-0.33399 0 5.5386 0.30991 6.9805 1.5 6.9805 1.1978 0 1.5-1.4858 1.5-7.377 0-8.8835-0.982-10.111-7.5078-9.375l-4.4922 0.50586v-4.377c0-3.2241-0.39513-4.377-1.5-4.377zm66.143 0c-1.2826-2.9e-4 -1.6692 0.48954-1.25 1.582 0.33385 0.86998 0.60742 6.495 0.60742 12.5 0 8.0678 0.32633 10.918 1.25 10.918 0.93334 8e-5 1.25-3.1668 1.25-12.5 0-11.512-0.14716-12.5-1.8574-12.5zm435.52 0.0566c-0.46652-0.0421-1.3534 0.51444-2.3887 1.6934-2.3456 2.6711-3.1022 6.1487-1.7051 7.832 1.8944 2.2826 3.4608 1.0528 3.1719-2.4883-0.14308-1.7534 0.21023-4.0663 0.78516-5.1406 0.64957-1.2137 0.60324-1.8544 0.13672-1.8965zm-515.16 1.9434c-5.3333 0-9 0.40741-9 1 0 0.55 1.8 1 4 1h4v10.5c0 8.6667 0.2619 10.5 1.5 10.5s1.5-1.8333 1.5-10.5v-10.5h3.5c1.925 0 3.5-0.45 3.5-1 0-0.59259-3.6667-1-9-1zm228 1c-0.55 0-1 1.072-1 2.3828 0 1.6174-0.72311 2.588-2.25 3.0176-2.0078 0.56491-2.0775 0.76602-0.64453 1.8711 1.0228 0.78878 1.7815 3.3583 2.0898 7.0762 0.28857 3.4798 1.0539 6.1964 1.8945 6.7285 1.7292 1.0947 5.9102 1.2079 5.9102 0.16016 0-0.41958-1.0125-1.2071-2.25-1.75-3.6665-1.6086-3.9269-11.486-0.30273-11.486 1.602 0 2.5527-0.55848 2.5527-1.5 0-0.93333-0.94444-1.5-2.5-1.5-2 0-2.5-0.5-2.5-2.5 0-1.375-0.45-2.5-1-2.5zm104.34 3.9082c-5.4567 0.98619-9.4208 9.9705-4.0469 15.842 2.3857 2.6065 11.711 3.364 11.711 0.95117 0-0.89228-1.0801-1.1743-3.4434-0.89844-2.7665 0.32298-3.9942-0.15683-6.25-2.4492l-2.8066-2.8535 3-0.26367c10.029-0.88277 12.328-3.4079 7.5-8.2363-1.8599-1.8599-3.8452-2.4205-5.6641-2.0918zm76.164 0.0918c-6.9514 0-10.47 11.519-4.8652 15.928 3.0839 2.4258 11.365 2.9696 11.365 0.7461 0-0.90562-0.95306-1.1874-3.002-0.88672-3.3762 0.49552-7.998-1.9957-7.998-4.3106 0-1.0376 1.1155-1.4802 3.75-1.4902 5.7323-0.0209 8.25-0.9817 8.25-3.1484 0-2.7702-4.4616-6.8379-7.5-6.8379zm-369.94 0.0391c-5.4065 0.87174-9.8136 9.133-5.0527 14.791 2.995 3.5594 12.49 4.8761 12.49 1.7324 0-1.0781-0.85532-1.298-3.4258-0.88086-2.8529 0.46297-3.8992 0.0762-6.25-2.3125l-2.8242-2.8692 3-0.26367c10.029-0.88277 12.328-3.4079 7.5-8.2363-1.7215-1.7215-3.6353-2.2515-5.4375-1.9609zm89.133 0.19922c-2.0159 0.23831-4.027 1.3389-5.3828 3.4082-2.4705 3.7705-2.1892 8.7911 0.66211 11.826 2.7872 2.9668 12.025 3.804 12.025 1.0898 0-1.0781-0.85532-1.298-3.4258-0.88086-2.8529 0.46297-3.8992 0.0762-6.25-2.3125l-2.8242-2.8692 3-0.26367c8.9083-0.78411 9.6383-1.1387 9.3086-4.5117-0.38008-3.888-3.7534-5.8835-7.1133-5.4863zm421.08 0.1836c-4.9074-0.47636-9.7793 4.0948-9.7793 9.8945 0 3.1325 3.4249 7.4513 6.2695 7.9062 10.185 1.6291 15.046-13.365 5.6016-17.277-0.68842-0.28515-1.3907-0.45541-2.0918-0.52343zm-78.42 0.043c-1.0052-0.22717-2.1125-0.23788-3.3066 0.0234-8.2698 1.8163-9.485 14.376-1.6953 17.52 1.1786 0.47564 2.2687 0.89479 2.4238 0.92969 0.15516 0.0349 1.815-0.577 3.6875-1.3594 7.9728-3.3312 5.9267-15.523-1.1094-17.113zm-172.87 0.12305c-0.30321 0.0662-0.49023 0.47079-0.49023 1.293 0 0.92763 4.7894 13.97 5.6289 15.328 1.116 1.8057 2.1237 0.44146 4.3633-5.9023l2.3633-6.6934 1.8359 4.3203c1.009 2.3759 2.102 5.3879 2.4297 6.6934 1.042 4.1515 2.7937 2.5655 5.8789-5.3203 1.65-4.2174 3.1506-8.0356 3.334-8.4863 0.18334-0.45271-0.37446-0.82039-1.2383-0.82039-1.057 0-2.1457 1.9611-3.332 5.998-2.1842 7.4323-2.4712 7.4321-4.8457 2e-3 -1.2837-4.0177-2.4438-6-3.5098-6-1.0771 0-2.179 1.9402-3.4082 6-0.99916 3.3-2.1242 6-2.5 6s-1.5008-2.7-2.5-6c-1.1392-3.7624-3.1001-6.6106-4.0098-6.4121zm-47.74 0.29289c-4.972 0.15709-4.8545 2.1191 0.12695 2.1191 3.9362 0 6.8394 2.0332 5.6504 3.957-0.35481 0.57409-1.8681 1.043-3.3633 1.043-5.5436 0-9.2798 5.484-5.9824 8.7812 0.67154 0.67154 3.6074 1.1154 6.8027 1.0273l5.6211-0.15625 0.10351-6.7617c0.14224-9.231-0.78464-10.268-8.959-10.01zm41.5 0c-9.3313-0.40204-11.479 5.9081-3.2715 9.6094 6.0824 2.7428 3.5726 7.0895-2.9062 5.0332-1.4946-0.47437-2.0723-0.22231-2.0723 0.9082 0 2.7709 8.5901 2.1239 10.5-0.79102 2.029-3.0966 1.2053-4.9173-3.2949-7.2871-5.3706-2.8282-5.5027-5.3535-0.2793-5.3535 4.5021 0 5.7084-1.9302 1.3242-2.1191zm-225.43 0.0625c-1.825 0.13847-4.5977 0.2232-6.1621 0.1875-2.1712-0.0495-2.7037 0.30204-2.25 1.4844 0.32691 0.85191 0.59375 6.4618 0.59375 12.467 0 9.0384 0.25826 10.918 1.5 10.918 1.0833 0 1.5-1.1111 1.5-4 0-3.9696 0.0295-4 3.8262-4 5.1436 0 8.3879-3.3997 8.5332-8.9394 0.13874-5.2922-2.8185-8.4756-7.541-8.1172zm81.475 0.0527c-1.4981-0.0115-3.2768 0.38621-4.0938 1.2031-0.93333 0.93333-1.1992 0.93333-1.1992 0 0-0.66-0.72357-1.1992-1.6074-1.1992-1.0545 0-1.3983 0.54404-1 1.582 0.33385 0.86998 0.60742 4.695 0.60742 8.5 0 5.4828 0.31121 6.918 1.5 6.918 1.1786 0 1.5-1.385 1.5-6.4648 0-6.5336 1.568-9.0938 5.084-8.2988 0.64103 0.14492 1.3729-0.29883 1.625-0.98633 0.30099-0.82088-0.91791-1.2424-2.416-1.2539zm342 2e-3c-1.5001-0.0115-3.2758 0.38521-4.0918 1.2012-0.93333 0.93333-1.1992 0.93333-1.1992 0 0-0.66-0.58349-1.1992-1.2969-1.1992-0.96469 0-1.285 2.1772-1.25 8.498 0.0338 6.1063 0.39874 8.499 1.2969 8.5 0.85759 9.6e-4 1.25-1.8337 1.25-5.8438 0-6.2786 2.0574-9.6039 5.5488-8.9707 0.95932 0.17398 1.9412-0.24609 2.1816-0.93359 0.28672-0.82001-0.93936-1.2405-2.4394-1.252zm-397.43 0.00194c-6.3071 0-7.2398 1.8024-1.1348 2.1934 5.8325 0.37355 7.2329 4.0336 1.7754 4.6406-5.4058 0.60124-8.4859 5.7797-5.3203 8.9453 0.67802 0.67802 3.4425 1.0832 6.5 0.95117l5.3203-0.23047v-7.0508c5.7e-4 -8.3839-0.80513-9.4492-7.1406-9.4492zm99.617 0c-1.8784 0-1.4197 13.157 0.54102 15.52 0.83142 1.0018 3.011 1.3976 7.0918 1.2852l5.8906-0.16211v-8.3223c0-6.7298-0.28684-8.3203-1.5-8.3203-1.1882 0-1.5 1.4314-1.5 6.8906 0 6.4567-0.15212 6.9308-2.4199 7.5-4.9166 1.234-6.5801-1.4236-6.5801-10.516 0-2.8049-0.42032-3.875-1.5234-3.875zm153.92 0c-1.0545 0-1.3983 0.54404-1 1.582 0.33385 0.86998 0.60742 4.695 0.60742 8.5 0 9.8818 2.7732 10.027 3.2051 0.16797 0.29182-6.6616 0.33746-6.7628 3.5449-7.707 1.7875-0.52623 3.25-1.3137 3.25-1.75 0-1.2511-5.47-0.92449-6.8008 0.40625-0.93333 0.93333-1.1992 0.93333-1.1992 0 0-0.66-0.72357-1.1992-1.6074-1.1992zm39.342 0c-1.1735 0-1.7394 0.49728-1.4219 1.25 6.503 15.419 6.9476 18.477 2.9375 20.236-1.2375 0.54292-2.25 1.5554-2.25 2.25v2e-3c0 1.518 0.16364 1.5311 3.4356 0.28711 1.4108-0.53644 2.5644-1.4967 2.5644-2.1348 0-0.63805 1.8-5.6473 4-11.131 4.6075-11.486 4.4391-10.76 2.5137-10.76-0.95512 0-2.1179 2.1457-3.25 5.998-2.1866 7.4404-2.5112 7.4402-4.7637 2e-3 -1.4107-4.6591-2.2524-6-3.7656-6zm41.389 0c-6.7204 0-8.4816 6.054-2.623 9.0176 5.5042 2.7843 5.7199 3.0123 4.375 4.6328-0.75972 0.91541-2.5452 1.3591-4.7188 1.1719-2.1275-0.18329-3.6588 0.18327-3.9102 0.9375-0.61489 1.8447 9.1632 1.6574 10.709-0.20508 2.1524-2.5934 0.77773-5.871-3.4551-8.2402-5.0596-2.8321-5.1517-4.7193-0.25-5.125 4.9469-0.40942 4.8438-2.1894-0.12695-2.1894zm-209.39 8e-3c-2.2543 0.0485-4.8041 0.46034-5.5352 1.1914-2.4911 2.4911-1.3718 5.6718 2.7324 7.7656 6.1323 3.1285 5.7854 6.4373-0.63086 6.0098-3.9428-0.26274-4.5034-0.11151-3.8008 1.0254 0.86821 1.4048 8.851 1.2506 10.301-0.19922 2.2825-2.2825 1.371-5.728-2.0508-7.7559-6.7549-4.0078-7.177-6.0451-1.25-6.0451 1.8601 0 3.6601-0.45 4-1 0.44806-0.72499-1.5114-1.0407-3.7656-0.99219zm-112.23 0.14063c-1.1871-0.23206-1.6168 0.10763-1.2637 1 0.29416 0.74328 1.7711 4.343 3.2812 7.998 3.0242 7.3196 2.8272 11.688-0.56836 12.576-1.075 0.28111-1.9551 1.0914-1.9551 1.8008 0 1.4959 3.4349 0.87402 4.8652-0.88086 0.51189-0.62807 2.4836-5.1926 4.3828-10.143 1.8992-4.95 3.8108-9.8333 4.248-10.852 0.62389-1.4531 0.41037-1.7758-0.99218-1.5-1.1116 0.21859-2.2622 1.9651-3.0449 4.6191-2.3952 8.1215-2.4767 8.1498-4.8945 1.7324-1.4441-3.8328-2.9102-6.1271-4.0586-6.3516zm169.07 2e-3c-4.1496-0.25966-10.534 0.52423-10.102 1.6504 0.28777 0.74992 0.52344 4.4762 0.52344 8.2812 0 5.4828 0.31121 6.918 1.5 6.918 1.1883 0 1.5-1.4321 1.5-6.8926 0-5.363 0.35133-7.0277 1.582-7.5 5.4089-2.0756 7.8632 1.0051 7.1973 9.0352-0.33314 4.0173-0.1105 5.3574 0.88867 5.3574 1.5629 0 1.6312-0.45333 1.3457-9-0.11948-3.5771-0.7335-6.8228-1.3652-7.2168-0.55153-0.34396-1.6871-0.54626-3.0703-0.63281zm252.58 0.03687-6.1582 0.16992v8.3223c0 6.7298 0.28684 8.3203 1.5 8.3203 1.1746 0 1.5-1.3674 1.5-6.3008 0-6.6817 1.0439-8.6992 4.5-8.6992s4.5 2.0175 4.5 8.6992c0 4.9333 0.3254 6.3008 1.5 6.3008 2.0362 0 2.1776-14.193 0.1582-15.869-0.73771-0.61224-4.1127-1.0368-7.5-0.94336zm-353.86 0.0488-11.809 0.0937 0.23437 8.084c0.12848 4.447 0.24326 8.2366 0.25586 8.4199 0.25141 3.6648 2.6476-2.2094 3.0234-7.4121 0.8402-11.631 8-10.556 8 1.2012 0 5.0998 0.31052 6.377 1.5527 6.377 1.259 0 1.4807-1.0094 1.1641-5.3242-0.50687-6.9081 0.5311-9.6758 3.6289-9.6758 3.6783 0 4.835 2.217 4.5352 8.6894-0.22194 4.7913 0.0276 5.8616 1.4258 6.1309 1.4399 0.27729 1.6934-0.57385 1.6934-5.6816 0-11.015 6e-3 -11.011-13.705-10.902zm375.83 1.2852c4.1892 0.55232 6.4588 6.7779 3.3223 11.256-0.86923 1.2418-2.6107 2.2227-3.9434 2.2227-6.1361 0-7.2671-11.782-1.2812-13.348 0.66665-0.17433 1.3039-0.20976 1.9023-0.13086zm-79.062 0.0137c3.8658 0.82318 6.5656 7.5969 2.8125 12.119-1.7126 2.0635-5.5795 1.6-7.3144-0.87696-2.1452-3.0626-1.9492-7.3848 0.44336-9.7773 1.3516-1.3516 2.77-1.7392 4.0586-1.4648zm-429.32 0.043c1.753 0.1835 3.2598 1.3089 3.2598 3.2442 0 1.3429-0.90894 1.7893-3.8906 1.9082-4.5647 0.18203-5.3767-0.36153-4.1016-2.7441 0.98077-1.8326 2.9795-2.5914 4.7324-2.4082zm294 2e-3c1.7544 0.17542 3.2632 1.2856 3.2617 3.2051-1e-3 1.2747-0.98215 1.7825-3.8223 1.9766-4.4629 0.30496-5.4606-0.36016-4.168-2.7754 0.97518-1.8221 2.9742-2.5817 4.7285-2.4062zm-205.42 0.1582c2.0058 0.0647 3.6849 1.2939 3.6797 3.0469-4e-3 1.2946-0.984 1.77-4 1.9414-4.6496 0.2643-5.9028-3.0703-1.7441-4.6406 0.69049-0.26074 1.3959-0.36922 2.0644-0.34766zm279.89 0.13086c2.1094-0.16912 4.2969 1.1593 4.2969 3.1172 0 0.73599-1.7342 1.4003-4.25 1.627-4.8638 0.4381-5.8014-1.4132-2.0469-4.043 0.60191-0.42157 1.2969-0.6448 2-0.70117zm-343.14 0.18555c1.1028-0.25988 2.3106 0.0106 3.498 0.99609 1.9273 1.5995 1.8399 8.4042-0.13282 10.377-1.9385 1.9385-6.3039 2.0603-7.0195 0.19532-2.0134-5.2467 0.34575-10.789 3.6543-11.568zm28.068 6.8125c1.5327 0.12101 2.8691 0.99205 2.8691 2.5254 0 1.3162-0.71204 2.6662-1.582 3-3.9328 1.5091-6.9635-0.50383-5.3359-3.5449 0.78735-1.4712 2.5162-2.1015 4.0488-1.9805zm160.45 0.13274c2.8482 0 3.5241 4.3611 0.83594 5.3926-3.8584 1.4806-6.418 0.50192-6.418-2.4531 0-1.9205 1.9362-2.9394 5.582-2.9394zm-141.15 22.715c-0.74176-4.4e-4 -1.4277 4.5947-1.4277 13.785 0 11.237 0.17676 12.5 1.75 12.502 1.5898 2e-3 1.7224-1.1426 1.4434-12.5-0.2258-9.1907-1.0239-13.787-1.7656-13.787zm-32.436 0.79102c-1.8342-0.7156-5.6088 2.2769-6.457 6.2441-0.38816 1.8153-1.3218 3.25-2.1152 3.25-0.78129 0-1.4199 0.45-1.4199 1s0.675 1 1.5 1c1.1905 0 1.5 1.4444 1.5 7s0.30952 7 1.5 7 1.5-1.4444 1.5-7c0-6.8 0.0714-7 2.5-7 1.375 0 2.5-0.45 2.5-1s-1.125-1-2.5-1c-1.9657 0-2.5-0.50755-2.5-2.377 0-2.6636 2.3591-5.138 3.957-4.1504 0.57409 0.35481 1.043-0.0566 1.043-0.91407 0-1.1636-0.39643-1.8142-1.0078-2.0527zm-27.58 0.45117c-0.2498 0.07785-0.41211 0.47575-0.41211 1.293v12.25c0 13.657 2.6433 17.574 3.2051 4.75l0.29492-6.75 3.7168-0.30859c4.3289-0.35918 5.2491 1.4871 4.6289 9.2852-0.30102 3.7848-0.0738 4.5234 1.3965 4.5234 2.3857 0 2.5415-11.436 0.20117-14.777-1.6437-2.3467-5.7575-2.9478-8.4434-1.2344-1.2376 0.78951-1.5875 0.13045-2-3.7656-0.30191-2.8514-1.8385-5.4992-2.5879-5.2656zm52.385 0.26172c-1.1002-0.22675-1.3692 2.175-1.3692 12.25 0 10.602 0.23788 12.531 1.5371 12.531 2.1477 8.2e-4 1.9828-24.338-0.16796-24.781zm-108.3 3.7812c-0.93333 0-1.5 0.94444-1.5 2.5s-0.56667 2.5-1.5 2.5c-0.825 0-1.5 0.40143-1.5 0.89258 0 0.49116 0.675 1.1522 1.5 1.4688 1.102 0.42288 1.5 2.1621 1.5 6.5566 0 4.6341 0.39425 6.216 1.75 7.0215 2.2159 1.3165 5.468 0.94364 6.0059-0.68945 0.25755-0.78205-0.54999-1.25-2.1543-1.25-4.8813 0-5.2162-11.257-0.35156-11.816 3.4359-0.39535 3.6407-2.1836 0.25-2.1836-2 0-2.5-0.5-2.5-2.5 0-1.5556-0.56667-2.5-1.5-2.5zm45 0c-0.93333 0-1.5 0.94444-1.5 2.5s-0.56667 2.5-1.5 2.5c-0.825 0-1.5 0.45-1.5 1s0.675 1 1.5 1c1.157 0 1.5 1.2974 1.5 5.6719 0 3.8738 0.52383 6.2508 1.6543 7.5 1.9755 2.1829 6.3457 2.4573 6.3457 0.39843 0-0.78675-1.0125-1.5742-2.25-1.75-3.7117-0.52715-3.9991-11.82-0.30078-11.82 1.4024 0 2.5508-0.45 2.5508-1s-1.125-1-2.5-1c-2 0-2.5-0.5-2.5-2.5 0-1.5556-0.56667-2.5-1.5-2.5zm-34.047 4.168c-0.90333 0.22842-1.4531 3.4051-1.4531 8.8906 0 6.392 0.2926 7.9414 1.5 7.9414 1.1609 0 1.5-1.3119 1.5-5.8008 0-6.2398 1.1091-8.1992 4.6406-8.1992 1.2326 0 2.521-0.45393 2.8633-1.0078 0.98241-1.5896-2.3855-2.3676-5.0312-1.1621-1.542 0.70257-2.6174 0.74383-3.0059 0.11523-0.37262-0.60291-0.71256-0.85348-1.0137-0.77734zm89.119 0.19922c-0.74315-0.28731-1.5456 2.0933-1.7774 7.3828l-0.29492 6.75-3.25 0.3125c-3.8478 0.37098-5.25-2.1314-5.25-9.377 0-3.0645-0.41917-4.4356-1.3555-4.4356-2.2319 0-1.3058 14.037 1.041 15.779 1.104 0.8196 2.9888 1.114 4.8144 0.75195 1.65-0.32724 4.0125-0.58552 5.25-0.57422 2.1473 0.0195 2.25-0.34467 2.25-7.9688 0-5.3791-0.68458-8.3338-1.4277-8.6211zm23.988 0.55078c-0.40023-0.13031-0.7748-0.0358-1.1113 0.30078-0.25596 0.25596 0.88829 3.7471 2.543 7.7598 3.6561 8.8661 3.7216 10.508 0.50781 12.613-1.375 0.90093-2.5 2.0367-2.5 2.5234 0 4.777 5.2722-0.19412 7.5254-7.0957 0.98401-3.0141 2.8373-7.8516 4.1191-10.75 2.2079-4.9924 2.2324-5.2695 0.45508-5.2695-1.3153 0-2.073 0.97146-2.5332 3.25-0.36102 1.7875-1.2425 4.6-1.959 6.25l-1.3027 3-1.8711-5.8652c-1.25-3.918-2.6724-6.3259-3.873-6.7168zm-100.06 0.08203c-2.5708 0-2.0774 12.423 0.59961 15.1 1.6143 1.6143 2.8266 1.9518 5.25 1.4668 1.7331-0.34686 4.0982-0.6261 5.2578-0.6211 1.9778 8e-3 2.1016-0.48498 2-7.9648-0.0596-4.3852-0.44492-7.9746-0.85742-7.9766-1.9455-0.0101-2.25 0.93662-2.25 6.9961v6.5l-3.3945 0.32422c-4.2938 0.40999-5.0705-0.82182-5.0898-8.0742-0.01182-4.4376-0.35798-5.75-1.5156-5.75zm118.5 12c-1.3333 0-2 0.66667-2 2s0.66667 2 2 2 2-0.66667 2-2-0.66667-2-2-2zm-183 47h5.4316c4.7626 0 5.5178 0.2775 6.123 2.25 1.4553 4.7425 6.7061 14.362 10.098 18.502l3.541 4.3203-11.232 10.713c-15.939 15.204-14.507 16.877-14.16-16.535zm642.32 0h10.785l-0.17187 22.732c-0.0943 12.503-0.39077 23.303-0.65821 24-0.80745 2.1042-1.363 1.6731-12.893-10.014l-11.121-11.274 4.3477-5.9726c2.391-3.2849 5.5543-9.0102 7.0293-12.723zm-316.01 26.834 15.908 7.584 15.908 7.582h9.7734c11.49 0 10.693-0.4556 10.262 5.877l-0.34375 5.0429-15.33 0.021-15.332 0.022-0.66601-3.2324c-4.2577-20.633-35.368-21.324-40.191-0.8926l-0.86524 3.6621-15.006 0.291c-16.998 0.3292-16.422 0.5386-16.422-5.957v-4.834h22.025l15.141-7.582zm-298.86 0.3887 4.0293 3.4531c3.4693 2.9742 14.868 9.1632 19.529 10.604 1.1545 0.3567 1.4226 1.7455 1.1621 6.0234l-0.33984 5.5586-21.16 0.039c-15.438 0.029-21.973-0.3169-24.162-1.2813l-3-1.3222 11.971-11.537zm598.96 0.7128 11.314 11.281c10.09 10.06 11.131 11.419 9.6074 12.533-2.607 1.9076-46.184 1.7825-46.92-0.1348-1.989-5.1831 0.0188-9.8955 4.8106-11.287 2.5942-0.7534 8.4219-3.8492 12.951-6.8808zm-297.48 9.3711c6.9322 0.803 13.242 5.1729 14.254 12.568l0.32422 2.375-16.877 0.125c-18.83 0.139-18.928 0.1018-15.695-6.2344 3.5059-6.8722 11.062-9.637 17.994-8.834zm-273.92 4.6934h216v11h-107.39c-97.006 0-107.45-0.1532-108-1.582-0.33385-0.87-0.60742-3.345-0.60742-5.5zm327 0h215v11h-215v-5.5zm155.5 9c-0.275 0-0.5 0.225-0.5 0.5s0.225 0.5 0.5 0.5 0.5-0.225 0.5-0.5-0.225-0.5-0.5-0.5z"/>
</svg>
