<?xml version="1.0" encoding="UTF-8"?>
<!-- Created with Inkscape (http://www.inkscape.org/) -->
<svg width="822" height="1122" version="1.1" viewBox="0 0 822 1122" xmlns="http://www.w3.org/2000/svg">
 <path d="m406 80c-360 0-324-0.77-328 7.1-2.8 5.4-2.5 938 0.29 942 1.1 1.4 3.4 3.6 5.2 4.8l3.3 2.2h318c346 0 322 0.4 327-5.5l2.5-2.7 0.24-469c0.21-420 0.08-469-1.3-472-3.9-7.6 31-6.9-328-6.9zm-56 3-0.014 3.3c-8e-3 1.8-0.28 4.3-0.62 5.5l-0.61 2.3-42-0.051c-62-0.32-109-0.014-171-1.7-0.97-0.026-0.18-3.3-0.25-5.3l-0.12-3.5 108-0.25zm-241 0.0098h22v5.5c0 4.4-0.37 5.7-1.8 6.1-0.96 0.33-4.2 1.7-7.2 3s-7.7 4.1-11 6.2l-5.1 3.8-12-11c-14-14-15-13 14-13zm244 0h16c14 0 16 0.22 16 1.5 0 20 35 22 40 2.7l1.1-4.2h15c18 0 16-0.55 16 5.9l-0.34 5-20-0.21-13 6.7c-7.4 3.7-14 7.1-16 7.5-1.5 0.53-6.1-1.3-17-6.7l-15-7.5-22-0.18-0.3-5.2zm53 0h18l-0.66 2.2c-1.3 4.3-5.3 9.4-8.6 11-9.7 4.4-18 1.9-24-7-3.8-6.3-4.1-6.2 15-6.2zm55 0h215v11l-215-0.09v-5.5zm218 0 23 0.016c29 0.02 28-0.69 15 13-13 13-11 12-16 8-3.4-2.7-11-6.8-19-9.8-2.5-1-2.8-1.6-2.8-6.1zm51 5c3.1 0 3.8 47 0.66 47-0.96 0.04-3.4 0.15-5.5 0.25-3.5 0.16-3.8-0.086-4.9-3.3-1.6-5.1-7.7-16-11-19l-2.5-2.7 11-11c6-6.1 11-11 12-11zm-649 1.1c1.7-0.071 5 3.2 12 9.9l11 11-3.5 4.6c-3.1 4-8.1 13-9.7 18-0.42 1.3-1.7 1.8-4.5 1.8-2.2 0-4.7 0.27-5.5 0.61-1.9 0.72-1.9 0.85-1.7-15 0.062-6.6 0.13-16 0.14-21 0.021-6.9 0.056-10 1.7-10zm554 26c15 0.053 29 5.5 41 17 32 32 17 86-27 98-51 13-92-45-63-89 11-17 30-26 49-26zm-521 0.87h32l4e-3 7-12-0.69 0.33 14 0.33 14h-4.9c-4.3-1e-3 -4.8-0.22-4.1-1.8 1.2-2.7 1.7-12 0.94-19l-0.69-6.4-12 0.67 2e-3 -3.5zm90 5.7 2.5 0.34c1.4 0.19 3.3 0.37 4.3 0.41 1.4 0.055 1.6 0.44 0.78 1.9-0.55 1-0.99 5.6-0.97 10 0.037 9.9-0.44 11-4.2 13-3.6 1.9-15 1.8-18-0.037-3.6-2-4.7-5.5-5.1-16l-0.3-9.5 4 0.084c5.6 0.12 6.1 0.26 4.7 1.6-4.8 4.8-0.53 20 5.6 20 6.7 0 7.4-1.4 7.1-13zm264 0.21c1.2-0.48 1.6 0.1 1.6 2.8l2e-3 3.4-18-0.64v2.7c0 2.7 0.026 2.7 6.3 2.3l6.3-0.4-0.21 3.5-0.21 3.5-4.9-0.3c-2.7-0.16-5.3-0.37-5.9-0.46s-1.1 1.1-1.3 2.7l-0.32 2.8 19-0.64-2e-3 3.8c-1e-3 2.1-0.11 3.7-0.25 3.5-0.14-0.12-6.1-0.36-13-0.53l-13-0.31v-27h11c6.1-6.2e-4 12-0.28 13-0.61zm-254 0.11h27v3.1l2e-3 3.1-10-0.98 0.68 22h-8l0.68-22-10 0.98v-3.1zm62 0h14c13 0 14 0.079 13 2-0.21 1.1-0.41 2.4-0.46 3-0.042 0.57-2.2 0.85-5.1 0.65l-5-0.35v10c0 6.4 0.38 10 1.1 10 0.58 0 0.78 0.45 0.44 1s-2.4 1-4.5 1-4.2-0.45-4.5-1-0.14-1 0.44-1c0.68 0 1.1-3.7 1.1-10v-10l-11 0.88 0.066-3.1zm121 0 4.2 0.35c3.8 0.31 4.1 0.54 3.4 2.5-0.83 2.3-0.53 19 0.41 22 0.53 2.2 0.33 2.3-4.2 2-2.7-0.17-4.7-0.77-4.6-1.4 0.11-0.59-3.2-4.4-7.2-8.5l-7.4-7.4v7.7c0 4.8 0.4 7.7 1.1 7.7 0.58 0 0.78 0.45 0.44 1s-2.3 1-4.3 1h-3.7l0.33-12c0.22-8-0.047-13-0.8-13-1.4-1.7-0.34-2.4 3-2 1.4 0.16 3.5 0.33 4.8 0.37s2.1 0.48 2 0.96c-0.24 0.86 12 14 13 14 0.29 0 0.36-3.5 0.17-7.8zm-234 0.088c6.6 0.13 13 1.2 14 2.7 3.3 3.3 0.78 13-3.3 13-0.74 0-1.3 0.36-1.3 0.8 0 1.3 6.1 9.2 7.1 9.2 0.5 0 0.91 0.45 0.91 1s-2.5 1-5.6 1c-4 0-5.5-0.35-5.1-1.2 0.94-2.7-5.2-9.8-8.4-9.8h-3.1l0.46 5.5 0.46 5.5h-4.1l-4.1 2e-3v-27l5.5-0.46c2.1-0.18 4.4-0.24 6.6-0.19zm154 0.022c6.4 0.26 13 1.2 15 2.6 4 3.8 1.6 13-3.5 13-1.9 0-1.4 1.1 2.8 6.1 5 6 5.1 5.9-1.6 5.9-4.7 0-5.5-0.25-5-1.6 1.1-2.8-4.4-9.4-7.9-9.4-3.1-0.022-5.1 6.9-2.4 8.5 0.53 0.33 0.7 1 0.39 1.5-1.3 2-9.6 1.1-9-1 0.87-2.7 0.94-23 0.096-24-0.84-1.4 5-1.8 11-1.5zm35 0.084c1.8-0.26 4.4-0.19 7.5 0.24 0.25 0.035-0.058 0.57-0.68 1.2-1.1 1.1 8.4 22 11 23 0.54 0.34 0.99 1 0.99 1.6 0 1.3-9.7 1.2-10-0.059-0.34-0.55-0.15-1 0.42-1 0.69 0 0.66-0.84-0.1-2.5-2.5-5.5-16-2.6-14 2.9 0.5 1.3-0.23 1.6-4.1 1.6-2.6 0-4.5-0.34-4.3-0.75s2.9-5.7 6-12c3.1-6.1 5.6-12 5.5-13-0.077-0.88 0.93-1.5 2.7-1.7zm-88 0.3 8 4e-3v27l-4.1-2e-3h-4.1l0.88-12-14 0.6 0.051 12h-8.1v-27l4.1-2e-3h4.1l-0.96 10h14l-0.35-5zm157 0.018c7.4-0.56 18 1.3 18 4-0.061 1.6-4.1 5.4-4.7 4.4-4.1-5.9-17-3.8-19 3.1-2.1 8.5 13 14 18 7 1.1-1.3 1.5-1.1 3.2 1.1 1.1 1.4 1.8 2.7 1.6 2.8-0.2 0.16-2.4 1.3-4.9 2.4-19 8.9-36-13-19-23 1.3-0.77 3.4-1.2 5.9-1.4zm215 0.44c-16-0.21-33 7-43 22-20 29-5.3 70 29 79 45 12 82-39 56-78-9.7-15-26-23-42-23zm-0.67 3.5c53 0 66 71 17 92-25 11-57-5.7-63-32-7.4-31 15-60 46-60zm-316 0.98c-3.2 0.27-6.3 1.2-6.5 2.7-0.21 1.4 0.29 2.3 1.5 2.5 6.6 1.3 13-0.71 12-3.7-0.53-1.4-3.8-1.8-7-1.5zm-156 0.022c-5.8 0-5.9 0.048-5.9 2.8 0 2.8 5e-3 2.8 6.2 2.5 10-0.46 10-5.4-0.28-5.4zm190 4.2c-0.57 0.28-1.3 1.4-2.2 3.3l-1.7 3.5h3.6c3 0 3.5-0.27 2.9-1.8-0.4-0.96-0.95-2.5-1.2-3.5-0.38-1.3-0.8-1.8-1.4-1.6zm368 6.7 10 0.61v838l-10 0.61v-420zm-638 0.52c2.2-0.058 4.6 0.044 5.5 0.23 1.5 0.33 1.6 92 1 821l-0.014 18h-10l-0.045-9.8c-0.024-5.4-0.12-194-0.22-419l-0.18-409zm553 2.7c-2.5 0.49-3.6 7.2-3 20 0.41 8.8-0.72 12-2 6.5-0.92-4.3-2.3-11-3.2-16-0.97-5.4-3.7-7.6-5.9-4.6-1.5 2-1.3 9.2 0.66 18 3.3 15-0.3 23-6.2 13-4.9-8.2-9.6-11-12-7.5-0.68 1.2 0.78 4.9 5.6 14 9.9 19 14 24 23 25 1.4 0.21 3.2 0.26 4 0.11s3.4-0.58 5.8-0.95c8.2-1.3 12-6.3 13-18 0.51-6.4 1.2-8.7 6.6-22 6-14 1.1-18-5.6-3.7-5.9 12-6.5 12-6.2-4.5 0.41-21-5.2-23-6.7-2.3-1.3 18-3.5 17-3.5-1 0-14-0.89-17-4.6-16zm-542 37h480l1.3 6.8c16 69 111 64 121-3.5l0.014-3.2h23l-0.25 402-0.26 402-3.5 7c-5.1 10-15 20-26 25l-7.9 3.8-243 0.35-32-15-33 16-120-0.049c-94-0.038-121-0.32-124-1.3-15-4.8-29-17-35-33-2.1-5.4-2.2-26-2-741zm24 71-4.3 3c-2.6 1.8-5.2 4.8-6.6 7.6l-2.3 4.6 0.027 160c0.027 156 0.077 160 2 163 2.2 4.2 5.2 7.3 9.6 9.6 4.5 2.4 576 2.5 581 0.12 4.7-2 7.9-5 10-9.7 1.8-3.6 1.9-8.4 1.9-164v-160l-2.3-4.4c-1.3-2.4-4.2-5.8-6.6-7.4l-4.3-3h-289zm521 2.7 57 0.27 3.5 2.7c7.7 5.9 7.3 0.78 7.3 89l0.27 160-0.27 79-3 4.2c-5.9 8.3-2.5 7.9-67 7.9h-229c-78-1.6-153-0.043-230-0.023-64-0.025-61 0.23-67-6.8l-2.7-3.5-0.27-81-0.23-161v-79l2.5-4.2c5.1-8.7 3.2-8.4 67-8.4h144l172-6e-5c51-2e-5 96-0.014 146 0.23zm-236 3.2c-9.5 2.4-7.4 19 2.5 20 12 1.3 16-17 4.2-20-2.3-0.68-4.2-0.17-6.7 0.52zm44 4.5c-2.3-0.15-4.6 0.71-6.8 2.6-5.7 4.8-4.6 14 2.1 17 11 4.6 20-7.9 11-16-2.2-2.2-4.4-3.3-6.7-3.5zm-81 0.051c-11 0-14 15-3.5 20 3.9 1.7 3.1 1.7 7 0.043 10-4.3 7.6-20-3.5-20zm-37 16c-9.9 0-14 9.7-7.3 17 4.3 4.3 9 4.6 13 0.87 7.2-6.1 3.3-17-6.1-17zm156 0c-11 0-14 14-4.8 19 9.8 5.4 19-7.1 12-16-2.2-2.6-3.3-3.1-7.1-3.1zm-188 24c-4.8-0.23-9.7 2.7-10 9.1-0.46 4.1-0.21 4.8 3.2 8.1 6.7 6.7 17 2.5 17-7.2 8e-3 -6.4-4.6-9.8-9.3-10zm221 0.11c-5.4-0.57-11 3-11 9.7 6e-3 4.5 2.6 9.3 5.5 10 8.9 2.9 18-6.1 14-14-1.7-3.6-4.9-5.5-8.2-5.8zm25 32c-5.5-0.69-11 4-11 11-0.54 19 32 5.6 17-8.5-1.6-1.5-3.5-2.3-5.3-2.6zm-271 0.2c-3.7-0.11-7.4 1.6-9.3 5.2-2.4 4.7-1.9 7.8 1.9 12 8.2 8.2 21-0.35 16-11-1.6-3.7-5.1-5.7-8.8-5.8zm106 1.1c-0.035-0.72-1.1 1.7-2.3 5.3-2.6 7.6-12 22-13 21-0.67-0.25-1.5 4e-3 -1.8 0.56-0.34 0.56-1.1 0.82-1.8 0.6-1.2-0.44-33 30-36 35-2.7 3.9-1.3 9.8 3.6 15 4.2 4.7 9.1 12 16 23 2.7 4.7 7.4 12 10 16 7.8 9.8 7.8 9.8 9.1 24 1.6 17-0.61 32-5.7 40-1.8 2.7-3.6 5.8-4 7.1s-2.2 4-3.9 6.2c-13 16-13 23 0.83 32 4.6 3.1 8.9 5.3 10 5.3 4.5 0 19-2.1 36-5.2 9.1-1.7 22-3.4 30-3.8 7.2-0.44 21-1.6 31-2.6l18-1.8 5.5-6.8c5.4-6.7 7.9-14 6.4-17-0.5-1.3-16-9.2-18-9.2-0.6 0-7.3-2-15-4.5-14-4.5-17-6.6-19-11-0.64-1.7-1.5-2.3-2.7-2-0.96 0.27-3.7 0.79-6 1.2l-4.2 0.66 0.018-8.8c0.027-14 2-21 11-39l7.9-16 8.3-6.6c4.6-3.6 10-7.5 13-8.7 17-7.5 17-19 0.039-37-5-5.3-10-12-12-15-1.5-2.8-3.2-5-3.8-4.9-5.9 0.91-18-20-15-27 0.31-0.81 0.075-1.5-0.52-1.5-1.9 0-4.1 4.4-4.9 10-0.63 4.3-1.2 5.4-2.5 5.3-2.8-0.23-2 2.2 2.8 7.8 5.8 6.8 7.4 12 5 15-2 3-2.5 2 7.7 17 4.4 6.2 7.6 12 7.1 12-0.92 0.88-29 13-32 14-1.6 0.51-2.9-0.025-5-2l-2.8-2.7 2.9-7.9c1.6-4.4 2.9-9.3 2.9-11s0.72-4.4 1.6-6.1c6.8-13-3.1-28-18-27-17 1.2-23 15-15 33 7.8 17-3 29-17 19-13-8.9-13-12-0.6-25 11-12 12-13 9.3-15-1.1-1.2-1.3-2-0.57-2 0.67 0 1.1-0.8 0.91-1.8-0.2-1.2 3.1-5.1 9.7-11 9.5-9.2 12-14 5.1-8.4-4.7 3.6-4.9 3.4-2.1-2.6 2.8-5.9 3.2-9.8 1-9.8-0.82 0-2.1 2.1-3.1 5-0.91 2.8-1.9 5-2.2 5-0.29 0-0.22-0.79 0.15-1.8 2.7-6.9 1.9-15-1.3-13-0.64 0.4-1.2 0.13-1.2-0.6zm264 30c-15 0-20 21-6.3 28 4.6 2.3 9.3 2.2 14-0.34 13-7.5 7.7-27-7.6-27zm-465 0.34c-15-0.019-20 20-6.3 27 1.9 0.96 4.8 1.7 6.5 1.7 7.8 0 15-6.9 14-15-0.012-8.5-5.9-14-15-14zm376 4.8c-11 3.3-11 16-3.9 19 0.038 0.02 0.055 0.066 0.082 0.1 11 5.5 22-3.9 14-15-4.5-3.6-7.8-4.9-10-4.5zm-298 1.4c-1.4 0.092-2.9 0.51-4.4 1.3-7.3 3.8-6.6 15 1 18 7.8 3.2 17-4.9 14-12-2.1-5-6-7.7-10-7.4zm387 1.8c1.4 0.033 2.8 0.63 4.2 2 2.4 2.4 2.5 4.8 0.44 7.8-2 2.9-7.9 3.1-9.4 0.29-2.8-5.2 0.64-10 4.8-10zm-466 0.16c5.8-0.7 8.6 6 4.3 10-2.7 2.7-3 2.8-6.3 1.4-5.8-2.3-4.3-11 2-12zm443 17c-7.4 0.35-14 8.7-9.2 17 0.73 1.3 2.4 3 3.7 3.7 3.8 2.1 53 2 56-0.16 12-8.2 0.47-26-12-19-5.4 3.2-1.2 8.8 5.5 7.6 2.4-0.46 2.7-0.24 2.4 1.9l-0.34 2.4-23 0.27c-19 0.22-23 0.031-24-1.2-1.7-2-0.3-3.8 2.5-3.3 1.4 0.26 3.9-0.48 6-1.7l3.6-2.2-3.2-2.7c-2.4-2-4.9-2.8-7.4-2.6zm-422 0.16c-1.4 0.096-2.9 0.5-4.4 1.3-5.8 3-2.1 8.3 5.3 7.6 2.5-0.23 2.8 0.04 2.5 2.1l-0.33 2.3-23 0.27c-20 0.23-23 0.042-24-1.2-1.8-2.1 0.45-4.9 2.9-3.6 4.9 2.6 9.5-4.1 4.8-7-11-6.9-23 7.4-13 17l3.4 3.4 25-4e-3c23-3e-3 26-0.16 29-1.9 10-6.2 2.8-21-7.2-20zm364 21c-13-0.19-14 24 6.3 18l3-3c3.7-13-5.3-14-9.3-15zm-312 0.047c-1.2 0.045-2.5 0.32-3.9 0.88-7.1 2.9-8.6 11-3.3 16 4.6 4.6 9.1 4.7 14 0.3 7.6-6.6 1.8-18-6.9-17zm-100 4.5-0.14 9h55v-9h-27zm466 0-0.62 7.5h-0.13c0.046 0.71 0.11 1.4 0.18 2.1 0.016 0.16 0.018 0.17 0.023 0.23l5.3-8e-3c20-0.032 36-2e-4 50 0.029-0.097-0.75-0.17-1.5-0.23-2.2-3e-3 -0.042-7e-3 -0.085-0.01-0.13h-0.16l-0.62-7.5h-27zm-1.8 9.9c-0.026-0.24 0 0 0 0zm-444 0.33c-11-0.055-21 2-24 7-3 5.9-0.62 14 5 16 4.5 1.8 14-0.79 14-3.9 0-1.6-5.5-4.5-8.2-4.3-3.2 0.24-4.5-1.3-2.8-3.4 1-1.2 5-1.4 24-1.2l23 0.27 0.33 2.3c0.29 2-0.047 2.3-2.5 2.1-3.6-0.35-9.4 2.6-8.7 4.5 3 7.8 18 4.3 20-4.6 1.7-8.5-21-15-40-15zm498 1.8-26 0.022c-28 0.024-29 0.1-32 5.7-2.7 5.4-0.05 13 5.3 15 4.9 2 14-0.86 14-4.4 0-1.7-5.7-4.2-8.7-3.8-2.7 0.35-3.9-1.4-2.3-3.4 1-1.2 5-1.4 24-1.2l23 0.27 0.34 2.4c0.3 2.1 0.036 2.3-2.5 1.8-1.9-0.37-4 0.14-6.2 1.5l-3.4 2.1 3.2 2.8c2 1.8 4.3 2.8 6.2 2.8 11 0 16-13 7.8-19zm-492 18c-1.9 0.12-3.9 0.65-5.9 1.7-11 5.4-10 22 0.48 26 3.7 1.5 11 1 14-0.94 13-8.8 4.8-28-8.4-27zm464 0.066c-6.9 0.73-13 6.4-13 15-3e-3 6.3 5.2 13 11 14 15 3.1 24-13 14-24-3.4-3.6-7.7-4.9-12-4.5zm-385 5.8c-2.5-0.12-5.2 0.7-7.7 2.9-4.5 4-4.5 10 0 14 4.8 4.3 10 4 15-0.84 6.7-7.1 0.45-16-7.2-16zm290 13c8 12 20 5.8 20-3.1 0-11-21-17-20 3.1zm-369-11c4.9 0 8 7.5 4.5 11-3.7 3.7-11 0.59-11-4.7 0-1.9 4.5-6.3 6.5-6.3zm465 0.93c1.9 0.058 3.9 0.83 4.9 2.3 2.1 3 2 5.4-0.44 7.8-5.3 5.3-13-1.3-9-8.1 0.75-1.4 2.6-2.1 4.5-2zm-107 34c-0.095 0.026-0.18 0.071-0.28 0.11-0.27 0.45-0.67 1.3-0.88 1.6-0.71 0.82-2.6 4-4.1 7-1e-3 3e-3 -5e-3 5e-3 -6e-3 8e-3 0.021 0.73 0.11 1.5 0.24 2.2 0.079 0.41 0.19 0.82 0.28 1.2 0.18 0.65 0.39 1.3 0.62 1.9 0.3 0.39 0.52 0.54 1 1.4 3.2 5.4 8.7 6.7 14 3.4 8.8-5.4 5.6-23-11-19zm-264 0.25c-10-0.15-15 10-7.5 17 9.2 9.2 24-2.5 13-15-0.55-0.64-1.1-1.3-1.6-1.9-1.1-0.31-2.3-0.49-4-0.52zm246 31c-13-1.4-15 15-6.3 20 0.21 0.1 0.42 0.2 0.63 0.3 6.8 3 11 0.66 14-4.7 3.2-6.5-1.9-14-7.9-15zm-220 0.39c-9.2-1.2-13 17-3 21l0.2 0.014c5.5 0.38 11-3.5 11-7.8 0-0.23 0.044-0.31 0.053-0.49-0.2-1.9-0.45-3.9-0.82-5.8-0.3-1.2-0.61-2.5-1.1-3.7l-3-1.7c-1.1-0.64-2.2-1-3.3-1.2zm109 75c-407-594-407-594 0 0zm-327 386h5.4c4.8 0 5.5 0.28 6.1 2.2 1.5 4.7 6.7 14 10 19l3.5 4.3-11 11c-16 15-15 17-14-17zm642 0h11l-0.17 23c-0.094 13-0.39 23-0.66 24-0.81 2.1-1.4 1.7-13-10l-11-11 4.3-6c2.4-3.3 5.6-9 7-13zm-316 27 32 15h9.8c11 0 11-0.46 10 5.9l-0.34 5-31 0.043-0.67-3.2c-4.3-21-35-21-40-0.89l-0.87 3.7-15 0.29c-17 0.33-16 0.54-16-6v-4.8h22l15-7.6zm-299 0.39 4 3.5c3.5 3 15 9.2 20 11 1.2 0.36 1.4 1.7 1.2 6l-0.34 5.6-21 0.039c-15 0.029-22-0.32-24-1.3l-3-1.3 12-12zm599 0.71 11 11c10 10 11 11 9.6 13-2.6 1.9-46 1.8-47-0.13-2-5.2 0.019-9.9 4.8-11 2.6-0.75 8.4-3.8 13-6.9zm-297 9.4c6.9 0.8 13 5.2 14 13l0.32 2.4-17 0.12c-19 0.14-19 0.1-16-6.2 3.5-6.9 11-9.6 18-8.8zm-274 4.7h216v11h-107c-97 0-107-0.15-108-1.6-0.33-0.87-0.61-3.3-0.61-5.5zm327 0h215v11h-215v-5.5zm156 9c-0.28 0-0.5 0.22-0.5 0.5s0.22 0.5 0.5 0.5 0.5-0.22 0.5-0.5-0.22-0.5-0.5-0.5z"/>
 <text x="107.36269" y="218.19171" fill="#000000" font-family="Sans" font-size="43px" stroke="#000000" stroke-linejoin="round" xml:space="preserve"><tspan x="107.36269" y="225">Special</tspan></text>
 <text x="108.26943" y="644.0285" fill="#000000" font-family="Sans" font-size="36px" stroke="#000000" stroke-linejoin="round" xml:space="preserve"><tspan x="108.26943" y="644.0285">Publicly ask one other player a single </tspan><tspan x="108.26943" y="680.69513">yes/no question about the game that </tspan><tspan x="108.26943" y="717.36176">must be answered publicly. </tspan><tspan x="108.26943" y="754.02838"/><tspan x="108.26943" y="790.69501">The game pauses until an answer </tspan><tspan x="108.26943" y="827.36163">is given.</tspan><tspan x="108.26943" y="864.02826"/><tspan x="108.26943" y="900.69489">The player must answer "yes" or "no" </tspan><tspan x="108.26943" y="937.36151">truthfully. </tspan></text>
</svg>
