<?xml version="1.0" encoding="UTF-8"?>
<!-- Created with Inkscape (http://www.inkscape.org/) -->
<svg width="822" height="1122" version="1.1" viewBox="0 0 822 1122" xmlns="http://www.w3.org/2000/svg">
 <path d="m98 1e3c-10-0.56-13-2-16-8-2.8-5.2-2.9-934-0.1-940 0.96-1.9 3.3-4.5 5.2-5.8l3.4-2.3 642 0.51 6.8 7.5v939l-2.1 2.9c-4.6 6.5 23 6-319 6.2-171 0.11-315-0.034-320-0.31zm255-3.2c0.14-0.14 0.39-2.5 0.55-5.3l0.3-5-215-0.51v5.4c0 3 0.45 5.6 1 5.8 1.1 0.38 213-0.029 214-0.41zm376-0.34c3.6-0.73 2.8-2-9-13-11-10-11-11-13-9.4-7.9 5.8-13 8.7-18 10l-5.5 1.9-0.6 11 19 0.27c18 0.26 22 0.14 27-0.81zm-594-4.9c0-4.4-0.37-5.7-1.8-6.1-5.7-1.9-13-6-18-9.4-6.2-4.7-4.6-5.5-19 8.5-13 13-13 12 17 13l22 0.063zm253 4c0-9.5 15-20 25-17 8.4 2.3 12 6.2 16 16l1.2 3.2h31v-11h-21l-31-15-29 15-24 1.1-0.13 3c-0.33 7.8-0.92 7.5 16 7.5 13 0 15-0.22 15-1.5zm38-2c-2.7-14-23-17-31-4.6-5 7.4-4.5 7.7 15 7.6l17-0.027zm254-2 0.13-5.5-215 0.51-0.32 3.9c-0.17 2.1-0.076 4.5 0.22 5.2 0.45 1.2 17 1.4 108 1.4h107zm-61 4c0-0.28 0.22-0.5 0.5-0.5s0.5 0.22 0.5 0.5-0.22 0.5-0.5 0.5-0.5-0.22-0.5-0.5zm-512-25c0.49-0.18-0.94-2.7-3.2-5.5-4.1-5.2-9.8-16-9.8-19 0-1.1-1.4-1.5-6-1.5h-6v22c0 29-0.63 29 13 15 6.1-5.9 11-11 12-11zm628-2.7 0.065-23-11-0.59-1.7 5.3c-1.7 5.3-6 13-9.7 18l-2 2.5 11 11c14 14 13 15 13-13zm-343 8.1c19-9 15-9 33 0.012l16 7.5 243-0.52 7.9-3.9c14-6.9 26-21 28-35 0.72-3.4 0.96-129 0.78-403l-0.26-398-22-0.56-1.2 6.8c-12 65-111 65-121-1.1l-0.74-5.2h-480l-0.5 799 2.1 6.2c5 15 16 27 32 33l5.8 2.4 241 0.048zm-225-414-47-0.5-4.2-2.8c-2.3-1.5-5.2-4.7-6.4-7l-2.3-4.2v-160c0-181-0.77-164 7.8-171l3.8-3.1 288-0.28c158-0.16 290-0.022 291 0.3 3.8 0.68 9.7 5.5 12 9.7 2.4 4.6 2.2 323-0.21 328-2.3 4.6-4.4 6.7-8.9 9l-4 2.1-242 0.082c-133 0.045-263-0.14-289-0.42zm473-3 57-0.016 4-2.2c2.6-1.5 4.8-3.8 6.2-6.7l2.2-4.5v-238c0-105 9.1-93-70-93l-144-0.022h-172s-109 0.044-144 0.22l-57 0.28-3.7 2.3c-2 1.3-4.7 4-6 6l-2.3 3.7v79s-0.5 80-0.46 160c0.05 88-0.35 84 9.5 90 2.9 1.8 11 1.9 233 1.9 0 0 256-3e-3 288-0.013zm-402-0.98c-0.8 0 0.8 0 0 0zm275-70c-3.5-6.5 6.9-21 12-17 9.6 9 46-4.6 53-20 2.1-4.3 2.3-4.5 2.6-2 1.9 16-61 52-68 39zm15-21c-0.72-0.49-1.7-3.9-2.3-7.7-1.1-8.1-4.8-17-12-29-4.5-7.5-4.9-8.7-3.7-10 2.5-2.8 1.7-4.9-2.9-6.8-5.7-2.4-9-6.6-12-15-2.5-7.6-2.4-7.9 4.6-9.9 2.7-0.77 9.2-3.1 14-5.2 7.5-3 11-3.7 15-3.6 3.1 0.096 7.8-0.48 10-1.3l4.8-1.5 7 7.6c23 24 31 60 17 72-8.3 6.6-37 13-42 10zm35-12c7-7 5.8-21-1.8-21-4.2 0-12 12-12 18-0.045 6.6 8.5 8.6 14 3.3zm-9.6-2.5c-0.85-2.2 2.3-9.8 5.1-12 5-4.7 7.7 3.8 3.5 11-2.2 3.6-7.5 4.7-8.7 1.7zm-104-5.1c-3-1.5-8.4-9.6-7.2-11 2.2-2.2 6.5-1.5 8.1 1.3 3.8 6.7 8.5 5.2 32-10 18-12 20-13 22-12 5.1 1.9 2 4.6-25 21-17 11-24 13-31 9.8zm-95-7c-22-2.4-45-4.8-50-5.3-28-2.6-37-11-39-37-0.57-5.5-1.5-13-2-17-1.2-9.4-3.6-8.1 26-14 14-2.6 28-5.3 32-6s10-2 15-2.8c5-0.8 20-3.5 32-5.9s27-5 31-5.7c4.1-0.68 14-2.5 22-4.1 16-3.1 65-12 95-17 10-1.9 23-4.3 29-5.3s9.7-1.6 9.7-1.3c-0.42 11-10 14-66 25-16 3-22 7.6-26 19l-2 6 0.24-13c0.36-19 1.5-19-34-11-14 3.1-13-0.57-13 43v37l2.2 1.6c3.2 2.3 5.7 2 21-2.5 18-5.1 19-5.7 21-8.9 1.1-1.9 1.4-2.1 1-0.61-0.25 1.1-0.72 3.6-1.1 5.6-0.96 5.7-3.7 7.3-24 14-34 11-31 11-80 5.5zm5-24c5-1.4 18-4.8 28-7.5 21-5.3 22-5.8 22-9.4 0-4.9-1.1-4.8-35 3.2-38 8.8-39 9.4-33 15 2.4 2.4 3.2 2.3 17-1.7zm-15-1.2c-0.9-1.5 3.9-3 25-8.3 31-7.7 36-8.7 37-7.7 0.82 1.3-1.8 2.1-32 9.9-30 7.6-29 7.5-30 6.2zm29-14c35-8.6 36-8.9 36-12 0.65-5.6-0.39-5.5-35 2.6-33 7.7-35 8.4-35 11 0 5.6 3.6 5.3 34-2zm-30 2c0-1.6 31-9.6 60-15 4-0.81 4.4 0.86 0.5 2.2-13 4.6-60 15-60 13zm65-23c2-2.4 1.1-6.3-1.6-6.8-2.2-0.43-65 13-66 14-1.8 1.3-1.6 6.4 0.31 7.5 2.7 1.5 66-12 68-15zm-66 11c0-1.9-0.38-1.8 40-10 11-2.2 21-4.3 22-4.6s2.2-0.026 2.2 0.55c0 1.2-4.4 2.7-10 3.8-2.2 0.37-14 3.1-26 6-23 5.4-27 6.1-27 4.4zm27-13c9.6-2.2 21-4.7 26-5.5 11-2 14-3.4 14-6.7 0.63-5.4-0.32-5.3-35 1.7-34 6.8-35 7.2-35 11 0 5.8 4.2 5.8 31-0.32zm-27 0.96c-0.68-1.1 3.3-3.1 6.2-3.1 0.87 0 13-2.4 26-5.4s26-5.6 28-5.8c6-0.57 4.3 1.7-2.2 2.9-3.4 0.63-16 3.4-28 6.1-26 6-30 6.6-30 5.2zm119 46c8-9.8 9.9-15 9.9-24 0-3.3 0.34-4 2-4 2.3 0 2.3-0.037 1 9.7-1.5 12-6.4 20-14 22-2.3 0.7-2.2 0.52 1-3.5zm-233 1.5c-0.14-0.14-2.9-12-3.2-13-0.39-2.3 25-8 30-6.7 2.8 0.69 6.5 5.9 6.9 9.7 0.22 1.9-32 12-33 11zm192-1.3c-1.5-0.51-1.8-71-0.37-73 1.4-2.2 36-8.8 38-7.1 1.1 1.1-1.2 68-2.5 70-9.5 5.8-34 10-35 10zm-200-2.8c-0.94-2.4-0.72-5.4 0.39-5.4 0.55 0 1 1.6 1 3.5 0 3.8-0.44 4.4-1.4 1.9zm41-15c-1.2-3.4-4.9-5.6-9.3-5.6-3.5 0-5.8-14-2.4-15 7.5-1.5 5.4-24-2.9-32-3.5-3.3-3-10 0.74-10 5.9 0 11 16 13 44 0.79 9 1.7 18 2.1 19 0.93 3.7 0.049 3.2-1.4-0.83zm203-25c0.61-15 2.4-22 6.9-27 3-3.5 8.7-7.5 6.2-4.4-1.3 1.6-3.5 38-2.4 39 0.4 0.44 3.8 0.11 7.4-0.75s7.2-1.5 7.9-1.5c2 0.11-22 6.8-24 6.9l-2.4 0.047zm-255 8.3c0-0.86 0.45-1.6 1-1.6s1 0.42 1 0.94-0.45 1.2-1 1.6-1-0.084-1-0.94zm4.2-8.4c-0.61-4.3-2-10-3.1-13-2.4-6.2 32-16 36-10 2.3 3.2 4.2 12 4.2 18v6.7l-17 3.2c-9.5 1.7-18 3.2-18 3.2-0.33-3e-3 -1.1-3.6-1.7-7.9zm279 5.5c0.23-0.23 3.3-1.1 6.9-2.1 3.6-0.9 7.4-1.9 8.5-2.2s1.7-0.28 1.4 0.077c-0.33 0.36-3.8 1.5-7.7 2.6-6.9 1.9-10 2.4-9.1 1.6zm-286-4.6c-2.1-5.3-3.3-15-1.8-15 2 0 4.2 5.9 4.8 13 0.7 7.5-0.62 8.6-3.1 2.5zm279-0.2c1.9-6.5 1.7-16-0.33-22-1.1-3.3-2-6-1.8-6.1 0.48-0.4 44-9.5 45-9.5 4.5 0 7 19 3.2 24-2.8 4.3-5.3 5.3-24 10-26 6.5-23 6.2-23 3.5zm-4.3-6.8c0.038-4.1 0.39-8.6 0.79-10 1.1-3.7 2.4 5.7 1.5 11-1.3 7.3-2.4 7-2.3-0.7zm51 0.39c-0.01-3.1 4.6-9.4 6.5-8.8 1.1 0.35 4.1 1.1 6.8 1.7 5.7 1.3 6 2.9 1.2 5.2-4 1.9-14 3.3-14 1.9zm-270-14c-0.92-3.6-2.8-8.8-4.1-11-3.1-6.2-3.2-5.9 2.1-5.9 2.5 0 7.1-0.64 10-1.4 16-4.1 40-6.9 42-4.9 3.9 3.5 9.1 18 6.9 20-0.36 0.22-12 2.5-27 5-14 2.5-27 4.8-28 5.1-1.3 0.37-2-0.95-3.3-6.2zm284 3.5c-3.1-1.8-1.8-2.6 2.7-1.5 2.4 0.57 4.2 1.4 3.9 1.8-0.68 1.1-4.5 0.93-6.6-0.29zm-342-1.5c0-0.87 0.53-1.4 1.2-1.2 1.9 0.62 2.2 2.8 0.4 2.8-0.87 0-1.6-0.71-1.6-1.6zm334-3.4c-2.4-3.8 1.6-16 6.6-20 2.8-2.5 2.7-1.8-0.37 2.4-3 4-4.6 9.6-4.6 16 0 5 0.035 5-1.6 2.3zm13-0.5c-3.6-4.4 2.2-14 17-27 12-11 12-11 14-8.6 1.5 1.8 2 0.84-10 18-15 20-17 22-21 19zm-226-5.1c-0.33-0.87-0.61-2.4-0.61-3.5 0-8.2-8.9-21-14-19-1.7 0.38-3 0.26-3-0.29 0-1.5 5.7-2.3 8.8-1.1 9.6 3.6 19 26 11 26-0.7 0-1.5-0.71-1.9-1.6zm8-4.5c-0.36-2.2-2-6.7-3.6-9.9-3.2-6.3-3.1-7 1.1-7 4.7 0 12 14 11 19-1.5 3.8-7.4 2-8.1-2.5zm13-2.6c-4.8-14-6.9-17-13-19-5.1-1.8-3-2.6 2.9-1.1 8 2.1 14 10 15 20 0.5 6.1-2.5 6-4.7-0.18zm8.1-0.56c-0.36-2.4-2-7.2-3.6-11l-2.9-6.2h2.8c3.5 0 7.6 4.2 9.6 9.9 2.2 6.2 2 10-0.38 10-1.1 0-2.6 0.25-3.4 0.56-1.1 0.42-1.6-0.54-2.1-3.8zm13 0.082c-0.21-0.73-0.92-3.3-1.6-5.8-2.7-10-7-15-14-15-6.6-0.25-3.4-2.8 3.5-2.8 6 0 14 11 15 21 0.34 3.5-2.7 5.9-3.6 2.9zm179-1.5c1.5-3 7.3-8 8.2-7.1 0.23 0.23-1.9 2.6-4.7 5.4-4.6 4.5-4.9 4.6-3.5 1.8zm-171 0.92c-0.24-0.41-1.2-3.4-2.1-6.8-0.94-3.3-2.6-7.4-3.6-9.1-2.4-4 0.44-5.5 4.5-2.3 4.2 3.3 8.6 16 6.3 18-1.2 1.2-4.3 1.4-5 0.33zm11-6c-5.4-15-7.5-17-14-17-2.4 0-4.3-0.45-4.3-1 0-8.2 17 2.6 20 13 3.1 11 1.6 15-1.8 5.7zm148 2.3c-1.7-3.1-0.85-4.3 3.7-5.6 4.4-1.2 6.8-1.3 5.8-0.29-0.41 0.41-1.2 0.75-1.7 0.75-0.5 0-0.97 0.45-1 1-0.51 4.6-5.1 7.4-6.8 4.1zm-140-3.2c-0.32-2-2-6.3-3.7-9.5l-3.1-5.9h3c4.4 0 10 9.4 10 17 0 4.4-5.6 3.3-6.3-1.2zm-127 0.61c-0.34-0.55-0.14-1 0.44-1s1.1 0.45 1.1 1-0.2 1-0.44 1-0.72-0.45-1.1-1zm139 0.33c-0.37-0.37-0.67-1.7-0.67-3.1 0-8.1-7.8-17-15-17-2.7 0-4.2-0.39-3.8-1 5.2-8.4 22 8.3 22 22 0 0.63-2.6 0.39-3.3-0.3zm7-1c-0.37-0.37-0.67-1.9-0.67-3.4s-1.4-5.3-3-8.5c-3.7-7.1-4-6.8 6.1-5l8.4 1.5 35-5.5c39-6 43-7 45-10 0.6-1.1 1.2-2.2 1.3-2.4 0.29-0.52 15-2.9 25-4.1 4.4-0.51 11-1.5 14-2.2 8.7-1.9 15 2.5 15 11 4e-3 3.5-0.42 3.6-16 6.2-12 1.9-35 6.1-99 18-29 5.4-29 5.4-30 4.4zm-149-5.3c-3.5-3.5-5.2-8.1-5.4-14-0.31-12 5.2-6.1 5.9 5.7 0.24 4.4 0.74 6.2 1.8 6.4 4 0.82 2.1-14-2.7-21-3.2-4.8-3.2-5-0.56-5 5.9 0 10 6.8 11 18 0.71 11-4.2 16-9.7 10zm295-3.1c0.011-2.5 0.64-8 1.4-12 1.3-7.3 1.1-11-0.96-16-3-7.4 11 1 16 9.3l2.6 4.7-19 19zm-8 2.2c0-0.46 0.9-1.7 2-2.7 2-1.8 2-1.7 2 0.85 0 2-0.5 2.7-2 2.7-1.1 0-2-0.38-2-0.85zm33-14c-3.4-5.1-2.7-7 2.6-7 6.6 0 8 6.8 2 10-1.7 0.89-2.3 0.47-4.6-3zm-168-1.3c-6-0.94-6.3-1.1-6-3.6 0.46-3.9 3.2-4.7 30-8.6 59-8.5 58-8.5 59-2.4 1.1 3.3 1.1 3.3-38 9.4-20 3.1-37 5.8-38 6-0.82 0.15-4.3-0.17-7.8-0.72zm113-26c-5.4-6.4-2.6-18 4.8-19 8-2 14 12 8.2 20-2.6 3.9-9.5 3.6-13-0.56zm9.7-4.2c3.8-5.2-2.5-14-6.5-8.8-2.3 2.8-2.4 6.9-0.25 9.9 2 2.8 4.1 2.5 6.7-1.1zm-444 233 0.019-419-11-0.69 0.0028 838h11zm642 404c5e-3 -8.4 0.12-197 0.25-419l0.24-404h-5.5l-5.5 1e-5 0.24 311c0.13 171 0.25 359 0.25 419l6e-3 108h10zm-85-732c25-5.3 44-28 46-54 3.1-53-61-82-99-44-41 41-3.5 110 53 98zm-26-6.3c-28-8.1-44-38-35-66 15-47 84-45 98 2.1 11 38-25 75-63 64zm34-6.4c30-15 37-53 14-77-26-27-72-14-81 23-9.2 39 32 72 67 54zm-24-6.8c-0.39-0.39-0.71-2.7-0.71-5 0-3.5-0.36-4.3-1.8-4.4-6.3-0.085-18-11-20-19-0.78-3.3-1.1-3.6-5.3-4.1-4.3-0.48-4.5-0.62-4.8-4.2l-0.32-3.7 4.7-0.31c4.7-0.31 4.7-0.33 6.7-5.6 2.6-7 8.9-13 16-16l5.4-2-0.63-8.4h9.1v4.4c0 4.4 0.012 4.4 4.7 5.7 6.5 1.8 16 11 17 17 1.1 4.2 1.2 4.2 5.6 4.2h4.5v10h-4.5c-3.8 0-4.5 0.31-4.5 1.9 0 6-12 18-19 20-2.4 0.56-2.7 1.1-3 5.3l-0.3 4.7-4 0.3c-2.2 0.16-4.4-0.024-4.8-0.42zm-0.71-22c0-4.3 3.3-6.4 7.1-4.5 2.4 1.2 2.7 1.9 2.2 4.4-1.2 5.9 7.8 1.3 12-5.8 1.5-2.8 1.4-2.9-2.2-3.4-6.8-0.91-6.4-9.8 0.4-9.8 3.6 0 3.7-1.6 0.13-6.2-5.3-6.9-10-8.5-10-3.3 0 4.3-2.6 6.1-6.4 4.4-2-0.91-2.6-1.9-2.6-4.5 0-3.9-0.4-4-4.7-1.4-6.7 4.1-10 13-4.7 12 1.8-0.45 2.8 3e-3 4 1.9 2.2 3.4 0.5 6.6-3.5 6.6-4.3 0-4.5 1.5-1.1 6.2 5.1 6.9 10 8.8 10 3.8zm-376-39c-1.1-3 1.4-4.7 6.7-4.7 5.7 0 8.1 1.5 7 4.4-0.53 1.4 0.18 1.6 4.5 1.6 2.8 0 5.1-0.45 5.1-1s-0.43-1-0.95-1c-1.5 0-11-19-11-21 0.36-1.5-0.32-1.8-4.5-1.8-2.9 0-4.7 0.4-4.4 0.94 0.66 1.1-9.5 22-11 22-0.42 0-0.77-0.79-0.77-1.8 1e-3 -1.5-1-1.8-7.8-1.8h-7.8v-20l-4.4 1e-3c-3.4 1e-3 -4.1 0.29-3.4 1.3 0.56 0.69 0.94 6.2 0.87 12l-0.13 11 11 0.28c15 0.37 21-0.11 20-1.6zm3.3-9.4c0-0.83 3.2-6.5 3.4-6.1 0.16 0.19 1 1.8 1.9 3.6l1.6 3.2-3.5-0.13c-1.9-0.073-3.5-0.31-3.5-0.52zm157 9c9-4.5 8.6-18-0.65-22-12-5.6-23 0.99-22 12 1.1 10 12 15 23 9.9zm-14-6c-4.6-5.8-1.3-13 6-13 4.9 0.13 7.9 3 7.9 7.7 0.055 6.9-9.7 10-14 5.1zm48 5.4 2e-3 -3.2h-16v-19l-3-0.55c-3.8-0.7-5.8-0.085-4.7 1.4 0.49 0.62 0.84 6.2 0.78 12l-0.11 11 11 0.32c6 0.17 11 0.41 11 0.53 0.14 0.12 0.25-1.2 0.25-3zm-325-7.5c-0.19-5.4-0.096-9.5 0.21-9.2 0.31 0.3 2.8 4.7 5.5 9.9l4.9 9.3 5.2-9.4c2.9-5.1 5.5-9.6 5.7-9.9s0.32 3.9 0.13 9.3l-0.35 9.8 4.8-7.8e-4c2.6-4.2e-4 4.8-0.45 4.8-1s-0.49-1-1.1-1c-0.76 0-0.99-4.5-0.75-15l0.34-15-5.3 7.4e-4c-3.1 4.4e-4 -5.1 0.39-4.7 0.96 0.51 0.83-4.5 12-7.3 16-1.1 1.6-9.2-13-8.4-16 0.32-0.91-1.2-1.2-5.4-1.2l-5.8 9.2e-4v31l8 3e-4zm41 8.2c-1.8-4.7 11-7.1 13-2.5 0.73 1.4 0.74 2 0.035 2-0.57 0-1 0.45-1 1s2.5 1 5.7 1c5.3 0 5.6-0.11 4.2-1.8-2.5-2.9-11-19-11-21 0-1.6-0.76-1.9-4.6-1.9-2.7 0-4.3 0.39-3.9 0.99 0.34 0.54-2 6.2-5.3 12l-5.9 12h4.4c3.5 0 4.3-0.31 3.9-1.5zm3.4-9c0-0.3 0.73-2 1.6-3.7l1.6-3.1 1.3 2.4c2.1 3.8 1.7 4.9-1.6 4.9-1.6 0-3-0.25-3-0.55zm46 8.1c2.3-2.3 2.5-3.2 2.5-12 0-6.6 0.37-9.6 1.2-10 0.69-0.28-0.44-0.54-2.5-0.58-5.2-0.11-5-0.49-4.8 9.1 0.21 9.6-0.54 11-6.8 11-5.2 0-6.3-2.2-6-12l0.32-8.4-8.1 4e-3 0.75 10c1.1 14 14 21 23 12zm86-3.4-0.43-5.9 8-0.37c14-0.65 21-12 9.7-17-4.3-2.1-27-2.4-26-0.33 1.2 1.5 1.1 27-0.11 28-0.6 0.94 0.42 1.2 4.1 1.2h4.9zm-0.2-16v-3.5h6.9c7.4 0 8.6 0.71 7.6 4.6-0.58 2.3-1 2.4-7.6 2.4h-7zm34 9v-12l-7-2e-3v25l7 1e-3zm27 9.9c5.8-4.8 2.7-12-5.7-13-8.4-1.1-10-1.6-10-3 0-2.9 7.1-3.3 12-0.69l3.6 1.8 1.1-2.5c0.62-1.4 1-2.6 0.84-2.7-8.2-5.9-23-3.4-24 4.1-0.5 5 2.3 7.3 10 8.4 8.1 1.1 9.1 1.6 7.6 3.5-1.5 1.8-9.6 1.8-13-0.034-2.7-1.4-4.8-0.07-4.8 3.2 0 3.8 18 4.4 22 0.67zm20-7.5-0.35-10 10 0.98v-3.9c0-3.5-0.18-3.8-1.9-2.9-2.8 1.5-21 1.3-23-0.16-0.93-0.93-1.2-0.32-1.2 2.8l-6.2e-4 4 9.8-0.68 0.15 9.1c0.09 5.7-0.24 9.1-0.88 9.1-0.57 0-1 0.45-1 1s1.9 1 4.2 1l4.2 9.7e-4zm-292-4.8c1.2-0.056 2.2-0.59 2.2-1.2 0-2.4 6.1-14 9.9-18l4-5-23-22-1.2 2.7c-0.81 1.8-1.2 9.6-1.2 24l-0.045 21 3.8-0.34c2.1-0.19 4.8-0.39 6-0.44zm643-23c0-28 0.71-28-13-14-12 12-12 11-7.9 16 3.5 4 7.2 11 9 17l1.2 4.2h11zm-310-11 15-7.5h21v-11h-16c-14 0-16 0.18-16 1.8-6.8 21-35 23-40 2.7l-0.92-3.9-31-0.55v11l22 0.1 14 7.4c17 8.9 13 8.9 31 0zm4.4-5.2c0.37-0.37 0.97-0.37 1.3 0 0.37 0.37 0.067 0.67-0.67 0.67-0.73 0-1-0.3-0.67-0.67zm-315 8c4.2-3.2 13-7.9 19-9.7 1.4-0.46 1.8-1.7 1.8-6.2v-5.6l-23 0.3c-29 0.38-28-0.19-15 12 5.6 5.5 11 10 11 11 1.5 1.6 0.96 1.8 6.4-2.4zm615-20c-1.2-0.91-7.7-1.2-24-1.2h-22l0.025 10 7 2.8c3.8 1.6 9.6 4.7 13 7.1l5.8 4.2 11-11c9.9-9.8 11-11 9.6-12zm-311 12c3.2-2 7.6-8.6 7.6-11 0-1.5-1.8-1.6-17-1.4-19 0.31-20 0.4-14 7.8 6 7.7 16 9.8 24 5.1zm-65-7.1c0.19-2.8 0.16-5.3-0.07-5.5-0.23-0.23-49-0.42-108-0.42h-107v11h215zm326 3.3c0.28-0.96 0.49-3.4 0.47-5.5l-0.042-3.8h-216v11h107c101 0 107-0.097 108-1.8z"/>
 <g fill="#000000" font-family="Sans" stroke="#000000" stroke-linejoin="round">
  <text x="114.0829" y="204.92487" font-size="43px" xml:space="preserve"><tspan x="114.0829" y="190">Weapon - Projectile</tspan></text>
  <text x="114.81606" y="619.1347" font-size="36px" xml:space="preserve"><tspan x="114.81606" y="619.1347">Play as part of your Battle Plan.</tspan><tspan x="114.81606" y="649.1347"/><tspan x="114.81606" y="679.1347">Kills enemy leader before the battle is </tspan><tspan x="114.81606" y="709.1347">resolved.</tspan><tspan x="114.81606" y="739.1347"/><tspan x="114.81606" y="769.1347">May be countered by an appropriate </tspan><tspan x="114.81606" y="799.1347">defense (Shield).</tspan><tspan x="114.81606" y="829.1347"/><tspan x="114.81606" y="859.1347">You may keep this card if you win in </tspan><tspan x="114.81606" y="889.1347">this battle. </tspan></text>
 </g>
</svg>
