<?xml version="1.0" encoding="UTF-8"?>
<!-- Created with Inkscape (http://www.inkscape.org/) -->
<svg width="822" height="1122" version="1.1" viewBox="0 0 822 1122" xmlns="http://www.w3.org/2000/svg">
 <path d="m88.346 1032.6c-1.7345-0.7565-4.322-3.0948-5.75-5.1963l-2.5964-3.821v-934.76l2.0943-3.7262c1.1518-2.0494 3.3588-4.4732 4.9043-5.3862 2.6024-1.5373 26.507-1.6599 323.52-1.6599h320.71l7.7647 7.7647v939.31l-7.8564 8.4226-319.82 0.2142c-269.55 0.1805-320.32 0-322.98-1.1612zm47.454-7.2474-0.2999-5.6945-5.8671-2.2681c-3.2269-1.2475-8.9076-4.4865-12.624-7.1979l-6.7566-4.9298-11.126 11.158c-15.068 15.111-15.732 14.474 15.174 14.563l21.8 0.063zm218.35 0.6106c0.19058-2.7961 0.15901-5.2711-0.0702-5.5-0.22916-0.2289-48.717-0.4162-107.75-0.4162h-107.33v11h214.81zm35.273 1.6249c3.8492-20.518 34.11-21.412 39.962-1.1805l1.1974 4.1394 31.414 0.5508v-11.051h-20.983l-30.517-15.178-31.52 15.178h-21.98v3.9182c0 7.3526-0.50779 7.1366 16.518 7.0267l15.288-0.099zm37.137-0.041c-2.7866-14.249-22.799-17.178-31.29-4.5783-4.9417 7.333-4.4627 7.5783 14.802 7.5783h17.074zm253.88-2.25 0.28277-5.25h-215.72v11.009l215.16-0.5093zm-60.442 4.2499c0-0.275 0.225-0.5 0.5-0.5s0.5 0.225 0.5 0.5-0.225 0.5-0.5 0.5-0.5-0.225-0.5-0.5zm110.42 0.893c3.0354-1.1648 2.1427-2.258-16.112-19.732l-5.0553-4.839-4.8753 3.7423c-2.6814 2.0583-7.8003 5.0559-11.375 6.6613s-7.1425 3.2524-7.9278 3.6601c-1.3058 0.6778-1.5733 2.645-1.2053 8.8643l0.13311 2.25h22.418c12.33 0 23.13-0.2731 24-0.607zm5.3499-28.726 0.2681-23.667h-10.85l-1.7419 5.538c-0.95805 3.0459-3.9249 8.7069-6.5931 12.58-2.6681 3.8731-4.8512 7.1452-4.8512 7.2714 0 0.9037 21.713 22.241 22.5 22.11 0.62496-0.1033 1.1006-9.0415 1.2681-23.833zm-639.22 13.083c5.807-5.6375 10.968-10.395 11.469-10.572 0.5009-0.1771-0.86475-2.5682-3.0348-5.3135-4.139-5.2362-9.987-16.513-9.987-19.257 0-1.2975-1.1557-1.607-6-1.607h-6v21.918c0 29.914-0.93229 28.894 13.553 14.832zm297.49-5.77 15.905-7.9644 31.964 15.836 119.8 0.1069c118.52 0.1058 119.86 0.085 125.8-1.9544 13.081-4.494 24.34-14.709 30.823-27.964l4.177-8.5401v-802l-22.227-0.56295-1.2312 6.258c-13.463 68.431-107.47 65.766-121.52-3.445l-0.55829-2.75h-479.96v798.96l2.1932 6.6808c4.6044 14.026 17.872 27.657 32.069 32.946l6.2381 2.3241 240.63 0.036zm-206.79-48.686-3.25-0.42062v-12.437c0-10.388 0.24707-12.437 1.5-12.437 1.1049 0 1.5 1.153 1.5 4.3772v4.3772l4.3394-0.48911c3.8334-0.43208 4.5913-0.16882 6.5 2.2577 5.9665 7.5852-0.15328 16.122-10.589 14.771zm7.9213-3.9489c3.6259-3.2814 1.1184-11.345-3.528-11.345-3.3814 0-4.6433 1.9114-4.6433 7.0333 0 6.3245 3.7567 8.3068 8.1713 4.3117zm9.8174 2.8469c-4.348-3.5208-0.30171-9.1919 6.5584-9.1919 1.4168 0 2.453-0.58188 2.453-1.3776 0-2.4636-2.8401-3.9101-6.5085-3.3148-2.6319 0.42709-3.4915 0.21276-3.4915-0.87053 0-2.0765 9.3274-1.9669 11.429 0.1343 3.1265 3.1265 2.1788 15.312-1.1834 15.216-1.5151-0.0431-3.7024 0.22243-4.8606 0.59003-1.3661 0.43359-2.9103 0.017-4.396-1.1861zm8.8278-4.4419c0.28178-2.4489-6e-3 -2.75-2.6276-2.75-3.3551 0-5.7016 2.2214-4.8076 4.5511 1.1194 2.9171 7.0578 1.4785 7.4352-1.8011zm48.684 5.5342c-9.5539-2.3112-8.2407-17.284 1.5159-17.284 4.2753 0 6.9841 2.6073 6.9841 6.7225 0 2.1169-0.42298 2.2775-6 2.2775-4.3594 0-6 0.36778-6 1.345 0 2.3918 3.5632 4.655 7.3287 4.655 3.7652 0 4.9097 1.3108 2.0895 2.393-1.714 0.65771-2.8347 0.6371-5.9182-0.10884zm5.5-11.584c0-1.9475-2.1314-3.7-4.5-3.7s-4.5 1.7525-4.5 3.7c0 0.87407 1.4744 1.3 4.5 1.3s4.5-0.42593 4.5-1.3zm-145.8 10.1c-0.66-0.66-1.2-3.81-1.2-7 0-4.6246-0.32088-5.8-1.5833-5.8-0.87084 0-1.4221-0.48375-1.225-1.075 0.19708-0.59125 0.79266-0.92875 1.3235-0.75s1.1946-0.98788 1.475-2.5925c0.67792-3.8795 2.7777-4.4669 3.1877-0.89179 0.23261 2.0286 0.94743 2.8981 2.5721 3.1288 3.0879 0.43855 2.8483 2.1804-0.2999 2.1804-3.6983 0-3.4118 11.292 0.2999 11.82 1.2375 0.17575 2.25 0.73825 2.25 1.25 0 1.3542-5.3899 1.1406-6.8-0.26955zm10.8-10.3v-12.25c0-3.0406 2.5576 0.0376 2.8012 3.3714l0.30122 4.1214 4.2381-0.4777c5.4989-0.6198 6.2843 0.46001 6.8988 9.4849 0.42393 6.2259 0.26431 7.25-1.13 7.25-1.312 0-1.5546-0.86841-1.2639-4.5233 0.66921-8.4142-1.9648-12.089-6.8076-9.4969-1.7278 0.92467-2.0378 2.0741-2.0378 7.5554 0 5.0798-0.32135 6.4648-1.5 6.4648-1.2464 0-1.5-1.9444-1.5-11.5zm19.439 2.9935c-0.046-6.3714 0.26627-8.4935 1.25-8.4935 0.97899 0 1.3114 2.1545 1.3114 8.5 0 6.1368-0.34753 8.4982-1.25 8.4935-0.89653-5e-3 -1.2674-2.4083-1.3114-8.5zm7.5614 7.564c0-0.51838 1.9125-1.0809 4.25-1.25 5.4872-0.39701 5.5865-2.4812 0.25-5.2449-4.2472-2.1996-5.6432-5.4802-3.4543-8.1176 1.5314-1.8452 10.316-2.031 9.7078-0.20538-0.25624 0.76872-1.8073 1.1195-4.0833 0.92339-4.8395-0.41695-5.2741 2.93-0.63031 4.8535 5.1929 2.151 6.9934 6.8488 3.5331 9.2182-1.571 1.0758-9.5729 0.92765-9.5729-0.17719zm64.035-0.99176c-0.56935-1.0638-1.0352-4.2138-1.0352-7 0-3.8362-0.36407-5.0657-1.5-5.0657-0.825 0-1.5-0.45-1.5-1s0.64511-1 1.4336-1c0.80829 0 1.5716-1.1658 1.75-2.6729 0.43413-3.6672 2.5941-4.1263 2.9943-0.63641 0.23261 2.0286 0.94743 2.8981 2.5721 3.1288 3.0879 0.43855 2.8483 2.1804-0.2999 2.1804-3.6983 0-3.4118 11.292 0.2999 11.82 3.3043 0.46929 2.7434 2.1804-0.71482 2.1804-1.9078 0-3.3339-0.68962-4-1.9343zm13.165 0.73426c-0.66-0.66-1.2-3.81-1.2-7 0-4.4889-0.33908-5.8-1.5-5.8-0.825 0-1.5-0.45-1.5-1s0.64511-1 1.4336-1c0.80829 0 1.5716-1.1658 1.75-2.6729 0.46088-3.8931 2.8164-4.2364 2.8164-0.41045 0 2.6222 0.37387 3.0833 2.5 3.0833 1.375 0 2.5 0.45 2.5 1s-1.1475 1-2.5499 1c-3.6983 0-3.4118 11.292 0.2999 11.82 1.2375 0.17575 2.25 0.73825 2.25 1.25 0 1.3542-5.3899 1.1406-6.8-0.26955zm10.65-9.8c-0.0825-6.05-0.195-11.556-0.25-12.236-0.055-0.67997 0.575-1.3663 1.4-1.5252 1.2689-0.24437 1.5 1.6411 1.5 12.236 0 9.3535-0.31653 12.525-1.25 12.525-0.91515 0-1.2902-2.9467-1.4-11zm27.514 9.5067c-0.34636-0.90262-0.19525-2.0756 0.33581-2.6067 1.3994-1.3994 4.4528 0.0679 4.0876 1.9643-0.4239 2.2011-3.6457 2.669-4.4234 0.64235zm-122.86-19.507c-0.83704-1.3544 0.29243-3 2.059-3 0.79254 0 1.441 0.9 1.441 2 0 2.0703-2.4125 2.7596-3.5 1zm161.31-27.541c-0.29465-12.03-0.22573-12.533 1.6928-12.346 1.1 0.10711 3.205-0.14023 4.6778-0.54965 3.8394-1.0673 6.6108 0.12679 8.4216 3.6286 3.3765 6.5294-1.2753 14.415-8.038 13.625l-3.5614-0.41578v4.2992c0 11.762-2.8853 4.3142-3.1928-8.2414zm9.8803 1.755c5.7333-3.6456 1.7718-14.473-4.4374-12.128-2.6029 0.98288-3.4423 11.266-1 12.252 1.8998 0.7666 4.1169 0.71629 5.4374-0.12338zm-87.437 7.725c3.6089-2.7639 3.5627-6.1392-0.20544-14.994-2.7264-6.4068-2.8101-6.9452-1.0804-6.9452 1.379 0 2.3257 1.3888 3.5784 5.25 2.4231 7.4687 2.9004 7.5441 4.9478 0.78199 1.051-3.4712 2.3959-6.032 3.168-6.032 1.7386 0 1.7986-0.32533-1.509 8.1744-1.5679 4.0291-3.4964 9.1256-4.2856 11.326-1.1897 3.3165-1.9415 4.0466-4.3993 4.2727l-2.9644 0.27271zm272.75 1.6062c0-0.25 1.125-1.5795 2.5-2.9545 3.1779-3.1779 3.1522-3.5411-0.90799-12.841-3.0433-6.9706-3.1983-7.75-1.5415-7.75 1.3436 0 2.4398 1.6392 4.0509 6.058 2.4258 6.6529 3.0906 6.4786 4.9565-1.2993 0.99272-4.1381 3.9421-6.9332 3.9421-3.7359 0 0.93049-4.1131 11.641-7.5759 19.727-1.1533 2.6933-5.4241 4.8944-5.4241 2.7954zm-383.3-7.2427c-0.26562-0.44154-0.3729-2.5445-0.23839-4.6732 0.23882-3.7794-1.6751-8.6476-5.8498-14.88-1.7963-2.6815-1.7948-2.75 0.0579-2.75 1.2732 0 2.8706 1.7941 4.8418 5.4381l2.9417 5.4381 3.0124-5.4381c1.8527-3.3445 3.6819-5.4381 4.7514-5.4381 1.4095 0 0.98516 1.1664-2.2392 6.155-2.188 3.3853-4.0358 6.8728-4.1063 7.75-0.0705 0.87723-0.18296 3.128-0.25 5.0017-0.11412 3.1894-1.8394 5.1948-2.9216 3.396zm14.372-1.9376c-5.9393-7.5506 1.7636-18.131 10.351-14.218 2.9461 1.3424 4.9558 6.491 4.0079 10.268-1.5954 6.3566-10.533 8.815-14.359 3.95zm10.005-0.95859c2.9789-3.5893 0.3262-12.407-3.7326-12.407-2.297 0-5.345 3.8649-5.345 6.7775 0 5.884 5.8535 9.5138 9.0776 5.6291zm10.961 2.1397c-1.9134-2.3055-2.3743-15.546-0.54118-15.546 1.1549 0 1.5028 1.2732 1.5028 5.5 0 11.823 8.2722 12.894 8.7957 1.1392 0.47472-10.659 3.205-9.2856 3.2023 1.6108l-2e-3 8.25-5.9013 0.219c-4.0444 0.15009-6.2648-0.21894-7.0564-1.1728zm25.962-6.9872c0-7.6898 0.9495-11.068 2.4352-8.6638 0.34484 0.55798 1.7394 0.48769 3.4986-0.17632 2.1808-0.82316 3.5938-0.79947 5.5528 0.0931 1.8198 0.82913 3.2048 0.88836 4.5048 0.19263 2.829-1.514 5.5095-1.2136 7.3536 0.82414 2.284 2.5237 2.4148 16.171 0.15499 16.171-1.1911 0-1.5-1.4479-1.5-7.0314 0-7.6367-0.80126-8.7373-5.5022-7.5574-2.3688 0.59453-2.4978 0.99162-2.4978 7.6912 0 9.5787-2.2965 9.0576-3-0.68077l-0.5-6.9216h-7l-0.29381 7.25c-0.45818 11.306-3.2062 10.285-3.2062-1.191zm30.75 7.3609c-4.3743-2.5478-1.0183-8.17 5.5836-9.3542 2.8727-0.5153 3.6873-1.0688 3.25-2.2084-0.32097-0.83644-0.58358-1.709-0.58358-1.939 0-0.23001-2.025-0.41821-4.5-0.41821-4.4631 0-5.9586-1.2263-2.9182-2.393 7.3828-2.833 11.363 0.84695 11.187 10.343-0.12237 6.5993-0.80533 8.4183-2.2706 6.0475-0.41425-0.67028-1.2409-0.67028-2.4933 0-2.3598 1.2629-5.0023 1.2347-7.255-0.0774zm7.3157-1.9551c1.9529-1.0452 2.642-4.4094 1.0986-5.3633-1.6125-0.99657-6.6674 1.0581-7.0127 2.8505-0.57701 2.9948 2.5394 4.3188 5.9141 2.5127zm34.842 2.7852c-0.93282-2.5298-0.20511-24.75 0.81056-24.75 0.9201 0 1.2816 1.9746 1.2816 7 0 7.8673 0.42929 8.2489 4.5 4 1.5808-1.65 3.8025-2.9849 4.9371-2.9665 1.7313 0.0281 1.4623 0.52425-1.6738 3.0863l-3.7367 3.0528 3.9867 4.728c4.4557 5.2842 4.7629 6.1166 2.2367 6.0603-0.9625-0.0214-3.2268-2.0464-5.0317-4.5-4.1357-5.6218-5.2183-5.6138-5.2183 0.039 0 3.4307-1.3689 6.2115-2.0922 4.25zm18.763-1.9482c-5.7812-5.196-2.2837-15.802 5.211-15.802 3.2648 0 7.118 3.8624 7.118 7.1349 0 1.8935-2.26 2.3566-9.25 1.8957-2.1231-0.14-2.75 0.26384-2.75 1.7716 0 2.9095 2.7714 4.6699 7.1702 4.5546 5.261-0.13795 4.473 2.0466-0.88187 2.445-3.1034 0.23092-4.6579-0.23891-6.6174-2zm9.329-9.5738c0-3.1962-5.0743-5.0109-7.4286-2.6566-2.8268 2.8268-1.894 3.9686 2.9286 3.5851 2.475-0.19684 4.5-0.61465 4.5-0.92846zm9.3804 9.4227c-7.7306-6.6496 1.1053-19.902 9.3971-14.094 4.8 3.3621 3.0353 7.4433-3.2185 7.4433-6.2974 0-7.2874 0.87895-4.6536 4.1315 1.471 1.8166 2.8208 2.3156 6.0356 2.2313 5.4375-0.14258 4.8564 2.0291-0.65272 2.439-3.1423 0.23382-4.6988-0.25089-6.9079-2.1511zm6.3696-8.5742c2.5852-0.0879 2.9632-2.2397 0.72039-4.1011-1.1696-0.97068-2.111-1.0046-4-0.14388-2.8822 1.3132-3.4812 5.185-0.72039 4.6565 0.9625-0.18426 2.7625-0.36944 4-0.41152zm40.821 9.3521c-1.0348-1.0348-1.5714-3.3885-1.5714-6.893 0-3.8078-0.42669-5.4853-1.5-5.8972-0.825-0.31658-1.5-1.0397-1.5-1.607 0-0.56726 0.675-1.0314 1.5-1.0314 0.93333 0 1.5-0.94444 1.5-2.5s0.56667-2.5 1.5-2.5 1.5 0.94444 1.5 2.5c0 2.0215 0.49444 2.5 2.5833 2.5 3.2825 0 2.718 2.3853-0.66045 2.7908-3.715 0.44586-3.072 11.209 0.66967 11.209 1.4733 0 2.4074 0.58204 2.4074 1.5 0 2.0072-4.3988 1.9583-6.4286-0.0714zm11.414 1.4048c-0.62795-14.09-0.29702-24.835 0.76486-24.834 0.81901 4.6e-4 1.25 1.5891 1.25 4.6077 0 4.0012 0.23013 4.5103 1.75 3.8714 7.9747-3.352 10.25-1.4526 10.25 8.5568 0 6.714-0.25745 7.9648-1.6393 7.9648-1.3814 0-1.5453-0.7937-1.0418-5.0448 0.8176-6.9034-0.46124-9.9552-4.1717-9.9552-4.2118 0-5.3905 2.038-4.9918 8.6312 0.23746 3.927-0.044 5.8285-0.90542 6.1169-0.6875 0.23018-1.2567 0.26851-1.2649 0.0852zm18.682-0.5c-1.4904-1.4904-0.73306-16.333 0.83333-16.333 1.2157 0 1.5 1.6111 1.5 8.5 0 7.8017-0.54277 9.6239-2.3333 7.8333zm7.0272 0.0272c-1.3356-1.3356 0.50106-2.2715 3.3424-1.7033 6.55 1.31 7.1498-2.5013 0.89586-5.6919-7.4314-3.7912-3.0693-12.048 5.0102-9.4837 2.8496 0.90444 1.5602 2.5884-1.7867 2.3333-6.3107-0.48086-6.0455 2.7198 0.48212 5.8174 3.9729 1.8853 4.7712 6.5432 1.428 8.3324-2.1324 1.1412-8.3633 1.4043-9.3719 0.3957zm26.291-2.2223c-5.8643-5.8643-0.44557-16.537 7.6037-14.977 3.4486 0.6686 2.7238 2.8386-0.948 2.8386-5.8611 0-8.4689 5.5198-4.7674 10.091 1.3836 1.7087 2.8331 2.2854 5.5508 2.2083 4.8765-0.13823 4.1957 2.0932-0.76637 2.512-2.9925 0.25257-4.2513-0.25169-6.6727-2.6731zm14.216 1.6618c-3.3524-3.3524-0.20269-8.1663 6.11-9.3379 2.77-0.51412 3.6571-1.1055 3.25-2.1664-0.30799-0.80258-0.55997-1.6474-0.55997-1.8775 0-0.23001-2.025-0.41821-4.5-0.41821-4.6912 0-6.0133-1.3849-2.4131-2.5276 3.0872-0.97985 8.7574 0.3644 9.7886 2.3206 1.4553 2.7608 0.99529 15.207-0.56203 15.207-0.72241 0-1.3135-0.46583-1.3135-1.0352 0-0.71358-0.60093-0.71358-1.9343 0-2.5953 1.3889-6.3915 1.3094-7.8657-0.16482zm7.8657-1.8352c2.2043-1.1797 2.598-4.7729 0.60671-5.537-2.3071-0.8853-6.6724 1.3811-6.6724 3.4641 0 2.8472 2.819 3.8105 6.0657 2.0729zm9.7441-5.1675c-0.37752-7.7107 0.59069-11.385 2.2798-8.6524 0.43253 0.69984 1.2962 0.63104 2.6439-0.21061 2.1163-1.3217 5.2665-0.70302 5.2665 1.0343 0 0.56726-1.0125 1.0383-2.25 1.0467-4.1083 0.028-4.988 1.4077-5.1225 8.0341-0.19758 9.7333-2.3261 8.7874-2.8176-1.2521zm14.263 5.5678c-5.1-6.4836 0.44181-17.033 7.9205-15.077 1.7563 0.45929 2.0069 0.037 2.0069-3.3816 0-3.054 0.38183-3.9062 1.75-3.9054 2.1153 1e-3 2.4734 24.091 0.36846 24.793-0.61515 0.20505-1.1185-0.13052-1.1185-0.7457 0-0.79597-0.55779-0.82-1.9343-0.0833-3.3656 1.8012-6.7983 1.1906-8.9932-1.5997zm8.9932-0.40032c1.4969-0.80111 1.9343-2.1126 1.9343-5.8 0-7.0494-3.7162-9.4486-8-5.1648-5.0296 5.0296 0.0383 14.191 6.0657 10.965zm18.601 2.3685c-1.4904-1.4904-0.73306-16.333 0.83333-16.333 1.2157 0 1.5 1.6111 1.5 8.5 0 7.8017-0.54277 9.6239-2.3333 7.8333zm9.1285-6.5151c-0.22218-5.5082-0.64558-7.3183-1.7119-7.3183-0.77916 0-1.6042-0.5625-1.8333-1.25-0.24444-0.73333 0.44444-1.25 1.6667-1.25 1.5556 0 2.0833-0.63333 2.0833-2.5 0-2.9005 3.4384-6.7659 5.6143-6.3115 2.1872 0.45682 1.7934 2.26-0.57469 2.631-2.9809 0.46703-2.9405 6.1804 0.0437 6.1804 1.2222 0 1.9111 0.51667 1.6667 1.25-0.22917 0.6875-1.0542 1.25-1.8333 1.25-1.0376 0-1.5505 1.852-1.9167 6.9214-0.70323 9.7347-2.8176 9.9965-3.2048 0.39692zm36.659 4.7272c-6.8362-6.8362 1.9893-19.125 10.474-14.584 2.5408 1.3598 4.4295 6.4697 3.6106 9.7688-1.758 7.0827-9.2542 9.6453-14.085 4.8149zm10.378-2.8692c1.5075-3.1595 0.95379-6.7471-1.4054-9.1063-5.0472-5.0472-11.141 4.1105-6.8304 10.265 2.2292 3.1826 6.4477 2.5893 8.2358-1.1583zm10.381 4.0758c-1.852-2.2407-1.9815-15.757-0.15095-15.754 1.2443 2e-3 1.5674 1.2536 1.5865 6.1461 0.0455 11.665 7.6287 12.126 8.1467 0.49533 0.47468-10.658 3.2044-9.2856 3.2039 1.6108l-4.1e-4 8.25-5.8754 0.25204c-3.7662 0.16156-6.2469-0.19743-6.9103-1zm28.7-1.4419c-5.7023-14.799-5.581-14.31-3.5503-14.31 0.77584 0 2.1082 2.3688 3.0925 5.4981 2.3029 7.3216 2.7702 7.3612 4.9874 0.42222 2.5162-7.8749 4.4421-7.8461 6.9825 0.1044 2.1579 6.7534 2.6123 6.6834 5.032-0.77476 0.96121-2.9627 2.3024-5.25 3.0786-5.25 1.5163 0 0.77754 2.6561-3.425 12.314-2.5163 5.7827-3.1779 5.5289-6.1243-2.3496-2.5368-6.7834-3.0104-6.7161-5.4402 0.77382-2.0691 6.3777-3.2123 7.2591-4.633 3.5719zm24.087-5.8102c0-6.8889 0.28431-8.5 1.5-8.5s1.5 1.6111 1.5 8.5-0.28431 8.5-1.5 8.5-1.5-1.6111-1.5-8.5zm7.8235 8.1e-4 -0.32347-8.4992 2.5 0.10992c1.375 0.0605 3.9156-0.21178 5.6458-0.60498 5.2856-1.2012 7.5147 1.9819 7.1488 10.208-0.39383 8.8553-2.7947 10.101-2.7947 1.4502 0-7.5354-0.62685-9.1651-3.5252-9.1651-4.9435 0-5.4748 0.78679-5.4748 8.107 0 11.012-2.7492 9.6215-3.1765-1.6062zm28.163 2.3325c-8e-3 -3.4833-0.285-7.3458-0.61664-8.5833-0.47547-1.7742-0.1877-2.25 1.3609-2.25 2.3926 0 2.8875 15.962 0.51936 16.75-0.91135 0.30355-1.2537-1.2995-1.2636-5.917zm8.0136-0.66821c0-3.8508-0.3009-7.7857-0.66867-8.7441-0.54144-1.411-0.25402-1.6341 1.5106-1.1726 1.1986 0.31343 3.4928 0.0741 5.0982-0.5319 6.0904-2.2989 8.0599-0.0153 8.0599 9.3454 0 6.0432-0.31796 7.997-1.25 7.681-0.82972-0.28132-1.172-2.192-1.0181-5.683 0.3101-7.0336-0.95975-9.2644-5.0483-8.8683l-3.1836 0.3084-0.5 6.9216c-0.70069 9.6999-3 10.27-3 0.7435zm-270.31-13.811c-1.4155-1.4155-0.61453-3.3542 1.3858-3.3542 1.398 0 1.968 0.54305 1.75 1.6671-0.35694 1.8405-2.064 2.7589-3.1358 1.687zm106.91-0.0897c-1.3169-1.3169-0.48035-3.2645 1.4022-3.2645 1.1 0 2 0.62686 2 1.393 0 1.5084-2.4291 2.8446-3.4022 1.8714zm120 0c-1.3169-1.3169-0.48035-3.2645 1.4022-3.2645 1.1 0 2 0.62686 2 1.393 0 1.5084-2.4291 2.8446-3.4022 1.8714zm35.524-0.61745c-1.2156-1.4647-0.52559-2.647 1.5447-2.647 1.4897 0 1.8254 2.5779 0.44664 3.43-0.48768 0.30141-1.3838-0.0509-1.9913-0.78299zm-242.45-31.373c-0.3561-0.57619 0.0939-1.6611 1-2.4109 6.8164-5.6407 6.8164-24.086 0-29.727-2.4743-2.0475-0.92554-3.3506 1.8336-1.5427 5.4875 3.5955 7.9805 14.523 5.4183 23.75-1.1972 4.3116-7.2343 11.576-8.2519 9.9298zm-138.37-2.5243c-6.6888-7.3438-5.4947-26.899 1.8838-30.848 2.8955-1.5496 3.3469-0.38722 0.87842 2.2624-6.1648 6.6171-5.2998 28.836 1.1227 28.836 0.44872 0 0.81586 0.45 0.81586 1 0 1.7599-2.5855 1.0724-4.7007-1.25zm87.687-8c-8e-3 -5.6375-0.26371-11.181-0.56933-12.319-0.8245-3.0701 10.593-3.4209 13.596-0.41764 5.2332 5.2332 1.3285 15.441-5.9065 15.441-4.0833 0-4.1068 0.0215-4.1068 3.7727 0 2.6869-0.43173 3.7727-1.5 3.7727-1.2349 0-1.5024-1.8116-1.5136-10.25zm10.764-1.0277c4.038-3.1245-0.20902-12.577-5.0994-11.349-2.9967 0.75211-3.4064 1.8664-2.876 7.8224 0.50401 5.6601 3.5041 6.9869 7.9754 3.5271zm-233.02 2.2782c-6.1436-4.8326-2.3595-16 5.4215-16h4.004l-0.3263-3.75c-0.28009-3.219-0.016-3.7942 1.8653-4.0619 2.1423-0.30492 2.1986-0.0286 2.4997 12.266l0.30806 12.578-3-0.0668c-1.65-0.0368-4.135 0.21377-5.5223 0.55673-1.7621 0.43562-3.3444-0.0231-5.25-1.5221zm9.0745-7.2505c-0.35961-6.2461-3.8994-7.6127-6.7168-2.5931-2.2059 3.9301-0.23747 7.8431 3.9454 7.8431h3.0737zm12.619 7.8311c-8.3621-3.6411-5.5541-16.581 3.5982-16.581 8.6747 0 10.012 8.4773 1.5055 9.5402-7.2693 0.90824-6.4647 4.4598 1.0104 4.4598 3.1348 0 4.4648 0.4121 4.4648 1.3834 0 2.6198-5.8038 3.2769-10.579 1.1977zm6.5789-11.112c0-3.2206-5.6813-2.9246-6.7738 0.35282-0.25286 0.75857 0.8841 1.1786 3.1905 1.1786 2.5512 0 3.5833-0.44111 3.5833-1.5314zm25.357 11.54c-4.8851-1.9714-6.6067-7.691-3.894-12.937 3.5675-6.8988 14.537-5.001 14.537 2.5151 0 2.1459-7.7194 4.3229-10.103 2.8495-1.3366-0.82603-1.0837 1.9768 0.30349 3.364 0.66 0.66 3.135 1.2 5.5 1.2 5.1616 0 6.0006 2.4099 1.175 3.375-3.8589 0.77177-4.8124 0.72528-7.518-0.36658zm6.4526-11.758c-0.23083-1.1986-1.2736-1.75-3.3096-1.75s-3.0788 0.55139-3.3096 1.75c-0.27122 1.4084 0.37491 1.75 3.3096 1.75s3.5808-0.34165 3.3096-1.75zm28.44 12.134c-2.9172-1.2841-1.2108-3.3836 2.75-3.3836 2.2 0 4-0.44435 4-0.98746 0-0.5431-1.8-2.1237-4-3.5125-4.3705-2.759-5.0557-5.2346-2.1713-7.845 1.8673-1.6899 8.6549-2.2994 9.5463-0.85724 0.90256 1.4604-0.83999 2.7022-3.7917 2.7022-3.5879 0-4.5368 2.073-1.3884 3.0334 5.2324 1.5961 7.6254 6.711 4.3943 9.3925-1.6279 1.3511-7.4995 2.2674-9.3392 1.4576zm18.606-0.89997c-7.5325-4.0921-4.3545-16.484 4.2275-16.484 9.3086 0 11.006 8.6355 1.8538 9.4314-2.9906 0.26008-5.6196 0.49441-5.8424 0.52074-2.5083 0.29644 4.0346 4.0479 7.06 4.0479 2.607 0 3.845 0.4454 3.845 1.3834 0 2.6947-6.9465 3.3805-11.144 1.1002zm7.1439-11.015c0-3.2206-5.6813-2.9246-6.7738 0.35282-0.25286 0.75857 0.8841 1.1786 3.1905 1.1786 2.5512 0 3.5833-0.44111 3.5833-1.5314zm30.25 11.922c-2.7207-1.2127-1.006-2.3913 3.5-2.4058 8.9047-0.0287 9.7844-3.8306 1.8758-8.1065-7.0797-3.8277-8.4511-7.0528-4.6258-10.878 2.5767-2.5767 11-2.8987 11-0.42054 0 1.232-0.6549 1.4356-2.9775 0.92548-6.9313-1.5224-9.7559 3.1366-3.8144 6.2916 12.42 6.5952 7.7747 20.269-4.958 14.594zm38.673-2.3136c-3.7265-3.7265-3.8408-7.8328-0.33419-12 5.3157-6.3173 14.411-2.7608 14.411 5.635 0 4.3061-4.5593 9.2882-8.5 9.2882-1.5999 0-3.8148-1.1609-5.5769-2.9231zm9.0769-1.0769c3.8055-3.8055 1.4604-12-3.4343-12-4.8342 0-7.0169 6.8854-3.5713 11.266 2.5576 3.2514 4.3052 3.4346 7.0056 0.73422zm13.5 2.8453c-8.2279-4.5003-4.8253-16.731 4.6774-16.813 5.1539-0.0446 8.2292 3.8477 7.4796 9.4666-0.88745 6.6527-6.8444 10.253-12.157 7.3468zm6.9271-2.4152c3.9603-3.9603 2.3308-11.666-2.5878-12.237-5.1695-0.59999-7.8875 7.7589-3.8393 11.807 2.4072 2.4072 4.3218 2.5354 6.4271 0.43007zm33.973 2.142c-7.5065-3.2678-5.1127-16.572 2.9818-16.572 8.8596 0 10.157 8.3415 1.3686 8.7999-8.2605 0.43085-6.7914 6.2001 1.5787 6.2001 3.7652 0 4.9097 1.3108 2.0895 2.393-2.3616 0.90624-4.5705 0.68009-8.0186-0.82095zm7.6003-10.138c0-3.6307-5.2335-5.8008-7.8-3.2343-2.47 2.47-1.315 3.8 3.3 3.8 2.475 0 4.5-0.25458 4.5-0.56574zm-216 4.0657c0-5.1111-0.32051-6.5-1.5-6.5-0.825 0-1.5-0.675-1.5-1.5s0.675-1.5 1.5-1.5c0.89425 0 1.5-0.91972 1.5-2.2775 0-3.6774 2.7435-6.7225 6.0567-6.7225 1.9496 0 2.9433 0.50642 2.9433 1.5 0 0.825-0.85186 1.5-1.893 1.5-1.87 0-3.107 1.8242-3.107 4.5818 0 0.78001 0.9 1.4182 2 1.4182 1.1111 0 2 0.66667 2 1.5s-0.88889 1.5-2 1.5c-1.7949 0-2 0.66667-2 6.5s-0.20513 6.5-2 6.5-2-0.66667-2-6.5zm29.986 0.25c-8e-3 -3.4375-0.285-7.2625-0.61664-8.5-0.66429-2.4788 2.2236-3.2566 4.3174-1.1629 0.78285 0.78285 1.2752 0.78285 1.759 0 0.97407-1.5761 7.1037-1.3344 8.4889 0.33466 2.5794 3.1079 2.1482 15.578-0.53862 15.578-2.2568 0-2.3965-0.34254-2.3965-5.8776 0-6.7626-1.5293-8.9799-4.9361-7.1566-1.7311 0.92646-2.0639 2.0664-2.0639 7.0694 0 5.2982-0.22353 5.9648-2 5.9648-1.7852 0-2.0015-0.67122-2.0136-6.25zm93.014-2.25c0-6.8889 0.28431-8.5 1.5-8.5 0.825 0 1.5 0.46583 1.5 1.0352 0 0.71358 0.60093 0.71358 1.9343 0 2.8222-1.5104 6.692-1.2661 8.4943 0.53625 2.2089 2.2089 2.2701 15.429 0.07143 15.429-1.1765 0-1.5-1.3753-1.5-6.3776 0-7.507-1.4783-9.5466-5.8098-8.0156-2.5593 0.90458-2.6902 1.2782-2.6902 7.6738 0 5.7368-0.25669 6.7227-1.75 6.7212-1.5293-2e-3 -1.75-1.0739-1.75-8.5018zm99 0c0-6.8889 0.28431-8.5 1.5-8.5 0.825 0 1.5 0.5051 1.5 1.1224 0 0.79451 0.42216 0.77209 1.445-0.0768 1.6554-1.3738 6.055-1.0437 6.055 0.45432 0 0.55-1.125 1.1556-2.5 1.3458-4.1332 0.57173-5 2.0066-5 8.2766 0 4.5578-0.33681 5.8776-1.5 5.8776-1.2157 0-1.5-1.6111-1.5-8.5zm26.18 6.25c0.17575-1.2375 0.99455-2.25 1.8196-2.25s1.6438 1.0125 1.8196 2.25c0.24594 1.7317-0.17321 2.25-1.8196 2.25s-2.0655-0.51831-1.8196-2.25zm107.63-45.291c-0.29465-12.03-0.22573-12.533 1.6928-12.346 1.1 0.10711 3.205-0.14023 4.6778-0.54965 8.236-2.2895 12.976 8.6 6.6841 15.354-1.6565 1.778-2.9505 2.1884-5.9876 1.8988l-3.8744-0.36948v4.2764c0 11.744-2.8858 4.2742-3.1928-8.2642zm9.5627 1.9522c5.6617-2.1726 3.3292-12.802-2.6814-12.22-3.0564 0.29598-3.2013 0.51058-3.4982 5.1817-0.46617 7.3322 1.0158 9.0202 6.1796 7.0386zm10.63-0.32978c0-6.005-0.2881-11.669-0.64023-12.587-0.47447-1.2365-0.15086-1.5982 1.25-1.3973 1.0396 0.14909 3.3263-0.0669 5.0816-0.47996 5.8264-1.3711 9.2695 1.5918 9.2933 7.9973 0.0228 6.138-3.1059 9.6787-8.1291 9.1997l-3.8556-0.36769v4.2764c0 3.1346-0.40051 4.2764-1.5 4.2764-1.2417 0-1.5-1.8798-1.5-10.918zm10.171-0.73678c4.3172-3.907 1.5911-11.792-3.8608-11.167-2.6013 0.29828-2.8335 0.68493-3.1203 5.1952-0.48889 7.6895 2.3756 10.14 6.9811 5.9721zm43.043-0.8269c-0.046-12.154 0.01-12.482 2.1193-12.468 1.1916 7e-3 3.6024-0.27284 5.3572-0.62289 6.4619-1.289 10.439 6.5542 6.8463 13.502-1.6796 3.248-3.3217 4.0715-8.1188 4.0715-3.3212 0-3.4182 0.11347-3.4182 4 0 2.7193-0.43844 4-1.3693 4-1.0835 0-1.3792-2.6059-1.4166-12.482zm10.786 0.48189c4.3389-4.3389 1.4896-11.375-4.3754-10.804-2.976 0.28955-3.1392 0.53347-3.4325 5.1317-0.46731 7.3256 3.3682 10.112 7.808 5.6723zm-431 10.067c0-0.51294 0.89895-1.2179 1.9977-1.5666 4.1401-1.314 3.4577-6.3122-2.831-20.736-0.18334-0.4205 0.53292-0.76454 1.5917-0.76454 1.4854 0 2.3421 1.3775 3.7514 6.032 2.0426 6.7463 2.6869 6.6743 4.7594-0.53199 0.94446-3.284 2.0531-5.1206 3.2304-5.3514 1.4079-0.27604 1.6219 0.0457 0.99748 1.5-0.4372 1.0183-2.3488 5.9014-4.248 10.851-3.9781 10.369-9.249 16.391-9.249 10.567zm260.25-1.1281c3.6089-2.7639 3.5627-6.1392-0.20544-14.994-2.7264-6.4068-2.8101-6.9452-1.0804-6.9452 1.379 0 2.3257 1.3888 3.5784 5.25 2.4231 7.4687 2.9004 7.5441 4.9478 0.78199 1.1456-3.7835 2.3699-6.032 3.2846-6.032 1.7058 0 1.7044 5e-3 -3.5189 13.5-3.6069 9.3185-4.0712 10.019-6.8134 10.273l-2.9427 0.27271zm143.08-5.4428c-6.0878-2.5597-6.2547-12.932-0.25797-16.033 3.9487-2.0419 6.39-1.8302 9.4727 0.82138 7.2702 6.2536-0.4012 18.918-9.2148 15.212zm6.8418-3.1515c2.8546-2.5834 2.4682-8.8799-0.67126-10.937-3.7532-2.4592-7.5 0.18175-7.5 5.2863 0 6.1519 4.3179 9.1379 8.1713 5.6507zm-458.79-1.095c0.3584-2.6125 0.93418-7.7875 1.2795-11.5 0.99681-10.716 4.0536-9.8461 8.0338 2.2859l2.9645 9.0359 3.4212-9.0306c5.7022-15.051 8.8748-11.24 8.9152 10.709 4e-3 2.2249-0.46714 3.25-1.494 3.25-1.0738 0-1.5-1.0948-1.5-3.8533 0-2.1193-0.29415-6.6676-0.65367-10.107l-0.65368-6.254-3.7325 9.8194c-4.7194 12.416-4.7477 12.416-9.0646 0.15722l-3.6044-10.236-0.72575 10.237c-0.58737 8.2849-1.0224 10.237-2.2815 10.237-1.2808 0-1.4406-0.83953-0.90416-4.75zm31.287 2.6853c-2.7435-3.9169-0.24574-7.3877 5.9098-8.212 4.8175-0.64515 3.9886-4.1389-1.0771-4.5401-5.4064-0.42822-6.5999-1.8862-2.2172-2.7084 3.828-0.71814 7.7753 0.12408 8.9519 1.91 1.1258 1.709 0.91684 15.615-0.23469 15.615-0.55 0-1-0.46583-1-1.0352 0-0.71358-0.60093-0.71358-1.9343 0-3.1076 1.6632-6.8323 1.2066-8.3985-1.0295zm8.3083-0.92222c2.8881-1.5456 1.4653-5.0131-2.057-5.0131-3.2981 0-5.5483 2.9703-3.6718 4.8468 1.4135 1.4135 3.2962 1.4681 5.7287 0.16629zm34.024-9.7306c0-10.251 0.24808-12.283 1.5-12.283 1.1128 0 1.5 1.1706 1.5 4.5352 0 4.1739 0.15408 4.4527 1.9343 3.5 7.3921-3.9561 13.822 4.7342 9.5767 12.944-1.7682 3.4194-3.4384 4.0681-9.7643 3.7928l-4.7467-0.20659zm10.536 9.3147c2.3888-1.7468 2.697-9.1923 0.44113-10.658-4.2586-2.7674-7.461-0.72438-7.7849 4.9664-0.39204 6.8882 2.5691 9.1832 7.3438 5.6919zm10.995 0.25755c-3.3891-4.0277-2.9866-9.149 0.99074-12.605 4.6979-4.0819 11.478-1.5714 11.478 4.25 0 2.6106-0.0179 2.6178-7.4438 2.9737-7.2882 0.34933-3.8141 6.0778 3.5686 5.8843 5.5941-0.14668 4.3964 2.0644-1.3225 2.4415-4.0661 0.26813-4.827-0.04-7.2711-2.9447zm7.7187-7.8411c2.3485-0.0183 2.2293-2.6868-0.17756-3.9749-2.3138-1.2383-4.7847-0.44492-6.065 1.9474-1.1826 2.2096-0.15231 3.2893 2.4672 2.5854 1.114-0.29934 2.8129-0.5504 3.7754-0.55791zm19.205 8.5318c-5.1872-5.1872-1.8309-13.996 5.7954-15.21 3.0445-0.48475 3.75-0.29025 3.75 1.0338 0 1.1365-0.88764 1.6308-2.9286 1.6308-3.6832 0-6.0714 2.3272-6.0714 5.9164 0 3.5241 3.1615 6.4169 7.0129 6.4169 1.8226 0 2.9871 0.5198 2.9871 1.3333 0 2.4808-7.7695 1.6548-10.545-1.1212zm15.72 0.1401c-3.8697-4.1191-2.8494-11.768 1.8972-14.223 6.4189-3.3193 12.201 0.25253 12.201 7.537 0 7.8867-8.9727 12.142-14.098 6.6856zm9.2543-1.257c3.4947-3.4947 0.87025-12.429-3.6511-12.429-1.8085 0-4.7775 4.2118-4.7775 6.7775 0 5.8335 4.9364 9.1432 8.4286 5.6511zm11.508 1.9956c-2.0478-2.4674-2.4576-15.424-0.48792-15.424 1.1816 0 1.5541 1.131 1.5645 4.75 0.0254 8.8222 1.6243 11.099 6.495 9.2467 2.3038-0.87589 2.4913-1.4384 2.4913-7.472 0-5.1331 0.31993-6.5248 1.5-6.5248 1.2122 0 1.4999 1.5832 1.4996 8.25l-4.1e-4 8.25-5.8754 0.25204c-4.3647 0.18723-6.2126-0.15422-7.1867-1.3279zm18.063-7.0408c0-8.1394 0.11135-8.5875 2.0106-8.0909 1.1058 0.28918 3.3104 0.0352 4.8991-0.56451 5.6057-2.1159 8.0904 0.89227 8.0904 9.795 0 10.68-2.774 10.886-3.2062 0.23755-0.31717-7.8149-1.0559-8.6646-6.3729-7.3301-2.272 0.57023-2.4209 1.037-2.4209 7.5886 0 5.5386-0.30991 6.981-1.5 6.981-1.2173 0-1.5-1.6241-1.5-8.6166zm21.571 7.0452c-1.0348-1.0348-1.5714-3.3885-1.5714-6.893 0-3.8078-0.42669-5.4853-1.5-5.8972-0.825-0.31658-1.5-1.0397-1.5-1.607 0-0.56726 0.675-1.0314 1.5-1.0314 0.93333 0 1.5-0.94444 1.5-2.5s0.56667-2.5 1.5-2.5 1.5 0.94444 1.5 2.5c0 2 0.5 2.5 2.5 2.5 1.5556 0 2.5 0.56667 2.5 1.5 0 0.94152-0.95025 1.5-2.5523 1.5-3.6835 0-3.3959 10.294 0.30226 10.82 1.2375 0.17575 2.25 0.96325 2.25 1.75 0 1.9406-4.4444 1.8432-6.4286-0.14098zm13.678-0.41113c-5.8791-5.4772-2.6287-16.017 4.9395-16.017 5.1568 0 10.005 8.7514 5.0614 9.1362-11.316 0.88088-11.559 0.99959-8.4339 4.1243 1.5966 1.5966 3.3171 2.1758 6.2354 2.0993 5.5863-0.14648 4.5527 2.0562-1.1427 2.4352-3.3803 0.22494-4.9639-0.19775-6.6597-1.7777zm7.0009-9.0038c2.412-0.0188 2.2019-2.7014-0.31706-4.0495-1.6079-0.86054-2.6074-0.75218-4.5 0.48787-3.606 2.3627-2.8943 5.1772 1.0416 4.1196 1.114-0.29934 2.8129-0.5504 3.7754-0.55791zm8.7336 10.82c-9e-3 -0.18333-0.15571-4.0216-0.32596-8.5294l-0.30955-8.1961 2.576 3e-3c1.4168 2e-3 3.6554-0.13524 4.9748-0.30391 1.3193-0.16868 2.5943 0.25582 2.8333 0.94332 0.2724 0.78358-0.50275 1.25-2.0774 1.25-4.2173 0-5.8202 2.5577-5.53 8.8239 0.16703 3.6058-0.15999 5.6878-0.93387 5.9458-0.65499 0.21833-1.1983 0.24697-1.2073 0.0636zm14.471-2.2879c-5.1287-5.1286-1.7478-15.545 5.0454-15.545 8.3763 0 9.7305 8.6483 1.5 9.5795-6.4349 0.72803-6.7556 1.0049-4.5912 3.9648 1.0226 1.3986 2.5301 1.8972 5.5 1.8193 2.8522-0.0748 4.0912 0.30817 4.0912 1.2645 0 2.568-8.7117 1.751-11.545-1.0827zm9.319-9.0415c0.82736-0.65851-1.244-3.5185-2.9376-4.056-2.1755-0.69046-5.836 1.9558-5.836 4.2189 0 1.1474 7.2975 1.0119 8.7735-0.16284zm9.2412 9.5108c-5.2601-5.2601-1.3805-15.469 5.8784-15.469 4.0833 0 4.1068-0.0215 4.1068-3.7727 0-2.6869 0.43173-3.7727 1.5-3.7727 1.2519 0 1.5 2.0317 1.5 12.285v12.285l-5.4852 0.22953c-4.3646 0.18264-5.8968-0.18206-7.5-1.7852zm9.208-1.2648c2.3828-1.8557 1.2939-11.451-1.3963-12.305-3.3617-1.067-6.8265 2.1049-6.8265 6.2494 0 5.9159 4.3185 9.0963 8.2228 6.0557zm16.777-9.4648c0-10.254 0.24807-12.285 1.5-12.285 1.1067 0 1.5 1.157 1.5 4.4131v4.4131l2.9295-1.1058c8.1635-3.0814 13.412 8.2424 7.0067 15.118-1.6819 1.8053-2.9928 2.1486-7.4876 1.9605l-5.4487-0.228zm10.427 9.1448c4.9267-4.9267 0.94327-13.655-5.1771-11.344-2.6029 0.98288-3.4423 11.266-1 12.252 2.4109 0.97283 4.6214 0.64804 6.1771-0.90765zm35.627 2.1354c-2.2031-2.6546-0.88255-6.9311 2.4457-7.9201 6.9421-2.0629 7.7804-2.6025 6.4793-4.1703-0.68787-0.82884-2.8971-1.4751-5.0427-1.4751-4.3564 0-6.0208-1.476-2.6753-2.3727 7.692-2.0616 10.584 0.54617 10.871 9.8038l0.21483 6.9312-5.5467 0.32381c-3.933 0.22961-5.8955-0.0964-6.7456-1.1207zm7.3639-1.1724c0.86999-0.33384 1.5818-1.6838 1.5818-3 0-3.0667-5.3433-3.4886-6.918-0.54621-1.6275 3.0411 1.4035 5.0554 5.3362 3.5462zm10.505 2.4403c-1.2354-5.3747-0.37294-16.923 1.2325-16.503 1.0259 0.26827 3.1651-3e-3 4.7537-0.60252 5.6057-2.1159 8.0904 0.89227 8.0904 9.795 0 6.0527-0.29216 7.477-1.5338 7.477-1.2407 0-1.4993-1.2523-1.3535-6.5535 0.20234-7.3548-0.59606-8.7483-4.7409-8.2747-2.7975 0.31969-2.8848 0.50721-3.3718 7.2498-0.39205 5.4273-2.4134 10.297-3.0766 7.4117zm27.06-1.8652c-2.2029-4.1162 0.22411-6.9076 7.3335-8.4346 4.8344-1.0384 3.0917-3.9739-2.5754-4.3383-6.7587-0.43451-5.7925-3.1952 1.1183-3.1952 5.5213 0 7.1408 2.3376 7.1403 10.307l-4.1e-4 7.1933-5.9613 0.25586c-5.1285 0.22011-6.1141-0.0296-7.055-1.7878zm7.7671-0.59837c3.3001-0.88438 3.1596-5.3697-0.16821-5.3697-5.9793 0-8.2382 5.1688-2.5818 5.9074 0.275 0.0359 1.5125-0.20605 2.75-0.53769zm49.937 1.8803c-1.7055-2.9695-0.43885-16.418 1.4986-15.912 1.1245 0.29407 2.8331 0.0422 3.7969-0.55967 1.9123-1.1942 5.0172-0.45785 5.0172 1.1899 0 0.56726-1.0929 1.0314-2.4286 1.0314-4.0455 0-5.5714 2.4846-5.5714 9.0714 0 5.2112-1.0035 7.4581-2.3127 5.1786zm53.136-7.7416c-0.29054-7.6273 1.0715-12.324 2.4097-8.3088 0.25768 0.77304 0.97979 0.75681 2.4989-0.0562 2.9612-1.5848 5.2679-1.4286 5.2679 0.35662 0 0.89855-0.92222 1.5-2.3 1.5-3.6629 0-4.7 1.9197-4.7 8.7 0 10.524-2.7648 8.6159-3.1765-2.1916zm13.002 0.0476c-0.28642-7.5413-0.12128-8.5604 1.3869-8.5583 1.4935 2e-3 1.685 1.0451 1.5 8.1704-0.29987 11.551-2.452 11.84-2.8869 0.38791zm8.3749 7.244c-3.0658-3.0658 0.0994-8.7851 4.8787-8.8153 1.3317-8e-3 3.0673-0.42413 3.857-0.92379 2.4804-1.5696-0.62269-4.0609-5.0581-4.0609-4.1705 0-5.1955-1.4469-1.7906-2.5276 2.6772-0.84971 8.6266 0.25503 9.5669 1.7765 1.4695 2.3778 1.254 15.751-0.25386 15.751-0.76997 0-1.4-0.54-1.4-1.2 0-0.93333-0.26667-0.93333-1.2 0-0.66 0.66-2.595 1.2-4.3 1.2s-3.64-0.54-4.3-1.2zm7.8657-1.8352c1.0638-0.56935 1.9343-1.9194 1.9343-3 0-2.4853-6.7064-2.8934-7.6384-0.46482-1.4339 3.7366 1.6716 5.6229 5.7041 3.4648zm11.969 1.1009c-0.56935-1.0638-1.0352-4.2138-1.0352-7 0-3.8362-0.36407-5.0657-1.5-5.0657-0.825 0-1.5-0.675-1.5-1.5s0.675-1.5 1.5-1.5c0.93333 0 1.5-0.94444 1.5-2.5s0.56667-2.5 1.5-2.5 1.5 0.94444 1.5 2.5c0 2.0215 0.49444 2.5 2.5833 2.5 3.4223 0 2.648 2.3952-0.91045 2.8164-4.4377 0.52535-3.5383 11.184 0.94375 11.184 1.4519 0 2.3834 0.58624 2.3834 1.5 0 2.3081-5.6869 1.9536-6.9648-0.43426zm13.419-0.52029c-5.1287-5.1286-1.7478-15.545 5.0454-15.545 3.094 0 7.5 4.0856 7.5 6.9546 0 2.0876-0.21594 2.1646-7.3181 2.6093-4.5049 0.28207-4.9433 0.59125-4.069 2.8696 0.8586 2.2375 4.8776 3.7325 7.9566 2.9598 1.8195-0.45668 2.4306-0.20568 2.4306 0.99836 0 2.795-8.5295 2.1698-11.545-0.84614zm9.319-9.0166c0.80377-0.71296-1.2306-3.5392-2.9376-4.081-2.209-0.70109-5.836 1.9682-5.836 4.295 0 1.23 7.3477 1.0507 8.7735-0.214zm-50.774-10.446c0-1.2283 0.64569-2.0833 1.5733-2.0833 0.93124 0 1.4414 0.68037 1.25 1.6671-0.48655 2.5088-2.8233 2.8532-2.8233 0.4162zm-484.69-39.093c-3.5832-1.4433-5.6482-5.5014-4.9664-9.7598 1.5025-9.3844 14.658-9.8405 14.658-0.50812 0 2.1169-0.42298 2.2775-6 2.2775-4.5619 0-6 0.34593-6 1.4433 0 2.2842 4.1007 4.5567 8.2225 4.5567 3.8543 0 5.0463 1.2991 2.1957 2.393-2.1519 0.82578-5.4691 0.6611-8.1099-0.40261zm6.6917-11.29c0-3.515-4.2178-4.7178-7.1713-2.045-2.8338 2.5645-2.2105 3.345 2.6713 3.345 3.0256 0 4.5-0.42593 4.5-1.3zm8.25 11.638c-2.5494-1.0287-1.1227-2.2319 3-2.5302 5.4096-0.3914 5.4971-2.1856 0.25-5.1226-4.4199-2.474-5.5401-5.502-2.9818-8.0602 1.934-1.934 9.874-2.3014 9.2496-0.42799-0.21939 0.65816-1.9361 1.2207-3.8149 1.25-4.5304 0.0707-5.1802 2.8023-1.0714 4.5042 4.2684 1.768 6.4346 4.478 5.6231 7.0347-0.9754 3.0732-6.4835 4.8738-10.255 3.3521zm16.385-1.4103c-6.0052-4.7237-2.0459-15.927 5.6286-15.927 4.2184 0 6.5123 1.6653 7.5761 5.5 2.4741 8.9186-6.3072 15.853-13.205 10.427zm8.1426-1.4841c4.2339-2.9655 2.0547-12.443-2.861-12.443-4.7539 0-6.7408 8.1756-2.9164 12 2.4075 2.4075 2.9173 2.4466 5.7775 0.4433zm40.58 2.5651c-4.8851-1.9714-6.6067-7.691-3.894-12.937 3.4589-6.6887 13.537-5.0082 13.537 2.2572 0 2.5982-0.16409 2.6713-6 2.6713-6.4024 0-7.2012 0.79879-4 4 1.3333 1.3333 3.3333 2 6 2 4.0412 0 5.3302 1.2756 2.4182 2.393-2.1402 0.82128-5.4663 0.6626-8.0612-0.38459zm6.643-11.308c0-3.515-4.2178-4.7178-7.1713-2.045-2.8338 2.5645-2.2105 3.345 2.6713 3.345 3.0256 0 4.5-0.42593 4.5-1.3zm11.315 11.328c-8.5814-3.5941-4.4266-17.028 5.2664-17.028 3.3212 0 3.4182-0.11347 3.4182-4 0-2.7338 0.43673-4 1.3796-4 1.106 0 1.3539 2.4729 1.25 12.468-0.12233 11.767-0.24214 12.467-2.1296 12.445-1.1-0.0129-3.125 0.21358-4.5 0.50329s-3.4831 0.11501-4.6846-0.38823zm8.1846-8.5278c0-6.9048-3.1588-8.8412-7.4394-4.5606-4.1918 4.1918-1.3439 11.413 4.2855 10.867l3.1539-0.30619zm-123.7 0.75c-0.36227-7.8624 0.48174-11.029 2.1991-8.25 0.73008 1.1813 1.1695 1.2305 2.1584 0.24164 1.7187-1.7187 5.8416-1.581 5.8416 0.195 0 0.88988-1.2369 1.5559-3.25 1.75l-3.25 0.31336-0.29569 6.75c-0.44295 10.112-2.925 9.3825-3.4034-1zm67.199-4.75c0-10.444 0.24667-12.5 1.5-12.5s1.5 2.0556 1.5 12.5-0.24667 12.5-1.5 12.5-1.5-2.0556-1.5-12.5zm9.75 5.1612c-3.9305-10.521-2.8062-14.765 1.3011-4.9112 1.089 2.6125 2.3523 5.6416 2.8073 6.7313 0.68502 1.6406 1.1325 1.0388 2.6023-3.5 1.8315-5.6558 3.9877-8.8662 5.1645-7.6895 0.98133 0.98132-6.1878 16.161-7.7782 16.469-0.8503 0.16482-2.3609-2.453-4.0969-7.0998zm54.691 6.2428c-0.37254-0.60278-0.0616-1.7115 0.69099-2.4638 1.7348-1.7342 4.3979-0.26276 3.5454 1.9589-0.7028 1.8315-3.2304 2.1328-4.2364 0.50496zm24.559-36.369c0-0.77021 0.89895-1.6857 1.9977-2.0344 3.3711-1.0699 3.5408-5.0578 0.52585-12.355-1.5101-3.6551-2.9864-7.2537-3.2805-7.997-0.35316-0.89237 0.0758-1.2321 1.2629-1 1.1489 0.22458 2.6127 2.517 4.0555 6.3514l2.2578 6 1.1632-3c0.63973-1.65 1.4194-4.2762 1.7326-5.836 0.51691-2.5744 2.712-4.5704 3.8142-3.4683 0.44072 0.44072-5.478 16.133-7.8073 20.7-1.4535 2.8495-5.7218 4.8188-5.7218 2.6398zm187.96-6.3417c-7.3952-2.2659-8.2254-13.33-1.278-17.03 3.2913-1.753 5.9136-1.4133 8.8963 1.1523 6.5956 5.6733 0.50506 18.367-7.6183 15.878zm5.4663-3.7649c3.4947-3.4947 0.87025-12.429-3.6511-12.429-1.943 0-4.7775 4.2548-4.7775 7.1713 0 5.6649 4.9398 8.7461 8.4286 5.2573zm-348.43-7.9286c0-9.5556 0.25362-11.5 1.5-11.5 1.1111 0 1.5 1.1667 1.5 4.5 0 5.6112 0.42437 5.5994 5.4864-0.15317 2.252-2.5592 4.6835-4.4569 5.4034-4.2169 0.85019 0.2834-0.14521 1.8903-2.8407 4.5858l-4.1495 4.1495 5.0502 6.2673c5.5002 6.8257 5.9442 7.8807 3.3002 7.8417-0.96504-0.0142-3.2788-2.2792-5.1584-5.0496-5.482-8.0803-7.0916-8.2981-7.0916-0.95982 0 4.6979-0.33236 6.0352-1.5 6.0352-1.2464 0-1.5-1.9444-1.5-11.5zm20.986 5.3333c-8e-3 -3.4833-0.285-7.3458-0.61664-8.5833-0.46883-1.7494-0.18461-2.25 1.2775-2.25 2.3233 0 2.8985 15.983 0.60277 16.749-0.91146 0.30435-1.2537-1.2979-1.2636-5.916zm7.9914 5.9167c-0.86024-9.6699-0.23734-24.752 1.0222-24.75 1.2533 1e-3 1.5 2.0574 1.5 12.501 0 9.7653-1.9156 19.069-2.5222 12.249zm7.9166-0.41667c-0.94574-7.4619-0.17916-24.333 1.1056-24.333 1.9482 2.4e-4 2.1212 24.126 0.17767 24.774-0.64772 0.21591-1.2252 0.0176-1.2833-0.44078zm8.1056-0.77046c0-1.0518 0.87137-1.3102 3.25-0.96374 6.7992 0.99035 7.2857-2.892 0.70412-5.6181-7.789-3.2263-3.9032-9.8461 5.3549-9.1224 3.2552 0.25445 0.66331 2.1414-2.9414 2.1414-4.6889 0-4.2477 2.6757 0.88713 5.3797 3.9498 2.08 5.0954 5.8701 2.5452 8.4203-1.7697 1.7697-9.8 1.5754-9.8-0.23713zm24.974-1.0902c-2.8513-3.035-3.1322-8.0566-0.66166-11.827 3.6156-5.5181 11.888-4.1416 12.496 2.0792 0.32894 3.3648-0.35233 3.6996-9.1819 4.5112l-2.8728 0.26406 2.016 2.4773c1.5519 1.907 2.9615 2.4773 6.1228 2.4773 2.6578 0 4.1068 0.44903 4.1068 1.2727 0 2.5571-9.3624 1.5804-12.026-1.2546zm7.2757-8.459c2.3817-0.0186 2.215-2.6944-0.25-4.0136-2.6465-1.4164-6 0.34526-6 3.1518 0 1.6705 0.44419 1.9624 2.25 1.4785 1.2375-0.33164 3.0375-0.60913 4-0.61664zm9.5735 2.5042-0.32347-8.4821 3 0.0673c1.65 0.037 4.1935-0.24007 5.6521-0.61576 4.7235-1.2166 6.9959 2.2823 6.6425 10.228-0.40895 9.1952-2.5988 9.7117-2.9974 0.70701-0.53877-12.168-8.7972-12.547-8.7972-0.40291 0 11.072-2.7466 9.7737-3.1765-1.5012zm21.679 5.8908c-6.9082-7.454 3.3492-20.556 10.497-13.409 4.6828 4.6828 1.7284 8-7.125 8-3.4083 0-3.6308 1.006-0.79115 3.5759 1.3631 1.2336 3.4525 1.85 6.041 1.7821 5.6706-0.14869 4.357 2.0678-1.4501 2.4467-3.9981 0.2609-5.0285-0.0834-7.1718-2.396zm7.7471-8.395c2.3485-0.0183 2.2293-2.6868-0.17756-3.9749-2.3138-1.2383-4.7847-0.44492-6.065 1.9474-1.1826 2.2096-0.15231 3.2893 2.4672 2.5854 1.114-0.29934 2.8129-0.5504 3.7754-0.55791zm9.2421 2.5708c-9e-3 -9.459-0.82898-8.6039 8.2579-8.61 1.7875-1e-3 4.4875-3e-3 6-4e-3s4.0143-0.0581 5.5595-0.12662c4.2732-0.18939 5.1905 1.4817 5.1905 9.4554 0 5.7344-0.30553 7.2012-1.5 7.2012-1.2002 0-1.4311-1.1561-1.1554-5.7836 0.38372-6.4407-0.77353-8.7167-4.4318-8.7167-3.2117 0-4.6467 3.1565-4.2465 9.3408 0.26318 4.0676 0.0164 5.1592-1.1662 5.1592-1.2002 0-1.4311-1.1561-1.1554-5.7836 0.38304-6.429-0.77375-8.7164-4.408-8.7164-3.2101 0-3.9366 1.5656-3.9366 8.4831 0 4.5218-0.36635 6.0544-1.5 6.2752-1.2377 0.24102-1.5014-1.1881-1.5079-8.1738zm54.508-4.0149c0-12.404 0.02996-12.57 2.2716-12.57 3.5531 0 3.532 24.315-0.0216 24.82-2.231 0.31685-2.25 0.21311-2.25-12.25zm10.455 9.9759c-5.5857-5.5857-1.4051-15.545 6.5252-15.545 2.9067 0 7.0203 4.368 7.0203 7.4546 0 2.4187-0.27381 2.5454-5.5 2.5454-4.1635 0-5.5 0.35595-5.5 1.4648 0 2.1375 3.8019 3.8248 7.1222 3.1608 2.3933-0.47866 2.8778-0.24305 2.8778 1.3994 0 3.1849-9.234 2.8319-12.545-0.47955zm8.334-10.405c-0.43157-2.241-3.2171-2.5692-5.1764-0.60997-2.2191 2.2191-1.3196 3.2268 2.3938 2.6818 2.1799-0.31994 3.002-0.93208 2.7826-2.0718zm9.3599 11.608c-3.1366-3.1366-0.027-8.3166 5.3515-8.9148 5.105-0.56778 3.7994-3.2824-1.75-3.6384-6.8806-0.44151-5.1253-4.1952 1.9618-4.1952 5.6805 0 7.2882 2.2816 7.2882 10.343v7.2296l-5.8515 0.16219c-3.2912 0.0912-6.354-0.34033-7-0.98629zm8.6711-4.4985c0.2315-1.63-0.18183-2.2458-1.5-2.2347-2.8589 0.0241-4.6784 1.6072-3.9697 3.4539 0.95515 2.4891 5.0734 1.5711 5.4697-1.2192zm9.8782 3.9612c-5.6501-6.2702 0.0401-17.749 7.8293-15.794 1.9106 0.47952 2.0761 0.16112 1.7909-3.4445-0.28906-3.6542-0.11386-3.9729 2.1839-3.9729h2.4981v24.705l-6.3801 0.10872c-4.8523 0.0827-6.7494-0.30106-7.9221-1.6025zm10.1-6.8321c0.34776-5.9803-2.2743-7.9026-5.872-4.3049-3.672 3.672-1.7131 10.268 2.8915 9.7357 2.4745-0.28588 2.7058-0.70734 2.9805-5.4308zm11.431 7.9744c-8.0735-3.3937-2.9773-18.386 5.7674-16.967 8.2984 1.3466 8.7314 9.6132 0.50359 9.6132-5.9763 0-6.8746 1.0532-3.0406 3.5653 1.6944 1.1102 3.4339 1.3974 5.5925 0.92327 2.6946-0.59183 3.0839-0.42922 2.7813 1.1616-0.35431 1.8624-8.412 3.0452-11.604 1.7034zm7.5066-11.647c-0.72874-2.1862-3.5046-3.1434-5.1518-1.7763-2.742 2.2757-1.8819 3.7028 1.9613 3.2541 1.9498-0.22763 3.3855-0.89262 3.1905-1.4778zm8.2644 5.375c0-3.805-0.27998-7.6478-0.62217-8.5396-0.50031-1.3038 0.0383-1.6092 2.75-1.5593 1.8547 0.0341 4.4972-0.0606 5.8722-0.21045 3.9256-0.42786 3.4555 3.5435-0.5 4.2239-2.9172 0.50178-3.0082 0.68824-3.2977 6.7598-0.4728 9.9158-4.2023 9.3173-4.2023-0.67441zm22-5.7133c0-10.328 0.24752-12.368 1.5-12.368 1.1128 0 1.5 1.1706 1.5 4.5352 0 4.2684 0.12111 4.4704 2.0586 3.4334 5.4659-2.9253 11.777 2.7622 10.517 9.4777-1.033 5.5062-3.8344 7.5613-10.11 7.4167l-5.4662-0.12602zm10.74 9.3815c3.9163-4.9722 1.422-12.089-4.0512-11.559-3.2146 0.3113-5.0679 6.7715-3.2796 11.432 0.65988 1.7196 6.0036 1.8122 7.3309 0.12706zm10.769 0.84988c-3.6026-3.6026-3.4318-8.8309 0.41411-12.677 4.7982-4.7982 12.077-2.7128 12.077 3.4603 0 2.6616-2.1044 3.5806-8.25 3.603-4.4494 0.0162-4.7269 1.1-1.0269 4.0105 2.0904 1.6443 3.5089 1.9946 6.105 1.5076 2.5481-0.47802 3.2751-0.31022 2.9487 0.68057-0.86439 2.6241-9.469 2.2137-12.268-0.58511zm8.116-8.5999c2.0486 0 1.6614-2.7764-0.55256-3.9612-2.335-1.2496-4.7871-0.44039-6.1002 2.0131-1.5243 2.8481-1.1943 3.2425 2.1528 2.5731 1.7188-0.34375 3.7438-0.625 4.5-0.625zm10.375 4c0-5.5556-0.30952-7-1.5-7-0.825 0-1.5-0.675-1.5-1.5s0.60377-1.5 1.3417-1.5 1.8729-1.7728 2.522-3.9396c1.1507-3.8407 3.9389-5.9184 6.1273-4.5659 1.7145 1.0596 1.1178 2.351-1.241 2.686-3.6014 0.51148-3.814 5.8196-0.23309 5.8196 3.1867 0 2.8999 2.342-0.34524 2.8196-1.9892 0.29271-2.1717 0.9017-2.1717 7.25 0 5.4937-0.31096 6.9304-1.5 6.9304-1.1905 0-1.5-1.4444-1.5-7zm31-1.6166c0-8.383 0.0596-8.601 2.198-8.0418 1.2089 0.31613 2.7623 0.10643 3.452-0.46599 1.4641-1.2151 5.6516-0.17252 4.8055 1.1965-0.31544 0.5104-1.4148 0.928-2.4431 0.928-3.4862 0-5.0124 2.7622-5.0124 9.0714 0 4.6032-0.33534 5.9286-1.5 5.9286-1.2173 0-1.5-1.6241-1.5-8.6166zm15.356 6.2462c-7.1506-6.1507 0.46555-19.031 8.575-14.502 1.7587 0.98226 2.6668 2.4326 2.8784 4.5974 0.32894 3.3648-0.35233 3.6996-9.1819 4.5112l-2.8728 0.26406 2.016 2.4773c1.5519 1.907 2.9615 2.4773 6.1228 2.4773 2.6578 0 4.1068 0.44903 4.1068 1.2727 0 2.3738-8.5448 1.5683-11.644-1.0977zm6.8942-8.6159c0.9625-8e-3 1.75-0.67282 1.75-1.4785 0-2.1199-3.1119-3.4454-5.75-2.4492-1.3717 0.51796-2.25 1.6884-2.25 2.9985 0 1.7404 0.42764 2.0342 2.25 1.5459 1.2375-0.33164 3.0375-0.60913 4-0.61664zm19.785 9.0521c-0.56935-1.0638-1.0352-4.1657-1.0352-6.893 0-3.4853-0.44572-5.1298-1.5-5.5344-1.9085-0.73237-1.9588-2.6384-0.06955-2.6384 0.78675 0 1.5742-0.97725 1.75-2.1717 0.47108-3.2015 2.8196-3.5444 2.8196-0.41166 0 2.0889 0.47849 2.5833 2.5 2.5833 1.5556 0 2.5 0.56667 2.5 1.5s-0.94444 1.5-2.5 1.5c-2.331 0-2.5 0.33568-2.5 4.9648 0 4.7602 2.4254 8.2764 4.3685 6.3333 0.34731-0.34732 0.63148 0.11852 0.63148 1.0352 0 2.4608-5.6202 2.2449-6.9648-0.26759zm10.772-10.568c-0.27903-11.357-0.14695-12.502 1.4428-12.5 1.4041 1e-3 1.75 0.88099 1.75 4.4498v4.448l2.8318-0.98717c6.6163-2.3064 9.7156 1.8713 8.9868 12.114-0.49056 6.8939-3.32 6.217-2.9525-0.70629 0.41857-7.8862-1.9741-10.747-7.2843-8.7092-1.2307 0.47226-1.5818 2.137-1.5818 7.5 0 13.824-2.8379 8.8389-3.1928-5.6088zm21.647 10.047c-5.0342-5.0342-1.6242-15.545 5.0432-15.545 3.0362 0 7.5023 4.0656 7.5023 6.8296 0 2.0095-3.3413 3.1704-9.125 3.1704-3.2085 0-3.5213 0.73385-1.4943 3.506 0.95171 1.3015 2.6596 1.9047 5.4968 1.9411 2.5962 0.0334 4.1173 0.51445 4.1193 1.3029 6e-3 2.4516-8.8058 1.5319-11.542-1.2046zm9.319-9.0166c0.68555-0.6081-1.087-3.4352-2.4918-3.9743-1.9952-0.76563-6.2818 2.0023-6.2818 4.0563 0 1.3512 7.234 1.2836 8.7735-0.0821zm15.454-1.1597c0.1255-9.4167 0.47606-12.369 1.4687-12.369 0.87753 0 1.3038 1.4632 1.3038 4.4752 0 4.3907 0.0485 4.4568 2.5651 3.5 5.8607-2.2282 10.435 1.2894 10.435 8.0248 0 6.2391-3.2803 9.0302-10.42 8.8656l-5.5177-0.1272zm11.216 8.4083c3.5838-5.1167 0.8443-11.132-4.8187-10.581-2.976 0.28955-3.1392 0.53347-3.4325 5.1317-0.46872 7.3477 4.5843 10.685 8.2513 5.4498zm8.4921 2.1019c-0.82309-1.538-0.84325-2.7863-0.0723-4.4783 0.98957-2.1719 2.375-2.8296 7.6369-3.6258 4.4855-0.67873 2.3391-4.2535-2.75-4.58-5.3034-0.3403-6.2637-1.7038-1.8784-2.667 7.4063-1.6267 10.129 1.2375 10.128 10.656l-4.1e-4 6.3157-5.9613 0.25586c-5.2042 0.22336-6.1062-0.015-7.1025-1.8765zm8.4828-0.48635c0.86999-0.33384 1.5818-1.7124 1.5818-3.0634 0-3.0092-5.5444-3.0476-7.3992-0.0512-1.676 2.7077 1.8951 4.6196 5.8174 3.1145zm12.153 1.0356c-1.0426-1.0426-1.5714-3.3983-1.5714-7 0-4.1587-0.35088-5.4286-1.5-5.4286-0.825 0-1.5-0.675-1.5-1.5s0.6437-1.5 1.4304-1.5 1.5742-0.97725 1.75-2.1717c0.47108-3.2015 2.8196-3.5444 2.8196-0.41166 0 2.0889 0.47849 2.5833 2.5 2.5833 1.5556 0 2.5 0.56667 2.5 1.5s-0.94444 1.5-2.5 1.5c-2.325 0-2.5 0.3415-2.5 4.8776 0 4.9045 1.8227 7.9681 3.9562 6.6495 0.57409-0.35481 1.0438 0.0565 1.0438 0.91391 0 2.0638-4.3608 2.0553-6.4286-0.0124zm13 0c-1.0426-1.0426-1.5714-3.3983-1.5714-7 0-4.1587-0.35088-5.4286-1.5-5.4286-0.825 0-1.5-0.675-1.5-1.5s0.675-1.5 1.5-1.5c0.93333 0 1.5-0.94444 1.5-2.5s0.56667-2.5 1.5-2.5 1.5 0.94444 1.5 2.5c0 2 0.5 2.5 2.5 2.5 1.5556 0 2.5 0.56667 2.5 1.5s-0.94444 1.5-2.5 1.5c-2.325 0-2.5 0.3415-2.5 4.8776 0 4.9045 1.8227 7.9681 3.9562 6.6495 0.57409-0.35481 1.0438 0.0565 1.0438 0.91391 0 2.0638-4.3608 2.0553-6.4286-0.0124zm10.429-9.3468c0-6.005-0.27314-11.63-0.60699-12.5-0.43514-1.134-0.0104-1.5818 1.5-1.5818 2.0303 0 2.107 0.45509 2.107 12.5 0 10.444-0.24667 12.5-1.5 12.5-1.2417 0-1.5-1.8798-1.5-10.918zm10.455 8.4637c-6.4945-6.4945 0.71049-18.77 8.463-14.418 6.424 3.6057 5.2959 7.7889-2.3122 8.5741-6.0326 0.62262-6.3438 0.90653-4.2025 3.8348 0.98774 1.3508 2.615 1.9184 5.5 1.9184 2.6501 0 4.0972 0.44951 4.0972 1.2727 0 2.4729-8.7906 1.573-11.545-1.1818zm9.319-9.0166c0.68555-0.6081-1.087-3.4352-2.4918-3.9743-1.9952-0.76563-6.2818 2.0023-6.2818 4.0563 0 1.3512 7.234 1.2836 8.7735-0.0821zm15.226 2.9711c0-6.8889 0.28431-8.5 1.5-8.5s1.5 1.6111 1.5 8.5-0.28431 8.5-1.5 8.5-1.5-1.6111-1.5-8.5zm7.6938 7.8605c-1.3356-1.3356 0.50106-2.2715 3.3424-1.7033 6.55 1.31 7.1498-2.5013 0.89586-5.6919-6.8824-3.5111-3.6255-11.155 4.0359-9.4724 3.9079 0.85831 2.9424 2.507-1.4681 2.507-1.8601 0-3.6377 0.41372-3.9502 0.91938-0.69431 1.1234 2.1078 4.0806 3.8666 4.0806 3.4576 0 5.8809 6.3026 3.3836 8.8-1.2487 1.2487-8.9887 1.678-10.106 0.56052zm-542.16-20.308c-0.87924-1.4226 0.24199-3.0528 2.0997-3.0528 0.87615 0 1.378 0.70256 1.191 1.6671-0.38952 2.0085-2.3862 2.8492-3.2907 1.3857zm535.15 0.30138c-1.4155-1.4155-0.61453-3.3542 1.3858-3.3542 1.398 0 1.968 0.54305 1.75 1.6671-0.35694 1.8405-2.064 2.7589-3.1358 1.687zm-510.69-31.96c0-0.33334 1.125-1.491 2.5-2.5726 3.0542-2.4024 3.151-5.1546 0.40388-11.488-4.0104-9.2465-4.0292-9.3329-2.0375-9.3329 1.3532 0 2.283 1.5394 3.6433 6.032 2.0426 6.7463 2.6869 6.6743 4.7594-0.53199 0.88704-3.0844 2.0747-5.125 3.0999-5.3263 1.4736-0.28932 1.4208 0.27741-0.46588 5-1.1703 2.9295-2.9749 7.7523-4.0102 10.717-2.3338 6.6843-7.8929 11.969-7.8929 7.5028zm66-10.894c0-6.325-5e-3 -11.811-0.0111-12.191-0.0212-1.3141 10.583-1.343 12.373-0.0337 6.6878 4.8902 1.5087 17.949-6.4845 16.35-2.7844-0.55688-2.8779-0.44641-2.8779 3.3994 0 2.8667-0.41824 3.975-1.5 3.975-1.2464 0-1.5-1.9444-1.5-11.5zm9.9492 0.74221c4.8726-3.9456 1.4998-13.146-4.2868-11.694-2.5009 0.6277-2.6624 1.0205-2.6624 6.4765 0 7.0925 2.4042 8.8975 6.9492 5.2171zm102.05 9.7578c0-0.55 0.41786-1 0.92857-1 4.5614 0 5.0007-5.9258 1.116-15.055-2.7494-6.4609-2.8227-6.9452-1.0511-6.9452 1.4315 0 2.3348 1.3657 3.6381 5.5 1.9324 6.1303 2.8286 6.7871 3.828 2.8054 1.4072-5.6066 3.567-9.6789 4.5905-8.6554 0.96579 0.96579-5.9085 20.101-8.2987 23.1-1.1866 1.4889-4.7513 1.6765-4.7513 0.25zm-194.25-7.0389c-4.6238-2.8019-0.20988-9.9611 6.1413-9.9611 2.4652 0 3.2546-1.1458 2.0889-3.032-0.55837-0.90345-2.4045-1.3968-4.975-1.3294-5.1382 0.13473-4.8932-2.0078 0.27973-2.4464 6.3834-0.54129 7.5122 0.7857 7.8858 9.2711 0.30571 6.943 0.18623 7.4718-1.6707 7.3946-1.1-0.0457-3.35 0.19742-5 0.54027-1.65 0.34286-3.7875 0.14617-4.75-0.43708zm8.7413-4.9611c-0.0108-3.1132-3.7619-3.9701-6.5064-1.4864-2.8166 2.549-1.4012 4.648 2.8923 4.2892 3.1197-0.26073 3.6216-0.64995 3.6141-2.8028zm33.019 4.0113c-2.9178-3.2241-0.4557-7.1791 5.2624-8.4533 2.3251-0.51813 4.2274-1.5148 4.2274-2.2148 0-2.0348-3.8433-3.5364-7.1772-2.8042-2.3318 0.51215-2.9537 0.34954-2.6136-0.68343 0.70224-2.1332 8.6153-2.3243 10.893-0.26298 3.0845 2.7914 2.7934 15.425-0.35221 15.284-1.2375-0.0558-3.6103 0.21009-5.273 0.5908-2.3794 0.54484-3.4368 0.23492-4.9668-1.4557zm9.3062-4.2613c0.36294-3.1543-2.8935-3.8766-6.2878-1.3946-2.9165 2.1326-1.2668 4.8422 2.7145 4.4585 2.7154-0.26169 3.3095-0.77103 3.5733-3.0639zm8.9336 5.5607c-3.4151-0.89246-1.6822-2.3107 2.8233-2.3107 5.634 0 5.818-2.2766 0.42668-5.2777-5.4788-3.0498-6.0926-4.6297-3-7.7223 2.4304-2.4304 9-2.8136 9-0.525 0 1.0642-0.76599 1.3351-2.75 0.97287-6.358-1.1609-6.5089 2.9596-0.20412 5.5711 8.1517 3.3765 2.5732 11.609-6.2959 9.2917zm44-0.34959c-4.0672-2.4646-1.7763-8.2377 3.7556-9.4642 5.0587-1.1216 5.4796-1.3719 4.8902-2.9078-0.36562-0.9528-2.2448-1.5948-5.2331-1.7879-5.8118-0.37546-6.1265-2.195-0.45088-2.6068 7.0206-0.50946 8.0795 0.65077 8.459 9.2689 0.30571 6.943 0.18623 7.4718-1.6707 7.3946-1.1-0.0457-3.35 0.19742-5 0.54027-1.65 0.34286-3.7875 0.14617-4.75-0.43708zm7.75-2.7264c1.9591-1.4394 1.0958-4.7211-1.3325-5.065-2.7643-0.39151-6.2605 2.4245-5.4931 4.4243 0.56586 1.4746 5.1099 1.9012 6.8256 0.64073zm25.087 2.4529c-1.3698-1.0016-2.0312-3.0298-2.3766-7.2877-0.26322-3.2449-0.98083-6.2456-1.5947-6.6682-0.7626-0.52494-0.56182-1.095 0.63388-1.7997 0.9625-0.56726 1.75-1.909 1.75-2.9817s0.59823-1.9503 1.3294-1.9503c0.7355 0 1.2939 1.0052 1.25 2.25-0.0566 1.6025 0.56808 2.342 2.1706 2.5696 3.0612 0.43476 2.861 2.1804-0.25 2.1804-2.2894 0-2.5 0.37212-2.5 4.4182 0 5.9935 0.77306 7.5818 3.6903 7.5818 1.534 0 2.3197 0.47569 2.0647 1.25-0.59619 1.8103-3.9636 2.0492-6.1676 0.4376zm20.642 0.64311c-1.7824-0.71716-4.229-5.7528-4.229-8.7043 0-7.3969 10.505-11.613 14.927-5.9915 5.8141 7.3914-2.0397 18.18-10.698 14.696zm7.771-3.3307c3.5481-3.5481 1.5298-12-2.8656-12-5.1461 0-7.6475 6.8068-4.14 11.266 2.5576 3.2514 4.3052 3.4346 7.0056 0.73422zm48.635 1.9274c-6.0052-4.7237-2.0459-15.927 5.6286-15.927 4.2184 0 6.5123 1.6653 7.5761 5.5 2.5342 9.1352-6.1397 15.985-13.205 10.427zm8.5364-1.5824c2.312-2.0923 2.4104-8.0448 0.17375-10.516-5.0559-5.5867-11.28 3.5356-6.7883 9.9488 1.8505 2.642 4.1082 2.8357 6.6146 0.56752zm10.883 1.7093c-1.8268-1.8268-2.1001-3.0992-1.849-8.608 0.37468-8.2197 2.1376-8.8158 2.7986-0.94627 0.57531 6.8498 1.3467 8.5 3.9733 8.5 4.4571 0 5.0228-0.92233 5.0228-8.1903 0-10.457 2.4086-8.7194 2.7903 2.0129 0.28208 7.9302 0.22535 8.161-2 8.1378-1.2597-0.0131-3.7083 0.25998-5.4414 0.60684-2.4373 0.48779-3.6366 0.14507-5.2947-1.513zm60.696 0.90678c-4.5764-2.7732-0.22256-9.9611 6.0337-9.9611 2.407 0 3.2188-0.83012 2.5404-2.5978-0.35074-0.914-2.0967-1.4022-5.0144-1.4022-5.5036 0-5.5242-2.3415-0.0247-2.8078 6.3834-0.54129 7.5122 0.7857 7.8858 9.2711 0.30571 6.943 0.18623 7.4718-1.6707 7.3946-1.1-0.0457-3.35 0.19742-5 0.54027-1.65 0.34286-3.7875 0.14617-4.75-0.43708zm8.8674-4.7933c0.0646-1.2828-0.52662-2.5794-1.3138-2.8815-2.3398-0.89785-6.3036 1.4619-6.3036 3.7526 0 3.3001 7.4503 2.448 7.6174-0.87119zm11.133 4.7726c-1.3558-0.80549-1.75-2.3873-1.75-7.0214 0-4.3946-0.398-6.1344-1.5-6.5573-0.825-0.31659-1.5-0.97746-1.5-1.4686 0-0.49115 0.675-0.89301 1.5-0.89301 0.93333 0 1.5-0.94444 1.5-2.5s0.56667-2.5 1.5-2.5 1.5 0.94444 1.5 2.5c0 2 0.5 2.5 2.5 2.5 3.3907 0 3.1859 1.7882-0.25 2.1836-4.9086 0.5648-4.0816 11.816 0.86852 11.816 2.5696 0 1.9571 2.4085-0.69685 2.74-1.0569 0.13201-2.7092-0.22785-3.6717-0.79969zm13.863-0.23377c-1.4039-1.0266-1.9211-2.8074-2.068-7.1207-0.12579-3.6927-0.70597-6.0867-1.6206-6.6871-1.1988-0.78697-1.1472-1.0988 0.32529-1.9667 0.9625-0.56726 1.75-1.909 1.75-2.9817s0.61638-1.9503 1.3697-1.9503c0.78927 0 1.319 0.95349 1.25 2.25-0.0861 1.6179 0.51235 2.3398 2.1303 2.5696 1.2375 0.17575 2.25 0.70696 2.25 1.1804s-1.0125 1.0047-2.25 1.1804c-4.4306 0.62925-3.6236 11.82 0.85239 11.82 1.6043 0 2.4102 0.46795 2.1526 1.25-0.59338 1.8018-3.9597 2.052-6.1416 0.45657zm21.387 0.0246c-7.698-3.9713-5.1173-16.731 3.384-16.731 3.9342 0 6.616 2.5654 6.616 6.3287 0 2.5677-0.21091 2.6713-5.441 2.6713-6.2466 0-7.4882 1.0708-4.5955 3.9635 1.3837 1.3837 3.3454 2.0365 6.1198 2.0365 2.819 0 3.9562 0.38704 3.6727 1.25-0.57012 1.7355-6.7352 2.0396-9.756 0.48117zm7-11.712c0-2.4528-4.3582-3.7966-6.513-2.0083-2.7934 2.3184-1.7409 3.9892 2.513 3.9892 3.3205 0 4-0.33651 4-1.981zm45.75 11.942c-4.4158-2.6758-1.5197-8.6374 4.685-9.6442 6.4109-1.0404 5.4403-4.045-1.4626-4.5279-5.6604-0.39605-5.8406-2.1896-0.26066-2.5945 7.0206-0.50946 8.0795 0.65077 8.459 9.2689 0.30571 6.943 0.18623 7.4718-1.6707 7.3946-1.1-0.0457-3.35 0.19742-5 0.54027-1.65 0.34286-3.7875 0.14617-4.75-0.43708zm8.4402-2.4846c1.1486-1.1486-0.49848-5.4765-2.0842-5.4765-2.6158 0-6.0887 2.8813-5.4571 4.5274 0.5365 1.3981 6.3595 2.1309 7.5413 0.94913zm-439.19-8.9765v-11.5h5.2775c8.0479 0 11.395 3.4774 9.1013 9.4552-0.80288 2.0923-5.5674 4.5448-8.8292 4.5448-2.3552 0-2.5497 0.34329-2.5497 4.5 0 3.3333-0.38889 4.5-1.5 4.5-1.2464 0-1.5-1.9444-1.5-11.5zm9.8346-1.0967c4.0528-2.8387 2.6207-6.8342-2.5846-7.2108l-4.25-0.3075v4.5575c0 5.1327 2.3069 6.1321 6.8346 2.9608zm10.165 1.0967v-12.25c0-0.4125 0.5625-0.75 1.25-0.75 0.92048 0 1.3057 3.2293 1.4612 12.25 0.17545 10.174-0.0364 12.25-1.25 12.25-1.1969 0-1.4612-2.08-1.4612-11.5zm129.15 3c-0.0188-6.734 0.27485-8.5 1.4132-8.5 0.7903 0 1.4369 0.44035 1.4369 0.97856 0 0.60211 0.93722 0.55154 2.4362-0.13146 2.6742-1.2184 6.0567-0.45368 5.0681 1.1458-0.34232 0.55388-1.6308 1.0071-2.8634 1.0071-3.5316 0-4.641 1.9602-4.641 8.2 0 4.3306-0.35803 5.8-1.4132 5.8-1.1049 0-1.4184-1.8542-1.4369-8.5zm54.957 1.75c0.20457-5.6405-0.0307-6.8032-1.4311-7.0733-2.0699-0.39934-2.2291-2.1767-0.19495-2.1767 0.81452 0 1.7413-1.2375 2.0596-2.75 0.92431-4.393 1.9835-5.7288 4.8104-6.0664 1.9088-0.22799 2.6491 0.13785 2.6491 1.309 0 0.894-0.46971 1.3352-1.0438 0.98034-1.598-0.98759-3.9562 1.4859-3.9562 4.1495 0 1.8694 0.53433 2.3776 2.5 2.3776 3.111 0 3.3112 1.7457 0.25 2.1804-2.0444 0.29035-2.277 0.93635-2.5457 7.0696-0.22997 5.2497-0.63426 6.75-1.8189 6.75-1.238 0-1.4774-1.2638-1.2784-6.75zm75.719-1.3486c-0.31549-7.8339 0.48933-10.627 2.244-7.7879 0.67421 1.0909 1.0993 1.117 2.0882 0.12811 1.7583-1.7583 5.8416-1.5777 5.8416 0.25836 0 0.89855-0.92222 1.5-2.3 1.5-3.5922 0-4.7 1.9328-4.7 8.2 0 9.8404-2.7656 7.8374-3.1738-2.2986zm22.174-3.4014v-11.5h4.4349c8.5018 0 11.982 3.6304 8.6021 8.9744-0.65691 1.0388-0.35693 2.0105 1.0153 3.289 4.9398 4.6021 0.07929 10.737-8.5068 10.737h-5.5454zm11.429 7.9286c1.9811-1.9811 1.9991-3.8287 0.0532-5.4437-1.6496-1.3691-8.3786-1.9548-8.4425-0.73489-0.41612 7.9468 3.6364 10.931 8.3893 6.1786zm-1.1203-11.543c1.7809-2.846 0.0997-4.8859-4.0269-4.886-3.6732-7e-5 -4.58 1.8396-3.3584 6.8134 0.2571 1.0467 6.5522-0.5962 7.3853-1.9274zm53.692 2.6141c0-10.444 0.24667-12.5 1.5-12.5s1.5 2.0556 1.5 12.5-0.24667 12.5-1.5 12.5-1.5-2.0556-1.5-12.5zm36 1v-11.5h5.2775c8.0479 0 11.395 3.4774 9.1013 9.4552-0.80288 2.0923-5.5674 4.5448-8.8292 4.5448-2.3552 0-2.5497 0.34329-2.5497 4.5 0 3.3333-0.38889 4.5-1.5 4.5-1.2464 0-1.5-1.9444-1.5-11.5zm10.866-1.9377c2.8246-2.8246 0.61155-6.5623-3.8853-6.5623h-3.981v9.25l3.2366-0.64732c1.7801-0.35603 3.8635-1.2742 4.6296-2.0404zm8.1337 1.9377c0-6.325-0.0238-11.838-0.0528-12.25s0.64595-0.8955 1.5-1.0733c1.3386-0.27872 1.5528 1.4115 1.5528 12.25-2e-5 10.51-0.24622 12.573-1.5 12.573-1.2464 0-1.5-1.9444-1.5-11.5zm26.426 2.9988c-0.056-6.4235 0.24919-8.4988 1.25-8.4988 0.72828 0 1.3241 0.41091 1.3241 0.91314 0 0.50458 1.3262 0.41256 2.9641-0.20568 6.32-2.3855 8.4939-0.27666 8.828 8.5635 0.24274 6.4235 0.0316 7.729-1.25 7.729-1.2304 0-1.5421-1.3066-1.5421-6.4648 0-5.4414-0.31662-6.6343-2-7.5352-4.0547-2.17-6 0.27298-6 7.5352 0 5.4908-0.26367 6.4646-1.75 6.4636-1.5235-1e-3 -1.7596-1.1014-1.8241-8.5zm19.574 6.6082c0-2.42 2.5019-3.4121 4.013-1.5914 1.4688 1.7698 0.4492 3.4844-2.072 3.4844-1.2378 0-1.941-0.68585-1.941-1.893zm-469.09-51.435c-2.8945-1.5287-5.437-3.9903-7.4073-7.1714l-3-4.8438-0.29469-158.58c-0.20865-112.28 0.0235-159.68 0.79511-162.35 1.2896-4.457 6.0569-10.179 10.398-12.479 3.6831-1.952 572.49-3.0848 579.86-1.1548 4.653 1.2178 10.587 6.2976 12.386 10.603 2.065 4.9423 2.0031 323.15-0.0636 327.1-1.9309 3.6856-7.4842 8.851-10.9 10.139-1.9614 0.73945-89.942 1.0613-290.09 1.0613h-287.28zm580.78-1.7337c11.537-4.3498 11.303-2.4392 11.31-92.189l6e-3 -157.62c-4.2e-4 -105.15 9.0153-93.129-69.837-93.129h-460.31c-78.919 0-70.049-11.908-69.648 93.5l2e-5 156.5c-0.33587 88.794-0.60224 86.129 9.2044 92.109 4.9429 3.0142 575.51 2.2474 579.27 0.82963zm-322.68-12.958c-53.863-7.3461-66.544-67.523-16.326-77.477l3.1736-0.62905-0.29752 6.7263c-0.29675 6.7086-0.30771 6.7314-4.1736 8.673-36.279 18.221 4.1917 51.873 49.531 41.186 36.739-8.66 48.328-55.5 19.049-76.993l-5.0585-3.7133 3.5427-2.4073c12.514-8.5038 34.089 26.971 30.753 50.565-5.3598 37.9-37.896 59.837-80.193 54.069zm33-32.921c0-2.2325 0.45-4.059 1-4.059s1 1.5484 1 3.441-0.45 3.7191-1 4.059c-0.60393 0.37325-1-0.98962-1-3.441zm-20-10.66c-24.764-6.6168-32.388-39.269-12.498-53.528l4.0022-2.8692 7.9978 1.5446c7.9648 1.5382 12.517 1.404 23.32-0.68751 17.506-3.3893 27.43 28.804 13.791 44.738-8.1866 9.5642-23.897 14.199-36.613 10.802zm72.75-13.067c-0.9625-0.26323-1.75-1.2828-1.75-2.2657 0-0.98291-0.2817-3.8423-0.62599-6.3542l-0.62599-4.5671 3.9719-1.0695c19.874-5.3514 31.039-43.731 21.769-74.823-3.2625-10.942-12.568-16.28-20.488-11.752-3.6491 2.086-4.0016 1.887-3.9847-2.25 0.0512-12.535 21.329-10.739 29.836 2.5187 22.316 34.777 1.6588 108.7-28.102 100.56zm-24.705-7.6222c-2.1908-1.0922-3.4008-11.684-1.5468-13.541 1.6255-1.6279 4.3466 2.4333 4.9692 7.4165 0.80606 6.4515 0.0277 7.8444-3.4224 6.1243zm13.79-34.46c-10.333-9.6632-12.431-15.864-7.3579-21.75l3.4476-4 0.0375 5.7821c0.0461 7.092 1.7221 11.297 6.7396 16.907 6.6574 7.4447 6.8624 7.8104 4.3775 7.8104-1.2036 0-4.421-2.1096-7.2444-4.75zm-63.711-2.7632c-21.114-5.9318-39.704-25.582-45.535-48.131-1.6712-6.4632-2.1083-12.789-0.83878-12.138 24.375 12.492 87.19 13.423 110.54 1.6375l5.919-2.9879-0.71534 5.3164c-4.9521 36.803-39.362 64.733-69.367 56.303zm-8.1238-55.157c-7.979-0.79773-22.351-4.554-20.783-5.4318 7.9849-4.4686 36.973-7.109 54.421-4.9569 9.8788 1.2185 26.076 4.4394 27.007 5.3706 2.9994 2.9994-42.872 6.795-60.645 5.0181zm-33.5-4.9952c-7.157-3.7816-8.4138-7.6566-3.854-11.883 3.6018-3.3381 4.888-3.0935 2.2803 0.43356-2.6109 3.5314-1.9652 6.278 2.4166 10.28 3.5267 3.2212 3.3928 3.4068-0.84295 1.1687zm106.25-2.522c2.477-2.688 2.9851-7.6351 1-9.7352-1.0312-1.0909-0.86011-1.1219 0.97708-0.17708 5.0974 2.6214 4.6449 7.8406-0.92549 10.674l-3.3016 1.6796zm-104.58-1.1272c-7.1494-7.6102 8.3639-14.436 36.991-16.276l10.335-0.66415 1.5 4.3771c2.4003 7.0042 8.0824 6.582 9.4489-0.70212l0.6581-3.508 5.6965 0.51532c3.1331 0.28343 8.6215 0.78167 12.197 1.1072 18.737 1.7062 31.176 8.4552 25.911 14.059-2.9604 3.1512-5.1739 3.0604-20.585-0.84435-21.968-5.5662-57.89-4.4602-73.058 2.2495-5.7249 2.5324-6.4431 2.5076-9.0938-0.31399zm51.352-13.564c-0.36033-1.6406-0.0368-4.3278 0.75236-6.25l1.3845-3.372 1.2633 3.8031c1.4269 4.2958 0.73541 8.6969-1.3665 8.6969-0.77082 0-1.6859-1.2951-2.0336-2.878zm-4.2761-22.915c-8.3201-7.46-42.262-50.444-41.027-51.957 0.56159-0.6875 1.539-1.25 2.1721-1.25 1.2476 0 33.313 39.544 37.581 46.346 5.1089 8.1423 7.1817 11.653 6.8549 11.61-0.18236-0.0238-2.6938-2.1613-5.5809-4.75zm-48.78-54.466c-6.1814-7.1446-6.3165-9.6807-0.69065-12.97l2.9574-1.7291 4.6311 5.8946c5.5512 7.0658 5.479 6.0474 0.70115 9.887l-3.9299 3.1582zm-19.976-26.431c-17.868-21.533-19.159-24.012-13.453-25.823 2.7946-0.88696 2.6934-0.98861 18.113 18.207l14.082 17.53-5.7467 5.7467zm-132.5-82.668v-13.358l5.9381-0.0842c7.1311-0.10112 10.506 2.024 11.483 7.2308 1.3411 7.1489-2.9092 12.57-9.8551 12.57-3.4085 0-3.5657 0.15438-3.5657 3.5 0 2.8333-0.38095 3.5-2 3.5-1.9002 0-2-0.66667-2-13.358zm12.425-0.89159c1.6391-4.69-0.28071-8.25-4.4491-8.25-3.5455 0-5.4042 5.3355-3.5459 10.178 1.0211 2.661 6.8853 1.2467 7.995-1.9283zm-83.353-5.1481c-4.738-14.564-4.774-14.842-1.8587-14.421 1.7728 0.25594 2.6305 1.6583 4.3085 7.0447 2.799 8.9849 2.904 8.9969 5.6864 0.64982 3.1019-9.3056 4.1041-9.4784 6.8171-1.1756 3.0595 9.3633 3.3552 9.4056 5.8973 0.84244 2.0138-6.7836 2.4906-7.5419 4.7414-7.5419 1.5808 0 2.333 0.46039 2.0423 1.25-0.25312 0.6875-2.2031 6.7616-4.3333 13.498-4.3819 13.857-5.2709 14.596-7.8154 6.5021-3.7036-11.781-3.4778-11.684-6.4901-2.812-3.6958 10.885-4.2885 10.632-8.9955-3.8361zm32.6 10.355c-9.3898-7.3861 0.59016-22.009 11.256-16.494 7.5125 3.8849 5.777 9.537-2.9285 9.537-5.279 0-7 0.33868-7 1.3776 0 2.5251 2.8545 3.9053 6.9425 3.357 2.7938-0.37472 4.076-0.12872 4.4532 0.85436 1.3656 3.5586-8.5794 4.6277-12.724 1.3678zm10.143-11.707c-0.51265-2.7062-6.3763-2.9385-7.7839-0.3084-1.038 1.9395-0.83534 2.0584 3.5069 2.0584 3.8487 0 4.5538-0.28853 4.277-1.75zm8.8399 11.921c-3.9282-4.3406 0.08487-11.171 6.5632-11.171 4.3673 0 2.9319-2.3972-1.7964-3-5.0491-0.64372-5.4415-3.3546-0.55325-3.8222 8.0042-0.7656 9.4282 1.1415 10.507 14.072 0.46516 5.5747-2.1132 8.7385-3.6674 4.5-0.36666-1-0.72333-1-1.7833 0-1.9722 1.8606-7.3673 1.5238-9.27-0.57874zm9.9112-4.3799c0.85529-2.6948-0.73307-4.0386-3.8492-3.2565-3.155 0.79185-4.118 2.9213-2.1921 4.8472 1.8568 1.8568 5.2289 0.96896 6.0413-1.5907zm32.888 3.7541c-4.4135-4.4135-3.1764-13.503 2.2297-16.382 6.7663-3.6038 13.316 0.75048 13.316 8.8527 0 8.8826-9.5613 13.514-15.545 7.5294zm9.3454-2.7454c1.3724-1.3724 1.5849-7.6446 0.32618-9.6301-1.5981-2.5209-6.4716-0.98967-7.416 2.3301-1.7502 6.1521 3.1708 11.219 7.0898 7.3zm10.2-4.8c0-8.2222 0.26667-10 1.5-10 0.825 0 1.5 0.46583 1.5 1.0352 0 0.71358 0.60093 0.71358 1.9343 0 6.9437-3.7161 11.236 0.1961 11.85 10.8l0.47264 8.1646h-2.6285c-2.6053 0-2.6285-0.0664-2.6285-7.5314 0-8.1726-0.73791-9.2532-5.5022-8.0574-2.3852 0.59865-2.4978 0.96394-2.4978 8.1078 0 6.8143-0.17823 7.481-2 7.481-1.8667 0-2-0.66667-2-10zm58.435 8.6918c-0.2761-0.71952-0.37448-6.682-0.21861-13.25l0.28339-11.942 4.4198-0.31579c10.481-0.74889 15.519 4.3685 11.97 12.158-1.2972 2.847-4.7709 4.6573-8.9368 4.6573-2.8769 0-2.953 0.12882-2.953 5 0 4.9902-3.1034 7.5001-4.5648 3.6918zm10.631-13.727c4.2474-2.2731 1.389-7.9648-4-7.9648-1.7816 0-2.0657 0.61893-2.0657 4.5 0 4.8452 1.6865 5.8085 6.0657 3.4648zm10.389 12.581c-3.6263-3.6263-3.5245-11.649 0.19147-15.093 8.1619-7.5642 19.565 2.7726 14.191 12.863-2.8409 5.3339-10.145 6.4664-14.382 2.2297zm9.4841-2.9716c0.65096-0.78435 1.0436-3.3718 0.87245-5.75-0.41225-5.7296-6.5464-6.7328-8.0954-1.3239-1.7933 6.2623 3.5519 11.497 7.2229 7.0739zm11.061-2.5739c0-6.6102-0.27334-8-1.5733-8-3.1704 0-1.038-3.4876 2.3315-3.8134l3.2418-0.31336v10.063c0 9.3967-0.13249 10.063-2 10.063-1.8333 0-2-0.66667-2-8zm10.345 6.4569c-0.8549-2.2278 0.29408-2.9378 4.2086-2.6006 4.8557 0.41835 4.5601-2.2475-0.53764-4.8482-9.0229-4.6031-3.2462-14.104 6.3391-10.425 2.6852 1.0304 0.61628 3.4172-2.9621 3.4172-4.5095 0-4.2779 1.2746 0.85699 4.7167 4.8809 3.2718 5.7876 6.2457 2.8115 9.2218-2.5548 2.5548-9.8005 2.9052-10.716 0.51836zm17.453-1.5046c-5.9691-5.9691-1.6784-16.952 6.6225-16.952 6.8125 0 10.909 6.4411 8.5813 13.493-2.337 7.0813-9.868 8.7946-15.204 3.4588zm10.166-2.8865c2.5162-4.7015 0.66969-10.066-3.4648-10.066-3.0615 0-4.5 1.918-4.5 6 0 5.7162 5.562 8.5554 7.9648 4.0657zm9.7364 5.3022c-2.8637-2.8637-0.17495-20.836 2.7535-18.405 0.93983 0.77999 1.5697 0.8069 2.0152 0.0861 3.881-6.2796 11.53 0.98554 11.53 10.951 0 7.3333-0.16667 8-2 8-1.7576 0-2-0.66667-2-5.5 0-8.8953-0.87384-10.766-4.8173-10.31-2.5919 0.29943-2.6997 0.56364-3.1827 7.8005-0.48228 7.2251-1.9434 9.7326-4.2988 7.3773zm-114.7-10.368c0-2.4824 8.3944-3.0205 9.3241-0.59777 0.79886 2.0818-0.19239 2.5978-4.9908 2.5978-3.6667 0-4.3333-0.30769-4.3333-2zm67.701-11.632c-1.7144-1.7144-0.68248-4.5043 1.5488-4.1874 1.4709 0.2089 2.25 1.0073 2.25 2.3058 0 1.9836-2.4722 3.2081-3.7988 1.8816zm-243.78 358.63c0.04912-332.58-0.19372-419.02-1.1774-419.11-0.6816-0.0579-3.1514-0.17043-5.4885-0.25l-4.2492-0.14467-7.98e-4 419.25-7.99e-4 419.25h10.855zm642.33 0.25c0.16851-278.3-0.0818-419-0.74646-419.48-0.55-0.40317-2.9673-0.62817-5.3717-0.5l-4.3717 0.23303 0.0624 408c0.0344 224.4 0.0891 413.06 0.1217 419.25l0.0593 11.25h9.9929zm-84.493-328.75c31.486-7.4236 51.231-39.777 43.271-70.9-14.637-57.231-95.687-58.661-112.33-1.9813-12.351 42.052 26.396 82.941 69.063 72.881zm-26.489-6.0376c-36.985-9.9606-50.582-57.209-24.398-84.785 27.678-29.151 77.556-16.703 87.601 21.862 9.8504 37.818-25.551 73.063-63.203 62.923zm33.483-6.3882c46.219-22.08 31.079-91.126-19.966-91.059-42.53 0.0556-63.973 50.474-34.515 81.152 14.368 14.964 35.757 18.853 54.482 9.9073zm-25.19-17.53c-9.2137-3.3585-13.936-10.285-13.323-19.541 0.33372-5.0378 15.212-33.304 18.648-35.427 2.3592-1.458 19.117 30.18 19.117 36.092 0 13.702-12.388 23.27-24.442 18.876zm-487.74-53.462c2.577-1.0568 5.2319-2.0693 5.8999-2.25 0.83881-0.22686 0.5527-1.3713-0.92487-3.6996-1.7679-2.7857-2.3261-3.118-3.2145-1.9133-5.0532 6.8515-19.326 4.6258-21.62-3.3714-2.907-10.136 12.652-17.328 20.502-9.4776l2.234 2.234 2.1634-3.3003c1.7065-2.6033 1.8512-3.3003 0.68502-3.3003-0.81312 0-3.4048-1.0055-5.7592-2.2344-11.955-6.2401-27.781 1.2393-27.781 13.129 0 12.802 13.9 19.89 27.815 14.183zm19.394-3.5785-0.4561-5.5h13.495l-0.4561 5.5-0.45611 5.5h4.3323c3.9972 0 5.577-1.1127 3.4479-2.4285-1.0468-0.64697-0.88521-19.538 0.1818-21.252 0.97131-1.5602-0.0708-2.0284-4.2595-1.9138l-3.462 0.0947 0.28758 4.75 0.28757 4.75h-13.302l0.28958-4.75 0.28957-4.75h-7.5156l-0.20625 12.751-0.20624 12.751 8.1646-0.00165zm31.382 3.75c-1.0373-3.3336 0.76346-4.3763 7.0025-4.0546 5.7569 0.29685 5.9024 0.3746 5.719 3.0546-0.18088 2.6421-1e-3 2.75 4.5833 2.75 5.3152 0 6.7796-0.75523 4.656-2.4011-2.5403-1.9688-11.617-20.262-10.936-22.039 0.55417-1.4441-0.019-1.6254-4.2372-1.3403-3.7714 0.2549-4.8193 0.68673-4.6191 1.9034 0.14246 0.86553-2.0966 6.2544-4.9758 11.975s-5.3957 10.739-5.5924 11.152 1.7352 0.75 4.2931 0.75c3.97 0 4.571-0.25613 4.1062-1.75zm3.4475-9.75c0.0182-0.55 0.63882-2.0934 1.3791-3.4297l1.3459-2.4297 1.6186 3.1301c2.092 4.0456 2.1227 3.9603-1.3791 3.8359-1.6488-0.0586-2.9828-0.55648-2.9646-1.1065zm44.29 9.4567c2.8816-2.2666 3.4658-4.6873 3.9112-16.207l0.2997-7.75-7.0389-0.00101 0.34628 8.9144c0.40527 10.433-1.393 12.957-8.3068 11.66-4.6565-0.87357-7.8777-14.051-4.4456-18.187 1.3477-1.6239-0.0623-2.3645-4.2074-2.2099l-3.3865 0.12636 0.33188 9.5983c0.4788 13.848 2.2564 15.915 13.783 16.035 4.7102 0.0488 6.7119-0.40605 8.7128-1.9799zm16.672 1.0433c0-0.55-0.45-1-1-1-0.57677 0-0.99053-3.0684-0.97762-7.25l0.0224-7.25 4.1765 7.75c5.0675 9.4035 4.7738 9.38 9.4702 0.75669 2.0947-3.8463 4.1598-6.9963 4.589-7 1.0524-9e-3 0.64381 11.922-0.43106 12.586-2.0823 1.2869-0.50033 2.4069 3.4007 2.4077l4.25 8.3e-4 -0.20647-12.751-0.20648-12.751-4.4714-0.11759c-3.5391-0.0931-4.45 0.21969-4.3687 1.5 0.1812 2.8549-6.4094 13.456-7.4281 11.948-2.3362-3.4579-5.8051-10.917-5.5755-11.989 0.16979-0.79288-1.3631-1.2228-4.5285-1.27l-4.7851-0.0714-0.21486 12.751-0.21485 12.751 4.25-8.3e-4c2.3375-4.9e-4 4.25-0.45086 4.25-1.0009zm51.035-0.51819c3.4502-1.7842 3.8051-3.0577 4.1809-15.005l0.28389-9.0236h-7l0.34335 8.6088c0.41898 10.505-0.79639 12.476-7.1666 11.622-5.2627-0.70588-5.7396-1.7108-5.5452-11.683l0.16566-8.5h-7.5944l0.21294 8.8541c0.37456 15.574 9.3657 21.723 22.119 15.128zm17.191-3.4818c-0.48029-4.9985-0.47954-5 2.5281-5 3.4834 0 8.6716 5.7272 7.6351 8.4282-0.50418 1.3138 0.31691 1.5718 5.0038 1.5718 3.0838 0 5.607-0.45 5.607-1s-0.44718-1-0.99373-1-2.3636-1.891-4.0378-4.2022l-3.0441-4.2022 2.5839-1.3538c5.3776-2.8176 5.0912-10.115-0.50826-12.948-4.7589-2.4071-26.173-1.3729-22.215 1.0729 0.83335 0.51504 0.65632 15.894-0.24039 20.883-0.47679 2.6526-0.34094 2.75 3.8339 2.75h4.3282zm0.16442-11.425c-1.3298-3.4655 0.30199-4.6482 5.7326-4.1547 9.1885 0.835 9.2267 4.181 0.0591 5.17-4.1496 0.44769-5.3082 0.24457-5.7916-1.0153zm30.88 12.136c-0.79931-7.0914 1.8033-8.1528 6.5079-2.6539 2.0467 2.3922 3.589 4.933 3.4274 5.6464-0.21341 0.94192 1.2236 1.2969 5.25 1.2969 3.0491 0 5.5431-0.1125 5.5422-0.25s-2.9259-3.3507-6.5-7.1404c-7.8614-8.3356-7.8304-7.4234-0.43927-12.916 6.6761-4.9611 6.6474-5.4233-0.34476-5.5414-3.4588-0.0584-4.7064 0.28311-4.5 1.2317 0.25457 1.1698-1.3759 2.8074-7.5519 7.5847-1.7342 1.3414-1.8204 1.1433-1.5334-3.5237l0.30409-4.9451h-7.5187l-0.41446 25.502 8.2543-0.00165zm38.928-1.6373c-0.42421-5.8647 6.2758-18.073 9.9185-18.073 0.55032 0 0.72246-0.45 0.38254-1-1.006-1.6278-10.823-1.2839-10.193 0.35705 0.53945 1.4058-2.4813 6.8081-3.8068 6.8081s-4.3462-5.4023-3.8068-6.8081c0.62969-1.6409-9.1872-1.9848-10.193-0.35705-0.33992 0.55-0.22827 1 0.24811 1 3.3042 0 10.478 13.259 10.039 18.554l-0.45164 5.4461h8.2922zm-303.87-9.9096c0.66957-3.2506 5.5496-12.117 9.9301-18.041l3.2367-4.3776-11.461-10.862c-14.217-13.474-13.463-14.171-13.845 12.797-0.32351 22.806 8.5698 37.812 12.139 20.483zm640.67-19.855c8.3e-4 -28.247 0.71558-27.513-13.215-13.582l-10.987 10.987 3.589 4.9956c3.1492 4.3834 5.5837 9.1617 9.33 18.312 0.91612 2.2376 1.6091 2.519 6.1572 2.5l5.1249-0.02142zm-310.93-10.809 15.031-7.5h21.641l0.1268-5.5 0.12679-5.5h-31.576l-1.2022 4.4948c-5.1596 19.291-35.069 17.974-39.617-1.7448l-0.63423-2.75h-30.962v10.998l21.84-0.27387 14.83 7.4632c8.1565 4.1048 14.95 7.5418 15.097 7.6379 0.147 0.0961 7.0311-3.2003 15.298-7.3253zm-311.77 4.4187c3.0592-2.8834 12.264-8.2018 17.958-10.376l4.75-1.8139v-10.728h-22.309c-29.207 0-28.814-0.27369-16.591 11.545 5.0933 4.9251 10.192 9.9196 11.33 11.099 2.6287 2.7235 2.2837 2.7041 4.8616 0.27428zm607.23-9.8956c13.893-13.707 14.614-13.023-13.72-13.023h-22.8l0.0246 10.5 6.8837 2.7861c3.786 1.5323 9.293 4.5498 12.238 6.7055 2.9447 2.1557 5.5552 3.9394 5.8013 3.9639 0.24603 0.0245 5.4539-4.8951 11.573-10.932zm-306.3 1.9329c6.2608-1.7388 12.781-8.8421 12.781-13.924 0-0.67032-6.158-1.0321-17.567-1.0321h-17.567l0.69859 2.25c2.8771 9.2665 12.889 15.141 21.655 12.706zm-60.219-3.9339v-11.022h-215v11c71.682-0.82238 143.31-0.30337 215 0.02205zm326-3.9359c0-2.1574 0.27314-4.6344 0.60699-5.5044 0.55119-1.4364-9.3314-1.5818-107.5-1.5818h-108.11v10.973l215 0.0356z"/>
</svg>
