<?xml version="1.0" encoding="UTF-8"?>
<!-- Created with Inkscape (http://www.inkscape.org/) -->
<svg width="822" height="1122" version="1.1" viewBox="0 0 822 1122" xmlns="http://www.w3.org/2000/svg">
 <path d="m88 1e3c-1.7-0.76-4.3-3.1-5.8-5.2l-2.6-3.8v-935l2.1-3.7c1.2-2 3.4-4.5 4.9-5.4 2.6-1.5 27-1.7 324-1.7h321l7.8 7.8v939l-7.9 8.4-320 0.21c-270 0.18-320 0-323-1.2zm47-7.2-0.3-5.7-5.9-2.3c-3.2-1.2-8.9-4.5-13-7.2l-6.8-4.9-11 11c-15 15-16 14 15 15l22 0.063zm218 0.61c0.19-2.8 0.16-5.3-0.07-5.5-0.23-0.23-49-0.42-108-0.42h-107v11h215zm35 1.6c3.8-21 34-21 40-1.2l1.2 4.1 31 0.55v-11h-21l-31-15-32 15h-22v3.9c0 7.4-0.51 7.1 17 7l15-0.099zm37-0.041c-2.8-14-23-17-31-4.6-4.9 7.3-4.5 7.6 15 7.6h17zm254-2.2 0.28-5.2h-216v11l215-0.51zm-60 4.2c0-0.28 0.22-0.5 0.5-0.5s0.5 0.22 0.5 0.5-0.22 0.5-0.5 0.5-0.5-0.22-0.5-0.5zm110 0.89c3-1.2 2.1-2.3-16-20l-5.1-4.8-4.9 3.7c-2.7 2.1-7.8 5.1-11 6.7s-7.1 3.3-7.9 3.7c-1.3 0.68-1.6 2.6-1.2 8.9l0.13 2.2h22c12 0 23-0.27 24-0.61zm5.3-29 0.27-24h-11l-1.7 5.5c-0.96 3-3.9 8.7-6.6 13-2.7 3.9-4.9 7.1-4.9 7.3 0 0.9 22 22 22 22 0.62-0.1 1.1-9 1.3-24zm-639 13c5.8-5.6 11-10 11-11 0.5-0.18-0.86-2.6-3-5.3-4.1-5.2-10-17-10-19 0-1.3-1.2-1.6-6-1.6h-6v22c0 30-0.93 29 14 15zm297-5.8 16-8 32 16 120 0.11c119 0.11 120 0.085 126-2 13-4.5 24-15 31-28l4.2-8.5v-802l-22-0.56-1.2 6.3c-13 68-107 66-122-3.4l-0.56-2.8h-480v799l2.2 6.7c4.6 14 18 28 32 33l6.2 2.3 241 0.036zm-275-415c-2.9-1.5-5.4-4-7.4-7.2l-3-4.8-0.29-159c-0.21-112 0.024-160 0.8-162 1.3-4.5 6.1-10 10-12 3.7-2 572-3.1 580-1.2 4.7 1.2 11 6.3 12 11 2.1 4.9 2 323-0.064 327-1.9 3.7-7.5 8.9-11 10-2 0.74-90 1.1-290 1.1h-287zm581-1.7c12-4.3 11-2.4 11-92l6e-3 -158c-4.2e-4 -105 9-93-70-93h-460c-79 0-70-12-70 94l2e-5 156c-0.34 89-0.6 86 9.2 92 4.9 3 576 2.2 579 0.83zm-323-13c-54-7.3-67-68-16-77l3.2-0.63-0.3 6.7c-0.3 6.7-0.31 6.7-4.2 8.7-36 18 4.2 52 50 41 37-8.7 48-56 19-77l-5.1-3.7 3.5-2.4c13-8.5 34 27 31 51-5.4 38-38 60-80 54zm13-44c-25-6.6-32-39-12-54l4-2.9 8 1.5c8 1.5 13 1.4 23-0.69 18-3.4 27 29 14 45-8.2 9.6-24 14-37 11zm73-13c-0.96-0.26-1.8-1.3-1.8-2.3 0-0.98-0.28-3.8-0.63-6.4l-0.63-4.6 4-1.1c20-5.4 31-44 22-75-3.3-11-13-16-20-12-3.6 2.1-4 1.9-4-2.2 0.051-13 21-11 30 2.5 22 35 1.7 109-28 101zm-25-7.6c-2.2-1.1-3.4-12-1.5-14 1.6-1.6 4.3 2.4 5 7.4 0.81 6.5 0.028 7.8-3.4 6.1zm14-34c-10-9.7-12-16-7.4-22l3.4-4 0.038 5.8c0.046 7.1 1.7 11 6.7 17 6.7 7.4 6.9 7.8 4.4 7.8-1.2 0-4.4-2.1-7.2-4.8zm-64-2.8c-21-5.9-40-26-46-48-1.7-6.5-2.1-13-0.84-12 24 12 87 13 111 1.6l5.9-3-0.72 5.3c-5 37-39 65-69 56zm-8.1-55c-8-0.8-22-4.6-21-5.4 8-4.5 37-7.1 54-5 9.9 1.2 26 4.4 27 5.4 3 3-43 6.8-61 5zm-34-5c-7.2-3.8-8.4-7.7-3.9-12 3.6-3.3 4.9-3.1 2.3 0.43-2.6 3.5-2 6.3 2.4 10 3.5 3.2 3.4 3.4-0.84 1.2zm106-2.5c2.5-2.7 3-7.6 1-9.7-1-1.1-0.86-1.1 0.98-0.18 5.1 2.6 4.6 7.8-0.93 11l-3.3 1.7zm-105-1.1c-7.1-7.6 8.4-14 37-16l10-0.66 1.5 4.4c2.4 7 8.1 6.6 9.4-0.7l0.66-3.5 5.7 0.52c3.1 0.28 8.6 0.78 12 1.1 19 1.7 31 8.5 26 14-3 3.2-5.2 3.1-21-0.84-22-5.6-58-4.5-73 2.2-5.7 2.5-6.4 2.5-9.1-0.31zm51-14c-0.36-1.6-0.037-4.3 0.75-6.2l1.4-3.4 1.3 3.8c1.4 4.3 0.74 8.7-1.4 8.7-0.77 0-1.7-1.3-2-2.9zm-4.3-23c-8.3-7.5-42-50-41-52 0.56-0.69 1.5-1.2 2.2-1.2 1.2 0 33 40 38 46 5.1 8.1 7.2 12 6.9 12-0.18-0.024-2.7-2.2-5.6-4.8zm-49-54c-6.2-7.1-6.3-9.7-0.69-13l3-1.7 4.6 5.9c5.6 7.1 5.5 6 0.7 9.9l-3.9 3.2zm-20-26c-18-22-19-24-13-26 2.8-0.89 2.7-0.99 18 18l14 18-5.7 5.7zm-233 260c0.049-333-0.19-419-1.2-419-0.68-0.058-3.2-0.17-5.5-0.25l-4.2-0.14-8e-4 419-8e-4 419h11zm642 0.25c0.17-278-0.082-419-0.75-419-0.55-0.4-3-0.63-5.4-0.5l-4.4 0.23 0.062 408c0.034 224 0.089 413 0.12 419l0.059 11h10zm-84-329c31-7.4 51-40 43-71-15-57-96-59-112-2-12 42 26 83 69 73zm-26-6c-37-10-51-57-24-85 28-29 78-17 88 22 9.9 38-26 73-63 63zm33-6.4c46-22 31-91-20-91-43 0.056-64 50-35 81 14 15 36 19 54 9.9zm-25-18c-9.2-3.4-14-10-13-20 0.33-5 15-33 19-35 2.4-1.5 19 30 19 36 0 14-12 23-24 19zm-488-53c2.6-1.1 5.2-2.1 5.9-2.2 0.84-0.23 0.55-1.4-0.92-3.7-1.8-2.8-2.3-3.1-3.2-1.9-5.1 6.9-19 4.6-22-3.4-2.9-10 13-17 21-9.5l2.2 2.2 2.2-3.3c1.7-2.6 1.9-3.3 0.69-3.3-0.81 0-3.4-1-5.8-2.2-12-6.2-28 1.2-28 13 0 13 14 20 28 14zm19-3.6-0.46-5.5h13l-0.91 11h4.3c4 0 5.6-1.1 3.4-2.4-1-0.65-0.89-20 0.18-21 0.97-1.6-0.071-2-4.3-1.9l-3.5 0.095 0.58 9.5h-13l0.58-9.5h-7.5l-0.41 26 8.2-2e-3zm31 3.8c-1-3.3 0.76-4.4 7-4.1 5.8 0.3 5.9 0.37 5.7 3.1-0.18 2.6-1e-3 2.8 4.6 2.8 5.3 0 6.8-0.76 4.7-2.4-2.5-2-12-20-11-22 0.55-1.4-0.019-1.6-4.2-1.3-3.8 0.25-4.8 0.69-4.6 1.9 0.14 0.87-2.1 6.3-5 12s-5.4 11-5.6 11 1.7 0.75 4.3 0.75c4 0 4.6-0.26 4.1-1.8zm3.4-9.8c0.018-0.55 0.64-2.1 1.4-3.4l1.3-2.4 1.6 3.1c2.1 4 2.1 4-1.4 3.8-1.6-0.059-3-0.56-3-1.1zm44 9.5c2.9-2.3 3.5-4.7 3.9-16l0.3-7.8-7-1e-3 0.35 8.9c0.41 10-1.4 13-8.3 12-4.7-0.87-7.9-14-4.4-18 1.3-1.6-0.062-2.4-4.2-2.2l-3.4 0.13 0.33 9.6c0.48 14 2.3 16 14 16 4.7 0.049 6.7-0.41 8.7-2zm17 1c0-0.55-0.45-1-1-1-0.58 0-0.99-3.1-0.98-7.2l0.022-7.2 4.2 7.8c5.1 9.4 4.8 9.4 9.5 0.76 2.1-3.8 4.2-7 4.6-7 1.1-9e-3 0.64 12-0.43 13-2.1 1.3-0.5 2.4 3.4 2.4l4.2 8.3e-4 -0.41-26-4.5-0.12c-3.5-0.093-4.4 0.22-4.4 1.5 0.18 2.9-6.4 13-7.4 12-2.3-3.5-5.8-11-5.6-12 0.17-0.79-1.4-1.2-4.5-1.3l-4.8-0.071-0.43 26 4.2-8.3e-4c2.3-4.9e-4 4.2-0.45 4.2-1zm51-0.52c3.5-1.8 3.8-3.1 4.2-15l0.28-9h-7l0.34 8.6c0.42 11-0.8 12-7.2 12-5.3-0.71-5.7-1.7-5.5-12l0.17-8.5h-7.6l0.21 8.9c0.37 16 9.4 22 22 15zm17-3.5c-0.48-5-0.48-5 2.5-5 3.5 0 8.7 5.7 7.6 8.4-0.5 1.3 0.32 1.6 5 1.6 3.1 0 5.6-0.45 5.6-1s-0.45-1-0.99-1-2.4-1.9-4-4.2l-3-4.2 2.6-1.4c5.4-2.8 5.1-10-0.51-13-4.8-2.4-26-1.4-22 1.1 0.83 0.52 0.66 16-0.24 21-0.48 2.7-0.34 2.8 3.8 2.8h4.3zm0.16-11c-1.3-3.5 0.3-4.6 5.7-4.2 9.2 0.84 9.2 4.2 0.059 5.2-4.1 0.45-5.3 0.24-5.8-1zm31 12c-0.8-7.1 1.8-8.2 6.5-2.7 2 2.4 3.6 4.9 3.4 5.6-0.21 0.94 1.2 1.3 5.2 1.3 3 0 5.5-0.11 5.5-0.25s-2.9-3.4-6.5-7.1c-7.9-8.3-7.8-7.4-0.44-13 6.7-5 6.6-5.4-0.34-5.5-3.5-0.058-4.7 0.28-4.5 1.2 0.25 1.2-1.4 2.8-7.6 7.6-1.7 1.3-1.8 1.1-1.5-3.5l0.3-4.9h-7.5l-0.41 26 8.3-2e-3zm39-1.6c-0.42-5.9 6.3-18 9.9-18 0.55 0 0.72-0.45 0.38-1-1-1.6-11-1.3-10 0.36 0.54 1.4-2.5 6.8-3.8 6.8s-4.3-5.4-3.8-6.8c0.63-1.6-9.2-2-10-0.36-0.34 0.55-0.23 1 0.25 1 3.3 0 10 13 10 19l-0.45 5.4h8.3zm-304-9.9c0.67-3.3 5.5-12 9.9-18l3.2-4.4-11-11c-14-13-13-14-14 13-0.32 23 8.6 38 12 20zm641-20c8.3e-4 -28 0.72-28-13-14l-11 11 3.6 5c3.1 4.4 5.6 9.2 9.3 18 0.92 2.2 1.6 2.5 6.2 2.5l5.1-0.021zm-311-11 15-7.5h22l0.25-11h-32l-1.2 4.5c-5.2 19-35 18-40-1.7l-0.63-2.8h-31v11l22-0.27 15 7.5c8.2 4.1 15 7.5 15 7.6s7-3.2 15-7.3zm-312 4.4c3.1-2.9 12-8.2 18-10l4.8-1.8v-11h-22c-29 0-29-0.27-17 12 5.1 4.9 10 9.9 11 11 2.6 2.7 2.3 2.7 4.9 0.27zm607-9.9c14-14 15-13-14-13h-23l0.025 10 6.9 2.8c3.8 1.5 9.3 4.5 12 6.7 2.9 2.2 5.6 3.9 5.8 4 0.25 0.024 5.5-4.9 12-11zm-306 1.9c6.3-1.7 13-8.8 13-14 0-0.67-6.2-1-18-1h-18l0.7 2.2c2.9 9.3 13 15 22 13zm-60-3.9v-11h-215v11c72-0.82 143-0.3 215 0.022zm326-3.9c0-2.2 0.27-4.6 0.61-5.5 0.55-1.4-9.3-1.6-108-1.6h-108v11l215 0.036z"/>
 <g fill="#000000" font-family="Sans" stroke="#000000" stroke-linejoin="round">
  <text x="111.68394" y="220.00517" font-size="43px" xml:space="preserve"><tspan x="111.68394" y="190">Weapon - Poison</tspan></text>
  <text x="113.89637" y="616.74872" font-size="36px" xml:space="preserve"><tspan x="113.89637" y="616.74872">Play as part of your Battle Plan.</tspan><tspan x="113.89637" y="653.41534"/><tspan x="113.89637" y="690.08197">Kills enemy leader before the battle is </tspan><tspan x="113.89637" y="726.7486">resolved.</tspan><tspan x="113.89637" y="763.41522"/><tspan x="113.89637" y="800.08185">May be countered by an appropriate</tspan><tspan x="113.89637" y="836.74847">defense (Snooper).</tspan><tspan x="113.89637" y="873.4151"/><tspan x="113.89637" y="910.08173">You may keep this card if you win in</tspan><tspan x="113.89637" y="946.74835">this battle. </tspan></text>
 </g>
</svg>
