<?xml version="1.0" encoding="UTF-8"?>
<!-- Created with Inkscape (http://www.inkscape.org/) -->
<svg width="822" height="1122" version="1.1" viewBox="0 0 822 1122" xmlns="http://www.w3.org/2000/svg">
 <path d="m98.317 1033c-10.294-0.5605-13.234-1.9921-16.465-8.0166-2.811-5.2413-2.9097-934.37-0.09989-939.96 0.96164-1.914 3.2806-4.5036 5.1531-5.7546l3.4047-2.2745 641.84 0.50918 6.8463 7.4706v939.22l-2.0788 2.9194c-4.6498 6.5301 23.271 5.9872-318.73 6.1979-170.88 0.1053-314.82-0.034-319.87-0.3086zm255.26-3.2469c0.13641-0.1392 0.38526-2.5031 0.553-5.2531l0.30498-5-215.43-0.509v5.4212c0 2.9816 0.44983 5.5711 0.99963 5.7545 1.1458 0.3821 213.2-0.029 213.58-0.4136zm376.17-0.338c3.648-0.7348 2.8125-1.9826-8.9932-13.432-10.571-10.252-11.363-10.816-13.25-9.4296-7.8917 5.7979-12.802 8.6989-17.542 10.364l-5.4651 1.9201-0.29924 5.5589-0.29924 5.5588 18.799 0.2723c18.225 0.2639 22.314 0.141 27.049-0.8127zm-593.75-4.9465c0-4.3755-0.3657-5.6552-1.75-6.1242-5.7157-1.9361-13.38-5.9575-17.994-9.441-6.2422-4.7129-4.5852-5.4541-19.032 8.5141-13.072 12.639-13.355 12.431 17.027 12.519l21.75 0.0634zm253 3.9916c0-9.5198 15.231-20.091 25.113-17.43 8.445 2.274 12.44 6.215 15.935 15.72l1.195 3.25h30.757v-11h-20.95l-15.337-7.601-15.337-7.6011-28.877 14.645-12 0.5284-12 0.5283-0.12576 3c-0.32587 7.7737-0.91825 7.5 16.234 7.5 13.192 0 15.392-0.2201 15.392-1.5398zm37.564-1.9566c-2.7245-13.935-22.984-16.907-31.285-4.5905-4.9826 7.3937-4.482 7.6516 14.796 7.6211l17.076-0.027zm254.3-2.0081 0.1269-5.5045-215.49 0.509-0.31663 3.8552c-0.17415 2.1203-0.0758 4.4828 0.21861 5.25 0.45325 1.1811 16.99 1.3948 107.94 1.3948h107.4zm-60.864 4.0045c0-0.275 0.225-0.5 0.5-0.5s0.5 0.225 0.5 0.5-0.225 0.5-0.5 0.5-0.5-0.225-0.5-0.5zm-511.97-25.322c0.49433-0.1771-0.94232-2.6512-3.1926-5.498-4.0791-5.1604-9.8412-16.405-9.8412-19.205 0-1.1361-1.3786-1.475-6-1.475h-6v22.066c0 29.396-0.62825 28.668 13.119 15.215 6.0588-5.9292 11.421-10.925 11.915-11.102zm628.07-2.7473 0.0651-22.931-10.776-0.58808-1.6912 5.294c-1.7034 5.3321-5.9617 13.128-9.7444 17.841l-2.0443 2.5466 11.286 11.161c13.727 13.575 12.826 14.505 12.905-13.324zm-342.77 8.0694c18.809-9.0184 14.757-9.0198 33.417 0.012l15.52 7.5117 243.33-0.5234 7.8971-3.9031c13.986-6.9127 25.522-21.152 28.483-35.159 0.71761-3.3946 0.96126-129.31 0.77966-402.94l-0.26414-398-22.143-0.56216-1.2333 6.7811c-11.896 65.41-111.47 64.533-120.91-1.0659l-0.74164-5.1533h-479.97l-0.50248 798.56 2.0744 6.2221c5.0377 15.111 16.324 26.997 31.595 33.276l5.8332 2.3984 241.19 0.048zm-268.11-50.057c-1.8728-1.3117-2.2225-2.492-2.2225-7.5 0-4.6163-0.33492-5.9433-1.5-5.9433-0.825 0-1.5-0.45-1.5-1s0.675-1 1.5-1c0.91545 0 1.5-0.93256 1.5-2.393 0-1.3162 0.675-2.652 1.5-2.9686 1.1257-0.43198 1.5 0.16509 1.5 2.393 0 2.4999 0.39476 2.9686 2.5 2.9686 1.375 0 2.5 0.45 2.5 1s-1.1475 1-2.5499 1c-3.6983 0-3.4118 11.292 0.2999 11.82 2.6503 0.37641 3.0669 3.1804 0.47251 3.1804-0.97763 0-2.7776-0.70052-4-1.5567zm37.444 0.89003c-1.4955-1.4955-0.44757-2.2342 3.5833-2.5258 5.4096-0.3914 5.4971-2.1856 0.25-5.1226-4.4199-2.474-5.5401-5.502-2.9818-8.0602 1.9776-1.9776 9.8745-2.2982 9.229-0.37465-0.23072 0.6875-1.9454 1.25-3.8104 1.25-4.8596 0-5.2111 2.9407-0.58272 4.8746 5.9978 2.506 7.0509 7.7606 1.9445 9.702-2.8402 1.0798-6.6796 1.209-7.6318 0.25673zm25.333-0.028-2.5-0.395-0.0752-12.495c-0.065-10.79 0.13696-12.454 1.4797-12.195 1.1772 0.22672 1.4801 1.3352 1.247 4.564l-0.30791 4.2645 4.1205-0.6589c9.3324-1.4923 13.058 12.546 4.3786 16.5-2.4284 1.1065-3.6006 1.1648-8.3427 0.41561zm8-3.3053c4.8853-4.8853 0.42092-13.88-5.541-11.163-2.1321 0.97144-2.459 1.7815-2.459 6.0922 0 6.8049 3.8351 9.236 8 5.0711zm9.5102 2.0113c-2.9178-3.2241-0.4557-7.1791 5.2624-8.4533 6.7752-1.5098 4.6001-5.5979-2.6041-4.8943-2.3159 0.22616-3.2067-0.054-2.9223-0.91913 0.66862-2.0334 8.6535-2.1452 10.856-0.15197 3.0845 2.7914 2.7934 15.425-0.35221 15.284-1.2375-0.0558-3.6103 0.21009-5.273 0.5908-2.3794 0.54484-3.4368 0.23492-4.9668-1.4557zm9.3062-4.2613c0.36294-3.1543-2.8935-3.8766-6.2878-1.3946-2.9165 2.1326-1.2668 4.8422 2.7145 4.4585 2.7154-0.26169 3.3095-0.77103 3.5733-3.0639zm12.245 4.3115c-1.5822-1.5822-2.0615-3.3401-2.0615-7.5615 0-4.2222-0.34848-5.5-1.5-5.5-0.825 0-1.5-0.45-1.5-1s0.675-1 1.5-1c0.93333 0 1.5-0.94444 1.5-2.5s0.56667-2.5 1.5-2.5 1.5 0.94444 1.5 2.5c0 2 0.5 2.5 2.5 2.5 1.375 0 2.5 0.45 2.5 1s-1.1475 1-2.5499 1c-3.7456 0-3.4042 11.294 0.35753 11.827 1.2692 0.17991 2.1319 0.85491 1.9171 1.5-0.67162 2.0173-3.5137 1.884-5.6633-0.26562zm13.189 0.40457c-1.9038-1.3364-2.25-2.494-2.25-7.5228 0-4.6163-0.33492-5.9433-1.5-5.9433-0.825 0-1.5-0.45-1.5-1s0.675-1 1.5-1c0.93333 0 1.5-0.94444 1.5-2.5s0.56667-2.5 1.5-2.5 1.5 0.94444 1.5 2.5c0 2 0.5 2.5 2.5 2.5 1.375 0 2.5 0.45 2.5 1s-1.1475 1-2.5499 1c-3.7456 0-3.4042 11.294 0.35753 11.827 1.2692 0.17991 2.1319 0.85491 1.9171 1.5-0.60508 1.8174-2.9972 1.8781-5.4748 0.13895zm22.75 0.85096c-6.2155-2.3684-8.1077-10.3-3.5454-14.862 4.5793-4.5793 12.545-2.0105 12.545 4.0454 0 2.3889-0.26667 2.5-6 2.5-4.3594 0-6 0.36778-6 1.345 0 2.4155 3.566 4.655 7.4121 4.655 2.5559 0 3.6236 0.39909 3.3442 1.25-0.44007 1.3406-5.2882 2.0075-7.7563 1.067zm6-11.617c0-3.4795-4.724-4.8331-7.4286-2.1286-2.5673 2.5673-1.8316 3.4286 2.9286 3.4286 3.0256 0 4.5-0.42593 4.5-1.3zm-134-0.2v-12.25c0-3.2689 2.5974 0.17037 3 3.9722 0.41252 3.8961 0.76243 4.5548 2 3.7653 2.6858-1.7134 6.7996-1.1117 8.4433 1.235 2.3351 3.3339 2.1855 14.777-0.1933 14.779-1.5051 2e-3 -1.7037-0.8167-1.4189-5.8474 0.39874-7.0437-1.2017-9.4152-5.5692-8.2526-2.625 0.6987-2.7765 1.0664-3.0576 7.4167-0.56476 12.762-3.2043 8.7925-3.2043-4.8184zm19.833 5c-0.0917-3.575-0.20416-7.2875-0.25-8.25-0.0458-0.9625 0.5819-1.75 1.395-1.75 1.1779 0 1.4959 1.6763 1.565 8.25 0.0651 6.1948-0.24086 8.25-1.2283 8.25-0.93471 0-1.3632-1.8798-1.4817-6.5zm95.167-5c0-6.325-0.0238-11.838-0.0528-12.25-0.0291-0.4125 0.64595-0.8955 1.5-1.0733 1.3386-0.27872 1.5528 1.4115 1.5528 12.25-2e-5 10.51-0.24622 12.573-1.5 12.573-1.2464 0-1.5-1.9444-1.5-11.5zm26.441 10.404c-1.2215-1.9764 1.9974-4.2861 3.4813-2.498 0.68761 0.82851 0.95989 1.9761 0.60508 2.5502-0.8452 1.3676-3.2277 1.3372-4.0864-0.0522zm-121.87-19.791c-0.68055-1.1012 1.8676-3.3423 2.772-2.438 0.36189 0.3619 0.65799 1.258 0.65799 1.9913 0 1.4897-2.5779 1.8254-3.43 0.44664zm80.97-15.048c-0.28778-0.46564 0.5979-1.5812 1.9682-2.4791 3.3559-2.1989 3.2372-5.9434-0.46403-14.641-2.7264-6.4068-2.8101-6.9452-1.0804-6.9452 1.379 0 2.3257 1.3888 3.5784 5.25 2.4767 7.634 3.169 7.7572 5.0746 0.90321 1.0047-3.6136 2.2622-6.1532 3.0468-6.1532 1.9174 0 1.6884 1.3394-1.5101 8.8324-1.5654 3.6672-3.4779 8.4164-4.25 10.554-1.3447 3.7225-5.2018 6.5588-6.3634 4.6793zm80.267-11.501-0.30715-12.436 4-0.12622c2.2-0.0694 5.1002-0.1405 6.4449-0.15795 3.9629-0.0514 6.9238 5.558 5.638 10.681-1.0416 4.1502-4.1228 6.4746-8.583 6.4746h-4v4c0 11.448-2.8903 3.8117-3.1928-8.4357zm10.99 1.1801c4.01-4.8318 1.429-12.089-4.1087-11.553-3.2146 0.3113-5.0679 6.7715-3.2796 11.432 0.66098 1.7225 5.987 1.81 7.3884 0.12147zm183.2 10.056c0-0.55685 1.125-1.8974 2.5-2.979 3.1084-2.4451 3.0961-3.8097-0.10188-11.321-3.6884-8.6636-3.8705-9.5-2.0685-9.5 0.99992 0 2.3484 2.1543 3.7435 5.9806 2.5614 7.0247 3.1385 6.9738 4.9156-0.43398 1.0209-4.2555 1.7621-5.5466 3.1843-5.5466 1.7703 0 1.7791 0.16866 0.19468 3.75-0.91247 2.0625-2.831 6.9-4.2634 10.75-3.1828 8.5545-8.1044 14.202-8.1044 9.3003zm-364.64-6.7919c-7.5656-3.0531-6.6549-15.462 1.2809-17.454 9.9541-2.4983 14.364 13.04 4.8308 17.023-1.8725 0.78238-3.5315 1.394-3.6866 1.3591-0.15517-0.0349-1.2465-0.45255-2.4251-0.92819zm7.0863-4.2309c4.264-6.0876-2.3911-14.83-7.4433-9.7775-3.8368 3.8368-1.4558 12 3.5 12 1.3326 0 3.0741-0.98151 3.9433-2.2225zm379.83 4.4453c-5.7175-0.9145-8.0882-10.451-3.7811-15.21 3.7203-4.1109 11.186-3.217 13.381 1.6023 3.2914 7.2239-2.0631 14.814-9.6004 13.608zm6.1734-4.4453c3.5846-5.1177 0.10825-12.519-5.225-11.124-5.9858 1.5653-4.8545 13.347 1.2816 13.347 1.3326 0 3.0741-0.98151 3.9433-2.2225zm-410.44-0.10801c0-4.1616-2.2235-9.703-6.3878-15.919-1.7935-2.6774-1.7926-2.75 0.0336-2.75 1.2455 0 2.9358 1.9135 5.0304 5.6947l3.1546 5.6947 2.7929-5.6947c1.8974-3.8688 3.3863-5.6947 4.6436-5.6947 1.0179 0 1.6162 0.37947 1.3295 0.84327-0.28665 0.46379-2.1132 3.209-4.059 6.1005-2.9645 4.4053-3.5378 6.1322-3.5378 10.657 0 4.1329-0.35187 5.3995-1.5 5.3995-1.1024 0-1.5-1.1478-1.5-4.3305zm34.213 3.0826c-1.4971-1.8113-2.0137-15.757-0.58365-15.754 0.66625 1e-3 1.3088 2.4765 1.566 6.0325 0.88049 12.173 8.8042 13.028 8.8042 0.95066 0-5.5386 0.30991-6.981 1.5-6.981 1.2122 0 1.4999 1.5832 1.4996 8.25l-4.1e-4 8.25-5.8754 0.25204c-3.7662 0.16156-6.2469-0.19743-6.9103-1zm25.787-7.2118v-8.4598l2.75-0.0376c2.5041-0.0343 6.4339 0.0165 11.75 0.15169 1.1 0.028 2.9629-0.19397 4.1398-0.49321 4.5208-1.1495 6.3602 1.7008 6.3602 9.8553 0 10.66-2.7752 10.827-3.2062 0.1933-0.48523-11.973-7.7938-11.155-7.7938 0.87242 0 9.7912-2.805 9.0279-3.2062-0.87244-0.48523-11.973-7.7938-11.155-7.7938 0.87244 0 5.0023-0.32347 6.3776-1.5 6.3776-1.2151 0-1.5-1.6066-1.5-8.4597zm30.199 7.2585c-3.1211-3.1211 0.64264-8.7987 5.8327-8.7987 3.341 0 5.1782-2.6205 2.8643-4.0856-0.76765-0.48607-3.0832-0.89066-5.1457-0.89908-3.6722-0.015-5.4484-1.9054-2-2.1286 9.8298-0.63634 11.25 0.63316 11.25 10.054l-4.1e-4 6.5589-5.8009 0.24872c-3.4951 0.14986-6.2773-0.22775-6.9996-0.95zm8.2195-1.4057c2.6882-1.0316 2.0118-5.393-0.83642-5.393-3.6458 0-5.5818 1.0198-5.5818 2.9403 0 2.955 2.5598 3.9333 6.4182 2.4527zm34.582-8.3112c0-6.005-0.27314-11.63-0.60699-12.5-0.39831-1.038-0.0545-1.5818 1-1.5818 1.3229 0 1.607 1.2373 1.607 7 0 7.8673 0.42929 8.2489 4.5 4 1.5808-1.65 3.8025-2.9831 4.9371-2.9624 1.7607 0.032 1.5235 0.50814-1.6192 3.25l-3.6821 3.2124 3.9294 4.5c4.3758 5.0112 4.7429 6.0143 2.1848 5.9691-0.9625-0.017-3.2651-2.042-5.1168-4.5-4.229-5.6136-5.1332-5.6081-5.1332 0.03092 0 2.475-0.45 4.5-1 4.5-0.60561 0-1-4.3061-1-10.918zm19.635 8.8456c-5.6048-4.4087-2.0863-15.927 4.8651-15.927 3.0343 0 7.5 4.0664 7.5 6.8296 0 2.018-3.3436 3.1704-9.1983 3.1704-2.2533 0-2.87 0.40662-2.6162 1.7249 0.44734 2.3228 4.6832 4.4111 8.0645 3.9756 1.7962-0.2313 2.75 0.10606 2.75 0.97267 0 2.2234-8.2812 1.68-11.365-0.74577zm9.3651-9.6277c0.275-0.25951-0.57714-1.3451-1.8936-2.4124-2.6942-2.1842-6.2687-0.85425-6.9496 2.5858-0.32439 1.6387 7.0768 1.4936 8.8433-0.17346zm8.9768 9.1756c-6.3056-6.712 1.1234-18.75 8.8737-14.379 6.6012 3.7228 5.2079 7.7948-2.9814 8.7132l-6.3691 0.7143 2.8235 2.8571c2.3477 2.3756 3.4008 2.7634 6.25 2.301 2.5705-0.41713 3.4265-0.197 3.4265 0.88108 0 2.7125-9.2383 1.8768-12.023-1.0875zm7.5148-8.352 2.9916-0.64005-2.219-2.219c-2.9195-2.9195-7.2008-1.4514-7.249 2.4857-0.0162 1.3235 1.5997 1.4167 6.4763 0.37331zm39.544 8.9424c-0.56935-1.0638-1.0352-4.2138-1.0352-7 0-3.8362-0.36407-5.0657-1.5-5.0657-0.825 0-1.5-0.675-1.5-1.5s0.675-1.5 1.5-1.5c0.93333 0 1.5-0.94444 1.5-2.5s0.56667-2.5 1.5-2.5 1.5 0.94444 1.5 2.5c0 2 0.5 2.5 2.5 2.5 1.5556 0 2.5 0.56667 2.5 1.5s-0.94444 1.5-2.5 1.5c-2.3626 0-2.5 0.30127-2.5 5.481 0 5.0124 0.21374 5.5346 2.5 6.1084 3.4431 0.86416 3.1449 2.4106-0.46482 2.4106-1.9078 0-3.3339-0.68962-4-1.9343zm10.965-8.984c0-6.005-0.27314-11.63-0.60699-12.5-0.42236-1.1007-0.02854-1.5818 1.2948-1.5818 1.5754 0 1.8941 0.72356 1.857 4.2165l-0.0448 4.2164 4.889-0.30053c6.098-0.37485 6.576 0.32217 6.5957 9.6176 0.0122 5.8032-0.28577 7.25-1.4934 7.25-1.2351 0-1.3948-0.9691-0.88077-5.343 0.98273-8.3615-2.0096-11.655-7.7828-8.5648-1.8499 0.99002-1.9766 1.692-1.3547 7.5 0.58496 5.4622 0.45313 6.4078-0.89338 6.4078-1.343 0-1.5796-1.6353-1.5796-10.918zm19.667 10.252c-1.4904-1.4904-0.73306-16.333 0.83333-16.333 1.2157 0 1.5 1.6111 1.5 8.5 0 7.8017-0.54277 9.6239-2.3333 7.8333zm7.3333-0.77046c0-1.0518 0.87137-1.3102 3.25-0.96374 6.8944 1.0042 7.29-2.2627 0.68215-5.6337-7.7992-3.9789-4.3238-9.8651 5.3769-9.1068 3.2163 0.25142 0.68503 2.1414-2.868 2.1414-4.9982 0-4.6793 3.0687 0.55902 5.3799 4.2206 1.8621 5.5026 5.7175 2.8 8.4201-1.7697 1.7697-9.8 1.5754-9.8-0.23713zm25.018-1.0434c-3.3233-3.5375-3.2627-8.7297 0.14175-12.134 2.7708-2.7708 8.8042-3.8022 9.5667-1.6354 0.29699 0.84395-0.68435 1.25-3.021 1.25-4.119 0-6.0391 1.9741-6.0391 6.2091 0 4.1242 3.6488 7.1778 7.6263 6.3823 2.0256-0.40511 2.7479-0.20908 2.4596 0.66753-0.83766 2.5475-8.1175 2.0461-10.734-0.73944zm15.18 1.2792c-3.3132-3.3132 0.40547-8.7987 5.9648-8.7987 1.4952 0 3.0088-0.46971 3.3636-1.0438 1.189-1.9238-1.7133-3.9562-5.6495-3.9562-3.7495 0-5.6694-1.8963-2.1276-2.1013 9.6067-0.55618 11.162 0.84318 11.076 9.9661l-0.0626 6.6352-5.6828 0.24872c-3.4042 0.14899-6.1635-0.23192-6.8816-0.95zm8.2195-1.4057c2.6882-1.0316 2.0118-5.393-0.83642-5.393-3.6458 0-5.5818 1.0198-5.5818 2.9403 0 2.955 2.5598 3.9333 6.4182 2.4527zm9.5681-3.5597c-8e-3 -3.4833-0.285-7.3458-0.61664-8.5833-0.44329-1.6541-0.17484-2.25 1.0137-2.25 0.88915 0 1.6166 0.54 1.6166 1.2 0 0.93333 0.26667 0.93333 1.2 0 1.4493-1.4493 6.8-1.6066 6.8-0.2 0 0.55-1.0699 1-2.3776 1-3.4357 0-4.4706 1.8171-4.8161 8.4556-0.44107 8.4756-2.8018 8.7918-2.82 0.37775zm15.413 5.3894c-6.9554-4.5689-2.9673-16.522 5.4737-16.405l4.2692 0.0589-0.31666-3.6755c-0.22798-2.6462 0.10209-3.7556 1.1787-3.9614 1.2619-0.24125 1.4954 1.6427 1.4954 12.066v12.351l-5.5 0.14445c-3.025 0.0795-5.9951-0.18079-6.6003-0.57831zm8.0185-1.8298c2.5011-0.95977 2.215-10.984-0.35274-12.358-2.3749-1.271-6.5227 0.10816-7.4291 2.4701-2.4583 6.4064 2.0213 12.098 7.7818 9.8878zm17.248 1.9403c-1.4904-1.4904-0.73306-16.333 0.83333-16.333 1.2157 0 1.5 1.6111 1.5 8.5 0 7.8017-0.54277 9.6239-2.3333 7.8333zm9.3333-6.2167c0-6.0424-0.24436-6.9473-2-7.4064-1.1-0.28766-2-1.0151-2-1.6166s0.9-1.0936 2-1.0936c1.4667 0 2-0.66667 2-2.5 0-2.9571 3.4464-6.7542 5.7286-6.3115 2.5566 0.49595 2.613 2.6252 0.079 2.9844-3.1935 0.45267-3.9997 5.8271-0.87405 5.8271 1.1702 0 2.0664 0.65059 2.0664 1.5 0 0.83333-0.88889 1.5-2 1.5-1.8095 0-2 0.66667-2 7 0 5.5556-0.30952 7-1.5 7-1.1881 0-1.5-1.4315-1.5-6.8834zm57.199 5.6821c-1.878-1.878-1.6125-15.799 0.30128-15.799 1.1765 0 1.5 1.3753 1.5 6.3776 0 7.1866 1.3761 9.2468 5.487 8.2151 2.3838-0.59829 2.513-0.9897 2.513-7.6117 0-5.5386 0.30991-6.981 1.5-6.981 1.2122 0 1.4999 1.5832 1.4996 8.25l-4.1e-4 8.25-5.8009 0.24872c-3.4951 0.14986-6.2773-0.22775-6.9996-0.95zm29.671-1.5487c-1.415-3.6005-4.8698-13.466-4.8698-13.907 0-2.5544 3.036 0.98098 4.4731 5.2089 2.5064 7.3736 2.9195 7.4076 5.0368 0.41492 2.4051-7.9435 4.362-7.9342 6.9076 0.0327 2.3745 7.4314 2.661 7.4313 4.8452-1e-3 1.2007-4.0859 2.2711-5.9986 3.357-5.9986 1.1047 0 1.3902 0.53733 0.92989 1.75-6.6155 17.426-6.6828 17.5-9.6007 10.5-1.089-2.6125-2.3519-5.6408-2.8065-6.7296-0.67115-1.6075-1.2475-0.71462-3.066 4.75-2.4418 7.3377-3.5531 8.1871-5.2066 3.9796zm24.13-5.75c0-6.8889 0.28431-8.5 1.5-8.5s1.5 1.6111 1.5 8.5-0.28431 8.5-1.5 8.5-1.5-1.6111-1.5-8.5zm8 0.0403v-8.4598l2.75 8e-3c1.5125 4e-3 4.3111-0.0412 6.2191-0.10091 4.7807-0.14948 6.0309 1.9659 6.0309 10.204 0 5.3857-0.31353 6.8089-1.5 6.8089-1.1746 0-1.5-1.3667-1.5-6.3 0-6.6817-1.0439-8.7-4.5-8.7s-4.5 2.0183-4.5 8.7c0 4.9333-0.3254 6.3-1.5 6.3-1.2151 0-1.5-1.6066-1.5-8.4597zm27.823-0.0426c-0.27676-7.2745-0.0916-8.502 1.2821-8.5 1.3449 2e-3 1.6119 1.3823 1.6447 8.5023 0.0558 12.143-2.4648 12.141-2.9268-2e-3zm8.1765 1.5841c0-3.805-0.23526-7.5313-0.5228-8.2806-0.40645-1.0592 1.0476-1.4097 6.534-1.5751 8.4241-0.25391 9.0264 0.86269 8.103 15.024-0.34918 5.355-2.6141 1.1283-2.6141-4.8783 0-7.4137-1.2677-9.1488-5.8452-7.9999-2.5559 0.64148-2.6548 0.92636-2.6548 7.6472 0 5.5386-0.30991 6.981-1.5 6.981-1.1888 0-1.5-1.4354-1.5-6.9182zm-270.47-14.029c-0.87924-1.4226 0.24199-3.0528 2.0997-3.0528 0.87615 0 1.378 0.70256 1.191 1.6671-0.38952 2.0085-2.3862 2.8492-3.2907 1.3857zm106 0c-0.87924-1.4226 0.24199-3.0528 2.0997-3.0528 0.87615 0 1.378 0.70256 1.191 1.6671-0.38952 2.0085-2.3862 2.8492-3.2907 1.3857zm121.15 0.30138c-1.4155-1.4155-0.61453-3.3542 1.3858-3.3542 1.398 0 1.968 0.54305 1.75 1.6671-0.35694 1.8405-2.064 2.7589-3.1358 1.687zm35.312-1.3542c0-1.1111 0.66667-2 1.5-2s1.5 0.88889 1.5 2-0.66667 2-1.5 2-1.5-0.88889-1.5-2zm-381.25-32.75c-6.9111-7.2444-6.5782-23.536 0.61647-30.171 3.588-3.3087 4.4068-1.9606 1.2905 2.125-5.6693 7.4328-4.551 27.796 1.5264 27.796 0.44872 0 0.81586 0.675 0.81586 1.5 0 2.2192-1.3063 1.835-4.2493-1.25zm101.25 1.931c0-0.58463 0.45643-1.345 1.0143-1.6898 6.4282-3.9728 7.3241-21.37 1.4594-28.34-2.8106-3.3402-3.0348-4.1511-1.148-4.1511 6.8884 0 10.621 19.007 5.5201 28.112-2.3238 4.1485-6.8458 8.1573-6.8458 6.069zm-235.37-9.2536c-6.231-4.9013-1.7672-16.629 5.9849-15.724l3.5052 0.40922-0.29288-4.0565c-0.26399-3.6562-0.0649-4.0565 2.0179-4.0565 2.2789 0 2.3132 0.1686 2.4804 12.199 0.1724 12.404-0.84611 15.385-4.1332 12.098-0.62862-0.62862-1.2086-0.5878-1.6434 0.11567-1.0818 1.7504-5.0722 1.2539-7.919-0.98545zm8.1762-1.7895c2.3114-1.4658 1.1468-10.573-1.3986-10.936-4.3067-0.61533-6.8281 6.3826-3.4992 9.7116 2.2942 2.2942 2.9518 2.4586 4.8977 1.2246zm13.395 2.8145c-8.2907-3.3273-4.6147-16.952 4.5737-16.952 8.1812 0 9.399 8.6542 1.346 9.5653-7.7822 0.88046-7.4537 4.4347 0.40988 4.4347 3.1497 0 4.4648 0.41033 4.4648 1.393 0 2.5594-6.1051 3.4414-10.794 1.5594zm6.7944-11.484c0-3.2206-5.6813-2.9246-6.7738 0.35282-0.25286 0.75857 0.8841 1.1786 3.1905 1.1786 2.5512 0 3.5833-0.44111 3.5833-1.5314zm23.328 10.138c-5.8682-5.0476-2.2514-15.606 5.3458-15.606 8.4564 0 10.182 8.9696 1.8615 9.6746-7.8382 0.66406-6.9184 4.3254 1.0867 4.3254 3.0751 0 4.3776 0.41447 4.3776 1.393 0 3.4267-8.7641 3.5741-12.672 0.21312zm8.6715-10.138c0-3.2206-5.6813-2.9246-6.7738 0.35282-0.25286 0.75857 0.8841 1.1786 3.1905 1.1786 2.5512 0 3.5833-0.44111 3.5833-1.5314zm27.667 11.865c-1.937-1.937-0.48837-3.406 3.0833-3.1266 4.7848 0.37421 4.88-1.3093 0.25-4.4223-4.2704-2.8711-4.9696-5.9919-1.8344-8.1879 2.3756-1.6639 8.3542-2.1825 9.2094-0.79881 0.90256 1.4604-0.83999 2.7022-3.7917 2.7022-4.2168 0-4.1448 1.6972 0.16961 4 4.9582 2.6464 5.9254 7.9114 1.7454 9.5006-2.9984 1.14-7.8419 1.3225-8.8316 0.33269zm18.833-0.48806c-7.8326-4.2841-5.0621-16.871 3.7046-16.83 3.8556 0.0179 5.0797 0.69371 6.6458 3.669 2.2326 4.2417 1.5173 5.0913-5.0331 5.9784-7.3424 0.99435-6.3757 4.3373 1.2542 4.3373 2.6913 0 3.9286 0.43872 3.9286 1.393 0 2.6197-6.6772 3.5432-10.5 1.4523zm6.3131-11.595c-0.49241-2.5836-4.4504-2.7963-5.7806-0.31068-1.019 1.904-0.82839 2.0607 2.5057 2.0607 2.8971 0 3.5428-0.34502 3.275-1.75zm29.854 12.083c-1.6019-1.6019-0.29583-2.2529 5.0833-2.5334 7.7387-0.40363 8.3442-3.8355 1.3022-7.381-10.035-5.0522-9.132-13.419 1.4478-13.419 6.5021 0 6.2928 2.7752-0.24101 3.1952-6.0444 0.38858-7.0245 2.9524-2.125 5.5588 4.4167 2.3496 8.866 6.7229 8.866 8.7145 0 4.4828-11.152 9.046-14.333 5.8648zm48.722-1.6754c-5.8486-5.0308-2.3664-15.658 5.1306-15.658 3.7943 0 6.4807 2.6234 6.4807 6.3287 0 2.5982-0.16409 2.6713-6 2.6713-6.4024 0-7.2012 0.79879-4 4 1.3469 1.3469 3.3333 2 6.0833 2 5.4342 0 4.7564 2.3887-0.79503 2.8018-3.1395 0.23361-4.6989-0.25093-6.8996-2.1439zm8.6112-10.036c0-3.9727-5.3019-4.5694-7.7525-0.87244-1.4742 2.2239-1.4379 2.25 3.1305 2.25 3.2592 0 4.622-0.40618 4.622-1.3776zm17.559 10.028c-5.6994-5.6994-0.88606-16.374 6.9698-15.457l3.4709 0.40521v-4.3825c0-3.0607 0.37701-4.2574 1.25-3.9675 2.6754 0.88829 2.2224 24.738-0.46929 24.711-1.2544-0.0127-3.7165 0.2634-5.4714 0.61345-2.5879 0.51623-3.6741 0.15299-5.75-1.9229zm10.24-6.8689c0.32889-6.2911-2.0087-8.345-6.6628-5.8542-5.4666 2.9256-3.3344 12.38 2.6792 11.879l3.6846-0.30647zm-189.8 1.7187c0-5.1111-0.32051-6.5-1.5-6.5-0.825 0-1.5-0.675-1.5-1.5s0.675-1.5 1.5-1.5c0.93333 0 1.5-0.94444 1.5-2.5 0-1.375 0.9-3.4 2-4.5 2.3761-2.3761 7-2.7064 7-0.5 0 0.825-0.85186 1.5-1.893 1.5-1.87 0-3.107 1.8242-3.107 4.5818 0 0.78001 0.9 1.4182 2 1.4182 1.1111 0 2 0.66667 2 1.5s-0.88889 1.5-2 1.5c-1.7949 0-2 0.66667-2 6.5s-0.20513 6.5-2 6.5-2-0.66667-2-6.5zm30 0.0818c0-3.53-0.25086-7.072-0.55747-7.871-0.67975-1.7714 2.3447-3.1323 3.9678-1.7853 0.71678 0.59488 1.7146 0.60727 2.6232 0.0326 5.5402-3.504 9.9665 0.73368 9.9665 9.5419 0 9.8974-4.7319 10.125-5.2023 0.25-0.29589-6.2116-0.31614-6.25-3.2977-6.25h-3v6.2518c0 5.8172-0.1564 6.2517-2.25 6.25-2.0994-2e-3 -2.25-0.43132-2.25-6.42zm93.397-6.0843c-0.08153-9.8897 0.17931-12.497 1.25-12.497 0.95379 0 1.353 1.4498 1.353 4.9131v4.9131l2.9641-1.1188c6.32-2.3855 8.4939-0.27666 8.828 8.5635 0.23903 6.3254 0.0203 7.729-1.2043 7.729-1.1512 0-1.5646-1.5545-1.7921-6.7397-0.31999-7.2936-1.129-8.1465-6.4583-6.8089-2.396 0.60136-2.49 0.90837-2.1709 7.0906 0.26982 5.2272 0.0469 6.4612-1.1664 6.4574-1.2476-4e-3 -1.5173-2.1079-1.603-12.502zm19.603 4.0025c0-6.8889 0.28431-8.5 1.5-8.5s1.5 1.6111 1.5 8.5-0.28431 8.5-1.5 8.5-1.5-1.6111-1.5-8.5zm26-3c0-6.325-0.0238-11.838-0.0528-12.25s0.64595-0.8955 1.5-1.0733c1.3386-0.27872 1.5528 1.4115 1.5528 12.25-2e-5 10.51-0.24622 12.573-1.5 12.573-1.2464 0-1.5-1.9444-1.5-11.5zm41.48 10.468c-0.38836-0.62838-0.23556-1.613 0.33954-2.1882 1.3439-1.3439 4.4771-0.17169 3.9304 1.4704-0.5566 1.6717-3.3864 2.1473-4.2699 0.71771zm-67.151-19.552c-0.71657-1.8674 1.061-3.9107 2.5835-2.9698 1.5877 0.98128 1.3278 3.2475-0.45072 3.93-0.89117 0.34197-1.788-0.0618-2.1328-0.96023zm-135.33-16.679c0-0.69458 1.0125-1.7071 2.25-2.25 4.0101-1.7593 3.5662-4.8183-2.9368-20.237-0.31747-0.75272 0.24803-1.25 1.4215-1.25 1.5132 0 2.3546 1.3409 3.7653 6 2.2525 7.4395 2.5762 7.4394 4.7628-1e-3 1.1321-3.8524 2.2949-5.9986 3.25-5.9986 1.9254 0 2.0948-0.72517-2.5128 10.759-2.2 5.4835-4 10.492-4 11.13 0 0.63809-1.1543 1.599-2.5651 2.1354-3.2719 1.244-3.4349 1.2303-3.4349-0.28762zm259 3e-3c0-0.6927 0.83846-1.7831 1.8632-2.4231 3.1356-1.9582 3.0503-4.8348-0.39245-13.245-2.988-7.299-3.1285-8.0717-1.4679-8.0717 1.3323 0 2.3039 1.441 3.5396 5.25 2.4715 7.6178 3.1424 7.7345 5.1521 0.896 0.99296-3.3788 2.3679-6.1438 3.0554-6.1446 1.8229-2e-3 1.5755 1.3432-1.6333 8.8839-1.5858 3.7266-3.1965 8.2014-3.5792 9.9439-0.90011 4.0982-6.5375 8.3332-6.5375 4.9113zm88-11.14v-12.4h3.4337c1.8885 0 3.8798-0.27572 4.4251-0.6127 1.6153-0.99829 5.8345 1.4441 7.031 4.07 3.2318 7.093-0.7363 13.343-8.4715 13.343-3.3212 0-3.4182 0.11347-3.4182 4 0 2.8889-0.41667 4-1.5 4-1.2527 0-1.5-2.0444-1.5-12.4zm10.797 1.1444c4.01-4.8318 1.429-12.089-4.1087-11.553-3.2146 0.3113-5.0679 6.7715-3.2796 11.432 0.66098 1.7225 5.987 1.81 7.3884 0.12147zm9.2028 0.33738c0-6.005-0.26747-11.615-0.59438-12.467-0.4537-1.1823 0.0788-1.5336 2.25-1.4841 1.5644 0.0357 4.3082-0.0476 6.0974-0.18512 5.9166-0.45465 9.3681 5.1275 7.2112 11.663-1.3191 3.9969-3.4917 5.3916-8.3985 5.3916-3.4934 0-3.5657 0.0812-3.5657 4 0 2.8889-0.41667 4-1.5 4-1.2417 0-1.5-1.8798-1.5-10.918zm11.111-1.2894c2.9092-5.4359 0.49635-11.084-4.5259-10.593-3.1102 0.30352-4.9309 6.8517-3.1764 11.424 0.87732 2.2863 6.3501 1.6961 7.7023-0.83052zm42.139-0.14583-0.0274-12.447 3.6386-0.1726c7.5581-0.35852 8.6169-0.15492 10.355 1.991 4.7369 5.8498 0.68063 14.982-6.6548 14.982h-4.2936l0.11616 3.7273c0.0838 2.6908-0.33188 3.8161-1.495 4.0466-1.4112 0.27965-1.6146-1.2254-1.6386-12.127zm11.193 0.1309c3.1088-4.4385 0.83541-10.796-3.8483-10.762-4.0841 0.0299-4.8883 1.3791-4.2447 7.1212 0.33063 2.9499 0.61208 5.476 0.62543 5.6135 0.1374 1.4151 6.2202-0.19163 7.4676-1.9725zm-337.44 4.5063c-9.205-3.3035-7.2593-17.684 2.3926-17.684 4.9768 0 7.8262 2.9681 7.9659 8.2978 0.15306 5.8371-5.6346 11.081-10.359 9.386zm5.8-3.4838c1.5815-1.5815 1.5449-9.2883-0.05-10.522-4.2874-3.3174-8.75-0.82167-8.75 4.8936 0 5.4418 5.481 8.9477 8.8 5.6287zm304.6 2.7638c-8.3267-3.6028-3.9619-18.926 4.8869-17.157 4.7598 0.95195 6.9861 3.6919 6.9861 8.5977 0 6.9244-5.8703 11.156-11.873 8.5588zm7.5652-3.4981c3.6147-6.7542-2.0847-14.946-6.9875-10.043-3.9819 3.9819-1.9641 11.977 3.0227 11.977 1.873 0 3.303-0.69764 3.9648-1.9343zm-459.66 1.1628c0.30486-1.5243 0.87299-6.6993 1.2625-11.5 1.051-12.954 3.97-12.769 8.2665 0.52144 3.3338 10.313 2.6337 10.554 7.2577-2.5 4.5583-12.868 7.8653-7.4284 7.9029 13 4e-3 2.2249-0.46714 3.25-1.494 3.25-1.1334 0-1.5181-1.2829-1.5741-5.25-0.0408-2.8875-0.37827-7.232-0.75-9.6544l-0.67588-4.4044-3.5 9.6536c-4.2855 11.82-4.7779 11.873-8.4693 0.90509-3.9708-11.798-4.1743-11.831-4.9994-0.82543-0.57132 7.6204-1.0306 9.5754-2.2496 9.5754-1.1405 0-1.3901-0.70788-0.97739-2.7714zm30.877 1.5528c-3.2633-3.2633 0.42819-8.7814 5.8745-8.7814 3.3656 0 4.1135-0.81504 2.8738-3.1315-0.71841-1.3424-2.1164-1.8685-4.9648-1.8685-2.1806 0-3.9648-0.45-3.9648-1 0-7.6988 11.727 0.57189 12.162 8.5772l0.38428 7.0772-5.5916 0.15411c-3.1717 0.0874-6.1028-0.35716-6.7729-1.0272zm8.6186-1.9814c2.5218-2.5218 1.4152-4.8-2.3314-4.8-3.661 0-5.1906 1.6761-4.107 4.5 0.68902 1.7956 4.7534 1.985 6.4384 0.3zm33.2-9.3c0-10.444 0.24667-12.5 1.5-12.5 1.1163 0 1.5 1.1786 1.5 4.607 0 4.0102 0.22668 4.5086 1.75 3.8476 6.4644-2.8053 11.772 1.2218 10.971 8.3243-0.72685 6.4486-2.8563 8.2212-9.8764 8.2212h-5.845zm11.443 8.2775c4.094-5.845-0.47708-12.62-6.8615-10.17-1.6212 0.6221-2.3739 10.268-0.91512 11.726 1.5337 1.5337 6.2774 0.58463 7.7766-1.5558zm11.786 3.5532c-7.0847-2.8505-3.4035-17.331 4.4059-17.331 8.1276 0 8.7273 9.382 0.62812 9.8261-7.0504 0.38659-7.0963 0.43142-3.8118 3.716 2.1002 2.1002 3.3913 2.5784 6.1061 2.2614 2.3633-0.2759 3.4427 5e-3 3.4427 0.89728 0 1.2995-7.951 1.7645-10.771 0.62991zm7.7704-11.546c8.9e-4 -2.3383-2.9885-3.7418-5.7494-2.6992-4.164 1.5724-2.9056 4.914 1.7494 4.6451 3.0209-0.17449 3.9995-0.65056 4-1.9458zm17.455 9.7603c-3.7071-3.7071-2.4339-12.188 2.0902-13.924 2.6422-1.0139 8.6394-0.72831 7.9552 0.37882-0.33992 0.55-1.8717 1-3.404 1-5.2143 0-8.1621 6.7911-4.526 10.427 1.8721 1.8721 5.8944 3.0221 7.3732 2.1081 0.58126-0.35924 1.0568 0.0484 1.0568 0.90585 0 2.6984-7.5967 2.0532-10.545-0.89553zm36.474 0.86887c-1.9785-2.384-2.3392-15.414-0.42663-15.414 1.1182 0 1.5012 1.2037 1.5114 4.75 0.0248 8.6076 1.9816 11.338 6.9864 9.75 1.7466-0.55436 2-1.513 2-7.5674 0-5.4956 0.31091-6.9326 1.5-6.9326 1.2132 0 1.5 1.5912 1.5 8.321v8.321l-5.8914 0.16237c-4.2572 0.11733-6.2487-0.26824-7.1798-1.39zm18.071-6.7353v-8.321l6.1587-0.16973c3.3873-0.0934 6.7623 0.33119 7.5 0.94343 2.0194 1.676 1.8775 15.868-0.15871 15.868-1.1901 0-1.5-1.4423-1.5-6.981 0-12.091-8.2568-11.777-8.7957 0.33534-0.47653 10.71-3.2043 9.2837-3.2043-1.6754zm22.035 6.3867c-0.56935-1.0638-1.0352-4.2138-1.0352-7 0-3.8362-0.36407-5.0657-1.5-5.0657-1.8845 0-1.9522-1.6402-0.11147-2.7003 0.76369-0.43983 1.5512-1.6624 1.75-2.7168 0.56894-3.0175 2.8615-3.1507 2.8615-0.1662 0 2.0889 0.47849 2.5833 2.5 2.5833 1.5556 0 2.5 0.56667 2.5 1.5 0 0.94152-0.95025 1.5-2.5523 1.5-3.6242 0-3.3643 9.8785 0.30226 11.487 3.1315 1.3738 2.8075 2.5129-0.71482 2.5129-1.9078 0-3.3339-0.68962-4-1.9343zm12.885 0.0705c-6.1118-4.949-1.0515-17.196 6.4933-15.715 8.0399 1.578 7.922 8.9624-0.15017 9.405-7.134 0.39117-7.4733 0.73262-3.8381 3.8614 2.308 1.9864 3.6401 2.4013 6.316 1.9671 2.3786-0.386 3.2734-0.19267 2.9969 0.64754-0.70571 2.1449-9.1099 2.0269-11.818-0.16596zm9.0801-10.263c0-3.634-5.1516-4.3432-7.75-1.0669-2.0835 2.6271-1.4522 3.2176 3.25 3.0398 3.6062-0.1364 4.5-0.52826 4.5-1.9729zm8 6.752c0-2.9562-0.28125-6.7812-0.625-8.5-0.49487-2.4744-0.28667-3.125 1-3.125 0.89375 0 1.625 0.54 1.625 1.2 0 0.93333 0.26667 0.93333 1.2 0 1.6338-1.6338 7.1103-1.5918 6.5083 0.05-0.25208 0.6875-0.98281 1.1314-1.6238 0.9865-3.516-0.79492-5.0845 1.7651-5.0845 8.2987 0 5.0798-0.32135 6.4648-1.5 6.4648-1.1473 0-1.5-1.2639-1.5-5.375zm14.455 2.9204c-6.3749-6.3749 0.81612-18.71 8.4195-14.443 6.5041 3.6507 5.3009 8.0523-2.3752 8.6889-6.0251 0.49966-6.5469 1.1603-3.4009 4.3063 1.5337 1.5337 3.0129 1.9912 5.5 1.7008 2.3275-0.27172 3.402 0.0132 3.402 0.90203 0 2.4983-8.7694 1.6208-11.545-1.1554zm9.0626-8.5733c0.84176-1.362-0.57282-3.7534-2.5217-4.2631-2.2059-0.57685-5.9955 1.8156-5.9955 3.7849 0 1.5036 7.6191 1.9314 8.5172 0.47815zm9.4976 9.0426c-5.6251-5.6251-0.95528-15.46 7.2304-15.227 2.5528 0.0726 2.7548-0.21017 2.7548-3.8548 0-2.8294 0.42092-3.9331 1.5-3.9331 1.2519 0 1.5 2.0317 1.5 12.285v12.285l-5.4852 0.22953c-4.3646 0.18264-5.8968-0.18206-7.5-1.7852zm9.8282-1.3256c1.0703-1.2896 0.91957-10.26-0.19108-11.371-1.27-1.27-6.0825-0.45023-7.3239 1.2475-4.3506 5.9498 2.8871 15.699 7.515 10.123zm16.157-9.316c0-10.332 0.24749-12.373 1.5-12.373 1.1076 0 1.5 1.1589 1.5 4.4302v4.4302l3.0652-0.87907c7.4066-2.1242 12.34 5.4676 8.4458 12.997-1.7477 3.3797-3.3454 4.0135-9.761 3.8722l-4.75-0.10464zm11.936 7.4449c2.7987-5.01-1.0278-10.765-6.281-9.4463-2.6511 0.66538-4.1304 9.8192-1.9407 12.009 1.6606 1.6606 6.7484 0.0748 8.2217-2.5627zm33.246 3.9633c-3.2973-3.2973 0.43857-8.7814 5.9821-8.7814 1.4952 0 3.0088-0.46971 3.3636-1.0438 1.189-1.9238-1.7133-3.9562-5.6495-3.9562-2.1327 0-3.8776-0.45-3.8776-1 0-7.6988 11.727 0.57189 12.162 8.5772l0.38428 7.0772-5.5916 0.15411c-3.1717 0.0874-6.1028-0.35716-6.7729-1.0272zm8.6186-1.9814c3.3193-3.3193-0.17598-6.1279-5.2182-4.193-1.5939 0.61163-2.1512 3.4902-0.91512 4.7263 1.0865 1.0866 4.8398 0.76018 6.1333-0.53333zm9.1506 2.95c-0.0272-0.1375-0.16355-3.8844-0.303-8.3264l-0.25354-8.0764 5.9617-0.1643c7.9772-0.21986 8.6443 0.50863 8.6443 9.4396 0 6.1698-0.26837 7.3776-1.6393 7.3776-1.3814 0-1.5453-0.7937-1.0418-5.0448 0.97709-8.25-1.3141-11.429-6.7371-9.3482-1.2307 0.47226-1.5818 2.137-1.5818 7.5 0 5.5873-2.2771 10.548-3.0494 6.643zm27.088-1.6784c-2.1292-3.9784 0.90992-8.0716 5.9931-8.0716 3.341 0 5.1782-2.6205 2.8643-4.0856-0.76765-0.48607-3.0832-0.89066-5.1457-0.89908s-3.75-0.46531-3.75-1.0153c0-1.4204 10.355-1.2449 11.8 0.2 0.70648 0.70648 1.1998 4.0995 1.1996 8.25l-4.1e-4 7.05-5.9613 0.25586c-5.0314 0.21594-6.1232-0.0468-6.9996-1.6843zm8.3799-0.67859c0.86999-0.33384 1.5818-1.6838 1.5818-3 0-2.7699-4.8473-3.4868-6.8948-1.0198-2.5231 3.0401 0.97301 5.6852 5.313 4.0198zm50.582-2.6847c0-3.0021-0.28125-6.8646-0.625-8.5833-0.49487-2.4744-0.28667-3.125 1-3.125 0.89375 0 1.625 0.54 1.625 1.2 0 0.93333 0.26667 0.93333 1.2 0 1.5693-1.5693 7.0978-1.5934 6.5762-0.0287-0.21474 0.64423-1.3932 1.2452-2.6188 1.3355-3.4804 0.25641-4.4036 1.9028-4.5352 8.0879-0.16625 7.8107-2.6222 8.8537-2.6222 1.1136zm52.823-3.2107c-0.31828-8.366 0.30228-9.9719 2.8637-7.4105 0.78285 0.78285 1.2752 0.78285 1.759 0 1.0793-1.7464 5.5538-1.3276 5.5538 0.51986 0 1.0505-0.54453 1.398-1.5724 1.0036-3.6957-1.4182-5.4276 1.1104-5.4276 7.9246 0 10.665-2.7606 8.8943-3.1765-2.0375zm13 0c-0.28742-7.5547-0.12843-8.5021 1.4265-8.5 1.5292 2e-3 1.75 1.0746 1.75 8.5023 0 12.327-2.7075 12.325-3.1765-2e-3zm8.3579 7.2837c-3.2973-3.2973 0.43857-8.7814 5.9821-8.7814 1.4952 0 3.0088-0.46971 3.3636-1.0438 1.189-1.9238-1.7133-3.9562-5.6495-3.9562-2.1327 0-3.8776-0.45-3.8776-1 0-1.4478 10.725-1.254 11.63 0.21014 0.41135 0.66557 0.84059 4.4113 0.95387 8.3239l0.20597 7.1138-5.7135 0.15747c-3.2691 0.0901-6.2189-0.34795-6.8948-1.0239zm8.2368-1.3884c2.6882-1.0316 2.0118-5.393-0.83642-5.393-3.6458 0-5.5818 1.0198-5.5818 2.9403 0 2.955 2.5598 3.9333 6.4182 2.4527zm11.782 1.407c-0.66-0.66-1.2-3.81-1.2-7 0-4.4889-0.33908-5.8-1.5-5.8-0.825 0-1.5-0.675-1.5-1.5s0.6437-1.5 1.4304-1.5 1.5742-0.97725 1.75-2.1717c0.47108-3.2015 2.8196-3.5444 2.8196-0.41166 0 2.0889 0.47849 2.5833 2.5 2.5833 1.5556 0 2.5 0.56667 2.5 1.5s-0.94444 1.5-2.5 1.5c-2.3626 0-2.5 0.30127-2.5 5.481 0 5.0124 0.21374 5.5346 2.5 6.1084 1.375 0.3451 2.5 1.0287 2.5 1.519 0 1.325-5.4121 1.0795-6.8-0.30841zm12.255-1.2546c-6.3749-6.3749 0.81612-18.71 8.4195-14.443 6.5246 3.6621 5.3004 8.0524-2.4239 8.6929-4.3985 0.36476-5.4838 0.79083-5.24 2.0571 0.42584 2.2112 4.7347 4.2734 8.0398 3.8478 1.7962-0.2313 2.75 0.10606 2.75 0.97267 0 2.5248-8.7473 1.6704-11.545-1.1277zm9.1957-8.7886c0.85213-1.3788-1.7259-3.7569-4.0727-3.7569-2.4556 0-4.5776 1.734-4.5776 3.7405 0 1.4964 7.7265 1.511 8.6502 0.0164zm-49.65-10.757c0-1.5062 0.52215-2.0461 1.75-1.8096 0.9625 0.18536 1.75 0.99969 1.75 1.8096s-0.7875 1.6243-1.75 1.8096c-1.2278 0.23646-1.75-0.30348-1.75-1.8096zm-487.02-39.865c-3.3268-3.3268-3.7866-6.6776-1.5185-11.064 3.382-6.5401 13.537-4.7184 13.537 2.4285 0 2.3889-0.26667 2.5-6 2.5-4.3594 0-6 0.36778-6 1.345 0 2.556 3.5676 4.655 7.9121 4.655 5.6481 0 5.0043 2.3843-0.75831 2.8084-3.5372 0.26031-4.6558-0.1566-7.1723-2.6731zm9.0185-9.4353c0-3.515-4.2178-4.7178-7.1713-2.045-2.8338 2.5645-2.2105 3.345 2.6713 3.345 3.0256 0 4.5-0.42593 4.5-1.3zm7.6667 11.633c-1.3624-1.3624-0.59741-2.4708 1.5833-2.2942 7.9153 0.64116 9.0118-1.6416 2.5111-5.2276-4.7747-2.6339-5.7554-5.0554-3.1938-7.886 2.2658-2.5037 9.4327-2.7385 9.4327-0.30902 0 1.2151-0.66728 1.489-2.6866 1.103-5.5198-1.0552-7.4881 2.3965-2.5634 4.4952 6.3294 2.6973 7.6363 5.3989 4.25 8.7852-1.9362 1.9362-7.8812 2.7855-9.3333 1.3333zm16.968-1.4059c-3.6673-2.8847-3.7611-9.8921-0.18031-13.473 6.8156-6.8156 16.908 0.95585 13.094 10.083-2.3573 5.6418-8.1259 7.156-12.914 3.3898zm8.5364-1.5824c2.312-2.0923 2.4104-8.0448 0.17375-10.516-5.0559-5.5867-11.28 3.5356-6.7883 9.9488 1.8505 2.642 4.1082 2.8357 6.6146 0.56752zm9.4044 2.4882c-1.1215-3.5152-0.0412-24.333 1.2628-24.333 1.7988 0 2.1186 24.681 0.32751 25.278-0.64071 0.21357-1.3563-0.21162-1.5903-0.94485zm10.583-6.744c-3.6187-8.8507-3.6637-9.0891-1.7127-9.0891 0.85793 0 2.3362 2.4408 3.634 6 1.2032 3.3 2.3282 6 2.5 6s1.2968-2.7 2.5-6c1.3006-3.5672 2.7754-6 3.637-6 0.79714 0 1.2994 0.36555 1.116 0.81232-7.5585 18.42-7.5343 18.403-11.674 8.2768zm16.699 4.9229c-3.6511-3.6511-3.5432-8.5895 0.27654-12.655 4.354-4.6346 11.865-2.12 11.865 3.9721 0 2.5677-0.21091 2.6713-5.441 2.6713-6.1633 0-7.1264 0.74494-4.9606 3.837 1.1736 1.6756 2.5349 2.163 6.0416 2.163 5.8669 0 5.4563 2.3711-0.48628 2.8084-3.5693 0.26267-4.6512-0.15204-7.2956-2.7964zm9.1418-9.3896c0-3.9727-5.3019-4.5694-7.7525-0.87244-1.4742 2.2239-1.4379 2.25 3.1305 2.25 3.2592 0 4.622-0.40618 4.622-1.3776zm9.4546 9.923c-5.613-5.613-0.59524-16.479 7.0378-15.24 3.3769 0.548 3.4016 0.52377 3.7036-3.6267 0.61206-8.4126 2.309-3.4918 2.5885 7.5065 0.3183 12.522-0.0498 14.67-2.2073 12.879-0.95787-0.79497-1.6035-0.83049-2.0472-0.11263-1.2125 1.9618-6.5318 1.1377-9.0755-1.406zm8.6112-0.58063c2.8838-1.5433 2.831-11.545-0.06574-12.465-6.2982-1.999-10.29 5.3186-5.9274 10.865 2.285 2.9049 3.132 3.1309 5.9932 1.5997zm-121.24-6.0634c-0.31549-7.8339 0.48933-10.627 2.244-7.7879 0.67421 1.0909 1.0993 1.117 2.0882 0.12811 1.7583-1.7583 5.8416-1.5777 5.8416 0.25836 0 0.89855-0.92222 1.5-2.3 1.5-3.5922 0-4.7 1.9328-4.7 8.2 0 9.8404-2.7656 7.8374-3.1738-2.2986zm130.67 7.0986c-0.9233-1.4939 0.36137-3 2.559-3 1.2743 0 1.941 0.68694 1.941 2 0 2.1211-3.3474 2.8649-4.5 1zm24.5-36.263c0-0.69458 1.0125-1.7071 2.25-2.25 3.3365-1.4638 3.2761-5.3604-0.21004-13.553-1.6923-3.9769-2.863-7.4446-2.6016-7.7061 1.3301-1.3301 3.3622 1.1406 5.0696 6.1639 2.3751 6.9875 2.591 6.9697 4.7547-0.39362 1.1321-3.8524 2.2949-5.9986 3.25-5.9986 1.9254 0 2.0948-0.72517-2.5128 10.759-2.2 5.4835-4 10.492-4 11.13 0 0.63809-1.1543 1.599-2.5651 2.1354-3.2719 1.244-3.4349 1.2303-3.4349-0.28762zm186.4-7.1733c-8.0046-3.4634-4.8269-16.964 3.993-16.964 4.9768 0 7.8262 2.9681 7.9659 8.2978 0.17953 6.8467-5.9306 11.274-11.959 8.6661zm7.4003-2.7638c1.5543-1.5543 1.5543-9.0457 0-10.6-1.9015-1.9015-6.5916-1.458-7.7648 0.73426-3.5318 6.5992 2.8821 14.748 7.7648 9.8657zm-347.8-8.3c0-9.5556 0.25362-11.5 1.5-11.5 1.1111 0 1.5 1.1667 1.5 4.5 0 2.475 0.41987 4.5 0.93305 4.5s2.5924-2.025 4.6205-4.5c2.0281-2.475 4.3082-4.5 5.067-4.5 2.2525 0 1.6084 1.3707-2.5541 5.4352l-3.9336 3.8411 4.9336 6.0974c5.393 6.6652 5.8066 7.6497 3.1836 7.5795-0.9625-0.0258-3.325-2.3006-5.25-5.0551-5.6138-8.0329-7-8.2178-7-0.93327 0 4.6979-0.33236 6.0352-1.5 6.0352-1.2464 0-1.5-1.9444-1.5-11.5zm19.986 5.25c-8e-3 -3.4375-0.285-7.2625-0.61664-8.5-0.4761-1.7766-0.18801-2.25 1.3692-2.25 1.8052 0 1.9755 0.71982 2.0113 8.5 0.0305 6.6222-0.269 8.5-1.3556 8.5-1.0427 0-1.3981-1.5774-1.4083-6.25zm8.0136-4.6682c0-6.005-0.27314-11.63-0.60699-12.5-0.43514-1.134-0.0104-1.5818 1.5-1.5818 2.0303 0 2.107 0.45509 2.107 12.5 0 10.444-0.24667 12.5-1.5 12.5-1.2417 0-1.5-1.8798-1.5-10.918zm9 0c0-6.005-0.27314-11.63-0.60699-12.5-0.41924-1.0925-0.0326-1.5816 1.25-1.5811 1.7093 6.7e-4 1.8584 0.99481 1.8745 12.5 0.01322 9.4341-0.29331 12.499-1.25 12.499-0.94595 0-1.2675-2.7698-1.2675-10.918zm6.9987 9.6682c-8.4e-4 -0.80418 1.5149-1.25 4.25-1.25 5.6356 0 5.6362-2.197 1e-3 -5.3054-4.404-2.4294-5.5669-5.4777-3.05-7.9946 1.4462-1.4462 9.8-1.6166 9.8-0.2 0 0.55-1.8 1-4 1-5.4929 0-5.5453 2.9333-0.0954 5.3378 4.6661 2.0587 5.6808 4.1198 3.595 7.3031-1.7425 2.6594-10.498 3.5842-10.501 1.1091zm25.978-1.2747c-4.4763-4.7648-2.0901-13.633 4.0299-14.977 3.8443-0.84435 7.4863 1.3454 8.4191 5.0621 0.97788 3.8962 0.64402 4.1042-6.9258 4.3144-3.2457 0.0902-4.5 0.53668-4.5 1.602 0 2.3149 4.6219 4.8055 7.9981 4.31 2.0489-0.30072 3.0019-0.0194 3.0019 0.88622 0 2.6072-9.321 1.6785-12.023-1.1979zm9.5006-8.4389c0.32752-0.52993-0.35391-1.9129-1.5143-3.0733-2.3454-2.3454-6.1088-1.011-6.7865 2.4063-0.36595 1.8455 7.1969 2.4532 8.3008 0.66699zm6.5225 2.6425v-8.321l6.4653-0.17813c7.8302-0.21575 8.5347 0.6307 8.5347 10.254 0 5.1696-0.31897 6.5657-1.5 6.5657-1.1746 0-1.5-1.3667-1.5-6.3 0-6.6817-1.0439-8.7-4.5-8.7s-4.5 2.0183-4.5 8.7c0 4.9333-0.3254 6.3-1.5 6.3-1.2132 0-1.5-1.5912-1.5-8.321zm22.262 6.7923c-6.5252-4.5704-1.3898-17.975 6.1604-16.08 8.2525 2.0712 7.9208 9.6087-0.42279 9.6087-6.6593 0-7.3199 0.81658-3.2503 4.0177 2.0158 1.5856 3.6172 2.0221 6 1.6354 2.404-0.39011 3.2503-0.15324 3.2503 0.90968 0 1.9997-8.8505 1.9306-11.738-0.0916zm8.7376-10.436c0-3.7752-5.0904-4.5825-7.75-1.229-2.0659 2.6049-1.4666 3.1938 3.25 3.1938 3.8065 0 4.5-0.30281 4.5-1.9648zm7.4644 3.4622c-0.0263-6.2754 0.30054-8.4973 1.25-8.4973 0.70711 0 1.2856 0.54 1.2856 1.2 0 0.93333 0.26667 0.93333 1.2 0 1.4973-1.4973 8.025-1.575 9.4871-0.11287 0.78285 0.78285 1.2752 0.78285 1.759 0 1.4619-2.3654 8.5321-1.2745 9.5786 1.478 1.6226 4.2678 1.253 14.435-0.52475 14.435-1.1765 0-1.5-1.3753-1.5-6.3776 0-7.1112-1.3883-9.2438-5.3675-8.245-2.913 0.73112-3.6923 3.3217-2.9316 9.745 0.48418 4.0881 0.31235 4.8776-1.0616 4.8776-1.3477 0-1.6393-1.1344-1.6393-6.3776 0-7.1866-1.3761-9.2468-5.487-8.2151-2.3838 0.59829-2.513 0.9897-2.513 7.6117 0 5.9829-0.2502 6.9806-1.75 6.9783-1.5264-2e-3 -1.7546-1.0886-1.7856-8.5zm54.536-3.9973v-12.5h5v25h-5zm11.455 10.045c-4.9593-4.9593-1.9135-13.788 5.2292-15.158 3.8778-0.74382 8.3163 3.0281 8.3163 7.0674 0 2.4187-0.27381 2.5454-5.5 2.5454-4.1635 0-5.5 0.35595-5.5 1.4648 0 2.0772 3.7168 3.8037 7.1148 3.305 2.2818-0.33491 2.8852-0.0415 2.8852 1.4034 0 3.0432-9.3419 2.5758-12.545-0.62774zm8.9956-8.4648c0.31252-0.50566-0.14217-1.6298-1.0104-2.498-1.8302-1.8302-5.4398-0.53455-5.4398 1.9526 0 1.6376 5.4883 2.1017 6.4502 0.54544zm7.7103 9.6799c-3.1439-3.1439-0.57503-7.5193 5.0957-8.679 4.8631-0.99461 4.212-3.5114-1.0062-3.8889-6.7081-0.48535-5.752-3.1925 1.1276-3.1925 6.7296 0 7.3617 0.7804 7.7831 9.6092l0.33932 7.1092-6.0895 0.10129c-3.4241 0.057-6.5975-0.40666-7.25-1.0592zm8.8395-4.2605c0-2.7366-2.6466-3.4534-4.8-1.3-2.1344 2.1344-1.3455 3.8 1.8 3.8 2.5333 0 3-0.38889 3-2.5zm9.7943 3.736c-5.3422-6.2228-1.5701-15.236 6.3763-15.236h4.0927l-0.53651-4c-0.49715-3.7065-0.36008-4 1.8683-4h2.4048v24.781l-6.3577 0.0954c-4.8794 0.0732-6.7042-0.30829-7.848-1.6406zm10.01-7.0534 0.3046-5.3174-3.2866 0.31743c-4.0627 0.3924-5.8828 4.1952-3.9931 8.3428 2.3364 5.1278 6.607 3.0811 6.975-3.3428zm11.221 6.8429c-6.1649-6.1649-0.55981-17.631 7.6156-15.579 7.7157 1.9365 7.6033 9.554-0.14104 9.554-5.9218 0-6.613 0.68275-3.5226 3.4795 1.4452 1.3079 2.9253 1.6357 5.5 1.2178 3.0146-0.48919 3.5226-0.29226 3.5226 1.3655 0 2.8549-10.111 2.8257-12.975-0.0374zm8.4746-10.025c0-2.3067-5.8745-2.0095-6.3231 0.31983-0.29142 1.5132 0.21167 1.766 2.9863 1.5 2.1572-0.20677 3.3368-0.85009 3.3368-1.8198zm7.5 5.1513c0-3.8433-0.27314-7.6996-0.60699-8.5696-0.45784-1.1931 0.0336-1.5818 2-1.5818 1.4338 0 2.607 0.54 2.607 1.2 0 0.93333 0.26667 0.93333 1.2 0 2.0123-2.0123 5.8-1.4899 5.8 0.8 0 1.5527-0.66667 2-2.981 2-3.4187 0-4.3544 2.0931-3.834 8.5767 0.27461 3.4212 0.027 3.9642-1.9351 4.2429-2.1492 0.30523-2.25 6e-3 -2.25-6.6682zm22-5.6513c0-10.444 0.24667-12.5 1.5-12.5 1.1099 0 1.5 1.1639 1.5 4.475 0 4.4265 0.0321 4.4686 2.9632 3.8824 8.4542-1.6908 12.817 5.57 8.0478 13.393-1.8821 3.0868-2.2836 3.25-7.9963 3.25h-6.0147zm11.877 7.0834c2.5261-5.2951-1.0044-10.521-6.2227-9.2116-2.6511 0.66538-4.1304 9.8192-1.9407 12.009 1.7884 1.7884 6.7941 0.073 8.1634-2.7974zm11.042 3.5528c-6.1118-4.949-1.0515-17.196 6.4933-15.715 8.0633 1.5826 7.9512 9.141-0.1404 9.4684-6.5089 0.26333-6.5315 0.27273-5.7244 2.3759 0.81163 2.1151 5.8739 4.0783 8.9835 3.4839 1.6091-0.3076 2.412-0.0748 2.1797 0.63193-0.68449 2.0823-9.1344 1.9068-11.792-0.24489zm8.8997-10.386c-0.4218-2.97-5.6083-3.7594-7.5202-1.1447-2.0885 2.8562-1.5698 3.3947 3.2702 3.3947 4.1668 0 4.5414-0.19831 4.25-2.25zm9.1804 5.25c0-5.5556-0.30952-7-1.5-7-0.825 0-1.5-0.675-1.5-1.5s0.68625-1.5 1.525-1.5c0.90193 0 1.7757-1.2534 2.1386-3.0677 0.64305-3.2153 4.5038-6.5649 6.2925-5.4594 1.6929 1.0463 1.1954 2.5272-0.84903 2.5272-1.87 0-3.107 1.8242-3.107 4.5818 0 0.84609 1.0085 1.4182 2.5 1.4182 1.5556 0 2.5 0.56667 2.5 1.5s-0.94444 1.5-2.5 1.5c-2.4286 0-2.5 0.2-2.5 7 0 5.5556-0.30952 7-1.5 7s-1.5-1.4444-1.5-7zm31.1-1.5c0-6.7586 0.29706-8.5 1.45-8.5 0.7975 0 1.45 0.54 1.45 1.2 0 0.93333 0.26667 0.93333 1.2 0 1.6305-1.6305 7.0978-1.5888 6.545 0.05-0.23191 0.6875-1.3217 1.25-2.4217 1.25-3.8732 0-5.3233 2.3488-5.3233 8.6224 0 4.4678-0.3478 5.8776-1.45 5.8776-1.1529 0-1.45-1.7414-1.45-8.5zm15.074 6.1856c-6.825-7.2648 2.1685-20.12 9.749-13.936 4.675 3.8143 3.2776 7.6481-2.9233 8.0202-7.6725 0.46042-7.7778 0.54296-4.6643 3.6564 2.2141 2.2142 3.4785 2.6972 6.2216 2.3769 2.3633-0.2759 3.4427 5e-3 3.4427 0.89728 0 2.4489-9.3232 1.6485-11.826-1.0152zm9.1238-8.317c0.34732-0.34732 0.18148-1.4723-0.36852-2.5-1.7404-3.252-7.9296-1.8226-7.9296 1.8315 0 1.34 7.0581 1.9086 8.2982 0.66852zm16.737 8.6972c-0.56935-1.0638-1.0352-4.2138-1.0352-7 0-3.8362-0.36407-5.0657-1.5-5.0657-1.8845 0-1.9522-1.6402-0.11147-2.7003 0.76369-0.43983 1.5512-1.6624 1.75-2.7168 0.56894-3.0175 2.8615-3.1507 2.8615-0.1662 0 2.0889 0.47849 2.5833 2.5 2.5833 1.5556 0 2.5 0.56667 2.5 1.5 0 0.94152-0.95025 1.5-2.5523 1.5-3.6242 0-3.3643 9.8785 0.30226 11.487 3.1315 1.3738 2.8075 2.5129-0.71482 2.5129-1.9078 0-3.3339-0.68962-4-1.9343zm11.965-10.566c0-10.444 0.24667-12.5 1.5-12.5 1.1036 0 1.5 1.1504 1.5 4.3532v4.3532l4.9772-0.47824c5.9657-0.57323 7.0228 1.0579 7.0228 10.837 0 9.0074-2.7995 8.3865-3.2043-0.71071-0.53891-12.112-8.7957-12.427-8.7957-0.33534 0 5.5386-0.30991 6.981-1.5 6.981-1.2533 0-1.5-2.0556-1.5-12.5zm20.455 10.045c-3.5468-3.5468-3.3518-8.8021 0.46853-12.622 3.5674-3.5674 6.3862-3.7047 9.6224-0.46853 4.7954 4.7954 2.9266 7.5454-5.1272 7.5454-4.8993 0-5.4484 0.96983-2.3202 4.098 1.5337 1.5337 3.0129 1.9912 5.5 1.7008 2.3275-0.27172 3.402 0.0132 3.402 0.90203 0 2.4983-8.7694 1.6208-11.545-1.1554zm9.5454-8.4637c0-4.2437-5.98-5.8561-7.9648-2.1475-1.5608 2.9163-1.3919 3.0657 3.4648 3.0657 2.475 0 4.5-0.4132 4.5-0.91821zm15.5-1.6084c0-10.518 0.23703-12.478 1.4797-12.239 1.0917 0.21029 1.3987 1.407 1.1707 4.5642-0.30661 4.2466-0.28743 4.2737 2.5203 3.5573 6.5848-1.68 10.329 1.0823 10.329 7.6199 0 6.2746-2.9935 9.0244-9.8226 9.0226l-5.6774-1e-3zm10.671 8.8717c3.8888-3.5193 1.4451-11.345-3.5427-11.345-4.1668 0-5.7433 4.2386-3.9983 10.75 0.73506 2.7429 4.8121 3.0646 7.541 0.59501zm9.8671 1.7266c-2.1292-3.9784 0.90992-8.0716 5.9931-8.0716 3.341 0 5.1782-2.6205 2.8643-4.0856-0.76765-0.48607-3.0832-0.89066-5.1457-0.89908s-3.75-0.46531-3.75-1.0153c0-1.4204 10.355-1.2449 11.8 0.2 0.70648 0.70648 1.1998 4.0995 1.1996 8.25l-4.1e-4 7.05-5.9613 0.25586c-5.0314 0.21594-6.1232-0.0468-6.9996-1.6843zm8.3799-0.67859c0.86999-0.33384 1.5818-1.6838 1.5818-3 0-2.833-4.8665-3.4637-6.9894-0.90574-2.5949 3.1267 0.88601 5.6408 5.4076 3.9057zm11.617 0.67273c-0.56935-1.0638-1.0352-4.2138-1.0352-7 0-3.8362-0.36407-5.0657-1.5-5.0657-1.8845 0-1.9522-1.6402-0.11147-2.7003 0.76369-0.43983 1.5512-1.6624 1.75-2.7168 0.56894-3.0175 2.8615-3.1507 2.8615-0.1662 0 2.0889 0.47849 2.5833 2.5 2.5833 1.5556 0 2.5 0.56667 2.5 1.5 0 0.94152-0.95025 1.5-2.5523 1.5-3.6242 0-3.3643 9.8785 0.30226 11.487 3.1315 1.3738 2.8075 2.5129-0.71482 2.5129-1.9078 0-3.3339-0.68962-4-1.9343zm13 0c-0.56935-1.0638-1.0352-4.2138-1.0352-7 0-3.8362-0.36407-5.0657-1.5-5.0657-1.8845 0-1.9522-1.6402-0.11147-2.7003 0.76369-0.43983 1.5512-1.6624 1.75-2.7168 0.56894-3.0175 2.8615-3.1507 2.8615-0.1662 0 2.0889 0.47849 2.5833 2.5 2.5833 1.5556 0 2.5 0.56667 2.5 1.5 0 0.94152-0.95025 1.5-2.5523 1.5-3.6242 0-3.3643 9.8785 0.30226 11.487 3.1315 1.3738 2.8075 2.5129-0.71482 2.5129-1.9078 0-3.3339-0.68962-4-1.9343zm10.965-9.5657c0-6.325-0.0238-11.838-0.0528-12.25s0.64595-0.8955 1.5-1.0733c1.3386-0.27872 1.5528 1.4115 1.5528 12.25-2e-5 10.51-0.24622 12.573-1.5 12.573-1.2464 0-1.5-1.9444-1.5-11.5zm9.4546 9.0454c-4.8701-4.8701-1.0836-15.545 5.514-15.545 8.2069 0 8.9544 9.3736 0.78147 9.7999-6.2432 0.32563-6.8746 1.0755-3.6339 4.3162 1.6599 1.6599 2.9379 2.0059 5.9284 1.6048 2.9871-0.40066 3.6964-0.20933 3.2769 0.8839-0.96073 2.5036-9.0237 1.7839-11.867-1.0593zm9.5454-8.4637c0-4.2437-5.98-5.8561-7.9648-2.1475-1.5608 2.9163-1.3919 3.0657 3.4648 3.0657 2.475 0 4.5-0.4132 4.5-0.91821zm15 2.4182c0-6.8889 0.28431-8.5 1.5-8.5s1.5 1.6111 1.5 8.5-0.28431 8.5-1.5 8.5-1.5-1.6111-1.5-8.5zm8 7.0936c0-0.91026 0.69987-1.2234 1.984-0.88757 6.7401 1.7626 8.5278-2.0302 2.4423-5.1818-4.1743-2.1618-5.5544-5.46-3.3806-8.0793 1.3619-1.641 9.9543-2.0251 9.9543-0.44496 0 0.55-1.8 1-4 1-5.3231 0-5.4456 2.7256-0.2473 5.5 3.9943 2.1318 5.3295 5.4911 3.2016 8.055-1.6206 1.9527-9.9543 1.985-9.9543 0.03858zm-542-20.594c0-1.1111 0.66667-2 1.5-2s1.5 0.88889 1.5 2-0.66667 2-1.5 2-1.5-0.88889-1.5-2zm534.53 1.0528c-0.87924-1.4226 0.24199-3.0528 2.0997-3.0528 0.87615 0 1.378 0.70256 1.191 1.6671-0.38952 2.0085-2.3862 2.8492-3.2907 1.3857zm-443.73-42.555c-0.16893-6.876-0.0822-12.528 0.19285-12.56 11.012-1.2867 13.005-0.75361 14.976 4.0044 2.5991 6.2748-1.9351 13.462-8.1205 12.872l-3.8556-0.36769v4.2764c0 11.716-2.8855 4.2828-3.1928-8.2254zm9.8803 1.7162c5.7856-3.6788 1.2836-15.41-4.6874-12.214-2.3691 1.2679-2.9871 11.435-0.75 12.338 1.8998 0.7666 4.1169 0.71629 5.4374-0.12338zm-76.687 9.0157c0-0.49997 1.125-1.4216 2.5-2.0481 3.1703-1.4445 3.2976-5.1772 0.40388-11.849-3.9954-9.2119-4.0224-9.3329-2.0862-9.3329 1.25 0 2.3161 1.6119 3.6377 5.5 1.0282 3.025 2.1642 5.5 2.5245 5.5s1.4351-2.475 2.3887-5.5c1.1244-3.5672 2.2805-5.5 3.2896-5.5 0.85574 0 1.3272 0.5625 1.0476 1.25-0.27954 0.6875-1.9104 4.85-3.6241 9.25-4.4249 11.361-5.3688 12.96-7.8651 13.32-1.2191 0.17575-2.2166-0.08951-2.2166-0.58948zm178-3e-3c0-0.49825 1.125-1.4185 2.5-2.045 3.4054-1.5516 3.2804-5.4576-0.45544-14.237-2.7264-6.407-2.8101-6.9453-1.0804-6.9453 1.379 0 2.3257 1.3888 3.5784 5.25 2.4231 7.4687 2.9004 7.5441 4.9478 0.78199 1.1076-3.658 2.3809-6.032 3.2354-6.032 1.6137 0 1.698-0.32072-3.546 13.5-3.466 9.1346-9.1797 15.189-9.1797 9.7269zm-221.36-6.9209c-0.35171-0.35172-0.63948-5.457-0.63948-11.345v-10.706l3.75-0.59961c7.2124-1.1532 11.25 0.93251 11.25 5.8114 0 4.1078-2.6618 6.5434-7.9224 7.249-4.0547 0.54385-4.0776 0.57111-4.0776 4.8562 0 4.1181-0.99023 6.1038-2.3605 4.7335zm9.4263-12.341c2.3973-1.283 2.6461-6.4777 0.35247-7.3578-5.1648-1.9819-7.4182-0.79934-7.4182 3.893 0 4.8555 2.3312 5.9987 7.0657 3.4648zm9.4578 11.849c-1.5563-4.4212-0.96466-23.817 0.72645-23.815 1.5688 2e-3 1.75 1.2381 1.75 11.943 0 10.672-1.0787 15.843-2.4764 11.872zm8.2264 0.10652c-4.4284-2.5793-1.1958-8.3309 5.299-9.4282 3.047-0.51477 3.9437-1.0684 3.5198-2.173-0.31284-0.81525-0.5688-1.6705-0.5688-1.9005 0-0.23001-2.025-0.41821-4.5-0.41821-4.8913 0-6.0564-1.5713-1.9326-2.6063 6.6794-1.6764 8.8848 0.4247 9.4326 8.9869 0.47 7.3457-0.0439 9.9755-1.4916 7.633-0.42333-0.68497-1.244-0.69031-2.5034-0.0163-2.3598 1.2629-5.0023 1.2347-7.255-0.0774zm7.3157-1.9551c2.2043-1.1797 2.598-4.7729 0.60671-5.537-2.3071-0.8853-6.6724 1.3811-6.6724 3.4641 0 2.8472 2.819 3.8105 6.0657 2.0729zm34.386 0.60224c-2.3074-3.5216-0.48271-6.2991 5.1232-7.7984 6.1528-1.6456 5.6953-4.1537-0.8342-4.5734-6.7587-0.43451-5.7925-3.1952 1.1183-3.1952 5.5738 0 7.1407 2.3164 7.1407 10.557 0 6.7899-0.88217 9.061-2.5017 6.4406-0.41425-0.67028-1.2409-0.67028-2.4933 0-3.1073 1.663-5.869 1.14-7.5531-1.4302zm7.298-0.19735c2.9856-0.80009 3.301-6.3697 0.36078-6.3697-3.3933 0-6.7734 3.4966-5.2059 5.3854 1.4942 1.8004 1.6681 1.8357 4.8451 0.98433zm9.9438 1.9908c-1.3356-1.3356 0.50106-2.2715 3.3424-1.7033 6.55 1.31 7.1498-2.5013 0.89586-5.6919-6.8748-3.5073-4.9293-9.9654 3.0021-9.9654 2.1503 0 3.0657 0.48029 3.0657 1.6084 0 1.1866-0.61318 1.4545-2.3383 1.0215-2.571-0.64529-7.1073 2.0988-4.9596 3.0002 6.7592 2.837 9.8265 7.6984 6.7797 10.745-1.5884 1.5884-8.49 2.2831-9.7879 0.98517zm44.356-0.80005c-2.6913-3.2428-0.87291-6.9583 4.1894-8.5605 2.6068-0.825 4.7443-1.8375 4.75-2.25 6e-3 -0.4125 0.0104-1.2 0.0104-1.75s-2.0625-1-4.5833-1c-5.7596 0-5.6236-2.3602 0.16105-2.7944 6.2931-0.47235 12.34 15.655 6.5885 17.572-0.64142 0.21381-1.1662-0.11459-1.1662-0.72977 0-0.79597-0.55779-0.82-1.9343-0.0833-2.7552 1.4745-6.618 1.2796-8.0156-0.40435zm7.3847-1.5357c1.6056-0.61044 2.5651-1.7444 2.5651-3.0314 0-2.6126-1.9198-3.3545-5.3276-2.0589-2.7989 1.0641-3.6993 4.4846-1.4224 5.4033 0.6875 0.27741 1.3332 0.53991 1.4349 0.58333 0.1017 0.0434 1.3392-0.35991 2.75-0.8963zm10.232 2.2416c-0.25939-0.42147-0.48462-4.2463-0.50051-8.4997-0.0268-7.1786 0.85168-10.165 2.3006-7.8206 0.3885 0.6286 1.4634 0.58742 3.0053-0.11515 2.5656-1.169 5.5281-0.55924 5.5281 1.1378 0 0.56726-1.3342 1.0314-2.9648 1.0314-3.7388 0-5.0352 2.285-5.0352 8.8752 0 4.5776-1.1702 7.2812-2.3334 5.3911zm15.554-0.50034c-0.60944-0.73433-1.2459-4.0196-1.4144-7.3006-0.21131-4.115-0.69406-5.8879-1.5563-5.7154-0.6875 0.1375-1.25-0.425-1.25-1.25s0.675-1.5 1.5-1.5c0.93333 0 1.5-0.94444 1.5-2.5s0.56667-2.5 1.5-2.5 1.5 0.94444 1.5 2.5c0 1.8333 0.53333 2.5 2 2.5 2.7402 0 2.5355 1.7848-0.25 2.1804-4.4306 0.62925-3.6236 11.82 0.85239 11.82 1.6037 0 2.4105 0.46827 2.1538 1.25-0.57677 1.7565-5.2028 2.1217-6.5355 0.51597zm20.515-0.016c-4.2994-3.2648-4.283-11.388 0.0298-14.781 7.4134-5.8314 16.614 2.8166 12.071 11.346-2.4088 4.5227-8.4204 6.2288-12.1 3.4343zm8.7071-2.9725c2.0809-2.9709 1.9668-7.0494-0.27458-9.8175-2.5297-3.124-6.5816-2.083-8.0266 2.0621-2.4074 6.9057 4.4252 13.289 8.3012 7.7553zm11.214 3.5461c-0.37204-0.37204-0.38231-3.5472-0.0228-7.056 0.60989-5.9529 0.51022-6.4171-1.4902-6.9402-2.6922-0.70402-2.7597-1.933-0.14383-2.6171 1.3331-0.34862 2-1.364 2-3.0452 0-1.3872 0.70714-3.2293 1.5714-4.0936 1.9961-1.9961 5.4285-2.0412 5.4285-0.0714 0 0.825-0.85186 1.5-1.893 1.5-1.87 0-3.107 1.8242-3.107 4.5818 0 0.84609 1.0085 1.4182 2.5 1.4182 3.111 0 3.3112 1.7457 0.25 2.1804-2.0646 0.29323-2.2742 0.91678-2.5438 7.5696-0.27333 6.7447-0.86151 8.2614-2.5493 6.5736zm36.517-1.638c-3.8697-4.1191-2.8494-11.768 1.8972-14.223 7.3653-3.8088 13.817 1.4366 12.196 9.9154-1.1651 6.0949-9.9049 8.7659-14.094 4.3071zm9.2543-1.257c0.86429-0.86425 1.5714-3.1913 1.5714-5.1712 0-6.4018-5.2804-9.5505-8.4433-5.0348-4.3722 6.2421 1.7473 15.331 6.8719 10.206zm11.514 2.0024c-1.9886-2.396-2.3606-15.431-0.44044-15.431 1.1422 0 1.4977 1.2601 1.4977 5.3089 0 11.594 8.2914 12.952 8.7957 1.4411 0.46203-10.547 3.2043-9.5279 3.2043 1.191 0 7.3591-0.97674 10.524-2.4916 8.0726-0.42333-0.68497-1.244-0.69031-2.5034-0.0163-2.7742 1.4847-6.5821 1.2172-8.0624-0.56634zm17.697 0.87519c-1.008-1.008-0.7452-16.123 0.29142-16.763 0.512-0.31644 1.2031-0.13496 1.5357 0.40327 0.3885 0.6286 1.4634 0.58742 3.0053-0.11515 2.6457-1.2055 6.0148-0.42747 5.0324 1.1621-0.34232 0.55391-1.6308 1.0071-2.8634 1.0071-3.5248 0-4.641 1.9579-4.641 8.141 0 5.3726-0.87301 7.6527-2.3605 6.1652zm21.792-0.62375c-0.27809-0.72469-0.37647-5.965-0.21862-11.645l0.287-10.328 3.5-0.34645c7.9957-0.79146 12.219 2.7334 9.5165 7.9426-1.1681 2.2514-1.099 2.7622 0.57861 4.2804 2.4938 2.2569 2.4223 5.854-0.16433 8.2639-3.2948 3.0696-12.543 4.325-13.499 1.8325zm10.634-2.7176c4.2414-2.2699 1.6849-6.7142-4.1339-7.1864-3.3733-0.27372-3.4371-0.20597-3.7393 3.9715-0.33215 4.5908 2.8638 5.8958 7.8732 3.2148zm-0.63915-11.534c2.4838-2.4838 0.33405-5.4305-3.9618-5.4305-3.2931 0-3.4648 0.17344-3.4648 3.5 0 3.9714 4.2746 5.0826 7.4266 1.9306zm10.773 14.369c-3.434-3.434-0.407-8.2513 5.849-9.3083 3.047-0.51477 3.9437-1.0684 3.5198-2.173-0.31284-0.81525-0.5688-1.6705-0.5688-1.9005 0-0.23001-2.025-0.41821-4.5-0.41821-4.4631 0-5.9586-1.2263-2.9182-2.393 7.1492-2.7434 10.758 0.31432 10.973 9.2959 0.15893 6.661-0.89093 9.7889-2.4428 7.278-0.42744-0.69162-1.1904-0.7428-2.1382-0.14343-2.0793 1.315-6.3517 1.1844-7.7736-0.23747zm7.2349-1.7752c1.6056-0.61044 2.5651-1.7444 2.5651-3.0314 0-2.6126-1.9198-3.3545-5.3276-2.0589-2.7989 1.0641-3.6993 4.4846-1.4224 5.4033 0.6875 0.27741 1.3332 0.53991 1.4349 0.58333 0.1017 0.0434 1.3392-0.35991 2.75-0.8963zm13.19 1.457c-1.1028-1.1028-1.6246-3.3785-1.6246-7.0846 0-3.9308-0.4201-5.6212-1.5-6.0356-0.825-0.31659-1.5-0.97746-1.5-1.4686 0-0.49115 0.675-0.89301 1.5-0.89301 0.93333 0 1.5-0.94444 1.5-2.5s0.56667-2.5 1.5-2.5 1.5 0.94444 1.5 2.5c0 2 0.5 2.5 2.5 2.5 3.3907 0 3.1859 1.7882-0.25 2.1836-4.8044 0.5528-4.4435 11.816 0.37865 11.816 1.5833 0 2.3832 0.47021 2.1264 1.25-0.63013 1.9134-4.3097 2.0525-6.1304 0.23179zm12.618 0.36119c-0.70643-0.70643-1.243-3.7602-1.243-7.0744 0-4.261-0.40396-5.9864-1.5-6.407-0.825-0.31659-1.5-0.97746-1.5-1.4686 0-0.49115 0.675-0.89301 1.5-0.89301 0.93333 0 1.5-0.94444 1.5-2.5s0.56667-2.5 1.5-2.5 1.5 0.94444 1.5 2.5c0 2 0.5 2.5 2.5 2.5 3.3907 0 3.1859 1.7882-0.25 2.1836-4.8646 0.55974-4.529 11.816 0.35239 11.816 1.6037 0 2.4105 0.46827 2.1538 1.25-0.56269 1.7136-4.9895 2.1167-6.5132 0.59298zm10.614 0.99035c-1.2184-2.8433-0.29361-24.833 1.0444-24.834 1.9627-2.6e-4 2.1536 24.148 0.19611 24.801-0.60374 0.20124-1.162 0.2159-1.2405 0.0326zm11.33-1.3994c-6.8228-4.8248-3.3751-16.434 4.8806-16.434 7.6254 0 8.5131 8.3838 0.93248 8.8073-9.0686 0.50666-8.251 6.501 0.86955 6.3751 2.8592-0.0395 4.1278 0.3312 3.8655 1.1294-0.62223 1.8935-7.9236 1.978-10.548 0.12209zm8.2305-10.3c0.29449-0.4765-0.35578-1.6729-1.445-2.6587-2.2915-2.0737-6.9724-0.72863-6.9724 2.0036 0 1.6772 7.4284 2.2554 8.4174 0.65509zm15.583 0.47989v-11.386l4.4893-0.67322c6.429-0.96408 9.9214 0.90063 10.309 5.5044 0.37547 4.4577-2.0897 6.9029-7.7209 7.6582l-4.0776 0.54692v4.8683c0 3.6607-0.37208 4.8683-1.5 4.8683-1.2455 0-1.5-1.9318-1.5-11.386zm10.066-1.6487c4.349-2.3275 1.6837-7.9648-3.7657-7.9648-3.2444 0-3.3 0.0758-3.3 4.5 0 4.8555 2.3312 5.9987 7.0657 3.4648zm10.458 11.849c-1.5435-4.3848-0.96204-23.731 0.72645-24.171 1.5968-0.41556 1.75 0.62569 1.75 11.892 0 11.036-1.0614 16.299-2.4764 12.279zm7.6764-0.01338c-2.6269-2.6269-0.30757-8.8 3.3063-8.8 0.74991 0 2.5092-0.43559 3.9095-0.96799 4.1372-1.573 2.2428-4.032-3.1061-4.032-5.6736 0-5.4467-2.3655 0.26804-2.7944 6.4953-0.48752 12.569 15.579 6.6371 17.556-0.66813 0.22271-1.2148-0.0984-1.2148-0.71359 0-0.79597-0.55779-0.82-1.9343-0.0833-2.5953 1.3889-6.3915 1.3094-7.8657-0.16482zm7.8657-1.8352c2.2043-1.1797 2.598-4.7729 0.60671-5.537-2.3071-0.8853-6.6724 1.3811-6.6724 3.4641 0 2.8472 2.819 3.8105 6.0657 2.0729zm9.8848 2.8685c-1.2808-8.6332 0.49986-21.982 2.2371-16.77 0.18991 0.56973 1.5896 0.47006 3.4941-0.24881 6.3759-2.4066 8.3183-0.24717 8.3183 9.2479 0 6.0411-0.31829 7.9979-1.25 7.685-0.8132-0.27311-1.2631-2.5692-1.2875-6.5709-0.071-11.637-7.6277-12.31-8.4625-0.75437-0.3846 5.3241-2.5708 10.638-3.0494 7.4117zm19.429-1.2854c-0.70371-1.8339 0.32049-3.5479 2.12-3.5479 2.0581 0 2.8378 1.888 1.4636 3.5438-1.5384 1.8537-2.8733 1.8552-3.5836 4e-3zm-421.45-51.548-46.575-0.5-4.1557-2.7511c-2.2856-1.5131-5.1771-4.6631-6.4255-7l-2.2698-4.2489v-160c0-180.81-0.76794-164.07 7.8428-170.94l3.8428-3.0642 288.16-0.28424c158.49-0.15634 289.63-0.0216 291.43 0.29932 3.7929 0.6766 9.6601 5.4848 11.842 9.705 2.4042 4.6493 2.1957 323.28-0.21468 328.04-2.3496 4.6389-4.3566 6.6716-8.8991 9.0133l-4 2.062-242 0.0816c-133.1 0.04483-262.96-0.14347-288.57-0.41847zm473.32-3.0164 57.25-0.0165 4-2.2377c2.6356-1.4744 4.7675-3.7582 6.25-6.6954l2.25-4.4577v-238.01c0-104.53 9.1175-92.512-70.195-92.543l-143.6-0.02196h-172.31s-108.57 0.0439-144.15 0.21869l-57.25 0.28131-3.6996 2.3004c-2.0348 1.2652-4.7348 3.9652-6 6l-2.3004 3.6996v78.955s-0.50221 79.85-0.45611 160.38c0.0504 88.059-0.34823 84.252 9.4561 90.308 2.8979 1.79 10.818 1.8532 232.62 1.8568 0 0 256.05-3e-3 288.13-0.0127zm-402.28-0.98355c-0.80327 0 0.80327 0 0 0zm275.1-69.868c-3.4612-6.4674 6.9317-21.323 11.76-16.81 9.6288 8.9998 45.723-4.6297 53.37-20.153 2.1368-4.3377 2.3216-4.479 2.6088-1.9945 1.8547 16.046-60.736 52.043-67.739 38.958zm15.126-20.917c-0.71666-0.4942-1.7351-3.9498-2.2633-7.6792-1.1427-8.0687-4.7866-16.953-11.704-28.536-4.4584-7.465-4.9032-8.6922-3.6529-10.079 2.5359-2.8122 1.657-4.8923-2.8906-6.8416-5.713-2.4489-9.0286-6.5947-11.704-14.635-2.5142-7.5551-2.3568-7.8943 4.5748-9.8566 2.719-0.76977 9.2187-3.0978 14.444-5.1734 7.4748-2.9693 10.696-3.7367 15.11-3.5999 3.0856 0.0956 7.7907-0.48236 10.456-1.2844l4.8456-1.4583 7.0442 7.5938c22.688 24.458 31.465 60.373 17.482 71.536-8.3029 6.6289-36.752 13.454-41.741 10.013zm34.702-12.268c6.9638-6.9638 5.7635-20.947-1.7981-20.947-4.179 0-12.036 11.509-12.079 17.693-0.0454 6.5952 8.5258 8.6051 13.877 3.2542zm-9.5515-2.4852c-0.8463-2.2054 2.2754-9.7591 5.1487-12.458 4.9501-4.6504 7.7268 3.8384 3.5151 10.746-2.201 3.6098-7.5314 4.6633-8.6638 1.7123zm-104-5.0626c-3.0002-1.4798-8.45-9.6309-7.2449-10.836 2.2272-2.2272 6.482-1.5178 8.08 1.3472 3.7643 6.749 8.515 5.2284 32.169-10.297 17.948-11.78 19.543-12.601 22.398-11.526 5.1004 1.9209 1.9858 4.6258-24.75 21.494-17.32 10.928-24.038 13.079-30.652 9.8172zm-94.848-7.0198c-22-2.3994-44.531-4.7842-50.068-5.2994-27.715-2.5788-36.85-11.041-39.486-36.58-0.56764-5.5-1.4719-13.343-2.0095-17.429-1.2339-9.3789-3.637-8.1293 26.064-13.553 14.025-2.5611 28.2-5.2773 31.5-6.0362s10.05-2.0329 15-2.8313c4.95-0.79839 19.575-3.4639 32.5-5.9233 12.925-2.4594 26.875-5.024 31-5.699 4.125-0.67502 14.25-2.5193 22.5-4.0984 16.401-3.1393 65-12.073 95-17.463 10.45-1.8776 23.388-4.2581 28.75-5.29s9.7395-1.6062 9.7266-1.2764c-0.41885 10.754-10.149 14.451-66.142 25.13-15.867 3.0262-21.996 7.6415-25.855 19.47l-1.9574 6 0.23914-12.722c0.35614-18.946 1.5193-18.583-34.261-10.703-14.113 3.1078-13-0.57083-13 42.979v36.833l2.2225 1.5567c3.2332 2.2646 5.7419 1.9733 21.277-2.471 17.843-5.1045 19.269-5.7038 21.077-8.8603 1.0852-1.8946 1.3728-2.0626 1.0469-0.61195-0.24707 1.1-0.7204 3.6155-1.0518 5.5901-0.96187 5.7302-3.7391 7.3388-23.866 13.823-34.431 11.093-30.857 10.849-80.206 5.4668zm5-24.043c4.95-1.3896 17.749-4.7505 28.442-7.4688 20.675-5.2557 22.058-5.8427 22.058-9.3678 0-4.8578-1.1164-4.7571-35.049 3.1612-37.518 8.7549-38.891 9.3983-32.886 15.404 2.3538 2.3538 3.186 2.2713 17.435-1.7286zm-14.91-1.1903c-0.89778-1.4526 3.9225-3.036 25.286-8.3061 31.125-7.6781 36.078-8.7225 36.688-7.7362 0.81918 1.3255-1.7866 2.1252-32.098 9.851-29.826 7.6019-29.097 7.4509-29.875 6.1913zm28.91-14.213c35.079-8.5877 35.935-8.8709 36.301-12.019 0.65297-5.6173-0.3887-5.5402-34.916 2.5819-32.661 7.6831-34.884 8.4113-34.884 11.426 0 5.5517 3.5622 5.3402 33.5-1.9888zm-29.5 2.0449c0-1.5887 30.774-9.5586 59.75-15.474 3.9787-0.81225 4.3526 0.85896 0.5 2.235-12.747 4.5532-60.25 14.991-60.25 13.239zm65.2-23.019c1.9719-2.3865 1.0789-6.2614-1.5633-6.7832-2.1549-0.42557-64.767 12.892-66.386 14.12-1.7641 1.3381-1.5555 6.4329 0.30615 7.4747 2.667 1.4925 65.549-12.277 67.644-14.812zm-66.2 11.099c0-1.8699-0.37849-1.7731 40-10.224 10.725-2.2446 20.512-4.3032 21.75-4.5748s2.25-0.0261 2.25 0.54531c0 1.159-4.439 2.7496-10.5 3.7624-2.2 0.36763-14.125 3.0876-26.5 6.0444-22.803 5.4483-27 6.1395-27 4.4464zm27-12.952c9.625-2.1839 21.265-4.6768 25.866-5.5399 10.692-2.0054 13.551-3.3719 13.934-6.66 0.62517-5.3628-0.32413-5.3171-35.39 1.7017-34.169 6.8392-35.41 7.2184-35.41 10.814 0 5.8091 4.1953 5.7664 31-0.31555zm-27.458 0.9618c-0.67759-1.0964 3.2894-3.0687 6.1722-3.0687 0.87142 0 12.655-2.4424 26.185-5.4276 13.53-2.9852 26.138-5.5727 28.016-5.75 6.0423-0.5702 4.3448 1.7242-2.1511 2.9076-3.4456 0.62768-15.94 3.384-27.765 6.1252-25.892 6.002-29.58 6.6334-30.458 5.2136zm118.52 45.97c7.9944-9.8073 9.9335-14.51 9.9335-24.088 0-3.2841 0.33749-3.9508 2-3.9508 2.2717 0 2.2679-0.037 1.0047 9.6853-1.5454 11.894-6.425 19.534-13.938 21.824-2.3033 0.70201-2.2497 0.51624 1-3.4705zm-233.15 1.5475c-0.13594-0.14053-2.9179-11.958-3.1779-13.499-0.39197-2.3236 24.517-7.9932 29.559-6.7279 2.7556 0.69161 6.5104 5.9195 6.9368 9.6583 0.21737 1.906-31.856 12.08-33.318 10.569zm192.33-1.3209c-1.4726-0.50945-1.8259-70.809-0.3674-73.11 1.399-2.2074 35.891-8.7591 37.535-7.1297 1.1076 1.0978-1.239 67.724-2.4671 70.047-0.45735 0.86511-4.3459 2.5388-8.6411 3.7194s-11.635 3.2173-16.31 4.5262c-4.675 1.3089-9.0625 2.1852-9.75 1.9473zm-199.64-2.8476c-0.93556-2.438-0.7194-5.4182 0.39301-5.4182 0.55 0 1 1.575 1 3.5 0 3.7946-0.44031 4.4009-1.393 1.9182zm40.56-14.832c-1.2233-3.3829-4.8826-5.5861-9.278-5.5861-3.5036 0-5.7844-14.146-2.3893-14.819 7.4857-1.4836 5.4286-24.419-2.8795-32.105-3.5265-3.2625-3.0259-10.076 0.74035-10.076 5.8638 0 10.634 16.17 13.123 44.487 0.79073 8.9943 1.7291 17.514 2.0852 18.933 0.92951 3.7035 0.0494 3.1799-1.402-0.83415zm203.1-25.336c0.61358-14.671 2.4237-21.69 6.9123-26.802 3.0452-3.4683 8.7498-7.5103 6.1544-4.3608-1.3345 1.6194-3.5179 37.944-2.3573 39.218 0.40347 0.44296 3.7516 0.10546 7.4402-0.75s7.2412-1.5251 7.8946-1.4881c1.9858 0.11252-21.637 6.8358-24.195 6.886l-2.3827 0.04674zm-255.27 8.309c0-0.85746 0.45-1.559 1-1.559s1 0.42344 1 0.94098-0.45 1.2191-1 1.559-1-0.0835-1-0.94098zm4.1971-8.4395c-0.61295-4.3343-2.0224-10.27-3.1321-13.19-2.3553-6.1987 31.543-15.921 35.698-10.239 2.3063 3.1541 4.2372 11.504 4.2372 18.323v6.6502l-17.25 3.173c-9.4875 1.7451-17.517 3.1709-17.844 3.1683-0.32682-3e-3 -1.0957-3.5509-1.7087-7.8851zm278.89 5.4696c0.22917-0.226 3.3417-1.1497 6.9167-2.0527 3.575-0.90298 7.4-1.899 8.5-2.2133s1.7266-0.27973 1.3924 0.0769c-0.33417 0.35666-3.816 1.5376-7.7374 2.6242-6.8571 1.9002-9.9534 2.4343-9.0718 1.5648zm-286.47-4.5868c-2.1205-5.2996-3.2723-15.002-1.7809-15.002 1.9574 0 4.2257 5.8613 4.8482 12.528 0.70125 7.5095-0.62458 8.579-3.0673 2.4741zm278.79-0.20054c1.8863-6.5198 1.7417-16.345-0.32693-22.216-1.1461-3.2527-1.9702-6.0088-1.8313-6.1245 0.47903-0.39904 43.838-9.4614 45.268-9.4614 4.5203 0 6.9698 18.558 3.2075 24.3-2.8148 4.2959-5.2678 5.3316-23.723 10.017-25.785 6.5459-23.372 6.1737-22.594 3.4849zm-4.2755-6.8017c0.0381-4.125 0.39452-8.625 0.79205-10 1.0759-3.7214 2.4011 5.71 1.5038 10.703-1.3074 7.2749-2.3666 6.9507-2.2959-0.70272zm50.867 0.3899c-0.01-3.1243 4.6342-9.432 6.5028-8.8323 1.1 0.353 4.1375 1.1358 6.75 1.7396 5.6658 1.3094 6.0229 2.8709 1.1818 5.1682-4.0119 1.9038-14.43 3.2929-14.435 1.9246zm-270.41-13.973c-0.91685-3.65-2.7746-8.822-4.1283-11.493-3.1444-6.2052-3.2463-5.9236 2.1444-5.9236 2.5331 0 7.1456-0.63846 10.25-1.4188 16.128-4.0541 40.185-6.8543 42.318-4.9257 3.923 3.5478 9.1142 18.431 6.9048 19.796-0.36144 0.22339-12.339 2.4906-26.618 5.0383-14.278 2.5477-26.69 4.8417-27.582 5.0977-1.2759 0.3663-1.9772-0.9494-3.2887-6.1708zm284.16 3.5029c-3.1453-1.8319-1.8416-2.5745 2.6787-1.5258 2.4358 0.56514 4.2092 1.3826 3.941 1.8167-0.68004 1.1003-4.5209 0.93153-6.6197-0.29092zm-341.75-1.5032c0-0.87084 0.53437-1.4052 1.1875-1.1875 1.8542 0.61807 2.1618 2.7708 0.39583 2.7708-0.87083 0-1.5833-0.7125-1.5833-1.5833zm334.24-3.4031c-2.3729-3.7996 1.5583-15.946 6.6084-20.419 2.8329-2.5088 2.7176-1.7514-0.37062 2.4344-2.9812 4.0408-4.645 9.6417-4.645 15.637 0 5.0056 0.0351 4.9539-1.5928 2.3472zm12.769-0.50261c-3.6426-4.3891 2.2443-13.874 17.058-27.483 11.522-10.585 11.987-10.872 13.897-8.5717 1.4536 1.7515 1.9893 0.84156-10.328 17.544-14.749 20-17.409 22.387-20.627 18.511zm-226.4-5.0928c-0.33385-0.86998-0.60699-2.4281-0.60699-3.4625 0-8.2383-8.851-20.587-13.953-19.466-1.7354 0.38115-3.0472 0.25837-3.0472-0.28517 0-1.5224 5.7419-2.2527 8.7504-1.1129 9.5639 3.6234 18.797 25.908 10.734 25.908-0.69881 0-1.5437-0.7118-1.8776-1.5818zm7.9968-4.4942c-0.35848-2.2418-1.9701-6.6877-3.5815-9.8797-3.1914-6.3221-3.0793-7.0443 1.0934-7.0443 4.6826 0 12.499 14.349 10.564 19.392-1.4619 3.8098-7.3605 2.0073-8.0761-2.4678zm12.906-2.6205c-4.8469-13.725-6.8717-16.632-13.068-18.762-5.1352-1.7654-2.9802-2.5683 2.8546-1.0636 8.0162 2.0673 14.083 10.222 14.882 20.005 0.50122 6.1383-2.4772 6.0244-4.6677-0.17844zm8.0786-0.5617c-0.3611-2.408-1.9721-7.16-3.5801-10.56l-2.9235-6.1818h2.7704c3.5494 0 7.5809 4.1507 9.6058 9.8899 2.1884 6.2026 2.0418 10.11-0.37936 10.11-1.055 0-2.5749 0.25199-3.3775 0.55997-1.0913 0.41875-1.6248-0.54411-2.1158-3.8182zm13.023 0.0822c-0.21052-0.7282-0.92312-3.349-1.5836-5.824-2.6853-10.063-7.032-14.948-13.518-15.192-6.5614-0.24667-3.364-2.8079 3.5053-2.8079 5.996 0 14.238 11.406 15.153 20.97 0.33717 3.5246-2.6662 5.9342-3.5568 2.8536zm178.76-1.4951c1.5111-3.0044 7.2606-8.0267 8.1597-7.1276 0.23066 0.23066-1.8698 2.6422-4.6676 5.3591-4.621 4.4872-4.9409 4.6492-3.492 1.7686zm-170.69 0.92111c-0.2401-0.4125-1.2065-3.45-2.1475-6.75-0.94101-3.3-2.5748-7.4091-3.6306-9.1312-2.4373-3.9755 0.44014-5.4596 4.4579-2.2992 4.2447 3.3389 8.5784 15.591 6.3152 17.854-1.2351 1.2351-4.3477 1.4386-4.995 0.32651zm10.771-5.9505c-5.3578-14.686-7.494-17.299-14.141-17.299-2.3713 0-4.3114-0.45-4.3114-1 0-8.2333 17.401 2.5527 20.275 12.568 3.0503 10.628 1.6124 15.149-1.8232 5.7318zm147.6 2.2959c-1.6527-3.0881-0.85171-4.2788 3.7351-5.5528 4.3831-1.2173 6.8462-1.3416 5.7972-0.2926-0.4125 0.4125-1.1625 0.75-1.6667 0.75-0.50417 0-0.96613 0.45-1.0266 1-0.50854 4.6264-5.0874 7.3683-6.839 4.0954zm-140.37-3.2028c-0.32197-1.9841-1.9654-6.2591-3.6522-9.5l-3.0668-5.8926h2.9532c4.3717 0 10.089 9.4219 10.089 16.626 0 4.3973-5.5868 3.3079-6.3237-1.2331zm-127.18 0.60741c-0.33992-0.55-0.14148-1 0.44098-1s1.059 0.45 1.059 1-0.19844 1-0.44098 1-0.7191-0.45-1.059-1zm139.17 0.33333c-0.36667-0.36666-0.66667-1.7445-0.66667-3.0619 0-8.1366-7.7715-17.271-14.694-17.271-2.6948 0-4.1826-0.39089-3.8061-1 5.1791-8.3799 22.5 8.2763 22.5 21.636 0 0.63245-2.6376 0.39257-3.3333-0.30316zm7-1c-0.36667-0.36666-0.66667-1.896-0.66667-3.3984s-1.3601-5.3174-3.0224-8.4776c-3.717-7.0662-4.0148-6.822 6.1328-5.0291l8.3896 1.4823 35.085-5.471c38.635-6.0246 43.2-7.0386 44.816-9.9547 0.60467-1.0916 1.1968-2.1572 1.3159-2.368 0.29417-0.52063 14.967-2.9337 24.784-4.0758 4.4-0.51193 10.583-1.48 13.739-2.1512 8.7452-1.8596 14.747 2.5286 14.757 10.789 4e-3 3.4852-0.41758 3.645-16.496 6.2488-11.768 1.9057-34.609 6.0668-99 18.036-29.025 5.395-28.836 5.3674-29.833 4.3697zm-148.61-5.2802c-3.4759-3.4759-5.218-8.1376-5.3875-14.417-0.31118-11.527 5.2482-6.1128 5.8819 5.7283 0.23559 4.4023 0.74362 6.2214 1.7987 6.4408 3.9557 0.82234 2.079-13.542-2.7159-20.788-3.1673-4.7861-3.1934-5.0177-0.56467-5.0177 5.8736 0 10.008 6.7916 10.714 17.599 0.70506 10.793-4.1593 16.021-9.7267 10.454zm294.97-3.0729c0.0108-2.4641 0.63617-7.9778 1.3896-12.253 1.2915-7.327 1.0605-11.208-0.96013-16.132-3.0349-7.3956 11.404 1.0428 15.891 9.2871l2.5785 4.7376-18.918 18.84zm-8.0197 2.1747c0-0.46476 0.9-1.6595 2-2.655 1.9523-1.7668 2-1.7466 2 0.84501 0 1.9883-0.5022 2.655-2 2.655-1.1 0-2-0.38026-2-0.84501zm33.411-14.11c-3.3992-5.1364-2.7005-7.0451 2.5789-7.0451 6.5973 0 7.9697 6.8104 2.0147 9.9975-1.6695 0.89347-2.3291 0.46951-4.5936-2.9523zm-168.21-1.3436c-5.9844-0.94483-6.287-1.126-6-3.5909 0.45749-3.929 3.1774-4.7124 29.865-8.6017 58.511-8.527 57.54-8.4872 59.461-2.435 1.0534 3.3188 1.0602 3.3171-37.523 9.3592-20.075 3.1437-37.175 5.839-38 5.9896-0.825 0.15056-4.336-0.17402-7.8023-0.72128zm113.39-25.778c-5.3779-6.3913-2.5915-17.63 4.8332-19.493 8.046-2.0194 13.646 11.712 8.1794 20.055-2.561 3.9085-9.503 3.6085-13.013-0.5623zm9.7443-4.1651c3.8453-5.1553-2.4868-13.757-6.4889-8.8142-2.2673 2.8-2.3695 6.861-0.24902 9.8884 1.9778 2.8236 4.0805 2.4884 6.7379-1.0743zm-343.33-107.14v-13.385l5.5552-0.69408c6.401-0.79975 9.842 0.76631 11.57 5.2659 2.6913 7.0068-1.9588 14.198-9.1812 14.198-3.935 0-3.9442 9e-3 -3.9442 4 0 3.3333-0.33333 4-2 4-1.9004 0-2-0.66667-2-13.385zm11.75 0.1071c3.7457-2.8983 0.15024-11.08-4.6257-10.527-2.3891 0.27702-2.6524 0.74947-2.9379 5.2712-0.43042 6.816 2.7188 9.0042 7.5636 5.2554zm145.25 10.739c0-1.7966 0.62803-2.4005 2.75-2.6447l2.75-0.31642 0.28753-9.25c0.24185-7.7806 0.0433-9.25-1.25-9.25-0.84564 0-1.5375-0.70216-1.5375-1.5604 0-1.1866 0.87852-1.486 3.6677-1.25l3.6677 0.31037 0.0823 10.709c0.0926 12.055-0.49912 13.343-6.777 14.759-3.3803 0.76238-3.6407 0.65456-3.6407-1.5072zm-227.92-18.077c-4.7646-14.869-4.7315-14.617-1.8658-14.203 1.7728 0.25594 2.6305 1.6583 4.3085 7.0447 2.7861 8.9436 2.9234 8.9708 5.499 1.0887 3.3163-10.149 4.4648-9.9777 7.9661 1.1861 1.9685 6.2765 2.5482 6.0835 5.1108-1.7021 2.4018-7.2968 8.4256-12.584 6.4144-5.6297-7.1458 24.708-9.1701 27.94-11.955 19.082-3.7036-11.781-3.4778-11.684-6.4901-2.812-3.6998 10.896-4.2816 10.634-8.9883-4.0542zm32.227 10.203c-6.2622-5.3865-1.6606-17.587 6.6333-17.587 4.1353 0 9.061 4.3972 9.061 8.0889v2.9111h-7c-5.279 0-7 0.33868-7 1.3776 0 3.0412 4.3308 4.6789 8.6316 3.2641 1.5249-0.50165 2.3172-0.21743 2.7839 0.99863 1.5582 4.0605-8.6339 4.7962-13.11 0.94633zm10.694-11.587c-1.2867-2.4042-5.2257-2.6315-7.4286-0.42857-2.2848 2.2848-2.0798 2.4286 3.4638 2.4286 4.7253 0 4.9693-0.12308 3.9648-2zm8.5567 11.777c-3.3424-4.7719-0.49272-9.574 6.2154-10.474 3.5766-0.47973 4.0601-0.80101 3.0454-2.0237-0.75341-0.90781-2.4364-1.3098-4.4832-1.0709-3.4831 0.40664-5.5486-1.8217-3.1181-3.3639 5.8698-3.7245 12.777 1.3269 12.798 9.3593 8e-3 2.9125 0.285 6.308 0.61664 7.5454 0.48628 1.8146 0.19336 2.25-1.5137 2.25-1.1642 0-2.1166-0.46583-2.1166-1.0352 0-0.71358-0.60093-0.71358-1.9343 0-3.3514 1.7936-7.8112 1.2367-9.509-1.1873zm8.8719-2.3489c1.7496-1.7496 2.0537-4.0125 0.65535-4.8767-1.6662-1.0298-6.0839 1.3351-6.0839 3.2567 0 3.4773 2.7505 4.2981 5.4286 1.62zm34.026 2.1169c-7.5719-7.5719 1.2187-20.841 10.888-16.435 8.6753 3.9527 5.2413 18.89-4.3427 18.89-3.0101 0-4.7394-0.64848-6.5454-2.4546zm8.5299-1.5371c4.3523-2.3293 3.1943-12.008-1.4367-12.008-5.1588 0-7.2743 9.3059-2.7196 11.964 2.102 1.2265 1.9511 1.2249 4.1563 0.0447zm11.016-5.4681v-9.4598l2.75 0.021c1.5125 0.0115 4.1169-0.26861 5.7876-0.62258 5.6303-1.1929 7.8736 1.8922 8.3065 11.423l0.36775 8.098h-2.5638c-2.5061 0-2.5704-0.1745-2.8559-7.75-0.48169-12.782-7.7921-11.963-7.7921 0.87244 0 6.2109-0.19387 6.8776-2 6.8776-1.859 0-2-0.66667-2-9.4597zm58.435 8.1515c-0.2761-0.71952-0.37448-6.682-0.21861-13.25l0.28339-11.942 3.4328-0.32699c8.6416-0.82317 14.067 2.3457 14.067 8.2162 0 5.0035-2.6888 7.7087-8.2895 8.3399l-4.7105 0.53094v4.87c0 4.8705-3.1264 7.31-4.5648 3.5617zm11.365-13.892c2.1871-2.1871 1.4195-5.766-1.4724-6.8656-4.0083-1.524-5.3276-0.52494-5.3276 4.0342 0 4.2833 3.7759 5.8555 6.8 2.8314zm10.2 5.575v-9.625l2.9612 0.59225c1.6287 0.32573 3.2302 0.15698 3.559-0.375 0.65479-1.0595 4.7883-1.3253 5.7442-0.36948 1.2318 1.2318-0.5639 3.4022-2.8147 3.4022-3.5349 0-5.4497 3.5918-5.4497 10.223 0 5.1108-0.23078 5.7775-2 5.7775-1.8615 0-2-0.66667-2-9.625zm17.455 7.1704c-4.4135-4.4135-3.1764-13.503 2.2297-16.382 9.2483-4.9257 18.145 8.3338 10.863 16.191-3.351 3.6158-9.5778 3.7069-13.093 0.19147zm10.104-3.9246c1.5423-6.1448-1.5404-11.378-5.309-9.0121-2.6553 1.6667-3.815 5.8558-2.4503 8.851 1.6088 3.531 6.886 3.6406 7.7593 0.16112zm24.03 3.3024c-5.667-6.7348-0.92203-16.923 7.8814-16.923 3.6579 0 8.5297 4.62 8.5297 8.0889v2.9111h-7c-5.279 0-7 0.33868-7 1.3776 0 2.5194 2.8548 3.9053 6.9209 3.3599 3.1998-0.42918 3.9878-0.19437 4.3799 1.305 1.142 4.3668-10.019 4.2698-13.712-0.11919zm11.411-10.316c0-3.0461-6.4334-3.5342-8-0.60699-0.99723 1.8634-0.76049 2 3.4648 2 3.2098 0 4.5352-0.4071 4.5352-1.393zm11.229 12.724c-9.7947-3.9409-2.3334-20.886 8.3167-18.888 5.0935 0.95556 4.4995 4.1964-0.68638 3.7445-4.7782-0.41636-7.0653 1.8714-6.6622 6.6643 0.36272 4.3134 3.6458 6.539 7.49 5.0775 2.7648-1.0512 4.6343 1.6208 2.2086 3.1567-1.4836 0.93939-8.5383 1.1015-10.667 0.2451zm18.806-1.265c-0.56935-1.0638-1.0352-4.6263-1.0352-7.9167 0-3.8778-0.43974-6.1416-1.25-6.4351-1-0.36215-1-0.8761 0-2.5698 0.6875-1.1644 1.25-2.75 1.25-3.5237 0-1.1507 1.9717-2.6206 3.5154-2.6206 0.19348 0 0.49418 1.2375 0.66821 2.75 0.24853 2.16 0.90645 2.8179 3.0664 3.0664 3.8454 0.44247 3.6302 3.1836-0.25 3.1836-2.9674 0-3 0.0595-3 5.4648 0 5.5569 1.6519 7.9276 4.75 6.8167 0.74343-0.26657 1.25 0.39608 1.25 1.6351 0 2.9335-7.4087 3.0567-8.9648 0.14907zm12.965-6.0657c0-4.6667-0.41667-8-1-8-0.55 0-1-0.675-1-1.5 0-1.0476 1.0556-1.5 3.5-1.5h3.5v9.5c0 9.4667-9e-3 9.5-2.5 9.5-2.4583 0-2.5-0.13333-2.5-8zm12.228 6.25c-2.0864-4.3345-0.87791-24.465 1.522-25.353l2.25-0.83238v12.409c0 7.3266 0.41624 12.666 1.0163 13.037 1.4754 0.91186 0.18243 2.4899-2.0401 2.4899-1.0482 0-2.2849-0.7875-2.7482-1.75zm11.078-0.66342c-8.6011-7.3984 1.4722-21.373 11.623-16.124 7.1758 3.7108 5.7941 9.537-2.2618 9.537-6.8307 0-7.8386 0.38837-6.9587 2.6814 0.80888 2.1079 4.3108 3.1735 7.4605 2.2702 2.023-0.58018 2.8368-0.38028 3.2931 0.80891 1.5171 3.9535-8.7691 4.5993-13.156 0.826zm10.694-11.587c-1.1868-2.2176-4.9408-2.6592-6.8-0.8-2.1175 2.1175-1.3046 2.8 3.3352 2.8 4.2253 0 4.462-0.13665 3.4648-2zm-187 3c0-1.7333 0.66667-2 5-2s5 0.26667 5 2-0.66667 2-5 2-5-0.26667-5-2zm87.364-12.493c-0.34636-0.90262-0.15025-2.1206 0.43581-2.7067 1.5236-1.5236 4.4104-0.13109 4.0124 1.9355-0.4433 2.3019-3.6477 2.8574-4.4482 0.7712zm66 0c-0.34636-0.90262-0.15025-2.1206 0.43581-2.7067 1.5236-1.5236 4.4104-0.13109 4.0124 1.9355-0.4433 2.3019-3.6477 2.8574-4.4482 0.7712zm-330.38 358.59 0.018637-418.91-11.006-0.6853 0.001364 419.25 0.001363 419.25h10.966zm642.02 403.66c5e-3 -8.3875 0.11703-196.94 0.25-419l0.24177-403.75h-5.5l-5.5 1e-5 0.24365 310.75c0.13401 170.91 0.24651 359.46 0.25 419l0.00635 108.25h10zm-84.807-731.86c25.078-5.2661 43.981-27.535 45.524-53.634 3.1484-53.229-61.083-82.05-98.816-44.34-41.017 40.992-3.5321 109.91 53.292 97.973zm-26.289-6.2803c-28.347-8.1379-44.108-38.226-34.793-66.42 15.448-46.753 83.635-45.314 98.027 2.0686 11.474 37.774-25.334 75.232-63.234 64.351zm34.363-6.3813c30.059-14.898 36.87-53.49 13.597-77.046-26.5-26.823-72.216-13.975-80.872 22.728-9.1548 38.817 31.812 71.894 67.275 54.318zm-23.562-6.8452c-0.39255-0.39255-0.71372-2.6637-0.71372-5.0471 0-3.4514-0.35616-4.3381-1.75-4.3567-6.3354-0.0846-18.191-11.314-19.98-18.924-0.77627-3.303-1.1487-3.5876-5.3026-4.0525-4.3193-0.48339-4.4784-0.62266-4.7894-4.1923l-0.32162-3.6923 4.6885-0.30771c4.6719-0.30663 4.6955-0.32651 6.6674-5.6272 2.6027-6.9961 8.8887-13.242 15.883-15.781l5.4045-1.9621-0.63496-8.4374h9.135v4.37c0 4.3587 0.0123 4.3735 4.7393 5.697 6.4563 1.8077 15.627 10.696 17.212 16.683 1.1113 4.1968 1.1813 4.25 5.5869 4.25h4.4615v10h-4.5c-3.7621 0-4.5 0.31309-4.5 1.9093 0 5.9656-11.636 17.845-19.198 19.601-2.3963 0.55621-2.7318 1.1497-3 5.3082l-0.30201 4.682-4.0363 0.29705c-2.22 0.16338-4.3574-0.0241-4.75-0.41666zm-0.71372-22.324c0-4.3423 3.3396-6.4496 7.1218-4.4937 2.4154 1.249 2.7372 1.8922 2.2259 4.4486-1.1732 5.8658 7.8104 1.332 11.586-5.8472 1.4543-2.7652 1.3507-2.9239-2.2196-3.402-6.7777-0.90766-6.414-9.7623 0.40092-9.7623 3.6499 0 3.6853-1.6386 0.13499-6.2491-5.3473-6.9441-10.25-8.5158-10.25-3.2861 0 4.3423-2.6182 6.1219-6.4428 4.3793-1.9998-0.91116-2.5572-1.893-2.5572-4.5046 0-3.8846-0.40147-4.0018-4.71-1.3748-6.6854 4.0763-10.313 13.011-4.7114 11.605 1.7854-0.44811 2.7505 3e-3 3.962 1.8519 2.2095 3.3722 0.4955 6.5784-3.5167 6.5784-4.2721 0-4.5365 1.5381-1.0738 6.2467 5.0617 6.8828 10.05 8.7739 10.05 3.81zm-376.31-39.407c-1.0722-2.9721 1.3554-4.6501 6.7276-4.6501 5.6692 0 8.0941 1.5155 6.9975 4.3732-0.52628 1.3715 0.1772 1.6268 4.4828 1.6268 2.8088 0 5.107-0.45 5.107-1s-0.42739-1-0.94976-1c-1.4691 0-11.139-19.275-10.661-21.25 0.36039-1.4886-0.31803-1.75-4.5417-1.75-2.8508 0-4.7175 0.40105-4.3834 0.94173 0.66275 1.0724-9.5094 22.058-10.692 22.058-0.42461 0-0.77127-0.7875-0.77036-1.75 1e-3 -1.5163-1.0335-1.75-7.75-1.75h-7.7517v-19.503l-4.3724 1e-3c-3.3663 1e-3 -4.1416 0.28903-3.3692 1.2514 0.55629 0.69309 0.94499 6.2488 0.87244 12.47l-0.13084 11.22 10.979 0.28023c14.508 0.37032 20.731-0.1131 20.206-1.5696zm3.3148-9.3618c0-0.82655 3.164-6.4552 3.4466-6.1312 0.1645 0.18861 1.0359 1.7919 1.9364 3.5629l1.6373 3.2199-3.5101-0.13196c-1.9306-0.07258-3.5101-0.30639-3.5101-0.51959zm157.24 9.0498c9.0005-4.5313 8.6138-17.81-0.64927-22.294-11.58-5.6058-23.409 0.99324-22.178 12.373 1.1159 10.315 12.348 15.197 22.827 9.9214zm-14.168-5.973c-4.5968-5.844-1.2741-12.915 5.9795-12.725 4.9013 0.12852 7.8888 3.0141 7.9257 7.6553 0.0547 6.8756-9.69 10.428-13.905 5.0697zm47.929 5.3849 2e-3 -3.25h-15.504v-19l-3-0.54939c-3.8168-0.69898-5.8387-0.0854-4.6661 1.4162 0.48671 0.62327 0.83569 6.1821 0.77553 12.353l-0.1094 11.22 11 0.31654c6.05 0.1741 11.112 0.41274 11.25 0.5303 0.1375 0.11757 0.25075-1.2487 0.25166-3.0362zm-324.85-7.4992c-0.19129-5.3629-0.0956-9.5051 0.21262-9.2048 0.30823 0.30027 2.7725 4.734 5.4762 9.8526l4.9158 9.3067 5.2455-9.3527c2.885-5.144 5.4588-9.5776 5.7194-9.8526s0.31735 3.8878 0.12606 9.2508l-0.34781 9.7508 4.75-7.8e-4c2.6125-4.2e-4 4.75-0.45077 4.75-1.0008s-0.49219-1-1.0938-1c-0.75721 0-0.98799-4.462-0.75-14.501l0.34376-14.501-5.309 7.4e-4c-3.1316 4.4e-4 -5.066 0.3939-4.7166 0.95934 0.51046 0.82594-4.5311 11.782-7.3405 15.952-1.0902 1.6182-9.1854-13.459-8.4084-15.66 0.32033-0.90763-1.1566-1.2498-5.3922-1.2491l-5.8333 9.2e-4v30.999l8 3e-4zm41.486 8.2492c-1.8046-4.7027 10.91-7.0816 13.362-2.5 0.7257 1.356 0.73703 2 0.0352 2-0.56935 0-1.0352 0.45-1.0352 1s2.5447 1 5.655 1c5.2903 0 5.5583-0.11286 4.1554-1.75-2.4961-2.9129-10.81-19.343-10.81-21.363 0-1.5735-0.75757-1.8871-4.559-1.8871-2.7411 0-4.3161 0.39311-3.9497 0.98587 0.33511 0.54223-2.0383 6.1672-5.2742 12.5l-5.8835 11.514h4.4402c3.536 0 4.323-0.30546 3.8646-1.5zm3.3616-9.0497c0-0.30231 0.72838-1.9582 1.6186-3.6797l1.6186-3.1301 1.3459 2.4297c2.089 3.7711 1.7169 4.9297-1.5832 4.9297-1.65 0-3-0.24735-3-0.54966zm45.545 8.0951c2.2602-2.2602 2.4546-3.2038 2.4546-11.917 0-6.634 0.37361-9.6129 1.25-9.9665 0.6875-0.27741-0.4375-0.53991-2.5-0.58333-5.2375-0.11027-5.0344-0.49373-4.8234 9.1044 0.21153 9.6237-0.53727 10.817-6.7894 10.817-5.208 0-6.3186-2.1708-5.9566-11.643l0.31948-8.3614-8.0544 4e-3 0.74702 10.25c1.0551 14.476 14.233 21.415 23.353 12.295zm85.656-3.4345-0.42598-5.889 8.0447-0.36533c14.288-0.64886 20.701-12.06 9.7089-17.276-4.3334-2.0563-27.411-2.353-25.743-0.3309 1.2037 1.459 1.1107 26.597-0.10542 28.5-0.59974 0.93829 0.41614 1.25 4.0738 1.25h4.8728zm-0.20165-15.611v-3.5h6.941c7.417 0 8.6005 0.70641 7.6341 4.5568-0.57701 2.299-1.0251 2.4432-7.5941 2.4432h-6.981zm33.5 9.0013v-12.5l-7-0.00178v25l7 0.00102zm27.423 9.9098c5.7581-4.8451 2.6822-11.815-5.7009-12.918-8.4196-1.108-10.222-1.6293-10.222-2.9556 0-2.8638 7.1427-3.2685 12.198-0.69107l3.621 1.8461 1.1278-2.4753c0.62031-1.3614 0.99849-2.569 0.8404-2.6835-8.2085-5.9443-22.849-3.4148-23.588 4.0754-0.4972 5.039 2.2605 7.3303 10.166 8.4464 8.1023 1.1439 9.1412 1.6295 7.5608 3.5338-1.5352 1.8498-9.6018 1.8286-13.173-0.0345-2.7319-1.4251-4.7527-0.0701-4.7527 3.1867 0 3.8357 17.524 4.3712 21.923 0.66989zm20.229-7.5468-0.34797-10.138 10.196 0.9797v-3.8884c0-3.5345-0.17606-3.7942-1.9343-2.8532-2.755 1.4744-21.361 1.3403-22.866-0.16482-0.93333-0.93333-1.2001-0.32222-1.2006 2.75l-6.2e-4 3.95 9.7679-0.67729 0.14506 9.0886c0.09023 5.6537-0.24362 9.0886-0.88333 9.0886-0.56561 0-1.0284 0.45-1.0284 1s1.9125 1.0004 4.25 1.001l4.25 9.7e-4zm-292.4-4.7629c1.2375-0.0558 2.25-0.59116 2.25-1.1897 0-2.3613 6.0829-13.683 9.8919-18.412l4.0278-5-23.42-22.412-1.2049 2.7058c-0.81162 1.8227-1.2196 9.6232-1.25 23.899l-0.045104 21.193 3.75-0.34177c2.0625-0.18797 4.7625-0.38742 6-0.44322zm643.25-22.614c0-28.407 0.71021-27.655-13.108-13.88-12.312 12.273-11.914 11.465-7.8904 16.048 3.4815 3.9652 7.2357 11.049 9.0224 17.024l1.2495 4.1786h10.726zm-310.07-10.988 15.106-7.5h20.959v-11h-15.531c-13.914 0-15.589 0.1822-16.085 1.75-6.7545 21.36-35.169 23.251-40.032 2.6646l-0.92472-3.9146-31.427-0.55079v11.051l22.5 0.10492 14.5 7.3951c17.464 8.907 12.994 8.907 30.934 0zm4.3989-5.1667c0.36667-0.36667 0.96667-0.36667 1.3333 0 0.36666 0.36667 0.06666 0.66667-0.66667 0.66667s-1.0333-0.3-0.66667-0.66667zm-314.59 8.0133c4.1572-3.1916 13.184-7.9223 18.509-9.6997 1.388-0.46332 1.75-1.7393 1.75-6.1678v-5.5836l-22.952 0.30226c-28.525 0.37565-27.836-0.19456-14.948 12.384 5.5898 5.4552 10.666 10.464 11.281 11.13 1.4693 1.5924 0.95564 1.7835 6.3596-2.3653zm614.53-20.097c-1.2078-0.91324-7.6634-1.25-23.962-1.25h-22.309l0.0246 10.5 6.9801 2.8256c3.839 1.5541 9.571 4.7338 12.738 7.0661l5.7577 4.2405 11.212-11.066c9.8888-9.76 11.017-11.214 9.5589-12.316zm-310.85 11.801c3.2494-2.0082 7.5821-8.5573 7.5821-11.461 0-1.4639-1.8283-1.6085-17.25-1.3638-19.47 0.30882-19.632 0.39992-13.869 7.7736 6.0145 7.6957 15.845 9.8051 23.537 5.0507zm-65.264-7.1346c0.19058-2.7961 0.15901-5.2711-0.0702-5.5-0.22912-0.2289-48.717-0.41618-107.75-0.41618h-107.33v11h214.81zm326.22 3.3338c0.28012-0.9625 0.49044-3.4375 0.46739-5.5l-0.04191-3.75h-215.8v11h107.43c101.46 0 107.46-0.09735 107.94-1.75z"/>
</svg>
