<?xml version="1.0" encoding="UTF-8"?>
<!-- Created with Inkscape (http://www.inkscape.org/) -->
<svg width="822" height="1122" version="1.1" viewBox="0 0 822 1122" xmlns="http://www.w3.org/2000/svg">
 <path d="m102 1e3c-18-0.55-20-0.94-23-6.8l-2.5-3.7v-467c0-408 0.18-468 1.5-470 0.81-1.6 2.9-4 4.6-5.5l3.1-2.6h642l7.8 7.8v469c0 428-0.14 469-1.6 472-0.88 1.5-3 3.7-4.8 4.9l-3.2 2.2-303 0.25c-167 0.14-311 0.023-320-0.25zm30-8.6-0.3-5.6-6.8-2.9c-3.8-1.6-9.2-4.7-12-6.9-6.8-5.1-5-5.8-18 6.6-15 15-15 14 15 14l22 0.063zm218 0.48c0.19-2.8 0.16-5.3-0.07-5.5-0.23-0.23-49-0.42-108-0.42h-107v11h215zm35 1.6c3.7-20 34-21 40-1.8l1.3 4.7 31 0.47v-11h-21l-30-15-30 15-23 1-0.33 2.9c-0.18 1.6-0.057 4 0.27 5.3l0.6 2.4 31-0.2zm37-0.041c-2.8-14-25-17-32-3.5-3.4 6.5-3.3 6.5 16 6.5h17zm254-2 0.1-5-215-0.51v11l215-0.51zm51 4.6c2-1.2 0.62-2.9-12-14l-10-9.7-5.8 4.3c-3.2 2.4-8.3 5.4-11 6.7-3 1.3-6.1 2.6-6.9 3-1.3 0.64-1.6 2.6-1.2 8.8l0.13 2.2 23-0.015c13-0.01 23-0.41 24-0.89zm4.9-28 0.27-24h-11l-1.9 5.7c-1.6 4.7-6.4 13-11 19-0.9 1.2 20 23 22 23 0.62-0.1 1.1-9 1.3-24zm-639 13c5.8-5.6 11-10 11-11 0.5-0.18-0.94-2.7-3.2-5.5-4.1-5.2-9.8-16-9.8-19 0-1.2-1.3-1.5-6-1.5h-6v22c0 30-0.93 29 14 15zm297-5.7 16-8 32 16 244-0.53 7.7-3.8c11-5.3 19-14 25-25l4.3-8.7v-802l-22-0.56-0.69 4.8c-10 69-108 68-122-2l-0.56-2.8h-480l0.51 804 4 8c6.4 13 18 23 31 28 4.6 1.6 14 1.7 125 1.8l120 0.033zm-62-413-211-0.5-4.3-2.8c-2.9-1.9-5-4.4-6.7-8l-2.4-5.2-0.01-158c-9e-3 -141 0.16-159 1.5-162 1.8-4.4 5.8-8.8 9.7-11 4.4-2.3 579-2.4 583-0.096 3.9 2 8.1 6.5 9.4 10 0.74 1.9 1.1 52 1.1 163v161l-2.2 3.9c-1.2 2.1-4 5.1-6.2 6.6l-4 2.8-40 0.25c-22 0.14-57 0.36-79 0.5s-134 0.024-250-0.25zm355-2.7c25-1.7 24 3.8 24-94l-0.022-158c-0.029-105 9.1-93-70-93-134-1.5-460 0.022-460 0.022-79 0.031-70-12-70 94 0.38 52 0.16 104-0.034 155-0.32 85-0.38 84 4 89 5.5 6.2 6.4 6.4 31 6.4 14 0 22 0.38 23 1 0.76 1.2 501 0.59 519-0.66zm-510-5.4c0-1 1.8-4.9 2.7-5.9 1.5-1.7 90-4.7 91-3.2 0.92 1.3 0.9 6.4-0.028 7.8-1.3 1.9-94 3.1-94 1.3zm101 0.4c-0.37-0.37-0.67-3-0.67-5.8s-0.47-5.6-1-6.2c-0.72-0.72-0.71-4.9 0.03-13 1.9-22 2.3-34 1.5-46l-0.75-12-2.9 3.5c-4.3 5.1-7.4 14-10 28-1.9 10-2.7 13-4 13-2.9 1e-3 -4.2 2.7-3.5 7.5 0.35 2.5 0.21 4.5-0.31 4.5-1.7 0-4-4.4-4-7.5 0-1.7-0.66-4-1.5-5-5.4-7.1-1.3-34 7.9-52 3.5-6.9 6.7-14 7.1-16 0.79-3.6 6.7-9.2 13-12l3.8-1.7 0.61-17 4.5-0.31c5.9-0.41 6.2-0.86 5.1-6.9-1.8-9.7 1.1-14 9.2-14 10-0.067 14 4.9 13 16-0.55 5.8-0.38 6.9 1.4 8.5 1.2 1.1 2.3 3.9 2.7 6.6 1.2 7.9 1.9 9 7.1 10 2.9 0.81 7 3.3 11 6.5 3.4 2.8 9 6.9 13 9l6.4 3.8 10-5.1c7.3-3.6 11-4.9 13-4.5 1.5 0.3 2.7 0.066 2.7-0.54 0-0.65 1.4-0.83 3.5-0.49 2 0.33 4.1 0.077 4.9-0.61 0.79-0.66 1.7-0.78 2-0.28 0.85 1.4-2.9 8-5.8 10-1.4 1.1-2.6 2.7-2.6 3.4 0 1.8-5.1 5.5-12 9.2-13 6.5-16 6.7-30 2.1-11-3.6-9.8-4.2-11 5.5-1.8 13-1.3 25 1.9 45 2.8 17 2.9 18 1.4 20-1.6 1.8-1.6 3.5 0.23 13l0.65 3.2h-27c-15 0-28-0.3-28-0.67zm61-1.3c0-1.4 0.67-2 2.4-2 3.9 0 82-3.9 92-4.5l8.8-0.61v9.2h-52c-51 0-52-0.026-52-2zm105-2.6c0-4.9 0.059-4.8-10-14-2.8-2.3-2.8-2.4-3.8-20-1.3-24-1.6-26-4.6-30-3-3.6-2.4-4.9 1.1-2.6 4.6 3 5.2 5.9 6.6 29l1.3 22 6.2 5.1c7.3 6 11 15 5.5 15-1.7 0-2-0.67-2-4.6zm6-0.076v-4.9l40-1.9c22-1.1 42-1.9 45-1.9l4.5-0.011-0.3 6c-0.17 3.3-0.54 6.2-0.83 6.5-0.29 0.29-20 0.68-44 0.88l-44 0.35zm95-35c0.086-36-0.081-40-1.6-44l-1.7-3.8-2.9 2.1c-9.7 6.9-17-2.2-8.6-11 2.5-2.8 4.8-6.4 5.1-7.9 0.61-2.9 3.8-5.8 5.7-5.2 0.62 0.2 2.5-1.5 4.2-3.8s4.5-5 6.4-5.9c4.8-2.4 7-8.3 4.2-11-1.5-1.7-2.9-9.2-2-11 0.48-0.74 0.6-3.2 0.27-5.5-0.75-5.2 0.76-8.1 5.1-9.9 8.8-3.7 17 0.99 17 9.5 0 3 0.41 4.1 1.5 4.1 1.2 0 1.5 1.6 1.5 8.4v8.4l4.4 3.6c7.5 6.2 8.4 15 2.9 31-3.5 10-4.1 22-1.8 37 2.6 17 3 27 1.2 30-0.85 1.4-1.7 6.2-2.1 11-1 15 1.2 14-21 14h-19zm44 39c0-1.5 3.6-1.8 44-4.1 41-2.3 39-2.3 38 1.8l-0.96 2.7-41 0.26c-26 0.16-41-0.095-41-0.7zm1.3-9.1c0.36-3.4 0.77-6.4 0.9-6.5s16-0.99 35-1.9 37-1.9 40-2.2c5.3-0.55 6.8 1.2 6.8 8.2v3.3l-7.2 0.59c-4 0.32-20 1.3-35 2.1s-31 1.8-34 2.1l-6.4 0.6zm-253 0.96c-1.3-5.8-1.5-5.7 42-7.9 53-2.7 49-2.8 55 1.6 6.3 4.9 9.1 4.4-40 7-59 3.1-56 3.1-57-0.74zm-158-2.5c-0.68-2.7 0.48-43 1.3-43 0.46-0.46 29-1.7 51-2.1l12-0.26 0.33 2.8c0.3 2.5 0.11 2.7-2 1.9-10-3.6-46 0.082-51 5.2-3.5 3.7-3.7 24-0.36 28 7.6 10 54 6.3 57-4.8l0.67-3.1 2.2 2.1c4.7 4.4 13 2.9 13-2.4 0-0.88 1.5 0.15 3.6 2.5 3.2 3.6 3.5 4.4 2.9 7.8l-0.65 3.8-42 1.7c-23 0.94-43 1.9-44 2.2-2.3 0.36-2.8 3e-3 -3.4-2.1zm264-3.2c-5.7-4.5-5.9-5.2-1-5.2 2.1-8e-3 22-0.9 45-2s44-2 47-2l5.2-0.014v7.8l-8.2 0.61c-8.8 0.65-80 4.6-82 4.5-0.61-0.022-3.2-1.7-5.8-3.8zm-249-2.8c-3.9-2.5-4.8-5.4-4.8-15 0-17 2.1-18 31-19 22-0.29 23-0.23 22 7.3-0.03 2.1 0.42 4.5 1 5.2 4.3 5.2 1.4 17-5 20-5.6 2.7-41 3.6-45 1.1zm145-0.78c-0.082-0.88-0.2-2.1-0.25-2.7-0.055-0.6 1.7-1.7 3.9-2.4 17-5.7 13-31-4.5-32-6.1-0.44-6.6-0.71-5.1-3 1.1-1.7 91-4.8 92-3.1 0.71 1.2 3.4 40 2.8 40-0.2 0.2-16 1.1-35 1.9-19 0.85-39 1.8-44 2.2-8 0.53-9.3 0.4-9.4-0.98zm40-5.2c3.8-3.4 0.86-11-4.2-11-2.2 0-7 4.1-7 6 0 5.7 7.1 9.1 11 5.3zm-7.2-1.4c-2.4-2.4-2.5-4.3-0.41-6.4 3.4-3.4 7.8-0.92 7.3 4-0.45 3.8-4.2 5.1-6.8 2.4zm43-2.9c13-8 7.6-29-7.9-30-17-1.3-23 22-8 30 4.8 2.5 12 2.6 16 0.057zm-13-0.51c-14-5.2-12-26 3.1-27 9.8-0.68 15 4.4 15 14 0.033 11-8.4 17-18 13zm-24-18c4.9-3.9 2.3-11-4-11-5.2 0-7.5 8.4-3.1 11 2.9 2 4 2 7.1-0.52zm-6.9-2.4c-1.2-1.9-1.3-2.9-0.49-4.5 2.1-3.9 8-2.1 8 2.4 0 4.7-4.9 6-7.5 2.1zm220 29c0-2.8 3.1-7.1 5.3-7.2 1.2-0.043 13-0.63 26-1.3l24-1.2 8.5 2.9c4.7 1.6 8.8 3.2 9.3 3.6 0.43 0.4-9.7 1.3-22 1.9-49 2.5-51 2.5-51 1.3zm-155-5.9c-0.034-2.1-0.6-11-1.3-21-0.81-11-0.87-17-0.19-17 0.56-0.16 23-0.83 49-1.5s49-1.3 51-1.5c4.8-0.57 5.3 1.2 5.7 21 0.28 15 0.079 18-1 19-1.4 0.47-90 4.6-98 4.6l-4.8-3e-3zm36-0.8c21-1.1 27-11 18-28-3.5-7.2-30-10-42-4.9-15 6.5-6.6 36 9.7 34 1.6-0.19 8.2-0.64 14-0.99zm-23-1.7c-7.6-4-8.8-26-1.6-30 4.2-2.2 33-3.1 37-1.1 12 6.5 9.3 29-3.6 30-15 1.5-29 1.7-31 0.4zm78-4.5c8.7-5.5 8.2-21-0.95-26-11-6.8-22-0.54-22 13-0.22 12 13 19 23 13zm-14-2.3c-12-7.1-7.5-25 5.7-25 7.9-0.025 13 6.3 13 16s-9.8 14-19 9zm-245 8.8c-3-3.3-3.8-6.5-2-8.3 0.8-0.8 1.9-4.3 2.6-7.7 3.1-18 5-5.6 2.2 14l-0.62 4.3zm71-0.084c-0.4-1.2-4.5-26-4.5-27 0-0.33 2-0.6 4.4-0.6 11 0 18 12 13 22-2.6 5.5-12 9.7-13 6zm255-4.1c0-1.7 0.5-2 5.2-3 4.2-0.93 6.1-5.6 5.3-13-1.5-13-4.5-19-11-19-2.4 0-3.5-0.46-3.5-1.4 0-1.9 5-2.3 31-3l21-0.56 2.2 16c1.2 8.7 2.5 17 2.8 19l0.55 3.6-16 0.68c-8.7 0.37-21 0.96-27 1.3-9.7 0.56-11 0.45-11-1.1zm29-5.1c3.5-5.3-3-12-7.6-8-2.7 2.4-2.5 6.9 0.26 8.9 3.2 2.2 5.5 1.9 7.4-0.95zm-7.6-1.5c-2.2-4 2.6-8 5.8-4.8 0.66 0.66 1.2 2.5 1.2 4 0 3.5-5.2 4.1-7 0.8zm24 2.2c4.1-2.7 1.5-10-3.4-10-3.5 0-5.2 1.7-5.2 5.1 0 4.6 5 7.5 8.6 5.1zm-6.4-2.4c-2.5-2.5-0.64-6.8 3-6.8 2.2 0 4.1 3.5 3.3 6-0.7 2.2-4.4 2.7-6.3 0.76zm-12-18c1.7-1.7 1.5-5.8-0.45-8-3.5-3.8-9.3-1.5-9.3 3.8 0 4.3 6.8 7.2 9.8 4.2zm-6-0.88c-4-2.3-0.9-9.1 3.2-7 2.5 1.3 2.9 6.5 0.48 7.4-1.9 0.73-1.5 0.77-3.7-0.47zm23-1.1c3-5.3-4.9-12-8.3-6.6-2.1 3.1-2 5.4 0.46 7.9 2.7 2.7 6 2.1 7.9-1.3zm-7.2 0.58c-1.4-1.4-0.73-6.4 0.92-7.1 2.5-0.97 4.9 1.1 4.9 4.3 0 2.9-3.8 4.7-5.8 2.8zm-37 10c-1-6.8-2-13-2.2-14-1.1-5.7 7.6-3.2 10 2.9 4.4 11 3 22-3 23l-3 0.62zm-322-8.3c0.18-1.6 0.9-3.1 1.6-3.3 1.8-0.6 1.5 3.3-0.34 4.8-1.4 1.2-1.5 0.97-1.2-1.6zm-90-4.1c0.33-0.85 0.59-2.1 0.59-2.8 0-1.3 11-1.9 51-2.8l12-0.26v5l-17 0.66c-49 1.9-47 1.9-46 0.23zm91-2.1c0.045-2.2 2-3.6 2-1.5 8e-3 1.2-0.43 2.2-0.98 2.2s-0.99-0.34-0.98-0.75zm63-3.6c0-3.1 2.4-3.3 36-4.2 12-0.29 29-0.81 37-1.2l15-0.62 2.3 5-13 0.59c-7 0.32-22 0.83-33 1.1s-26 0.8-33 1.1l-13 0.6zm-142-1.6c9.7-1.3 52-2.2 52-1.1 0 0.59-3.9 1-9.8 1-5.4 2e-3 -18 0.21-29 0.46-12 0.29-17 0.16-13-0.38zm240-1.4-1.6-2.2 12-0.69c36-2 89-2.8 91-1.3 4 2.6 2.6 3.4-6 3.4-11 0-73 1.8-85 2.4-8.7 0.46-9.3 0.36-11-1.7zm106-3.2c-1.8-1.9-2-2.6-0.85-2.6 1.9 0 4.1 2.5 3.6 4-0.2 0.6-1.4-0.059-2.8-1.5zm-203 1.1c1.1-0.94 16-1.5 16-0.63 0 0.57-3.5 0.99-8.2 0.99-4.5 0-8-0.16-7.8-0.36zm35-1.4c1.8-0.22 4.5-0.22 6 0.01s0.032 0.41-3.3 0.4c-3.3-6e-3 -4.5-0.19-2.7-0.41zm221-0.89c-1.1-2.9 1.2-3.2 23-3.6 20-0.29 22-0.14 24 1.3 2.3 2.3-8e-3 2.6-26 3.2-18 0.44-21 0.3-21-1zm-399-9c-13-7-12 1.9-12-119l-0.51-104 2.1-4.2c5-9.8 10-11 41-9.5 98 4.9 289 16 352 20 40 2.6 41 2.7 45 9.8l2.7 4.2-0.16 91c-0.2 110 1.1 103-20 105-11 0.63-10-1 1.2-2.5 8.6-1.2 12-3.1 15-7.8 1.5-3 3.8-167 2.4-178-1.6-13-12-18-40-18-14-8e-3 -21-0.41-120-6.5-58-3.6-96-5.7-134-7.5-12-0.57-40-2.2-60-3.5-71-4.7-76-4.3-81 5.4l-2.2 4.7 0.35 96c0.49 138-3.9 124 39 124 17 9.9e-4 26 0.36 26 1 0 0.55-0.79 1-1.8 1-0.96 3e-3 -13 0.25-26 0.54-22 0.48-25 0.35-28-1.1zm185-3.7c4.1-2.5 147-4.8 144-2.4-0.43 0.4-129 3.7-140 3.6-5.1-0.041-5.7-0.22-4-1.3zm27-8.4c-8.4-1.3-14-2.6-14-3.6 0-0.66 1.2-0.8 3.2-0.39 13 2.7 13 2.9 13-14l0.18-9.2-3-0.039c-1.6-0.022-4.1-0.68-5.5-1.5s-4.2-1.4-6.2-1.5c-2-0.02-4-0.49-4.3-1-1.8-2.9-11 2-14 7.1-0.79 1.5-2.4 3.3-3.5 3.9-1.9 1-1.9 0.78 0.55-3.4 3.7-6.3 4.7-15 1.7-15-3.5 0-7.1-2.9-7.1-5.8 0-11-2.2-11-14-0.55l-10 8.7 5.3 5.4c2.9 3 7.7 7.3 11 9.6 6 4.6 5.3 6.5-0.88 2.2-97-67-8-224 98-173 99 48 57 209-50 192zm29-3.7 5.2-1.2 0.44-6.5c0.81-12 0.75-13-1.1-17-2-4.4-2.9-4.7-7.7-2.7-1.8 0.77-6.9 1.9-11 2.6-10 1.6-11 2-10 9.5 0.83 7.9 0.83 8.6 0.032 12-1.5 6.2 6.9 7.4 25 3.4zm20-6.6c17-8.1 23-16 14-18-3.5-0.66-6.5-4.2-6.5-7.8 0-0.81-1.4-2.5-3.1-3.8-6.2-4.6-14-12-16-15-2.6-4.3-3-4.2-5.1 0.93-2.3 5.5-2.3 5.6 1.3 11 2.7 4 3 5.1 2.1 7.5-0.78 2.2-0.58 3.8 0.9 7.1 2.1 4.6 2.4 8.6 1 12-3.4 9.3 0.2 11 11 5.9zm32-23c14-17 22-35 24-58l0.7-6.8h-3.5c-5 0-6.1 1.9-5.3 8.9 0.59 5.2 0.24 7.2-2.9 16-1.9 5.6-3.5 12-3.5 13 0 4.5-3.5 9.6-11 16-4.5 3.9-6.7 6.6-7.4 9-0.53 1.9-1.6 4.4-2.5 5.5-0.82 1.1-1.5 3.2-1.5 4.8l-0.032 2.8 3.8-3c2.1-1.7 5.9-5.4 8.3-8.3zm-65 2.7c18-3.7 20-5 16-12l-3-4.6-2.9 3.1c-3.1 3.4-2.2 3.5-10-1.7-2.4-1.5-4.8-1.9-13-1.9-8.1-0.022-10-0.34-12-1.9-1.1-1-2.1-1.7-2.1-1.5-0.032 0.22-0.25 2.2-0.48 4.4s-1.3 5.8-2.4 7.9c-2.4 4.7-1.3 7.1 2.9 6.2 1.5-0.29 4 0.29 6.1 1.4 4.3 2.3 11 2.5 21 0.48zm-36-3.5c0.86 0 1.8-1.3 2.2-2.9 0.35-1.6 1.3-3.5 2.1-4.1 0.8-0.66 1.5-3 1.5-5.3 0.033-2.3 0.44-6.4 0.91-9.1 0.68-4 0.48-5.8-1.1-9.4-1-2.4-1.9-5.4-1.9-6.8 0-5.9-5.5 0.28-7.4 8.4-0.79 3.4-2.4 7.6-3.6 9.3-2.1 2.9-2.1 3.5-1 9.8 0.64 3.7 1.1 8.4 1.1 11l-0.088 3.8 2.9-2.1c1.6-1.1 3.6-2.1 4.5-2.1zm89 1.8c0.86-1.2 1.6-3.2 1.6-4.3s0.93-3 2.1-4c2-1.8 2-1.9 0.26-3.2-1.5-1.1-1.8-2.9-1.9-12-0.12-11-1.4-14-5.3-14-0.88-4e-3 -2.9-0.88-4.5-1.9s-3.3-1.7-3.8-1.4c-0.45 0.28-2.1-0.42-3.7-1.6-3.6-2.6-4.1-2.6-4.1-0.12 0 6.1-5.6 1.4-7.5-6.2-1.4-5.5-4-6.1-4.9-1.2-0.58 3.1-1 3.6-3.5 3.6-8.8 0 0.63 21 14 33 2 1.6 5.1 4.2 7 5.7s3.7 4 4.1 5.5c1.4 5.7 6.9 7.4 10 3zm-129-8.7 2.8-2.9-4.1-5.1c-6.7-8.5-6.6-16 0.38-19 5.9-2.5 11-0.45 12 4.9 1.6 7.6 6.4 11 6.4 5.1 0-1.3 0.56-3.3 1.2-4.4 1.8-2.8 0.22-4.7-5.7-7.2-2.8-1.1-6.4-2.7-8.1-3.6-2.8-1.4-21 3.5-25 6.6-1.7 1.4 14 28 16 28 0.44 0 2.1-1.3 3.6-2.9zm29-5.7c-0.2-4.9 0.16-6.5 2-8.8 2.5-3.2 8.8-31 8.9-39 0.035-5.8-2.9-6.7-5.8-1.8-0.94 1.6-2 3-2.4 3-2.2 0.02-3.8 3.6-3.8 8.4 0 4-0.48 5.7-2 7.1-3.6 3.3-6.4 8.5-5.1 9.7 1.5 1.5 1.4 5.3-0.08 7.7-0.99 1.6-0.81 2.9 1 7.3 1.2 2.9 2.2 6.2 2.2 7.2 0 2.2 2.9 5.8 4.4 5.3 0.56-0.19 0.9-3 0.76-6.3zm59-3.7c6.2-9.6 6.2-9.2-0.95-22-5.9-11-7.8-13-9.3-11-1.1 1.8-7.7 1.1-10-0.97l-2.1-2-8.3 15c-4.5 8-8.1 15-8 16 0.78 4 5.5 5.7 15 5.6 8.6-0.12 9.5 0.053 13 2.7 5.4 3.9 5.7 3.8 10-3.3zm60-4.8c2.9-5.7 2.6-12-0.84-13-10-5.6-13-3.3-13 12-0.17 14 7 15 14 1.1zm-138 6 3.4-2.9-2.1-4.8c-1.2-2.6-2.3-5.7-2.4-6.7-0.6-4-9.7-3.5-12 0.58-1.5 2.8 0.26 8 4.2 13 4 4.8 4.3 4.8 8.8 1zm47-26c7.8-14 7.5-12 2-15-5.5-3.2-5.9-3-9.6 5.2-3.3 7.4-3.7 13-1.2 18 2.1 4.5 1.2 5.3 8.8-8.1zm-65 2.1c10-3.8 14-4.3 16-2 0.68 0.82 1.9 1.5 2.7 1.5 0.78 0 2.9 0.74 4.6 1.6 3 1.5 3.2 1.5 4.2-0.17 0.57-0.99 2.5-3.5 4.3-5.5 6.3-7.2 3.2-9.3-13-8.2-5.8 0.38-16 0.63-23 0.57l-12-0.11 0.92 4.2c3 14 2 13 15 8.2zm143 0.5c1.6-3.1 2.9-3.7 4-2 0.34 0.55 1.4 1 2.3 1 0.94 0 3.4 0.9 5.4 2s3.9 2 4.2 2c1.6 0 4.9-14 4.7-20-0.12-4.4 0.3-7.5 1.2-8.8 1.2-1.8 1.1-2.3-1.5-5-4.3-4.6-4.8-12-0.87-15 0.4-0.28 2.4-2.7 4.4-5.3l3.6-4.8-2.3-5.7c-2.4-5.9-5.5-7.3-9.4-4.1-0.78 0.65-1.8 0.67-2.9 0.042-0.97-0.54-2.9-0.61-4.5-0.16-2 0.57-3.1 0.38-4-0.69-0.68-0.82-2.1-1.3-3.1-0.99-1.1 0.28-2.7-0.3-3.7-1.3-2.1-2.1-6.3 0.44-7.4 4.5-0.32 1.1-2.6 4-5.1 6.5-4.9 4.9-5.3 6.8-3 12 2.3 5.5 1.8 11-2 22-4.6 14-4.6 15 0.25 18 2.1 0.98 5.4 2.6 7.4 3.7 2 1 4.3 1.9 5.1 1.9s2 0.68 2.7 1.5c1.8 2.2 2.8 1.9 4.5-1.5zm-88-12c0.99-2.7 2.7-6.1 3.7-7.4s2.2-3.9 2.5-5.8c0.86-4.5 3.9-10 6.1-12 1.6-0.96 1.5-1.3-1.2-3.5l-3-2.5-2.8 2.7c-1.5 1.5-2.8 3.6-2.8 4.8s-1.6 3.6-3.5 5.5c-3.2 3.1-3.5 3.9-3.5 8.9-0.02 3.1-0.69 8.3-1.5 12-2 8.1-1.9 8.3 1.3 5.2 1.5-1.5 3.6-4.9 4.6-7.7zm43 2.2c0.34-1 0.92-1 2.6-0.15 2.5 1.3 3.8-0.026 3.9-3.8 0.017-2.5-2.7-3-6.1-1.2-1.6 0.88-2.5 0.68-4.2-1-4.8-4.5-5-0.18-0.34 7.8 3.2 5.5 3.3 5.5 3.5 2.6 0.16-1.6 0.49-3.6 0.74-4.3zm19-0.37c0.039-2 1.6-8.3 3.5-14 3.6-11 3.6-12 0.91-25l-0.81-3.8-2.2 2.1c-1.2 1.2-2.2 2.6-2.2 3.1s-0.79 0.78-1.8 0.49c-3.4-1.1-11 4.7-9.8 7 2.3 3 1.8 14-0.95 21-0.54 1.3-0.047 1.9 2.1 2.4 3.3 0.8 6.3 3.2 6.3 5 0 8 4.8 10 4.9 2.2zm-32-3.2c0.96-0.73 1.8-1.8 1.8-2.4s1.5-3.8 3.4-7.1c6.1-11 5.6-16-1.5-15-2.3 0.37-4.3 0.083-5.5-0.81-1.6-1.2-2.3-1.2-4.6 0.015-1.5 0.77-4 1.4-5.5 1.4-4.9 0.039-10 6.5-10 12 0 3 7.6 8.2 9.6 6.5 0.84-0.69 1.8 0.05 3.3 2.5 2.3 3.8 6 4.7 9.4 2.1zm-77-1.7c5.3-1.2 19-1.5 23-0.54 2.9 0.66 3.2 0.5 3.2-1.5 0-1.3 1.7-3.9 4.1-6.2 5.3-5.2 7.5-4.7-26-5.5l-30-0.66 0.011 3.4c0.016 5 1.1 11 2 10 0.4-0.25 2.7-0.064 5.1 0.41 6.1 1.2 14 1.2 19 0.038zm91-2.6c4.9-1.9 7.3-17 3.5-23-4.3-6.3-5.9-7-8.6-3.8s-2.9 4-0.95 4c4.6 0 5.6 7.6 2 14-3.2 6-1.2 10 4 8zm75-17c-0.28-7.3-2-17-3.1-17-1.9 0.13-9.2 11-8.6 13 1.1 4.1 2.8 6.6 4.5 6.6 0.94 0 2 0.94 2.3 2.1 1.5 5.6 5.2 1.8 4.9-5.1zm-121 2.8c5.3-5-3.5-11-13-8.6-3.3 0.69-5.3 0.65-6.8-0.14-2.8-1.5-8.3-1.6-19-0.41-6.5 0.75-9.5 0.66-13-0.35-2.4-0.73-6.7-1.3-9.6-1.3s-5.7-0.53-6.3-1.2c-1.7-1.7-2-0.98-2.8 6.5l-0.69 6.7 27 0.28c15 0.16 31 0.39 34 0.52 5.9 0.2 7.3-0.08 9.2-1.9zm20-8.6c-0.41-0.96-1.1-3.8-1.5-6.2s-1.3-6.1-1.9-8c-1.3-4-0.51-13 1.4-17 1.9-3.7-1.1-21-3.4-20-0.88 0.37-3.7 0.8-6.2 0.95-5.3 0.3-10 3.4-12 7.7-0.78 1.5-2.5 3-3.8 3.3-3.6 0.89-4.6 10-1.5 14 0.42 0.55 0.92 1.8 1.1 2.7 0.43 2.1 26 25 28 25 0.91 0.02 1.1-0.54 0.61-1.7zm-14-0.9c2.8-2.6 2.4-3.4-6.3-11-16-14-17-32-2-48 7.6-8.1 8.3-16 0.86-10-2.8 2.2-8.9 2.7-13 1-4-1.5-12 7.3-15 16-1 3.4-2.7 7-3.7 7.9-2.5 2.2-2.3 4 0.72 11 2.8 6.3 2.4 12-1.2 17-2 3.1-2.4 2.9 18 11 20 8 19 7.7 22 5.5zm21 0.49c2.4-1.1 3.1-2.9 2.7-6.8-0.073-0.82-0.26-8.6-0.41-17l-0.27-16-4.2 0.19c-4.2 0.18-4.2 0.23-3.7 3.3 0.37 2-0.031 4.3-1.1 6.3-1.8 3.4-1.7 12 0.25 23 1.7 8.8 2.2 9.4 6.7 7.3zm11-2.9c1.6-2.2 4.2-5.4 5.6-7.2s3.5-5.2 4.6-7.7 2.6-5.2 3.4-6c2.1-2.2 4-7 4.5-11 0.25-2.2 0.69-4.8 0.98-5.8 0.38-1.3-0.035-1.8-1.5-1.8-1.2 0-2.3-0.9-2.7-2.2-0.39-1.2-2.3-3.6-4.2-5.3l-3.5-3 3.2-5.2c3.1-4.9 3.4-7.4 2.1-14-0.028-0.14-0.58-0.25-1.2-0.25s-2-0.76-3-1.7c-3.1-2.8-13 12-11 16 1.1 2-0.37 11-2.6 16-1.8 4.3-2 8.7-1.5 29 0.44 16 1.1 17 6.5 10zm-52 1c0.92-0.032-3.8-2.2-11-4.9-11-4.5-13-4.7-16-3.7-3.5 0.94-4.5 0.79-8-1.1-3.2-1.8-4.4-2-6.6-1.2-3.4 1.3-8.2 1.3-9 0.011-1.3-2.2-3.4-0.86-4.1 2.6-1.3 6.7 9.3 8.7 40 7.3 5.2-0.23 8.1 0.058 9 0.91 0.69 0.69 1.9 1 2.6 0.73 0.75-0.29 2.1-0.55 3-0.58zm69-4.5c2.2-1.4 4.5-2.5 5.2-2.5 0.67-3e-3 2.6-1.4 4.3-3s3.6-3 4.3-3c1.7 0 9.7-8.6 9.7-10 0-0.77 2.4-3.4 5.4-5.8 9.6-7.8 11-13 3.5-13-4 0-7.8 2.7-7.9 5.6-0.068 2.2-5.8 6.2-16 11-10 5.2-14 8.1-14 12 0 0.68-1.2 2.5-2.7 4l-2.7 2.8 2.4 2c3.1 2.5 3.6 2.5 8.4-0.46zm-95-7.4c6.2-6.8 5.6-7.6-7.1-8.4-7.1-0.46-11-7.9-5.5-12 2.3-1.6 2.4-3.8 0.11-4.6-0.96-0.34-2.3-0.87-3-1.2-1.3-0.63-6.5 8.8-9.4 17l-1.8 5.2 2.6 1.7c2.3 1.5 3.2 1.6 7.4 0.47 4.3-1.1 5.1-1 8.1 0.77 4.2 2.6 6.3 2.6 8.5 0.25zm6.3-12c0.46-1.3 0.28-3.1-0.46-4.5-0.68-1.3-1.9-4.6-2.7-7.2-2.4-8.1-7.9-6.5-13 3.6-0.75 1.5-1.7 2.8-2.2 2.8-1.5 0-0.86 2.6 1.2 4.8 1.5 1.6 2.5 2 3.8 1.3 1.1-0.61 2.5-0.45 4.2 0.48 3.6 2 8.1 1.4 9-1.2zm99-5c9.4-4.9 12-7 12-8.8 0-0.62 1.3-2.7 3-4.6 2.8-3.3 3.9-6 2.3-6-2.1 0-14 5.3-14 6.2 0 0.57-2.2 3.2-5 5.8-3.9 3.8-9.1 12-7.7 12 0.15 0 4.3-2.1 9.2-4.6zm41 2.3c0.41-0.41 1.8-0.74 3.1-0.74 2.9 0 2.9-0.084-0.68-6.9-5.8-11-13-15-13-6.8 0 0.69-1.6 3.6-3.5 6.6-3.8 5.7-3.8 7.1 3e-3 7.1 1.3 0 2.6 0.38 2.9 0.84 0.63 1 10 0.93 11-0.1zm-43-13c5.6-6.8 10-19 6.6-17-1.2 0.74-11 18-11 20 0 1.9 1.5 0.98 4.6-2.8zm-108-2.3c2.3-2.4 3.5-2.9 5.5-2.5 3.3 0.73 5.2-1.3 7.5-8.5 2.2-6.6 5.3-12 7.7-13 2.7-0.89 5.3-5.3 3.9-6.7-2.5-2.5-24 16-32 27-4.1 5.9 2.1 8.8 7.3 3.4zm50-9.5c1.9-0.35 4-0.51 4.8-0.35 3.2 0.63 5.9-1.2 5.9-4 0-3.4 9.5-7.3 14-5.9 2.6 0.69 6.5-3.3 6.6-6.5 2e-3 -0.5 1.1-2.4 2.5-4.2s2.5-3.5 2.5-3.8c0-0.92-8.8-0.65-9.4 0.29-0.29 0.47-4.5 1.1-9.3 1.4-10 0.59-16 2.6-17 5.9-1.5 5.2-4 9.5-7.1 12-3.7 3.4-9.8 14-8.9 16 0.34 0.54 3-1.5 6-4.5 3.6-3.7 6.5-5.7 8.8-6.1zm27 6.4c4.3-11 1.3-16-8.1-14-6.6 1.6-6.5 1.3-5.1 9 1.8 10 9.9 13 13 4.8zm31-6c4.6-7.9 4.8-8.9 2.4-12-3.6-5.6-13-7.6-12-2.7 0.38 1.9-0.34 4.3-2.4 8l-3 5.3 3 2.6c1.7 1.4 3 3.2 3 3.9 0 0.74 1 1.5 2.2 1.8 1.2 0.24 2.3 0.49 2.4 0.57 0.09 0.075 2-3.1 4.2-7zm33 4.8 2.7-2.2-2.5-3.2c-3-3.9-3.4-4-7.8-0.63-3.4 2.6-5.1 7.9-2.1 6.8 0.72-0.28 2.4-0.067 3.8 0.47 1.3 0.53 2.6 1 2.8 1 0.19 0.035 1.6-0.95 3.1-2.2zm-16-4.4c2.5-0.81 6.1-2.7 7.9-4.2l3.3-2.7-10-8.7-3.4 3.3c-2.9 2.8-6.5 11-6.5 14 0 1.2 0.41 1.1 9.1-1.7zm-4.2-14 3.2-3.3-5.9-3.6c-9.9-6-27-13-34-13-3.1-0.04-2.1 3.9 1.3 5 4 1.3 11 5.9 11 7.1 0 0.45 1.7 0.82 3.9 0.82 4.7 0 10 3.4 12 7.6 1.8 3.7 3.6 3.5 8-1.1zm-80-6.5c1.4-1.1 3.7-2 5.2-2s5.4-0.95 8.8-2.1c3.6-1.2 8.7-2.1 12-2.1 8.6 0.013 15-3.5 13-6.9-2.9-4.6-47 2.8-54 9-4.4 4.1 9.5 8 15 4.1zm-290 245c0.046-333-0.2-419-1.2-419-0.68-0.058-3.2-0.17-5.5-0.25l-4.2-0.14-0.0016 838h11zm642 342c2e-5 -42 0.11-231 0.25-419 0.28-387 1.2-344-7.2-343l-3.5 0.56 0.19 417c0.11 229 0.22 418 0.25 419 0.052 2 0.56 2.2 5.1 2.2h5zm-84-671c49-12 61-77 19-105-39-26-91 1.6-91 48 0.18 38 35 65 71 56zm-29-6.7c-56-19-43-100 16-100 30 0 51 22 51 51 0 34-35 60-67 49zm36-6.1c30-15 36-53 13-77-22-22-61-17-76 11-22 41 21 87 63 66zm-25-8.2c-6.3-1.7-11-6.6-17-19-2.6-5-5.7-11-7-13-2.7-4.4-2.9-6.1-0.8-7.8 2.4-2 5.6 0.32 9.9 7 6.5 10 9.2 8.1 7.5-5.7-2.2-18-2.3-23-0.62-24 2.2-1.9 4.4-0.78 5 2.6 0.29 1.5 1.3 7 2.2 12 2.3 13 3.4 12 3.4-3.7 0-15 0.3-16 3.6-16s3.7 2.7 4.3 27c0.16 7.1 1.9 1.7 2.6-8.1 1-14 2.2-17 6.4-14 1.3 0.82 1.5 8.7 0.75 24-0.31 6.1 1.8 4.4 5.9-4.7 3.9-8.8 5.5-10 7.6-8 1.7 2.1 0.65 7-3.5 16-2.7 5.8-3.9 10-4.5 16-1.8 17-10 23-25 19zm-439-62 1.5e-4 -3.2-8.5 0.35c-8.8 0.36-9.7-0.17-8.3-4.6 0.35-1 6.9-1.1 9-0.039 1.5 0.75 1.8 0.33 1.8-3.2 0-2.2-0.45-4-1-4s-1 0.34-1 0.75c2e-3 2.1-9.5 0.48-9.8-1.7-0.32-2.1-0.077-2.2 8.5-2l8.8 0.21v-3.2c0-2.7-0.3-3.1-2-2.7-1.1 0.3-6.5 0.54-12 0.55l-10 0.014v25l12 0.31c6.3 0.17 12 0.41 12 0.53s0.75-1.2 0.75-3zm117 0 1e-3 -3.2h-8.8c-8.7 0-8.8-0.024-8.8-2.5 0-2.8 6.6-4.3 8.8-2.1 0.59 0.59 1.4 1.1 1.9 1.1 1.2 0 0.98-6.8-0.2-7.5-0.55-0.34-1-0.12-1 0.5 0 2.5-9.5 0.72-9.8-1.8-0.33-2.3-0.24-2.3 8.3-2l8.6 0.33-2e-3 -3.4c-2e-3 -2.6-0.34-3.2-1.6-2.8-0.87 0.33-6.2 0.61-12 0.61h-10v25l12 0.31c6.3 0.17 12 0.41 12 0.53s0.75-1.2 0.75-3zm106-0.53c3.8-2.8 5.2-6.1 4.7-11-1.6-16-29-15-29 1.7 0 11 15 16 24 9.5zm-15-4.1c-4.8-4.8-1.8-13 4.7-13 10 0 12 14 1.5 15-3.3 0.44-4.5 0.14-6.2-1.6zm167 4.5v-3.3l-16 0.79 0.64-20-8 6e-3v25l11 0.32c6 0.17 11 0.41 12 0.53 0.41 0.12 0.75-1.3 0.75-3.1zm-432 1.3c0-0.55-0.44-1-0.99-1-0.92 0 0.8-5.1 4.9-14l1.7-4 3.2 8.4c1.8 4.6 2.9 9.2 2.6 10-0.52 1.6-9e-3 1.9 4.3 1.9 4.8 0 4.9-0.032 4.9-3.2 0.026-3 7.4-23 9.5-25 1.3-1.6 0.047-2.4-3.7-2.4-4.3 0-7 1-5.4 2 1.2 0.71-3.6 16-5 16-1.3 0-6.1-15-5.4-16 0.58-1.5 0.38-1.8-1-1.2-0.97 0.37-3.6 0.68-5.9 0.69-2.3 8e-3 -3.7 0.35-3 0.75 1.2 0.75-4.2 16-5.6 16-0.99 0-6.1-15-5.5-16 0.3-0.49-1.8-0.9-4.6-0.9-4.1 0-5 0.27-4.1 1.3 2.1 2.6 10 25 9.6 27-0.52 1.6 5e-3 1.8 4.5 1.8 2.8 0 5.1-0.45 5.1-1zm67-0.15c-2.5-2.5 0.44-4.8 6.3-4.8 5.5 0 7.9 1.7 6.8 4.8-0.32 0.88 0.9 1.2 4.1 1.2 2.5 0 4.6-0.15 4.6-0.33s-2.5-4.9-5.5-11c-3-5.6-5.5-11-5.5-12 0-1.6-0.73-1.9-4.4-1.9-3.6 0-4.4 0.33-4.3 1.8 0.077 1.3-5 13-10 22-0.21 0.41 1.8 0.75 4.4 0.75 3.6 0 4.5-0.28 3.6-1.2zm4.4-12c0.91-1.9 1.8-3.4 1.9-3.2 0.11 0.13 0.94 1.7 1.8 3.5l1.7 3.2h-7zm33 3.4-0.35-10 4.6 0.28c2.5 0.16 4.6-0.033 4.6-0.42 0.099-5.6 1.1-5.2-12-5.2h-12l0.0015 6.2 10-0.98-0.7 20h7zm19 4.3-0.28-5.2h13l-0.91 11 7.2 2e-3v-25l-7.3-2e-3 1 9h-13v-9l-7.5 2e-3v25l7.9-0.59zm61 0.75-0.48-5h3c3.1 0 8.1 5.8 7.4 8.8-0.2 0.87 1.2 1.2 4.8 1.2 4.9 0 6.4-1.1 3.7-2.7-2.8-1.7-6.3-7.6-4.8-8.1 5.4-1.9 6.8-8.8 2.5-12-3.2-2.5-26-3.3-24-0.8 1.3 1.6 1.3 21-0.051 22-0.77 0.96 0.024 1.2 3.5 1.2h4.5zm0.49-11c-2.7-2.7-0.6-4.4 5.4-4.4 5.7 0 6.1 0.13 5.8 2.2-0.32 2.3-9.2 4-11 2.1zm61 13c5.7-2.5 6.3-3.5 3.3-6.2-1.8-1.6-2.1-1.6-3.6-0.16-0.89 0.89-2.7 1.8-4 2.1-1.3 0.28-3.5 0.72-4.8 0.99-9.5 2-16-9.7-8.6-17 3.8-3.8 13-3.8 17 6e-3l2.3 2.2 2.2-3c2.3-3.1 2.8-4.5 1.2-3.6-0.53 0.33-3.2-0.55-6-1.9-13-6.6-27 0.25-27 13 0 13 13 19 28 13zm49 1c-1.3-1.3-1.7-14-0.48-14 1.3 0 13 12 13 14 0 0.81 1.4 1.3 3.8 1.3l3.8 7.6e-4v-25l-7-8e-3 0.68 14-6.1-5.3c-5.6-4.8-6.6-6.1-6.2-8.3 0.065-0.41-1.8-0.75-4.2-0.75h-4.3l0.13 10c0.074 5.6-0.23 11-0.67 12-0.76 2.1-0.55 2.2 3.9 2.2 3.6 0 4.4-0.27 3.5-1.2zm39-8.9-0.35-10 4.6 0.37c4.5 0.36 4.6 0.32 4.6-2.6l7.6e-4 -3h-25l-1e-3 3c-1e-3 3 0.071 3 4.6 2.6l4.6-0.37-0.69 20h8zm19 5.1-0.48-5h3.1c3.4 0 8.5 5.9 7.5 8.6-0.41 1.1 0.64 1.4 4.6 1.4 6.1 0 6.1-0.044 1.6-5.3-4.2-4.9-4.2-4.8-0.44-7 9.5-5.4 2.2-13-13-13l-10-0.015v25h7.2zm-0.23-12c0-2.4 0.27-2.5 5.9-2.5 6.2 0 7.5 0.7 6.5 3.4-1.2 3-12 2.2-12-0.91zm46 15c11-7.4 5.1-23-8.8-23-9.3 0-14 4.4-14 13 0 10 14 16 23 10zm-15-5.2c-4-4-1.7-12 3.5-13 6.2-0.7 10 2.1 10 7.4 0 7.2-8.4 10-14 5.2zm-434-6.5c3.3 0 4.4-0.39 4.4-1.5 0-2.2 6.3-14 10-19l3.3-4.4-12-11c-7.6-7.2-12-10-12-9.8-1.9 1.9-1.9 47 0.029 47 0.9-0.35 3.6-0.63 6.1-0.63zm645-23c0-28 0.71-28-13-14l-11 11 4.4 6.6c2.4 3.6 5.5 9.5 6.8 13l2.3 6.5 11-0.27zm-311-11 15-7.5h22v-11h-32l-1.2 4.5c-5.1 19-34 18-39-0.92l-0.99-3.6h-31v11l22-0.37 15 7.5c8.2 4.1 15 7.6 15 7.7 0.12 0.089 7.1-3.2 15-7.3zm-311 3.7c2.9-2.6 16-9.4 20-11 1.4-0.41 1.8-1.6 1.8-6v-5.5h-22c-29 0-29-0.42-16 13 5.6 5.5 11 11 11 11 1.5 1.6 1.4 1.7 5.1-1.5zm606-9.2c14-14 15-13-14-13h-23v11l6 2.2c3.3 1.2 8.8 4.2 12 6.6s6.4 4.4 6.7 4.4 5.5-4.9 12-11zm-306 1.9c6.3-1.7 13-8.8 13-14 0-1.2-34-1.5-34-0.24-1.7 2.8 6 12 12 14 4.7 1.7 5 1.7 9.6 0.42zm-107-4h47v-11h-215v11h60zm373-2.2c0.035-1.2 0.21-3.7 0.38-5.5l0.32-3.2h-216v11h215z"/>
 <g font-family="Sans" stroke="#000" stroke-linejoin="round">
  <text x="111.90933" y="219.45854" font-size="43px" xml:space="preserve"><tspan x="111.90933" y="190" font-size="43px">Special - Storm </tspan></text>
  <text x="104.64249" y="630.76166" font-size="36px" xml:space="preserve"/>
  <text x="104.64249" y="616.04144" fill="#000000" font-family="Sans" font-size="36px" stroke="#000000" stroke-linejoin="round" xml:space="preserve"><tspan x="104.64249" y="616.04144">Play at the start of the Storm round, </tspan><tspan x="104.64249" y="652.70807">before the storm movement is </tspan><tspan x="104.64249" y="689.37469">calculated.</tspan><tspan x="104.64249" y="726.04132"/><tspan x="104.64249" y="762.70795">You control the storm this round and </tspan><tspan x="104.64249" y="799.37457">may move it from 0 to 10 sectors in a </tspan><tspan x="104.64249" y="836.0412">counterclockwise direction. </tspan></text>
 </g>
</svg>
