<?xml version="1.0" encoding="UTF-8"?>
<!-- Created with Inkscape (http://www.inkscape.org/) -->
<svg width="822" height="1122" version="1.1" viewBox="0 0 822 1122" xmlns="http://www.w3.org/2000/svg">
 <path d="m102 1036c-18.161-0.5503-19.531-0.9447-23.481-6.7571l-2.5191-3.7072v-467.32c0-408.34 0.18477-467.67 1.4641-470.15 0.80525-1.5572 2.8648-4.0098 4.5767-5.4503l3.1126-2.6191h642.08l7.7647 7.7647v469.21c0 427.7-0.14113 469.45-1.5949 471.91-0.87721 1.485-3.0438 3.6928-4.8146 4.9062l-3.2196 2.2061-303.44 0.2481c-166.89 0.1365-310.86 0.0232-319.94-0.2518zm29.8-8.5636-0.2999-5.5637-6.8306-2.877c-3.7568-1.5824-9.25-4.7038-12.207-6.9364-6.7822-5.1206-5.005-5.79-17.612 6.6331-14.877 14.661-15.426 14.154 15.449 14.244l21.8 0.063zm218.35 0.4798c0.19058-2.7961 0.15901-5.2711-0.0702-5.5-0.22916-0.2289-48.717-0.4162-107.75-0.4162h-107.33v11h214.81zm35.273 1.6249c3.7204-19.832 34.323-21.188 39.806-1.7649l1.3335 4.7238 31.434 0.4703v-10.97h-21.025l-30.289-15.17-30.186 14.67-23 1-0.32808 2.8708c-0.18045 1.579-0.0568 3.9516 0.27467 5.2724l0.60275 2.4015 30.757-0.198zm37.137-0.041c-2.8081-14.363-25.184-16.804-32.064-3.498-3.3563 6.4904-3.338 6.498 15.576 6.498h17.075zm253.8-2 0.10331-5-215.46-0.5091v11.018l215.26-0.509zm50.524 4.5934c1.9546-1.2379 0.62408-2.9049-11.569-14.494l-10.186-9.681-5.8144 4.3263c-3.1979 2.3795-8.2894 5.3737-11.314 6.6537-3.025 1.2801-6.1425 2.6425-6.9278 3.0276-1.3056 0.6404-1.5735 2.6009-1.2053 8.8234l0.13311 2.25 22.75-0.015c12.512-0.01 23.372-0.4095 24.133-0.8912zm4.8852-28.426 0.2681-23.667h-10.622l-1.9385 5.703c-1.5863 4.6667-6.3719 12.962-10.801 18.723-0.89967 1.17 20.091 23.361 21.826 23.074 0.62496-0.1033 1.1006-9.0415 1.2681-23.833zm-639.22 13.083c5.807-5.6375 10.968-10.395 11.469-10.572 0.5009-0.1771-0.94385-2.6521-3.2106-5.5-4.1215-5.1782-9.8113-16.287-9.8113-19.156 0-1.1935-1.2949-1.522-6-1.522h-6v21.918c0 29.914-0.93229 28.894 13.553 14.832zm297.43-5.7407 15.958-7.9907 32.099 16.013 243.57-0.5312 7.6959-3.8037c10.749-5.3129 19.26-13.986 24.908-25.385l4.2914-8.6605v-802.15l-22.368-0.56427-0.69428 4.7821c-10.049 69.219-107.79 67.642-121.92-1.9679l-0.55829-2.75h-479.97l0.5098 803.5 3.9923 8c6.4024 12.829 18.024 23.216 30.995 27.701 4.6459 1.6065 13.822 1.7359 125.27 1.7662l120.26 0.0326zm-268.65-133.47c-8.7465-3.8046-5.787-16.542 3.8435-16.542 2.7532 0 3.8637 0.38843 3.5738 1.25-0.23265 0.69145-1.5821 1.11-3.0201 0.93673-3.2445-0.39101-6.726 2.8769-6.726 6.3133 0 3.3944 3.3445 6.5 7 6.5 3.2057 0 4.03 1.3908 1.4182 2.393-2.09 0.802-2.3846 0.76084-6.0895-0.85077zm16.171 0.30303c-8.1852-4.4769-5.0283-16.845 4.2996-16.845 2.4592 0 4.4499 0.64379 5.4111 1.75 6.3731 7.3342-1.5063 19.583-9.7107 15.095zm8.7667-6.1454c1.1744-3.5234-1.0259-8.0918-4.1086-8.5302-6.6842-0.95052-8.6416 10.933-2.1582 13.102 2.1666 0.72476 5.2513-1.5257 6.2667-4.5719zm10.512 6.6048c-3.0684-0.78487-4.8898-16.101-2.0283-17.055 0.88929-0.29643 1.25 1.0314 1.25 4.6016 0 6.4866 1.4049 10.148 3.8935 10.148 4.5393 0 5.1065-0.90047 5.1065-8.107 0-5.4604 0.31174-6.893 1.5-6.893 1.2151 0 1.5 1.6066 1.5 8.4597v8.4598l-2.75-0.16358c-1.5125-0.09-3.65 0.0958-4.75 0.41279s-2.7748 0.37817-3.7217 0.13595zm53.222-1.0562c-7.546-3.7696-5.8134-15.381 2.397-16.065 4.6506-0.38708 7.603 1.9317 7.603 5.9712 0 2.8106-0.0726 2.845-6 2.845-6.4024 0-7.2012 0.79879-4 4 1.3333 1.3333 3.3333 2 6 2 4.3393 0 5.3724 1.3989 1.75 2.3697-3.3045 0.88557-3.9074 0.79834-7.75-1.1213zm6.8196-11.498c-0.40924-2.8815-4.2871-3.5419-6.902-1.1754-2.9332 2.6545-2.3363 3.4254 2.652 3.4254 4.1668 0 4.5414-0.19831 4.25-2.25zm26.45 12.547c-6.8489-1.3229-8.1809-14.198-1.7251-16.676 2.9109-1.117 7.4552-0.6869 7.4552 0.70563 0 0.89275-0.94103 1.1887-2.8765 0.90462-2.1673-0.31808-3.2768 0.14931-4.5 1.8957-3.438 4.9084-0.48868 10.873 5.3765 10.873 1.65 0 3 0.40186 3 0.89301 0 0.89687-2.5829 2.2253-3.8318 1.9708-0.36751-0.0749-1.6717-0.33003-2.8983-0.56694zm23.045-0.30386c-6.4039-2.5802-5.5341-14.439 1.2481-17.017 2.9565-1.1241 8.1098 0.54526 9.4576 3.0636 4.1995 7.8468-2.8991 17.099-10.706 13.954zm6.4621-2.5497c4.481-3.1386 2.4041-12.443-2.7775-12.443-5.004 0-7.0032 7.9968-3 12 2.4075 2.4075 2.9173 2.4466 5.7775 0.4433zm13.607 2.1223c-5.927-2.5798-6.2668-12.417-0.53475-15.485 3.0333-1.6234 8.1504-1.3757 8.1504 0.39451 0 1.0886-0.74724 1.3256-2.8523 0.90453-2.2964-0.45928-3.2743-0.034-5.0175 2.1821-3.5594 4.525-0.42956 10.438 5.5248 10.438 3.4926 0 4.486 1.3482 1.7632 2.393-2.243 0.86071-3.4934 0.71363-7.0339-0.82739zm86.616 0.72815c-5.3797-1.9666-7.479-7.9536-4.8286-13.771 2.1541-4.7277 10.434-4.8666 12.655-0.21234 2.1317 4.4679 0.99501 5.6893-5.2949 5.6893-3.9668 0-5.5314 0.38044-5.5314 1.345 0 2.3918 3.5632 4.655 7.3287 4.655 3.7652 0 4.9097 1.3108 2.0895 2.393-1.8508 0.71022-4.3078 0.67223-6.4182-0.0992zm5.2982-10.925c0.34732-0.34732 0.18148-1.4723-0.36852-2.5-1.7404-3.252-7.9296-1.8226-7.9296 1.8315 0 1.34 7.0581 1.9086 8.2982 0.66852zm18.984 10.447c-7.5394-3.7146-3.8331-16.816 4.7572-16.816 3.9546 0 3.961-7e-3 3.961-4 0-2.8889 0.41667-4 1.5-4 1.2533 0 1.5 2.0543 1.5 12.489 0 12.323-0.0298 12.487-2.25 12.359-1.2375-0.0715-3.375 0.13798-4.75 0.46547s-3.4982 0.10364-4.7182-0.49745zm8.2182-8.3156v-6l-3.1836-0.3084c-4.787-0.46374-7.7074 7.2226-4.3028 11.325 3.465 4.1751 7.4864 1.4806 7.4864-5.0164zm34.77 8.7969c-5.626-1.0867-8.0941-9.7081-4.1974-14.662 4.208-5.3496 12.927-2.5926 12.927 4.0876 0 2.1169-0.42298 2.2775-6 2.2775-4.5619 0-6 0.34593-6 1.4433 0 2.1778 4.0316 4.5567 7.7225 4.5567 3.7447 0 4.3824 1.4706 1.0275 2.3697-1.2375 0.33164-2.475 0.54784-2.75 0.48045-0.275-0.0674-1.5035-0.31637-2.7301-0.55328zm5.7301-11.597c0-3.6982-6.1955-5.0717-7.9648-1.7657-1.5608 2.9163-1.3919 3.0657 3.4648 3.0657 3.0256 0 4.5-0.42593 4.5-1.3zm13.5 11.584c-9.6632-2.3377-7.975-17.284 1.9522-17.284 2.3263 0 3.5478 0.4687 3.5478 1.3613 0 0.91787-0.82579 1.2035-2.535 0.87672-3.4788-0.66502-6.465 2.2273-6.465 6.262 0 3.9782 2.6494 6.5 6.8287 6.5 3.3479 0 4.2574 1.3692 1.5895 2.393-1.6808 0.645-1.8142 0.64205-4.9182-0.10884zm35.5-0.57818c-5.4567-2.7601-6.2003-10.29-1.4563-14.747 8.2123-7.7151 18.524 5.1272 10.533 13.118-3.1924 3.1924-5.2545 3.5625-9.0769 1.6291zm7-2.706c3.8055-3.8055 1.4604-12-3.4343-12-5.1442 0-7.0246 8.5905-2.655 12.129 2.9101 2.3565 3.6189 2.3415 6.0892-0.12884zm-328.61-5.5001c-0.0858-6.5579 0.19981-8.4999 1.25-8.4999 0.74864 0 1.3612 0.46583 1.3612 1.0352 0 0.71358 0.60093 0.71358 1.9343 0 6.6933-3.5821 10.066-0.67907 10.066 8.6648 0 10.122-2.758 10.685-3.2043 0.65439-0.53795-12.09-8.7957-11.974-8.7957 0.12417 0 4.5506-0.37777 6.5214-1.25 6.5213-0.89323-1e-4 -1.2817-2.4262-1.3612-8.5zm21.586 5.935c-0.53639-1.4108-0.97525-4.5608-0.97525-7 0-3.3792-0.3769-4.4349-1.5833-4.4349-0.87084 0-1.3958-0.5625-1.1667-1.25s1.0542-1.25 1.8333-1.25c0.80208 0 1.5539-1.193 1.7331-2.75 0.17403-1.5125 0.70664-2.75 1.1836-2.75s1.0096 1.2375 1.1836 2.75c0.22656 1.969 0.95541 2.8408 2.5664 3.0696 3.0612 0.43476 2.861 2.1804-0.25 2.1804-2.2894 0-2.5 0.37212-2.5 4.4182 0 5.7058 0.76877 7.5818 3.107 7.5818 1.0412 0 1.893 0.45 1.893 1 0 2.3683-6.041 1.0224-7.0248-1.5651zm30.025-2.8099c0-2.9562-0.28125-6.7812-0.625-8.5-0.49487-2.4744-0.28667-3.125 1-3.125 0.89375 0 1.625 0.46583 1.625 1.0352 0 0.71358 0.60093 0.71358 1.9343 0 2.7851-1.4905 6.0657-1.2734 6.0657 0.40146 0 0.88988-1.2369 1.5559-3.25 1.75l-3.25 0.31336-0.29569 6.75c-0.38505 8.79-3.2043 9.9997-3.2043 1.375zm28.5-7.1502c0-10.004 0.27266-12.47 1.3544-12.25 2.1146 0.42966 2.2663 24.775 0.15431 24.775-1.2646 0-1.5087-2.0264-1.5087-12.525zm45.5 0.02518c0-10.444 0.24667-12.5 1.5-12.5 1.1905 0 1.5 1.4444 1.5 7 0 7.8673 0.42929 8.2489 4.5 4 2.69-2.8077 5.4886-3.9507 5.509-2.25 5e-3 0.4125-1.4281 1.9312-3.1847 3.375l-3.1937 2.625 4.1785 4.875c3.3686 3.9301 3.8503 4.9451 2.4854 5.2367-1.0282 0.21965-3.0876-1.2592-5.2438-3.7655-4.4013-5.1159-5.0507-5.1283-5.0507-0.09622 0 2.8889-0.41667 4-1.5 4-1.2533 0-1.5-2.0556-1.5-12.5zm21.538 11.333c-0.25475-0.73324-1.605-4.4242-3.0005-8.2022-2.9805-8.0687-2.9163-7.6309-1.1189-7.6309 0.8613 0 2.2922 2.6255 3.6428 6.6841l2.2243 6.6841 2.4707-6.6841c3.0972-8.379 4.2765-8.3761 7.2397 0.0176l2.3659 6.7017 2.1335-6.3899c1.9203-5.7513 4.5858-9.2518 4.4522-5.8469-0.37229 9.4866-7.4552 17.233-9.9061 10.833-0.94791-2.475-2.072-5.4-2.498-6.5-0.62492-1.6136-1.1994-0.75628-2.9735 4.4382-2.1471 6.2862-4.101 8.5751-5.0321 5.895zm24.219-7.0832c-0.54084-8.9212-0.48604-9.2425 1.4501-8.5034 1.444 0.55127 1.2946 16.753-0.15453 16.753-0.43745 0-1.0204-3.7125-1.2955-8.25zm7.2419 7c-8.4e-4 -0.80418 1.5149-1.25 4.25-1.25 5.5377 0 5.6467-2.1432 0.25129-4.9374-4.2472-2.1996-5.6432-5.4802-3.4543-8.1176 1.3619-1.641 9.9543-2.0251 9.9543-0.44496 0 0.55-1.5891 1-3.5314 1-3.4646 0-6.3055 2.8877-3.6965 3.7574 6.0951 2.0317 9.5758 8.1321 5.9531 10.434-2.054 1.3049-9.7251 0.95712-9.7265-0.44097zm62.001-6.25c0-4.125-0.0238-7.8375-0.0528-8.25s0.64595-0.8955 1.5-1.0733c1.3082-0.27238 1.5528 1.0275 1.5528 8.25 0 6.9541-0.28331 8.5733-1.5 8.5733-1.2 0-1.5-1.5-1.5-7.5zm7.9864 1.25c-8e-3 -3.4375-0.285-7.2625-0.61664-8.5-0.44329-1.6541-0.17484-2.25 1.0137-2.25 0.88915 0 1.6166 0.46583 1.6166 1.0352 0 0.71358 0.60093 0.71358 1.9343 0 2.938-1.5724 6.0657-1.2726 6.0657 0.58145 0 1.0831-0.61317 1.4563-1.858 1.1308-3.8545-1.008-5.142 0.94566-5.142 7.8023 0 5.0669-0.3217 6.4503-1.5 6.4503-1.1719 0-1.503-1.3672-1.5136-6.25zm50.444 5.1369c-0.37837-0.61222-0.63254-3.5163-0.56482-6.4536 0.0945-4.1016-0.28151-5.5832-1.6211-6.3869-1.6582-0.99484-1.6579-1.0982 6e-3 -2.0961 0.9625-0.57733 1.75-2.1898 1.75-3.5833 0-1.5586 0.4727-2.3761 1.2283-2.1242 0.67556 0.22519 1.2381 1.5002 1.25 2.8333 0.0156 1.744 0.65281 2.5135 2.2717 2.7434 3.0612 0.43476 2.861 2.1804-0.25 2.1804-2.3194 0-2.5 0.34667-2.5 4.8 0 5.0743 1.24 7.2 4.2 7.2 0.99 0 1.8 0.45 1.8 1 0 1.3705-6.715 1.2702-7.5699-0.11311zm10.57-7.3869c0-6.8889 0.28431-8.5 1.5-8.5s1.5 1.6111 1.5 8.5-0.28431 8.5-1.5 8.5-1.5-1.6111-1.5-8.5zm27.826 0.40139c-0.33338-8.2781 0.21702-9.9404 2.6286-7.9389 0.93983 0.77999 1.5697 0.8069 2.0152 0.0861 1.0735-1.7369 7.0745-1.2094 8.875 0.78018 2.4636 2.7222 2.3856 15.171-0.095 15.173-1.4911 2e-3 -1.75-0.98025-1.75-6.6351 0-7.7047-1.4847-9.6059-5.9223-7.584-2.3866 1.0874-2.5777 1.6577-2.5777 7.6959 0 10.428-2.7453 9.0637-3.1738-1.5772zm19.615 7.0026c-1.0568-1.7099 2.2775-4.5858 3.685-3.1784 0.62696 0.62696 0.8693 1.8452 0.53853 2.7071-0.69209 1.8036-3.2254 2.0862-4.2235 0.47126zm-185.94-19.904c-0.83704-1.3544 0.29243-3 2.059-3 0.79254 0 1.441 0.9 1.441 2 0 2.0703-2.4125 2.7596-3.5 1zm69.236 0.40223c-0.93874-0.93873 0.33886-3.4022 1.7644-3.4022s2.7032 2.4635 1.7644 3.4022c-0.32877 0.32878-1.1228 0.59777-1.7644 0.59777s-1.4357-0.26899-1.7644-0.59777zm69.437-1.0614c0.42145-2.1884 3.3271-2.498 3.3271-0.35451 0 0.81747-0.82837 1.6458-1.8408 1.8408-1.3364 0.25736-1.7437-0.14991-1.4863-1.4863zm-319.17-13.947c0-0.33334 1.125-1.491 2.5-2.5726 3.2066-2.5224 3.1186-4.744-0.52705-13.292-3.5176-8.2482-3.4095-7.5288-1.1313-7.5288 1.3835 0 2.296 1.5006 3.668 6.032 2.0426 6.7463 2.6869 6.6743 4.7594-0.53199 0.94446-3.284 2.0531-5.1206 3.2304-5.3514 1.4079-0.27604 1.6219 0.0457 0.99748 1.5-0.4372 1.0183-2.3488 5.9014-4.248 10.851-3.8689 10.084-9.249 16.421-9.249 10.894zm-47.032-6.5606c-1.0092-10.424 0.50986-21.901 2.2199-16.77 0.18991 0.56973 1.5896 0.47006 3.4941-0.24881 2.4679-0.93153 3.764-0.93199 5.8049-2e-3 1.8198 0.82913 3.2048 0.88836 4.5048 0.19263 5.8785-3.1461 9.2537 0.74171 8.8089 10.147-0.44566 9.4226-3.0236 8.8952-3.1832-0.65121l-0.11704-7h-7l-0.5 6.9216c-0.70322 9.7348-2.8176 9.9965-3.2048 0.39665l-0.29519-7.3183h-7l-0.5 6.9216c-0.37914 5.2485-2.6939 10.906-3.0323 7.4117zm30.082-1.2729c-2.5008-3.0133-0.86723-6.9596 3.4498-8.3336 7.089-2.2563 6.8536-2.096 5.4902-3.7387-0.69889-0.84212-2.8928-1.4882-5.0536-1.4882-2.1002 0-4.0675-0.40285-4.3718-0.89522-1.3522-2.1878 7.9666-2.9327 10.693-0.85478 2.0307 1.5477 2.819 15.891 0.90839 16.528-0.64144 0.21381-1.1662-0.11459-1.1662-0.72977 0-0.79597-0.55779-0.82-1.9343-0.0833-2.7552 1.4745-6.618 1.2796-8.0156-0.40435zm7.3724-1.4544c2.129-0.83422 2.9265-5.0349 1.0896-5.7398-2.1752-0.83471-6.5122 1.5133-6.5122 3.5256 0 2.6883 2.0628 3.5306 5.4225 2.2142zm35.154 1.8111c-2.0709-6.0034-0.43955-19.74 1.8956-15.962 0.29499 0.4773 1.8527 0.37097 3.4615-0.23631 2.1808-0.82316 3.5938-0.79947 5.5528 0.0931 1.8198 0.82913 3.2048 0.88836 4.5048 0.19263 6.1168-3.2736 9.1829-0.013 8.8001 9.3584-0.3683 9.0165-2.1225 8.955-2.7915-0.0978l-0.5-6.7652h-7l-0.29519 7.3183c-0.38722 9.5999-2.5016 9.3382-3.2048-0.39665l-0.5-6.9216h-7l-0.3028 6.5c-0.29537 6.3404-1.6165 9.8277-2.6205 6.9172zm30.878-1.3718c-6.8362-6.8362 1.9893-19.125 10.474-14.584 2.5408 1.3598 4.4295 6.4697 3.6106 9.7688-1.758 7.0827-9.2542 9.6453-14.085 4.8149zm10.378-2.8692c1.5075-3.1595 0.95379-6.7471-1.4054-9.1063-5.0472-5.0472-11.141 4.1105-6.8304 10.265 2.2292 3.1826 6.4477 2.5893 8.2358-1.1583zm28.679 2.9261c-1.8634-1.8634-2.5115-3.5671-2.5115-6.6024 0-9.9322 12.717-12.665 14.622-3.1423l0.62846 3.1423h-6.125c-6.5159 0-7.7662 1.216-4.5536 4.4286 1.6079 1.6079 3.1355 1.9423 7.2906 1.5959 1.5789-0.13165 2.2163 0.24611 1.9223 1.1393-0.85774 2.6061-8.4853 2.2262-11.273-0.56136zm9.4885-9.531c0-1.397-2.956-4.0714-4.5-4.0714s-4.5 2.6744-4.5 4.0714c0 0.51071 2.025 0.92857 4.5 0.92857s4.5-0.41786 4.5-0.92857zm14.639 11.235c-1.4713-1.4714-0.68847-16.306 0.86052-16.306 1.2074 0 1.5 1.549 1.5 7.941 0 7.3208-0.74935 9.9763-2.3605 8.3652zm9.9172-1.5287c-0.93154-1.33-1.5567-4.3419-1.5567-7.5 0-4.0244-0.35615-5.2775-1.5-5.2775-2.1975 0-1.8306-1.6803 0.5-2.2898 1.1966-0.31292 2-1.364 2-2.6166 0-1.1515 0.6126-2.0936 1.3613-2.0936 0.91286 0 1.2039 0.82359 0.88342 2.5-0.41432 2.1674-0.11867 2.5 2.222 2.5 1.7106 0 2.5478 0.45648 2.2846 1.2458-0.22839 0.68517-1.2784 1.2477-2.3333 1.25-3.1571 7e-3 -2.8386 10.874 0.33192 11.324 3.0801 0.43744 2.9134 3.1804-0.1933 3.1804-1.3912 0-3.1136-0.95701-4-2.2225zm20.1 1.5461c-0.37204-0.37204-0.38231-3.5472-0.0228-7.056 0.60989-5.9529 0.51022-6.4171-1.4902-6.9402-2.6922-0.70402-2.7597-1.933-0.14383-2.6171 1.3331-0.34862 2-1.364 2-3.0452 0-1.3872 0.70714-3.2293 1.5714-4.0936 1.9961-1.9961 5.4285-2.0413 5.4285-0.07143 0 0.825-0.85186 1.5-1.893 1.5-1.87 0-3.107 1.8242-3.107 4.5818 0 0.84609 1.0085 1.4182 2.5 1.4182 3.111 0 3.3112 1.7457 0.25 2.1804-2.0646 0.29323-2.2742 0.91678-2.5438 7.5696-0.27333 6.7447-0.86151 8.2614-2.5493 6.5736zm11.912-0.51018c-2.0605-6.4906-0.39606-21.312 1.7415-15.507 0.33578 0.91184 0.75257 0.89857 1.7646-0.0562 1.8679-1.7622 5.925-1.591 5.925 0.25 0 0.825-0.8632 1.5-1.9182 1.5-4.4424 0-5.0818 0.94968-5.0818 7.548 0 5.7894-1.4202 9.4496-2.4311 6.2654zm13.886-1.2679c-4.0486-4.0486-2.8124-12.15 2.2028-14.435 5.1137-2.33 9.3973-0.72689 11.278 4.2208 3.375 8.8768-6.9761 16.72-13.481 10.214zm8.1458-0.31076c3.336-2.2275 3.7082-8.1313 0.72082-11.432-2.204-2.4354-4.8808-2.2692-6.7644 0.42017-3.9572 5.6497 0.87848 14.461 6.0436 11.012zm10.087 2.0153c-1.1013-1.919-0.71922-16.112 0.45321-16.837 0.68494-0.42331 1.4092-0.26269 1.6163 0.35842 0.27719 0.83157 1.0292 0.8275 2.8795-0.0156 1.8452-0.84071 3.2754-0.85 5.4339-0.0353 2.1398 0.80769 3.7192 0.80769 5.859 0 5.8489-2.2077 8.0705 0.0655 8.0705 8.2581v7.7714c0 4.7195-2.604-0.7054-3-6.25-0.45522-6.373-0.70646-7.0293-2.805-7.3268-4.0935-0.5803-5.3926 1.5564-5.026 8.2665 0.26591 4.8674 0.0358 6.0603-1.1689 6.0603-1.1997 0-1.432-1.1591-1.1605-5.7897 0.37307-6.3628-0.7755-8.7102-4.2619-8.7102-3.5362 0-4.5776 1.9791-4.5776 8.7 0 5.5257-0.97853 7.8743-2.3124 5.55zm39.767-1.7046c-5.4132-5.4132-1.9958-16.545 5.0791-16.545 4.9342 0 7.4664 3.1316 7.4664 9.234 0 5.6554-3.1568 9.766-7.5 9.766-1.425 0-3.6954-1.1046-5.0454-2.4546zm7.7167-1.2004c3.9722-3.5948 1.6287-13.345-3.2075-13.345-3.8759 0-5.5558 9.5834-2.3088 13.171 2.0445 2.2592 3.1726 2.2947 5.5163 0.17375zm20.4 2.0836c-1.0448-1.0448-1.5714-3.4011-1.5714-7.0314 0-3.9308-0.4201-5.6212-1.5-6.0356-0.825-0.31659-1.5-0.97746-1.5-1.4686 0-0.49115 0.675-0.89301 1.5-0.89301 0.93333 0 1.5-0.94444 1.5-2.5s0.56667-2.5 1.5-2.5 1.5 0.94444 1.5 2.5c0 2 0.5 2.5 2.5 2.5 1.375 0 2.5 0.45 2.5 1s-1.1475 1-2.5499 1c-3.6983 0-3.4118 11.292 0.2999 11.82 1.2375 0.17575 2.25 0.96325 2.25 1.75 0 1.9406-4.4444 1.8432-6.4286-0.14098zm12.501-1.0634c-4.8811-6.2053-0.68409-15.365 7.0402-15.365 7.4845 0 10.36 11.123 4.14 16.016-3.6722 2.8886-8.6229 2.6004-11.18-0.65068zm8.5277-0.13045c5.0228-3.3538 3.0204-13.235-2.6821-13.235-0.50501 0-1.8182 0.9-2.9182 2-4.7931 4.7931 0.21152 14.833 5.6003 11.235zm22.039 2.0715c-0.35171-0.35172-0.63948-3.7303-0.63948-7.508 0-6.487-0.10772-6.8109-1.9393-5.8306-3.173 1.6981-3.2208-0.47302-0.0619-2.8085 4.6334-3.4256 5.0012-2.9269 5.0012 6.782 0 8.2118-0.70738 11.018-2.3605 9.3652zm11.221-1.2178c-3.1376-2.5407-3.4166-11.712-0.45579-14.983 3.777-4.1736 10.713-2.3079 12.592 3.3873 2.9696 8.9979-5.4319 17.025-12.137 11.596zm7.366-1.8384c5.3551-6.0984 0.36725-16.812-5.398-11.595-2.5403 2.2989-2.4432 8.7306 0.17126 11.345 2.4514 2.4514 3.2597 2.4901 5.2267 0.25zm17.44 3.0833c-1.5089-1.5089-0.50048-2.5084 1.9184-1.9013 6.6525 1.6697 8.534-2.3103 2.5383-5.3691-4.0945-2.0888-5.4408-4.072-4.4743-6.5907 1.3144-3.4254 10.351-5.0778 10.351-1.8928 0 1.1964-0.66691 1.4394-2.75 1.0018-6.3541-1.3348-6.5103 2.8257-0.20412 5.4378 6.3998 2.6509 4.1715 9.981-3.0342 9.981-2.0231 0-3.9784-0.3-4.345-0.66667zm17.315-2.198c-3.3268-3.3268-3.7866-6.6776-1.5185-11.064 3.382-6.5401 13.537-4.7184 13.537 2.4285 0 2.3604-0.30393 2.5-5.441 2.5-6.2666 0-7.6922 1.3113-4.6897 4.3137 1.5361 1.5361 3.2235 2.0677 6.1879 1.9495 5.5425-0.22102 4.7072 2.1323-0.90344 2.5452-3.5372 0.26031-4.6558-0.1566-7.1723-2.6731zm9.0185-9.4353c0-3.515-4.2178-4.7178-7.1713-2.045-2.8338 2.5645-2.2105 3.345 2.6713 3.345 3.0256 0 4.5-0.42593 4.5-1.3zm11.5 11.117c-5.4095-3.1706-6.1119-9.3594-1.5769-13.894 3.243-3.243 9.0769-4.1576 9.0769-1.4231 0 1.0447-1.0516 1.5-3.4648 1.5-2.4021 0-3.7823 0.59327-4.5 1.9343-2.7501 5.1386 0.12662 10.066 5.8769 10.066 2.1559 0 3.1161 0.42199 2.8442 1.25-0.54901 1.6724-5.76 2.0305-8.2563 0.56741zm16.25 0.12293c-1.3558-0.80549-1.75-2.3873-1.75-7.0214 0-4.3946-0.398-6.1344-1.5-6.5573-0.825-0.31659-1.5-0.97746-1.5-1.4686 0-0.49115 0.675-0.89301 1.5-0.89301 0.93333 0 1.5-0.94444 1.5-2.5s0.56667-2.5 1.5-2.5 1.5 0.94444 1.5 2.5c0 2 0.5 2.5 2.5 2.5 3.3907 0 3.1859 1.7882-0.25 2.1836-4.8044 0.5528-4.4435 11.816 0.37865 11.816 1.5833 0 2.3832 0.47021 2.1264 1.25-0.53783 1.6331-3.7891 2.0069-6.005 0.69034zm11.424-1.2548c-5.0056-5.3282-1.2779-15.686 5.6454-15.686 7.619 0 11.294 9.9773 5.7258 15.545-3.2478 3.2478-8.3921 3.3112-11.371 0.1401zm8.997-1.3405c3.607-3.2643 1.4022-12.345-2.9975-12.345-4.6058 0-7.0094 8.3141-3.5188 12.171 2.0536 2.2692 4.1394 2.3248 6.5163 0.17375zm9.4682 2.9611c-1.008-1.008-0.7452-16.123 0.29142-16.763 0.512-0.31644 1.2031-0.13496 1.5357 0.40327 0.3885 0.6286 1.4634 0.58742 3.0053-0.11515 2.6457-1.2055 6.0148-0.42747 5.0324 1.1621-0.34232 0.55388-1.6308 1.0071-2.8634 1.0071-3.5248 0-4.641 1.9579-4.641 8.141 0 5.3726-0.87301 7.6527-2.3605 6.1652zm12.027 0.0272c-1.5089-1.5089-0.50048-2.5084 1.9184-1.9013 6.6525 1.6697 8.534-2.3103 2.5383-5.3691-4.0945-2.0888-5.4408-4.072-4.4743-6.5907 1.3144-3.4254 10.351-5.0778 10.351-1.8928 0 1.1964-0.66691 1.4394-2.75 1.0018-5.9909-1.2585-6.6217 2.1531-0.93659 5.0654 4.9903 2.5564 6.1294 5.7677 3.1152 8.7819-1.556 1.556-8.4699 2.1968-9.7619 0.90476zm24.889-0.51995c-1.4438-4.4063-1.0549-15.813 0.53918-15.813 1.4054 0 1.6654 1.2264 1.695 7.9952 0.0315 7.2093-1.1169 11.228-2.2342 7.8182zm8.0398 0.10384c-1.1622-3.5031-1.1178-15.886 0.0586-16.338 0.66923-0.2568 1.3594-0.0392 1.5336 0.48357 0.18991 0.56973 1.5896 0.47006 3.4941-0.24881 6.1202-2.3101 8.3183-0.15272 8.3183 8.1645v7.7714c0 0.4125-0.53295 0.75-1.1843 0.75-0.80969 0-1.1059-1.9217-0.93642-6.0748 0.28151-6.8977-0.98479-8.7731-5.5688-8.2475-2.7228 0.31221-2.8199 0.52504-3.1133 6.8223-0.29424 6.316-1.6263 9.8575-2.6018 6.9172zm26.857-1.3502c-2.3074-3.5216-0.48271-6.2991 5.1232-7.7984 6.1528-1.6456 5.6953-4.1537-0.8342-4.5734-7.1872-0.46208-5.6738-3.1952 1.7694-3.1952 5.2519 0 6.4896 2.0163 6.4896 10.571 0 4.2857-0.42308 7.4286-1 7.4286-0.55 0-1-0.46583-1-1.0352 0-0.71358-0.60093-0.71358-1.9343 0-3.3475 1.7915-6.902 1.2147-8.6138-1.3978zm8.6298-0.56708c0.50501 0 0.91821-1.3988 0.91821-3.1084 0-3.4288-3.6862-3.5682-7-0.26467-1.7566 1.7511 1.2815 4.8628 3.8031 3.8952 0.74827-0.28714 1.7737-0.52207 2.2787-0.52207zm-425.91-0.75c-0.56544-1.5125-1.9576-5.1125-3.0938-8-1.937-4.923-1.955-5.25-0.28807-5.25 1.2393 0 2.174 1.3424 3.0864 4.4326 2.4333 8.241 3.51 8.5621 5.5971 1.669 1.3548-4.4745 2.3194-6.1016 3.6172-6.1016 1.5407 0 1.3041 1.0355-1.828 8-3.8216 8.4976-5.4312 9.6894-7.0908 5.25zm40.43-16.986c-1.3169-1.3169-0.48035-3.2644 1.4022-3.2644 1.1 0 2 0.62686 2 1.393 0 1.5084-2.4291 2.8446-3.4022 1.8714zm341.52-0.61745c-1.2156-1.4647-0.52559-2.647 1.5447-2.647 1.4897 0 1.8254 2.5779 0.44664 3.43-0.48768 0.30141-1.3838-0.0509-1.9913-0.78299zm-484.12-20.353c-9.153-3.3459-7.2712-17.694 2.3207-17.694 9.1887 0 11.619 13.438 3.0761 17.008-1.8329 0.76584-3.4595 1.3569-3.6147 1.3135-0.15517-0.0434-0.95712-0.32569-1.7821-0.62728zm5.8-3.4938c0.66-0.66 1.2-3.045 1.2-5.3 0-6.2501-6.3363-9.4771-8.9648-4.5657-3.4504 6.4471 2.9946 14.636 7.7648 9.8657zm57.557 3.23c-7.154-2.9589-6.7687-13.96 0.59584-17.01 6.3065-2.6122 12.028 2.9395 10.642 10.327-1.0319 5.5003-6.3918 8.6882-11.238 6.6839zm7.0863-4.2525c3.0482-4.3518 0.67705-10.777-3.977-10.777-4.7972 0-6.8574 7.414-3.2635 11.744 1.647 1.9845 5.5371 1.465 7.2405-0.96692zm58.872 4.2371c-4.9634-2.0487-6.0337-11.052-1.788-15.04 3.4189-3.2119 9.0272-3.2426 11.602-0.0635 5.7732 7.1296-1.6085 18.491-9.8135 15.104zm7.6494-3.9488c2.6637-4.9772 0.48219-11.066-3.9648-11.066-3.2638 0-5 2.257-5 6.5s1.7362 6.5 5 6.5c1.873 0 3.303-0.69764 3.9648-1.9343zm116.39 3.9427c-5.5005-2.2197-7.142-10.314-2.9431-14.513 3.3327-3.3327 6.7321-3.9882 10.521-2.0287 9.879 5.1086 2.7346 20.704-7.5783 16.542zm6.443-4.2084c2.3886-2.3886 0.94437-8.9166-2.2433-10.14-3.2202-1.2357-6.5802 7.9831-3.89 10.673 1.0865 1.0866 4.8398 0.76018 6.1333-0.53333zm141.72 3.6353c-7.9701-4.1558-5.1097-16.835 3.7978-16.835 9.1887 0 11.619 13.438 3.0761 17.008-4.0218 1.6804-3.2855 1.6989-6.874-0.17229zm7.2772-2.6353c0.66-0.66 1.2-3.045 1.2-5.3 0-6.2501-6.3363-9.4771-8.9648-4.5657-3.4504 6.4471 2.9946 14.636 7.7648 9.8657zm-427.42 1.7479c-0.30647-0.79867-0.32035-1.8354-0.0308-2.3038 1.0366-1.6772-1.4647-9.5517-4.38-13.789-3.4613-5.0309-3.5574-5.4598-1.2192-5.4417 1.0885 8e-3 2.9402 2.1743 4.8983 5.7294l3.1483 5.7159 2.81-5.7294c1.9553-3.9868 3.3899-5.7294 4.7166-5.7294 2.1223 0 2.4872-0.81317-4.2047 9.3699-1.9711 2.9994-2.4954 4.9676-2.3308 8.75 0.21243 4.8824-1.9969 7.1048-3.4078 3.428zm35.582-0.0938c-1.9399-2.3374-2.3118-15.454-0.4382-15.454 1.1023 0 1.4763 1.2502 1.4763 4.9349 0 6.4081 1.4146 10.065 3.8935 10.065 4.5393 0 5.1065-0.90047 5.1065-8.107 0-5.4604 0.31174-6.893 1.5-6.893 1.2132 0 1.5 1.5912 1.5 8.321v8.321l-5.8914 0.16237c-4.194 0.11558-6.2531-0.27345-7.1467-1.3502zm28.774 0.29588c-6.5261-4.9557-2.7419-15.75 5.5215-15.75 2.6849 0 3.7773 0.39145 3.4884 1.25-0.23132 0.6875-1.5085 1.1198-2.8382 0.96055-3.6479-0.43674-6.2412 1.9748-6.2412 5.8037 0 3.9742 3.2091 6.9857 7.4441 6.9857 1.5891 0 2.8892 0.45 2.8892 1 0 1.4373-8.3083 1.235-10.264-0.25zm34.264-5.6682c0-3.805-0.23526-7.5313-0.5228-8.2806-0.40642-1.0591 1.0465-1.4097 6.5274-1.5749 8.289-0.24984 8.9954 0.60135 8.9954 10.839 0 4.9849-0.28012 5.9352-1.75 5.9367-1.5113 2e-3 -1.7035-0.82213-1.4092-6.0382 0.37352-6.621-0.74063-8.9636-4.2632-8.9636-3.5362 0-4.5776 1.9791-4.5776 8.7 0 4.9333-0.3254 6.3-1.5 6.3-1.1888 0-1.5-1.4354-1.5-6.9182zm21.2 5.7182c-0.66-0.66-1.2-3.81-1.2-7 0-4.4889-0.33908-5.8-1.5-5.8-0.825 0-1.5-0.675-1.5-1.5s0.675-1.5 1.5-1.5c0.93333 0 1.5-0.94444 1.5-2.5s0.56667-2.5 1.5-2.5c0.92189 0 1.5 0.93672 1.5 2.4304 0 1.7297 0.62611 2.5226 2.1717 2.75 3.2641 0.48029 3.3773 2.6256 0.15821 2.9974-4.683 0.54097-4.0672 11.822 0.64537 11.822 1.1136 0 2.0248 0.45 2.0248 1 0 1.4066-5.3507 1.2493-6.8-0.2zm11-7.3c0-6.619 0.3098-8.5 1.4-8.5 0.77 0 1.4 0.54 1.4 1.2 0 0.93333 0.26667 0.93333 1.2 0 1.63-1.63 7.096-1.5883 6.5505 0.05-0.22889 0.6875-1.3833 1.3007-2.5653 1.3626-3.9519 0.20705-5.1852 2.231-5.1852 8.5098 0 4.3712-0.3588 5.8776-1.4 5.8776-1.0902 0-1.4-1.881-1.4-8.5zm32.8-4c0-10.444 0.24667-12.5 1.5-12.5s1.5 2.0556 1.5 12.5-0.24667 12.5-1.5 12.5-1.5-2.0556-1.5-12.5zm19.035 10.566c-0.56935-1.0638-1.0352-4.2138-1.0352-7 0-3.8362-0.36407-5.0657-1.5-5.0657-1.8845 0-1.9522-1.6402-0.11147-2.7003 0.76369-0.43983 1.5512-1.6624 1.75-2.7168 0.56894-3.0175 2.8615-3.1507 2.8615-0.1662 0 2.0889 0.47849 2.5833 2.5 2.5833 1.5556 0 2.5 0.56667 2.5 1.5 0 0.94152-0.95025 1.5-2.5523 1.5-3.6242 0-3.3643 9.8785 0.30226 11.487 3.1315 1.3738 2.8075 2.5129-0.71482 2.5129-1.9078 0-3.3339-0.68962-4-1.9343zm10.965-10.566c0-10.444 0.24667-12.5 1.5-12.5 1.1036 0 1.5 1.1504 1.5 4.3532v4.3532l4.9772-0.47824c5.9657-0.57323 7.0228 1.0579 7.0228 10.837 0 4.9849-0.28011 5.9352-1.75 5.9367-1.4911 2e-3 -1.75-0.98025-1.75-6.6351 0-7.4202-1.2613-9.1454-5.8452-7.9949-2.5559 0.64148-2.6548 0.92636-2.6548 7.6472 0 5.5386-0.30991 6.981-1.5 6.981-1.2533 0-1.5-2.0556-1.5-12.5zm21.455 10.045c-3.5468-3.5468-3.3518-8.8021 0.46853-12.622 3.5674-3.5674 6.3862-3.7047 9.6224-0.46853 4.7867 4.7866 2.6982 7.5009-5.7954 7.5318-2.0625 8e-3 -3.75 0.46365-3.75 1.0136 0 2.2589 4.1117 5 7.5 5 1.925 0 3.5 0.45 3.5 1 0 2.2192-9.0063 1.0846-11.545-1.4546zm9.5454-8.4637c0-4.2437-5.98-5.8561-7.9648-2.1475-1.5608 2.9163-1.3919 3.0657 3.4648 3.0657 2.475 0 4.5-0.4132 4.5-0.91821zm13 9.4757c0-0.98216 1.3563-1.5406 4.25-1.75 5.1177-0.37028 5.2514-1.6578 0.43668-4.2075-7.3746-3.9053-3.386-12.069 4.8827-9.9933 3.8068 0.95545 3.0385 3.3932-1.0694 3.3932-4.0376 0-4.8964 2.4397-1.25 3.5509 5.2939 1.6133 7.2619 5.7944 4.1786 8.8777-2.1052 2.1052-11.429 2.2104-11.429 0.12893zm19.571-0.12893c-1.0034-1.0034-1.5714-3.3528-1.5714-6.5 0-2.7107-0.45-4.9286-1-4.9286s-1-0.9-1-2 0.4187-2 0.93045-2 1.0742-1.0125 1.25-2.25c0.2072-1.4589 1.1239-2.3641 2.6073-2.5745 1.9883-0.28202 2.2058 2e-3 1.6619 2.1689-0.52087 2.0754-0.23379 2.5489 1.7122 2.8245 3.0169 0.42722 3.0432 3.2311 0.0343 3.6577-3.3021 0.46812-2.861 8.1624 0.55376 9.6605 1.2375 0.54292 2.25 1.5554 2.25 2.25 0 1.8086-5.5416 1.5784-7.4286-0.30856zm29.857-6.7908-0.0717-8.3597 5.8217-0.0826c3.202-0.0454 5.8149 0.22952 5.8064 0.61094-0.0365 1.6514-1.6644 3.0171-3.9847 3.3427-2.3241 0.32613-2.521 0.79063-2.7977 6.6008-0.52789 11.082-4.6765 9.2466-4.774-2.1122zm14.572-0.00277v-8.3649l11.75-0.0317c14.234-0.0384 14.25-0.0281 14.25 9.384 0 10.75-3.7364 11.308-4.2043 0.62756-0.28274-6.4545-0.40514-6.75-2.7957-6.75s-2.513 0.29552-2.7957 6.75c-0.27962 6.3832-0.42658 6.75-2.7043 6.75s-2.4247-0.3668-2.7043-6.75c-0.28274-6.4545-0.40514-6.75-2.7957-6.75s-2.513 0.29552-2.7957 6.75c-0.51251 11.699-5.2043 10.244-5.2043-1.615zm41.2 7.165c-0.66-0.66-1.2-3.81-1.2-7 0-4.4889-0.33908-5.8-1.5-5.8-0.825 0-1.5-0.675-1.5-1.5s0.675-1.5 1.5-1.5c0.93333 0 1.5-0.94444 1.5-2.5s0.56667-2.5 1.5-2.5c0.92189 0 1.5 0.93672 1.5 2.4304 0 1.7591 0.62149 2.5187 2.25 2.75 2.9794 0.42314 2.4851 2.2354-0.71891 2.636-4.4977 0.56228-3.063 12.184 1.5041 12.184 1.0806 0 1.9648 0.45 1.9648 1 0 1.4066-5.3507 1.2493-6.8-0.2zm9.8-11.3c0-10.444 0.24667-12.5 1.5-12.5 1.1049 0 1.5 1.153 1.5 4.3772v4.3772l4.4919-0.50631c6.5258-0.73555 7.5081 0.49088 7.5081 9.3744 0 5.8912-0.30221 7.3776-1.5 7.3776-1.1901 0-1.5-1.4423-1.5-6.981 0-6.5403-0.15192-7.0191-2.4069-7.585-4.8364-1.2139-6.5931 0.94467-6.5931 8.1012 0 5.0798-0.32135 6.4648-1.5 6.4648-1.2533 0-1.5-2.0556-1.5-12.5zm20 4c0-6.8889 0.28431-8.5 1.5-8.5s1.5 1.6111 1.5 8.5-0.28431 8.5-1.5 8.5-1.5-1.6111-1.5-8.5zm7.2279 7.3163c0.21702-0.65105 2.1588-1.2136 4.3151-1.25 4.3661-0.0738 6.1804-2.8845 2.5963-4.022-8.9369-2.8365-8.9865-10.544-0.0679-10.544 5.0085 0 5.1535 1.7779 0.17857 2.1896-4.9017 0.40569-4.8096 2.2934 0.25 5.1255 4.2328 2.3693 5.6067 5.6465 3.4543 8.2399-1.5068 1.8156-11.324 2.0547-10.726 0.26122zm23.758-5.0663c-8e-3 -3.4375-0.285-7.2625-0.61664-8.5-0.44329-1.6541-0.17484-2.25 1.0137-2.25 0.88915 0 1.6166 0.54 1.6166 1.2 0 0.93333 0.26667 0.93333 1.2 0 1.8284-1.8284 6.8-1.5308 6.8 0.40699 0 1.0505-0.54453 1.398-1.5724 1.0036-3.6957-1.4182-5.4276 1.1104-5.4276 7.9246 0 5.0798-0.32135 6.4648-1.5 6.4648-1.1719 0-1.503-1.3672-1.5136-6.25zm34.943 4.6643c-1.9785-2.384-2.3392-15.414-0.42663-15.414 1.128 0 1.4977 1.2183 1.4977 4.9349 0 6.4081 1.4146 10.065 3.8935 10.065 4.5393 0 5.1065-0.90047 5.1065-8.107 0-5.4604 0.31174-6.893 1.5-6.893 1.2132 0 1.5 1.5912 1.5 8.321v8.321l-5.8914 0.16237c-4.2572 0.11733-6.2487-0.26824-7.1798-1.39zm18.071-6.7353v-8.321l6.1587-0.16973c8.1886-0.22568 8.8413 0.47082 8.8413 9.4342 0 10.185-2.7557 10.815-3.2043 0.73195-0.53795-12.09-8.7957-11.974-8.7957 0.12417 0 5.1302-0.32001 6.5214-1.5 6.5214-1.2132 0-1.5-1.5912-1.5-8.321zm20.075 5.6894c-5.0257-6.3892-0.12903-15.089 8.1749-14.524 2.5746 0.1752 2.75-0.0691 2.75-3.8288 0-2.903 0.41568-4.0159 1.5-4.0159 1.2525 0 1.5 2.041 1.5 12.369v12.369l-5.9249 0.13393c-5.2917 0.11962-6.1466-0.14798-8-2.5041zm10.723-6.1184 0.29771-6.25h-3.4253c-5.8322 0-8.7555 8.2708-4.1211 11.66 4.4738 3.2713 6.9221 1.4442 7.2486-5.4096zm17.384 7.5314c-3.2973-3.2973 0.43857-8.7814 5.9821-8.7814 1.4952 0 3.0088-0.46971 3.3636-1.0438 1.189-1.9238-1.7133-3.9562-5.6495-3.9562-2.1327 0-3.8776-0.45-3.8776-1 0-7.9151 12.454 0.93683 12.615 8.9665l0.13417 6.6824-5.6932 0.15691c-3.2529 0.0897-6.1996-0.34947-6.8745-1.0244zm8.2368-1.3884c2.6882-1.0316 2.0118-5.393-0.83642-5.393-3.6458 0-5.5818 1.0198-5.5818 2.9403 0 2.955 2.5598 3.9333 6.4182 2.4527zm9.5681-3.643c-8e-3 -3.4375-0.25965-7.1656-0.56031-8.2846-0.62754-2.3357 10.689-3.445 13.272-1.301 2.0375 1.691 1.8004 15.836-0.26543 15.836-1.291 0-1.4595-0.8498-0.95568-4.8183 0.7446-5.8652-0.68425-10.182-3.3704-10.182-4.5393 0-5.1065 0.90047-5.1065 8.107 0 5.4604-0.31174 6.893-1.5 6.893-1.1719 0-1.503-1.3672-1.5136-6.25zm19.605 4.0764c-4.2356-6.0472-0.23591-15.026 6.6934-15.026 3.6523 0 3.7156-0.0664 3.7156-3.9 0-2.8 0.42308-3.9 1.5-3.9 1.3293 0 2.3982 20.308 1.25 23.749-0.70233 2.1049-11.572 1.3425-13.159-0.92287zm10.188-0.66868c0.92931-0.58971 1.0968-2.363 0.61232-6.4847-1.0634-9.0475-9.3914-7.9924-9.3914 1.1898 0 4.9097 4.8123 7.8121 8.7791 5.2949zm-179.78-19.158c0-1.5062 0.52215-2.0461 1.75-1.8096 0.9625 0.18536 1.75 0.99969 1.75 1.8096s-0.7875 1.6243-1.75 1.8096c-1.2278 0.23646-1.75-0.30348-1.75-1.8096zm-376.08-40.923c-5.4374-5.4374-2.3415-14.16 5.127-14.445 4.1392-0.15812 5.1929 1.7266 1.231 2.2019-8.503 1.0202-7.9827 12.633 0.55512 12.39 2.1218-0.0603 3.1638 0.38204 3.1638 1.3432 0 2.7664-6.8306 1.7564-10.077-1.49zm15.277 1.7231c-3.434-3.434-0.407-8.2513 5.849-9.3083 3.047-0.51477 3.9437-1.0684 3.5198-2.173-0.31284-0.81525-0.5688-1.6705-0.5688-1.9005 0-0.23001-2.025-0.41821-4.5-0.41821-4.4631 0-5.9586-1.2263-2.9182-2.393 7.1857-2.7574 10.699 0.273 10.824 9.3353 0.094 6.8352-0.79995 9.656-2.294 7.2386-0.42744-0.69162-1.1904-0.7428-2.1382-0.14343-2.0793 1.315-6.3517 1.1844-7.7736-0.23747zm7.8657-1.8352c2.2043-1.1797 2.598-4.7729 0.60671-5.537-2.3071-0.8853-6.6724 1.3811-6.6724 3.4641 0 2.8472 2.819 3.8105 6.0657 2.0729zm9.8686 2.8685c-1.0147-5.1548-0.17604-24.833 1.0584-24.833 1.9546 3.9e-4 2.1347 24.124 0.18493 24.774-0.64772 0.21591-1.2072 0.24256-1.2433 0.0592zm9.5797-2.2284c-3.7676-3.7676-3.5161-9.584 0.56266-13.016 3.4412-2.8956 8.9233-3.5645 8.9233-1.0889 0 1.0303-1.0333 1.5-3.3 1.5-4.1546 0-5.7 1.526-5.7 5.6286 0 4.8997 2.7406 6.9993 8.3605 6.405 1.1541-0.12204 1.6943 0.30884 1.4227 1.1348-0.84252 2.5624-7.5091 2.1966-10.269-0.56344zm16.384 0.77236c-2.1287-2.565-2.5545-15.377-0.51105-15.377 1.2555 0 1.6159 1.0524 1.6265 4.75 0.0254 8.8222 1.6243 11.099 6.495 9.2467 2.3038-0.87589 2.4913-1.4384 2.4913-7.472 0-5.1331 0.31993-6.5248 1.5-6.5248 1.2074 0 1.5 1.549 1.5 7.941 0 7.3591-0.97674 10.524-2.4916 8.0726-0.42333-0.68497-1.244-0.69031-2.5034-0.0163-2.8032 1.5002-6.5874 1.2108-8.1068-0.61996zm17.768 0.95599c-1.4968-1.4968-0.73427-24.093 0.83333-24.695 1.2858-0.49341 1.5 1.2762 1.5 12.393 0 11.858-0.44281 14.192-2.3333 12.302zm9.0833-0.41343c-4.3513-2.5344-1.0026-8.2398 5.5501-9.456 5.7065-1.0591 4.6808-3.8676-1.5591-4.2687-6.9062-0.44399-5.7517-3.1952 1.3408-3.1952 5.0427 0 6.9182 2.9821 6.9182 11 0 6.8875-0.53508 8.0649-2.6871 5.9129-0.78285-0.78285-1.2752-0.78285-1.759 0-0.84011 1.3593-5.4749 1.3635-7.8038 7e-3zm7.3157-1.9551c1.9529-1.0452 2.642-4.4094 1.0986-5.3633-1.6125-0.99657-6.6674 1.0581-7.0127 2.8505-0.57701 2.9948 2.5394 4.3188 5.9141 2.5127zm12.506 1.4638c-1.0448-1.0448-1.5714-3.4011-1.5714-7.0314 0-3.9308-0.4201-5.6212-1.5-6.0356-0.825-0.31659-1.5-0.97746-1.5-1.4686 0-0.49115 0.675-0.89301 1.5-0.89301 0.93333 0 1.5-0.94444 1.5-2.5s0.56667-2.5 1.5-2.5 1.5 0.94444 1.5 2.5c0 2 0.5 2.5 2.5 2.5 1.375 0 2.5 0.45 2.5 1 0 0.95062-0.3076 1.0808-3.25 1.375-2.5512 0.25512-1.6058 11.074 1 11.445 1.2375 0.17575 2.25 0.96325 2.25 1.75 0 1.9406-4.4444 1.8432-6.4286-0.14098zm11.883-0.88312c-2.8303-2.8303-3.207-7.1897-0.99154-11.474 3.382-6.5401 13.537-4.7184 13.537 2.4285 0 2.3889-0.26667 2.5-6 2.5-4.3594 0-6 0.36778-6 1.345 0 2.5252 3.5675 4.655 7.7974 4.655 3.269 0 4.0188 0.31553 3.5643 1.5-0.99996 2.6058-8.987 1.9655-11.907-0.95455zm9.5454-10.067c0-2.7487-4.6829-4.0755-6.9959-1.9822-3.0142 2.7278-2.4614 3.5037 2.4959 3.5037 3.3615 0 4.5-0.38492 4.5-1.5214zm9.0726 9.8866c-4.7748-6.0701-1.3711-14.721 5.8278-14.813 4.0535-0.0516 4.0933-0.0885 4.0964-3.8021 2e-3 -2.9039 0.39801-3.7498 1.7532-3.7491 2.1153 1e-3 2.4734 24.091 0.36846 24.793-0.61515 0.20505-1.1185-0.13052-1.1185-0.7457 0-0.79597-0.55779-0.82-1.9343-0.0833-3.3656 1.8012-6.7983 1.1906-8.9932-1.5997zm8.9932-0.40032c1.4969-0.80111 1.9343-2.1126 1.9343-5.8 0-7.0494-3.7162-9.4486-8-5.1648-5.0296 5.0296 0.0383 14.191 6.0657 10.965zm9.3143 1.5831c-0.70371-1.8339 0.32049-3.5479 2.12-3.5479 2.0581 0 2.8378 1.888 1.4636 3.5438-1.5384 1.8537-2.8733 1.8552-3.5836 4e-3zm-101.06-40.533c-6.7856-2.8009-5.1893-15.574 2.1774-17.423 2.9047-0.72904 7.9506 1.516 8.886 3.9536 3.1162 8.1206-3.7551 16.486-11.063 13.47zm7.6494-3.9488c3.6113-6.7479-2.7721-14.858-7.7648-9.8657-3.3622 3.3622-0.64487 11.8 3.8 11.8 1.873 0 3.303-0.69764 3.9648-1.9343zm26.193 3.6954c-9.3504-2.4229-6.2954-19.216 3.1581-17.359 8.1462 1.5997 8.1115 9.1578-0.0435 9.4877-7.1124 0.28775-7.4929 0.66083-3.8617 3.7862 2.1725 1.8699 3.7582 2.4066 6.25 2.1157 2.1271-0.24832 3.3389 0.0406 3.3389 0.7959 0 1.5759-4.8205 2.2159-8.8418 1.1739zm5.6614-12.011c-0.4383-3.0861-6.1942-3.7871-7.7179-0.93989-1.3668 2.5539-0.54238 3.1899 4.1346 3.1899 3.4754 0 3.8679-0.24641 3.5833-2.25zm75.93 12.444c-3.5959-0.69908-1.8846-3.1936 2.191-3.1936 5.4287 0 5.8838-1.5386 1.167-3.9449-8.1208-4.1429-4.431-12.68 4.5105-10.436 3.7356 0.93758 2.9699 3.3809-1.0595 3.3809-4.9426 0-5.238 1.613-0.71767 3.9191 8.5512 4.3625 3.8952 12.216-6.0914 10.275zm31.65-0.59881c-7.4719-3.3074-5.5912-15.035 2.7426-17.102 3.0292-0.75148 8.2766 1.5506 9.2365 4.052 3.3355 8.6922-3.9337 16.611-11.979 13.05zm7.7377-4.9969c1.7807-3.9082-0.13181-8.0978-3.6966-8.0978-3.6357 0-5.4553 3.9778-3.6411 7.9597 1.5548 3.4124 5.8094 3.4925 7.3377 0.13812zm95.22 5.386c-4.8506-1.9017-6.9547-9.2577-3.8968-13.623 5.3815-7.6832 16.709-2.9515 15.2 6.3493-0.95208 5.867-6.2292 9.2632-11.303 7.2742zm7.2302-4.4765c1.6793-2.563 1.3259-6.7022-0.79002-9.2517-2.7515-3.3154-8.7972 0.28871-8.7972 5.2444 0 5.8879 6.5587 8.6293 9.5872 4.0073zm-312.59-8.0073c0-10.444 0.24667-12.5 1.5-12.5 1.0995 0 1.5 1.1418 1.5 4.2764v4.2764l4.0499-0.38622c6.6889-0.63789 10.217 4.4633 7.9143 11.442-1.4061 4.2605-3.4827 5.3916-9.8985 5.3916h-5.0657zm10.733 9.25c4.2814-5.472 0.86554-12.87-5.2354-11.339-2.4735 0.62081-3.8926 9.8606-1.8311 11.922 1.1372 1.1372 6.0367 0.73275 7.0664-0.58333zm11.721 0.79545c-5.1666-5.1666-1.5484-14.879 5.543-14.879 8.6667 0 9.382 8.6831 0.75243 9.1332-8.3522 0.43563-6.5183 6.2001 1.9725 6.2001 1.8026 0 3.2775 0.45 3.2775 1 0 2.2192-9.0063 1.0846-11.545-1.4546zm9.5454-8.4637c0-4.2437-5.98-5.8561-7.9648-2.1475-1.5608 2.9163-1.3919 3.0657 3.4648 3.0657 2.475 0 4.5-0.4132 4.5-0.91821zm8 4.0348c0-6.1523-0.22311-6.9417-2.1006-7.4327-2.2512-0.5887-1.7362-2.6839 0.65964-2.6839 0.79254 0 1.441-0.92045 1.441-2.0454 0-2.7299 4.4476-7.1037 6.4445-6.3375 2.2631 0.86844 1.9039 2.1944-0.69447 2.5634-3.1592 0.44868-3.81 5.5181-0.76935 5.9923 2.8592 0.44591 3.0431 2.2529 0.26935 2.6468-2.0862 0.29628-2.25 0.82422-2.25 7.25 0 5.4937-0.31096 6.9304-1.5 6.9304-1.1881 0-1.5-1.4315-1.5-6.8834zm31-1.6166c0-6.8889 0.28431-8.5 1.5-8.5 0.825 0 1.5 0.54 1.5 1.2 0 0.93333 0.26667 0.93333 1.2 0 1.7664-1.7664 5.8-1.511 5.8 0.36739 0 1.0832-0.58521 1.3816-1.8946 0.96605-3.2967-1.0463-5.1054 1.9784-5.1054 8.538 0 4.6032-0.33534 5.9286-1.5 5.9286-1.2157 0-1.5-1.6111-1.5-8.5zm42.2 7.3c-0.66-0.66-1.2-3.81-1.2-7 0-4.4889-0.33908-5.8-1.5-5.8-1.8845 0-1.9522-1.6402-0.11147-2.7003 0.76369-0.43983 1.5512-1.6624 1.75-2.7168 0.56062-2.9734 2.8615-3.1629 2.8615-0.23575 0 1.8152 0.60346 2.6026 2.1717 2.8333 3.2343 0.47591 3.535 2.8196 0.36176 2.8196-3.7705 0-3.5638 11.283 0.21657 11.82 1.2375 0.17575 2.25 0.73825 2.25 1.25 0 1.3542-5.3899 1.1406-6.8-0.26955zm10.8-9.7182c0-6.005-0.29066-11.676-0.64591-12.601-0.48198-1.256-0.18031-1.5935 1.1887-1.3299 1.4309 0.27557 1.8362 1.278 1.8417 4.5554l7e-3 4.2022 4.2903-0.58805c6.3032-0.86394 7.3182 0.42627 7.3182 9.3024 0 6.1505-0.27091 7.3776-1.6288 7.3776-1.3712 0-1.5264-0.77249-0.98087-4.8846 0.82715-6.2354-0.56367-10.121-3.6156-10.1-4.1843 0.0282-4.9839 1.3517-5.0508 8.3595-0.04596 4.8153-0.42667 6.6252-1.3936 6.6252-1.0259 0-1.3304-2.4986-1.3304-10.918zm21.174 8.6038c-5.8895-6.2691 0.4238-17.69 8.1541-14.751 7.1647 2.724 5.9077 9.0652-1.797 9.0652-4.1535 0-5.5314 0.35952-5.5314 1.4433 0 2.1778 4.0316 4.5567 7.7225 4.5567 1.8026 0 3.2775 0.45 3.2775 1 0 2.1698-9.5496 1.1083-11.826-1.3144zm9.1238-8.317c0.34732-0.34732 0.18148-1.4723-0.36852-2.5-1.7404-3.252-7.9296-1.8226-7.9296 1.8315 0 1.34 7.0581 1.9086 8.2982 0.66852zm32.902 9.4315c-0.66-0.66-1.2-3.4229-1.2-6.1398 0-3.5197-0.50309-5.3308-1.75-6.3-1.6123-1.2532-1.6215-1.4605-0.11667-2.6352 0.89833-0.70122 1.8035-2.1586 2.0115-3.2385 0.60155-3.1236 3.8552-3.1741 3.8552-0.0599 0 1.9066 0.51814 2.5733 2 2.5733 1.3333 0 2 0.66667 2 2 0 1.3511-0.66667 2-2.0548 2-3.2324 0-2.4657 9.3551 0.80479 9.8196 1.2375 0.17575 2.25 0.96325 2.25 1.75 0 1.7866-6.0646 1.9658-7.8 0.23045zm30.8-7.3c0-7.8333 0.15686-8.5 2-8.5 1.1 0 2 0.54 2 1.2 0 0.93333 0.26667 0.93333 1.2 0 1.3046-1.3046 6.8096-1.6698 6.7847-0.45-0.0348 1.7046-1.6347 3.0694-3.9847 3.3992-2.3241 0.32613-2.521 0.79063-2.7977 6.6008-0.54109 11.359-5.2023 9.3433-5.2023-2.25zm14 1.5818c0-3.805-0.25161-7.5739-0.55913-8.3753-0.6716-1.7502 23.145-2.1803 25.309-0.45706 2.329 1.8547 1.6673 15.751-0.75 15.751-1.7732 0-2-0.66667-2-5.8776 0-6.5951-1.8104-9.3796-4.8338-7.4345-1.2768 0.82142-1.6436 2.5022-1.5695 7.192 0.0914 5.7823-0.0328 6.1201-2.25 6.1201-2.2191 0-2.3467-0.34987-2.3467-6.4326 0-5.6046-0.26362-6.5163-2.048-7.0826-3.6978-1.1736-4.9666 1.0823-4.2837 7.6162 0.61312 5.866 0.60177 5.899-2.0259 5.899-2.602 0-2.6425-0.106-2.6425-6.9182zm39-1.5818c0-8.3058 0.47736-9.6226 2.6871-7.4129 0.78285 0.78285 1.2752 0.78285 1.759 0 0.84441-1.3663 7.222-1.4331 8.0555-0.0844 0.41425 0.67028 1.2409 0.67028 2.4933 0 6.6312-3.5489 10.005-0.61603 10.005 8.6973 0 10.543-2.7792 10.586-3.2062 0.05-0.48523-11.973-7.7938-11.155-7.7938 0.87244 0 5.0023-0.32347 6.3776-1.5 6.3776-1.1901 0-1.5-1.4423-1.5-6.981 0-6.622-0.12922-7.0134-2.513-7.6117-4.1109-1.0318-5.487 1.0285-5.487 8.2151 0 5.0023-0.32347 6.3776-1.5 6.3776-1.2157 0-1.5-1.6111-1.5-8.5zm51.215 0.35713c-1.807-4.4657-3.0639-8.3411-2.7931-8.6119 1.3297-1.3297 3.2636 1.0446 4.991 6.1275 2.377 6.9941 2.7149 6.9862 5.2513-0.12279 1.2485-3.4994 2.7131-5.8802 3.7418-6.0826 1.8597-0.36588 1.953-0.66956-3.5525 11.559-3.1164 6.9219-3.777 6.6738-7.6385-2.8693zm17.96 5.8284c-5.9046-6.2851 0.86554-18.267 8.3855-14.84 6.9045 3.1459 5.5731 9.1547-2.0284 9.1547-4.2117 0-5.5314 0.35236-5.5314 1.477 0 2.3149 4.6219 4.8055 7.9981 4.31 2.0489-0.30072 3.0019-0.0194 3.0019 0.88622 0 2.4752-9.3024 1.6983-11.826-0.98764zm9.3528-8.7294c0.95533-1.5458-1.4511-3.9562-3.9495-3.9562-2.4368 0-4.5776 1.7304-4.5776 3.7 0 1.5859 7.5648 1.8132 8.5271 0.2562zm7.4729 2.5438c0-6.8889 0.28431-8.5 1.5-8.5 0.825 0 1.5 0.54 1.5 1.2 0 0.93333 0.26667 0.93333 1.2 0 1.4597-1.4597 6.2458-1.567 8.805-0.1973 1.2524 0.67028 2.079 0.67028 2.4933 0 0.86431-1.3985 6.8481-1.2563 8.3017 0.1973 1.8447 1.8447 1.6184 15.8-0.25619 15.8-1.114 0-1.5252-1.7037-1.75-7.25-0.48523-11.973-7.7938-11.155-7.7938 0.87244 0 9.7912-2.805 9.0279-3.2062-0.87244-0.48523-11.973-7.7938-11.155-7.7938 0.87244 0 5.0023-0.32347 6.3776-1.5 6.3776-1.2157 0-1.5-1.6111-1.5-8.5zm32.262 6.9713c-6.5252-4.5704-1.3898-17.975 6.1604-16.08 8.2525 2.0712 7.9208 9.6087-0.42279 9.6087-6.6549 0-7.3195 0.8169-3.2615 4.009 1.8924 1.4886 3.7462 2.0365 6 1.7734 2.2038-0.25728 3.2615 0.0406 3.2615 0.91844 0 1.8673-8.9951 1.6914-11.738-0.22954zm8.5571-10.721c-0.25952-1.8273-0.95551-2.25-3.705-2.25-2.5976 0-3.5792 0.52364-4.2178 2.25-0.7861 2.125-0.58033 2.25 3.705 2.25 4.1334 0 4.5089-0.20031 4.2178-2.25zm8.1804 5.3318c0-3.805-0.23526-7.5313-0.5228-8.2806-0.40642-1.0591 1.0465-1.4097 6.5274-1.5749 8.289-0.24984 8.9954 0.60135 8.9954 10.839 0 4.9849-0.28012 5.9352-1.75 5.9367-1.5113 2e-3 -1.7035-0.82213-1.4092-6.0382 0.37352-6.621-0.74063-8.9636-4.2632-8.9636-3.5362 0-4.5776 1.9791-4.5776 8.7 0 4.9333-0.3254 6.3-1.5 6.3-1.1888 0-1.5-1.4354-1.5-6.9182zm21.2 5.7182c-0.66-0.66-1.2-3.81-1.2-7 0-4.4889-0.33908-5.8-1.5-5.8-0.825 0-1.5-0.675-1.5-1.5s0.675-1.5 1.5-1.5c0.93333 0 1.5-0.94444 1.5-2.5s0.56667-2.5 1.5-2.5c0.92189 0 1.5 0.93672 1.5 2.4304 0 1.7297 0.62611 2.5226 2.1717 2.75 3.1625 0.46535 3.5555 2.8196 0.47068 2.8196-4.5178 0-4.4076 11.174 0.1166 11.82 1.2326 0.17575 2.241 0.73825 2.241 1.25 0 1.3542-5.3899 1.1406-6.8-0.26955zm18.8-7.3c0-6.8889 0.28431-8.5 1.5-8.5s1.5 1.6111 1.5 8.5-0.28431 8.5-1.5 8.5-1.5-1.6111-1.5-8.5zm7.596 7.1105c0.30634-0.79831 1.3498-1.1759 2.4526-0.88757 6.6854 1.7483 8.4294-2.0646 2.3777-5.1986-4.1743-2.1618-5.5544-5.46-3.3806-8.0793 1.3619-1.641 9.9543-2.0251 9.9543-0.44496 0 0.55-1.8 1-4 1-5.3231 0-5.4456 2.7256-0.2473 5.5 3.9943 2.1318 5.3295 5.4911 3.2016 8.055-1.6485 1.9864-11.119 2.0371-10.358 0.0555zm-7.0634-19.558c-0.87924-1.4226 0.24199-3.0528 2.0997-3.0528 0.87615 0 1.378 0.70256 1.191 1.6671-0.38952 2.0085-2.3862 2.8492-3.2907 1.3857zm-400.53-14.659c0-0.33334 1.125-1.491 2.5-2.5726 3.0542-2.4024 3.151-5.1546 0.40388-11.488-4.0104-9.2465-4.0292-9.3329-2.0375-9.3329 1.3532 0 2.283 1.5394 3.6433 6.032 2.0426 6.7463 2.6869 6.6743 4.7594-0.53199 0.88704-3.0844 2.0747-5.125 3.0999-5.3263 1.4736-0.28932 1.4208 0.27741-0.46588 5-1.1703 2.9295-2.9749 7.7523-4.0102 10.717-2.3338 6.6843-7.8929 11.969-7.8929 7.5028zm496-1.3349c0-0.51754 0.48004-1.2377 1.0668-1.6003s0.92422-2.3017 0.75-4.309c-0.2674-3.081-7e-3 -3.6497 1.6695-3.6497 2.8164 0 3.0285 2.9309 0.50742 7.0102-2.057 3.3284-3.9937 4.5644-3.9937 2.5489zm-512.34-6.2962c-3.539-2.6245-1.853-7.034 3.3506-8.7628 2.4831-0.825 4.6206-1.8375 4.75-2.25 0.68698-2.1904-0.16894-2.75-4.2058-2.75-2.4425 0-4.69-0.40285-4.9943-0.89522-1.3518-2.1873 7.9736-2.9336 10.681-0.85478 2.7085 2.0799 2.9309 15.719 0.25448 15.608-1.1-0.0457-3.35 0.22058-5 0.59167-1.925 0.43292-3.6578 0.18685-4.8358-0.68671zm8.8242-4.7513c-0.0144-3.0848-2.6578-3.7857-6.0054-1.5923-3.5459 2.3233-2.2104 4.7684 2.3943 4.3836 3.1158-0.26041 3.6211-0.651 3.6112-2.7913zm33.022 4.0003c-2.9268-3.2341-0.45685-7.1796 5.2969-8.4611 6.0437-1.3461 5.3702-3.9422-1.1307-4.3581-6.0276-0.38562-5.8445-2.5593 0.25312-3.0051 6.4763-0.47346 8.0701 1.4928 8.0701 9.9563 0 6.4263-0.13417 6.8326-2.25 6.8133-1.2375-0.0113-3.6101 0.25484-5.2725 0.59131-2.3244 0.47048-3.4716 0.11555-4.9668-1.5367zm9.3058-4.3696c0.25497-2.129-0.09767-2.6421-1.8157-2.6421-5.0163 0-7.8607 3.8597-4.3092 5.8472 2.5982 1.454 5.7654-0.20337 6.1249-3.2051zm11.184 4.3579c-1.5152-1.5152-2-3.3333-2-7.5 0-4.2222-0.34848-5.5-1.5-5.5-0.825 0-1.5-0.45-1.5-1s0.675-1 1.5-1c0.93333 0 1.5-0.94444 1.5-2.5s0.56667-2.5 1.5-2.5 1.5 0.94444 1.5 2.5c0 2 0.5 2.5 2.5 2.5 1.375 0 2.5 0.45 2.5 1s-1.1475 1-2.5499 1c-3.6983 0-3.4118 11.292 0.2999 11.82 1.2375 0.17575 2.25 0.96325 2.25 1.75 0 2.0947-3.6856 1.7448-6-0.56955zm20.571 0.42857c-1.0752-1.0752-1.5714-3.4437-1.5714-7.5 0-4.6032-0.33534-5.9286-1.5-5.9286-0.825 0-1.5-0.45-1.5-1s0.675-1 1.5-1c0.93333 0 1.5-0.94444 1.5-2.5s0.56667-2.5 1.5-2.5 1.5 0.94444 1.5 2.5c0 2 0.5 2.5 2.5 2.5 1.375 0 2.5 0.45 2.5 1s-1.1475 1-2.5499 1c-3.6983 0-3.4118 11.292 0.2999 11.82 1.2375 0.17575 2.25 0.96325 2.25 1.75 0 1.9406-4.4444 1.8432-6.4286-0.14098zm33.744 0.58848c-2.8645-1.1856-4.3154-4.0423-4.3154-8.4968 0-9.515 12.809-11.944 14.612-2.7703l0.63847 3.25h-6.125c-4.6417 0-6.125 0.34597-6.125 1.4286 0 2.6234 3.0488 4.5714 7.1548 4.5714 2.7619 0 3.884 0.38948 3.6013 1.25-0.50103 1.5252-6.4427 2.0079-9.4407 0.76705zm7.6846-10.946c0-1.397-2.956-4.0714-4.5-4.0714s-4.5 2.6744-4.5 4.0714c0 0.51071 2.025 0.92857 4.5 0.92857s4.5-0.41786 4.5-0.92857zm15.25 11.266c-2.7147-1.0954-1.0189-2.3377 3.191-2.3377 6.8543 0 6.5852-2.3218-0.69098-5.9621-3.4383-1.7202-3.8452-6.3814-0.70379-8.0626 2.4461-1.3091 8.6656-0.89881 7.9538 0.52473-0.275 0.55-1.5511 0.86442-2.8357 0.69871-5.9491-0.76738-6.0084 2.8199-0.0964 5.8359 8.3233 4.2462 2.0076 12.864-6.8178 9.3031zm17.75-1.3377c-1.5152-1.5152-2-3.3333-2-7.5 0-4.2222-0.34848-5.5-1.5-5.5-0.825 0-1.5-0.45-1.5-1s0.675-1 1.5-1c0.93333 0 1.5-0.94444 1.5-2.5s0.56667-2.5 1.5-2.5 1.5 0.94444 1.5 2.5c0 2 0.5 2.5 2.5 2.5 1.375 0 2.5 0.45 2.5 1s-1.1475 1-2.5499 1c-3.6983 0-3.4118 11.292 0.2999 11.82 1.2375 0.17575 2.25 0.96325 2.25 1.75 0 2.0947-3.6856 1.7448-6-0.56955zm10.75 0.96273c-4.3895-2.6641-1.089-8.5651 5.3682-9.5976 5.9264-0.94767 4.9537-3.7634-1.4414-4.1725-5.9481-0.38053-5.8784-2.5551 0.0961-2.9974 6.2832-0.46515 8.171 1.9603 7.9585 10.225-0.15002 5.8345-0.38165 6.5209-2.1996 6.5188-1.1175-1e-3 -3.3819 0.24243-5.0319 0.54168s-3.7875 0.0661-4.75-0.51803zm9.0701-4.7172c0.19634-1.3827-0.31169-2.4969-1.3138-2.8815-2.5094-0.96296-6.5064 1.2945-6.5064 3.6749 0 3.2017 7.3588 2.4551 7.8201-0.7934zm23.805 4.2363c-1.1028-1.1028-1.6246-3.3785-1.6246-7.0846 0-3.9308-0.4201-5.6212-1.5-6.0356-0.825-0.31659-1.5-0.97746-1.5-1.4686 0-0.49115 0.675-0.89301 1.5-0.89301 0.93333 0 1.5-0.94444 1.5-2.5s0.56667-2.5 1.5-2.5 1.5 0.94444 1.5 2.5c0 2 0.5 2.5 2.5 2.5 3.3907 0 3.1859 1.7882-0.25 2.1836-4.9086 0.5648-4.0816 11.816 0.86852 11.816 2.6307 0 1.928 2.3958-0.8222 2.8032-1.1259 0.16677-2.7781-0.42788-3.6717-1.3214zm20.55-0.79624c-3.1364-3.3386-2.9963-9.9545 0.28024-13.231 5.5309-5.5309 13.545-1.741 13.545 6.4054 0 8.046-8.6619 12.322-13.826 6.8256zm8.997-1.3405c3.607-3.2643 1.4022-12.345-2.9975-12.345-4.6058 0-7.0094 8.3141-3.5188 12.171 2.0536 2.2692 4.1394 2.3248 6.5163 0.17375zm32.484 1.8262c-1.1305-1.2492-1.655-3.6262-1.655-7.5 0-4.3744-0.34299-5.6713-1.5-5.6713-0.825 0-1.5-0.45-1.5-1s0.675-1 1.5-1c0.93333 0 1.5-0.94444 1.5-2.5s0.56667-2.5 1.5-2.5 1.5 0.94444 1.5 2.5c0 2 0.5 2.5 2.5 2.5 1.375 0 2.5 0.45 2.5 1s-1.1475 1-2.5499 1c-3.6983 0-3.4118 11.292 0.2999 11.82 1.2375 0.17575 2.25 0.96325 2.25 1.75 0 2.0589-4.3695 1.7846-6.345-0.39829zm32.422-0.76015c-6.0317-5.0753-2.7603-15.411 4.8778-15.411 3.702 0 7.0454 3.0846 7.0454 6.5 0 2.3889-0.26667 2.5-6 2.5-4.3594 0-6 0.36778-6 1.345 0 2.5664 3.5676 4.655 7.9512 4.655 3.7032 0 4.1225 0.20628 3.0488 1.5-1.9797 2.3854-7.4413 1.841-10.923-1.0889zm8.9233-9.7111c0-3.4795-4.724-4.8331-7.4286-2.1286-2.5673 2.5673-1.8316 3.4286 2.9286 3.4286 3.0256 0 4.5-0.42593 4.5-1.3zm14.667 11.633c-1.612-1.612-0.33432-2.3333 4.1333-2.3333 8.1208 0 9.6669-3.719 2.95-7.0962-10.828-5.4442-10.372-13.904 0.75-13.904 6.5084 0 6.2912 2.7755-0.25 3.1952-6.6232 0.42498-7.2393 3.604-1.2242 6.3164 7.57 3.4136 9.6359 7.9176 5.5197 12.034-2.4009 2.4009-10.106 3.5606-11.879 1.7879zm21.9-0.66121c-1.4229-1.0404-2.034-2.9898-2.3629-7.5377-0.34665-4.7924-0.80026-6.1458-2.0735-6.1868-1.2627-0.0406-1.123-0.40598 0.62019-1.622 1.2375-0.86324 2.25-2.4146 2.25-3.4476 0-1.0329 0.59823-1.878 1.3294-1.878 0.7355 0 1.2939 1.0052 1.25 2.25-0.0566 1.6025 0.56808 2.342 2.1706 2.5696 1.2375 0.17575 2.25 0.70696 2.25 1.1804s-1.0125 1.0047-2.25 1.1804c-4.1308 0.58667-3.6785 11.406 0.50165 12 1.2366 0.17563 2.2484 0.76933 2.2484 1.3193 0 1.5955-3.835 1.7067-5.9337 0.17212zm12.663 0.65859c-2.3652-0.95164-4.4403-6.3908-3.7803-9.9089 1.3093-6.9791 10.392-9.9822 14.479-4.787 5.8891 7.4868-1.9279 18.225-10.698 14.696zm7.771-3.3307c4.277-4.277 1.0102-12.972-4.3666-11.623-4.6851 1.1759-5.6795 7.5233-1.8601 11.873 2.004 2.2821 3.7653 2.2114 6.2267-0.25zm75.289 1.75c-3.0172-3.2965-3.5617-6.1623-1.918-10.096 3.8829-9.2931 15.629-6.8819 15.629 3.2083 0 7.8337-8.7991 12.254-13.711 6.8878zm8.882-1.405c2.2446-2.0313 2.3811-7.1114 0.27204-10.122-3.1533-4.502-8.4433-1.67-8.4433 4.5202 0 6.1073 4.3316 9.0771 8.1713 5.6023zm10.484 1.8262c-2.273-2.5116-2.4023-15.171-0.15499-15.171 1.1488 0 1.5 1.2687 1.5 5.4182 0 7.1176 0.66068 8.585 3.857 8.5665 4.7868-0.0277 5.4388-1.1284 4.6571-7.8631-0.64345-5.544-0.5361-6.1214 1.1377-6.1196 1.6473 2e-3 1.837 0.84432 1.7452 7.75-0.12859 9.6782-0.1335 9.7035-1.6471 8.494-0.71207-0.569-2.1107-0.65194-3.25-0.19273-3.3487 1.3497-6.1058 1.0397-7.845-0.88204zm39.904-0.52101c-6.1631-6.1631-1.0083-16.688 7.5823-15.481 2.1315 0.29935 2.3646-0.0536 2.423-3.6688 0.17484-10.813 2.5995-3.6055 2.7646 8.2187 0.16216 11.609 0.0709 12.219-1.8293 12.218-1.1-2.1e-4 -3.4358 0.28603-5.1907 0.63608-2.5879 0.51623-3.6741 0.15299-5.75-1.9229zm10.249-5.9779c0.46731-7.3256-3.3682-10.112-7.808-5.6723-4.323 4.323-1.867 11.279 3.8154 10.806 3.6458-0.30324 3.6878-0.35738 3.9926-5.1342zm-534.81-4.1723v-11.5l4.75 0.0147c8.1169 0.0252 11.274 2.7712 9.8241 8.5462-0.68118 2.7141-5.2025 5.4391-9.0244 5.4391-2.3552 0-2.5497 0.34329-2.5497 4.5 0 3.3333-0.38889 4.5-1.5 4.5-1.2464 0-1.5-1.9444-1.5-11.5zm9.7775-1.0567c4.2635-2.9863 2.1812-7.4433-3.4775-7.4433-3.2444 0-3.3 0.0758-3.3 4.5 0 5.0521 2.3251 6.0619 6.7775 2.9433zm10.223 1.0567v-12.25c0-0.4125 0.5625-0.75 1.25-0.75 0.92884 0 1.2648 3.1474 1.3076 12.25 0.0444 9.4502-0.2413 12.25-1.25 12.25-1.0009 0-1.3076-2.6967-1.3076-11.5zm102 0v-12.25c0-3.1226 2.4842 0.0297 2.5612 3.25 0.11451 4.7896 0.17665 4.8549 3.7626 3.9549 5.9127-1.484 7.6763 0.58909 7.6763 9.0237 0 6.2968-0.26636 7.5214-1.6359 7.5214-1.3688 0-1.533-0.75094-1.0056-4.5984 0.9791-7.1433 0.0557-9.4016-3.8444-9.4016-4.4196 0-5.3205 1.488-4.995 8.25 0.21133 4.3899-0.0539 5.75-1.1211 5.75-1.1162 0-1.398-2.3176-1.398-11.5zm91.535 3.5452c0.0358-8.0654 0.84077-10.673 2.4775-8.0246 0.71995 1.1649 1.1568 1.2099 2.1456 0.22104 1.7583-1.7583 5.8416-1.5777 5.8416 0.25836 0 0.825-0.8632 1.5-1.9182 1.5-4.4502 0-5.0818 0.9454-5.0818 7.607 0 5.423-0.26552 6.3926-1.75 6.3901-1.5226-3e-3 -1.7454-1.0357-1.7148-7.9519zm56.465 1.3612c0-5.7526-0.2551-6.6603-2-7.1166-1.1-0.28766-2-0.92053-2-1.4064s0.9-0.88337 2-0.88337c1.5313 0 2-0.66667 2-2.845 0-3.331 2.7126-6.155 5.9121-6.155 2.2872 0 2.5183 2.3825 0.2546 2.625-0.64167 0.0688-1.6167 0.18125-2.1667 0.25-2.0847 0.26059-1.1272 6.125 1 6.125 1.1 0 2 0.45 2 1s-0.9 1-2 1c-1.8095 0-2 0.66667-2 7 0 5.5556-0.30952 7-1.5 7-1.1817 0-1.5-1.3993-1.5-6.5936zm32-4.9064v-12.25c0-3.2689 2.5974 0.17037 3 3.9722 0.41252 3.8961 0.76243 4.5548 2 3.7653 2.6858-1.7134 6.7996-1.1117 8.4433 1.235 2.3403 3.3413 2.1852 14.777-0.20051 14.777-1.4703 0-1.6985-0.73851-1.3974-4.5233 0.62021-7.7981-0.30018-9.6442-4.629-9.285l-3.7163 0.30836-0.29569 6.75c-0.56178 12.824-3.2043 8.907-3.2043-4.75zm97.801 3.75c-0.36227-7.8624 0.48174-11.029 2.1991-8.25 0.73008 1.1813 1.1695 1.2305 2.1584 0.24164 1.7583-1.7583 5.8416-1.5777 5.8416 0.25836 0 0.89855-0.92222 1.5-2.3 1.5-3.5922 0-4.7 1.9328-4.7 8.2 0 9.5753-2.7451 7.902-3.1991-1.95zm12.734-0.20482c0.0355-8.0102 0.84058-10.673 2.4429-8.0805 0.71733 1.1607 1.1435 1.1792 2.4365 0.10619 0.99137-0.82277 2.7644-1.0685 4.8262-0.669 1.7925 0.34735 3.7092 0.60499 4.2592 0.57254 8.7929-0.51887 8.9069-0.49622 10.194 2.0256 2.0502 4.0162 1.7282 14-0.45151 14-1.4703 0-1.6985-0.73851-1.3974-4.5233 0.568-7.1416-0.36967-9.4767-3.8054-9.4767-3.771 0-4.3232 1.0366-4.3344 8.1352-7e-3 4.2484-0.38078 5.8648-1.3574 5.8648-0.97283 0-1.3524-1.6009-1.3635-5.75-0.0309-11.585-7.2759-12.517-7.7804-1-0.47677 10.884-3.718 9.8195-3.6691-1.2048zm37.565-0.54518c0-6.7586 0.29706-8.5 1.45-8.5 0.7975 0 1.45 0.44035 1.45 0.97856 0 0.60211 0.93722 0.55154 2.4362-0.13146 2.6742-1.2184 6.0567-0.45368 5.0681 1.1458-0.34232 0.55388-1.6308 1.0071-2.8634 1.0071-3.5316 0-4.641 1.9602-4.641 8.2 0 4.4-0.35 5.8-1.45 5.8-1.1529 0-1.45-1.7414-1.45-8.5zm52.726 0.40139c-0.32859-8.1591 0.22355-9.935 2.5012-8.0447 0.78019 0.6475 1.7833 0.68508 2.7062 0.1014 2.6646-1.6853 6.7768-1.067 8.4098 1.2644 2.3403 3.3413 2.1852 14.777-0.20051 14.777-1.4703 0-1.6985-0.73851-1.3974-4.5233 0.62021-7.7981-0.30018-9.6442-4.629-9.285l-3.7163 0.30836-0.29569 6.75c-0.45298 10.341-2.9475 9.3447-3.3782-1.3486zm-292.4-42.901-211.07-0.5-4.2527-2.8144c-2.9449-1.9489-4.9952-4.409-6.6671-8l-2.4144-5.1856-0.01-158.28c-9e-3 -140.85 0.16127-158.69 1.5433-162 1.8186-4.3537 5.8059-8.8005 9.7275-10.849 4.3678-2.2812 578.88-2.3762 583.25-0.0964 3.8662 2.018 8.0663 6.5034 9.4034 10.042 0.73562 1.9463 1.0638 52.361 1.0638 163.36v160.55l-2.1764 3.8724c-1.197 2.1298-3.9704 5.1161-6.163 6.6362l-3.9866 2.7637-39.587 0.25047c-21.773 0.13776-57.137 0.36276-78.587 0.5s-133.98 0.02453-250.07-0.25047zm355.07-2.6616c24.895-1.7393 23.5 3.817 23.5-93.582l-0.022-158.01c-0.02939-104.85 9.083-92.75-69.852-92.75-133.82-1.5352-459.95 0.022-459.95 0.022-79.186 0.0312-70.281-11.889-69.929 93.608 0.38102 51.805 0.16439 103.61-0.0345 155.41-0.32229 84.735-0.37561 83.557 4.0068 88.548 5.4592 6.2176 6.3646 6.4067 30.675 6.4067 13.563 0 22.227 0.38275 22.608 0.99872 0.75949 1.2289 501.07 0.59231 519-0.66036zm-509.5-5.4041c0-1.0145 1.7671-4.8718 2.7187-5.9343 1.5056-1.6811 89.751-4.7397 90.916-3.1511 0.92062 1.2555 0.90184 6.4155-0.0284 7.8106-1.2582 1.8869-93.606 3.1445-93.606 1.2748zm100.67 0.39907c-0.36667-0.36666-0.66667-2.9767-0.66667-5.8 0-2.8233-0.46754-5.6009-1.039-6.1723-0.71864-0.71864-0.70925-4.8656 0.0305-13.45 1.8946-21.987 2.2968-34.148 1.5332-46.363l-0.74715-11.952-2.8556 3.4516c-4.2539 5.1416-7.3933 13.954-10.047 28.201-1.8881 10.136-2.7083 12.749-4.0023 12.75-2.9145 1e-3 -4.1844 2.7082-3.5256 7.5147 0.34566 2.5222 0.21027 4.4861-0.30933 4.4861-1.6816 0-4.0376-4.3947-4.0376-7.5314 0-1.6975-0.66069-3.9599-1.4682-5.0275-5.3705-7.1004-1.263-34.465 7.8717-52.441 3.4935-6.875 6.6664-13.957 7.0509-15.738 0.78531-3.6371 6.7048-9.2489 12.68-12.02l3.7548-1.7418 0.61112-17 4.5-0.31313c5.8661-0.4082 6.1992-0.86333 5.0535-6.9048-1.8305-9.6523 1.1179-14.196 9.2462-14.25 10.116-0.067 14.094 4.9445 13.024 16.406-0.54544 5.8409-0.37704 6.8637 1.4031 8.5222 1.1668 1.087 2.3235 3.8892 2.7332 6.621 1.1814 7.878 1.9346 8.9896 7.0647 10.426 2.9098 0.8147 7.0224 3.2768 10.833 6.4855 3.3784 2.8447 9.0183 6.8938 12.533 8.9979l6.3908 3.8257 10.166-5.0561c7.2981-3.6296 10.926-4.9109 12.859-4.5414 1.5457 0.29547 2.6927 0.0659 2.6927-0.53896 0-0.64527 1.3534-0.83408 3.4915-0.48711 2.0413 0.33126 4.0811 0.0773 4.911-0.61143 0.79007-0.6557 1.6662-0.77869 1.9761-0.27737 0.85113 1.3772-2.8776 8.0146-5.7889 10.305-1.4243 1.1204-2.5897 2.6565-2.5897 3.4136 0 1.8093-5.0537 5.5412-12.5 9.2306-13.144 6.5123-16.184 6.7221-30.313 2.0923-10.969-3.5941-9.7574-4.1919-11.1 5.4777-1.825 13.14-1.3068 25.295 1.9114 44.829 2.7789 16.868 2.8788 18.328 1.3681 19.997-1.6249 1.7955-1.5936 3.4936 0.23251 12.602l0.65159 3.25h-27.458c-15.102 0-27.758-0.3-28.125-0.66667zm61.333-1.3333c0-1.4486 0.66667-2 2.4182-2 3.8689 0 82.203-3.8755 91.832-4.5433l8.75-0.60685v9.1502h-51.5c-50.833 0-51.5-0.0259-51.5-2zm105-2.6431c0-4.8992 0.0593-4.8213-10.284-13.516-2.7748-2.3326-2.7875-2.4009-3.7853-20.34-1.3487-24.248-1.6188-25.976-4.6156-29.537-3.0162-3.5845-2.4302-4.9233 1.133-2.5886 4.5618 2.989 5.2344 5.9292 6.5659 28.701l1.2616 21.575 6.2271 5.1241c7.3465 6.0452 10.661 15.226 5.4974 15.226-1.7128 0-2-0.66667-2-4.6431zm6-0.076v-4.9118l40.25-1.9238c22.138-1.0581 42.275-1.9286 44.75-1.9346l4.5-0.0108-0.30422 5.9709c-0.16732 3.284-0.54209 6.209-0.83284 6.5-0.29074 0.29102-20.291 0.68497-44.446 0.87545l-43.917 0.34629zm95.405-35.031c0.0857-35.693-0.0813-40.141-1.6371-43.58l-1.7326-3.8305-2.9218 2.0805c-9.6595 6.8782-16.557-2.1928-8.5603-11.258 2.504-2.8387 4.8135-6.415 5.1322-7.9472 0.61025-2.9342 3.7589-5.8158 5.6799-5.1983 0.62436 0.2007 2.4946-1.5208 4.156-3.8254s4.5469-4.9568 6.4121-5.8936c4.8087-2.4152 6.9837-8.284 4.2052-11.347-1.4981-1.6514-2.9247-9.1805-2.009-10.603 0.47695-0.7409 0.59964-3.2081 0.27264-5.4827-0.74817-5.2042 0.75772-8.1152 5.1466-9.949 8.84-3.6936 17.452 0.98674 17.452 9.4847 0 2.9778 0.41057 4.1 1.5 4.1 1.2148 0 1.5 1.6037 1.5 8.433v8.433l4.4482 3.645c7.5259 6.1669 8.3801 15.142 2.9129 30.605-3.5313 9.9877-4.1192 21.814-1.8336 36.884 2.5875 17.061 2.9898 27.258 1.1889 30.136-0.85269 1.3627-1.741 6.177-2.0968 11.364-1.0253 14.946 1.1796 13.5-20.582 13.5h-18.729zm43.595 38.807c0-1.4737 3.5742-1.8011 44.363-4.0635 40.594-2.2516 39.484-2.3034 38.049 1.7765l-0.96004 2.7305-40.726 0.26122c-25.706 0.16488-40.726-0.09502-40.726-0.70469zm1.3498-9.1296c0.36015-3.4457 0.76626-6.3605 0.90248-6.4773s15.998-0.99076 35.248-1.9421 37.132-1.9496 39.737-2.2183c5.3148-0.54814 6.7631 1.2059 6.7631 8.1905v3.3496l-7.25 0.58947c-3.9875 0.32421-19.85 1.2597-35.25 2.0789s-30.881 1.7605-34.402 2.0918l-6.4025 0.6023zm-252.87 0.96252c-1.2649-5.7591-1.5488-5.7059 42.059-7.8837 53.094-2.6515 49.157-2.7695 54.819 1.6424 6.2714 4.886 9.1157 4.3912-40.101 6.9766-58.914 3.0948-55.928 3.1335-56.778-0.7353zm-158.1-2.5169c-0.67585-2.6928 0.47625-42.536 1.2529-43.328 0.45509-0.46427 29.145-1.672 50.868-2.1414l12-0.25928 0.32523 2.7695c0.29551 2.5164 0.11275 2.6926-2 1.9282-9.9796-3.6106-46.055 0.0818-50.872 5.2069-3.4882 3.7114-3.7404 23.565-0.3573 28.126 7.5809 10.22 54.496 6.2899 56.924-4.7686l0.67438-3.0704 2.2005 2.0672c4.6897 4.4057 12.604 2.8956 12.604-2.4049 0-0.87816 1.4933 0.15002 3.5924 2.4735 3.2174 3.5612 3.5246 4.3777 2.9429 7.8208l-0.6495 3.8444-41.693 1.7174c-22.931 0.94459-42.925 1.9142-44.431 2.1547-2.2754 0.36341-2.8469 3e-3 -3.3835-2.1353zm264.42-3.1629c-5.7238-4.5139-5.8623-5.2056-1.0461-5.2238 2.0625-8e-3 22.425-0.90141 45.25-1.9859s43.862-1.9781 46.75-1.9859l5.25-0.01413v7.8205l-8.25 0.61479c-8.7862 0.65474-80.278 4.5924-82.143 4.5244-0.6086-0.0222-3.2233-1.7097-5.8105-3.75zm-248.97-2.8351c-3.893-2.5412-4.826-5.4451-4.826-15.02 0-16.969 2.0948-18.212 31.321-18.595 22.399-0.29313 22.602-0.22672 22.497 7.3495-0.0296 2.1461 0.4203 4.4733 0.99982 5.1715 4.3162 5.2007 1.4243 16.879-4.9519 19.997-5.6063 2.7413-41.193 3.6085-45.04 1.0975zm145.02-0.78118c-0.0825-0.87632-0.195-2.0852-0.25-2.6863-0.055-0.60114 1.7-1.7029 3.9-2.4483 16.942-5.7404 13.424-30.969-4.499-32.265-6.1484-0.44473-6.5941-0.70959-5.1166-3.041 1.1077-1.7479 91.088-4.8161 92.123-3.1413 0.71258 1.153 3.4217 39.893 2.831 40.484-0.20436 0.20436-16.114 1.0676-35.355 1.9184-19.241 0.85073-39.146 1.8227-44.233 2.1599-8.0171 0.53143-9.27 0.40079-9.4-0.98017zm40.321-5.2483c3.7972-3.4364 0.85772-11.345-4.2167-11.345-2.1664 0-6.9546 4.145-6.9546 6.0203 0 5.6907 7.0524 9.0522 11.171 5.3247zm-7.1948-1.3685c-2.3851-2.3851-2.5064-4.3037-0.40505-6.405 3.3831-3.3831 7.8386-0.91891 7.2508 4.0102-0.44891 3.7647-4.1731 5.0675-6.8458 2.3948zm42.733-2.941c13.058-7.9617 7.5866-28.544-7.9182-29.789-16.632-1.3351-22.837 21.868-7.9513 29.732 4.8108 2.5415 11.754 2.5665 15.869 0.0573zm-13.21-0.50918c-14.268-5.1763-11.874-26.242 3.1014-27.29 9.7591-0.6834 15.354 4.4316 15.384 14.064 0.0333 10.851-8.3998 16.886-18.485 13.227zm-24.135-17.599c4.9263-3.875 2.3343-10.927-4.0162-10.927-5.2484 0-7.5318 8.3577-3.1264 11.443 2.9178 2.0437 3.9868 1.9665 7.1426-0.51588zm-6.9132-2.3604c-1.24-1.8926-1.3484-2.8921-0.48787-4.5 2.0666-3.8616 8.0359-2.0543 8.0359 2.4329 0 4.6915-4.9417 6.0448-7.548 2.0671zm219.55 28.538c0-2.8338 3.1397-7.1084 5.2757-7.1828 1.2234-0.0426 13.024-0.63407 26.224-1.3144l24-1.2369 8.5 2.9069c4.675 1.5988 8.8498 3.2376 9.2774 3.6418 0.4276 0.40419-9.6974 1.2687-22.5 1.9212-48.909 2.4927-50.777 2.5392-50.777 1.2641zm-155.06-5.8554c-0.034-2.0625-0.60386-11.342-1.2664-20.621-0.8099-11.343-0.87156-16.969-0.1882-17.171 0.55901-0.16474 22.616-0.82935 49.016-1.4769s49.212-1.3224 50.694-1.4995c4.7964-0.57353 5.276 1.2227 5.6514 21.165 0.27686 14.708 0.0787 18.433-1 18.798-1.379 0.46646-89.535 4.5625-98.095 4.5579l-4.75-0.00257zm36.062-0.80431c20.569-1.141 26.823-10.836 18.271-28.323-3.5105-7.1787-30.046-10.226-42.444-4.8747-14.966 6.4601-6.5803 36.103 9.6722 34.189 1.65-0.19427 8.175-0.64029 14.5-0.99117zm-23-1.6666c-7.6228-3.985-8.8218-25.705-1.6288-29.507 4.1996-2.2194 32.85-3.059 36.532-1.0705 11.994 6.4775 9.291 28.881-3.6414 30.175-15.136 1.5146-28.798 1.6902-31.262 0.40171zm77.798-4.4524c8.7345-5.4563 8.1798-20.721-0.9548-26.276-11.218-6.8219-21.986-0.54333-22.235 12.965-0.2156 11.676 13.346 19.46 23.19 13.311zm-14.493-2.2827c-11.618-7.0838-7.5439-24.984 5.6957-25.026 7.8784-0.0248 13 6.2891 13 16.026 0 9.6819-9.8221 14.41-18.696 8.9992zm-244.94 8.79c-3.0111-3.2916-3.8108-6.5309-2.0477-8.294 0.79966-0.79967 1.9488-4.263 2.5535-7.6964 3.0997-17.597 5.0285-5.58 2.2456 13.99l-0.61629 4.334zm71.171-0.08397c-0.39922-1.2428-4.5357-26.003-4.5357-27.15 0-0.33026 1.9584-0.60048 4.3521-0.60048 10.848 0 17.779 11.598 12.978 21.717-2.6049 5.4894-11.606 9.7336-12.794 6.0331zm255.46-4.131c0-1.723 0.49903-2.0139 5.2318-3.0499 4.2367-0.92745 6.1357-5.5577 5.3247-12.983-1.4721-13.479-4.4974-18.586-11.011-18.586-2.4054 0-3.5454-0.45917-3.5454-1.428 0-1.8519 4.9561-2.3382 31.083-3.0496l20.583-0.56045 2.2182 15.769c1.22 8.673 2.4666 17.386 2.7703 19.363l0.55212 3.5943-15.853 0.68021c-8.7191 0.37412-20.69 0.96185-26.603 1.3061-9.6533 0.562-10.75 0.45428-10.75-1.0559zm28.596-5.1249c3.4966-5.3365-3.024-12.132-7.6361-7.9576-2.6694 2.4158-2.5357 6.9467 0.2628 8.9068 3.1776 2.2257 5.4879 1.9283 7.3733-0.9492zm-7.5958-1.4941c-2.1606-4.0371 2.6127-7.9873 5.8-4.8 0.66 0.66 1.2 2.46 1.2 4 0 3.5494-5.2099 4.1448-7 0.8zm23.615 2.2347c4.0698-2.6811 1.5322-10.235-3.4383-10.235-3.5111 0-5.177 1.6503-5.177 5.1286 0 4.5731 4.9611 7.5134 8.6152 5.1061zm-6.4152-2.4347c-2.5118-2.5118-0.64209-6.8 2.9648-6.8 2.2332 0 4.14 3.4643 3.3232 6.0378-0.70088 2.2083-4.3942 2.656-6.288 0.76223zm-12.4-18c1.7158-1.7158 1.4809-5.8321-0.45499-7.9713-3.4829-3.8486-9.345-1.4794-9.345 3.7768 0 4.2706 6.8094 7.1851 9.8 4.1945zm-6.05-0.8801c-4.0123-2.3369-0.89598-9.1388 3.1861-6.9541 2.5168 1.3469 2.8524 6.5177 0.48213 7.4272-1.8909 0.72561-1.5303 0.77212-3.6682-0.47311zm23.196-1.1241c2.9869-5.3389-4.879-11.585-8.3495-6.6302-2.1482 3.0669-2.0095 5.4214 0.46493 7.8959 2.6724 2.6724 5.9783 2.1417 7.8846-1.2657zm-7.2335 0.58341c-1.391-1.391-0.73228-6.4344 0.92334-7.0698 2.5245-0.96876 4.8641 1.0992 4.8641 4.2995 0 2.871-3.8458 4.7119-5.7874 2.7702zm-37.048 10.397c-0.99953-6.7521-2.0097-13.261-2.2448-14.465-1.1137-5.7022 7.5994-3.219 10.031 2.8588 4.3864 10.963 2.9769 22.04-2.9602 23.263l-3.0089 0.62001zm-322.5-8.2563c0.18428-1.5762 0.89755-3.0506 1.585-3.2764 1.8158-0.59625 1.5479 3.2641-0.33505 4.8268-1.392 1.1552-1.5442 0.96636-1.25-1.5504zm-89.758-4.1378c0.32626-0.85024 0.59321-2.1267 0.59321-2.8366 0-1.264 11.305-1.8812 51-2.7841l11.5-0.26159v5l-17 0.65633c-49.246 1.9013-46.731 1.8889-46.093 0.22598zm90.609-2.1323c0.0448-2.192 1.9548-3.6468 1.9694-1.5 8e-3 1.2375-0.43469 2.25-0.98469 2.25s-0.99311-0.3375-0.98469-0.75zm62.985-3.5531c0-3.0684 2.4336-3.347 36.5-4.1773 12.1-0.29494 28.765-0.81329 37.033-1.1519l15.033-0.61564 1.1465 2.5164 1.1465 2.5164-12.68 0.5907c-6.9737 0.32489-21.68 0.82808-32.68 1.1182s-25.738 0.79793-32.75 1.1285l-12.75 0.60095zm-142.5-1.6123c9.7326-1.3453 51.5-2.2211 51.5-1.0799 0 0.59215-3.9493 0.99644-9.75 0.99813-5.3625 2e-3 -18.3 0.20719-28.75 0.45697-12.334 0.29481-16.895 0.16317-13-0.37523zm240.01-1.3637-1.56-2.2208 12.274-0.69037c36.032-2.0267 89.205-2.7572 91.494-1.257 3.997 2.6189 2.5659 3.4474-5.9548 3.4474-10.544 0-73.379 1.7994-85.48 2.4479-8.6685 0.46454-9.306 0.36235-10.774-1.7271zm105.54-3.1614c-1.8289-1.9468-2.033-2.5595-0.85262-2.5595 1.8726 0 4.1278 2.507 3.6215 4.0258-0.2004 0.6012-1.4464-0.0587-2.7689-1.4664zm-202.97 1.0801c1.0895-0.94251 15.917-1.5264 15.917-0.62681 0 0.56907-3.4592 0.98725-8.1667 0.98725-4.4917 0-7.9792-0.1622-7.75-0.36044zm34.685-1.3643c1.7974-0.22256 4.4974-0.21797 6 0.0102 1.5026 0.22818 0.0321 0.41027-3.2679 0.40466-3.3-6e-3 -4.5294-0.1923-2.7321-0.41486zm220.55-0.88729c-1.1024-2.8728 1.2276-3.2271 23.392-3.5572 19.734-0.29392 22.398-0.1437 23.892 1.3472 2.3095 2.305-8e-3 2.5935-25.902 3.2251-18.014 0.43941-20.877 0.30352-21.383-1.0151zm-398.82-8.9651c-12.604-7-11.683 1.9148-12.278-118.87l-0.51249-104.06 2.1175-4.1507c4.9983-9.7975 10.425-11.05 41.173-9.5019 97.993 4.9332 289.1 15.578 351.54 19.58 40.086 2.5697 40.505 2.6605 45.217 9.7937l2.7457 4.156-0.1638 90.822c-0.19892 110.29 1.147 103.3-20.139 104.54-10.833 0.63148-10.048-1.0017 1.2087-2.5149 8.5834-1.1539 12.149-3.0628 14.59-7.8099 1.5404-2.9967 3.7662-167.42 2.4151-178.41-1.6455-13.379-11.97-17.976-40.411-17.993-13.749-8e-3 -21.121-0.40982-119.5-6.5145-58.047-3.602-95.923-5.7102-134.5-7.4864-12.375-0.56978-39.6-2.1629-60.5-3.5402-70.604-4.6528-76.389-4.2686-80.844 5.3682l-2.1565 4.6657 0.34587 96.5c0.49484 138.06-3.9185 124 38.904 124 16.832 9.9e-4 26.25 0.36032 26.25 1.0016 0 0.55-0.7875 1.0022-1.75 1.005-0.9625 3e-3 -12.775 0.24775-26.25 0.5445-21.649 0.47677-24.849 0.34567-27.5-1.1266zm185-3.6867c4.1442-2.4927 147.09-4.8347 144.43-2.3664-0.42952 0.39961-128.9 3.7086-140.43 3.617-5.1282-0.0407-5.7094-0.22246-4-1.2506zm27-8.3545c-8.3558-1.2674-13.5-2.6307-13.5-3.5776 0-0.65885 1.2186-0.805 3.25-0.38976 12.98 2.6533 12.727 2.9277 13.066-14.161l0.18372-9.2464-3-0.039c-1.65-0.0215-4.125-0.68215-5.5-1.4682s-4.1609-1.4451-6.191-1.4646c-2.03-0.01952-3.9691-0.48547-4.309-1.0355-1.7847-2.8877-11.415 2.002-14.076 7.1465-0.79471 1.5368-2.3814 3.2954-3.526 3.908-1.9267 1.0311-1.8862 0.78126 0.54533-3.3679 3.7152-6.3395 4.659-14.687 1.6606-14.687-3.5204 0-7.1041-2.9229-7.1041-5.794 0-10.764-2.2277-10.851-14.124-0.5491l-9.9973 8.6569 5.3109 5.3982c2.921 2.969 7.7257 7.2685 10.677 9.5544 5.9825 4.6335 5.2514 6.4732-0.88299 2.222-96.631-66.966-8.0274-224.41 97.628-173.48 98.764 47.608 56.828 208.59-50.112 192.37zm29.488-3.7178 5.1815-1.1639 0.44083-6.5c0.81088-11.956 0.75246-12.869-1.085-16.944-2.0039-4.444-2.8606-4.7378-7.7415-2.6553-1.8062 0.77061-6.8839 1.9401-11.284 2.5988-10.451 1.5647-10.863 1.9508-10.081 9.4597 0.82646 7.9415 0.82818 8.5651 0.0325 11.774-1.5413 6.2152 6.8919 7.3942 24.537 3.4306zm19.538-6.5631c17.31-8.1118 23.445-15.89 13.939-17.673-3.5045-0.65745-6.4647-4.2298-6.4647-7.8017 0-0.81048-1.3885-2.5203-3.0856-3.7997-6.1525-4.6381-13.999-12.227-16.015-15.49-2.6422-4.2751-3.0394-4.2035-5.149 0.92773-2.2803 5.5466-2.2735 5.6025 1.3466 11.068 2.6576 4.0122 2.9552 5.0805 2.0994 7.5355-0.77897 2.2346-0.58128 3.7895 0.90341 7.1056 2.0546 4.5891 2.3949 8.5546 1.0479 12.212-3.4166 9.276 0.19806 11.155 11.379 5.9159zm31.639-23.313c14.35-16.966 21.98-35.142 24.365-58.038l0.70317-6.75h-3.494c-5.0232 0-6.1272 1.8512-5.3263 8.9308 0.5877 5.1946 0.2373 7.1579-2.8716 16.09-1.9476 5.5952-3.541 11.531-3.541 13.19 0 4.5039-3.4553 9.6442-10.614 15.789-4.4893 3.8539-6.6969 6.5567-7.3761 9.0309-0.53315 1.942-1.6392 4.417-2.458 5.5-0.81876 1.083-1.503 3.2444-1.5205 4.8031l-0.0318 2.834 3.8464-3.0464c2.1155-1.6755 5.8588-5.4258 8.3185-8.334zm-64.98 2.7297c18.161-3.6808 19.963-5.0434 15.563-11.771l-3.0388-4.6464-2.8598 3.0614c-3.1405 3.3619-2.1546 3.5291-10.305-1.7477-2.3865-1.5451-4.8282-1.9188-12.674-1.9396-8.0825-0.0215-10.067-0.34198-11.794-1.905-1.1421-1.0336-2.1023-1.697-2.1339-1.4742-0.0316 0.22275-0.24653 2.205-0.47769 4.405s-1.3212 5.7648-2.4224 7.9219c-2.3791 4.6603-1.2618 7.0663 2.9015 6.2484 1.4749-0.28978 4.0363 0.29046 6.056 1.3719 4.3091 2.3073 11.364 2.4656 21.185 0.47526zm-35.86-3.5174c0.8636 0 1.7932-1.2615 2.1599-2.9309 0.35406-1.612 1.2898-3.4671 2.0795-4.1224 0.8003-0.66419 1.4621-3.0183 1.4953-5.3191 0.0328-2.2702 0.44031-6.3776 0.9056-9.1276 0.6831-4.0373 0.47908-5.8428-1.0596-9.3771-1.0481-2.4074-1.9056-5.4449-1.9056-6.75 0-5.9386-5.4747 0.27603-7.3591 8.3537-0.79388 3.4031-2.4343 7.5789-3.6453 9.2797-2.0689 2.9055-2.1318 3.4972-1.0412 9.793 0.63838 3.6854 1.121 8.4287 1.0724 10.541l-0.0883 3.84 2.9352-2.09c1.6144-1.1495 3.6175-2.09 4.4514-2.09zm89.118 1.7775c0.85618-1.2224 1.5567-3.1776 1.5567-4.345s0.92982-2.964 2.0663-3.9924c1.9743-1.7867 1.9861-1.9286 0.2647-3.1873-1.5221-1.113-1.8201-2.943-1.9209-11.796-0.12471-10.951-1.4096-14.448-5.3151-14.464-0.87725-4e-3 -2.9169-0.878-4.5326-1.9431s-3.3063-1.7086-3.7568-1.4302c-0.45057 0.27847-2.1231-0.42216-3.7168-1.5569-3.5838-2.5519-4.0888-2.567-4.0888-0.12225 0 6.0739-5.6337 1.4138-7.5467-6.2424-1.366-5.467-3.9619-6.1315-4.878-1.2486-0.5764 3.0725-1.0463 3.5501-3.4929 3.5501-8.7804 0 0.62559 21.367 14.346 32.589 1.9577 1.6011 5.0889 4.1508 6.9584 5.666 1.8694 1.5152 3.7084 3.9877 4.0866 5.4944 1.4275 5.6876 6.9356 7.3606 9.9701 3.0282zm-129.03-8.6838 2.7844-2.9063-4.06-5.1363c-6.7403-8.5271-6.5953-15.707 0.37601-18.62 5.9126-2.4705 10.897-0.44788 12.046 4.888 1.6431 7.6332 6.4438 11.403 6.4438 5.0603 0-1.3236 0.55922-3.302 1.2427-4.3965 1.7597-2.8178 0.22414-4.7344-5.7427-7.1676-2.75-1.1214-6.3804-2.7218-8.0677-3.5564-2.8382-1.4039-20.964 3.481-24.632 6.6386-1.6645 1.4326 13.541 28.102 16.023 28.102 0.44176 0 2.0562-1.3078 3.5876-2.9063zm28.71-5.6906c-0.19929-4.8831 0.1599-6.489 1.9645-8.7831 2.515-3.1973 8.8388-30.856 8.8871-38.87 0.0351-5.8323-2.9341-6.7364-5.7679-1.7563-0.93692 1.6465-2.0088 2.9965-2.3821 3-2.2033 0.0205-3.8214 3.5871-3.8214 8.4228 0 4.0315-0.47866 5.7068-2.0323 7.1128-3.6358 3.2904-6.3524 8.4861-5.0945 9.744 1.476 1.476 1.4368 5.2576-0.0798 7.686-0.98734 1.581-0.80565 2.8993 1 7.2558 1.2136 2.9281 2.2066 6.1796 2.2066 7.2257 0 2.2351 2.9104 5.756 4.3589 5.2731 0.56147-0.18716 0.89724-2.9717 0.76097-6.3106zm58.66-3.6531c6.1546-9.5808 6.1696-9.2271-0.94616-22.24-5.8918-10.774-7.8252-12.951-9.3338-10.51-1.0975 1.7758-7.7356 1.1273-9.9725-0.97419l-2.1014-1.9742-8.265 14.585c-4.5458 8.0217-8.1291 15.275-7.963 16.118 0.78161 3.9683 5.4725 5.6989 15.091 5.5672 8.6361-0.11826 9.4613 0.0526 13.211 2.735 5.4443 3.8942 5.7087 3.8092 10.28-3.3069zm59.666-4.75c2.9428-5.7217 2.579-11.533-0.83621-13.357-10.429-5.5712-12.857-3.2982-13.045 12.209-0.16896 13.967 6.984 14.558 13.881 1.1484zm-137.51 5.9841 3.4326-2.9346-2.1416-4.7748c-1.1779-2.6261-2.2749-5.655-2.4378-6.7309-0.60041-3.9659-9.6545-3.5259-11.85 0.5759-1.4809 2.7671 0.25752 8.0459 4.2216 12.819 3.9746 4.7861 4.3472 4.8304 8.775 1.045zm46.51-25.57c7.7822-13.75 7.4969-11.673 2.0432-14.869-5.4897-3.2172-5.9244-2.9828-9.5805 5.166-3.3 7.355-3.6628 12.634-1.2203 17.755 2.1305 4.4676 1.1745 5.3466 8.7576-8.0519zm-65.329 2.0907c10.27-3.8241 13.987-4.2933 15.886-2.0049 0.68469 0.825 1.8871 1.5 2.6721 1.5 0.78497 0 2.8507 0.73613 4.5906 1.6358 2.974 1.5379 3.2254 1.5277 4.2003-0.1708 0.57034-0.99365 2.4995-3.4718 4.287-5.507 6.341-7.2198 3.155-9.2801-12.75-8.2452-5.775 0.37575-15.956 0.63412-22.624 0.57414l-12.124-0.10906 0.91888 4.1611c2.996 13.567 1.9591 13.001 14.942 8.1659zm143.39 0.49513c1.5969-3.0881 2.919-3.7491 4-2 0.33992 0.55 1.3856 1 2.3238 1 0.93818 0 3.385 0.9 5.4374 2 2.0524 1.1 3.9215 2 4.1537 2 1.5686 0 4.9005-14.276 4.7408-20.314-0.11737-4.439 0.30108-7.5005 1.2007-8.7849 1.233-1.7604 1.0772-2.2965-1.4559-5.0081-4.3326-4.638-4.7762-12.216-0.87192-14.893 0.40104-0.275 2.3654-2.6502 4.3652-5.2781l3.636-4.7781-2.2949-5.7219c-2.3707-5.9108-5.5471-7.2824-9.4206-4.0677-0.78342 0.65018-1.8148 0.66505-2.9278 0.0422-0.97058-0.54316-2.9288-0.61441-4.5002-0.16374-2.0043 0.57483-3.1264 0.3828-4.0142-0.68691-0.67773-0.81663-2.0846-1.2619-3.1263-0.98947-1.0595 0.27708-2.6905-0.30111-3.7017-1.3123-2.0832-2.0832-6.2917 0.43624-7.4464 4.4577-0.31612 1.1009-2.5902 4.0259-5.0534 6.5-4.8559 4.8772-5.3414 6.8459-3.0442 12.344 2.3042 5.5147 1.818 10.951-2 22.361-4.5846 13.701-4.5596 15.476 0.25 17.757 2.0625 0.97799 5.4142 2.6238 7.4481 3.6575 2.034 1.0336 4.3414 1.8793 5.1276 1.8793s1.9896 0.675 2.6743 1.5c1.8115 2.1827 2.7589 1.8668 4.5-1.5zm-88.103-11.983c0.98692-2.7445 2.6553-6.0845 3.7075-7.4222 1.0522-1.3377 2.1991-3.9311 2.5487-5.7632 0.86309-4.5236 3.9489-10.493 6.0898-11.781 1.5999-0.96228 1.4907-1.2774-1.2206-3.5227l-2.9776-2.4658-2.7724 2.6561c-1.5248 1.4609-2.7724 3.6087-2.7724 4.7729 0 1.1642-1.575 3.6433-3.5 5.5091-3.159 3.0618-3.5035 3.9334-3.5356 8.9462-0.0196 3.0546-0.68756 8.2538-1.4844 11.554-1.9506 8.0782-1.9 8.2766 1.3213 5.1904 1.5407-1.4761 3.6088-4.9293 4.5957-7.6739zm43.131 2.1903c0.34388-1.0057 0.9183-1.0383 2.5842-0.14676 2.4741 1.3241 3.8466-0.0263 3.8724-3.8101 0.0172-2.5224-2.6596-3.0296-6.1448-1.1643-1.636 0.87555-2.4583 0.68201-4.2487-1-4.763-4.4746-4.951-0.1813-0.3412 7.7926 3.1614 5.4684 3.258 5.5399 3.543 2.6217 0.16114-1.65 0.49197-3.5819 0.73516-4.2931zm19.402-0.37393c0.0387-2.0169 1.5962-8.3169 3.4612-14 3.557-10.839 3.6127-12.372 0.9143-25.144l-0.80522-3.8113-2.25 2.1002c-1.2375 1.1551-2.25 2.563-2.25 3.1287s-0.7875 0.78416-1.75 0.48561c-3.3934-1.0526-11.485 4.7152-9.7791 6.9706 2.2908 3.0285 1.7861 14.036-0.94653 20.646-0.54242 1.312-0.0474 1.8649 2.1348 2.3843 3.349 0.79712 6.3409 3.1763 6.3409 5.0423 0 7.9718 4.7782 10.102 4.9297 2.1982zm-31.68-3.225c0.9625-0.73064 1.75-1.7981 1.75-2.3721s1.5371-3.7632 3.4158-7.087c6.1383-10.86 5.6388-15.893-1.4644-14.757-2.3264 0.37199-4.2879 0.0827-5.5129-0.81308-1.625-1.1882-2.2973-1.186-4.6204 0.0154-1.4953 0.77325-3.9786 1.4159-5.5184 1.4282-4.9176 0.039-10.3 6.5036-10.3 12.371 0 3.0203 7.5921 8.1898 9.5912 6.5306 0.83524-0.69318 1.7862 0.0502 3.2603 2.5485 2.2682 3.8443 6.0232 4.6974 9.3985 2.1351zm-77.439-1.6511c5.3087-1.2244 18.548-1.5339 22.939-0.53625 2.9043 0.65977 3.25 0.50468 3.25-1.4582 0-1.2565 1.7482-3.893 4.0852-6.161 5.3119-5.1551 7.4946-4.704-26.417-5.4593l-29.668-0.66077 0.011 3.4093c0.0162 5.0294 1.1364 10.936 1.9757 10.418 0.4023-0.24863 2.7074-0.064 5.1224 0.41029 6.1053 1.199 13.603 1.2144 18.702 0.0383zm90.644-2.578c4.9001-1.8803 7.2722-17.069 3.5194-22.534-4.3373-6.3164-5.9478-7.0303-8.6405-3.8301-2.6914 3.1985-2.8787 3.9851-0.94905 3.9851 4.5525 0 5.6344 7.601 2.0422 14.349-3.2192 6.0472-1.2153 10.042 4.028 8.03zm74.8-17.379c-0.2751-7.2943-2.0407-17.025-3.0758-16.952-1.8532 0.13132-9.1534 11.475-8.6218 13.397 1.1345 4.102 2.8167 6.5551 4.495 6.5551 0.94291 0 1.959 0.9356 2.2581 2.0791 1.4761 5.6448 5.2044 1.8149 4.9444-5.0791zm-120.57 2.8257c5.3122-4.9905-3.4967-10.69-13.293-8.6006-3.2579 0.69484-5.2591 0.65431-6.7603-0.1369-2.812-1.4821-8.2612-1.6028-18.632-0.41259-6.507 0.74674-9.5337 0.66466-12.909-0.35008-2.4249-0.72904-6.7224-1.3255-9.55-1.3255s-5.6736-0.5325-6.3244-1.1833c-1.7209-1.7209-2.0415-0.98308-2.803 6.4503l-0.68648 6.7004 27.386 0.28307c15.063 0.15569 30.507 0.38804 34.322 0.51632 5.9347 0.19959 7.2695-0.0805 9.25-1.9411zm19.779-8.5757c-0.41216-0.9625-1.0858-3.775-1.4971-6.25s-1.257-6.075-1.8795-8c-1.2818-3.9638-0.51425-13.143 1.4215-17 1.8763-3.7384-1.079-21.41-3.4143-20.416-0.87736 0.37334-3.6891 0.79908-6.2484 0.94608-5.2534 0.30177-10.208 3.3654-12.462 7.7058-0.78139 1.5045-2.4985 3.006-3.8159 3.3367-3.5532 0.89179-4.5608 9.971-1.5457 13.928 0.4191 0.55 0.92293 1.7864 1.1196 2.7477 0.42614 2.0826 25.758 24.68 27.715 24.723 0.91409 0.0199 1.1124-0.54158 0.60761-1.7204zm-14.293-0.90499c2.8407-2.5708 2.3762-3.3743-6.2702-10.846-16.353-14.132-17.11-31.987-2.0352-47.999 7.6483-8.1235 8.3248-16.371 0.86126-10.5-2.7746 2.1825-8.8625 2.6594-13.148 1.03-4.0217-1.5291-12.458 7.3137-15.006 15.729-1.0339 3.4148-2.7108 6.9607-3.7264 7.8798-2.4524 2.2194-2.3336 4.011 0.72452 10.926 2.7759 6.2769 2.3897 11.71-1.2293 17.292-2.0411 3.1485-2.3891 2.9375 18.158 11.012 20.302 7.9777 19.212 7.7023 21.671 5.4763zm21.282 0.49447c2.3514-1.0713 3.0785-2.8934 2.7294-6.8395-0.073-0.825-0.25637-8.5587-0.40754-17.186l-0.27485-15.686-4.2412 0.18592c-4.1804 0.18324-4.2329 0.23076-3.6615 3.3144 0.36685 1.9798-0.0313 4.3102-1.0844 6.3466-1.7758 3.4341-1.6753 12.356 0.25383 22.525 1.67 8.8032 2.1991 9.384 6.6862 7.3395zm11.047-2.9384c1.65-2.2035 4.1742-5.4452 5.6093-7.2037 1.4351-1.7585 3.5018-5.2318 4.5925-7.7184 1.0907-2.4866 2.6218-5.1866 3.4023-6 2.141-2.2312 4.0086-6.9655 4.5202-11.459 0.25175-2.211 0.69458-4.8075 0.98405-5.77 0.37859-1.2588-0.0351-1.75-1.4737-1.75-1.1981 0-2.2832-0.90213-2.7064-2.25-0.38852-1.2375-2.2669-3.6053-4.1742-5.2618l-3.4677-3.0118 3.2088-5.1619c3.0608-4.9238 3.4175-7.3642 2.0555-14.064-0.0279-0.1375-0.57789-0.25-1.2221-0.25s-2.0101-0.75912-3.0353-1.6869c-3.1371-2.839-12.92 11.603-10.711 15.811 1.0556 2.0101-0.3712 11.047-2.5608 16.219-1.8151 4.2877-2.0368 8.7138-1.4729 29.407 0.44001 16.146 1.1384 17.245 6.4508 10.151zm-51.668 1.041c0.91751-0.0319-3.8198-2.2259-10.527-4.8756-11.268-4.4512-12.502-4.7358-16.223-3.7426-3.51 0.93686-4.5328 0.79096-7.9604-1.1354-3.1708-1.7821-4.4482-2.0145-6.5922-1.1994-3.4066 1.2952-8.2318 1.3011-9.0291 0.0111-1.3435-2.1738-3.4348-0.86472-4.0756 2.5513-1.2656 6.7462 9.2676 8.688 39.799 7.3367 5.2471-0.23224 8.1234 0.0585 8.9718 0.90693 0.68682 0.68682 1.8607 1.0139 2.6087 0.72691 0.74797-0.28703 2.1106-0.54797 3.0282-0.57988zm68.668-4.4681c2.2-1.355 4.547-2.466 5.2155-2.4688 0.66854-3e-3 2.5966-1.3551 4.2845-3.0051s3.6271-3 4.3093-3c1.6558 0 9.6907-8.6042 9.6907-10.377 0-0.76863 2.429-3.3607 5.3979-5.7601 9.6075-7.7648 11.012-12.863 3.5438-12.863-4.0262 0-7.8178 2.6671-7.9084 5.5629-0.0678 2.166-5.8286 6.1818-16.336 11.388-10.44 5.1722-13.697 8.0728-13.697 12.195 0 0.68472-1.1942 2.4914-2.6538 4.0149l-2.6538 2.7699 2.4038 2.0015c3.0587 2.5469 3.5703 2.519 8.4038-0.45803zm-94.75-7.4022c6.1991-6.8308 5.5796-7.5601-7.1173-8.3788-7.0683-0.45578-10.617-7.8904-5.4892-11.5 2.3379-1.6455 2.3874-3.7728 0.10654-4.5773-0.9625-0.3395-2.2908-0.87224-2.9517-1.1839-1.3343-0.62911-6.458 8.8122-9.3604 17.248l-1.7854 5.1894 2.6059 1.7074c2.2757 1.4911 3.2162 1.551 7.4233 0.47275 4.3494-1.1147 5.1333-1.0394 8.0679 0.77478 4.1744 2.5807 6.3257 2.6432 8.5004 0.24683zm6.3135-11.696c0.4647-1.2669 0.27728-3.0922-0.46427-4.5215-0.68395-1.3183-1.8847-4.5684-2.6683-7.2224-2.3811-8.0644-7.8532-6.5295-12.901 3.6185-0.75233 1.5125-1.7418 2.75-2.1989 2.75-1.5151 0-0.86129 2.5904 1.2168 4.821 1.5139 1.625 2.496 1.9583 3.7664 1.2784 1.1476-0.61417 2.5437-0.4547 4.2021 0.47999 3.5558 2.0041 8.0918 1.4004 9.047-1.204zm98.519-4.9795c9.4396-4.8734 12.418-6.9933 12.418-8.8387 0-0.62303 1.3317-2.6908 2.9594-4.595 2.8336-3.3151 3.86-5.9622 2.3118-5.9622-2.0504 0-14.271 5.3195-14.271 6.212 0 0.57042-2.2301 3.198-4.9558 5.839-3.891 3.7701-9.1349 11.949-7.6611 11.949 0.15457 0 4.2941-2.0718 9.199-4.6041zm41.012 2.3432c0.40651-0.40651 1.7891-0.7391 3.0724-0.7391 2.9479 0 2.9396-0.0837-0.67583-6.86-5.7789-10.831-12.991-14.631-12.991-6.8441 0 0.68736-1.5762 3.643-3.5026 6.5682-3.7553 5.7021-3.7548 7.1359 3e-3 7.1359 1.3101 0 2.6162 0.37892 2.9024 0.84203 0.63186 1.0224 10.154 0.93479 11.192-0.10293zm-43.007-12.507c5.5992-6.7675 10.49-19.252 6.6008-16.848-1.1948 0.73842-11.188 18.253-11.188 19.609 0 1.88 1.4905 0.98326 4.5877-2.7602zm-108.06-2.2637c2.2531-2.3517 3.4862-2.9039 5.4978-2.4621 3.3418 0.73398 5.1744-1.3436 7.5029-8.5062 2.1556-6.6307 5.3299-11.783 7.7455-12.572 2.7246-0.88972 5.2795-5.2724 3.886-6.6659-2.4596-2.4596-24.331 15.921-31.917 26.822-4.0821 5.8663 2.1383 8.7551 7.2849 3.3832zm49.779-9.4986c1.8519-0.34742 4.0024-0.50702 4.7788-0.35466 3.2132 0.63051 5.9117-1.2148 5.9117-4.0426 0-3.3513 9.4955-7.2524 14.436-5.931 2.5694 0.68716 6.5464-3.282 6.5598-6.547 2e-3 -0.49808 1.1287-2.3806 2.5037-4.1833s2.5-3.5327 2.5-3.8444c0-0.92088-8.833-0.64595-9.4133 0.293-0.29223 0.47284-4.4813 1.0895-9.309 1.3703-10.221 0.59452-15.79 2.5644-16.761 5.9287-1.5047 5.2123-3.9742 9.4979-7.1116 12.341-3.7186 3.3702-9.7978 14.056-8.86 15.573 0.33593 0.54355 3.0377-1.4778 6.004-4.4918 3.6368-3.6954 6.4897-5.6858 8.7603-6.1117zm27.122 6.4085c4.3401-10.847 1.2583-16.083-8.1393-13.829-6.6371 1.5922-6.4805 1.3167-5.1239 9.0186 1.8305 10.392 9.864 13.305 13.263 4.81zm31.482-5.9661c4.5804-7.9445 4.7734-8.9341 2.4379-12.498-3.6454-5.5636-13.026-7.6392-12.039-2.6637 0.3826 1.9284-0.33861 4.3302-2.4139 8.0389l-2.9595 5.2889 3.0305 2.55c1.6668 1.4025 3.0305 3.1537 3.0305 3.8916 0 0.73786 1.0125 1.5366 2.25 1.7749 1.2375 0.23835 2.3236 0.49465 2.4136 0.56955 0.0899 0.0749 2.0024-3.0534 4.25-6.9517zm33.018 4.8378 2.7482-2.25-2.4587-3.25c-2.9699-3.9257-3.4209-3.9623-7.7881-0.63131-3.4038 2.5962-5.0665 7.9453-2.118 6.8138 0.72341-0.2776 2.4109-0.067 3.75 0.468 1.3391 0.53499 2.5886 1.0012 2.7766 1.0361 0.18801 0.0349 1.5785-0.94911 3.09-2.1866zm-15.804-4.4293c2.5453-0.80899 6.0934-2.6944 7.8847-4.1899l3.2569-2.719-10.383-8.6935-3.3684 3.2648c-2.9199 2.8301-6.5175 10.57-6.5175 14.022 0 1.162 0.4095 1.0864 9.1278-1.6846zm-4.1598-13.788 3.1906-3.2919-5.9262-3.6c-9.9339-6.0345-27.388-12.542-33.866-12.626-3.0899-0.0403-2.0691 3.9283 1.2961 5.0389 4.0179 1.326 11.337 5.9253 11.337 7.1239 0 0.4523 1.7334 0.82237 3.8521 0.82237 4.7256 0 10.084 3.3554 12.141 7.6022 1.8062 3.7297 3.5501 3.4959 7.9747-1.0692zm-79.695-6.5331c1.3984-1.1 3.7233-2 5.1664-2 1.4431 0 5.4221-0.94559 8.8423-2.1013 3.6068-1.2188 8.7384-2.0975 12.218-2.0922 8.5654 0.013 15.072-3.4538 12.944-6.8967-2.8559-4.621-47.168 2.8149-53.727 9.0158-4.3841 4.1447 9.5188 8.0365 14.556 4.0745zm-246.05-97.186 0.27903-13.186 6.8381-0.0638c8.4531-0.07879 10.662 1.8708 10.662 9.4107 0 6.2758-3.4172 10.026-9.1364 10.026-3.7489 0-3.8636 0.10392-3.8636 3.5 0 3.0774-0.30538 3.5-2.529 3.5h-2.529zm12.577-1.0638c1.9529-4.0948-0.2-8.1426-4.5546-8.5634l-3.243-0.31336v12.253l3.243-0.31336c2.3881-0.23075 3.5888-1.0384 4.5546-3.0634zm-30.581 6.4047c-2.829-1.7951-0.20012-3.9706 4.6047-3.8106 6.1718 0.20554 6.7846-3.4264 1.1792-6.9889-7.6581-4.8671-9.2094-9.2189-4.763-13.361 3.1397-2.9251 11.117-2.5138 11.562 0.59606 0.26476 1.8532-0.18828 2.0797-4 2-6.4479-0.13485-6.6119 3.2631-0.3352 6.9415 7.0835 4.1512 8.483 8.6131 4.0821 13.014-2.5285 2.5285-9.4556 3.4327-12.329 1.6093zm42.456-1.1981c-7.2561-5.7077-2.5799-17.957 6.8552-17.957 3.4343 0 8.4727 5.009 8.4727 8.4231 0 2.5238-0.14428 2.5769-7 2.5769-5.279 0-7 0.33868-7 1.3776 0 2.5425 2.8534 3.9054 7.0096 3.348 3.3727-0.45237 3.9904-0.2569 3.9904 1.2626 0 3.5541-8.2199 4.1999-12.328 0.9685zm10.143-11.707c-0.40224-2.121-5.3043-2.9185-7.3752-1.1998-2.5047 2.0787-1.5793 2.9498 3.1338 2.9498 3.8153 0 4.5183-0.29006 4.2414-1.75zm10.108 10.827c-7.731-7.731 2.7191-22.032 11.861-16.232 2.6011 1.6504 0.27906 4.0392-3.3534 3.4497-4.4919-0.72893-6.4305 0.99094-6.4305 5.705 0 4.6551 1.8137 6.2554 6.6201 5.8413 3.9173-0.33749 5.8584 1.6078 3.2518 3.259-3.1154 1.9735-8.9379 0.98749-11.949-2.0234zm18.778 2.291c-0.38568-0.38568-0.70124-4.0012-0.70124-8.0346 0-4.2222-0.42424-7.3333-1-7.3333-0.55 0-1-0.82083-1-1.8241 0-1.4224 0.7156-1.7906 3.25-1.672l3.25 0.15201v9.4084c0 9.2023-1.1307 11.972-3.7988 9.3036zm10.954-1.1966c-4.2544-4.7011-0.27974-11.171 6.8626-11.171 4.3892 0 2.2764-2.467-2.407-2.8105-5.7023-0.4182-5.5281-3.53 0.22415-4.0044 7.3155-0.60339 9.0115 1.8734 9.9736 14.565 0.40903 5.3955-1.1444 7.014-3.9955 4.1629-0.78285-0.78285-1.2752-0.78285-1.759 0-1.0929 1.7683-7.0789 1.2694-8.8989-0.74161zm7.4108-2.2064c2.3712-1.269 2.6613-5.9648 0.36852-5.9648-4.2821 0-6.7094 3.3249-4.2343 5.8 1.4549 1.4549 1.4551 1.4549 3.8657 0.16482zm11.969 2.1009c-3.3896-6.3335-0.81643-26.066 3.3991-26.066 0.31116 0 0.56574 5.5984 0.56574 12.441 0 7.3484 0.41601 12.698 1.0163 13.069 1.4754 0.91186 0.18243 2.4899-2.0401 2.4899-1.0482 0-2.3716-0.87042-2.941-1.9343zm47.116 1.0491c-1.7575-1.1138-0.97707-4.738 0.90778-4.2156 9.8456 2.7287 11.841-1.8518 3.2228-7.3993-5.8784-3.784-7.3844-7.5424-4.5494-11.354 3.1411-4.2228 14.358-4.1528 12.734 0.0794-0.45586 1.188-1.5458 1.4392-4.5157 1.0408-3.1396-0.42111-4.0506-0.17126-4.6004 1.2617-0.68836 1.7938-0.32508 2.1893 7.6228 8.2977 7.8784 6.0551-2.3431 17.662-10.822 12.289zm20.42-0.68629c-1.1026-1.1026-1.5714-3.4892-1.5714-8 0-3.619-0.43704-6.4286-1-6.4286-0.55 0-1-0.9-1-2s0.45-2 1-2 1-0.85186 1-1.893c0-1.5427 1.7699-3.107 3.5154-3.107 0.19348 0 0.49418 1.2375 0.66821 2.75 0.25039 2.1762 0.83422 2.75 2.7978 2.75 1.5663 0 2.6075 0.64537 2.8233 1.75 0.26598 1.3612-0.3408 1.75-2.7314 1.75-2.9674 0-3.0733 0.15233-3.0733 4.4182 0 5.9576 0.77268 7.5818 3.607 7.5818 1.7263 0 2.393 0.55718 2.393 2 0 2.5284-6.0225 2.8347-8.4286 0.42857zm13.883-0.88312c-4.4135-4.4135-3.1764-13.503 2.2297-16.382 6.8174-3.631 13.316 0.588 13.316 8.6452 0 9.293-9.3406 13.942-15.545 7.7369zm9.9385-3.1272c2.1084-5.4943 0.0856-10.716-3.9697-10.248-5.9266 0.68408-5.5074 11.83 0.44494 11.83 1.7381 0 3.1632-0.63951 3.5248-1.5818zm9.607-4.4182c0-9.3333 0.13333-10 2-10 1.1 0 2 0.46583 2 1.0352 0 0.71358 0.60093 0.71358 1.9343 0 1.0638-0.56935 2.8968-1.0352 4.0733-1.0352 3.0821 0 2.1739 3.4096-1.0178 3.8207-3.7663 0.48519-4.9898 2.9054-4.9898 9.8704 0 5.6422-0.21134 6.3089-2 6.3089-1.8667 0-2-0.66667-2-10zm15.917 9.5877c-1.2429-1.2298 0.30536-19.588 1.652-19.588 0.78726 0 1.4314 0.46583 1.4314 1.0352 0 0.71358 0.60093 0.71358 1.9343 0 2.4512-1.3118 6.3669-1.3341 7.6575-0.0434 0.65566 0.65566 2.0551 0.59038 4.1295-0.19263 6.8302-2.5781 10.579 2.1226 10.072 12.629-0.50701 10.503-4.5981 9.5912-4.9999-1.1145-0.48822-13.011-6.7482-12.146-6.7779 0.93611-0.0138 6.0782-0.21435 6.75-2.0153 6.75s-2.0015-0.67177-2.0153-6.75c-0.0296-13.033-6.2885-13.956-6.7768-1-0.27774 7.3698-1.737 9.8651-4.2913 7.3377zm-95.917-10.588c0-1.7333 0.66667-2 5-2s5 0.26667 5 2-0.66667 2-5 2-5-0.26667-5-2zm-51.636-12.493c-0.34636-0.90262-0.15025-2.1206 0.43581-2.7067 1.5236-1.5236 4.4104-0.13109 4.0124 1.9355-0.4433 2.3019-3.6477 2.8574-4.4482 0.7712zm-107.44 359.49c0.04592-332.77-0.19745-419.02-1.1825-419.11-0.68218-0.0579-3.1525-0.17043-5.4895-0.25l-4.2492-0.14467-7.98e-4 419.25-7.99e-4 419.25h10.865zm642.08 342.25c2e-5 -42.212 0.11252-230.74 0.25-418.95 0.28246-386.67 1.1845-344.03-7.25-342.69l-3.5 0.55963 0.19226 416.66c0.10574 229.16 0.21824 417.67 0.25 418.91 0.052 2.0256 0.55633 2.25 5.0577 2.25h5zm-84.053-670.8c49.046-11.56 61.061-77.024 19.24-104.83-39.101-25.994-90.761 1.6098-90.533 48.376 0.18323 37.536 34.903 65.028 71.293 56.451zm-28.947-6.7267c-55.724-19.068-43.035-99.724 15.688-99.724 29.545 0 51.312 21.646 51.312 51.029 0 34.22-34.988 59.649-67 48.696zm36.41-6.0503c30.035-14.91 36.371-52.906 12.822-76.898-21.761-22.172-60.746-16.732-75.551 10.542-22.341 41.157 21.044 87.051 62.729 66.357zm-24.867-8.1548c-6.2688-1.6633-10.725-6.5952-17.185-19.019-2.5739-4.95-5.7322-10.679-7.0184-12.73-2.7345-4.3617-2.9088-6.0517-0.80441-7.7982 2.3833-1.9779 5.6091 0.31796 9.8915 7.04 6.4581 10.137 9.2086 8.055 7.5469-5.7134-2.2191-18.386-2.3304-22.756-0.61567-24.18 2.2458-1.8638 4.3544-0.78054 4.9903 2.5636 0.29465 1.5497 1.3031 6.9801 2.241 12.068 2.347 12.731 3.4118 11.586 3.4118-3.6682 0-14.754 0.30046-16.082 3.6384-16.082 3.3003 0 3.7263 2.6657 4.285 26.809 0.16368 7.0726 1.8967 1.6878 2.5911-8.051 0.99635-13.974 2.1619-16.516 6.3542-13.86 1.2887 0.81636 1.5291 8.6639 0.74619 24.352-0.30512 6.114 1.8323 4.4102 5.8891-4.6942 3.9015-8.756 5.5063-10.453 7.5523-7.9879 1.739 2.0954 0.64594 7.0496-3.5464 16.073-2.6903 5.7907-3.8753 9.9895-4.5032 15.956-1.7529 16.656-10.239 22.962-25.464 18.922zm-438.54-61.769 1.5e-4 -3.25-8.5002 0.35262c-8.7674 0.3637-9.7271-0.1717-8.2501-4.6026 0.34971-1.0491 6.8847-1.0773 9-0.0388 1.5195 0.746 1.75 0.32765 1.75-3.176 0-2.2194-0.45-4.0352-1-4.0352s-0.99965 0.3375-0.99922 0.75c2e-3 2.1075-9.5059 0.48144-9.8287-1.6809-0.31858-2.1341-0.077-2.1905 8.5-1.9842l8.8279 0.21231v-3.1999c0-2.7124-0.30468-3.118-2-2.6623-1.1 0.29568-6.5 0.54375-12 0.55126l-10 0.01365v24.941l11.5 0.31453c6.325 0.173 11.838 0.41131 12.25 0.52958s0.75007-1.2475 0.75014-3.035zm117 0 1e-3 -3.25h-8.7511c-8.6678 0-8.7511-0.0238-8.7511-2.5 0-2.7561 6.5986-4.3014 8.8318-2.0682 0.58764 0.58752 1.4283 1.0682 1.8683 1.0682 1.1632 0 0.98272-6.769-0.2-7.5-0.55-0.33992-1-0.11682-1 0.49577 0 2.4713-9.4699 0.71639-9.8295-1.8215-0.32587-2.3002-0.23538-2.3222 8.2523-2l8.5818 0.32573-2e-3 -3.357c-2e-3 -2.6498-0.33555-3.2291-1.5841-2.75-0.86998 0.33385-6.1575 0.60699-11.75 0.60699h-10.169v24.941l11.5 0.31453c6.325 0.173 11.838 0.41131 12.25 0.52958s0.7505-1.2475 0.75111-3.035zm105.92-0.53002c3.832-2.8439 5.2186-6.1316 4.7173-11.186-1.6234-16.369-28.64-14.732-28.64 1.7351 0 10.663 14.546 16.409 23.923 9.4506zm-14.807-4.1039c-4.8442-4.8442-1.8053-13.449 4.7495-13.449 10.295 0 11.627 13.653 1.4654 15.016-3.3036 0.4431-4.5094 0.1392-6.2149-1.5663zm166.88 4.548v-3.3358l-16.135 0.78913 0.31767-10.061 0.31768-10.061-8 6e-3v24.938l11 0.31589c6.05 0.17375 11.338 0.41209 11.75 0.52965 0.4125 0.11757 0.75-1.2874 0.75-3.1221zm-432 1.3358c0-0.55-0.44343-1-0.98541-1-0.92109 0 0.80004-5.1147 4.8793-14.5l1.7386-4 3.2058 8.393c1.7632 4.6162 2.9405 9.2287 2.6164 10.25-0.51914 1.6357-9e-3 1.857 4.278 1.857 4.8191 0 4.8677-0.0322 4.8947-3.25 0.0255-3.0259 7.4413-22.906 9.4534-25.342 1.3058-1.581 0.0469-2.408-3.6656-2.408-4.2678 0-6.9988 1.0212-5.3901 2.0155 1.1543 0.71338-3.6418 15.985-5.0202 15.985-1.2696 0-6.0674-14.673-5.382-16.46 0.58208-1.5169 0.37961-1.7553-1.0311-1.2139-0.96547 0.37049-3.6311 0.6805-5.9236 0.68892-2.2925 8e-3 -3.6596 0.34592-3.038 0.75 1.152 0.74883-4.1894 16.235-5.5996 16.235-0.9926 0-6.1077-15.066-5.4671-16.103 0.30498-0.49347-1.7772-0.89721-4.627-0.89721-4.0594 0-4.9545 0.27343-4.1336 1.2626 2.1445 2.584 10.221 25.088 9.6494 26.887-0.51858 1.6339 5e-3 1.85 4.4802 1.85 2.7871 0 5.0674-0.45 5.0674-1zm67.247-0.1532c-2.5377-2.5377 0.44152-4.8468 6.2532-4.8468 5.5209 0 7.8898 1.6592 6.7815 4.75-0.31675 0.88338 0.89608 1.25 4.1351 1.25 2.5208 0 4.5833-0.14626 4.5833-0.32502 0-0.17877-2.475-4.9422-5.5-10.585-3.025-5.6432-5.5-11.122-5.5-12.175 0-1.5985-0.73267-1.9146-4.4378-1.9146-3.5981 0-4.4189 0.33114-4.3375 1.75 0.0772 1.3458-5.0218 12.812-10.006 22.5-0.2122 0.4125 1.7667 0.75 4.3975 0.75 3.6125 0 4.5011-0.28227 3.6301-1.1532zm4.4486-12.334c0.91468-1.9181 1.7502-3.3806 1.8566-3.25 0.10648 0.13059 0.93738 1.6999 1.8464 3.4874l1.6529 3.25h-7.019zm33.458 3.407-0.34625-10.082 4.5839 0.28189c2.5212 0.15504 4.5895-0.0333 4.5962-0.41855 0.099-5.6248 1.1182-5.2004-12.49-5.2004h-12.5l7.6e-4 3.1032 7.6e-4 3.1032 10.196-0.9797-0.34797 10.138-0.34798 10.138h7zm18.982 4.3305-0.28363-5.25h13.396l-0.4561 5.5-0.45611 5.5 7.1646 0.00152v-24.999l-7.2543-2e-3 0.50722 4.5 0.50721 4.5h-13.26v-9l-7.5 2e-3v25.09l7.919-0.59209zm61.091 0.75-0.48044-5h3.0457c3.1423 0 8.07 5.8228 7.4051 8.75-0.19817 0.87231 1.24 1.25 4.7599 1.25 4.9117 0 6.4008-1.081 3.7199-2.7003-2.7548-1.6639-6.2612-7.5564-4.801-8.068 5.3767-1.8836 6.7886-8.778 2.4901-12.159-3.2006-2.5176-25.613-3.2809-23.556-0.80231 1.3399 1.6145 1.2961 20.8-0.0513 22.48-0.7728 0.96319 0.024 1.25 3.4727 1.25h4.4756zm0.48561-10.622c-2.6784-2.6784-0.59823-4.3782 5.358-4.3782 5.7224 0 6.0513 0.1287 5.75 2.25-0.32453 2.2851-9.2425 3.9937-11.108 2.1282zm61.021 13.378c5.7091-2.4613 6.2786-3.5306 3.3109-6.2163-1.8001-1.6291-2.0849-1.6416-3.5699-0.15649-0.88759 0.88758-2.7073 1.8395-4.0439 2.1153-1.3365 0.27582-3.5017 0.72169-4.8115 0.9908-9.5033 1.9526-15.517-9.7442-8.5782-16.684 3.8349-3.8349 13.174-3.8319 17.259 6e-3l2.3267 2.1858 2.187-2.9581c2.3255-3.1454 2.8044-4.5387 1.2245-3.5623-0.52938 0.32717-3.2144-0.54627-5.9668-1.941-12.967-6.5712-27.071 0.25388-27.071 13.1 0 12.892 13.475 19.267 27.733 13.12zm49.467 1.044c-1.2797-1.2797-1.7124-13.8-0.47691-13.8 1.2809 0 13.277 12.397 13.277 13.721 0 0.81103 1.3719 1.2792 3.75 1.2796l3.75 7.6e-4v-24.999l-7-8e-3 0.67792 14.357-6.089-5.275c-5.5686-4.8241-6.5521-6.1436-6.2074-8.3271 0.0651-0.4125-1.8205-0.75-4.1903-0.75h-4.3088l0.13468 10.25c0.0741 5.6375-0.22585 11.262-0.6665 12.5-0.75729 2.1267-0.54505 2.25 3.8741 2.25 3.6363 0 4.4086-0.26667 3.4752-1.2zm38.953-8.9074-0.3471-10.109 4.5971 0.36562c4.5246 0.35985 4.5971 0.31819 4.5978-2.6416l7.6e-4 -3.0072h-24.999l-1e-3 3.0072c-1e-3 2.96 0.0709 3.0015 4.5958 2.6416l4.5971-0.36562-0.3471 10.109-0.34709 10.109h8zm19.073 5.1074-0.48044-5h3.0912c3.387 0 8.5178 5.9125 7.4793 8.6188-0.4082 1.0638 0.64358 1.3812 4.577 1.3812 6.0678 0 6.0812-0.0439 1.607-5.271-4.2336-4.946-4.225-4.8091-0.43554-6.9658 9.4624-5.3853 2.227-12.727-12.564-12.748l-10-0.01474v25h7.2064zm-0.22598-12.5c0-2.3861 0.2706-2.5 5.941-2.5 6.1593 0 7.4933 0.70467 6.4553 3.4098-1.1658 3.0382-12.396 2.214-12.396-0.90976zm46.067 15.234c11.025-7.43 5.1256-22.734-8.7641-22.734-9.3325 0-14.302 4.4228-14.302 12.728 0 10.129 13.922 16.169 23.067 10.006zm-14.612-5.1886c-3.9558-3.9558-1.689-12.02 3.5454-12.613 6.1713-0.69884 10 2.1262 10 7.3785 0 7.1744-8.3706 10.409-13.545 5.234zm-433.87-6.5454c3.2928 0 4.4182-0.38845 4.4182-1.525 0-2.1559 6.3468-14.149 10.233-19.336l3.2671-4.3609-11.5-10.826c-7.6004-7.1548-11.839-10.492-12.5-9.8411-1.9236 1.8941-1.8957 47.254 0.02862 46.516 0.89922-0.34506 3.6232-0.62739 6.0532-0.62739zm645.42-22.661c0-28.273 0.70877-27.537-13.16-13.668l-10.93 10.93 4.4116 6.5789c2.4264 3.6184 5.4661 9.519 6.7549 13.113l2.3432 6.5337 10.58-0.26588zm-310.8-10.839 15.269-7.5h21.533v-11h-31.585l-1.2022 4.4948c-5.1036 19.082-33.983 18.409-39.319-0.9165l-0.98801-3.5783h-30.906v11.058l21.5-0.36638 15 7.493c8.25 4.1212 15.096 7.5656 15.214 7.6544 0.11789 0.0888 7.0855-3.2136 15.484-7.3386zm-310.77 3.6938c2.9372-2.5789 15.694-9.4151 19.818-10.62 1.3941-0.4073 1.75-1.6361 1.75-6.0427v-5.5314h-22.309c-29.439 0-28.914-0.42135-15.633 12.54 5.6128 5.4779 10.708 10.505 11.323 11.172 1.5111 1.6377 1.4273 1.6629 5.0503-1.5181zm606.09-9.1708c13.893-13.707 14.614-13.023-13.72-13.023h-22.8v10.732l6.0308 2.1989c3.3169 1.2094 8.8294 4.1621 12.25 6.5615 3.4206 2.3994 6.4205 4.3952 6.6665 4.4351s5.4539-4.8671 11.573-10.904zm-306.3 1.9329c6.2608-1.7388 12.781-8.8421 12.781-13.924 0-1.2287-33.614-1.465-34.37-0.24165-1.7011 2.7525 6.045 11.619 12.008 13.745 4.7414 1.6903 4.974 1.7005 9.5817 0.42081zm-107.28-3.956h47.059v-11h-215v11h59.8zm373.12-2.25c0.0351-1.2375 0.20779-3.7125 0.38373-5.5l0.31989-3.25h-215.77v11h215z"/>
</svg>
