<?xml version="1.0" encoding="UTF-8" standalone="no"?>
<!-- Created with Inkscape (http://www.inkscape.org/) -->

<svg
   width="822"
   height="1122"
   version="1.1"
   viewBox="0 0 822 1122"
   xml:space="preserve"
   id="svg10"
   sodipodi:docname="Weirding Way (Full Res).svg"
   inkscape:version="1.4 (86a8ad7, 2024-10-11)"
   xmlns:inkscape="http://www.inkscape.org/namespaces/inkscape"
   xmlns:sodipodi="http://sodipodi.sourceforge.net/DTD/sodipodi-0.dtd"
   xmlns="http://www.w3.org/2000/svg"
   xmlns:svg="http://www.w3.org/2000/svg"><defs
     id="defs10" /><sodipodi:namedview
     id="namedview10"
     pagecolor="#ffffff"
     bordercolor="#000000"
     borderopacity="0.25"
     inkscape:showpageshadow="2"
     inkscape:pageopacity="0.0"
     inkscape:pagecheckerboard="0"
     inkscape:deskcolor="#d1d1d1"
     inkscape:zoom="2.0802139"
     inkscape:cx="380.97044"
     inkscape:cy="474.7108"
     inkscape:window-width="2560"
     inkscape:window-height="1369"
     inkscape:window-x="1072"
     inkscape:window-y="317"
     inkscape:window-maximized="1"
     inkscape:current-layer="svg10" /><path
     d="m 89,1000 c -4.5,-1.3 -6.7,-2.9 -8.9,-6.5 L 77.9,990 77.953,529 c 0.029,-254 0.072,-465 0.096,-469 0.042,-7.1 0.16,-7.4 4,-12 l 3.9,-4.2 320,-0.26 c 237,-0.19 321,0.035 323,0.87 1.5,0.62 4.1,2.7 5.7,4.5 l 3,3.4 -0.002,469 c -0.002,460 -0.037,469 -1.9,472 -1.1,1.7 -3.4,4 -5.2,5.1 -3.5,2.1 -634,3.6 -641,1.5 z m 44,-8.3 c 0,-4.6 -0.35,-5.9 -1.8,-6.4 -5.7,-1.9 -13,-6 -18,-9.5 l -5.4,-4 -11,11 c -15,15 -16,14 16,14 h 21 z m 219,0.45 0.3,-5.2 -4.3,-0.017 c -2.4,-0.01 -51,-0.012 -108,-0.01 l -104,0.012 -0.32,3.1 c -0.18,1.7 -0.085,4.1 0.21,5.3 l 0.53,2.1 215,-0.15 z m 36,1.1 c 6,-20 35,-20 40,1 0.47,1.9 1.3,2.8 2.9,2.8 3.9,0.12 13,0.13 21,0.03 l 7.7,-0.096 0.69,-10 h -19 l -33,-16 -30,15 h -22 l -0.31,4.4 c -0.51,7 -1,6.8 16,6.6 l 15,-0.2 z m 290,-0.96 -10e-6,-5.2 -42,-0.27 c -23,-0.15 -71,-0.15 -108,-6e-4 l -66,0.27 v 4.9 c 0,6.2 -13,5.5 110,5.5 h 105 z m 50,4.1 c 1.6,-0.92 0.38,-2.5 -10,-13 l -12,-12 -2.5,2.3 c -4.5,4.1 -12,8.6 -18,10 l -5.3,1.7 v 5.2 c 0,4.7 0.24,5.3 2.2,5.6 5.8,0.83 43,0.18 45,-0.77 z m -304,-1.7 c -5,-16 -25,-18 -33,-3.7 -3.1,6 -3.2,5.9 16,5.9 h 18 z m 309,-3 c 1.7,-4.3 0.77,-47 -0.97,-47 -0.99,-0.021 -3.4,-0.28 -5.5,-0.57 -3.5,-0.51 -3.7,-0.38 -4.9,3.3 -2,6 -5.9,13 -9.6,18 l -3.4,4.1 11,11 c 12,12 12,12 13,11 z m -648,-1.5 c 1,-0.96 6.2,-6 11,-11 l 9.6,-9.3 -3.9,-5.2 c -4.2,-5.6 -8.4,-14 -9.4,-18 -0.6,-2.5 -1,-2.7 -6.1,-2.7 h -5.5 l -0.029,10 c -0.016,5.6 -0.092,15 -0.17,22 -0.18,15 0.55,18 4,14 z m 307,-15 c 8.3,-4.1 15,-7.5 16,-7.5 1,0 7.3,3.4 16,7.5 l 15,7.5 h 245 l 8.3,-4.2 c 11,-5.4 19,-14 25,-25 l 3.8,-7.7 0.51,-804 h -23 l -1.2,6.7 c -11,65 -111,63 -121,-2.2 l -0.68,-4.5 h -480 l -0.016,74 c -0.0088,41 -0.015,221 -0.014,400 l 0.0023,327 2.1,5.6 c 4.9,13 14,23 27,30 l 7.9,4 h 245 z m -301,-41 c 0.0089,-3.4 0.022,-192 0.03,-419 l 0.014,-412 -11,-0.58 0.2,417 c 0.11,230 0.22,418 0.25,419 0.037,1.4 0.97,1.8 5,1.8 h 5 z m 643,-413 0.027,-419 h -11 v 838 h 11 z m -84,-328 c 31,-6 52,-43 42,-74 -19,-61 -110,-49 -113,14 -2.1,39 31,67 71,60 z m -24,-5.3 c -35,-7.9 -52,-49 -33,-78 28,-43 94,-24 94,28 0,34 -30,58 -62,51 z m 32,-7.3 c 38,-19 35,-74 -5.4,-88 -15,-5 -24,-4.2 -40,3.8 -8.2,4 -20,19 -21,27 -0.31,1.7 -0.84,3.6 -1.2,4.2 -2.1,3.5 -0.76,20 2.2,27 0.73,1.6 2.1,4.6 2.9,6.6 9.2,20 41,30 63,19 z m -563,-87 c 2,-5.8 6.1,-13 9.9,-17 l 2.6,-2.8 -11,-11 c -14,-13 -14,-13 -14,-0.13 -0.0087,5.4 -0.065,15 -0.12,21 -0.16,17 -0.75,15 5.7,15 l 5.6,-0.3 z m 640,-18 c -0.38,-28 0.58,-27 -13,-13 l -12,12 2.6,2.8 c 3.3,3.6 8,12 9.6,17 1.8,5.7 1.6,5.5 7.6,5.5 h 5.5 z m -310,-11 15,-7.5 h 20 l 0.35,-5.1 c 0.44,-6.5 1.9,-5.9 -15,-5.9 h -15 l -1.5,3.8 c -3.9,9.9 -9.1,14 -18,15 -11,0.89 -20,-5.7 -23,-17 -0.38,-1.3 -2.8,-1.5 -16,-1.5 l -15,0.05 v 10 l 23,1 14,7.2 c 17,8.7 13,8.8 31,-0.2 z m -310,2.5 c 2.9,-2.2 8.3,-5.2 12,-6.7 l 6.8,-2.7 v -5.3 c 0,-6.8 0.7,-6.6 -25,-6.2 -26,0.43 -26,0.015 -12,13 5.8,5.6 11,11 11,11 0.63,1.4 2.1,0.75 7.4,-3.3 z m 614,-19 c -0.65,-0.65 -9.4,-1 -24,-1 h -23 v 11 l 5,1.7 c 5.5,1.9 12,5.7 17,9.6 l 3,2.5 11,-11 c 7.7,-7.7 11,-11 10,-12 z m -314,13 c 5.1,-2.6 11,-9.3 11,-13 0,-0.3 -7.9,-0.54 -18,-0.54 -19,0 -19,0.02 -16,4.8 4.3,8.3 15,12 23,8.6 z m -72,-3.4 9.6,-0.02 -0.24,-10 h -215 l -0.1,3.5 c -0.22,7.7 -5.5,7 55,7.3 30,0.14 74,0.16 98,0.029 24,-0.131 48,-0.24 53,-0.25 z m 291,3.3e-4 45,-0.021 v -11 l -106,0.037 c -122,0.043 -109,-0.62 -109,5.9 l 0.35,5 c 57,0.7 113,0.09 170,0.042 z m -10.49,114.111 c 2,-6.7 3.1,-13 4.8,-20 1.2,-4.6 2.1,-8.9 2.1,-9.5 7.1e-4,-0.79 -3.5,-1 -11,-0.79 l -11,0.37 3.5,-4.1 c 1.9,-2.3 5.2,-6.3 7.4,-8.9 2.1,-2.6 5.6,-6.8 7.7,-9.1 6.9,-7.8 13,-15 16,-19 1.8,-2.3 3.3,-3.5 3.3,-2.7 0,0.8 -1.4,8 -3.2,16 -1.8,7.9 -3.2,15 -3.2,15 -0.01,0.42 4.8,0.9 11,1.1 l 11,0.3 -5.6,6.6 c -3.1,3.6 -7.1,8.4 -8.9,11 -1.8,2.2 -4.1,5 -5.2,6.3 -3.5,4 -14,17 -17,20 l -2.5,3.4 z M 116.81537,562.55499 c -3.6,-1.6 -8.1,-5.9 -10,-10 -2,-3.7 -3.1,-316 -1.1,-324 1.4,-5.1 6.4,-11 11,-13 3.8,-1.7 20,-1.8 290,-1.8 314,-0.052 290,-0.51 296,5.7 6.2,5.8 5.7,-6.6 5.7,169 l -0.017,161 -2.2,3.9 c -1.2,2.1 -4,5.1 -6.2,6.7 l -4,2.8 -289,0.21 c -238,0.18 -289,-0.02 -292,-1.1 z m 580,-3.1 c 11,-5.5 10,-1.4 9.9,-92 -0.46,-124 0.22,-19 0.22,-158 0,-83 0.062,-82 -4.8,-87 -5.5,-5.9 -3.2,-5.7 -65,-5.7 h -461 c -79,0 -70.00003,-12 -70,94 l 4e-5,156 c -0.29,89 -0.54,86 9.2,92 3.2,2 576.99996,2.4 579.99996,0.44 z m -303.7215,4.77908 c -240.01734,0.0417 -160.82198,-2.26808 -159.09351,-2.23865 3.01469,0.0513 3.2639,-0.2407 6.11911,-7.17044 1.63704,-3.97318 3.48451,-8.30755 4.10548,-9.63195 0.62097,-1.32439 3.66632,-8.80786 6.76743,-16.62994 4.72126,-11.90864 6.17412,-14.61567 8.932,-16.6424 3.5883,-2.63701 5.13032,-2.59538 13.78484,0.37211 5.45499,1.87042 14.20018,10.29488 14.20018,13.67938 0,1.1722 -1.80931,4.78447 -4.0207,8.02728 -7.48511,10.97627 -14.68276,21.29322 -16.98842,24.35084 -2.8556,3.78691 -1.83308,4.5759 4.75978,3.6727 5.00699,-0.68594 33.63505,-0.8997 93.12412,-0.69532 39.61011,0.13609 86.54496,-0.14003 86.54472,-0.50913 -9e-5,-0.14696 -2.55616,-5.13149 -5.68015,-11.07674 -3.12399,-5.94524 -7.46959,-14.31595 -9.65688,-18.60157 l -3.9769,-7.79204 1.92105,-3.96056 c 1.05658,-2.17831 1.92106,-4.63505 1.92106,-5.45941 0,-0.82437 -1.7153,-5.28131 -3.81177,-9.90433 -2.61968,-5.77675 -4.50976,-8.68937 -6.04362,-9.31324 -4.23374,-1.72201 -10.94658,-4.5906 -15.0443,-6.42885 -2.26031,-1.01399 -5.959,-2.67502 -8.21932,-3.69118 -2.26031,-1.01615 -7.16414,-3.12152 -10.89741,-4.6786 -3.73326,-1.55707 -11.98593,-6.30914 -18.33925,-10.56015 -10.87253,-7.27482 -11.67791,-7.6466 -13.70225,-6.32539 -2.30646,1.50533 -1.80556,1.64257 -13.45113,-3.68543 -2.1623,-0.98928 -4.55557,-1.81311 -5.31838,-1.83074 -0.7628,-0.0176 -2.41923,-0.88857 -3.68095,-1.93543 l -2.29404,-1.90339 2.0554,-6.49252 c 1.13047,-3.57088 2.39922,-8.22626 2.81947,-10.34529 l 0.76408,-3.85277 6.955,-0.2222 c 5.82312,-0.18604 10.45888,-1.39113 14.79427,-3.84587 0.3078,-0.17428 1.31853,2.40348 2.24607,5.72837 1.57024,5.62875 3.43715,10.55682 5.45206,14.3918 0.59965,1.14132 0.038,2.79783 -1.9465,5.74115 -1.53413,2.27534 -2.57902,4.47593 -2.32198,4.89021 0.75764,1.22109 7.37472,-2.61989 10.53552,-6.11549 3.76213,-4.16062 10.35966,-14.05401 11.99565,-17.98819 0.70018,-1.68376 1.68078,-3.06138 2.17913,-3.06138 1.24094,0 11.30894,7.98411 11.37604,9.02142 0.0297,0.45885 -2.02434,3.49291 -4.56451,6.74236 -7.72043,9.8762 -15.44463,22.36434 -14.4473,23.35776 1.46039,1.45468 9.28595,-6.41331 20.11343,-20.2225 2.33489,-2.97788 4.73137,-5.41432 5.32552,-5.41432 0.59414,0 2.22934,1.06077 3.63379,2.35727 1.40444,1.2965 3.17257,2.70517 3.92917,3.13038 0.7566,0.42521 4.13627,3.37373 7.51038,6.55227 3.37411,3.17854 7.59153,6.98304 9.37204,8.45445 3.06601,2.53373 3.20199,2.90983 2.56992,7.10829 -0.36706,2.43815 -2.58822,8.09078 -4.9359,12.56139 -4.01364,7.64305 -4.13938,8.11004 -2.10578,7.82122 3.59292,-0.51029 10.8298,-11.02633 12.38099,-17.99103 l 1.32239,-5.93741 5.46217,5.38402 c 5.39899,5.32174 5.48205,5.48927 7.18145,14.48214 1.53923,8.14527 2.00881,9.26847 4.48379,10.72475 2.9691,1.74703 2.97907,1.78092 4.74417,16.13278 0.58542,4.75998 1.25593,8.84528 1.49002,9.07846 0.23409,0.23318 -2.15985,2.05232 -5.31987,4.04254 -6.7811,4.27081 -16.51835,13.4456 -14.89916,14.03851 0.62105,0.22742 3.71666,-0.88756 6.87913,-2.47772 5.37907,-2.70472 8.22802,-5.10367 12.50107,-10.52659 l 1.7598,-2.23336 3.20519,9.93891 c 1.76285,5.4664 3.77323,11.23922 4.46751,12.82849 0.69428,1.58927 1.79574,4.40693 2.4477,6.26148 l 1.18537,3.3719 51.14275,0.13168 M 271.77164,538.0992 c -3.69818,-5.24127 -8.43444,-8.3205 -12.77284,-8.30412 -7.98727,0.0302 -10.34828,2.65151 -3.63882,4.04007 5.00348,1.03551 11.04372,4.27383 15.08798,8.08905 2.71406,2.56035 3.51135,2.91654 3.77706,1.68741 0.18524,-0.8569 -0.91878,-3.33749 -2.45338,-5.51241 z m 169.1136,-17.87557 c 2.28697,-1.54877 6.41698,-4.69119 9.17778,-6.98316 2.76081,-2.29197 6.13315,-4.94597 7.49408,-5.89777 5.27828,-3.6915 1.8159,-4.75655 -5.18218,-1.59408 -3.94183,1.78133 -17.48482,14.53917 -17.48482,16.47115 0,1.46072 1.75197,0.87739 5.99514,-1.99614 z m -152.9336,-1.40781 c -1.97115,-5.16386 -11.40842,-11.18739 -17.52801,-11.18739 -1.55143,0 -2.82077,-0.22054 -2.82077,-0.4901 0,-0.70921 13.43516,-25.37952 19.66577,-36.11128 l 5.31248,-9.15034 3.70463,0.34324 c 7.16287,0.66365 13.1717,3.71193 19.20531,9.74282 3.17851,3.17708 6.0681,5.78329 6.42133,5.79157 0.35322,0.008 -0.63881,-2.61912 -2.20452,-5.8387 -5.60622,-11.52807 -15.04932,-18.03659 -21.51063,-14.82588 -3.34786,1.6636 -4.08318,1.33532 -2.55181,-1.13922 0.844,-1.36383 0.77863,-2.5367 -0.27991,-5.02218 -1.26594,-2.97247 -1.20721,-3.57467 0.7046,-7.22396 6.39345,-12.20387 11.17886,-24.63085 11.17886,-29.02979 0,-5.53875 -1.67486,-20.63648 -2.89294,-26.07797 -1.4848,-6.63298 -0.57126,-8.10984 5.01651,-8.10984 h 4.79894 l -0.72482,3.13039 c -0.80684,3.48462 -0.74465,10.88298 0.16194,19.26388 0.57428,5.30888 0.50702,5.53836 -1.62319,5.53836 -4.81766,0 0.0718,2.04449 8.88051,3.71333 l 9.10704,1.72536 0.48349,5.7086 c 0.75248,8.88461 4.44976,7.13857 4.7385,-2.23774 l 0.0964,-3.13038 9.42804,-0.0236 c 5.18542,-0.0129 11.3807,-0.47169 13.76728,-1.01943 5.53791,-1.27098 12.5789,-5.67347 12.58115,-7.86657 9.5e-4,-0.92707 0.43686,-1.68559 0.9687,-1.68559 0.53376,0 0.96698,2.50845 0.96698,5.59896 0,6.42062 0.88725,7.55517 11.362,14.52899 3.98865,2.65555 6.04361,4.6665 6.04361,5.91419 0,1.03977 -0.54392,1.89386 -1.20872,1.89798 -0.6648,0.004 -4.68985,3.98151 -8.94455,8.83865 l -7.73583,8.83116 -0.2548,-3.30028 c -0.33372,-4.32247 -2.08023,-10.98492 -4.18184,-15.95256 l -1.68527,-3.98352 3.3027,-3.18858 c 5.21949,-5.03913 3.83566,-6.70935 -1.92973,-2.32909 -1.74319,1.32439 -3.38349,2.40799 -3.64511,2.40799 -0.26162,0 -0.43814,-1.84211 -0.39221,-4.09358 l 0.0835,-4.09357 -5.78925,0.20593 c -4.0429,0.14381 -6.13527,0.67729 -6.9363,1.76848 -1.41483,1.92733 -0.60401,8.21178 1.25136,9.69894 1.04352,0.83642 0.0431,1.22495 -4.46117,1.73255 -7.44228,0.8387 -19.83556,-0.85691 -28.51258,-3.90101 -11.57884,-4.06212 -10.89264,-3.97973 -8.98434,-1.07871 1.3641,2.07374 1.46192,3.05938 0.56657,5.7089 -0.59521,1.76132 -1.40575,3.63585 -1.80122,4.16561 -0.39547,0.52975 -1.25478,3.37946 -1.90959,6.33267 -1.16423,5.25074 -1.28573,5.39484 -5.49413,6.51601 -3.00862,0.80153 -4.21035,1.59081 -3.99373,2.62303 0.23409,1.1155 1.96488,1.55897 7.0787,1.81377 4.46528,0.22248 11.03786,1.68184 19.31297,4.28821 6.89927,2.17302 13.34302,3.95095 14.31945,3.95095 1.42066,0 0.85545,1.20263 -2.82923,6.01996 -2.53251,3.31098 -4.89601,6.23669 -5.25223,6.50156 -0.35622,0.26488 -1.69867,2.03235 -2.98321,3.9277 -2.55632,3.77188 -25.16151,28.84517 -25.94831,28.78142 -0.26805,-0.0217 -1.46729,-2.12359 -2.665,-4.67083 -2.82924,-6.01713 -4.85022,-8.25808 -8.96544,-9.94131 -3.72034,-1.52171 -10.69412,-1.20708 -11.80543,0.53261 -1.63382,2.55763 -0.71637,3.28432 3.54277,2.80613 6.06631,-0.68108 11.82918,2.286 15.38488,7.92107 1.51139,2.39526 3.21061,4.35501 3.77604,4.35501 0.56543,0 0.3586,0.75851 -0.45962,1.68559 -0.81822,0.92707 -2.3688,3.41934 -3.44573,5.53837 -1.07693,2.11902 -3.28854,5.1117 -4.91468,6.65039 l -2.95662,2.79761 z m 42.92996,-66.45391 c -2.69996,-1.84736 -13.43051,-5.37888 -18.40913,-6.05861 -2.34109,-0.31962 -4.25652,-0.7692 -4.25652,-0.99907 0,-0.22986 1.28415,-2.27707 2.85366,-4.54936 1.56952,-2.27229 3.41887,-5.94732 4.10966,-8.16673 1.04506,-3.35761 1.58078,-3.93807 3.18995,-3.45635 1.06367,0.31843 5.32498,1.27842 9.46957,2.13332 7.29578,1.50489 7.5199,1.63356 7.04207,4.04305 -0.27145,1.36878 -0.75613,5.9508 -1.07707,10.18227 -0.32094,4.23147 -0.68771,7.79736 -0.81505,7.9242 -0.12734,0.12684 -1.07556,-0.34688 -2.10714,-1.05272 z m -5.49543,-42.72769 c 0,-6.30542 -5.9553,0.14409 -7.11767,-11.32832 -0.75876,-7.48888 -0.81588,-7.91454 -1.84144,-13.72552 l -0.72246,-4.09358 3.74975,-0.17727 c 2.06237,-0.0975 6.45875,-0.20588 9.76973,-0.2408 l 6.01997,-0.0635 -0.70159,5.29757 c -0.38587,2.91366 -0.65851,9.7403 -0.60586,15.1703 0.0826,8.51569 -0.1168,9.84771 -1.45047,9.69062 -0.85041,-0.10017 -7.09996,2.53106 -7.09996,-0.52948 z m 11.83916,-1.46694 c 0,-1.31815 0.25028,-3.64276 0.55617,-5.16581 l 0.55617,-2.76919 8.63013,-0.044 8.63012,-0.044 v 4.03316 c 0,4.65982 -0.40218,4.86145 -11.59079,5.81095 -6.7355,0.57161 -6.7818,0.55917 -6.7818,-1.8211 z m 20.67101,-3.70756 c 0.78558,-1.79533 1.66399,-4.02276 1.95204,-4.94983 0.28806,-0.92708 1.16523,-1.68559 1.94928,-1.68559 2.39803,0 8.30494,-3.94976 8.30494,-5.55324 0,-0.8306 0.24929,-1.26187 0.55397,-0.95838 0.30469,0.3035 0.14083,2.04225 -0.36412,3.8639 -0.52043,1.87747 -0.55894,3.95138 -0.0889,4.78801 1.08949,1.93919 -5.19639,6.37908 -10.16942,7.18293 l -3.56611,0.57643 z M 338.84491,394.3005 c -0.35893,-0.35752 -0.6526,-2.71578 -0.6526,-5.24057 0,-3.54842 0.38416,-4.69863 1.69221,-5.06668 2.09326,-0.58898 9.79016,-1.79951 10.13932,-1.59466 0.14063,0.0825 1.45234,-0.30315 2.91489,-0.85704 2.95147,-1.11775 2.73921,-1.67134 3.01177,7.85482 0.12182,4.25736 -0.037,4.57959 -2.28653,4.63846 -1.3296,0.0348 -5.06098,0.25506 -8.29196,0.48949 -3.23098,0.23442 -6.16818,0.1337 -6.5271,-0.22382 z m 21.92512,-3.66778 c 0.34637,-0.8991 0.63036,-3.87482 0.6311,-6.61271 l 10e-4,-4.978 5.75866,-1.68559 c 3.16726,-0.92707 6.50606,-1.68559 7.41956,-1.68559 1.45393,0 1.40492,0.27141 -0.39328,2.17801 -1.12979,1.1979 -2.35208,4.03381 -2.71621,6.30203 -0.67911,4.23032 -1.71936,5.07791 -9.09319,7.40911 -1.84806,0.58426 -2.12808,0.42278 -1.60798,-0.92726 z m 80.76192,-8.66709 c -0.28545,-0.28433 -2.33807,-0.58798 -4.56138,-0.67475 l -4.04238,-0.15777 0.61951,-3.45353 c 0.8287,-4.61971 3.98786,-11.61801 6.45055,-14.28947 1.39851,-1.51707 1.59877,-2.16719 0.66758,-2.16719 -0.73162,0 -3.17298,1.94313 -5.42523,4.31807 -3.09978,3.26864 -4.25419,5.37543 -4.74999,8.66875 -0.36024,2.39287 -0.89723,4.35068 -1.19331,4.35068 -1.33899,0 -13.74676,-6.14525 -13.74676,-6.80842 0,-0.40924 1.4142,-1.04777 3.14268,-1.41895 7.26778,-1.56073 14.26293,-7.65863 14.26293,-12.43348 0,-2.01236 1.26415,-1.88173 6.08213,0.62847 2.23913,1.1666 4.4082,2.02992 4.82016,1.91849 0.41197,-0.11143 2.76051,0.30191 5.21898,0.91854 3.55034,0.89048 4.19199,1.34366 3.11889,2.20273 -3.70631,2.96706 -6.24519,6.92498 -8.10016,12.62748 -1.12486,3.45802 -2.27875,6.05468 -2.5642,5.77035 z m 7.30262,-3.64601 c 0.35968,-2.25147 1.8295,-6.58379 3.26627,-9.62739 2.30484,-4.88246 2.89686,-5.48453 5.02976,-5.11509 1.3296,0.23031 7.66589,1.3568 14.08064,2.50333 l 11.6632,2.0846 -2.24324,4.41362 c -1.23378,2.42749 -2.01637,5.12563 -1.73908,5.99586 0.43876,1.37701 -1.15933,1.72875 -12.3209,2.71183 -19.59175,1.72558 -18.51502,1.90568 -17.73665,-2.96676 z m -112.15139,0.83264 c 1.72665,0 -1.07857,-2.16761 -2.42035,-1.81809 -1.01277,0.2638 -2.87575,0.22106 -4.13995,-0.095 -2.281,-0.57025 -2.27003,-0.60542 1.43495,-4.60293 2.05343,-2.21557 3.73351,-4.57256 3.73351,-5.23777 0,-1.98769 7.61844,-7.86622 12.43347,-9.59389 3.59403,-1.28956 5.11501,-2.59608 7.63133,-6.55532 3.4297,-5.39638 3.8371,-7.15886 1.83194,-7.9253 -2.9954,-1.14495 -17.66058,9.10488 -23.60428,16.49757 -3.07064,3.81922 -3.23823,3.88944 -8.48547,3.55543 -2.94413,-0.18741 -7.17189,-0.65004 -9.39501,-1.02807 l -4.04205,-0.68733 3.35397,-1.981 c 4.91178,-2.90111 13.49211,-10.96299 13.60285,-12.78094 0.0526,-0.86317 0.70188,0.35599 1.44288,2.70925 1.753,5.56719 3.30113,7.16086 3.28217,3.37874 -0.0358,-7.14655 -5.81774,-19.43738 -11.91139,-25.32047 -4.08593,-3.94474 -9.96415,-5.09035 -13.67889,-2.66589 -1.34081,0.8751 -2.43785,1.94347 -2.43785,2.37416 0,0.43069 2.52755,1.48305 5.61677,2.33857 4.60436,1.27511 6.52162,2.50848 10.63676,6.84262 2.761,2.90792 5.01999,5.6938 5.01999,6.19084 0,0.49705 -2.45187,2.78791 -5.4486,5.09083 l -5.44859,4.18712 -1.562,-2.24491 c -3.7337,-5.36608 -9.21839,-9.78942 -12.857,-10.36898 -2.03123,-0.32354 -3.69316,-0.70203 -3.69316,-0.84109 0,-1.0065 7.18289,-14.49777 7.85387,-14.75153 0.46692,-0.17658 0.84894,-0.92543 0.84894,-1.66411 0,-1.36952 16.78569,-10.05475 19.43251,-10.05475 0.79982,0 1.8676,-0.39587 2.37285,-0.87971 0.50525,-0.48384 5.36597,-2.24727 10.80162,-3.91874 l 9.88299,-3.03903 1.6556,-5.2316 c 1.48901,-4.70519 1.92973,-5.23161 4.37994,-5.23161 3.32111,0 3.33287,-0.43287 0.27135,-9.9822 -3.36219,-10.48714 -1.92044,-17.40655 5.18846,-24.90117 5.03175,-5.30477 11.00381,-6.42557 20.53049,-3.85306 3.95662,1.06842 8.71685,2.51896 10.57828,3.22343 1.86143,0.70448 3.47394,1.3065 3.58334,1.33784 0.10941,0.0314 -0.43921,1.90193 -1.21915,4.15687 -0.89439,2.58583 -1.10608,4.70613 -0.57324,5.74155 1.55404,3.01981 2.19026,9.97706 1.03875,11.35911 -0.77667,0.93217 -0.82869,2.85833 -0.17867,6.61641 0.82295,4.75793 0.72445,5.42875 -0.96079,6.54332 -1.25593,0.83065 -2.04977,2.76215 -2.39723,5.83275 -0.63521,5.61348 -2.79088,7.23203 -7.20588,5.41044 -2.37679,-0.98065 -3.04991,-0.96 -3.7163,0.11402 -0.53746,0.86623 -0.17879,1.75461 1.05629,2.61631 1.02854,0.7176 1.87007,2.13491 1.87007,3.14959 0,1.41004 1.26853,2.21219 5.38218,3.40338 2.9602,0.85718 5.62479,2.1883 5.92133,2.95803 0.82923,2.15247 -0.26588,2.57482 -2.75855,1.06389 -1.24278,-0.75331 -4.12654,-1.94669 -6.40837,-2.65197 -2.89097,-0.89356 -3.98937,-1.69605 -3.62303,-2.647 1.35941,-3.5287 -0.99079,-2.42924 -6.67567,3.12298 l -6.21789,6.0728 -2.67503,-5.26641 c -1.47127,-2.89653 -4.24676,-6.50638 -6.16777,-8.02189 -7.38634,-5.8272 -12.97068,-6.41871 -6.28993,-0.66623 l 3.68679,3.17452 -7.15183,2.46719 c -3.9335,1.35695 -8.49677,3.03148 -10.1406,3.72117 -2.68267,1.12556 -3.19213,1.05142 -4.97436,-0.72383 -1.89054,-1.88314 -9.48097,-3.90908 -10.57246,-2.82186 -0.28389,0.28278 0.63568,1.73449 2.04349,3.22601 6.6409,7.03573 9.30459,14.5183 10.71047,30.08673 0.25933,2.87178 0.65246,5.40165 0.87361,5.62194 0.22115,0.22028 1.18375,-0.78777 2.13911,-2.24013 2.11535,-3.2158 2.1278,-14.47511 0.0248,-22.39927 l -1.36074,-5.1273 2.53591,-0.91846 c 1.39475,-0.50515 3.62375,-1.32305 4.95335,-1.81756 3.41167,-1.26888 14.66611,-4.03272 14.9788,-3.67846 0.14311,0.16213 1.38482,2.52531 2.75937,5.25152 2.77176,5.49736 4.12004,12.52613 5.10017,26.58787 0.60009,8.60922 0.51115,9.39114 -1.06816,9.39114 -3.33506,0 -9.19946,2.24622 -9.19946,3.52364 0,0.90867 1.43537,1.29233 4.83489,1.29233 5.28424,0 5.58704,0.45294 3.77128,5.64124 -0.72027,2.05811 -1.89078,3.23682 -3.62616,3.65158 -1.40941,0.33685 -7.44825,2.50143 -13.41965,4.81017 -5.97139,2.30873 -11.29357,4.1977 -11.82706,4.1977 -0.53349,0 -2.85219,-2.29774 -1.54894,-2.29774 z m 20.54145,-17.55801 c 0.3102,-0.80521 0.10502,-1.9212 -0.45596,-2.47998 -0.71529,-0.7125 -2.48668,-0.0693 -5.93027,2.15335 -2.70066,1.74312 -4.9103,3.49797 -4.9103,3.89967 0,2.64541 10.13599,-0.56056 11.29653,-3.57304 z m 15.23367,-48.77183 c -0.75488,-2.4218 -4.29054,-7.77201 -5.46349,-8.26742 -0.41809,-0.17659 -0.79361,-2.12705 -0.83448,-4.33437 -0.0897,-4.84269 -1.96867,-11.434 -3.39447,-11.90741 -1.40764,-0.46738 -3.49079,4.33337 -2.80891,6.47335 0.48471,1.52122 0.0815,1.66635 -3.35453,1.20729 -4.62649,-0.61812 -5.0915,0.66926 -1.24628,3.45037 1.46255,1.05782 5.70517,4.98088 9.42804,8.71791 7.17179,7.19909 8.76753,8.16814 7.67412,4.66028 z m 13.11591,-11.1738 c 0.45071,0 -0.48238,-2.19781 -1.07196,-3.88245 -0.80717,-2.30641 -0.77811,-3.76961 0.11768,-5.92376 0.9161,-2.20302 0.92708,-3.17591 0.0477,-4.23131 -0.89568,-1.07501 -0.71256,-2.20881 0.8493,-5.25833 1.09516,-2.13829 1.99121,-4.6133 1.99121,-5.50001 0,-1.64077 -0.24453,-12.68043 -6.97529,-5.77715 -4.50071,4.6161 -8.56418,17.77687 -7.70966,24.97006 0.25373,2.13585 1.20045,3.12429 4.36183,4.55402 4.24204,1.91847 7.00109,1.04893 8.38916,1.04893 z m -17.8891,-20.68298 c 0.53184,0.0932 1.72847,0.46464 2.65919,0.82545 2.13745,0.82861 2.19122,-0.78565 0.13053,-3.91835 -1.8466,-2.80724 -3.28945,-2.9944 -5.23401,-0.67893 -1.83315,2.18281 -2.07245,5.7365 -0.63176,9.38157 l 1.14209,2.88958 0.48349,-4.33438 c 0.26592,-2.3839 0.91863,-4.25812 1.45047,-4.16494 z m -90.90401,98.28227 c -1.05925,-0.60192 -2.508,-1.18679 -3.21944,-1.29972 -2.13868,-0.33946 -4.99182,-3.41504 -4.99182,-5.381 0,-1.01304 1.4142,-3.62826 3.14268,-5.81161 5.33288,-6.73633 22.29364,-23.83335 23.64338,-23.83335 3.74467,0 19.28272,10.42073 17.67262,11.8523 -0.25365,0.22552 -2.20173,1.48177 -4.32908,2.79167 -3.69141,2.27295 -4.11062,2.32468 -9.1863,1.1336 -2.92511,-0.68642 -6.95016,-1.2664 -8.94455,-1.28884 -2.99517,-0.0337 -3.62617,0.2944 -3.62617,1.88557 0,1.05952 -0.39865,1.92639 -0.88589,1.92639 -0.48724,0 -2.66294,1.65059 -4.83489,3.66797 -3.26674,3.03426 -3.949,4.29328 -3.949,7.28728 0,1.99062 0.4704,4.49481 1.04532,5.56487 1.32545,2.46693 0.89605,2.88739 -1.53686,1.50487 z m 6.28619,-0.70094 c -1.93213,-3.59608 -1.14113,-9.08518 1.69943,-11.79314 3.46908,-3.30714 8.86672,-5.55711 10.82072,-4.51054 2.5397,1.36027 22.4706,4.76811 27.85841,4.76332 2.79215,-0.002 5.07664,0.22946 5.07664,0.51545 0,1.60316 -4.09256,8.1492 -5.09629,8.15149 -3.55598,0.008 -18.73738,2.22259 -19.56166,2.85341 -0.53183,0.40702 -5.21284,0.97995 -10.40224,1.27317 -8.51478,0.48113 -9.52889,0.35887 -10.39501,-1.25316 z m 202.10568,-2.61851 c 0,-6.57001 9.65831,-18.22158 24.02519,-28.98345 4.33681,-3.24859 7.8851,-5.46876 7.8851,-4.93371 0,1.85887 -2.81629,7.67128 -5.26888,10.87421 -2.74087,3.57939 -3.05956,4.60603 -1.25823,4.05326 0.6648,-0.20401 2.39909,-0.63053 3.85399,-0.94784 2.46263,-0.53708 2.57608,-0.42626 1.64325,1.60515 -0.58183,1.26705 -3.27361,3.19179 -6.41922,4.59004 -4.16902,1.85315 -6.61559,3.88372 -10.61819,8.81272 -3.27653,4.03489 -6.17367,6.63569 -7.82978,7.0289 -1.44584,0.34328 -3.3903,0.8495 -4.32102,1.12492 -1.40658,0.41624 -1.69221,-0.12798 -1.69221,-3.2242 z m 10.07938,-5.66004 c 3.49759,-3.50108 6.35925,-6.72628 6.35925,-7.16711 0,-1.59343 -2.25184,-2.14103 -3.28937,-0.7999 -0.58412,0.75503 -3.34652,3.02535 -6.13866,5.04515 -4.11987,2.98026 -5.07664,4.2015 -5.07664,6.47992 0,1.54415 0.40189,2.80755 0.89309,2.80755 0.4912,0 3.75475,-2.86453 7.25233,-6.36561 z m -120.55665,0.78657 c -2.99451,-0.2613 -3.62387,-0.6838 -3.61296,-2.42546 0.0324,-5.18115 0.90723,-6.1696 5.99101,-6.76934 2.68244,-0.31645 5.89466,-1.23945 7.13828,-2.05111 3.47821,-2.27009 3.58519,-1.83998 0.77091,3.09943 -3.90303,6.85031 -6.01099,8.51961 -10.28724,8.14648 z m 30.94331,-4.83423 c -3.05807,-1.95158 -5.55441,-3.76611 -5.54742,-4.03229 0.007,-0.26617 2.50905,-1.67912 5.56013,-3.13989 6.2312,-2.98331 11.87168,-7.73707 14.01501,-11.81174 l 1.43339,-2.72501 3.28994,3.29878 c 5.98119,5.99726 6.00921,6.07493 3.76879,10.44933 -1.10597,2.1594 -2.3551,3.92618 -2.77585,3.92618 -0.42074,0 -1.60854,0.76963 -2.63954,1.7103 -2.57193,2.34658 -8.98459,6.00868 -10.39088,5.93396 -0.63439,-0.0337 -3.6555,-1.65804 -6.71357,-3.60962 z m -11.60374,-7.65455 c -4.07248,-2.51506 -3.284,-5.8301 3.03361,-12.75439 3.97233,-4.35381 7.84489,-11.24297 7.84489,-13.95582 0,-0.80041 0.28432,-1.45529 0.63181,-1.45529 0.73251,0 11.29149,9.73315 11.78944,10.86738 0.44916,1.02308 -18.01795,18.99853 -19.48475,18.96601 -0.6357,-0.0141 -2.35245,-0.76465 -3.815,-1.66789 z m -21.86865,-5.77124 c -0.0305,-2.51634 -0.49991,-8.69282 -1.04304,-13.72551 -0.54313,-5.03269 -0.99505,-9.65322 -1.00427,-10.26785 -0.009,-0.61462 1.69271,-3.27165 3.78204,-5.90452 l 3.79879,-4.78703 4.17878,0.98179 c 11.52551,2.70788 11.92024,2.94289 11.8528,7.05693 -0.0861,5.25153 -1.32657,14.76628 -2.37522,18.21824 -0.48279,1.58927 -1.09649,4.15993 -1.36377,5.71257 -0.67434,3.91728 -2.10411,4.93683 -8.68945,6.19631 -9.08627,1.73779 -9.07325,1.74275 -9.13666,-3.48093 z m 25.71194,-19.65603 c 0.3627,-4.50078 0.0564,-7.73612 -1.03404,-10.924 -1.30505,-3.81513 -1.32652,-4.34511 -0.13616,-3.36107 0.77726,0.64255 2.26428,2.53995 3.30449,4.21645 1.59819,2.57581 1.74493,3.69697 0.94694,7.23468 -0.51938,2.30257 -1.54108,5.32097 -2.27044,6.70755 -1.21084,2.30193 -1.28131,1.96524 -0.81079,-3.87361 z m -176.17605,-221.24391 -0.0311,-3.52935 -10.15327,-4.2e-4 c -10.81722,-4.5e-4 -11.37737,-0.25105 -11.53578,-5.16104 -0.0588,-1.82345 0.3545,-2.05495 3.07472,-1.72218 1.72847,0.21145 4.92268,0.56712 7.09823,0.79039 l 3.95555,0.40594 0.13888,-3.53036 0.13888,-3.530363 -6.62146,0.372682 -6.62146,0.372681 -0.52672,-2.74455 c -0.2897,-1.509502 -0.39174,-2.963739 -0.22677,-3.231636 0.16498,-0.267896 4.68411,-0.270378 10.04253,-0.0055 l 9.74258,0.481597 0.57402,-2.611994 c 0.31571,-1.436596 0.12119,-3.387064 -0.43227,-4.334373 -0.55347,-0.947309 -1.01953,-1.205938 -1.0357,-0.57473 -0.0217,0.847347 -3.71078,1.074233 -14.09831,0.867075 -12.61433,-0.251567 -13.99352,-0.121262 -13.33976,1.260335 0.40103,0.8475 0.74886,7.711515 0.77295,15.253366 l 0.0438,13.71246 13.35422,-0.0894 c 7.34482,-0.0492 13.61809,0.17341 13.9406,0.49466 1.27634,1.27134 2.81282,0.25625 1.74565,-2.94526 z m -70.02965,1.25027 c -0.84282,-1.01157 -0.19931,-3.54312 2.78253,-10.94631 2.13341,-5.29673 3.87892,-10.122548 3.87892,-10.724037 0,-0.601489 0.32636,-1.087076 0.72524,-1.079083 1.08849,0.02181 9.13136,22.0218 8.45145,23.11761 -0.35821,0.57733 1.47742,0.94771 4.6969,0.94771 4.58557,0 5.22552,-0.22624 4.83607,-1.70969 -0.6534,-2.48881 9.1502,-28.767575 11.99457,-32.151711 1.18794,-1.413376 1.03057,-1.655091 -1.38612,-2.128984 -2.67232,-0.524021 -7.77171,-0.914947 -9.30136,-0.713055 -0.4253,0.05613 -0.36497,0.828825 0.13408,1.71709 0.88844,1.581338 -2.58753,12.72935 -4.7956,15.380283 -0.50513,0.606434 -0.85161,1.473307 -0.76997,1.926387 0.38204,2.12021 -0.13688,3.55941 -0.97424,2.70201 -1.94926,-1.9959 -7.54313,-18.613824 -6.58649,-19.566723 0.95182,-0.948094 -0.21279,-1.255839 -9.15009,-2.417891 -3.43724,-0.446919 -3.54184,-0.375405 -2.69523,1.842645 0.86466,2.265316 0.27102,4.455187 -3.38437,12.484577 -0.72352,1.58927 -1.62178,4.11327 -1.99614,5.608892 -0.4118,1.6452 -1.03027,2.37106 -1.56577,1.83765 -1.33099,-1.32578 -6.59799,-15.815263 -6.60201,-18.162077 -0.004,-2.148776 -2.99607,-3.25078 -8.82718,-3.25078 -3.09686,0 -3.39784,0.576283 -1.46956,2.81374 1.89081,2.193978 13.3027,31.870277 12.65624,32.912177 -0.30149,0.48591 1.90139,0.87546 4.95066,0.87546 4.53461,0 5.30242,-0.22976 4.39747,-1.31589 z m 83.10923,-12.51675 c -0.0909,-7.984963 0.24883,-13.787467 0.84931,-14.508167 0.76722,-0.920819 -0.25555,-1.427878 -4.38337,-2.173143 l -5.38409,-0.972081 0.60011,3.186314 c 0.76648,4.069639 0.78479,24.580107 0.0237,26.555657 -0.47454,1.23178 0.22074,1.47162 3.93466,1.35734 l 4.51105,-0.13881 z m 17.34912,12.68549 c 0,-0.36605 -0.43514,-0.93343 -0.96698,-1.26084 -0.53184,-0.3274 -0.96698,-2.73689 -0.96698,-5.35441 v -4.75912 l 3.62617,0.002 c 3.24313,0.002 3.95813,0.48704 6.76885,4.59506 1.72847,2.52626 3.14267,5.12605 3.14267,5.7773 0,0.65126 0.54393,1.21727 1.20873,1.2578 0.6648,0.0405 1.86143,0.17818 2.65919,0.30587 0.79775,0.1277 2.6502,-0.0138 4.11654,-0.31449 l 2.66607,-0.54667 -4.35448,-5.51559 -4.35448,-5.51559 2.86847,-1.47754 c 5.36661,-2.764323 6.52747,-9.049688 2.52744,-13.68461 -2.33196,-2.702094 -2.33434,-2.702527 -16.01181,-2.916639 -13.07401,-0.204665 -13.65356,-0.132711 -13.09329,1.625614 0.32241,1.011866 0.67427,7.609791 0.7819,14.662055 0.17484,11.45593 0.3821,12.87362 1.94497,13.3039 2.56838,0.7071 7.43702,0.58667 7.43702,-0.18396 z M 250.8419,95.518372 c -0.35456,-0.353171 -0.64465,-1.90853 -0.64465,-3.456353 v -2.814224 l 6.91799,0.346156 c 7.23854,0.362195 9.50877,1.734837 8.25441,4.990839 -0.48042,1.247073 -1.99149,1.57571 -7.24506,1.57571 -3.65092,0 -6.92813,-0.288957 -7.28269,-0.642128 z m 53.50613,17.189298 c 1.3296,-0.51242 3.5053,-2.09617 4.83489,-3.51945 2.14265,-2.29362 2.41745,-3.42751 2.41745,-9.97494 0,-12.467333 -4.089,-15.501733 -20.79003,-15.428041 -3.98879,0.0176 -7.68748,-0.05944 -8.21932,-0.171193 -0.53184,-0.111756 -1.74378,-0.151865 -2.69321,-0.08913 -1.42979,0.09448 -1.54542,0.450592 -0.67333,2.073732 0.65576,1.220513 0.94214,6.85237 0.75925,14.931312 -0.18208,8.04362 0.0737,13.10417 0.67333,13.32049 1.93755,0.699 21.34056,-0.23694 23.69097,-1.14278 z m -16.5502,-9.33734 c -0.0614,-2.90589 -0.16178,-7.09675 -0.22315,-9.313018 l -0.11158,-4.029579 6.26677,0.247941 c 8.17572,0.323467 10.61816,2.3418 10.61816,8.774406 0,6.26249 -2.49475,8.44154 -10.42092,9.10214 l -6.01771,0.50154 z m 36.615,10.24942 c 1.54386,-0.1086 1.66477,-1.34357 1.37913,-14.08671 -0.24833,-11.079071 -0.0484,-13.981675 0.96698,-14.035372 2.59423,-0.137201 -2.70106,-1.72557 -5.97228,-1.791441 l -3.38442,-0.06815 v 15.170753 15.17076 l 2.65919,-0.1204 c 1.46255,-0.0662 3.42069,-0.17396 4.3514,-0.23944 z m 16.61895,-2.69068 c 0,1.39667 -0.90555,-5.64064 -0.90555,-9.6351 v -7.262649 l 8.7028,8.495899 c 4.78654,4.67275 8.70281,9.05274 8.70281,9.73334 0,0.84472 1.55252,1.23744 4.89196,1.23744 3.53953,0 4.69508,-0.31732 4.17981,-1.14777 -1.19076,-1.91915 -1.39884,-25.669259 -0.2312,-26.38808 1.6562,-1.019578 -1.1522,-2.291839 -5.09562,-2.308423 l -3.50739,-0.01475 0.34063,4.093575 c 0.69792,8.387356 1.06669,14.207118 0.90027,14.207118 -0.80128,0 -15.81232,-15.319671 -16.28038,-16.615104 -0.46447,-1.285486 -1.7065,-1.685828 -5.23253,-1.686667 l -4.6235,-0.0011 V 98.32659 c 0,16.07315 -0.0161,16.03075 5.81514,15.35265 3.00839,-0.34984 2.34275,-5.10204 2.34275,-2.75019 z m 59.51029,1.47022 c 6.25904,-1.51079 7.34432,-2.96416 5.33868,-4.19886 -1.35478,-0.83403 -1.20956,-7.56023 0.1934,-8.95771 0.90251,-0.89898 0.31158,-1.18694 -2.65919,-1.29585 -2.10076,-0.077 -5.26656,-0.0394 -7.0351,0.0836 -1.96477,0.13664 -3.93946,-0.42895 -5.07664,-1.45405 -1.81066,-1.632221 -1.8611,-1.560011 -1.8611,2.66458 v 4.34227 l 4.91933,-0.47084 c 4.73768,-0.45345 4.90729,-0.38603 4.59315,1.82589 -0.72685,5.1179 -14.30682,4.47713 -17.80951,-0.84034 -2.49719,-3.79101 -2.09415,-8.619919 0.97458,-11.676641 2.15591,-2.147467 3.37403,-2.521605 8.20989,-2.521605 4.05099,0 6.21426,0.483078 7.54824,1.685589 1.02843,0.927075 2.11239,1.68559 2.40879,1.68559 0.6466,0 3.96582,-6.7865 3.50109,-7.15837 -1.00606,-0.805044 -13.45425,-3.352725 -14.52249,-2.972211 -0.70044,0.249505 -2.86863,0.603504 -4.81818,0.786665 -4.30124,0.404101 -9.99151,5.062774 -11.9831,9.810668 -1.67238,3.986895 -0.45203,11.217955 2.49303,14.772235 4.94138,5.96354 16.25498,6.14148 20.65629,5.0791 z m 44.33043,-0.70415 c -1.56485,0 2.00924,-8.94572 5.4981,-16.97943 0.46012,-1.059513 1.14276,-3.001845 1.51697,-4.316292 0.57552,-2.021516 1.33088,-0.759522 4.90042,8.187152 2.32101,5.81738 4.06066,11.55229 3.86588,12.74424 -0.33423,2.0453 -0.0287,2.16719 5.43203,2.16719 4.8337,0 5.60232,-0.22068 4.66923,-1.34057 -0.86706,-1.04067 -0.43917,-3.03385 1.9127,-8.90955 1.66631,-4.16294 4.13112,-10.597098 5.47737,-14.298137 1.34625,-3.701039 3.08141,-7.692499 3.85591,-8.86991 1.31033,-1.991987 1.24358,-2.181901 -0.9606,-2.732948 -1.30283,-0.32571 -3.8432,-0.451906 -5.64526,-0.280435 -2.59482,0.246904 -3.21113,0.689506 -2.96236,2.127421 0.39248,2.268632 -6.82475,21.666199 -7.36127,19.784689 -0.21538,-0.7553 -1.71086,-4.840766 -3.3233,-9.07882 -1.61244,-4.238055 -2.90447,-8.917451 -2.87114,-10.398659 l 0.0606,-2.693106 -5.9802,0.28512 c -5.33913,0.254555 -5.95358,0.491629 -5.73183,2.211509 0.13661,1.059513 -1.43169,6.164158 -3.4851,11.343652 l -3.73348,9.417264 -3.5444,-10.01181 c -1.94942,-5.506496 -3.27176,-10.719499 -2.93854,-11.584451 0.51467,-1.335962 -0.18587,-1.57264 -4.65483,-1.57264 -5.58131,0 -7.07138,0.609159 -5.67341,2.319362 1.69624,2.075101 12.7106,31.801119 12.23789,33.028159 -0.35976,0.93384 0.84349,1.25386 4.71446,1.25386 4.60272,0 6.37484,-1.80286 4.7242,-1.80286 z m 44.61791,0.78492 c 0.65888,0 -0.36477,-2.0769 -0.0387,-3.37118 0.5605,-2.22447 0.97608,-2.35324 7.59426,-2.35324 6.04206,0 7.17327,0.27427 8.25641,2.00186 0.96899,1.54554 0.99502,2.31401 0.1142,3.37118 -0.96719,1.16084 -0.13779,1.36932 5.44768,1.36932 5.43246,0 6.32332,-0.21127 5.07687,-1.204 -2.77584,-2.2108 -14.13559,-25.386983 -13.23183,-26.995599 0.68655,-1.221997 -0.006,-1.531065 -4.05182,-1.807531 -4.9818,-0.340448 -6.91121,0.446273 -6.12154,2.496069 0.24367,0.632515 -1.33693,4.805712 -3.51245,9.273773 -2.17551,4.468058 -4.68962,9.640778 -5.58691,11.494928 -0.89728,1.85415 -2.24654,4.12969 -2.99834,5.05677 -1.27118,1.56752 -0.9799,1.68559 4.15839,1.68559 3.63541,0 4.10552,-1.01794 4.89373,-1.01794 z m 4.38537,-11.38596 c 0,-1.24087 2.96081,-8.091213 3.32221,-7.68649 0.16939,0.189698 1.24059,2.187014 2.38045,4.43848 l 2.07247,4.09358 h -3.88757 c -2.13816,0 -3.88756,-0.38051 -3.88756,-0.84557 z m 39.81705,5.8809 c -0.29866,-6.23721 -0.14823,-6.7582 3.38442,-11.721703 2.03334,-2.856907 4.87929,-6.441222 6.32434,-7.965144 3.11517,-3.285189 2.27518,-3.90672 -4.68419,-3.465988 -3.85341,0.244034 -4.6606,0.604052 -4.42979,1.975751 0.15523,0.922538 -0.75988,3.204947 -2.03358,5.072025 l -2.31581,3.394683 -2.5869,-3.718297 c -1.55549,-2.2358 -2.34199,-4.354041 -1.97263,-5.312823 0.52163,-1.354033 -0.0941,-1.584316 -4.08232,-1.526828 -2.58313,0.03723 -5.50029,0.382724 -6.48256,0.767756 -1.61628,0.633545 -1.64018,0.820578 -0.25151,1.968556 0.84394,0.697673 3.7519,4.247971 6.46212,7.889551 4.891,6.571781 4.92525,6.667751 4.60291,12.895281 l -0.32476,6.27422 4.3514,1.5e-4 4.35141,1.5e-4 z"
     id="path1"
     sodipodi:nodetypes="cccccccccccsccccccccsscccccccccccccccccccccccccccccccssccccccccscccccsccccccccscccccscsccccccsccccccccccccccccccccccccccsccccccccccccccsccccccsccccccccccccccccccsccccccsccccccccccccccsccccccscccccscccsscccccccscscccccccccccccccccccsccccccccccccccccccccccccccscssscccccsssssssssssssscsssssssssssscsscsssssssssssssssssssssscssssssssscsssccsssssssssssssssscsscsssssssscsssscssccsssssssscsscsssscssssssssssssssssssssssssssscssssssssssssssscsscssssssscccsssssssssssscsssssssssscccsssssccsscssssssssssssssssssscssssssssssssssscssssssssssscsssssssscssssssssssssssssssssssscssscssssssssscsssssssssssssssssssssssssssssssssssssssssssscsssssssssssssssssssscsssssssssssssssssssssssssssssssssscssssssssssssssscscsssssssssssssccscsscccccssscssssssccsscsssssssssssssssssssscssssscsscsssccsssccssssscccsssssssssscsssssssssssssscscsssccsssscccsssscsssssscsssscssssssssssscsssssssssssssssssssssssssssssscssscssssssssscssssssssssssssssscsssssssscssssssscccs"
     inkscape:label="path1"
     style="display:inline" /><text
     transform="translate(-25,-19)"
     x="144.12617"
     y="663.52429"
     fill="#000000"
     font-size="29px"
     style="line-height:1.1;white-space:pre;inline-size:584.851;display:inline"
     xml:space="preserve"
     id="text9"><tspan
       x="144.12617"
       y="663.52429"
       id="tspan1">Play as part of your Battle Plan. Counts </tspan><tspan
       x="144.12617"
       y="695.4243"
       id="tspan2">as a projectile weapon, unless played </tspan><tspan
       x="144.12617"
       y="727.32433"
       id="tspan3">with another weapon. In that case, it </tspan><tspan
       x="144.12617"
       y="759.22435"
       id="tspan4">counts as a projectile defense. You may </tspan><tspan
       x="144.12617"
       y="791.12438"
       id="tspan5">keep this card if you win this battle.</tspan></text><text
     transform="translate(112.05112,193.71261)"
     fill="#000000"
     font-size="43px"
     style="font-size:33.3333px;white-space:pre;shape-inside:url(#rect2);display:inline"
     xml:space="preserve"
     id="text10"><tspan
       x="0"
       y="0"
       id="tspan6">Weapon - Defense -Special</tspan></text></svg>
