<?xml version="1.0" encoding="UTF-8"?>
<!-- Created with Inkscape (http://www.inkscape.org/) -->
<svg width="822" height="1122" version="1.1" viewBox="0 0 822 1122" xml:space="preserve" xmlns="http://www.w3.org/2000/svg"><path d="m89 1e3c-4.5-1.3-6.7-2.9-8.9-6.5l-2.2-3.5 0.053-461c0.029-254 0.072-465 0.096-469 0.042-7.1 0.16-7.4 4-12l3.9-4.2 320-0.26c237-0.19 321 0.035 323 0.87 1.5 0.62 4.1 2.7 5.7 4.5l3 3.4-2e-3 469c-2e-3 460-0.037 469-1.9 472-1.1 1.7-3.4 4-5.2 5.1-3.5 2.1-634 3.6-641 1.5zm44-8.3c0-4.6-0.35-5.9-1.8-6.4-5.7-1.9-13-6-18-9.5l-5.4-4-11 11c-15 15-16 14 16 14h21zm219 0.45 0.3-5.2-4.3-0.017c-2.4-0.01-51-0.012-108-0.01l-104 0.012-0.32 3.1c-0.18 1.7-0.085 4.1 0.21 5.3l0.53 2.1 215-0.15zm36 1.1c6-20 35-20 40 1 0.47 1.9 1.3 2.8 2.9 2.8 3.9 0.12 13 0.13 21 0.03l7.7-0.096 0.69-10h-19l-33-16-30 15h-22l-0.31 4.4c-0.51 7-1 6.8 16 6.6l15-0.2zm290-0.96-1e-5 -5.2-42-0.27c-23-0.15-71-0.15-108-6e-4l-66 0.27v4.9c0 6.2-13 5.5 110 5.5h105zm50 4.1c1.6-0.92 0.38-2.5-10-13l-12-12-2.5 2.3c-4.5 4.1-12 8.6-18 10l-5.3 1.7v5.2c0 4.7 0.24 5.3 2.2 5.6 5.8 0.83 43 0.18 45-0.77zm-304-1.7c-5-16-25-18-33-3.7-3.1 6-3.2 5.9 16 5.9h18zm309-3c1.7-4.3 0.77-47-0.97-47-0.99-0.021-3.4-0.28-5.5-0.57-3.5-0.51-3.7-0.38-4.9 3.3-2 6-5.9 13-9.6 18l-3.4 4.1 11 11c12 12 12 12 13 11zm-648-1.5c1-0.96 6.2-6 11-11l9.6-9.3-3.9-5.2c-4.2-5.6-8.4-14-9.4-18-0.6-2.5-1-2.7-6.1-2.7h-5.5l-0.029 10c-0.016 5.6-0.092 15-0.17 22-0.18 15 0.55 18 4 14zm307-15c8.3-4.1 15-7.5 16-7.5s7.3 3.4 16 7.5l15 7.5h245l8.3-4.2c11-5.4 19-14 25-25l3.8-7.7 0.51-804h-23l-1.2 6.7c-11 65-111 63-121-2.2l-0.68-4.5h-480l-0.016 74c-0.0088 41-0.015 221-0.014 400l0.0023 327 2.1 5.6c4.9 13 14 23 27 30l7.9 4h245zm-301-41c0.0089-3.4 0.022-192 0.03-419l0.014-412-11-0.58 0.2 417c0.11 230 0.22 418 0.25 419 0.037 1.4 0.97 1.8 5 1.8h5zm643-413 0.027-419h-11v838h11zm-84-328c31-6 52-43 42-74-19-61-110-49-113 14-2.1 39 31 67 71 60zm-24-5.3c-35-7.9-52-49-33-78 28-43 94-24 94 28 0 34-30 58-62 51zm32-7.3c38-19 35-74-5.4-88-15-5-24-4.2-40 3.8-8.2 4-20 19-21 27-0.31 1.7-0.84 3.6-1.2 4.2-2.1 3.5-0.76 20 2.2 27 0.73 1.6 2.1 4.6 2.9 6.6 9.2 20 41 30 63 19zm-563-87c2-5.8 6.1-13 9.9-17l2.6-2.8-11-11c-14-13-14-13-14-0.13-0.0087 5.4-0.065 15-0.12 21-0.16 17-0.75 15 5.7 15l5.6-0.3zm640-18c-0.38-28 0.58-27-13-13l-12 12 2.6 2.8c3.3 3.6 8 12 9.6 17 1.8 5.7 1.6 5.5 7.6 5.5h5.5zm-310-11 15-7.5h20l0.35-5.1c0.44-6.5 1.9-5.9-15-5.9h-15l-1.5 3.8c-3.9 9.9-9.1 14-18 15-11 0.89-20-5.7-23-17-0.38-1.3-2.8-1.5-16-1.5l-15 0.05v10l23 1 14 7.2c17 8.7 13 8.8 31-0.2zm-310 2.5c2.9-2.2 8.3-5.2 12-6.7l6.8-2.7v-5.3c0-6.8 0.7-6.6-25-6.2-26 0.43-26 0.015-12 13 5.8 5.6 11 11 11 11 0.63 1.4 2.1 0.75 7.4-3.3zm614-19c-0.65-0.65-9.4-1-24-1h-23v11l5 1.7c5.5 1.9 12 5.7 17 9.6l3 2.5 11-11c7.7-7.7 11-11 10-12zm-314 13c5.1-2.6 11-9.3 11-13 0-0.3-7.9-0.54-18-0.54-19 0-19 0.02-16 4.8 4.3 8.3 15 12 23 8.6zm-72-3.4 9.6-0.02-0.24-10h-215l-0.1 3.5c-0.22 7.7-5.5 7 55 7.3 30 0.14 74 0.16 98 0.029s48-0.24 53-0.25zm291 3.3e-4 45-0.021v-11l-106 0.037c-122 0.043-109-0.62-109 5.9l0.35 5c57 0.7 113 0.09 170 0.042zm-10 114c2-6.7 3.1-13 4.8-20 1.2-4.6 2.1-8.9 2.1-9.5 7.1e-4 -0.79-3.5-1-11-0.79l-11 0.37 3.5-4.1c1.9-2.3 5.2-6.3 7.4-8.9 2.1-2.6 5.6-6.8 7.7-9.1 6.9-7.8 13-15 16-19 1.8-2.3 3.3-3.5 3.3-2.7s-1.4 8-3.2 16c-1.8 7.9-3.2 15-3.2 15-0.01 0.42 4.8 0.9 11 1.1l11 0.3-5.6 6.6c-3.1 3.6-7.1 8.4-8.9 11-1.8 2.2-4.1 5-5.2 6.3-3.5 4-14 17-17 20l-2.5 3.4zm-507 391c-3.6-1.6-8.1-5.9-10-10-2-3.7-3.1-316-1.1-324 1.4-5.1 6.4-11 11-13 3.8-1.7 20-1.8 290-1.8 314-0.052 290-0.51 296 5.7 6.2 5.8 5.7-6.6 5.7 169l-0.017 161-2.2 3.9c-1.2 2.1-4 5.1-6.2 6.7l-4 2.8-289 0.21c-238 0.18-289-0.02-292-1.1zm580-3.1c11-5.5 10-1.4 9.9-92-0.46-124 0.22-19 0.22-158 0-83 0.062-82-4.8-87-5.5-5.9-3.2-5.7-65-5.7h-461c-79 0-70-12-70 94l4e-5 156c-0.29 89-0.54 86 9.2 92 3.2 2 577 2.4 580 0.44zm-304 4.8c-240 0.042-161-2.3-159-2.2 3 0.051 3.3-0.24 6.1-7.2 1.6-4 3.5-8.3 4.1-9.6 0.62-1.3 3.7-8.8 6.8-17 4.7-12 6.2-15 8.9-17 3.6-2.6 5.1-2.6 14 0.37 5.5 1.9 14 10 14 14 0 1.2-1.8 4.8-4 8-7.5 11-15 21-17 24-2.9 3.8-1.8 4.6 4.8 3.7 5-0.69 34-0.9 93-0.7 40 0.14 87-0.14 87-0.51-9e-5 -0.15-2.6-5.1-5.7-11-3.1-5.9-7.5-14-9.7-19l-4-7.8 1.9-4c1.1-2.2 1.9-4.6 1.9-5.5 0-0.82-1.7-5.3-3.8-9.9-2.6-5.8-4.5-8.7-6-9.3-4.2-1.7-11-4.6-15-6.4-2.3-1-6-2.7-8.2-3.7-2.3-1-7.2-3.1-11-4.7-3.7-1.6-12-6.3-18-11-11-7.3-12-7.6-14-6.3-2.3 1.5-1.8 1.6-13-3.7-2.2-0.99-4.6-1.8-5.3-1.8-0.76-0.018-2.4-0.89-3.7-1.9l-2.3-1.9 2.1-6.5c1.1-3.6 2.4-8.2 2.8-10l0.76-3.9 7-0.22c5.8-0.19 10-1.4 15-3.8 0.31-0.17 1.3 2.4 2.2 5.7 1.6 5.6 3.4 11 5.5 14 0.6 1.1 0.038 2.8-1.9 5.7-1.5 2.3-2.6 4.5-2.3 4.9 0.76 1.2 7.4-2.6 11-6.1 3.8-4.2 10-14 12-18 0.7-1.7 1.7-3.1 2.2-3.1 1.2 0 11 8 11 9 0.03 0.46-2 3.5-4.6 6.7-7.7 9.9-15 22-14 23 1.5 1.5 9.3-6.4 20-20 2.3-3 4.7-5.4 5.3-5.4 0.59 0 2.2 1.1 3.6 2.4 1.4 1.3 3.2 2.7 3.9 3.1s4.1 3.4 7.5 6.6 7.6 7 9.4 8.5c3.1 2.5 3.2 2.9 2.6 7.1-0.37 2.4-2.6 8.1-4.9 13-4 7.6-4.1 8.1-2.1 7.8 3.6-0.51 11-11 12-18l1.3-5.9 5.5 5.4c5.4 5.3 5.5 5.5 7.2 14 1.5 8.1 2 9.3 4.5 11 3 1.7 3 1.8 4.7 16 0.59 4.8 1.3 8.8 1.5 9.1s-2.2 2.1-5.3 4c-6.8 4.3-17 13-15 14 0.62 0.23 3.7-0.89 6.9-2.5 5.4-2.7 8.2-5.1 13-11l1.8-2.2 3.2 9.9c1.8 5.5 3.8 11 4.5 13s1.8 4.4 2.4 6.3l1.2 3.4 51 0.13m-257-23c-3.7-5.2-8.4-8.3-13-8.3-8 0.03-10 2.7-3.6 4 5 1 11 4.3 15 8.1 2.7 2.6 3.5 2.9 3.8 1.7 0.19-0.86-0.92-3.3-2.5-5.5zm169-18c2.3-1.5 6.4-4.7 9.2-7 2.8-2.3 6.1-4.9 7.5-5.9 5.3-3.7 1.8-4.8-5.2-1.6-3.9 1.8-17 15-17 16 0 1.5 1.8 0.88 6-2zm-153-1.4c-2-5.2-11-11-18-11-1.6 0-2.8-0.22-2.8-0.49 0-0.71 13-25 20-36l5.3-9.2 3.7 0.34c7.2 0.66 13 3.7 19 9.7 3.2 3.2 6.1 5.8 6.4 5.8 0.35 8e-3 -0.64-2.6-2.2-5.8-5.6-12-15-18-22-15-3.3 1.7-4.1 1.3-2.6-1.1 0.84-1.4 0.78-2.5-0.28-5-1.3-3-1.2-3.6 0.7-7.2 6.4-12 11-25 11-29 0-5.5-1.7-21-2.9-26-1.5-6.6-0.57-8.1 5-8.1h4.8l-0.72 3.1c-0.81 3.5-0.74 11 0.16 19 0.57 5.3 0.51 5.5-1.6 5.5-4.8 0 0.072 2 8.9 3.7l9.1 1.7 0.48 5.7c0.75 8.9 4.4 7.1 4.7-2.2l0.096-3.1 9.4-0.024c5.2-0.013 11-0.47 14-1 5.5-1.3 13-5.7 13-7.9 9.5e-4 -0.93 0.44-1.7 0.97-1.7 0.53 0 0.97 2.5 0.97 5.6 0 6.4 0.89 7.6 11 15 4 2.7 6 4.7 6 5.9 0 1-0.54 1.9-1.2 1.9-0.66 4e-3 -4.7 4-8.9 8.8l-7.7 8.8-0.25-3.3c-0.33-4.3-2.1-11-4.2-16l-1.7-4 3.3-3.2c5.2-5 3.8-6.7-1.9-2.3-1.7 1.3-3.4 2.4-3.6 2.4s-0.44-1.8-0.39-4.1l0.084-4.1-5.8 0.21c-4 0.14-6.1 0.68-6.9 1.8-1.4 1.9-0.6 8.2 1.3 9.7 1 0.84 0.043 1.2-4.5 1.7-7.4 0.84-20-0.86-29-3.9-12-4.1-11-4-9-1.1 1.4 2.1 1.5 3.1 0.57 5.7-0.6 1.8-1.4 3.6-1.8 4.2-0.4 0.53-1.3 3.4-1.9 6.3-1.2 5.3-1.3 5.4-5.5 6.5-3 0.8-4.2 1.6-4 2.6 0.23 1.1 2 1.6 7.1 1.8 4.5 0.22 11 1.7 19 4.3 6.9 2.2 13 4 14 4 1.4 0 0.86 1.2-2.8 6-2.5 3.3-4.9 6.2-5.3 6.5-0.36 0.26-1.7 2-3 3.9-2.6 3.8-25 29-26 29-0.27-0.022-1.5-2.1-2.7-4.7-2.8-6-4.9-8.3-9-9.9-3.7-1.5-11-1.2-12 0.53-1.6 2.6-0.72 3.3 3.5 2.8 6.1-0.68 12 2.3 15 7.9 1.5 2.4 3.2 4.4 3.8 4.4s0.36 0.76-0.46 1.7c-0.82 0.93-2.4 3.4-3.4 5.5-1.1 2.1-3.3 5.1-4.9 6.7l-3 2.8zm43-66c-2.7-1.8-13-5.4-18-6.1-2.3-0.32-4.3-0.77-4.3-1 0-0.23 1.3-2.3 2.9-4.5 1.6-2.3 3.4-5.9 4.1-8.2 1-3.4 1.6-3.9 3.2-3.5 1.1 0.32 5.3 1.3 9.5 2.1 7.3 1.5 7.5 1.6 7 4-0.27 1.4-0.76 6-1.1 10s-0.69 7.8-0.82 7.9-1.1-0.35-2.1-1.1zm-5.5-43c0-6.3-6 0.14-7.1-11-0.76-7.5-0.82-7.9-1.8-14l-0.72-4.1 3.7-0.18c2.1-0.098 6.5-0.21 9.8-0.24l6-0.064-0.7 5.3c-0.39 2.9-0.66 9.7-0.61 15 0.083 8.5-0.12 9.8-1.5 9.7-0.85-0.1-7.1 2.5-7.1-0.53zm12-1.5c0-1.3 0.25-3.6 0.56-5.2l0.56-2.8 17-0.088v4c0 4.7-0.4 4.9-12 5.8-6.7 0.57-6.8 0.56-6.8-1.8zm21-3.7c0.79-1.8 1.7-4 2-4.9 0.29-0.93 1.2-1.7 1.9-1.7 2.4 0 8.3-3.9 8.3-5.6 0-0.83 0.25-1.3 0.55-0.96 0.3 0.3 0.14 2-0.36 3.9-0.52 1.9-0.56 4-0.089 4.8 1.1 1.9-5.2 6.4-10 7.2l-3.6 0.58zm-19-10c-0.36-0.36-0.65-2.7-0.65-5.2 0-3.5 0.38-4.7 1.7-5.1 2.1-0.59 9.8-1.8 10-1.6 0.14 0.082 1.5-0.3 2.9-0.86 3-1.1 2.7-1.7 3 7.9 0.12 4.3-0.037 4.6-2.3 4.6-1.3 0.035-5.1 0.26-8.3 0.49-3.2 0.23-6.2 0.13-6.5-0.22zm22-3.7c0.35-0.9 0.63-3.9 0.63-6.6l1e-3 -5 5.8-1.7c3.2-0.93 6.5-1.7 7.4-1.7 1.5 0 1.4 0.27-0.39 2.2-1.1 1.2-2.4 4-2.7 6.3-0.68 4.2-1.7 5.1-9.1 7.4-1.8 0.58-2.1 0.42-1.6-0.93zm81-8.7c-0.29-0.28-2.3-0.59-4.6-0.67l-4-0.16 0.62-3.5c0.83-4.6 4-12 6.5-14 1.4-1.5 1.6-2.2 0.67-2.2-0.73 0-3.2 1.9-5.4 4.3-3.1 3.3-4.3 5.4-4.7 8.7-0.36 2.4-0.9 4.4-1.2 4.4-1.3 0-14-6.1-14-6.8 0-0.41 1.4-1 3.1-1.4 7.3-1.6 14-7.7 14-12 0-2 1.3-1.9 6.1 0.63 2.2 1.2 4.4 2 4.8 1.9 0.41-0.11 2.8 0.3 5.2 0.92 3.6 0.89 4.2 1.3 3.1 2.2-3.7 3-6.2 6.9-8.1 13-1.1 3.5-2.3 6.1-2.6 5.8zm7.3-3.6c0.36-2.3 1.8-6.6 3.3-9.6 2.3-4.9 2.9-5.5 5-5.1 1.3 0.23 7.7 1.4 14 2.5l12 2.1-2.2 4.4c-1.2 2.4-2 5.1-1.7 6 0.44 1.4-1.2 1.7-12 2.7-20 1.7-19 1.9-18-3zm-112 0.83c1.7 0-1.1-2.2-2.4-1.8-1 0.26-2.9 0.22-4.1-0.095-2.3-0.57-2.3-0.61 1.4-4.6 2.1-2.2 3.7-4.6 3.7-5.2 0-2 7.6-7.9 12-9.6 3.6-1.3 5.1-2.6 7.6-6.6 3.4-5.4 3.8-7.2 1.8-7.9-3-1.1-18 9.1-24 16-3.1 3.8-3.2 3.9-8.5 3.6-2.9-0.19-7.2-0.65-9.4-1l-4-0.69 3.4-2c4.9-2.9 13-11 14-13 0.053-0.86 0.7 0.36 1.4 2.7 1.8 5.6 3.3 7.2 3.3 3.4-0.036-7.1-5.8-19-12-25-4.1-3.9-10-5.1-14-2.7-1.3 0.88-2.4 1.9-2.4 2.4s2.5 1.5 5.6 2.3c4.6 1.3 6.5 2.5 11 6.8 2.8 2.9 5 5.7 5 6.2 0 0.5-2.5 2.8-5.4 5.1l-5.4 4.2-1.6-2.2c-3.7-5.4-9.2-9.8-13-10-2-0.32-3.7-0.7-3.7-0.84 0-1 7.2-14 7.9-15 0.47-0.18 0.85-0.93 0.85-1.7 0-1.4 17-10 19-10 0.8 0 1.9-0.4 2.4-0.88s5.4-2.2 11-3.9l9.9-3 1.7-5.2c1.5-4.7 1.9-5.2 4.4-5.2 3.3 0 3.3-0.43 0.27-10-3.4-10-1.9-17 5.2-25 5-5.3 11-6.4 21-3.9 4 1.1 8.7 2.5 11 3.2 1.9 0.7 3.5 1.3 3.6 1.3 0.11 0.031-0.44 1.9-1.2 4.2-0.89 2.6-1.1 4.7-0.57 5.7 1.6 3 2.2 10 1 11-0.78 0.93-0.83 2.9-0.18 6.6 0.82 4.8 0.72 5.4-0.96 6.5-1.3 0.83-2 2.8-2.4 5.8-0.64 5.6-2.8 7.2-7.2 5.4-2.4-0.98-3-0.96-3.7 0.11-0.54 0.87-0.18 1.8 1.1 2.6 1 0.72 1.9 2.1 1.9 3.1 0 1.4 1.3 2.2 5.4 3.4 3 0.86 5.6 2.2 5.9 3 0.83 2.2-0.27 2.6-2.8 1.1-1.2-0.75-4.1-1.9-6.4-2.7-2.9-0.89-4-1.7-3.6-2.6 1.4-3.5-0.99-2.4-6.7 3.1l-6.2 6.1-2.7-5.3c-1.5-2.9-4.2-6.5-6.2-8-7.4-5.8-13-6.4-6.3-0.67l3.7 3.2-7.2 2.5c-3.9 1.4-8.5 3-10 3.7-2.7 1.1-3.2 1.1-5-0.72-1.9-1.9-9.5-3.9-11-2.8-0.28 0.28 0.64 1.7 2 3.2 6.6 7 9.3 15 11 30 0.26 2.9 0.65 5.4 0.87 5.6 0.22 0.22 1.2-0.79 2.1-2.2 2.1-3.2 2.1-14 0.025-22l-1.4-5.1 2.5-0.92c1.4-0.51 3.6-1.3 5-1.8 3.4-1.3 15-4 15-3.7 0.14 0.16 1.4 2.5 2.8 5.3 2.8 5.5 4.1 13 5.1 27 0.6 8.6 0.51 9.4-1.1 9.4-3.3 0-9.2 2.2-9.2 3.5 0 0.91 1.4 1.3 4.8 1.3 5.3 0 5.6 0.45 3.8 5.6-0.72 2.1-1.9 3.2-3.6 3.7-1.4 0.34-7.4 2.5-13 4.8-6 2.3-11 4.2-12 4.2s-2.9-2.3-1.5-2.3zm21-18c0.31-0.81 0.11-1.9-0.46-2.5-0.72-0.71-2.5-0.069-5.9 2.2-2.7 1.7-4.9 3.5-4.9 3.9 0 2.6 10-0.56 11-3.6zm15-49c-0.75-2.4-4.3-7.8-5.5-8.3-0.42-0.18-0.79-2.1-0.83-4.3-0.09-4.8-2-11-3.4-12-1.4-0.47-3.5 4.3-2.8 6.5 0.48 1.5 0.082 1.7-3.4 1.2-4.6-0.62-5.1 0.67-1.2 3.5 1.5 1.1 5.7 5 9.4 8.7 7.2 7.2 8.8 8.2 7.7 4.7zm13-11c0.45 0-0.48-2.2-1.1-3.9-0.81-2.3-0.78-3.8 0.12-5.9 0.92-2.2 0.93-3.2 0.048-4.2-0.9-1.1-0.71-2.2 0.85-5.3 1.1-2.1 2-4.6 2-5.5 0-1.6-0.24-13-7-5.8-4.5 4.6-8.6 18-7.7 25 0.25 2.1 1.2 3.1 4.4 4.6 4.2 1.9 7 1 8.4 1zm-18-21c0.53 0.093 1.7 0.46 2.7 0.83 2.1 0.83 2.2-0.79 0.13-3.9-1.8-2.8-3.3-3-5.2-0.68-1.8 2.2-2.1 5.7-0.63 9.4l1.1 2.9 0.48-4.3c0.27-2.4 0.92-4.3 1.5-4.2zm-91 98c-1.1-0.6-2.5-1.2-3.2-1.3-2.1-0.34-5-3.4-5-5.4 0-1 1.4-3.6 3.1-5.8 5.3-6.7 22-24 24-24 3.7 0 19 10 18 12-0.25 0.23-2.2 1.5-4.3 2.8-3.7 2.3-4.1 2.3-9.2 1.1-2.9-0.69-7-1.3-8.9-1.3-3-0.034-3.6 0.29-3.6 1.9 0 1.1-0.4 1.9-0.89 1.9s-2.7 1.7-4.8 3.7c-3.3 3-3.9 4.3-3.9 7.3 0 2 0.47 4.5 1 5.6 1.3 2.5 0.9 2.9-1.5 1.5zm6.3-0.7c-1.9-3.6-1.1-9.1 1.7-12 3.5-3.3 8.9-5.6 11-4.5 2.5 1.4 22 4.8 28 4.8 2.8-2e-3 5.1 0.23 5.1 0.52 0 1.6-4.1 8.1-5.1 8.2-3.6 8e-3 -19 2.2-20 2.9-0.53 0.41-5.2 0.98-10 1.3-8.5 0.48-9.5 0.36-10-1.3zm202-2.6c0-6.6 9.7-18 24-29 4.3-3.2 7.9-5.5 7.9-4.9 0 1.9-2.8 7.7-5.3 11-2.7 3.6-3.1 4.6-1.3 4.1 0.66-0.2 2.4-0.63 3.9-0.95 2.5-0.54 2.6-0.43 1.6 1.6-0.58 1.3-3.3 3.2-6.4 4.6-4.2 1.9-6.6 3.9-11 8.8-3.3 4-6.2 6.6-7.8 7-1.4 0.34-3.4 0.85-4.3 1.1-1.4 0.42-1.7-0.13-1.7-3.2zm10-5.7c3.5-3.5 6.4-6.7 6.4-7.2 0-1.6-2.3-2.1-3.3-0.8-0.58 0.76-3.3 3-6.1 5-4.1 3-5.1 4.2-5.1 6.5 0 1.5 0.4 2.8 0.89 2.8s3.8-2.9 7.3-6.4zm-121 0.79c-3-0.26-3.6-0.68-3.6-2.4 0.032-5.2 0.91-6.2 6-6.8 2.7-0.32 5.9-1.2 7.1-2.1 3.5-2.3 3.6-1.8 0.77 3.1-3.9 6.9-6 8.5-10 8.1zm31-4.8c-3.1-2-5.6-3.8-5.5-4 7e-3 -0.27 2.5-1.7 5.6-3.1 6.2-3 12-7.7 14-12l1.4-2.7 3.3 3.3c6 6 6 6.1 3.8 10-1.1 2.2-2.4 3.9-2.8 3.9-0.42 0-1.6 0.77-2.6 1.7-2.6 2.3-9 6-10 5.9-0.63-0.034-3.7-1.7-6.7-3.6zm-12-7.7c-4.1-2.5-3.3-5.8 3-13 4-4.4 7.8-11 7.8-14 0-0.8 0.28-1.5 0.63-1.5 0.73 0 11 9.7 12 11 0.45 1-18 19-19 19-0.64-0.014-2.4-0.76-3.8-1.7zm-22-5.8c-0.03-2.5-0.5-8.7-1-14s-1-9.7-1-10c-9e-3 -0.61 1.7-3.3 3.8-5.9l3.8-4.8 4.2 0.98c12 2.7 12 2.9 12 7.1-0.086 5.3-1.3 15-2.4 18-0.48 1.6-1.1 4.2-1.4 5.7-0.67 3.9-2.1 4.9-8.7 6.2-9.1 1.7-9.1 1.7-9.1-3.5zm26-20c0.36-4.5 0.056-7.7-1-11-1.3-3.8-1.3-4.3-0.14-3.4 0.78 0.64 2.3 2.5 3.3 4.2 1.6 2.6 1.7 3.7 0.95 7.2-0.52 2.3-1.5 5.3-2.3 6.7-1.2 2.3-1.3 2-0.81-3.9zm-176-221-0.031-3.5-10-4.2e-4c-11-4.5e-4 -11-0.25-12-5.2-0.059-1.8 0.35-2.1 3.1-1.7 1.7 0.21 4.9 0.57 7.1 0.79l4 0.41 0.28-7.1-13 0.75-0.53-2.7c-0.29-1.5-0.39-3-0.23-3.2 0.16-0.27 4.7-0.27 10-0.0055l9.7 0.48 0.57-2.6c0.32-1.4 0.12-3.4-0.43-4.3-0.55-0.95-1-1.2-1-0.57-0.022 0.85-3.7 1.1-14 0.87-13-0.25-14-0.12-13 1.3 0.4 0.85 0.75 7.7 0.77 15l0.044 14 13-0.089c7.3-0.049 14 0.17 14 0.49 1.3 1.3 2.8 0.26 1.7-2.9zm-70 1.3c-0.84-1-0.2-3.5 2.8-11 2.1-5.3 3.9-10 3.9-11s0.33-1.1 0.73-1.1c1.1 0.022 9.1 22 8.5 23-0.36 0.58 1.5 0.95 4.7 0.95 4.6 0 5.2-0.23 4.8-1.7-0.65-2.5 9.2-29 12-32 1.2-1.4 1-1.7-1.4-2.1-2.7-0.52-7.8-0.91-9.3-0.71-0.43 0.056-0.36 0.83 0.13 1.7 0.89 1.6-2.6 13-4.8 15-0.51 0.61-0.85 1.5-0.77 1.9 0.38 2.1-0.14 3.6-0.97 2.7-1.9-2-7.5-19-6.6-20 0.95-0.95-0.21-1.3-9.2-2.4-3.4-0.45-3.5-0.38-2.7 1.8 0.86 2.3 0.27 4.5-3.4 12-0.72 1.6-1.6 4.1-2 5.6-0.41 1.6-1 2.4-1.6 1.8-1.3-1.3-6.6-16-6.6-18-4e-3 -2.1-3-3.3-8.8-3.3-3.1 0-3.4 0.58-1.5 2.8 1.9 2.2 13 32 13 33-0.3 0.49 1.9 0.88 5 0.88 4.5 0 5.3-0.23 4.4-1.3zm83-13c-0.091-8 0.25-14 0.85-15 0.77-0.92-0.26-1.4-4.4-2.2l-5.4-0.97 0.6 3.2c0.77 4.1 0.78 25 0.024 27-0.47 1.2 0.22 1.5 3.9 1.4l4.5-0.14zm17 13c0-0.37-0.44-0.93-0.97-1.3-0.53-0.33-0.97-2.7-0.97-5.4v-4.8l3.6 2e-3c3.2 2e-3 4 0.49 6.8 4.6 1.7 2.5 3.1 5.1 3.1 5.8 0 0.65 0.54 1.2 1.2 1.3 0.66 0.04 1.9 0.18 2.7 0.31 0.8 0.13 2.7-0.014 4.1-0.31l2.7-0.55-8.7-11 2.9-1.5c5.4-2.8 6.5-9 2.5-14-2.3-2.7-2.3-2.7-16-2.9-13-0.2-14-0.13-13 1.6 0.32 1 0.67 7.6 0.78 15 0.17 11 0.38 13 1.9 13 2.6 0.71 7.4 0.59 7.4-0.18zm-1.3-18c-0.35-0.35-0.64-1.9-0.64-3.5v-2.8l6.9 0.35c7.2 0.36 9.5 1.7 8.3 5-0.48 1.2-2 1.6-7.2 1.6-3.7 0-6.9-0.29-7.3-0.64zm54 17c1.3-0.51 3.5-2.1 4.8-3.5 2.1-2.3 2.4-3.4 2.4-10 0-12-4.1-16-21-15-4 0.018-7.7-0.059-8.2-0.17-0.53-0.11-1.7-0.15-2.7-0.089-1.4 0.094-1.5 0.45-0.67 2.1 0.66 1.2 0.94 6.9 0.76 15-0.18 8 0.074 13 0.67 13 1.9 0.7 21-0.24 24-1.1zm-17-9.3c-0.061-2.9-0.16-7.1-0.22-9.3l-0.11-4 6.3 0.25c8.2 0.32 11 2.3 11 8.8 0 6.3-2.5 8.4-10 9.1l-6 0.5zm37 10c1.5-0.11 1.7-1.3 1.4-14-0.25-11-0.048-14 0.97-14 2.6-0.14-2.7-1.7-6-1.8l-3.4-0.068v30l2.7-0.12c1.5-0.066 3.4-0.17 4.4-0.24zm17-2.7c0 1.4-0.91-5.6-0.91-9.6v-7.3l8.7 8.5c4.8 4.7 8.7 9.1 8.7 9.7 0 0.84 1.6 1.2 4.9 1.2 3.5 0 4.7-0.32 4.2-1.1-1.2-1.9-1.4-26-0.23-26 1.7-1-1.2-2.3-5.1-2.3l-3.5-0.015 0.34 4.1c0.7 8.4 1.1 14 0.9 14-0.8 0-16-15-16-17-0.46-1.3-1.7-1.7-5.2-1.7l-4.6-0.0011v15c0 16-0.016 16 5.8 15 3-0.35 2.3-5.1 2.3-2.8zm60 1.5c6.3-1.5 7.3-3 5.3-4.2-1.4-0.83-1.2-7.6 0.19-9 0.9-0.9 0.31-1.2-2.7-1.3-2.1-0.077-5.3-0.039-7 0.084-2 0.14-3.9-0.43-5.1-1.5-1.8-1.6-1.9-1.6-1.9 2.7v4.3l4.9-0.47c4.7-0.45 4.9-0.39 4.6 1.8-0.73 5.1-14 4.5-18-0.84-2.5-3.8-2.1-8.6 0.97-12 2.2-2.1 3.4-2.5 8.2-2.5 4.1 0 6.2 0.48 7.5 1.7 1 0.93 2.1 1.7 2.4 1.7 0.65 0 4-6.8 3.5-7.2-1-0.81-13-3.4-15-3-0.7 0.25-2.9 0.6-4.8 0.79-4.3 0.4-10 5.1-12 9.8-1.7 4-0.45 11 2.5 15 4.9 6 16 6.1 21 5.1zm44-0.7c-1.6 0 2-8.9 5.5-17 0.46-1.1 1.1-3 1.5-4.3 0.58-2 1.3-0.76 4.9 8.2 2.3 5.8 4.1 12 3.9 13-0.33 2-0.029 2.2 5.4 2.2 4.8 0 5.6-0.22 4.7-1.3-0.87-1-0.44-3 1.9-8.9 1.7-4.2 4.1-11 5.5-14s3.1-7.7 3.9-8.9c1.3-2 1.2-2.2-0.96-2.7-1.3-0.33-3.8-0.45-5.6-0.28-2.6 0.25-3.2 0.69-3 2.1 0.39 2.3-6.8 22-7.4 20-0.22-0.76-1.7-4.8-3.3-9.1-1.6-4.2-2.9-8.9-2.9-10l0.061-2.7-6 0.29c-5.3 0.25-6 0.49-5.7 2.2 0.14 1.1-1.4 6.2-3.5 11l-3.7 9.4-3.5-10c-1.9-5.5-3.3-11-2.9-12 0.51-1.3-0.19-1.6-4.7-1.6-5.6 0-7.1 0.61-5.7 2.3 1.7 2.1 13 32 12 33-0.36 0.93 0.84 1.3 4.7 1.3 4.6 0 6.4-1.8 4.7-1.8zm45 0.78c0.66 0-0.36-2.1-0.039-3.4 0.56-2.2 0.98-2.4 7.6-2.4 6 0 7.2 0.27 8.3 2 0.97 1.5 1 2.3 0.11 3.4-0.97 1.2-0.14 1.4 5.4 1.4 5.4 0 6.3-0.21 5.1-1.2-2.8-2.2-14-25-13-27 0.69-1.2-6e-3 -1.5-4.1-1.8-5-0.34-6.9 0.45-6.1 2.5 0.24 0.63-1.3 4.8-3.5 9.3-2.2 4.5-4.7 9.6-5.6 11-0.9 1.9-2.2 4.1-3 5.1-1.3 1.6-0.98 1.7 4.2 1.7 3.6 0 4.1-1 4.9-1zm4.4-11c0-1.2 3-8.1 3.3-7.7 0.17 0.19 1.2 2.2 2.4 4.4l2.1 4.1h-3.9c-2.1 0-3.9-0.38-3.9-0.85zm40 5.9c-0.3-6.2-0.15-6.8 3.4-12 2-2.9 4.9-6.4 6.3-8 3.1-3.3 2.3-3.9-4.7-3.5-3.9 0.24-4.7 0.6-4.4 2 0.16 0.92-0.76 3.2-2 5.1l-2.3 3.4-2.6-3.7c-1.6-2.2-2.3-4.4-2-5.3 0.52-1.4-0.094-1.6-4.1-1.5-2.6 0.037-5.5 0.38-6.5 0.77-1.6 0.63-1.6 0.82-0.25 2 0.84 0.7 3.8 4.2 6.5 7.9 4.9 6.6 4.9 6.7 4.6 13l-0.32 6.3 8.7 3e-4z"/><text transform="translate(-25,-19)" x="144.12617" y="663.52429" fill="#000000" font-size="29px" style="inline-size:584.851;line-height:1.1;white-space:pre" xml:space="preserve"><tspan x="144.12617" y="663.52429">Play as part of your Battle Plan. Counts </tspan><tspan x="144.12617" y="695.4243">as a projectile weapon, unless played </tspan><tspan x="144.12617" y="727.32433">with another weapon. In that case, it </tspan><tspan x="144.12617" y="759.22435">counts as a projectile defense. You may </tspan><tspan x="144.12617" y="791.12438">keep this card if you win this battle.</tspan></text><text transform="translate(112 194)" fill="#000000" font-size="33px" style="shape-inside:url(#rect2);white-space:pre" xml:space="preserve"><tspan x="0" y="0">Weapon - Defense -Special</tspan></text></svg>
