<?xml version="1.0" encoding="UTF-8"?>
<!-- Created with Inkscape (http://www.inkscape.org/) -->
<svg width="822" height="1122" version="1.1" viewBox="0 0 822 1122" xml:space="preserve" xmlns="http://www.w3.org/2000/svg"><path d="m406.5 80.008c-359.66 1e-6 -323.99-0.76908-328.04 7.0605-2.7494 5.3168-2.4921 938.08 0.25976 941.77 5.4765 7.3352-10.646 6.6062 158.6 7.166 231.86 0.7669 486.68 0.2099 489.81-1.0703 1.4479-0.5915 3.9229-2.4223 5.5-4.0684l2.8672-2.9922 0.24219-469c0.1066-205.72 0.11938-318.11-0.0469-384.01 525.74-0.23562 767.68-0.25271 0-0.0332-0.17389-68.911-0.54287-86.568-1.25-87.936-3.9416-7.6223 31.166-6.8848-327.95-6.8848zm-55.5 2.9824v3.9238c0 7.6971 3.6182 7.1119-43.65 7.0645-57.38-0.13471-109.78-0.71826-171.48-1.7285-0.0697-0.9625-0.1822-3.325-0.25-5.25l-0.12305-3.5 107.75-0.25391zm-241.07 0.009766h22.066v5.5312c0 4.3755-0.3657 5.6561-1.75 6.125-0.9625 0.32603-4.2113 1.6805-7.2188 3.0117-3.0075 1.3312-7.7381 4.1349-10.514 6.2305l-5.0469 3.8105-11.861-11.252c-14.835-14.072-15.49-13.457 14.324-13.457zm243.96 0h16.053c13.787 0 16.053 0.21656 16.053 1.5391 0 20.362 34.124 22.468 40.113 2.4766l1.2031-4.0156h15.176c17.563 0 16.103-0.55171 15.662 5.916l-0.34766 5.084h-20.832l-14.975 7.5c-17.621 8.7751-13.25 9.2428-30.867-0.23047l-14.365-7.4414-22.268-0.32812-0.30273-5.25zm52.674 0h17.566l-0.69336 2.25c-1.4821 4.8045-3.6433 7.8547-7.2188 10.188-9.008 5.8773-21.095 2.6735-25.582-6.7812-2.742-5.7783-3.0874-5.6562 15.928-5.6562zm55.432 0h215v11.01l-215-0.03711v-5.4863zm218 0 22.75 0.01563c29.114 0.0196 28.333-0.66678 14.768 12.955-11.738 11.787-12.246 12.094-15.01 9.0391-2.3667-2.6152-8.9077-6.4088-15.605-9.0488-6.3654-2.509-6.8666-3.1435-6.8867-8.7109zm50.9 5.1992c1.6493-0.54977 2.208 7.6126 1.8984 27.752l-0.29883 19.451-5.2129 0.17383c-5.162 0.17354-5.2251 0.14104-6.3867-3.4492-1.7971-5.5547-5.403-12.322-9.2539-17.367l-3.4844-4.5645 10.891-10.838c5.9896-5.9609 11.321-10.982 11.848-11.158zm-649.62 0.18164c0.43096-0.42919 5.923 4.3432 12.205 10.607l11.422 11.391-3.5156 4.5605c-3.1209 4.0477-8.1239 13.445-9.748 18.311-0.42484 1.2727-1.6609 1.75-4.5332 1.75-2.1723 0-4.6027 0.25053-5.4004 0.55664-2.3789 0.91288-2.7955-44.82-0.42969-47.176zm555.48 26.279c13.78 0.39231 27.756 5.7934 39.27 17.307 12.225 12.225 17.543 27.752 17.049 42.875-3.6759 9.9e-4 -3.4744 9.5e-4 -7.2226 2e-3 0.0101-0.43664 0.14062-0.82755 0.14062-1.2676 0-66.466-99.229-68.151-101.79-1.7285-0.0396 1.0259 0.12341 2.0117 0.14258 3.0273-4.7432 1e-3 -2.3076 8.1e-4 -7.127 2e-3 -0.0193-0.62843-0.21218-1.2041-0.21094-1.8379 0.0703-35.865 29.432-59.242 59.748-58.379zm-516.59 2.8105h13.139c16.629 1.3e-4 23.435 5.3562 16.111 12.68-1.5338 1.5338-1.471 1.8637 0.88867 4.668 3.1067 3.6921 2.6537 8.0189-1.1934 11.404-3.0347 2.6705-31.783 3.6382-29.707 1 0.55294-0.70274 0.93555-7.4907 0.87305-15.502zm12.17 4.2012-5.1699 0.30078-0.6211 7.5h7.9375c8.3278 0 10.696-1.0988 10.014-4.6406-0.42833-2.2241-5.5124-3.5453-12.16-3.1602zm156.33 0.30078v6l-19.15-0.64063 0.32227 2.8203c0.31613 2.7585 0.46127 2.8203 6.5762 2.8203 6.0089 0 6.252 0.0975 6.25 2.5098-2e-3 2.4129-0.24333 2.509-6.252 2.5l-6.25-0.01v6h18.35l0.40234 2.75c0.22117 1.5125 0.14146 2.6572-0.17578 2.5449-0.31725-0.11229-6.2012-0.44979-13.076-0.75l-12.5-0.54492v-25.398l12.752-0.30078zm29 0-2e-3 3c-1e-3 2.9847-0.0273 2.9976-5.0684 2.6484l-5.0664-0.35156 0.3164 10.604 0.31641 10.604h-7l0.6289-21.004h-5.0644c-4.7046 0-5.0644-0.17455-5.0644-2.4453v-2.4453l13.002-0.30469zm-125.5 0.49609h7l-0.3418 11.078-0.33984 11.076 8.5938-0.32617 8.5918-0.32422-2e-3 2.75c-1e-3 1.5125-0.11445 2.6594-0.25195 2.5488-0.1375-0.11062-5.425-0.44812-11.75-0.75l-11.5-0.54882v-12.752zm27 2e-3h3.5l3.5 2e-3v25.838l-3.25 0.38086c-1.7875 0.20868-3.2602 0.35717-3.2715 0.33007s-0.12382-6.0128-0.25-13.301zm-47.5 2e-3c4.1779 0 4.749 0.24148 4.332 1.8359-0.4085 1.5621 5.5229 14.154 10.322 21.914 1.366 2.2084 1.306 2.25-3.1914 2.25-2.7356 0-4.3379-0.39579-3.9766-0.98047 1.8037-2.9184-1.5273-5.0195-7.9551-5.0195-6.731 0-8.4846 1.3513-6.9473 5.3574 0.34628 0.90249 0.46978 1.5629 0.27344 1.4668-0.19635-0.0961-2.361-0.35049-4.8086-0.56641-2.4476-0.21591-3.969-0.70067-3.3828-1.0762 1.8885-1.2099 11.452-21.621 10.979-23.432-0.3891-1.4879 0.26398-1.75 4.3555-1.75zm72.93 0c7.893 0 13.245 2.5216 11.85 5.584-1.0619 2.3306-2.7793 3.3036-2.7793 1.5742 0-1.4047-7.961-3.3274-11.008-2.6582-7.231 1.5882-5.5756 4.8466 3.0078 5.9219 8.6795 1.0873 9.9708 1.6207 11.613 4.7969 1.8221 3.5235 0.66901 7.4986-2.8047 9.668-3.1399 1.9609-12.668 2.386-17.023 0.75976-2.0425-0.76266-3.955-1.1446-4.25-0.84961-0.92027 0.92026-0.58647-1.8356 0.45899-3.7891 0.92158-1.722 1.2226-1.7478 4.0371-0.34375 4.1895 2.0899 11.641 2.0914 13.73 2e-3 2.4403-2.4403 0.72116-3.4672-7.7832-4.6465-15.95-2.2117-15.13-16.02 0.95118-16.02zm385.66 3.7461c18.66-1.8616 38.153 6.8948 47.281 24.863 3.9287 7.7332 5.4688 15.854 5.25 23.762-11.944 3e-3 -10.151 5e-3 -22.828 8e-3 -0.04286-6.3472-0.66488-6.8518-7.6934-6.8518h-6.5078l1.5957-2.4356c0.87794-1.3399 2.478-4.005 3.5547-5.9219l1.957-3.4863-4.6348-3.0156c-5.4763-3.5623-5.1864-3.6724-9.2441 3.5176l-3.1953 5.6602-2.0547-3.4102c-1.1305-1.8748-2.6726-4.4207-3.4258-5.6582-1.7514-2.8778-3.0042-2.8308-7.5898 0.28516l-3.7305 2.5352 2.7441 5.2148c1.5088 2.8681 2.8956 5.5523 3.082 5.9648 0.1865 0.4125-2.594 0.75-6.1777 0.75-6.9463 0-7.5525 0.49222-7.4785 6.8672-14.684 4e-3 -7.9667 2e-3 -23.467 6e-3 -0.42027-11.528 3.1862-23.43 12.295-33.531 8.1757-9.0662 19.072-14.006 30.268-15.123zm-458.84 3.8555-1.8359 3.4492c-1.01 1.8967-1.8559 3.7867-1.8789 4.1992-0.0231 0.4125 1.7674 0.75 3.9785 0.75h4.0215l-2.1426-4.1992zm-37.404 4.5996-6.8516 0.29883-0.32031 3.3438c-0.17625 1.8398-0.11063 3.8944 0.14648 4.5644 0.61054 1.5911 15.24 1.1948 17.242-0.4668 4.8227-4.0025-0.66041-8.1559-10.217-7.7402zm596.56 3.9375 2.3887 0.59961-0.0195 35.617c-4.9804 1e-3 -5.813 2e-3 -10.955 4e-3v-35.582l3.0977-0.61914c1.7037-0.34073 4.1738-0.34943 5.4883-0.0195zm-651.04 0.0801 4.2246 0.0781c2.3243 0.0423 4.7891 0.112 5.4766 0.1543 1.2041 0.0741 1.2561 55.627 0.76172 820.83l-0.011719 17.25h-5c-4.505 0-5.0039-0.22274-5.0449-2.25-0.02504-1.2375-0.12731-189.86-0.22656-419.15zm653.41 36.17-0.2168 382.99-0.23828 418.64-10.5 0.60547v-802.24c3.5998-2e-3 7.2907-2e-3 10.955-4e-3zm-39.877 0.0137c-0.8382 25.197-17.811 49.262-45.877 55.035-35.315 7.2645-68.852-19.482-69.971-54.994 1.6772-1e-3 5.4104-7.3e-4 7.125-2e-3 0.45809 23.364 16.08 43.772 38.229 48.967 32.653 7.6581 62.482-15.709 63.271-49.004 2.2244-1e-3 4.9675-8.2e-4 7.2226-2e-3zm-10.283 4e-3c-0.60701 21.372-15.088 41.026-37.795 46.072-31.552 7.0123-56.265-18.41-57.295-46.039 5.704-4e-3 17.369-4e-3 23.465-8e-3 4e-3 0.32846-0.0225 0.4844-0.0156 0.8457l0.082 4.25h6.8809c3.7852 0 6.8828 0.18214 6.8828 0.4043 0 0.22217-1.552 3.1494-3.4492 6.5059l-3.4492 6.1035 4.6992 2.4473c6.3286 3.2952 6.7321 3.088 11.137-5.6777 1.6785-3.3404 2.2625-3.0173 4.9707 2.7441 2.6599 5.6587 3.8655 6.1392 8.9277 3.5566 5.5612-2.8371 5.6077-3.108 1.7188-9.9883l-3.4453-6.0957h13.891v-4.418c0-0.2965-0.0276-0.42149-0.0293-0.69531 6.6675-4e-3 15.837-4e-3 22.824-8e-3zm-588.79 3.1209h479.54l1.2734 6.75c12.397 65.748 121.18 62.336 121.18-3.8008v-2.9492h23.01l-0.25391 402.25-0.25586 402.25-3.5 6.9902c-5.2829 10.552-14.326 19.583-24.816 24.781l-8.5312 4.2285-243.63 0.5234-15.762-7.8925-15.764-7.8926-15.498 7.8281-15.5 7.8281-121-0.025c-110.75-0.023-121.38-0.1658-125.5-1.7011-15.089-5.6245-26.733-16.784-32.613-31.256l-2.4102-5.9297-0.0059-335.24c-0.0036-184.38 0.0017-364.83 0.01172-400.99zm21.84 15.668c-0.51538 0.0268-0.83984 0.52441-0.83984 1.6289 0 0.2925 7.5642 23.022 8.4707 25.453 1.0114 2.7126 2.4616 0.94998 4.5254-5.5 1.1879-3.7125 2.3911-7.425 2.6719-8.25s1.8697 2.2337 3.5312 6.7969c3.7481 10.294 4.3123 10.103 8.4199-2.8477 4.9656-15.655 5.0414-16.18 2.2656-15.781-1.8682 0.2687-2.6562 1.4808-4.1113 6.332-0.98986 3.3-2.0608 6.675-2.3809 7.5-0.35065 0.9038-1.6808-1.4627-3.3457-5.9531-3.5871-9.6753-4.4801-9.7523-7.252-0.625-2.8322 9.3258-2.9843 9.3285-5.7305 0.0781-1.4106-4.7518-4.6784-8.9124-6.2246-8.832zm196.54 0.60351c-10.162-1.0002-18.801 15.51-9.9824 24.328 3.6235 3.6235 9.4351 4.6296 13.666 2.3652 4.0094-2.1457 1.7471-5.7493-2.418-3.8516-5.7336 2.6124-9.9336-1.1281-9.9336-8.8477 0-6.364 3.3094-9.6553 8.9414-8.8926 4.3281 0.58613 7.0043-1.7016 4.127-3.5274-1.4674-0.93112-2.9487-1.4313-4.4004-1.5742zm61.035 0.1211c-0.86998 0.33385-1.995 0.60742-2.5 0.60742-0.50501 0-0.91797 1.7577-0.91797 3.9062 0 3.4036-0.25581 3.8407-1.9844 3.3887-9.2737-2.4251-15.698 15.574-6.7871 19.016 0.69907 0.26998 4.084 0.4969 7.5215 0.5039l6.25 0.0117v-14.02c0-12.374-0.186-13.95-1.582-13.414zm-167.72 2e-3c-0.30353-0.4767-0.90724-0.24916-2.1113 0.21289-1.3334 0.51168-1.582 2.7098-1.582 14 0 12.726 0.0995 13.393 2 13.393 1.8196 0 2-0.66624 2-7.3926 0-7.6986 0.52487-8.6074 4.9746-8.6074 2.4206 0 3.0254 1.928 3.0254 9.6504 0 6.1561 0.11503 6.4731 2.25 6.1699 2.1148-0.30035 2.25-0.79161 2.25-8.1602 0-9.5015-2.1096-12.244-8.7344-11.355l-3.7656 0.50581v-4.4062c0-2.3531-3e-3 -3.5331-0.30664-4.0098zm21.432 0.20508c-0.61924 0.055-1.575 0.1675-2.125 0.25-1.097 0.16454-1.4276 22.873-0.37305 25.621 0.92623 2.4137 4.9401 1.5707 4.6211-0.9707-0.13805-1.0997-0.41784-7.175-0.62305-13.5-0.25038-7.7175-0.74444-11.467-1.5-11.4zm-35.758 2.4003c-1.7839 0-4.3672 2.3871-4.3672 4.0352 0 1.0806-0.45 1.9648-1 1.9648s-1 0.675-1 1.5 0.39689 1.5 0.88281 1.5c0.48593 0 1.067 2.8771 1.291 6.3945 0.22397 3.5175 1.0257 7.1404 1.7812 8.0508 1.837 2.2135 8.396 1.7517 8.8457-0.62304 0.2261-1.1939-0.49306-1.7708-2.4922-2-4.1971-0.48128-5.0215-11.822-0.85937-11.822 3.1946 0 3.4531-2.732 0.30078-3.1797-1.611-0.2288-2.3398-1.1013-2.5664-3.0703-0.17403-1.5125-0.54178-2.75-0.8164-2.75zm134.62 3.9922c-1.4178 0.0682-2.6683 0.6827-3.4824 2-1.1343 1.8354 0.9675 3.5078 4.4102 3.5078 1.8792 0 3.6048 0.5625 3.834 1.25 0.27053 0.81158-0.61691 1.25-2.5312 1.25-6.398 0-10.061 5.9249-6.6621 10.777 1.6979 2.424 6.1584 2.9811 9.5098 1.1875 1.3333-0.71358 1.9336-0.71358 1.9336 0 0 0.56935 0.95625 1.0352 2.125 1.0352 1.8467 0 2.0431-0.40931 1.5-3.125-0.34375-1.7188-0.625-5.3188-0.625-8 0-5.3786-5.7583-10.088-10.012-9.8828zm-65.799 0.49219c-4.8342 0.87769-6.5929 7.6754-0.35156 11.859 5.0038 3.3543 4.2273 6.7718-1.0801 4.7539-2.8756-1.0933-5.0185 1.4846-2.541 3.0566 0.70613 0.44805 2.9016 0.82207 4.8789 0.83008 7.7372 0.0329 9.4804-7.8894 2.5274-11.486-4.4712-2.3131-4.8398-3.998-0.87305-3.998 3.2038 0 5.1871-2.2922 3.1172-3.6035-2.1128-1.3385-4.0663-1.7047-5.6777-1.4121zm83.137 0.3789c-1.713-0.033-2.3262 3.1738-2.3262 10.676 0 12.557 4.2275 14.758 4.8027 2.5 0.33767-7.196 1.3211-9.0391 4.8203-9.0391 1.3077 0 2.377-0.18796 2.377-0.41797 0-0.23002 0.27357-1.13 0.60742-2 0.71017-1.8507-5.015-2.3481-6.1367-0.5332-0.44371 0.71794-1.0895 0.68322-2.0469-0.11133-0.83345-0.6917-1.5267-1.0632-2.0977-1.0742zm-184.86 0.13672c-9.1562 0-13.012 12.993-5.5547 18.719 2.8793 2.2106 8.5557 1.5381 11.449-1.3555 6.056-6.056 2.2176-17.363-5.8945-17.363zm84.031 0c-8.621 0-12.8 10.852-6.5762 17.076 3.0109 3.0109 8.8319 3.9969 11.947 2.0234 2.6066-1.6512 0.66538-3.5953-3.252-3.2578-3.875 0.33385-6.6191-1.1035-6.6191-3.4648 0-1.0389 1.721-1.377 7-1.377 6.8557 0 7-0.0524 7-2.5762 0-3.9664-5.0265-8.4238-9.5-8.4238zm34.941 0.0156c-7.4678-0.0374-8.8084 6.6307-2.1914 10.9 5.3601 3.4587 4.8446 7.2101-0.70117 5.1016-2.9754-1.1312-5.022 1.4368-2.4453 3.0684 2.3006 1.4568 8.1127 1.0296 10.068-0.74024 3.5257-3.1907 2.0519-7.7448-3.3281-10.285-3.9085-1.8455-3.9538-3.5606-0.0937-3.5606 3.2038 0 5.1871-2.2922 3.1172-3.6035-0.75148-0.47608-2.7434-0.87285-4.4258-0.88086zm-95.105 0.28321c-0.89684-0.34415-2.9135-0.14102-4.4824 0.45117-1.5689 0.59219-2.8535 0.70659-2.8535 0.25586 0-0.45074-0.9-0.58258-2-0.29492-1.8208 0.47614-2 1.3639-2 9.9062 0 8.7167 0.1421 9.3828 2 9.3828 1.7802 0 2-0.66734 2-6.0664 0-7.57 1.1724-9.9336 4.9277-9.9336 3.2345 0 4.9966-2.7079 2.4082-3.7012zm183.86 3.4277c2.3492-0.81887 3.8008 1.399 3.8008 6.2735 0 5.9842-8e-3 6-2.9648 6-4.6766 0-6.9735-6.9171-3.4629-10.428 0.96206-0.96207 1.8439-1.5727 2.627-1.8457zm-123.7 0.27346c2.106 0 4.5 1.7016 4.5 3.1992 0 0.44-2.025 0.80078-4.5 0.80078s-4.5-0.36078-4.5-0.80078c0-1.4976 2.394-3.1992 4.5-3.1992zm-84.023 0.5c3.5885 0 5.3387 4.2331 3.6191 8.75-1.5279 4.0134-6.3731 3.9075-8.0644-0.17578-1.7868-4.3137 0.42227-8.5742 4.4453-8.5742zm171.02 5.7129c0.64875-0.0345 1.2302 0.11689 1.627 0.51367 0.58972 0.58972 0.78731 1.9685 0.43946 3.0645-1.1289 3.5568-6.5664 3.6425-6.5664 0.10351 0-1.806 2.5537-3.578 4.5-3.6816zm367.28 36.506-288.41 0.0801c-158.63 0.0444-289.41 0.38611-290.64 0.75781-4.1602 1.2631-8.9589 5.713-10.906 10.115-3.0295 6.8485-2.9712 321.16 0.0605 327.07 2.1716 4.2349 5.2152 7.2701 9.6191 9.5918 5.1272 2.703 577.01 2.467 582.29-0.24023 4.2996-2.205 7.3114-5.2815 9.5938-9.7988 1.4693-2.9079 1.6172-17.811 1.6172-163.09v-159.89l-2.3242-4.4062c-1.3288-2.5202-4.1581-5.646-6.6094-7.2988zm-375.28 2.2812h172.11c130.16 0 200.8 0.46012 203.99 1.9062 10.661 4.8415 10.51 3.4702 10.182 92.594l-0.0215 157.75c-0.2911 88.56 0.20908 82.622-7.4297 88.449l-3.6738 2.8008-58.4 0.27344c-291.45 1.3649-325.47 0.1074-460.51 0.20312-63.668 0.0451-61.204 0.22809-66.57-6.8066l-2.6797-3.5137v-80.533l-0.5-161.24c0-89.177-0.5157-83.254 7.7285-88.904l3.623-2.4824 56.938-0.27344s98.736-0.22656 145.21-0.22656zm244.25 38.637c-3.6937 1.2713-5.642 6.9246-1.5273 9.8066 2.7919 1.9555 3.7715 1.95 6.6113-0.0391 3.1819-2.2287 2.6554-7.2901-0.96875-9.3145-1.4594-0.81515-2.884-0.87688-4.1152-0.45312zm-15.084 7.7852c-2.3524-0.48129-5.0757 0.5267-6.5625 3.3496-1.2224 2.321-0.93829 3.4028 1.7031 6.4785 2.8983 3.3749 9.1934 0.46479 9.1934-4.25 0-3.1271-1.9816-5.0968-4.334-5.5781zm32.047 6.8613c-5.4216-0.25688-10.257-0.1228-13.713 0.52539-17.404 3.2646-31.844 13.19-34.951 24.023-1.2095 4.2172-0.67341 4.0494 7.1445-2.2441 17.063-13.736 33.925-13.869 52.92-0.41406 3.0207 2.1397 34.572-10.164 31.824-12.41-5.4157-4.4269-26.96-8.7098-43.225-9.4805zm-52.562 1.6953c-1.4297-0.0494-2.9522 0.43587-4.3223 1.6758-2.2384 2.0258-2.3208 4.1972-0.27148 7.123 1.9436 2.7748 5.7897 2.8763 8.4434 0.22266 3.9046-3.9046 0.43941-8.8733-3.8496-9.0215zm107.85 8.5527c-4.5142-0.51726-11.305 2.2301-11.998 5.9375-0.55998 2.9962 3.8796 1.009-67 29.986-39.992 16.35-206.98 84.918-210.74 86.531-1.9873 0.85365-2.1088 1.2525-1.0723 3.5273 0.64265 1.4105 1.6507 2.361 2.2402 2.1133 0.58953-0.24774 31.222-13.356 68.072-29.131 215.11-92.082 210.96-90.354 210.22-87.553-0.50196 1.9196-0.44775 1.9187 4.4746-0.0215 11.156-4.3974 12.194-5.4871 9.2441-9.6992-0.68851-0.98299-1.9406-1.519-3.4453-1.6914zm-1.7012 12.469c-0.68345 0-15.199 6.728-24.291 11.26l-4.4941 2.2402-0.0332 10c-0.0611 18.072-7.5718 24.304-31.465 26.107-10.068 0.76-10.974 1.6011-4.7637 4.4199 13.339 6.0546 46.311-4.8082 55.607-18.32 6.3159-9.1799 13.329-35.707 9.4395-35.707zm-10.699 1.2637c-0.22411-0.22411-57.712 24.1-127.75 54.053-70.04 29.953-132.07 56.462-137.85 58.91-9.9437 4.2153-10.516 4.6176-10.812 7.6113-0.44935 4.5331-5.8315 6.7124 91.188-36.926 49.019-22.048 110.84-49.797 137.38-61.664s48.07-21.76 47.846-21.984zm-30.945 4.0547c-0.47791-0.47792-9.934 3.2052-146.54 57.068-115.19 45.421-106.91 41.948-105.13 44.09 0.69572 0.8383 1.5165 1.5234 1.8242 1.5234 0.66068 0-0.53772 0.48971 96.695-39.502 41.8-17.192 93.45-38.35 114.78-47.018 21.327-8.6677 38.596-15.941 38.375-16.162zm7.4727 10.682c-1.688 0-12.467 5.1794-118.62 57.002-58.85 28.728-111.39 54.275-116.76 56.771-10.31 4.7941-12.546 6.6976-3.834 3.2637 5.751-2.2668 7.0938-2.4751 7.0938-1.1016 0 0.5142 0.42163 2.0436 0.9375 3.4004 1.0457 2.7504-8.8568 7.6855 137.06-68.291 27.225-14.175 59.738-31.083 72.25-37.574 20.081-10.417 25.04-13.471 21.875-13.471zm-62.908 6.9551c1.1298-0.73721-0.97918-0.2343-7.2168 2.0859-4.675 1.739-50.575 18.619-102 37.512-64.044 23.529-93.396 34.76-93.168 35.646 0.1827 0.71198 0.80091 1.8575 1.373 2.5469s1.1294 1.2539 1.2383 1.2539 17.941-7.0073 39.627-15.572c33.073-13.062 71.466-28.148 147.93-58.125 6.7183-2.6339 11.087-4.6104 12.217-5.3476zm90.287 19.998c-4.0097-0.13579-7.8135 4.3997-5.0078 8.6816 2.8722 4.3835 10.504 2.2935 10.504-2.877 0-1.1549-0.74405-2.9239-1.6543-3.9297-1.1454-1.2656-2.5052-1.8297-3.8418-1.875zm-99.988 5.1074c-1.1003 0.40436-3.7286 1.5586-8.1074 3.5879-4.3497 2.0158-44.756 20.23-89.793 40.477-45.037 20.247-81.987 36.939-82.109 37.094-0.12253 0.15454-0.48251 1.9688-0.80078 4.0312-0.31829 2.0625-0.45378 3.75-0.30078 3.75 0.32375 0 118-57.189 155.84-75.732 18.13-8.8862 28.574-14.42 25.273-13.207zm80.029 2.9394c-4.6164 0-6.953 6.5919-3.5449 10 3.2843 3.2843 10 0.47757 10-4.1797 0-1.4997-4.7918-5.8203-6.4551-5.8203zm-20.447 8.9688c-1.3117 0.1842-2.5803 0.88232-3.541 2.2539-2.0681 2.9526-1.9636 4.3704 0.50391 6.8379 2.7822 2.7822 6.9392 2.2205 8.8476-1.1953 2.446-4.3779-1.8755-8.4491-5.8105-7.8965zm-289.63 5.9941c-45.359 1.4646-86.35 34.638-121.39 98.678-4.638 8.477-11.334 18.93-15.213 23.75-8.134 10.107-8.3366 9.9567 8.9238 6.6055 19.595-3.8044 31.884-2.7266 68.215 5.9785 25.262 6.053 48.233 10.841 57.5 11.984 36.216 4.4676 69.991-16.733 75.609-47.459 1.9511-10.671-2.6304-32.1-6.5957-30.85-11.091 3.4974-16.986 7.8077-23.014 16.83-16.915 25.317-44.767 32.65-73.629 19.383l-6.6289-3.0469-9.6719 4.3066-9.6738 4.3086 0.62696 3.709c1.318 7.8009-8.9853 14.649-13.705 9.1094-2.1594-2.5347-16.727-33.548-17.445-37.139-1.6234-8.1169 7.7886-13.895 13.789-8.4648 1.6997 1.5382 2.3731 1.4321 10.24-1.6094l8.4219-3.2559 1.0723-6.1406c5.912-33.884 46.467-54.241 77.104-38.703 4.933 2.5018 8.0134 3.5233 9 2.9863 0.825-0.44903 7.547-3.0054 14.938-5.6816 17.25-6.2468 17.017-8.4417-1.7188-16.143-16.032-6.5896-31.636-9.6249-46.756-9.1367zm-0.8418 26.938c-17.882 1.1729-35.425 10.865-43.418 26.699-2.7582 5.464-5.5277 15.744-4.5137 16.758 0.22436 0.22436 8.8239-2.9122 19.109-6.9707 10.286-4.0585 28.714-11.302 40.951-16.096 24.403-9.5597 23.869-9.1902 18.434-12.787-8.9822-5.9441-19.833-8.3073-30.562-7.6035zm38.469 14.506c-3.0226-0.16247-11.466 3.1437-44.09 15.996l-41.5 16.35-0.3125 3.123c-0.41594 4.147 6.7253 1.5248 85.615-31.438 2.8939-1.2091 3.2441-1.6762 2.1973-2.9375-0.49782-0.59984-0.90264-1.0396-1.9102-1.0938zm4.5996 5.5938c-8.0726 0-89.158 36.635-87.314 39.449 2.1225 3.2394-3.5812 5.215 45.387-15.721 47.462-20.292 53.533-23.729 41.928-23.729zm4.709 8.4551c-1.0981-1.2-7.8747 1.8977-44.516 17.547-48.743 20.818-43.993 18.229-40.373 22.008 1.5753 1.6443 2.8931 2.9905 2.9277 2.9902s18.512-8.3115 41.062-18.469l41-18.469v-3.2812c0-1.0497 0.26447-1.9262-0.10156-2.3262zm0.86328 8.4766-7.3809 3.3535c-4.0593 1.8447-21.88 9.8485-39.602 17.785-17.721 7.9366-32.234 14.712-32.25 15.057-0.0404 0.85752 8.9996 4.6793 13.666 5.7774 29.558 6.9554 62.674-11.877 65.09-37.014zm-101.4 12.303c-1.0106-0.0606-2.9497 0.74677-6.9375 2.3535-8.0543 3.2452-8.5549 3.7279-7.1192 6.8789l1.1504 2.5234 5.2734-2.0976c2.9006-1.1532 6.2141-2.4615 7.3633-2.9082 1.6547-0.64325 1.9954-1.4546 1.6367-3.8984-0.27333-1.8624-0.35659-2.7909-1.3672-2.8516zm-23.154 0.96679c-3.64-0.13699-7.9373 3.0407-7.4336 6.7578 0.46241 3.4127 12.844 32.236 14.945 34.791 2.3291 2.8323 12.783 0.0961 12.783-3.3457 0-1.0315-16.168-35.931-17.076-36.859-0.86516-0.88476-2.0054-1.2981-3.2188-1.3438zm24.477 8.3144c-0.92533 0.37301-4.0441 1.5978-6.9316 2.7207-5.3432 2.0779-6.0966 3.3134-4.1894 6.877 1.1888 2.2213 1.9504 2.0986 10.564-1.7109l5.4277-2.4004-1.5938-3.082c-1.1619-2.2469-2.0508-2.8987-3.2773-2.4043zm104.45 7.4844c6.5975 0 9.3358 12.412 3.4141 15.475-3.4789 1.799-4.8534 1.8586-7.5488 0.33008-6.7604-3.8336-3.6286-15.805 4.1348-15.805zm-97.533 0.64062-7.1035 2.8594c-8.478 3.413-8.482 3.4196-6.3555 7.8789 1.8907 3.9649 0.50001 4.1482 13.775-1.8359l5.9199-2.668-3.1172-3.1172zm95.766 1.4141c-1.045 0.10921-1.9944 0.47096-2.668 1.1445-1.6828 1.6828-1.492 5.3635 0.37305 7.2285 3.1747 3.1747 9.4277 0.47022 9.4277-4.0781 0-2.67-3.9977-4.6226-7.1328-4.2949zm-16.25 16.191c1.2947-0.0185 2.6051 0.32591 3.8008 1.1094 4.1101 2.693 4.2212 11.182 0.18164 13.879-4.1385 2.7634-11.6-1.8411-11.6-7.1582 0-4.462 3.7331-7.7747 7.6172-7.8301zm40.354 0.75586c-0.77392 0.26353-2.0714 2.1236-4.1426 5.668-11.159 19.095-25.575 29.993-46.072 34.826-12.879 3.0365-22.354 2.0791-57.256-5.7812-64.033-14.421-62.145-14.108-80.902-13.418-12.995 0.47812-32.579 3.3502-34.252 5.0234-0.36638 0.36638 4.1534 11.513 5.0195 12.379 0.1641 0.1641 5.2118-1.0842 11.217-2.7734 26.761-7.5282 30.417-7.1716 108.42 10.564 10.725 2.4387 20.4 4.6233 21.5 4.8555 20.798 4.3898 49.397-4.5014 61.576-19.143 10.824-13.012 15.864-21.975 15.902-28.287 0.0174-2.845-0.23389-4.1776-1.0078-3.9141zm-41.967 1.3555c-1.0976 0.25458-2.1499 0.78854-3.0039 1.6426-2.4075 2.4075-2.4467 2.9172-0.44336 5.7773 2.6977 3.8516 10.443 1.4747 10.443-3.2051 0-3.2209-3.7032-4.9786-6.9961-4.2148zm-39.969 0.52539c1.8371-0.28998 3.7835-0.2187 5.709 0.29883 7.9096 2.126 9.2964 15.51 2.0898 20.174-8.3341 5.3931-17.834-0.0888-17.834-10.291 0-5.1778 4.5239-9.3117 10.035-10.182zm0.16601 1.3223c-1.055 0.0949-2.1486 0.3597-3.2559 0.81836-5.0057 2.0734-6.806 9.2644-3.291 13.148 2.5922 2.8644 12.695 2.5946 14.789-0.39454 4.6546-6.6454-0.85704-14.237-8.2422-13.572zm248.23 114.51c-0.74176-4.4e-4 -1.4277 4.5947-1.4277 13.785 0 11.237 0.17676 12.5 1.75 12.502 1.5898 2e-3 1.7224-1.1426 1.4434-12.5-0.2258-9.1907-1.0239-13.787-1.7656-13.787zm-400.67 0.67969c-0.64423 0.0961-1.3391 4.6026-1.543 13.438-0.23953 10.381-0.0559 12.168 1.25 12.168 1.2933 0 1.5312-1.953 1.5312-12.584 0-8.8045-0.59405-13.118-1.2383-13.021zm189.88 0.60547c-2.8851 0-5.6406 3.2839-5.6406 6.7227 0 1.6108-0.58544 2.2773-2 2.2773-1.1 0-2 0.45-2 1s0.9 1 2 1c1.8095 0 2 0.66667 2 7 0 5.5556 0.30952 7 1.5 7s1.5-1.4444 1.5-7c0-6.8 0.0714-7 2.5-7 1.375 0 2.5-0.45 2.5-1s-1.125-1-2.5-1c-2.5514 0-3.9756-5.8156-1.5-6.125 0.55-0.0688 1.5244-0.1812 2.166-0.25 2.447-0.26218 1.9742-2.625-0.5254-2.625zm329.86 0c-1.2533 0-1.5 2.0556-1.5 12.5s0.24667 12.5 1.5 12.5 1.5-2.0556 1.5-12.5-0.24667-12.5-1.5-12.5zm-173.05 0.17578c-0.85405 0.17782-1.529 0.66172-1.5 1.0742s0.0527 5.925 0.0527 12.25c0 9.5556 0.25362 11.5 1.5 11.5 1.2538 0 1.5-2.0646 1.5-12.574 0-10.839-0.21416-12.529-1.5527-12.25zm118.76 1.4492c-1.2793-0.79065-3.5253 1.0439-2.7715 2.2637 0.9922 1.6054 3.5684 1.3668 3.5684-0.33008 0-0.79254-0.35811-1.6624-0.79688-1.9336zm-179.87 0.56641-4.8359 0.30859-0.24609 11.25-0.2461 11.25h5.8848c9.2823 0 14.043-6.3947 8.252-11.084-1.8293-1.4813-1.9112-1.8642-0.625-2.9316 4.6557-3.8639-0.3936-9.2896-8.1836-8.793zm100.22 0.0137-5.0566 0.29489-0.24609 11.25c-0.23261 10.623-0.13657 11.25 1.7305 11.25 1.7681 0 1.9129-0.47599 1.3613-4.5l-0.61718-4.5h3.5586c4.4045 0 9.7129-4.1071 9.7129-7.5156 0-3.9072-4.5212-6.6254-10.443-6.2793zm-407.06 0.29489-0.20898 11.25c-0.19495 10.537-0.0837 11.25 1.7324 11.25 1.7131 0 1.8689-0.50788 1.3418-4.3535l-0.59765-4.3516 4.3652-0.58594c12.259-1.6442 11.417-13.141-0.96484-13.188zm165 1.5c-0.93333 0-1.5 0.94444-1.5 2.5s-0.56667 2.5-1.5 2.5c-0.825 0-1.5 0.45-1.5 1s0.675 1 1.5 1c1.1647 0 1.5 1.3246 1.5 5.9277 0 4.0563 0.49711 6.4249 1.5723 7.5 1.9842 1.9842 6.4277 2.0832 6.4277 0.14258 0-0.78675-1.0125-1.5742-2.25-1.75-3.7117-0.52715-3.9991-11.82-0.30078-11.82 1.4024 0 2.5508-0.45 2.5508-1s-1.125-1-2.5-1c-2 0-2.5-0.5-2.5-2.5 0-1.5556-0.56667-2.5-1.5-2.5zm178 0c-0.93333 0-1.5 0.94444-1.5 2.5s-0.56667 2.5-1.5 2.5c-0.825 0-1.5 0.45-1.5 1s0.675 1 1.5 1c1.1515 0 1.5 1.2778 1.5 5.5 0 4.1667 0.48485 5.9848 2 7.5 2.3144 2.3144 6 2.665 6 0.57031 0-0.78675-1.0125-1.5742-2.25-1.75-3.7117-0.52715-3.9991-11.82-0.30078-11.82 1.4024 0 2.5508-0.45 2.5508-1s-1.125-1-2.5-1c-2 0-2.5-0.5-2.5-2.5 0-1.5556-0.56667-2.5-1.5-2.5zm13 0c-0.93333 0-1.5 0.94444-1.5 2.5s-0.56667 2.5-1.5 2.5c-0.825 0-1.5 0.45-1.5 1s0.675 1 1.5 1c1.157 0 1.5 1.2974 1.5 5.6719 0 3.8738 0.52383 6.2508 1.6543 7.5 1.9755 2.1829 6.3457 2.4573 6.3457 0.39843 0-0.78675-1.0125-1.5742-2.25-1.75-3.7117-0.52715-3.9991-11.82-0.30078-11.82 1.4024 0 2.5508-0.45 2.5508-1s-1.125-1-2.5-1c-2 0-2.5-0.5-2.5-2.5 0-1.5556-0.56667-2.5-1.5-2.5zm-51.5 0.88477 4.2422 0.30859c4.7812 0.34664 6.395 3.1363 3.1758 5.4902-3.8205 2.7936-7.418 1.7078-7.418-2.2402zm-298.2 0.11523c6.12 0 8.4298 4.3242 3.9766 7.4434-4.7746 3.3443-7.7773 1.9511-7.7773-3.6094 0-3.7719 0.06165-3.834 3.8008-3.834zm402 0c5.5273 0 8.3379 3.9793 4.8535 6.8711-4.5804 3.8014-8.6543 2.3722-8.6543-3.0371 0-3.7719 0.06165-3.834 3.8008-3.834zm-158.43 2.957c-5.0805-0.71612-10.903 4.0204-10.057 10.33 0.34869 2.5996 1.3862 4.8614 2.7344 5.9531 7.8766 6.3781 18.253-5.5045 11.881-13.605-1.2541-1.5943-2.8651-2.439-4.5586-2.6777zm-59.35 0.04297c-7.2962 0-10.937 10.172-5.5644 15.545 6.6232 6.6232 16.046-0.52718 13.387-10.158-1.0561-3.825-3.3257-5.3867-7.8223-5.3867zm191.09 0c-8.4647 0-11.147 12.471-3.6113 16.793 2.8464 1.6324 8.0352 1.4721 9.5-0.29297 1.0737-1.2937 0.65441-1.5-3.0488-1.5-4.3836 0-7.9512-2.0879-7.9512-4.6543 0-0.97723 1.6406-1.3457 6-1.3457 5.7333 0 6-0.11111 6-2.5 0-3.3518-3.3362-6.5-6.8887-6.5zm207.84 0c-8.5109 0-11.051 12.364-3.4551 16.818 2.5164 1.4755 8.7094 1.095 9.2559-0.56836 0.27955-0.85096-0.78773-1.25-3.3438-1.25-3.8461 0-7.4121-2.2388-7.4121-4.6543 0-0.97723 1.6406-1.3457 6-1.3457 5.7333 0 6-0.11111 6-2.5 0-3.4154-3.3429-6.5-7.0449-6.5zm-439.07 0.0117c-0.9449 0.0868-1.3518 3.3415-1.0801 9.2383 0.45394 9.852 3.1992 11.525 3.1992 1.9492 0-6.2672 1.107-8.1992 4.6992-8.1992 1.3778 0 2.3008-0.60145 2.3008-1.5 0-1.8361-4.0835-2.0162-5.8418-0.25781-0.98886 0.98886-1.4281 0.93911-2.1582-0.24219-0.42933-0.69468-0.80417-1.0172-1.1191-0.98828zm343.05 0.0117c-0.92852 5e-3 -1.3979 3.0155-1.4121 9.041-0.0259 11.011 3.2096 12.051 3.6856 1.1856l0.29492-6.75 3.25-0.3125c4.0281-0.38836 5.3013 2.1772 4.5195 9.1133-0.43885 3.8934-0.25101 4.6992 1.0996 4.6992 2.646 0 2.3705-14.534-0.30273-15.965-2.6219-1.4032-6.3971-1.3041-7.9082 0.20703-0.98886 0.98886-1.4246 0.94418-2.1445-0.22071-0.41155-0.6659-0.77252-0.99965-1.082-0.99804zm-204.9 0.0234c-1.1616-0.089-2.6783 0.22866-4.0977 0.98828-1.3765 0.7367-1.9336 0.71198-1.9336-0.084 0-0.61514-0.5625-0.93073-1.25-0.70117-0.8638 0.28843-1.25 2.9401-1.25 8.5801 0 7.176 0.21614 8.162 1.791 8.166 1.5532 4e-3 1.7276-0.68346 1.3105-5.1738-0.60446-6.5073 0.55854-8.8222 4.4336-8.8222 1.9687 0 2.9648-0.50396 2.9648-1.5 0-0.86841-0.80716-1.3641-1.9688-1.4531zm168.59 0.0371c-1.5652-0.23533-3.2595 0.0324-4.5918 0.875-0.92287 0.58368-1.9249 0.54594-2.7051-0.10156-2.2776-1.8903-2.8305-0.11419-2.502 8.0449 0.43064 10.693 2.9259 11.688 3.3789 1.3477l0.29492-6.75 3.7168-0.30859c4.3289-0.35918 5.2491 1.4871 4.6289 9.2852-0.30102 3.7848-0.0738 4.5234 1.3965 4.5234 2.3857 0 2.5415-11.436 0.20117-14.777-0.81649-1.1657-2.2531-1.9033-3.8184-2.1387zm-362.47 0.0957c-7.5096-0.71948-9.3239 5.7737-2.6562 9.5059 5.2471 2.937 5.1596 4.7297-0.25 5.1211-4.1227 0.29829-5.5494 1.5026-3 2.5312 8.9337 3.6048 14.064-5.0963 5.5625-9.4336-4.7754-2.4363-4.9336-5.4043-0.28906-5.4043 4.1699 0 4.6964-1.931 0.63281-2.3203zm479.08 6e-3c-9.2452-0.89062-12.509 13.275-3.8809 16.846 2.8243 1.1689 6.8879 0.77382 7.377-0.7168 0.2433-0.74157-1.0266-1.3036-3.3906-1.5-7.8864-0.65514-8.7791-10.786-1.041-11.814 4.7043-0.62498 5.2928-2.3947 0.93555-2.8144zm-541.31 2e-3c-6.0976 0.44577-6.2795 2.6202-0.25196 3.0059 6.5009 0.41589 7.1726 3.0113 1.1289 4.3574-5.7537 1.2815-8.2237 5.2268-5.2969 8.4609 1.4952 1.6522 2.6424 2.0076 4.9668 1.5371 1.6624-0.33647 4.0359-0.6031 5.2734-0.5918 2.1158 0.0192 2.25-0.38619 2.25-6.8125 0-8.4635-1.594-10.43-8.0703-9.957zm104 0c-6.0976 0.44577-6.2795 2.6202-0.25196 3.0059 6.2022 0.39678 7.3908 3.2087 1.7442 4.125-6.5044 1.0555-9.1495 5.1165-5.7676 8.8535 1.8434 2.0369 4.526 2.3384 7.3516 0.82617 1.2524-0.67028 2.0779-0.67028 2.4922 0 1.6141 2.6116 2.502 0.35987 2.502-6.3438 0-9.0214-1.4862-10.948-8.0703-10.467zm191 0c-6.0976 0.44577-6.2795 2.6202-0.25196 3.0059 6.5009 0.41589 7.1726 3.0113 1.1289 4.3574-5.7537 1.2815-8.2237 5.2268-5.2969 8.4609 1.4952 1.6522 2.6424 2.0076 4.9668 1.5371 1.6624-0.33647 4.0359-0.6031 5.2734-0.5918 2.1158 0.0192 2.25-0.38619 2.25-6.8125 0-8.4635-1.594-10.43-8.0703-9.957zm107 0c-6.0976 0.44577-6.2795 2.6202-0.25196 3.0059 6.2022 0.39678 7.3908 3.2087 1.7442 4.125-6.5668 1.0656-9.1493 5.117-5.6953 8.9336 1.2831 1.4178 2.505 1.7513 4.75 1.2969 1.6624-0.33647 4.0359-0.6031 5.2734-0.5918 2.1158 0.0192 2.25-0.38619 2.25-6.8125 0-8.4635-1.594-10.43-8.0703-9.957zm117.84 8e-3c-5.9745 0.4423-6.0438 2.6175-0.0957 2.998 6.2022 0.39678 7.3908 3.2087 1.7442 4.125-6.5244 1.0588-9.3639 5.5951-5.7598 9.1992 1.1747 1.1747 2.5659 1.4805 4.75 1.041 1.6988-0.34182 4.0348-0.61828 5.1914-0.61328 1.9114 8e-3 2.112-0.58397 2.2129-6.5039 0.1408-8.2629-1.7788-10.71-8.043-10.246zm-477.2 0.01c-5.7147 0.42842-5.9411 2.7944-0.26757 2.7944 6.9078 0 7.542 3.0465 0.92968 4.4648-5.8148 1.2472-8.5519 7.0348-4.4902 9.4961 0.9625 0.58325 3.1 0.78036 4.75 0.4375 1.65-0.34285 3.9122-0.58672 5.0273-0.54102 1.8887 0.0773 2.0042-0.41088 1.6699-7.1367-0.41783-8.4076-1.6629-9.9627-7.6192-9.5156zm449.42 0.041-5.8496 0.25391 0.0527 12c0.0291 6.6 0.26224 12.361 0.51758 12.803 1.118 1.9332 2.6541-0.25239 2.7148-3.8633 0.0597-3.5465 0.2999-3.9064 2.416-3.6094 8.079 1.1338 13.256-8.6119 8.0742-15.199-1.8741-2.3829-2.6448-2.6142-7.9258-2.3848zm-407.87 0.0586-5.6328 0.41992v11.887c0 6.5384 0.1539 12.25 0.3418 12.691 0.89239 2.0969 2.5327-0.34791 2.5918-3.8633 0.0597-3.5465 0.2999-3.9064 2.416-3.6094 8.1151 1.1389 13.253-8.616 8.0332-15.252-1.9413-2.4679-2.585-2.6573-7.75-2.2734zm156.36 0.23633c-0.73418-0.27149-1.4721 2.0684-1.6973 7.209l-0.29492 6.7495h-7l-0.29492-6.75c-0.22356-5.1035-0.65043-6.75-1.75-6.75-2.224 0-2.047 13.264 0.20703 15.518 1.1739 1.1739 2.5675 1.4808 4.75 1.043 1.6988-0.34083 4.2129-0.6078 5.5879-0.5918 2.4875 0.0289 2.4984-0.01 2.1738-7.9688-0.21625-5.3038-0.94746-8.1875-1.6816-8.459zm-37.057 0.0723c-0.831-0.31888-1.685-0.0239-1.8965 0.6543-0.2115 0.67823-1.1558 3.6726-2.0996 6.6562l-1.7168 5.4258-2.209-5.9258c-1.3047-3.4983-2.886-6.0572-3.8613-6.248-2.117-0.41437-2.1664-0.6975 1.3477 7.8242 3.6473 8.8448 3.7125 10.487 0.5 12.592-1.375 0.90093-2.5 2.0367-2.5 2.5234 0 5.2597 4.8663 0.0857 8.1035-8.6152 1.4324-3.85 3.3344-8.6449 4.2246-10.654 1.4329-3.2341 1.4449-3.7192 0.10743-4.2324zm-190.45 0.38617c-1.5497 0-1.3416 0.98729 1.6894 7.998 3.6362 8.4105 3.6904 11.2 0.25391 13.039-1.0628 0.56876-1.9316 1.4674-1.9316 1.998 0 1.1354 2.0159 1.2455 3.6406 0.19922 0.62745-0.40408 2.7924-5.0094 4.8106-10.234 5.0366-13.04 5.027-13 3.2656-13-0.98341 0-1.9181 1.6727-2.6582 4.7578-1.8737 7.8105-2.5379 7.9848-5.0332 1.3125-1.6011-4.2814-2.79-6.0703-4.0371-6.0703zm439.26 0c-0.41608 0-0.754 3.5986-0.75 7.9961 5e-3 6.4354 0.29854 7.996 1.5059 8 1.2164 4e-3 1.4826-1.5084 1.4082-7.9961-0.0505-4.4003-0.38798-8.0002-0.75-8-0.36202 1.9e-4 -0.99797 0-1.4141 0zm-294.42 1.0918c1.1825-0.0686 2.4083 0.50628 3.5215 1.7363 2.2366 2.4714 2.1382 8.4252-0.17382 10.518-5.3137 4.8088-10.99-3.8773-6.6152-10.123 0.94519-1.3494 2.0851-2.0623 3.2676-2.1309zm398.05 0.18164c2.4696-0.59718 5.127 0.81614 5.127 3.4258 0 0.87407-1.4744 1.3008-4.5 1.3008-4.7602 0-5.495-0.86045-2.9277-3.4277 0.67614-0.67614 1.4776-1.0998 2.3008-1.2988zm-207.68 0.0801c2.4322-0.62454 4.8047 0.70943 4.8047 3.3457 0 0.87407-1.4744 1.3008-4.5 1.3008-4.8817 0-5.5056-0.78118-2.6719-3.3457 0.73836-0.6682 1.5564-1.0926 2.3672-1.3008zm-263.06 0.0195c4.9392-0.3388 8.2701 7.226 3.8691 11.627-4.2838 4.2838-8 1.8853-8-5.1641 0-3.6874 0.43671-4.9997 1.9336-5.8008 0.75343-0.40323 1.4917-0.61371 2.1973-0.66211zm408 0c4.9392-0.3388 8.2701 7.226 3.8691 11.627-2.2221 2.2221-3.6527 2.4327-6.25 0.91992-2.6127-1.5217-2.4747-10.462 0.18359-11.885 0.75345-0.40323 1.4917-0.61371 2.1973-0.66211zm-278.5 4e-3c5.3769-1.3495 8.6442 7.346 4.3672 11.623-2.4072 2.4072-4.3224 2.535-6.4277 0.42969-3.8097-3.8097-2.6004-10.883 2.0605-12.053zm58.59 4.2656c0.91835-0.63237 2.4516-0.52734 4.9062 0.10547 3.9773 1.0254 5.2129 4.7974 2.2754 6.9453-4.1916 3.065-8.4043 1.6997-8.4043-2.7246 0-2.323 0.3043-3.6938 1.2227-4.3262zm-166.14 2.2969c1.193 0.26461 1.9158 1.2334 1.7344 2.8106-0.26382 2.2928-0.85877 2.8028-3.5742 3.0644-3.9813 0.38368-5.6294-2.3264-2.7129-4.459 1.6971-1.241 3.3597-1.6806 4.5527-1.416zm-104.08 0.06046c1.718 0 2.0714 0.51362 1.8164 2.6426-0.35949 3.0017-3.5268 4.6591-6.125 3.2051-3.5516-1.9876-0.70771-5.8477 4.3086-5.8477zm296.22 0.19531c0.65689 0.31226 0.76466 1.1202 0.59961 2.5547-0.26142 2.272-0.86511 2.8035-3.4727 3.0566-4.9046 0.47607-5.7727-3.9221-1.0254-5.1953 2.0348-0.54571 3.2416-0.72827 3.8984-0.41602zm107.44 0.0176c0.38544 0.28969 0.33441 1.0069 0.17578 2.3965-0.27957 2.449-0.82899 2.9392-3.5879 3.2051-6.1638 0.59402-5.619-4.1899 0.61914-5.4375 1.5856-0.31712 2.4075-0.45375 2.793-0.16406zm-360.15 0.15039c1.0021 0.38453 1.5108 1.5001 1.3144 2.8828-0.46129 3.2485-7.8203 3.9947-7.8203 0.79297 0-2.3803 3.9964-4.6387 6.5059-3.6758zm477 0c1.0021 0.38453 1.5108 1.5001 1.3144 2.8828-0.46129 3.2485-7.8203 3.9947-7.8203 0.79297 0-2.3803 3.9964-4.6387 6.5059-3.6758zm-87.375 3.7773c-0.47332 0.0544-0.9434 0.27153-1.3555 0.6836-0.7872 0.7872-0.73557 1.519 0.18555 2.6289 1.0438 1.2577 0.99032 1.9722-0.29102 3.9277-0.86141 1.3147-1.2579 2.6991-0.88086 3.0762 1.0654 1.0654 5.1991-4.6837 5.2051-7.2383 4e-3 -1.9351-1.4433-3.2414-2.8633-3.0781zm-241.37 21.27c-2.5924 0.57426-4.7578 3.3036-4.7578 6.6719 0 1.055-0.675 1.918-1.5 1.918-0.83333 0-1.5 0.88889-1.5 2 0 1.1893 0.6666 2 1.6445 2 1.4197 0 1.5611 0.88883 1.0371 6.5-0.59806 6.4045-0.57074 6.5 1.8555 6.5 2.364 0 2.4629-0.25982 2.4629-6.5 0-5.8333 0.20513-6.5 2-6.5 1.3333 0 2-0.66667 2-2s-0.66667-2-2-2c-2.676 0-2.7341-3.9943-0.0684-4.6914 2.4526-0.64138 3.394-2.969 1.4961-3.6973-0.8947-0.34333-1.8058-0.39259-2.6699-0.20117zm-199.01 0.4707c-4.1068-0.38927-6.75 1.8404-6.75 5.6934 0 1.3512-0.76726 2.3925-2 2.7148-1.1 0.28766-2 1.0157-2 1.6172s0.9 1.0938 2 1.0938c1.8095 0 2 0.66667 2 7 0 5.5556 0.30952 7 1.5 7s1.5-1.4444 1.5-7c0-6.3333 0.19048-7 2-7 1.1111 0 2-0.66667 2-1.5 0-0.84941-0.89626-1.5-2.0664-1.5-3.0819 0-2.3281-5.3737 0.81641-5.8203 2.3708-0.3367 3.1362-2.0964 1-2.2988zm166.64 0.11914c-2.4361 0-2.5794 0.25937-2.2226 4 0.37619 3.9449 0.33517 4-2.9609 4-8.1462 0-11.947 8.9761-6.4512 15.236 1.1668 1.3291 3.0152 1.7136 7.8828 1.6406l6.3574-0.0957v-24.781zm224.11 0c-1.2533 0-1.5 2.0556-1.5 12.5s0.24667 12.5 1.5 12.5c1.18 0 1.5-1.3913 1.5-6.5215 0-12.098 8.257-12.215 8.7949-0.125 0.44863 10.083 3.2051 9.4548 3.2051-0.73047 0-8.8835-0.982-10.111-7.5078-9.375l-4.4922 0.50586v-4.377c0-3.2241-0.39513-4.377-1.5-4.377zm-53.053 0.17578c-0.85405 0.17782-1.529 0.66172-1.5 1.0742s0.0527 5.8974 0.0527 12.188v11.436l3.25 0.32812c1.7875 0.18086 4.5978-0.0145 6.2441-0.43555 1.6464-0.421 3.0563-0.76562 3.1348-0.76562s0.8817-1.5571 1.7852-3.4609c3.4721-7.317-1.5228-14.516-8.6543-12.471-2.721 0.78037-2.7598 0.73017-2.7598-3.7109 0-3.5434-0.33098-4.436-1.5527-4.1816zm42.053 2.8242c-0.93333 0-1.5 0.94444-1.5 2.5s-0.56667 2.5-1.5 2.5c-0.825 0-1.5 0.675-1.5 1.5s0.675 1.5 1.5 1.5c1.1609 0 1.5 1.3119 1.5 5.8008 0 3.19 0.53922 6.34 1.1992 7 1.4493 1.4493 6.8008 1.6059 6.8008 0.19922 0-0.55-0.88419-1-1.9648-1-2.5675 0-4.0352-2.8852-4.0352-7.9336 0-3.6701 0.24326-4.0664 2.5-4.0664 1.5556 0 2.5-0.56667 2.5-1.5 0-0.83333-0.88889-1.5-2-1.5-1.4667 0-2-0.66667-2-2.5 0-1.5556-0.56667-2.5-1.5-2.5zm-344.15 4.2363c-1.1814-0.26152-3.6462 2.9443-4.8086 7.0137l-1.7852 6.25-1.7051-6c-2.385-8.3943-4.9761-8.7584-7.4082-1.043-2.1508 6.8231-2.2165 6.823-4.1875 0.043-1.3717-4.7183-1.9435-5.5-4.0273-5.5-2.9478 0-2.9582-0.66821 0.10742 7.6309 1.3955 3.778 2.7316 7.4316 2.9688 8.1191 1.1571 3.3538 4.1679 1.1267 5.8984-4.3633 1.966-6.237 2.7062-6.0973 4.5781 0.86328 2.232 8.2999 11.164-1.0151 11.027-11.5-0.0125-0.95414-0.26441-1.4265-0.65821-1.5137zm11.727 0.0586c-7.0107 0.0125-11.425 9.2972-5.7891 15.455 2.7585 3.0138 12.711 3.3671 12.711 0.45117 0-1.4717-0.64551-1.7252-3.5449-1.3867-2.4385 0.28468-4.1548-0.1381-5.5-1.3555-3.0674-2.776-2.3666-3.459 3.5449-3.459 7.0156 0 8.2644-6.6188 1.7188-9.1074-1.0858-0.41282-2.1391-0.59945-3.1406-0.59766zm255.54 0.10547c-7.8288 0.342-11.998 13.009-3.6152 17.33 5.3516 2.7586 12-1.8684 12-8.3516 0-4.6219-1.2912-6.842-4.832-8.3086-1.2419-0.5144-2.4343-0.71878-3.5527-0.66992zm-199.22 0.0371c-9.0471 2.2707-10.018 14.703-1.3945 17.855 6.4738 2.3666 13.345-4.6109 11.359-11.535-1.1406-3.977-6.2895-7.2428-9.9648-6.3203zm163.06 0.14844c-7.205 0.57886-11.751 12.216-4.5762 16.408 3.2668 1.9088 12.119 1.2279 12.119-0.93164 0-1.6578-0.50886-1.8544-3.5234-1.3652-2.5747 0.41782-4.0548 0.0911-5.5-1.2168-3.0904-2.7968-2.3984-3.4805 3.5234-3.4805 7.4537 0 8.2783-6.2335 1.1816-8.9316-1.1114-0.42255-2.1953-0.56512-3.2246-0.48242zm-287.96 0.01367c-8.7394 0-12.136 14.132-4.1856 17.414 5.6297 2.3238 11.686-2.1214 11.686-8.5781 0-5.7891-2.586-8.8359-7.5-8.8359zm385.89 0c-8.8212 0-11.994 13.489-3.9922 16.973 1.7052 0.74231 3.1458 1.3672 3.2012 1.3887 1.2398 0.48153 6.4642-2.7164 7.4512-4.5606 3.5208-6.5786 0.0358-13.801-6.6602-13.801zm-184.7 0.0957c-1.4968 0.35539-2.9567 1.1227-4.1914 2.3574-3.0252 3.0252-2.7892 10.488 0.41406 13.082 3.1408 2.5432 12.38 2.3303 12.879-0.29688 0.26342-1.3866-0.32641-1.5764-3.5606-1.1426-2.8188 0.37809-4.336 0.0625-5.5566-1.1582-2.7756-2.7756-1.9543-3.5371 3.8203-3.5371 5.4141 0 5.5-0.046 5.5-2.9277 0-4.8077-4.8142-7.4431-9.3047-6.377zm31.758 0.0957c-1.4947 0.38656-2.925 1.2193-4.082 2.5644-4.2718 4.9663-1.8961 14.005 3.8984 14.828 4.6125 0.65553 8.7305-0.34391 8.7305-2.1191 0-1.3242-0.66015-1.6214-2.8848-1.2949-3.398 0.49873-7.1152-1.2275-7.1152-3.3047 0-1.1089 1.3365-1.4648 5.5-1.4648 5.132 0 5.5-0.15931 5.5-2.3887 0-5.1192-5.0627-7.98-9.5469-6.8203zm41.797 0.0527c-9.6154-0.85454-12.754 4.919-5.25 9.6562 5.0376 3.1801 5.0694 4.5 0.10742 4.5-2.538 0-4.0935 0.52211-4.4688 1.5-0.72941 1.9008 9.292 2.1709 11.162 0.30078 2.8682-2.8682-0.97667-9.8007-5.4356-9.8007-0.75083 0-1.3652-0.675-1.3652-1.5 0-1.0476 1.0556-1.5 3.5-1.5 3.6674 0 5.2451-2.8456 1.75-3.1562zm62.061 0.15629c-0.97857 0-1.3078 0.56616-0.91797 1.582 0.33385 0.86998 0.60742 4.695 0.60742 8.5 0 5.4828 0.31121 6.918 1.5 6.918 1.1786 0 1.5-1.385 1.5-6.4648 0-6.8142 1.732-9.342 5.4277-7.9238 1.0279 0.39445 1.5723 0.0466 1.5723-1.0039 0-1.9431-3.9897-2.1839-5.9258-0.35742-1.06 1-1.4165 1-1.7832 0-0.25209-0.6875-1.1425-1.25-1.9805-1.25zm-233.09 0.17188-6.7207 0.0605 0.30664 12.385c0.32356 13.045 5.1934 20.865 5.1934 8.3399 0-2.655 0.42931-3.9894 1.25-3.8828 8.6482 1.123 13.989-7.687 8.7207-14.385-1.8328-2.33-2.6802-2.573-8.75-2.5176zm-18.512 0.0293c-6.219 0.36698-7.8819 2.7988-1.9141 2.7988 2.2868 0 4.4822 0.62908 5.1953 1.4883 1.3444 1.6199 1.1253 1.771-4.2285 2.9434-3.7304 0.81686-6.2702 4.7521-4.8184 7.4648 0.93112 1.7398 2.0147 2.0146 7.5723 1.9199l6.4844-0.11134v-6.7812c0-8.6535-1.2649-10.137-8.291-9.7227zm59.312 0.0312-6.8223 0.125v8.3223c0 8.1166 0.0593 8.3203 2.4004 8.3203 2.2846 0 2.4004-0.30833 2.4004-6.4316 0-5.6046 0.26446-6.5176 2.0488-7.084 3.4801-1.1046 4.9512 1.186 4.9512 7.707 0 5.542 0.14805 5.9267 2.1797 5.6289 2.0312-0.29771 2.1621-0.79722 1.9219-7.3105-0.33163-8.9926-0.76011-9.4316-9.0801-9.2774zm106.78 0.0117-6.6699 0.10156 0.0234 8.3262c0.0227 8.1299 0.0796 8.3281 2.4356 8.3281 2.3009 0 2.4141-0.29854 2.4141-6.4316 0-5.6046 0.26446-6.5176 2.0488-7.084 3.4679-1.1007 4.9512 1.1894 4.9512 7.6387 0 5.2109 0.22685 5.877 2 5.877 1.8193 0 2-0.66606 2-7.377 0-8.9825-0.51822-9.5106-9.2031-9.3789zm132.75 1.4531c2.891-0.87135 6.4551 2.1152 6.4551 6.8028 0 2.255-0.53922 4.6408-1.1992 5.3008-4.9927 4.9927-11.377-3.1193-7.7656-9.8672 0.65712-1.2278 1.5461-1.9458 2.5098-2.2363zm-383.05 0.0977c0.95957 0.26662 1.8373 0.95158 2.4726 2.1387 1.4047 2.6248 1.3092 8.394-0.16406 9.8672-3.5284 3.5284-8.8008 0.35264-8.8008-5.3008 0-4.532 3.6135-7.5049 6.4922-6.7051zm322.97 0.20509c4.5329 0 7.0744 6.2524 4.498 11.066-2.5795 4.8199-9.1641 1.5385-9.1641-4.5664 0-4.2345 1.6254-6.5 4.666-6.5zm39.844 0.17773c5.087-0.58329 7.621 5.3454 4.6543 10.889-1.2182 2.2762-6.7408 2.6828-7.5566 0.55664-1.6566-4.317 0.0689-11.12 2.9024-11.445zm-259.01 0.82227c4.2742 0 6.6494 6.6514 3.5 9.8008-3.3053 3.3053-5.8008 1.4551-5.8008-4.3008 0-5.0725 0.17957-5.5 2.3008-5.5zm21.336 0.0527c1.3272 0.0736 2.7041 0.71488 3.3281 1.8809 1.3889 2.5953 1.3102 6.393-0.16406 7.8672-4.1663 4.1663-8.6584-1.7949-6.1934-8.2188 0.42511-1.1078 1.7021-1.6029 3.0293-1.5293zm108.26 0.10938c2.347-0.33329 4.4354 1.4927 3.4785 3.041-0.27117 0.43876-1.8499 0.79688-3.5078 0.79688-3.7319 0-3.7067-3.3074 0.0293-3.8379zm-165.76 0.0488c1.2863 0.2357 2.4759 0.97002 2.6797 2.0391 0.26729 1.4024-0.37471 1.75-3.2383 1.75-3.6728 0-4.1654-0.5186-2.6953-2.8379 0.5859-0.92435 1.9676-1.1869 3.2539-0.95117zm134.37 0.21094c1.5247-0.0771 2.9941 0.42479 2.9941 1.5781 0 0.96974-1.1787 1.6135-3.3359 1.8203-2.7746 0.26595-3.2778 0.0133-2.9863-1.5 0.2243-1.1647 1.8034-1.8213 3.3281-1.8984zm-19.982 0.07818c2.9044 0 2.9766 0.1201 2.9766 5 0 6.1103-4.3627 8.0893-6.6699 3.0254-1.8649-4.093-0.0558-8.0254 3.6934-8.0254zm104.98 0c2.036 0 3.0797 0.55139 3.3106 1.75 0.27122 1.4084-0.37583 1.75-3.3106 1.75s-3.5818-0.34165-3.3106-1.75c0.23083-1.1986 1.2746-1.75 3.3106-1.75zm-199.85 5.5c0.97088 0 1.3784 0.7817 1.1699 2.25-0.43448 3.0593-5.8203 3.9142-5.8203 0.92383 0-1.9458 1.7983-3.1738 4.6504-3.1738zm71.76 3.3047c-1.4552 0.53312-2.5807 2.7843-1.4551 4.1406 1.0541 1.2701 0.9898 1.9897-0.35938 4.0488-1.24 1.8924-1.3217 2.5059-0.33398 2.5059 3.0167 0 6.1291-9.0218 3.6426-10.559-0.48669-0.30079-1.0091-0.31443-1.4941-0.13672zm141.8 0.0215c-1.4312-0.39824-2.2091 1.1899-1.6562 4.1367 0.36966 1.9704 0.1805 3.5812-0.46875 3.9824-0.5994 0.37044-1.0898 1.1339-1.0898 1.6973 0 2.0715 2.5561 0.11856 4.4922-3.4316 1.8502-3.3928 1.8747-3.7718 0.3457-5.3008-0.59753-0.59753-1.146-0.95124-1.623-1.084zm130.79 0.17381c-0.825 0-1.6499 1.0534-1.832 2.3398-0.25684 1.8138 0.0799 2.2598 1.5 1.9863 2.2012-0.42391 2.5008-4.3262 0.33203-4.3262zm-310.58 37.828c-0.46951-0.13531-0.93527 1.4775-1.2227 5.3184-0.28151 3.7625-0.46134 3.9686-3.1348 3.5762-8.4864-1.2455-13.442 12.877-5.8106 16.559v2e-3c2.9708 1.433 4.4443 1.4483 7.0117 0.0742 1.6056-0.85952 2.2315-0.85811 2.5195 6e-3 1.2565 3.7694 2.2129-1.6343 2.2129-12.506 0-7.721-0.79366-12.804-1.5762-13.029zm379.02 0.2168c-0.49672-0.20889-0.97014 1.2993-1.2422 4.998-0.29144 3.9626-0.36608 4.0369-3.6934 3.6484-7.5963-0.88682-11.683 9.7275-5.9512 15.459 2.0759 2.0759 3.1621 2.4381 5.75 1.9219 1.7549-0.35005 4.0914-0.63512 5.1914-0.63477 1.9021 6e-4 1.9904-0.59776 1.7949-12.219-0.12961-7.7061-1.0217-12.826-1.8496-13.174zm-362.88 0.0215c-0.82444-0.077-1.5606 4.7186-1.5606 12.85 0 14.559 2.6144 19.318 3.2051 5.834l0.29492-6.75 3.7168-0.30859c4.3289-0.35918 5.2491 1.4871 4.6289 9.2852-0.30102 3.7848-0.0738 4.5234 1.3965 4.5234 2.4874 0 2.5726-12.444 0.10351-15.172-1.7836-1.9708-5.9213-2.3865-8.3457-0.83984-1.2361 0.78855-1.588 0.13801-2-3.6894-0.41835-3.8862-0.94479-5.6863-1.4394-5.7324zm143.4 0.0859c-0.64081 4e-5 -1.2745 4.366-1.3516 13.098-0.0909 10.301 0.13172 12.25 1.4004 12.25 1.2713-1.1e-4 1.4838-1.9272 1.3516-12.25-0.11189-8.7317-0.75958-13.098-1.4004-13.098zm-269.46 0.34768c-1.2533 0-1.5 2.0556-1.5 12.5 0 11.237 0.17676 12.5 1.75 12.502 1.494 2e-3 1.75-0.98572 1.75-6.75v-6.752h8l0.29492 6.75c0.4322 9.8662 3.2051 9.7125 3.2051-0.17773 0-9.2619-3.6027-12.496-10.066-9.0371-1.7933 0.95975-1.9336 0.66826-1.9336-4 0-3.809-0.36527-5.0352-1.5-5.0352zm379.32 0.2168c-1.1542-0.23212-1.4022 1.9848-1.3672 12.25 0.0357 10.455 0.29172 12.533 1.543 12.533 2.1525 5e-4 1.9798-24.35-0.17578-24.783zm-358.83 1.3223c-0.7791 0.083-1.6096 0.70658-1.8203 1.8008-0.25736 1.3364 0.14993 1.7437 1.4863 1.4863 1.0124-0.19498 1.8398-1.0224 1.8398-1.8398 0-1.0718-0.72676-1.5303-1.5059-1.4473zm304 0c-0.7791 0.083-1.6096 0.70658-1.8203 1.8008-0.25736 1.3364 0.14993 1.7437 1.4863 1.4863 1.0124-0.19498 1.8398-1.0224 1.8398-1.8398 0-1.0718-0.72676-1.5303-1.5059-1.4473zm-337.81 0.92969c-4.1243-0.0615-8.189 0.26237-8.2051 1.0312-0.0115 0.55 1.5635 1.1398 3.5 1.3106l3.5215 0.31054v9.9395c0 8.3559 0.24959 9.9394 1.5664 9.9394 1.3386 0 1.5204-1.4548 1.25-10.002l-0.31641-10.002 3.834 2e-3c2.6229 1e-3 3.7011-0.39275 3.416-1.248-0.25765-0.77296-4.4421-1.2198-8.5664-1.2812zm98.682 5.1367c-0.89272 0.16944-1.707 4.0838-1.707 9.4043 0 6.2381 0.31043 7.9902 1.4199 7.9902 1.0647 0 1.4219-1.4551 1.4219-5.8008 0-6.2398 1.1091-8.1992 4.6406-8.1992 1.2326 0 2.521-0.45393 2.8633-1.0078 0.97714-1.581-2.3804-2.3702-5.002-1.1758-1.725 0.78594-2.4711 0.7742-2.7441-0.0449-0.28745-0.86235-0.595-1.2225-0.89258-1.166zm109.1 0.19141c-1.0978-3.7e-4 -2.4181 0.31377-3.998 0.91015-1.6379 0.61824-2.9648 0.71161-2.9648 0.20703 0-0.50223-0.58875-0.91406-1.3086-0.91406-0.98038 0-1.2941 2.133-1.25 8.5 0.0512 7.4061 0.2838 8.5 1.8086 8.5 1.4862 6e-5 1.75-0.97451 1.75-6.4648 0-7.1434 1.4805-9.0614 5.75-7.4492 2.017 0.76163 2.25 1.527 2.25 7.3828 0 5.2189 0.31094 6.5312 1.543 6.5312 1.2816 0 1.4927-1.305 1.25-7.7285-0.25054-6.6301-1.5368-9.4735-4.8301-9.4746zm223.32 8e-3c-0.67182-0.45651-3.0016 2.8378-4.3262 6.8184l-2.2363 6.7226-2.209-5.9219c-1.3042-3.497-2.8861-6.0572-3.8613-6.248-2.1319-0.41729-2.1614-0.5822 1.3477 7.6641 3.6501 8.5776 3.7308 10.635 0.5 12.752-1.375 0.90093-2.5 2.0367-2.5 2.5234 0 1.3491 3.7745 1.0544 4.6777-0.36523 0.77008-1.2103 8.2376-20.358 8.6289-22.125 0.24328-1.0989 0.20245-1.6681-0.0215-1.8203zm39.529 0.13476c-0.87655 0.2556-1.2761 3.615-1.0137 9.3106 0.47838 10.382 2.9614 11.112 3.4043 1l0.29492-6.75 3.6289-0.30273c4.2698-0.3567 5.1444 1.4773 4.3672 9.1582-0.39699 3.9234-0.19987 4.6445 1.2676 4.6465 1.5257 2e-3 1.697-0.91813 1.4062-7.5586-0.38785-8.8581-2.4066-10.926-8.4394-8.6484-2.4399 0.92095-3.2939 0.91034-3.8867-0.0488-0.39136-0.63323-0.73711-0.89184-1.0293-0.80664zm-424.4 0.0293c-1.9462 0.11334-4.1969 0.81586-5.4121 2.0311-3.1082 3.1082-2.1885 5.416 3.1641 7.9434 5.2958 2.5006 4.9978 5.0566-0.58984 5.0566-4.3202 0-6.0696 1.2301-3.3242 2.3379 2.7129 1.0947 6.6384 0.57155 8.7891-1.1699 3.0556-2.4742 2.0797-6.461-1.9941-8.1484-6.3048-2.6115-6.1529-6.7332 0.20508-5.5723 1.984 0.36227 2.75 0.0915 2.75-0.97266 0-1.1443-1.6417-1.6194-3.5879-1.5059zm135.83 0.03106c-7.8506 0-9.5092 5.8831-2.7305 9.6856 5.2388 2.9386 5.149 4.7299-0.25781 5.1211-4.1227 0.29829-5.5494 1.5026-3 2.5312 4.4235 1.7849 10.75-1.0199 10.75-4.7656 0-1.5974-4.1442-5.1652-7.082-6.0977-1.0546-0.33473-1.918-1.255-1.918-2.043 0-1.4624 0.66851-1.7146 4.9121-1.8535 4.3056-0.14092 3.6686-2.5781-0.67383-2.5781zm134.17 0.0156c-8.0506-0.0398-10.677 13.882-3.1992 16.961 3.0939 1.2741 9.0422 0.82153 9.5508-0.72656 0.28269-0.86052-0.8397-1.25-3.6016-1.25-4.106 2e-5 -7.1543-1.9488-7.1543-4.5722 0-1.0659 1.404-1.4277 5.5312-1.4277 6.1415 0 7.4573-1.2607 5.3965-5.1719-1.6297-3.093-2.831-3.7942-6.5234-3.8125zm-88.758 0.0527c-3.4291-0.71035-7.3509 0.9801-9.2754 5.5859-1.6437 3.9338-1.0993 6.7992 1.918 10.096 4.8189 5.265 13.612 0.85232 13.68-6.8652 0.0439-4.9954-2.8932-8.1061-6.3223-8.8164zm125.98 0.0156c-1.5652-0.23533-3.2595 0.0324-4.5918 0.875-0.92287 0.58368-1.9249 0.54594-2.7051-0.10156-2.2776-1.8903-2.8305-0.11419-2.502 8.0449 0.43064 10.693 2.9259 11.688 3.3789 1.3477l0.29492-6.7499h8v6.752c0 5.7643 0.25595 6.752 1.75 6.75 2.3788-2e-3 2.5285-11.445 0.19336-14.779-0.81649-1.1657-2.2531-1.9033-3.8184-2.1387zm175.36 0.01c-0.95001 0.13922-1.8597 2.2413-3.4141 7.377l-1.8086 5.9727-2.1699-5.8144c-1.1934-3.1981-2.9388-6.2454-3.8789-6.7715-2.3501-1.3152-2.1878-0.29365 1.291 8.1426 3.6473 8.8448 3.7125 10.487 0.5 12.592-1.375 0.90093-2.5 2.0367-2.5 2.5234 0 4.7857 5.2731-0.19594 7.5312-7.1152 0.98723-3.025 2.8328-7.7411 4.1016-10.48 1.4892-3.2155 1.9618-5.3234 1.3359-5.9492-0.35049-0.35049-0.67161-0.52297-0.98828-0.47656zm-495.53 0.082c-0.85405 0.17782-1.5291 0.66172-1.5 1.0742 0.029 0.4125 0.0527 4.125 0.0527 8.25 0 6 0.3 7.5 1.5 7.5 1.2167 0 1.5-1.6202 1.5-8.5742 0-7.2225-0.24458-8.5224-1.5527-8.25zm304 0c-0.85405 0.17782-1.529 0.66172-1.5 1.0742s0.0527 4.125 0.0527 8.25c0 6 0.3 7.5 1.5 7.5 1.2167 0 1.5-1.6202 1.5-8.5742 0-7.2225-0.24458-8.5224-1.5527-8.25zm-266.21 0.01c-8.017-0.77231-12.332 10.035-6.0996 15.279 2.1988 1.8502 4.0494 2.5501 6.1738 2.3379 4.5212-0.45153 4.5439-2.6134 0.0312-2.9883-7.8864-0.65514-8.7791-10.786-1.041-11.814 4.7043-0.62498 5.2928-2.3947 0.93555-2.8144zm306.12 6e-3c-3.0839-0.038-5.8564 0.49633-5.7598 1.6328 0.055 0.64717 0.1675 6.3889 0.25 12.76 0.15026 11.603 2.2275 16.392 2.9473 6.7949 0.29053-3.8744 0.37644-3.9576 3.6934-3.5703 7.2335 0.84447 11.871-10.447 6.498-15.82-1.1494-1.1494-4.545-1.7589-7.6289-1.7969zm-293.65 4e-3c-5.4009 0.39192-5.0503 2.2062 0.50586 2.623 6.8124 0.51104 7.4731 3.4569 1.0449 4.6582-6.2156 1.1615-8.9079 6.8204-4.5117 9.4844 0.9625 0.58325 3.1 0.78036 4.75 0.4375 1.65-0.34285 3.9-0.58672 5-0.54102 1.857 0.0771 1.9756-0.45156 1.6699-7.3945-0.37947-8.6181-1.4383-9.777-8.459-9.2676zm79.062 0c-5.8563 0.43296-6.2476 2.8041-0.46289 2.8041 6.9078 0 7.542 3.0465 0.92968 4.4648-5.8148 1.2472-8.5519 7.0348-4.4902 9.4961 0.9625 0.58325 3.1 0.78036 4.75 0.4375 1.65-0.34285 3.904-0.58767 5.0078-0.54297 1.7951 0.0727 2.0252-0.60812 2.1875-6.4492 0.22979-8.2698-1.6373-10.676-7.9219-10.211zm294 0c-5.9266 0.43816-6.2283 2.8041-0.35742 2.8041 2.5208 0 4.584 0.18796 4.584 0.41797 0 0.23002 0.24967 1.0684 0.55469 1.8633 0.406 1.058-0.51345 1.6157-3.4297 2.082-6.4639 1.0336-9.7672 6.9339-5.375 9.5996 0.9625 0.58413 3.1 0.81683 4.75 0.51758s3.9338-0.54011 5.0762-0.53711c1.8818 6e-3 2.0877-0.6103 2.1777-6.543 0.12565-8.2861-1.7368-10.667-7.9805-10.205zm-51.566 4e-3c-5.8002 0.38218-6.8377 2.5421-1.2578 2.6191 7.1703 0.099 8.7125 3.5001 2.0684 4.5625-5.5626 0.8895-7.9885 4.4864-5.543 8.2188 1.4437 2.2034 2.1868 2.5018 4.8652 1.9453 1.7386-0.36124 4.1727-0.67983 5.4102-0.70703 2.1086-0.0463 2.25-0.47888 2.25-6.873 0-8.5453-1.3143-10.192-7.793-9.7656zm-136.63 6e-3c-5.7846 0.43418-5.9217 2.7949-0.1621 2.7949 2.5208 0 4.584 0.18796 4.584 0.41797 0 0.23002 0.24967 1.0684 0.55469 1.8633 0.406 1.058-0.51345 1.6157-3.4297 2.082-6.4634 1.0335-9.7683 6.9354-5.375 9.5977 0.9625 0.58325 3.1 0.78036 4.75 0.4375 1.65-0.34285 3.9-0.58767 5-0.54297 1.8322 0.0745 1.9901-0.51705 1.873-7.0606-0.14954-8.3634-1.5285-10.06-7.7949-9.5898zm275.22 0.0645c-4.7967-0.77754-10.801 2.8971-10.801 8.2023 0 3.0809 2.4079 8.1249 4.2285 8.8574 8.6588 3.4838 16.513-7.3039 10.699-14.695-1.0638-1.3524-2.528-2.1064-4.127-2.3652zm-297.52 0.082c-0.82293 0.32008-0.15156 3.0444 2.0586 8.6426 2.4526 6.2122 5.6562 10.534 5.6562 7.6309 0-0.20633 1.5798-3.8412 3.5098-8.0762 2.7695-6.0772 3.1669-7.6296 1.8867-7.373-0.93328 0.18703-2.5887 2.8719-3.8984 6.3242l-2.2774 6-1.1367-3c-2.9372-7.7472-3.5371-9.0454-4.4785-9.6836-0.60502-0.41014-1.046-0.57154-1.3203-0.46485zm321.21 0.18946c-0.73418-0.27149-1.4721 2.0684-1.6973 7.209l-0.29492 6.7492h-7l-0.5-6.7656c-0.66907-9.0528-2.4227-9.1141-2.791-0.0977-0.2312 5.6601 0.0597 7.4894 1.4102 8.8398 1.2143 1.2143 2.5903 1.5259 4.793 1.084 1.6988-0.34083 4.2129-0.6078 5.5879-0.5918 2.4875 0.0289 2.4984-0.01 2.1738-7.9688-0.21625-5.3038-0.94746-8.1875-1.6816-8.459zm-263.95 0.11328c-1.1779-0.452-1.5133 0.82058-1.75 6.6426l-0.29297 7.2023-3.25 0.3125c-3.8478 0.37098-5.25-2.1314-5.25-9.377 0-3.3065-0.38722-4.4356-1.5234-4.4356-2.3751 0-1.3249 13.9 1.1914 15.768 1.1199 0.83126 2.9976 1.1275 4.832 0.76367 1.65-0.32724 4.0125-0.58552 5.25-0.57422 2.8231 0.0257 3.5656-15.239 0.79297-16.303zm192.92 1.1777c2.9462-0.92559 5.7012 2.329 5.3496 7.8398-0.30471 4.7768-0.34839 4.8315-3.9941 5.1348-5.4768 0.45553-7.8527-5.4515-4.2578-10.584 0.91675-1.3088 1.9203-2.0821 2.9023-2.3906zm-377.3 0.33789c2.3256 0.33065 4.588 8.1424 3.3535 11.58-0.57282 1.5952-6.7303 1.633-8.3125 0.0508-3.6325-3.6325 0.0739-12.325 4.959-11.631zm422 0.0234c5.1695-0.59999 7.8881 7.7584 3.8398 11.807-2.4072 2.4072-4.3224 2.535-6.4277 0.42969-3.9603-3.9603-2.3306-11.665 2.5879-12.236zm-225.78 0.0527c2.5149-0.24676 5.6172 1.4818 5.6172 3.8254 0 0.51071-2.025 0.92773-4.5 0.92773-4.615 0-5.7708-1.3308-3.3008-3.8008 0.57101-0.57101 1.3453-0.87113 2.1836-0.95313zm-90.699 0.11914c5.3293-1.3384 8.5657 7.3847 4.3164 11.634-2.4613 2.4613-4.2156 2.5314-6.252 0.25-3.3758-3.782-2.2264-10.84 1.9355-11.885zm152.67 0.31641c1.3514-0.25931 3.0248-0.01 4.375 0.875 3.184 2.0863 3.2132 8.6703 0.0488 10.887-5.1947 3.6385-7.4709 0.46902-6.875-9.5762 0.0686-1.1569 1.0998-1.9262 2.4512-2.1856zm-289.15 6.4375c0.52575 0.3239 0.71414 1.2051 0.94726 2.8809 0.31292 2.2494-0.0361 2.531-3.4805 2.8144-4.8034 0.39528-5.1393-3.5851-0.44141-5.2305 1.5856-0.55532 2.4489-0.78874 2.9746-0.46484zm321.01 0.0762c0.65689 0.31226 0.76466 1.1202 0.59961 2.5547-0.26142 2.272-0.86511 2.8035-3.4727 3.0566-4.9046 0.47607-5.7727-3.9221-1.0254-5.1953 2.0348-0.54571 3.2416-0.72827 3.8984-0.41602zm-242.71 0.16797c1.0021 0.38453 1.5108 1.5001 1.3144 2.8828-0.46129 3.2485-7.8203 3.9947-7.8203 0.79297 0-2.3803 3.9964-4.6387 6.5059-3.6758zm106 0c1.0021 0.38453 1.5108 1.5001 1.3144 2.8828-0.46129 3.2485-7.8203 3.9947-7.8203 0.79297 0-2.3803 3.9964-4.6387 6.5059-3.6758zm188 0c1.0021 0.38453 1.5108 1.5001 1.3144 2.8828-0.46129 3.2485-7.8203 3.9947-7.8203 0.79297 0-2.3803 3.9964-4.6387 6.5059-3.6758zm-22.975 3.2871c-2.0212-0.77559-2.7994 0.85289-2.0469 4.2793 0.36115 1.6443 0.1785 3.1597-0.42579 3.5332-0.5822 0.35982-1.0447 1.4157-1.0273 2.3457 0.0243 1.2987 0.60428 1.0396 2.5-1.1152 2.7391-3.1135 3.2972-8.1614 1-9.043zm-368.03 22.349c-1.0794 0-1.5 1.1043-1.5 3.9375v3.9375l-4.041-0.0566c-8.0921-0.11168-12.118 9.8802-6.3184 15.68 1.0429 1.0429 3.3388 1.4676 7.4336 1.375l5.9258-0.13481v-12.369c0-10.328-0.24751-12.369-1.5-12.369zm90 0c-1.0833 0-1.5 1.1111-1.5 4v4h-4.5156c-8.0769 0-11.764 11.776-5.084 16.234 0.60517 0.40384 3.6871 0.68234 6.8496 0.61914l5.75-0.11524v-12.369c0-10.328-0.24751-12.369-1.5-12.369zm85 0c-1.2533 0-1.5 2.0556-1.5 12.5s0.24667 12.5 1.5 12.5 1.5-2.0556 1.5-12.5-0.24667-12.5-1.5-12.5zm32.373 0c-1.493 0-1.9145 0.4509-1.4805 1.582 0.33385 0.86998 0.60742 6.495 0.60742 12.5v10.918h5.4277c6.5602 0 9.5723-2.8392 9.5723-9.0234 0-6.563-3.7406-9.3-10.393-7.6035l-2.8945 0.73633 0.625-4.5547c0.56904-4.1516 0.43811-4.5547-1.4648-4.5547zm65.627 0c-1.2533 0-1.5 2.0556-1.5 12.5s0.24667 12.5 1.5 12.5 1.5-2.0556 1.5-12.5-0.24667-12.5-1.5-12.5zm-264.94 1c-1.7666 0-2.8956 1.6456-2.0586 3 1.0875 1.7596 3.5 1.0703 3.5-1 0-1.1-0.64887-2-1.4414-2zm98 0c-1.7666 0-2.8956 1.6456-2.0586 3 1.0875 1.7596 3.5 1.0703 3.5-1 0-1.1-0.64887-2-1.4414-2zm210.07 0c-1.8577 0-2.9788 1.6301-2.0996 3.0527 0.90454 1.4636 2.9015 0.62371 3.291-1.3848 0.18707-0.96457-0.31526-1.668-1.1914-1.668zm55.117 0.18945c-1.2278-0.23646-1.75 0.3044-1.75 1.8106s0.52215 2.047 1.75 1.8106c0.9625-0.18536 1.75-1.0006 1.75-1.8106s-0.7875-1.6252-1.75-1.8106zm-256.25 1.8106c-0.93333 0-1.5 0.94444-1.5 2.5s-0.56667 2.5-1.5 2.5c-0.825 0-1.5 0.675-1.5 1.5s0.675 1.5 1.5 1.5c1.1609 0 1.5 1.3119 1.5 5.8008 0 3.19 0.53922 6.34 1.1992 7 1.4493 1.4493 6.8008 1.6059 6.8008 0.19922 0-0.55-0.88419-1-1.9648-1-2.5675 0-4.0352-2.8852-4.0352-7.9336 0-3.8752 0.14512-4.0664 3.084-4.0664 3.5398 0 3.6114-2.3018 0.0879-2.8203-1.5456-0.22742-2.1719-1.0203-2.1719-2.75 0-1.4937-0.57811-2.4297-1.5-2.4297zm241.54 3.0234c-1.0296 0.0267-2.1556 0.35921-2.5371 0.97656-0.33992 0.55-2.585 1-4.9883 1-5.5892 0-7.9305 2.1234-7.0742 6.4121 0.87594 4.387 0.63155 9.9173-0.48633 11.035-1.4677 1.4677-1.1299 4.6992 0.70313 6.7246 4.1458 4.5811 15.346 0.79636 15.346-5.1856 0-3.5077-0.82458-4.0581-7.2695-4.8574-6.0125-0.74572-7.7754-3.1289-2.3144-3.1289 4.8842 0 8.0079-3.1263 7.1934-7.1992-0.48572-2.4286-0.22259-3.0883 1.3965-3.5117 1.0967-0.2868 1.9941-0.9204 1.9941-1.4062 0-0.60746-0.93328-0.88606-1.9629-0.85937zm74.287 1.4121c-0.91534-0.12706-1.8915-0.0799-2.9102 0.17578-7.2972 1.8315-8.8402 14.62-2.0996 17.402 2.8853 1.191 6.6786 0.31181 9.334-2.166 5.5301-5.1603 2.0831-14.523-4.3242-15.412zm-289.68 0.11133c-2.1512 0.0118-4.4077 0.82179-6.1172 2.4277-4.2457 3.9886-3.1763 12.99 1.7871 15.039 8.205 3.3868 15.588-7.974 9.8145-15.104-1.2871-1.5896-3.3332-2.3751-5.4844-2.3633zm84.906 0.37695c-0.40423-0.12307-0.78076-0.0278-1.1133 0.30469-0.26145 0.26145 0.90924 3.7282 2.6016 7.7051 3.4862 8.1923 3.5474 12.089 0.21094 13.553-1.2375 0.54292-2.25 1.5554-2.25 2.25s0.48025 1.2637 1.0664 1.2637c1.8063 0 4.9336-2.0093 4.9336-3.1699 0-0.60512 1.8-5.5868 4-11.07 4.6075-11.484 4.4391-10.76 2.5137-10.76-0.95512 0-2.1179 2.1457-3.25 5.998-2.1638 7.3633-2.3807 7.382-4.7559 0.39453-1.2806-3.7675-2.7443-6.0995-3.957-6.4688zm157.3 0.0547c-3.5839-0.055-6.8813 0.51074-6.4043 1.7539 0.30185 0.78661 0.54883 4.5446 0.54883 8.3496 0 5.4828 0.31121 6.918 1.5 6.918 1.1746 0 1.5-1.3674 1.5-6.3008 0-6.6817 1.0439-8.6992 4.5-8.6992s4.5 2.0175 4.5 8.6992c0 4.9333 0.3254 6.3008 1.5 6.3008 1.7973 0 2.1734-11.872 0.47656-15.043-0.66688-1.2461-4.5372-1.9236-8.1211-1.9785zm-415.47 2e-3c-2.0424-0.15358-4.1863 0.22148-5.1836 1.2188-0.93333 0.93333-1.1992 0.93333-1.1992 0 0-0.66-0.675-1.1992-1.5-1.1992-1.2157 0-1.5 1.6111-1.5 8.5s0.28431 8.5 1.5 8.5c1.1746 0 1.5-1.3674 1.5-6.3008 0-6.6817 1.0439-8.6992 4.5-8.6992s4.5 2.0175 4.5 8.6992c0 4.9333 0.3254 6.3008 1.5 6.3008 1.804 0 2.1705-11.879 0.46484-15.066-0.59792-1.1172-2.5396-1.7995-4.582-1.9531zm-35.928 0.01947c-7.4179 0-11.379 9.2596-6.2812 14.686 2.2624 2.4082 10.826 3.4479 10.826 1.3144 0-0.55-1.2497-1-2.7773-1-4.3204 0-7.2227-2.5729-7.2227-6.4023 0-4.1351 2.9455-7.0321 6.4648-6.3594 1.7092 0.32675 2.5352 0.04092 2.5352-0.87695 0-0.89246-1.2206-1.3613-3.5449-1.3613zm74.92 0c-1.2867 0-1.4949 0.65064-1 3.125 0.34375 1.7188 0.625 5.5819 0.625 8.584 0 3.9236 0.35147 5.3404 1.25 5.0391 1.1102-0.37233 1.3248-4.4856 0.80859-15.498-0.0322-0.6875-0.78984-1.25-1.6836-1.25zm30.08 0c-7.4179 0-11.379 9.2596-6.2812 14.686 2.2624 2.4082 10.826 3.4479 10.826 1.3144 0-0.55-1.2497-1-2.7773-1-4.362 0-7.2227-2.5676-7.2227-6.4844 0-4.1482 2.2064-6.5156 6.0723-6.5156 1.6107 0 2.9277-0.45 2.9277-1s-1.5949-1-3.5449-1zm13.926 0c-3.9692 0-5.4304 0.35342-5.1348 1.2402 0.24557 0.73672 1.8013 1.1346 3.834 0.98243 4.1255-0.30887 6.4326 0.99983 5.5976 3.1758-0.37633 0.98071-1.7895 1.6016-3.6465 1.6016-5.0831 0-8.1214 4.0938-5.9922 8.0723 0.87635 1.6375 1.9667 1.8995 6.998 1.6836l5.9629-0.25586v-6.3164c6e-4 -9.0399-0.85644-10.184-7.6191-10.184zm130.41 0c-1.7226 0-1.7322 0.19258-0.17968 3.75 5.4638 12.52 5.8747 16.359 1.9141 17.879-0.83821 0.32166-1.5234 1.2124-1.5234 1.9785 0 3.6339 5.5139-0.79608 6.6367-5.332 0.37786-1.5265 1.9643-5.7883 3.5254-9.4707 3.1643-7.4639 3.4058-8.8047 1.5879-8.8027-0.6875 7.6e-4 -2.0617 2.7658-3.0547 6.1445-2.0045 6.8209-2.5881 6.7211-5.2539-0.89648-1.3058-3.7314-2.3617-5.25-3.6524-5.25zm103.74 0c-3.0386 0-5.5254 0.45-5.5254 1s1.7443 1 3.877 1c3.9362 0 6.8394 2.0332 5.6504 3.957-0.35481 0.57409-1.8681 1.043-3.3633 1.043-5.5436 0-9.2798 5.4839-5.9824 8.7812 0.67336 0.67336 3.6143 1.1143 6.8398 1.0254l5.6602-0.15625 0.0566-6.0312c0.08981-9.5297-0.65079-10.619-7.2128-10.619zm12.268 0c-2.2552 0-2.3317-0.46466 1.207 7.3398 3.747 8.2639 3.8794 12.038 0.5 14.252-1.375 0.90093-2.5 2.0367-2.5 2.5234s0.48025 0.88477 1.0664 0.88477c2.7347 0 4.9118-2.4154 6.5078-7.2207 0.95718-2.8818 2.7933-7.623 4.082-10.537 2.7001-6.1054 2.8576-7.2422 1.002-7.2422-0.77049 0-2.1109 2.5399-3.1484 5.9668-2.1172 6.9927-2.5308 6.9595-5.0371-0.41407-1.3495-3.9702-2.3977-5.5527-3.6797-5.5527zm17.701 0c-1.4076 0-2.054 13.757-0.76367 16.25 1.3716 2.6502 2.2695-0.41721 2.2695-7.75 0-6.9032-0.28305-8.5-1.5059-8.5zm56.006 0c-1.2157 0-1.5 1.6111-1.5 8.5s0.28431 8.5 1.5 8.5 1.5-1.6111 1.5-8.5-0.28431-8.5-1.5-8.5zm34.316 0c-2.2503 0-2.3593-0.7141 1.1562 7.5293 3.72 8.7229 3.8391 11.893 0.52734 14.062-1.375 0.90093-2.5 2.0367-2.5 2.5234 0 1.287 2.361 1.0831 4.2324-0.36523 0.88831-0.6875 3.252-5.525 5.252-10.75 4.9865-13.027 4.9798-13 3.291-13-0.91297 0-2.1345 2.231-3.2656 5.9668-2.1087 6.9647-2.8207 6.8968-5.1524-0.5-1.2559-3.9841-2.2163-5.4668-3.541-5.4668zm37.684 0c-1.7779 0-2.1482 10.167-0.52539 14.436 0.92065 2.4215 1.3427 2.5564 7.5 2.3867l6.5254-0.17969v-8.3223c0-6.7298-0.28684-8.3203-1.5-8.3203-1.1883 0-1.5 1.4321-1.5 6.8926 0 7.1866-0.57322 8.1074-5.0469 8.1074-2.6852 0-3.9531-3.0258-3.9531-9.4336 0-4.2807-0.34634-5.5664-1.5-5.5664zm26.127 0c-1.2535-0.11734-2.642 0.21469-3.1816 1.0879-0.48382 0.78285-0.97496 0.78285-1.7578 0-2.2098-2.2098-2.6875-0.89367-2.6875 7.4121 0 6.8889 0.28431 8.5 1.5 8.5 1.1786 0 1.5-1.385 1.5-6.4648 0-6.8142 1.732-9.342 5.4277-7.9238 1.0279 0.39445 1.5723 0.0466 1.5723-1.0039 0-0.92372-1.1195-1.4901-2.373-1.6074zm-523.27 0.0254c-2.7694-0.04695-5.3574 0.26439-5.3574 0.9746 0 0.55 1.6875 1.0072 3.75 1.0156 2.0625 8e-3 4.3788 0.41237 5.1465 0.89844 2.0772 1.3153 0.52888 4.0859-2.2832 4.0859-5.4695 0-8.7381 4.0284-6.5644 8.0898 0.88573 1.655 1.9718 1.9232 7 1.7246l5.9512-0.23633v-7.0879c0-4.1807-0.49158-7.5834-1.1992-8.291-0.72245-0.72246-3.674-1.1269-6.4434-1.1738zm74.285 2e-3c-2.2692 0.0463-4.7203 0.4488-5.4434 1.1719-2.5169 2.5169-1.3532 5.5667 3.0508 7.9961 5.6352 3.1084 5.6337 5.3047-2e-3 5.3047-2.7351 0-4.2508 0.44582-4.25 1.25 3e-3 2.4751 8.7594 1.55 10.502-1.1094 2.0224-3.0866 1.2846-4.7069-3.25-7.1406-5.4137-2.9056-5.5672-5.5-0.32422-5.5 2.2403 0 4.0742-0.45 4.0742-1 0-0.70832-2.0882-1.019-4.3574-0.97266zm235.69 0.11328-5.166 0.11719 0.0469 12.371c0.03699 9.7825 0.33319 12.371 1.416 12.371 0.9309 0 1.3691-1.2807 1.3691-4v-4h4.3457c6.7712 0 10.458-6.2308 7.6699-12.961-1.4547-3.512-2.7993-4.0537-9.6816-3.8984zm-150.73 0.0215c-1.6434-0.3165-1.8095 0.0637-1.25 2.8613 0.35489 1.7745 0.64453 5.6835 0.64453 8.6855 0 3.9222 0.35178 5.3404 1.25 5.041 2.2833-0.7611 1.6858-16.139-0.64453-16.588zm54.859 0.0176-6.4648 0.17764v8.3223c0 6.7298 0.28684 8.3203 1.5 8.3203 1.18 0 1.5-1.3913 1.5-6.5215 0-12.098 8.257-12.215 8.7949-0.125 0.42413 9.5323 3.2051 9.6018 3.2051 0.0801 0-9.6237-0.70492-10.47-8.5352-10.254zm167.89 4e-3 -5.9668 0.16407 0.0586 8.3262c0.0499 7.2412 0.2847 8.3261 1.8066 8.3262 1.4984 6e-5 1.75-0.9958 1.75-6.9316 0-6.0544 0.25337-7.014 2-7.5684 5.1991-1.6501 7.0332 1.0988 6.2402 9.3516-0.41237 4.2916-0.22351 5.1484 1.1328 5.1484 1.3559 0 1.627-1.2294 1.627-7.377 0-8.9317-0.66654-9.6594-8.6484-9.4395zm-259.88 0.0996c-4.2459 0.0994-5.4054 0.44735-5 1.5039 0.29032 0.75656 0.52734 4.4899 0.52734 8.2949 0 5.4828 0.31121 6.918 1.5 6.918 1.1786 0 1.5-1.385 1.5-6.4648 0-6.8142 1.732-9.342 5.4277-7.9238 1.0077 0.38671 1.5723 0.0529 1.5723-0.92774 0-1.2047-1.1755-1.5023-5.5273-1.4004zm281.43 1.2637c2.6648 0.58038 4.2909 3.8634 1.9004 6.2539-1.2935 1.2935-5.0482 1.6198-6.1348 0.5332-1.4046-1.4048-0.58218-5.3087 1.334-6.3342 1.0093-0.54014 2.0121-0.64659 2.9004-0.45312zm-208.87 0.13867c3.7324 0.49111 6.646 6.32 3.9375 11.381-0.66182 1.2364-2.0918 1.9334-3.9648 1.9334-4.4449 0-7.1629-8.4386-3.8008-11.801 1.2482-1.2482 2.584-1.6774 3.8281-1.5137zm290.46 0.10937c0.95957 0.26662 1.8373 0.95158 2.4726 2.1387 1.4047 2.6248 1.3092 8.394-0.16406 9.8672-3.5284 3.5282-8.8008 0.35245-8.8008-5.301 0-4.532 3.6135-7.5049 6.4922-6.7051zm-438.27 0.0625c2.6896-1.1124 5.3109 1.2502 5.584 6.0488 0.20758 3.6472-0.11767 5.6748-1 6.2344-5.7328 3.6358-11.327-4.1005-7.2129-9.9746 0.82743-1.1813 1.7324-1.9378 2.6289-2.3086zm220.4 0.1424c4.8264 0 7.4209 7.8056 3.7988 11.428-2.501 2.501-6.3179 1.9936-7.4531-0.99218-2.2531-5.9262-0.67361-10.436 3.6543-10.436zm-128.21 0.19922c3.0707 0.29965 3.0859 0.32903 3.0859 6.3008 0 6.9768-3.1571 8.8429-7.543 4.457-3.9931-3.9931-0.97147-11.288 4.457-10.758zm171.24 0.17187c5.2532-1.3185 9.0799 4.4373 6.2812 9.4473-1.4734 2.6375-6.5601 4.2231-8.2207 2.5625-2.1897-2.1897-0.71163-11.344 1.9395-12.01zm-308.35 6.5469c1.482 0.19205 2.6992 1.0581 2.6992 2.4746 0 1.3162-0.71204 2.6662-1.582 3-4.5216 1.7351-8.0031-0.77956-5.4082-3.9062 1.0614-1.279 2.809-1.7604 4.291-1.5684zm105 0c1.482 0.19205 2.6992 1.0581 2.6992 2.4746 0 1.3162-0.71204 2.6662-1.582 3-4.5216 1.7351-8.0031-0.77956-5.4082-3.9062 1.0614-1.279 2.809-1.7604 4.291-1.5684zm234 0c1.482 0.19205 2.6992 1.0581 2.6992 2.4746 0 1.3162-0.71204 2.6662-1.582 3-4.5216 1.7351-8.0031-0.77956-5.4082-3.9062 1.0614-1.279 2.809-1.7604 4.291-1.5684zm61.576 8.082c6.09 0 8.3313 2.0075 5.6055 5.0195-1.0969 1.212-2.9933 1.9506-4.8867 1.9024-7.9562-0.20295-8.6539-6.9219-0.71875-6.9219zm-357.63 16.998c-1.6911-2e-3 -2.2829 19.393-0.72656 23.814 1.3978 3.9709 2.4766-1.199 2.4766-11.871 0-10.705-0.18115-11.941-1.75-11.943zm55.25 0.00195c-1.5715 0-2.3535 22.814-0.83398 24.334 1.8829 1.8829 2.334-0.40225 2.334-11.834 0-10.444-0.24667-12.5-1.5-12.5zm-117.05 1.4551-4.3633 0.6543v10.609c0 5.8343 0.23304 10.983 0.51758 11.443 0.82171 1.3296 7.1392 0.97393 10.947-0.61719 5.3453-2.2334 6.6253-8.3115 2.2441-10.656-1.8335-0.98126-1.8524-1.1657-0.29492-2.8867 4.2417-4.687-1.1079-9.738-9.0508-8.5469zm96.053 0.04492-0.23047 10.5c-0.12623 5.775-0.0121 11.101 0.25195 11.834 1.0392 2.886 2.9785 0.34704 2.9785-3.8984 0-3.6138 0.35182-4.4403 2-4.6992 5.0751-0.79738 6.5834-1.4096 8.4727-3.4375 4.8496-5.2054 0.97735-10.299-7.8281-10.299zm-46 1.5c-0.93333 0-1.5 0.94444-1.5 2.5s-0.56667 2.5-1.5 2.5c-0.825 0-1.5 0.40143-1.5 0.89258 0 0.49116 0.675 1.1522 1.5 1.4688 1.0674 0.40958 1.5 2.0772 1.5 5.7793 0 3.4378 0.56072 5.8229 1.6543 7.0313 1.9755 2.1829 6.3457 2.4573 6.3457 0.39843 0-0.78675-1.0125-1.5742-2.25-1.75-3.1705-0.45029-3.4892-11.317-0.33203-11.324 1.0549-2e-3 2.1056-0.56483 2.334-1.25 0.26001-0.78002-0.55044-1.2461-2.168-1.2461-2.0889 0-2.584-0.47849-2.584-2.5 0-1.5556-0.56667-2.5-1.5-2.5zm-12.732 0.24805c-0.646 0.0943-1.3524 0.97932-1.5879 2.5801-0.17575 1.1944-0.96325 2.1719-1.75 2.1719-1.8857 0-1.837 1.6294 0.0703 2.3613 1.0456 0.40123 1.5 2.0327 1.5 5.3848 0 2.7339 0.67163 5.7677 1.5566 7.0312 0.88639 1.2655 2.6088 2.2227 4 2.2227 3.1066 0 3.2734-2.7422 0.19336-3.1797-2.0219-0.28715-2.25-0.87795-2.25-5.8203s0.22813-5.5332 2.25-5.8203c3.0612-0.43476 2.861-2.1797-0.24999-2.1797-2.0215 0-2.5-0.49509-2.5-2.584 0-1.5664-0.58642-2.2623-1.2324-2.168zm-34.836 0.75195c4.3301 0 6.3391 2.7657 4.0293 5.5488-2.6538 3.1976-7.9609 1.8316-7.9609-2.0488 0-3.4067 0.10389-3.5 3.9316-3.5zm96.068 0h3.8008c6.12 0 8.4298 4.3242 3.9766 7.4434-4.691 3.2857-7.7773 2.1176-7.7773-2.9434zm30.859 3c-6.9108 0-7.8779 2.7608-1.1192 3.1953 6.4822 0.41673 7.1529 3.1189 1.0918 4.4024-5.6862 1.2041-8.2554 5.1728-5.3945 8.334 2.0436 2.2581 4.6537 2.6263 7.5684 1.0664 1.2524-0.67028 2.0779-0.67028 2.4922 0 1.6195 2.6204 2.502 0.34845 2.502-6.4414 0-8.2403-1.5668-10.557-7.1406-10.557zm22 0.084c-1.5139-0.24814-3.2285 0.042-4.8652 0.91797-1.187 0.63527-2.0893 0.6525-2.4648 0.0449-2.3388-3.7842-4.0676 9.6697-2.0176 15.703 1.1946 3.5157 2.4883 0.5831 2.4883-5.6426 0-7.3316 0.52669-8.1074 5.5137-8.1074 2.904 0 3.7269 2.2697 3.3555 9.2676-0.21434 4.0384 0.0531 5.2324 1.1758 5.2324 2.1957 0 2.5762-11.904 0.48242-15.1-0.83992-1.2819-2.154-2.0683-3.668-2.3164zm-73.359 0.06834c-2.9615-0.53128-6.3461 0.64987-8.0371 3.9199-2.7199 5.2596-1.5692 10.079 3.0371 12.721 2.9561 1.6953 9.1693 1.5104 9.8613-0.29297 0.45452-1.1845-0.29542-1.5-3.5644-1.5-4.2299 0-7.7969-2.1291-7.7969-4.6543 0-0.97723 1.6406-1.3457 6-1.3457 5.7333 0 6-0.11111 6-2.5 0-3.5734-2.5385-5.8164-5.5-6.3477zm-57.096 0.0332c-5.6809 0.47718-5.4842 2.6395 0.27343 3.0078 6.5418 0.41851 7.2482 3.1139 1.1543 4.4043-5.6862 1.2041-8.2554 5.1728-5.3945 8.334 1.9711 2.1781 6.9854 2.8098 8.0918 1.0195 0.44899-0.7268 1.0342-0.72828 1.9023-8e-3 2.017 1.674 2.5684 0.14983 2.5684-7.0879 0-7.9941-1.9838-10.225-8.5957-9.6699zm54.668 2.3516c2.2929-0.38108 4.9277 0.8799 4.9277 2.9414 0 1.1365-1.1385 1.5215-4.5 1.5215-4.9574 0-5.5102-0.77612-2.4961-3.5039 0.57826-0.52332 1.3041-0.83195 2.0684-0.95898zm-76 4.1523c0.85517-0.58165 2.3481-0.38363 4.9043 0.30469 4.2332 1.1399 5.4822 4.1487 2.8242 6.8066-3.1955 3.1955-8.8008 1.4486-8.8008-2.7422 0-2.427 0.21709-3.7875 1.0723-4.3691zm24.678 2.6797c2.9856-0.80011 3.2583 4.0212 0.31641 5.5957-2.5705 1.3757-3.5967 1.306-4.9609-0.33789-1.2955-1.561-0.47018-4.62 1.252-4.6406 0.62865-8e-3 2.1551-0.28555 3.3926-0.61719zm107.92 0.0586c1.9913 0.76414 1.5988 4.3574-0.60547 5.5371-3.1628 1.6927-6.0664 0.40561-6.0664-2.6894 0-1.5567 4.7512-3.5847 6.6719-2.8477zm31.387 3.5723c-2.5212 0-3.541 1.7146-2.0723 3.4844 1.5111 1.8208 4.0137 0.82821 4.0137-1.5918 0-1.2072-0.70366-1.8926-1.9414-1.8926zm-42.309 40c-0.93333 0-1.25 3.1667-1.25 12.5s0.31667 12.5 1.25 12.5 1.25-3.1667 1.25-12.5-0.31667-12.5-1.25-12.5zm48.5 0c-0.93336-3.1e-4 -1.25 3.1664-1.25 12.5 0 9.3333 0.31667 12.5 1.25 12.5 0.93334 8e-5 1.25-3.1668 1.25-12.5 0-9.3329-0.31669-12.5-1.25-12.5zm-114.68 1c-0.92763 0-1.5742 0.85565-1.5742 2.084 0 2.437 2.3377 2.0928 2.8242-0.41601 0.19138-0.98676-0.31876-1.668-1.25-1.668zm347.39 0.24023c-1.1855 0.034-2.2963 1.4213-1.5234 2.6719 0.36954 0.59792 1.0696 1.0879 1.5547 1.0879 1.5446 0 2.2672-2.1332 1.1133-3.2871-0.34488-0.34488-0.74935-0.48397-1.1445-0.47266zm-396.76 0.63282c-5.4987-0.09117-11.205 4.238-11.205 11.211 0 4.4925 2.1053 9.2956 4.75 10.836 9.3295 5.434 20.061-6.6508 14.852-16.725-1.8726-3.6211-5.0973-5.2676-8.3965-5.3223zm303.48 0.11718c-2.3368 0.0338-5.0329 0.56459-6.4688 1.5703-6.7101 4.6999-6.9263 15.636-0.39063 19.752 1.7778 1.1197 4.3495 1.6008 7.6738 1.4356l5-0.24805v-4.75c0-5.9397-1.89-6.7591-2.3066-1-0.33768 4.6671-2.3461 5.5049-7.5352 3.1406-8.6284-3.9314-4.884-18.855 4.418-17.607 2.953 0.39607 3.9238 0.1783 3.9238-0.8789 0-0.98498-1.9776-1.4478-4.3144-1.4141zm-90.49 0.21094-5.6953 0.29883-0.23438 11.25-0.23437 11.25h3.8359c9.888 0 16.15-7.073 10.047-11.348-1.9992-1.4003-2.0149-1.5687-0.38476-4.0566 3.0398-4.6392-0.0701-7.775-7.334-7.3945zm-175.2 0.79883c-0.47694 0-1.0096 1.2375-1.1836 2.75s-0.87891 2.8062-1.5664 2.875c-2.5659 0.25659-2.7118 0.46843-1.1445 1.6621 1.0256 0.78113 1.7807 3.3324 2.0898 7.0606 0.28857 3.4798 1.0539 6.1964 1.8945 6.7285 1.8618 1.1788 5.9102 1.175 5.9102-6e-3 0-0.51175-1.0125-1.0742-2.25-1.25-3.7117-0.52701-3.9991-11.82-0.30078-11.82 3.1482 0 3.3887-1.7411 0.30078-2.1797-1.611-0.2288-2.3398-1.1013-2.5664-3.0703-0.17403-1.5125-0.70665-2.75-1.1836-2.75zm368 0c-0.47694 0-1.0096 1.2375-1.1836 2.75-0.17796 1.5467-0.86337 2.6406-1.5664 2.5-0.6875-0.1375-1.25 0.425-1.25 1.25s0.675 1.5 1.5 1.5c1.1609 0 1.5 1.3119 1.5 5.8008 0 3.19 0.53922 6.34 1.1992 7 1.318 1.318 5.8008 1.6542 5.8008 0.43555 0-0.41958-1.0125-1.2071-2.25-1.75-3.7307-1.6367-3.9182-11.486-0.21875-11.486 1.6592 0 2.4821-0.46182 2.2207-1.2461-0.22839-0.68517-1.279-1.248-2.334-1.25-1.3477-3e-3 -2.012-0.82162-2.2344-2.7539-0.17403-1.5125-0.70665-2.75-1.1836-2.75zm-406.5 1c6.778 0 10.196 10.304 5.4277 16.365-1.5032 1.911-2.9945 2.6348-5.4277 2.6348-4.5309 0-7.5-3.7608-7.5-9.5s2.9691-9.5 7.5-9.5zm213.8 0c5.7451 0 8.0465 5.158 3.1348 7.0254-5.1449 1.9561-6.4356 1.3491-6.4356-3.0254 0-3.8586 0.11745-4 3.3008-4zm346.54 1.9629c-1.1102 0.18113-1.8457 1.1082-1.8457 3.0371 0 0.55 1.9764 1 4.3926 1 3.0932 0 4.5742 0.47012 5.0039 1.5898 0.90493 2.3582-0.16043 3.4102-3.4551 3.4102-5.0884 0-8.8327 5.7082-5.7598 8.7812 0.66827 0.66827 3.5999 1.1166 6.75 1.0312l5.5684-0.15234-0.33984-7.0801c-0.28703-5.9892-6.984-12.161-10.314-11.617zm-428.46 1.873c-0.8255-0.2313-1.3906 2.9783-1.3906 8.6641 0 11.178 2.7269 12.667 3.2051 1.75 0.29182-6.6616 0.33746-6.7628 3.5449-7.707 1.7875-0.52623 3.25-1.3137 3.25-1.75 0-1.2627-4.4682-0.91801-5.9258 0.45703-1.06 1-1.4165 1-1.7832 0-0.32173-0.87743-0.62523-1.337-0.9004-1.4141zm295 0c-0.8255-0.2313-1.3906 2.9783-1.3906 8.6641 0 6.8889 0.28431 8.5 1.5 8.5 1.1901 0 1.5-1.4418 1.5-6.9805 0-6.6107 0.13277-7.0138 2.498-7.6074 4.701-1.1799 5.502-0.0801 5.502 7.5566 0 5.5834 0.30889 7.0312 1.5 7.0312 1.1901 0 1.5-1.4418 1.5-6.9805 0-6.6107 0.13277-7.0138 2.498-7.6074 4.701-1.1799 5.502-0.0801 5.502 7.5566 0 5.5834 0.30889 7.0312 1.5 7.0312 1.7778 0 2.148-10.168 0.52539-14.436-1.079-2.8379-6.513-3.6784-8.8262-1.3652-0.93333 0.93333-1.4651 0.93333-2.3984 0-1.5721-1.5721-7.0404-1.54-8.7266 0.0508-1.06 1-1.4165 1-1.7832 0-0.32173-0.87743-0.62523-1.337-0.9004-1.4141zm46.178 0.0664c-0.38315-0.13883-0.73238-0.0704-1.0312 0.22852-0.20742 0.20742 0.93684 3.4577 2.543 7.2227 3.7156 8.7096 3.7518 11.843 0.16992 14.586l-2.75 2.1055 2.8242-0.27148c2.5948-0.25058 3.1326-1.0849 6.6367-10.273 2.0975-5.5 4.1375-10.788 4.5332-11.75 0.48993-1.1917 0.25844-1.75-0.72656-1.75-0.92299 0-2.1203 2.3535-3.3066 6.502-2.0779 7.2659-2.3969 7.2409-5.0645-0.37695-1.2344-3.5252-2.6787-5.8061-3.8281-6.2227zm-100.43 0.0176c-2.1596-0.023-4.3917 0.70188-5.7344 2.1856-2.8743 3.176-2.6161 10.494 0.45703 12.982 2.5147 2.0363 11.139 2.7426 11.139 0.91209 0-0.55-1.4747-1-3.2773-1-3.6909 0-7.7227-2.3788-7.7227-4.5566 0-0.92305 1.0363-1.4434 2.875-1.4434 8.5355 0 10.858-2.0801 7.5684-6.7773-1.0571-1.5092-3.1451-2.2798-5.3047-2.3027zm-193.95 0.0137c-2.1476-0.0593-4.3552 0.59384-5.6172 1.9883-3.1051 3.431-3.2197 9.5186-0.23633 12.502 2.6485 2.6485 11.666 3.8669 11.666 1.5761 0-0.55-1.4747-1-3.2773-1-3.6909 0-7.7227-2.3788-7.7227-4.5566 0-0.92305 1.0363-1.4434 2.875-1.4434 8.5355 0 10.858-2.0801 7.5684-6.7773-1.0208-1.4575-3.1083-2.2298-5.2559-2.2891zm95 0c-2.1476-0.0593-4.3552 0.59384-5.6172 1.9883-3.1051 3.431-3.2197 9.5186-0.23633 12.502 2.6485 2.6485 11.666 3.8669 11.666 1.5761 0-0.55-1.4747-1-3.2773-1-3.6909 0-7.7227-2.3788-7.7227-4.5566 0-0.92305 1.0363-1.4434 2.875-1.4434 8.5355 0 10.858-2.0801 7.5684-6.7773-1.0208-1.4575-3.1083-2.2298-5.2559-2.2891zm50.564 0c-2.82-0.38855-6.0314 0.767-7.6016 3.75-2.0852 3.9615-1.4265 8.9544 1.4844 11.244 2.7796 2.1864 9.7515 2.8744 10.865 1.0723 0.36999-0.59866-0.88522-1-3.127-1-2.4683 0-4.533-0.74058-6.0586-2.1738-3.211-3.0166-2.9093-3.824 1.4356-3.8398 6.0872-0.0222 8.25-0.94768 8.25-3.5312 0-3.1993-2.428-5.1329-5.248-5.5215zm216.09 8e-3c-3.2117-0.0291-6.687 1.8442-7.7363 5.6445-1.1207 4.0587-0.65752 5.9665 2.2207 9.1641 2.1532 2.392 9.9322 3.2621 11.176 1.25 0.37325-0.60393-0.99005-1-3.4414-1-2.7257 0-4.7156-0.65697-6.0586-2-2.9307-2.9307-2.4653-3.9984 1.75-4.0137 5.8574-0.0213 8.25-0.97009 8.25-3.2734 0-3.8098-2.9484-5.7424-6.1602-5.7715zm-475.41 0.05836c-8.1948 0-12.319 8.0545-7.3555 14.365 4.7991 6.1011 14.201 1.8999 14.201-6.3457 0-5.1518-2.448-8.0195-6.8457-8.0195zm12.965 0c-1.0545 0-1.3983 0.54404-1 1.582 0.33385 0.86998 0.60742 4.7331 0.60742 8.584 0 9.5262 2.2993 8.9557 3-0.74414 0.4843-6.7044 0.58831-6.932 3.3106-7.2442 4.7152-0.54065 5.9516 1.3783 5.4961 8.5312-0.29897 4.6953-0.0717 6.291 0.89648 6.291 1.7285 0 1.8156-14.083 0.0977-15.801-1.4738-1.4738-6.2553-1.5619-8.8672-0.16406-1.3333 0.71358-1.9336 0.71358-1.9336 0-4e-5 -0.56935-0.72361-1.0352-1.6075-1.0352zm24.572 0c-6.056 0-6.6313 1.7653-0.71484 2.1934 5.3491 0.38702 7.2276 4.8066 2.043 4.8066-5.6584 0-9.4492 5.4434-6.1133 8.7793 0.67802 0.67802 3.4425 1.0832 6.5 0.95117l5.3203-0.23047v-6.3164c6.7e-4 -8.8478-0.92291-10.184-7.0352-10.184zm53.438 0c-1.3648 0-1.4957 0.87968-0.89843 6.0254 0.77837 6.7065-0.23411 8.9746-4.0039 8.9746-3.3098 0-4.351-1.8756-4.6934-8.4551-0.18662-3.586-0.79514-6.0476-1.5566-6.2988-1.5798-0.52114-1.757 11.937-0.21094 14.826 0.87635 1.6375 1.9667 1.8995 6.998 1.6836l5.9629-0.25586v-8.25c3.5e-4 -6.8921-0.26252-8.25-1.5977-8.25zm36.098 0c-1.7988 0-2.8212 1.7138-2.1191 3.5469 0.71035 1.8512 2.0436 1.8498 3.582-4e-3 1.3742-1.6557 0.59519-3.5429-1.4629-3.5429zm148.62 0c-6.0432 0-8.5223 5.7299-3.623 8.375 5.6604 3.056 6.4058 3.7081 5.8613 5.127-0.38992 1.0161-1.9889 1.498-4.9688 1.498-2.4162 0-4.3926 0.45-4.3926 1s1.992 1 4.4277 1c8.3162 0 10.202-5.8698 3.0723-9.5625-5.1288-2.6562-5.2326-4.8357-0.25-5.248 4.9469-0.40942 4.8438-2.1894-0.12695-2.1894zm14.934 0c-7.7408 0-8.7043 6.5773-1.4102 9.625 4.9604 2.0726 4.2285 4.7733-1.4043 5.1816-2.3328 0.16912-4.2422 0.73162-4.2422 1.25 0 1.6079 8.7167 1.0822 10.428-0.62891 2.8545-2.8545 1.8673-5.2029-3.4277-8.1504-5.1751-2.8808-5.2094-5.2773-0.07422-5.2773 2.2403 0 4.0742-0.45 4.0742-1s-1.7745-1-3.9434-1zm28.318 0c-1.2867 0-1.4949 0.65064-1 3.125 0.34375 1.7188 0.625 5.5438 0.625 8.5s0.45 5.375 1 5.375c0.55422 0 1-2.642 1-5.9277 0-6.3093 1.5255-9.0723 5.0117-9.0723 1.0283 0 2.1484-0.45 2.4883-1 0.88687-1.435-4.8478-1.2537-6.3008 0.19922-0.93333 0.93333-1.1992 0.93333-1.1992 0 0-0.66-0.73125-1.1992-1.625-1.1992zm13 0c-1.2867 0-1.4949 0.65064-1 3.125 0.34375 1.7188 0.625 5.5438 0.625 8.5s0.45 5.375 1 5.375c0.58824 0 1-3.5 1-8.5 0-7.1795-0.25245-8.5-1.625-8.5zm113.88 0c-0.87912-1e-4 -1.25 2.0448-1.25 6.8926 0 7.1866-0.57322 8.1074-5.0469 8.1074-2.6944 0-3.9531-3.031-3.9531-9.5176 0-3.8789-0.36792-5.5264-1.1738-5.2578-1.4664 0.48881-1.1476 13.683 0.375 15.518 0.67012 0.80745 3.1098 1.1712 6.7812 1.0098l5.7324-0.25195-0.10742-8.25c-0.0765-5.8758-0.46713-8.2499-1.3574-8.25zm11.949 0c-7.5011 0-8.6644 5.4907-1.9492 9.1953 5.6352 3.1084 5.6337 5.3047-2e-3 5.3047-2.7351 0-4.2508 0.44582-4.25 1.25 2e-3 1.8783 7.5288 1.5806 9.4844-0.375 2.5583-2.5583 1.4375-5.5866-2.9824-8.0606-5.0596-2.8321-5.1517-4.7193-0.25-5.125 4.9042-0.40588 4.8627-2.1894-0.0507-2.1894zm-288.06 0.0137c-1.364 0.16682-2.763 0.6342-4.0723 1.4434-3.2972 2.0378-3.1545 9.5064 0.25391 13.293 2.1532 2.392 9.9322 3.2621 11.176 1.25 0.37325-0.60393-0.99005-1-3.4414-1-2.7257 0-4.7156-0.65697-6.0586-2-2.9307-2.9307-2.4653-3.9984 1.75-4.0137 6.0863-0.0222 8.25-0.94893 8.25-3.5312 0-3.744-3.7656-5.9419-7.8574-5.4414zm225.79 0.0117c-2.5442-0.05897-4.9356 0.24892-4.9356 0.9746 0 0.55 2.025 1 4.5 1s4.5679 0.45 4.6504 1 0.195 1.525 0.25 2.166-1.9179 1.6535-4.3828 2.25c-5.0975 1.2335-7.5187 5.0686-5.0664 8.0234 1.5302 1.8437 7.1377 2.0733 8.8496 0.36133 0.93333-0.93333 1.1992-0.93333 1.1992 0 0 0.66 0.5625 1.1999 1.25 1.2012 1.5407 3e-3 1.1363-13.819-0.46094-15.752-0.61149-0.73985-3.3093-1.1656-5.8535-1.2246zm121.99 0c-2.148 0.14082-4.5179 0.70929-5.4043 1.5957-2.7234 2.7234 0.6865 7.6142 6.707 9.6211 2.8455 0.94847-0.29248 3.7578-4.1973 3.7578-2.2173 0-4.0312 0.45-4.0312 1s1.9995 1 4.4434 1c8.0196 0 9.6501-6.3007 2.4688-9.5391-5.4755-2.4691-5.427-5.4609 0.08789-5.4609 2.2 0 4-0.45 4-1 0-0.8283-1.9262-1.1154-4.0742-0.97461zm-326.53 8e-3c-1.7881-0.0242-3.5024 0.32224-3.9551 1.0547-0.48382 0.78285-0.97496 0.78285-1.7578 0-2.2098-2.21-2.6875-0.89387-2.6875 7.4119 0 6.8889 0.28431 8.5 1.5 8.5 1.1901 0 1.5-1.4418 1.5-6.9805 0-12.091 8.256-11.778 8.7949 0.33399 0.16263 3.6551 0.72513 6.6465 1.25 6.6465 1.4119 0 1.1901-14.367-0.24414-15.801-0.74868-0.74869-2.6123-1.1419-4.4004-1.166zm-206.15 0.21855c-0.936-0.31297-1.25 1.7585-1.25 8.248 0 11.166 2.0467 11.223 2.3125 0.0644 0.1326-5.566-0.18121-8.0178-1.0625-8.3125zm-33.861 0.16602 0.0566 12.287c0.0413 9.1308 0.37577 12.288 1.3047 12.291 0.79236 3e-3 1.25-1.4605 1.25-3.9961v-4h4c4.8665 0 7.6115-2.4117 8.5723-7.5332 1.143-6.0924-1.7944-8.9565-9.2402-9.0078zm48.039 0.58203c3.7133 0 6.647 7.1226 4.5488 11.043-3.2002 5.9797-9.9766 3.443-9.9766-3.7344 0-3.4573 2.8604-7.3086 5.4277-7.3086zm171.57 0c1.5965 0 5.1313 3.9778 4.4766 5.0371-0.79062 1.2792-9.4766 1.2452-9.4766-0.03711 0-1.2969 3.7031-5 5-5zm87.346 0c1.8846 0 4.9871 3.6533 4.1934 4.9375-0.83325 1.3482-9.5391 1.4052-9.5391 0.0625 0-1.4644 3.7803-5 5.3457-5zm-144.64 0.60547c2.2619-0.27042 4.2969 1.1094 4.2969 3.4297 0 1.662-0.69353 1.9648-4.5 1.9648-5.188 0-6.064-1.9295-2.0664-4.5488 0.7376-0.48329 1.5156-0.75556 2.2695-0.8457zm95 0c2.2619-0.27042 4.2969 1.1094 4.2969 3.4297 0 1.662-0.69353 1.9648-4.5 1.9648-5.188 0-6.064-1.9295-2.0664-4.5488 0.7376-0.48329 1.5156-0.75556 2.2695-0.8457zm99 0c2.2619-0.27042 4.2969 1.1094 4.2969 3.4297 0 1.662-0.69353 1.9648-4.5 1.9648-5.188 0-6.064-1.9295-2.0664-4.5488 0.7376-0.48329 1.5156-0.75556 2.2695-0.8457zm166.92 0.24414c2.9534-0.27828 6.3116 1.8251 4.8516 4.1875-0.79062 1.2792-9.4766 1.2452-9.4766-0.03711 0-0.55 0.9-1.9 2-3 0.70057-0.70057 1.6406-1.0576 2.625-1.1504zm-517 0.3457c5.7553-0.55996 8.9175 7.195 4.5469 11.15-1.0058 0.91025-3.0448 1.6543-4.5313 1.6543-5.3233 0-5.3383-12.287-0.0156-12.805zm188.38 3.8047h3.8008c6.3202 0 9.0264 5.9755 3.6348 8.0254-5.7773 2.1965-7.4356 1.4101-7.4356-3.5254zm251.26 2.8281c1.8969-0.22262 3.7363 0.54224 3.7363 2.5039 0 1.3494-0.71204 2.7267-1.582 3.0606-4.0791 1.5653-6.5628 0.71194-6.2344-2.1426 0.22881-1.9885 2.1832-3.1992 4.0801-3.4219zm103.38 4e-3c1.7695 0.14532 3.3516 1.0371 3.3516 2.5606 0 1.3162-0.71204 2.6662-1.582 3-4.7752 1.8324-8.0747-0.0909-6.248-3.6426 0.7518-1.4617 2.709-2.0633 4.4785-1.918zm-461.46 0.16788c2.6216 0 2.9087 0.30109 2.627 2.75-0.37736 3.2796-6.3162 4.7178-7.4356 1.8008-0.89401-2.3298 1.4535-4.5508 4.8086-4.5508zm88.311 3c-1.7988 0-2.8212 1.7138-2.1191 3.5469 0.71035 1.8512 2.0436 1.8498 3.582-4e-3 1.3742-1.6557 0.59519-3.5429-1.4629-3.5429zm10.074 22c-1.0426 0-1.3482 1.0703-1.1406 3.9844 0.26688 3.7468 0.14287 3.9481-2.0938 3.3867-8.154-2.0465-13.873 9.1857-7.7793 15.279 2.0059 2.0059 3.1417 2.4121 5.25 1.875 1.4797-0.37694 3.702-0.69684 4.9394-0.71094 2.2058-0.0251 2.25-0.25943 2.25-11.92 0-9.6286-0.27204-11.895-1.4258-11.895zm-184.03 2c-1.1846 0-1.4568 2.0446-1.4648 11-8e-3 8.9989 0.25656 11 1.4551 11 1.1091 0 1.4648-1.3361 1.4648-5.5 0-7.3803 1.4742-7.1472 7.9102 1.25 1.7916 2.3375 3.9108 4.25 4.709 4.25 1.9554 0 0.72338-2.198-4.6641-8.3164l-4.2422-4.8164 4.3516-4.4336c2.836-2.8896 3.7985-4.4336 2.7637-4.4336-0.87325 0-3.2473 2.025-5.2754 4.5-2.0281 2.475-4.106 4.5-4.6191 4.5s-0.93359-2.025-0.93359-4.5c0-3.2715-0.39729-4.5-1.4551-4.5zm147.22 4.8906c-1.1529-0.0944-2.5382 0.087-4.1992 0.50391-3.7278 0.93563-3.2118 2.8265 0.60742 2.2246 3.5794-0.56411 6.8242 0.77106 6.8242 2.8086 0 1.5272-2.1345 2.5723-5.2539 2.5723-4.7864 0-7.7641 6.6776-3.9961 8.9609 0.9625 0.58325 3.1 0.78036 4.75 0.4375 1.65-0.34285 3.9-0.58642 5-0.54102 1.8749 0.0774 1.9687-0.3972 1.5-7.6035-0.41086-6.3165-1.7736-9.08-5.2324-9.3633zm-42.592 0.12305c-1.3642-0.11318-2.9977 0.10047-4.9258 0.61719-3.3737 0.9041-2.7377 2.636 0.69141 1.8828 3.2843-0.72136 7.0586 0.83623 7.0586 2.9141 0 1.4974-2.1232 2.5723-5.082 2.5723-4.6904 0-7.0072 4.9107-3.8203 8.0977 1.5477 1.5477 2.7933 1.9272 4.75 1.4453 1.4587-0.35928 3.5993-0.6387 4.7559-0.62109 1.914 0.0291 2.1119-0.5525 2.2129-6.4805 0.11609-6.8126-1.5479-10.088-5.6406-10.428zm-81.049 0.0644c-2.2444 0.18669-4.127 0.93073-4.127 2.1075 0 0.55597 1.2598 0.69746 2.9414 0.32812 3.31-0.727 7.0586 0.84241 7.0586 2.9551 0 1.3759-0.7627 1.7363-6.2832 2.9668-3.9975 0.89101-5.6433 4.8839-3.1484 7.6406 1.4727 1.6273 2.5473 1.9312 4.9082 1.3906 1.6626-0.38071 3.9335-0.65468 5.0449-0.60938 2.8566 0.11652 2.7695-13.439-0.0996-15.537-1.445-1.0566-4.0505-1.4288-6.2949-1.2422zm-45.299 6e-3c-1.4212-0.16468-2.8922 4e-3 -4.2461 0.52344-2.8531 1.0948-1.6594 2.084 2.5137 2.084 4.3837 0 6.5401 1.8379 4.7246 4.0254-0.58588 0.70595-2.164 1.2832-3.5078 1.2832-5.7486 0-8.9587 6.3015-4.5625 8.957 0.9625 0.58141 2.875 0.79389 4.25 0.4707 1.375-0.32318 3.5125-0.59918 4.75-0.61328 3.4004-0.0387 3.4234-12.879 0.0273-15.258-1.1572-0.8105-2.528-1.308-3.9492-1.4727zm154.65 0.0781c-9.7618-2.0252-13.832 13.574-4.4746 17.15 2.2688 0.86717 6.3002 0.32755 6.7012-0.89648 0.20483-0.62524-0.99268-1.082-2.8301-1.082-8.1255 0-9.3903-12.291-1.3066-12.697 3.1885-0.16036 4.5525-1.9264 1.9102-2.4746zm-86.92 0.2207c-0.8641-0.33159-2.6918 0.1331-4.0625 1.0312s-2.4922 1.1721-2.4922 0.60938-0.5625-1.0244-1.25-1.0254c-0.92317-2e-3 -1.1647 2.09-0.92383 8 0.21489 5.2727 0.72656 8.0015 1.5 8.002 0.785 4.2e-4 1.0611-1.6224 0.83399-4.8984-0.41454-5.979 1.067-9.1016 4.3164-9.1016 2.8843 0 4.2885-1.769 2.0781-2.6172zm121 0c-0.8641-0.33159-2.6918 0.1331-4.0625 1.0312-1.3708 0.89809-2.4922 1.172-2.4922 0.60932s-0.72804-1.0234-1.6172-1.0234c-1.1885 0-1.457 0.59587-1.0137 2.25 0.33164 1.2375 0.60919 4.8375 0.61719 8s0.46367 5.75 1.0137 5.75c0.55172 0 1-2.6008 1-5.8008 0-6.2398 1.1091-8.1992 4.6406-8.1992 2.753 0 4.0636-1.7924 1.9141-2.6172zm-114.05 0.02729c-3.8915 0.97671-2.9411 2.3442 1.5469 2.2266 2.5836-0.0677 4.3851 0.43114 4.9844 1.3789 1.5208 2.4053 1.1674 2.8588-2.7812 3.5664-6.539 1.1718-9.8177 6.7625-5.5 9.3789 0.9625 0.58325 3.1 0.78137 4.75 0.43945s3.7875-0.60102 4.75-0.57422c1.8592 0.0518 2.6592-11.848 0.97461-14.496-1.0396-1.6343-5.7394-2.6692-8.7246-1.9199zm34.855 0.43554c-5.4529 0.2333-7.8744 0.2733-11.355 0.1875-9.3327-0.23006-8.6534-0.86521-8.5723 8.0137 0.0515 5.6419 0.43394 7.9403 1.3223 7.9453 0.87181 5e-3 1.25-1.9482 1.25-6.457 0-5.4813 0.30935-6.63 2.0371-7.5547 4.8796-2.6115 7.639 1.3266 6.709 9.5781-0.37722 3.3467-0.16098 4.4414 0.87696 4.4414 1.0288 0 1.377-1.6509 1.377-6.5254 0-6.0335 0.18843-6.5948 2.4922-7.4707 5.0518-1.9207 7.0256 1.0222 6.3535 9.4726-0.25105 3.1566 0.0192 4.5234 0.89649 4.5234 1.4792 0 1.7742-12.636 0.34765-14.889-0.4835-0.76349-2.1638-1.3328-3.7344-1.2656zm91.664 1.0606c0.98114 0.0553 1.9485 0.46024 2.7812 1.293 2.0527 2.0527 1.5218 10.558-0.73437 11.766-4.4198 2.3654-8.0664-0.40948-8.0664-6.1387 0-4.0954 3.0761-7.0858 6.0195-6.9199zm-152.09 7.0938c3.0961 0 2.9367 5.5329-0.18359 6.3691-4.3848 1.1751-5.75 0.58245-5.75-2.5 0-2.0241 2.8287-3.8691 5.9336-3.8691zm78 0c3.0961 0 2.9367 5.5329-0.18359 6.3691-1.2375 0.33164-2.475 0.57496-2.75 0.53906-5.5458-0.72421-2.9199-6.9082 2.9336-6.9082zm42.789 0c2.9465 0 3.2022 4.435 0.34375 5.9648-2.9018 1.553-4.878 1.2559-6.0352-0.90625-1.2296-2.2974 1.8776-5.0586 5.6914-5.0586zm-90.314 0.20312c2.6899 0.38633 3.318 3.7926 1.0098 5.4805-2.4223 1.7712-4.8898 1.6579-6.5137-0.29882-1.676-2.0195 2.1888-5.6578 5.5039-5.1816zm-77.043 0.10743c1.7942 0.68849 1.5503 4.5014-0.36523 5.7109-3.4382 2.1711-7.6806-0.0835-6.4062-3.4043 0.68981-1.7976 4.615-3.1342 6.7715-2.3066zm213.54 4.1328c-1.5217-0.94048-3.9082 0.2964-3.9082 2.0254 0 0.84226 0.85143 1.5312 1.8926 1.5312 2.111 0 3.5791-2.5904 2.0156-3.5566zm-259.91 46.557h10.756l2.2578 6.0352c1.2415 3.3198 4.3934 9.0777 7.0039 12.795l4.7461 6.7597-11.299 10.705c-15.376 14.57-14.01 16.273-13.664-17.045zm642.32 0h10.785l-0.17187 22.732c-0.0943 12.503-0.39077 23.303-0.65821 24-0.81459 2.1228-1.4278 1.6482-12.912-9.9824l-11.109-11.25 4.3438-6c2.3886-3.3 5.5538-9.0375 7.0332-12.75zm-315.82 26.83 15.646 7.584 15.645 7.5859h9.9375c11.681 0 10.861-0.4663 10.426 5.916l-0.34766 5.084h-30.648l-0.66992-3.25c-4.6287-22.423-33.645-21.358-40.873 1.5-0.49577 1.5678-2.1697 1.75-16.084 1.75h-15.531v-11h21.984l15.258-7.5859zm299.9 1.1054 11.314 11.281c10.09 10.06 11.131 11.419 9.6074 12.533-1.8339 1.3419-45.357 1.8867-46.66 0.584-0.36667-0.3666-0.66602-2.8058-0.66602-5.4199v-4.7539l5.1113-1.6973c2.8112-0.9337 8.7514-4.1349 13.201-7.1133zm-599.71 0.8887c1.9088-0.8592 2.8621 0.3555 5.3789 2.5098 2.2479 1.9241 7.7618 5.1537 12.254 7.1758l8.168 3.6757-0.3418 5.4083-0.34375 5.4062-21.156-0.1c-30.762-0.1449-30.133 0.447-15.072-14.141 6.3406-6.1416 9.2045-9.0763 11.113-9.9356zm302.5 8.4492c6.785 0.8198 12.875 5.2115 13.947 12.65l0.34961 2.4219-17.25 0.078c-19.141 0.085-18.856 0.2058-15.158-6.373 3.8469-6.8447 11.326-9.5971 18.111-8.7774zm-274.2 4.7266h216v11h-107.39c-97.006 0-107.45-0.1532-108-1.582-0.33385-0.87-0.60742-3.345-0.60742-5.5zm327 0h215v11h-215v-5.5z"/></svg>
