<?xml version="1.0" encoding="UTF-8"?>
<!-- Created with Inkscape (http://www.inkscape.org/) -->
<svg width="822" height="1122" version="1.1" viewBox="0 0 822 1122" xml:space="preserve" xmlns="http://www.w3.org/2000/svg"><path d="m406 80c-360 1e-6 -324-0.77-328 7.1-2.7 5.3-2.5 938 0.26 942 5.5 7.3-11 6.6 159 7.2 232 0.77 487 0.21 490-1.1 1.4-0.59 3.9-2.4 5.5-4.1l2.9-3 0.24-469c0.11-206 0.12-318-0.047-384 526-0.24 768-0.25 0-0.033-0.17-69-0.54-87-1.2-88-3.9-7.6 31-6.9-328-6.9zm45 2.8c6.7-0.075 6.8 1.1 6.1 11h-21l-15 7.5c-18 8.8-13 9.2-31-0.23l-14-7.4-22-0.33-0.61-10h16c14 0 16 0.22 16 1.5 0 19 33 27 41-1.5h15c4-0.0044 6.9-0.16 9.2-0.19zm-101 0.18v3.9c0 7.7 3.6 7.1-44 7.1-57-0.13-110-0.72-171-1.7-0.07-0.96-0.18-3.3-0.25-5.2l-0.12-3.5 108-0.25zm-241 0.0098h22v5.5c0 4.4-0.37 5.7-1.8 6.1-0.96 0.33-4.2 1.7-7.2 3-3 1.3-7.7 4.1-11 6.2l-5 3.8-12-11c-15-14-15-13 14-13zm297 0h18c-1.3 5-3.6 9.4-7.9 12-9 5.9-21 2.7-26-6.8-2.7-5.8-3.1-5.7 16-5.7zm55 0h215v11l-215-0.037zm218 0 23 0.016c29 0.02 28-0.67 15 13-12 12-12 12-15 9-2.4-2.6-8.9-6.4-16-9-6.4-2.5-6.9-3.1-6.9-8.7zm51 5.2c1.6-0.55 2.2 7.6 1.9 28l-0.3 19-5.2 0.17c-5.2 0.17-5.2 0.14-6.4-3.4-1.8-5.6-5.4-12-9.3-17l-3.5-4.6 11-11c6-6 11-11 12-11zm-650 0.18c0.43-0.43 5.9 4.3 12 11l11 11-3.5 4.6c-3.1 4-8.1 13-9.7 18-0.42 1.3-1.7 1.8-4.5 1.8-2.2 0-4.6 0.25-5.4 0.56-2.4 0.91-2.8-45-0.43-47zm555 26c14 0.39 28 5.8 39 17 12 12 18 28 17 43-0.02-5e-3 -9e-3 0.022-0.014 0.033h4e-3c-0.84 25-18 49-46 55-35 7.3-69-19-70-55-2.4-22 17-61 60-60zm-517 2.8h13c17 1.3e-4 23 5.4 16 13-1.5 1.5-1.5 1.9 0.89 4.7 3.1 3.7 2.7 8-1.2 11-3 2.7-32 3.6-30 1 0.55-0.7 0.94-7.5 0.87-16zm12 4.2-5.2 0.3-0.62 7.5h7.9c8.3 0 11-1.1 10-4.6-0.43-2.2-5.5-3.5-12-3.2zm156 0.3v6l-19-0.64 0.32 2.8c0.32 2.8 0.46 2.8 6.6 2.8 6 0 6.3 0.098 6.2 2.5-2e-3 2.4-0.24 2.5-6.3 2.5l-6.2-0.01v6h18l0.4 2.8c0.22 1.5 0.14 2.7-0.18 2.5-0.32-0.11-6.2-0.45-13-0.75l-12-0.54v-25l13-0.3zm29 0-2e-3 3c-1e-3 3-0.027 3-5.1 2.6l-5.1-0.35 0.63 21h-7l0.63-21h-5.1c-4.7 0-5.1-0.17-5.1-2.4v-2.4l13-0.3zm-126 0.5h7l-0.34 11-0.34 11 17-0.65-2e-3 2.8c-1e-3 1.5-0.11 2.7-0.25 2.5-0.14-0.11-5.4-0.45-12-0.75l-12-0.55v-13zm27 2e-3h3.5l3.5 2e-3v26l-3.2 0.38c-1.8 0.21-3.3 0.36-3.3 0.33s-0.12-6-0.25-13zm-48 2e-3c4.2 0 4.7 0.24 4.3 1.8-0.41 1.6 5.5 14 10 22 1.4 2.2 1.3 2.2-3.2 2.2-2.7 0-4.3-0.4-4-0.98 1.8-2.9-1.5-5-8-5-6.7 0-8.5 1.4-6.9 5.4 0.35 0.9 0.47 1.6 0.27 1.5-0.2-0.096-2.4-0.35-4.8-0.57-2.4-0.22-4-0.7-3.4-1.1 1.9-1.2 11-22 11-23-0.39-1.5 0.26-1.8 4.4-1.8zm73 0c7.9 0 13 2.5 12 5.6-1.1 2.3-2.8 3.3-2.8 1.6 0-1.4-8-3.3-11-2.7-7.2 1.6-5.6 4.8 3 5.9 8.7 1.1 10 1.6 12 4.8 1.8 3.5 0.67 7.5-2.8 9.7-3.1 2-13 2.4-17 0.76-2-0.76-4-1.1-4.2-0.85-0.92 0.92-0.59-1.8 0.46-3.8 0.92-1.7 1.2-1.7 4-0.34 4.2 2.1 12 2.1 14 2e-3 2.4-2.4 0.72-3.5-7.8-4.6-16-2.2-15-16 0.95-16zm391 0.41c-25-0.43-51 16-52 49-0.04 1 0.12 2 0.14 3l-4e-3 0.039c0.46 23 16 44 38 49 33 7.7 62-16 63-49l0.15-1.3c0-33-25-50-50-51zm1.2 3.1c16 0.67 32 9.3 40 25 3.9 7.7 5.5 16 5.2 24l-6e-3 0.035c-0.61 21-15 41-38 46-32 7-56-18-57-46l2e-3 -0.039c-0.42-12 3.2-23 12-34 8.2-9.1 19-14 30-15 2.3-0.23 4.7-0.3 7-0.2zm-466 4.1-1.8 3.4c-1 1.9-1.9 3.8-1.9 4.2-0.023 0.41 1.8 0.75 4 0.75h4l-2.1-4.2zm-37 4.6-6.9 0.3-0.32 3.3c-0.18 1.8-0.11 3.9 0.15 4.6 0.61 1.6 15 1.2 17-0.47 4.8-4-0.66-8.2-10-7.7zm597 3.9 2.4 0.6-0.02 36c-5 1e-3 -5.8 2e-3 -11 4e-3v-36l3.1-0.62c1.7-0.34 4.2-0.35 5.5-0.02zm-651 0.08 4.2 0.078c2.3 0.042 4.8 0.11 5.5 0.15 1.2 0.074 1.3 56 0.76 821l-0.012 17h-5c-4.5 0-5-0.22-5-2.2-0.19-279-0.29-557-0.41-836zm564 12c-1.1 0.43-2.1 2.2-4.1 5.8l-3.2 5.7-2.1-3.4c-1.1-1.9-2.7-4.4-3.4-5.7-1.8-2.9-3-2.8-7.6 0.29l-3.7 2.5 2.7 5.2c1.5 2.9 2.9 5.6 3.1 6 0.19 0.41-2.6 0.75-6.2 0.75-6.9 0-7.6 0.49-7.5 6.9l-4e-3 0.037c4e-3 0.33-0.022 0.48-0.016 0.85l0.082 4.2h6.9c3.8 0 6.9 0.18 6.9 0.4 0 0.22-1.6 3.1-3.4 6.5l-3.4 6.1 4.7 2.4c6.3 3.3 6.7 3.1 11-5.7 1.7-3.3 2.3-3 5 2.7 2.7 5.7 3.9 6.1 8.9 3.6 5.6-2.8 5.6-3.1 1.7-10l-3.4-6.1h14l-0.029-5.1c-0.043-6.3-0.66-6.9-7.7-6.9h-6.5l1.6-2.4c0.88-1.3 2.5-4 3.6-5.9l2-3.5-4.6-3c-2.7-1.8-4-2.7-5.2-2.3zm90 24v8e-3l-0.22 383-0.24 419-10 0.61v-802c3.6-2e-3 7.3-2e-3 11-4e-3zm-639 3.1h480l1.3 6.8c12 66 121 62 121-3.8v-2.9h23l-0.25 402-0.26 402-3.5 7c-5.3 11-14 20-25 25l-8.5 4.2-244 0.52-32-16-31 16-121-0.025c-111-0.023-121-0.17-126-1.7-15-5.6-27-17-33-31l-2.4-5.9c0.027-267-0.07-535 0.031-802zm603 71-288 0.08c-159 0.044-289 0.39-291 0.76-4.2 1.3-9 5.7-11 10-3 6.8-3 321 0.06 327 2.2 4.2 5.2 7.3 9.6 9.6 5.1 2.7 577 2.5 582-0.24 4.3-2.2 7.3-5.3 9.6-9.8 1.5-2.9 1.6-18 1.6-163v-160l-2.3-4.4c-1.3-2.5-4.2-5.6-6.6-7.3zm-375 2.3 2e-3 4e-3h172c130 0 201 0.46 204 1.9 11 4.8 11 3.5 10 93l-0.022 158c-0.29 89 0.21 83-7.4 88l-3.7 2.8-58 0.27c-291 1.4-325 0.11-461 0.2-64 0.045-61 0.23-67-6.8l-2.7-3.5c0.11-81-0.25-161-0.5-242 0-89-0.52-83 7.7-89l3.6-2.5c36-0.17 109-0.5 202-0.5zm244 39c-7.3 2.5-2.8 15 5.1 9.8 5-3.5 0.28-12-5.1-9.8zm-15 7.8c-2.4-0.48-5.1 0.52-6.6 3.3-4 7.5 11 11 11 2.2 0-3.1-2-5.1-4.3-5.6zm32 6.9c-29-1.4-46 15-49 25-5.5 19 16-34 60-2.7 3 2.1 35-10 32-12-5.4-4.4-27-8.7-43-9.5zm-53 1.7c-11-0.37-4.3 17 3.8 9 3.9-3.9 0.44-8.9-3.8-9zm108 8.6c-4.5-0.51-11 2.2-12 5.9-0.56 3 3.9 1-67 30-40 16-207 85-211 87-2 0.85-2.1 1.3-1.1 3.5 0.64 1.4 1.7 2.4 2.2 2.1 0.59-0.25 31-13 68-29 215-92 211-90 210-88-0.5 1.9-0.45 1.9 4.5-0.022 11-4.4 12-5.5 9.2-9.7-0.69-0.98-1.9-1.5-3.4-1.7zm-1.7 12c-0.24 0-7.3 2.8-29 14 0.73 26-3.6 33-31 36-10 0.76-11 1.6-4.8 4.4 13 6.1 46-4.8 56-18 6.3-9.2 13-36 9.4-36zm-11 1.3c-0.22-0.22-58 24-128 54-70 30-132 56-138 59-9.9 4.2-11 4.6-11 7.6-0.45 4.5-5.8 6.7 91-37 49-22 111-50 137-62 27-12 48-22 48-22zm-31 4.1c-0.48-0.48-9.9 3.2-147 57-115 45-107 42-105 44 0.7 0.84 1.5 1.5 1.8 1.5 71-28 141-58 211-87 21-8.7 39-16 38-16zm7.5 11-2e-3 2e-3c-1.7 0-12 5.2-119 57-59 29-111 54-117 57-10 4.8-13 6.7-3.8 3.3 7-2.8 6.1-3.1 8 2.3 1 2.8-8.9 7.7 137-68 27-14 60-31 72-38 20-10 25-13 22-13zm-63 7c-35 11-74 27-109 40-64 24-93 35-93 36 0.18 0.71 0.8 1.9 1.4 2.5s1.1 1.3 1.2 1.3c63-25 125-49 188-74 6.7-2.6 11-4.6 12-5.3zm90 20c-4-0.14-7.8 4.4-5 8.7 6.2 9.5 16-8.3 5-8.7zm-100 5.1c-1.1 0.4-3.7 1.6-8.1 3.6-4.3 2-45 20-90 40-45 20-82 37-82 37-0.12 0.15-0.48 2-0.8 4-0.32 2.1-0.45 3.8-0.3 3.8 0.32 0 118-57 156-76 18-8.9 29-14 25-13zm80 2.9c-4.6 0-7 6.6-3.5 10 7.8 7.8 14-10 3.5-10zm-20 9c-1.6 0.22-8.2 4-3 9.1 8.1 8.1 14-11 3-9.1zm-290 6c-45 1.5-86 35-121 99-4.6 8.5-11 19-15 24-8.1 10-8.3 10 8.9 6.6 20-3.8 32-2.7 68 6 25 6.1 48 11 58 12 36 4.5 70-17 76-47 2-11-2.6-32-6.6-31-11 3.5-17 7.8-23 17-17 25-45 33-74 19l-6.6-3-19 8.6 0.63 3.7c1.3 7.8-9 15-14 9.1-2.2-2.5-17-34-17-37-1.6-8.1 7.8-14 14-8.5 5.2 2.4 13-2.9 19-4.9 8.8-50 54-57 78-45 4.9 2.5 8 3.5 9 3 0.82-0.45 7.5-3 15-5.7 17-6.2 17-8.4-1.7-16-16-6.6-32-9.6-47-9.1zm-0.84 27c-18 1.2-35 11-43 27-2.8 5.5-5.5 16-4.5 17 0.22 0.22 8.8-2.9 19-7 10-4.1 29-11 41-16 24-9.6 24-9.2 18-13-9-5.9-20-8.3-31-7.6zm38 15c-3-0.16-11 3.1-44 16l-42 16-0.31 3.1c-0.42 4.1 6.7 1.5 86-31 2.9-1.2 3.2-1.7 2.2-2.9-0.5-0.6-0.9-1-1.9-1.1zm4.6 5.6v2e-3c-8.1 0-89 37-87 39 2.1 3.2-3.6 5.2 45-16 47-20 54-24 42-24zm4.7 8.5c-1.1-1.2-7.9 1.9-45 18-49 21-44 18-40 22 1.6 1.6 2.9 3 2.9 3s19-8.3 41-18l41-18v-3.3c0-1 0.26-1.9-0.1-2.3zm0.87 8.5-7.4 3.4c-4.1 1.8-22 9.8-40 18-18 7.9-32 15-32 15-0.04 0.86 9 4.7 14 5.8 30 7 63-12 65-37zm-101 12c-6.7 1.6-17 3.4-13 12 4.2-1.7 8.4-3.4 13-5 1.7-0.64 2-1.5 1.6-3.9-0.27-1.9-0.36-2.8-1.4-2.9zm-23 0.97c-17 0.15 3.9 36 7.5 42 2.3 2.8 13 0.096 13-3.3 0-1-16-36-17-37-0.87-0.88-2-1.3-3.2-1.3zm24 8.3c-4.3 2.1-14 3-11 9.6 3.6 3.6 12-2.2 16-4.1-1.2-1.8-2.1-6.1-4.9-5.5zm104 7.5c6.6 0 9.3 12 3.4 15-3.5 1.8-4.9 1.9-7.5 0.33-6.8-3.8-3.6-16 4.1-16zm-98 0.64-7.1 2.9c-8.5 3.4-8.5 3.4-6.4 7.9 1.9 4 0.5 4.1 14-1.8l5.9-2.7c-2.1-2.1-4.2-4.2-6.2-6.2zm96 1.4c-1 0.11-2 0.47-2.7 1.1-6.6 6.6 9.8 13 9.8 3.2 0-2.7-4-4.6-7.1-4.3zm-16 16c1.3-0.018 2.6 0.33 3.8 1.1 4.1 2.7 4.2 11 0.18 14-4.1 2.8-12-1.8-12-7.2 0-4.5 3.7-7.8 7.6-7.8zm40 0.75-2e-3 2e-3c-4.5 1.5-11 31-50 40-34 8-90-21-138-19-13 0.48-33 3.4-34 5-0.37 0.37 4.2 12 5 12 45-14 74-2.5 120 7.8 33 12 95 2 99-43 0.017-2.8-0.23-4.2-1-3.9zm-39 1.2c-0.81-0.11-1.7-0.074-2.5 0.12-1.1 0.25-2.1 0.79-3 1.6-7.4 7.4 10 11 10 2.6 0-2.4-2.1-4-4.5-4.3zm-42 0.64c13-2.1 16 15 7.8 20-8.3 5.4-18-0.089-18-10 0-5.2 4.5-9.3 10-10zm0.17 1.3c-7.9 0.71-11 9.5-6.5 14 2.6 2.9 13 2.6 15-0.39 4.7-6.6-0.86-14-8.2-14zm-212 472h11l2.3 6c1.2 3.3 4.4 9.1 7 13l4.7 6.8-11 11c-15 15-14 16-14-17zm642 0h11l-0.17 23c-0.094 13-0.39 23-0.66 24-0.81 2.1-1.4 1.6-13-10l-11-11 4.3-6c2.4-3.3 5.6-9 7-13zm-316 27 31 15h9.9c12 0 11-0.47 10 5.9l-0.35 5.1h-31l-0.67-3.2c-4.6-22-34-21-41 1.5-0.5 1.6-2.2 1.8-16 1.8h-16v-11h22l15-7.6zm300 1.1 11 11c10 10 11 11 9.6 13-1.8 1.3-45 1.9-47 0.58-0.37-0.37-0.67-2.8-0.67-5.4v-4.8l5.1-1.7c2.8-0.93 8.8-4.1 13-7.1zm-600 0.89c1.9-0.86 2.9 0.36 5.4 2.5 2.2 1.9 7.8 5.2 12 7.2l8.2 3.7-0.34 5.4-0.34 5.4-21-0.1c-31-0.14-30 0.45-15-14 6.3-6.1 9.2-9.1 11-9.9zm302 8.4c6.8 0.82 13 5.2 14 13l0.35 2.4-17 0.078c-19 0.085-19 0.21-15-6.4 3.8-6.8 11-9.6 18-8.8zm-274 4.7h216v11h-107c-97 0-107-0.15-108-1.6-0.33-0.87-0.61-3.3-0.61-5.5zm327 0h215v11h-215v-5.5z"/><g fill="#000000" font-family="Sans" stroke="#000000" stroke-linejoin="round"><text x="120.38348" y="227.87315" font-size="43px" xml:space="preserve"><tspan x="120.38348" y="227.87315">Worthless Card</tspan></text><text x="105" y="647.91742" font-size="36px" xml:space="preserve"><tspan x="105" y="647.91742">Play as part of your Battle Plan, in </tspan><tspan x="105" y="677.91742">place of weapon, defense, or both. </tspan><tspan x="105" y="707.91742"/><tspan x="105" y="737.91742">This card has no value in play, and you </tspan><tspan x="105" y="767.91742">can discard it only by playing in your </tspan><tspan x="105" y="797.91742">Battle Plan. </tspan><tspan x="105" y="827.91742"/><tspan x="105" y="857.91742">Advanced rule: Bene Gesserit may</tspan><tspan x="105" y="887.91742">use as a Karama card.</tspan></text></g></svg>
