<?xml version="1.0" encoding="UTF-8" standalone="no"?>
<!-- Created with Inkscape (http://www.inkscape.org/) -->

<svg
   version="1.1"
   id="svg1"
   width="1024"
   height="1024"
   viewBox="0 0 1024 1024"
   sodipodi:docname="dune.svg"
   inkscape:version="1.3 (0e150ed6c4, 2023-07-21)"
   xmlns:inkscape="http://www.inkscape.org/namespaces/inkscape"
   xmlns:sodipodi="http://sodipodi.sourceforge.net/DTD/sodipodi-0.dtd"
   xmlns="http://www.w3.org/2000/svg"
   xmlns:svg="http://www.w3.org/2000/svg">
  <defs
     id="defs1" />
  <sodipodi:namedview
     id="namedview1"
     pagecolor="#ffffff"
     bordercolor="#000000"
     borderopacity="0.25"
     inkscape:showpageshadow="2"
     inkscape:pageopacity="0.0"
     inkscape:pagecheckerboard="0"
     inkscape:deskcolor="#d1d1d1"
     inkscape:zoom="0.45022815"
     inkscape:cx="601.91706"
     inkscape:cy="413.12388"
     inkscape:window-width="1920"
     inkscape:window-height="1010"
     inkscape:window-x="2873"
     inkscape:window-y="-6"
     inkscape:window-maximized="1"
     inkscape:current-layer="g1" />
  <g
     inkscape:groupmode="layer"
     inkscape:label="Image"
     id="g1">
    <path
       style="fill:#000000;stroke-width:4.5;stroke-dasharray:none"
       d="m 742,877.00215 c -15.675,-3.2212 -34.575,-7.26545 -42,-8.98721 -15.05873,-3.49191 -22.86686,-5.19308 -64,-13.94377 C 594.06904,845.15075 486.83283,820.28659 459,812.1903 430.47922,803.89391 403.86659,797.28404 386.03544,794.06785 363.00061,789.91309 337,793.63861 337,790.65499 c 1.95408,-6.33805 13.50455,-5.3846 19.10514,-5.89982 -4.36863,-21.50609 -17.24176,-28.30522 -18.63326,-28.76445 -11.27199,-3.7201 -28.06564,10.09244 -52.72188,14.43885 -8.26998,1.19335 1.87581,4.43609 4.91508,5.63425 9.4352,3.64772 18.56608,9.1063 24.83492,14.84671 6.44939,5.90574 14.73187,11.68781 18.5,12.915 1.925,0.62692 9.8,2.05693 17.5,3.1778 7.7,1.12086 14.675,2.23873 15.5,2.48416 0.825,0.24542 9.15,1.38738 18.5,2.53769 16.73751,2.05918 51.26136,9.0753 63,12.80318 3.3,1.048 9.6,2.6851 14,3.63802 12.70846,2.75228 16.57509,7.74169 53,13.12077 11.40809,1.68471 40.35167,5.90013 51.5,7.50062 14.13058,2.02862 41.49852,7.03755 49.5,9.05958 12.36528,3.12478 11.67834,3.27157 -6,1.28212 -2.75,-0.30947 -11.525,-1.62418 -19.5,-2.92156 -25.10965,-4.08486 -42.92157,-6.38759 -73.5,-9.50208 -30.4348,-0.86178 -35.71399,-8.80238 -63.5,-16.08344 -16.95205,-4.44884 -35.21734,-8.31939 -46.5,-9.85368 -13.2128,-1.79677 -27.12764,-3.8569 -43.5,-6.44027 -8.525,-1.34516 -17.975,-2.74597 -21,-3.11293 -28.96102,-3.51324 -13.20323,-8.5226 -48.65561,-26.34083 -14.57224,-7.32394 -19.80858,-8.52489 -37.84439,-8.67958 -10.12059,-0.0868 -16.73493,-0.56524 -18,-1.30201 -1.1,-0.64062 -11.30457,-2.97114 -22.67681,-5.17893 C 197.76017,766.70157 192.05097,766 182.15722,766 h -11.98916 l -3.18359,4.01961 c -2.25028,2.84121 -5.57301,5.15311 -11.33403,7.88605 -9.81473,4.65596 -13.75223,5.64618 -30.3624,7.63568 -7.03342,0.84244 -16.27554,1.96527 -20.53804,2.49518 -28.974644,3.60212 -32.510016,3.75244 -33.404923,1.42035 -0.325685,-0.84872 -0.330171,-1.80511 -0.01,-2.12531 0.320201,-0.3202 5.102355,-1.40887 10.62701,-2.41926 16.705855,-3.0553 17.812686,-3.51397 24.978093,-10.3509 5.8875,-5.6176 14.93972,-12.34963 20.65968,-15.36434 7.4681,-3.93608 28.4544,-6.74277 31.04521,-4.15196 0.5748,0.5748 9.3273,1.48743 19.45,2.02808 19.15652,1.02312 26.33427,2.06517 48.9049,7.09993 13.70546,3.05722 13.96592,3.06975 32,1.53908 8.2916,-0.70375 -10.32543,-21.15694 -6.98111,-23.22387 3.38621,-2.09279 12.59307,7.38382 15.50955,15.96395 2.21741,6.52352 4.0958,8.70025 5.59481,6.48343 3.09042,-4.57025 -13.05882,-58.08352 -1.51296,-42.43581 2.06644,2.80057 7.13818,19.27178 9.23645,29.99671 2.17624,11.12341 4.20227,12.46776 6.59602,4.3842 7.28828,-24.61209 4.40747,-48.81098 19.15376,-66.56823 C 319.29569,677.61344 298,733.43711 298,756.11005 c 0,6.09978 16.19068,-8.06625 32.28212,-8.09706 14.32705,-0.0274 23.545,7.87054 29.147,24.97327 1.29743,3.961 2.74414,7.5834 3.21492,8.04978 0.47078,0.46638 3.55596,1.29845 6.85596,1.84905 24.29388,4.05335 49.08583,10.34443 84.5,19.9977 52.01964,14.17962 109.0876,29.58202 163.5,39.68524 2.2,0.36832 15.25,3.10803 29,6.08824 13.75,2.9802 32.42902,6.93944 41.50894,8.7983 9.07991,1.85886 20.10491,4.28836 24.5,5.39888 4.39508,1.11053 17.89106,4.08602 29.99106,6.61221 12.1,2.5262 25.3034,5.48971 29.34089,6.58559 6.90731,1.87481 12.05679,4.50684 12.12769,6.19875 0.0888,2.11972 -15.76078,0.13785 -41.96858,-5.24785 z M 136.74845,776.4493 c 17.14847,-4.39609 30.85069,-9.67086 29.74967,-11.45234 -0.29315,-0.47432 -3.08586,-1.39238 -6.20604,-2.04012 -6.43481,-1.33587 -17.22271,-0.59824 -23.46589,1.60448 -9.29797,3.50003 -16.996,9.83997 -24.32619,16.35341 8.22862,0.14217 16.33387,-2.46779 24.24845,-4.46546 z M 664.5,876.87817 c -26.57442,-0.82624 -63.35692,-2.68576 -77.0777,-3.89663 -6.09274,-0.53769 -24.31774,-1.43142 -40.5,-1.98608 -16.18227,-0.55466 -39.9973,-1.45531 -52.9223,-2.00144 -12.925,-0.54614 -42.175,-1.43284 -65,-1.97045 -22.825,-0.53762 -49.6,-1.45433 -59.5,-2.03714 -9.9,-0.58282 -37.8,-1.48503 -62,-2.00492 -41.14175,-0.88384 -54.19614,-1.7402 -50.5,-3.31274 3.46133,-1.47265 63.50517,-2.55021 91.5,-1.64208 15.95,0.51741 30.8,1.18881 33,1.49201 2.2,0.3032 21.55,0.98168 43,1.50774 21.45,0.52606 56.325,1.61709 77.5,2.42451 21.175,0.80743 46.375,1.73549 56,2.06237 9.625,0.32687 24.07941,1.26034 32.12091,2.07437 8.04151,0.81403 26.94151,2.12555 42,2.91449 40.56524,2.12529 57.40907,3.30009 66.82713,4.66099 7.25622,1.04851 8.03215,1.33782 5.5,2.05073 -1.62142,0.45651 -6.77304,0.70763 -11.44804,0.55805 -4.675,-0.14957 -17.5,-0.55177 -28.5,-0.89378 z M 175.71136,861.99691 c -3.18376,-0.40748 -6.04224,-0.99446 -6.35219,-1.3044 -1.53979,-1.53979 10.02286,-2.19251 38.83951,-2.19251 24.56995,0 31.98945,0.29048 32.99164,1.29164 1.05723,1.05615 1.021,1.46358 -0.19868,2.23469 -1.74415,1.10269 -56.62791,1.07795 -65.28028,-0.0294 z M 455.5,843.82394 c -5.5,-0.37184 -19.675,-1.65016 -31.5,-2.84072 -11.825,-1.19056 -33.65,-2.57288 -48.5,-3.07183 -14.85,-0.49895 -29.475,-1.10458 -32.5,-1.34585 -3.025,-0.24127 -11.125,-0.70113 -18,-1.02191 -11.78884,-0.55007 -22.07518,-2.05463 -17.5,-2.55969 1.1,-0.12143 2.45,-0.12066 3,0.002 0.55,0.12237 21.25,0.62576 46,1.11864 54.38164,1.08299 72.92605,2.86038 98,6.34272 44.66977,6.31334 27.79549,5.18847 1,3.37694 z m -194,-9.29345 c -3.85,-0.68972 -11.95,-2.20707 -18,-3.3719 -6.05,-1.16483 -21.8,-3.06609 -35,-4.22502 -50.93432,-4.47194 -56.34391,-4.63034 -65,-6.56534 -36.29306,-8.11301 -45.275114,-3.03947 -63.162174,-13.00149 14.318792,-0.68055 44.018984,3.32505 62.162174,6.16897 4.4,0.78394 17.675,2.3457 29.5,3.47058 11.825,1.12488 27.125,2.69993 34,3.50012 6.875,0.80018 17.225,1.95589 23,2.56823 6.24085,0.66174 14.1507,2.32277 19.5,4.09492 4.95,1.63987 13.65274,4.03781 19.33943,5.32877 5.68668,1.29096 10.59918,2.60695 10.91666,2.92443 0.98735,0.98735 -9.90919,0.42391 -17.25609,-0.89227 z m 14,-27.68202 c 3.10253,-1.67185 17.5,0.14963 17.5,1.15153 0,1.2725 -13.2086,0.91353 -17.5,-1.15153 z m -96.25,-13.77818 c 1.5125,-0.0387 7.80521,0.0116 7.80521,0.56161 0,2.55787 -15.49115,-0.36518 -7.80521,-0.56161 z M 947,784.01672 C 907.68848,773.11058 504.36799,686.52587 412.5,677.02451 65.808325,638.90423 57.733621,655.42038 42.007463,647.00399 c -22.329938,-11.95061 196.979127,3.25896 233.603007,6.61127 12.32444,-0.13559 10.82266,-35.11415 9.27342,-45.06469 -0.2349,-0.2349 -7.61737,2.04811 -16.40549,5.07337 C 251.71761,619.39372 229.30821,626 226.49708,626 c 12.99257,-9.84016 40.34674,-18.14461 58.11347,-24.44615 -0.047,-6.82601 -2.40392,-11.80909 -4.11055,-18.37901 C 118.7211,644.04068 70,635.91986 70,633.83933 c 0,-2.6037 3.438833,-3.70282 15.378337,-4.91524 C 174.30826,619.89355 279,575.08052 279,573.88284 c 0,-2.51554 -5.81349,-18.57046 -9.16202,-25.30244 -9.56828,-19.23633 -30.39746,-43.8743 -48.00914,-56.78802 -24.87805,-17.56117 -15.27193,-39.38803 -2.84652,-62.29238 14.13089,-26.07444 25.72253,-32.59459 73.57788,-41.38662 66.44738,1.10232 90.1904,79.88529 117.45585,128.43291 39.80146,-19.87477 143.98549,-76.74393 242.30334,-178.61845 16.649,-17.2513 16.86173,-17.42691 21,-17.33563 7.28686,0.16072 16.39425,6.32739 39.18061,26.52942 36.11424,32.01832 40.53135,35.79451 80,68.39198 19.87807,16.41745 67.95345,53.03293 87.5,66.64231 20.40796,14.20913 35.65284,24.01212 62.91664,40.45759 12.59999,7.60028 14.44965,9.44877 11.95302,11.9454 -1.46191,1.46191 -2.43796,1.17414 -11.58324,-3.41518 C 925.08291,522.00878 907.33278,511.06321 876.5,489.96005 860.06467,478.71106 822.73776,450.87094 807.05797,438.16698 769.81529,407.99251 725.05625,370.02232 699.53277,346.9507 692.42652,340.5271 687.98477,337 687.00163,337 c 28.36428,82.54917 -19.56547,122.15406 -66.99965,175.08253 -6.76903,7.55308 -4.60517,25.56676 -2.49222,32.03843 4.29699,13.16107 13.77388,28.66939 24.93915,40.81132 23.28847,25.32558 64.96427,55.4985 116.55109,84.38198 25.27596,14.15202 74.3172,36.76518 114.5,52.79652 42.28604,16.87045 45.5,18.38612 45.5,21.45731 0,1.85062 0.5757,1.96775 -9.81188,-1.9963 -4.94089,-1.88551 -11.84199,-4.3222 -15.33578,-5.41486 -52.10136,-16.29438 -134.01295,-56.05295 -153.03293,-67.32399 -45.58471,-27.01305 -68.86727,-43.94349 -89.35531,-64.97675 -20.59638,-21.86616 -49.08203,-50.10887 -40.83593,-83.3296 7.03781,-18.34023 -14.14872,31.59032 -180.77895,95.80946 1.52524,30.68672 3.1493,32.1562 1.20733,53.22506 230.98193,33.74502 374.85288,72.47521 490.65998,99.88256 18.32976,4.33799 32.56349,9.41251 34.13109,10.97757 1.04204,1.04034 1.09075,1.8254 0.21482,3.4621 -1.31417,2.45554 -0.72128,2.44746 -9.06244,0.13338 z M 421.82038,643.16865 c 1.01694,-35.69828 -7.21112,-76.40502 -7.39622,-76.04505 -10.9147,21.22698 -69.12806,58.4813 -120.92416,42.22285 0.2513,15.48025 0.52621,30.64331 -4.23285,45.46904 38.22874,4.12494 76.59586,7.22377 114.73285,12.17885 16.77438,2.26736 17.12259,0.6702 17.82038,-23.82569 z M 688.27104,382.5 c -25.25932,35.04636 -69.93616,77.82284 -83.77104,89.20904 -69.53065,57.22419 36.59273,-30.98639 83.37909,-95.86446 l -0.49657,-7.17229 C 687.1094,364.72753 686.4616,361.0725 685.94297,360.55 685.34821,359.95081 685,360.01902 685,360.73471 c 0,2.46717 -18.17374,25.17528 -33.40689,41.74196 -39.99008,43.49083 -72.02934,74.11586 -94.09311,89.9398 -5.5564,3.985 14.83025,-16.63412 32.84354,-33.21807 38.75792,-35.68248 93.67929,-97.46057 93.64669,-105.33809 -0.005,-1.29817 -1.1426,-4.79388 -2.52717,-7.76825 l -2.5174,-5.40795 -2.72283,4.08902 c -6.96447,10.4589 -14.78492,20.59651 -23.36894,30.29308 -5.14464,5.81141 -14.97889,17.05705 -21.85389,24.99031 -22.79731,26.30647 -65.93447,67.63048 -84.5,80.94828 -3.09927,2.22323 1.90494,-3.31486 9.42262,-10.42789 26.91156,-25.46297 36.74932,-35.05884 48.86507,-47.66351 18.76518,-19.52243 46.31094,-49.49527 54.0368,-58.79804 C 666.02745,355.44224 677,340.11696 677,338.72977 677,336.76164 673.71329,331 672.59058,331 c -12.07614,0 -49.57034,78.29512 -251.90199,190.25468 -11.66722,5.5901 -7.33694,10.72405 -2.12137,21.63748 4.21722,4.30953 73.97192,-48.59871 86.3307,-55.27294 C 539.1703,469.11077 428.21727,548 421.15829,548 c -3.3323,0 4.56449,27.6508 8.02443,59.88232 C 529.91028,579.38352 686.80061,477.02929 688.27104,382.5 Z m -57.08719,-8 c 4.96385,0.56864 -91.04508,104.97373 -111.5125,116.52415 z M 407.9088,554.82308 c 2.51423,-8.45739 2.37138,-10.48029 -1.43514,-20.32308 -1.27621,-3.3 -4.6611,-12.3 -7.52197,-20 -6.62986,-12.91364 -18.70332,-45.9878 -28.45981,-54.90905 -7.47764,98.60278 -94.12221,81.70031 -90.96513,89.15905 3.61557,8.5419 8.58581,25.67425 9.93621,34.25 1.43169,9.09196 2.01438,10.80878 4.34522,12.80266 25.10054,21.47165 103.58581,-5.60972 114.10062,-40.97958 z M 360.18844,447.14956 c -0.0487,-2.71041 -2.69865,-7.70915 -7.91704,-15.02257 -8.00651,-9.78743 -19.33392,-23.58505 -29.37876,-30.66653 C 321.62516,400.97409 321,403.5134 321,411.42083 c 0,12.05675 -3.22346,24.93036 -8.15759,32.57917 -4.89124,7.58232 -19.83677,23.18134 -27.3403,28.53575 -7.78706,5.55672 -16.56844,9.66037 -27.50211,12.85206 -4.675,1.3647 -10.28265,3.41073 -12.46144,4.54673 -2.17879,1.136 -4.51474,2.06546 -5.19098,2.06546 -3.20926,0 -1.97196,2.60784 3.93398,8.29162 9.72876,9.36281 20.42197,25.36828 24.3604,30.43774 8.45347,10.88116 93.25865,11.61811 91.54648,-83.5798 z M 234.67131,477.75 c 2.46657,-2.3375 6.68497,-6.42309 9.37422,-9.07908 7.03248,-6.94554 9.38059,-4.33965 4.44832,4.93668 -1.37839,2.59238 -2.30978,4.9098 -2.06977,5.14982 3.73386,-1.00192 7.18973,-3.35668 10.57389,-5.25742 0.64563,-3.49254 -1.77704,-10.74504 1.51475,-13.14326 6.5734,-2.52245 1.52568,11.3846 9.30885,6.93984 3.97643,-1.84383 2.62261,-5.00653 1.73818,-8.29658 -1.89096,-7.03432 6.50956,-1.4759 8.7783,1.03104 2.84588,-2.47569 5.68957,-4.47948 2.90337,-7.65094 -3.84471,-4.37633 -0.75295,-6.19673 4.97373,-4.66819 3.51124,1.17131 7.11271,0.37363 9.78484,-2.15722 0,-0.60225 -10.90737,-2.58509 -11.86832,-5.07655 C 280.9696,432.2798 308,441.84472 308,431.4683 c 0,-1.12867 -20.20216,1.63168 -21.4603,-0.40403 0.076,-6.12831 11.33379,-6.83275 15.7103,-8.2664 L 312,419.56 c -0.1769,-2.43377 0.54707,-5.42394 -0.75,-7.54562 -2.91699,0.0566 -23.19998,13.11166 -25.84937,8.82483 -3.62196,-5.86042 18.50747,-8.58742 24.06569,-24.08921 0.50432,-2.92281 -6.82289,-1.7465 -8.96632,-1.74562 -4.50128,8.48374 -12.37678,21.20179 -21.71063,23.99562 -7.71139,0 14.61208,-23.29262 9.04419,-21.59468 -0.73346,0.22367 -4.0769,0.94579 -7.42988,1.60471 l -6.09631,1.19803 -1.14719,6.22599 c -6.15543,33.40682 -7.66133,-3.54657 -9.56196,-3.41874 -10.17553,0.68435 -1.23659,25.35777 -6.87507,20.67826 -6.20035,-5.14585 -1.69009,-21.41248 -14.78401,-10.65202 2.54623,4.22637 10.25865,9.8529 8.37133,15.04798 -5.239,2.57065 -10.84969,-5.88631 -14.07425,-9.3983 -3.77081,2.4976 -4.69642,5.83559 -6.22067,9.20881 0.0516,1.98982 15.4229,5.67278 14.77284,8.85287 -1.17127,5.72959 -19.59377,-4.03996 -23.76128,2.70322 -1.82402,2.70815 -2.02711,5.68264 -2.02711,8.80184 4.34279,0.74485 14.30504,-2.85991 18.29002,0.0554 11.5683,8.46306 -16.02245,-2.18672 -20.41537,15.15133 -2.1051,8.3084 24.51799,-8.51418 24.12535,-0.53568 -0.0972,1.9753 -23,11.62844 -23,12.88939 0,0.31467 1.20919,1.83426 2.68709,3.37685 4.12441,4.30496 8.38064,3.86507 13.98422,-1.44528 z m 16.67973,-41.04774 C 257.0442,423.0766 275,425.96181 275,436.27217 c 0,17.84246 -31.29139,18.72107 -23.64896,0.43009 z"
       id="path1"
       sodipodi:nodetypes="sssssscssssssssssssssssssssssssscsssssssssssssssssssssssssssssssssssssscsssssssssssssssssssssssssssscssssscssccssssssssssssssssssssssssssccssssssscsssssssssssssssssssssssccssssssccsscscsssssscscssssssssssssscccccssscsssssssssssssssssssscssscssssssscssscssscssscscssscssssssssss" />
  </g>
</svg>
